<svg width="58" height="58" viewBox="0 0 58 58" fill="none" xmlns="http://www.w3.org/2000/svg">
<g clip-path="url(#clip0_216_373)">
<path d="M37.2658 20.7069L26.8953 31.1547L23.2753 27.5078C23.0173 27.2484 22.7112 27.0427 22.3744 26.9025C22.0375 26.7622 21.6766 26.6902 21.3121 26.6905C20.9476 26.6908 20.5868 26.7635 20.2502 26.9043C19.9136 27.0451 19.6078 27.2513 19.3503 27.5112C19.0928 27.771 18.8886 28.0794 18.7494 28.4188C18.6102 28.7582 18.5388 29.1218 18.5391 29.489C18.5394 29.8562 18.6115 30.2197 18.7513 30.5588C18.891 30.8979 19.0957 31.206 19.3537 31.4654L24.6294 36.7805C24.7177 36.8955 24.8117 37.0059 24.911 37.1114C25.4322 37.6331 26.1371 37.9259 26.8718 37.9259C27.6065 37.9259 28.3114 37.6331 28.8326 37.1114L41.1874 24.6645C41.7083 24.1406 42.0014 23.4296 42.002 22.6881C42.0026 21.9465 41.7108 21.2351 41.1908 20.7103C40.6707 20.1855 39.9651 19.8903 39.229 19.8896C38.4929 19.889 37.7867 20.183 37.2658 20.7069Z" fill="#0F6D9C"/>
<path d="M50.5532 24.0223L44.3255 29.0538C44.2025 29.1513 44.1128 29.2851 44.0691 29.4365C44.0253 29.5878 44.0295 29.7492 44.0812 29.898C44.1329 30.0468 44.2295 30.1757 44.3574 30.2665C44.4853 30.3573 44.6382 30.4055 44.7947 30.4045H57.2501C57.4066 30.4055 57.5595 30.3573 57.6874 30.2665C57.8153 30.1757 57.9119 30.0468 57.9636 29.898C58.0153 29.7492 58.0195 29.5878 57.9757 29.4365C57.932 29.2851 57.8423 29.1513 57.7194 29.0538L51.4916 24.0223C51.359 23.9138 51.1933 23.8545 51.0224 23.8545C50.8515 23.8545 50.6858 23.9138 50.5532 24.0223Z" fill="#0F6D9C"/>
<path d="M27.5193 7.51L32.5135 13.7908C32.61 13.9143 32.7422 14.0044 32.8918 14.0486C33.0414 14.0929 33.2009 14.0892 33.3483 14.038C33.4957 13.9868 33.6236 13.8906 33.7143 13.7628C33.805 13.635 33.8539 13.4819 33.8543 13.3248V0.756387C33.8553 0.59873 33.8074 0.444697 33.7172 0.315819C33.6271 0.186942 33.4992 0.0896619 33.3515 0.0375789C33.2038 -0.014504 33.0436 -0.0187796 32.8934 0.0253364C32.7432 0.0694524 32.6103 0.159747 32.5135 0.283626L27.5193 6.57123C27.4121 6.7038 27.3535 6.86959 27.3535 7.04062C27.3535 7.21164 27.4121 7.37743 27.5193 7.51Z" fill="#0F6D9C"/>
<path d="M7.40076 30.9109L13.5413 25.9537C13.6654 25.8521 13.7554 25.7144 13.7989 25.5593C13.8425 25.4043 13.8376 25.2395 13.7848 25.0874C13.7321 24.9353 13.634 24.8033 13.5041 24.7093C13.3741 24.6154 13.2186 24.5641 13.0586 24.5625H0.777552C0.617622 24.5641 0.462094 24.6154 0.332142 24.7093C0.202191 24.8033 0.104148 24.9353 0.0513775 25.0874C-0.00139294 25.2395 -0.00635791 25.4043 0.0372206 25.5593C0.0807991 25.7144 0.170769 25.8521 0.294868 25.9537L6.43544 30.9109C6.57178 31.0228 6.74223 31.0839 6.91808 31.0839C7.09393 31.0839 7.26442 31.0228 7.40076 30.9109Z" fill="#0F6D9C"/>
<path d="M33.102 50.3749L27.9201 43.8712C27.8347 43.7562 27.7152 43.6717 27.5789 43.6299C27.4426 43.5881 27.2966 43.5911 27.1621 43.6385C27.0276 43.6859 26.9116 43.7753 26.8309 43.8937C26.7502 44.012 26.7091 44.1531 26.7135 44.2966V57.3109C26.7076 57.4549 26.7476 57.5971 26.8277 57.7166C26.9078 57.8361 27.0238 57.9267 27.1587 57.975C27.2935 58.0233 27.4402 58.0268 27.5772 57.9851C27.7142 57.9434 27.8344 57.8586 27.9201 57.7431L33.102 51.2326C33.2006 51.1118 33.2546 50.9602 33.2546 50.8037C33.2546 50.6473 33.2006 50.4957 33.102 50.3749Z" fill="#0F6D9C"/>
<path d="M32.9492 7.03711C36.7206 7.71226 40.2534 9.36238 43.2017 11.826C46.15 14.2896 48.4128 17.4822 49.7687 21.0914" stroke="#0F6D9C" stroke-width="5" stroke-miterlimit="10"/>
<path d="M6.94531 27.9596C7.17192 22.9043 9.09946 18.0772 12.4109 14.2722C15.7224 10.4672 20.2206 7.91077 25.1658 7.02344" stroke="#0F6D9C" stroke-width="5" stroke-miterlimit="10"/>
<path d="M29.0611 51.3136C23.9129 51.3183 18.9243 49.5138 14.9548 46.2112C10.9852 42.9086 8.28325 38.3146 7.31445 33.2207" stroke="#0F6D9C" stroke-width="5" stroke-miterlimit="10"/>
<path d="M51.2016 29C51.209 33.7364 49.7183 38.3521 46.9459 42.1773C44.1736 46.0026 40.2636 48.8386 35.7832 50.2739" stroke="#0F6D9C" stroke-width="5" stroke-miterlimit="10"/>
</g>
<defs>
<clipPath id="clip0_216_373">
<rect width="58" height="58" fill="white"/>
</clipPath>
</defs>
</svg>
