<svg width="59" height="67" viewBox="0 0 59 67" fill="none" xmlns="http://www.w3.org/2000/svg">
<path d="M44.9459 66.6538H31.1074C31.1074 66.1675 31.144 65.3832 31.1858 64.4263C31.2537 62.6799 31.5934 59.7204 31.8913 56.17C31.9442 54.9254 32.3032 53.7131 32.9365 52.6406C33.413 51.9375 33.9886 51.307 34.6454 50.7687C37.5023 48.3286 40.3627 45.8763 43.2265 43.4117C44.2717 42.5194 45.3169 41.6479 46.3621 40.7973C46.7854 40.4522 47.2401 40.1333 47.6738 39.8039C47.7913 39.7182 47.9272 39.6614 48.0705 39.6377C48.2139 39.6141 48.3609 39.6245 48.4995 39.6679C49.0182 39.817 49.4827 40.113 49.8369 40.5203C50.1912 40.9276 50.42 41.4288 50.4959 41.9634C50.4855 42.171 50.4272 42.3734 50.3257 42.5549C50.2241 42.7363 50.0821 42.8917 49.9106 43.0091C48.7765 44.0549 47.6268 45.1006 46.4771 46.1464C45.3274 47.1922 44.2717 48.1072 43.1952 49.1111C42.9458 49.3329 42.7862 49.6384 42.7467 49.9698C42.7073 50.3013 42.7906 50.6357 42.9809 50.9099C43.1113 51.1497 43.2886 51.3608 43.5023 51.5305C43.716 51.7003 43.9617 51.8253 44.2247 51.8981C44.4137 51.9571 44.6146 51.9669 44.8084 51.9266C45.0023 51.8864 45.1827 51.7974 45.3326 51.668C46.1844 51.0197 47.0258 50.3608 47.8515 49.6706C49.2625 48.4941 50.6527 47.2968 52.0323 46.0941C52.1001 46.035 52.1553 45.9629 52.1948 45.8821C52.2343 45.8013 52.2572 45.7133 52.2623 45.6235C52.4399 43.532 52.5863 41.4405 52.7849 39.349C52.9991 36.9489 53.2448 34.5541 53.4695 32.1593C53.5485 31.7147 53.7932 31.3167 54.1541 31.0456C54.4311 30.7842 54.7446 30.5593 55.0268 30.3031C55.1956 30.1849 55.386 30.1011 55.5872 30.0566C55.7884 30.012 55.9963 30.0076 56.1992 30.0435C56.4021 30.0795 56.5959 30.1551 56.7696 30.266C56.9432 30.3769 57.0933 30.521 57.2113 30.69C57.2908 30.8675 57.3301 31.0603 57.3263 31.2547C57.4046 32.4521 57.483 33.6548 57.5353 34.8522C57.6712 37.7855 57.8018 40.7241 57.9116 43.6575C57.9638 44.9804 57.9429 46.3033 58.0004 47.6262C58.0157 47.9141 57.9603 48.2013 57.8392 48.4629C57.718 48.7244 57.5348 48.9524 57.3054 49.1268C55.6905 50.5282 54.0861 51.9347 52.4661 53.3099C50.2119 55.2376 47.9473 57.1548 45.6723 59.0616C45.6047 59.1148 45.5496 59.1822 45.5108 59.259C45.472 59.3357 45.4504 59.42 45.4476 59.506C45.3378 60.8969 45.1288 62.2825 45.1183 63.6891C45.1183 64.6798 45.0607 65.6698 44.9459 66.6538Z" fill="#0F6D9C"/>
<path d="M13.0675 66.6543H26.9739C26.9425 66.1994 26.8902 65.4099 26.8275 64.4268C26.6446 61.5824 26.3729 59.198 26.122 56.1705C26.0715 54.9255 25.7123 53.7127 25.0768 52.6411C24.6018 51.9291 24.0242 51.2912 23.3627 50.7483C20.5093 48.3081 17.6507 45.8558 14.7868 43.3913C13.7416 42.4954 12.6964 41.624 11.6512 40.7769C11.2279 40.4318 10.7785 40.1128 10.3395 39.7834C10.223 39.6979 10.088 39.641 9.9455 39.6174C9.80295 39.5938 9.65685 39.6041 9.51902 39.6475C9.00156 39.7945 8.53748 40.0879 8.18246 40.4922C7.82743 40.8966 7.59654 41.3949 7.51747 41.9272C7.51927 42.1389 7.57083 42.3472 7.66797 42.5352C7.76511 42.7232 7.90511 42.8857 8.07665 43.0096C9.21069 44.0554 10.3656 45.1011 11.5154 46.1469C12.6651 47.1927 13.7155 48.1077 14.7921 49.1116C15.0443 49.3314 15.2062 49.6367 15.2468 49.9688C15.2873 50.301 15.2035 50.6364 15.0115 50.9103C14.8801 51.1503 14.7018 51.3615 14.4872 51.5312C14.2727 51.701 14.0262 51.8259 13.7625 51.8986C13.5735 51.9571 13.3727 51.9666 13.179 51.9264C12.9852 51.8862 12.8048 51.7974 12.6546 51.6685C11.808 50.9626 10.9771 50.3299 10.1409 49.6136C8.7299 48.4371 7.33456 47.2397 5.96012 46.0371C5.8416 45.9301 5.76709 45.7829 5.75108 45.624C5.5734 43.5325 5.42707 41.441 5.22848 39.3494C5.01944 36.9494 4.76859 34.5546 4.5491 32.1598C4.46777 31.7148 4.22137 31.317 3.85927 31.0461C3.58229 30.7846 3.27396 30.5598 2.98653 30.3036C2.64602 30.0665 2.22548 29.9741 1.81701 30.0466C1.40854 30.1191 1.04546 30.3507 0.807284 30.6905C0.728619 30.8684 0.687691 31.0607 0.687086 31.2552C0.613922 32.4526 0.52508 33.6553 0.478046 34.8527C0.336944 37.8122 0.206294 40.7508 0.0913218 43.6841C0.0390618 45.007 0.0651918 46.3299 0.00247979 47.6528C-0.0127819 47.9407 0.0425757 48.2279 0.163726 48.4895C0.284876 48.7511 0.46814 48.979 0.697538 49.1535C2.31237 50.5548 3.91675 51.9613 5.54204 53.3365C7.78922 55.2659 10.0521 57.1902 12.3358 59.0882C12.4037 59.1411 12.4605 59.2069 12.5031 59.2817C12.5421 59.3597 12.5635 59.4454 12.5658 59.5327C12.5449 59.7836 12.7591 62.6752 13.0675 66.6543Z" fill="#0F6D9C"/>
<path d="M40.2442 38.2615C33.973 44.5047 25.6114 42.8576 25.0522 42.7321C24.9267 42.1517 23.2858 33.8013 29.5204 27.5685C35.755 21.3358 44.1062 22.9724 44.6758 23.0979C44.8117 23.6626 46.4579 32.0287 40.2442 38.2615Z" stroke="#0F6D9C" stroke-width="3" stroke-miterlimit="10"/>
<path d="M25.0508 42.7325L44.6849 23.0879" stroke="#0F6D9C" stroke-width="3" stroke-miterlimit="10"/>
<path d="M33.4813 24.6719L31.1035 36.6825L36.0578 31.7255L44.3932 30.9412" stroke="#0F6D9C" stroke-width="3" stroke-miterlimit="10"/>
<path d="M24.2727 41.9952L23.9121 42.241C23.1909 41.7756 12.9375 34.9206 12.9375 22.1205C12.9375 9.32034 23.17 2.46536 23.9121 2C24.6333 2.46536 34.8867 9.32034 34.8867 22.1205C34.8867 22.5858 34.8867 23.0512 34.8449 23.5009" stroke="#0F6D9C" stroke-width="3" stroke-miterlimit="10"/>
<path d="M23.9121 2V42.241" stroke="#0F6D9C" stroke-width="3" stroke-miterlimit="10"/>
<path d="M14.0508 15.1033L23.9122 29.8433V19.689L31.6415 10.3398" stroke="#0F6D9C" stroke-width="3" stroke-miterlimit="10"/>
</svg>
