<svg width="51" height="73" viewBox="0 0 51 73" fill="none" xmlns="http://www.w3.org/2000/svg">
<path d="M35.5986 27.642C35.5986 39.0242 26.353 45.1364 25.7065 45.5455C25.0479 45.1364 15.8145 39.0242 15.8145 27.642C15.8145 16.2598 25.0479 10.1356 25.7065 9.72656C26.292 10.1356 35.5986 16.2598 35.5986 27.642Z" stroke="#0F6D9C" stroke-width="3" stroke-miterlimit="10"/>
<path d="M25.6445 52.2113V9.72656" stroke="#0F6D9C" stroke-width="3" stroke-miterlimit="10"/>
<path d="M16.7402 21.3842L25.6444 34.511V25.475L32.6213 17.1489" stroke="#0F6D9C" stroke-width="3" stroke-miterlimit="10"/>
<path d="M48.3546 25.4275C48.3546 33.0317 42.6218 40.323 42.1705 40.7802L41.4874 41.3578C41.4874 41.3578 41.0117 41.7909 40.4994 42.212C38.5965 43.5422 36.7834 44.9931 35.0715 46.5555C33.7536 48.1226 33.0713 50.1159 33.1565 52.1503H17.4829C17.4093 50.1319 16.7207 48.1822 15.5069 46.5555C14.1686 45.0436 12.6904 43.658 11.0914 42.4166C11.006 42.3444 10.6645 42.0797 10.2254 41.6826C10.2254 41.6826 9.78628 41.3096 9.38376 40.9126C8.98125 40.5155 2.80937 33.1761 3.00453 25.3674C3.28507 14.9357 12.1648 3 25.6795 3C28.6624 2.99999 31.616 3.58054 34.371 4.70836C37.126 5.83619 39.6284 7.48916 41.7348 9.57254C43.8412 11.6559 45.5101 14.1287 46.6461 16.8494C47.782 19.5701 48.3626 22.4851 48.3546 25.4275Z" stroke="#0F6D9C" stroke-width="5" stroke-miterlimit="10"/>
<path d="M33 57H18V61H33V57Z" stroke="#0F6D9C" stroke-width="5" stroke-miterlimit="10"/>
<path d="M30.1417 65.9102H21V69.828H30.1417V65.9102Z" stroke="#0F6D9C" stroke-width="5" stroke-miterlimit="10"/>
</svg>
