<svg width="55" height="61" viewBox="0 0 55 61" fill="none" xmlns="http://www.w3.org/2000/svg">
<g clip-path="url(#clip0_216_351)">
<path d="M12.2326 61.007L-0.0136719 48.6927C0.425332 48.2726 1.13952 47.6031 2.02408 46.7826C3.63595 45.2991 6.54517 42.982 9.97203 40.0807C11.1123 39.0164 12.4996 38.2538 14.0083 37.862C15.0527 37.6588 16.1215 37.6123 17.1796 37.7242C21.8885 38.0699 26.5974 38.4309 31.3063 38.8072C33.0165 38.9385 34.7266 39.0961 36.4368 39.2667C37.092 39.3324 37.7996 39.4571 38.4811 39.549C38.6613 39.5757 38.8325 39.645 38.9806 39.7511C39.1288 39.8573 39.2495 39.9972 39.3329 40.1594C39.6615 40.7496 39.8128 41.4223 39.7686 42.0966C39.7245 42.7709 39.4867 43.418 39.0839 43.96C38.8922 44.1501 38.6572 44.2906 38.3993 44.3695C38.1413 44.4484 37.868 44.4633 37.6031 44.413C35.6374 44.3408 33.7241 44.2357 31.7912 44.1307C29.8582 44.0257 28.1023 43.9141 26.2545 43.8485C25.8378 43.8255 25.4269 43.9555 25.0989 44.214C24.7709 44.4726 24.5481 44.842 24.4723 45.2532C24.2948 45.9169 24.3842 46.6239 24.7213 47.2224C24.8369 47.4424 25.0063 47.6295 25.2137 47.7661C25.4211 47.9027 25.6597 47.9844 25.9072 48.0035C27.2177 48.1808 28.5674 48.3449 29.9041 48.463C32.204 48.6731 34.4907 48.8437 36.7971 49.0144C36.9995 49.0282 37.1998 48.9675 37.3606 48.8437C39.3263 47.1502 41.3379 45.4304 43.3429 43.7434C45.6558 41.807 47.995 39.8969 50.3211 37.967C50.7853 37.6446 51.3544 37.5109 51.9133 37.5929C52.3916 37.5929 52.8699 37.6782 53.3483 37.7045C53.6026 37.7496 53.8455 37.8446 54.0632 37.9838C54.2809 38.1231 54.469 38.3039 54.6169 38.5161C54.7648 38.7282 54.8695 38.9675 54.925 39.2202C54.9805 39.4729 54.9857 39.734 54.9405 39.9888C54.8479 40.2143 54.7122 40.4195 54.5408 40.5927C53.5448 41.7282 52.5751 42.8573 51.5398 43.9732C49.0587 46.6951 46.5688 49.4126 44.0702 52.1258C42.9432 53.3467 41.7507 54.5019 40.6303 55.7294C40.3865 56.001 40.0794 56.2078 39.7364 56.3315C39.3934 56.4552 39.0252 56.4919 38.6646 56.4384C35.9978 56.248 33.3244 56.0773 30.6511 55.8739C26.9425 55.5938 23.2295 55.2984 19.5122 54.9877C19.405 54.9752 19.2964 54.9857 19.1936 55.0186C19.0908 55.0514 18.9961 55.1058 18.9159 55.1781C17.6055 56.3202 16.1771 57.3639 14.9321 58.598C14.0766 59.4495 13.1754 60.2537 12.2326 61.007Z" fill="#0F6D9C"/>
<path d="M36.9281 11.973L29.8516 19.0622L27.3814 16.5876C27.026 16.2316 26.544 16.0315 26.0415 16.0315C25.5389 16.0315 25.0569 16.2316 24.7015 16.5876C24.3462 16.9436 24.1465 17.4264 24.1465 17.9299C24.1465 18.4334 24.3462 18.9162 24.7015 19.2723L28.3053 22.8825C28.3643 22.9613 28.4298 23.0335 28.4953 23.1057C28.6712 23.2821 28.8801 23.4221 29.11 23.5176C29.3399 23.6131 29.5863 23.6623 29.8352 23.6623C30.0841 23.6623 30.3306 23.6131 30.5605 23.5176C30.7905 23.4221 30.9993 23.2821 31.1752 23.1057L39.608 14.6577C39.9634 14.3017 40.163 13.8188 40.163 13.3153C40.163 12.8119 39.9634 12.329 39.608 11.973C39.2526 11.617 38.7706 11.417 38.268 11.417C37.7655 11.417 37.2835 11.617 36.9281 11.973Z" fill="#0F6D9C"/>
<path d="M48.0605 8.92037C48.0346 10.6379 47.9033 12.3521 47.6674 14.0535C47.3371 16.4139 46.7977 18.7403 46.0555 21.0049C45.0456 24.0637 43.4074 26.8766 41.2462 29.2625C39.8655 30.8581 38.261 32.2445 36.4826 33.3781C35.2985 34.0925 34.0219 34.6403 32.6888 35.0061C32.3592 35.1012 32.0094 35.1012 31.6798 35.0061C29.0186 34.2515 26.5809 32.8591 24.5771 30.9494C23.1215 29.6068 21.8204 28.1052 20.6981 26.4728C19.7037 25.0219 18.9144 23.4403 18.3524 21.7728C17.92 20.506 17.5268 19.2194 17.2188 17.9197C16.9109 16.62 16.6947 15.2941 16.5047 13.9813C16.2297 12.0249 16.1332 10.0475 16.2164 8.07361C16.2579 7.29109 16.3388 6.51116 16.4588 5.7368C16.5636 5.03445 17.0813 4.78499 17.9003 4.8572C18.5962 4.90643 19.2946 4.90643 19.9905 4.8572C22.1812 4.7366 24.3311 4.21374 26.3331 3.31465C28.1639 2.52289 29.8894 1.50644 31.4701 0.288623C31.5639 0.198621 31.6749 0.128537 31.7964 0.0826138C31.9179 0.0366903 32.0475 0.0158574 32.1772 0.0213761C32.307 0.0268947 32.4343 0.0586492 32.5515 0.114725C32.6687 0.170801 32.7733 0.250055 32.8592 0.347697C34.6909 1.95565 36.822 3.18482 39.1297 3.96449C40.3439 4.38764 41.6007 4.676 42.8777 4.82438C44.0768 4.96881 45.2889 4.96881 46.488 4.82438C46.6447 4.77896 46.8098 4.77034 46.9703 4.79918C47.1309 4.82803 47.2827 4.89358 47.4139 4.99073C47.5451 5.08788 47.6522 5.21403 47.7268 5.35936C47.8015 5.50469 47.8417 5.66529 47.8443 5.82871C47.936 6.85271 48.0278 7.88327 48.1261 8.90726L48.0605 8.92037ZM44.9154 8.8285C44.9154 8.62501 44.9154 8.42807 44.9154 8.23114C44.9154 8.03422 44.8564 7.96203 44.6468 7.95546C43.9915 7.95546 43.2839 7.90952 42.6024 7.83732C40.9195 7.66162 39.2659 7.27116 37.6817 6.67546C35.7231 5.96394 33.8814 4.96396 32.2171 3.70848C32.1645 3.65716 32.0939 3.62848 32.0205 3.62848C31.9471 3.62848 31.8766 3.65716 31.8239 3.70848C30.7536 4.44713 29.6301 5.10534 28.4626 5.67771C26.5326 6.63177 24.4727 7.29532 22.3493 7.64693C21.4516 7.79134 20.5343 7.83731 19.6236 7.91608C19.3877 7.91608 19.3156 8.02768 19.3222 8.25086C19.3615 9.38644 19.368 10.522 19.4204 11.6576C19.5202 13.4438 19.7723 15.2182 20.1739 16.9614C20.5316 18.6674 21.0561 20.334 21.74 21.9369C22.1828 23.0105 22.7385 24.0337 23.3977 24.9893C24.3886 26.423 25.5334 27.7437 26.8114 28.9277C28.1674 30.194 29.7564 31.1839 31.4898 31.8422C31.7776 31.9999 32.1125 32.0488 32.4333 31.98C33.6525 31.5653 34.7998 30.9629 35.834 30.1946C37.2446 29.1051 38.5165 27.8463 39.6212 26.4465C40.8373 24.9732 41.8207 23.3217 42.5369 21.5497C43.1192 20.0877 43.5859 18.582 43.9326 17.0467C44.5454 14.3491 44.8748 11.5948 44.9154 8.8285Z" fill="#0F6D9C"/>
</g>
<defs>
<clipPath id="clip0_216_351">
<rect width="55" height="61" fill="white"/>
</clipPath>
</defs>
</svg>
