<?xml version="1.0" encoding="utf-8"?>
<!-- Generator: Adobe Illustrator 25.4.1, SVG Export Plug-In . SVG Version: 6.00 Build 0)  -->
<svg version="1.1" id="Слой_1" xmlns="http://www.w3.org/2000/svg" xmlns:xlink="http://www.w3.org/1999/xlink" x="0px" y="0px"
	 viewBox="0 0 87 87" style="enable-background:new 0 0 87 87;" xml:space="preserve">
<style type="text/css">
	.st0{fill:#0F6D9C;}
	.st1{clip-path:url(#SVGID_00000166666748638934263000000005652031963875949726_);}
</style>
<path class="st0" d="M36.5,63.2l0-0.2l0,0l0-22l9.8-11.9c1.1,3,1.8,6.5,1.8,10.3c0,1-0.1,2-0.2,3l3.9-7.1
	c-2-17.2-16.2-26.1-16.4-26.2l-1.1-0.7l-1.1,0.7c-0.6,0.4-13.6,8.9-16.1,24.9l-0.1,0.1l0.1,0.1c-0.3,1.7-0.4,3.4-0.4,5.2
	c0,17.9,13.5,28.2,16.1,30.1L36.5,63.2z M44.6,25.2l-8,9.7l0-19.9C38.9,17.1,42.1,20.5,44.6,25.2z M32.5,15l0,34.9l-11-16.4
	C23.3,24.3,29,18.1,32.5,15z M20.9,39.7l11.6,17.4l0,7.1C28.2,60.3,21,52.1,20.9,39.7z"/>
<g>
	<defs>
		<rect id="SVGID_1_" x="40.5" y="40.4" width="33" height="32"/>
	</defs>
	<clipPath id="SVGID_00000148657605007071715100000008874225458296552848_">
		<use xlink:href="#SVGID_1_"  style="overflow:visible;"/>
	</clipPath>
	<g style="clip-path:url(#SVGID_00000148657605007071715100000008874225458296552848_);">
		<path class="st0" d="M59.1,65.7l4.6-0.1c1.2,0,2.3,0,3.5,0c0.7,0,0.9-0.7,0.6-1.4c-0.8-1.4-1.6-2.9-2.5-4.4l4.5-2.6
			c1,2.2,2.4,4.2,3,6.5c1,3.4-1.8,6.8-5.3,7c-1.2,0.1-2.4,0-3.7,0l-5.5-0.1l-2.9-2.4L59.1,65.7z"/>
		<path class="st0" d="M52,65.6v5.1h-1c-1.4,0-2.8,0-4.1,0c-1,0-2-0.3-2.9-0.8c-0.9-0.5-1.6-1.3-2.1-2.2c-0.5-0.9-0.8-1.9-0.8-2.9
			c0-1,0.3-2,0.8-2.9c0.5-1,1.1-2,1.7-3.1l3-4.5l3.3-1.6l0.6,4c-0.9,1.5-1.7,3.1-2.6,4.6c-0.6,1.1-1.2,2.1-1.7,3.1
			c-0.3,0.6,0.1,1.1,0.8,1.1c1.4,0,2.7,0,4.1,0L52,65.6z"/>
		<path class="st0" d="M59.5,49.5c-0.5-1.1-1.1-2.1-1.7-3c-0.1-0.2-0.3-0.3-0.5-0.4c-0.2,0-0.4,0-0.6,0.1c-0.2,0.1-0.3,0.3-0.4,0.4
			c-0.7,1.2-1.4,2.4-2,3.6c-0.1,0.2-0.3,0.4-0.4,0.7l-4.3-2.5c1-1.8,1.9-3.6,3.1-5.2c2.4-3.3,7.3-2.9,9.5,0.6c0.6,1,1.2,2.1,1.8,3.2
			l2.4,5.2c-0.1,1.2-0.2,2.3-0.4,3.5l-3.6-1.2L59.5,49.5z"/>
		<path class="st0" d="M55.5,68.3l3.1,3.9c0.1,0.1,0.1,0.1,0.2,0.1c0.1,0,0.2,0,0.2,0c0.1,0,0.1-0.1,0.2-0.2c0-0.1,0.1-0.2,0.1-0.2
			v-7.9c0-0.1,0-0.2-0.1-0.2c0-0.1-0.1-0.1-0.2-0.2c-0.1,0-0.2,0-0.2,0c-0.1,0-0.2,0.1-0.2,0.1l-3.1,3.9c-0.1,0.1-0.1,0.2-0.1,0.3
			C55.4,68.1,55.4,68.2,55.5,68.3z"/>
		<path class="st0" d="M49.8,52.7l-4.9,0.8c-0.1,0-0.2,0-0.2,0.1c-0.1,0.1-0.1,0.1-0.1,0.2c0,0.1,0,0.2,0,0.3c0,0.1,0.1,0.1,0.2,0.2
			l6.7,3.9c0.1,0,0.2,0.1,0.2,0.1c0.1,0,0.2,0,0.2-0.1c0.1-0.1,0.1-0.1,0.1-0.2c0-0.1,0-0.2,0-0.3L50.2,53c0-0.1-0.1-0.2-0.2-0.2
			C49.9,52.7,49.9,52.7,49.8,52.7z"/>
		<path class="st0" d="M65.8,55.9l2.1-4.6c0-0.1,0.1-0.2,0-0.2c0-0.1-0.1-0.2-0.1-0.2c-0.1-0.1-0.1-0.1-0.2-0.1c-0.1,0-0.2,0-0.2,0
			l-6.9,3.5c-0.1,0-0.1,0.1-0.2,0.2c0,0.1-0.1,0.2,0,0.3c0,0.1,0,0.2,0.1,0.2c0.1,0.1,0.1,0.1,0.2,0.1l4.8,1.1c0.1,0,0.2,0,0.3,0
			C65.7,56,65.8,56,65.8,55.9z"/>
	</g>
</g>
</svg>
