<svg width="32" height="36" viewBox="0 0 32 36" fill="none" xmlns="http://www.w3.org/2000/svg">
<path d="M19.5978 24.5843C19.3714 24.5843 19.1539 24.7044 18.9919 24.919C18.8298 25.1337 18.736 25.4259 18.7305 25.7333C18.7305 25.8898 18.7532 26.0448 18.7974 26.1894C18.8415 26.334 18.9061 26.4654 18.9876 26.5761C19.0691 26.6868 19.1659 26.7746 19.2725 26.8345C19.379 26.8944 19.4931 26.9252 19.6084 26.9252C19.7237 26.9252 19.8379 26.8944 19.9444 26.8345C20.0509 26.7746 20.1477 26.6868 20.2293 26.5761C20.3108 26.4654 20.3755 26.334 20.4196 26.1894C20.4637 26.0448 20.4864 25.8898 20.4864 25.7333C20.4837 25.5786 20.4585 25.4262 20.4123 25.2847C20.3662 25.1432 20.3 25.0155 20.2174 24.9088C20.1349 24.8021 20.0377 24.7186 19.9314 24.6629C19.8251 24.6072 19.7118 24.5805 19.5978 24.5843Z" fill="white"/>
<path d="M30.9957 30.7688C30.9761 30.1805 30.8674 29.5984 30.6733 29.0423C29.5199 26.0456 28.3169 23.0735 27.1636 20.0768C26.9873 19.6115 26.895 19.1189 26.8908 18.6216C26.8908 12.7022 26.8908 6.79504 26.8908 0.875594V0.0123442H24.7949V1.98548H16.5477V0.0246696H14.4767V1.98548H6.1923V0H4.13361V0.900263C4.13361 6.83616 4.13361 12.772 4.13361 18.7079C4.13293 19.13 4.05301 19.5482 3.89798 19.9411C2.81903 22.6419 1.72769 25.355 0.574335 28.0311C0.164571 28.9456 -0.0305039 29.9409 0.003868 30.9415C0.003868 32.2733 0.003868 33.6176 0.003868 35.0234C0.416673 34.9925 0.831231 34.9925 1.24404 35.0234C1.97889 35.1949 2.74925 35.1337 3.44745 34.8485C4.14564 34.5633 4.73675 34.0682 5.13815 33.4326C5.2681 33.2619 5.44049 33.1278 5.63837 33.0435C5.83625 32.9591 6.05279 32.9275 6.2667 32.9516C11.8475 32.9516 17.4283 33.0379 23.009 32.9516C23.7802 32.8441 24.5662 32.9454 25.2843 33.2449C26.0024 33.5444 26.6259 34.031 27.0891 34.6535C27.1583 34.7544 27.2483 34.8395 27.3531 34.9033C27.4578 34.9671 27.575 35.008 27.6968 35.0234C28.7758 35.0234 29.8423 35.0234 31.008 35.0234C31.008 33.6299 31.0453 32.1747 30.9957 30.7688ZM14.4147 22.7036V24.6521H12.5172V22.7036H14.4147ZM10.2849 28.7587H8.32539V26.8102H10.2849V28.7587ZM10.2849 24.6521H8.32539V22.7036H10.2849V24.6521ZM14.4147 28.7957C13.8318 28.7957 13.2985 28.7957 12.7528 28.7957C12.6772 28.7718 12.6084 28.7302 12.5523 28.6744C12.4962 28.6186 12.4544 28.5502 12.4303 28.475C12.4303 27.9448 12.4303 27.4021 12.4303 26.8225H14.427L14.4147 28.7957ZM14.4147 18.4613H6.24191V4.03263H24.6832V4.16829V18.4613H16.6097H14.4147ZM19.5613 28.7957C18.9509 28.7784 18.3594 28.5815 17.8615 28.2299C17.3636 27.8784 16.9817 27.3879 16.764 26.8206C16.5464 26.2532 16.5029 25.6344 16.6388 25.0424C16.7748 24.4505 17.0842 23.9119 17.5279 23.4947C17.9717 23.0776 18.5299 22.8006 19.1319 22.6989C19.7339 22.5972 20.3528 22.6752 20.9102 22.9231C21.4676 23.1711 21.9387 23.5778 22.2637 24.0919C22.5887 24.6059 22.7531 25.2043 22.7361 25.8113C22.7283 26.2178 22.6387 26.6185 22.4726 26.99C22.3065 27.3615 22.0673 27.6962 21.7692 27.9743C21.471 28.2525 21.1197 28.4684 20.7363 28.6095C20.3529 28.7505 19.9449 28.8138 19.5365 28.7957H19.5613Z" fill="white"/>
<path d="M10.7479 11.6794C10.9678 11.6124 11.1597 11.474 11.2938 11.2857C11.428 11.0973 11.4969 10.8695 11.4899 10.6375C11.4899 10.4596 11.427 10.2944 11.4018 10.0911C11.8923 9.6972 12.3953 9.27788 12.9234 8.82045C12.9532 8.80752 12.9853 8.80085 13.0177 8.80085C13.0502 8.80085 13.0822 8.80752 13.112 8.82045C13.3428 8.94921 13.6115 8.99053 13.8697 8.93696C14.1279 8.88338 14.3586 8.73842 14.5204 8.52821C14.5425 8.50401 14.5701 8.4856 14.6007 8.47454C14.6314 8.46347 14.6643 8.46007 14.6965 8.46467L15.7906 8.76963C15.803 8.94001 15.824 9.10964 15.8534 9.27789C15.8972 9.41305 15.9669 9.53818 16.0585 9.64613C16.1501 9.75408 16.2619 9.84274 16.3874 9.90705C16.5129 9.97135 16.6498 10.01 16.7901 10.0209C16.9304 10.0318 17.0715 10.0146 17.2053 9.97041C17.339 9.92619 17.4629 9.85578 17.5697 9.7632C17.6765 9.67063 17.7642 9.55768 17.8279 9.43084C17.8915 9.304 17.9299 9.16575 17.9406 9.02395C17.9514 8.88216 17.9344 8.7396 17.8906 8.60444C17.8906 8.47738 17.8151 8.38843 17.8906 8.28678C18.4062 7.77852 18.8966 7.25755 19.4122 6.762C19.4517 6.74373 19.4945 6.73427 19.5379 6.73427C19.5813 6.73427 19.6243 6.74373 19.6637 6.762C19.9194 6.85731 20.2003 6.85731 20.456 6.762C20.6977 6.64507 20.8879 6.44162 20.9896 6.19108C21.0913 5.94054 21.0973 5.66077 21.0065 5.406C20.9156 5.15123 20.7344 4.9396 20.498 4.81216C20.2615 4.68472 19.9866 4.65054 19.7266 4.71625C19.4571 4.81145 19.2357 5.0105 19.1109 5.26997C18.986 5.52943 18.9678 5.82825 19.0602 6.10125C19.0602 6.22832 19.1356 6.31728 19.0602 6.43164C18.5571 6.92719 18.0667 7.44816 17.5637 7.94372C17.524 7.96121 17.4812 7.97022 17.4379 7.97022C17.3946 7.97022 17.3518 7.96121 17.3122 7.94372C17.1171 7.85854 16.9011 7.8348 16.6925 7.8756C16.4838 7.91641 16.2922 8.01985 16.1427 8.17242C16.0736 8.19766 15.9979 8.19766 15.9289 8.17242C15.5768 8.08348 15.2247 7.98182 14.8852 7.86746C14.8479 7.84856 14.8151 7.82176 14.7891 7.78886C14.763 7.75596 14.7444 7.71775 14.7343 7.67687C14.7219 7.52405 14.6779 7.37557 14.605 7.24107C14.5322 7.10658 14.4321 6.98909 14.3114 6.89623C14.1906 6.80337 14.0518 6.73722 13.9041 6.70209C13.7564 6.66696 13.6031 6.66363 13.454 6.69232C13.3049 6.72101 13.1635 6.78106 13.039 6.8686C12.9144 6.95613 12.8094 7.06918 12.7309 7.2004C12.6524 7.33161 12.6021 7.47804 12.5832 7.63018C12.5644 7.78233 12.5775 7.93678 12.6216 8.08349C12.6441 8.13608 12.6463 8.19528 12.6276 8.2494C12.609 8.30352 12.5709 8.34861 12.521 8.37573L11.2635 9.43038C11.2101 9.49254 11.1372 9.53411 11.0569 9.54801C10.9767 9.56191 10.8941 9.54728 10.8234 9.50661C10.6009 9.41634 10.3544 9.40622 10.1254 9.47796C9.89637 9.54969 9.69879 9.6989 9.56585 9.90051C9.43476 10.0859 9.36426 10.308 9.36426 10.5358C9.36426 10.7637 9.43476 10.9858 9.56585 11.1712C9.68467 11.371 9.86296 11.5278 10.0753 11.6191C10.2876 11.7103 10.523 11.7315 10.7479 11.6794ZM20.1038 5.2118C20.1749 5.21011 20.2455 5.22258 20.3118 5.24848C20.378 5.27439 20.4385 5.31324 20.4899 5.3628C20.5413 5.41236 20.5826 5.47168 20.6113 5.53734C20.6399 5.603 20.6555 5.67372 20.6572 5.74547C20.6513 5.88631 20.5941 6.01999 20.4966 6.12084C20.3991 6.22168 20.2682 6.28259 20.129 6.29186C19.9844 6.2919 19.8455 6.23474 19.7421 6.13263C19.6387 6.03051 19.579 5.89154 19.5757 5.74547C19.5757 5.60393 19.6313 5.4682 19.7304 5.36811C19.8294 5.26803 19.9638 5.2118 20.1038 5.2118ZM16.8846 8.47739C17.0238 8.47724 17.1576 8.5313 17.2583 8.62833C17.359 8.72536 17.4188 8.8579 17.4253 8.99836C17.4223 9.1435 17.3647 9.28202 17.2643 9.38584C17.1639 9.48967 17.0281 9.55101 16.8846 9.55743C16.8125 9.55745 16.7412 9.54291 16.6747 9.51466C16.6083 9.48641 16.5481 9.44503 16.4978 9.39294C16.4474 9.34085 16.4078 9.27911 16.3814 9.21134C16.355 9.14358 16.3422 9.07117 16.3439 8.99836C16.3455 8.92827 16.3608 8.85919 16.3888 8.79507C16.4169 8.73095 16.4572 8.67304 16.5074 8.62466C16.5576 8.57628 16.6168 8.53837 16.6815 8.5131C16.7462 8.48783 16.8152 8.4757 16.8846 8.47739ZM13.6779 7.38463C13.755 7.37265 13.8337 7.37765 13.9086 7.39928C13.9836 7.42092 14.0531 7.45868 14.1123 7.50997C14.1714 7.56127 14.2189 7.62488 14.2514 7.69645C14.284 7.76803 14.3009 7.84588 14.3009 7.92466C14.3009 8.00343 14.284 8.08126 14.2514 8.15284C14.2189 8.22442 14.1714 8.28805 14.1123 8.33934C14.0531 8.39063 13.9836 8.42838 13.9086 8.45001C13.8337 8.47165 13.755 8.47665 13.6779 8.46467C13.5385 8.45871 13.4062 8.40094 13.3064 8.30244C13.2066 8.20395 13.1464 8.07166 13.1372 7.931C13.1372 7.85925 13.1512 7.7882 13.1783 7.72191C13.2055 7.65562 13.2454 7.5954 13.2956 7.54466C13.3458 7.49392 13.4054 7.45367 13.471 7.42621C13.5366 7.39876 13.6069 7.38463 13.6779 7.38463ZM10.4335 10.1801C10.5736 10.1801 10.7079 10.2363 10.807 10.3364C10.906 10.4365 10.9617 10.5722 10.9617 10.7137C10.9617 10.8586 10.9047 10.9976 10.8033 11.1001C10.7019 11.2026 10.5644 11.2601 10.421 11.2601C10.2775 11.2601 10.14 11.2026 10.0386 11.1001C9.9372 10.9976 9.88023 10.8586 9.88023 10.7137C9.88015 10.6415 9.89457 10.5699 9.92267 10.5035C9.95078 10.437 9.99194 10.377 10.0437 10.3271C10.0954 10.2772 10.1567 10.2384 10.2237 10.2132C10.2907 10.1879 10.3621 10.1766 10.4335 10.1801Z" fill="white"/>
<path d="M22.2414 17.2014V17.0041C22.2414 16.9092 22.2028 16.8183 22.134 16.7512C22.0651 16.6841 21.9719 16.6465 21.8746 16.6465H21.457V9.24788C21.457 8.84096 21.457 8.79163 20.9762 8.7793H19.711C19.2934 8.7793 19.2302 8.84095 19.2302 9.2602V16.6588H18.1421V12.3676C18.1421 12.0347 18.0661 11.9607 17.7245 11.9484H16.4593C16.105 11.9484 16.0291 12.0223 16.0291 12.3799V16.6711H14.941V11.2948C14.941 10.9742 14.8777 10.9002 14.5488 10.9002H13.2836C12.904 10.9002 12.8534 10.9002 12.8534 11.3318C12.8534 13.0212 12.8534 14.7105 12.8534 16.3998V16.6711H11.7526V13.8967C11.7526 13.6254 11.664 13.5391 11.3983 13.5391H9.96863C9.69027 13.5391 9.6017 13.6254 9.6017 13.909C9.6017 14.7475 9.6017 15.5737 9.6017 16.3752V16.6341H9.15885C9.10962 16.6325 9.06055 16.6405 9.01456 16.6577C8.96857 16.675 8.92662 16.701 8.89119 16.7344C8.85577 16.7678 8.8276 16.8078 8.80837 16.852C8.78915 16.8962 8.77927 16.9437 8.7793 16.9917V17.189C8.7793 17.2871 8.81928 17.3812 8.89046 17.4506C8.96164 17.52 9.05819 17.559 9.15885 17.559H21.9631C22.0433 17.5373 22.114 17.4906 22.1643 17.426C22.2146 17.3614 22.2417 17.2825 22.2414 17.2014Z" fill="white"/>
</svg>
