<svg width="51" height="32" viewBox="0 0 51 32" fill="none" xmlns="http://www.w3.org/2000/svg">
<path d="M18.9975 23.9981C19.75 23.9932 20.487 24.2116 21.1154 24.6255C21.7437 25.0395 22.2352 25.6305 22.5277 26.3238C22.8201 27.0171 22.9005 27.7815 22.7585 28.5205C22.6165 29.2594 22.2585 29.9397 21.7299 30.4752C21.2013 31.0107 20.5258 31.3775 19.7888 31.5291C19.0518 31.6807 18.2863 31.6103 17.5893 31.3269C16.8922 31.0435 16.2949 30.5598 15.8728 29.9369C15.4506 29.314 15.2227 28.5799 15.2178 27.8274C15.2145 26.8194 15.61 25.851 16.3182 25.1335C17.0263 24.4161 17.9895 24.0079 18.9975 23.9981Z" fill="white"/>
<path d="M41.2645 23.998C42.0169 23.998 42.7525 24.2212 43.3782 24.6392C44.0038 25.0573 44.4914 25.6514 44.7794 26.3466C45.0673 27.0418 45.1427 27.8068 44.9959 28.5448C44.8491 29.2828 44.4867 29.9607 43.9547 30.4928C43.4226 31.0248 42.7447 31.3872 42.0067 31.534C41.2687 31.6808 40.5037 31.6054 39.8086 31.3175C39.1134 31.0295 38.5192 30.5419 38.1011 29.9162C37.6831 29.2906 37.46 28.555 37.46 27.8026C37.4632 26.7945 37.8651 25.8287 38.5779 25.116C39.2907 24.4032 40.2565 24.0013 41.2645 23.998Z" fill="white"/>
<path d="M8.46138 23.9981C9.21435 23.9932 9.95184 24.2119 10.5805 24.6264C11.2091 25.0409 11.7006 25.6326 11.9927 26.3266C12.2848 27.0206 12.3644 27.7857 12.2215 28.525C12.0785 29.2643 11.7193 29.9445 11.1895 30.4796C10.6597 31.0146 9.98297 31.3804 9.24511 31.5306C8.50726 31.6808 7.74144 31.6087 7.04459 31.3234C6.34775 31.0381 5.75122 30.5524 5.33058 29.9279C4.90994 29.3033 4.68411 28.568 4.68164 27.815C4.68159 26.8091 5.07863 25.8439 5.78642 25.1291C6.49421 24.4144 7.45552 24.0079 8.46138 23.9981Z" fill="white"/>
<path d="M0.0119021 1.82563C0.0119021 8.86347 0.0119021 15.8848 0.0119021 22.8896C-0.0286096 23.2279 0.0348511 23.5706 0.193808 23.8717C0.352764 24.1729 0.599636 24.4181 0.901374 24.5747C0.94097 24.6133 0.972354 24.6596 0.993589 24.7107C1.01483 24.7618 1.02548 24.8167 1.02492 24.8721C1.02492 25.442 1.02492 26.012 1.02492 26.582C1.02307 26.7852 1.06245 26.9867 1.14066 27.1743C1.21887 27.3618 1.33426 27.5314 1.47985 27.6728C1.62544 27.8141 1.79819 27.9244 1.98757 27.9967C2.17695 28.0691 2.37899 28.102 2.58147 28.0936C2.8656 25.1571 4.33571 23.1374 7.30061 22.6418C10.2655 22.1462 12.0939 23.5339 13.3416 26.0368C13.8143 24.8681 14.6672 23.8941 15.7617 23.2732C16.8563 22.6523 18.128 22.421 19.3702 22.617C20.671 22.8234 21.8557 23.4882 22.7116 24.492C23.5675 25.4958 24.0385 26.7728 24.04 28.0936H35.2571C35.3878 26.7056 36.0299 25.4163 37.058 24.4778C38.0861 23.5394 39.4262 23.0194 40.8163 23.0194C42.2064 23.0194 43.5466 23.5394 44.5747 24.4778C45.6028 25.4163 46.2449 26.7056 46.3755 28.0936C47.4503 28.0936 48.5127 28.0936 49.5875 28.0936C49.9588 28.0563 50.3023 27.8799 50.5496 27.5997C50.7969 27.3195 50.9298 26.9561 50.9217 26.582C50.9217 24.711 50.9217 22.8648 50.9217 20.9691C50.9163 20.5155 50.779 20.0734 50.5266 19.697C50.2742 19.3207 49.9178 19.0264 49.501 18.8503C48.9328 18.5901 48.3521 18.367 47.7715 18.1192C46.743 17.6659 45.8799 16.904 45.3008 15.9385C44.4236 14.526 43.5465 13.1134 42.657 11.7009C42.3844 11.2345 41.9917 10.8503 41.52 10.5887C41.0483 10.3271 40.5151 10.1977 39.9763 10.2141H36.8014C36.5659 10.1832 36.3265 10.2073 36.1018 10.2844C35.8771 10.3615 35.6731 10.4896 35.5058 10.6586C35.3385 10.8276 35.2123 11.033 35.137 11.259C35.0618 11.4849 35.0395 11.7251 35.0718 11.9611V21.3656H3.54506V19.2963H33.5771V1.82563C33.6144 1.58056 33.5939 1.33013 33.5173 1.09442C33.4407 0.858714 33.3101 0.644292 33.1359 0.468388C32.9617 0.292483 32.7488 0.159983 32.5144 0.0815225C32.2799 0.00306167 32.0303 -0.0191749 31.7857 0.0165975C21.7874 0.0165975 11.8015 0.0165975 1.8279 0.0165975C1.58581 -0.00174931 1.34262 0.0323639 1.11483 0.116613C0.887045 0.200862 0.68 0.33328 0.507741 0.504877C0.335482 0.676474 0.202035 0.883226 0.116484 1.11111C0.0309322 1.339 -0.00473724 1.58269 0.0119021 1.82563ZM36.4802 12.2089C36.4617 12.087 36.4719 11.9624 36.5099 11.8451C36.5479 11.7278 36.6126 11.621 36.699 11.5332C36.7853 11.4453 36.8909 11.3789 37.0073 11.3392C37.1238 11.2995 37.2478 11.2876 37.3696 11.3044H39.9639C40.2436 11.2953 40.5205 11.3633 40.7644 11.5009C41.0084 11.6385 41.21 11.8406 41.3475 12.085C42.2988 13.6091 43.25 15.1207 44.1889 16.6571C44.2878 16.8306 44.3989 17.128 44.3248 17.2395C44.1605 17.3819 43.9489 17.4571 43.7318 17.4501C42.6818 17.4501 41.6317 17.4501 40.5816 17.4501H37.4067C36.789 17.4501 36.4802 17.1528 36.4802 16.5456V12.2089Z" fill="white"/>
</svg>
