<svg width="56" height="51" viewBox="0 0 56 51" fill="none" xmlns="http://www.w3.org/2000/svg">
<path d="M49.1664 24.2539V23.7361H39.7993L39.355 23.8347L39.2686 24.2539V25.1045C39.2686 25.7086 39.2686 26.3374 39.2686 26.8922C39.2618 27.1994 39.3176 27.5049 39.4325 27.79C39.5475 28.0751 39.7193 28.3338 39.9374 28.5506C40.1555 28.7673 40.4155 28.9375 40.7015 29.0509C40.9875 29.1642 41.2935 29.2183 41.6011 29.2099H42.8352V37.926C42.8352 39.1589 42.391 39.5288 41.2062 39.5288H27.8158L26.9889 32.8837H27.8528V33.7098C27.8528 33.9687 27.8528 34.2399 27.8528 34.4988C27.864 34.7698 27.9478 35.0329 28.0954 35.2606C28.243 35.4882 28.449 35.6722 28.692 35.7932C28.9022 35.8987 29.1382 35.9419 29.3721 35.9179C29.6061 35.8939 29.8283 35.8036 30.0126 35.6576C30.3767 35.344 30.6064 34.9027 30.6543 34.4248C30.685 33.9362 30.685 33.4463 30.6543 32.9577V32.8837H32.2587C33.6656 32.8837 33.8507 31.9344 33.8631 31.5276C33.8749 31.3418 33.8493 31.1555 33.7878 30.9798C33.7263 30.804 33.6302 30.6424 33.5051 30.5044C33.341 30.3496 33.1468 30.2303 32.9344 30.1539C32.7221 30.0776 32.4962 30.0458 32.271 30.0605H26.557L25.3228 19.8896H26.8162V21.3937C26.7927 21.5873 26.8117 21.7838 26.8719 21.9694C26.932 22.155 27.032 22.3253 27.1647 22.4684C27.2974 22.6115 27.4597 22.7241 27.6403 22.7982C27.821 22.8724 28.0156 22.9063 28.2107 22.8977C28.4006 22.9072 28.5903 22.876 28.7672 22.8062C28.944 22.7363 29.1038 22.6295 29.2359 22.4929C29.368 22.3563 29.4693 22.193 29.533 22.014C29.5967 21.8351 29.6214 21.6446 29.6053 21.4553C29.6053 20.9375 29.6053 20.4197 29.6053 19.8526C30.0002 19.8526 30.3828 19.8526 30.7777 19.8526C30.9451 19.8528 31.1108 19.819 31.2647 19.7533C31.4186 19.6875 31.5575 19.5911 31.6729 19.47C31.7884 19.3489 31.878 19.2056 31.9362 19.0489C31.9945 18.8921 32.0202 18.7252 32.0119 18.5582C32.0326 18.3699 32.0137 18.1795 31.9563 17.999C31.899 17.8185 31.8044 17.652 31.6787 17.5102C31.5156 17.3553 31.3207 17.2376 31.1076 17.1652C30.8946 17.0929 30.6683 17.0676 30.4445 17.0911H24.8292L24.2121 12.2583C23.9406 10.1995 23.6814 8.14066 23.4099 6.09414C23.406 5.89519 23.3606 5.69923 23.2766 5.51881C23.1926 5.33839 23.0717 5.17749 22.9219 5.04637C22.772 4.91525 22.5965 4.81681 22.4064 4.75735C22.2163 4.69789 22.0158 4.67873 21.8179 4.70107H11.8831C11.6818 4.6699 11.4762 4.6805 11.2792 4.73229C11.0823 4.78409 10.8981 4.87593 10.7383 5.00205C10.5784 5.12817 10.4463 5.28588 10.3503 5.46531C10.2542 5.64474 10.1962 5.84203 10.18 6.04486C9.97017 7.65988 9.76037 9.27489 9.56291 10.8899L9.1433 14.1323L8.84712 16.4377L8.76072 17.1157H3.63906C3.07136 17.1157 1.72614 17.1157 1.70146 18.4842C1.69215 18.6594 1.7179 18.8347 1.77724 18.9998C1.83657 19.1649 1.9283 19.3165 2.04702 19.4458C2.50996 19.7943 3.08671 19.957 3.66373 19.902H4.2808V20.0992C4.2808 20.617 4.2808 21.0978 4.2808 21.5786C4.27525 21.7838 4.31558 21.9877 4.39884 22.1753C4.4821 22.363 4.60622 22.5298 4.76213 22.6635C4.92633 22.7904 5.11658 22.8794 5.31928 22.9242C5.52198 22.969 5.7321 22.9683 5.93454 22.9224C6.10033 22.9087 6.26166 22.8617 6.40879 22.7842C6.55592 22.7066 6.68583 22.6001 6.79073 22.4712C6.89563 22.3422 6.97337 22.1934 7.01923 22.0336C7.06509 21.8739 7.07814 21.7065 7.05761 21.5416V19.9389H8.56326L7.32912 30.2085H1.56569C1.33794 30.1887 1.10868 30.2205 0.894985 30.3017C0.681288 30.3828 0.488669 30.5111 0.331548 30.6769C0.197997 30.8331 0.10102 31.0171 0.0476458 31.2154C-0.00572877 31.4138 -0.0141572 31.6215 0.0230143 31.8235C0.0365559 32.006 0.0872847 32.1838 0.172046 32.346C0.256808 32.5082 0.373818 32.6514 0.515946 32.7668C0.658074 32.8823 0.822332 32.9675 0.998596 33.0173C1.17486 33.067 1.35943 33.0804 1.54102 33.0564H3.21946V33.1919C3.21946 33.6604 3.21946 34.1166 3.21946 34.5727C3.20046 34.7667 3.22241 34.9626 3.28394 35.1476C3.34547 35.3326 3.44518 35.5026 3.57662 35.6467C3.70806 35.7908 3.86833 35.9057 4.04703 35.984C4.22573 36.0624 4.41886 36.1024 4.614 36.1014C4.81485 36.105 5.01411 36.0652 5.19812 35.9847C5.38213 35.9042 5.54657 35.7849 5.68017 35.6351C5.81377 35.4852 5.91335 35.3083 5.97217 35.1165C6.03098 34.9246 6.04764 34.7223 6.02094 34.5234V33.1056H6.89717L5.02129 47.5422H3.04666C2.82337 47.5263 2.59914 47.5552 2.38719 47.6272C2.17524 47.6992 1.97986 47.8128 1.81253 47.9614C1.69097 48.0963 1.59774 48.2541 1.53838 48.4256C1.47902 48.5972 1.45475 48.7789 1.46697 48.96C1.46697 49.3668 1.63974 50.3161 2.99729 50.3284H10.3281C10.6979 50.3284 11.0527 50.1816 11.3142 49.9204C11.5757 49.6591 11.7226 49.3048 11.7226 48.9353C11.7226 48.5658 11.5757 48.2115 11.3142 47.9502C11.0527 47.689 10.6979 47.5422 10.3281 47.5422H9.79739L16.832 41.1684L23.8665 47.5422H23.6444C22.2128 47.5422 22.0647 48.5285 22.0771 48.9476C22.074 49.1427 22.1126 49.3362 22.1905 49.5151C22.2684 49.694 22.3836 49.8542 22.5285 49.9849C22.6735 50.1157 22.8447 50.214 23.0308 50.2732C23.2168 50.3325 23.4134 50.3513 23.6074 50.3284H30.9382C31.1626 50.3463 31.3883 50.3172 31.6008 50.2428C31.8134 50.1685 32.008 50.0507 32.1723 49.8969C32.2995 49.7628 32.3971 49.6036 32.4587 49.4294C32.5204 49.2553 32.5447 49.0701 32.5302 48.886C32.5302 48.4915 32.3451 47.5545 30.9752 47.5422H28.729L28.223 42.4629H41.2432C41.6991 42.477 42.1549 42.4356 42.6007 42.3396C43.5047 42.1199 44.3037 41.5922 44.8601 40.8473C45.4165 40.1025 45.6955 39.1871 45.6491 38.2589C45.6491 36.2124 45.6491 34.1577 45.6491 32.0947V29.1852H47.0313C47.5407 29.1924 48.0358 29.0174 48.4274 28.6919C48.8189 28.3663 49.081 27.9116 49.1664 27.4099C49.1664 26.6579 49.1664 25.9059 49.1664 25.1662C49.1664 24.8826 49.1664 24.5744 49.1664 24.2539ZM14.845 39.0479L8.19303 45.2121L9.55055 34.3755L14.845 39.0479ZM10.3774 27.9524L11.2166 21.1101L14.808 24.1676L10.3774 27.9524ZM19.8186 19.754L16.8567 22.2197L13.8824 19.754H19.8186ZM20.3863 16.8938H13.4875L16.9431 13.3186L20.3863 16.8938ZM18.893 11.42L21.1021 9.10227L21.7685 14.1446L18.893 11.42ZM16.8196 9.05299L15.0795 7.42563H18.5968L16.8196 9.05299ZM14.9931 11.4324L12.1052 14.1323L12.7717 9.10227L14.9931 11.4324ZM19.0904 24.2539L22.6818 21.1841L23.5333 28.0264L19.0904 24.2539ZM12.315 30.0605L16.8813 26.0785L21.5587 30.0482L12.315 30.0605ZM21.7068 32.97L16.9677 37.248L12.2163 32.97H21.7068ZM24.3479 34.3262L25.7054 45.1628L19.0904 39.0479L24.3479 34.3262Z" fill="white"/>
<path d="M55.3491 9.42911C55.1074 7.91043 54.5602 6.45844 53.7416 5.16336C52.923 3.86828 51.8506 2.75782 50.5909 1.90099C49.3313 1.04417 47.9112 0.459297 46.4192 0.182745C44.9272 -0.093807 43.3951 -0.05613 41.918 0.293428C39.7487 0.650403 37.7422 1.68133 36.1751 3.24398C34.6079 4.80664 33.5575 6.82403 33.1688 9.01783C32.596 11.1212 32.6549 13.35 33.3379 15.4193C34.0209 17.4885 35.2969 19.3041 37.0027 20.6338C37.5557 21.1198 38.3175 21.4065 38.7354 21.9798C38.9681 22.2887 39.2811 22.5258 39.6392 22.6644C39.9973 22.8031 40.3864 22.8379 40.7629 22.765C41.4633 22.765 42.1761 22.765 42.8888 22.765C43.0239 22.7723 43.1593 22.7723 43.2943 22.765V13.1806C42.231 12.9738 41.2445 12.4735 40.4434 11.7349C39.9765 11.2737 39.9028 10.7752 40.2591 10.3888C40.6155 10.0024 41.0578 10.0024 41.5862 10.4511C42.2956 11.1304 43.2342 11.5088 44.2098 11.5088C45.1854 11.5088 46.124 11.1304 46.8333 10.4511C47.3248 10.0398 47.755 10.0274 48.1236 10.4511C48.4923 10.8749 48.4431 11.2986 47.9762 11.6975C47.3071 12.3864 46.452 12.8591 45.5185 13.056C45.1253 13.1432 44.9901 13.2928 44.9901 13.7165C44.9901 16.5707 44.9901 19.4123 44.9901 22.2665C44.9799 22.4491 44.9799 22.6322 44.9901 22.8149C46.0346 22.8149 47.0668 22.8149 48.0867 22.8149C48.3269 22.8493 48.5717 22.8108 48.7904 22.7044C49.0091 22.5979 49.1918 22.4282 49.3156 22.2166C49.5517 21.9245 49.8392 21.6794 50.1635 21.4937C52.1708 20.2933 53.753 18.4804 54.6842 16.3139C55.6154 14.1473 55.8481 11.7378 55.3491 9.42911Z" fill="white"/>
</svg>
