<svg width="46" height="43" viewBox="0 0 46 43" fill="none" xmlns="http://www.w3.org/2000/svg">
<path d="M43.949 28.1538C43.5122 27.6053 42.9632 27.1555 42.3384 26.834C41.7135 26.5126 41.0271 26.3268 40.3247 26.2892V24.4493C40.3247 22.7946 40.3247 21.1276 40.3247 19.51C40.3641 19.0902 40.3197 18.6668 40.194 18.2642C40.0683 17.8615 39.8638 17.4876 39.5924 17.1638C39.3869 16.9753 39.2317 16.7389 39.1407 16.476C39.0497 16.213 39.0258 15.9317 39.0711 15.6573C39.0773 15.5669 39.0773 15.4761 39.0711 15.3856C39.078 15.2422 39.055 15.0988 39.0033 14.9646C38.9517 14.8305 38.8727 14.7085 38.7711 14.6063C38.6696 14.5041 38.5479 14.4241 38.4136 14.3712C38.2794 14.3183 38.1355 14.2937 37.9912 14.299C37.1968 14.299 36.4893 14.299 35.7942 14.299C35.6347 14.2917 35.4755 14.3197 35.3282 14.381C35.1808 14.4423 35.049 14.5354 34.9421 14.6535C34.8353 14.7716 34.756 14.9118 34.7102 15.0641C34.6644 15.2163 34.6532 15.3767 34.6772 15.5338V15.7438C34.6772 15.929 34.6772 16.1142 34.6772 16.2994C34.6884 16.3995 34.6737 16.5008 34.6346 16.5937C34.5955 16.6866 34.5333 16.7681 34.4538 16.8304C34.1057 17.1636 33.8344 17.5681 33.6586 18.0158C33.4829 18.4635 33.407 18.9438 33.436 19.4235C33.436 21.0288 33.436 22.6341 33.436 24.2517V26.3386H30.7053V24.1406C30.7053 22.5353 30.7053 20.9177 30.7053 19.3124C30.7341 18.9122 30.6795 18.5104 30.5449 18.1322C30.4104 17.754 30.1987 17.4075 29.9233 17.1144C29.7425 16.9419 29.6072 16.7277 29.5293 16.4908C29.4514 16.2539 29.4332 16.0016 29.4765 15.7561C29.4893 15.6867 29.4893 15.6156 29.4765 15.5462C29.5016 15.3783 29.4869 15.2068 29.4334 15.0455C29.3799 14.8843 29.2891 14.7378 29.1685 14.6178C29.0478 14.4977 28.9005 14.4074 28.7385 14.3542C28.5764 14.301 28.4041 14.2863 28.2353 14.3113C27.5526 14.3113 26.8575 14.3113 26.1748 14.3113C26.027 14.2991 25.8783 14.3181 25.7384 14.3669C25.5984 14.4157 25.4705 14.4934 25.3627 14.5947C25.255 14.6961 25.1699 14.8189 25.1131 14.9552C25.0563 15.0915 25.0289 15.2382 25.0329 15.3856C25.0329 15.5709 25.0329 15.7561 25.0329 15.9413C25.0329 16.1265 25.0329 16.2747 25.0329 16.4476C25.0264 16.5227 25.0008 16.595 24.9585 16.6575C24.5591 17.0602 24.2498 17.5422 24.0509 18.0721C23.8519 18.602 23.7679 19.1678 23.8041 19.7323C23.8041 21.2511 23.8041 22.7699 23.8041 24.2888V26.3263H16.7416V19.51C18.044 19.2899 19.229 18.6265 20.0939 17.6331C20.9589 16.6397 21.4499 15.3782 21.4831 14.0644V13.3358C21.4831 12.5455 21.4831 11.7552 21.4831 10.9526C21.4894 10.0104 21.2532 9.08222 20.7969 8.25652C20.3407 7.43083 19.6796 6.73508 18.8765 6.23552C17.9727 5.6496 16.9142 5.34442 15.8355 5.3588H12.8318V5.12418C12.8318 4.75373 12.8318 4.39562 12.8938 4.03752C12.9103 3.76574 13.0166 3.507 13.1962 3.30155C13.3758 3.09609 13.6186 2.95542 13.8868 2.90145C14.151 2.87653 14.417 2.87653 14.6812 2.90145C18.9179 2.90145 23.1504 2.90145 27.3788 2.90145H27.9001C28.2469 2.92681 28.5703 3.08525 28.8019 3.3433C29.0335 3.60135 29.1552 3.93884 29.1413 4.2845V4.95128C29.1413 5.90211 29.1413 6.86529 29.1413 7.81611C29.1299 7.95386 29.0732 8.08402 28.98 8.18654L27.0685 10.1006L26.088 11.0761C25.7771 11.37 25.5943 11.7734 25.5791 12.1998C25.5935 12.5682 25.7488 12.9172 26.0135 13.1753C26.1514 13.3077 26.315 13.4109 26.4942 13.4786C26.6734 13.5462 26.8646 13.5769 27.0561 13.5689C27.2476 13.5608 27.4355 13.514 27.6083 13.4315C27.7811 13.349 27.9353 13.2324 28.0615 13.0888L28.707 12.4591C29.6006 11.57 30.544 10.6439 31.4252 9.71776C31.74 9.38024 31.9246 8.94284 31.9465 8.48293C31.9465 6.91469 31.9465 5.37112 31.9465 3.90167C31.9172 3.37656 31.7776 2.86341 31.5369 2.39521C31.1728 1.62999 30.5841 0.992554 29.8484 0.567073C29.1127 0.141591 28.2646 -0.0519622 27.416 0.0119474C23.1214 0.0119474 18.8144 0.0119474 14.5198 0.0119474C13.9351 0.00133359 13.3537 0.101948 12.807 0.308333C12.0792 0.552241 11.4378 1.00019 10.96 1.59826C10.4821 2.19634 10.1882 2.91903 10.1135 3.67941C10.1135 4.12395 10.039 4.56851 10.0142 5.01305C10.0142 5.12418 10.0142 5.22294 10.0142 5.33408H8.61168C7.92373 5.31972 7.23555 5.3486 6.55125 5.42053C5.32987 5.6382 4.21675 6.25604 3.38905 7.1757C2.56135 8.09537 2.06659 9.26404 1.98355 10.4957C1.98355 11.5 1.98355 12.5003 1.98355 13.4964V13.6816C1.94319 14.6294 2.15075 15.5714 2.58587 16.4155C3.02098 17.2596 3.66877 17.9769 4.46598 18.4974C4.98967 18.8141 5.54764 19.0709 6.12925 19.263L6.71262 19.4976V26.1781H4.86318C3.69516 26.1989 2.57195 26.6289 1.69109 27.3923C0.810234 28.1557 0.228146 29.2036 0.0472604 30.3518C-0.0496706 31.036 0.00211874 31.7328 0.199117 32.3953C0.396115 33.0578 0.73375 33.6706 1.1892 34.1922C1.60409 34.7128 2.1273 35.138 2.72291 35.4385C3.31852 35.7391 3.97242 35.9078 4.63977 35.9333H5.88099V39.9094H5.3969C5.01675 39.9025 4.64883 40.043 4.37087 40.3011C4.09291 40.5592 3.92673 40.9147 3.90746 41.2925C3.91711 41.6736 4.07527 42.0361 4.34856 42.3034C4.62185 42.5706 4.98887 42.7218 5.37208 42.7249C6.6133 42.7249 7.96622 42.7249 9.28191 42.7249C9.4834 42.724 9.68273 42.6832 9.86816 42.6047C10.0536 42.5263 10.2214 42.4118 10.3618 42.268C10.6141 42.0099 10.7564 41.6648 10.759 41.3048C10.7397 40.927 10.5735 40.5715 10.2955 40.3134C10.0176 40.0554 9.64967 39.9149 9.26952 39.9218H8.76062V35.995H36.3901V39.9218H35.8936C35.5146 39.9116 35.1466 40.0493 34.8683 40.3054C34.59 40.5615 34.4234 40.9158 34.4041 41.2925C34.3988 41.6553 34.5369 42.0056 34.7889 42.268C34.9232 42.4096 35.0846 42.5229 35.2637 42.6014C35.4428 42.6799 35.6359 42.7219 35.8315 42.7249C36.4645 42.7249 37.0728 42.7249 37.7182 42.7249H39.8282C40.0243 42.7373 40.221 42.7089 40.4055 42.6415C40.59 42.5742 40.7583 42.4693 40.8998 42.3337C41.0413 42.198 41.1529 42.0345 41.2274 41.8536C41.3019 41.6726 41.3376 41.4782 41.3324 41.2828C41.3272 41.0873 41.2812 40.8951 41.1972 40.7184C41.1132 40.5416 40.9932 40.3842 40.8446 40.2561C40.6961 40.1281 40.5224 40.0322 40.3346 39.9747C40.1467 39.9171 39.9489 39.8991 39.7537 39.9218H39.2821V35.9703C40.6345 36.138 42.0006 35.7894 43.105 34.9948C43.6924 34.5653 44.1742 34.0086 44.5139 33.3669C44.8536 32.7252 45.0424 32.0152 45.0662 31.2903C45.1046 30.1421 44.7055 29.0218 43.949 28.1538ZM13.9365 24.3752V26.2645H9.60463V24.3258L13.9365 24.3752ZM13.9365 19.6335V21.5475H9.60463V19.6335H13.9365ZM25.9638 19.4853C25.9783 19.241 26.0073 18.9977 26.0507 18.7568C26.0844 18.5556 26.1949 18.3752 26.3591 18.2533C26.5234 18.1313 26.7286 18.0772 26.932 18.1023H27.6891C27.9254 18.0955 28.1549 18.1808 28.3288 18.3399C28.5027 18.4991 28.6072 18.7196 28.6201 18.9543C28.6325 19.1434 28.6325 19.3332 28.6201 19.5224L25.9638 19.4853ZM25.9638 26.2645V24.0295H28.6076V26.2645H25.9638ZM38.1899 24.0295V26.2769H35.5212V24.0295H38.1899ZM37.0355 18.0652C37.805 18.0652 38.1029 18.3369 38.2022 19.0902C38.2146 19.2216 38.2146 19.3539 38.2022 19.4853H35.4964V19.4235C35.5206 19.161 35.5662 18.9008 35.6329 18.6456C35.7818 18.1887 35.9804 18.0529 36.5142 18.0529H37.0355V18.0652Z" fill="white"/>
</svg>
