<svg width="44" height="38" viewBox="0 0 44 38" fill="none" xmlns="http://www.w3.org/2000/svg">
<path d="M31.6064 6.39788V12.8687H24.9896V19.3153H18.3352V12.8931H11.7058V6.43437H18.3226V0H24.952V6.39788H31.6064Z" fill="white"/>
<path d="M33.7468 37.4608H23.4121C23.4121 37.0895 23.4121 36.5078 23.4121 35.7775C23.4121 34.4656 23.707 32.2502 23.9405 29.5892C23.97 28.656 24.232 27.7452 24.7024 26.9406C25.0437 26.4141 25.4574 25.9391 25.9313 25.5297L32.346 19.9973C33.1202 19.3289 33.9066 18.673 34.6931 18.017C35.0126 17.7571 35.3444 17.5095 35.6762 17.262C35.7649 17.2006 35.8661 17.1599 35.9723 17.1427C36.0786 17.1256 36.1873 17.1326 36.2906 17.163C36.678 17.2748 37.0253 17.4964 37.2911 17.8014C37.5569 18.1065 37.73 18.482 37.7898 18.8834C37.7861 19.0452 37.744 19.2038 37.6671 19.3459C37.5901 19.488 37.4805 19.6095 37.3475 19.7002C36.4995 20.4923 35.6393 21.2721 34.7791 22.0518C33.9189 22.8315 33.1447 23.5246 32.3214 24.2796C32.1362 24.4463 32.0178 24.6754 31.9884 24.9237C31.959 25.1721 32.0206 25.4228 32.1616 25.6287C32.2617 25.8065 32.3958 25.9626 32.5561 26.0879C32.7164 26.2132 32.8997 26.3053 33.0956 26.3589C33.2361 26.4034 33.3855 26.4109 33.5297 26.3805C33.6739 26.3502 33.8079 26.2831 33.9189 26.1856C34.5579 25.6905 35.1478 25.1955 35.7991 24.6757C36.8559 23.7969 37.9004 22.8934 38.9327 21.9899C38.9786 21.9518 39.0164 21.9048 39.0438 21.8516C39.0713 21.7984 39.0878 21.7402 39.0924 21.6805C39.2276 20.1087 39.3382 18.5492 39.4734 16.9774C39.6331 15.1704 39.8174 13.3757 39.9895 11.5687C40.0135 11.4034 40.0706 11.2447 40.1572 11.1022C40.2438 10.9597 40.3582 10.8363 40.4934 10.7395C40.7023 10.5415 40.9357 10.3682 41.1446 10.1702C41.2704 10.079 41.4131 10.0143 41.5643 9.97986C41.7154 9.94542 41.8718 9.94195 42.0243 9.96967C42.1768 9.99738 42.3222 10.0557 42.4519 10.1412C42.5815 10.2267 42.6928 10.3375 42.779 10.4672C42.8404 10.5986 42.8699 10.7429 42.8651 10.888C42.8651 11.7915 42.9879 12.695 43.0248 13.5985C43.1231 15.8016 43.2214 18.017 43.3074 20.2201C43.3074 21.2102 43.3074 22.2127 43.3074 23.2028C43.3274 23.4197 43.2902 23.638 43.1996 23.8358C43.109 24.0335 42.9681 24.2037 42.7913 24.3291L39.1785 27.4975L34.1155 31.8418C34.0638 31.8808 34.0214 31.9312 33.9916 31.989C33.9618 32.0469 33.9454 32.1108 33.9435 32.1759C33.8698 33.2279 33.71 34.2676 33.6977 35.3196C33.7562 36.0317 33.7726 36.7467 33.7468 37.4608Z" fill="white"/>
<path d="M9.88795 37.4608H20.4856C20.4856 37.1142 20.4857 36.5202 20.3728 35.7775C20.2348 33.6488 20.0342 31.8294 19.8335 29.5892C19.8034 28.656 19.536 27.7452 19.0559 26.9406C18.7076 26.4141 18.2853 25.9391 17.8017 25.5297L11.2675 19.9973L8.85957 18.017C8.53348 17.7571 8.19484 17.5095 7.85621 17.262C7.76569 17.2006 7.66246 17.1599 7.554 17.1427C7.44553 17.1256 7.33455 17.1326 7.22913 17.163C6.8346 17.2741 6.48121 17.4957 6.21184 17.8011C5.94247 18.1065 5.76869 18.4824 5.7116 18.8834C5.7108 19.0447 5.75044 19.2037 5.82703 19.3462C5.90362 19.4888 6.01479 19.6104 6.15056 19.7002C7.01594 20.4923 7.89385 21.2721 8.77177 22.0518C9.64968 22.8315 10.4523 23.5246 11.2801 24.2796C11.4691 24.4463 11.5898 24.6754 11.6199 24.9237C11.6499 25.1721 11.5871 25.4228 11.4431 25.6287C11.341 25.8065 11.2042 25.9626 11.0406 26.0879C10.877 26.2132 10.6898 26.3053 10.49 26.3589C10.3465 26.4022 10.1942 26.4091 10.0473 26.3788C9.90034 26.3485 9.76358 26.282 9.64966 26.1856C8.99749 25.6905 8.3955 25.1955 7.73079 24.6757C6.6522 23.7969 5.59872 22.8934 4.53268 21.9899C4.48581 21.9518 4.44721 21.9048 4.41919 21.8516C4.39118 21.7984 4.37433 21.7402 4.36963 21.6805C4.23167 20.1087 4.1188 18.5492 3.98084 16.9774C3.8178 15.1704 3.62966 13.3757 3.45407 11.5687C3.42952 11.4034 3.37132 11.2447 3.28295 11.1022C3.19458 10.9597 3.07789 10.8363 2.9399 10.7395C2.72669 10.5415 2.4884 10.3682 2.27519 10.1702C2.14682 10.079 2.00115 10.0143 1.84691 9.97986C1.69266 9.94542 1.53295 9.94195 1.37732 9.96967C1.22169 9.99738 1.07331 10.0557 0.940995 10.1412C0.808678 10.2267 0.695129 10.3375 0.60713 10.4672C0.54447 10.5986 0.514369 10.7429 0.519329 10.888C0.456621 11.7915 0.393907 12.695 0.356282 13.5985C0.255948 15.8016 0.155639 18.017 0.0678478 20.2201C0.0678478 21.2102 0.0678248 22.2127 0.0051165 23.2028C-0.0152671 23.4197 0.0227049 23.638 0.115193 23.8358C0.207681 24.0335 0.351426 24.2037 0.531883 24.3291L4.21914 27.4975L9.3863 31.8418C9.44153 31.8785 9.48504 31.93 9.51172 31.9903C9.52822 32.0511 9.52822 32.1151 9.51172 32.1759C9.51172 32.3121 9.6622 34.4904 9.88795 37.4608Z" fill="white"/>
</svg>
