<svg width="44" height="44" viewBox="0 0 44 44" fill="none" xmlns="http://www.w3.org/2000/svg">
<path d="M24.2036 18.1445H18.5246C17.9916 18.1445 17.5596 18.5766 17.5596 19.1096V24.7885C17.5596 25.3215 17.9916 25.7536 18.5246 25.7536H24.2036C24.7365 25.7536 25.1686 25.3215 25.1686 24.7885V19.1096C25.1686 18.5766 24.7365 18.1445 24.2036 18.1445Z" fill="white"/>
<path d="M42.8906 21.6935C42.5735 21.3608 42.1398 21.1646 41.681 21.1462C41.2222 21.1278 40.7743 21.2887 40.4317 21.5949C40.2651 21.7877 40.0468 21.9286 39.8027 22.0006C39.5586 22.0727 39.2989 22.073 39.0546 22.0014C38.6243 20.7697 38.1817 20.4494 36.8416 20.4494H34.063V17.8504H37.7514C38.5629 17.8504 38.9809 17.5302 38.9809 16.9143C38.9809 16.2984 38.5629 16.0151 37.7514 16.0028H34.063V13.4531H37.985C38.1163 13.4656 38.2488 13.4497 38.3734 13.4065C38.498 13.3633 38.612 13.2939 38.7075 13.2028C38.8031 13.1117 38.878 13.0012 38.9273 12.8786C38.9766 12.7561 38.9991 12.6244 38.9932 12.4924C38.9917 12.3662 38.9648 12.2417 38.914 12.1262C38.8633 12.0107 38.7898 11.9067 38.6979 11.8204C38.606 11.7342 38.4977 11.6674 38.3794 11.6241C38.2612 11.5808 38.1353 11.5619 38.0096 11.5686C37.776 11.5686 37.5301 11.5686 37.2842 11.5686H34.2843C34.1236 10.9367 33.8485 10.3397 33.4728 9.80719C32.9486 9.45829 32.3653 9.20785 31.7516 9.06814V8.60009C31.7516 7.51616 31.7516 6.43224 31.7516 5.34831C31.7516 4.60926 31.2229 4.11657 30.5959 4.32596C30.359 4.38727 30.1535 4.53481 30.0193 4.73979C29.8852 4.94476 29.8321 5.19245 29.8705 5.43452V9.24058H27.3255V8.79717C27.3255 7.63934 27.3255 6.46919 27.3255 5.31136C27.3374 5.18565 27.3232 5.05881 27.2836 4.93892C27.244 4.81903 27.18 4.70868 27.0956 4.61488C27.0112 4.52107 26.9083 4.44586 26.7934 4.394C26.6784 4.34214 26.554 4.31477 26.428 4.31363C26.3029 4.30445 26.1774 4.32237 26.0598 4.36617C25.9423 4.40996 25.8356 4.47861 25.7469 4.56744C25.6583 4.65627 25.5897 4.7632 25.546 4.88094C25.5023 4.99868 25.4844 5.12448 25.4936 5.24977C25.4936 5.57002 25.4936 5.89027 25.4936 6.21052V9.22827H22.3093V6.24747C23.5387 5.79173 23.8953 5.38526 23.883 4.04267C23.8609 3.84645 23.8863 3.64779 23.9569 3.46343C24.0275 3.27908 24.1413 3.11443 24.2887 2.98338C24.613 2.65578 24.795 2.21306 24.795 1.75164C24.795 1.29022 24.613 0.847497 24.2887 0.519902C23.9487 0.186625 23.4919 0 23.0162 0C22.5405 0 22.0837 0.186625 21.7437 0.519902C21.406 0.834307 21.2061 1.26979 21.1876 1.73132C21.1692 2.19285 21.3337 2.64295 21.6453 2.98338C21.8276 3.1574 21.9601 3.37702 22.0293 3.61954C22.0984 3.86207 22.1017 4.1187 22.0388 4.36291C21.801 4.39163 21.5714 4.4677 21.3635 4.58667C21.1555 4.70563 20.9735 4.86506 20.828 5.0556C20.6825 5.24613 20.5765 5.46391 20.5163 5.69611C20.4561 5.9283 20.4428 6.17021 20.4774 6.4076V9.32681H17.8955C17.8955 9.09278 17.8955 8.89571 17.8955 8.69863C17.8955 7.60239 17.8955 6.49382 17.8955 5.38526C17.9105 5.25582 17.898 5.12468 17.8588 5.00043C17.8196 4.87619 17.7546 4.76165 17.6681 4.66435C17.5816 4.56704 17.4755 4.48916 17.3568 4.43584C17.2381 4.38252 17.1096 4.35496 16.9795 4.35496C16.8495 4.35496 16.7208 4.38252 16.6022 4.43584C16.4835 4.48916 16.3774 4.56704 16.2909 4.66435C16.2044 4.76165 16.1394 4.87619 16.1003 5.00043C16.0611 5.12468 16.0485 5.25582 16.0635 5.38526C16.0635 6.6909 16.0635 7.98422 16.0635 9.28986H13.5062C13.5062 8.05812 13.5062 6.82638 13.5062 5.7055C13.5127 5.46923 13.4879 5.23316 13.4325 5.00342C13.389 4.81461 13.2796 4.64755 13.1241 4.53237C12.9686 4.41719 12.7771 4.36146 12.5841 4.37522C12.3901 4.35149 12.1942 4.3998 12.0333 4.51102C11.8725 4.62223 11.7579 4.78865 11.7112 4.97878C11.6523 5.229 11.6234 5.48537 11.6252 5.74245C11.6252 6.97419 11.6252 8.1074 11.6252 9.27755C9.76866 9.51158 9.57195 9.70864 9.25229 11.6302H8.58836C7.51872 11.6302 6.46137 11.6302 5.39173 11.6302C4.72782 11.6302 4.35897 11.9874 4.34667 12.5416C4.33438 13.0959 4.70323 13.4901 5.39173 13.5147C5.87122 13.5147 6.363 13.5147 6.8425 13.5147H9.30144V16.0644H5.37946C5.2342 16.0484 5.08722 16.0677 4.95098 16.1206C4.81473 16.1736 4.69323 16.2587 4.59675 16.3686C4.50026 16.4786 4.43161 16.6102 4.39665 16.7524C4.36169 16.8945 4.36141 17.043 4.39586 17.1853C4.44627 17.4154 4.58254 17.6176 4.77681 17.7504C4.97107 17.8832 5.20864 17.9366 5.44092 17.8997H9.28917V21.0283H6.26464C5.79744 19.7966 5.39173 19.4394 4.05161 19.4517C3.85773 19.4718 3.66184 19.4454 3.48014 19.3747C3.29843 19.3041 3.13611 19.1911 3.00655 19.0452C2.83849 18.8777 2.63811 18.7462 2.41767 18.6588C2.19722 18.5714 1.96135 18.5299 1.72437 18.5368C1.48738 18.5437 1.25427 18.5989 1.03928 18.699C0.824287 18.7991 0.631895 18.9421 0.473846 19.1191C0.168873 19.4566 0 19.8956 0 20.3509C0 20.8061 0.168873 21.2451 0.473846 21.5826C0.790992 21.9164 1.22607 22.1123 1.68576 22.1284C2.14544 22.1446 2.59313 21.9795 2.93279 21.6688C3.11056 21.4883 3.332 21.3571 3.57551 21.2881C3.81902 21.219 4.07627 21.2144 4.3221 21.2747C4.35285 21.58 4.46493 21.8713 4.64661 22.1184C4.8283 22.3654 5.0729 22.559 5.35485 22.6788C5.67472 22.7898 6.01247 22.8399 6.35072 22.8266C7.322 22.8266 8.29328 22.8266 9.31375 22.8266V25.4133H8.33018C7.32202 25.4133 6.32613 25.4133 5.31796 25.4133C5.19271 25.3986 5.06576 25.4117 4.9461 25.4516C4.82644 25.4914 4.71701 25.5572 4.62552 25.6442C4.53404 25.7311 4.46274 25.8372 4.41669 25.9548C4.37063 26.0724 4.35092 26.1987 4.35898 26.3248C4.35711 26.4498 4.38094 26.5738 4.42895 26.6892C4.47697 26.8046 4.54815 26.9088 4.63809 26.9955C4.72804 27.0821 4.8348 27.1493 4.95177 27.1928C5.06873 27.2364 5.19337 27.2553 5.31796 27.2486H9.26456V29.7983H8.58836C7.50643 29.7983 6.42448 29.7983 5.34254 29.7983C4.87534 29.7983 4.45732 30.0077 4.42044 30.488C4.41739 30.8487 4.54395 31.1985 4.77699 31.4734C4.91224 31.6336 5.29339 31.6582 5.56387 31.6705H9.25229C9.36294 33.2964 9.75637 33.9 11.6006 34.0354V37.6198C11.6006 38.5313 11.9079 38.9501 12.5596 38.9378C13.2112 38.9254 13.4817 38.519 13.4817 37.706V34.0108H15.9652V37.8538C15.9652 38.5436 16.3217 38.9378 16.8996 38.9378C17.4774 38.9378 17.7971 38.5806 17.8094 37.9031C17.8094 37.0409 17.8094 36.1663 17.8094 35.3041C17.8094 34.873 17.8094 34.4419 17.8094 33.9985H20.9814V37.0655C20.7383 37.0953 20.5038 37.1743 20.2921 37.2977C20.0804 37.421 19.8959 37.5862 19.7499 37.7832C19.6038 37.9802 19.4993 38.2048 19.4426 38.4435C19.3859 38.6822 19.3782 38.93 19.42 39.1718C19.4456 39.3841 19.421 39.5994 19.3484 39.8005C19.2758 40.0016 19.1572 40.1828 19.002 40.3296C18.8424 40.4943 18.7171 40.6891 18.6336 40.9028C18.5502 41.1166 18.5101 41.3449 18.5159 41.5743C18.5216 41.8037 18.573 42.0297 18.667 42.239C18.761 42.4483 18.8958 42.6367 19.0634 42.7931C19.4035 43.1264 19.8603 43.313 20.3359 43.313C20.8116 43.313 21.2684 43.1264 21.6085 42.7931C21.9411 42.4737 22.1342 42.0355 22.1457 41.574C22.1573 41.1126 21.9863 40.6653 21.67 40.3296C21.4969 40.1571 21.3701 39.9436 21.3013 39.7089C21.2326 39.4742 21.224 39.2259 21.2765 38.987C22.506 38.5559 22.8502 38.1248 22.8502 36.7699V33.9862H25.4075C25.4075 34.2079 25.4075 34.405 25.4075 34.602V37.6691C25.4075 38.5313 25.7149 38.9008 26.3419 38.9008C26.969 38.9008 27.2517 38.482 27.2517 37.6691V33.9739H29.7967C29.7967 35.2918 29.7967 36.5482 29.7967 37.8169C29.7967 38.5067 30.1779 38.8885 30.7557 38.8885C31.3336 38.8885 31.6532 38.5066 31.6778 37.8415C31.6778 37.4597 31.6778 37.0778 31.6778 36.696V34.1586C32.3112 33.9944 32.9106 33.7192 33.4483 33.3457C33.7952 32.8212 34.0412 32.2363 34.1736 31.6213H34.6532C35.7351 31.6213 36.817 31.6213 37.8989 31.6213C38.03 31.6372 38.163 31.6246 38.2889 31.5846C38.4147 31.5446 38.5305 31.4779 38.6285 31.3892C38.7264 31.3004 38.8041 31.1916 38.8564 31.0701C38.9087 30.9487 38.9344 30.8174 38.9317 30.6851C38.9317 30.1185 38.5629 29.7736 37.8989 29.7367H34.0138V27.187H37.8989C38.029 27.2027 38.1609 27.1906 38.2859 27.1512C38.4109 27.1119 38.5261 27.0464 38.6238 26.959C38.7215 26.8716 38.7995 26.7643 38.8526 26.6443C38.9057 26.5243 38.9326 26.3944 38.9317 26.2632C38.9317 25.6966 38.5629 25.364 37.8989 25.3394H34.0261V22.26H37.0629C37.4318 23.4918 37.899 23.8367 39.1038 23.8367C39.3289 23.825 39.554 23.8594 39.7654 23.9378C39.9767 24.0161 40.17 24.1368 40.3333 24.2924C40.5024 24.4478 40.7008 24.5677 40.9168 24.6451C41.1329 24.7226 41.3622 24.756 41.5913 24.7434C41.8204 24.7307 42.0446 24.6724 42.2509 24.5717C42.4571 24.4709 42.6412 24.3299 42.7923 24.1569C43.1085 23.8305 43.2934 23.3986 43.3115 22.944C43.3297 22.4895 43.1798 22.0442 42.8906 21.6935ZM28.7517 20.745C29.4771 20.745 29.9811 21.1022 29.9811 21.6688C29.9811 22.2354 29.5262 22.6172 28.7517 22.6296H27.3747C27.3747 22.6296 27.3132 22.6296 27.2026 22.7158C27.2026 22.9991 27.2026 23.3193 27.2026 23.6273C27.2026 23.9352 27.2026 23.9845 27.2026 24.2185C27.7681 24.2185 28.3091 24.2185 28.8377 24.2185C28.9732 24.2029 29.1105 24.2161 29.2406 24.2572C29.3706 24.2983 29.4906 24.3664 29.5927 24.457C29.6947 24.5477 29.7766 24.6588 29.8329 24.7832C29.8893 24.9077 29.9189 25.0426 29.9197 25.1793C29.9197 25.7089 29.5017 26.0538 28.8623 26.0907H28.1369C27.6329 26.0907 27.0673 25.9429 26.9075 26.6943C26.8889 26.752 26.857 26.8044 26.8142 26.8472C26.7714 26.8901 26.7192 26.9221 26.6616 26.9406C25.9116 27.0761 26.0591 27.655 26.0591 28.1724C26.0591 28.4557 26.0591 28.739 26.0591 29.0223C26.0592 29.2663 25.9642 29.5008 25.7942 29.6756C25.6243 29.8505 25.3929 29.952 25.1493 29.9584C25.024 29.9584 24.8999 29.9335 24.7842 29.8851C24.6685 29.8366 24.5636 29.7656 24.4755 29.6763C24.3875 29.5869 24.318 29.4809 24.2711 29.3644C24.2243 29.2479 24.201 29.1232 24.2027 28.9976C24.2027 28.4187 24.2027 27.8398 24.2027 27.2363H22.6043C22.6043 27.7906 22.6043 28.3079 22.6043 28.8252C22.6043 29.5273 22.1986 29.983 21.633 29.9707C21.4987 29.9569 21.3685 29.9166 21.2498 29.852C21.1312 29.7874 21.0266 29.6999 20.9419 29.5945C20.8573 29.4891 20.7944 29.3679 20.7569 29.238C20.7193 29.108 20.7079 28.9719 20.7232 28.8375C20.7232 28.3325 20.7232 27.8398 20.7232 27.3348L20.6618 27.2486H19.1495V28.8006C19.1495 29.5027 18.7561 29.9707 18.2028 29.9707C17.6496 29.9707 17.2807 29.5027 17.2684 28.8006C17.2684 28.5419 17.2684 28.2709 17.2684 28.0123C17.2684 27.5688 17.3299 27.1254 16.7275 27.0022C16.6493 26.9779 16.5783 26.935 16.5205 26.877C16.4627 26.8191 16.4198 26.7479 16.3955 26.6696C16.248 26.0661 15.8054 26.0784 15.3259 26.1031C15.0475 26.1215 14.7682 26.1215 14.4898 26.1031C14.3544 26.1251 14.2158 26.1175 14.0837 26.0806C13.9515 26.0437 13.829 25.9785 13.7245 25.8894C13.62 25.8004 13.536 25.6897 13.4784 25.5649C13.4209 25.4402 13.3911 25.3044 13.3911 25.1669C13.3911 25.0295 13.4209 24.8937 13.4784 24.769C13.536 24.6442 13.62 24.5335 13.7245 24.4445C13.829 24.3554 13.9515 24.2902 14.0837 24.2533C14.2158 24.2164 14.3544 24.2088 14.4898 24.2308H16.1373V22.6296H14.6128C13.8628 22.6296 13.3833 22.2477 13.3833 21.6688C13.3833 21.0899 13.8505 20.745 14.6128 20.7327H15.9652H16.1127V19.193H14.5144C13.8505 19.193 13.4202 18.7989 13.4079 18.2569C13.3956 17.7149 13.8259 17.3454 14.5021 17.3085H15.289C15.7685 17.3085 16.2357 17.3085 16.3832 16.7172C16.4069 16.6502 16.446 16.5897 16.4972 16.5405C16.5484 16.4913 16.6104 16.4548 16.6783 16.4339C17.3176 16.2861 17.2684 15.8181 17.2561 15.3254C17.2377 15.0054 17.2377 14.6846 17.2561 14.3646C17.2656 14.1216 17.3678 13.8916 17.5417 13.722C17.7156 13.5523 17.9478 13.4561 18.1905 13.4531C18.4342 13.4625 18.6652 13.5644 18.8365 13.7383C19.0078 13.9123 19.1066 14.145 19.1126 14.3892C19.1126 14.9682 19.1126 15.5471 19.1126 16.1629H20.7109C20.7109 15.6579 20.7109 15.1406 20.7109 14.6233C20.7109 13.9089 21.0798 13.4531 21.633 13.4531C22.1863 13.4531 22.5798 13.9089 22.5921 14.611V16.1014H24.178V14.5617C24.178 13.8473 24.5469 13.3915 25.0879 13.33C25.6288 13.2684 26.0591 13.7734 26.0714 14.5617C26.0837 14.7997 26.0837 15.0381 26.0714 15.2761C26.0714 15.7565 26.0714 16.1999 26.637 16.3477C26.7151 16.372 26.7862 16.415 26.844 16.4729C26.9018 16.5308 26.9447 16.602 26.969 16.6803C27.0919 17.2838 27.5345 17.2346 27.9771 17.2222H28.8254C29.4894 17.2222 29.932 17.6287 29.932 18.1584C29.9243 18.2945 29.8893 18.4276 29.829 18.5498C29.7686 18.6719 29.6842 18.7806 29.5808 18.8692C29.4774 18.9579 29.3572 19.0246 29.2274 19.0654C29.0975 19.1062 28.9608 19.1203 28.8254 19.1068H27.2148V20.6958L28.7517 20.745Z" fill="white"/>
</svg>
