<svg width="38" height="47" viewBox="0 0 38 47" fill="none" xmlns="http://www.w3.org/2000/svg">
<path d="M36.4132 40.1971H34.5862V30.7152C34.5862 30.1754 34.4513 30.0405 33.9117 30.0405H31.9744V22.6806H32.0847C32.2155 22.7479 32.3597 22.7849 32.5067 22.7889C32.6536 22.7928 32.7996 22.7637 32.9338 22.7037C33.068 22.6436 33.187 22.5541 33.282 22.4419C33.377 22.3296 33.4456 22.1974 33.4826 22.055C33.8505 21.086 34.2674 20.1292 34.7088 19.1724C34.7626 19.0427 34.7997 18.9067 34.8191 18.7676C34.8362 18.5993 34.8065 18.4295 34.7333 18.277C34.5948 18.0421 34.3776 17.8639 34.1202 17.7741L15.1019 9.89901C14.734 5.10284 14.0351 0.159464 12.5882 0C11.9996 0 11.4723 0.686918 10.9205 1.54557C6.88992 8.16388 5.11304 15.9111 5.85636 23.6251C5.94219 24.3366 6.08933 25.3547 6.57981 25.4774C7.60982 25.735 9.1548 21.7975 13.1032 15.3208L13.3729 14.8915L15.3716 15.7133C15.3992 15.7187 15.4253 15.7301 15.4482 15.7465C15.471 15.7629 15.4901 15.784 15.504 15.8085C15.518 15.8329 15.5265 15.8601 15.5291 15.8881C15.5316 15.9161 15.5281 15.9443 15.5188 15.9709C15.5188 16.253 15.433 16.5352 15.3962 16.8173L14.7708 21.1719C14.5501 22.7174 14.3171 24.2753 14.0964 25.8208C13.8757 27.3664 13.655 28.9365 13.422 30.4944C13.189 32.0522 12.9806 33.5978 12.7476 35.1433C12.5146 36.6889 12.2816 38.3081 12.0732 39.8904C12.0732 40.148 11.9383 40.1848 11.7053 40.1848H1.04964C0.907833 40.1689 0.764255 40.1854 0.629711 40.2329C0.495166 40.2805 0.373144 40.358 0.272831 40.4595C0.172517 40.561 0.0965318 40.684 0.0505524 40.8191C0.00457301 40.9543 -0.0102003 41.0981 0.00736903 41.2397V45.1773C-0.0105717 45.3201 0.00435 45.4651 0.0510014 45.6013C0.0976529 45.7374 0.174793 45.8611 0.276535 45.9629C0.378278 46.0647 0.501943 46.1419 0.638056 46.1885C0.774169 46.2352 0.919156 46.2501 1.06192 46.2322H36.4132C36.5527 46.2474 36.6939 46.2314 36.8264 46.1852C36.959 46.139 37.0795 46.0638 37.1794 45.9651C37.2792 45.8664 37.3558 45.7467 37.4036 45.6146C37.4513 45.4826 37.4691 45.3416 37.4555 45.2018C37.4555 43.8648 37.4555 42.5277 37.4555 41.1907C37.4655 41.0533 37.4451 40.9155 37.3955 40.787C37.346 40.6585 37.2686 40.5426 37.1689 40.4476C37.0693 40.3526 36.9498 40.2809 36.8192 40.2376C36.6885 40.1942 36.5498 40.1804 36.4132 40.1971ZM20.9876 23.7723L17.7382 21.3191L20.3132 19.1479L20.9876 23.7723ZM21.4413 26.9248C21.7724 29.2186 22.0912 31.4757 22.4223 33.794L17.0883 29.697L21.4413 26.9248ZM17.4439 16.6088L19.2832 17.3815L17.1128 19.2092L17.4439 16.6088ZM16.5243 22.975L19.8963 25.4283L15.7763 28.1147C16.0338 26.3851 16.2668 24.7046 16.5243 22.975ZM15.3716 30.9359L20.9141 35.2047L14.0351 40.1848L15.3716 30.9359ZM17.493 40.1848L22.8147 36.3454C22.9986 37.658 23.1825 38.9091 23.3665 40.1848H17.493ZM30.1718 29.7829V30.0405H28.1609C27.7194 30.0405 27.56 30.2 27.56 30.6415V40.1971H25.6349C25.6111 40.2028 25.5864 40.2029 25.5626 40.1974C25.5387 40.192 25.5165 40.1811 25.4976 40.1657C25.4786 40.1503 25.4634 40.1307 25.4532 40.1085C25.443 40.0863 25.4381 40.0621 25.4387 40.0376L24.7152 35.4745C24.4945 33.9167 24.2738 32.3711 24.0409 30.8133C23.8079 29.2554 23.6239 27.9429 23.4278 26.5078C23.2316 25.0726 23.0354 23.8337 22.8514 22.4966C22.6675 21.1596 22.4958 20.0434 22.3119 18.8167V18.645L23.5381 19.1602L29.8776 21.7852C29.9481 21.8 30.0103 21.8414 30.0514 21.9007C30.0924 21.96 30.1092 22.0328 30.0983 22.1041C30.1064 24.6637 30.131 27.2233 30.1718 29.7829Z" fill="white"/>
</svg>
