<svg width="33" height="45" viewBox="0 0 33 45" fill="none" xmlns="http://www.w3.org/2000/svg">
<path d="M30.3229 37.2429V33.3606H31.7993V31.2826H30.2733V30.3867C30.2733 27.1018 30.2733 23.8293 30.2733 20.5443C30.3335 20.0952 30.281 19.6381 30.1207 19.2144C29.9604 18.7908 29.6972 18.4139 29.3551 18.1179L29.6901 17.8317C30.0014 17.632 30.2375 17.334 30.361 16.9847C30.4846 16.6355 30.4886 16.2549 30.3725 15.903C30.2413 15.5411 29.9926 15.2339 29.6663 15.0308C29.34 14.8277 28.9552 14.7405 28.5735 14.7832C28.2137 14.7832 27.8663 14.7832 27.4817 14.7832L27.3948 13.2651H25.36L25.2112 14.721C22.9407 14.9698 22.6429 15.0942 22.37 15.9653C22.097 16.8363 22.6056 17.5953 23.3873 18.1677C23.0496 18.448 22.7882 18.8096 22.6277 19.2187C22.4671 19.6278 22.4126 20.071 22.4692 20.507V31.32H19.6528V30.449C19.6528 27.4377 19.6528 24.4141 19.6528 21.4029C19.6528 20.0715 19.4295 19.8599 18.1019 19.8226C17.6429 19.8226 17.1713 19.8226 16.6378 19.8226C16.6378 19.3995 16.6378 19.0636 16.6378 18.7276C16.6378 15.5795 16.6378 12.4314 16.6378 9.28334C16.712 8.42381 16.4667 7.56712 15.9491 6.87802C15.4315 6.18893 14.6781 5.71609 13.8339 5.55043C13.2507 5.426 13.0771 5.18959 12.9902 4.60477C12.8936 3.58244 12.4839 2.61512 11.8176 1.83543C11.1512 1.05574 10.2607 0.501845 9.26808 0.249701C8.3018 -0.0694025 7.26106 -0.0829773 6.28683 0.210807C5.3126 0.504591 4.45196 1.09155 3.8214 1.89219C2.91407 3.02534 2.47051 4.4622 2.58069 5.91128C2.58069 16.015 2.58069 26.1146 2.58069 36.2101V37.5415H0V44.2358H32.1715V37.4419L30.3229 37.2429ZM14.5039 37.2429H13.1267V21.8135H14.5039V37.2429ZM14.5039 19.5488H13.0398V7.35468C13.9207 7.44178 14.479 7.86484 14.4914 8.59898C14.5535 12.2697 14.5287 15.903 14.5287 19.5862L14.5039 19.5488ZM22.3079 37.2055H16.6751V21.7886H17.5064C17.5064 22.2117 17.5808 22.585 17.5808 22.9583C17.5808 25.8699 17.5808 28.7816 17.5808 31.6684C17.5808 33.0122 17.829 33.2611 19.1938 33.2735H22.2955L22.3079 37.2055Z" fill="white"/>
</svg>
