<svg width="32" height="32" viewBox="0 0 32 32" fill="none" xmlns="http://www.w3.org/2000/svg">
<path d="M13.4622 22.8265C13.4609 24.999 14.2364 27.0957 15.6402 28.7155C17.044 30.3353 18.9777 31.3645 21.0712 31.6062V14.0469C18.9787 14.2912 17.0466 15.3212 15.6433 16.9404C14.24 18.5596 13.4636 20.6548 13.4622 22.8265Z" fill="white"/>
<path d="M23.4121 14.0469V31.6062C25.5014 31.3752 27.4345 30.3506 28.8392 28.7297C30.244 27.1088 31.0212 25.0062 31.0212 22.8265C31.0212 20.6469 30.244 18.5443 28.8392 16.9234C27.4345 15.3025 25.5014 14.2779 23.4121 14.0469Z" fill="white"/>
<path d="M23.8558 12.2317C24.4854 11.2828 24.9017 10.2089 25.0758 9.08383C25.2499 7.95878 25.1778 6.80939 24.8644 5.71486C24.5511 4.62033 24.0039 3.6067 23.2607 2.7438C22.5174 1.88091 21.5958 1.18926 20.5592 0.71654C19.474 0.213026 18.2864 -0.0311979 17.0905 0.00318737C15.8945 0.0375726 14.7229 0.349627 13.6685 0.914654C12.8351 1.36677 12.0815 1.95235 11.4378 2.64811C9.97536 4.12155 8.48816 5.58261 7.01336 7.05606C5.53857 8.5295 4.07615 10.0153 2.58896 11.4764C1.42191 12.5497 0.602025 13.9466 0.234251 15.4881C0.135105 15.8844 0.0979467 16.293 0.0235872 16.7263C-0.00786239 17.1095 -0.00786239 17.4946 0.0235872 17.8778C0.102068 18.8223 0.349731 19.7449 0.754785 20.6019C1.19836 21.5617 1.83111 22.4222 2.61521 23.1321C3.39932 23.842 4.31865 24.3866 5.31826 24.7334C6.31786 25.0801 7.37719 25.2219 8.43291 25.1503C9.48862 25.0787 10.519 24.795 11.4625 24.3164C11.4081 23.8603 11.3792 23.4014 11.3758 22.942C11.3768 21.4358 11.7002 19.9473 12.3244 18.5763C12.9485 17.2052 13.859 15.9834 14.9946 14.9929C16.5821 13.6025 18.5425 12.7072 20.6335 12.4174C21.1382 12.3425 21.6478 12.3052 22.158 12.306C22.6846 12.3057 23.2105 12.3429 23.7319 12.4174C23.7645 12.397 23.7924 12.3698 23.8138 12.3378C23.8351 12.3058 23.8495 12.2696 23.8558 12.2317Z" fill="white"/>
</svg>
