<svg width="41" height="41" viewBox="0 0 41 41" fill="none" xmlns="http://www.w3.org/2000/svg">
<path d="M39.2357 16.7142H36.3498C36.2244 16.6972 36.0968 16.7097 35.9771 16.7508C35.8573 16.792 35.7487 16.8606 35.6599 16.9513C35.571 17.042 35.5043 17.1523 35.4651 17.2734C35.4259 17.3945 35.4151 17.5232 35.4338 17.6492V26.2154L31.4437 23.7896C31.6821 23.3347 31.9331 22.8925 32.1464 22.4377C32.6393 21.4646 32.9175 20.3957 32.962 19.3043C33.0247 17.6492 32.962 15.9941 32.962 14.3516H26.5126V7.36472C26.5126 6.7709 26.2617 6.44239 25.81 6.44239H20.9165C20.9165 4.68619 20.9165 2.94265 20.9165 1.18645C20.9108 0.960794 20.864 0.738102 20.7785 0.529452C20.7542 0.435546 20.7111 0.347661 20.6516 0.271272C20.5922 0.194882 20.5178 0.131619 20.4331 0.0854056C20.3484 0.0391921 20.2551 0.0110199 20.1591 0.0026421C20.0631 -0.00573572 19.9664 0.00586122 19.8751 0.0367076C19.6932 0.175285 19.5462 0.354965 19.4459 0.561262C19.3457 0.767558 19.2949 0.994699 19.2979 1.22435C19.2979 2.66469 19.2979 4.09237 19.2979 5.5327V6.44239H14.6679C14.2162 6.44239 13.9652 6.7709 13.9652 7.36472C13.9652 8.94403 13.9652 10.536 13.9652 12.1153V14.3516H7.23983V14.5537C7.23983 15.8172 7.23983 17.1564 7.23983 18.4578C7.22614 20.3311 7.75837 22.1672 8.77061 23.739L8.83337 23.8401C7.50335 24.6361 6.18587 25.4447 4.83075 26.2786V17.6618C4.85202 17.532 4.84248 17.399 4.80291 17.2736C4.76335 17.1482 4.69489 17.034 4.60311 16.9404C4.51133 16.8467 4.39886 16.7763 4.27487 16.7348C4.15088 16.6933 4.01889 16.6819 3.8897 16.7016C2.9361 16.7016 1.9825 16.7016 1.02889 16.7016C0.810805 16.6665 0.587417 16.7108 0.398845 16.8266C0.210273 16.9423 0.0688587 17.122 0 17.3333V34.3141C0.0792245 34.8036 0.18393 35.2886 0.313685 35.7671C0.645323 36.8367 1.25358 37.7983 2.07602 38.5532C2.89846 39.3081 3.9055 39.8291 4.99387 40.0628C5.28246 40.1386 5.57106 40.1639 5.85965 40.2144H34.3924C34.8316 40.126 35.2707 40.0754 35.6471 39.9491C36.7909 39.6198 37.8182 38.9699 38.6091 38.075C39.4 37.1802 39.9219 36.0774 40.114 34.8953C40.114 34.6805 40.114 34.4404 40.2144 34.213V17.2828C40.1361 17.0928 39.9977 16.9341 39.8208 16.8314C39.6439 16.7286 39.4382 16.6874 39.2357 16.7142ZM29.4864 17.9777V18.9884C29.4831 19.1437 29.4195 19.2916 29.3093 19.4002C29.199 19.5088 29.0509 19.5697 28.8966 19.5696H24.4172C24.2629 19.5697 24.1149 19.5088 24.0046 19.4002C23.8944 19.2916 23.8308 19.1437 23.8275 18.9884V17.9777C23.8275 17.8202 23.8896 17.6692 24.0002 17.5578C24.1108 17.4464 24.2608 17.3839 24.4172 17.3839H28.8966C29.0467 17.3836 29.1913 17.4409 29.3009 17.5442C29.4104 17.6475 29.4768 17.789 29.4864 17.9398V17.9777ZM10.8284 17.9777C10.8284 17.8224 10.8888 17.6732 10.9967 17.5622C11.1046 17.4512 11.2513 17.3872 11.4056 17.3839H15.885C16.0414 17.3839 16.1914 17.4464 16.302 17.5578C16.4126 17.6692 16.4747 17.8202 16.4747 17.9777V18.9884C16.4714 19.1437 16.4079 19.2916 16.2976 19.4002C16.1874 19.5088 16.0393 19.5697 15.885 19.5696H11.4056C11.2535 19.5664 11.1085 19.5041 11.001 19.3958C10.8934 19.2875 10.8316 19.1416 10.8284 18.9884V17.9777ZM4.85583 32.5958C4.85583 32.5074 4.85583 32.4568 4.85583 32.4063V28.3632C4.84921 28.302 4.86127 28.2402 4.89041 28.186C4.91955 28.1318 4.96439 28.0879 5.01895 28.06L9.48582 25.3436L9.84971 25.1162L11.6314 26.6197C9.37288 28.5527 7.13946 30.5364 4.85583 32.5579V32.5958ZM33.4388 35.3501C33.2259 35.3689 33.0118 35.3689 32.7989 35.3501H7.27751C6.88965 35.3528 6.50684 35.2612 6.16169 35.083C5.81654 34.9049 5.51922 34.6454 5.295 34.3267L12.9364 27.5546L14.304 28.6033C17.2652 30.9028 17.9302 32.9369 19.988 33.0254H20.2891C22.096 32.9243 22.7986 31.0797 24.7309 29.5888L27.3408 27.5673L34.9821 34.3267C34.8093 34.5956 34.5829 34.8255 34.3172 35.0016C34.0516 35.1778 33.7524 35.2965 33.4388 35.3501ZM35.4338 32.4947C35.4379 32.5241 35.4379 32.5538 35.4338 32.5832L28.6708 26.607L29.5742 25.8869C29.8753 25.6342 30.1388 25.3689 30.44 25.1035L33.3886 26.8976L35.2958 28.06C35.3351 28.0854 35.3688 28.1187 35.3947 28.1579C35.4206 28.197 35.4382 28.2411 35.4464 28.2874C35.4338 29.652 35.4338 31.0544 35.4338 32.4568V32.4947Z" fill="white"/>
</svg>
