<svg width="539" height="317" viewBox="0 0 539 317" fill="none" xmlns="http://www.w3.org/2000/svg">
<g clip-path="url(#clip0_216_4)">
<path d="M151.951 47.1772L151.668 45.4947C151.228 45.5802 150.794 45.6983 150.371 45.848C150.204 45.9658 149.256 45.4947 149.256 45.4947L148.441 44.1319L147.493 43.2907L146.145 42.1129C146.145 42.1129 145.447 41.8773 145.197 42.1129C144.79 42.4186 144.362 42.6942 143.916 42.9374L143.317 43.6608L142.619 43.8964H141.204H140.14L139.558 44.4684L139.092 44.8386C139.121 45.399 139.121 45.9607 139.092 46.5211C139.092 47.0595 138.975 47.295 138.792 48.2036C138.751 48.8072 138.55 49.3884 138.21 49.8861C137.861 50.3572 137.728 50.2394 137.495 50.66C137.262 51.0807 137.095 51.1311 136.912 51.1816C136.729 51.2321 136.447 50.946 136.214 51.1816C136.007 51.3369 135.756 51.4196 135.498 51.4171C135.127 51.3915 134.755 51.3915 134.384 51.4171C134.035 51.4512 133.684 51.4512 133.336 51.4171C132.926 51.4538 132.514 51.4538 132.105 51.4171C131.622 51.4171 131.223 51.4171 131.04 51.4171C130.857 51.4171 130.508 51.1143 130.275 51.4171C130.002 51.9599 129.768 52.5223 129.576 53.0996C129.576 53.0996 129.16 53.7558 128.927 54.1596C128.747 54.4253 128.591 54.7069 128.461 55.0009L127.979 56.1282C127.979 56.1282 127.347 57.5583 127.214 57.7265C127.147 57.8235 127.06 57.9051 126.96 57.966C126.86 58.0269 126.748 58.0657 126.632 58.0799H125.75C125.583 58.0799 125.467 58.2145 125.168 58.0799C124.878 58.0058 124.575 58.0058 124.286 58.0799C124.286 58.0799 123.986 57.2891 123.404 58.0799L122.822 58.8538L121.757 59.7455L120.992 60.0316H119.461V62.774L118.829 63.3629H118.364L117.665 63.6658H116.9L116.251 64.1369V65.3314C116.251 65.3314 115.718 66.4587 115.552 66.5092C114.998 66.5437 114.442 66.5437 113.888 66.5092H112.358L111.892 67.7879C111.892 67.7879 111.659 69.218 111.892 69.3863C112.062 70.1305 112.123 70.8956 112.075 71.6577L111.36 72.7176C111.36 72.7176 110.545 73.4242 110.362 73.6093C110.087 73.8198 109.792 74.0003 109.48 74.1477C108.584 74.0555 107.681 74.0555 106.785 74.1477C105.85 74.3023 104.904 74.3811 103.957 74.3833L100.064 73.6766L96.737 72.7176L93.1104 72.0614L89.4006 71.8259L85.8239 70.2275L84.2934 68.0907L83.9939 67.4346L81.7648 68.8983L81.3489 70.3789L82.2971 72.0614L82.8295 73.7439L81.3489 75.3423L79.1197 76.0658L77.4561 76.8397L74.7444 77.7315C74.7444 77.7315 73.2306 79.1448 72.9312 79.414C72.4008 79.6908 71.8432 79.9108 71.2676 80.0702H69.604L68.9552 81.1469L68.4395 82.2069L66.5596 83.0482H65.3785L65.129 84.0408L64.4968 85.8243L62.251 86.9516L61.3194 88.3312V90.4007L61.7353 91.9486L62.5504 92.6048L62.434 93.6647L61.3194 94.506L61.7852 95.0949L62.6669 95.751L63.4321 96.6428V97.9551L63.3157 99.3179L61.8351 100.008L60.1715 102.027L57.8757 102.548L57.5597 103.928L56.8111 105.358L56.5116 107.041V108.067C56.5116 108.067 55.9793 108.504 55.9793 108.689C55.7666 109.142 55.5161 109.575 55.2307 109.985L55.0144 111.314V113.367C54.7129 113.444 54.4181 113.545 54.1327 113.67C53.3514 113.934 52.5575 114.159 51.7538 114.343C51.3469 114.029 50.9632 113.686 50.6059 113.316C50.2562 112.772 49.9342 112.211 49.641 111.634C49.554 111.27 49.4485 110.91 49.3249 110.557C48.7279 110.49 48.1253 110.49 47.5283 110.557V111.583C47.0764 111.836 46.6478 112.129 46.2473 112.458C45.7175 112.964 45.1623 113.441 44.5837 113.888V114.746L44.0514 116.16V117.506L45.4155 117.943L46.2972 117.775L47.8277 119.777L48.5431 121.022L49.641 122.536C49.641 122.536 49.8573 123.378 49.8573 123.512C49.6377 123.945 49.3876 124.361 49.1087 124.757L48.41 125.245C48.41 125.245 48.41 126.322 48.41 126.507C48.41 126.692 48.1771 127.971 48.1771 127.971C47.8175 128.108 47.451 128.226 47.0791 128.324C46.946 128.324 45.4155 128.055 45.4155 128.055L44.7501 128.324L44.617 129.3L44.9664 130.024L45.3656 130.949L45.898 131.622V133.405L45.4987 134.785L44.5338 135.458C44.2883 135.541 44.0492 135.642 43.8185 135.761C43.6521 135.896 43.6521 135.593 43.203 136.03L42.7704 136.484L42.5043 137.023C42.5043 137.023 42.3712 137.679 42.5043 137.814L43.5191 138.84L44.2677 139.597L43.9183 140.977L44.2178 142.979L46.3305 143.786L47.9941 144.375L48.2603 145.62L46.8961 146.865C46.8961 146.865 46.264 147.538 46.3139 147.707C46.3638 147.875 46.763 148.548 46.7963 148.783C46.8296 149.019 47.0625 150.163 47.0625 150.163L48.3434 150.432L48.6928 152.115C48.6166 152.6 48.6166 153.094 48.6928 153.579C49.0097 154.184 49.2768 154.814 49.4913 155.463C49.5133 156.132 49.4855 156.801 49.4081 157.465L48.6096 158.761L47.4285 159.282H46.6799L45.9312 161.167H44.7335L43.3693 160.712L40.8407 164.633H39.0274L36.6152 162.008L34.2363 161.655L33.3047 160.544L32.0736 161.167L31.0089 162.092V163.32L33.0718 164.633L34.5357 166.164C34.5357 166.164 33.7206 167.241 33.4877 167.241C32.7082 166.78 31.9631 166.263 31.2585 165.693C30.7006 165.338 30.11 165.04 29.4951 164.801C29.1956 164.801 26.85 164.212 26.85 164.212V163.017H26.5006L25.5025 164.212L25.9683 166.349L25.5025 167.543L24.3213 166.82L22.325 166.467L20.9775 166.652L19.7964 167.543H18.5487C18.1088 167.41 17.693 167.205 17.3177 166.938L15.8537 164.75L15.155 164.212L14.2733 163.909L13.8574 163.623V165.407L14.5561 165.76C14.5561 165.76 14.5561 167.123 14.5561 167.543C14.5561 167.964 14.5561 171.581 14.5561 171.581L14.9055 176.629C14.9055 176.629 15.2715 180.381 15.2715 180.684C15.2715 180.987 15.155 182.635 15.155 182.635L14.5561 185.126V186.085H16.2197L17.5173 187.767L18.216 189.45L18.6818 191.468L18.8648 193.37L20.0459 195.742L22.1587 197.24L23.0903 199.427L23.3897 202.051C23.3897 202.051 23.5062 203.65 23.5062 204.188V205.871L24.6208 206.931L26.5006 207.587L28.5302 209.707V211.137L28.9295 212.819L30.1771 213.711L30.3435 215.394L29.5783 216.874L29.3454 218.119V219.364L30.2271 220.727C30.2271 220.727 30.7428 222.628 30.8093 222.931C30.8758 223.234 30.9757 225.489 30.9757 225.489L31.4581 227.743L31.8075 229.342L32.7391 229.712L33.6208 230.233H36.3823L36.8647 229.527L38.7945 228.753C38.8907 228.044 38.8907 227.325 38.7945 226.616C38.5194 225.686 38.3191 224.735 38.1956 223.773C38.1956 223.285 38.6115 221.097 38.6115 221.097L42.0717 217.413L45.3989 214.149V212.079C45.3989 212.079 44.3342 208.714 44.2843 208.344C44.2344 207.974 46.5135 207.755 46.5135 207.755L50.2732 207.57L52.8517 206.981L56.1789 207.149L59.7057 208.411V209.286L62.1012 208.933L63.7648 208.815L65.129 208.546C65.2287 208.099 65.2679 207.641 65.2454 207.183C65.2454 206.645 65.3785 203.97 65.3785 203.97L64.8961 203.801L65.8942 201.244L66.6095 199.561C66.9895 198.631 67.3226 197.682 67.6077 196.718C67.6077 196.415 67.3082 194.581 67.2583 194.346C67.2693 193.781 67.325 193.219 67.4247 192.663C67.5217 192.175 67.5829 191.68 67.6077 191.182C67.3297 190.359 66.9132 189.591 66.3766 188.911L66.543 186L67.774 185.765L70.2528 185.597C70.2528 185.597 71.3008 184.755 71.3008 184.402C71.3008 184.049 71.4838 182.383 71.4838 182.198C71.4838 182.013 71.9496 181.491 71.9496 181.491H74.7611H76.9404L77.5226 180.431H78.6539L79.2361 181.323V183.594V185.075L79.469 186.758L80.6502 188.003L81.6483 187.111L81.9977 184.503C81.9977 184.503 82.7629 184.2 82.8794 183.678C83.0651 183.192 83.3419 182.747 83.6945 182.366L84.2768 183.611H85.9403C86.2049 183.678 86.4615 183.774 86.7056 183.897L87.5207 184.318L88.8682 182.837L89.7499 184.082L90.9311 184.368H92.7444L94.408 184.066L94.9902 183.78L96.6538 183.174L97.4191 184.957V186.034L96.7869 187.044H98.4505L100.114 187.7L101.994 188.12H102.393L101.345 190.627L100.513 191.755L101.994 192.411H103.225L105.038 193.773L105.271 196.684L104.755 198.468C104.699 199.147 104.599 199.821 104.456 200.487C104.34 200.655 103.691 201.732 103.691 201.732L104.755 202.27C104.755 202.27 105.521 201.732 105.637 201.193C105.764 200.708 105.919 200.23 106.103 199.763L106.752 199.057L107.567 201.076L107.401 202.388L107.983 204.289L109.28 205.299L110.944 204.643L112.125 204.222H113.589L115.003 205.77L115.818 206.359V207.486L116.816 208.193L117.998 207.957L119.811 208.193L120.576 209.875L120.992 212.365L120.759 213.61L121.807 214.266L122.339 215.814C122.339 215.814 123.271 216.874 123.388 216.706C123.504 216.538 124.519 215.579 124.519 215.579L125.334 215.697L125.866 217.177C125.866 217.177 127.214 218.422 127.33 218.607C127.701 218.848 128.097 219.045 128.511 219.196L129.909 218.893L131.09 218.069L132.155 217.833L132.554 216.824L132.022 215.511C131.805 215.212 131.61 214.897 131.439 214.569C131.137 214.096 130.881 213.595 130.674 213.072C130.558 212.55 130.391 211.389 130.391 211.389V210.498C130.391 210.195 130.025 208.007 130.025 208.007L131.273 208.125L132.504 209.067H135.548L136.081 207.89L135.432 205.686C135.795 205.369 136.191 205.092 136.613 204.861C136.779 204.861 139.541 205.568 139.541 205.568L140.489 207.25L142.153 207.671C142.174 206.914 141.965 206.168 141.554 205.534C140.922 204.693 139.208 203.633 139.624 203.566C140.104 203.464 140.577 203.329 141.038 203.162L140.506 201.143C140.399 200.854 140.321 200.556 140.273 200.251C140.974 199.564 141.737 198.944 142.552 198.4L143.434 198.872L144.382 200.655L146.195 201.782L147.143 201.614L149.489 202.085L151.668 203.28L152.899 203.397L154.962 203.683L156.127 204.828L156.892 205.114L157.84 205.416L160.585 204.76L162.249 204.945L164.944 206.123L167.822 207.082L169.652 208.024L171.698 207.671L173.694 206.123L176.056 206.729L178.452 207.974L180.116 209.034L181.646 210.043L182.511 210.7L183.459 213.61L182.578 214.805C181.789 215.338 181.043 215.934 180.349 216.588C180.349 216.824 180.349 218.489 180.349 218.489L180.881 219.196L182.877 219.381L184.175 219.617L184.824 219.381C184.824 219.381 185.106 220.559 185.173 220.912C185.126 221.404 185.009 221.886 184.824 222.342C185.152 222.426 185.485 222.487 185.822 222.527C186.055 222.527 187.934 221.871 187.934 221.871L187.286 222.813L188.7 223.419H189.748V224.244L188.816 224.597L187.585 225.32L187.169 226.212V226.734L188.467 227.154L189.398 226.448L190.28 227.339L190.58 228.584L192.343 227.743L192.692 227.39L194.223 228.349L196.153 227.743L197.5 227.037C197.5 227.037 198.448 225.909 198.681 225.909C198.914 225.909 201.376 225.606 201.376 225.606C201.376 225.606 203.905 226.263 204.088 226.33C204.271 226.397 203.622 227.811 203.622 227.811H201.676C201.455 228.195 201.261 228.594 201.093 229.005C201.445 229.856 201.874 230.673 202.374 231.445L205.202 236.189L205.735 240.11L206.5 243.273L206.849 247.126L207.132 249.919L207.847 253.906L208.546 256.093L209.86 255.656L210.908 253.57L211.74 252.627L213.554 254.058V256.363L215.733 256.968L216.149 258.264L219.26 258.869L219.725 257.557L222.304 257.675L223.252 257.978L224.833 258.869L225.781 261.78H226.313V265.145H228.775L229.358 266.929V270.294L231.021 271.118H236.012L238.59 274.029L239.705 275.341H242.583C243.116 275.005 243.672 274.707 244.247 274.449C244.43 274.449 245.295 274.567 245.295 274.567L247.541 274.147L249.42 273.44L250.186 272.548L250.768 271.707L252.764 271.354L255.991 270.529L256.441 269.116L257.688 268.813L259.086 269.183L260.267 268.224L263.261 267.804H264.193L265.557 268.813L265.208 270.496L266.871 270.21L267.587 269.789L269.167 269.553H272.494L273.659 271.404L275.189 273.541C275.189 273.541 276.603 274.012 276.603 274.248C276.603 274.483 278.533 275.022 278.533 275.022H281.012L282.293 276.149L285.77 276.435H287.882L289.063 275.072L291.692 273.238L291.293 271.455L290.112 269.065C290.112 269.065 290.112 266.643 290.112 266.458C290.112 266.272 290.461 264.624 290.461 264.624L291.625 263.194L293.106 261.41L293.505 260.333L293.988 259.273L295.867 259.509L298.147 260.333L299.261 261.292L301.025 262.302H302.389L305.433 263.362L306.781 263.547L308.444 263.85L309.326 265.027C309.326 265.027 310.091 266.34 310.141 266.525C310.175 267.035 310.175 267.546 310.141 268.056L310.607 269.318L312.27 270.731V271.505L313.501 272.868L314.616 272.986L315.847 274.13L317.96 273.289C317.96 273.289 320.256 273.12 320.489 273.053C320.721 272.986 321.553 271.808 321.553 271.808L323.433 271.387L325.196 271.084H328.524L330.57 272.043L332.965 272.481C332.965 272.481 334.779 272.717 335.012 273.019C335.709 273.571 336.436 274.082 337.191 274.55L338.239 275.509L341.566 277.293L342.864 276.872C343.166 276.765 343.478 276.686 343.795 276.637C344.028 276.637 345.858 276.872 345.858 276.872L346.623 277.293L348.553 276.94L349.268 276.569L351.015 276.872L352.263 276.687L353.261 275.509L354.026 274.55L354.592 274.163L356.122 273.861L358.119 273.322L359.533 273.087L361.113 271.774L361.529 269.823L362.344 267.921L364.008 267.686C364.008 267.686 365.072 266.441 365.189 266.205C365.858 265.869 366.569 265.626 367.302 265.482L368.766 266.323L371.061 266.962L373.357 267.332L374.239 266.256L375.403 265.599H377.466L379.13 267.147L381.126 267.787L382.49 267.905L383.422 267.501C383.643 267.124 383.822 266.723 383.954 266.306C383.954 266.071 383.721 264.405 383.954 264.405C384.187 264.405 386.25 263.698 386.25 263.698C386.84 263.398 387.397 263.037 387.913 262.622C388.332 262.223 388.789 261.868 389.278 261.562L389.677 260.064C389.677 260.064 388.562 259.66 388.446 259.357C388.352 258.847 388.313 258.328 388.329 257.81C388.329 257.574 388.096 255.673 388.096 255.673C388.12 254.793 388.237 253.919 388.446 253.065C388.745 252.291 389.161 251.382 389.278 250.979C389.394 250.575 390.276 248.253 390.442 247.614C390.71 246.854 390.812 246.045 390.742 245.241C390.603 244.613 390.408 243.999 390.159 243.407C389.86 242.936 389.211 241.725 389.211 241.725C388.679 241.591 388.166 241.393 387.681 241.136C387.564 240.968 386.865 239.773 386.865 239.773C386.865 239.773 386.516 238.091 386.865 238.091C387.215 238.091 388.629 237.956 388.745 237.721C388.862 237.485 392.072 234.928 392.072 234.928L393.603 233.245L396.364 232.993L398.361 231.394L401.688 230.452L404.516 231.865L405.448 230.856L409.906 230.738L411.669 232.168L413.033 234.069L414.547 234.372L415.196 235.5C415.196 235.5 416.078 237.401 416.194 237.687C416.311 237.973 417.076 239.588 417.076 239.588L420.253 241.136L420.836 242.818V244.35L422.716 244.652C422.657 245.302 422.657 245.955 422.716 246.604C422.949 246.978 423.205 247.338 423.481 247.681L427.889 249.935L430.95 250.053L432.947 248.505L433.529 249.464L435.192 248.64L436.49 248.337L438.02 249.111L441.065 249.532L441.947 249.767C442.545 250.318 443.102 250.914 443.61 251.551C443.946 252.134 444.319 252.696 444.725 253.233L445.723 255.017L446.072 256.699L448.301 256.867L449.765 254.916L451.712 254.024L453.592 253.3V250.945L454.889 249.515L457.734 247.243C457.747 246.4 457.848 245.559 458.033 244.737C458.2 244.737 460.196 243.256 460.196 243.256L461.56 242.314L462.375 246.284L463.44 248.606L464.488 249.027L463.373 250.928L462.375 251.938C462.375 251.938 462.259 253.065 462.492 253.3C462.725 253.536 463.257 253.957 463.257 253.957L463.839 254.36L464.022 255.555L463.789 257.389L465.453 258.583L465.153 261.023C464.833 261.427 464.559 261.868 464.338 262.335C464.338 262.621 464.222 264.472 464.222 264.472L465.037 267.013L464.688 268.207C464.443 268.525 464.226 268.862 464.039 269.217C463.922 269.52 462.858 270.109 462.858 270.109L459.93 270.294L459.098 271.589C459.098 271.589 458.932 273.137 458.865 273.373C458.537 273.862 458.164 274.318 457.751 274.736L457.634 276.115L459.98 276.94L460.579 279.261L461.926 283.484C462.093 283.874 462.287 284.251 462.508 284.612L463.091 287.573L462.575 289.171H461.211L460.096 289.945L460.978 290.904L462.808 291.796L463.806 291.207L464.222 290.315L465.453 289.71L464.97 287.876L465.453 286.092L466.335 285.133L467.998 285.436L469.179 284.847L470.843 284.494L473.604 283.888L474.253 283.064L475.251 281.819L476.915 280.742C476.915 280.742 477.547 279.918 477.73 279.615C477.913 279.312 478.728 278.185 478.795 277.932C478.933 277.353 479.128 276.789 479.377 276.25C479.665 275.631 479.999 275.035 480.375 274.466C480.762 273.615 481.036 272.715 481.19 271.791C481.361 270.986 481.483 270.171 481.556 269.352C481.556 268.948 481.307 267.45 481.307 267.164V265.734C481.53 265.382 481.709 265.003 481.839 264.607C481.918 264.258 482.035 263.92 482.189 263.597C482.016 262.833 481.899 262.057 481.839 261.276C482.023 260.735 482.262 260.216 482.555 259.728L483.436 254.024V243.104L483.137 240.076C483.32 239.534 483.421 238.966 483.436 238.393C483.374 237.958 483.374 237.516 483.436 237.081L483.12 234.944C483.005 234.135 483.005 233.314 483.12 232.505C483.415 231.403 483.616 230.277 483.719 229.14C483.719 228.601 483.952 228.063 483.719 227.592C483.486 227.121 482.305 224.092 482.238 223.907C482.172 223.722 480.076 221.182 480.076 221.182L478.845 218.203L476.2 215.882L474.786 212.146L473.97 209C473.97 209 473.97 206.678 473.854 206.325C473.738 205.972 474.02 204.239 473.854 204.071C473.51 203.554 473.114 203.075 472.673 202.64C472.506 202.64 472.041 202.758 471.675 202.405C471.309 202.051 470.394 201.328 470.211 201.042C470.028 200.756 469.213 199.679 469.213 199.679C468.948 199.178 468.715 198.661 468.514 198.131C468.514 197.946 467.982 196.348 467.982 196.348L466.401 196.583L463.806 195.742L462.226 195.103L460.878 194.918H458.765C458.16 195.177 457.571 195.475 457.002 195.809L455.521 196.398L456.237 197.828L457.734 200.133C457.734 200.133 457.368 201.631 457.135 201.328C456.902 201.025 455.787 199.646 455.787 199.646L455.372 201.177L455.089 202.556L454.373 203.566L453.259 203.734C453.259 203.734 452.86 202.253 452.793 202.051C452.727 201.85 451.495 200.924 451.379 200.756C451.263 200.588 450.447 200.386 450.497 199.797C450.547 199.208 449.449 200.504 449.449 200.504L450.264 201.883L451.612 203.566L450.215 204.037C449.869 203.988 449.542 203.849 449.266 203.633C449.033 203.33 447.852 201.076 447.852 201.076C447.852 201.076 447.619 199.948 447.569 199.646C447.52 199.343 446.97 198.989 446.97 198.989L445.739 200.234C445.739 200.234 444.159 201.076 443.976 201.193C443.793 201.393 443.545 201.518 443.277 201.547C442.928 201.547 441.215 201.362 441.215 201.362C441.215 201.362 440.283 201.362 440.166 201.244C439.997 200.783 439.858 200.31 439.751 199.831C439.645 199.595 439.591 199.34 439.591 199.082C439.591 198.824 439.645 198.568 439.751 198.333C440.161 197.865 440.659 197.482 441.215 197.206L441.98 196.264L442.096 194.127C442.061 193.791 442.061 193.453 442.096 193.117C442.096 192.815 442.911 189.752 442.911 189.752C442.911 189.752 443.627 189.332 443.677 189.096L444.209 187.128L444.325 186.068L444.625 184.873L443.976 183.275V179.826L444.092 178.278L445.207 175.973C445.045 175.287 445.045 174.572 445.207 173.886C445.507 173.112 446.205 171.565 446.272 171.396C446.338 171.228 446.438 169.26 446.438 169.26L446.322 167.173C446.322 167.173 447.087 164.801 447.154 164.616C447.22 164.431 446.322 161.049 446.388 160.881L447.503 156.607C447.503 156.607 449.848 154.824 450.031 154.639C450.214 154.454 451.845 151.728 452.028 151.492C452.211 151.257 454.839 149.524 454.839 149.524H456.137C456.137 149.524 456.37 151.072 456.553 151.206C456.736 151.341 456.719 151.61 457.301 151.375C457.525 151.296 457.722 151.155 457.87 150.967C458.017 150.779 458.108 150.553 458.133 150.315C458.05 149.883 457.91 149.464 457.717 149.07C457.632 148.598 457.593 148.119 457.601 147.639L458.599 146.933L461.543 146.63L462.658 144.779C462.658 144.779 463.357 144.19 463.54 144.19C464.124 143.793 464.68 143.354 465.203 142.878L463.906 141.7C463.906 141.7 463.673 140.22 464.089 139.849L465.436 138.672C465.974 138.378 466.529 138.119 467.1 137.898C467.283 137.898 468.397 138.015 468.514 137.898C468.63 137.78 469.861 136.367 469.978 136.215L470.094 136.03L471.275 136.568C471.452 136.541 471.631 136.541 471.808 136.568C471.974 136.568 472.323 137.528 472.323 137.528V138.941L473.139 139.833C473.586 139.426 474.058 139.05 474.553 138.705L476.616 137.46C476.616 137.46 476.133 135.98 476.366 135.912C476.599 135.845 477.497 135.374 477.497 135.088C477.497 134.802 477.497 132.766 477.497 132.766C477.497 132.766 477.497 131.454 477.614 131.454C477.73 131.454 480.492 130.747 480.492 130.747C480.492 130.747 480.375 129.805 480.608 129.62C480.841 129.435 481.956 128.678 481.956 128.678V127.416C481.437 127.374 480.926 127.255 480.442 127.062C480.325 126.894 479.028 126.945 479.028 127.062C478.785 127.544 478.464 127.982 478.079 128.358C477.535 128.502 476.978 128.586 476.416 128.61C476.105 127.655 475.871 126.676 475.717 125.683L475.418 121.527L474.902 117.136L474.137 116.429C473.862 115.747 473.623 115.05 473.421 114.343C473.421 114.107 473.421 112.862 473.421 112.66C473.421 112.458 472.124 112.004 472.124 111.651C472.124 111.297 473.006 109.968 473.006 109.699C473.145 109.126 473.322 108.564 473.538 108.016L474.652 106.839L475.601 105.526C475.601 105.526 475.301 103.928 475.601 103.844L477.414 103.07C477.414 103.07 478.229 101.522 478.412 101.522C478.595 101.522 481.407 103.962 481.407 103.962L481.29 105.796L483.686 106.57L484.7 106.755L485.749 105.072V103.053L484.584 99.6881L484.351 95.9529L485.116 94.2704L486.231 94.691C486.231 94.691 486.697 94.1526 486.514 93.8498C486.331 93.547 485.582 93.5638 485.399 93.4965C485.216 93.4292 484.168 93.2609 484.052 92.9749C483.614 92.2946 483.142 91.6376 482.638 91.0064L481.756 89.6435L480.824 88.6341L481.872 86.4973L482.871 85.2522L484.75 84.8821L485.166 86.3795L484.518 87.2039V89.8118L485.915 91.0064L488.044 92.6889L490.623 93.8162V95.078L492.087 96.2558L491.388 97.9383L490.323 99.116L490.207 101.673L490.091 103.356L490.806 104.315L491.804 105.796L492.386 107.276V110.187L493.035 114.174L494.033 116.614L495.497 117.556V121.847L496.146 123.748L495.614 125.161L495.031 125.885L494.566 127.668L493.8 128.678L493.617 129.687L494.2 130.394L495.68 131.168L496.728 133.372L497.078 136.282L498.026 139.193L499.689 140.876L500.97 143.248L502.85 144.325L505.728 147.404L507.142 148.245L509.205 149.255L511.085 150.685L512.316 151.98L515.643 154.184L517.806 155.867L519.469 156.876L520.933 157.583L521.216 158.172L522.88 158.828L524.111 159.013L525.042 161.083L526.706 162.765L528.819 163.421L530.931 164.077L530.283 161.352L530 158.677L530.166 156.775L529.75 153.091L528.236 151.728L527.754 150.23L526.357 149.221C526.187 148.817 526.048 148.401 525.941 147.976C525.941 147.623 525.824 146.192 525.774 145.957C525.772 145.36 525.811 144.764 525.891 144.173L527.238 143.82C527.238 143.82 527.704 144.241 528.003 143.82C528.231 143.403 528.351 142.934 528.353 142.457C528.19 141.93 527.995 141.413 527.771 140.909C527.771 140.909 526.007 139.9 525.774 139.227C525.541 138.554 523.545 137.208 523.545 137.208C522.857 136.743 522.356 136.045 522.131 135.239C521.962 134.378 521.845 133.507 521.782 132.631V131.571L524.061 130.427L523.828 129.367C523.711 128.829 523.545 126.642 523.545 126.642C523.545 126.642 522.065 126.642 521.882 126.339C521.699 126.036 519.353 125.565 519.236 125.144C519.12 124.724 517.955 122.89 517.772 122.469C517.589 122.049 516.724 120.787 516.724 120.635V119.205L518.388 118.145L518.804 116.362L517.39 115.638L515.161 115.823L511.933 114.511L510.935 113.855L510.636 111.482L509.455 109.8L508.107 110.221L507.342 110.927L506.643 111.701L506.294 113.384L504.93 112.913L503.931 110.658L502.151 107.596L500.571 103.507L498.758 102.548C498.758 102.548 497.46 100.226 497.344 100.058C497.46 99.3265 497.655 98.61 497.926 97.9215L499.756 96.5418L500.405 95.9025L499.639 93.4629V90.7708L501.303 90.6531L502.251 92.7225H503.299L502.534 90.4007L502.118 88.2639C502.129 86.8319 502.252 85.403 502.484 83.9904C503.051 83.1361 503.557 82.2421 503.998 81.3152L505.994 79.9524L509.887 79.7673L510.053 78.8251L507.708 76.3182L507.358 72.9532L507.126 69.7901L506.177 68.4272L505.828 65.2305L504.065 62.0169L504.83 59.8128V54.5971L504.015 49.9029L504.547 47.396L507.192 45.7135L507.891 44.2329L508.357 43.3916L506.826 42.0961L506.427 40.9015L504.065 41.4904L502.95 40.9015L500.072 41.7933L498.907 42.3316L498.492 41.5577L496.079 40.1276H495.314L493.734 40.3631L491.97 42.3316L491.787 43.0383L490.556 42.3821L489.675 41.0193L491.92 39.1854L492.087 36.8635L492.27 34.5416L491.039 32.7077L490.556 30.5036C490.556 30.5036 489.325 30.5037 489.159 30.2681C488.689 29.8616 488.195 29.4851 487.678 29.1408L485.915 29.6792C485.915 29.6792 484.634 29.8475 484.518 29.6792C483.996 29.1489 483.44 28.6542 482.854 28.1986C482.854 28.1986 484.268 27.6098 484.268 27.4247V26.2974L485.932 26.7685L486.347 28.1313H488.294L490.872 27.7275L491.455 26.2974L490.939 23.5549L492.054 22.1416L493.102 21.1321H494.333L495.697 22.1921L496.928 22.0239L497.976 21.1321L498.625 19.5842L500.737 18.3392L502.268 17.0941L502.151 14.89L503.333 12.8711C503.333 12.8711 502.201 11.9793 502.035 11.912C501.232 11.8615 500.426 11.8615 499.623 11.912C498.962 11.8219 498.324 11.6049 497.743 11.2727C497.743 11.0876 496.928 10.7343 496.928 10.7343H494.333L494.931 8.8835L495.58 6.93184L494.283 6.27564L494.981 4.18936L494.1 3.29764L494.981 1.88434L495.697 0.689728L494.699 0.151367H492.819L492.286 0.992618L491.055 2.23765L489.575 3.12938L488.693 4.42488L485.932 5.56897L484.185 6.39343L483.769 7.75625L484.767 8.22735L484.933 9.60701L483.702 10.0108H482.821C482.821 10.0108 482.654 11.1381 482.654 11.3905V13.3422L483.652 13.1739L484.468 13.645V14.4694L482.987 14.5872H481.224L480.591 13.4599L479.477 13.0393L479.111 13.3422L478.229 13.5777L477.231 13.6955L476.649 14.3516V15.0583L476 15.4621L474.769 15.6977L474.37 16.7408H473.139C473.139 16.7408 472.49 17.4643 472.373 17.6325C472.081 17.9043 471.764 18.1466 471.425 18.356L469.312 19.6011L467.649 20.2572L466.301 20.4255L465.42 21.1489C465.42 21.1489 464.122 22.0407 464.122 22.2089C463.421 22.7353 462.675 23.197 461.893 23.5886L459.597 24.1775L459.065 25.1869L457.9 26.6171L454.573 29.41L452.909 31.5973L452.028 33.2798L451.329 35.4166L452.028 36.4261L449.266 37.7216L447.603 39.9257L445.54 41.238L448.717 43.1897L449.067 44.1992C449.067 44.1992 451.362 43.6103 451.595 43.6103C451.828 43.6103 453.359 43.7954 453.359 43.7954L455.022 44.8049V45.5116L454.373 47.295L452.444 47.7661L451.213 47.581L448.85 48.4727L446.388 49.0112L445.922 48.7756L445.157 49.1963L444.575 51.2657L443.51 53.5371C443.51 53.5371 442.046 55.0682 441.847 55.2196C441.23 55.4316 440.602 55.6113 439.967 55.758L439.202 57.8948L437.971 59.8633L436.806 61.5458V64.0527L434.111 64.8099L431.998 63.8004L430.468 61.3776L427.59 61.2598H424.063L422.3 62.3871L420.636 66.0213L418.972 67.1485L417.309 69.5713L415.562 71.7754L414.198 73.1382L412.618 72.4316L410.205 71.9605L408.542 73.0205H405.431L404.599 73.9122L405.547 71.7081V70.7659L404.15 70.6481L401.671 71.5399L399.026 72.3138L398.327 73.5588L398.677 74.8712L399.558 77.7146L398.56 79.9692C398.56 79.9692 396.897 80.6254 396.797 80.4571C396.974 79.4677 397.23 78.4943 397.562 77.5464V75.8639L395.899 76.5201V77.7651L394.085 77.5969L394.618 75.5779L396.963 75.3928L396.431 74.1982L393.736 75.6283L391.673 76.335L390.01 77.5969L388.346 78.3035L385.351 78.4213L384.42 79.9019L385.584 80.9787L385.302 82.5266L384.536 82.8799L384.353 85.37L385.302 85.9589L385.817 84.7811L386.416 85.9589L386.183 87.2208L387.764 88.2807L388.113 89.9632C387.199 90.0948 386.274 90.1399 385.351 90.0979C385.235 89.9128 384.47 90.3334 384.47 90.6194C384.056 91.3286 383.565 91.9888 383.006 92.5879L381.825 93.2946L380.311 92.4029L379.246 93.7152L378.83 95.078L378.132 96.626L377.666 96.8615L375.187 96.3231L373.424 94.7247L372.675 95.7847L373.024 98.2243L372.908 100.664L373.257 102.683L374.022 103.928L371.61 104.399L368.283 103.339L366.47 100.546L366.353 98.3421L365.172 97.5177L364.59 95.4314L363.409 94.4892L362.71 91.7467L360.647 90.3839L357.536 88.3649L356.189 89.6099L355.424 90.8045L352.546 90.6867L351.548 89.2566L348.22 89.9128L347.938 92.3524L349.751 93.4796L350.516 95.9193L349.934 97.1643L348.104 97.7532L346.69 98.83L342.531 98.2243L340.352 97.6859L339.586 95.4987L336.259 95.852L331.036 96.5082L330.869 97.7532L328.158 98.4599V99.5871L327.575 96.2221L326.744 95.4987L325.995 96.5082L324.864 97.1643C324.864 97.1643 322.934 96.8783 322.934 96.6932C322.934 96.5082 322.934 95.8015 322.751 95.8015C322.568 95.8015 320.522 96.9288 320.522 96.9288L319.707 97.8205L320.239 98.0056L321.703 97.585L322.585 97.9383L322.285 99.4862L321.586 100.546L319.923 100.142L319.757 99.6713L319.041 99.8395L318.575 101.387L317.411 102.33C317.411 102.33 317.644 102.986 317.411 103.221C316.548 103.485 315.662 103.665 314.766 103.76L313.468 104.769L312.237 106.132L312.071 104.651L313.884 101.926L315.415 100.546V99.9573L317.644 99.1833L318.758 97.2821L320.422 95.7342L320.189 93.833L321.72 92.3524L323 91.4102L324.365 89.9801L326.028 88.2976L327.093 85.9084L326.211 83.6538L324.98 83.8894L323.683 83.2332L323.915 82.106L324.681 82.5939L325.562 82.9472L326.028 81.7021C326.028 81.7021 325.379 81.2815 325.33 81.046L324.847 79.2625L323.184 79.3803L322.485 78.1352L321.886 76.7724L321.537 77.9502L320.605 78.4213C320.336 77.905 320.254 77.3099 320.372 76.7388C320.538 75.6788 319.374 75.3087 319.374 75.3087L317.893 76.3855L316.08 76.9238L314.965 76.5537L313.668 76.8566L313.551 77.3949L313.851 78.4044L313.202 78.7578L311.971 78.4044L311.788 77.7483L313.901 76.1499L314.084 75.1404L313.135 74.7871L311.206 75.0731L310.49 75.6115C309.713 75.4947 308.949 75.2974 308.211 75.0227C308.211 74.8376 308.727 73.2392 308.727 73.2392H309.792C309.792 73.2392 309.792 73.5252 309.975 73.5252C310.493 73.3219 310.999 73.0859 311.489 72.8185L312.204 72.7008L312.553 71.2707L310.84 70.5808L309.559 69.9415L308.494 71.237L307.379 70.6481L306.381 70.463L304.718 71.5903L303.953 72.4316L303.121 73.6766L302.189 75.6956L300.775 76.7052L301.191 77.7819L301.89 78.9597V79.7336L299.893 80.0365L297.831 79.6159L298.063 80.4571L297.182 81.9377L295.668 81.4666L295.019 82.5266L294.021 83.4856L292.357 82.291L290.96 81.2815C290.96 81.2815 289.014 80.8609 288.781 81.0965C288.548 81.332 287.25 82.1733 287.25 82.1733C287.25 82.1733 285.587 82.4088 285.72 82.5939C286.009 82.9192 286.326 83.2176 286.668 83.4856C286.668 83.4856 286.319 84.5456 286.136 84.5456L282.559 84.6634C282.005 84.6236 281.449 84.6236 280.895 84.6634C280.596 84.6634 278.433 84.4783 278.433 84.4783C278.15 85.0142 277.833 85.5312 277.485 86.0262C277.252 86.2617 274.491 87.5068 274.491 87.5068L274.025 88.9874C274.025 88.9874 272.611 89.8287 272.494 89.5258C272.378 89.223 272.378 88.163 272.228 88.348C272.078 88.5331 271.263 89.6435 271.263 89.6435C271.263 89.6435 271.845 90.9559 271.962 91.141C272.078 91.3261 273.076 92.1505 273.076 92.1505L272.727 94.1695L273.027 95.4146L271.912 95.8857L273.193 96.424C273.193 96.424 273.076 97.1307 272.844 97.3158C272.253 97.5543 271.647 97.751 271.03 97.9046L269.5 98.1402L269.666 97.3663L269.799 96.7774L269.084 96.3568L267.786 96.5923L265.041 96.7101L263.561 96.3568L260.749 96.1212L258.803 95.5828L256.64 95.1117L255.875 96.5418L256.108 99.0319L255.809 100.883L255.11 104.029L256.99 105.089L258.271 106.284V107.714L259.618 108.235L259.851 110.91L258.803 112.997C258.803 112.997 257.971 114.78 257.971 114.948C258.135 115.401 258.336 115.84 258.57 116.261L258.969 118.936L257.688 120.181L257.389 123.748L258.62 124.825V126.12L256.507 125.7L255.027 124.219L255.559 122.923L255.21 121.073C255.21 121.073 254.677 120.719 254.744 120.534C254.81 120.349 255.908 118.852 255.908 118.852V117.607L255.027 116.429L255.559 114.646L256.025 112.963L257.089 112.206L258.62 111.718V111.011L258.736 110.002L258.088 109.581L256.923 109.228L255.26 108.521L254.328 106.738C254.211 106.502 253.446 104.769 253.446 104.769L252.614 103.221C252.614 103.221 251.683 102.279 251.566 102.094C251.45 101.909 249.504 102.094 249.454 101.926C249.404 101.758 248.505 101.505 248.505 101.505L247.69 100.546L245.81 101.202L247.041 101.859L248.223 102.044L248.622 104.18L249.337 104.651L248.455 106.25L246.276 105.425C246.276 105.425 246.626 103.642 246.11 103.642C245.631 103.626 245.158 103.748 244.746 103.995C244.396 104.231 244.346 105.678 244.346 105.678L244.746 107.108L246.992 108.79L246.809 109.682L247.99 110.221L246.692 112.593L245.461 110.456L244.396 109.8C244.396 109.8 242.982 110.035 242.866 109.564C242.749 109.093 241.984 107.243 241.984 107.243C241.984 107.243 242.284 105.997 242.284 105.829C242.284 105.661 242.633 103.625 242.699 103.39C242.957 102.912 243.251 102.456 243.581 102.027L244.396 101.186C244.396 101.186 244.579 100.243 244.746 99.7049C244.936 99.3022 245.097 98.8861 245.228 98.4599C245.228 98.2243 245.228 96.9793 245.045 96.7774C244.862 96.5755 244.696 96.0202 244.346 96.4913C243.997 96.9624 243.748 97.3158 243.748 97.3158L243.165 97.8542L243.049 99.4021C243.049 99.4021 242.583 100.714 242.35 100.832C242 101.061 241.667 101.314 241.352 101.589L240.587 102.481H239.223L237.942 103.019C237.424 103.353 236.934 103.73 236.478 104.147C236.25 104.467 235.994 104.765 235.712 105.038L237.226 106.284C237.201 106.782 237.201 107.282 237.226 107.781C237.127 108.253 236.971 108.711 236.76 109.144L236.594 110.927C236.594 110.927 236.112 112.172 235.945 112.526C235.375 113.021 234.743 113.44 234.066 113.771C234.066 113.771 233.6 114.141 233.6 114.376C233.55 114.847 233.426 115.307 233.234 115.739C233.067 116.092 232.236 116.917 232.236 117.287C232.141 117.89 232.008 118.485 231.836 119.071L231.587 120.433L233.25 122.116L234.781 121.88L237.126 121.695L237.293 122.284L238.823 123.967L239.539 124.724C239.539 124.724 240.653 125.868 240.77 126.036C240.872 126.483 240.928 126.94 240.936 127.399C241.039 128.191 241.1 128.989 241.119 129.788C241.119 130.192 239.772 131.084 239.772 131.084C239.772 131.084 238.823 131.571 238.823 131.74C238.757 132.045 238.662 132.344 238.541 132.631C238.499 132.95 238.499 133.272 238.541 133.591V134.348L239.955 135.61L241.186 136.383V137.393L239.772 136.67C239.772 136.67 238.108 136.131 237.958 136.013L236.128 135.071C236.379 134.41 236.595 133.736 236.777 133.052C236.852 132.593 236.952 132.138 237.077 131.689L237.958 130.68L238.657 129.67L238.773 128.661C238.536 127.942 238.358 127.205 238.241 126.457L237.892 124.555L236.894 124.253L234.249 124.488L232.968 124.084L231.786 125.447L230.672 126.76C230.672 126.76 231.487 127.399 231.553 127.634C231.62 127.87 231.786 130.377 231.786 130.377L230.206 131.74L227.91 133.052L225.964 135.004L223.202 136.316L219.626 137.679L218.81 138.638L214.818 136.67L213.287 134.987L212.456 132.783L212.872 132.194L215.633 134.449L216.099 134.802L217.762 134.684L218.761 134.331L219.526 133.506H221.871L222.57 132.732L223.635 131.05L225.165 130.158L226.513 129.923L227.162 128.964L227.278 127.836L227.395 126.356L228.792 125.632L229.208 124.875L229.674 123.378L229.208 121.695L228.559 120.013L229.79 118.061L230.156 115.975L231.504 112.828L233.267 110.456L234.032 109.379L233.916 107.831V106.048C233.916 105.762 233.733 103.861 233.733 103.861L234.498 103.019L235.496 102.128L237.958 98.5104L238.674 96.7269L238.84 95.1285L238.141 92.7899L236.212 92.6216L234.98 91.8477L234.032 91.4943L232.618 91.9654L231.387 93.16L230.622 94.9435L228.093 96.9624L227.228 98.6449L225.099 99.4189L222.87 99.7218H221.705L221.522 101.135L222.054 103.642L221.223 104.769L220.175 106.132L219.343 107.377L217.762 108.202L217.413 109.581L217.297 110.288L218.228 111.297L219.176 111.533L219.709 112.492V112.845L218.361 114.208L218.644 115.756L219.127 117.186V118.313L217.463 119.373L216.232 120.215L215.234 119.441L215.7 117.186L214.585 115.504L213.188 113.653L212.356 112.576L212.123 109.497L209.661 106.99L209.361 105.308L208.313 103.457L206.483 101.976L204.72 99.9573L203.173 100.698L201.676 102.044L201.559 103.558L200.794 105.695L198.315 107.125C198.315 107.125 196.652 107.024 196.652 106.704C196.652 106.384 197.067 104.214 197.067 104.214L197.883 103.491L198.132 102.431H197.117L196.336 102.548L194.456 102.767L193.374 102.885L191.511 102.767C191.511 102.767 191.012 102.431 191.012 102.279C190.758 101.704 190.475 101.142 190.164 100.597L188.5 100.126L186.67 99.6208L185.938 100.21C185.732 100.538 185.498 100.848 185.239 101.135C184.875 100.976 184.519 100.796 184.175 100.597C184.175 100.597 184.474 99.6545 184.175 99.6208L182.411 99.503C182.411 99.503 182.594 98.6618 182.761 98.6618C183.374 98.3184 183.958 97.9244 184.507 97.484C184.507 97.484 184.94 96.7101 185.056 96.7101C185.173 96.7101 186.72 96.3904 186.72 96.3904L187.302 96.2558C187.302 96.2558 187.801 95.6333 187.718 95.5155C187.399 95.2055 187.002 94.9901 186.57 94.893C185.631 94.8536 184.696 94.7354 183.775 94.5396C183.399 94.3192 183.004 94.1334 182.594 93.9844C182.594 93.9844 181.546 94.22 181.546 94.3377C181.546 94.4555 181.546 95.1117 181.546 95.1117L181.047 95.465C181.047 95.465 180.199 95.6333 180.199 95.465C180.199 95.2968 180.199 94.506 180.199 94.506L179.666 94.1022L177.903 92.8403H175.325L171.032 92.6048L170.617 91.6457L169.219 92.0159L167.156 91.4102L165.493 92.5375L163.962 93.1936L161.966 93.6143L160.685 92.773L159.97 91.528L159.803 89.9296L160.618 86.8338L161.916 86.1271H163.796L164.96 87.2039L165.326 87.8433L166.491 87.675L166.79 86.5982L167.373 85.7738C167.347 85.376 167.347 84.977 167.373 84.5793C167.373 84.3437 168.021 82.6275 168.021 82.6275C168.021 82.6275 168.021 81.1974 167.905 80.945C167.788 80.6927 166.84 80.7095 166.491 80.3562C166.142 80.0028 165.26 79.5317 165.21 79.1616C165.16 78.7915 165.027 77.5632 165.027 77.5632L164.029 77.3949L163.846 78.5727V80.1206L162.615 81.3657L162.149 81.9041L160.801 82.8463L159.138 83.3342L158.373 83.5697L157.624 84.8148C157.624 84.8148 156.975 86.4973 156.909 86.8338C156.326 87.6412 155.675 88.3956 154.962 89.0883L154.596 90.569L151.668 90.0474C151.668 90.0474 151.02 89.021 151.253 88.9706C151.775 88.4557 152.248 87.8924 152.667 87.2881L151.436 86.1608L150.204 84.2596L148.541 84.9662H146.262L144.598 83.8894L143.484 83.065L140.489 83.4183L138.826 84.6129L139.058 86.6319L137.129 88.2302C136.829 88.4658 135.465 89.1893 135.465 89.1893C135.465 89.1893 134.068 88.7014 134.068 88.4658C134.068 88.2303 134.351 85.9084 134.351 85.7402C134.148 85.1668 133.915 84.6052 133.652 84.0577C133.825 83.6379 133.964 83.2046 134.068 82.7621C134.068 82.5266 133.835 80.2047 133.835 80.2047C133.688 79.8377 133.566 79.461 133.469 79.0774C133.469 78.8924 132.304 79.0774 132.304 79.0774L130.957 79.5654L130.125 79.1952L129.476 80.8777C129.252 81.2129 129.057 81.5677 128.894 81.9377C128.894 82.1733 128.545 82.8968 128.711 83.0145C129.034 83.1406 129.368 83.2363 129.709 83.3005C129.709 83.3005 129.892 84.1418 129.892 84.31C129.8 84.7371 129.683 85.1584 129.543 85.5719L127.879 86.2113H126.598L126.365 83.7212L124.885 82.9977L125.184 81.6349L126.598 80.5076V78.8251L125.783 77.5127L126.548 76.2004L127.896 75.6115L128.545 74.602L129.36 73.4747V72.0446L131.888 71.5735H132.637L133.352 70.3789L134.168 69.9583C134.168 69.9583 134.4 67.4682 134.4 67.2999C134.4 67.1317 134.234 65.8699 134.234 65.8699L135.399 64.9108L136.513 63.1274L137.162 65.0286C137.162 65.0286 137.578 66.1054 137.644 66.341C137.711 66.5765 137.461 68.1917 137.461 68.3599C137.756 69.0135 138.089 69.6484 138.46 70.2612V72.0446C139.044 72.5452 139.599 73.0788 140.123 73.643C140.123 73.8281 140.123 75.3255 140.123 75.4264C140.123 75.5274 141.471 79.1784 141.471 79.1784L143.35 80.4235L145.53 81.6685L148.058 81.5507L150.288 81.1974L152.051 80.5413L153.448 79.2962L153.631 77.6978L154.813 76.0153V73.7608L153.864 72.0783L154.447 69.4704V65.954L154.679 59.7287L154.147 57.4573C153.828 56.9506 153.555 56.4156 153.332 55.8589C153.423 55.3374 153.539 54.8208 153.681 54.311L151.801 53.5371C151.801 53.5371 152.683 52.6454 152.633 52.4771C152.583 52.3089 151.502 51.1648 151.502 50.8788C151.537 50.5158 151.598 50.1558 151.685 49.8019H152.334L152.633 50.2226L152.866 51.047H154.097C154.097 51.047 154.33 50.2226 154.38 49.9197C154.387 49.4236 154.348 48.9279 154.264 48.4391L153.798 47.1941L152.384 47.009L151.951 47.1772Z" fill="#1A739F"/>
<path opacity="0.82" d="M66.3108 209.05L66.7433 204.003L66.3108 203.145L67.3589 201.328L68.723 197.542V193.908L69.0391 191.552L68.7729 189.987L68.1906 188.642C68.1906 188.642 67.9411 187.884 67.8413 187.632C67.7415 187.38 67.6749 186.959 67.6749 186.959L68.723 186.74L70.5696 186.909L71.6343 186.017L72.5659 185.445V182.685H77.8061C77.8061 182.685 78.1056 182.585 78.1056 182.685V184.772L78.3718 186.336L79.1703 188.019L79.9189 189.264L80.9337 190.021L81.7655 188.944L82.4309 187.396L82.8634 185.563L83.5788 184.452L84.893 184.805L86.2239 185.024L87.1887 185.563H88.4198L88.686 184.705L89.4346 185.512L90.5325 185.647H91.8135L93.5769 185.512L94.758 185.344L95.4235 185.209L94.7248 186.639L94.4586 187.43L94.758 188.288H96.7377C97.1195 188.252 97.5038 188.252 97.8856 188.288C98.0686 188.288 99.1166 188.591 99.1166 188.591L99.7488 188.995L98.8671 190.475V191.132L99.4327 192.915H100.88L102.294 193.319L103.392 193.588C103.466 193.829 103.555 194.065 103.658 194.295C103.784 194.815 103.873 195.343 103.924 195.876V197.559C103.924 197.559 103.492 198.804 103.392 199.157C103.315 199.451 103.215 199.738 103.093 200.015C102.996 200.32 102.879 200.618 102.743 200.907L102.261 201.664L102.377 202.371C102.609 202.48 102.81 202.648 102.959 202.859C103.093 203.128 104.141 203.532 104.274 203.582C104.677 203.547 105.077 203.485 105.471 203.397L105.821 202.32L106.653 200.907V202.455L106.886 204.474L107.451 205.719L108.333 206.375L110.313 206.022L112.292 205.483L112.908 205.13L114.239 206.341C114.239 206.341 114.804 206.913 114.804 207.267C114.678 207.793 114.488 208.302 114.239 208.781L116.168 209.05L116.784 209.286H119.03L119.695 210.396V213.593L120.41 214.653L120.893 215.107V217.109L122.956 217.547L124.02 217.16L125.118 218.22C125.118 218.22 125.118 219.381 125.385 219.515C125.651 219.65 127.048 220.458 127.048 220.458L129.327 220.273L132.654 219.701L133.985 218.573V217.16L133.403 215.276L132.654 212.785L131.906 211.456V210.211L133.669 211.103C133.96 210.945 134.275 210.837 134.601 210.783C134.767 210.783 137.013 210.464 137.013 210.464L137.462 209.572V207.536L138.427 207.704L139.575 208.781L141.072 209.353H142.736L143.617 208.815V206.241C143.617 206.241 142.952 204.945 142.919 204.81C142.586 204.446 142.23 204.103 141.854 203.784C142.037 203.378 142.198 202.963 142.336 202.539C142.336 202.404 142.47 200.856 142.47 200.856L144.017 202.068L145.68 202.825L146.545 203.616L147.926 203.128L150.787 204.608L151.702 205.13L153.599 205.988C154.257 205.921 154.92 205.921 155.579 205.988C155.712 206.123 157.342 206.88 157.342 206.88L159.638 206.779H161.484C162.017 207.207 162.573 207.606 163.148 207.973C163.331 207.973 168.139 208.731 168.139 208.731L169.636 209.622L171.432 208.832L173.246 208.613L173.944 207.486L176.639 208.646L178.752 209.942L180.549 211.507V213.593L179.451 214.266L178.835 215.023L178.619 215.646V218.455L179.318 219.801L180.981 220.811H182.429L183.227 221.265C182.952 221.576 182.717 221.921 182.529 222.292C182.529 222.46 183.227 222.914 183.227 222.914L184.724 223.318L185.29 223.587V225.455L185.556 226.262L185.124 227.591L186.139 228.399H188.301L189.083 229.156L189.882 230.132L191.162 229.678L192.344 229.106L193.059 229.543H194.939L196.403 228.887L197.634 228.483L198.649 227.776L198.915 228.887L198.599 229.543L200.262 231.73L201.177 234.103L202.408 236.408L203.257 238.679L203.955 241.186L204.887 244.787V248.539L205.186 250.356L205.536 253.216L206.534 255.656L207.233 257.708H208.697L210.676 257.086L211.558 256.009L211.991 256.463C212.274 256.898 212.585 257.314 212.922 257.708C213.105 257.843 214.686 258.465 214.686 258.465V259.391L219.676 260.955L220.907 259.71L222.405 259.626L223.503 260.602L223.952 261.628L224.218 262.419L224.734 263.361L224.085 265.044L224.734 266.642L227.345 266.911L227.911 267.366V272.077L229.575 272.75L231.87 273.238L235.197 272.716L237.011 275.694L238.075 276.35L237.377 277.292H234.665L233.002 277.713L232.769 279.143L232.303 280.624C232.303 280.624 231.77 281.33 231.538 281.398C231.305 281.465 229.874 281.398 229.774 281.398H227.129L225.948 282.66C225.948 282.66 226.181 284.561 226.181 284.847C226.181 285.133 225.549 287.051 225.549 287.287C225.549 287.522 224.833 289.777 224.833 289.777L223.835 290.551H222.371L221.722 291.325H220.059L219.66 290.433L217.597 289.962L215.933 289.423L214.769 287.741L213.521 286.849L211.857 287.202L211.674 288.161L210.011 289.995C210.011 289.995 209.479 291.308 209.479 291.24C209.479 291.173 208.297 293.68 208.064 293.983C207.832 294.286 206.534 295.228 206.534 295.396C206.355 295.851 206.138 296.291 205.885 296.709L206.534 297.836L207.765 298.66L207.066 300.343L203.739 299.619L203.623 297.937L198.266 298.29L193.625 298.055L192.992 299.3L194.456 300.427L194.273 302.564L193.159 305.003V307.191C193.079 308.313 193.118 309.441 193.275 310.556C193.508 310.556 193.508 313.163 193.508 313.163L193.275 314.24L191.978 313.651L190.314 316.024L189.133 317.033L187.952 313.937L185.789 313.281L185.373 310.32L184.907 309.125L182.196 308.234L178.869 306.332L174.577 305.558L173.113 304.431L169.469 304.97L167.806 304.801L165.51 301.436L164.096 299.888L162.932 298.526L161.268 298.24H156.993L155.878 299.485C155.946 300.043 155.946 300.608 155.878 301.167C155.762 301.403 155.179 302.059 154.996 302.059C154.704 301.934 154.43 301.77 154.181 301.571L153.582 300.326L152.884 298.845L151.22 297.365L147.993 295.682L146.861 294.387C145.84 294.599 144.839 294.897 143.867 295.278C143.634 295.514 140.54 296.961 140.54 296.961H137.662C137.662 296.961 135.083 297.432 134.85 297.432H133.187L129.044 299.401L126.233 301.537C126.233 301.537 124.935 302.681 124.885 302.429C124.836 302.177 123.771 300.292 123.771 300.292V297.87V296.557L118.78 293.529L117.965 291.981L118.081 289.491L116.85 287.943L116.368 286.58L117.732 285.318L118.73 284.611L119.429 282.66L118.78 281.23L117.732 280.456L117.616 278.908L118.248 277.898L118.78 276.535L116.85 274.281C117.053 273.673 117.225 273.055 117.366 272.43C117.366 272.194 116.251 271.774 115.703 271.774C114.966 271.563 114.256 271.264 113.59 270.882L112.708 269.822L108.832 267.618L104.956 266.323L103.292 265.717L102.111 256.278L99.4826 251.466L98.4013 247.428L96.8874 244.585V243.222L84.6102 237.754L82.4309 240.665L66.9596 260.148C66.9596 260.148 66.028 259.912 65.9115 259.559C65.5596 258.9 65.1651 258.264 64.7304 257.658C64.7304 257.658 64.1981 256.11 64.7304 255.571C65.1341 254.966 65.3959 254.276 65.4957 253.552C65.5548 252.92 65.5548 252.284 65.4957 251.651C65.3792 251.416 64.2646 248.555 64.2646 248.555L62.8506 246.873L60.9208 245.863L58.7415 245.157L54.7988 244.921L55.797 243.794L57.9763 242.482L59.3903 241.422L59.8561 240.109L57.5604 238.09L57.211 236.189L57.4439 234.17C57.4439 234.17 56.5123 233.463 56.5123 233.278C56.5123 233.093 58.0428 230.603 58.0428 230.603L58.6251 228.651L58.9744 226.801L58.7415 225.118L60.7378 223.924L62.2683 223.739L63.5659 223.217L66.4439 223.57L67.6084 222.796C67.6084 222.796 70.2535 225 70.5529 225.118C71.2801 225.803 71.9635 226.533 72.5991 227.305L72.4328 228.988L74.2461 229.88L72.5825 232.134C72.5825 232.134 71.3015 232.723 71.3015 232.959C71.3015 233.194 71.1851 234.641 71.1851 234.641C71.1989 234.719 71.2282 234.794 71.2712 234.86C71.3142 234.926 71.37 234.983 71.4352 235.027C71.5005 235.071 71.5738 235.101 71.6509 235.116C71.728 235.131 71.8072 235.129 71.8838 235.112C73.1636 234.464 74.3975 233.728 75.5769 232.908C76.1744 232.688 76.7857 232.508 77.4069 232.37C77.6897 232.37 78.405 231.192 78.405 231.192C78.405 231.192 79.1703 230.115 79.1037 229.829C79.0372 229.543 78.222 227.507 77.7562 227.507H75.893L75.4272 226.027L76.1259 224.832L77.3071 222.763L78.1888 221.619C78.6308 221.507 79.0601 221.349 79.4697 221.147C80.0602 220.506 80.6155 219.832 81.1333 219.128L78.7877 217.261L77.8727 215.578L76.8579 214.687L75.0113 214.316V211.961L73.8635 210.901C73.8635 210.901 72.1999 210.497 72.0169 210.447C71.8339 210.396 68.7895 209.74 68.7895 209.74C68.5997 209.516 68.3816 209.318 68.1407 209.151C67.8882 209.155 67.6369 209.189 67.3921 209.252L66.3108 209.05Z" fill="#1A739F"/>
<path d="M36.7146 60.9238L35.4004 62.6063C35.2002 62.9161 35.0382 63.2495 34.918 63.599C34.918 63.6831 35.8163 65.2815 35.8163 65.2815L36.149 66.964L36.7146 69.5382L37.3634 71.0356C37.3634 71.0356 37.8625 72.5667 37.9457 72.7181C38.515 73.022 39.1042 73.2862 39.7091 73.5089C40.5874 73.072 41.4425 72.5891 42.271 72.062L43.003 70.0934C43.003 70.0934 43.003 67.637 43.003 67.5529C42.9521 66.9258 42.9521 66.2955 43.003 65.6684L41.0233 64.8777L38.5113 62.6568L37.7294 62.5222L36.7146 60.9238Z" fill="#1A739F"/>
<path opacity="0.43" d="M59.6563 87.2372V89.6264L59.2737 91.9819C59.2737 91.9819 59.1406 93.2943 59.1739 93.3616L59.4899 94.573L59.6563 96.4405L61.1202 97.0967V97.938L60.8707 98.9306C60.8707 98.9306 59.0408 99.8055 59.0408 99.8728C59.0408 99.9401 57.477 101.37 57.477 101.37L56.4622 101.808L55.5972 103.154L55.3143 104.836C55.3143 104.836 55.0482 106.99 55.0482 107.276C55.0482 107.562 54.2164 108.487 54.2164 108.487L53.1517 109.598L52.9188 111.28C52.9188 111.28 51.8208 110.96 51.8208 110.843C51.8208 110.725 50.5232 108.622 50.5232 108.622L49.8245 108.168H47.7783L46.1979 109.429L45.7155 110.944L43.7026 111.835L43.3532 112.98L42.6212 113.821L40.9577 111.432C40.3296 111.338 39.696 111.287 39.0612 111.28C38.8181 111.504 38.5565 111.707 38.2793 111.886L36.7821 111.415L36.2331 110.018C36.2331 110.018 35.8338 108.992 35.551 108.992C34.9977 108.94 34.4408 108.94 33.8874 108.992C33.8874 109.076 33.4549 109.749 33.4549 109.749C33.4549 109.749 32.7396 109.295 32.7396 109.211C32.7396 109.127 33.5547 107.208 33.5547 107.208C33.5547 107.208 33.3717 106.62 33.0723 106.519C32.7097 106.402 32.3362 106.323 31.9577 106.283C31.7508 106.225 31.5501 106.146 31.3588 106.048L31.5418 104.752L32.0575 103.709L31.4919 102.969C31.4919 102.969 29.3292 101.286 29.3958 101.286C29.6702 100.858 29.9202 100.414 30.1444 99.9569L29.9281 98.1567L29.795 96.0536V94.9431L29.5289 93.2606L28.8302 92.1501C28.8302 92.1501 27.7821 91.2921 27.7821 90.8883V89.6096L26.9836 89.0207C26.6354 88.4471 26.3243 87.8514 26.052 87.2372C25.8692 86.7782 25.6523 86.3339 25.4032 85.908L24.5215 84.663L28.1481 82.358L28.7636 82.7281L29.5621 83.2497L31.1093 83.4853L31.7581 82.358C31.7581 82.358 33.2719 80.9447 33.3052 80.8101C33.3385 80.6755 36.2996 77.8152 36.2996 77.8152L37.5307 77.2432L38.7784 79.2453L40.9743 81.5167L40.6582 82.358L43.3033 83.7881L44.4512 86.11C44.4512 86.11 45.8652 84.8649 45.9983 84.8144L47.8948 83.8722L49.209 83.9732L50.49 84.949L51.3717 86.1436L52.2534 86.3287L53.8338 84.8986L54.1498 84.0573L54.4327 84.3097L55.9299 84.6294L56.6286 85.7566L58.0593 86.682L59.6563 87.2372Z" fill="#1A739F"/>
<path d="M45.9648 93.6812C47.2603 93.6812 48.3104 92.619 48.3104 91.3088C48.3104 89.9986 47.2603 88.9365 45.9648 88.9365C44.6693 88.9365 43.6191 89.9986 43.6191 91.3088C43.6191 92.619 44.6693 93.6812 45.9648 93.6812Z" fill="white" stroke="white" stroke-width="0.5" stroke-miterlimit="10"/>
<path d="M45.166 101.943C46.4614 101.943 47.5116 100.881 47.5116 99.5706C47.5116 98.2604 46.4614 97.1982 45.166 97.1982C43.8705 97.1982 42.8203 98.2604 42.8203 99.5706C42.8203 100.881 43.8705 101.943 45.166 101.943Z" fill="white" stroke="white" stroke-width="0.5" stroke-miterlimit="10"/>
<path d="M79.8851 125.481C82.5862 125.481 84.776 123.266 84.776 120.534C84.776 117.803 82.5862 115.588 79.8851 115.588C77.1839 115.588 74.9941 117.803 74.9941 120.534C74.9941 123.266 77.1839 125.481 79.8851 125.481Z" stroke="white" stroke-width="2" stroke-miterlimit="10"/>
<path d="M142.152 164.734C143.448 164.734 144.498 163.672 144.498 162.362C144.498 161.051 143.448 159.989 142.152 159.989C140.857 159.989 139.807 161.051 139.807 162.362C139.807 163.672 140.857 164.734 142.152 164.734Z" fill="white" stroke="white" stroke-width="0.5" stroke-miterlimit="10"/>
<path d="M170.816 182.619C172.112 182.619 173.162 181.557 173.162 180.246C173.162 178.936 172.112 177.874 170.816 177.874C169.521 177.874 168.471 178.936 168.471 180.246C168.471 181.557 169.521 182.619 170.816 182.619Z" fill="white" stroke="white" stroke-width="0.5" stroke-miterlimit="10"/>
<path d="M228.492 231.748C229.788 231.748 230.838 230.685 230.838 229.375C230.838 228.065 229.788 227.003 228.492 227.003C227.197 227.003 226.146 228.065 226.146 229.375C226.146 230.685 227.197 231.748 228.492 231.748Z" fill="white" stroke="white" stroke-width="0.5" stroke-miterlimit="10"/>
<path d="M177.721 296.557C179.016 296.557 180.066 295.495 180.066 294.185C180.066 292.875 179.016 291.812 177.721 291.812C176.425 291.812 175.375 292.875 175.375 294.185C175.375 295.495 176.425 296.557 177.721 296.557Z" fill="white" stroke="white" stroke-width="0.5" stroke-miterlimit="10"/>
<path d="M97.5019 140.253C98.7974 140.253 99.8475 139.191 99.8475 137.881C99.8475 136.571 98.7974 135.509 97.5019 135.509C96.2064 135.509 95.1562 136.571 95.1562 137.881C95.1562 139.191 96.2064 140.253 97.5019 140.253Z" fill="white" stroke="white" stroke-width="0.5" stroke-miterlimit="10"/>
<path d="M75.1777 172.81C76.4731 172.81 77.5233 171.748 77.5233 170.438C77.5233 169.128 76.4731 168.065 75.1777 168.065C73.8822 168.065 72.832 169.128 72.832 170.438C72.832 171.748 73.8822 172.81 75.1777 172.81Z" fill="white" stroke="white" stroke-width="0.5" stroke-miterlimit="10"/>
<path d="M9.96491 147.522L11.8947 148.111L12.1109 149.39C12.1109 149.39 12.7764 151.274 12.7764 151.442C12.7764 151.61 12.4769 152.788 12.4769 153.125C12.4769 153.461 12.4769 154.807 12.4769 154.807L13.1756 155.531C13.1756 155.531 12.5268 156.54 12.4769 156.675C12.2958 157.107 12.162 157.559 12.0777 158.021C12.0777 158.324 12.61 160.561 12.61 160.561L13.8411 161.049L14.9889 162.378L14.6728 162.883L13.8411 163.489L13.2754 164.027H11.8947L11.3124 163.321C10.8396 163.08 10.3981 162.78 9.99818 162.429C9.90602 161.658 9.90602 160.878 9.99818 160.107L8.3346 158.997L7.18673 158.29L4.32538 158.913H2.52871L1.68028 158.038L1.16457 156.641L0.44923 155.716L-0.0332031 154.336L0.898398 152.957L3.94275 152.418L3.14423 150.736L2.96124 149.053L4.02593 148.515C4.02593 148.515 4.02593 147.758 4.02593 147.724L3.14423 147.404L2.4788 146.698L2.77825 145.789L3.89284 146.159L4.9908 146.513L6.65438 147.186L6.78747 148.027L8.45105 148.7L9.33275 148.262L9.96491 147.522Z" fill="#1A739F"/>
<path d="M178.419 82.9141L179.517 83.7553L180.099 84.6134V85.6397L180.398 86.481V87.5578L179.417 87.9447L177.72 87.7765L176.605 87.9447L174.942 87.5578V86.9184L174.326 85.4378L176.838 84.1591L177.886 83.2674L178.419 82.9141Z" fill="#1A739F"/>
<path d="M196.919 73.5083H195.954L194.939 74.2318L194.107 76.0993L194.723 77.6136L195.505 79.0437L196.57 79.885L196.353 80.9954L195.505 82.6443H195.072L194.673 83.5023L194.54 84.1585L195.505 84.9661L195.954 85.6391L195.505 86.8L195.738 87.6413H196.52L197.584 88.1797L197.801 88.9705H198.948L199.514 90.4006L200.579 90.8885H201.327V89.9631L201.544 87.9441V85.8578V82.9135L202.425 82.2068V80.2383L203.174 79.397L204.155 79.0774L204.804 78.0679L205.154 77.2603L206.301 76.6714L207.899 75.7965L209.03 74.9048L209.828 73.6934L209.213 72.3137L207.849 71.5566L207.05 70.5303L205.769 69.7227L204.771 69.9919L203.224 71.6912L201.594 72.7512L200.529 73.7775L199.614 74.1813L198.765 74.6356L197.451 73.6934L196.919 73.5083Z" fill="#1A739F"/>
<path d="M210.06 66.9633L208.679 67.2325L207.98 67.7709L208.679 68.3093V69.201L208.014 69.7394V70.7153L208.712 71.1191L209.461 71.6407L209.86 72.4988L210.476 73.3905V73.9457L211.141 74.1644L212.239 73.3568L213.47 73.0035C213.74 72.6105 214.053 72.2493 214.402 71.9267C214.585 71.9267 216.431 70.5807 216.431 70.5807H216.914L217.396 71.3041L218.361 71.1359C218.615 70.6511 218.91 70.1895 219.243 69.7563C219.376 69.7563 221.539 69.302 221.539 69.302L222.237 69.4871L223.485 69.1338L224.317 68.4944L225.814 68.0569L227.478 67.4344L228.06 67.8719L229.025 67.7373L230.123 67.3503L231.404 66.9801H232.768L233.783 67.9224L235.097 68.4102L236.76 67.8719L237.459 67.6027C237.459 67.6027 237.892 68.1074 238.025 68.141C238.381 68.1436 238.738 68.1155 239.089 68.0569L239.888 67.7373L240.67 67.3503L242.333 67.4344L243.215 67.5185C243.541 67.3207 243.829 67.0641 244.064 66.7614L244.762 65.651L245.727 64.8097C245.753 64.5411 245.753 64.2707 245.727 64.0021C244.939 63.5616 244.116 63.1901 243.265 62.8916L242.916 62.4879H241.152L240.271 63.3796L236.561 63.817L236.211 62.8412L233.616 62.7066C233.616 62.7066 233.134 63.0599 233.084 62.8412C232.793 62.3006 232.471 61.7781 232.119 61.2765H230.356L230.139 61.7812L227.927 61.9494L227.528 61.2765L225.864 60.7549H224.417L222.969 61.512L220.674 62.4374C220.39 62.4208 220.106 62.4667 219.842 62.572C219.453 62.6867 219.046 62.721 218.644 62.6729L218.478 62.0336H217.596L216.797 62.471C216.797 62.471 216.581 63.0935 216.797 63.144C217.014 63.1945 217.197 63.7666 217.197 63.7666C217.197 63.7666 216.481 64.5237 216.398 64.6583C215.962 64.8817 215.505 65.062 215.034 65.1967L214.102 65.9538L212.605 66.4922L211.291 66.7614L210.06 66.9633Z" fill="#1A739F"/>
<path d="M303.903 58.4668L304.885 59.1062L305.633 59.9811H306.731L307.48 61.1756L307.713 62.1347L308.861 62.7572C309.018 62.9836 309.152 63.2261 309.26 63.4807C309.091 63.8827 308.902 64.2758 308.694 64.6584C308.694 64.6584 308.045 65.5838 307.979 65.6174L306.731 66.24L304.752 66.5428H303.67C303.488 66.6828 303.326 66.847 303.188 67.0308C303.03 67.2655 302.857 67.4903 302.672 67.7038C302.672 67.7038 301.973 68.259 301.857 68.3094C301.74 68.3599 300.443 68.646 300.443 68.646C299.877 68.4702 299.322 68.2624 298.779 68.0234C298.779 68.0234 299.594 67.0981 299.594 66.9635C299.594 66.8289 299.678 66.24 299.728 65.8362C299.78 65.429 299.852 65.0247 299.944 64.6248L300.842 63.8003C300.842 63.8003 301.824 62.6058 301.824 62.5385C301.824 62.4712 301.707 61.0074 301.707 60.856C301.79 60.4078 301.978 59.9864 302.256 59.6277C302.439 59.6277 303.188 58.8874 303.271 58.8874C303.497 58.772 303.709 58.6309 303.903 58.4668Z" fill="#1A739F"/>
<path d="M298.462 53.9578L299.61 54.8495L300.092 56.0104V57.3059L299.61 58.4668L298.845 58.9548L298.462 59.4427L299.277 59.7456L299.876 60.2503L299.743 61.1757L298.462 62.1515V63.0432H296.449C296.449 63.0432 295.035 63.2283 294.985 63.0432C294.935 62.8582 294.586 61.8992 294.586 61.8992L293.538 61.3607L291.774 61.2262L291.458 59.5437L291.026 57.8612L290.344 56.818L290.926 55.7076L292.107 55.2365C292.107 55.2365 292.29 54.412 292.29 54.3111C292.29 54.2101 292.29 53.5203 292.456 53.453C292.623 53.3857 294.786 53.2511 294.786 53.2511L295.784 52.9482C296.237 53.2049 296.666 53.5034 297.065 53.84V54.5466L298.462 53.9578Z" fill="#1A739F"/>
<path d="M293.938 51.771L292.874 52.3094L292.441 52.5785L292.175 53.1506L291.593 53.5544H290.545L289.347 52.6627L289.53 51.771L288.914 51.283C288.914 51.283 288.299 50.7109 288.299 50.5763C288.574 50.0377 288.88 49.5153 289.214 49.0116C289.214 49.0116 289.397 48.1704 289.48 47.8171C289.563 47.4637 289.929 46.3365 289.929 46.3365L292.791 45.7644L293.938 45.0577L294.321 44.166L295.219 44.6876V45.7644L295.436 46.9253L296.184 47.1945L296.75 48.1199V49.2808L296.4 49.9875L296.084 50.7446C296.084 50.7446 296.084 51.384 295.918 51.4681C295.752 51.5522 294.72 51.956 294.72 51.956L293.938 51.771Z" fill="#1A739F"/>
<path d="M288.814 53.2509L289.612 53.8734L290.344 54.7147L289.579 55.4718H288.814L287.583 55.0343L287.234 53.5537C287.234 53.5537 286.967 52.9985 287.234 52.9648C287.767 53.0198 288.295 53.1155 288.814 53.2509Z" fill="#1A739F"/>
<path d="M469.379 186.674L468.614 187.027L468.198 187.868L467.383 188.154V189.181L469.046 189.467L469.795 190.19L470.444 191.065L470.86 192.26L470.976 193.101V193.404H469.795L469.629 194.413L469.512 195.187L470.277 196.197L471.558 197.139L472.274 197.728V200.285C472.693 200.627 473.082 201.004 473.438 201.413C473.621 201.715 473.971 202.489 474.154 202.725C474.337 202.96 474.386 203.684 474.553 203.919C474.719 204.155 475.568 204.929 475.568 204.929H476.15V205.753L476.499 206.342H477.697C477.88 206.342 479.277 206.712 479.277 206.712L480.409 207.184L480.874 208.378L481.224 209.741L481.69 210.986L483.686 213.19L485.915 215.916L488.045 219.129L488.743 221.973L489.858 223.049L491.521 224.345L493.185 225.472L494.366 228.686L496.179 230.772L497.294 231.95L498.059 233.801C497.975 234.432 497.975 235.071 498.059 235.702C498.242 235.937 499.007 237.384 499.007 237.384L501.054 238.579L502.168 239.521L502.701 238.629L501.586 236.139L500.937 233.818V232.808H502.052C502.652 232.605 503.241 232.369 503.815 232.101C504.048 231.916 505.229 232.27 505.229 232.27V232.993L506.044 233.935L506.577 234.053C506.669 233.265 506.669 232.469 506.577 231.681C506.41 231.512 505.046 230.503 504.913 230.082C504.581 229.484 504.191 228.92 503.749 228.4L503.449 229.527L502.917 230.183C502.917 230.183 501.869 229.948 501.569 229.477L500.754 228.164L499.091 227.39L497.277 226.919L496.163 226.095L495.514 225.085L494.932 223.403L494.566 222.679C494.566 222.679 494.05 222.562 493.934 222.326C493.831 221.72 493.786 221.106 493.8 220.492C493.8 220.492 493.684 219.062 493.634 218.81C493.584 218.557 493.451 217.851 493.285 217.8C493.02 217.66 492.764 217.503 492.52 217.329V216.252L493.351 214.704L494.399 214.3L496.695 214.587H498.359L499.839 215.31C499.839 215.31 500.471 214.772 500.471 214.587C500.456 214.074 500.378 213.565 500.239 213.072C499.896 212.943 499.546 212.837 499.191 212.753L497.311 213.072L495.78 211.272L493.484 210.431L492.436 208.883L489.442 207.705L486.98 205.181L485.649 203.162L484.767 202.759H483.653L483.42 201.749L482.122 201.093L480.126 200.268L479.893 199.192L478.229 198.014V197.055L479.045 196.516C479.045 196.516 478.579 195.625 478.529 195.456C478.479 195.288 477.697 194.026 477.697 194.026H476.582L475.119 193.858L474.703 193.135L475.235 192.428C475.285 192.235 475.285 192.032 475.235 191.839C474.833 191.62 474.401 191.461 473.954 191.368C473.954 191.368 472.839 191.065 472.59 190.712C472.313 190.345 472.001 190.007 471.658 189.702C471.475 189.517 470.893 189.164 470.843 188.979C470.793 188.794 470.843 187.852 470.71 187.683C470.577 187.515 470.128 186.842 469.961 186.842L469.379 186.674Z" fill="#1A739F"/>
<path d="M451.462 11.0039C450.526 11.2898 449.613 11.6499 448.733 12.0807H447.752C447.412 12.5839 447.101 13.1064 446.82 13.6454C446.887 14.1028 446.887 14.5677 446.82 15.0251C446.824 15.7077 446.942 16.3847 447.17 17.0273C447.253 17.1955 448.184 18.2723 448.234 18.4574C448.284 18.6424 448.634 19.837 448.634 19.837L448.85 20.9475L449.998 21.4859H451.079C451.268 20.215 451.384 18.9342 451.428 17.6498C451.345 17.1619 450.547 16.0851 450.863 15.9673C451.361 15.6684 451.819 15.3065 452.227 14.8905L451.528 12.2658L451.462 11.0039Z" fill="#1A739F"/>
<path d="M382.69 71.9101L381.459 74.0133V76.15L381.692 77.2605L382.956 77.0754L383.489 76.6716L385.119 76.9408L386.084 76.15L386.35 75.2583L387.814 74.905L388.429 74.232L387.498 72.9365L385.252 71.6914H384.37L382.69 71.9101Z" fill="#1A739F"/>
<path d="M380.094 71.3379L380.443 72.2633V73.4242L379.878 74.0131L378.78 73.4747L378.514 72.3137L379.079 71.3379H380.094Z" fill="#1A739F"/>
<path d="M383.405 56.6325L382.523 56.9859L383.405 58.8198H385.302L387.414 58.3319L388.695 58.8198C389.045 58.6401 389.37 58.4137 389.66 58.1468C389.743 57.9617 390.974 56.6325 390.974 56.6325C390.974 56.6325 391.241 55.4716 391.29 55.337C391.34 55.2024 391.29 53.4189 391.29 53.4189L388.778 54.092L388.03 55.2529L387.098 55.438L386.05 54.8491L384.636 54.9837L384.021 56.1278L383.405 56.6325Z" fill="#1A739F"/>
<path d="M380.678 57.7432L381.46 60.4183V62.2018V63.2281H379.48L377.284 63.043L376.918 61.2596L376.303 59.7958V58.8031L377.584 58.0628L378.881 58.0124L380.445 57.7432H380.678Z" fill="#1A739F"/>
<path d="M374.638 59.4425L373.407 58.82L372.476 58.5508V59.8463C372.476 59.8463 372.476 61.0914 372.692 61.1418C372.908 61.1923 374.106 61.798 374.106 61.798L374.023 62.5551L371.943 62.7402L371.028 61.4952H369.88L368.816 60.9567L368.25 62.0167L367.285 63.9348L366.803 65.0116L367.585 65.55V66.2566L367.418 66.8791L368.034 67.283V68.1242V69.5543L369.348 70.0422L371.294 70.5302L372.492 71.3378L374.156 70.7657L375.437 70.4461L374.938 68.6626V67.6867L376.135 68.2252L376.618 67.0138L377.899 65.9033L378.947 66.3071L380.278 65.1798L380.627 64.3386L378.331 64.0694L376.784 63.9011L375.387 62.7738V62.3869L375.553 61.9831C375.553 61.9831 375.387 61.1418 375.553 61.0072C375.72 60.8726 375.553 60.2838 375.553 60.2838L374.638 59.4425Z" fill="#1A739F"/>
<path d="M365.789 67.6193L366.138 68.8475L366.404 69.6047L366.005 70.1094C365.615 70.0065 365.237 69.8657 364.874 69.6888C364.874 69.6046 364.658 68.7298 364.658 68.6456C364.658 68.5615 364.441 67.838 364.441 67.6193C364.48 67.3852 364.552 67.1583 364.658 66.9463H365.257L365.789 67.6193Z" fill="#1A739F"/>
<path d="M446.887 44.5527L447.236 45.4445C447.51 45.5949 447.767 45.7755 448.002 45.9829C447.766 46.3612 447.511 46.7263 447.236 47.0765L445.656 47.5812H443.992C443.992 47.5812 443.71 46.1006 443.743 46.067C444.141 45.821 444.552 45.5963 444.974 45.394C445.279 45.2117 445.569 45.0035 445.839 44.7715L446.405 44.5527H446.887Z" fill="#1A739F"/>
<path d="M527.189 234.541L526.357 235.853V239.824L525.01 240.783C525.01 240.783 525.01 237.755 525.01 237.654C525.01 237.553 525.309 235.079 525.309 234.894V233.885H526.707L527.189 234.541Z" fill="#1A739F"/>
<path d="M528.703 231.866L529.701 230.318V227.172L529.202 225.926L530.417 224.143L530.65 222.713L531.415 221.535L532.114 219.398L531.581 218.742L530.999 220.172L529.951 221.703L528.703 222.309L527.888 222.847V224.53L527.189 226.313V226.801L528.005 227.744C527.941 228.353 527.941 228.968 528.005 229.577C528.163 230.265 528.279 230.962 528.354 231.664L528.703 231.866Z" fill="#1A739F"/>
<path d="M533.643 210.245L532.994 212.786L532.578 215.108L533.643 215.343V213.442L534.175 210.784L533.643 210.245Z" fill="#1A739F"/>
<path d="M535.689 198.451L535.207 201.261L535.457 202.321L536.671 201.564V199.292L535.689 198.451Z" fill="#1A739F"/>
<path d="M535.207 196.096L534.99 197.072H535.606V196.264L535.207 196.096Z" fill="#1A739F"/>
<path d="M534.691 192.478C534.691 192.478 534.991 193.454 534.991 193.504C535.306 193.529 535.624 193.529 535.939 193.504L535.307 192.31L534.691 192.478Z" fill="#1A739F"/>
<path d="M534.375 190.123L534.176 190.964H534.691C534.775 190.964 534.991 190.746 534.991 190.746L534.375 190.123Z" fill="#1A739F"/>
<path d="M533.759 182.552L531.996 182.989L533.144 183.528V184.638C533.353 184.603 533.549 184.51 533.71 184.369C534.026 184.15 533.759 182.552 533.759 182.552Z" fill="#1A739F"/>
<path d="M531.78 177.15L531.514 177.958L532.662 179.64C532.728 179.159 532.823 178.681 532.944 178.21C532.944 178.092 532.229 177.335 532.229 177.335L531.78 177.15Z" fill="#1A739F"/>
<path d="M531.515 168.956C531.555 169.516 531.555 170.079 531.515 170.639C531.432 170.874 531.199 172.692 531.199 172.692C531.199 172.692 529.752 173.583 529.752 173.398V171.716C529.977 171.205 530.139 170.668 530.234 170.117C530.176 169.669 530.011 169.241 529.752 168.872C529.618 168.687 528.654 167.846 528.654 167.442C528.654 167.038 528.304 166.517 528.87 166.517H530.683L530.999 165.625C530.999 165.625 531.498 165.894 531.548 166.062C531.403 166.597 531.219 167.12 530.999 167.627C530.999 167.762 531.598 168.3 531.515 168.435C531.432 168.569 531.515 168.956 531.515 168.956Z" fill="#1A739F"/>
<path d="M250.469 23.9424L249.338 24.363V25.9614L249.904 26.668L250.818 26.1969V24.7163L250.469 23.9424Z" fill="#1A739F"/>
<path d="M252.349 28.7539L251.518 29.6456L252.349 30.2345L252.749 29.4942L252.349 28.7539Z" fill="#1A739F"/>
<path d="M252.747 34.2217H251.167L250.817 34.8105L250.352 35.3489L250.817 35.82H252.747C252.747 35.82 253.512 36.2406 253.579 35.82C253.645 35.3994 253.878 34.2217 253.878 34.2217H252.747Z" fill="#1A739F"/>
<path d="M248.756 32.7413L249.355 34.2219L248.756 35.1137L247.409 35.5848H246.361L245.795 33.7508L247.109 32.7413C247.109 32.7413 247.442 31.8496 247.575 31.8496H247.991L248.756 32.7413Z" fill="#1A739F"/>
<path d="M248.24 26.1968H246.06V28.0475L244.796 28.5186C244.796 28.5186 244.613 26.1463 244.796 26.1968C244.979 26.2472 245.395 25.1873 245.761 25.305C246.158 25.3675 246.562 25.3675 246.959 25.305L248.24 26.1968Z" fill="#1A739F"/>
<path d="M236.478 22.6465L235.064 23.942C234.705 23.6734 234.314 23.4529 233.899 23.2858C233.156 23.5387 232.428 23.8365 231.72 24.1776L231.188 25.3048L231.537 26.0283L233.3 25.675C233.3 25.675 233.716 25.3048 233.833 25.3048C233.949 25.3048 234.648 25.0693 234.781 25.3048C234.914 25.5404 235.18 26.0283 235.18 26.0283H236.478L237.293 25.7254L238.008 24.8337V23.3531L236.478 22.6465Z" fill="#1A739F"/>
<path d="M234.015 20.7452C233.782 20.7452 232.967 20.9808 232.784 20.7452C232.404 20.4082 231.991 20.1096 231.553 19.8535C231.553 19.8535 231.32 20.5938 231.254 20.8462C231.187 21.0986 231.72 21.9903 232.019 21.9903H234.015L235.196 22.3436L235.479 21.923L234.015 20.7452Z" fill="#1A739F"/>
<path d="M238.141 29.8308C238.141 29.8308 237.076 28.8213 236.96 29.1746C236.843 29.528 236.494 30.2346 236.494 30.2346C236.494 30.2346 237.259 30.7225 237.309 30.773C237.78 30.8068 238.253 30.8068 238.723 30.773V29.9486L238.141 29.8308Z" fill="#1A739F"/>
<path d="M243.947 28.518C243.947 28.518 243.364 27.458 243.181 27.458C242.998 27.458 242.416 27.6936 242.416 27.9796C242.609 28.5142 242.866 29.0228 243.181 29.4938L243.647 30.537C243.647 30.537 243.647 30.7221 243.947 30.537C244.246 30.3519 244.412 29.09 244.412 29.09L243.947 28.518Z" fill="#1A739F"/>
<path d="M234.715 90.4511L235.863 90.8885H236.744L237.543 91.3428L238.508 90.4511C238.508 90.4511 238.242 89.206 238.508 88.9368C238.774 88.6676 237.011 87.9609 237.011 87.9609C237.011 87.9609 236.312 89.9126 235.696 89.6434C235.081 89.3742 234.715 90.4511 234.715 90.4511Z" fill="#1A739F"/>
<path d="M202.475 93.3955L203.44 96.9624V99.7217L201.411 100.344L200.795 100.967V97.1811C200.795 97.1811 199.83 95.179 200.279 94.9939C201.045 94.5107 201.779 93.9768 202.475 93.3955Z" fill="#1A739F"/>
<path d="M244.797 31.8838H242.883L241.469 32.3044L241.17 33.3139L244.797 34.7945C244.797 34.7945 244.996 33.7177 245.046 33.3307C245.03 32.839 244.946 32.3519 244.797 31.8838Z" fill="#1A739F"/>
<path d="M503.883 100.782L505.563 101.674L504.731 103.642V106.133L503.883 104.787V102.212V100.782Z" fill="#1A739F"/>
<path d="M450.397 194.379C450.397 194.379 450.198 195.658 450.198 195.725C450.198 195.792 450.564 197.559 450.564 197.609C450.564 197.66 449.782 198.131 449.782 198.131C449.782 198.131 448.867 197.744 448.85 197.508C448.805 197.105 448.71 196.71 448.567 196.331L447.336 196.448C447.027 196.56 446.731 196.707 446.455 196.886C446.455 196.886 445.839 197.626 445.806 197.66C445.622 197.723 445.433 197.768 445.24 197.794C445.24 197.794 445.523 196.347 445.59 196.247C445.656 196.146 447.253 195.473 447.253 195.405C447.253 195.338 447.603 194.379 447.636 194.312C447.774 194.149 447.944 194.018 448.135 193.925C448.445 193.941 448.756 193.941 449.066 193.925C449.283 193.787 449.511 193.669 449.749 193.571H450.896L450.397 194.379Z" fill="#1A739F"/>
<path d="M534.458 110.809H532.312L531.247 110.624L530.582 111.516L531.863 111.886L533.576 112.323L534.907 111.92L534.458 110.809Z" fill="#1A739F"/>
<path d="M538.117 108.319L537.053 108.757L538.117 108.942L538.999 108.622L538.117 108.319Z" fill="#1A739F"/>
</g>
<defs>
<clipPath id="clip0_216_4">
<rect width="539" height="317" fill="white"/>
</clipPath>
</defs>
</svg>
