<svg width="25" height="24" viewBox="0 0 25 24" fill="none" xmlns="http://www.w3.org/2000/svg">
<path d="M19.455 0H5.54502C4.07439 0 2.66399 0.560838 1.6241 1.55914C0.584206 2.55743 0 3.91141 0 5.32322V18.6768C0 20.0886 0.584206 21.4426 1.6241 22.4409C2.66399 23.4392 4.07439 24 5.54502 24H19.455C20.9256 24 22.336 23.4392 23.3759 22.4409C24.4158 21.4426 25 20.0886 25 18.6768V5.32322C25 3.91141 24.4158 2.55743 23.3759 1.55914C22.336 0.560838 20.9256 0 19.455 0ZM21.5517 17.6185C21.3092 18.3064 20.6257 18.7149 19.6777 18.717C17.4729 18.717 15.2681 18.717 13.0633 18.717H12.5077C10.106 18.717 7.70424 18.717 5.3025 18.717C4.38531 18.717 3.74592 18.3339 3.47914 17.6587C3.31819 17.2481 3.36449 17.0957 3.74813 16.8629C5.85296 15.5929 7.95852 14.323 10.0648 13.053C10.1978 12.9596 10.3574 12.9074 10.5222 12.9036C10.6869 12.8999 10.8489 12.9446 10.9864 13.0318C11.3634 13.2435 11.7405 13.47 12.1042 13.7091C12.2136 13.7955 12.3507 13.8427 12.4923 13.8427C12.6338 13.8427 12.771 13.7955 12.8803 13.7091C13.2772 13.453 13.6895 13.2223 14.0863 12.9662C14.1877 12.8891 14.3124 12.8457 14.4417 12.8426C14.5709 12.8396 14.6977 12.877 14.8029 12.9493L21.3026 16.8967C21.4321 16.9639 21.53 17.076 21.5763 17.2102C21.6226 17.3443 21.6138 17.4904 21.5517 17.6185ZM3.42402 15.5929V8.40921L9.30197 12.0074L3.42402 15.5929ZM15.6958 11.9947L21.5804 8.39651V15.5908L15.6958 11.9947ZM21.146 7.20699C18.8075 8.63639 16.4668 10.0594 14.1238 11.4761C13.7402 11.709 13.3521 11.9376 12.9817 12.1852C12.8479 12.2895 12.6813 12.3475 12.5089 12.3498C12.3365 12.3521 12.1683 12.2986 12.0315 12.1979C9.26228 10.5032 6.48867 8.81418 3.71064 7.13079C3.64429 7.10087 3.58478 7.05859 3.53559 7.00641C3.4864 6.95422 3.44849 6.89318 3.42408 6.82681C3.39967 6.76045 3.38924 6.69009 3.39339 6.61983C3.39755 6.54956 3.4162 6.48078 3.44828 6.4175C3.69962 5.71902 4.25963 5.31899 5.14375 5.29994C6.46662 5.27454 7.78949 5.28512 9.11236 5.28089H12.5011H19.6358C20.3788 5.28089 21.0182 5.47985 21.4194 6.12752C21.7325 6.63974 21.6686 6.90008 21.146 7.21757V7.20699Z" fill="#8E8E8E"/>
</svg>
