<svg width="25" height="24" viewBox="0 0 25 24" fill="none" xmlns="http://www.w3.org/2000/svg">
<path d="M19.4567 0H5.54331C4.07293 0.000561209 2.66297 0.561643 1.62346 1.55988C0.583956 2.55812 -1.16231e-07 3.91178 0 5.32322V18.6768C-1.16231e-07 20.0882 0.583956 21.4419 1.62346 22.4401C2.66297 23.4384 4.07293 23.9994 5.54331 24H19.4567C20.9271 23.9994 22.337 23.4384 23.3765 22.4401C24.4161 21.4419 25 20.0882 25 18.6768V5.32322C25 3.91178 24.4161 2.55812 23.3765 1.55988C22.337 0.561643 20.9271 0.000561209 19.4567 0ZM18.449 19.1276C17.4105 20.0568 16.1603 20.1859 14.8637 19.8176C13.0887 19.3245 11.6753 18.2704 10.4538 16.9729C8.17163 14.5219 6.57083 11.7598 6.20039 8.40497C6.00194 6.63339 6.70974 5.2957 8.10328 4.23529C8.83313 3.67863 9.47037 3.82467 9.93341 4.60146C10.0937 4.86627 10.2316 5.14303 10.3457 5.42905C11.1792 7.57315 11.3755 7.48426 9.34248 8.60393C8.72509 8.94682 8.44726 9.43363 8.69422 10.0623C9.75702 12.7757 11.2939 15.1781 13.7855 16.9602C13.9443 16.8713 14.006 16.8438 14.0523 16.8078C16.4271 15.1865 16.7247 15.2479 18.5857 17.373C19.1965 18.0863 19.0311 18.6091 18.449 19.1276Z" fill="#8E8E8E"/>
</svg>
