<svg width="25" height="25" viewBox="0 0 25 25" fill="none" xmlns="http://www.w3.org/2000/svg">
<path d="M19.1707 0H5.53032C4.81625 0 4.10917 0.140173 3.44946 0.412517C2.78975 0.68486 2.19032 1.08404 1.68539 1.58727C1.18047 2.09049 0.779944 2.68791 0.506682 3.3454C0.23342 4.0029 0.0927734 4.7076 0.0927734 5.41927V19.0202C0.0927734 20.4575 0.665656 21.8359 1.68539 22.8522C2.70513 23.8685 4.08819 24.4395 5.53032 24.4395H19.1707C20.6128 24.4395 21.9958 23.8685 23.0156 22.8522C24.0353 21.8359 24.6082 20.4575 24.6082 19.0202V5.42573C24.6091 4.71352 24.469 4.00812 24.1962 3.34988C23.9233 2.69164 23.5229 2.09346 23.0179 1.58955C22.5129 1.08564 21.9132 0.685882 21.253 0.413135C20.5929 0.140387 19.8853 -5.06693e-07 19.1707 0ZM17.9188 10.0628C17.8646 10.5194 17.761 10.9688 17.6097 11.4031C17.282 12.4038 16.8615 13.3719 16.3535 14.2948C16.0076 14.9412 15.6465 15.5726 15.2574 16.1888C14.7493 16.9947 14.2196 17.7877 13.6791 18.572C13.2856 19.1387 12.8597 19.6817 12.4489 20.2355C12.4269 20.2655 12.4074 20.2972 12.3905 20.3303H12.3537C12.2629 20.2053 12.1721 20.0782 12.077 19.9532C11.3693 19.0252 10.6954 18.0721 10.0555 17.0938C9.49118 16.2319 8.95716 15.3571 8.4707 14.4521C7.95454 13.5172 7.52051 12.5396 7.17347 11.5302C7.01474 11.086 6.90173 10.6268 6.83619 10.1598C6.78214 9.70599 6.78214 9.24743 6.83619 8.79364C6.89934 8.25393 7.04517 7.72707 7.2686 7.23143C7.75469 6.12755 8.58997 5.2126 9.64685 4.62631C10.2713 4.2717 10.961 4.04599 11.6748 3.96263C12.7144 3.82833 13.7708 3.99358 14.719 4.43884C15.8377 4.95647 16.7508 5.83164 17.3135 6.92545C17.5958 7.46468 17.7851 8.04743 17.8734 8.64927C17.947 9.11678 17.9623 9.59157 17.9188 10.0628Z" fill="#8E8E8E"/>
</svg>
