<svg width="41" height="31" viewBox="0 0 41 31" fill="none" xmlns="http://www.w3.org/2000/svg">
<rect width="41" height="31" rx="8" fill="#EDEDED"/>
<g clip-path="url(#clip0_911_2315)">
<path d="M29.0144 9.29117C28.8486 9.26168 28.6806 9.2467 28.5123 9.24638C26.1525 9.24638 23.7927 9.24638 21.4329 9.24638C18.962 9.24638 16.4898 9.24638 14.0163 9.24638C13.8439 9.24638 13.784 9.1899 13.7746 9.01658C13.758 8.83528 13.7311 8.65516 13.694 8.47715C13.6003 7.9494 13.5347 7.41386 13.3998 6.89779C13.3384 6.63201 13.1893 6.39702 12.9784 6.23371C12.7675 6.07039 12.5082 5.98908 12.2456 6.00392C11.6628 6.00392 11.0819 6.00392 10.501 6.00392C10.2499 6.00392 9.99696 6.00392 9.75148 6.00392C9.26054 6.02729 9.00195 6.31162 9.00195 6.81405C9.00195 7.03995 9.00195 7.26585 9.00195 7.49175C9.00389 7.76592 9.10917 8.02839 9.29519 8.22281C9.48122 8.41723 9.73316 8.52812 9.99696 8.53168C10.4654 8.53168 10.9339 8.53168 11.4042 8.53168C11.5522 8.53168 11.6216 8.56283 11.6534 8.72642C12.2193 11.8618 12.7921 14.9958 13.3717 18.1286C13.4756 18.7792 13.6279 19.4205 13.8271 20.0468C14.1606 21.001 14.6834 21.2444 15.5135 21.2366C18.0563 21.2152 20.5991 21.2366 23.14 21.2366H26.5429C27.0207 21.2366 27.2718 21.0614 27.3898 20.6154C27.5772 19.9202 27.4386 19.2386 26.4136 19.2405C23.0032 19.2405 19.5928 19.2405 16.1825 19.2405C15.9951 19.2405 15.7571 19.2931 15.6372 19.1957C15.5173 19.0984 15.5472 18.8491 15.5191 18.6641C15.4479 18.1928 15.3823 17.7196 15.3111 17.2347C15.388 17.2347 15.4423 17.2211 15.4985 17.2211H20.6253C22.6128 17.2211 24.6016 17.2211 26.5916 17.2211C26.888 17.2386 27.1826 17.1629 27.437 17.0038C27.6914 16.8447 27.8937 16.6096 28.0176 16.3291C28.1551 16.0269 28.2759 15.7168 28.3792 15.4002C28.8926 13.8955 29.4011 12.3876 29.9045 10.8764C30.1837 10.0409 29.8389 9.43528 29.0144 9.29117ZM27.3486 12.1636C27.002 13.1159 26.6515 14.0643 26.3124 15.0185C26.2983 15.0876 26.2595 15.1486 26.2039 15.1891C26.1482 15.2296 26.0798 15.2466 26.0126 15.2366C22.4211 15.2263 18.8283 15.2217 15.2343 15.223C15.1013 15.223 15.0038 15.223 14.9701 15.04C14.749 13.8033 14.5166 12.5706 14.288 11.3399C14.288 11.297 14.288 11.2542 14.2787 11.2074H27.6878C27.5641 11.556 27.4573 11.8618 27.3486 12.1636Z" fill="#585858"/>
<path d="M24.9145 21.9026C24.6534 21.893 24.3932 21.9378 24.1492 22.0345C23.9051 22.1311 23.6821 22.2777 23.4935 22.4654C23.3048 22.6531 23.1543 22.8782 23.0508 23.1274C22.9472 23.3766 22.8928 23.6449 22.8907 23.9163C22.8855 24.4663 23.0908 24.996 23.4613 25.3888C23.8319 25.7816 24.3374 26.0053 24.8667 26.0107C25.396 26.0162 25.9056 25.8028 26.2836 25.4177C26.6615 25.0326 26.8768 24.5072 26.882 23.9572C26.8835 23.6878 26.8337 23.4207 26.7354 23.1714C26.6372 22.922 26.4925 22.6954 26.3096 22.5044C26.1267 22.3135 25.9093 22.162 25.6699 22.0587C25.4304 21.9554 25.1737 21.9024 24.9145 21.9026Z" fill="#585858"/>
<path d="M15.9615 21.8559C15.7003 21.8489 15.4405 21.8963 15.1973 21.9953C14.9541 22.0943 14.7324 22.243 14.5453 22.4325C14.3583 22.622 14.2097 22.8485 14.1082 23.0986C14.0067 23.3488 13.9545 23.6175 13.9546 23.889C13.9546 24.4386 14.1646 24.9656 14.5385 25.3542C14.9124 25.7428 15.4196 25.9611 15.9483 25.9611C16.4771 25.9611 16.9842 25.7428 17.3581 25.3542C17.732 24.9656 17.9421 24.4386 17.9421 23.889C17.9421 23.6199 17.8907 23.3534 17.7909 23.1051C17.6911 22.8567 17.5448 22.6315 17.3605 22.4424C17.1763 22.2532 16.9577 22.104 16.7176 22.0033C16.4774 21.9027 16.2204 21.8526 15.9615 21.8559Z" fill="#585858"/>
</g>
<defs>
<clipPath id="clip0_911_2315">
<rect width="21" height="20" fill="white" transform="translate(9 6)"/>
</clipPath>
</defs>
</svg>
