<svg width="31" height="29" viewBox="0 0 31 29" fill="none" xmlns="http://www.w3.org/2000/svg">
<g clip-path="url(#clip0_911_2307)">
<path d="M-6.91758e-05 14.2711C0.125678 14.0344 0.298614 13.8261 0.508045 13.6591C0.748859 13.4181 0.989673 13.1555 1.23049 12.9073C1.51465 12.6182 1.7964 12.3218 2.08297 12.0327C2.13857 11.9778 2.20492 11.935 2.27787 11.907C2.35081 11.879 2.42877 11.8664 2.50681 11.87C2.58486 11.8736 2.66131 11.8934 2.73135 11.928C2.80139 11.9626 2.86351 12.0114 2.91378 12.0713C3.01596 12.192 3.07081 12.3458 3.06815 12.5041C3.06549 12.6623 3.00551 12.8141 2.89933 12.9314C2.65852 13.1941 2.41771 13.4615 2.17689 13.7314C2.14318 13.7675 2.08297 13.806 2.11187 13.8615C2.14077 13.9169 2.19615 13.8856 2.2395 13.8856C2.81264 13.8856 3.38337 13.8856 3.95651 13.8856C4.04997 13.8856 4.14215 13.9073 4.22575 13.9492C4.30934 13.991 4.38206 14.0517 4.43813 14.1265C4.51232 14.2044 4.56104 14.3031 4.57782 14.4094C4.59459 14.5157 4.57863 14.6246 4.53205 14.7216C4.41646 14.9626 4.26475 15.1602 3.983 15.1626H2.28285C2.22207 15.151 2.15922 15.1577 2.10224 15.1818C2.10224 15.2541 2.16966 15.2854 2.2106 15.3288C2.45142 15.5963 2.70427 15.8565 2.9499 16.1191C3.05639 16.226 3.11982 16.3684 3.1281 16.5191C3.15177 16.6422 3.12653 16.7698 3.05773 16.8746C2.98893 16.9794 2.88201 17.0533 2.75966 17.0805C2.62414 17.1386 2.47281 17.1485 2.33086 17.1087C2.1889 17.0688 2.06488 16.9814 1.97942 16.8612C1.75547 16.5865 1.49779 16.3384 1.25698 16.083C0.902984 15.7119 0.563433 15.3288 0.199803 14.9722C0.124499 14.8777 0.0560973 14.7778 -0.00488281 14.6734L-6.91758e-05 14.2711Z" fill="black"/>
<path d="M13.8273 -0.00476074C14.0423 0.10085 14.2265 0.260191 14.3619 0.457851C14.8749 1.01684 15.3806 1.57824 15.8911 2.14446C16.0092 2.25261 16.0866 2.39806 16.1102 2.55647C16.1263 2.6864 16.1033 2.81817 16.0441 2.93492C15.9849 3.05167 15.8922 3.14809 15.7779 3.21184C15.6673 3.26734 15.5414 3.28466 15.4199 3.26113C15.2984 3.2376 15.188 3.17452 15.1061 3.08173C14.8652 2.82874 14.6244 2.56611 14.3716 2.3083C14.3477 2.28236 14.3219 2.2582 14.2945 2.23602C14.2367 2.27939 14.2536 2.33962 14.2608 2.3854C14.3114 2.82151 14.2488 3.25521 14.2608 3.69132C14.2801 3.88842 14.2801 4.08694 14.2608 4.28404C14.2482 4.42415 14.186 4.55515 14.0854 4.65345C13.9848 4.75174 13.8525 4.81087 13.7122 4.82017C13.5719 4.82947 13.4329 4.78833 13.3202 4.70417C13.2076 4.62002 13.1286 4.49836 13.0977 4.36114C13.062 4.23101 13.0514 4.09528 13.0664 3.96118C13.0892 3.69341 13.0892 3.42418 13.0664 3.15642C13.0495 2.9576 13.0495 2.75771 13.0664 2.55888C13.0736 2.44977 13.0736 2.34031 13.0664 2.2312L13.011 2.19506C12.8328 2.39745 12.657 2.60225 12.4788 2.80223C12.38 2.91307 12.2837 3.0239 12.1778 3.12269C12.0578 3.2238 11.9046 3.27661 11.7479 3.27082C11.5912 3.26503 11.4422 3.20106 11.3301 3.09137C11.2124 2.97191 11.1465 2.81093 11.1465 2.64321C11.1465 2.4755 11.2124 2.31452 11.3301 2.19506C11.9586 1.52282 12.5895 0.855408 13.2181 0.183175C13.2927 0.103664 13.3939 0.072341 13.4589 0.00246728L13.8273 -0.00476074Z" fill="black"/>
<path d="M12.2142 18.2708C12.2142 17.0203 12.2142 15.7722 12.2142 14.5241C12.226 14.4558 12.2124 14.3855 12.176 14.3265C12.1397 14.2675 12.083 14.2238 12.0167 14.2037C10.9788 13.7893 9.9457 13.3628 8.9102 12.9411L6.24439 11.8569C6.05414 11.7798 6.04692 11.7822 6.04692 11.9918V19.4611C6.04692 19.7647 6.04692 19.7623 6.31904 19.8707L9.27383 21.0754L12.0384 22.1982C12.2118 22.2681 12.2118 22.2657 12.2118 22.0681V18.2708M4.9151 15.512V10.9124C4.91343 10.8429 4.91908 10.7735 4.93195 10.7052C4.9395 10.6184 4.9682 10.5349 5.01553 10.4618C5.06286 10.3887 5.12738 10.3283 5.20344 10.286C5.27949 10.2437 5.36477 10.2207 5.45179 10.219C5.53881 10.2173 5.62491 10.237 5.70256 10.2763C6.55745 10.6233 7.40993 10.9774 8.26482 11.3268C9.30032 11.7485 10.3382 12.1629 11.3713 12.5894C11.9372 12.8303 12.5007 13.0712 13.0715 13.2809C13.176 13.3335 13.2627 13.4157 13.3209 13.5172C13.3791 13.6187 13.4063 13.7351 13.399 13.8519C13.399 14.2133 13.399 14.5747 13.399 14.9337V23.0511C13.4126 23.2495 13.3545 23.4462 13.2352 23.6053C13.1679 23.7032 13.0684 23.7745 12.954 23.8066C12.8396 23.8387 12.7176 23.8297 12.6091 23.7812L10.6128 22.9572L7.41956 21.6416C6.69712 21.3477 5.99635 21.0441 5.28354 20.7574C5.16369 20.7138 5.06196 20.6312 4.99469 20.5228C4.92743 20.4145 4.89855 20.2866 4.91269 20.1598C4.91269 19.0346 4.91269 17.9094 4.91269 16.7866L4.9151 15.512Z" fill="black"/>
<path d="M19.9898 9.05464L19.9031 9.00404L17.5167 8.00894C16.3126 7.50777 15.1085 7.00902 13.9045 6.50304C13.8355 6.47205 13.7609 6.45604 13.6853 6.45604C13.6098 6.45604 13.5351 6.47205 13.4662 6.50304C12.7991 6.78976 12.1321 7.06685 11.4626 7.34393L8.05267 8.75827C7.83112 8.84742 7.61439 8.9438 7.39284 9.04259C7.43241 9.09059 7.4865 9.12442 7.54696 9.13896L9.00388 9.73891L13.5986 11.6496C13.6236 11.6609 13.6507 11.6668 13.6781 11.6668C13.7055 11.6668 13.7326 11.6609 13.7576 11.6496C14.3235 11.4087 14.887 11.1677 15.4433 10.9268C16.6072 10.4449 17.7711 9.96299 18.9351 9.4811C19.2746 9.34136 19.6166 9.20643 19.9874 9.05222M13.7118 12.8808C13.629 12.8852 13.5464 12.8695 13.471 12.835L11.2724 11.9387C10.5114 11.6303 9.74801 11.3291 8.98703 11.0207L5.80828 9.7341C5.68547 9.68109 5.56747 9.64254 5.43984 9.58471C5.33682 9.52295 5.25426 9.4322 5.20244 9.3238C5.15062 9.2154 5.13185 9.09413 5.14845 8.97512C5.15067 8.86443 5.18669 8.75707 5.2517 8.66748C5.31671 8.57788 5.40757 8.51035 5.51208 8.47396C6.12616 8.23302 6.72819 7.97039 7.33745 7.71981L10.1165 6.58496C11.1399 6.16331 12.1658 5.74889 13.1844 5.31278C13.3247 5.24443 13.4783 5.20771 13.6343 5.20521C13.7904 5.20272 13.9451 5.2345 14.0875 5.29832C15.3542 5.8308 16.6257 6.34402 17.8947 6.86687C19.1638 7.38971 20.4979 7.94629 21.8008 8.48601C21.906 8.52677 21.9961 8.59914 22.0587 8.69319C22.1212 8.78724 22.1531 8.89835 22.1499 9.01126C22.1632 9.13853 22.135 9.26668 22.0694 9.37655C22.0039 9.48643 21.9046 9.57213 21.7863 9.62085L18.6413 10.9051L15.9369 12.0158L13.9213 12.8495C13.8556 12.8758 13.7849 12.8874 13.7142 12.8832" fill="black"/>
<path d="M13.081 26.5762C13.0449 26.0027 13.1027 25.4269 13.081 24.851C13.0708 24.7558 13.0829 24.6596 13.1164 24.5699C13.15 24.4803 13.204 24.3997 13.2741 24.3346C13.3443 24.2696 13.4287 24.2218 13.5206 24.1952C13.6125 24.1685 13.7094 24.1637 13.8034 24.1812C13.9173 24.2102 14.0207 24.2708 14.1016 24.3561C14.1826 24.4414 14.2378 24.5478 14.261 24.6631C14.2878 24.8272 14.2919 24.9942 14.273 25.1594C14.2513 25.3902 14.2513 25.6225 14.273 25.8533C14.3091 26.1666 14.2465 26.475 14.2586 26.7882C14.2586 26.8316 14.2369 26.8966 14.2875 26.9183C14.338 26.94 14.3669 26.8822 14.3934 26.8484C14.6535 26.5328 14.9617 26.2702 15.2242 25.9521C15.2761 25.8947 15.3395 25.8489 15.4102 25.8175C15.4809 25.7861 15.5574 25.7699 15.6348 25.7699C15.7122 25.7699 15.7887 25.7861 15.8594 25.8175C15.9301 25.8489 15.9935 25.8947 16.0454 25.9521C16.1618 26.0677 16.2288 26.2239 16.2324 26.388C16.236 26.552 16.1759 26.711 16.0647 26.8316C15.754 27.1713 15.4361 27.5038 15.1207 27.8387C14.8052 28.1736 14.5427 28.4555 14.2513 28.7615C14.1896 28.8344 14.1133 28.8935 14.0274 28.9352C13.9415 28.9769 13.8478 29.0002 13.7524 29.0036C13.657 29.007 13.5619 28.9904 13.4732 28.955C13.3846 28.9195 13.3043 28.8659 13.2375 28.7977C12.922 28.4724 12.6114 28.1399 12.3056 27.805C12.0479 27.5255 11.7878 27.2484 11.5181 26.9785C11.4303 26.9062 11.3595 26.8154 11.3108 26.7125C11.2621 26.6096 11.2366 26.4972 11.2363 26.3834C11.2355 26.2639 11.2703 26.1468 11.3364 26.0472C11.4024 25.9476 11.4968 25.87 11.6072 25.8244C11.7099 25.7738 11.8266 25.7594 11.9385 25.7834C12.0504 25.8075 12.1509 25.8686 12.2237 25.9569C12.4645 26.1979 12.6885 26.4509 12.922 26.6942C12.963 26.7352 12.9967 26.8243 13.0617 26.793C13.1267 26.7617 13.0786 26.6846 13.081 26.6292C13.0822 26.6131 13.0822 26.597 13.081 26.581" fill="black"/>
<path d="M18.3334 22.1451C17.7039 22.1662 17.0783 22.0401 16.506 21.7771C15.9338 21.514 15.4307 21.1211 15.0366 20.6296L16.0938 19.6466C16.3605 19.9948 16.7029 20.2777 17.0951 20.4739C17.4873 20.6701 17.919 20.7744 18.3574 20.779C18.7465 20.7937 19.1272 20.6641 19.4267 20.4152C19.5647 20.2966 19.6742 20.1483 19.7468 19.9814C19.8193 19.8145 19.8531 19.6333 19.8457 19.4514C19.8511 19.2556 19.8045 19.0618 19.7106 18.8899C19.6167 18.7181 19.4788 18.5742 19.3111 18.4732C18.8732 18.2197 18.3714 18.0984 17.8662 18.1238H17.1654L16.9246 17.1745L19.2412 14.6928H15.5158V13.3772H21.2111V14.5072L18.803 16.9697C19.4737 17.0409 20.1098 17.3035 20.6355 17.7262C20.8718 17.9364 21.0576 18.1972 21.1789 18.4893C21.3003 18.7813 21.3541 19.097 21.3363 19.4128C21.347 19.7807 21.277 20.1465 21.1314 20.4845C20.9858 20.8224 20.7681 21.1245 20.4935 21.3693C19.8986 21.8939 19.1259 22.1714 18.3334 22.1451Z" fill="#0876A6"/>
<path d="M23.2144 21.9957V13.3844H26.4244C27.7682 13.3844 28.8663 13.7924 29.7187 14.6084C30.125 15.0116 30.4475 15.4912 30.6676 16.0197C30.8876 16.5483 31.0009 17.1151 31.0009 17.6877C31.0009 18.2602 30.8876 18.8271 30.6676 19.3556C30.4475 19.8841 30.125 20.3637 29.7187 20.7669C28.8614 21.5861 27.7649 21.9957 26.4292 21.9957H23.2144ZM24.7267 20.6175H26.4244C26.8221 20.6349 27.2191 20.5714 27.5916 20.431C27.9641 20.2907 28.3043 20.0762 28.5917 19.8007C29.1213 19.227 29.4154 18.4747 29.4154 17.6937C29.4154 16.9127 29.1213 16.1604 28.5917 15.5866C28.3056 15.3087 27.9658 15.0921 27.5932 14.95C27.2205 14.8079 26.8228 14.7433 26.4244 14.7602H24.7267V20.6175Z" fill="#0876A6"/>
</g>
<defs>
<clipPath id="clip0_911_2307">
<rect width="31" height="29" fill="white"/>
</clipPath>
</defs>
</svg>
