<svg width="51" height="51" viewBox="0 0 51 51" fill="none" xmlns="http://www.w3.org/2000/svg">
<g clip-path="url(#clip0_1_452)">
<path d="M16.1326 20.9082C15.6601 20.436 15.0195 20.1707 14.3515 20.1707C13.6835 20.1707 13.0429 20.436 12.5704 20.9082C12.0983 21.3805 11.833 22.021 11.833 22.6889C11.833 23.3568 12.0983 23.9973 12.5704 24.4696L21.9379 33.8401C21.9952 33.9125 22.0566 33.9816 22.122 34.0468C22.4436 34.3685 22.847 34.5963 23.2886 34.7056C23.7302 34.8149 24.1932 34.8016 24.6278 34.667C25.0298 34.5479 25.3955 34.33 25.6917 34.0332C25.7573 33.9675 25.8193 33.8983 25.8773 33.8257L49.082 10.621C49.5505 10.1522 49.8137 9.51664 49.8137 8.8539C49.8137 8.19116 49.5505 7.55556 49.082 7.0868C48.85 6.85465 48.5745 6.67047 48.2713 6.54482C47.9681 6.41917 47.6431 6.35449 47.3149 6.35449C46.9867 6.35449 46.6617 6.41917 46.3585 6.54482C46.0553 6.67047 45.7798 6.85465 45.5478 7.0868L23.9276 28.707L16.1326 20.9082Z" fill="#5FB4E3"/>
<path d="M50.4424 20.1788C50.4264 19.8932 50.3616 19.6125 50.2508 19.3488C50.0579 18.8876 49.7329 18.4937 49.3167 18.2167C48.9005 17.9398 48.4117 17.792 47.9117 17.7922C47.5788 17.7922 47.2491 17.8578 46.9415 17.9852C46.634 18.1126 46.3545 18.2993 46.1191 18.5348C45.8836 18.7702 45.6969 19.0497 45.5695 19.3573C45.4421 19.6648 45.3765 19.9945 45.3765 20.3274C45.3766 20.467 45.3882 20.6063 45.4112 20.7439C45.4298 20.858 45.4563 20.9707 45.4904 21.0812C45.8281 22.5689 45.9981 24.0897 45.9975 25.6152C45.9975 36.8878 36.8594 46.0266 25.586 46.0266C14.3126 46.0266 5.17455 36.8878 5.17455 25.6152C5.17455 14.3425 14.3134 5.20295 25.586 5.20295C29.4414 5.19706 33.2189 6.28862 36.4769 8.35008C36.545 8.39919 36.6158 8.44452 36.6889 8.48588C37.0791 8.71011 37.5215 8.82773 37.9716 8.82693C38.6548 8.82693 39.3101 8.55558 39.7933 8.07251C40.2765 7.58945 40.5481 6.93422 40.5483 6.25096C40.5486 5.86516 40.4621 5.48424 40.2951 5.13641C40.1282 4.78859 39.8852 4.48279 39.584 4.24167C39.4483 4.1326 39.302 4.03757 39.1471 3.95798C35.0685 1.36718 30.3349 -0.00528679 25.503 0.00198185C11.4198 0.00198185 0 11.4187 0 25.505C0 39.5913 11.4168 51.008 25.503 51.008C39.5893 51.008 51.006 39.5913 51.006 25.505C51.0053 23.7148 50.8164 21.9296 50.4424 20.1788Z" fill="#5FB4E3"/>
</g>
<defs>
<clipPath id="clip0_1_452">
<rect width="51" height="51" fill="white"/>
</clipPath>
</defs>
</svg>
