<svg width="54" height="51" viewBox="0 0 54 51" fill="none" xmlns="http://www.w3.org/2000/svg">
<g clip-path="url(#clip0_1_449)">
<path d="M53.9212 15.0559C53.665 14.046 52.8294 13.2866 51.8924 13.1834C50.7766 13.0611 49.8568 13.5418 49.3376 14.5244C49.0919 14.9906 48.8537 15.4607 48.5899 15.9717C48.5306 15.8419 48.4975 15.7743 48.4682 15.7052C46.915 12.0071 44.666 8.81479 41.6446 6.19728C37.632 2.7217 32.9672 0.736722 27.7313 0.145182C25.3528 -0.118102 22.9486 -0.0179988 20.5996 0.442103C17.4892 1.02855 14.5164 2.20307 11.8373 3.904C7.87979 6.41849 4.84053 9.77943 2.71952 13.9868C1.31951 16.7674 0.443011 19.7867 0.134645 22.891C-0.0798593 24.9674 -0.042514 27.0626 0.245854 29.1299C0.574306 31.4642 1.22881 33.7397 2.18978 35.8882C4.00672 39.9705 6.678 43.3694 10.2412 46.0226C13.9723 48.7993 18.1512 50.4165 22.7779 50.8741C25.3311 51.1341 27.9088 50.9891 30.4176 50.4443C34.6446 49.5255 38.4004 47.6377 41.6851 44.781C45.3205 41.6023 47.8272 37.6765 49.2812 33.0581C49.4082 32.6556 49.5179 32.2159 49.4931 31.8021C49.4225 30.6365 48.4975 29.6508 47.4365 29.5172C46.1591 29.3562 45.1109 30.0199 44.6998 31.2485C44.5045 31.8332 44.3241 32.4255 44.0987 32.995C42.6214 36.7227 40.289 39.7837 37.0586 42.1346C33.9583 44.3907 30.4995 45.6793 26.6891 45.9717C23.6889 46.2123 20.6741 45.7557 17.8757 44.6367C13.6061 42.9381 10.2458 40.1223 7.87203 36.1517C5.09177 31.496 4.23591 26.4668 5.37205 21.1604C6.52698 15.7644 9.41695 11.4756 13.9803 8.42827C18.6902 5.28376 23.8622 4.25181 29.3994 5.44248C35.0734 6.66581 39.4414 9.82775 42.5072 14.7993C43.1016 15.7621 43.5637 16.8086 44.0852 17.817L43.992 17.8716C43.3097 17.5109 42.6289 17.148 41.9451 16.7888C40.7601 16.1654 39.24 16.6468 38.6231 17.8382C38.4721 18.1262 38.3792 18.4417 38.3498 18.7663C38.3205 19.0909 38.3553 19.4181 38.4522 19.729C38.5491 20.0399 38.7062 20.3282 38.9143 20.5772C39.1224 20.8262 39.3775 21.0309 39.6646 21.1794C42.0155 22.4253 44.3677 23.6701 46.7212 24.9139C47.0091 25.0679 47.3245 25.1624 47.649 25.1919C47.9735 25.2215 48.3006 25.1855 48.6111 25.0861C48.9217 24.9867 49.2096 24.8257 49.458 24.6128C49.7065 24.3998 49.9105 24.1389 50.0582 23.8455C51.281 21.4915 52.5001 19.1355 53.7154 16.7774C53.9973 16.2507 54.0709 15.6354 53.9212 15.0559Z" fill="#5FB4E3"/>
<path d="M20.5233 28.8996C20.5864 29.7729 21.0305 30.4449 21.8225 30.8443C22.1335 31.0007 22.4589 31.1291 22.7798 31.2657C25.3151 32.3493 27.8466 33.4398 30.3879 34.5082C31.1551 34.8309 31.9276 35.1916 32.7338 35.3557C33.9842 35.6116 35.0632 34.7315 35.3803 33.641C35.7267 32.4428 35.1549 31.1549 34.0435 30.6757C31.3054 29.4957 28.5627 28.3253 25.8155 27.1645C25.5209 27.0392 25.3917 26.8957 25.394 26.5357C25.412 22.663 25.4067 18.7902 25.4037 14.9221C25.4037 13.4322 24.0512 12.2644 22.6032 12.4861C21.3077 12.685 20.4992 13.676 20.4902 15.0975C20.4819 17.3346 20.4902 19.5724 20.4902 21.8095C20.4902 23.3138 20.4902 24.8181 20.4902 26.3223C20.4909 27.1819 20.4617 28.0446 20.5233 28.8996Z" fill="#5FB4E3"/>
</g>
<defs>
<clipPath id="clip0_1_449">
<rect width="54" height="51" fill="white"/>
</clipPath>
</defs>
</svg>
