<svg width="32" height="32" viewBox="0 0 32 32" fill="none" xmlns="http://www.w3.org/2000/svg">
<path d="M24.9024 0H7.09763C3.17772 0 0 3.17772 0 7.09763V24.9024C0 28.8223 3.17772 32 7.09763 32H24.9024C28.8223 32 32 28.8223 32 24.9024V7.09763C32 3.17772 28.8223 0 24.9024 0Z" fill="white"/>
<path d="M23.9741 8.03735H8.01502C7.54199 8.03735 7.08833 8.22527 6.75384 8.55975C6.41936 8.89424 6.23145 9.3479 6.23145 9.82093V21.2674C6.23145 21.5015 6.2776 21.7333 6.36727 21.9496C6.45694 22.1658 6.58836 22.3622 6.75401 22.5276C6.91967 22.693 7.11631 22.8241 7.33269 22.9135C7.54907 23.0028 7.78093 23.0486 8.01502 23.0482H18.6318L22.6957 25.8421V23.0482H23.9741C24.2082 23.0486 24.4401 23.0028 24.6564 22.9135C24.8728 22.8241 25.0695 22.693 25.2351 22.5276C25.4008 22.3622 25.5322 22.1658 25.6219 21.9496C25.7115 21.7333 25.7577 21.5015 25.7577 21.2674V9.82093C25.7577 9.3479 25.5698 8.89424 25.2353 8.55975C24.9008 8.22527 24.4471 8.03735 23.9741 8.03735ZM18.217 17.8357C18.217 17.9914 18.1551 18.1407 18.0451 18.2508C17.935 18.3609 17.7857 18.4227 17.63 18.4227H9.40069C9.245 18.4227 9.0957 18.3609 8.98561 18.2508C8.87553 18.1407 8.81368 17.9914 8.81368 17.8357V16.8593C8.81368 16.7822 8.82887 16.7059 8.85837 16.6347C8.88787 16.5634 8.93111 16.4987 8.98561 16.4442C9.04012 16.3897 9.10483 16.3465 9.17605 16.317C9.24727 16.2875 9.3236 16.2723 9.40069 16.2723H17.63C17.7071 16.2723 17.7834 16.2875 17.8546 16.317C17.9258 16.3465 17.9905 16.3897 18.0451 16.4442C18.0996 16.4987 18.1428 16.5634 18.1723 16.6347C18.2018 16.7059 18.217 16.7822 18.217 16.8593V17.8357ZM23.0626 14.2629C23.0626 14.4186 23.0007 14.5679 22.8906 14.678C22.7805 14.7881 22.6312 14.8499 22.4756 14.8499H9.40069C9.245 14.8499 9.0957 14.7881 8.98561 14.678C8.87553 14.5679 8.81368 14.4186 8.81368 14.2629V13.2865C8.81368 13.1308 8.87553 12.9815 8.98561 12.8714C9.0957 12.7613 9.245 12.6995 9.40069 12.6995H22.4756C22.6312 12.6995 22.7805 12.7613 22.8906 12.8714C23.0007 12.9815 23.0626 13.1308 23.0626 13.2865V14.2629Z" fill="#8A8A8A"/>
</svg>
