<svg width="31" height="29" viewBox="0 0 31 29" fill="none" xmlns="http://www.w3.org/2000/svg">
<g clip-path="url(#clip0_109_36)">
<path d="M5.28945e-05 14.2711C0.125801 14.0344 0.298736 13.8261 0.508167 13.6591C0.748981 13.4181 0.989795 13.1555 1.23061 12.9073C1.51477 12.6182 1.79652 12.3218 2.08309 12.0327C2.13869 11.9778 2.20505 11.935 2.27799 11.907C2.35094 11.879 2.42889 11.8664 2.50694 11.87C2.58498 11.8736 2.66143 11.8934 2.73147 11.928C2.80151 11.9626 2.86363 12.0114 2.91391 12.0713C3.01608 12.192 3.07093 12.3458 3.06827 12.5041C3.06561 12.6623 3.00563 12.8141 2.89946 12.9314C2.65864 13.1941 2.41783 13.4615 2.17701 13.7314C2.1433 13.7675 2.08309 13.806 2.11199 13.8615C2.14089 13.9169 2.19627 13.8856 2.23962 13.8856C2.81276 13.8856 3.38349 13.8856 3.95663 13.8856C4.05009 13.8856 4.14227 13.9073 4.22587 13.9492C4.30946 13.991 4.38218 14.0517 4.43826 14.1265C4.51244 14.2044 4.56116 14.3031 4.57794 14.4094C4.59472 14.5157 4.57876 14.6246 4.53218 14.7216C4.41659 14.9626 4.26487 15.1602 3.98312 15.1626H2.28297C2.22219 15.151 2.15934 15.1577 2.10236 15.1818C2.10236 15.2541 2.16979 15.2854 2.21072 15.3288C2.45154 15.5963 2.7044 15.8565 2.95003 16.1191C3.05651 16.226 3.11994 16.3684 3.12823 16.5191C3.15189 16.6422 3.12665 16.7698 3.05785 16.8746C2.98906 16.9794 2.88213 17.0533 2.75978 17.0805C2.62426 17.1386 2.47293 17.1485 2.33098 17.1087C2.18902 17.0688 2.065 16.9814 1.97955 16.8612C1.75559 16.5865 1.49792 16.3384 1.2571 16.083C0.903106 15.7119 0.563555 15.3288 0.199925 14.9722C0.124621 14.8777 0.0562194 14.7778 -0.00476074 14.6734L5.28945e-05 14.2711Z" fill="#1D1D1B"/>
<path d="M13.8276 -0.00476074C14.0426 0.10085 14.2267 0.260191 14.3622 0.457851C14.8751 1.01684 15.3808 1.57824 15.8914 2.14446C16.0094 2.25261 16.0868 2.39806 16.1105 2.55647C16.1266 2.6864 16.1035 2.81817 16.0443 2.93492C15.9851 3.05167 15.8925 3.14809 15.7782 3.21184C15.6675 3.26734 15.5416 3.28466 15.4201 3.26113C15.2986 3.2376 15.1883 3.17452 15.1063 3.08173C14.8655 2.82874 14.6247 2.56611 14.3718 2.3083C14.3479 2.28236 14.3222 2.2582 14.2948 2.23602C14.237 2.27939 14.2538 2.33962 14.261 2.3854C14.3116 2.82151 14.249 3.25521 14.261 3.69132C14.2803 3.88842 14.2803 4.08694 14.261 4.28404C14.2484 4.42415 14.1862 4.55515 14.0857 4.65345C13.9851 4.75174 13.8527 4.81087 13.7124 4.82017C13.5721 4.82947 13.4331 4.78833 13.3205 4.70417C13.2078 4.62002 13.1289 4.49836 13.0979 4.36114C13.0622 4.23101 13.0516 4.09528 13.0666 3.96118C13.0895 3.69341 13.0895 3.42418 13.0666 3.15642C13.0498 2.9576 13.0498 2.75771 13.0666 2.55888C13.0738 2.44977 13.0738 2.34031 13.0666 2.2312L13.0112 2.19506C12.833 2.39745 12.6572 2.60225 12.479 2.80223C12.3803 2.91307 12.284 3.0239 12.178 3.12269C12.0581 3.2238 11.9048 3.27661 11.7481 3.27082C11.5914 3.26503 11.4425 3.20106 11.3303 3.09137C11.2127 2.97191 11.1467 2.81093 11.1467 2.64321C11.1467 2.4755 11.2127 2.31452 11.3303 2.19506C11.9589 1.52282 12.5898 0.855408 13.2183 0.183175C13.293 0.103664 13.3941 0.072341 13.4591 0.00246728L13.8276 -0.00476074Z" fill="#1D1D1B"/>
<path d="M12.214 18.2708C12.214 17.0203 12.214 15.7722 12.214 14.5241C12.2258 14.4558 12.2123 14.3855 12.1759 14.3265C12.1395 14.2675 12.0829 14.2238 12.0166 14.2037C10.9787 13.7893 9.94558 13.3628 8.91008 12.9411L6.24427 11.8569C6.05402 11.7798 6.0468 11.7822 6.0468 11.9918V19.4611C6.0468 19.7647 6.0468 19.7623 6.31892 19.8707L9.27371 21.0754L12.0383 22.1982C12.2116 22.2681 12.2116 22.2657 12.2116 22.0681V18.2708M4.91497 15.512V10.9124C4.91331 10.8429 4.91896 10.7735 4.93183 10.7052C4.93938 10.6184 4.96807 10.5349 5.01541 10.4618C5.06274 10.3887 5.12726 10.3283 5.20331 10.286C5.27937 10.2437 5.36465 10.2207 5.45167 10.219C5.53869 10.2173 5.62479 10.237 5.70243 10.2763C6.55732 10.6233 7.40981 10.9774 8.2647 11.3268C9.3002 11.7485 10.3381 12.1629 11.3712 12.5894C11.9371 12.8303 12.5006 13.0712 13.0713 13.2809C13.1758 13.3335 13.2626 13.4157 13.3208 13.5172C13.379 13.6187 13.4062 13.7351 13.3988 13.8519C13.3988 14.2133 13.3988 14.5747 13.3988 14.9337V23.0511C13.4125 23.2495 13.3544 23.4462 13.2351 23.6053C13.1678 23.7032 13.0682 23.7745 12.9538 23.8066C12.8395 23.8387 12.7174 23.8297 12.609 23.7812L10.6126 22.9572L7.41944 21.6416C6.697 21.3477 5.99623 21.0441 5.28342 20.7574C5.16357 20.7138 5.06183 20.6312 4.99457 20.5228C4.92731 20.4145 4.89842 20.2866 4.91256 20.1598C4.91256 19.0346 4.91256 17.9094 4.91256 16.7866L4.91497 15.512Z" fill="#1D1D1B"/>
<path d="M19.99 9.05464L19.9033 9.00404L17.5168 8.00894C16.3127 7.50777 15.1086 7.00902 13.9046 6.50304C13.8357 6.47205 13.761 6.45604 13.6854 6.45604C13.6099 6.45604 13.5352 6.47205 13.4663 6.50304C12.7992 6.78976 12.1322 7.06685 11.4627 7.34393L8.05279 8.75827C7.83125 8.84742 7.61452 8.9438 7.39297 9.04259C7.43253 9.09059 7.48662 9.12442 7.54708 9.13896L9.00401 9.73891L13.5987 11.6496C13.6237 11.6609 13.6508 11.6668 13.6782 11.6668C13.7056 11.6668 13.7327 11.6609 13.7577 11.6496C14.3236 11.4087 14.8871 11.1677 15.4434 10.9268C16.6073 10.4449 17.7713 9.96299 18.9352 9.4811C19.2747 9.34136 19.6167 9.20643 19.9875 9.05222M13.7119 12.8808C13.6291 12.8852 13.5465 12.8695 13.4711 12.835L11.2725 11.9387C10.5115 11.6303 9.74813 11.3291 8.98715 11.0207L5.80841 9.7341C5.68559 9.68109 5.56759 9.64254 5.43996 9.58471C5.33694 9.52295 5.25438 9.4322 5.20256 9.3238C5.15075 9.2154 5.13197 9.09413 5.14858 8.97512C5.15079 8.86443 5.18682 8.75707 5.25182 8.66748C5.31683 8.57788 5.40769 8.51035 5.5122 8.47396C6.12628 8.23302 6.72832 7.97039 7.33758 7.71981L10.1166 6.58496C11.14 6.16331 12.1659 5.74889 13.1845 5.31278C13.3248 5.24443 13.4784 5.20771 13.6345 5.20521C13.7905 5.20272 13.9452 5.2345 14.0876 5.29832C15.3543 5.8308 16.6258 6.34402 17.8949 6.86687C19.164 7.38971 20.4981 7.94629 21.8009 8.48601C21.9062 8.52677 21.9963 8.59914 22.0588 8.69319C22.1213 8.78724 22.1532 8.89835 22.1501 9.01126C22.1633 9.13853 22.1351 9.26668 22.0695 9.37655C22.004 9.48643 21.9047 9.57213 21.7864 9.62085L18.6414 10.9051L15.937 12.0158L13.9214 12.8495C13.8557 12.8758 13.785 12.8874 13.7143 12.8832" fill="#1D1D1B"/>
<path d="M13.081 26.5762C13.0449 26.0027 13.1027 25.4269 13.081 24.851C13.0708 24.7558 13.0829 24.6596 13.1164 24.5699C13.15 24.4803 13.204 24.3997 13.2741 24.3346C13.3443 24.2696 13.4287 24.2218 13.5206 24.1952C13.6125 24.1685 13.7094 24.1637 13.8034 24.1812C13.9173 24.2102 14.0207 24.2708 14.1016 24.3561C14.1826 24.4414 14.2378 24.5478 14.261 24.6631C14.2878 24.8272 14.2919 24.9942 14.273 25.1594C14.2513 25.3902 14.2513 25.6225 14.273 25.8533C14.3091 26.1666 14.2465 26.475 14.2586 26.7882C14.2586 26.8316 14.2369 26.8966 14.2875 26.9183C14.338 26.94 14.3669 26.8822 14.3934 26.8484C14.6535 26.5328 14.9617 26.2702 15.2242 25.9521C15.2761 25.8947 15.3395 25.8489 15.4102 25.8175C15.4809 25.7861 15.5574 25.7699 15.6348 25.7699C15.7122 25.7699 15.7887 25.7861 15.8594 25.8175C15.9301 25.8489 15.9935 25.8947 16.0454 25.9521C16.1618 26.0677 16.2288 26.2239 16.2324 26.388C16.236 26.552 16.1759 26.711 16.0647 26.8316C15.754 27.1713 15.4361 27.5038 15.1207 27.8387C14.8052 28.1736 14.5427 28.4555 14.2513 28.7615C14.1896 28.8344 14.1133 28.8935 14.0274 28.9352C13.9415 28.9769 13.8478 29.0002 13.7524 29.0036C13.657 29.007 13.5619 28.9904 13.4732 28.955C13.3846 28.9195 13.3043 28.8659 13.2375 28.7977C12.922 28.4724 12.6114 28.1399 12.3056 27.805C12.0479 27.5255 11.7878 27.2484 11.5181 26.9785C11.4303 26.9062 11.3595 26.8154 11.3108 26.7125C11.2621 26.6096 11.2366 26.4972 11.2363 26.3834C11.2355 26.2639 11.2703 26.1468 11.3364 26.0472C11.4024 25.9476 11.4968 25.87 11.6072 25.8244C11.7099 25.7738 11.8266 25.7594 11.9385 25.7834C12.0504 25.8075 12.1509 25.8686 12.2237 25.9569C12.4645 26.1979 12.6885 26.4509 12.922 26.6942C12.963 26.7352 12.9967 26.8243 13.0617 26.793C13.1267 26.7617 13.0786 26.6846 13.081 26.6292C13.0822 26.6131 13.0822 26.597 13.081 26.581" fill="#1D1D1B"/>
<path d="M18.3331 22.1451C17.7037 22.1662 17.078 22.0401 16.5058 21.7771C15.9335 21.514 15.4304 21.1211 15.0364 20.6296L16.0935 19.6466C16.3603 19.9948 16.7027 20.2777 17.0949 20.4739C17.4871 20.6701 17.9187 20.7744 18.3572 20.779C18.7462 20.7937 19.127 20.6641 19.4264 20.4152C19.5645 20.2966 19.6739 20.1483 19.7465 19.9814C19.8191 19.8145 19.8529 19.6333 19.8454 19.4514C19.8509 19.2556 19.8043 19.0618 19.7104 18.8899C19.6164 18.7181 19.4785 18.5742 19.3108 18.4732C18.873 18.2197 18.3712 18.0984 17.8659 18.1238H17.1652L16.9244 17.1745L19.241 14.6928H15.5156V13.3772H21.2108V14.5072L18.8027 16.9697C19.4734 17.0409 20.1095 17.3035 20.6353 17.7262C20.8716 17.9364 21.0574 18.1972 21.1787 18.4893C21.3001 18.7813 21.3538 19.097 21.3361 19.4128C21.3467 19.7807 21.2768 20.1465 21.1312 20.4845C20.9856 20.8224 20.7678 21.1245 20.4932 21.3693C19.8983 21.8939 19.1257 22.1714 18.3331 22.1451Z" fill="#0876A6"/>
<path d="M23.2145 21.9957V13.3844H26.4245C27.7683 13.3844 28.8664 13.7924 29.7189 14.6084C30.1251 15.0116 30.4476 15.4912 30.6677 16.0197C30.8877 16.5483 31.0011 17.1151 31.0011 17.6877C31.0011 18.2602 30.8877 18.8271 30.6677 19.3556C30.4476 19.8841 30.1251 20.3637 29.7189 20.7669C28.8616 21.5861 27.7651 21.9957 26.4293 21.9957H23.2145ZM24.7268 20.6175H26.4245C26.8222 20.6349 27.2192 20.5714 27.5917 20.431C27.9642 20.2907 28.3044 20.0762 28.5919 19.8007C29.1214 19.227 29.4155 18.4747 29.4155 17.6937C29.4155 16.9127 29.1214 16.1604 28.5919 15.5866C28.3057 15.3087 27.966 15.0921 27.5933 14.95C27.2207 14.8079 26.823 14.7433 26.4245 14.7602H24.7268V20.6175Z" fill="#0876A6"/>
</g>
<defs>
<clipPath id="clip0_109_36">
<rect width="31" height="29" fill="white"/>
</clipPath>
</defs>
</svg>
