<svg width="32" height="30" viewBox="0 0 32 30" fill="none" xmlns="http://www.w3.org/2000/svg">
<path d="M0.00481364 14.2757C0.130561 14.0391 0.303497 13.8308 0.512928 13.6637C0.753742 13.4228 0.994556 13.1601 1.23537 12.912C1.51953 12.6228 1.80129 12.3265 2.08785 12.0373C2.14345 11.9824 2.20981 11.9396 2.28275 11.9116C2.3557 11.8836 2.43365 11.871 2.5117 11.8746C2.58974 11.8783 2.66619 11.898 2.73623 11.9326C2.80627 11.9673 2.86839 12.0161 2.91867 12.0759C3.02084 12.1967 3.07569 12.3505 3.07303 12.5087C3.07038 12.6669 3.01039 12.8188 2.90422 12.9361C2.6634 13.1987 2.42259 13.4661 2.18178 13.736C2.14806 13.7721 2.08785 13.8107 2.11675 13.8661C2.14565 13.9215 2.20104 13.8902 2.24438 13.8902C2.81752 13.8902 3.38825 13.8902 3.96139 13.8902C4.05485 13.8902 4.14703 13.912 4.23063 13.9538C4.31422 13.9956 4.38694 14.0563 4.44302 14.1311C4.5172 14.2091 4.56592 14.3078 4.5827 14.4141C4.59948 14.5204 4.58352 14.6293 4.53694 14.7263C4.42135 14.9672 4.26963 15.1648 3.98788 15.1672H2.28773C2.22695 15.1556 2.1641 15.1623 2.10712 15.1865C2.10712 15.2588 2.17455 15.2901 2.21549 15.3335C2.4563 15.6009 2.70916 15.8611 2.95479 16.1237C3.06127 16.2306 3.1247 16.373 3.13299 16.5237C3.15665 16.6469 3.13141 16.7744 3.06261 16.8792C2.99382 16.984 2.88689 17.0579 2.76454 17.0851C2.62902 17.1432 2.47769 17.1532 2.33574 17.1133C2.19378 17.0734 2.06976 16.9861 1.98431 16.8659C1.76035 16.5912 1.50268 16.343 1.26186 16.0876C0.907867 15.7166 0.568315 15.3335 0.204686 14.9769C0.129382 14.8823 0.0609802 14.7825 0 14.6781L0.00481364 14.2757Z" fill="#1D1D1B"/>
<path d="M13.8325 0C14.0475 0.105611 14.2316 0.264952 14.3671 0.462612C14.88 1.0216 15.3857 1.583 15.8962 2.14922C16.0143 2.25737 16.0917 2.40282 16.1154 2.56123C16.1315 2.69116 16.1084 2.82293 16.0492 2.93968C15.99 3.05643 15.8973 3.15285 15.7831 3.2166C15.6724 3.2721 15.5465 3.28943 15.425 3.26589C15.3035 3.24236 15.1931 3.17929 15.1112 3.08649C14.8704 2.8335 14.6296 2.57087 14.3767 2.31306C14.3528 2.28712 14.327 2.26296 14.2996 2.24078C14.2418 2.28415 14.2587 2.34438 14.2659 2.39016C14.3165 2.82627 14.2539 3.25997 14.2659 3.69608C14.2852 3.89318 14.2852 4.0917 14.2659 4.2888C14.2533 4.42891 14.1911 4.55992 14.0905 4.65821C13.99 4.7565 13.8576 4.81563 13.7173 4.82493C13.577 4.83423 13.438 4.79309 13.3253 4.70893C13.2127 4.62478 13.1338 4.50312 13.1028 4.3659C13.0671 4.23577 13.0565 4.10004 13.0715 3.96594C13.0944 3.69817 13.0944 3.42894 13.0715 3.16118C13.0547 2.96236 13.0547 2.76247 13.0715 2.56364C13.0787 2.45453 13.0787 2.34507 13.0715 2.23596L13.0161 2.19982C12.8379 2.40221 12.6621 2.60701 12.4839 2.80699C12.3852 2.91783 12.2888 3.02866 12.1829 3.12745C12.063 3.22856 11.9097 3.28137 11.753 3.27558C11.5963 3.26979 11.4473 3.20582 11.3352 3.09613C11.2176 2.97667 11.1516 2.81569 11.1516 2.64797C11.1516 2.48026 11.2176 2.31928 11.3352 2.19982C11.9637 1.52758 12.5947 0.860169 13.2232 0.187936C13.2978 0.108424 13.399 0.0771017 13.464 0.00722802L13.8325 0Z" fill="#1D1D1B"/>
<path d="M12.2191 18.2756C12.2191 17.0251 12.2191 15.777 12.2191 14.5289C12.2309 14.4606 12.2173 14.3903 12.1809 14.3313C12.1446 14.2723 12.0879 14.2286 12.0216 14.2084C10.9837 13.794 9.95058 13.3675 8.91508 12.9459L6.24927 11.8616C6.05903 11.7845 6.0518 11.787 6.0518 11.9966V19.4658C6.0518 19.7694 6.0518 19.767 6.32392 19.8754L9.27872 21.0802L12.0433 22.203C12.2166 22.2728 12.2166 22.2704 12.2166 22.0728V18.2756M4.91998 15.5168V10.9171C4.91832 10.8477 4.92397 10.7782 4.93684 10.7099C4.94439 10.6232 4.97308 10.5396 5.02041 10.4665C5.06774 10.3935 5.13226 10.3331 5.20832 10.2908C5.28438 10.2484 5.36966 10.2254 5.45667 10.2237C5.54369 10.222 5.62979 10.2417 5.70744 10.2811C6.56233 10.628 7.41481 10.9822 8.2697 11.3316C9.3052 11.7532 10.3431 12.1676 11.3762 12.5941C11.9421 12.8351 12.5056 13.076 13.0764 13.2856C13.1808 13.3383 13.2676 13.4204 13.3258 13.5219C13.384 13.6235 13.4112 13.7398 13.4039 13.8567C13.4039 14.2181 13.4039 14.5795 13.4039 14.9385V23.0559C13.4175 23.2543 13.3594 23.451 13.2401 23.6101C13.1728 23.708 13.0732 23.7792 12.9589 23.8114C12.8445 23.8435 12.7224 23.8345 12.614 23.786L10.6176 22.9619L7.42444 21.6464C6.702 21.3524 6.00123 21.0488 5.28842 20.7621C5.16858 20.7186 5.06684 20.636 4.99958 20.5276C4.93231 20.4192 4.90343 20.2914 4.91757 20.1646C4.91757 19.0394 4.91757 17.9142 4.91757 16.7914L4.91998 15.5168Z" fill="#1D1D1B"/>
<path d="M19.995 9.05952L19.9083 9.00892L17.5218 8.01382C16.3177 7.51266 15.1137 7.0139 13.9096 6.50792C13.8407 6.47694 13.766 6.46092 13.6904 6.46092C13.6149 6.46092 13.5402 6.47694 13.4713 6.50792C12.8042 6.79464 12.1372 7.07173 11.4677 7.34882L8.0578 8.76315C7.83625 8.8523 7.61952 8.94868 7.39797 9.04747C7.43753 9.09548 7.49162 9.1293 7.55209 9.14385L9.00901 9.7438L13.6037 11.6545C13.6287 11.6658 13.6558 11.6716 13.6832 11.6716C13.7106 11.6716 13.7377 11.6658 13.7627 11.6545C14.3286 11.4135 14.8921 11.1726 15.4484 10.9316C16.6123 10.4498 17.7763 9.96787 18.9402 9.48599C19.2797 9.34624 19.6217 9.21131 19.9925 9.05711M13.7169 12.8857C13.6341 12.89 13.5515 12.8743 13.4761 12.8399L11.2775 11.9436C10.5165 11.6352 9.75313 11.334 8.99216 11.0256L5.81341 9.73898C5.69059 9.68597 5.5726 9.64742 5.44496 9.58959C5.34195 9.52783 5.25938 9.43709 5.20757 9.32868C5.15575 9.22028 5.13697 9.09901 5.15358 8.98001C5.15579 8.86931 5.19182 8.76195 5.25683 8.67236C5.32184 8.58277 5.4127 8.51523 5.51721 8.47884C6.13128 8.2379 6.73332 7.97527 7.34258 7.72469L10.1216 6.58984C11.145 6.16819 12.1709 5.75377 13.1895 5.31766C13.3299 5.24931 13.4834 5.2126 13.6395 5.2101C13.7955 5.2076 13.9502 5.23938 14.0926 5.3032C15.3593 5.83569 16.6308 6.3489 17.8999 6.87175C19.169 7.3946 20.5031 7.95118 21.8059 8.49089C21.9112 8.53165 22.0013 8.60402 22.0638 8.69807C22.1263 8.79212 22.1582 8.90324 22.1551 9.01615C22.1683 9.14341 22.1401 9.27156 22.0745 9.38143C22.009 9.49131 21.9097 9.57701 21.7914 9.62573L18.6464 10.91L15.9421 12.0207L13.9264 12.8544C13.8607 12.8807 13.79 12.8922 13.7193 12.8881" fill="#1D1D1B"/>
<path d="M13.0859 26.581C13.0497 26.0076 13.1075 25.4317 13.0859 24.8559C13.0756 24.7607 13.0878 24.6645 13.1213 24.5748C13.1548 24.4852 13.2089 24.4046 13.279 24.3395C13.3492 24.2745 13.4336 24.2267 13.5255 24.2001C13.6174 24.1734 13.7142 24.1686 13.8083 24.1861C13.9222 24.2151 14.0256 24.2757 14.1065 24.361C14.1875 24.4462 14.2427 24.5527 14.2659 24.668C14.2927 24.8321 14.2968 24.9991 14.2779 25.1643C14.2562 25.3951 14.2562 25.6274 14.2779 25.8582C14.314 26.1714 14.2514 26.4799 14.2634 26.7931C14.2634 26.8364 14.2418 26.9015 14.2923 26.9232C14.3429 26.9449 14.3718 26.887 14.3983 26.8533C14.6584 26.5377 14.9666 26.275 15.2291 25.957C15.281 25.8996 15.3444 25.8538 15.4151 25.8224C15.4858 25.791 15.5623 25.7748 15.6397 25.7748C15.7171 25.7748 15.7936 25.791 15.8643 25.8224C15.935 25.8538 15.9984 25.8996 16.0503 25.957C16.1667 26.0726 16.2337 26.2288 16.2373 26.3928C16.2409 26.5569 16.1807 26.7159 16.0695 26.8364C15.7589 27.1762 15.441 27.5087 15.1256 27.8436C14.8101 28.1785 14.5476 28.4604 14.2562 28.7664C14.1945 28.8393 14.1182 28.8984 14.0323 28.9401C13.9464 28.9818 13.8527 29.005 13.7573 29.0084C13.6619 29.0118 13.5668 28.9953 13.4781 28.9598C13.3895 28.9244 13.3092 28.8708 13.2424 28.8025C12.9269 28.4773 12.6163 28.1448 12.3104 27.8099C12.0528 27.5304 11.7927 27.2533 11.523 26.9834C11.4351 26.9111 11.3643 26.8202 11.3156 26.7174C11.2669 26.6145 11.2415 26.5021 11.2412 26.3883C11.2403 26.2688 11.2752 26.1517 11.3413 26.0521C11.4073 25.9525 11.5016 25.8749 11.6121 25.8293C11.7147 25.7787 11.8315 25.7643 11.9433 25.7883C12.0552 25.8124 12.1557 25.8735 12.2286 25.9618C12.4694 26.2028 12.6933 26.4558 12.9269 26.6991C12.9679 26.7401 13.0016 26.8292 13.0666 26.7979C13.1316 26.7666 13.0835 26.6895 13.0859 26.6341C13.0871 26.618 13.0871 26.6019 13.0859 26.5859" fill="#1D1D1B"/>
<path d="M18.338 22.1498C17.7086 22.1708 17.0829 22.0448 16.5107 21.7817C15.9384 21.5186 15.4353 21.1258 15.0413 20.6342L16.0984 19.6512C16.3651 19.9994 16.7076 20.2823 17.0998 20.4785C17.492 20.6747 17.9236 20.7791 18.3621 20.7836C18.7511 20.7983 19.1319 20.6688 19.4313 20.4198C19.5694 20.3013 19.6788 20.153 19.7514 19.986C19.824 19.8191 19.8578 19.6379 19.8503 19.456C19.8558 19.2602 19.8092 19.0665 19.7152 18.8946C19.6213 18.7227 19.4834 18.5789 19.3157 18.4778C18.8778 18.2243 18.3761 18.103 17.8708 18.1284H17.1701L16.9292 17.1791L19.2459 14.6974H15.5205V13.3818H21.2157V14.5119L18.8076 16.9743C19.4783 17.0455 20.1144 17.3081 20.6402 17.7309C20.8765 17.941 21.0622 18.2018 21.1836 18.4939C21.3049 18.786 21.3587 19.1017 21.341 19.4175C21.3516 19.7854 21.2817 20.1511 21.1361 20.4891C20.9905 20.8271 20.7727 21.1291 20.4981 21.3739C19.9032 21.8985 19.1305 22.176 18.338 22.1498Z" fill="#1D1D1B"/>
<path d="M23.2195 22.0005V13.3892H26.4295C27.7733 13.3892 28.8714 13.7972 29.7239 14.6132C30.1301 15.0163 30.4526 15.496 30.6727 16.0245C30.8928 16.553 31.0061 17.1199 31.0061 17.6924C31.0061 18.2649 30.8928 18.8318 30.6727 19.3603C30.4526 19.8888 30.1301 20.3685 29.7239 20.7717C28.8666 21.5909 27.7701 22.0005 26.4344 22.0005H23.2195ZM24.7318 20.6223H26.4295C26.8272 20.6396 27.2242 20.5762 27.5967 20.4358C27.9692 20.2954 28.3094 20.081 28.5969 19.8055C29.1264 19.2317 29.4205 18.4794 29.4205 17.6984C29.4205 16.9175 29.1264 16.1651 28.5969 15.5914C28.3107 15.3135 27.971 15.0968 27.5983 14.9547C27.2257 14.8126 26.828 14.748 26.4295 14.7649H24.7318V20.6223Z" fill="#1D1D1B"/>
</svg>
