<svg width="21" height="20" viewBox="0 0 21 20" xmlns="http://www.w3.org/2000/svg">
<g clip-path="url(#clip0_765_8)">
<path d="M20.0143 3.29117C19.8484 3.26168 19.6804 3.2467 19.5121 3.24638C17.1524 3.24638 14.7926 3.24638 12.4328 3.24638C9.96185 3.24638 7.48965 3.24638 5.0162 3.24638C4.84381 3.24638 4.78384 3.1899 4.77447 3.01658C4.75784 2.83528 4.73094 2.65516 4.6939 2.47715C4.60021 1.9494 4.53462 1.41386 4.39971 0.897791C4.33829 0.632012 4.18916 0.397023 3.97826 0.233705C3.76736 0.0703876 3.50805 -0.0109234 3.24543 0.00392301C2.66267 0.00392301 2.08178 0.00392301 1.50089 0.00392301C1.2498 0.00392301 0.996834 0.00392301 0.751363 0.00392301C0.260419 0.027292 0.00183105 0.311616 0.00183105 0.81405C0.00183105 1.03995 0.00183105 1.26585 0.00183105 1.49175C0.0037703 1.76592 0.109049 2.02839 0.295071 2.22281C0.481094 2.41723 0.733036 2.52812 0.996834 2.53168C1.46529 2.53168 1.93375 2.53168 2.40408 2.53168C2.55211 2.53168 2.62145 2.56283 2.6533 2.72642C3.2192 5.86176 3.79196 8.99581 4.3716 12.1286C4.47551 12.7792 4.62774 13.4205 4.82694 14.0468C5.16048 15.001 5.68328 15.2444 6.51339 15.2366C9.05617 15.2152 11.599 15.2366 14.1399 15.2366H17.5427C18.0206 15.2366 18.2717 15.0614 18.3897 14.6154C18.5771 13.9202 18.4384 13.2386 17.4135 13.2405C14.0031 13.2405 10.5927 13.2405 7.18234 13.2405C6.99496 13.2405 6.75698 13.2931 6.63706 13.1957C6.51713 13.0984 6.54711 12.8491 6.51901 12.6641C6.4478 12.1928 6.38222 11.7196 6.31101 11.2347C6.38784 11.2347 6.44218 11.2211 6.49839 11.2211H11.6252C13.6127 11.2211 15.6015 11.2211 17.5915 11.2211C17.8879 11.2386 18.1825 11.1629 18.4369 11.0038C18.6913 10.8447 18.8936 10.6096 19.0174 10.3291C19.155 10.0269 19.2757 9.7168 19.3791 9.40022C19.8925 7.89552 20.401 6.38757 20.9044 4.87637C21.1836 4.04092 20.8388 3.43528 20.0143 3.29117ZM18.3485 6.16361C18.0018 7.1159 17.6514 8.06429 17.3123 9.01853C17.2982 9.08761 17.2594 9.14857 17.2038 9.18906C17.1481 9.22956 17.0797 9.24656 17.0124 9.23664C13.4209 9.22625 9.82819 9.22171 6.23419 9.22301C6.10115 9.22301 6.00371 9.22301 5.96998 9.03995C5.74887 7.80334 5.51651 6.57062 5.2879 5.33985C5.2879 5.29701 5.2879 5.25417 5.27853 5.20743H18.6877C18.564 5.55602 18.4572 5.86176 18.3485 6.16361Z"/>
<path d="M15.9145 15.9026C15.6534 15.893 15.3932 15.9378 15.1492 16.0345C14.9051 16.1311 14.6821 16.2777 14.4935 16.4654C14.3048 16.6531 14.1543 16.8782 14.0508 17.1274C13.9472 17.3766 13.8928 17.6449 13.8907 17.9163C13.8855 18.4663 14.0908 18.996 14.4613 19.3888C14.8319 19.7816 15.3374 20.0053 15.8667 20.0107C16.396 20.0162 16.9056 19.8028 17.2836 19.4177C17.6615 19.0326 17.8768 18.5072 17.882 17.9572C17.8835 17.6878 17.8337 17.4207 17.7354 17.1714C17.6372 16.922 17.4925 16.6954 17.3096 16.5044C17.1267 16.3135 16.9093 16.162 16.6699 16.0587C16.4304 15.9554 16.1737 15.9024 15.9145 15.9026Z"/>
<path d="M6.96121 15.8559C6.70009 15.8489 6.44025 15.8963 6.19704 15.9953C5.95382 16.0943 5.73215 16.243 5.5451 16.4325C5.35805 16.622 5.20941 16.8485 5.10795 17.0986C5.00649 17.3488 4.95426 17.6175 4.95435 17.889C4.95435 18.4386 5.1644 18.9656 5.5383 19.3542C5.9122 19.7428 6.41932 19.9611 6.9481 19.9611C7.47688 19.9611 7.984 19.7428 8.3579 19.3542C8.7318 18.9656 8.94185 18.4386 8.94185 17.889C8.94187 17.6199 8.89048 17.3534 8.79065 17.1051C8.69081 16.8567 8.54453 16.6315 8.36029 16.4424C8.17604 16.2532 7.9575 16.104 7.71733 16.0033C7.47717 15.9027 7.22016 15.8526 6.96121 15.8559Z"/>
</g>
<defs>
<clipPath id="clip0_765_8">
<rect width="21" height="20"/>
</clipPath>
</defs>
</svg>
