<svg width="16" height="19" viewBox="0 0 16 19" fill="none" xmlns="http://www.w3.org/2000/svg">
<g clip-path="url(#clip0_466_1158)">
<path d="M2.18106 18.9995C2.05002 18.9751 1.917 18.9575 1.78844 18.9242C1.28556 18.7943 0.839221 18.5058 0.517093 18.1024C0.194965 17.6989 0.0146286 17.2026 0.00341834 16.6887C-0.00152634 16.3977 0.00341834 16.1072 0.00341834 15.8162C0.00341834 12.4114 0.00341834 9.00654 0.00341834 5.6017C0.00341834 5.03194 0.151754 4.51745 0.518155 4.07339C0.9968 3.4914 1.61242 3.17351 2.37588 3.16862C3.42415 3.16276 4.47241 3.16862 5.52069 3.16862C5.54343 3.16862 5.56568 3.17107 5.59585 3.17303V4.75269H5.48262C4.46072 4.75269 3.43882 4.75269 2.41692 4.75269C2.23745 4.74908 2.06202 4.80564 1.91918 4.91318C1.77634 5.02071 1.6745 5.17288 1.63021 5.34494C1.61084 5.42651 1.60154 5.5101 1.60252 5.59387C1.60252 9.254 1.60252 12.9141 1.60252 16.5743C1.60252 16.9934 1.84729 17.3181 2.22902 17.4003C2.31244 17.416 2.3973 17.4228 2.48218 17.4208C6.16564 17.4208 9.8491 17.4208 13.5326 17.4208C13.9672 17.4208 14.2871 17.1998 14.3811 16.831C14.4013 16.7463 14.4109 16.6594 14.4097 16.5723C14.4097 12.9158 14.4097 9.25889 14.4097 5.6017C14.4097 5.07841 14.077 4.75073 13.5459 4.75073H10.413V3.17205C10.4486 3.17205 10.4832 3.16765 10.5178 3.16765C11.5427 3.16765 12.568 3.16765 13.5939 3.16765C14.1605 3.16282 14.7104 3.3575 15.1452 3.71687C15.5801 4.07625 15.8714 4.57689 15.9673 5.12927C15.9912 5.27262 16.0023 5.41778 16.0005 5.56306C16.0005 9.24243 16.0005 12.922 16.0005 16.6016C16.0005 17.6732 15.3393 18.5755 14.3272 18.8929C14.1606 18.9369 13.992 18.9724 13.8218 18.9995H2.18106Z" fill="black"/>
<path d="M8.80248 10.7476C9.14021 10.4155 9.46211 10.0996 9.78351 9.78265C10.0748 9.49557 10.3596 9.20116 10.6572 8.92044C11.0484 8.55217 11.7105 8.67933 11.93 9.15714C11.999 9.30487 12.0211 9.46979 11.9936 9.63022C11.9661 9.79065 11.8901 9.93909 11.7757 10.056C10.7063 11.1179 9.635 12.1776 8.56167 13.2349C8.48747 13.3084 8.39929 13.3665 8.30221 13.4061C8.20513 13.4456 8.10109 13.4657 7.99611 13.4652C7.89113 13.4647 7.7873 13.4436 7.69061 13.4032C7.59392 13.3627 7.5063 13.3037 7.43281 13.2295C6.36608 12.1787 5.30181 11.1256 4.24003 10.0702C4.10352 9.93779 4.01921 9.76157 4.00221 9.5732C3.98521 9.38483 4.03664 9.19664 4.14728 9.04239C4.25791 8.88815 4.42051 8.77795 4.60588 8.73158C4.79125 8.68521 4.98727 8.70569 5.15875 8.78937C5.25022 8.83894 5.33358 8.90193 5.40599 8.97619C5.97561 9.53665 6.54326 10.0989 7.10893 10.663C7.13316 10.6869 7.15838 10.7094 7.20041 10.7471V10.615C7.20041 7.35886 7.20041 4.10286 7.20041 0.847025C7.20041 0.483653 7.35419 0.21418 7.68894 0.0645279C8.19775 -0.159462 8.77925 0.207823 8.80298 0.758505C8.80298 0.803498 8.80298 0.848981 8.80298 0.893975V10.7476H8.80248Z" fill="black"/>
</g>
<defs>
<clipPath id="clip0_466_1158">
<rect width="16" height="19" fill="white"/>
</clipPath>
</defs>
</svg>
