<svg width="29" height="29" viewBox="0 0 29 29" fill="none" xmlns="http://www.w3.org/2000/svg">
<g clip-path="url(#clip0_1_69)">
<path d="M22.5678 0H6.43222C4.72629 0 3.09023 0.677679 1.88396 1.88396C0.677679 3.09023 0 4.72629 0 6.43222V22.5678C0 24.2737 0.677679 25.9098 1.88396 27.116C3.09023 28.3223 4.72629 29 6.43222 29H22.5678C24.2737 29 25.9098 28.3223 27.116 27.116C28.3223 25.9098 29 24.2737 29 22.5678V6.43222C29 4.72629 28.3223 3.09023 27.116 1.88396C25.9098 0.677679 24.2737 0 22.5678 0ZM14.6496 4.30435C15.7268 4.32049 16.7751 4.65474 17.6628 5.26508C18.5505 5.87542 19.238 6.73459 19.6387 7.73457C20.0394 8.73454 20.1355 9.83067 19.915 10.8851C19.6944 11.9396 19.167 12.9053 18.3991 13.6608C17.6311 14.4163 16.657 14.928 15.5991 15.1313C14.5412 15.3347 13.4467 15.2208 12.4534 14.8038C11.4601 14.3869 10.6122 13.6855 10.0164 12.788C9.42062 11.8905 9.10347 10.8369 9.10486 9.75959C9.10648 9.03609 9.25166 8.32011 9.532 7.65313C9.81234 6.98615 10.2222 6.38143 10.738 5.87402C11.2537 5.36661 11.865 4.9666 12.5365 4.69715C13.2079 4.42771 13.9262 4.29419 14.6496 4.30435ZM4.59079 24.1662C4.62404 23.7391 4.64194 23.3402 4.68542 22.9437C4.81549 21.8505 5.13119 20.7875 5.61893 19.8005C6.02555 18.9701 6.54732 18.2012 7.1688 17.5166C8.11832 16.4597 9.28231 15.6175 10.5831 15.046C10.6341 15.0191 10.6919 15.0079 10.7493 15.0138C10.8066 15.0197 10.861 15.0425 10.9054 15.0793C11.8059 15.7116 12.8577 16.0945 13.954 16.1893C15.3491 16.3288 16.7512 16.0024 17.9412 15.2609C18.0415 15.2065 18.1373 15.144 18.2276 15.0742C18.2657 15.0404 18.3137 15.0199 18.3645 15.0158C18.4152 15.0116 18.4659 15.024 18.509 15.0512C19.9271 15.6722 21.1813 16.6149 22.1721 17.8046C23.1629 18.9943 23.8631 20.3982 24.2174 21.9054C24.3778 22.5863 24.4636 23.2826 24.4731 23.9821C24.4731 24.0409 24.4731 24.0972 24.4731 24.156L4.59079 24.1662Z" fill="white"/>
</g>
<defs>
<clipPath id="clip0_1_69">
<rect width="29" height="29" fill="white"/>
</clipPath>
</defs>
</svg>
