<svg width="200" height="49" viewBox="0 0 200 49" fill="none" xmlns="http://www.w3.org/2000/svg">
<path d="M73.7137 16.5614H63.1186V22.2467H72.4546V27.0205H63.1186V37.0718H58.1299V11.7637H73.7137V16.5614V16.5614Z" fill="white"/>
<path d="M80.7212 37.0718H75.8037V11.7637H80.7212V37.0718Z" fill="white"/>
<path d="M98.776 37.0703H93.8585V34.5515C92.5044 36.4706 90.8891 37.4301 89.0599 37.4301C87.3257 37.4301 85.9716 36.8544 85.0214 35.7269C84.0711 34.5994 83.5723 33.0402 83.5723 31.0731V18.2871H88.4897V29.6098C88.4897 30.6893 88.7035 31.5049 89.1549 32.0806C89.6062 32.6563 90.2476 32.9442 91.0791 32.9442C91.9343 32.9442 92.5995 32.6563 93.0983 32.0806C93.5735 31.5049 93.8348 30.6893 93.8348 29.6098V18.2871H98.7522V37.0703H98.776Z" fill="white"/>
<path d="M106.805 16.2735H101.674V11.7637H106.805V16.2735ZM106.663 37.0718H101.745V18.2886H106.663V37.0718Z" fill="white"/>
<path d="M126.024 37.0718H121.106V34.481C119.776 36.4481 118.089 37.4316 116.07 37.4316C114.075 37.4316 112.388 36.616 111.01 34.9847C109.632 33.3535 108.943 31.0026 108.943 27.98V27.4283C108.943 24.3817 109.632 22.0548 110.986 20.4236C112.34 18.7924 114.051 17.9767 116.046 17.9767C118.018 17.9767 119.681 18.8883 121.083 20.7115V11.7637H126V37.0718H126.024ZM121.154 27.8841V27.4523C121.154 25.893 120.797 24.6216 120.109 23.6861C119.42 22.7505 118.541 22.2707 117.495 22.2707C116.45 22.2707 115.595 22.7505 114.882 23.6861C114.193 24.6216 113.837 25.893 113.837 27.4523V27.8841C113.837 29.4434 114.193 30.7148 114.882 31.6503C115.571 32.5859 116.45 33.0656 117.495 33.0656C118.541 33.0656 119.396 32.5859 120.109 31.6503C120.821 30.7148 121.154 29.4434 121.154 27.8841Z" fill="white"/>
<path d="M138.543 28.627H128.376V23.7812H138.543V28.627Z" fill="white"/>
<path d="M156.217 37.0709H141.394V11.7148H146.382V32.2492H156.193V37.0709H156.217Z" fill="white"/>
<path d="M163.131 16.2735H157.976V11.7637H163.107V16.2735H163.131ZM162.988 37.0718H158.071V18.2886H162.988V37.0718Z" fill="white"/>
<path d="M181.161 37.0707H176.244V25.7481C176.244 24.6686 176.006 23.8529 175.555 23.2772C175.103 22.7015 174.438 22.4136 173.607 22.4136C172.752 22.4136 172.086 22.7015 171.587 23.2772C171.112 23.8529 170.851 24.6686 170.851 25.7481V37.0707H165.934V18.2876H170.851V20.8064C172.205 18.8873 173.821 17.9277 175.65 17.9277C177.408 17.9277 178.762 18.5035 179.736 19.6309C180.686 20.7584 181.185 22.3177 181.185 24.2847V37.0707H181.161Z" fill="white"/>
<path d="M199.121 27.9065C199.121 28.5302 199.097 29.0819 199.049 29.5617H187.932C188.359 32.0565 189.713 33.3039 191.947 33.3039C193.396 33.3039 194.773 32.7282 196.08 31.5528L198.313 34.5753C196.603 36.4944 194.417 37.454 191.78 37.454C189.262 37.454 187.172 36.5664 185.509 34.8152C183.846 33.0641 183.038 30.7611 183.038 27.9065V27.5467C183.038 24.764 183.798 22.4611 185.342 20.6619C186.887 18.8627 188.834 17.9512 191.186 17.9512C193.728 17.9512 195.676 18.8867 197.054 20.7339C198.432 22.605 199.121 25.0039 199.121 27.9065ZM194.346 26.2273C194.227 24.9079 193.894 23.9004 193.348 23.1327C192.802 22.3891 192.089 22.0053 191.186 22.0053C190.284 22.0053 189.547 22.3651 188.977 23.0848C188.407 23.8044 188.051 24.8599 187.884 26.2033H194.346V26.2273Z" fill="white"/>
<path d="M0.878906 0.0800781V48.9211H49.2457V0.0800781H0.878906ZM11.2364 43.9554H5.93889V23.709H11.2364V43.9554ZM11.2364 12.6262V18.2635H5.93889V5.26164H14.6098C12.543 7.08478 11.2364 9.72354 11.2364 12.6262ZM17.603 43.9554V23.709H23.9458V18.2635H17.603V12.6262C17.603 10.4672 19.4084 8.74 21.6415 8.74H28.4356V35.6553C28.4356 39.1097 30.2173 42.1323 32.9017 43.9554H17.603ZM44.0194 39.5655H38.6031C36.4888 39.5655 34.7784 37.8143 34.7784 35.6793V5.26164H43.9957V39.5655H44.0194Z" fill="white"/>
</svg>
