<svg width="82" height="34" viewBox="0 0 82 34" fill="none" xmlns="http://www.w3.org/2000/svg">
<path d="M15.9607 11.4669H66.6132C66.3764 11.2775 66.258 11.1354 66.1159 11.0407C65.1923 10.4488 64.2689 9.85687 63.369 9.2176C63.1794 9.11423 63.0141 8.97153 62.8841 8.79907C62.7541 8.6266 62.6625 8.42834 62.6154 8.2176C62.5683 8.00685 62.5669 7.7885 62.6111 7.57713C62.6553 7.36576 62.7441 7.16628 62.8717 6.99205C62.9992 6.80831 63.1622 6.65184 63.3509 6.53186C63.5397 6.41188 63.7506 6.3308 63.9711 6.29331C64.1917 6.25583 64.4174 6.26271 64.6353 6.31358C64.8531 6.36445 65.0586 6.45824 65.2397 6.58952C67.8682 8.3179 70.4731 10.0226 73.0779 11.7747C73.3092 11.9074 73.5012 12.0988 73.6348 12.3295C73.7684 12.5603 73.8388 12.8221 73.8388 13.0887C73.8388 13.3553 73.7684 13.6172 73.6348 13.8479C73.5012 14.0786 73.3092 14.27 73.0779 14.4027C70.4968 16.1548 67.8683 17.8832 65.2634 19.5879C64.902 19.8484 64.4541 19.9593 64.0129 19.8975C63.5717 19.8358 63.1713 19.6061 62.8954 19.2564C62.7644 19.0847 62.6711 18.8874 62.6215 18.6773C62.5718 18.4671 62.5668 18.2489 62.607 18.0368C62.6472 17.8247 62.7316 17.6234 62.8548 17.446C62.9779 17.2686 63.1369 17.1191 63.3216 17.0072C64.1978 16.3916 65.1213 15.7996 65.9975 15.2077L66.6843 14.7105H15.9607L16.6238 15.1841L19.2523 16.9361C19.4566 17.0437 19.635 17.1945 19.775 17.378C19.9149 17.5616 20.0131 17.7735 20.0627 17.999C20.1123 18.2244 20.1121 18.458 20.0621 18.6833C20.0121 18.9087 19.9135 19.1204 19.7732 19.3038C19.5009 19.6586 19.1001 19.8921 18.6571 19.9541C18.2142 20.0161 17.7645 19.9016 17.4052 19.6352C14.8003 17.9542 12.1956 16.2258 9.63806 14.4975C9.40174 14.3631 9.2053 14.1685 9.0686 13.9335C8.93191 13.6985 8.85989 13.4316 8.85989 13.1597C8.85989 12.8879 8.93191 12.6209 9.0686 12.386C9.2053 12.151 9.40174 11.9564 9.63806 11.822C12.2192 10.0936 14.824 8.38895 17.4289 6.68425C17.7882 6.41789 18.2379 6.30334 18.6808 6.36535C19.1238 6.42736 19.5246 6.66094 19.7969 7.01571C19.9431 7.19444 20.048 7.40331 20.1038 7.62735C20.1596 7.85139 20.165 8.08503 20.1197 8.31142C20.0744 8.53782 19.9794 8.75137 19.8417 8.93671C19.704 9.12206 19.5271 9.27459 19.3234 9.38335C18.4709 9.97527 17.571 10.5435 16.6948 11.1117L15.9844 11.6326" fill="#0F6D9C"/>
<path d="M40.8963 33.4153H2.08399C0.899966 33.4153 0.165832 32.8234 0.118471 31.9C0.107778 31.6723 0.145584 31.445 0.229328 31.233C0.313073 31.021 0.440838 30.8292 0.604249 30.6703C0.767661 30.5114 0.963067 30.389 1.17733 30.3112C1.39159 30.2334 1.61992 30.202 1.84724 30.219H79.9927C80.224 30.1789 80.4613 30.1898 80.6879 30.251C80.9146 30.3123 81.125 30.4223 81.3046 30.5734C81.4843 30.7246 81.6286 30.9131 81.7277 31.1259C81.8268 31.3387 81.878 31.5706 81.878 31.8053C81.878 32.04 81.8268 32.2719 81.7277 32.4847C81.6286 32.6975 81.4843 32.8861 81.3046 33.0372C81.125 33.1883 80.9146 33.2983 80.6879 33.3595C80.4613 33.4208 80.224 33.4317 79.9927 33.3916H40.8963" fill="#0F6D9C"/>
<path d="M0.0476028 14.8539C0.0357977 14.6805 0.0357977 14.5064 0.0476028 14.333C0.057892 13.915 0.223633 13.5159 0.512424 13.2135C0.801215 12.9111 1.1923 12.7272 1.60944 12.6976C2.02657 12.668 2.43972 12.7949 2.76831 13.0535C3.0969 13.3122 3.31729 13.6839 3.38648 14.0963C3.45748 14.6068 3.45748 15.1247 3.38648 15.6352C3.31679 16.0389 3.09807 16.4016 2.77351 16.6516C2.44896 16.9015 2.04227 17.0204 1.63415 16.9848C1.21527 16.9787 0.815301 16.8096 0.519073 16.5134C0.222845 16.2172 0.0537189 15.8173 0.0476028 15.3985C0.0357275 15.2171 0.0357275 15.0352 0.0476028 14.8539Z" fill="#0F6D9C"/>
<path d="M81.7451 14.9016V15.2331C81.7735 15.4722 81.7508 15.7146 81.6786 15.9443C81.6065 16.1741 81.4865 16.3859 81.3266 16.5659C81.1666 16.7459 80.9703 16.89 80.7506 16.9887C80.5309 17.0873 80.2928 17.1383 80.0519 17.1383C79.8111 17.1383 79.5731 17.0873 79.3534 16.9887C79.1337 16.89 78.9374 16.7459 78.7774 16.5659C78.6175 16.3859 78.4975 16.1741 78.4253 15.9443C78.3532 15.7146 78.3305 15.4722 78.3588 15.2331C78.3352 14.8783 78.3352 14.5224 78.3588 14.1677C78.4258 13.7702 78.6314 13.4094 78.9392 13.1491C79.2469 12.8889 79.637 12.7461 80.0401 12.7461C80.4432 12.7461 80.8333 12.8889 81.1411 13.1491C81.4489 13.4094 81.6545 13.7702 81.7214 14.1677C81.7332 14.3727 81.7332 14.5782 81.7214 14.7832" fill="#0F6D9C"/>
<path d="M0.0476074 8.43706C0.0476074 7.04015 0.663322 6.32987 1.84734 6.37722H2.08409C3.07867 6.54296 3.50496 7.3006 3.4576 8.74486C3.46411 9.17467 3.30789 9.59105 3.02038 9.91066C2.73288 10.2303 2.33534 10.4295 1.90718 10.4684C1.47902 10.5073 1.05188 10.3831 0.711452 10.1206C0.371019 9.85803 0.142423 9.4766 0.071311 9.05267C0.071311 8.8159 0.071311 8.57914 0.071311 8.3187" fill="#0F6D9C"/>
<path d="M3.45755 21.223C3.45459 21.5344 3.41488 21.8443 3.33918 22.1464C3.23597 22.517 3.00692 22.8401 2.69152 23.0604C2.37613 23.2807 1.99393 23.3845 1.61041 23.3539C1.22326 23.3303 0.856195 23.1737 0.571354 22.9105C0.286513 22.6473 0.101477 22.2936 0.0475629 21.9096C0.0238593 21.5312 0.0238593 21.1516 0.0475629 20.7732C0.0442692 20.5557 0.0850848 20.3398 0.167526 20.1386C0.249967 19.9373 0.37236 19.7549 0.527271 19.6022C0.682182 19.4495 0.866385 19.3298 1.06884 19.2503C1.27129 19.1708 1.4878 19.1331 1.70522 19.1395C1.92565 19.1267 2.14632 19.1587 2.35404 19.2335C2.56176 19.3084 2.75211 19.4245 2.91367 19.575C3.07524 19.7255 3.20469 19.9071 3.29408 20.109C3.38348 20.3108 3.43102 20.5287 3.43385 20.7495V21.223" fill="#0F6D9C"/>
<path d="M81.7452 27.5919C81.7452 28.9888 81.1768 29.7228 80.0638 29.7228C78.9509 29.7228 78.3589 28.9651 78.3589 27.5445C78.3589 26.124 79.0693 25.4137 80.277 25.5084C81.4847 25.6031 81.7452 26.2897 81.7452 27.5919Z" fill="#0F6D9C"/>
<path d="M3.43385 2.11594V2.32905C3.43385 3.48919 2.74704 4.24681 1.72878 4.22313C0.71052 4.19946 0.0475602 3.48917 0.0475602 2.30535C0.0357417 2.08453 0.0357417 1.86324 0.0475602 1.64241C0.040574 1.42193 0.0796634 1.20243 0.16232 0.997903C0.244977 0.793375 0.369335 0.608323 0.527557 0.454584C0.68578 0.300845 0.874283 0.181782 1.08112 0.105016C1.28796 0.0282496 1.50855 -0.00454369 1.72878 0.00873666C1.94926 -0.000856785 2.16949 0.0343034 2.376 0.112097C2.58252 0.189891 2.7711 0.308709 2.93043 0.461376C3.08977 0.614043 3.21652 0.797413 3.30304 1.0004C3.38956 1.20338 3.43406 1.42177 3.43385 1.64241V2.11594Z" fill="#0F6D9C"/>
<path d="M81.7214 8.50766C81.7451 8.75965 81.7451 9.01329 81.7214 9.26528C81.6563 9.62946 81.4677 9.96008 81.1874 10.2016C80.9071 10.443 80.552 10.5806 80.1822 10.5912C79.808 10.644 79.4275 10.5574 79.113 10.3478C78.7986 10.1383 78.5724 9.82035 78.4772 9.4547C78.3707 8.84372 78.3707 8.21892 78.4772 7.60794C78.5575 7.21496 78.7881 6.86884 79.1198 6.6433C79.4516 6.41776 79.8582 6.33064 80.2533 6.40046C80.6382 6.41618 81.0042 6.57141 81.2831 6.83716C81.5619 7.10292 81.7347 7.46101 81.7689 7.84468C81.7807 8.0655 81.7807 8.28683 81.7689 8.50766H81.7214Z" fill="#0F6D9C"/>
<path d="M81.8634 21.2689C81.775 21.7417 81.632 22.2025 81.4371 22.6421C81.2767 22.9071 81.0378 23.1156 80.7535 23.2387C80.4692 23.3617 80.1536 23.3932 79.8506 23.3288C79.5432 23.3245 79.2453 23.2207 79.0019 23.0329C78.7585 22.845 78.5827 22.5833 78.5008 22.287C78.3944 21.6522 78.3944 21.0041 78.5008 20.3692C78.5758 19.9767 78.8006 19.6287 79.1276 19.399C79.4547 19.1692 79.8583 19.0756 80.2531 19.138C80.6481 19.1544 81.0232 19.3155 81.307 19.5906C81.5909 19.8656 81.7635 20.2355 81.7922 20.6297C81.8041 20.8347 81.8041 21.0402 81.7922 21.2452H81.9108" fill="#0F6D9C"/>
<path d="M0.0474071 27.5682C0.0474071 26.1239 0.686727 25.4137 1.91811 25.5084H2.08389C3.05479 25.6978 3.45733 26.5028 3.38629 28.0181C3.38083 28.4437 3.21623 28.852 2.92493 29.1625C2.63364 29.473 2.2367 29.6632 1.81217 29.6959C1.38764 29.7285 0.966254 29.6012 0.630891 29.3389C0.295528 29.0766 0.070509 28.6983 0 28.2785C0 28.0417 0 27.805 0 27.5445" fill="#0F6D9C"/>
<path d="M81.745 2.16297C81.7568 2.3601 81.7568 2.55775 81.745 2.75488C81.7048 3.15079 81.5213 3.51838 81.2292 3.78866C80.9371 4.05894 80.5562 4.21331 80.1583 4.22281C79.7623 4.26559 79.3647 4.15787 79.0444 3.921C78.7241 3.68413 78.5047 3.33547 78.4297 2.9443C78.3468 2.41877 78.3468 1.8835 78.4297 1.35798C78.4996 0.949888 78.7219 0.583535 79.0516 0.333012C79.3813 0.0824883 79.7938 -0.0335339 80.2057 0.00840784C80.6143 0.0143252 81.005 0.177643 81.2961 0.464335C81.5873 0.751026 81.7566 1.139 81.7687 1.5474C81.7805 1.75242 81.7805 1.95794 81.7687 2.16297H81.745Z" fill="#0F6D9C"/>
</svg>
