<svg width="55" height="49" viewBox="0 0 55 49" fill="none" xmlns="http://www.w3.org/2000/svg">
<path d="M29.1515 48.9989H5.97636C2.85401 48.9989 1.00462 47.1346 1.00222 43.9377C1.00222 30.0625 1.00222 16.1874 1.00222 2.31222C1.00222 1.87529 0.951777 1.28542 1.19676 1.03539C1.65311 0.566902 2.28959 0.04986 2.87803 0.00373889C3.67303 -0.0545193 4.24707 0.574184 4.33353 1.46019C4.36716 1.82188 4.33353 2.18842 4.33353 2.55254V42.4788C4.33353 45.5689 4.33353 45.569 7.45589 45.569H52.0216C52.341 45.569 52.6604 45.569 52.9823 45.569C54.2288 45.6005 55.0166 46.2972 54.9974 47.3118C54.9782 48.3265 54.1904 48.9916 52.9271 48.9916C45.0011 48.9997 37.0759 49.0021 29.1515 48.9989Z" fill="#0F6D9C"/>
<path d="M47.6768 11.5788C46.1253 11.5788 44.5737 11.5788 43.0245 11.5788C41.7612 11.5788 40.9662 10.9039 40.947 9.87957C40.9278 8.8552 41.7059 8.19251 42.9837 8.18037C45.9075 8.16904 48.8297 8.16904 51.7503 8.18037C53.2491 8.18037 53.8039 8.7241 53.8111 10.2C53.8255 13.1954 53.8255 16.1892 53.8111 19.1814C53.8111 20.4461 53.2106 21.1234 52.1682 21.138C51.0778 21.1574 50.487 20.468 50.4726 19.1305C50.4606 17.5187 50.4726 15.9044 50.4726 13.9771C49.7136 14.7344 49.1324 15.3049 48.5511 15.885C45.3919 19.0989 42.2303 22.3104 39.0663 25.5195C37.1257 27.476 34.3972 27.4954 32.4253 25.5632C31.1307 24.296 29.8866 22.9779 28.604 21.7011C27.6433 20.7496 27.175 20.7569 26.2022 21.7424C22.4362 25.5437 18.6733 29.3467 14.9137 33.1513C14.6591 33.411 14.4141 33.678 14.1475 33.9232C13.3189 34.6733 12.3582 34.7194 11.6857 34.0494C10.9651 33.3212 10.9867 32.3502 11.8154 31.4812C12.925 30.3136 14.0587 29.1727 15.1899 28.027C18.0985 25.0752 21.0023 22.1162 23.9277 19.1814C26.1494 16.9506 28.6617 16.9507 30.893 19.1572C32.1515 20.4033 33.3949 21.6639 34.623 22.9391C35.2379 23.5751 35.9056 23.8397 36.6021 23.1527C40.3761 19.4307 44.139 15.6916 47.8906 11.9356L47.6768 11.5788Z" fill="#0F6D9C"/>
</svg>
