<svg width="39" height="64" viewBox="0 0 39 64" fill="none" xmlns="http://www.w3.org/2000/svg">
<path d="M25.1085 22.2659C25.1085 26.7311 25.1085 31.3303 25.1085 35.8848C25.0874 36.2145 25.1452 36.5445 25.2773 36.8474C25.4093 37.1502 25.6118 37.4173 25.8678 37.6262C27.6651 39.2231 29.0548 41.2262 29.9213 43.4686C30.7878 45.7111 31.1061 48.1282 30.8495 50.5185C30.5928 52.9088 29.7688 55.2031 28.446 57.2107C27.1232 59.2182 25.3398 60.8807 23.2445 62.0598C21.1491 63.239 18.8024 63.9006 16.3996 63.9897C13.9968 64.0787 11.6076 63.5925 9.43069 62.5716C7.25381 61.5507 5.3524 60.0247 3.88464 58.1206C2.41688 56.2164 1.42527 53.9893 0.992432 51.6245C0.478246 49.0698 0.654029 46.4243 1.50175 43.96C2.34947 41.4958 3.83845 39.3018 5.8156 37.6039C6.05092 37.4008 6.23601 37.1459 6.35612 36.8592C6.47624 36.5726 6.52809 36.2619 6.50781 35.9518C6.50781 27.2893 6.50781 18.6268 6.50781 9.98668C6.40013 8.37349 6.71656 6.76021 7.42559 5.30714C8.13462 3.85407 9.21157 2.61181 10.5495 1.70378C11.8869 0.732965 13.4675 0.15219 15.1153 0.0260593C16.7632 -0.100072 18.4138 0.233371 19.8834 0.989329C21.3944 1.63303 22.686 2.70133 23.6016 4.0646C24.5172 5.42786 25.0175 7.02752 25.0416 8.66946C25.0416 13.1346 25.0416 17.7338 25.0416 22.2659H25.1085ZM21.4019 23.4938V9.67408C21.4019 8.19378 20.8137 6.77412 19.7668 5.72739C18.7199 4.68066 17.3 4.0926 15.8194 4.0926C14.3389 4.0926 12.919 4.68066 11.872 5.72739C10.8251 6.77412 10.237 8.19378 10.237 9.67408C10.237 18.8947 10.237 28.1153 10.237 37.336C10.2609 37.8195 10.1606 38.3011 9.94559 38.7349C9.73061 39.1687 9.40816 39.5402 9.00887 39.8141C7.22291 41.0853 5.85814 42.8616 5.09013 44.9146C4.32211 46.9676 4.18586 49.2033 4.69911 51.3343C5.09547 53.1202 5.91803 54.7837 7.09659 56.183C8.27514 57.5823 9.7747 58.6757 11.4674 59.3701C13.1601 60.0645 14.9957 60.3392 16.8176 60.1708C18.6395 60.0024 20.3936 59.3958 21.9302 58.4029C23.4669 57.41 24.7405 56.0602 25.6425 54.4686C26.5445 52.877 27.0481 51.0909 27.1102 49.2626C27.1724 47.4344 26.7913 45.6182 25.9995 43.9691C25.2076 42.3199 24.0286 40.8868 22.5629 39.7918C22.1623 39.5246 21.8383 39.1575 21.6229 38.7268C21.4075 38.2961 21.3082 37.8167 21.3348 37.336C21.4241 32.7145 21.4019 28.1153 21.4019 23.4492V23.4938Z" fill="#0F6D9C"/>
<path d="M33.7056 29.9676H36.4298C36.683 29.9459 36.938 29.9772 37.1785 30.0594C37.4191 30.1416 37.6398 30.273 37.8267 30.4452C38.0137 30.6175 38.1627 30.8267 38.2644 31.0597C38.366 31.2926 38.4181 31.5442 38.4171 31.7983C38.433 32.0449 38.3968 32.2921 38.311 32.5238C38.2252 32.7555 38.0916 32.9666 37.919 33.1434C37.7464 33.3202 37.5384 33.4588 37.3088 33.5501C37.0792 33.6415 36.833 33.6836 36.5861 33.6737C34.6434 33.6737 32.723 33.6737 30.8026 33.6737C30.555 33.6893 30.3069 33.6532 30.074 33.5676C29.8411 33.482 29.6286 33.3488 29.4501 33.1766C29.2715 33.0043 29.1308 32.7968 29.0368 32.5672C28.9429 32.3376 28.8979 32.091 28.9046 31.843C28.9044 31.589 28.9557 31.3376 29.0555 31.104C29.1553 30.8705 29.3015 30.6596 29.4852 30.4843C29.669 30.3089 29.8865 30.1727 30.1244 30.0839C30.3624 29.995 30.6159 29.9555 30.8697 29.9676H33.7056Z" fill="#0F6D9C"/>
<path d="M33.7055 22.4671H36.5413C36.7871 22.4547 37.0328 22.4932 37.2631 22.5803C37.4933 22.6673 37.703 22.801 37.8791 22.9729C38.0552 23.1448 38.1939 23.3512 38.2865 23.5792C38.379 23.8072 38.4235 24.0519 38.417 24.2979C38.4365 24.5453 38.4029 24.7939 38.3183 25.0273C38.2338 25.2606 38.1003 25.4733 37.9269 25.6508C37.7535 25.8284 37.5442 25.9669 37.3129 26.057C37.0817 26.1471 36.8338 26.1867 36.586 26.1732C34.6209 26.1732 32.6559 26.1732 30.6909 26.1732C30.4544 26.1732 30.2203 26.1263 30.0021 26.0352C29.7839 25.944 29.586 25.8104 29.4198 25.6422C29.2537 25.474 29.1225 25.2744 29.034 25.0552C28.9456 24.8359 28.9016 24.6013 28.9045 24.3648C28.8986 24.1177 28.9422 23.8719 29.0326 23.6419C29.1231 23.4119 29.2586 23.2024 29.4313 23.0255C29.604 22.8487 29.8104 22.7082 30.0382 22.6123C30.266 22.5164 30.5107 22.467 30.7579 22.4671H33.7055Z" fill="#0F6D9C"/>
<path d="M33.6613 7.465C34.6214 7.465 35.5593 7.465 36.4972 7.465C36.7435 7.44306 36.9917 7.47312 37.2256 7.5533C37.4596 7.63348 37.6741 7.762 37.8552 7.93042C38.0363 8.09884 38.1798 8.30342 38.2767 8.53095C38.3736 8.75847 38.4216 9.00387 38.4175 9.25112C38.4376 9.50839 38.4018 9.76694 38.3124 10.009C38.223 10.2511 38.0822 10.471 37.8997 10.6534C37.7172 10.8359 37.4973 10.9767 37.2552 11.0661C37.0131 11.1554 36.7545 11.1913 36.4972 11.1711H30.8477C30.5903 11.1872 30.3325 11.1487 30.091 11.0581C29.8495 10.9676 29.6299 10.8272 29.4465 10.6459C29.2631 10.4647 29.12 10.2467 29.0267 10.0063C28.9334 9.76594 28.8919 9.50863 28.905 9.25112C28.9076 9.00583 28.96 8.76358 29.0591 8.53919C29.1583 8.31481 29.302 8.11296 29.4816 7.94589C29.6613 7.77881 29.8731 7.65 30.1041 7.56734C30.3351 7.48467 30.5805 7.44985 30.8253 7.465C31.7855 7.44267 32.7234 7.465 33.6613 7.465Z" fill="#0F6D9C"/>
<path d="M33.6161 18.6938H30.8919C30.6375 18.7123 30.3819 18.678 30.1413 18.5932C29.9008 18.5084 29.6804 18.3748 29.4938 18.2008C29.3073 18.0269 29.1587 17.8163 29.0573 17.5823C28.9559 17.3483 28.9038 17.0959 28.9045 16.8408C28.8969 16.5838 28.9442 16.3281 29.0433 16.0908C29.1423 15.8535 29.2908 15.64 29.4788 15.4647C29.6669 15.2893 29.8902 15.1561 30.1338 15.0738C30.3775 14.9916 30.636 14.9622 30.8919 14.9877C32.7453 14.9877 34.5986 14.9877 36.452 14.9877C36.714 14.959 36.979 14.9858 37.2299 15.0664C37.4809 15.147 37.712 15.2796 37.9082 15.4555C38.1045 15.6314 38.2616 15.8466 38.369 16.0873C38.4765 16.3279 38.532 16.5885 38.532 16.852C38.532 17.1155 38.4765 17.376 38.369 17.6167C38.2616 17.8573 38.1045 18.0726 37.9082 18.2485C37.712 18.4243 37.4809 18.5569 37.2299 18.6375C36.979 18.7181 36.714 18.7449 36.452 18.7162L33.6161 18.6938Z" fill="#0F6D9C"/>
<path d="M13.9212 41.4667V17.8458C13.9212 17.4886 13.9212 17.1538 13.9212 16.8189C13.953 16.3446 14.1597 15.8989 14.5012 15.5682C14.8427 15.2375 15.2948 15.0452 15.77 15.0285C16.2451 15.0119 16.7096 15.172 17.0734 15.478C17.4373 15.784 17.6746 16.214 17.7396 16.6849C17.7619 17.0641 17.7619 17.4443 17.7396 17.8236V41.4667C18.8805 41.7978 19.9324 42.3809 20.8175 43.1731C21.7026 43.9653 22.3982 44.9463 22.8531 46.0435C23.5047 47.5925 23.6071 49.3177 23.1434 50.9329C22.7802 52.2226 22.0841 53.3941 21.1248 54.3296C20.1655 55.2652 18.9767 55.9319 17.6781 56.2628C16.3796 56.5936 15.0168 56.577 13.7267 56.2146C12.4366 55.8522 11.2645 55.1567 10.3283 54.1981C9.39209 53.2394 8.72472 52.0513 8.39312 50.7531C8.06153 49.4549 8.07737 48.0923 8.43919 46.8022C8.801 45.5121 9.49603 44.34 10.4544 43.4034C11.4127 42.4669 12.6006 41.7989 13.8988 41.4667H13.9212ZM15.8862 52.6297C16.3866 52.6297 16.8821 52.5308 17.3441 52.3386C17.8061 52.1465 18.2256 51.8649 18.5783 51.5101C18.9311 51.1553 19.2103 50.7343 19.3998 50.2713C19.5892 49.8082 19.6852 49.3122 19.6823 48.8119C19.6707 47.7793 19.2553 46.7923 18.5249 46.062C17.7946 45.3318 16.8074 44.9165 15.7746 44.9049C14.7643 44.9544 13.8095 45.381 13.0984 46.1002C12.3873 46.8194 11.9718 47.779 11.9339 48.7896C11.9279 49.3092 12.0261 49.8247 12.2229 50.3057C12.4196 50.7866 12.7109 51.2231 13.0795 51.5895C13.448 51.9559 13.8862 52.2446 14.3683 52.4386C14.8505 52.6326 15.3666 52.7279 15.8862 52.7189V52.6297Z" fill="#0F6D9C"/>
</svg>
