<svg width="47" height="54" viewBox="0 0 47 54" fill="none" xmlns="http://www.w3.org/2000/svg">
<path d="M9.05466 16.1576C8.12012 14.2371 7.74022 12.094 7.95759 9.96937C8.17495 7.84474 8.98104 5.8229 10.2851 4.13137C11.2436 2.84031 12.493 1.79338 13.932 1.0756C15.371 0.357818 16.959 -0.0105906 18.5671 0.000231718C21.542 0.000231718 24.5353 0.000231718 27.5102 0.000231718C29.3036 -0.00459869 31.071 0.428329 32.6591 1.2614C34.2472 2.09448 35.6079 3.30253 36.6231 4.78067C37.6382 6.25882 38.2772 7.96234 38.4844 9.74339C38.6917 11.5244 38.461 13.3292 37.8124 15.0009C37.6838 15.3497 37.5368 15.6985 37.3899 16.1025C40.0135 18.1202 42.176 20.6747 43.7326 23.5953C45.2892 26.5158 46.2041 29.735 46.4162 33.0375C46.6283 36.3401 46.1327 39.6499 44.9624 42.7454C43.7921 45.841 41.9743 48.6511 39.6304 50.9877C38.6987 51.948 37.5822 52.7098 36.3482 53.2273C35.1142 53.7448 33.7882 54.0073 32.4501 53.9988H14.0863C12.7186 54.0197 11.3612 53.76 10.0978 53.2357C8.83444 52.7115 7.69188 51.9339 6.74081 50.951C4.47274 48.6687 2.70447 45.9396 1.54843 42.9371C0.39239 39.9346 -0.126101 36.7244 0.025889 33.5107C0.177879 30.297 0.99706 27.1501 2.43131 24.2701C3.86557 21.39 5.88349 18.8399 8.35683 16.7819L9.05466 16.1576ZM23.1764 50.7123H32.1195C33.1583 50.7179 34.1865 50.5031 35.1362 50.0822C36.0858 49.6613 36.9353 49.0437 37.6287 48.2703C39.5931 46.1936 41.0894 43.7199 42.0166 41.016C42.9438 38.3121 43.2805 35.4409 43.0037 32.5959C42.727 29.751 41.8434 26.9984 40.4125 24.5238C38.9816 22.0492 37.0367 19.9101 34.7089 18.2507C33.2214 17.1674 33.1296 16.7268 34.0845 15.111C34.8131 13.9367 35.2152 12.5893 35.2492 11.2078C35.2833 9.82627 34.948 8.46066 34.278 7.25192C33.6081 6.04318 32.6277 5.03511 31.438 4.33163C30.2483 3.62816 28.8924 3.25476 27.5102 3.25004C24.5904 3.25004 21.6706 3.25004 18.7692 3.25004C17.3934 3.25295 16.0432 3.62114 14.8564 4.3169C13.6697 5.01265 12.689 6.01101 12.0147 7.20995C11.3404 8.40889 10.9967 9.76535 11.0187 11.1407C11.0407 12.516 11.4275 13.8608 12.1398 15.0376C13.1498 16.8737 13.0764 17.1858 11.4053 18.3976C9.10904 20.0673 7.19507 22.2072 5.79102 24.6746C4.38696 27.142 3.52502 29.8803 3.26264 32.707C3.00025 35.5337 3.34346 38.3838 4.26937 41.0675C5.19528 43.7511 6.68266 46.2066 8.63233 48.2703C9.35485 49.0625 10.2379 49.6917 11.2227 50.1159C12.2075 50.5402 13.2713 50.7497 14.3434 50.7307L23.1764 50.7123Z" fill="#0F6D9C"/>
<path d="M23.25 6.5007C24.7191 6.5007 26.1882 6.5007 27.6573 6.5007C28.2305 6.48091 28.802 6.57709 29.3372 6.78343C29.8724 6.98978 30.3603 7.30203 30.7718 7.70152C31.1834 8.10101 31.51 8.5795 31.7322 9.10827C31.9543 9.63703 32.0674 10.2052 32.0646 10.7787C32.1281 11.3666 32.0695 11.9612 31.8926 12.5254C31.7156 13.0897 31.4241 13.6113 31.0362 14.0576C30.6484 14.504 30.1726 14.8656 29.6386 15.1196C29.1045 15.3737 28.5238 15.5148 27.9328 15.5341C24.8109 15.6259 21.6707 15.6259 18.5672 15.5341C17.3691 15.5 16.2337 14.9914 15.4106 14.1203C14.5875 13.2491 14.1442 12.0868 14.1783 10.8889C14.2124 9.69095 14.7211 8.55568 15.5924 7.73273C16.4637 6.90979 17.6262 6.46661 18.8243 6.5007C20.2199 6.46397 21.7626 6.5007 23.25 6.5007ZM23.25 9.71381C21.8911 9.71381 20.5138 9.71381 19.1548 9.71381C18.0897 9.71381 17.7041 10.0994 17.7041 11.0358C17.7041 11.9722 18.2551 12.3027 19.1182 12.3027H27.4185C28.4653 12.3027 28.9243 11.8804 28.8876 10.9807C28.8509 10.081 28.2449 9.69544 27.3451 9.71381C25.9311 9.73217 24.5722 9.71381 23.2133 9.71381H23.25Z" fill="#0F6D9C"/>
<path d="M29.2181 28.1113H17.245C16.1598 28.1113 15.28 28.9909 15.28 30.0759C15.28 31.1609 16.1598 32.0405 17.245 32.0405H29.2181C30.3033 32.0405 31.1831 31.1609 31.1831 30.0759C31.1831 28.9909 30.3033 28.1113 29.2181 28.1113Z" fill="#0F6D9C"/>
<path d="M31.7892 35.5469H14.6925C13.6073 35.5469 12.7276 36.4264 12.7276 37.5114C12.7276 38.5965 13.6073 39.476 14.6925 39.476H31.7892C32.8744 39.476 33.7541 38.5965 33.7541 37.5114C33.7541 36.4264 32.8744 35.5469 31.7892 35.5469Z" fill="#0F6D9C"/>
</svg>
