<svg width="59" height="61" viewBox="0 0 59 61" fill="none" xmlns="http://www.w3.org/2000/svg">
<g clip-path="url(#clip0_132_84)">
<path d="M10.2313 39.1823C10.1675 38.9703 10.125 38.8289 10.0754 38.6875C9.21916 36.3523 8.71069 33.9045 8.56625 31.4221C8.38872 28.0408 8.96212 24.6622 10.2455 21.5276C13.5969 13.4069 21.4971 8.9261 28.0298 8.91904C29.787 8.91904 31.5725 9.018 33.3013 9.07454C40.5071 10.6153 45.8495 14.6155 48.8466 21.6901C49.718 23.6518 50.2292 25.7536 50.3558 27.8954C50.4196 29.3655 50.3558 30.8426 50.3558 32.3197C50.355 32.8544 50.3148 33.3882 50.2354 33.9169C49.9561 35.5254 49.517 37.1022 48.9246 38.624C48.875 38.7512 48.8395 38.8784 48.7899 39.0339C48.91 39.07 49.0335 39.0937 49.1584 39.1045C51.0077 39.1045 52.8499 39.1045 54.6921 39.1045C54.758 39.0897 54.8191 39.0587 54.8698 39.0143C54.9206 38.9698 54.9594 38.9134 54.9826 38.8501C55.6573 36.4542 56.045 33.9868 56.1375 31.4999C56.3077 27.2386 55.5285 22.9928 53.856 19.0681C51.8277 14.2398 48.4009 10.1252 44.0144 7.2511C41.0502 5.30997 37.7241 3.98505 34.2348 3.35554C30.7455 2.72603 27.1648 2.80486 23.7068 3.58736C20.2488 4.36985 16.9845 5.83994 14.1091 7.90968C11.2337 9.97941 8.80631 12.6063 6.97203 15.6332C4.38222 19.8142 2.96992 24.6141 2.88375 29.528C2.78313 32.6539 3.16547 35.7766 4.0174 38.7865C4.02328 38.8488 4.04205 38.9092 4.07253 38.9639C4.10302 39.0186 4.14454 39.0664 4.19449 39.1042C4.24443 39.1421 4.30173 39.1692 4.36271 39.1839C4.4237 39.1985 4.48705 39.2004 4.5488 39.1894C6.29889 39.1894 8.04191 39.1894 9.792 39.1894L10.2313 39.1823ZM5.32822 42.1507C7.48883 47.1897 11.1821 51.4243 15.8862 54.2562C20.5903 57.088 26.0676 58.374 31.5441 57.9325C37.5797 57.5433 43.2835 55.0402 47.6492 50.865C50.2506 48.4014 52.3236 45.4368 53.7427 42.1507H5.32822ZM29.4823 39.1752H45.2047C45.4102 39.1752 45.5874 39.1752 45.7149 38.9279C46.6283 37.1736 47.2504 35.2833 47.5571 33.3304C47.6908 32.0013 47.75 30.6658 47.7342 29.3301C47.7892 26.1908 46.8901 23.1084 45.1551 20.4886C41.8604 15.294 37.2124 12.2408 31.1828 11.6895C29.858 11.5731 28.5256 11.5731 27.2008 11.6895C24.8979 11.9404 22.6779 12.6906 20.6964 13.8875C13.9866 17.7818 10.1675 24.6726 11.5279 33.5989C11.8719 35.3772 12.431 37.1073 13.193 38.7512C13.2295 38.8851 13.3137 39.0013 13.4297 39.078C13.5457 39.1547 13.6857 39.1868 13.8236 39.1682H29.4823M29.0572 60.9998C23.4081 60.8684 17.9285 59.049 13.3276 55.7769C8.97419 52.7441 5.47651 48.6448 3.17103 43.8735C0.86556 39.1021 -0.17012 33.8191 0.163681 28.5329C0.497481 23.2468 2.1895 18.1352 5.07696 13.6901C7.96442 9.24498 11.9501 5.61587 16.6507 3.15194C18.4499 2.20265 20.3516 1.4605 22.319 0.93979C27.0404 -0.297638 32.0022 -0.297638 36.7236 0.93979C40.8879 2.06854 44.7466 4.11139 48.0177 6.91895C53.8023 11.7595 57.6044 18.5498 58.7024 26.0013C59.0505 28.2912 59.1124 30.6153 58.8866 32.9204C57.9797 43.0977 53.1333 50.8155 44.9284 56.3423C41.332 58.7603 37.1964 60.2624 32.8833 60.7171C31.6079 60.8585 30.3325 60.915 29.0572 61.0069" fill="#0F6D9C"/>
<path d="M10.2313 39.182C10.1675 38.9699 10.125 38.8286 10.0754 38.6872C9.21916 36.352 8.71069 33.9042 8.56625 31.4218C8.38872 28.0405 8.96212 24.6619 10.2455 21.5273C13.5969 13.4066 21.4971 8.9258 28.0298 8.91873C29.787 8.91873 31.5725 9.0177 33.3013 9.07424C40.5071 10.615 45.8495 14.6152 48.8466 21.6898C49.718 23.6514 50.2292 25.7533 50.3558 27.8951C50.4196 29.3652 50.3558 30.8423 50.3558 32.3194C50.355 32.8541 50.3148 33.3879 50.2354 33.9166C49.9561 35.5251 49.517 37.1019 48.9246 38.6236C48.875 38.7509 48.8395 38.8781 48.7899 39.0336C48.91 39.0697 49.0335 39.0933 49.1584 39.1042C51.0077 39.1042 52.8499 39.1042 54.6921 39.1042C54.758 39.0894 54.8191 39.0584 54.8698 39.014C54.9206 38.9695 54.9594 38.9131 54.9826 38.8498C55.6573 36.4538 56.045 33.9865 56.1375 31.4995C56.3077 27.2383 55.5285 22.9925 53.856 19.0678C51.8277 14.2395 48.4009 10.1249 44.0144 7.2508C41.0502 5.30966 37.7241 3.98474 34.2348 3.35523C30.7455 2.72573 27.1648 2.80456 23.7068 3.58705C20.2488 4.36955 16.9845 5.83964 14.1091 7.90937C11.2337 9.9791 8.80631 12.6059 6.97203 15.6329C4.38222 19.8139 2.96992 24.6138 2.88375 29.5277C2.78313 32.6536 3.16547 35.7763 4.0174 38.7862C4.02328 38.8485 4.04205 38.9089 4.07253 38.9636C4.10302 39.0183 4.14454 39.0661 4.19449 39.1039C4.24443 39.1418 4.30173 39.1689 4.36271 39.1836C4.4237 39.1982 4.48705 39.2001 4.5488 39.189C6.29889 39.189 8.04191 39.189 9.792 39.189L10.2313 39.182ZM5.32822 42.1503C7.48883 47.1894 11.1821 51.424 15.8862 54.2559C20.5903 57.0877 26.0676 58.3737 31.5441 57.9322C37.5797 57.5429 43.2835 55.0399 47.6492 50.8646C50.2506 48.4011 52.3236 45.4365 53.7427 42.1503H5.32822ZM29.4823 39.1749H45.2047C45.4102 39.1749 45.5874 39.1749 45.7149 38.9276C46.6283 37.1733 47.2504 35.283 47.5571 33.3301C47.6908 32.001 47.75 30.6655 47.7342 29.3298C47.7892 26.1905 46.8901 23.1081 45.1551 20.4883C41.8604 15.2937 37.2124 12.2405 31.1828 11.6892C29.858 11.5728 28.5256 11.5728 27.2008 11.6892C24.8979 11.9401 22.6779 12.6903 20.6964 13.8872C13.9866 17.7815 10.1675 24.6723 11.5279 33.5986C11.8719 35.3769 12.431 37.107 13.193 38.7509C13.2295 38.8848 13.3137 39.001 13.4297 39.0777C13.5457 39.1544 13.6857 39.1865 13.8236 39.1679L29.4823 39.1749ZM29.0572 60.9995C23.4081 60.8681 17.9285 59.0487 13.3276 55.7766C8.97419 52.7438 5.47651 48.6445 3.17103 43.8731C0.86556 39.1018 -0.17012 33.8188 0.163681 28.5326C0.497481 23.2465 2.1895 18.1349 5.07696 13.6898C7.96442 9.24467 11.9501 5.61556 16.6507 3.15163C18.4485 2.19919 20.3505 1.45689 22.319 0.939483C27.0515 -0.208994 31.9911 -0.208994 36.7236 0.939483C38.855 1.51047 40.912 2.32883 42.8524 3.3778C44.6976 4.36531 46.4295 5.55021 48.0177 6.91157C53.8023 11.7522 57.6044 18.5424 58.7024 25.9939C59.0505 28.2838 59.1124 30.608 58.8866 32.9131C57.9797 43.0903 53.1333 50.8081 44.9284 56.3349C41.332 58.7529 37.1964 60.255 32.8833 60.7097C31.5725 60.8511 30.2971 60.9076 29.0572 60.9995Z" fill="#0F6D9C"/>
<path d="M29.5531 28.9066C29.7364 28.933 29.9233 28.9168 30.0993 28.8595C30.2752 28.8021 30.4356 28.705 30.5679 28.5758C30.7001 28.4466 30.8008 28.2887 30.8619 28.1144C30.9231 27.9401 30.9432 27.7541 30.9206 27.5708C30.9206 26.6238 30.4813 26.1573 29.5673 26.1573C28.6533 26.1573 28.2211 26.5743 28.214 27.5213C28.1804 27.7076 28.1912 27.899 28.2453 28.0804C28.2995 28.2617 28.3956 28.4277 28.5259 28.5653C28.6562 28.7028 28.817 28.8079 28.9954 28.872C29.1738 28.9362 29.3649 28.9578 29.5531 28.9349M34.442 20.4538H33.7335C33.5534 20.4548 33.3749 20.4199 33.2085 20.3511C33.0421 20.2824 32.8911 20.1812 32.7644 20.0535C32.6377 19.9258 32.5378 19.7742 32.4706 19.6075C32.4034 19.4408 32.3703 19.2623 32.3731 19.0827C32.3634 18.9049 32.3904 18.7269 32.4525 18.56C32.5145 18.393 32.6103 18.2405 32.7338 18.1119C32.8574 17.9834 33.0061 17.8815 33.1707 17.8127C33.3354 17.7438 33.5125 17.7094 33.691 17.7116C34.605 17.6692 35.519 17.6692 36.426 17.6621C36.8511 17.6621 37.2691 17.6621 37.6872 17.7045C38.7216 17.7611 39.1468 18.1074 39.1751 19.1675C39.2176 20.581 39.1751 22.044 39.1113 23.4787C39.1194 23.7843 39.009 24.0812 38.8031 24.3076C38.5972 24.5341 38.3117 24.6726 38.006 24.6943C37.6967 24.743 37.3803 24.6752 37.1184 24.5041C36.8565 24.3329 36.6678 24.0707 36.5889 23.7685C36.4822 23.4387 36.3923 23.1038 36.3197 22.7649C36.2039 22.8322 36.0948 22.9103 35.9937 22.9981C35.1364 23.8604 34.272 24.7297 33.4217 25.6061C33.3618 25.7135 33.3417 25.8387 33.3651 25.9594C33.4855 26.3897 33.5824 26.8262 33.6556 27.2669C33.6994 27.6451 33.6754 28.028 33.5847 28.3977C33.3633 29.4165 32.7787 30.3206 31.9394 30.9419C31.1002 31.5632 30.0635 31.8596 29.0217 31.776C28.7236 31.7401 28.4337 31.6541 28.1644 31.5216C28.0763 31.463 27.9689 31.4405 27.8646 31.459C27.7603 31.4774 27.6672 31.5353 27.6047 31.6205C26.8394 32.4262 26.0529 33.2178 25.2735 34.0023C25.1221 34.1991 24.9267 34.3579 24.7027 34.4659C24.4788 34.5739 24.2327 34.6281 23.984 34.6242C23.7466 34.6051 23.5193 34.5193 23.3287 34.3767C23.1381 34.2341 22.9919 34.0406 22.907 33.8186C22.7925 33.6312 22.7319 33.416 22.7319 33.1966C22.7319 32.9772 22.7925 32.762 22.907 32.5747C23.089 32.3238 23.2903 32.0874 23.5093 31.8679C24.2178 31.1612 24.8626 30.4544 25.5641 29.7476C25.6655 29.6642 25.736 29.5492 25.7643 29.4211C25.7926 29.293 25.7769 29.1591 25.7199 29.0409C24.7421 26.4966 26.7969 23.7685 29.0784 23.4858C29.7384 23.3981 30.41 23.4833 31.0269 23.7332C31.0882 23.7648 31.1563 23.7812 31.2253 23.7812C31.2943 23.7812 31.3624 23.7648 31.4237 23.7332C32.4086 22.7437 33.3651 21.7401 34.3358 20.7365C34.3735 20.6803 34.4067 20.6212 34.435 20.5598" fill="#0F6D9C"/>
<path d="M29.5531 28.9056C29.7364 28.9319 29.9233 28.9158 30.0993 28.8584C30.2752 28.801 30.4356 28.704 30.5679 28.5748C30.7001 28.4456 30.8008 28.2877 30.8619 28.1134C30.9231 27.9391 30.9432 27.7531 30.9206 27.5698C30.9206 26.6227 30.4813 26.1563 29.5673 26.1563C28.6533 26.1563 28.2211 26.5733 28.214 27.5203C28.1854 27.7044 28.1999 27.8926 28.2563 28.0703C28.3127 28.2479 28.4095 28.4101 28.5392 28.5442C28.6688 28.6783 28.8278 28.7807 29.0037 28.8434C29.1796 28.9061 29.3676 28.9274 29.5531 28.9056ZM34.442 20.4245H33.7335C33.5534 20.4255 33.3749 20.3905 33.2085 20.3218C33.0421 20.2531 32.8911 20.1519 32.7644 20.0242C32.6377 19.8965 32.5378 19.7449 32.4706 19.5782C32.4034 19.4115 32.3703 19.233 32.3731 19.0534C32.3634 18.8756 32.3904 18.6976 32.4525 18.5307C32.5145 18.3637 32.6103 18.2112 32.7338 18.0826C32.8574 17.9541 33.0061 17.8522 33.1707 17.7834C33.3354 17.7145 33.5125 17.6801 33.691 17.6823C34.605 17.6399 35.519 17.6399 36.426 17.6328C36.8511 17.6328 37.2691 17.6328 37.6872 17.6752C38.7216 17.7318 39.1468 18.0781 39.1751 19.1382C39.2176 20.5517 39.1751 22.0147 39.1113 23.4494C39.1194 23.755 39.009 24.0519 38.8031 24.2784C38.5972 24.5048 38.3117 24.6433 38.006 24.665C37.6967 24.7137 37.3803 24.6459 37.1184 24.4748C36.8565 24.3036 36.6678 24.0414 36.5889 23.7392C36.4822 23.4094 36.3923 23.0745 36.3197 22.7356C36.2039 22.8029 36.0948 22.881 35.9937 22.9688C35.1364 23.831 34.272 24.7004 33.4217 25.5767C33.3618 25.6842 33.3417 25.8093 33.3651 25.9301C33.4855 26.3604 33.5824 26.7969 33.6556 27.2376C33.6994 27.6158 33.6754 27.9987 33.5847 28.3684C33.3633 29.3872 32.7787 30.2913 31.9394 30.9126C31.1002 31.5339 30.0635 31.8303 29.0217 31.7467C28.7236 31.7109 28.4337 31.6248 28.1644 31.4923C28.0763 31.4336 27.9689 31.4112 27.8646 31.4296C27.7603 31.4481 27.6672 31.506 27.6047 31.5912C26.8394 32.3969 26.0529 33.1885 25.2735 33.973C25.1221 34.1698 24.9267 34.3286 24.7027 34.4366C24.4788 34.5446 24.2327 34.5988 23.984 34.5949C23.7466 34.5758 23.5193 34.49 23.3287 34.3474C23.1381 34.2048 22.9919 34.0113 22.907 33.7892C22.7925 33.6019 22.7319 33.3867 22.7319 33.1673C22.7319 32.9478 22.7925 32.7327 22.907 32.5453C23.089 32.2944 23.2903 32.0581 23.5093 31.8386C24.2178 31.1318 24.8626 30.4251 25.5641 29.7183C25.6655 29.6348 25.736 29.5199 25.7643 29.3918C25.7926 29.2636 25.7769 29.1298 25.7199 29.0115C24.7421 26.4672 26.7969 23.7392 29.0784 23.4565C29.7384 23.3687 30.41 23.454 31.0269 23.7039C31.0882 23.7355 31.1563 23.752 31.2253 23.752C31.2943 23.752 31.3624 23.7355 31.4237 23.7039C32.4086 22.7144 33.3651 21.7108 34.3358 20.7072C34.3839 20.6107 34.4196 20.5086 34.442 20.4033V20.4245Z" fill="#0F6D9C"/>
</g>
<defs>
<clipPath id="clip0_132_84">
<rect width="59" height="61" fill="white"/>
</clipPath>
</defs>
</svg>
