<svg width="71" height="76" viewBox="0 0 71 76" fill="none" xmlns="http://www.w3.org/2000/svg">
<path d="M70.8759 37.8225C70.4055 38.611 69.8204 39.3252 69.1399 39.9416C68.3527 40.8095 67.5049 41.6168 66.7378 42.5048C66.3745 42.9286 65.9707 43.2919 65.5872 43.7158C65.3624 43.9879 65.0486 44.1716 64.7012 44.2344C64.3539 44.2972 63.9955 44.2351 63.6897 44.0589C63.3856 43.8681 63.1508 43.5847 63.02 43.2504C62.8891 42.9161 62.8692 42.5486 62.963 42.2021C63.0381 41.9164 63.1919 41.6577 63.4071 41.4553L65.2037 39.538C65.2037 39.538 65.4257 39.3967 65.4257 39.215C65.2737 39.1739 65.1135 39.1739 64.9614 39.215H60.5205C60.0869 39.215 59.671 39.0428 59.3643 38.7362C59.0577 38.4296 58.8854 38.0138 58.8854 37.5803C58.8854 37.1467 59.0577 36.7309 59.3643 36.4243C59.671 36.1177 60.0869 35.9455 60.5205 35.9455H65.2037C65.3248 35.9455 65.5064 35.9455 65.567 35.9455C65.6275 35.9455 65.4459 35.7437 65.3652 35.663L63.3466 33.5236C63.1779 33.3757 63.0407 33.1955 62.943 32.9936C62.8453 32.7918 62.789 32.5723 62.7777 32.3483C62.7664 32.1244 62.8003 31.9004 62.8772 31.6897C62.9541 31.479 63.0725 31.2859 63.2255 31.1219C63.3763 30.9682 63.5577 30.8479 63.7581 30.7689C63.9585 30.69 64.1732 30.6541 64.3884 30.6636C64.6036 30.6731 64.8144 30.7278 65.007 30.8242C65.1996 30.9205 65.3697 31.0563 65.5064 31.2228L70.2299 36.2482C70.4541 36.5047 70.6317 36.7985 70.7548 37.1161L70.8759 37.8225Z" fill="#0F6D9C"/>
<path d="M0.124023 36.9139C0.446786 36.2977 0.893427 35.7548 1.43604 35.3194C2.08199 34.6938 2.68757 34.0278 3.33352 33.3012C3.97948 32.5746 4.78697 31.7875 5.53385 31.0408C5.67529 30.8961 5.84576 30.7829 6.03406 30.7089C6.22237 30.6348 6.42418 30.6014 6.62631 30.611C6.82844 30.6205 7.02624 30.6727 7.20673 30.7642C7.38723 30.8557 7.54637 30.9843 7.67356 31.1417C7.94459 31.4479 8.09418 31.8428 8.09418 32.2517C8.09418 32.6607 7.94459 33.0555 7.67356 33.3617L5.79628 35.38C5.79628 35.4809 5.55401 35.5818 5.63476 35.7231C5.7155 35.8644 5.85675 35.7231 5.95768 35.7231H10.3986C10.6392 35.711 10.8791 35.7579 11.0973 35.86C11.3155 35.962 11.5053 36.116 11.6501 36.3084C11.8486 36.505 11.9791 36.7598 12.0227 37.0356C12.0663 37.3115 12.0206 37.5941 11.8924 37.8423C11.6098 38.4679 11.2061 38.9927 10.4794 38.9927H6.01829C5.86603 38.9534 5.70632 38.9534 5.55406 38.9927C5.55406 39.1945 5.73564 39.2752 5.83657 39.3762C6.46233 40.0624 7.10828 40.7486 7.85516 41.3944C8.12034 41.6762 8.28383 42.0385 8.31952 42.4237C8.37935 42.7444 8.31152 43.0758 8.13053 43.3472C7.94954 43.6187 7.66961 43.8087 7.35051 43.8769C7.00051 44.0301 6.60836 44.0575 6.24043 43.9545C5.8725 43.8515 5.55145 43.6244 5.33192 43.3117C4.76671 42.6053 4.10061 41.9595 3.47484 41.2935C2.54629 40.3247 1.67832 39.2752 0.729578 38.4074C0.53186 38.1681 0.356179 37.9114 0.204723 37.6404L0.124023 36.9139Z" fill="#0F6D9C"/>
<path d="M35.8934 0C36.4498 0.283584 36.9281 0.699415 37.2862 1.21096L41.3234 5.5502C41.6272 5.8327 41.8265 6.20972 41.8887 6.61987C41.9199 6.95569 41.8549 7.29348 41.7012 7.5937C41.5474 7.89393 41.3114 8.1442 41.0207 8.31522C40.7332 8.45369 40.4085 8.49508 40.0954 8.4332C39.7824 8.37133 39.4978 8.20954 39.2846 7.97212L37.3871 5.95387L37.1853 5.75203C37.1478 5.81266 37.1279 5.88257 37.1279 5.95387C37.1279 6.02518 37.1478 6.09505 37.1853 6.15568C37.3064 7.26572 37.1853 8.39594 37.1853 9.52616C37.2461 10.0356 37.2461 10.5506 37.1853 11.06C37.1424 11.4147 36.977 11.7431 36.7177 11.9889C36.4585 12.2346 36.1215 12.3821 35.765 12.4061C35.4085 12.43 35.055 12.3288 34.7652 12.1199C34.4754 11.911 34.2676 11.6075 34.1776 11.2619C34.1169 10.9147 34.1169 10.5596 34.1776 10.2124C34.2443 9.54129 34.2443 8.86523 34.1776 8.19413C34.1376 7.68363 34.1376 7.17075 34.1776 6.66024C34.1776 6.37769 34.1776 6.09513 34.1776 5.81258H34.0363L32.6637 7.38681C32.4013 7.66937 32.159 7.95193 31.8764 8.2143C31.5787 8.48661 31.1899 8.63763 30.7864 8.63763C30.3829 8.63763 29.994 8.48661 29.6963 8.2143C29.3918 7.90476 29.2212 7.48799 29.2212 7.05382C29.2212 6.61964 29.3918 6.20287 29.6963 5.89333C31.3313 4.15763 32.9665 2.4421 34.5814 0.706401C34.7832 0.484393 35.0455 0.403652 35.2272 0.222009L35.8934 0Z" fill="#0F6D9C"/>
<path d="M31.7151 47.2482C31.7151 44.019 31.7151 40.7898 31.7151 37.5606C31.7421 37.3826 31.7038 37.2008 31.6074 37.0488C31.5109 36.8967 31.3628 36.7846 31.1902 36.7331C28.5055 35.6634 25.8409 34.5534 23.1158 33.4635L16.2122 30.6581C15.7278 30.4563 15.7076 30.4765 15.7076 31.0214V50.2958C15.7076 51.0829 15.7077 51.0829 16.4142 51.3654L24.0646 54.4332L31.2104 57.3395C31.6545 57.5211 31.6546 57.5211 31.6546 57.0165V47.2482M12.7806 40.1035V28.2161C12.7599 28.0418 12.7599 27.8656 12.7806 27.6913C12.802 27.4652 12.8784 27.2477 13.0031 27.0579C13.1278 26.868 13.297 26.7115 13.4961 26.6021C13.6951 26.4926 13.918 26.4335 14.1451 26.4299C14.3722 26.4262 14.5968 26.4782 14.7992 26.5813L21.4405 29.2857L29.5149 32.5553C30.9682 33.1608 32.4216 33.7864 33.9154 34.3515C34.1813 34.4922 34.402 34.7051 34.552 34.9658C34.702 35.2265 34.7752 35.5243 34.7632 35.8249V59.5999C34.8104 60.1142 34.6588 60.6271 34.3393 61.0329C34.161 61.2855 33.9013 61.4694 33.6038 61.5538C33.3063 61.6383 32.9887 61.6183 32.7042 61.497L27.5568 59.3577L19.2806 55.9671L13.7496 53.6662C13.438 53.5583 13.1724 53.3477 12.9963 53.069C12.8203 52.7903 12.7441 52.46 12.7806 52.1324C12.7806 49.2261 12.7806 46.3198 12.7806 43.4135V40.1035Z" fill="#0F6D9C"/>
<path d="M39.1234 47.2672V57.1566C39.1234 57.7015 39.1234 57.6814 39.6079 57.4998L43.2413 56.0264L54.606 51.4248C54.7631 51.3863 54.9 51.2903 54.9897 51.1558C55.0794 51.0212 55.1154 50.8579 55.0905 50.6982V31.0404C55.0905 30.4753 55.0905 30.4551 54.5656 30.6569C52.547 31.4642 50.5284 32.2917 48.6309 33.0788L39.9308 36.5301C38.9619 36.9135 39.1234 36.7117 39.1234 37.7612V47.1864M58.1588 40.0217V52.2523C58.1619 52.5301 58.0806 52.8024 57.9256 53.033C57.7706 53.2637 57.5493 53.4418 57.2908 53.5439L47.5612 57.5804L38.0737 61.4555C37.8909 61.5138 37.6981 61.5343 37.5071 61.5156C37.3161 61.497 37.1309 61.4396 36.9628 61.3471C36.7947 61.2546 36.6472 61.1288 36.5293 60.9774C36.4115 60.826 36.3256 60.6522 36.2771 60.4665C36.2484 60.2184 36.2484 59.9679 36.2771 59.7198C36.2771 52.5146 36.2771 45.3095 36.2771 38.1043C36.2771 37.3374 36.2771 36.5906 36.2771 35.8439C36.2424 35.498 36.3278 35.1507 36.519 34.8604C36.7101 34.57 36.9954 34.3543 37.3269 34.2494L45.4012 30.9395C47.9447 29.9102 50.4881 28.9213 53.0114 27.791L56.1805 26.5397C56.4119 26.434 56.6674 26.3918 56.9206 26.4175C57.1737 26.4431 57.4156 26.5357 57.6211 26.6857C57.8267 26.8357 57.9885 27.0378 58.09 27.271C58.1916 27.5043 58.2293 27.7604 58.1991 28.013V40.1226L58.1588 40.0217Z" fill="#0F6D9C"/>
<path d="M51.8408 23.4111L51.6188 23.29L45.4418 20.7066L36.0755 16.8114C35.899 16.7271 35.7058 16.6834 35.5103 16.6834C35.3147 16.6834 35.1216 16.7271 34.9451 16.8114L29.7573 18.9709L20.936 22.6239L19.2202 23.3707C19.3299 23.4871 19.4696 23.5709 19.6239 23.6129L23.3987 25.1669L35.2882 30.1117C35.3512 30.1421 35.4201 30.1578 35.4901 30.1578C35.56 30.1578 35.629 30.1421 35.692 30.1117L40.0925 28.275L49.1156 24.5211L51.8408 23.4111ZM35.692 33.3207C35.4775 33.3217 35.2649 33.2806 35.0662 33.1996L29.3536 30.8786L23.3584 28.4567L15.1427 25.1266C14.813 25.0163 14.4895 24.8883 14.1737 24.7431C13.908 24.5834 13.6954 24.3487 13.5626 24.0687C13.4297 23.7887 13.3825 23.4756 13.4268 23.1689C13.4297 22.8813 13.5228 22.6019 13.693 22.3702C13.8633 22.1384 14.1021 21.966 14.3756 21.8772C15.9501 21.2515 17.5044 20.5653 19.0991 19.8589L26.2652 16.9324C28.9297 15.8426 31.574 14.7729 34.2183 13.6427C34.5852 13.4728 34.9848 13.3848 35.3891 13.3848C35.7935 13.3848 36.1931 13.4728 36.56 13.6427C39.8301 15.0151 43.1204 16.3472 46.4107 17.6792L56.5037 21.857C56.7778 21.9647 57.012 22.1543 57.1746 22.3998C57.3371 22.6454 57.4201 22.9351 57.4121 23.2294C57.442 23.5586 57.366 23.8887 57.1954 24.1718C57.0248 24.4549 56.7683 24.6762 56.4633 24.8037L48.3889 28.1136L41.4047 30.9997L36.1966 33.1592C36.023 33.1898 35.8454 33.1898 35.6718 33.1592" fill="#0F6D9C"/>
<path d="M33.9761 68.8214C33.8751 67.3279 33.9761 65.8546 33.9761 64.3611C33.9463 64.1152 33.9751 63.8658 34.0598 63.6331C34.1446 63.4004 34.283 63.191 34.4639 63.0219C34.6449 62.8528 34.8633 62.7287 35.1012 62.6598C35.3391 62.5909 35.5899 62.5791 35.8333 62.6253C36.1299 62.6997 36.3993 62.8569 36.6102 63.0784C36.821 63.2999 36.9645 63.5767 37.0242 63.8766C37.0849 64.3051 37.0849 64.7399 37.0242 65.1684C36.9737 65.7593 36.9737 66.3535 37.0242 66.9444C37.0242 67.7517 37.0242 68.559 37.0242 69.3663C37.0242 69.4874 37.0242 69.6489 37.0242 69.7094C37.0242 69.77 37.226 69.6085 37.3068 69.5278C37.9729 68.7003 38.7804 68.0343 39.4465 67.2068C39.7149 66.9406 40.0777 66.7912 40.4558 66.7912C40.8339 66.7912 41.1967 66.9406 41.4651 67.2068C41.7623 67.512 41.9286 67.9212 41.9286 68.3471C41.9286 68.7731 41.7623 69.1822 41.4651 69.4874L39.0225 72.0909L36.7819 74.4725C36.6209 74.6588 36.4233 74.81 36.2014 74.9167C35.9794 75.0234 35.7378 75.0834 35.4917 75.0928C35.2456 75.1023 35.0003 75.0611 34.7709 74.9717C34.5414 74.8824 34.3327 74.7468 34.1578 74.5734C33.3302 73.7258 32.5227 72.8579 31.7354 72.0102C30.9482 71.1625 30.4032 70.5571 29.7168 69.8709C29.489 69.6811 29.3058 69.4435 29.1802 69.1749C29.0546 68.9063 28.9897 68.6133 28.9902 68.3168C28.9926 67.959 29.1185 67.613 29.3465 67.3373C29.5745 67.0615 29.8907 66.8728 30.2417 66.8031C30.5025 66.6658 30.8035 66.6248 31.0916 66.6876C31.3796 66.7504 31.6363 66.9128 31.8163 67.1463C32.442 67.7719 33.0273 68.4177 33.6329 69.0434C33.7339 69.1645 33.8348 69.3865 33.9963 69.3057C34.1577 69.225 33.9963 69.0232 33.9963 68.8819V68.8214" fill="#0F6D9C"/>
</svg>
