<svg width="24" height="25" viewBox="0 0 24 25" fill="none" xmlns="http://www.w3.org/2000/svg">
<g clip-path="url(#clip0_1_320)">
<path d="M18.5849 0.828125H5.29493C3.89063 0.828125 2.54383 1.38597 1.55084 2.37896C0.557845 3.37195 4.19249e-07 4.71872 4.19249e-07 6.12302V19.413C-0.000276364 20.1084 0.136496 20.7971 0.402493 21.4396C0.668489 22.0821 1.05848 22.666 1.55022 23.1577C2.04195 23.6494 2.62579 24.0394 3.26832 24.3054C3.91086 24.5714 4.59951 24.7082 5.29493 24.7079H18.5849C19.9892 24.7079 21.336 24.1501 22.329 23.1571C23.3219 22.1641 23.8798 20.8173 23.8798 19.413V6.12302C23.8792 4.7189 23.3212 3.37245 22.3283 2.37958C21.3355 1.38671 19.989 0.828683 18.5849 0.828125ZM11.8198 4.64659C12.9279 4.65105 13.989 5.09481 14.7704 5.88053C15.5518 6.66624 15.9896 7.72981 15.988 8.83791C15.9885 9.38851 15.8802 9.93379 15.6693 10.4424C15.4583 10.951 15.1489 11.4128 14.7587 11.8014C14.3686 12.1899 13.9055 12.4975 13.3961 12.7064C12.8867 12.9153 12.341 13.0214 11.7904 13.0187C10.6828 13.0153 9.62195 12.5724 8.84079 11.7873C8.05963 11.0022 7.6221 9.93911 7.62434 8.83159C7.62378 8.28087 7.73199 7.73546 7.94274 7.22666C8.15349 6.71786 8.46265 6.25567 8.85246 5.86664C9.24227 5.47762 9.70506 5.16942 10.2143 4.95969C10.7235 4.74997 11.2691 4.64287 11.8198 4.64454V4.64659ZM13.6122 16.5697C14.355 17.3139 15.0978 18.058 15.8405 18.8022C15.9679 18.9287 16.0658 19.0818 16.127 19.2505C16.1883 19.4192 16.2116 19.5993 16.1951 19.7781C16.1786 19.9568 16.1227 20.1297 16.0316 20.2843C15.9404 20.4389 15.8162 20.5715 15.6678 20.6725C15.4447 20.8292 15.1747 20.9048 14.9027 20.8868C14.6306 20.8688 14.373 20.7582 14.1724 20.5735C13.6227 20.0449 13.0899 19.4994 12.5507 18.9602L11.8978 18.3073L11.8072 18.223L11.7019 18.322C10.9718 19.0536 10.2416 19.7851 9.51149 20.5166C9.40293 20.6316 9.27246 20.7236 9.12777 20.7872C8.98307 20.8509 8.82709 20.8849 8.66902 20.8873C8.50924 20.8918 8.35014 20.8647 8.20084 20.8077C8.05154 20.7506 7.91498 20.6646 7.79896 20.5546C7.68295 20.4447 7.58976 20.3129 7.52474 20.1669C7.45972 20.0209 7.42414 19.8634 7.42005 19.7037C7.41436 19.5297 7.44581 19.3565 7.51227 19.1956C7.57873 19.0347 7.67869 18.8899 7.8055 18.7706C8.53423 18.0461 9.25875 17.3174 9.98538 16.5928C10.0283 16.5549 10.0741 16.5204 10.1223 16.4896L10.1033 16.4496L9.958 16.4054C9.15466 16.2047 8.38829 15.8777 7.68754 15.4365C7.4567 15.2924 7.2807 15.0752 7.18758 14.8195C7.09445 14.5638 7.08956 14.2843 7.17364 14.0254C7.25803 13.7688 7.42471 13.5471 7.64784 13.3948C7.87097 13.2425 8.13811 13.168 8.40786 13.183C8.6328 13.1991 8.85007 13.2715 9.03971 13.3936C9.74404 13.8317 10.544 14.0926 11.3712 14.1539C12.5135 14.2544 13.6573 13.9777 14.6274 13.3662C14.8319 13.2385 15.0687 13.172 15.3098 13.1745C15.604 13.1814 15.8859 13.294 16.104 13.4916C16.3221 13.6892 16.4618 13.9587 16.4977 14.2508C16.5301 14.4868 16.491 14.7271 16.3855 14.9407C16.28 15.1543 16.1129 15.3314 15.9058 15.4492C15.2231 15.8785 14.4767 16.197 13.6944 16.3928L13.5006 16.4454L13.6122 16.5697Z" fill="#8E8E8E"/>
<path d="M11.7928 10.5738C12.2563 10.5766 12.7019 10.3955 13.032 10.0701C13.3621 9.74476 13.5497 9.3018 13.5536 8.83833C13.5542 8.37849 13.3738 7.93684 13.0514 7.60893C12.729 7.28102 12.2905 7.09318 11.8307 7.08598C11.3652 7.08262 10.9174 7.26418 10.5857 7.59078C10.2539 7.91737 10.0654 8.36229 10.0615 8.82779C10.0637 9.28765 10.2463 9.72829 10.5701 10.0548C10.8939 10.3814 11.333 10.5678 11.7928 10.5738Z" fill="#8E8E8E"/>
</g>
<defs>
<clipPath id="clip0_1_320">
<rect width="23.8819" height="23.8819" fill="white" transform="translate(0 0.824219)"/>
</clipPath>
</defs>
</svg>
