<svg width="24" height="24" viewBox="0 0 24 24" fill="none" xmlns="http://www.w3.org/2000/svg">
<path d="M18.5849 0H5.29493C3.89062 0 2.54384 0.557845 1.55085 1.55084C0.557858 2.54383 0 3.8906 0 5.2949V18.5849C0 19.9892 0.557858 21.336 1.55085 22.3289C2.54384 23.3219 3.89062 23.8798 5.29493 23.8798H18.5849C19.989 23.8792 21.3355 23.3212 22.3283 22.3283C23.3212 21.3355 23.8792 19.989 23.8798 18.5849V5.2949C23.8792 3.89077 23.3212 2.54432 22.3283 1.55145C21.3355 0.558583 19.989 0.000558191 18.5849 0ZM20.6531 11.4934C19.3894 11.5861 18.1068 11.6113 16.8494 11.7798C13.9913 12.1568 12.4412 13.7828 12.1484 16.6535C12.0115 18.0036 11.9378 19.362 11.704 20.729C11.6787 20.4994 11.6492 20.2698 11.6303 20.0402C11.5144 18.6586 11.4786 17.2664 11.2743 15.8974C10.9542 13.7575 9.51359 12.2664 7.38846 11.9104C5.95837 11.6724 4.49458 11.6261 3.04342 11.4892C2.80753 11.4681 2.56954 11.4555 2.33364 11.4408C2.33364 11.386 2.33364 11.3333 2.33364 11.2786C3.73425 11.1712 5.14328 11.1206 6.53336 10.9458C9.5852 10.5582 11.0953 8.99757 11.4218 5.94362C11.5355 4.86526 11.5566 3.77427 11.6324 2.68959C11.6305 2.43438 11.7143 2.1859 11.8704 1.984C11.9188 2.89176 11.9315 3.80161 12.0263 4.70305C12.0959 5.62604 12.241 6.54177 12.4601 7.44108C12.9825 9.33664 14.282 10.4887 16.2091 10.811C17.5739 11.0342 18.9661 11.0848 20.3477 11.2027C20.6384 11.228 20.9333 11.2027 21.226 11.2027C21.226 11.2764 21.2408 11.3502 21.2471 11.4239C21.047 11.4492 20.849 11.4787 20.6531 11.4934Z" fill="#8E8E8E"/>
</svg>
