<svg width="24" height="24" viewBox="0 0 24 24" fill="none" xmlns="http://www.w3.org/2000/svg">
<g clip-path="url(#clip0_1_315)">
<path d="M4.27665 11.8428C5.42357 12.2429 6.5705 12.641 7.71538 13.0454C7.75426 13.0615 7.79642 13.0672 7.83799 13.062C7.87956 13.0569 7.91921 13.041 7.95332 13.0159C9.01076 12.3335 10.0696 11.6532 11.1297 10.975C12.4393 10.1325 13.7489 9.29357 15.0585 8.45812C15.2082 8.36217 15.3638 8.27635 15.5242 8.20117C15.5402 8.1896 15.5582 8.18152 15.5773 8.17747C15.5964 8.17342 15.6161 8.17348 15.6351 8.17762C15.6542 8.18177 15.6722 8.18993 15.6881 8.20158C15.704 8.21324 15.7175 8.22815 15.7276 8.24539C15.7498 8.28279 15.7601 8.32644 15.7572 8.37024C15.7543 8.41405 15.7383 8.45581 15.7113 8.48969C15.6699 8.54063 15.6257 8.58919 15.5791 8.63506L12.4048 11.7016L9.6615 14.3533C9.62848 14.3869 9.60642 14.4304 9.59845 14.4776C9.46288 15.3032 9.33544 16.1295 9.21614 16.9566C9.19174 17.1145 9.17141 17.2704 9.14904 17.4262L9.17141 17.4388L11.3453 15.3853L11.4225 15.4422L13.5618 17.144L14.965 18.256C15.1683 18.4161 15.3432 18.3571 15.3859 18.1233C15.5405 17.2921 15.6964 16.4609 15.8536 15.6297C16.0624 14.5064 16.2739 13.3872 16.4881 12.2724L17.1592 8.69188L17.6533 6.06127C17.6533 6.03178 17.6533 6.00023 17.6696 5.94336L4.21973 11.8069L4.27665 11.8428Z" fill="#8E8E8E"/>
<path d="M17.944 4.19026e-07H5.11435C4.44282 -0.000276238 3.77783 0.136445 3.15734 0.402415C2.53684 0.668386 1.97302 1.05836 1.49808 1.55006C1.02314 2.04177 0.646379 2.62557 0.389333 3.26812C0.132287 3.91067 -5.31259e-08 4.59938 0 5.2949V18.5849C0.00053919 19.9894 0.539602 21.3361 1.49867 22.329C2.45775 23.322 3.75829 23.8798 5.11435 23.8798H17.944C19.3001 23.8798 20.6006 23.322 21.5597 22.329C22.5188 21.3361 23.0578 19.9894 23.0584 18.5849V5.2949C23.0584 4.59938 22.9261 3.91067 22.669 3.26812C22.412 2.62557 22.0352 2.04177 21.5603 1.55006C21.0854 1.05836 20.5215 0.668386 19.901 0.402415C19.2805 0.136445 18.6156 -0.000276238 17.944 4.19026e-07ZM18.7981 6.71024C18.6578 7.48532 18.5073 8.26039 18.3609 9.02704L17.9765 11.07C17.8423 11.7735 17.7101 12.4769 17.5698 13.1762C17.4017 14.072 17.2323 14.9678 17.0614 15.8637C16.8967 16.7419 16.7463 17.6223 16.5653 18.4943C16.517 18.7351 16.4066 18.9578 16.2458 19.1388C16.085 19.3198 15.8799 19.4523 15.6522 19.5221C15.4539 19.5929 15.244 19.6224 15.0346 19.6091C14.8253 19.5957 14.6205 19.5397 14.4321 19.4442C14.3534 19.3993 14.2797 19.3457 14.2124 19.2841L11.4733 17.1084L11.398 17.0537L10.7676 17.6476C10.3894 18.0035 10.0173 18.37 9.63088 18.7175C9.52277 18.8133 9.39539 18.8828 9.25803 18.9211C9.12067 18.9594 8.97677 18.9654 8.83687 18.9388C8.69697 18.9122 8.56459 18.8535 8.44935 18.7672C8.33412 18.6808 8.23894 18.5688 8.17078 18.4395C8.01653 18.1238 7.89519 17.792 7.8088 17.4496C7.48208 16.3502 7.15741 15.2508 6.83475 14.1514C6.82836 14.1261 6.81524 14.1033 6.7969 14.0854C6.77855 14.0675 6.75574 14.0554 6.73104 14.0503C5.76917 13.7154 4.80933 13.3847 3.84949 13.0456C3.48665 12.9355 3.17505 12.6922 2.97305 12.3611C2.83648 12.137 2.78381 11.8689 2.82502 11.6074C2.86623 11.3459 2.99846 11.109 3.19673 10.9416C3.42939 10.7561 3.6888 10.6096 3.96542 10.5077L9.83831 7.94448L14.4138 5.95411C15.3262 5.55674 16.2406 5.16081 17.157 4.76625C17.3256 4.68083 17.5099 4.63364 17.6975 4.62782C17.8851 4.62201 18.0718 4.65774 18.245 4.73257C18.4456 4.81711 18.6162 4.96346 18.7337 5.15185C18.8512 5.34023 18.9099 5.56153 18.9018 5.78566C18.8946 6.09858 18.8599 6.41016 18.7981 6.71657V6.71024Z" fill="#8E8E8E"/>
</g>
<defs>
<clipPath id="clip0_1_315">
<rect width="23.0584" height="23.8819" fill="white"/>
</clipPath>
</defs>
</svg>
