<svg width="24" height="24" viewBox="0 0 24 24" fill="none" xmlns="http://www.w3.org/2000/svg">
<path d="M18.5846 0H5.29468C4.59917 -5.50233e-08 3.91046 0.137011 3.26791 0.403238C2.62537 0.669464 2.04157 1.0597 1.54986 1.55161C1.05815 2.04351 0.668168 2.62747 0.402197 3.27012C0.136226 3.91278 -0.000520379 4.60149 -0.000243722 5.29701V18.5849C-0.000520379 19.2804 0.136226 19.9692 0.402197 20.6118C0.668168 21.2545 1.05815 21.8384 1.54986 22.3303C2.04157 22.8222 2.62537 23.2124 3.26791 23.4787C3.91046 23.7449 4.59917 23.8819 5.29468 23.8819H18.5846C19.9891 23.8813 21.3359 23.323 22.3288 22.3297C23.3218 21.3364 23.8796 19.9894 23.8796 18.5849V5.29701C23.8796 3.89251 23.3218 2.54555 22.3288 1.55222C21.3359 0.558899 19.9891 0.000558447 18.5846 0ZM20.516 17.5844C20.4328 17.5945 20.3491 17.5995 20.2654 17.5992C19.6335 17.5992 19.0143 17.5992 18.3888 17.5992C18.2288 17.607 18.0689 17.5812 17.9195 17.5236C17.77 17.4659 17.6343 17.3776 17.521 17.2643C17.2725 17.0158 17.0324 16.7567 16.7965 16.4977C16.3117 15.9426 15.7827 15.4277 15.2148 14.9581C14.9612 14.7406 14.6774 14.5611 14.3723 14.4252C14.1881 14.3508 13.9869 14.3289 13.791 14.362C13.7298 14.3686 13.6722 14.3944 13.6264 14.4356C13.5807 14.4768 13.5491 14.5314 13.5361 14.5916C13.5058 14.7008 13.4888 14.8132 13.4856 14.9264C13.4856 15.5351 13.4856 16.1438 13.4856 16.7546C13.4856 16.8347 13.4856 16.9168 13.4856 16.9968C13.4802 17.0962 13.4461 17.1919 13.3874 17.2723C13.3287 17.3527 13.248 17.4143 13.1549 17.4497C12.9455 17.5326 12.723 17.5775 12.4978 17.5823C11.2696 17.6583 10.0468 17.3649 8.9868 16.7399C7.87409 16.1118 6.91113 15.2494 6.16453 14.2125C5.22994 12.9626 4.42343 11.622 3.75718 10.2107C3.41401 9.49374 3.13627 8.74721 2.92734 7.98027C2.88733 7.82231 2.85784 7.66224 2.83256 7.50217C2.75463 7.03038 2.96104 6.77976 3.44125 6.77555C4.14261 6.77555 4.84396 6.77555 5.54743 6.77555C5.5904 6.77687 5.63328 6.78039 5.6759 6.78609C5.77945 6.79287 5.87973 6.82504 5.96789 6.87978C6.05605 6.93451 6.12936 7.01011 6.18137 7.09991C6.27271 7.25907 6.34955 7.42616 6.41095 7.59909C6.85066 8.87284 7.42837 10.0946 8.1338 11.2427C8.40499 11.7001 8.72874 12.1242 9.09843 12.5064C9.2121 12.6106 9.33316 12.7063 9.46069 12.7929C9.50544 12.8235 9.55541 12.8456 9.60812 12.8582C9.65034 12.875 9.69585 12.8818 9.74113 12.8782C9.78642 12.8746 9.83028 12.8607 9.86934 12.8375C9.9084 12.8143 9.94161 12.7825 9.96643 12.7445C9.99125 12.7064 10.007 12.6632 10.0125 12.6181C10.0418 12.4724 10.0573 12.3244 10.0588 12.1758C10.0588 11.1838 10.0588 10.1897 10.0588 9.19554C10.0664 8.65528 9.87615 8.1309 9.52387 7.72122C9.46464 7.65462 9.40977 7.58426 9.3596 7.5106C9.30911 7.44088 9.27904 7.35852 9.27276 7.27268C9.26648 7.18683 9.28424 7.10089 9.32404 7.02457C9.36384 6.94826 9.42411 6.88453 9.4981 6.84054C9.57208 6.79656 9.65686 6.77405 9.74292 6.77555H12.8622C13.2834 6.77555 13.4456 6.9335 13.4624 7.34842C13.4751 7.66435 13.4624 7.98027 13.4624 8.29831V9.4441C13.4624 10.1012 13.4624 10.7583 13.4624 11.4176C13.4605 11.5387 13.4768 11.6594 13.5109 11.7756C13.5181 11.8254 13.5375 11.8726 13.5673 11.9132C13.5971 11.9537 13.6364 11.9863 13.6817 12.0082C13.727 12.03 13.777 12.0403 13.8273 12.0384C13.8775 12.0364 13.9266 12.0221 13.97 11.9968C14.0868 11.9471 14.196 11.8812 14.2944 11.8009C14.7074 11.4502 15.0684 11.0424 15.3664 10.5899C16.0635 9.58792 16.6563 8.5173 17.1356 7.39475C17.1503 7.36316 17.163 7.32947 17.1777 7.29787C17.2398 7.14143 17.3484 7.00782 17.489 6.91515C17.6295 6.82248 17.7951 6.77523 17.9633 6.77976C18.6731 6.77976 19.3808 6.77976 20.0906 6.77976C20.156 6.78148 20.221 6.79069 20.2843 6.80717C20.3476 6.81385 20.4086 6.83431 20.463 6.86718C20.5174 6.90004 20.564 6.94447 20.5994 6.99732C20.6347 7.05017 20.658 7.11017 20.6677 7.17303C20.6773 7.23588 20.673 7.30006 20.655 7.36107C20.5929 7.66307 20.4894 7.95509 20.3475 8.22884C19.9617 8.99484 19.5276 9.7356 19.048 10.4466C18.6963 10.9858 18.3298 11.5144 17.9717 12.0494C17.9067 12.1461 17.8477 12.2467 17.7948 12.3506C17.7569 12.4203 17.7385 12.499 17.7415 12.5783C17.7444 12.6576 17.7687 12.7346 17.8117 12.8013C17.8724 12.8989 17.9429 12.9899 18.0223 13.073C18.5678 13.6607 19.1259 14.2356 19.6651 14.8274C20.0696 15.2617 20.4307 15.7343 20.7435 16.2386C20.8838 16.4417 20.9819 16.6709 21.032 16.9126C21.0517 16.9915 21.0533 17.0738 21.0367 17.1534C21.0201 17.2331 20.9856 17.3079 20.936 17.3723C20.8864 17.4367 20.8228 17.489 20.7501 17.5254C20.6773 17.5618 20.5973 17.5813 20.516 17.5823V17.5844Z" fill="#8E8E8E"/>
</svg>
