<svg width="24" height="25" viewBox="0 0 24 25" fill="none" xmlns="http://www.w3.org/2000/svg">
<g clip-path="url(#clip0_1_310)">
<path d="M17.944 0.824219H5.11234C3.75647 0.824219 2.45611 1.38206 1.49736 2.37505C0.538609 3.36804 0 4.71482 0 6.11912V19.4091C0 20.8134 0.538609 22.1602 1.49736 23.1532C2.45611 24.1462 3.75647 24.704 5.11234 24.704H17.944C19.2997 24.7034 20.5998 24.1454 21.5584 23.1525C22.517 22.1597 23.0558 20.8132 23.0564 19.4091V6.11912C23.0558 4.71499 22.517 3.36854 21.5584 2.37567C20.5998 1.3828 19.2997 0.824777 17.944 0.824219V0.824219ZM19.276 12.9242H19.2353C19.2353 14.0089 19.3106 15.0998 19.217 16.174C19.0726 17.8463 18.2979 18.5792 16.6649 18.5982C13.2757 18.6361 9.88033 18.6361 6.47888 18.5982C4.94965 18.5814 4.03862 17.6483 4.01422 16.0708C3.96745 13.8698 3.97152 11.6689 4.01422 9.46797C4.04472 7.89255 4.8073 7.05429 6.42193 6.99321C9.72848 6.86895 13.0391 6.82049 16.3477 6.8226C17.881 6.8226 19.2089 8.30746 19.2679 9.93342C19.3065 10.9296 19.276 11.928 19.276 12.9242Z" fill="#8E8E8E"/>
<path d="M9.68164 15.8067L14.4951 12.7654L9.68164 9.78516V15.8067Z" fill="#8E8E8E"/>
</g>
<defs>
<clipPath id="clip0_1_310">
<rect width="23.0584" height="23.8819" fill="white" transform="translate(0 0.824219)"/>
</clipPath>
</defs>
</svg>
