<?xml version="1.0" encoding="utf-8"?>
<!-- Generator: Adobe Illustrator 25.4.1, SVG Export Plug-In . SVG Version: 6.00 Build 0)  -->
<svg version="1.1" id="Слой_1" xmlns="http://www.w3.org/2000/svg" xmlns:xlink="http://www.w3.org/1999/xlink" x="0px" y="0px"
	 viewBox="0 0 100 160" style="enable-background:new 0 0 100 160;" xml:space="preserve">
<style type="text/css">
	.st0{fill:url(#SVGID_00000052074687805664148150000000975641755595752889_);}
	.st1{fill:url(#SVGID_00000054248900828320834340000017016516959832852112_);}
	.st2{fill:url(#SVGID_00000062873904288083138750000002412790136942635960_);}
	.st3{fill:url(#SVGID_00000136401955972464362240000009720433928370618545_);}
	.st4{fill:url(#SVGID_00000004506133768106099980000013510718037969672622_);}
	.st5{opacity:0.28;fill:url(#SVGID_00000008141631850912077350000000032271136843168701_);enable-background:new    ;}
	.st6{fill:url(#SVGID_00000057827839395578671570000017347672705510369199_);}
	.st7{opacity:0.28;fill:url(#SVGID_00000150087209745591675170000010160931620313815169_);enable-background:new    ;}
	.st8{fill:url(#SVGID_00000096043282417379107310000016449911573051629455_);}
	.st9{fill:url(#SVGID_00000067195989953951238410000009407306722574420876_);}
	.st10{opacity:0.28;fill:url(#SVGID_00000153696669218487035040000002939937407391487167_);enable-background:new    ;}
	.st11{fill:url(#SVGID_00000103966041745699939050000004056900289860199053_);}
	.st12{fill:url(#SVGID_00000167374665071161515710000013549289895661653636_);}
	.st13{fill:url(#SVGID_00000081621928753262796680000016162368147373179788_);}
	.st14{fill:url(#SVGID_00000134967379783845680930000015675063635542268856_);}
	.st15{fill:url(#SVGID_00000027579917276604149320000002085141269475857557_);}
	.st16{fill:url(#SVGID_00000171686682517943540930000007238630158842913162_);}
	.st17{fill:url(#SVGID_00000109022933437834453960000010921597831148337838_);}
	.st18{fill:url(#SVGID_00000142881410627178610820000005071139175454915760_);}
	.st19{fill:url(#SVGID_00000178924086342816687650000008835100311214475697_);}
	.st20{fill:url(#SVGID_00000070825290692795157310000005113432282733993883_);}
	.st21{fill:url(#SVGID_00000142142898503619234140000001986798049745496741_);}
	.st22{fill:url(#SVGID_00000048496057976119082720000003215051923177546132_);}
	.st23{fill:url(#SVGID_00000144329525804606665160000002523478421967627426_);}
	.st24{fill:url(#SVGID_00000049906384603730735430000005371208424122469250_);}
	.st25{fill:url(#SVGID_00000110443947229335095370000014598657560028614829_);}
	.st26{fill:url(#SVGID_00000141417806283447194470000016460447373787566776_);}
	.st27{fill:url(#SVGID_00000128464966087963273810000015343203961078528954_);}
	.st28{fill:url(#SVGID_00000106867256038933326340000016802637541096961413_);}
	.st29{fill:url(#SVGID_00000070820146841965230160000007459911114094889135_);}
	.st30{fill:url(#SVGID_00000049921686407410264310000001857401046658466182_);}
	.st31{fill:url(#SVGID_00000008845804890480710910000000718479805519060906_);}
	.st32{fill:url(#SVGID_00000083794324308705337280000006991378953266430339_);}
	.st33{fill:url(#SVGID_00000171715323508951112390000016355055292398057096_);}
	.st34{opacity:0.4;fill:url(#SVGID_00000002354971138706499750000016962267711303727750_);enable-background:new    ;}
	.st35{fill:url(#SVGID_00000153669883037353080960000009903820594188938134_);}
	.st36{fill:url(#SVGID_00000120533608605868403270000005792215802805042590_);}
	.st37{fill:url(#SVGID_00000173142497684569655220000006548476259934268032_);}
	.st38{fill:url(#SVGID_00000087379178232912201800000010620705483384072320_);}
	.st39{opacity:0.4;fill:url(#SVGID_00000077305488335017021470000005438094719676546443_);enable-background:new    ;}
	.st40{fill:none;stroke:#A5A4A4;stroke-width:0.5;}
</style>
<g>
	<defs>
		<path id="SVGID_1_" d="M99,122v-15.1c0-0.5,0-0.9,0-1.3l0,0l0,0c-0.2-2.9-1.3-4.7-1.3-4.7H58.8c-1.2,2.1-1.5,4.2-1.4,6.1v0.1v-3.8
			h-7h-2.2v9.6H20.6l-5.6,0.8c0-0.3,0-0.6,0-0.8c-8.4,0-12.6,0-12.6,0s-0.4,0.3-1.1,0.8v20.1c0.9,0.9,0.9,0.9,0.9,0.9s4.5,0,12.7,0
			c0-0.2,0-0.5,0-0.7l5.6,0.8H48v9.5h2.2h7v-4.5v0.1c-0.1,0.7-0.1,1.4,0,2v0.1l0,0c0.2,2.8,1.4,4.9,1.4,4.9h38.9
			c0.8-1.8,1.2-3.4,1.3-4.9l0,0v-17.2C99,123.8,99,122.9,99,122z"/>
	</defs>
	<clipPath id="SVGID_00000165217506018262444660000015993760033950801289_">
		<use xlink:href="#SVGID_1_"  style="overflow:visible;"/>
	</clipPath>
	<g transform="matrix(1 0 0 1 0 0)" style="clip-path:url(#SVGID_00000165217506018262444660000015993760033950801289_);">
		
			<image style="overflow:visible;" width="600" height="600" xlink:href="../../background.jpg"  transform="matrix(0.2336 0 0 0.2336 -29.8957 51.3266)">
		</image>
	</g>
</g>
<g>
	
		<linearGradient id="SVGID_00000111906805576521911320000010121806599576550327_" gradientUnits="userSpaceOnUse" x1="-801.1958" y1="107.4245" x2="-801.1958" y2="143.7274" gradientTransform="matrix(-1 0 0 -1 -723.2958 161.2756)">
		<stop  offset="2.234637e-02" style="stop-color:#1B1B1B"/>
		<stop  offset="0.9832" style="stop-color:#CDCCCC"/>
	</linearGradient>
	<polygon style="fill:url(#SVGID_00000111906805576521911320000010121806599576550327_);" points="57.1,53.9 98.7,53.9 98.7,17.5 
		57.1,17.5 	"/>
	
		<linearGradient id="SVGID_00000052794747659540429260000009530003878961613756_" gradientUnits="userSpaceOnUse" x1="-801.2236" y1="102.5756" x2="-801.2236" y2="113.8438" gradientTransform="matrix(-1 0 0 -1 -723.2958 161.2756)">
		<stop  offset="0" style="stop-color:#737373"/>
		<stop  offset="1" style="stop-color:#4D4D4D"/>
	</linearGradient>
	<path style="fill:url(#SVGID_00000052794747659540429260000009530003878961613756_);" d="M58.5,47.4h38.9c0,0,3.1,4.8,0,11.3H58.5
		C58.5,58.7,55.3,52.9,58.5,47.4z"/>
	
		<linearGradient id="SVGID_00000058565136674501410700000004139531622456386214_" gradientUnits="userSpaceOnUse" x1="-801.2236" y1="113.8426" x2="-801.2236" y2="137.2088" gradientTransform="matrix(-1 0 0 -1 -723.2958 161.2756)">
		<stop  offset="0" style="stop-color:#A1A0A0"/>
		<stop  offset="1" style="stop-color:#777778"/>
	</linearGradient>
	<path style="fill:url(#SVGID_00000058565136674501410700000004139531622456386214_);" d="M58.5,24.1h38.9c0,0,3.1,10,0,23.4H58.5
		C58.5,47.4,55.3,35.4,58.5,24.1z"/>
	
		<linearGradient id="SVGID_00000078746596745939233640000012324955601192813242_" gradientUnits="userSpaceOnUse" x1="-801.2236" y1="137.2088" x2="-801.2236" y2="148.477" gradientTransform="matrix(-1 0 0 -1 -723.2958 161.2756)">
		<stop  offset="0" style="stop-color:#F4F3F4"/>
		<stop  offset="1" style="stop-color:#BABABA"/>
	</linearGradient>
	<path style="fill:url(#SVGID_00000078746596745939233640000012324955601192813242_);" d="M58.5,12.8h38.9c0,0,3.1,4.8,0,11.3H58.5
		C58.5,24.1,55.3,18.3,58.5,12.8z"/>
</g>
<linearGradient id="SVGID_00000071527340038703538870000003710488917652522382_" gradientUnits="userSpaceOnUse" x1="-730.2592" y1="114.6163" x2="-730.2592" y2="136.435" gradientTransform="matrix(-1 0 0 -1 -696.1592 161.2756)">
	<stop  offset="0" style="stop-color:#999898"/>
	<stop  offset="0.1963" style="stop-color:#50504F"/>
	<stop  offset="0.239" style="stop-color:#595858"/>
	<stop  offset="0.3167" style="stop-color:#717070"/>
	<stop  offset="0.3704" style="stop-color:#858585"/>
	<stop  offset="0.433" style="stop-color:#878787"/>
	<stop  offset="0.597" style="stop-color:#D6D4D5"/>
	<stop  offset="0.6843" style="stop-color:#FFFFFF"/>
	<stop  offset="0.9078" style="stop-color:#B8B7B7"/>
	<stop  offset="1" style="stop-color:#C7C6C6"/>
</linearGradient>
<polygon style="fill:url(#SVGID_00000071527340038703538870000003710488917652522382_);" points="47.9,46.7 20.3,46.7 20.3,24.8 
	47.9,24.8 "/>
<linearGradient id="SVGID_00000111905452655528744220000017057488774034052513_" gradientUnits="userSpaceOnUse" x1="-366.4001" y1="530.6592" x2="-338.8001" y2="530.6592" gradientTransform="matrix(1 0 0 -1 386.7001 566.3093)">
	<stop  offset="0" style="stop-color:#020203;stop-opacity:0"/>
	<stop  offset="0.2479" style="stop-color:#050708;stop-opacity:0.2415"/>
	<stop  offset="0.6694" style="stop-color:#18191B;stop-opacity:0.6522"/>
	<stop  offset="1" style="stop-color:#2A292A;stop-opacity:0.9744"/>
</linearGradient>
<rect x="20.3" y="24.8" style="opacity:0.28;fill:url(#SVGID_00000111905452655528744220000017057488774034052513_);enable-background:new    ;" width="27.6" height="21.7"/>
<linearGradient id="SVGID_00000091710433862635580110000008524428039562742184_" gradientUnits="userSpaceOnUse" x1="-695.6773" y1="105.0756" x2="-695.6773" y2="146.0234" gradientTransform="matrix(-1 0 0 -1 -643.2273 161.2756)">
	<stop  offset="0" style="stop-color:#999898"/>
	<stop  offset="0.1963" style="stop-color:#50504F"/>
	<stop  offset="0.239" style="stop-color:#595858"/>
	<stop  offset="0.3167" style="stop-color:#717070"/>
	<stop  offset="0.3704" style="stop-color:#858585"/>
	<stop  offset="0.433" style="stop-color:#878787"/>
	<stop  offset="0.597" style="stop-color:#D6D4D5"/>
	<stop  offset="0.6843" style="stop-color:#FFFFFF"/>
	<stop  offset="0.9078" style="stop-color:#B8B7B7"/>
	<stop  offset="1" style="stop-color:#C7C6C6"/>
</linearGradient>
<polygon style="fill:url(#SVGID_00000091710433862635580110000008524428039562742184_);" points="57.1,56.2 47.8,56.2 47.8,15.2 
	57.1,15.2 "/>
<linearGradient id="SVGID_00000057834048056269535790000003278553999923358099_" gradientUnits="userSpaceOnUse" x1="-389.5635" y1="530.6592" x2="-382.5635" y2="530.6592" gradientTransform="matrix(1 0 0 -1 439.632 566.3093)">
	<stop  offset="0" style="stop-color:#020203;stop-opacity:0"/>
	<stop  offset="0.2479" style="stop-color:#050708;stop-opacity:0.2415"/>
	<stop  offset="0.6694" style="stop-color:#18191B;stop-opacity:0.6522"/>
	<stop  offset="1" style="stop-color:#2A292A;stop-opacity:0.9744"/>
</linearGradient>
<rect x="50.1" y="15.2" style="opacity:0.28;fill:url(#SVGID_00000057834048056269535790000003278553999923358099_);enable-background:new    ;" width="7" height="40.9"/>
<linearGradient id="SVGID_00000107556199904714884150000002095139145681678219_" gradientUnits="userSpaceOnUse" x1="17.5" y1="114.6163" x2="17.5" y2="136.435" gradientTransform="matrix(1 0 0 -1 0 161.2756)">
	<stop  offset="0" style="stop-color:#999898"/>
	<stop  offset="0.1963" style="stop-color:#50504F"/>
	<stop  offset="0.239" style="stop-color:#595858"/>
	<stop  offset="0.3167" style="stop-color:#717070"/>
	<stop  offset="0.3704" style="stop-color:#858585"/>
	<stop  offset="0.433" style="stop-color:#878787"/>
	<stop  offset="0.597" style="stop-color:#D6D4D5"/>
	<stop  offset="0.6843" style="stop-color:#FFFFFF"/>
	<stop  offset="0.9078" style="stop-color:#B8B7B7"/>
	<stop  offset="1" style="stop-color:#C7C6C6"/>
</linearGradient>
<polygon style="fill:url(#SVGID_00000107556199904714884150000002095139145681678219_);" points="20.3,24.8 14.7,25.6 14.7,45.9 
	20.3,46.7 "/>
<linearGradient id="SVGID_00000160904829227027195000000007229399617732841375_" gradientUnits="userSpaceOnUse" x1="-704.1092" y1="114.6756" x2="-704.1092" y2="136.4756" gradientTransform="matrix(-1 0 0 -1 -696.1592 161.2756)">
	<stop  offset="0" style="stop-color:#999898"/>
	<stop  offset="0.1963" style="stop-color:#50504F"/>
	<stop  offset="0.239" style="stop-color:#595858"/>
	<stop  offset="0.3167" style="stop-color:#717070"/>
	<stop  offset="0.3704" style="stop-color:#858585"/>
	<stop  offset="0.433" style="stop-color:#878787"/>
	<stop  offset="0.597" style="stop-color:#D6D4D5"/>
	<stop  offset="0.6843" style="stop-color:#FFFFFF"/>
	<stop  offset="0.9078" style="stop-color:#B8B7B7"/>
	<stop  offset="1" style="stop-color:#C7C6C6"/>
</linearGradient>
<path style="fill:url(#SVGID_00000160904829227027195000000007229399617732841375_);" d="M14.7,46.6c-8.3,0-12.7,0-12.7,0l0,0
	c0,0,0,0-0.9-0.9l0,0V25.6l0,0c0.7-0.5,1.1-0.8,1.1-0.8l0,0c0,0,4.2,0,12.6,0C14.7,32.1,14.7,39.3,14.7,46.6z"/>
<linearGradient id="SVGID_00000085219511104698539270000007145600315517222585_" gradientUnits="userSpaceOnUse" x1="20.3" y1="125.5256" x2="14.6721" y2="125.5256" gradientTransform="matrix(1 0 0 -1 0 161.2756)">
	<stop  offset="0" style="stop-color:#020203;stop-opacity:0"/>
	<stop  offset="0.2479" style="stop-color:#050708;stop-opacity:0.2415"/>
	<stop  offset="0.6694" style="stop-color:#18191B;stop-opacity:0.6522"/>
	<stop  offset="1" style="stop-color:#2A292A;stop-opacity:0.9744"/>
</linearGradient>
<polygon style="opacity:0.28;fill:url(#SVGID_00000085219511104698539270000007145600315517222585_);enable-background:new    ;" points="
	20.3,24.8 14.7,25.6 14.7,45.9 20.3,46.7 "/>
<linearGradient id="SVGID_00000094600649034595808610000005922344597606688681_" gradientUnits="userSpaceOnUse" x1="-665.3813" y1="1064.5713" x2="-665.3813" y2="1032.8698" gradientTransform="matrix(-0.9993 3.650000e-02 3.640000e-02 0.9977 -611.798 -898.1497)">
	<stop  offset="0" style="stop-color:#343434"/>
	<stop  offset="0.3541" style="stop-color:#4E4D4D"/>
	<stop  offset="0.433" style="stop-color:#676767"/>
	<stop  offset="0.5" style="stop-color:#808181"/>
	<stop  offset="0.6362" style="stop-color:#A9A9AA"/>
	<stop  offset="0.7094" style="stop-color:#808181"/>
	<stop  offset="0.7987" style="stop-color:#4E4D4D"/>
	<stop  offset="1" style="stop-color:#676767"/>
</linearGradient>
<polygon style="fill:url(#SVGID_00000094600649034595808610000005922344597606688681_);" points="92.3,108 90.9,110.3 90.2,137.5 
	91.5,139.7 "/>
<linearGradient id="SVGID_00000018198653216559313360000002729742574750059915_" gradientUnits="userSpaceOnUse" x1="-668.1047" y1="1066.0634" x2="-668.1047" y2="1034.1108" gradientTransform="matrix(-0.9993 3.650000e-02 3.620000e-02 0.993 -611.6575 -894.4782)">
	<stop  offset="0" style="stop-color:#343434"/>
	<stop  offset="0.3541" style="stop-color:#4E4D4D"/>
	<stop  offset="0.433" style="stop-color:#676767"/>
	<stop  offset="0.5" style="stop-color:#808181"/>
	<stop  offset="0.6362" style="stop-color:#A9A9AA"/>
	<stop  offset="0.7094" style="stop-color:#808181"/>
	<stop  offset="0.7987" style="stop-color:#4E4D4D"/>
	<stop  offset="1" style="stop-color:#676767"/>
</linearGradient>
<polygon style="fill:url(#SVGID_00000018198653216559313360000002729742574750059915_);" points="95,107.9 93.6,110.2 92.9,137.5 
	94.1,139.8 "/>
<linearGradient id="SVGID_00000098208914354068396100000009265465234284093326_" gradientUnits="userSpaceOnUse" x1="-10202.0586" y1="267.3516" x2="-10202.0586" y2="297.0171" gradientTransform="matrix(0.9993 -3.650000e-02 3.900000e-02 1.0686 10273.8857 -545.5755)">
	<stop  offset="0" style="stop-color:#343434"/>
	<stop  offset="0.3541" style="stop-color:#4E4D4D"/>
	<stop  offset="0.433" style="stop-color:#676767"/>
	<stop  offset="0.5" style="stop-color:#808181"/>
	<stop  offset="0.6362" style="stop-color:#808181"/>
	<stop  offset="0.7094" style="stop-color:#808181"/>
	<stop  offset="0.7987" style="stop-color:#676767"/>
	<stop  offset="1" style="stop-color:#343434"/>
</linearGradient>
<path style="fill:url(#SVGID_00000098208914354068396100000009265465234284093326_);" d="M89.7,108l-0.9,31.7l1.4-2.3
	c0.2-9.1,0.5-18.1,0.7-27.2C90.5,109.5,90.1,108.7,89.7,108z"/>
<linearGradient id="SVGID_00000146496406029302580210000015448871842210362295_" gradientUnits="userSpaceOnUse" x1="-10199.46" y1="269.9179" x2="-10199.46" y2="299.8204" gradientTransform="matrix(0.9993 -3.650000e-02 3.860000e-02 1.0576 10273.8975 -545.2291)">
	<stop  offset="0" style="stop-color:#343434"/>
	<stop  offset="0.3541" style="stop-color:#4E4D4D"/>
	<stop  offset="0.433" style="stop-color:#676767"/>
	<stop  offset="0.5" style="stop-color:#808181"/>
	<stop  offset="0.6362" style="stop-color:#808181"/>
	<stop  offset="0.7094" style="stop-color:#808181"/>
	<stop  offset="0.7987" style="stop-color:#676767"/>
	<stop  offset="1" style="stop-color:#343434"/>
</linearGradient>
<path style="fill:url(#SVGID_00000146496406029302580210000015448871842210362295_);" d="M92.3,108l-0.9,31.7l1.4-2.2
	c0.2-9.1,0.5-18.2,0.7-27.3C93.2,109.5,92.8,108.7,92.3,108z"/>
<linearGradient id="SVGID_00000081632225753917872390000014779232602349697721_" gradientUnits="userSpaceOnUse" x1="-10196.6084" y1="271.0204" x2="-10196.6084" y2="301.1599" gradientTransform="matrix(0.9993 -3.650000e-02 3.840000e-02 1.0526 10273.9072 -545.0564)">
	<stop  offset="0" style="stop-color:#343434"/>
	<stop  offset="0.3541" style="stop-color:#4E4D4D"/>
	<stop  offset="0.433" style="stop-color:#676767"/>
	<stop  offset="0.5" style="stop-color:#808181"/>
	<stop  offset="0.6362" style="stop-color:#808181"/>
	<stop  offset="0.7094" style="stop-color:#808181"/>
	<stop  offset="0.7987" style="stop-color:#676767"/>
	<stop  offset="1" style="stop-color:#343434"/>
</linearGradient>
<path style="fill:url(#SVGID_00000081632225753917872390000014779232602349697721_);" d="M95,107.9l-0.9,31.8c0.5-0.8,1-1.5,1.6-2.3
	c0.1-4.5,0.2-9.1,0.4-13.6c0.1-4.6,0.3-9.1,0.4-13.7C95.9,109.4,95.5,108.7,95,107.9z"/>
<linearGradient id="SVGID_00000111155340585426519580000006358113950511125899_" gradientUnits="userSpaceOnUse" x1="-659.9694" y1="1059.288" x2="-659.9694" y2="1028.1165" gradientTransform="matrix(-0.9993 3.650000e-02 3.710000e-02 1.0163 -612.337 -912.7825)">
	<stop  offset="0" style="stop-color:#343434"/>
	<stop  offset="0.3541" style="stop-color:#4E4D4D"/>
	<stop  offset="0.433" style="stop-color:#676767"/>
	<stop  offset="0.5" style="stop-color:#808181"/>
	<stop  offset="0.6362" style="stop-color:#A9A9AA"/>
	<stop  offset="0.7094" style="stop-color:#808181"/>
	<stop  offset="0.7987" style="stop-color:#4E4D4D"/>
	<stop  offset="1" style="stop-color:#676767"/>
</linearGradient>
<polygon style="fill:url(#SVGID_00000111155340585426519580000006358113950511125899_);" points="87,108 85.6,110.2 84.7,137.4 
	86,139.7 "/>
<linearGradient id="SVGID_00000052797400868532425130000010512135716304357527_" gradientUnits="userSpaceOnUse" x1="-662.7182" y1="1061.6025" x2="-662.7182" y2="1030.1571" gradientTransform="matrix(-0.9993 3.650000e-02 3.680000e-02 1.0081 -612.1013 -906.3276)">
	<stop  offset="0" style="stop-color:#343434"/>
	<stop  offset="0.3541" style="stop-color:#4E4D4D"/>
	<stop  offset="0.433" style="stop-color:#676767"/>
	<stop  offset="0.5" style="stop-color:#808181"/>
	<stop  offset="0.6362" style="stop-color:#A9A9AA"/>
	<stop  offset="0.7094" style="stop-color:#808181"/>
	<stop  offset="0.7987" style="stop-color:#4E4D4D"/>
	<stop  offset="1" style="stop-color:#676767"/>
</linearGradient>
<polygon style="fill:url(#SVGID_00000052797400868532425130000010512135716304357527_);" points="89.7,108 88.3,110.2 87.5,137.4 
	88.8,139.7 "/>
<linearGradient id="SVGID_00000183951250628642123110000015444237258543154862_" gradientUnits="userSpaceOnUse" x1="-10204.833" y1="265.3933" x2="-10204.833" y2="294.7998" gradientTransform="matrix(0.9993 -3.650000e-02 3.930000e-02 1.0773 10273.9072 -545.8539)">
	<stop  offset="0" style="stop-color:#343434"/>
	<stop  offset="0.3541" style="stop-color:#4E4D4D"/>
	<stop  offset="0.433" style="stop-color:#676767"/>
	<stop  offset="0.5" style="stop-color:#808181"/>
	<stop  offset="0.6362" style="stop-color:#808181"/>
	<stop  offset="0.7094" style="stop-color:#808181"/>
	<stop  offset="0.7987" style="stop-color:#676767"/>
	<stop  offset="1" style="stop-color:#343434"/>
</linearGradient>
<path style="fill:url(#SVGID_00000183951250628642123110000015444237258543154862_);" d="M87,108l-1,31.7l1.4-2.3
	c0.3-9.1,0.6-18.1,0.8-27.2C87.9,109.5,87.4,108.7,87,108z"/>
<linearGradient id="SVGID_00000110435205821099264900000009340315168110674824_" gradientUnits="userSpaceOnUse" x1="-670.4871" y1="1066.1384" x2="-670.4871" y2="1038.3314" gradientTransform="matrix(-0.9993 3.650000e-02 3.600000e-02 0.9851 -611.4514 -888.2709)">
	<stop  offset="0" style="stop-color:#343434"/>
	<stop  offset="0.3541" style="stop-color:#4E4D4D"/>
	<stop  offset="0.433" style="stop-color:#676767"/>
	<stop  offset="0.5" style="stop-color:#808181"/>
	<stop  offset="0.6362" style="stop-color:#A9A9AA"/>
	<stop  offset="0.7094" style="stop-color:#808181"/>
	<stop  offset="0.7987" style="stop-color:#4E4D4D"/>
	<stop  offset="1" style="stop-color:#676767"/>
</linearGradient>
<path style="fill:url(#SVGID_00000110435205821099264900000009340315168110674824_);" d="M97.2,110.4c-0.3-0.1-0.5-0.2-0.8-0.3
	c-0.2,9.1-0.5,18.2-0.7,27.3c0.5,0,1,0,1.5,0.1C97.2,128.5,97.2,119.4,97.2,110.4z"/>
<linearGradient id="SVGID_00000123418739372426209660000016379932964315037840_" gradientUnits="userSpaceOnUse" x1="-10207.3535" y1="267.1645" x2="-10207.3535" y2="296.8301" gradientTransform="matrix(0.9993 -3.650000e-02 3.900000e-02 1.0686 10273.8857 -545.5755)">
	<stop  offset="0" style="stop-color:#343434"/>
	<stop  offset="0.3541" style="stop-color:#4E4D4D"/>
	<stop  offset="0.433" style="stop-color:#676767"/>
	<stop  offset="0.5" style="stop-color:#808181"/>
	<stop  offset="0.6362" style="stop-color:#808181"/>
	<stop  offset="0.7094" style="stop-color:#808181"/>
	<stop  offset="0.7987" style="stop-color:#676767"/>
	<stop  offset="1" style="stop-color:#343434"/>
</linearGradient>
<path style="fill:url(#SVGID_00000123418739372426209660000016379932964315037840_);" d="M84.4,107.9l-0.9,31.7
	c0.4-0.8,0.9-1.5,1.3-2.3c0.3-9,0.6-18.1,0.8-27.1C85.2,109.5,84.8,108.7,84.4,107.9z"/>
<linearGradient id="SVGID_00000042737070696329567460000017154634560303298219_" gradientUnits="userSpaceOnUse" x1="-657.3734" y1="1061.4071" x2="-657.3734" y2="1029.9408" gradientTransform="matrix(-0.9993 3.650000e-02 3.680000e-02 1.0081 -612.1013 -906.3276)">
	<stop  offset="0" style="stop-color:#343434"/>
	<stop  offset="0.3541" style="stop-color:#4E4D4D"/>
	<stop  offset="0.433" style="stop-color:#676767"/>
	<stop  offset="0.5" style="stop-color:#808181"/>
	<stop  offset="0.6362" style="stop-color:#A9A9AA"/>
	<stop  offset="0.7094" style="stop-color:#808181"/>
	<stop  offset="0.7987" style="stop-color:#4E4D4D"/>
	<stop  offset="1" style="stop-color:#676767"/>
</linearGradient>
<polygon style="fill:url(#SVGID_00000042737070696329567460000017154634560303298219_);" points="84.4,107.9 83,110.2 82.1,137.4 
	83.4,139.7 "/>
<linearGradient id="SVGID_00000013155789450904145260000009300607497096513718_" gradientUnits="userSpaceOnUse" x1="-669.5689" y1="52.2756" x2="-669.5689" y2="52.2756" gradientTransform="matrix(-1 0 0 -1 -584.3689 161.2756)">
	<stop  offset="6.980000e-02" style="stop-color:#6E6F72"/>
	<stop  offset="0.1536" style="stop-color:#939599"/>
	<stop  offset="0.2151" style="stop-color:#6E6F72"/>
	<stop  offset="0.3883" style="stop-color:#6E6F72"/>
	<stop  offset="0.4832" style="stop-color:#939599"/>
	<stop  offset="0.6844" style="stop-color:#BDBEC0"/>
	<stop  offset="0.7458" style="stop-color:#808386"/>
	<stop  offset="0.8073" style="stop-color:#B5B4B4"/>
	<stop  offset="0.9134" style="stop-color:#6E6F72"/>
	<stop  offset="1" style="stop-color:#939599"/>
</linearGradient>
<path style="fill:url(#SVGID_00000013155789450904145260000009300607497096513718_);" d="M85.2,109"/>
<linearGradient id="SVGID_00000014618339594524931830000004854371073727048354_" gradientUnits="userSpaceOnUse" x1="-10209.9531" y1="267.0799" x2="-10209.9531" y2="296.7455" gradientTransform="matrix(0.9993 -3.650000e-02 3.900000e-02 1.0686 10273.8857 -545.5755)">
	<stop  offset="0" style="stop-color:#343434"/>
	<stop  offset="0.3541" style="stop-color:#4E4D4D"/>
	<stop  offset="0.433" style="stop-color:#676767"/>
	<stop  offset="0.5" style="stop-color:#808181"/>
	<stop  offset="0.6362" style="stop-color:#808181"/>
	<stop  offset="0.7094" style="stop-color:#808181"/>
	<stop  offset="0.7987" style="stop-color:#676767"/>
	<stop  offset="1" style="stop-color:#343434"/>
</linearGradient>
<path style="fill:url(#SVGID_00000014618339594524931830000004854371073727048354_);" d="M81.8,108l-0.9,31.7
	c0.4-0.8,0.9-1.5,1.3-2.3c0.3-9.1,0.6-18.1,0.8-27.2C82.6,109.5,82.2,108.7,81.8,108z"/>
<linearGradient id="SVGID_00000035508323569839197750000007091697964051188399_" gradientUnits="userSpaceOnUse" x1="-652.0244" y1="1059.0044" x2="-652.0244" y2="1027.833" gradientTransform="matrix(-0.9993 3.650000e-02 3.710000e-02 1.0163 -612.337 -912.7825)">
	<stop  offset="0" style="stop-color:#343434"/>
	<stop  offset="0.3541" style="stop-color:#4E4D4D"/>
	<stop  offset="0.433" style="stop-color:#676767"/>
	<stop  offset="0.5" style="stop-color:#808181"/>
	<stop  offset="0.6362" style="stop-color:#A9A9AA"/>
	<stop  offset="0.7094" style="stop-color:#808181"/>
	<stop  offset="0.7987" style="stop-color:#4E4D4D"/>
	<stop  offset="1" style="stop-color:#676767"/>
</linearGradient>
<polygon style="fill:url(#SVGID_00000035508323569839197750000007091697964051188399_);" points="79,108 77.6,110.2 76.8,137.4 
	78.1,139.7 "/>
<linearGradient id="SVGID_00000089543506038180571260000017668506885524711560_" gradientUnits="userSpaceOnUse" x1="-654.7732" y1="1061.313" x2="-654.7732" y2="1029.8674" gradientTransform="matrix(-0.9993 3.650000e-02 3.680000e-02 1.0081 -612.1013 -906.3276)">
	<stop  offset="0" style="stop-color:#343434"/>
	<stop  offset="0.3541" style="stop-color:#4E4D4D"/>
	<stop  offset="0.433" style="stop-color:#676767"/>
	<stop  offset="0.5" style="stop-color:#808181"/>
	<stop  offset="0.6362" style="stop-color:#A9A9AA"/>
	<stop  offset="0.7094" style="stop-color:#808181"/>
	<stop  offset="0.7987" style="stop-color:#4E4D4D"/>
	<stop  offset="1" style="stop-color:#676767"/>
</linearGradient>
<polygon style="fill:url(#SVGID_00000089543506038180571260000017668506885524711560_);" points="81.8,108 80.3,110.2 79.5,137.4 
	80.8,139.7 "/>
<linearGradient id="SVGID_00000102507369655473409190000000380001317857491375_" gradientUnits="userSpaceOnUse" x1="-10212.7324" y1="265.1238" x2="-10212.7324" y2="294.5303" gradientTransform="matrix(0.9993 -3.650000e-02 3.930000e-02 1.0773 10273.9072 -545.8539)">
	<stop  offset="0" style="stop-color:#343434"/>
	<stop  offset="0.3541" style="stop-color:#4E4D4D"/>
	<stop  offset="0.433" style="stop-color:#676767"/>
	<stop  offset="0.5" style="stop-color:#808181"/>
	<stop  offset="0.6362" style="stop-color:#808181"/>
	<stop  offset="0.7094" style="stop-color:#808181"/>
	<stop  offset="0.7987" style="stop-color:#676767"/>
	<stop  offset="1" style="stop-color:#343434"/>
</linearGradient>
<path style="fill:url(#SVGID_00000102507369655473409190000000380001317857491375_);" d="M79,108l-0.9,31.8l1.4-2.3
	c0.3-9.1,0.6-18.1,0.8-27.2C79.9,109.5,79.5,108.7,79,108z"/>
<linearGradient id="SVGID_00000101075868544400127680000002701078548727817857_" gradientUnits="userSpaceOnUse" x1="-644.3012" y1="1058.5928" x2="-644.3012" y2="1027.5616" gradientTransform="matrix(-0.9993 3.650000e-02 3.710000e-02 1.0163 -612.337 -912.7825)">
	<stop  offset="0" style="stop-color:#343434"/>
	<stop  offset="0.3541" style="stop-color:#4E4D4D"/>
	<stop  offset="0.433" style="stop-color:#676767"/>
	<stop  offset="0.5" style="stop-color:#808181"/>
	<stop  offset="0.6362" style="stop-color:#A9A9AA"/>
	<stop  offset="0.7094" style="stop-color:#808181"/>
	<stop  offset="0.7987" style="stop-color:#4E4D4D"/>
	<stop  offset="1" style="stop-color:#676767"/>
</linearGradient>
<path style="fill:url(#SVGID_00000101075868544400127680000002701078548727817857_);" d="M71,108c-0.6,1.2-1.2,2.4-1.7,3.6
	c0,8.2,0,16.4,0,24.6c0.3,1.2,0.5,2.3,0.8,3.5C70.4,129,70.7,118.5,71,108z"/>
<linearGradient id="SVGID_00000178891685853957430430000002262062888642225545_" gradientUnits="userSpaceOnUse" x1="-10220.7236" y1="264.8331" x2="-10220.7236" y2="294.0962" gradientTransform="matrix(0.9993 -3.650000e-02 3.930000e-02 1.0773 10273.9072 -545.8539)">
	<stop  offset="0" style="stop-color:#343434"/>
	<stop  offset="0.3541" style="stop-color:#4E4D4D"/>
	<stop  offset="0.433" style="stop-color:#676767"/>
	<stop  offset="0.5" style="stop-color:#808181"/>
	<stop  offset="0.6362" style="stop-color:#808181"/>
	<stop  offset="0.7094" style="stop-color:#808181"/>
	<stop  offset="0.7987" style="stop-color:#676767"/>
	<stop  offset="1" style="stop-color:#343434"/>
</linearGradient>
<path style="fill:url(#SVGID_00000178891685853957430430000002262062888642225545_);" d="M71,108c-0.3,10.5-0.6,21.1-0.9,31.6
	c0.5-0.7,0.9-1.4,1.4-2.1c0.3-9.1,0.6-18.1,0.8-27.2C71.9,109.5,71.4,108.7,71,108z"/>
<linearGradient id="SVGID_00000119114849217170733760000006228789577817151898_" gradientUnits="userSpaceOnUse" x1="-10215.3486" y1="266.8928" x2="-10215.3486" y2="296.5584" gradientTransform="matrix(0.9993 -3.650000e-02 3.900000e-02 1.0686 10273.8857 -545.5755)">
	<stop  offset="0" style="stop-color:#343434"/>
	<stop  offset="0.3541" style="stop-color:#4E4D4D"/>
	<stop  offset="0.433" style="stop-color:#676767"/>
	<stop  offset="0.5" style="stop-color:#808181"/>
	<stop  offset="0.6362" style="stop-color:#808181"/>
	<stop  offset="0.7094" style="stop-color:#808181"/>
	<stop  offset="0.7987" style="stop-color:#676767"/>
	<stop  offset="1" style="stop-color:#343434"/>
</linearGradient>
<path style="fill:url(#SVGID_00000119114849217170733760000006228789577817151898_);" d="M76.4,107.9l-0.9,31.7
	c0.4-0.8,0.9-1.5,1.3-2.3c0.3-9,0.6-18.1,0.8-27.1C77.2,109.5,76.8,108.7,76.4,107.9z"/>
<linearGradient id="SVGID_00000058551947948251578920000005397773445806337697_" gradientUnits="userSpaceOnUse" x1="-646.7277" y1="1058.8141" x2="-646.7277" y2="1027.6426" gradientTransform="matrix(-0.9993 3.650000e-02 3.710000e-02 1.0163 -612.337 -912.7825)">
	<stop  offset="0" style="stop-color:#343434"/>
	<stop  offset="0.3541" style="stop-color:#4E4D4D"/>
	<stop  offset="0.433" style="stop-color:#676767"/>
	<stop  offset="0.5" style="stop-color:#808181"/>
	<stop  offset="0.6362" style="stop-color:#A9A9AA"/>
	<stop  offset="0.7094" style="stop-color:#808181"/>
	<stop  offset="0.7987" style="stop-color:#4E4D4D"/>
	<stop  offset="1" style="stop-color:#676767"/>
</linearGradient>
<polygon style="fill:url(#SVGID_00000058551947948251578920000005397773445806337697_);" points="73.7,108 72.3,110.2 71.5,137.4 
	72.8,139.7 "/>
<linearGradient id="SVGID_00000136383483701291611830000017024837508249690289_" gradientUnits="userSpaceOnUse" x1="-649.4284" y1="1061.1212" x2="-649.4284" y2="1029.6514" gradientTransform="matrix(-0.9993 3.650000e-02 3.680000e-02 1.0081 -612.1013 -906.3276)">
	<stop  offset="0" style="stop-color:#343434"/>
	<stop  offset="0.3541" style="stop-color:#4E4D4D"/>
	<stop  offset="0.433" style="stop-color:#676767"/>
	<stop  offset="0.5" style="stop-color:#808181"/>
	<stop  offset="0.6362" style="stop-color:#A9A9AA"/>
	<stop  offset="0.7094" style="stop-color:#808181"/>
	<stop  offset="0.7987" style="stop-color:#4E4D4D"/>
	<stop  offset="1" style="stop-color:#676767"/>
</linearGradient>
<polygon style="fill:url(#SVGID_00000136383483701291611830000017024837508249690289_);" points="76.4,107.9 75,110.2 74.2,137.4 
	75.5,139.7 "/>
<linearGradient id="SVGID_00000162333195326631086860000018131256750778979246_" gradientUnits="userSpaceOnUse" x1="-10218.0283" y1="264.9382" x2="-10218.0283" y2="294.3447" gradientTransform="matrix(0.9993 -3.650000e-02 3.930000e-02 1.0773 10273.9072 -545.8539)">
	<stop  offset="0" style="stop-color:#343434"/>
	<stop  offset="0.3541" style="stop-color:#4E4D4D"/>
	<stop  offset="0.433" style="stop-color:#676767"/>
	<stop  offset="0.5" style="stop-color:#808181"/>
	<stop  offset="0.6362" style="stop-color:#808181"/>
	<stop  offset="0.7094" style="stop-color:#808181"/>
	<stop  offset="0.7987" style="stop-color:#676767"/>
	<stop  offset="1" style="stop-color:#343434"/>
</linearGradient>
<path style="fill:url(#SVGID_00000162333195326631086860000018131256750778979246_);" d="M73.7,108l-0.9,31.8l1.4-2.3
	c0.3-9.1,0.6-18.1,0.8-27.2C74.6,109.5,74.1,108.7,73.7,108z"/>
<g>
	
		<linearGradient id="SVGID_00000066502023826684458030000017279989497463366334_" gradientUnits="userSpaceOnUse" x1="98.1" y1="20.5756" x2="98.1" y2="54.3756" gradientTransform="matrix(1 0 0 -1 0 161.2756)">
		<stop  offset="0" style="stop-color:#434342"/>
		<stop  offset="0.1068" style="stop-color:#343434"/>
		<stop  offset="0.2055" style="stop-color:#2E2E2E"/>
		<stop  offset="0.3492" style="stop-color:#424244"/>
		<stop  offset="0.6732" style="stop-color:#7F8080"/>
		<stop  offset="0.9078" style="stop-color:#414142"/>
	</linearGradient>
	<path style="fill:url(#SVGID_00000066502023826684458030000017279989497463366334_);" d="M99,106.9c-0.6,1.2-1.2,2.3-1.8,3.5
		c0,9,0,18.1,0,27.1c0.6,1.1,1.2,2.1,1.8,3.2C99,129.4,99,118.2,99,106.9z"/>
	
		<linearGradient id="SVGID_00000133502761685930722610000010611298709882591114_" gradientUnits="userSpaceOnUse" x1="98.9973" y1="37.4756" x2="97.1855" y2="37.4756" gradientTransform="matrix(1 0 0 -1 0 161.2756)">
		<stop  offset="0" style="stop-color:#020203;stop-opacity:0"/>
		<stop  offset="0.2479" style="stop-color:#050708;stop-opacity:0.2415"/>
		<stop  offset="0.6694" style="stop-color:#18191B;stop-opacity:0.6522"/>
		<stop  offset="1" style="stop-color:#2A292A;stop-opacity:0.9744"/>
	</linearGradient>
	<path style="opacity:0.4;fill:url(#SVGID_00000133502761685930722610000010611298709882591114_);enable-background:new    ;" d="
		M99,106.9c-0.6,1.2-1.2,2.3-1.8,3.5c0,9,0,18.1,0,27.1c0.6,1.1,1.2,2.1,1.8,3.2C99,129.4,99,118.2,99,106.9z"/>
</g>
<linearGradient id="SVGID_00000173132088355912463070000006806134704411779987_" gradientUnits="userSpaceOnUse" x1="68.05" y1="25.2002" x2="68.05" y2="49.7506" gradientTransform="matrix(1 0 0 -1 0 161.2756)">
	<stop  offset="0" style="stop-color:#434342"/>
	<stop  offset="0.1068" style="stop-color:#343434"/>
	<stop  offset="0.2055" style="stop-color:#2E2E2E"/>
	<stop  offset="0.3492" style="stop-color:#424244"/>
	<stop  offset="0.6732" style="stop-color:#7F8080"/>
	<stop  offset="0.9078" style="stop-color:#414142"/>
</linearGradient>
<rect x="66.8" y="111.5" style="fill:url(#SVGID_00000173132088355912463070000006806134704411779987_);" width="2.5" height="24.6"/>
<linearGradient id="SVGID_00000182493476861904128450000010923763216204289955_" gradientUnits="userSpaceOnUse" x1="65.4" y1="25.2002" x2="65.4" y2="49.7506" gradientTransform="matrix(1 0 0 -1 0 161.2756)">
	<stop  offset="0" style="stop-color:#383938"/>
	<stop  offset="0.1068" style="stop-color:#2E2E2E"/>
	<stop  offset="0.2055" style="stop-color:#262626"/>
	<stop  offset="0.3492" style="stop-color:#3D3E3E"/>
	<stop  offset="0.6732" style="stop-color:#737373"/>
	<stop  offset="0.9078" style="stop-color:#3B3A3A"/>
</linearGradient>
<path style="fill:url(#SVGID_00000182493476861904128450000010923763216204289955_);" d="M66.8,111.5v24.6c-0.9-1.8-1.9-3.7-2.8-5.5
	c0-4.5,0-9,0-13.5C64.9,115.2,65.8,113.4,66.8,111.5z"/>
<linearGradient id="SVGID_00000039092492737723378720000009568143967105806525_" gradientUnits="userSpaceOnUse" x1="33.05" y1="30.7756" x2="33.05" y2="44.1895" gradientTransform="matrix(1 0 0 -1 0 161.2756)">
	<stop  offset="0" style="stop-color:#434342"/>
	<stop  offset="0.1068" style="stop-color:#343434"/>
	<stop  offset="0.2055" style="stop-color:#2E2E2E"/>
	<stop  offset="0.3492" style="stop-color:#424244"/>
	<stop  offset="0.6732" style="stop-color:#7F8080"/>
	<stop  offset="0.9078" style="stop-color:#414142"/>
</linearGradient>
<rect x="2.1" y="117.1" style="fill:url(#SVGID_00000039092492737723378720000009568143967105806525_);" width="61.9" height="13.4"/>
<linearGradient id="SVGID_00000007424583551495126220000004454053463483379128_" gradientUnits="userSpaceOnUse" x1="1.55" y1="29.6178" x2="1.55" y2="45.1776" gradientTransform="matrix(1 0 0 -1 0 161.2756)">
	<stop  offset="0" style="stop-color:#434342"/>
	<stop  offset="0.1068" style="stop-color:#343434"/>
	<stop  offset="0.2055" style="stop-color:#2E2E2E"/>
	<stop  offset="0.3492" style="stop-color:#424244"/>
	<stop  offset="0.6732" style="stop-color:#7F8080"/>
	<stop  offset="0.9078" style="stop-color:#414142"/>
</linearGradient>
<path style="fill:url(#SVGID_00000007424583551495126220000004454053463483379128_);" d="M1.1,131.7c0.3-0.4,0.6-0.8,0.9-1.2v-13.4
	c-0.3-0.3-0.6-0.7-0.9-1C1.1,121.3,1.1,126.5,1.1,131.7z"/>
<linearGradient id="SVGID_00000070828781812096515930000001133573412147233448_" gradientUnits="userSpaceOnUse" x1="1.1397" y1="37.3756" x2="2.0703" y2="37.3756" gradientTransform="matrix(1 0 0 -1 0 161.2756)">
	<stop  offset="0" style="stop-color:#020203;stop-opacity:0"/>
	<stop  offset="0.2479" style="stop-color:#050708;stop-opacity:0.2415"/>
	<stop  offset="0.6694" style="stop-color:#18191B;stop-opacity:0.6522"/>
	<stop  offset="1" style="stop-color:#2A292A;stop-opacity:0.9744"/>
</linearGradient>
<path style="opacity:0.4;fill:url(#SVGID_00000070828781812096515930000001133573412147233448_);enable-background:new    ;" d="
	M1.1,131.7c0.3-0.4,0.6-0.8,0.9-1.2v-13.4c-0.3-0.3-0.6-0.7-0.9-1C1.1,121.3,1.1,126.5,1.1,131.7z"/>
<image style="overflow:visible;" width="200" height="200" xlink:href="../../pepsi.png"  transform="matrix(5.795626e-02 0 0 5.795626e-02 72.1321 30.0044)">
</image>
<path class="st40" d="M99,122v-15.1c0-0.5,0-0.9,0-1.3l0,0l0,0c-0.2-2.9-1.3-4.7-1.3-4.7H58.8c-1.2,2.1-1.5,4.2-1.4,6.1v0.1v-3.8h-7
	h-2.2v9.6H20.6l-5.6,0.8c0-0.3,0-0.6,0-0.8c-8.4,0-12.6,0-12.6,0s-0.4,0.3-1.1,0.8v20.1c0.9,0.9,0.9,0.9,0.9,0.9s4.5,0,12.7,0
	c0-0.2,0-0.5,0-0.7l5.6,0.8H48v9.5h2.2h7v-4.5v0.1c-0.1,0.7-0.1,1.4,0,2v0.1l0,0c0.2,2.8,1.4,4.9,1.4,4.9h38.9
	c0.8-1.8,1.2-3.4,1.3-4.9l0,0v-17.2C99,123.8,99,122.8,99,122z"/>
</svg>
