<?xml version="1.0" encoding="utf-8"?>
<!-- Generator: Adobe Illustrator 25.4.1, SVG Export Plug-In . SVG Version: 6.00 Build 0)  -->
<svg version="1.1" id="Слой_1" xmlns="http://www.w3.org/2000/svg" xmlns:xlink="http://www.w3.org/1999/xlink" x="0px" y="0px"
	 viewBox="0 0 100 160" style="enable-background:new 0 0 100 160;" xml:space="preserve">
<style type="text/css">
	.st0{fill:none;}
	.st1{fill:url(#SVGID_00000023983711877871097840000009321978170389846420_);}
	.st2{fill:url(#SVGID_00000019646946167124496580000015955117017262812570_);}
	.st3{fill:url(#SVGID_00000150807266092487858940000008566698691036097718_);}
	.st4{fill:url(#SVGID_00000033354538882059843430000017856675284253852042_);}
	.st5{fill:url(#SVGID_00000064329588446182762950000004611112990771726514_);}
	.st6{opacity:0.28;fill:url(#SVGID_00000158722565880242670530000005749066717918474905_);enable-background:new    ;}
	.st7{fill:url(#SVGID_00000163769367858543590510000004926006463083936699_);}
	.st8{opacity:0.28;fill:url(#SVGID_00000134223639907274794290000007810074416161103021_);enable-background:new    ;}
	.st9{fill:url(#SVGID_00000092446053640423810730000010198490043075404948_);}
	.st10{fill:url(#SVGID_00000148661704205742397730000003558752699311673498_);}
	.st11{opacity:0.28;fill:url(#SVGID_00000048483339511016832320000003536411352666407296_);enable-background:new    ;}
	.st12{fill:url(#SVGID_00000163044697397402621230000014282281020941142195_);}
	.st13{fill:url(#SVGID_00000079464835215383359610000005903967024653373090_);}
	.st14{fill:url(#SVGID_00000003079167211460955960000004353404738320360323_);}
	.st15{fill:url(#SVGID_00000182501370699899027850000006478314892716770955_);}
	.st16{fill:url(#SVGID_00000162346612983438125390000010342551849726476932_);}
	.st17{fill:url(#SVGID_00000101809284015054796690000017545440776705927337_);}
	.st18{fill:url(#SVGID_00000164471912358629545750000008385748789299291564_);}
	.st19{fill:url(#SVGID_00000084506109219075340760000004611310876635132824_);}
	.st20{fill:url(#SVGID_00000144337208331646442740000007016390710926007199_);}
	.st21{fill:url(#SVGID_00000129171705653617114090000009750393609237954198_);}
	.st22{fill:url(#SVGID_00000139992425650710514040000008735982011561256124_);}
	.st23{fill:url(#SVGID_00000044856260372503998990000005324575966420756381_);}
	.st24{fill:url(#SVGID_00000109012948900707396780000002556523953615376037_);}
	.st25{fill:url(#SVGID_00000048467532916074458410000009496518234634069634_);}
	.st26{fill:url(#SVGID_00000041254251780806686790000008858027023207451285_);}
	.st27{fill:url(#SVGID_00000116919202681388302760000005364615924203044798_);}
	.st28{fill:url(#SVGID_00000031176678722482869670000014576953495398975104_);}
	.st29{fill:url(#SVGID_00000137830434387268854440000017568452953084988596_);}
	.st30{fill:url(#SVGID_00000094585599015863823450000016088197616199808411_);}
	.st31{fill:url(#SVGID_00000151533995723093103930000000411470830277723828_);}
	.st32{fill:url(#SVGID_00000009591769320762745870000000890514089243700358_);}
	.st33{fill:url(#SVGID_00000135657177731079510600000006678036235684634764_);}
	.st34{fill:url(#SVGID_00000048498132518394657310000001016811738510871721_);}
	.st35{opacity:0.4;fill:url(#SVGID_00000143584671750709967750000009440872878517192617_);enable-background:new    ;}
	.st36{fill:url(#SVGID_00000182500090100732265660000004814942243145291684_);}
	.st37{fill:url(#SVGID_00000037670499101837125370000011377473268874774444_);}
	.st38{fill:url(#SVGID_00000041289924392407936670000012990536594961365392_);}
	.st39{fill:url(#SVGID_00000104685067691187191190000004005374430415960972_);}
	.st40{opacity:0.4;fill:url(#SVGID_00000008860901080721608910000018050215984877185700_);enable-background:new    ;}
</style>
<g>
	<defs>
		<path id="SVGID_1_" d="M99.4,119v-15.2c0-0.5,0-0.9,0-1.3l0,0l0,0c-0.2-2.9-1.3-4.8-1.3-4.8H58.9c-1.2,2.1-1.5,4.3-1.4,6.1
			c0,0,0,0.1-0.1,0.1v-3.8h-7h-2.3v9.7H20.5l-5.7,0.8c0-0.3,0-0.6,0-0.9c-8.5,0-12.7,0-12.7,0S1.7,110,1,110.5v20.2
			c0.9,0.9,0.9,0.9,0.9,0.9s4.5,0,12.8,0c0-0.2,0-0.5,0-0.7l5.7,0.8h27.7v9.6h2.3h7.1v-4.5c0,0,0,0.1,0.1,0.1c-0.1,0.7-0.1,1.4,0,2
			v0.1l0,0c0.2,2.8,1.4,4.9,1.4,4.9h39.1c0.8-1.8,1.2-3.4,1.3-4.9l0,0v-17.3C99.4,120.8,99.4,119.9,99.4,119z"/>
	</defs>
	<clipPath id="SVGID_00000145746213334733421480000000217520263237243041_">
		<use xlink:href="#SVGID_1_"  style="overflow:visible;"/>
	</clipPath>
	
		<g transform="matrix(1 0 0 1 0 -3.814697e-06)" style="clip-path:url(#SVGID_00000145746213334733421480000000217520263237243041_);">
		
			<image style="overflow:visible;" width="600" height="600" xlink:href="../../background.jpg"  transform="matrix(0.1726 0 0 0.1726 -1.764 60.0082)">
		</image>
	</g>
	<use xlink:href="#SVGID_1_"  style="overflow:visible;fill:none;stroke:#999999;stroke-width:0.5;stroke-miterlimit:10;"/>
</g>
<image style="display:none;overflow:visible;enable-background:new    ;" width="1185" height="247" xlink:href="B32EC225.png"  transform="matrix(0.375 0 0 0.375 -324.9765 -14.1586)">
</image>
<path class="st0" d="M99.4,119.1v-15.2c0-0.5,0-0.9,0-1.3l0,0l0,0c-0.2-2.9-1.3-4.8-1.3-4.8H58.9c-1.2,2.1-1.5,4.3-1.4,6.1
	c0,0,0,0.1-0.1,0.1v-3.8h-7h-2.3v9.7H20.5l-5.7,0.8c0-0.3,0-0.6,0-0.9c-8.5,0-12.7,0-12.7,0s-0.4,0.3-1.1,0.8v20.2
	c0.9,0.9,0.9,0.9,0.9,0.9s4.5,0,12.8,0c0-0.2,0-0.5,0-0.7l5.7,0.8h27.7v9.6h2.3h7.1v-4.5c0,0,0,0.1,0.1,0.1c-0.1,0.7-0.1,1.4,0,2
	v0.1l0,0c0.2,2.8,1.4,4.9,1.4,4.9h39.1c0.8-1.8,1.2-3.4,1.3-4.9l0,0v-17.3C99.4,120.9,99.4,119.9,99.4,119.1z"/>
<g>
	
		<linearGradient id="SVGID_00000110434820961138180810000013936366500080624539_" gradientUnits="userSpaceOnUse" x1="-193.4958" y1="1314.5228" x2="-193.4958" y2="1277.9764" gradientTransform="matrix(-1 0 0 1 -115.2958 -1257.3229)">
		<stop  offset="2.230000e-02" style="stop-color:#1B1B1B"/>
		<stop  offset="0.9832" style="stop-color:#CDCCCC"/>
	</linearGradient>
	<polygon style="fill:url(#SVGID_00000110434820961138180810000013936366500080624539_);" points="57.3,57.2 99.1,57.2 99.1,20.6 
		57.3,20.6 	"/>
	
		<linearGradient id="SVGID_00000080903381060271713100000013163959054028754845_" gradientUnits="userSpaceOnUse" x1="-193.4458" y1="1319.3864" x2="-193.4458" y2="1308.0463" gradientTransform="matrix(-1 0 0 1 -115.2958 -1257.3229)">
		<stop  offset="0" style="stop-color:#737373"/>
		<stop  offset="1" style="stop-color:#4D4D4D"/>
	</linearGradient>
	<path style="fill:url(#SVGID_00000080903381060271713100000013163959054028754845_);" d="M58.6,50.7h39.1c0,0,3.1,4.9,0,11.3H58.6
		C58.6,62.1,55.5,56.2,58.6,50.7z"/>
	
		<linearGradient id="SVGID_00000038380765513115958190000007958464695265790398_" gradientUnits="userSpaceOnUse" x1="-193.5236" y1="1308.0228" x2="-193.5236" y2="1284.4983" gradientTransform="matrix(-1 0 0 1 -115.2958 -1257.3229)">
		<stop  offset="0" style="stop-color:#A1A0A0"/>
		<stop  offset="1" style="stop-color:#777778"/>
	</linearGradient>
	<path style="fill:url(#SVGID_00000038380765513115958190000007958464695265790398_);" d="M58.7,27.2h39.1c0,0,3.1,10.1,0,23.5H58.7
		C58.7,50.7,55.5,38.6,58.7,27.2z"/>
	
		<linearGradient id="SVGID_00000052820336524542270550000000620977774722022570_" gradientUnits="userSpaceOnUse" x1="-193.5236" y1="1284.5228" x2="-193.5236" y2="1273.1826" gradientTransform="matrix(-1 0 0 1 -115.2958 -1257.3229)">
		<stop  offset="0" style="stop-color:#F4F3F4"/>
		<stop  offset="1" style="stop-color:#BABABA"/>
	</linearGradient>
	<path style="fill:url(#SVGID_00000052820336524542270550000000620977774722022570_);" d="M58.7,15.9h39.1c0,0,3.1,4.9,0,11.3H58.7
		C58.7,27.2,55.5,21.4,58.7,15.9z"/>
</g>
<linearGradient id="SVGID_00000096759995551354386680000004338429447275686833_" gradientUnits="userSpaceOnUse" x1="-122.2592" y1="1307.2618" x2="-122.2592" y2="1285.2994" gradientTransform="matrix(-1 0 0 1 -88.1592 -1257.3229)">
	<stop  offset="0" style="stop-color:#999898"/>
	<stop  offset="0.1963" style="stop-color:#50504F"/>
	<stop  offset="0.239" style="stop-color:#595858"/>
	<stop  offset="0.3167" style="stop-color:#717070"/>
	<stop  offset="0.3704" style="stop-color:#858585"/>
	<stop  offset="0.433" style="stop-color:#878787"/>
	<stop  offset="0.597" style="stop-color:#D6D4D5"/>
	<stop  offset="0.6843" style="stop-color:#FFFFFF"/>
	<stop  offset="0.9078" style="stop-color:#B8B7B7"/>
	<stop  offset="1" style="stop-color:#C7C6C6"/>
</linearGradient>
<polygon style="fill:url(#SVGID_00000096759995551354386680000004338429447275686833_);" points="48,49.9 20.2,49.9 20.2,28 48,28 
	"/>
<linearGradient id="SVGID_00000150814502214532321750000004876171735685491595_" gradientUnits="userSpaceOnUse" x1="-366.5001" y1="891.1891" x2="-338.7413" y2="891.1891" gradientTransform="matrix(1 0 0 1 386.7001 -852.2892)">
	<stop  offset="0" style="stop-color:#020203;stop-opacity:0"/>
	<stop  offset="0.2479" style="stop-color:#050708;stop-opacity:0.2415"/>
	<stop  offset="0.6694" style="stop-color:#18191B;stop-opacity:0.6522"/>
	<stop  offset="1" style="stop-color:#2A292A;stop-opacity:0.9744"/>
</linearGradient>
<rect x="20.2" y="28" style="opacity:0.28;fill:url(#SVGID_00000150814502214532321750000004876171735685491595_);enable-background:new    ;" width="27.8" height="21.8"/>
<linearGradient id="SVGID_00000159456832473027285740000001803560512047579788_" gradientUnits="userSpaceOnUse" x1="-87.7773" y1="1316.8229" x2="-87.7773" y2="1275.6228" gradientTransform="matrix(-1 0 0 1 -35.2273 -1257.3229)">
	<stop  offset="0" style="stop-color:#999898"/>
	<stop  offset="0.1963" style="stop-color:#50504F"/>
	<stop  offset="0.239" style="stop-color:#595858"/>
	<stop  offset="0.3167" style="stop-color:#717070"/>
	<stop  offset="0.3704" style="stop-color:#858585"/>
	<stop  offset="0.433" style="stop-color:#878787"/>
	<stop  offset="0.597" style="stop-color:#D6D4D5"/>
	<stop  offset="0.6843" style="stop-color:#FFFFFF"/>
	<stop  offset="0.9078" style="stop-color:#B8B7B7"/>
	<stop  offset="1" style="stop-color:#C7C6C6"/>
</linearGradient>
<polygon style="fill:url(#SVGID_00000159456832473027285740000001803560512047579788_);" points="57.2,59.5 47.9,59.5 47.9,18.3 
	57.2,18.3 "/>
<linearGradient id="SVGID_00000075127820909405675840000002348279939652671402_" gradientUnits="userSpaceOnUse" x1="-389.4569" y1="891.1891" x2="-382.4042" y2="891.1891" gradientTransform="matrix(1 0 0 1 439.632 -852.2892)">
	<stop  offset="0" style="stop-color:#020203;stop-opacity:0"/>
	<stop  offset="0.2479" style="stop-color:#050708;stop-opacity:0.2415"/>
	<stop  offset="0.6694" style="stop-color:#18191B;stop-opacity:0.6522"/>
	<stop  offset="1" style="stop-color:#2A292A;stop-opacity:0.9744"/>
</linearGradient>
<rect x="50.2" y="18.3" style="opacity:0.28;fill:url(#SVGID_00000075127820909405675840000002348279939652671402_);enable-background:new    ;" width="7.1" height="41.2"/>
<linearGradient id="SVGID_00000081606242510046155400000004542487997268227994_" gradientUnits="userSpaceOnUse" x1="17.35" y1="1307.2618" x2="17.35" y2="1285.2994" gradientTransform="matrix(1 0 0 1 0 -1257.3229)">
	<stop  offset="0" style="stop-color:#999898"/>
	<stop  offset="0.1963" style="stop-color:#50504F"/>
	<stop  offset="0.239" style="stop-color:#595858"/>
	<stop  offset="0.3167" style="stop-color:#717070"/>
	<stop  offset="0.3704" style="stop-color:#858585"/>
	<stop  offset="0.433" style="stop-color:#878787"/>
	<stop  offset="0.597" style="stop-color:#D6D4D5"/>
	<stop  offset="0.6843" style="stop-color:#FFFFFF"/>
	<stop  offset="0.9078" style="stop-color:#B8B7B7"/>
	<stop  offset="1" style="stop-color:#C7C6C6"/>
</linearGradient>
<polygon style="fill:url(#SVGID_00000081606242510046155400000004542487997268227994_);" points="20.2,28 14.5,28.8 14.5,49.1 
	20.2,49.9 "/>
<linearGradient id="SVGID_00000124860484864064320790000017754800204854997142_" gradientUnits="userSpaceOnUse" x1="-95.8592" y1="1307.2228" x2="-95.8592" y2="1285.2604" gradientTransform="matrix(-1 0 0 1 -88.1592 -1257.3229)">
	<stop  offset="0" style="stop-color:#999898"/>
	<stop  offset="0.1963" style="stop-color:#50504F"/>
	<stop  offset="0.239" style="stop-color:#595858"/>
	<stop  offset="0.3167" style="stop-color:#717070"/>
	<stop  offset="0.3704" style="stop-color:#858585"/>
	<stop  offset="0.433" style="stop-color:#878787"/>
	<stop  offset="0.597" style="stop-color:#D6D4D5"/>
	<stop  offset="0.6843" style="stop-color:#FFFFFF"/>
	<stop  offset="0.9078" style="stop-color:#B8B7B7"/>
	<stop  offset="1" style="stop-color:#C7C6C6"/>
</linearGradient>
<path style="fill:url(#SVGID_00000124860484864064320790000017754800204854997142_);" d="M14.5,49.9c-8.3,0-12.8,0-12.8,0l0,0
	c0,0,0,0-0.9-0.9l0,0V28.8l0,0C1.5,28.2,1.9,28,1.9,28l0,0c0,0,4.2,0,12.7,0C14.5,35.2,14.5,42.6,14.5,49.9z"/>
<linearGradient id="SVGID_00000099643848834856710640000000782959321572924601_" gradientUnits="userSpaceOnUse" x1="20.2094" y1="1296.2728" x2="14.546" y2="1296.2728" gradientTransform="matrix(1 0 0 1 0 -1257.3229)">
	<stop  offset="0" style="stop-color:#020203;stop-opacity:0"/>
	<stop  offset="0.2479" style="stop-color:#050708;stop-opacity:0.2415"/>
	<stop  offset="0.6694" style="stop-color:#18191B;stop-opacity:0.6522"/>
	<stop  offset="1" style="stop-color:#2A292A;stop-opacity:0.9744"/>
</linearGradient>
<polygon style="opacity:0.28;fill:url(#SVGID_00000099643848834856710640000000782959321572924601_);enable-background:new    ;" points="
	20.2,28 14.5,28.8 14.5,49.1 20.2,49.9 "/>
<linearGradient id="SVGID_00000127760172978107965680000005021478101853668256_" gradientUnits="userSpaceOnUse" x1="-43.0451" y1="-454.4658" x2="-43.0451" y2="-422.5677" gradientTransform="matrix(-0.9993 3.650000e-02 -3.640000e-02 -0.9977 32.6657 -314.9649)">
	<stop  offset="0" style="stop-color:#343434"/>
	<stop  offset="0.3541" style="stop-color:#4E4D4D"/>
	<stop  offset="0.433" style="stop-color:#676767"/>
	<stop  offset="0.5" style="stop-color:#808181"/>
	<stop  offset="0.6362" style="stop-color:#A9A9AA"/>
	<stop  offset="0.7094" style="stop-color:#808181"/>
	<stop  offset="0.7987" style="stop-color:#4E4D4D"/>
	<stop  offset="1" style="stop-color:#676767"/>
</linearGradient>
<polygon style="fill:url(#SVGID_00000127760172978107965680000005021478101853668256_);" points="92.7,105 91.3,107.3 90.5,134.6 
	91.8,136.9 "/>
<linearGradient id="SVGID_00000076603106387891939080000008427029619951497407_" gradientUnits="userSpaceOnUse" x1="-45.8281" y1="-457.789" x2="-45.8281" y2="-425.6394" gradientTransform="matrix(-0.9993 3.650000e-02 -3.620000e-02 -0.993 32.6048 -316.0291)">
	<stop  offset="0" style="stop-color:#343434"/>
	<stop  offset="0.3541" style="stop-color:#4E4D4D"/>
	<stop  offset="0.433" style="stop-color:#676767"/>
	<stop  offset="0.5" style="stop-color:#808181"/>
	<stop  offset="0.6362" style="stop-color:#A9A9AA"/>
	<stop  offset="0.7094" style="stop-color:#808181"/>
	<stop  offset="0.7987" style="stop-color:#4E4D4D"/>
	<stop  offset="1" style="stop-color:#676767"/>
</linearGradient>
<polygon style="fill:url(#SVGID_00000076603106387891939080000008427029619951497407_);" points="95.4,104.9 94,107.2 93.3,134.7 
	94.5,136.9 "/>
<linearGradient id="SVGID_00000090271217663212778330000013932482335519451537_" gradientUnits="userSpaceOnUse" x1="-10216.4033" y1="369.3128" x2="-10216.4033" y2="339.4411" gradientTransform="matrix(0.9993 -3.650000e-02 -3.900000e-02 -1.0686 10313.3945 131.2402)">
	<stop  offset="0" style="stop-color:#343434"/>
	<stop  offset="0.3541" style="stop-color:#4E4D4D"/>
	<stop  offset="0.433" style="stop-color:#676767"/>
	<stop  offset="0.5" style="stop-color:#808181"/>
	<stop  offset="0.6362" style="stop-color:#808181"/>
	<stop  offset="0.7094" style="stop-color:#808181"/>
	<stop  offset="0.7987" style="stop-color:#676767"/>
	<stop  offset="1" style="stop-color:#343434"/>
</linearGradient>
<path style="fill:url(#SVGID_00000090271217663212778330000013932482335519451537_);" d="M90.1,104.9l-1,32l1.4-2.3
	c0.3-9.1,0.5-18.2,0.8-27.3C90.9,106.5,90.5,105.7,90.1,104.9z"/>
<linearGradient id="SVGID_00000129885615470790465830000011543180579367504303_" gradientUnits="userSpaceOnUse" x1="-10213.7012" y1="362.8877" x2="-10213.7012" y2="332.7963" gradientTransform="matrix(0.9993 -3.650000e-02 -3.860000e-02 -1.0576 10313.0039 120.503)">
	<stop  offset="0" style="stop-color:#343434"/>
	<stop  offset="0.3541" style="stop-color:#4E4D4D"/>
	<stop  offset="0.433" style="stop-color:#676767"/>
	<stop  offset="0.5" style="stop-color:#808181"/>
	<stop  offset="0.6362" style="stop-color:#808181"/>
	<stop  offset="0.7094" style="stop-color:#808181"/>
	<stop  offset="0.7987" style="stop-color:#676767"/>
	<stop  offset="1" style="stop-color:#343434"/>
</linearGradient>
<path style="fill:url(#SVGID_00000129885615470790465830000011543180579367504303_);" d="M92.7,105l-0.9,31.9l1.4-2.3
	c0.3-9.2,0.5-18.3,0.8-27.5C93.6,106.4,93.1,105.7,92.7,105z"/>
<linearGradient id="SVGID_00000178921417256893306760000001490556519101306021_" gradientUnits="userSpaceOnUse" x1="-10210.8955" y1="360.0047" x2="-10210.8955" y2="329.6754" gradientTransform="matrix(0.9993 -3.650000e-02 -3.840000e-02 -1.0526 10312.8125 115.6377)">
	<stop  offset="0" style="stop-color:#343434"/>
	<stop  offset="0.3541" style="stop-color:#4E4D4D"/>
	<stop  offset="0.433" style="stop-color:#676767"/>
	<stop  offset="0.5" style="stop-color:#808181"/>
	<stop  offset="0.6362" style="stop-color:#808181"/>
	<stop  offset="0.7094" style="stop-color:#808181"/>
	<stop  offset="0.7987" style="stop-color:#676767"/>
	<stop  offset="1" style="stop-color:#343434"/>
</linearGradient>
<path style="fill:url(#SVGID_00000178921417256893306760000001490556519101306021_);" d="M95.4,104.9l-0.9,32
	c0.5-0.8,1.1-1.5,1.6-2.3c0.1-4.6,0.2-9.2,0.4-13.7c0.1-4.6,0.3-9.2,0.4-13.8C96.4,106.4,95.9,105.7,95.4,104.9z"/>
<linearGradient id="SVGID_00000063623611426349452460000012094026098272755892_" gradientUnits="userSpaceOnUse" x1="-37.6249" y1="-441.911" x2="-37.6249" y2="-410.5332" gradientTransform="matrix(-0.9993 3.650000e-02 -3.710000e-02 -1.0163 32.8321 -310.8564)">
	<stop  offset="0" style="stop-color:#343434"/>
	<stop  offset="0.3541" style="stop-color:#4E4D4D"/>
	<stop  offset="0.433" style="stop-color:#676767"/>
	<stop  offset="0.5" style="stop-color:#808181"/>
	<stop  offset="0.6362" style="stop-color:#A9A9AA"/>
	<stop  offset="0.7094" style="stop-color:#808181"/>
	<stop  offset="0.7987" style="stop-color:#4E4D4D"/>
	<stop  offset="1" style="stop-color:#676767"/>
</linearGradient>
<polygon style="fill:url(#SVGID_00000063623611426349452460000012094026098272755892_);" points="87.3,104.9 85.9,107.2 85.1,134.6 
	86.4,136.9 "/>
<linearGradient id="SVGID_00000098900560227095398840000000667880095042798987_" gradientUnits="userSpaceOnUse" x1="-40.3739" y1="-447.396" x2="-40.3739" y2="-415.7316" gradientTransform="matrix(-0.9993 3.650000e-02 -3.680000e-02 -1.0081 32.7656 -312.6637)">
	<stop  offset="0" style="stop-color:#343434"/>
	<stop  offset="0.3541" style="stop-color:#4E4D4D"/>
	<stop  offset="0.433" style="stop-color:#676767"/>
	<stop  offset="0.5" style="stop-color:#808181"/>
	<stop  offset="0.6362" style="stop-color:#A9A9AA"/>
	<stop  offset="0.7094" style="stop-color:#808181"/>
	<stop  offset="0.7987" style="stop-color:#4E4D4D"/>
	<stop  offset="1" style="stop-color:#676767"/>
</linearGradient>
<polygon style="fill:url(#SVGID_00000098900560227095398840000000667880095042798987_);" points="90.1,104.9 88.6,107.2 87.8,134.6 
	89.1,136.9 "/>
<linearGradient id="SVGID_00000130621801758357027270000001145790808240514973_" gradientUnits="userSpaceOnUse" x1="-10219.2188" y1="374.2668" x2="-10219.2188" y2="344.6363" gradientTransform="matrix(0.9993 -3.650000e-02 -3.930000e-02 -1.0773 10313.7178 139.7277)">
	<stop  offset="0" style="stop-color:#343434"/>
	<stop  offset="0.3541" style="stop-color:#4E4D4D"/>
	<stop  offset="0.433" style="stop-color:#676767"/>
	<stop  offset="0.5" style="stop-color:#808181"/>
	<stop  offset="0.6362" style="stop-color:#808181"/>
	<stop  offset="0.7094" style="stop-color:#808181"/>
	<stop  offset="0.7987" style="stop-color:#676767"/>
	<stop  offset="1" style="stop-color:#343434"/>
</linearGradient>
<path style="fill:url(#SVGID_00000130621801758357027270000001145790808240514973_);" d="M87.3,104.9l-1,32l1.4-2.3
	c0.3-9.1,0.6-18.3,0.8-27.4C88.2,106.4,87.8,105.7,87.3,104.9z"/>
<linearGradient id="SVGID_00000050637921590887648410000012687200904615181745_" gradientUnits="userSpaceOnUse" x1="-48.1751" y1="-461.12" x2="-48.1751" y2="-433.158" gradientTransform="matrix(-0.9993 3.650000e-02 -3.600000e-02 -0.9851 32.6093 -317.7818)">
	<stop  offset="0" style="stop-color:#343434"/>
	<stop  offset="0.3541" style="stop-color:#4E4D4D"/>
	<stop  offset="0.433" style="stop-color:#676767"/>
	<stop  offset="0.5" style="stop-color:#808181"/>
	<stop  offset="0.6362" style="stop-color:#A9A9AA"/>
	<stop  offset="0.7094" style="stop-color:#808181"/>
	<stop  offset="0.7987" style="stop-color:#4E4D4D"/>
	<stop  offset="1" style="stop-color:#676767"/>
</linearGradient>
<path style="fill:url(#SVGID_00000050637921590887648410000012687200904615181745_);" d="M97.6,107.4c-0.3-0.1-0.5-0.2-0.8-0.3
	c-0.2,9.2-0.5,18.3-0.7,27.5c0.5,0,1,0,1.5,0.1C97.6,125.6,97.6,116.5,97.6,107.4z"/>
<linearGradient id="SVGID_00000075847098915781192870000007864734199850841239_" gradientUnits="userSpaceOnUse" x1="-10221.8496" y1="369.5011" x2="-10221.8496" y2="339.6294" gradientTransform="matrix(0.9993 -3.650000e-02 -3.900000e-02 -1.0686 10313.3945 131.2402)">
	<stop  offset="0" style="stop-color:#343434"/>
	<stop  offset="0.3541" style="stop-color:#4E4D4D"/>
	<stop  offset="0.433" style="stop-color:#676767"/>
	<stop  offset="0.5" style="stop-color:#808181"/>
	<stop  offset="0.6362" style="stop-color:#808181"/>
	<stop  offset="0.7094" style="stop-color:#808181"/>
	<stop  offset="0.7987" style="stop-color:#676767"/>
	<stop  offset="1" style="stop-color:#343434"/>
</linearGradient>
<path style="fill:url(#SVGID_00000075847098915781192870000007864734199850841239_);" d="M84.7,104.9l-1,32c0.4-0.8,0.9-1.5,1.3-2.3
	c0.3-9.1,0.6-18.2,0.8-27.3C85.5,106.5,85.1,105.7,84.7,104.9z"/>
<linearGradient id="SVGID_00000111896290881380237680000010576467167577306558_" gradientUnits="userSpaceOnUse" x1="-34.9773" y1="-447.2042" x2="-34.9773" y2="-415.5362" gradientTransform="matrix(-0.9993 3.650000e-02 -3.680000e-02 -1.0081 32.7656 -312.6637)">
	<stop  offset="0" style="stop-color:#343434"/>
	<stop  offset="0.3541" style="stop-color:#4E4D4D"/>
	<stop  offset="0.433" style="stop-color:#676767"/>
	<stop  offset="0.5" style="stop-color:#808181"/>
	<stop  offset="0.6362" style="stop-color:#A9A9AA"/>
	<stop  offset="0.7094" style="stop-color:#808181"/>
	<stop  offset="0.7987" style="stop-color:#4E4D4D"/>
	<stop  offset="1" style="stop-color:#676767"/>
</linearGradient>
<polygon style="fill:url(#SVGID_00000111896290881380237680000010576467167577306558_);" points="84.7,104.9 83.3,107.2 82.4,134.6 
	83.8,136.9 "/>
<linearGradient id="SVGID_00000085945017956631311140000007987115068598363038_" gradientUnits="userSpaceOnUse" x1="-61.8689" y1="1363.3229" x2="-61.8689" y2="1363.3229" gradientTransform="matrix(-1 0 0 1 23.6311 -1257.3229)">
	<stop  offset="6.980000e-02" style="stop-color:#6E6F72"/>
	<stop  offset="0.1536" style="stop-color:#939599"/>
	<stop  offset="0.2151" style="stop-color:#6E6F72"/>
	<stop  offset="0.3883" style="stop-color:#6E6F72"/>
	<stop  offset="0.4832" style="stop-color:#939599"/>
	<stop  offset="0.6844" style="stop-color:#BDBEC0"/>
	<stop  offset="0.7458" style="stop-color:#808386"/>
	<stop  offset="0.8073" style="stop-color:#B5B4B4"/>
	<stop  offset="0.9134" style="stop-color:#6E6F72"/>
	<stop  offset="1" style="stop-color:#939599"/>
</linearGradient>
<path style="fill:url(#SVGID_00000085945017956631311140000007987115068598363038_);" d="M85.5,106"/>
<linearGradient id="SVGID_00000085215727930254150110000017452792352894235049_" gradientUnits="userSpaceOnUse" x1="-10224.4463" y1="369.5862" x2="-10224.4463" y2="339.7145" gradientTransform="matrix(0.9993 -3.650000e-02 -3.900000e-02 -1.0686 10313.3945 131.2402)">
	<stop  offset="0" style="stop-color:#343434"/>
	<stop  offset="0.3541" style="stop-color:#4E4D4D"/>
	<stop  offset="0.433" style="stop-color:#676767"/>
	<stop  offset="0.5" style="stop-color:#808181"/>
	<stop  offset="0.6362" style="stop-color:#808181"/>
	<stop  offset="0.7094" style="stop-color:#808181"/>
	<stop  offset="0.7987" style="stop-color:#676767"/>
	<stop  offset="1" style="stop-color:#343434"/>
</linearGradient>
<path style="fill:url(#SVGID_00000085215727930254150110000017452792352894235049_);" d="M82.1,104.9l-1,32c0.4-0.8,0.9-1.5,1.3-2.3
	c0.3-9.1,0.6-18.2,0.8-27.4C82.9,106.5,82.5,105.7,82.1,104.9z"/>
<linearGradient id="SVGID_00000171678115024451991060000007799795854652870065_" gradientUnits="userSpaceOnUse" x1="-29.6299" y1="-441.6238" x2="-29.6299" y2="-410.246" gradientTransform="matrix(-0.9993 3.650000e-02 -3.710000e-02 -1.0163 32.8321 -310.8564)">
	<stop  offset="0" style="stop-color:#343434"/>
	<stop  offset="0.3541" style="stop-color:#4E4D4D"/>
	<stop  offset="0.433" style="stop-color:#676767"/>
	<stop  offset="0.5" style="stop-color:#808181"/>
	<stop  offset="0.6362" style="stop-color:#A9A9AA"/>
	<stop  offset="0.7094" style="stop-color:#808181"/>
	<stop  offset="0.7987" style="stop-color:#4E4D4D"/>
	<stop  offset="1" style="stop-color:#676767"/>
</linearGradient>
<polygon style="fill:url(#SVGID_00000171678115024451991060000007799795854652870065_);" points="79.3,104.9 77.9,107.2 77.1,134.6 
	78.4,136.9 "/>
<linearGradient id="SVGID_00000123432713825598514560000000970785981534989986_" gradientUnits="userSpaceOnUse" x1="-32.379" y1="-447.1065" x2="-32.379" y2="-415.4421" gradientTransform="matrix(-0.9993 3.650000e-02 -3.680000e-02 -1.0081 32.7656 -312.6637)">
	<stop  offset="0" style="stop-color:#343434"/>
	<stop  offset="0.3541" style="stop-color:#4E4D4D"/>
	<stop  offset="0.433" style="stop-color:#676767"/>
	<stop  offset="0.5" style="stop-color:#808181"/>
	<stop  offset="0.6362" style="stop-color:#A9A9AA"/>
	<stop  offset="0.7094" style="stop-color:#808181"/>
	<stop  offset="0.7987" style="stop-color:#4E4D4D"/>
	<stop  offset="1" style="stop-color:#676767"/>
</linearGradient>
<polygon style="fill:url(#SVGID_00000123432713825598514560000000970785981534989986_);" points="82.1,104.9 80.7,107.2 79.8,134.6 
	81.1,136.9 "/>
<linearGradient id="SVGID_00000181789762646778569190000017778036240293353631_" gradientUnits="userSpaceOnUse" x1="-10227.2139" y1="374.5381" x2="-10227.2139" y2="344.9076" gradientTransform="matrix(0.9993 -3.650000e-02 -3.930000e-02 -1.0773 10313.7178 139.7277)">
	<stop  offset="0" style="stop-color:#343434"/>
	<stop  offset="0.3541" style="stop-color:#4E4D4D"/>
	<stop  offset="0.433" style="stop-color:#676767"/>
	<stop  offset="0.5" style="stop-color:#808181"/>
	<stop  offset="0.6362" style="stop-color:#808181"/>
	<stop  offset="0.7094" style="stop-color:#808181"/>
	<stop  offset="0.7987" style="stop-color:#676767"/>
	<stop  offset="1" style="stop-color:#343434"/>
</linearGradient>
<path style="fill:url(#SVGID_00000181789762646778569190000017778036240293353631_);" d="M79.3,104.9l-1,32l1.4-2.3
	c0.3-9.1,0.6-18.3,0.8-27.4C80.2,106.4,79.8,105.7,79.3,104.9z"/>
<linearGradient id="SVGID_00000051375347668075819980000008997390626004869297_" gradientUnits="userSpaceOnUse" x1="-21.9104" y1="-441.1952" x2="-21.9104" y2="-409.9792" gradientTransform="matrix(-0.9993 3.650000e-02 -3.710000e-02 -1.0163 32.8321 -310.8564)">
	<stop  offset="0" style="stop-color:#343434"/>
	<stop  offset="0.3541" style="stop-color:#4E4D4D"/>
	<stop  offset="0.433" style="stop-color:#676767"/>
	<stop  offset="0.5" style="stop-color:#808181"/>
	<stop  offset="0.6362" style="stop-color:#A9A9AA"/>
	<stop  offset="0.7094" style="stop-color:#808181"/>
	<stop  offset="0.7987" style="stop-color:#4E4D4D"/>
	<stop  offset="1" style="stop-color:#676767"/>
</linearGradient>
<path style="fill:url(#SVGID_00000051375347668075819980000008997390626004869297_);" d="M71.3,104.9c-0.6,1.2-1.2,2.4-1.7,3.6
	c0,8.2,0,16.5,0,24.7c0.3,1.2,0.5,2.3,0.8,3.5C70.6,126.1,70.9,115.5,71.3,104.9z"/>
<linearGradient id="SVGID_00000142174546509543247390000000101748920869803392_" gradientUnits="userSpaceOnUse" x1="-10235.2031" y1="374.8308" x2="-10235.2031" y2="345.3857" gradientTransform="matrix(0.9993 -3.650000e-02 -3.930000e-02 -1.0773 10313.7178 139.7277)">
	<stop  offset="0" style="stop-color:#343434"/>
	<stop  offset="0.3541" style="stop-color:#4E4D4D"/>
	<stop  offset="0.433" style="stop-color:#676767"/>
	<stop  offset="0.5" style="stop-color:#808181"/>
	<stop  offset="0.6362" style="stop-color:#808181"/>
	<stop  offset="0.7094" style="stop-color:#808181"/>
	<stop  offset="0.7987" style="stop-color:#676767"/>
	<stop  offset="1" style="stop-color:#343434"/>
</linearGradient>
<path style="fill:url(#SVGID_00000142174546509543247390000000101748920869803392_);" d="M71.3,104.9c-0.3,10.6-0.6,21.2-1,31.8
	c0.5-0.7,0.9-1.4,1.4-2.2c0.3-9.1,0.6-18.3,0.8-27.4C72.1,106.4,71.7,105.7,71.3,104.9z"/>
<linearGradient id="SVGID_00000103237880631111113900000003606944465444365440_" gradientUnits="userSpaceOnUse" x1="-10229.8447" y1="369.7745" x2="-10229.8447" y2="339.9028" gradientTransform="matrix(0.9993 -3.650000e-02 -3.900000e-02 -1.0686 10313.3945 131.2402)">
	<stop  offset="0" style="stop-color:#343434"/>
	<stop  offset="0.3541" style="stop-color:#4E4D4D"/>
	<stop  offset="0.433" style="stop-color:#676767"/>
	<stop  offset="0.5" style="stop-color:#808181"/>
	<stop  offset="0.6362" style="stop-color:#808181"/>
	<stop  offset="0.7094" style="stop-color:#808181"/>
	<stop  offset="0.7987" style="stop-color:#676767"/>
	<stop  offset="1" style="stop-color:#343434"/>
</linearGradient>
<path style="fill:url(#SVGID_00000103237880631111113900000003606944465444365440_);" d="M76.7,104.9l-1,32c0.4-0.8,0.9-1.5,1.3-2.3
	c0.3-9.1,0.6-18.2,0.8-27.3C77.5,106.5,77.1,105.7,76.7,104.9z"/>
<linearGradient id="SVGID_00000070837862152732429700000005326814011194354066_" gradientUnits="userSpaceOnUse" x1="-24.2833" y1="-441.43" x2="-24.2833" y2="-410.0211" gradientTransform="matrix(-0.9993 3.650000e-02 -3.710000e-02 -1.0163 32.8321 -310.8564)">
	<stop  offset="0" style="stop-color:#343434"/>
	<stop  offset="0.3541" style="stop-color:#4E4D4D"/>
	<stop  offset="0.433" style="stop-color:#676767"/>
	<stop  offset="0.5" style="stop-color:#808181"/>
	<stop  offset="0.6362" style="stop-color:#A9A9AA"/>
	<stop  offset="0.7094" style="stop-color:#808181"/>
	<stop  offset="0.7987" style="stop-color:#4E4D4D"/>
	<stop  offset="1" style="stop-color:#676767"/>
</linearGradient>
<polygon style="fill:url(#SVGID_00000070837862152732429700000005326814011194354066_);" points="74,104.9 72.6,107.2 71.7,134.6 
	73,136.9 "/>
<linearGradient id="SVGID_00000042709803303531356760000017847763092198948521_" gradientUnits="userSpaceOnUse" x1="-27.0324" y1="-446.9147" x2="-27.0324" y2="-415.2467" gradientTransform="matrix(-0.9993 3.650000e-02 -3.680000e-02 -1.0081 32.7656 -312.6637)">
	<stop  offset="0" style="stop-color:#343434"/>
	<stop  offset="0.3541" style="stop-color:#4E4D4D"/>
	<stop  offset="0.433" style="stop-color:#676767"/>
	<stop  offset="0.5" style="stop-color:#808181"/>
	<stop  offset="0.6362" style="stop-color:#A9A9AA"/>
	<stop  offset="0.7094" style="stop-color:#808181"/>
	<stop  offset="0.7987" style="stop-color:#4E4D4D"/>
	<stop  offset="1" style="stop-color:#676767"/>
</linearGradient>
<polygon style="fill:url(#SVGID_00000042709803303531356760000017847763092198948521_);" points="76.7,104.9 75.3,107.2 74.5,134.6 
	75.8,136.9 "/>
<linearGradient id="SVGID_00000146499905500751883860000014337869207944470192_" gradientUnits="userSpaceOnUse" x1="-10232.5107" y1="374.7249" x2="-10232.5107" y2="345.0944" gradientTransform="matrix(0.9993 -3.650000e-02 -3.930000e-02 -1.0773 10313.7178 139.7277)">
	<stop  offset="0" style="stop-color:#343434"/>
	<stop  offset="0.3541" style="stop-color:#4E4D4D"/>
	<stop  offset="0.433" style="stop-color:#676767"/>
	<stop  offset="0.5" style="stop-color:#808181"/>
	<stop  offset="0.6362" style="stop-color:#808181"/>
	<stop  offset="0.7094" style="stop-color:#808181"/>
	<stop  offset="0.7987" style="stop-color:#676767"/>
	<stop  offset="1" style="stop-color:#343434"/>
</linearGradient>
<path style="fill:url(#SVGID_00000146499905500751883860000014337869207944470192_);" d="M74,104.9l-1,32l1.4-2.3
	c0.3-9.1,0.6-18.3,0.8-27.4C74.8,106.4,74.4,105.7,74,104.9z"/>
<g>
	
		<linearGradient id="SVGID_00000134964029716839341350000005753749854530493066_" gradientUnits="userSpaceOnUse" x1="98.5" y1="1395.2228" x2="98.5" y2="1361.2228" gradientTransform="matrix(1 0 0 1 0 -1257.3229)">
		<stop  offset="0" style="stop-color:#434342"/>
		<stop  offset="0.1068" style="stop-color:#343434"/>
		<stop  offset="0.2055" style="stop-color:#2E2E2E"/>
		<stop  offset="0.3492" style="stop-color:#424244"/>
		<stop  offset="0.6732" style="stop-color:#7F8080"/>
		<stop  offset="0.9078" style="stop-color:#414142"/>
	</linearGradient>
	<path style="fill:url(#SVGID_00000134964029716839341350000005753749854530493066_);" d="M99.4,103.9c-0.6,1.2-1.2,2.4-1.8,3.5
		c0,9.1,0,18.2,0,27.3c0.6,1.1,1.2,2.1,1.8,3.2C99.4,126.5,99.4,115.2,99.4,103.9z"/>
	
		<linearGradient id="SVGID_00000098192774950171850750000003127198039744545960_" gradientUnits="userSpaceOnUse" x1="99.431" y1="1378.2228" x2="97.6072" y2="1378.2228" gradientTransform="matrix(1 0 0 1 0 -1257.3229)">
		<stop  offset="0" style="stop-color:#020203;stop-opacity:0"/>
		<stop  offset="0.2479" style="stop-color:#050708;stop-opacity:0.2415"/>
		<stop  offset="0.6694" style="stop-color:#18191B;stop-opacity:0.6522"/>
		<stop  offset="1" style="stop-color:#2A292A;stop-opacity:0.9744"/>
	</linearGradient>
	<path style="opacity:0.4;fill:url(#SVGID_00000098192774950171850750000003127198039744545960_);enable-background:new    ;" d="
		M99.4,103.9c-0.6,1.2-1.2,2.4-1.8,3.5c0,9.1,0,18.2,0,27.3c0.6,1.1,1.2,2.1,1.8,3.2C99.4,126.5,99.4,115.2,99.4,103.9z"/>
</g>
<linearGradient id="SVGID_00000062910193877438619280000004780567671985862843_" gradientUnits="userSpaceOnUse" x1="68.25" y1="1390.5522" x2="68.25" y2="1365.8523" gradientTransform="matrix(1 0 0 1 0 -1257.3229)">
	<stop  offset="0" style="stop-color:#434342"/>
	<stop  offset="0.1068" style="stop-color:#343434"/>
	<stop  offset="0.2055" style="stop-color:#2E2E2E"/>
	<stop  offset="0.3492" style="stop-color:#424244"/>
	<stop  offset="0.6732" style="stop-color:#7F8080"/>
	<stop  offset="0.9078" style="stop-color:#414142"/>
</linearGradient>
<rect x="67" y="108.5" style="fill:url(#SVGID_00000062910193877438619280000004780567671985862843_);" width="2.5" height="24.7"/>
<linearGradient id="SVGID_00000075884460953100961770000014102727751469460106_" gradientUnits="userSpaceOnUse" x1="65.55" y1="1390.5522" x2="65.55" y2="1365.8523" gradientTransform="matrix(1 0 0 1 0 -1257.3229)">
	<stop  offset="0" style="stop-color:#383938"/>
	<stop  offset="0.1068" style="stop-color:#2E2E2E"/>
	<stop  offset="0.2055" style="stop-color:#262626"/>
	<stop  offset="0.3492" style="stop-color:#3D3E3E"/>
	<stop  offset="0.6732" style="stop-color:#737373"/>
	<stop  offset="0.9078" style="stop-color:#3B3A3A"/>
</linearGradient>
<path style="fill:url(#SVGID_00000075884460953100961770000014102727751469460106_);" d="M67,108.5v24.7c-1-1.8-1.9-3.7-2.9-5.5
	c0-4.5,0-9.1,0-13.6C65.1,112.2,66,110.4,67,108.5z"/>
<linearGradient id="SVGID_00000059285982602205890010000004358299701059313536_" gradientUnits="userSpaceOnUse" x1="33.05" y1="1384.9229" x2="33.05" y2="1371.4229" gradientTransform="matrix(1 0 0 1 0 -1257.3229)">
	<stop  offset="0" style="stop-color:#434342"/>
	<stop  offset="0.1068" style="stop-color:#343434"/>
	<stop  offset="0.2055" style="stop-color:#2E2E2E"/>
	<stop  offset="0.3492" style="stop-color:#424244"/>
	<stop  offset="0.6732" style="stop-color:#7F8080"/>
	<stop  offset="0.9078" style="stop-color:#414142"/>
</linearGradient>
<rect x="1.9" y="114.1" style="fill:url(#SVGID_00000059285982602205890010000004358299701059313536_);" width="62.3" height="13.5"/>
<linearGradient id="SVGID_00000033332147659393127420000017023778296089100983_" gradientUnits="userSpaceOnUse" x1="1.35" y1="1386.1052" x2="1.35" y2="1370.4443" gradientTransform="matrix(1 0 0 1 0 -1257.3229)">
	<stop  offset="0" style="stop-color:#434342"/>
	<stop  offset="0.1068" style="stop-color:#343434"/>
	<stop  offset="0.2055" style="stop-color:#2E2E2E"/>
	<stop  offset="0.3492" style="stop-color:#424244"/>
	<stop  offset="0.6732" style="stop-color:#7F8080"/>
	<stop  offset="0.9078" style="stop-color:#414142"/>
</linearGradient>
<path style="fill:url(#SVGID_00000033332147659393127420000017023778296089100983_);" d="M0.9,128.8c0.3-0.4,0.6-0.8,0.9-1.2v-13.5
	c-0.3-0.3-0.6-0.7-0.9-1C0.9,118.3,0.9,123.6,0.9,128.8z"/>
<linearGradient id="SVGID_00000052793126662616453480000005969918102417626274_" gradientUnits="userSpaceOnUse" x1="0.9239" y1="1378.2728" x2="1.8612" y2="1378.2728" gradientTransform="matrix(1 0 0 1 0 -1257.3229)">
	<stop  offset="0" style="stop-color:#020203;stop-opacity:0"/>
	<stop  offset="0.2479" style="stop-color:#050708;stop-opacity:0.2415"/>
	<stop  offset="0.6694" style="stop-color:#18191B;stop-opacity:0.6522"/>
	<stop  offset="1" style="stop-color:#2A292A;stop-opacity:0.9744"/>
</linearGradient>
<path style="opacity:0.4;fill:url(#SVGID_00000052793126662616453480000005969918102417626274_);enable-background:new    ;" d="
	M0.9,128.8c0.3-0.4,0.6-0.8,0.9-1.2v-13.5c-0.3-0.3-0.6-0.7-0.9-1C0.9,118.3,0.9,123.6,0.9,128.8z"/>
<image style="overflow:visible;" width="200" height="200" xlink:href="../../pepsi.png"  transform="matrix(6.539326e-02 0 0 6.539326e-02 25.139 32.4183)">
</image>
</svg>
