<?xml version="1.0" encoding="utf-8"?>
<!-- Generator: Adobe Illustrator 25.4.1, SVG Export Plug-In . SVG Version: 6.00 Build 0)  -->
<svg version="1.1" id="Слой_1" xmlns="http://www.w3.org/2000/svg" xmlns:xlink="http://www.w3.org/1999/xlink" x="0px" y="0px"
	 viewBox="0 0 300 480" style="enable-background:new 0 0 300 480;" xml:space="preserve">
<style type="text/css">
	.st0{fill:url(#SVGID_1_);}
	.st1{fill:url(#SVGID_00000090991035074453330350000006076947417295590056_);}
	.st2{fill:url(#SVGID_00000033358427395409914960000014815553304567490212_);}
	.st3{opacity:0.18;fill:#383838;}
	.st4{fill:url(#SVGID_00000112634808461910655370000006649807118825278897_);}
	
		.st5{fill:url(#SVGID_00000082335363689589061210000014504851902950620044_);stroke:#0F0F0F;stroke-width:0.25;stroke-miterlimit:10;}
	
		.st6{fill:url(#SVGID_00000107577091405677325270000014059255504711484326_);stroke:#0F0F0F;stroke-width:0.25;stroke-miterlimit:10;}
	
		.st7{fill:url(#SVGID_00000104673215111210097040000006054030035967001746_);stroke:#0F0F0F;stroke-width:0.25;stroke-miterlimit:10;}
	
		.st8{fill:url(#SVGID_00000144314690570903529700000008063202690754896532_);stroke:#0F0F0F;stroke-width:0.25;stroke-miterlimit:10;}
	
		.st9{fill:url(#SVGID_00000070089510758334394120000013418046570039729595_);stroke:#0F0F0F;stroke-width:0.25;stroke-miterlimit:10;}
	.st10{fill:url(#SVGID_00000179615599743548898690000004267781228474506680_);}
	.st11{fill:url(#SVGID_00000158717529737761148680000013664107033874273468_);}
	
		.st12{fill:url(#SVGID_00000132048920379311353720000002153707939154294664_);stroke:#0F0F0F;stroke-width:0.25;stroke-miterlimit:10;}
	
		.st13{fill:url(#SVGID_00000165205888940155692450000011974902746139012281_);stroke:#0F0F0F;stroke-width:0.25;stroke-miterlimit:10;}
	
		.st14{fill:url(#SVGID_00000100371525862388463320000015250230527170245760_);stroke:#0F0F0F;stroke-width:0.25;stroke-miterlimit:10;}
	
		.st15{fill:url(#SVGID_00000147913180004201691420000004570126983335137703_);stroke:#0F0F0F;stroke-width:0.25;stroke-miterlimit:10;}
	
		.st16{fill:url(#SVGID_00000177447264896142478590000011243659566406997905_);stroke:#0F0F0F;stroke-width:0.25;stroke-miterlimit:10;}
	.st17{fill:url(#SVGID_00000080178782860527584960000014203353931617097114_);}
	.st18{fill:url(#SVGID_00000177475742094276848270000000236942037662286466_);}
	.st19{fill:url(#SVGID_00000178924893983045292490000018405500190612465315_);}
	.st20{fill:url(#SVGID_00000075125242750348725130000010750744651767054465_);}
	.st21{fill:url(#SVGID_00000133512848146865431830000001492260869039293100_);}
	.st22{fill:url(#SVGID_00000081616741663184066860000004698162887511930815_);}
	.st23{fill:url(#SVGID_00000129169304499073508660000008565724098060506246_);}
	.st24{fill:url(#SVGID_00000062194700018910856130000002054251347190065557_);}
	.st25{fill:url(#SVGID_00000061470905260374264970000000330441946155840696_);}
	.st26{fill:#AAAAAA;}
	.st27{fill:url(#SVGID_00000007430757694167317540000008508367372284473737_);}
	.st28{fill:none;}
	.st29{opacity:0.22;}
	.st30{fill:none;stroke:#B0B0B0;stroke-miterlimit:10;}
	.st31{fill:#54504E;stroke:#0F0F0F;stroke-width:0.25;stroke-miterlimit:10;}
	.st32{fill:url(#SVGID_00000049931783362901825390000006815266575076052923_);}
	.st33{fill:#DEDBDB;stroke:#0F0F0F;stroke-width:0.25;stroke-miterlimit:10;}
	.st34{fill:#CAC7C6;stroke:#0F0F0F;stroke-width:0.25;stroke-miterlimit:10;}
	.st35{fill:url(#SVGID_00000106837403178115271370000016457089320771668669_);}
	.st36{fill:url(#SVGID_00000087376408128883344260000009645101104466557086_);}
	.st37{fill:url(#SVGID_00000172400284933055372920000012473182673672960948_);}
	.st38{fill:#54504E;}
	.st39{opacity:0.74;fill:#54504E;enable-background:new    ;}
	.st40{opacity:0.54;fill:#54504E;enable-background:new    ;}
	.st41{fill:none;stroke:#0F0F0F;stroke-width:0.25;stroke-miterlimit:10;}
	.st42{fill:url(#SVGID_00000011033528140299319500000008079980536125474968_);}
	.st43{fill:url(#SVGID_00000019674720042719193440000010603236865038651541_);}
	.st44{fill:url(#SVGID_00000084509566208447089120000002215363824154268034_);}
	.st45{fill:url(#SVGID_00000096737858608464814770000016179294882125345936_);}
	.st46{fill:url(#SVGID_00000178921005817498009920000006532663661237929652_);}
	.st47{fill:url(#SVGID_00000057147854157934853740000008452636431647627931_);}
	.st48{fill:url(#SVGID_00000077285843381101992620000006200244354698950299_);}
	.st49{fill:url(#SVGID_00000123412958190695347520000014595375397774412977_);}
	.st50{fill:none;stroke:url(#SVGID_00000050645178450596574200000000373701904007331978_);stroke-width:2;stroke-miterlimit:10;}
	.st51{fill:none;stroke:url(#SVGID_00000163762209370975793220000010030240253591858871_);stroke-width:2;stroke-miterlimit:10;}
</style>
<linearGradient id="SVGID_1_" gradientUnits="userSpaceOnUse" x1="2021.4191" y1="-2113.1975" x2="2021.4191" y2="-2070.3252" gradientTransform="matrix(6.123234e-17 -1 1 6.123234e-17 2182.7395 2174.4451)">
	<stop  offset="0" style="stop-color:#999898"/>
	<stop  offset="0.1963" style="stop-color:#4F4F4F"/>
	<stop  offset="0.2507" style="stop-color:#5B5B5B"/>
	<stop  offset="0.3499" style="stop-color:#7C7C7C"/>
	<stop  offset="0.3704" style="stop-color:#848484"/>
	<stop  offset="0.433" style="stop-color:#878787"/>
	<stop  offset="0.5974" style="stop-color:#D9D9D9"/>
	<stop  offset="0.6843" style="stop-color:#FFFFFF"/>
	<stop  offset="0.9078" style="stop-color:#B7B7B7"/>
	<stop  offset="1" style="stop-color:#C6C6C6"/>
</linearGradient>
<rect x="69.5" y="119" class="st0" width="42.9" height="68"/>
<linearGradient id="SVGID_00000120547022399939247360000002631180191096152253_" gradientUnits="userSpaceOnUse" x1="1967.9811" y1="-2113.1985" x2="1967.9811" y2="-2070.3262" gradientTransform="matrix(6.123234e-17 -1 1 6.123234e-17 2182.7295 2174.4551)">
	<stop  offset="0" style="stop-color:#999898"/>
	<stop  offset="0.1963" style="stop-color:#4F4F4F"/>
	<stop  offset="0.2507" style="stop-color:#5B5B5B"/>
	<stop  offset="0.3499" style="stop-color:#7C7C7C"/>
	<stop  offset="0.3704" style="stop-color:#848484"/>
	<stop  offset="0.433" style="stop-color:#878787"/>
	<stop  offset="0.5974" style="stop-color:#D9D9D9"/>
	<stop  offset="0.6843" style="stop-color:#FFFFFF"/>
	<stop  offset="0.9078" style="stop-color:#B7B7B7"/>
	<stop  offset="1" style="stop-color:#C6C6C6"/>
</linearGradient>
<rect x="69.5" y="188.9" style="fill:url(#SVGID_00000120547022399939247360000002631180191096152253_);" width="42.9" height="35.2"/>
<linearGradient id="SVGID_00000090270023012395868910000001661987493135614080_" gradientUnits="userSpaceOnUse" x1="1986.5009" y1="-2112.7358" x2="1986.5009" y2="-2070.7866" gradientTransform="matrix(6.123234e-17 -1 1 6.123234e-17 2182.7395 2174.4448)">
	<stop  offset="0" style="stop-color:#999898"/>
	<stop  offset="0.1963" style="stop-color:#4F4F4F"/>
	<stop  offset="0.2507" style="stop-color:#5B5B5B"/>
	<stop  offset="0.3499" style="stop-color:#7C7C7C"/>
	<stop  offset="0.3704" style="stop-color:#848484"/>
	<stop  offset="0.433" style="stop-color:#878787"/>
	<stop  offset="0.5974" style="stop-color:#D9D9D9"/>
	<stop  offset="0.6843" style="stop-color:#FFFFFF"/>
	<stop  offset="0.9078" style="stop-color:#B7B7B7"/>
	<stop  offset="1" style="stop-color:#C6C6C6"/>
</linearGradient>
<rect x="70" y="187" style="fill:url(#SVGID_00000090270023012395868910000001661987493135614080_);" width="41.9" height="1.9"/>
<rect x="70" y="187" class="st3" width="41.9" height="1.9"/>
<linearGradient id="SVGID_00000070119465996256634890000001572014605444372100_" gradientUnits="userSpaceOnUse" x1="90.9727" y1="132.048" x2="90.9727" y2="106.6988">
	<stop  offset="0" style="stop-color:#000000;stop-opacity:0"/>
	<stop  offset="1" style="stop-color:#000000"/>
</linearGradient>
<rect x="69.5" y="106.7" style="fill:url(#SVGID_00000070119465996256634890000001572014605444372100_);" width="42.9" height="25.3"/>
<linearGradient id="SVGID_00000142160181067685071330000016648038840774341277_" gradientUnits="userSpaceOnUse" x1="-3285.6875" y1="514.5661" x2="-3285.6875" y2="583.5163" gradientTransform="matrix(-1 0 0 1.06 -3087.4902 -525.761)">
	<stop  offset="0" style="stop-color:#686868"/>
	<stop  offset="6.000000e-02" style="stop-color:#595959"/>
	<stop  offset="0.22" style="stop-color:#898989"/>
	<stop  offset="0.27" style="stop-color:#7C7C7C"/>
	<stop  offset="0.34" style="stop-color:#898989"/>
	<stop  offset="0.73" style="stop-color:#D8D8D8"/>
	<stop  offset="0.82" style="stop-color:#A5A5A5"/>
	<stop  offset="0.86" style="stop-color:#BABABA"/>
	<stop  offset="0.88" style="stop-color:#A8A8A8"/>
	<stop  offset="0.93" style="stop-color:#BBBABB"/>
	<stop  offset="1" style="stop-color:#606060"/>
</linearGradient>
<polygon style="fill:url(#SVGID_00000142160181067685071330000016648038840774341277_);stroke:#0F0F0F;stroke-width:0.25;stroke-miterlimit:10;" points="
	195,28.9 198,33.7 201.4,97.2 198.9,102 "/>
<linearGradient id="SVGID_00000067947694915011224540000004769695587315929485_" gradientUnits="userSpaceOnUse" x1="-3280.1882" y1="514.5771" x2="-3280.1882" y2="583.5273" gradientTransform="matrix(-1 0 0 1.06 -3087.4902 -525.761)">
	<stop  offset="0" style="stop-color:#686868"/>
	<stop  offset="6.000000e-02" style="stop-color:#595959"/>
	<stop  offset="0.22" style="stop-color:#898989"/>
	<stop  offset="0.27" style="stop-color:#7C7C7C"/>
	<stop  offset="0.34" style="stop-color:#898989"/>
	<stop  offset="0.73" style="stop-color:#D8D8D8"/>
	<stop  offset="0.82" style="stop-color:#A5A5A5"/>
	<stop  offset="0.86" style="stop-color:#BABABA"/>
	<stop  offset="0.88" style="stop-color:#A8A8A8"/>
	<stop  offset="0.93" style="stop-color:#BBBABB"/>
	<stop  offset="1" style="stop-color:#606060"/>
</linearGradient>
<polygon style="fill:url(#SVGID_00000067947694915011224540000004769695587315929485_);stroke:#0F0F0F;stroke-width:0.25;stroke-miterlimit:10;" points="
	189.5,28.9 192.5,33.7 195.9,97.2 193.4,102 "/>
<linearGradient id="SVGID_00000142140804692210580130000013838349815910107299_" gradientUnits="userSpaceOnUse" x1="-3274.6836" y1="514.5991" x2="-3274.6836" y2="583.5493" gradientTransform="matrix(-1 0 0 1.06 -3087.4902 -525.761)">
	<stop  offset="0" style="stop-color:#686868"/>
	<stop  offset="6.000000e-02" style="stop-color:#595959"/>
	<stop  offset="0.22" style="stop-color:#898989"/>
	<stop  offset="0.27" style="stop-color:#7C7C7C"/>
	<stop  offset="0.34" style="stop-color:#898989"/>
	<stop  offset="0.73" style="stop-color:#D8D8D8"/>
	<stop  offset="0.82" style="stop-color:#A5A5A5"/>
	<stop  offset="0.86" style="stop-color:#BABABA"/>
	<stop  offset="0.88" style="stop-color:#A8A8A8"/>
	<stop  offset="0.93" style="stop-color:#BBBABB"/>
	<stop  offset="1" style="stop-color:#606060"/>
</linearGradient>
<polygon style="fill:url(#SVGID_00000142140804692210580130000013838349815910107299_);stroke:#0F0F0F;stroke-width:0.25;stroke-miterlimit:10;" points="
	184,28.9 187,33.7 190.4,97.2 187.9,102 "/>
<linearGradient id="SVGID_00000136378321979229069640000005502917280042975671_" gradientUnits="userSpaceOnUse" x1="-3269.179" y1="514.6101" x2="-3269.179" y2="583.5602" gradientTransform="matrix(-1 0 0 1.06 -3087.4902 -525.761)">
	<stop  offset="0" style="stop-color:#686868"/>
	<stop  offset="6.000000e-02" style="stop-color:#595959"/>
	<stop  offset="0.22" style="stop-color:#898989"/>
	<stop  offset="0.27" style="stop-color:#7C7C7C"/>
	<stop  offset="0.34" style="stop-color:#898989"/>
	<stop  offset="0.73" style="stop-color:#D8D8D8"/>
	<stop  offset="0.82" style="stop-color:#A5A5A5"/>
	<stop  offset="0.86" style="stop-color:#BABABA"/>
	<stop  offset="0.88" style="stop-color:#A8A8A8"/>
	<stop  offset="0.93" style="stop-color:#BBBABB"/>
	<stop  offset="1" style="stop-color:#606060"/>
</linearGradient>
<polygon style="fill:url(#SVGID_00000136378321979229069640000005502917280042975671_);stroke:#0F0F0F;stroke-width:0.25;stroke-miterlimit:10;" points="
	178.5,28.9 181.5,33.7 184.9,97.2 182.4,102 "/>
<linearGradient id="SVGID_00000120528649162393773640000004910040866827598736_" gradientUnits="userSpaceOnUse" x1="-3263.6855" y1="514.6321" x2="-3263.6855" y2="583.5823" gradientTransform="matrix(-1 0 0 1.06 -3087.4902 -525.761)">
	<stop  offset="0" style="stop-color:#686868"/>
	<stop  offset="6.000000e-02" style="stop-color:#595959"/>
	<stop  offset="0.22" style="stop-color:#898989"/>
	<stop  offset="0.27" style="stop-color:#7C7C7C"/>
	<stop  offset="0.34" style="stop-color:#898989"/>
	<stop  offset="0.73" style="stop-color:#D8D8D8"/>
	<stop  offset="0.82" style="stop-color:#A5A5A5"/>
	<stop  offset="0.86" style="stop-color:#BABABA"/>
	<stop  offset="0.88" style="stop-color:#A8A8A8"/>
	<stop  offset="0.93" style="stop-color:#BBBABB"/>
	<stop  offset="1" style="stop-color:#606060"/>
</linearGradient>
<polygon style="fill:url(#SVGID_00000120528649162393773640000004910040866827598736_);stroke:#0F0F0F;stroke-width:0.25;stroke-miterlimit:10;" points="
	173,28.9 176,33.7 179.4,97.2 176.9,102 "/>
<linearGradient id="SVGID_00000168090827512866379870000015156287671841344942_" gradientUnits="userSpaceOnUse" x1="-3258.1809" y1="514.6431" x2="-3258.1809" y2="583.5932" gradientTransform="matrix(-1 0 0 1.06 -3087.4902 -525.761)">
	<stop  offset="0" style="stop-color:#686868"/>
	<stop  offset="6.000000e-02" style="stop-color:#595959"/>
	<stop  offset="0.22" style="stop-color:#898989"/>
	<stop  offset="0.27" style="stop-color:#7C7C7C"/>
	<stop  offset="0.34" style="stop-color:#898989"/>
	<stop  offset="0.73" style="stop-color:#D8D8D8"/>
	<stop  offset="0.82" style="stop-color:#A5A5A5"/>
	<stop  offset="0.86" style="stop-color:#BABABA"/>
	<stop  offset="0.88" style="stop-color:#A8A8A8"/>
	<stop  offset="0.93" style="stop-color:#BBBABB"/>
	<stop  offset="1" style="stop-color:#606060"/>
</linearGradient>
<polygon style="fill:url(#SVGID_00000168090827512866379870000015156287671841344942_);" points="167.5,28.9 170.5,33.7 173.9,97.2 
	171.4,102 "/>
<linearGradient id="SVGID_00000036219602064547360860000014180367820118457775_" gradientUnits="userSpaceOnUse" x1="-3253.0938" y1="516.7306" x2="-3253.0938" y2="581.5347" gradientTransform="matrix(-1 0 0 1.06 -3087.4902 -525.761)">
	<stop  offset="0" style="stop-color:#686868"/>
	<stop  offset="6.000000e-02" style="stop-color:#595959"/>
	<stop  offset="0.22" style="stop-color:#898989"/>
	<stop  offset="0.27" style="stop-color:#7C7C7C"/>
	<stop  offset="0.34" style="stop-color:#898989"/>
	<stop  offset="0.73" style="stop-color:#D8D8D8"/>
	<stop  offset="0.82" style="stop-color:#A5A5A5"/>
	<stop  offset="0.86" style="stop-color:#BABABA"/>
	<stop  offset="0.88" style="stop-color:#A8A8A8"/>
	<stop  offset="0.93" style="stop-color:#BBBABB"/>
	<stop  offset="1" style="stop-color:#606060"/>
</linearGradient>
<polygon style="fill:url(#SVGID_00000036219602064547360860000014180367820118457775_);" points="162.9,31.1 165,33.7 168.4,97.2 
	165.9,99.8 "/>
<linearGradient id="SVGID_00000164513379505157627760000011020846090789463997_" gradientUnits="userSpaceOnUse" x1="-3288.6924" y1="583.5441" x2="-3288.6924" y2="514.5939" gradientTransform="matrix(-1 0 0 1.06 -3087.4902 -525.761)">
	<stop  offset="0" style="stop-color:#686868"/>
	<stop  offset="6.000000e-02" style="stop-color:#424242"/>
	<stop  offset="0.22" style="stop-color:#898989"/>
	<stop  offset="0.27" style="stop-color:#7C7C7C"/>
	<stop  offset="0.34" style="stop-color:#898989"/>
	<stop  offset="0.41" style="stop-color:#C6C6C6"/>
	<stop  offset="0.47" style="stop-color:#F4F4F4"/>
	<stop  offset="0.52" style="stop-color:#D6D6D6"/>
	<stop  offset="0.55" style="stop-color:#D3D3D3"/>
	<stop  offset="0.59" style="stop-color:#F9F9F9"/>
	<stop  offset="0.61" style="stop-color:#F9F9F9"/>
	<stop  offset="0.66" style="stop-color:#FFFFFF"/>
	<stop  offset="0.69" style="stop-color:#FFFFFF"/>
	<stop  offset="0.73" style="stop-color:#D8D8D8"/>
	<stop  offset="0.82" style="stop-color:#A5A5A5"/>
	<stop  offset="0.86" style="stop-color:#BABABA"/>
	<stop  offset="0.88" style="stop-color:#A8A8A8"/>
	<stop  offset="0.93" style="stop-color:#BBBABB"/>
	<stop  offset="1" style="stop-color:#606060"/>
</linearGradient>
<polygon style="fill:url(#SVGID_00000164513379505157627760000011020846090789463997_);stroke:#0F0F0F;stroke-width:0.25;stroke-miterlimit:10;" points="
	200.5,28.9 204.4,102 201.4,97.2 198,33.7 "/>
<linearGradient id="SVGID_00000126310672309499064980000005519108358034039226_" gradientUnits="userSpaceOnUse" x1="-3283.1877" y1="583.566" x2="-3283.1877" y2="514.6159" gradientTransform="matrix(-1 0 0 1.06 -3087.4902 -525.761)">
	<stop  offset="0" style="stop-color:#686868"/>
	<stop  offset="6.000000e-02" style="stop-color:#424242"/>
	<stop  offset="0.22" style="stop-color:#898989"/>
	<stop  offset="0.27" style="stop-color:#7C7C7C"/>
	<stop  offset="0.34" style="stop-color:#898989"/>
	<stop  offset="0.41" style="stop-color:#C6C6C6"/>
	<stop  offset="0.47" style="stop-color:#F4F4F4"/>
	<stop  offset="0.52" style="stop-color:#D6D6D6"/>
	<stop  offset="0.55" style="stop-color:#D3D3D3"/>
	<stop  offset="0.59" style="stop-color:#F9F9F9"/>
	<stop  offset="0.61" style="stop-color:#F9F9F9"/>
	<stop  offset="0.66" style="stop-color:#FFFFFF"/>
	<stop  offset="0.69" style="stop-color:#FFFFFF"/>
	<stop  offset="0.73" style="stop-color:#D8D8D8"/>
	<stop  offset="0.82" style="stop-color:#A5A5A5"/>
	<stop  offset="0.86" style="stop-color:#BABABA"/>
	<stop  offset="0.88" style="stop-color:#A8A8A8"/>
	<stop  offset="0.93" style="stop-color:#BBBABB"/>
	<stop  offset="1" style="stop-color:#606060"/>
</linearGradient>
<polygon style="fill:url(#SVGID_00000126310672309499064980000005519108358034039226_);stroke:#0F0F0F;stroke-width:0.25;stroke-miterlimit:10;" points="
	195,28.9 198.9,102 195.9,97.2 192.5,33.7 "/>
<linearGradient id="SVGID_00000116942209596981411480000018232979988511310474_" gradientUnits="userSpaceOnUse" x1="-3277.6831" y1="583.577" x2="-3277.6831" y2="514.6269" gradientTransform="matrix(-1 0 0 1.06 -3087.4902 -525.761)">
	<stop  offset="0" style="stop-color:#686868"/>
	<stop  offset="6.000000e-02" style="stop-color:#424242"/>
	<stop  offset="0.22" style="stop-color:#898989"/>
	<stop  offset="0.27" style="stop-color:#7C7C7C"/>
	<stop  offset="0.34" style="stop-color:#898989"/>
	<stop  offset="0.41" style="stop-color:#C6C6C6"/>
	<stop  offset="0.47" style="stop-color:#F4F4F4"/>
	<stop  offset="0.52" style="stop-color:#D6D6D6"/>
	<stop  offset="0.55" style="stop-color:#D3D3D3"/>
	<stop  offset="0.59" style="stop-color:#F9F9F9"/>
	<stop  offset="0.61" style="stop-color:#F9F9F9"/>
	<stop  offset="0.66" style="stop-color:#FFFFFF"/>
	<stop  offset="0.69" style="stop-color:#FFFFFF"/>
	<stop  offset="0.73" style="stop-color:#D8D8D8"/>
	<stop  offset="0.82" style="stop-color:#A5A5A5"/>
	<stop  offset="0.86" style="stop-color:#BABABA"/>
	<stop  offset="0.88" style="stop-color:#A8A8A8"/>
	<stop  offset="0.93" style="stop-color:#BBBABB"/>
	<stop  offset="1" style="stop-color:#606060"/>
</linearGradient>
<polygon style="fill:url(#SVGID_00000116942209596981411480000018232979988511310474_);stroke:#0F0F0F;stroke-width:0.25;stroke-miterlimit:10;" points="
	189.5,28.9 193.4,102 190.4,97.2 187,33.7 "/>
<linearGradient id="SVGID_00000002345330432908681720000013387862421070385322_" gradientUnits="userSpaceOnUse" x1="-3272.1897" y1="583.5991" x2="-3272.1897" y2="514.6489" gradientTransform="matrix(-1 0 0 1.06 -3087.4902 -525.761)">
	<stop  offset="0" style="stop-color:#686868"/>
	<stop  offset="6.000000e-02" style="stop-color:#424242"/>
	<stop  offset="0.22" style="stop-color:#898989"/>
	<stop  offset="0.27" style="stop-color:#7C7C7C"/>
	<stop  offset="0.34" style="stop-color:#898989"/>
	<stop  offset="0.41" style="stop-color:#C6C6C6"/>
	<stop  offset="0.47" style="stop-color:#F4F4F4"/>
	<stop  offset="0.52" style="stop-color:#D6D6D6"/>
	<stop  offset="0.55" style="stop-color:#D3D3D3"/>
	<stop  offset="0.59" style="stop-color:#F9F9F9"/>
	<stop  offset="0.61" style="stop-color:#F9F9F9"/>
	<stop  offset="0.66" style="stop-color:#FFFFFF"/>
	<stop  offset="0.69" style="stop-color:#FFFFFF"/>
	<stop  offset="0.73" style="stop-color:#D8D8D8"/>
	<stop  offset="0.82" style="stop-color:#A5A5A5"/>
	<stop  offset="0.86" style="stop-color:#BABABA"/>
	<stop  offset="0.88" style="stop-color:#A8A8A8"/>
	<stop  offset="0.93" style="stop-color:#BBBABB"/>
	<stop  offset="1" style="stop-color:#606060"/>
</linearGradient>
<polygon style="fill:url(#SVGID_00000002345330432908681720000013387862421070385322_);stroke:#0F0F0F;stroke-width:0.25;stroke-miterlimit:10;" points="
	184,28.9 187.9,102 184.9,97.2 181.5,33.7 "/>
<linearGradient id="SVGID_00000090289060638420790860000002394222412262395273_" gradientUnits="userSpaceOnUse" x1="-3266.6851" y1="583.61" x2="-3266.6851" y2="514.6599" gradientTransform="matrix(-1 0 0 1.06 -3087.4902 -525.761)">
	<stop  offset="0" style="stop-color:#686868"/>
	<stop  offset="6.000000e-02" style="stop-color:#424242"/>
	<stop  offset="0.22" style="stop-color:#898989"/>
	<stop  offset="0.27" style="stop-color:#7C7C7C"/>
	<stop  offset="0.34" style="stop-color:#898989"/>
	<stop  offset="0.41" style="stop-color:#C6C6C6"/>
	<stop  offset="0.47" style="stop-color:#F4F4F4"/>
	<stop  offset="0.52" style="stop-color:#D6D6D6"/>
	<stop  offset="0.55" style="stop-color:#D3D3D3"/>
	<stop  offset="0.59" style="stop-color:#F9F9F9"/>
	<stop  offset="0.61" style="stop-color:#F9F9F9"/>
	<stop  offset="0.66" style="stop-color:#FFFFFF"/>
	<stop  offset="0.69" style="stop-color:#FFFFFF"/>
	<stop  offset="0.73" style="stop-color:#D8D8D8"/>
	<stop  offset="0.82" style="stop-color:#A5A5A5"/>
	<stop  offset="0.86" style="stop-color:#BABABA"/>
	<stop  offset="0.88" style="stop-color:#A8A8A8"/>
	<stop  offset="0.93" style="stop-color:#BBBABB"/>
	<stop  offset="1" style="stop-color:#606060"/>
</linearGradient>
<polygon style="fill:url(#SVGID_00000090289060638420790860000002394222412262395273_);stroke:#0F0F0F;stroke-width:0.25;stroke-miterlimit:10;" points="
	178.5,28.9 182.4,102 179.4,97.2 176,33.7 "/>
<linearGradient id="SVGID_00000181051373893960990420000007116605968401474990_" gradientUnits="userSpaceOnUse" x1="-3261.1804" y1="583.632" x2="-3261.1804" y2="514.6818" gradientTransform="matrix(-1 0 0 1.06 -3087.4902 -525.761)">
	<stop  offset="0" style="stop-color:#686868"/>
	<stop  offset="6.000000e-02" style="stop-color:#424242"/>
	<stop  offset="0.22" style="stop-color:#898989"/>
	<stop  offset="0.27" style="stop-color:#7C7C7C"/>
	<stop  offset="0.34" style="stop-color:#898989"/>
	<stop  offset="0.41" style="stop-color:#C6C6C6"/>
	<stop  offset="0.47" style="stop-color:#F4F4F4"/>
	<stop  offset="0.52" style="stop-color:#D6D6D6"/>
	<stop  offset="0.55" style="stop-color:#D3D3D3"/>
	<stop  offset="0.59" style="stop-color:#F9F9F9"/>
	<stop  offset="0.61" style="stop-color:#F9F9F9"/>
	<stop  offset="0.66" style="stop-color:#FFFFFF"/>
	<stop  offset="0.69" style="stop-color:#FFFFFF"/>
	<stop  offset="0.73" style="stop-color:#D8D8D8"/>
	<stop  offset="0.82" style="stop-color:#A5A5A5"/>
	<stop  offset="0.86" style="stop-color:#BABABA"/>
	<stop  offset="0.88" style="stop-color:#A8A8A8"/>
	<stop  offset="0.93" style="stop-color:#BBBABB"/>
	<stop  offset="1" style="stop-color:#606060"/>
</linearGradient>
<polygon style="fill:url(#SVGID_00000181051373893960990420000007116605968401474990_);" points="173,28.9 176.9,102 173.9,97.2 
	170.5,33.7 "/>
<polygon class="st3" points="167.5,28.9 170.5,33.7 173.9,97.2 171.4,102 "/>
<polygon class="st3" points="173,28.9 176.9,102 173.9,97.2 170.5,33.7 "/>
<linearGradient id="SVGID_00000016785712256642861340000007032118267057475496_" gradientUnits="userSpaceOnUse" x1="-3255.6868" y1="583.643" x2="-3255.6868" y2="514.6928" gradientTransform="matrix(-1 0 0 1.06 -3087.4902 -525.761)">
	<stop  offset="0" style="stop-color:#686868"/>
	<stop  offset="6.000000e-02" style="stop-color:#424242"/>
	<stop  offset="0.22" style="stop-color:#898989"/>
	<stop  offset="0.27" style="stop-color:#7C7C7C"/>
	<stop  offset="0.34" style="stop-color:#898989"/>
	<stop  offset="0.41" style="stop-color:#C6C6C6"/>
	<stop  offset="0.47" style="stop-color:#F4F4F4"/>
	<stop  offset="0.52" style="stop-color:#D6D6D6"/>
	<stop  offset="0.55" style="stop-color:#D3D3D3"/>
	<stop  offset="0.59" style="stop-color:#F9F9F9"/>
	<stop  offset="0.61" style="stop-color:#F9F9F9"/>
	<stop  offset="0.66" style="stop-color:#FFFFFF"/>
	<stop  offset="0.69" style="stop-color:#FFFFFF"/>
	<stop  offset="0.73" style="stop-color:#D8D8D8"/>
	<stop  offset="0.82" style="stop-color:#A5A5A5"/>
	<stop  offset="0.86" style="stop-color:#BABABA"/>
	<stop  offset="0.88" style="stop-color:#A8A8A8"/>
	<stop  offset="0.93" style="stop-color:#BBBABB"/>
	<stop  offset="1" style="stop-color:#606060"/>
</linearGradient>
<polygon style="fill:url(#SVGID_00000016785712256642861340000007032118267057475496_);" points="167.5,28.9 171.4,102 168.4,97.2 
	165,33.7 "/>
<linearGradient id="SVGID_00000111171845888910299170000012188761406737395074_" gradientUnits="userSpaceOnUse" x1="-3251.2974" y1="581.5884" x2="-3251.2974" y2="516.7843" gradientTransform="matrix(-1 0 0 1.06 -3087.4902 -525.761)">
	<stop  offset="0" style="stop-color:#686868"/>
	<stop  offset="6.000000e-02" style="stop-color:#424242"/>
	<stop  offset="0.22" style="stop-color:#898989"/>
	<stop  offset="0.27" style="stop-color:#7C7C7C"/>
	<stop  offset="0.34" style="stop-color:#898989"/>
	<stop  offset="0.41" style="stop-color:#C6C6C6"/>
	<stop  offset="0.47" style="stop-color:#F4F4F4"/>
	<stop  offset="0.52" style="stop-color:#D6D6D6"/>
	<stop  offset="0.55" style="stop-color:#D3D3D3"/>
	<stop  offset="0.59" style="stop-color:#F9F9F9"/>
	<stop  offset="0.61" style="stop-color:#F9F9F9"/>
	<stop  offset="0.66" style="stop-color:#FFFFFF"/>
	<stop  offset="0.69" style="stop-color:#FFFFFF"/>
	<stop  offset="0.73" style="stop-color:#D8D8D8"/>
	<stop  offset="0.82" style="stop-color:#A5A5A5"/>
	<stop  offset="0.86" style="stop-color:#BABABA"/>
	<stop  offset="0.88" style="stop-color:#A8A8A8"/>
	<stop  offset="0.93" style="stop-color:#BBBABB"/>
	<stop  offset="1" style="stop-color:#606060"/>
</linearGradient>
<polygon style="fill:url(#SVGID_00000111171845888910299170000012188761406737395074_);" points="161.8,33.7 162.9,31.1 165.9,99.8 
	161.8,97.2 "/>
<linearGradient id="SVGID_00000027605409844123107030000005045517038398070919_" gradientUnits="userSpaceOnUse" x1="153.7923" y1="383.7328" x2="153.7923" y2="447.2171" gradientTransform="matrix(1 0 0 -1 0 480.9056)">
	<stop  offset="0" style="stop-color:#999898"/>
	<stop  offset="0.1963" style="stop-color:#4F4F4F"/>
	<stop  offset="0.2507" style="stop-color:#5B5B5B"/>
	<stop  offset="0.3499" style="stop-color:#7C7C7C"/>
	<stop  offset="0.3704" style="stop-color:#848484"/>
	<stop  offset="0.433" style="stop-color:#878787"/>
	<stop  offset="0.5974" style="stop-color:#D9D9D9"/>
	<stop  offset="0.6843" style="stop-color:#FFFFFF"/>
	<stop  offset="0.9078" style="stop-color:#B7B7B7"/>
	<stop  offset="1" style="stop-color:#C6C6C6"/>
</linearGradient>
<rect x="145.8" y="33.7" style="fill:url(#SVGID_00000027605409844123107030000005045517038398070919_);" width="15.9" height="63.5"/>
<linearGradient id="SVGID_00000047756143663802220430000015905487677600360621_" gradientUnits="userSpaceOnUse" x1="-1360.0266" y1="374.2068" x2="-1360.0266" y2="456.6112" gradientTransform="matrix(-1 0 0 -1 -1186.21 480.9056)">
	<stop  offset="0" style="stop-color:#999898"/>
	<stop  offset="0.1963" style="stop-color:#4F4F4F"/>
	<stop  offset="0.2507" style="stop-color:#5B5B5B"/>
	<stop  offset="0.3499" style="stop-color:#7C7C7C"/>
	<stop  offset="0.3704" style="stop-color:#848484"/>
	<stop  offset="0.433" style="stop-color:#878787"/>
	<stop  offset="0.5974" style="stop-color:#D9D9D9"/>
	<stop  offset="0.6843" style="stop-color:#FFFFFF"/>
	<stop  offset="0.9078" style="stop-color:#B7B7B7"/>
	<stop  offset="1" style="stop-color:#C6C6C6"/>
</linearGradient>
<rect x="172" y="24.3" style="fill:url(#SVGID_00000047756143663802220430000015905487677600360621_);" width="3.7" height="82.4"/>
<linearGradient id="SVGID_00000083072905950336711000000011223124840659891376_" gradientUnits="userSpaceOnUse" x1="-1413.3851" y1="369.2296" x2="-1413.3851" y2="461.6983" gradientTransform="matrix(-1 0 0 -1 -1186.22 480.9056)">
	<stop  offset="2.230000e-02" style="stop-color:#1A1A1A"/>
	<stop  offset="0.9832" style="stop-color:#CCCCCC"/>
</linearGradient>
<polygon style="fill:url(#SVGID_00000083072905950336711000000011223124840659891376_);" points="222.1,111.7 227.7,111.7 
	232.2,106.7 232.2,24.3 227.7,19.2 222.1,19.2 "/>
<linearGradient id="SVGID_00000123431689179907735560000002840435011378178945_" gradientUnits="userSpaceOnUse" x1="-1798.7499" y1="369.2296" x2="-1798.7499" y2="461.6983" gradientTransform="matrix(1 0 0 -1 1979.45 480.9056)">
	<stop  offset="2.230000e-02" style="stop-color:#1A1A1A"/>
	<stop  offset="0.9832" style="stop-color:#CCCCCC"/>
</linearGradient>
<polygon style="fill:url(#SVGID_00000123431689179907735560000002840435011378178945_);" points="185.7,111.7 180.2,111.7 
	175.7,106.7 175.7,24.3 180.2,19.2 185.7,19.2 "/>
<linearGradient id="SVGID_00000103982420539604592870000000652479098283337115_" gradientUnits="userSpaceOnUse" x1="-1390.1526" y1="437.4165" x2="-1390.1526" y2="461.6983" gradientTransform="matrix(-1 0 0 -1 -1186.22 480.9056)">
	<stop  offset="0" style="stop-color:#F4F4F4"/>
	<stop  offset="1" style="stop-color:#BABABA"/>
</linearGradient>
<path style="fill:url(#SVGID_00000103982420539604592870000000652479098283337115_);" d="M227.7,19.2h-47.5c0,0-4.5,4.1-4.5,12.1
	s4.5,12.1,4.5,12.1h47.5c0,0,4.5-4.2,4.5-12.1S227.7,19.2,227.7,19.2z"/>
<linearGradient id="SVGID_00000123413284455357922370000008095698280518975416_" gradientUnits="userSpaceOnUse" x1="-1390.1526" y1="369.2296" x2="-1390.1526" y2="393.5224" gradientTransform="matrix(-1 0 0 -1 -1186.22 480.9056)">
	<stop  offset="0" style="stop-color:#727272"/>
	<stop  offset="1" style="stop-color:#4C4C4C"/>
</linearGradient>
<path style="fill:url(#SVGID_00000123413284455357922370000008095698280518975416_);" d="M227.7,87.4h-47.5c0,0-4.5,4.2-4.5,12.2
	s4.5,12.1,4.5,12.1h47.5c0,0,4.5-4.2,4.5-12.1S227.7,87.4,227.7,87.4z"/>
<path class="st26" d="M227.7,43.5h-47.5c0,0-4.5,6.9-4.5,22s4.5,22,4.5,22h47.5c0,0,4.5-6.8,4.5-22S227.7,43.5,227.7,43.5z"/>
<linearGradient id="SVGID_00000173881445856043122590000011160808254583465102_" gradientUnits="userSpaceOnUse" x1="-1294.4763" y1="406.3858" x2="-1294.4763" y2="488.8012" gradientTransform="matrix(-1 0 0 -1 -1052.3301 513.0956)">
	<stop  offset="0" style="stop-color:#999898"/>
	<stop  offset="0.1963" style="stop-color:#4F4F4F"/>
	<stop  offset="0.2507" style="stop-color:#5B5B5B"/>
	<stop  offset="0.3499" style="stop-color:#7C7C7C"/>
	<stop  offset="0.3704" style="stop-color:#848484"/>
	<stop  offset="0.433" style="stop-color:#878787"/>
	<stop  offset="0.5974" style="stop-color:#D9D9D9"/>
	<stop  offset="0.6843" style="stop-color:#FFFFFF"/>
	<stop  offset="0.9078" style="stop-color:#B7B7B7"/>
	<stop  offset="1" style="stop-color:#C6C6C6"/>
</linearGradient>
<path style="fill:url(#SVGID_00000173881445856043122590000011160808254583465102_);" d="M250.5,106.7h-18.4l0,0V24.3l0,0h18.4
	c0.9,0,1.6,0.7,1.6,1.6v79.3C252.1,106,251.4,106.7,250.5,106.7L250.5,106.7z"/>
<path class="st28" d="M180.2,263h47.4l4.5,5h18.9c0.5,0.1,1,0.5,0.9,1.1l0.1,80.2c0,0.5-0.4,1-1,1h-18.9l-4.4,5.3l-47.6-0.1l-4.4-5
	h-3.9V268h3.8L180.2,263z"/>
<g>
	<defs>
		<path id="SVGID_00000086683810804086317800000002322700862292614580_" d="M180.2,263h47.4l4.5,5h18.9c0.5,0.1,1,0.5,0.9,1.1
			l0.1,80.2c0,0.5-0.4,1-1,1h-18.9l-4.4,5.3l-47.6-0.1l-4.4-5h-3.9V268h3.8L180.2,263z"/>
	</defs>
	<clipPath id="SVGID_00000068674459859759885900000014677038719746442938_">
		<use xlink:href="#SVGID_00000086683810804086317800000002322700862292614580_"  style="overflow:visible;"/>
	</clipPath>
	<g style="clip-path:url(#SVGID_00000068674459859759885900000014677038719746442938_);">
		
			<image style="overflow:visible;" width="600" height="600" xlink:href="../../background.jpg"  transform="matrix(0.472 0 0 0.472 12.1855 187.1527)">
		</image>
	</g>
</g>
<path class="st29" d="M180.2,263h47.4l4.5,5h18.9c0.5,0.1,1,0.5,0.9,1.1l0.1,80.2c0,0.5-0.4,1-1,1h-18.9l-4.4,5.3l-47.6-0.1l-4.4-5
	h-3.9V268h3.8L180.2,263z"/>
<path class="st30" d="M180.2,263h47.4l4.5,5h18.9c0.5,0.1,1,0.5,0.9,1.1l0.1,80.2c0,0.5-0.4,1-1,1h-18.9l-4.4,5.3l-47.6-0.1l-4.4-5
	h-3.9V268h3.8L180.2,263z"/>
<path class="st31" d="M229.7,329.3l-2.7,11.1h-10.3l-2.6,5.3l-3.1-4.8l-2.6,4.8l-3.1-4.8l-2.6,4.8l-1.9-2.9c0.9-1.7,1.9-3.3,2.8-5
	l-6.6-6.2L229.7,329.3z"/>
<path class="st31" d="M229.7,288.6l-2.7-10.2h-9.9l-1.3-5.7l-2.5,4.8l-3.1-4.8l-2.6,4.8l-3.1-4.8l-2.4,4.8c1,1.4,1.8,2.8,2.9,4.2
	l-7.8,5.1L229.7,288.6z"/>
<path class="st28" d="M210.3,279.1h-3.6l-3.2-4.2l-1.3,2.6l-3.1-4.8l-2.4,4.8l-3-4.8l-2.3,4.8l-3-4.8l-2.2,4.8l-3-4.8l-2.2,4.8
	l-3-4.8l-2.4,4.8l-3-4.8c-0.8,1.6-1.5,3.2-2.3,4.8l-3-4.8l-2.5,4.8l-2.2-2.6l-1.1,2.6h-14.5v-0.2l0,0v-8.1h-1.3V266H77
	c-16.1,0-29.1,13-29.1,29.1c0,0,0,0,0,0.1V364H51v1.2h18.6v65.5H70v1.9h-0.5v35.2h42.9v-35.2h-0.5v-1.9h0.5v-65.5H131V364h3.3
	l0.7-2.8c0.9-4,4.1-7.2,8.1-8.1l2.8-0.6v-3.3h1.2v-8.1l0,0v-0.2h14.5l4.1,2.6l2.5-2.6l3,4.8l2.3-4.8l3,4.8l2.3-4.8l3,4.8l2.3-4.8
	l3,4.8l2.3-4.8l3,4.8l2.3-4.8l3,4.8l2.3-4.8l1.6,2.5l2.6-3.7h6.3V279.1z"/>
<g>
	<defs>
		<path id="SVGID_00000145754257540082903450000007222166492119145918_" d="M210.3,279.1h-3.6l-3.2-4.2l-1.3,2.6l-3.1-4.8l-2.4,4.8
			l-3-4.8l-2.3,4.8l-3-4.8l-2.2,4.8l-3-4.8l-2.2,4.8l-3-4.8l-2.4,4.8l-3-4.8c-0.8,1.6-1.5,3.2-2.3,4.8l-3-4.8l-2.5,4.8l-2.2-2.6
			l-1.1,2.6h-14.5v-0.2l0,0v-8.1h-1.3V266H77c-16.1,0-29.1,13-29.1,29.1c0,0,0,0,0,0.1V364H51v1.2h18.6v65.5H70v1.9h-0.5v35.2h42.9
			v-35.2h-0.5v-1.9h0.5v-65.5H131V364h3.3l0.7-2.8c0.9-4,4.1-7.2,8.1-8.1l2.8-0.6v-3.3h1.2v-8.1l0,0v-0.2h14.5l4.1,2.6l2.5-2.6
			l3,4.8l2.3-4.8l3,4.8l2.3-4.8l3,4.8l2.3-4.8l3,4.8l2.3-4.8l3,4.8l2.3-4.8l3,4.8l2.3-4.8l1.6,2.5l2.6-3.7h6.3V279.1z"/>
	</defs>
	<clipPath id="SVGID_00000041267523961203549770000015879180604823562671_">
		<use xlink:href="#SVGID_00000145754257540082903450000007222166492119145918_"  style="overflow:visible;"/>
	</clipPath>
	<g style="clip-path:url(#SVGID_00000041267523961203549770000015879180604823562671_);">
		
			<image style="overflow:visible;" width="600" height="600" xlink:href="../../background.jpg"  transform="matrix(0.472 0 0 0.472 -8.7192 230.0865)">
		</image>
	</g>
	
		<use xlink:href="#SVGID_00000145754257540082903450000007222166492119145918_"  style="overflow:visible;fill:none;stroke:#B0B0B0;stroke-miterlimit:10;"/>
</g>
<linearGradient id="SVGID_00000155111872006961407930000012462210021008753319_" gradientUnits="userSpaceOnUse" x1="120.1823" y1="186.9202" x2="120.1823" y2="156.5185" gradientTransform="matrix(1 0 0 -1 0 480.9056)">
	<stop  offset="0" style="stop-color:#424242"/>
	<stop  offset="0.1068" style="stop-color:#333333"/>
	<stop  offset="0.2055" style="stop-color:#2D2D2D"/>
	<stop  offset="0.3492" style="stop-color:#424244"/>
	<stop  offset="0.6732" style="stop-color:#7F7F7F"/>
	<stop  offset="0.9078" style="stop-color:#414042"/>
</linearGradient>
<path style="fill:url(#SVGID_00000155111872006961407930000012462210021008753319_);" d="M164.5,294v30.4H75.8v-18.5
	c0-3,1.2-5.9,3.2-8.1l0.3-0.3c2.3-2.2,5.3-3.5,8.5-3.5H164.5z"/>
<polygon class="st33" points="197.1,331.7 216.7,340.5 219.6,340.5 219.6,278.4 216.6,278.4 197.1,286.7 "/>
<polygon class="st34" points="217.4,286.7 217.4,331.8 219.6,336.8 224.4,336.8 224.4,340.5 227.3,340.5 229.7,331.7 229.7,286.7 
	227.3,278.4 224.4,278.4 224.4,281.6 219.6,281.6 "/>
<linearGradient id="SVGID_00000072961823890883824130000012538033034487318966_" gradientUnits="userSpaceOnUse" x1="-2315.9055" y1="-318.8716" x2="-2315.9055" y2="-273.8678" gradientTransform="matrix(-1 0 0 1 -2112.22 605.5944)">
	<stop  offset="0" style="stop-color:#424242"/>
	<stop  offset="0.1068" style="stop-color:#333333"/>
	<stop  offset="0.2055" style="stop-color:#2D2D2D"/>
	<stop  offset="0.3492" style="stop-color:#424244"/>
	<stop  offset="0.6732" style="stop-color:#7F7F7F"/>
	<stop  offset="0.9078" style="stop-color:#414042"/>
</linearGradient>
<rect x="161.3" y="286.7" style="fill:url(#SVGID_00000072961823890883824130000012538033034487318966_);" width="84.9" height="45"/>
<linearGradient id="SVGID_00000129199912605469948640000015096877522776080571_" gradientUnits="userSpaceOnUse" x1="-2673.6274" y1="-318.8616" x2="-2673.6274" y2="-273.8578" gradientTransform="matrix(-1 0 0 1 -2466.3601 605.5845)">
	<stop  offset="0" style="stop-color:#424242"/>
	<stop  offset="0.1068" style="stop-color:#333333"/>
	<stop  offset="0.2055" style="stop-color:#2D2D2D"/>
	<stop  offset="0.3492" style="stop-color:#424244"/>
	<stop  offset="0.6732" style="stop-color:#7F7F7F"/>
	<stop  offset="0.9078" style="stop-color:#414042"/>
</linearGradient>
<rect x="197.2" y="286.7" style="fill:url(#SVGID_00000129199912605469948640000015096877522776080571_);" width="20.2" height="45"/>
<linearGradient id="SVGID_00000176760680351431165920000002494097622334512051_" gradientUnits="userSpaceOnUse" x1="-2689.9058" y1="-318.8616" x2="-2689.9058" y2="-273.8578" gradientTransform="matrix(-1 0 0 1 -2466.3501 605.5845)">
	<stop  offset="0" style="stop-color:#424242"/>
	<stop  offset="0.1068" style="stop-color:#333333"/>
	<stop  offset="0.2055" style="stop-color:#2D2D2D"/>
	<stop  offset="0.3492" style="stop-color:#424244"/>
	<stop  offset="0.6732" style="stop-color:#7F7F7F"/>
	<stop  offset="0.9078" style="stop-color:#414042"/>
</linearGradient>
<rect x="217.4" y="286.7" style="fill:url(#SVGID_00000176760680351431165920000002494097622334512051_);" width="12.4" height="45"/>
<g>
	<polygon class="st38" points="219.6,336.8 215.2,331.7 215.2,286.7 219.6,281.6 217.3,288.7 217.3,329.8 	"/>
</g>
<g>
	<polygon class="st39" points="195,331.7 195,286.8 197.1,286.7 197.1,331.7 	"/>
</g>
<g>
	<polygon class="st40" points="234.2,331.7 234.2,287 229.7,286.9 229.7,331.7 	"/>
</g>
<g>
	<polygon class="st40" points="165.7,331.7 165.7,286.8 161.2,286.7 161.2,331.7 	"/>
</g>
<line class="st41" x1="229.7" y1="286.7" x2="229.7" y2="331.7"/>
<polyline class="st41" points="219.6,336.8 217.4,331.7 217.4,286.7 219.6,281.6 "/>
<line class="st41" x1="197.1" y1="331.7" x2="197.1" y2="286.7"/>
<path class="st41" d="M75.8,467.8h30.3V324.4h55v7.3h84.9v-45h-84.9v7.3H87.5c-6.5,0-11.7,5.2-11.7,11.7c0,0,0,0,0,0V467.8z"/>
<linearGradient id="SVGID_00000118393908329249689490000006579525350369855893_" gradientUnits="userSpaceOnUse" x1="249.0903" y1="198.9732" x2="249.0903" y2="144.2677" gradientTransform="matrix(1 0 0 -1 0 480.9056)">
	<stop  offset="0" style="stop-color:#424242"/>
	<stop  offset="0.1068" style="stop-color:#333333"/>
	<stop  offset="0.2055" style="stop-color:#2D2D2D"/>
	<stop  offset="0.3492" style="stop-color:#424244"/>
	<stop  offset="0.6732" style="stop-color:#7F7F7F"/>
	<stop  offset="0.9078" style="stop-color:#414042"/>
</linearGradient>
<polygon style="fill:url(#SVGID_00000118393908329249689490000006579525350369855893_);" points="246.1,286.8 252.1,281.9 
	252.1,336.6 246.1,331.7 "/>
<linearGradient id="SVGID_00000083089683114262271160000011137648258543582909_" gradientUnits="userSpaceOnUse" x1="75.8158" y1="98.2641" x2="106.1626" y2="98.2641" gradientTransform="matrix(1 0 0 -1 0 480.9056)">
	<stop  offset="0" style="stop-color:#424242"/>
	<stop  offset="0.1068" style="stop-color:#333333"/>
	<stop  offset="0.2055" style="stop-color:#2D2D2D"/>
	<stop  offset="0.3492" style="stop-color:#424244"/>
	<stop  offset="0.6732" style="stop-color:#7F7F7F"/>
	<stop  offset="0.9078" style="stop-color:#414042"/>
</linearGradient>
<path style="fill:url(#SVGID_00000083089683114262271160000011137648258543582909_);" d="M106.2,324.4v143.4H75.8V305.9
	c0-3,1.2-5.9,3.2-8.1l0.3-0.3L106.2,324.4z"/>
<g>
	
		<linearGradient id="SVGID_00000073681071401142865200000008298960490900731821_" gradientUnits="userSpaceOnUse" x1="9.7881" y1="-357.8708" x2="194.935" y2="-305.132" gradientTransform="matrix(1 0 0 -1 0 -253.6455)">
		<stop  offset="0" style="stop-color:#919396"/>
		<stop  offset="0.3883" style="stop-color:#D1D3D4"/>
		<stop  offset="0.6788" style="stop-color:#BCBEC0"/>
		<stop  offset="1" style="stop-color:#919396"/>
	</linearGradient>
	<path style="fill:url(#SVGID_00000073681071401142865200000008298960490900731821_);" d="M145.9,88.6h-21.1c-5.2,0-9.3,4.2-9.3,9.3
		V119H66.5V53.8c0-7.7,6.3-14.1,14-14.1l0,0h65.3v48.9C145.8,88.6,145.9,88.6,145.9,88.6z"/>
	
		<linearGradient id="SVGID_00000138531663694438714240000010747761937535138193_" gradientUnits="userSpaceOnUse" x1="115.3724" y1="-357.4755" x2="145.8071" y2="-357.4755" gradientTransform="matrix(1 0 0 -1 0 -253.6455)">
		<stop  offset="0" style="stop-color:#58595B"/>
		<stop  offset="0.1159" style="stop-color:#606162;stop-opacity:0.8841"/>
		<stop  offset="0.292" style="stop-color:#757577;stop-opacity:0.708"/>
		<stop  offset="0.5065" style="stop-color:#979899;stop-opacity:0.4935"/>
		<stop  offset="0.7509" style="stop-color:#C7C7C8;stop-opacity:0.2491"/>
		<stop  offset="1" style="stop-color:#FFFFFF;stop-opacity:0"/>
	</linearGradient>
	<path style="fill:url(#SVGID_00000138531663694438714240000010747761937535138193_);" d="M145.9,88.6h-21.1c-5.2,0-9.3,4.2-9.3,9.3
		V119h18.9l0.7-2.7c1-4.1,4.1-7.1,8.1-8.1l2.7-0.7V88.6"/>
	
		<linearGradient id="SVGID_00000062876576576289533460000014024977692836706730_" gradientUnits="userSpaceOnUse" x1="115.3724" y1="-357.4755" x2="145.8071" y2="-357.4755" gradientTransform="matrix(1 0 0 -1 0 -253.6455)">
		<stop  offset="0" style="stop-color:#58595B"/>
		<stop  offset="0.1159" style="stop-color:#606162;stop-opacity:0.8841"/>
		<stop  offset="0.292" style="stop-color:#757577;stop-opacity:0.708"/>
		<stop  offset="0.5065" style="stop-color:#979899;stop-opacity:0.4935"/>
		<stop  offset="0.7509" style="stop-color:#C7C7C8;stop-opacity:0.2491"/>
		<stop  offset="1" style="stop-color:#FFFFFF;stop-opacity:0"/>
	</linearGradient>
	<path style="fill:url(#SVGID_00000062876576576289533460000014024977692836706730_);" d="M145.9,88.6h-21.1c-5.2,0-9.3,4.2-9.3,9.3
		V119h18.9l0.7-2.7c1-4.1,4.1-7.1,8.1-8.1l2.7-0.7V88.6"/>
	
		<linearGradient id="SVGID_00000041264528052215603880000002966349146363024807_" gradientUnits="userSpaceOnUse" x1="107.3508" y1="-377.737" x2="138.5433" y2="-346.5447" gradientTransform="matrix(1 0 0 -1 0 -253.6455)">
		<stop  offset="0.1201" style="stop-color:#686566"/>
		<stop  offset="0.1983" style="stop-color:#6E7072"/>
		<stop  offset="0.433" style="stop-color:#919396"/>
		<stop  offset="0.6732" style="stop-color:#E6E7E8"/>
		<stop  offset="0.8966" style="stop-color:#9F9D9D"/>
		<stop  offset="1" style="stop-color:#919396"/>
	</linearGradient>
	<path style="fill:url(#SVGID_00000041264528052215603880000002966349146363024807_);" d="M145.9,88.6h-21.1c-5.2,0-9.3,4.2-9.3,9.3
		V119h18.9l0.7-2.7c1-4.1,4.1-7.1,8.1-8.1l2.7-0.7V88.6"/>
	
		<linearGradient id="SVGID_00000106825688954958995630000015221876674364611755_" gradientUnits="userSpaceOnUse" x1="-25.0015" y1="-346.1728" x2="154.5349" y2="-303.8133" gradientTransform="matrix(1 0 0 -1 0 -253.6455)">
		<stop  offset="0.1201" style="stop-color:#686566"/>
		<stop  offset="0.2877" style="stop-color:#9F9D9D"/>
		<stop  offset="0.433" style="stop-color:#919396"/>
		<stop  offset="0.7793" style="stop-color:#E4E3E3"/>
		<stop  offset="1" style="stop-color:#919396"/>
	</linearGradient>
	<path style="fill:url(#SVGID_00000106825688954958995630000015221876674364611755_);" d="M77,21.2c-16,0-29.1,13.1-29.1,29.1V119
		h3.1h15.6V53.8l0,0c0-7.7,6.3-14,14.1-14h65.3V24.2v-3.1H77z"/>
	
		<linearGradient id="SVGID_00000105405214204862951280000011084346615545745796_" gradientUnits="userSpaceOnUse" x1="107.6876" y1="-334.5154" x2="135.6218" y2="-362.4496" gradientTransform="matrix(1 0 0 -1 0 -253.6455)">
		<stop  offset="0" style="stop-color:#58595B"/>
		<stop  offset="0.1159" style="stop-color:#606162;stop-opacity:0.8841"/>
		<stop  offset="0.292" style="stop-color:#757577;stop-opacity:0.708"/>
		<stop  offset="0.5065" style="stop-color:#979899;stop-opacity:0.4935"/>
		<stop  offset="0.7509" style="stop-color:#C7C7C8;stop-opacity:0.2491"/>
		<stop  offset="1" style="stop-color:#FFFFFF;stop-opacity:0"/>
	</linearGradient>
	<path style="fill:url(#SVGID_00000105405214204862951280000011084346615545745796_);" d="M145.9,88.6h-21.1c-5.2,0-9.3,4.2-9.3,9.3
		V119h18.9l0.7-2.7c1-4.1,4.1-7.1,8.1-8.1l2.7-0.7V88.6"/>
	
		<linearGradient id="SVGID_00000003068180105314793730000017158004352224989355_" gradientUnits="userSpaceOnUse" x1="63.715" y1="362.9102" x2="118.5325" y2="457.8568" gradientTransform="matrix(1 0 0 -1 0 480.9056)">
		<stop  offset="0" style="stop-color:#686566"/>
		<stop  offset="0.2207" style="stop-color:#9F9D9D"/>
		<stop  offset="0.433" style="stop-color:#919396"/>
		<stop  offset="0.6732" style="stop-color:#FFFFFF"/>
		<stop  offset="0.7793" style="stop-color:#E4E3E3"/>
		<stop  offset="1" style="stop-color:#919396"/>
	</linearGradient>
	
		<path style="fill:none;stroke:url(#SVGID_00000003068180105314793730000017158004352224989355_);stroke-width:2;stroke-miterlimit:10;" d="
		M145.9,39.8H80.6c-1.3,0-4.9,0.1-8.4,2.5c-5.5,4-5.7,10.7-5.7,11.4c0,21.8,0,43.5,0,65.3"/>
	
		<linearGradient id="SVGID_00000035518702940306999770000010485096912829497014_" gradientUnits="userSpaceOnUse" x1="114.6427" y1="361.7357" x2="136.0855" y2="398.8757" gradientTransform="matrix(1 0 0 -1 0 480.9056)">
		<stop  offset="0" style="stop-color:#686566"/>
		<stop  offset="0.2207" style="stop-color:#9F9D9D"/>
		<stop  offset="0.433" style="stop-color:#919396"/>
		<stop  offset="0.6732" style="stop-color:#FFFFFF"/>
		<stop  offset="0.7793" style="stop-color:#E4E3E3"/>
		<stop  offset="1" style="stop-color:#919396"/>
	</linearGradient>
	
		<path style="fill:none;stroke:url(#SVGID_00000035518702940306999770000010485096912829497014_);stroke-width:2;stroke-miterlimit:10;" d="
		M115.4,119V98c0-0.5,0.1-4.3,3.1-6.9c2.5-2.3,5.5-2.4,6.3-2.4c7,0,14,0,21,0"/>
</g>
<image style="overflow:visible;" width="200" height="200" xlink:href="../../pepsi.png"  transform="matrix(0.1105 0 0 0.1105 82.886 57.2662)">
</image>
</svg>
