<?xml version="1.0" encoding="utf-8"?>
<!-- Generator: Adobe Illustrator 25.4.1, SVG Export Plug-In . SVG Version: 6.00 Build 0)  -->
<svg version="1.1" id="Слой_1" xmlns="http://www.w3.org/2000/svg" xmlns:xlink="http://www.w3.org/1999/xlink" x="0px" y="0px"
	 viewBox="0 0 200 320" style="enable-background:new 0 0 200 320;" xml:space="preserve">
<style type="text/css">
	.st0{fill:url(#SVGID_1_);stroke:#0F0F0F;stroke-width:0.25;stroke-miterlimit:10;}
	
		.st1{fill:url(#SVGID_00000060750225419945636120000009412693961427241856_);stroke:#0F0F0F;stroke-width:0.25;stroke-miterlimit:10;}
	
		.st2{fill:url(#SVGID_00000070799746797245542060000002908332544921132218_);stroke:#0F0F0F;stroke-width:0.25;stroke-miterlimit:10;}
	
		.st3{fill:url(#SVGID_00000179626426718887700770000009447171257432262047_);stroke:#0F0F0F;stroke-width:0.25;stroke-miterlimit:10;}
	
		.st4{fill:url(#SVGID_00000035532921489309362260000005017867362764106375_);stroke:#0F0F0F;stroke-width:0.25;stroke-miterlimit:10;}
	
		.st5{fill:url(#SVGID_00000032608275572413752540000010261046638468819643_);stroke:#0F0F0F;stroke-width:0.25;stroke-miterlimit:10;}
	
		.st6{fill:url(#SVGID_00000124856825673937994380000004064657658502090169_);stroke:#0F0F0F;stroke-width:0.25;stroke-miterlimit:10;}
	
		.st7{fill:url(#SVGID_00000036969803361308193500000014570532495294418591_);stroke:#0F0F0F;stroke-width:0.25;stroke-miterlimit:10;}
	
		.st8{fill:url(#SVGID_00000174566876294612728540000014708616825155449496_);stroke:#0F0F0F;stroke-width:0.25;stroke-miterlimit:10;}
	
		.st9{fill:url(#SVGID_00000062166731423371399230000000594804536134647191_);stroke:#0F0F0F;stroke-width:0.25;stroke-miterlimit:10;}
	
		.st10{fill:url(#SVGID_00000103255071865683367340000001755241993345620383_);stroke:#0F0F0F;stroke-width:0.25;stroke-miterlimit:10;}
	.st11{fill:url(#SVGID_00000160888065278127297230000012291245464402963123_);}
	.st12{fill:url(#SVGID_00000127028071317126347410000015816876371504634787_);}
	.st13{fill:url(#SVGID_00000119078799179098333700000013424627197875895687_);}
	.st14{fill:url(#SVGID_00000156589183048809157800000004475547501812307634_);}
	.st15{fill:url(#SVGID_00000003796881974803840160000007797856989700050304_);}
	.st16{fill:url(#SVGID_00000028319518075957757920000012434012374362990001_);}
	.st17{fill:url(#SVGID_00000037658566075021058000000016376735965094118068_);}
	.st18{fill:url(#SVGID_00000008863047292355996590000017087497169481377180_);}
	.st19{fill:url(#SVGID_00000172408916468834338950000016140903631166365861_);}
	.st20{fill:#AAAAAA;}
	.st21{fill:url(#SVGID_00000076578375758435975580000001126720187625455755_);}
	.st22{fill:url(#SVGID_00000062162282020152953850000004202982138096617124_);}
	.st23{fill:url(#SVGID_00000003102844196830581150000002880590891489551007_);}
	.st24{fill:url(#SVGID_00000008843601818716223120000010384832531139242919_);}
	.st25{fill:url(#SVGID_00000067915108208194792590000013906727743138935981_);}
	.st26{fill:url(#SVGID_00000132769575728833304180000005995056707636761273_);}
	.st27{opacity:0.28;fill:#0F0F0F;}
	.st28{fill:none;stroke:#CFCFCF;stroke-miterlimit:10;}
	.st29{fill:#54504E;stroke:#0F0F0F;stroke-width:0.25;stroke-miterlimit:10;}
	.st30{fill:none;stroke:#0F0F0F;stroke-width:0.25;stroke-miterlimit:10;}
	.st31{fill:#DEDBDB;stroke:#0F0F0F;stroke-width:0.25;stroke-miterlimit:10;}
	.st32{fill:#CAC7C6;stroke:#0F0F0F;stroke-width:0.25;stroke-miterlimit:10;}
	.st33{fill:url(#SVGID_00000157284066508314924000000010189598799731821502_);}
	.st34{fill:#54504E;}
	.st35{opacity:0.74;fill:#54504E;enable-background:new    ;}
	.st36{opacity:0.54;fill:#54504E;enable-background:new    ;}
	.st37{fill:url(#SVGID_00000029745358470313518580000017214488719867568264_);}
	.st38{fill:url(#SVGID_00000009563972321636214450000013303694547501771917_);}
</style>
<linearGradient id="SVGID_1_" gradientUnits="userSpaceOnUse" x1="74.344" y1="302.9214" x2="74.344" y2="223.2582" gradientTransform="matrix(1 0 0 -1.06 0.45 357.2288)">
	<stop  offset="0" style="stop-color:#686868"/>
	<stop  offset="6.000000e-02" style="stop-color:#595959"/>
	<stop  offset="0.22" style="stop-color:#898989"/>
	<stop  offset="0.27" style="stop-color:#7C7C7C"/>
	<stop  offset="0.34" style="stop-color:#898989"/>
	<stop  offset="0.73" style="stop-color:#D8D8D8"/>
	<stop  offset="0.82" style="stop-color:#A5A5A5"/>
	<stop  offset="0.86" style="stop-color:#BABABA"/>
	<stop  offset="0.88" style="stop-color:#A8A8A8"/>
	<stop  offset="0.93" style="stop-color:#BBBABB"/>
	<stop  offset="1" style="stop-color:#606060"/>
</linearGradient>
<polygon class="st0" points="75.6,120.7 71.1,36.3 74.6,41.9 78.4,115.2 "/>
<linearGradient id="SVGID_00000181795708675099003080000017313479526402860416_" gradientUnits="userSpaceOnUse" x1="77.8223" y1="223.2134" x2="77.8223" y2="302.8766" gradientTransform="matrix(1 0 0 -1.06 0.45 357.2288)">
	<stop  offset="0" style="stop-color:#686868"/>
	<stop  offset="6.000000e-02" style="stop-color:#424242"/>
	<stop  offset="0.22" style="stop-color:#898989"/>
	<stop  offset="0.27" style="stop-color:#7C7C7C"/>
	<stop  offset="0.34" style="stop-color:#898989"/>
	<stop  offset="0.41" style="stop-color:#C6C6C6"/>
	<stop  offset="0.47" style="stop-color:#F4F4F4"/>
	<stop  offset="0.52" style="stop-color:#D6D6D6"/>
	<stop  offset="0.55" style="stop-color:#D3D3D3"/>
	<stop  offset="0.59" style="stop-color:#F9F9F9"/>
	<stop  offset="0.61" style="stop-color:#F9F9F9"/>
	<stop  offset="0.66" style="stop-color:#FFFFFF"/>
	<stop  offset="0.69" style="stop-color:#FFFFFF"/>
	<stop  offset="0.73" style="stop-color:#D8D8D8"/>
	<stop  offset="0.82" style="stop-color:#A5A5A5"/>
	<stop  offset="0.86" style="stop-color:#BABABA"/>
	<stop  offset="0.88" style="stop-color:#A8A8A8"/>
	<stop  offset="0.93" style="stop-color:#BBBABB"/>
	<stop  offset="1" style="stop-color:#606060"/>
</linearGradient>
<polygon style="fill:url(#SVGID_00000181795708675099003080000017313479526402860416_);stroke:#0F0F0F;stroke-width:0.25;stroke-miterlimit:10;" points="
	81.9,120.7 78.4,115.2 74.6,41.9 77.5,36.3 "/>
<linearGradient id="SVGID_00000138540558647203766470000004308542660456695221_" gradientUnits="userSpaceOnUse" x1="80.7039" y1="302.9341" x2="80.7039" y2="223.2709" gradientTransform="matrix(1 0 0 -1.06 0.45 357.2288)">
	<stop  offset="0" style="stop-color:#686868"/>
	<stop  offset="6.000000e-02" style="stop-color:#595959"/>
	<stop  offset="0.22" style="stop-color:#898989"/>
	<stop  offset="0.27" style="stop-color:#7C7C7C"/>
	<stop  offset="0.34" style="stop-color:#898989"/>
	<stop  offset="0.73" style="stop-color:#D8D8D8"/>
	<stop  offset="0.82" style="stop-color:#A5A5A5"/>
	<stop  offset="0.86" style="stop-color:#BABABA"/>
	<stop  offset="0.88" style="stop-color:#A8A8A8"/>
	<stop  offset="0.93" style="stop-color:#BBBABB"/>
	<stop  offset="1" style="stop-color:#606060"/>
</linearGradient>
<polygon style="fill:url(#SVGID_00000138540558647203766470000004308542660456695221_);stroke:#0F0F0F;stroke-width:0.25;stroke-miterlimit:10;" points="
	81.9,120.7 77.5,36.3 81,41.9 84.8,115.2 "/>
<linearGradient id="SVGID_00000168112637475976488520000014355481153176684702_" gradientUnits="userSpaceOnUse" x1="84.1694" y1="223.2388" x2="84.1694" y2="302.902" gradientTransform="matrix(1 0 0 -1.06 0.45 357.2288)">
	<stop  offset="0" style="stop-color:#686868"/>
	<stop  offset="6.000000e-02" style="stop-color:#424242"/>
	<stop  offset="0.22" style="stop-color:#898989"/>
	<stop  offset="0.27" style="stop-color:#7C7C7C"/>
	<stop  offset="0.34" style="stop-color:#898989"/>
	<stop  offset="0.41" style="stop-color:#C6C6C6"/>
	<stop  offset="0.47" style="stop-color:#F4F4F4"/>
	<stop  offset="0.52" style="stop-color:#D6D6D6"/>
	<stop  offset="0.55" style="stop-color:#D3D3D3"/>
	<stop  offset="0.59" style="stop-color:#F9F9F9"/>
	<stop  offset="0.61" style="stop-color:#F9F9F9"/>
	<stop  offset="0.66" style="stop-color:#FFFFFF"/>
	<stop  offset="0.69" style="stop-color:#FFFFFF"/>
	<stop  offset="0.73" style="stop-color:#D8D8D8"/>
	<stop  offset="0.82" style="stop-color:#A5A5A5"/>
	<stop  offset="0.86" style="stop-color:#BABABA"/>
	<stop  offset="0.88" style="stop-color:#A8A8A8"/>
	<stop  offset="0.93" style="stop-color:#BBBABB"/>
	<stop  offset="1" style="stop-color:#606060"/>
</linearGradient>
<polygon style="fill:url(#SVGID_00000168112637475976488520000014355481153176684702_);stroke:#0F0F0F;stroke-width:0.25;stroke-miterlimit:10;" points="
	88.3,120.7 84.8,115.2 81,41.9 83.9,36.3 "/>
<linearGradient id="SVGID_00000145045123388059863090000006976017961880551312_" gradientUnits="userSpaceOnUse" x1="87.0638" y1="302.9595" x2="87.0638" y2="223.2963" gradientTransform="matrix(1 0 0 -1.06 0.45 357.2288)">
	<stop  offset="0" style="stop-color:#686868"/>
	<stop  offset="6.000000e-02" style="stop-color:#595959"/>
	<stop  offset="0.22" style="stop-color:#898989"/>
	<stop  offset="0.27" style="stop-color:#7C7C7C"/>
	<stop  offset="0.34" style="stop-color:#898989"/>
	<stop  offset="0.73" style="stop-color:#D8D8D8"/>
	<stop  offset="0.82" style="stop-color:#A5A5A5"/>
	<stop  offset="0.86" style="stop-color:#BABABA"/>
	<stop  offset="0.88" style="stop-color:#A8A8A8"/>
	<stop  offset="0.93" style="stop-color:#BBBABB"/>
	<stop  offset="1" style="stop-color:#606060"/>
</linearGradient>
<polygon style="fill:url(#SVGID_00000145045123388059863090000006976017961880551312_);stroke:#0F0F0F;stroke-width:0.25;stroke-miterlimit:10;" points="
	88.3,120.7 83.9,36.3 87.3,41.9 91.2,115.2 "/>
<linearGradient id="SVGID_00000136395895958443965520000010121596428608554684_" gradientUnits="userSpaceOnUse" x1="90.5293" y1="223.2515" x2="90.5293" y2="302.9147" gradientTransform="matrix(1 0 0 -1.06 0.45 357.2288)">
	<stop  offset="0" style="stop-color:#686868"/>
	<stop  offset="6.000000e-02" style="stop-color:#424242"/>
	<stop  offset="0.22" style="stop-color:#898989"/>
	<stop  offset="0.27" style="stop-color:#7C7C7C"/>
	<stop  offset="0.34" style="stop-color:#898989"/>
	<stop  offset="0.41" style="stop-color:#C6C6C6"/>
	<stop  offset="0.47" style="stop-color:#F4F4F4"/>
	<stop  offset="0.52" style="stop-color:#D6D6D6"/>
	<stop  offset="0.55" style="stop-color:#D3D3D3"/>
	<stop  offset="0.59" style="stop-color:#F9F9F9"/>
	<stop  offset="0.61" style="stop-color:#F9F9F9"/>
	<stop  offset="0.66" style="stop-color:#FFFFFF"/>
	<stop  offset="0.69" style="stop-color:#FFFFFF"/>
	<stop  offset="0.73" style="stop-color:#D8D8D8"/>
	<stop  offset="0.82" style="stop-color:#A5A5A5"/>
	<stop  offset="0.86" style="stop-color:#BABABA"/>
	<stop  offset="0.88" style="stop-color:#A8A8A8"/>
	<stop  offset="0.93" style="stop-color:#BBBABB"/>
	<stop  offset="1" style="stop-color:#606060"/>
</linearGradient>
<polygon style="fill:url(#SVGID_00000136395895958443965520000010121596428608554684_);stroke:#0F0F0F;stroke-width:0.25;stroke-miterlimit:10;" points="
	94.6,120.7 91.2,115.2 87.3,41.9 90.2,36.3 "/>
<linearGradient id="SVGID_00000164476061938380006050000010501384079358099873_" gradientUnits="userSpaceOnUse" x1="93.4109" y1="302.9722" x2="93.4109" y2="223.309" gradientTransform="matrix(1 0 0 -1.06 0.45 357.2288)">
	<stop  offset="0" style="stop-color:#686868"/>
	<stop  offset="6.000000e-02" style="stop-color:#595959"/>
	<stop  offset="0.22" style="stop-color:#898989"/>
	<stop  offset="0.27" style="stop-color:#7C7C7C"/>
	<stop  offset="0.34" style="stop-color:#898989"/>
	<stop  offset="0.73" style="stop-color:#D8D8D8"/>
	<stop  offset="0.82" style="stop-color:#A5A5A5"/>
	<stop  offset="0.86" style="stop-color:#BABABA"/>
	<stop  offset="0.88" style="stop-color:#A8A8A8"/>
	<stop  offset="0.93" style="stop-color:#BBBABB"/>
	<stop  offset="1" style="stop-color:#606060"/>
</linearGradient>
<polygon style="fill:url(#SVGID_00000164476061938380006050000010501384079358099873_);stroke:#0F0F0F;stroke-width:0.25;stroke-miterlimit:10;" points="
	94.6,120.7 90.2,36.3 93.7,41.9 97.5,115.2 "/>
<linearGradient id="SVGID_00000181067932422595148690000008754063393546163090_" gradientUnits="userSpaceOnUse" x1="96.8892" y1="223.2769" x2="96.8892" y2="302.9401" gradientTransform="matrix(1 0 0 -1.06 0.45 357.2288)">
	<stop  offset="0" style="stop-color:#686868"/>
	<stop  offset="6.000000e-02" style="stop-color:#424242"/>
	<stop  offset="0.22" style="stop-color:#898989"/>
	<stop  offset="0.27" style="stop-color:#7C7C7C"/>
	<stop  offset="0.34" style="stop-color:#898989"/>
	<stop  offset="0.41" style="stop-color:#C6C6C6"/>
	<stop  offset="0.47" style="stop-color:#F4F4F4"/>
	<stop  offset="0.52" style="stop-color:#D6D6D6"/>
	<stop  offset="0.55" style="stop-color:#D3D3D3"/>
	<stop  offset="0.59" style="stop-color:#F9F9F9"/>
	<stop  offset="0.61" style="stop-color:#F9F9F9"/>
	<stop  offset="0.66" style="stop-color:#FFFFFF"/>
	<stop  offset="0.69" style="stop-color:#FFFFFF"/>
	<stop  offset="0.73" style="stop-color:#D8D8D8"/>
	<stop  offset="0.82" style="stop-color:#A5A5A5"/>
	<stop  offset="0.86" style="stop-color:#BABABA"/>
	<stop  offset="0.88" style="stop-color:#A8A8A8"/>
	<stop  offset="0.93" style="stop-color:#BBBABB"/>
	<stop  offset="1" style="stop-color:#606060"/>
</linearGradient>
<polygon style="fill:url(#SVGID_00000181067932422595148690000008754063393546163090_);stroke:#0F0F0F;stroke-width:0.25;stroke-miterlimit:10;" points="
	101,120.7 97.5,115.2 93.7,41.9 96.6,36.3 "/>
<linearGradient id="SVGID_00000062911261567004176110000015663704186633280910_" gradientUnits="userSpaceOnUse" x1="99.7708" y1="302.9976" x2="99.7708" y2="223.3344" gradientTransform="matrix(1 0 0 -1.06 0.45 357.2288)">
	<stop  offset="0" style="stop-color:#686868"/>
	<stop  offset="6.000000e-02" style="stop-color:#595959"/>
	<stop  offset="0.22" style="stop-color:#898989"/>
	<stop  offset="0.27" style="stop-color:#7C7C7C"/>
	<stop  offset="0.34" style="stop-color:#898989"/>
	<stop  offset="0.73" style="stop-color:#D8D8D8"/>
	<stop  offset="0.82" style="stop-color:#A5A5A5"/>
	<stop  offset="0.86" style="stop-color:#BABABA"/>
	<stop  offset="0.88" style="stop-color:#A8A8A8"/>
	<stop  offset="0.93" style="stop-color:#BBBABB"/>
	<stop  offset="1" style="stop-color:#606060"/>
</linearGradient>
<polygon style="fill:url(#SVGID_00000062911261567004176110000015663704186633280910_);stroke:#0F0F0F;stroke-width:0.25;stroke-miterlimit:10;" points="
	101,120.7 96.6,36.3 100,41.9 103.9,115.2 "/>
<linearGradient id="SVGID_00000108279264089732345240000007402685521709430406_" gradientUnits="userSpaceOnUse" x1="103.2364" y1="223.2896" x2="103.2364" y2="302.9528" gradientTransform="matrix(1 0 0 -1.06 0.45 357.2288)">
	<stop  offset="0" style="stop-color:#686868"/>
	<stop  offset="6.000000e-02" style="stop-color:#424242"/>
	<stop  offset="0.22" style="stop-color:#898989"/>
	<stop  offset="0.27" style="stop-color:#7C7C7C"/>
	<stop  offset="0.34" style="stop-color:#898989"/>
	<stop  offset="0.41" style="stop-color:#C6C6C6"/>
	<stop  offset="0.47" style="stop-color:#F4F4F4"/>
	<stop  offset="0.52" style="stop-color:#D6D6D6"/>
	<stop  offset="0.55" style="stop-color:#D3D3D3"/>
	<stop  offset="0.59" style="stop-color:#F9F9F9"/>
	<stop  offset="0.61" style="stop-color:#F9F9F9"/>
	<stop  offset="0.66" style="stop-color:#FFFFFF"/>
	<stop  offset="0.69" style="stop-color:#FFFFFF"/>
	<stop  offset="0.73" style="stop-color:#D8D8D8"/>
	<stop  offset="0.82" style="stop-color:#A5A5A5"/>
	<stop  offset="0.86" style="stop-color:#BABABA"/>
	<stop  offset="0.88" style="stop-color:#A8A8A8"/>
	<stop  offset="0.93" style="stop-color:#BBBABB"/>
	<stop  offset="1" style="stop-color:#606060"/>
</linearGradient>
<polygon style="fill:url(#SVGID_00000108279264089732345240000007402685521709430406_);stroke:#0F0F0F;stroke-width:0.25;stroke-miterlimit:10;" points="
	107.3,120.7 103.9,115.2 100,41.9 102.9,36.3 "/>
<linearGradient id="SVGID_00000049942172284868573500000011993851572596729481_" gradientUnits="userSpaceOnUse" x1="106.1307" y1="303.0103" x2="106.1307" y2="223.3471" gradientTransform="matrix(1 0 0 -1.06 0.45 357.2288)">
	<stop  offset="0" style="stop-color:#686868"/>
	<stop  offset="6.000000e-02" style="stop-color:#595959"/>
	<stop  offset="0.22" style="stop-color:#898989"/>
	<stop  offset="0.27" style="stop-color:#7C7C7C"/>
	<stop  offset="0.34" style="stop-color:#898989"/>
	<stop  offset="0.73" style="stop-color:#D8D8D8"/>
	<stop  offset="0.82" style="stop-color:#A5A5A5"/>
	<stop  offset="0.86" style="stop-color:#BABABA"/>
	<stop  offset="0.88" style="stop-color:#A8A8A8"/>
	<stop  offset="0.93" style="stop-color:#BBBABB"/>
	<stop  offset="1" style="stop-color:#606060"/>
</linearGradient>
<polygon style="fill:url(#SVGID_00000049942172284868573500000011993851572596729481_);stroke:#0F0F0F;stroke-width:0.25;stroke-miterlimit:10;" points="
	107.3,120.7 102.9,36.3 106.4,41.9 110.2,115.2 "/>
<linearGradient id="SVGID_00000109004697605328375790000013611038682058069899_" gradientUnits="userSpaceOnUse" x1="109.5963" y1="223.315" x2="109.5963" y2="302.9782" gradientTransform="matrix(1 0 0 -1.06 0.45 357.2288)">
	<stop  offset="0" style="stop-color:#686868"/>
	<stop  offset="6.000000e-02" style="stop-color:#424242"/>
	<stop  offset="0.22" style="stop-color:#898989"/>
	<stop  offset="0.27" style="stop-color:#7C7C7C"/>
	<stop  offset="0.34" style="stop-color:#898989"/>
	<stop  offset="0.41" style="stop-color:#C6C6C6"/>
	<stop  offset="0.47" style="stop-color:#F4F4F4"/>
	<stop  offset="0.52" style="stop-color:#D6D6D6"/>
	<stop  offset="0.55" style="stop-color:#D3D3D3"/>
	<stop  offset="0.59" style="stop-color:#F9F9F9"/>
	<stop  offset="0.61" style="stop-color:#F9F9F9"/>
	<stop  offset="0.66" style="stop-color:#FFFFFF"/>
	<stop  offset="0.69" style="stop-color:#FFFFFF"/>
	<stop  offset="0.73" style="stop-color:#D8D8D8"/>
	<stop  offset="0.82" style="stop-color:#A5A5A5"/>
	<stop  offset="0.86" style="stop-color:#BABABA"/>
	<stop  offset="0.88" style="stop-color:#A8A8A8"/>
	<stop  offset="0.93" style="stop-color:#BBBABB"/>
	<stop  offset="1" style="stop-color:#606060"/>
</linearGradient>
<polygon style="fill:url(#SVGID_00000109004697605328375790000013611038682058069899_);" points="113.7,120.7 110.2,115.2 
	106.4,41.9 109.3,36.3 "/>
<linearGradient id="SVGID_00000176005050057353824670000011596851343391154108_" gradientUnits="userSpaceOnUse" x1="112.4842" y1="303.0356" x2="112.4842" y2="223.3725" gradientTransform="matrix(1 0 0 -1.06 0.45 357.2288)">
	<stop  offset="0" style="stop-color:#686868"/>
	<stop  offset="6.000000e-02" style="stop-color:#595959"/>
	<stop  offset="0.22" style="stop-color:#898989"/>
	<stop  offset="0.27" style="stop-color:#7C7C7C"/>
	<stop  offset="0.34" style="stop-color:#898989"/>
	<stop  offset="0.73" style="stop-color:#D8D8D8"/>
	<stop  offset="0.82" style="stop-color:#A5A5A5"/>
	<stop  offset="0.86" style="stop-color:#BABABA"/>
	<stop  offset="0.88" style="stop-color:#A8A8A8"/>
	<stop  offset="0.93" style="stop-color:#BBBABB"/>
	<stop  offset="1" style="stop-color:#606060"/>
</linearGradient>
<polygon style="fill:url(#SVGID_00000176005050057353824670000011596851343391154108_);" points="113.7,120.7 109.3,36.3 
	112.8,41.9 116.6,115.2 "/>
<linearGradient id="SVGID_00000139978166170287572550000008080398098519496847_" gradientUnits="userSpaceOnUse" x1="115.4738" y1="225.7269" x2="115.4738" y2="300.5998" gradientTransform="matrix(1 0 0 -1.06 0.45 357.2288)">
	<stop  offset="0" style="stop-color:#686868"/>
	<stop  offset="6.000000e-02" style="stop-color:#424242"/>
	<stop  offset="0.22" style="stop-color:#898989"/>
	<stop  offset="0.27" style="stop-color:#7C7C7C"/>
	<stop  offset="0.34" style="stop-color:#898989"/>
	<stop  offset="0.41" style="stop-color:#C6C6C6"/>
	<stop  offset="0.47" style="stop-color:#F4F4F4"/>
	<stop  offset="0.52" style="stop-color:#D6D6D6"/>
	<stop  offset="0.55" style="stop-color:#D3D3D3"/>
	<stop  offset="0.59" style="stop-color:#F9F9F9"/>
	<stop  offset="0.61" style="stop-color:#F9F9F9"/>
	<stop  offset="0.66" style="stop-color:#FFFFFF"/>
	<stop  offset="0.69" style="stop-color:#FFFFFF"/>
	<stop  offset="0.73" style="stop-color:#D8D8D8"/>
	<stop  offset="0.82" style="stop-color:#A5A5A5"/>
	<stop  offset="0.86" style="stop-color:#BABABA"/>
	<stop  offset="0.88" style="stop-color:#A8A8A8"/>
	<stop  offset="0.93" style="stop-color:#BBBABB"/>
	<stop  offset="1" style="stop-color:#606060"/>
</linearGradient>
<polygon style="fill:url(#SVGID_00000139978166170287572550000008080398098519496847_);" points="119.1,118.2 116.6,115.2 
	112.8,41.9 115.6,38.8 "/>
<linearGradient id="SVGID_00000075882755346577223510000009175111577008806820_" gradientUnits="userSpaceOnUse" x1="117.5493" y1="300.6491" x2="117.5493" y2="225.7763" gradientTransform="matrix(1 0 0 -1.06 0.45 357.2288)">
	<stop  offset="0" style="stop-color:#686868"/>
	<stop  offset="6.000000e-02" style="stop-color:#595959"/>
	<stop  offset="0.22" style="stop-color:#898989"/>
	<stop  offset="0.27" style="stop-color:#7C7C7C"/>
	<stop  offset="0.34" style="stop-color:#898989"/>
	<stop  offset="0.73" style="stop-color:#D8D8D8"/>
	<stop  offset="0.82" style="stop-color:#A5A5A5"/>
	<stop  offset="0.86" style="stop-color:#BABABA"/>
	<stop  offset="0.88" style="stop-color:#A8A8A8"/>
	<stop  offset="0.93" style="stop-color:#BBBABB"/>
	<stop  offset="1" style="stop-color:#606060"/>
</linearGradient>
<polygon style="fill:url(#SVGID_00000075882755346577223510000009175111577008806820_);" points="120.4,115.2 119.1,118.2 
	115.6,38.8 120.4,41.9 "/>
<linearGradient id="SVGID_00000040551004169408215570000018297196873039139223_" gradientUnits="userSpaceOnUse" x1="106.2697" y1="194.959" x2="106.2697" y2="290.1668" gradientTransform="matrix(1 0 0 -1 0 321.1656)">
	<stop  offset="0" style="stop-color:#999898"/>
	<stop  offset="0.1963" style="stop-color:#4F4F4F"/>
	<stop  offset="0.2507" style="stop-color:#5B5B5B"/>
	<stop  offset="0.3499" style="stop-color:#7C7C7C"/>
	<stop  offset="0.3704" style="stop-color:#848484"/>
	<stop  offset="0.433" style="stop-color:#878787"/>
	<stop  offset="0.5974" style="stop-color:#D9D9D9"/>
	<stop  offset="0.6843" style="stop-color:#FFFFFF"/>
	<stop  offset="0.9078" style="stop-color:#B7B7B7"/>
	<stop  offset="1" style="stop-color:#C6C6C6"/>
</linearGradient>
<rect x="104.1" y="31" style="fill:url(#SVGID_00000040551004169408215570000018297196873039139223_);" width="4.3" height="95.2"/>
<linearGradient id="SVGID_00000139267755015631587650000011091631628429098659_" gradientUnits="userSpaceOnUse" x1="44.6322" y1="189.2212" x2="44.6322" y2="296.057" gradientTransform="matrix(1 0 0 -1 0 321.1656)">
	<stop  offset="2.230000e-02" style="stop-color:#1A1A1A"/>
	<stop  offset="0.9832" style="stop-color:#CCCCCC"/>
</linearGradient>
<polygon style="fill:url(#SVGID_00000139267755015631587650000011091631628429098659_);" points="50.4,131.9 44.1,131.9 38.8,126.2 
	38.8,31 44.1,25.1 50.4,25.1 "/>
<linearGradient id="SVGID_00000066501893279272867210000003429113819106818701_" gradientUnits="userSpaceOnUse" x1="-3581.1868" y1="189.2212" x2="-3581.1868" y2="296.057" gradientTransform="matrix(-1 0 0 -1 -3482.8699 321.1656)">
	<stop  offset="2.230000e-02" style="stop-color:#1A1A1A"/>
	<stop  offset="0.9832" style="stop-color:#CCCCCC"/>
</linearGradient>
<polygon style="fill:url(#SVGID_00000066501893279272867210000003429113819106818701_);" points="92.5,131.9 98.9,131.9 
	104.1,126.2 104.1,31 98.9,25.1 92.5,25.1 "/>
<linearGradient id="SVGID_00000007393232426165169670000004832193595262800038_" gradientUnits="userSpaceOnUse" x1="71.4744" y1="268.0024" x2="71.4744" y2="296.057" gradientTransform="matrix(1 0 0 -1 0 321.1656)">
	<stop  offset="0" style="stop-color:#F4F4F4"/>
	<stop  offset="1" style="stop-color:#BABABA"/>
</linearGradient>
<path style="fill:url(#SVGID_00000007393232426165169670000004832193595262800038_);" d="M44.1,25.1h54.8c0,0,5.2,4.8,5.2,14
	s-5.2,14-5.2,14H44.1c0,0-5.2-4.8-5.2-14S44.1,25.1,44.1,25.1z"/>
<linearGradient id="SVGID_00000157300815141405788590000015521112764795477671_" gradientUnits="userSpaceOnUse" x1="71.4744" y1="189.2212" x2="71.4744" y2="217.2884" gradientTransform="matrix(1 0 0 -1 0 321.1656)">
	<stop  offset="0" style="stop-color:#727272"/>
	<stop  offset="1" style="stop-color:#4C4C4C"/>
</linearGradient>
<path style="fill:url(#SVGID_00000157300815141405788590000015521112764795477671_);" d="M44.1,103.9h54.8c0,0,5.2,4.8,5.2,14
	s-5.2,14-5.2,14H44.1c0,0-5.2-4.8-5.2-14S44.1,103.9,44.1,103.9z"/>
<path class="st20" d="M44.1,53.2h54.8c0,0,5.2,7.9,5.2,25.4s-5.2,25.4-5.2,25.4H44.1c0,0-5.2-7.9-5.2-25.4S44.1,53.2,44.1,53.2z"/>
<linearGradient id="SVGID_00000064334926478037106870000004834275367959478917_" gradientUnits="userSpaceOnUse" x1="131.2903" y1="205.965" x2="131.2903" y2="279.3131" gradientTransform="matrix(1 0 0 -1 0 321.1656)">
	<stop  offset="0" style="stop-color:#999898"/>
	<stop  offset="0.1963" style="stop-color:#4F4F4F"/>
	<stop  offset="0.2507" style="stop-color:#5B5B5B"/>
	<stop  offset="0.3499" style="stop-color:#7C7C7C"/>
	<stop  offset="0.3704" style="stop-color:#848484"/>
	<stop  offset="0.433" style="stop-color:#878787"/>
	<stop  offset="0.5974" style="stop-color:#D9D9D9"/>
	<stop  offset="0.6843" style="stop-color:#FFFFFF"/>
	<stop  offset="0.9078" style="stop-color:#B7B7B7"/>
	<stop  offset="1" style="stop-color:#C6C6C6"/>
</linearGradient>
<rect x="120.4" y="41.9" style="fill:url(#SVGID_00000064334926478037106870000004834275367959478917_);" width="21.8" height="73.3"/>
<linearGradient id="SVGID_00000012441274569709642390000014503769535317698196_" gradientUnits="userSpaceOnUse" x1="147.025" y1="189.2212" x2="147.025" y2="296.057" gradientTransform="matrix(1 0 0 -1 0 321.1656)">
	<stop  offset="2.230000e-02" style="stop-color:#1A1A1A"/>
	<stop  offset="0.9832" style="stop-color:#CCCCCC"/>
</linearGradient>
<polygon style="fill:url(#SVGID_00000012441274569709642390000014503769535317698196_);" points="151.8,131.9 146.6,131.9 
	142.2,126.2 142.2,31 146.6,25.1 151.8,25.1 "/>
<linearGradient id="SVGID_00000103955528025708793020000017283513607754363526_" gradientUnits="userSpaceOnUse" x1="-3662.0435" y1="189.2212" x2="-3662.0435" y2="296.057" gradientTransform="matrix(-1 0 0 -1 -3482.8699 321.1656)">
	<stop  offset="2.230000e-02" style="stop-color:#1A1A1A"/>
	<stop  offset="0.9832" style="stop-color:#CCCCCC"/>
</linearGradient>
<polygon style="fill:url(#SVGID_00000103955528025708793020000017283513607754363526_);" points="174.4,131.9 179.6,131.9 
	184,126.2 184,31 179.6,25.1 174.4,25.1 "/>
<linearGradient id="SVGID_00000075126224901186563940000010317856554082091144_" gradientUnits="userSpaceOnUse" x1="163.0961" y1="268.0024" x2="163.0961" y2="296.057" gradientTransform="matrix(1 0 0 -1 0 321.1656)">
	<stop  offset="0" style="stop-color:#F4F4F4"/>
	<stop  offset="1" style="stop-color:#BABABA"/>
</linearGradient>
<path style="fill:url(#SVGID_00000075126224901186563940000010317856554082091144_);" d="M146.6,25.1h33.1c0,0,4.3,4.8,4.3,14
	s-4.3,14-4.3,14h-33.1c0,0-4.3-4.8-4.3-14S146.6,25.1,146.6,25.1z"/>
<linearGradient id="SVGID_00000018202664121850758530000008659414706167504025_" gradientUnits="userSpaceOnUse" x1="163.0961" y1="189.2212" x2="163.0961" y2="217.2884" gradientTransform="matrix(1 0 0 -1 0 321.1656)">
	<stop  offset="0" style="stop-color:#727272"/>
	<stop  offset="1" style="stop-color:#4C4C4C"/>
</linearGradient>
<path style="fill:url(#SVGID_00000018202664121850758530000008659414706167504025_);" d="M146.6,103.9h33.1c0,0,4.3,4.8,4.3,14
	s-4.3,14-4.3,14h-33.1c0,0-4.3-4.8-4.3-14S146.6,103.9,146.6,103.9z"/>
<path class="st20" d="M146.6,53.2h33.1c0,0,4.3,7.9,4.3,25.4s-4.3,25.4-4.3,25.4h-33.1c0,0-4.3-7.9-4.3-25.4S146.6,53.2,146.6,53.2z
	"/>
<linearGradient id="SVGID_00000020365045125508482790000005669275305120013468_" gradientUnits="userSpaceOnUse" x1="161.207" y1="227.149" x2="161.207" y2="322.3568" gradientTransform="matrix(1 0 0 -1 -133.89 353.3556)">
	<stop  offset="0" style="stop-color:#999898"/>
	<stop  offset="0.1963" style="stop-color:#4F4F4F"/>
	<stop  offset="0.2507" style="stop-color:#5B5B5B"/>
	<stop  offset="0.3499" style="stop-color:#7C7C7C"/>
	<stop  offset="0.3704" style="stop-color:#848484"/>
	<stop  offset="0.433" style="stop-color:#878787"/>
	<stop  offset="0.5974" style="stop-color:#D9D9D9"/>
	<stop  offset="0.6843" style="stop-color:#FFFFFF"/>
	<stop  offset="0.9078" style="stop-color:#B7B7B7"/>
	<stop  offset="1" style="stop-color:#C6C6C6"/>
</linearGradient>
<path style="fill:url(#SVGID_00000020365045125508482790000005669275305120013468_);" d="M17.6,31h21.2l0,0v95.2l0,0H17.6
	c-1,0-1.8-0.8-1.8-1.8V32.8C15.8,31.8,16.6,31,17.6,31z"/>
<g>
	<defs>
		<path id="SVGID_00000111167122229306264710000001727773439044473528_" d="M99,292.8H43.8l-5.1-5.6H16.9c-0.6,0-1.1-0.5-1.1-2.4
			V193c0-0.6,0.5-1.1,1.1-1.1c0,0,0,0,0,0h21.8l5.1-6.1H99l5.1,5.8h4.3v95.2h-4.3L99,292.8z"/>
	</defs>
	<clipPath id="SVGID_00000105425149639975560590000004699878609162671036_">
		<use xlink:href="#SVGID_00000111167122229306264710000001727773439044473528_"  style="overflow:visible;"/>
	</clipPath>
	
		<g transform="matrix(1 0 0 1 0 -7.629395e-06)" style="clip-path:url(#SVGID_00000105425149639975560590000004699878609162671036_);">
		
			<image style="overflow:visible;" width="600" height="600" xlink:href="../../background.jpg"  transform="matrix(0.3516 0 0 0.3516 -43.3584 103.9272)">
		</image>
	</g>
</g>
<path class="st27" d="M99,292.8H43.8l-5.1-5.6H16.9c-0.6,0-1.1-0.5-1.1-2.4V193c0-0.6,0.5-1.1,1.1-1.1c0,0,0,0,0,0h21.8l5.1-6.1H99
	l5.1,5.8h4.3v95.2h-4.3L99,292.8z"/>
<path class="st28" d="M99,292.8H43.8l-5.1-5.6H16.9c-0.6,0-1.1-0.5-1.1-2.4V193c0-0.6,0.5-1.1,1.1-1.1c0,0,0,0,0,0h21.8l5.1-6.1H99
	l5.1,5.8h4.3v95.2h-4.3L99,292.8z"/>
<polyline class="st29" points="72.3,276.2 69.4,281.6 65.9,276.2 63,281.6 59.6,276.1 56.7,281.6 54.6,275.8 44.5,275.8 44.5,264.4 
	72.3,264.4 72.3,276.2 "/>
<polyline class="st29" points="74.9,202.8 74.9,214.3 44,214.3 44.5,203.2 55.6,203.2 58.7,197.4 62.2,202.8 65.1,197.4 68.5,202.8 
	71.4,197.4 74.9,202.8 "/>
<g>
	<defs>
		<polygon id="SVGID_00000122688570790122429400000001229743555056206211_" points="142.4,287.2 146.8,292.9 179.9,292.9 
			184.2,287.2 184.2,192 179.9,186.1 146.8,186.1 142.4,192 142.4,202.9 120.6,202.9 115.8,199.9 113,202.8 109.5,197.4 
			106.6,202.8 103.2,197.4 100.2,202.9 96.8,197.3 93.9,202.8 90.4,197.4 87.5,202.8 84.1,197.4 81.2,202.8 77.7,197.4 74.9,202.8 
			73.3,200.3 71.5,204.1 66.6,204.1 64.1,204.1 64.1,274.4 67.9,274.4 71,278.6 72.3,276.2 75.7,281.6 78.7,276.2 82.1,281.6 
			85,276.1 88.5,281.7 91.4,276.2 94.8,281.6 97.7,276.2 101.2,281.6 104.1,276.2 107.5,281.6 110.4,276.1 113.9,281.6 116.8,276.2 
			119.3,279.1 120.6,276.1 142.4,276.1 		"/>
	</defs>
	<clipPath id="SVGID_00000083777041949323520800000013172063745134672015_">
		<use xlink:href="#SVGID_00000122688570790122429400000001229743555056206211_"  style="overflow:visible;"/>
	</clipPath>
	<g style="clip-path:url(#SVGID_00000083777041949323520800000013172063745134672015_);">
		
			<image style="overflow:visible;" width="600" height="600" xlink:href="../../background.jpg"  transform="matrix(0.3516 0 0 0.3516 35.3785 138.4451)">
		</image>
	</g>
	
		<use xlink:href="#SVGID_00000122688570790122429400000001229743555056206211_"  style="overflow:visible;fill:none;stroke:#CFCFCF;stroke-miterlimit:10;"/>
</g>
<line class="st30" x1="41.6" y1="263.1" x2="41.6" y2="215.7"/>
<line class="st30" x1="53.3" y1="263.2" x2="53.3" y2="215.7"/>
<line class="st30" x1="69.2" y1="263.2" x2="69.2" y2="215.7"/>
<polygon class="st31" points="79.2,264.5 56.5,275.9 53.3,275.8 53.3,203.1 56.5,203.2 79.2,214.3 "/>
<polygon class="st32" points="55.9,214.3 55.9,264.5 53.3,272.1 47.8,272.1 47.8,275.9 44.5,275.9 44.4,275.9 41.5,264.4 
	41.5,214.5 44.5,203.2 47.8,203.2 47.8,206.9 53.3,206.9 "/>
<linearGradient id="SVGID_00000049927965318592726100000003091967137461291447_" gradientUnits="userSpaceOnUse" x1="3076.6692" y1="-592.132" x2="3076.6692" y2="-642.097" gradientTransform="matrix(1 0 0 1 -3004.96 856.5345)">
	<stop  offset="0" style="stop-color:#424242"/>
	<stop  offset="0.1068" style="stop-color:#333333"/>
	<stop  offset="0.2055" style="stop-color:#2D2D2D"/>
	<stop  offset="0.3492" style="stop-color:#424244"/>
	<stop  offset="0.6732" style="stop-color:#7F7F7F"/>
	<stop  offset="0.9078" style="stop-color:#414042"/>
</linearGradient>
<polygon style="fill:url(#SVGID_00000049927965318592726100000003091967137461291447_);" points="22.6,214.4 120.7,214.5 
	120.8,264.4 22.6,264.4 "/>
<g>
	<polygon class="st34" points="53.3,272.1 58.4,264.4 58.4,214.5 53.4,206.8 55.9,214.5 55.9,264.4 	"/>
</g>
<g>
	<rect x="79.2" y="214.3" class="st35" width="2.5" height="50.1"/>
</g>
<g>
	<rect x="36.4" y="214.4" class="st36" width="5.2" height="50"/>
</g>
<g>
	<polygon class="st36" points="115.6,263.1 115.6,214.4 120.8,214.3 120.8,263.1 	"/>
</g>
<polyline class="st30" points="53.3,272.1 55.9,264.5 55.9,214.4 53.4,207 "/>
<line class="st30" x1="79.2" y1="264.4" x2="79.2" y2="214.3"/>
<linearGradient id="SVGID_00000091719999346828189580000014251005732036737668_" gradientUnits="userSpaceOnUse" x1="19.2561" y1="51.863" x2="19.2561" y2="111.7677" gradientTransform="matrix(1 0 0 -1 0 321.1656)">
	<stop  offset="0" style="stop-color:#424242"/>
	<stop  offset="0.1068" style="stop-color:#333333"/>
	<stop  offset="0.2055" style="stop-color:#2D2D2D"/>
	<stop  offset="0.3492" style="stop-color:#424244"/>
	<stop  offset="0.6732" style="stop-color:#7F7F7F"/>
	<stop  offset="0.9078" style="stop-color:#414042"/>
</linearGradient>
<polygon style="fill:url(#SVGID_00000091719999346828189580000014251005732036737668_);" points="22.7,214.3 15.8,209.4 15.8,269.3 
	22.7,264.3 "/>
<line class="st30" x1="41.5" y1="214.3" x2="41.5" y2="264.4"/>
<linearGradient id="SVGID_00000051369963256122863480000017469581590445115830_" gradientUnits="userSpaceOnUse" x1="140.8492" y1="64.2781" x2="140.8492" y2="99.4034" gradientTransform="matrix(1 0 0 -1 0 321.1656)">
	<stop  offset="0" style="stop-color:#424242"/>
	<stop  offset="0.1068" style="stop-color:#333333"/>
	<stop  offset="0.2055" style="stop-color:#2D2D2D"/>
	<stop  offset="0.3492" style="stop-color:#424244"/>
	<stop  offset="0.6732" style="stop-color:#7F7F7F"/>
	<stop  offset="0.9078" style="stop-color:#414042"/>
</linearGradient>
<polygon style="fill:url(#SVGID_00000051369963256122863480000017469581590445115830_);" points="142.4,256.9 120.7,256.9 
	120.7,221.8 142.3,221.8 161,238.7 "/>
<polygon class="st30" points="142.3,221.8 120.7,221.8 120.8,214.3 22.7,214.3 22.6,264.4 120.7,264.4 120.8,256.9 142.4,256.9 
	142.5,256.9 161,238.7 "/>
<image style="overflow:visible;" width="200" height="200" xlink:href="../../pepsi.png"  transform="matrix(0.1217 0 0 0.1217 58.9649 66.3153)">
</image>
</svg>
