<?xml version="1.0" encoding="utf-8"?>
<!-- Generator: Adobe Illustrator 25.4.1, SVG Export Plug-In . SVG Version: 6.00 Build 0)  -->
<svg version="1.1" id="Слой_1" xmlns="http://www.w3.org/2000/svg" xmlns:xlink="http://www.w3.org/1999/xlink" x="0px" y="0px"
	 viewBox="0 0 300 480" style="enable-background:new 0 0 300 480;" xml:space="preserve">
<style type="text/css">
	.st0{fill:url(#SVGID_1_);}
	.st1{fill:url(#SVGID_00000094613591142634464110000008229008479861958286_);}
	.st2{opacity:0.39;fill:#272727;}
	.st3{fill:url(#SVGID_00000109024675997033635960000002172287597929897858_);}
	.st4{fill:url(#SVGID_00000010278731024517556280000012073121875937797285_);}
	.st5{fill:url(#SVGID_00000049920141633768106110000011868415751759548862_);}
	.st6{fill:url(#SVGID_00000100378573791871042430000014991321555262620040_);}
	.st7{fill:url(#SVGID_00000030483019295004385810000006089414002197587881_);}
	.st8{fill:#AAAAAA;}
	.st9{fill:url(#SVGID_00000183961881582329025760000001007487591756871856_);}
	.st10{fill:url(#SVGID_00000009552165646270390040000009948538064308519607_);}
	.st11{fill:url(#SVGID_00000005986014584480459180000012031825974375370384_);}
	.st12{fill:url(#SVGID_00000093165218753433684430000009775356978800813201_);}
	
		.st13{fill:url(#SVGID_00000160904776103939293680000004095433440580499608_);stroke:#0F0F0F;stroke-width:0.25;stroke-miterlimit:10;}
	
		.st14{fill:url(#SVGID_00000060717275334004762290000006090180736700687236_);stroke:#0F0F0F;stroke-width:0.25;stroke-miterlimit:10;}
	.st15{fill:none;stroke:#0F0F0F;stroke-width:0.25;stroke-miterlimit:10;}
	.st16{fill:url(#SVGID_00000077308816618528716900000015985573691324669583_);}
	.st17{fill:url(#SVGID_00000093167765650990318350000015798679657593049231_);}
	.st18{fill:url(#SVGID_00000147190039672183249400000015813099712842311601_);}
	.st19{fill:url(#SVGID_00000152257473340213801290000010681832809545055667_);}
	.st20{fill:url(#SVGID_00000021089578349324595590000008470966397412585095_);}
	.st21{fill:url(#SVGID_00000177449781908486175030000000204147519345582213_);}
	.st22{fill:url(#SVGID_00000160165619808662488910000007457711770195411116_);}
	.st23{fill:url(#SVGID_00000134971670761650127980000013950049763125524100_);}
	.st24{fill:url(#SVGID_00000178904334818016523010000015959431892931639947_);}
	.st25{fill:url(#SVGID_00000005976888759610047600000003770995938132277895_);}
	.st26{fill:url(#SVGID_00000031904504387939493540000011023376371399245959_);}
	.st27{fill:url(#SVGID_00000183953078593522750380000002691308335379600013_);}
	.st28{fill:url(#SVGID_00000054244878964910843280000004408955301062033841_);}
	.st29{fill:url(#SVGID_00000106130390816637593840000012343081393306175618_);}
	.st30{fill:url(#SVGID_00000151525319169319856910000009192273932688132494_);}
	.st31{fill:url(#SVGID_00000098216321629815688960000013507597275051889561_);}
	.st32{fill:url(#SVGID_00000086669685609059250200000015370345561491588533_);}
	.st33{fill:url(#SVGID_00000011739577803117952550000015697369292552262566_);}
	.st34{fill:url(#SVGID_00000132793532696710114910000017269912894241464758_);}
	.st35{fill:url(#SVGID_00000059307533680878507920000008036301423140851370_);}
	.st36{fill:url(#SVGID_00000001630441473547871210000008439902176917575572_);}
	.st37{fill:url(#SVGID_00000160180571625376739660000006734654002270224536_);}
	.st38{fill:url(#SVGID_00000040575319764405663100000017260906917524938925_);}
	.st39{fill:url(#SVGID_00000062883339646320090170000012806735207040790191_);}
	.st40{fill:url(#SVGID_00000176024393430321112770000009598459772001767840_);}
	.st41{fill:url(#SVGID_00000120539353171373676840000002909381544596211647_);}
	.st42{fill:url(#SVGID_00000008109372350043513780000003921410194427140235_);}
	.st43{fill:url(#SVGID_00000024715481286176012750000007781223101661522066_);}
	.st44{fill:url(#SVGID_00000097465933633022368040000014912543147325033150_);}
	.st45{fill:url(#SVGID_00000151507380400823293170000003025146979331196598_);}
	.st46{fill:url(#SVGID_00000149378532663984066160000003756483131750964155_);}
	.st47{fill:url(#SVGID_00000024716604307249439110000018177852820466629005_);}
	.st48{fill:url(#SVGID_00000168797984426495649080000015438539967522763908_);}
	.st49{fill:url(#SVGID_00000168118261086635970270000013571739106292872583_);}
	.st50{fill:url(#SVGID_00000129178005688129226150000013980223234170959283_);}
	.st51{fill:url(#SVGID_00000091725855772713723320000006265102873662132670_);}
	.st52{fill:url(#SVGID_00000072252298524379066270000003865228416316408766_);}
	.st53{fill:#DEDBDB;stroke:#0F0F0F;stroke-width:0.25;stroke-linejoin:round;}
	.st54{fill:#CAC7C6;stroke:#0F0F0F;stroke-width:0.25;stroke-linejoin:round;}
	.st55{fill:url(#SVGID_00000150099768569466284420000002428935918838877595_);}
	.st56{fill:url(#SVGID_00000068678625231954098550000008462087198273451666_);}
	.st57{fill:none;stroke:#0F0F0F;stroke-width:0.25;stroke-linecap:round;stroke-linejoin:round;}
</style>
<linearGradient id="SVGID_1_" gradientUnits="userSpaceOnUse" x1="133.8092" y1="299.6749" x2="133.8092" y2="423.46" gradientTransform="matrix(1 0 0 -1 0 481.4956)">
	<stop  offset="0" style="stop-color:#999898"/>
	<stop  offset="0.1963" style="stop-color:#4F4F4F"/>
	<stop  offset="0.2507" style="stop-color:#5B5B5B"/>
	<stop  offset="0.3499" style="stop-color:#7C7C7C"/>
	<stop  offset="0.3704" style="stop-color:#848484"/>
	<stop  offset="0.433" style="stop-color:#878787"/>
	<stop  offset="0.5974" style="stop-color:#D9D9D9"/>
	<stop  offset="0.6843" style="stop-color:#FFFFFF"/>
	<stop  offset="0.9078" style="stop-color:#B7B7B7"/>
	<stop  offset="1" style="stop-color:#C6C6C6"/>
</linearGradient>
<rect x="121.7" y="58" class="st0" width="24.2" height="123.8"/>
<linearGradient id="SVGID_00000147911348955158083110000011395002266958035892_" gradientUnits="userSpaceOnUse" x1="148.9237" y1="330.4034" x2="148.9237" y2="392.7314" gradientTransform="matrix(1 0 0 -1 0 481.4956)">
	<stop  offset="0" style="stop-color:#999898"/>
	<stop  offset="0.1963" style="stop-color:#4F4F4F"/>
	<stop  offset="0.2507" style="stop-color:#5B5B5B"/>
	<stop  offset="0.3499" style="stop-color:#7C7C7C"/>
	<stop  offset="0.3704" style="stop-color:#848484"/>
	<stop  offset="0.433" style="stop-color:#878787"/>
	<stop  offset="0.5974" style="stop-color:#D9D9D9"/>
	<stop  offset="0.6843" style="stop-color:#FFFFFF"/>
	<stop  offset="0.9078" style="stop-color:#B7B7B7"/>
	<stop  offset="1" style="stop-color:#C6C6C6"/>
</linearGradient>
<rect x="145.9" y="88.8" style="fill:url(#SVGID_00000147911348955158083110000011395002266958035892_);" width="6" height="62.3"/>
<rect x="145.9" y="88.8" class="st2" width="9.1" height="62.3"/>
<linearGradient id="SVGID_00000091720506080564960230000007106107937171835533_" gradientUnits="userSpaceOnUse" x1="14.5649" y1="330.4034" x2="14.5649" y2="392.7314" gradientTransform="matrix(1 0 0 -1 0 481.4956)">
	<stop  offset="0" style="stop-color:#999898"/>
	<stop  offset="0.1963" style="stop-color:#4F4F4F"/>
	<stop  offset="0.2507" style="stop-color:#5B5B5B"/>
	<stop  offset="0.3499" style="stop-color:#7C7C7C"/>
	<stop  offset="0.3704" style="stop-color:#848484"/>
	<stop  offset="0.433" style="stop-color:#878787"/>
	<stop  offset="0.5974" style="stop-color:#D9D9D9"/>
	<stop  offset="0.6843" style="stop-color:#FFFFFF"/>
	<stop  offset="0.9078" style="stop-color:#B7B7B7"/>
	<stop  offset="1" style="stop-color:#C6C6C6"/>
</linearGradient>
<rect x="5.7" y="88.8" style="fill:url(#SVGID_00000091720506080564960230000007106107937171835533_);" width="17.8" height="62.3"/>
<linearGradient id="SVGID_00000047770070647516861550000008610206306781497756_" gradientUnits="userSpaceOnUse" x1="2021.6445" y1="292.028" x2="2021.6445" y2="431.0941" gradientTransform="matrix(-1 0 0 -1 2134.6201 481.4956)">
	<stop  offset="2.230000e-02" style="stop-color:#1A1A1A"/>
	<stop  offset="0.9832" style="stop-color:#CCCCCC"/>
</linearGradient>
<polygon style="fill:url(#SVGID_00000047770070647516861550000008610206306781497756_);" points="104.2,189.5 113.8,189.5 
	121.7,182 121.7,58.1 113.8,50.4 104.2,50.4 "/>
<linearGradient id="SVGID_00000119802143932793469150000015596732145450032262_" gradientUnits="userSpaceOnUse" x1="-1947.2472" y1="292.028" x2="-1947.2472" y2="431.0941" gradientTransform="matrix(1 0 0 -1 1979.45 481.4956)">
	<stop  offset="2.230000e-02" style="stop-color:#1A1A1A"/>
	<stop  offset="0.9832" style="stop-color:#CCCCCC"/>
</linearGradient>
<polygon style="fill:url(#SVGID_00000119802143932793469150000015596732145450032262_);" points="40.9,189.5 31.4,189.5 23.5,182 
	23.5,58.1 31.4,50.4 40.9,50.4 "/>
<linearGradient id="SVGID_00000032619868970539044810000005874100571183449777_" gradientUnits="userSpaceOnUse" x1="2062.0688" y1="394.5631" x2="2062.0688" y2="431.0941" gradientTransform="matrix(-1 0 0 -1 2134.6201 481.4956)">
	<stop  offset="0" style="stop-color:#F4F4F4"/>
	<stop  offset="1" style="stop-color:#BABABA"/>
</linearGradient>
<path style="fill:url(#SVGID_00000032619868970539044810000005874100571183449777_);" d="M113.8,50.4H31.4c-5.1,4.7-8,11.3-7.9,18.3
	c-0.1,6.9,2.8,13.6,7.9,18.3h82.5c5.1-4.7,8-11.3,7.9-18.3C121.8,61.7,119,55.1,113.8,50.4z"/>
<linearGradient id="SVGID_00000064339949069702721500000008349649638767458751_" gradientUnits="userSpaceOnUse" x1="2062.0303" y1="292.028" x2="2062.0303" y2="328.559" gradientTransform="matrix(-1 0 0 -1 2134.6201 481.4956)">
	<stop  offset="0" style="stop-color:#727272"/>
	<stop  offset="1" style="stop-color:#4C4C4C"/>
</linearGradient>
<path style="fill:url(#SVGID_00000064339949069702721500000008349649638767458751_);" d="M113.8,152.9H31.4
	c-10.1,9.5-10.6,25.4-1.1,35.5c0.3,0.4,0.7,0.7,1.1,1.1h82.5c10.1-9.5,10.5-25.4,1-35.5C114.5,153.6,114.2,153.3,113.8,152.9z"/>
<path class="st8" d="M113.8,86.9H31.4c0,0-7.9,10.3-7.9,33s7.9,33,7.9,33h82.5c0,0,7.9-10.2,7.9-33S113.8,86.9,113.8,86.9z"/>
<linearGradient id="SVGID_00000085214894744067468050000001964157544474992552_" gradientUnits="userSpaceOnUse" x1="1871.0953" y1="292.028" x2="1871.0953" y2="431.0941" gradientTransform="matrix(-1 0 0 -1 2134.6201 481.4956)">
	<stop  offset="2.230000e-02" style="stop-color:#1A1A1A"/>
	<stop  offset="0.9832" style="stop-color:#CCCCCC"/>
</linearGradient>
<polygon style="fill:url(#SVGID_00000085214894744067468050000001964157544474992552_);" points="232.7,189.5 286.5,189.5 
	294.3,182 294.3,58.1 286.5,50.4 232.7,50.4 "/>
<linearGradient id="SVGID_00000034782612305718228540000013118549488202638769_" gradientUnits="userSpaceOnUse" x1="-1818.7742" y1="292.028" x2="-1818.7742" y2="431.0941" gradientTransform="matrix(1 0 0 -1 1979.45 481.4956)">
	<stop  offset="2.230000e-02" style="stop-color:#1A1A1A"/>
	<stop  offset="0.9832" style="stop-color:#CCCCCC"/>
</linearGradient>
<polygon style="fill:url(#SVGID_00000034782612305718228540000013118549488202638769_);" points="169.4,189.5 159.8,189.5 
	151.9,182 151.9,58.1 159.8,50.4 169.4,50.4 "/>
<linearGradient id="SVGID_00000072967369912867179260000012499249820594326944_" gradientUnits="userSpaceOnUse" x1="1911.4817" y1="394.5631" x2="1911.4817" y2="431.0941" gradientTransform="matrix(-1 0 0 -1 2134.6201 481.4956)">
	<stop  offset="0" style="stop-color:#F4F4F4"/>
	<stop  offset="1" style="stop-color:#BABABA"/>
</linearGradient>
<path style="fill:url(#SVGID_00000072967369912867179260000012499249820594326944_);" d="M286.5,50.4H159.8
	c-5.1,4.7-8,11.3-7.9,18.3c-0.1,6.9,2.8,13.6,7.9,18.3h126.6c5.1-4.7,8-11.3,7.9-18.3C294.5,61.7,291.6,55.1,286.5,50.4z"/>
<linearGradient id="SVGID_00000097463760015267484300000014533291838328848294_" gradientUnits="userSpaceOnUse" x1="1911.4812" y1="292.028" x2="1911.4812" y2="328.559" gradientTransform="matrix(-1 0 0 -1 2134.6201 481.4956)">
	<stop  offset="0" style="stop-color:#727272"/>
	<stop  offset="1" style="stop-color:#4C4C4C"/>
</linearGradient>
<path style="fill:url(#SVGID_00000097463760015267484300000014533291838328848294_);" d="M286.5,152.9H159.8
	c-10.1,9.5-10.6,25.4-1.1,35.5c0.3,0.4,0.7,0.7,1.1,1.1h126.6c10.1-9.5,10.5-25.4,1-35.5C287.2,153.6,286.8,153.3,286.5,152.9z"/>
<path class="st8" d="M286.5,86.9H159.8c0,0-7.9,10.2-7.9,33s7.9,33,7.9,33h126.6c0,0,7.9-10.2,7.9-33S286.5,86.9,286.5,86.9z"/>
<g>
	<defs>
		<path id="SVGID_00000132063337921809023970000010234661345993941660_" d="M30.2,291.7h84.7l6.7,7.4h22.8c0.8,0,1.5,0.7,1.5,1.5
			c0,0,0,0,0,0v120.8c0,0.8-0.6,1.5-1.4,1.5c0,0,0,0,0,0h-22.8l-6.7,8H30.2l-6.8-7.5V299.4L30.2,291.7z"/>
	</defs>
	<clipPath id="SVGID_00000047061952948647836380000001866351435926889117_">
		<use xlink:href="#SVGID_00000132063337921809023970000010234661345993941660_"  style="overflow:visible;"/>
	</clipPath>
	<g style="clip-path:url(#SVGID_00000047061952948647836380000001866351435926889117_);">
		
			<image style="overflow:visible;" width="600" height="600" xlink:href="../../background.jpg"  transform="matrix(0.5381 0 0 0.5381 7.9783 205.0916)">
		</image>
	</g>
	
		<use xlink:href="#SVGID_00000132063337921809023970000010234661345993941660_"  style="overflow:visible;fill:none;stroke:#AAAAAA;stroke-miterlimit:10;"/>
</g>
<g>
	<defs>
		<path id="SVGID_00000029016047358341390790000015153587336383191462_" d="M288,293.5c-0.5-0.5-1-1-1.5-1.5H159.8
			c-0.5,0.5-1,1-1.5,1.5l-6.4,6.2v123.9l6.6,6.3c0.4,0.4,0.8,0.8,1.3,1.2h126.6c0.5-0.4,0.9-0.8,1.3-1.2l6.6-6.3V299.7L288,293.5z"
			/>
	</defs>
	<clipPath id="SVGID_00000090262834060164108380000010670022108881051520_">
		<use xlink:href="#SVGID_00000029016047358341390790000015153587336383191462_"  style="overflow:visible;"/>
	</clipPath>
	<g style="clip-path:url(#SVGID_00000090262834060164108380000010670022108881051520_);">
		
			<image style="overflow:visible;" width="600" height="600" xlink:href="../../background.jpg"  transform="matrix(0.5381 0 0 0.5381 19.1412 205.0916)">
		</image>
	</g>
	
		<use xlink:href="#SVGID_00000029016047358341390790000015153587336383191462_"  style="overflow:visible;fill:none;stroke:#AAAAAA;stroke-miterlimit:10;"/>
</g>
<linearGradient id="SVGID_00000078767530777202454440000014845046861501406383_" gradientUnits="userSpaceOnUse" x1="180.5808" y1="78.1965" x2="180.5808" y2="162.2997" gradientTransform="matrix(1 0 0 -1 0 481.4956)">
	<stop  offset="0" style="stop-color:#3F3F3F"/>
	<stop  offset="0.5" style="stop-color:#8C8C8C"/>
	<stop  offset="0.65" style="stop-color:#828282"/>
	<stop  offset="1" style="stop-color:#595959"/>
</linearGradient>
<polyline style="fill:url(#SVGID_00000078767530777202454440000014845046861501406383_);stroke:#0F0F0F;stroke-width:0.25;stroke-miterlimit:10;" points="
	209.1,403.3 170.2,403.3 170.2,394.1 154.5,394.1 152.1,396.4 152.1,325.9 154.5,328.4 170.2,328.4 170.2,319.2 209.1,319.2 "/>
<linearGradient id="SVGID_00000072985951355158358910000002093438242850780036_" gradientUnits="userSpaceOnUse" x1="128.9866" y1="84.8571" x2="128.9866" y2="155.6262" gradientTransform="matrix(1 0 0 -1 0 481.4956)">
	<stop  offset="0" style="stop-color:#3F3F3F"/>
	<stop  offset="0.35" style="stop-color:#828282"/>
	<stop  offset="0.5" style="stop-color:#8C8C8C"/>
	<stop  offset="1" style="stop-color:#3F3F3F"/>
</linearGradient>
<polygon style="fill:url(#SVGID_00000072985951355158358910000002093438242850780036_);stroke:#0F0F0F;stroke-width:0.25;stroke-miterlimit:10;" points="
	145.9,396.6 143.3,394.1 112.1,394.1 112.1,328.4 143.3,328.4 145.9,325.9 "/>
<line class="st15" x1="112" y1="330.1" x2="112" y2="392.3"/>
<line class="st15" x1="112.1" y1="330.2" x2="112.1" y2="392.4"/>
<linearGradient id="SVGID_00000050647318386363967880000001684924030564450742_" gradientUnits="userSpaceOnUse" x1="-4234.4312" y1="4050.3899" x2="-4233.022" y2="3923.4409" gradientTransform="matrix(-1 1.000000e-02 -1.000000e-02 0.79 -3920.2861 -2732.5564)">
	<stop  offset="0" style="stop-color:#3F3F3F"/>
	<stop  offset="0.35" style="stop-color:#828282"/>
	<stop  offset="0.5" style="stop-color:#8C8C8C"/>
	<stop  offset="1" style="stop-color:#3F3F3F"/>
</linearGradient>
<polygon style="fill:url(#SVGID_00000050647318386363967880000001684924030564450742_);" points="268.6,311.3 274,317.6 
	278.5,404.5 273.8,411.2 "/>
<linearGradient id="SVGID_00000053515443515408871680000008073153644720912784_" gradientUnits="userSpaceOnUse" x1="-4224.3359" y1="4050.2485" x2="-4222.9272" y2="3923.3" gradientTransform="matrix(-1 1.000000e-02 -1.000000e-02 0.79 -3920.2861 -2732.5564)">
	<stop  offset="0" style="stop-color:#3F3F3F"/>
	<stop  offset="0.35" style="stop-color:#828282"/>
	<stop  offset="0.5" style="stop-color:#8C8C8C"/>
	<stop  offset="1" style="stop-color:#3F3F3F"/>
</linearGradient>
<polygon style="fill:url(#SVGID_00000053515443515408871680000008073153644720912784_);" points="258.5,311.3 263.9,317.7 
	268.4,404.6 263.7,411.2 "/>
<linearGradient id="SVGID_00000160904887704058004920000013069767038145835664_" gradientUnits="userSpaceOnUse" x1="-4214.2476" y1="4050.1079" x2="-4212.8384" y2="3923.146" gradientTransform="matrix(-1 1.000000e-02 -1.000000e-02 0.79 -3920.2861 -2732.5564)">
	<stop  offset="0" style="stop-color:#3F3F3F"/>
	<stop  offset="0.35" style="stop-color:#828282"/>
	<stop  offset="0.5" style="stop-color:#8C8C8C"/>
	<stop  offset="1" style="stop-color:#3F3F3F"/>
</linearGradient>
<polygon style="fill:url(#SVGID_00000160904887704058004920000013069767038145835664_);" points="248.4,311.3 253.8,317.9 
	258.3,404.7 253.6,411.2 "/>
<linearGradient id="SVGID_00000142878032162333935080000014911416229461828514_" gradientUnits="userSpaceOnUse" x1="-4204.1587" y1="4049.9539" x2="-4202.75" y2="3923.0054" gradientTransform="matrix(-1 1.000000e-02 -1.000000e-02 0.79 -3920.2861 -2732.5564)">
	<stop  offset="0" style="stop-color:#3F3F3F"/>
	<stop  offset="0.35" style="stop-color:#828282"/>
	<stop  offset="0.5" style="stop-color:#8C8C8C"/>
	<stop  offset="1" style="stop-color:#3F3F3F"/>
</linearGradient>
<polygon style="fill:url(#SVGID_00000142878032162333935080000014911416229461828514_);" points="238.3,311.3 243.7,318 
	248.2,404.8 243.5,411.2 "/>
<linearGradient id="SVGID_00000005231770226201623300000002719628254008252092_" gradientUnits="userSpaceOnUse" x1="-4194.0767" y1="4049.813" x2="-4192.668" y2="3922.8643" gradientTransform="matrix(-1 1.000000e-02 -1.000000e-02 0.79 -3920.2861 -2732.5564)">
	<stop  offset="0" style="stop-color:#3F3F3F"/>
	<stop  offset="0.35" style="stop-color:#828282"/>
	<stop  offset="0.5" style="stop-color:#8C8C8C"/>
	<stop  offset="1" style="stop-color:#3F3F3F"/>
</linearGradient>
<polygon style="fill:url(#SVGID_00000005231770226201623300000002719628254008252092_);" points="228.2,311.3 233.6,318.1 
	238.2,405 233.5,411.2 "/>
<linearGradient id="SVGID_00000179642965636020187460000002260074737558762162_" gradientUnits="userSpaceOnUse" x1="-4183.9561" y1="4049.6721" x2="-4182.5474" y2="3922.7234" gradientTransform="matrix(-1 1.000000e-02 -1.000000e-02 0.79 -3920.2861 -2732.5564)">
	<stop  offset="0" style="stop-color:#3F3F3F"/>
	<stop  offset="0.35" style="stop-color:#828282"/>
	<stop  offset="0.5" style="stop-color:#8C8C8C"/>
	<stop  offset="1" style="stop-color:#3F3F3F"/>
</linearGradient>
<polygon style="fill:url(#SVGID_00000179642965636020187460000002260074737558762162_);" points="218.1,311.3 223.5,318.1 228,405 
	223.3,411.2 "/>
<linearGradient id="SVGID_00000018951683762775418230000010355051870897288873_" gradientUnits="userSpaceOnUse" x1="-4229.7085" y1="4050.4412" x2="-4228.2998" y2="3923.4922" gradientTransform="matrix(-1 1.000000e-02 -1.000000e-02 0.79 -3920.2861 -2732.5564)">
	<stop  offset="0" style="stop-color:#424242"/>
	<stop  offset="0.1068" style="stop-color:#333333"/>
	<stop  offset="0.2055" style="stop-color:#2D2D2D"/>
	<stop  offset="0.3492" style="stop-color:#424244"/>
	<stop  offset="0.6732" style="stop-color:#7F7F7F"/>
	<stop  offset="0.9078" style="stop-color:#414042"/>
</linearGradient>
<polygon style="fill:url(#SVGID_00000018951683762775418230000010355051870897288873_);" points="268.6,311.3 273.8,411.2 
	268.4,404.6 263.9,317.7 "/>
<linearGradient id="SVGID_00000136374173044614267710000016703505188704583867_" gradientUnits="userSpaceOnUse" x1="-4244.5581" y1="4050.531" x2="-4243.1489" y2="3923.582" gradientTransform="matrix(-1 1.000000e-02 -1.000000e-02 0.79 -3920.2861 -2732.5564)">
	<stop  offset="0" style="stop-color:#3F3F3F"/>
	<stop  offset="0.35" style="stop-color:#828282"/>
	<stop  offset="0.5" style="stop-color:#8C8C8C"/>
	<stop  offset="1" style="stop-color:#3F3F3F"/>
</linearGradient>
<polygon style="fill:url(#SVGID_00000136374173044614267710000016703505188704583867_);" points="278.7,311.3 284.1,317.6 
	288.6,404.4 283.9,411.2 "/>
<linearGradient id="SVGID_00000076577746012114932210000002189473932314728602_" gradientUnits="userSpaceOnUse" x1="-4239.8296" y1="4050.5818" x2="-4238.4204" y2="3923.6333" gradientTransform="matrix(-1 1.000000e-02 -1.000000e-02 0.79 -3920.2861 -2732.5564)">
	<stop  offset="0" style="stop-color:#424242"/>
	<stop  offset="0.1068" style="stop-color:#333333"/>
	<stop  offset="0.2055" style="stop-color:#2D2D2D"/>
	<stop  offset="0.3492" style="stop-color:#424244"/>
	<stop  offset="0.6732" style="stop-color:#7F7F7F"/>
	<stop  offset="0.9078" style="stop-color:#414042"/>
</linearGradient>
<polygon style="fill:url(#SVGID_00000076577746012114932210000002189473932314728602_);" points="278.7,311.3 283.9,411.2 
	278.5,404.5 274,317.6 "/>
<linearGradient id="SVGID_00000090256740335095376730000003810056725658067109_" gradientUnits="userSpaceOnUse" x1="-4219.627" y1="4050.3" x2="-4218.2178" y2="3923.3513" gradientTransform="matrix(-1 1.000000e-02 -1.000000e-02 0.79 -3920.2861 -2732.5564)">
	<stop  offset="0" style="stop-color:#424242"/>
	<stop  offset="0.1068" style="stop-color:#333333"/>
	<stop  offset="0.2055" style="stop-color:#2D2D2D"/>
	<stop  offset="0.3492" style="stop-color:#424244"/>
	<stop  offset="0.6732" style="stop-color:#7F7F7F"/>
	<stop  offset="0.9078" style="stop-color:#414042"/>
</linearGradient>
<polygon style="fill:url(#SVGID_00000090256740335095376730000003810056725658067109_);" points="258.5,311.3 263.7,411.2 
	258.3,404.7 253.8,317.9 "/>
<linearGradient id="SVGID_00000110449467538396888880000006287704114471953311_" gradientUnits="userSpaceOnUse" x1="-4209.5381" y1="4050.1592" x2="-4208.1294" y2="3923.1975" gradientTransform="matrix(-1 1.000000e-02 -1.000000e-02 0.79 -3920.2861 -2732.5564)">
	<stop  offset="0" style="stop-color:#424242"/>
	<stop  offset="0.1068" style="stop-color:#333333"/>
	<stop  offset="0.2055" style="stop-color:#2D2D2D"/>
	<stop  offset="0.3492" style="stop-color:#424244"/>
	<stop  offset="0.6732" style="stop-color:#7F7F7F"/>
	<stop  offset="0.9078" style="stop-color:#414042"/>
</linearGradient>
<polygon style="fill:url(#SVGID_00000110449467538396888880000006287704114471953311_);" points="248.4,311.3 253.6,411.2 
	248.2,404.8 243.7,318 "/>
<linearGradient id="SVGID_00000036958370987582125830000000948438278566027649_" gradientUnits="userSpaceOnUse" x1="-4199.4497" y1="4050.0181" x2="-4198.0405" y2="3923.0566" gradientTransform="matrix(-1 1.000000e-02 -1.000000e-02 0.79 -3920.2861 -2732.5564)">
	<stop  offset="0" style="stop-color:#424242"/>
	<stop  offset="0.1068" style="stop-color:#333333"/>
	<stop  offset="0.2055" style="stop-color:#2D2D2D"/>
	<stop  offset="0.3492" style="stop-color:#424244"/>
	<stop  offset="0.6732" style="stop-color:#7F7F7F"/>
	<stop  offset="0.9078" style="stop-color:#414042"/>
</linearGradient>
<polygon style="fill:url(#SVGID_00000036958370987582125830000000948438278566027649_);" points="238.3,311.3 243.5,411.2 
	238.2,405 233.6,318.1 "/>
<linearGradient id="SVGID_00000036239896824956202710000001202890304962878599_" gradientUnits="userSpaceOnUse" x1="-4189.3677" y1="4049.8645" x2="-4187.9585" y2="3922.9155" gradientTransform="matrix(-1 1.000000e-02 -1.000000e-02 0.79 -3920.2861 -2732.5564)">
	<stop  offset="0" style="stop-color:#424242"/>
	<stop  offset="0.1068" style="stop-color:#333333"/>
	<stop  offset="0.2055" style="stop-color:#2D2D2D"/>
	<stop  offset="0.3492" style="stop-color:#424244"/>
	<stop  offset="0.6732" style="stop-color:#7F7F7F"/>
	<stop  offset="0.9078" style="stop-color:#414042"/>
</linearGradient>
<polygon style="fill:url(#SVGID_00000036239896824956202710000001202890304962878599_);" points="228.2,311.3 233.5,411.2 
	228.1,405.1 223.5,318.3 "/>
<linearGradient id="SVGID_00000072272944933125119600000005209913526500673983_" gradientUnits="userSpaceOnUse" x1="-4179.2534" y1="4049.7234" x2="-4177.8442" y2="3922.7747" gradientTransform="matrix(-1 1.000000e-02 -1.000000e-02 0.79 -3920.2861 -2732.5564)">
	<stop  offset="0" style="stop-color:#424242"/>
	<stop  offset="0.1068" style="stop-color:#333333"/>
	<stop  offset="0.2055" style="stop-color:#2D2D2D"/>
	<stop  offset="0.3492" style="stop-color:#424244"/>
	<stop  offset="0.6732" style="stop-color:#7F7F7F"/>
	<stop  offset="0.9078" style="stop-color:#414042"/>
</linearGradient>
<polygon style="fill:url(#SVGID_00000072272944933125119600000005209913526500673983_);" points="218.1,311.3 223.3,411.2 
	217.9,405.1 213.4,318.3 "/>
<linearGradient id="SVGID_00000171702191770897772470000013740978444487734665_" gradientUnits="userSpaceOnUse" x1="2491.1001" y1="-1501.5085" x2="2491.1001" y2="-1412.1025" gradientTransform="matrix(-1 0 0 1 2702.2302 1820.7043)">
	<stop  offset="0" style="stop-color:#424242"/>
	<stop  offset="0.1068" style="stop-color:#333333"/>
	<stop  offset="0.2055" style="stop-color:#2D2D2D"/>
	<stop  offset="0.3492" style="stop-color:#424244"/>
	<stop  offset="0.6732" style="stop-color:#7F7F7F"/>
	<stop  offset="0.9078" style="stop-color:#414042"/>
</linearGradient>
<polygon style="fill:url(#SVGID_00000171702191770897772470000013740978444487734665_);" points="209.1,403.3 209.1,319.2 
	213.2,408.6 "/>
<linearGradient id="SVGID_00000066495192930370591050000010679166743949942453_" gradientUnits="userSpaceOnUse" x1="-2109.3396" y1="-214.5887" x2="-2107.9309" y2="-341.4991" gradientTransform="matrix(1 -1.000000e-02 1.000000e-02 -0.79 2399.7063 118.8764)">
	<stop  offset="0" style="stop-color:#424242"/>
	<stop  offset="0.1068" style="stop-color:#333333"/>
	<stop  offset="0.2055" style="stop-color:#2D2D2D"/>
	<stop  offset="0.3492" style="stop-color:#424244"/>
	<stop  offset="0.6732" style="stop-color:#7F7F7F"/>
	<stop  offset="0.9078" style="stop-color:#414042"/>
</linearGradient>
<polygon style="fill:url(#SVGID_00000066495192930370591050000010679166743949942453_);" points="292.5,411.2 288.6,404.3 
	284.1,317.4 288.7,311.3 "/>
<linearGradient id="SVGID_00000150808122695716136710000013823485562554520971_" gradientUnits="userSpaceOnUse" x1="2488.7305" y1="-1505.556" x2="2488.7305" y2="-1412.1025" gradientTransform="matrix(-1 0 0 1 2702.2302 1820.7043)">
	<stop  offset="0" style="stop-color:#3F3F3F"/>
	<stop  offset="0.35" style="stop-color:#828282"/>
	<stop  offset="0.5" style="stop-color:#8C8C8C"/>
	<stop  offset="1" style="stop-color:#3F3F3F"/>
</linearGradient>
<polygon style="fill:url(#SVGID_00000150808122695716136710000013823485562554520971_);" points="209.7,315.1 213.4,318.1 
	217.9,405 213.2,408.6 209.1,319.2 "/>
<linearGradient id="SVGID_00000083056099176385184790000013768178038784104843_" gradientUnits="userSpaceOnUse" x1="-2106.0688" y1="-214.5495" x2="-2104.6599" y2="-341.4599" gradientTransform="matrix(1 -1.000000e-02 1.000000e-02 -0.79 2399.7063 118.8764)">
	<stop  offset="0" style="stop-color:#3F3F3F"/>
	<stop  offset="0.35" style="stop-color:#828282"/>
	<stop  offset="0.5" style="stop-color:#8C8C8C"/>
	<stop  offset="1" style="stop-color:#3F3F3F"/>
</linearGradient>
<polygon style="fill:url(#SVGID_00000083056099176385184790000013768178038784104843_);" points="294.3,404.4 292.5,411.2 
	288.7,311.3 294.3,318.1 "/>
<linearGradient id="SVGID_00000016795178880768088140000009913806684422566029_" gradientUnits="userSpaceOnUse" x1="116.0304" y1="446.1131" x2="116.0304" y2="532.4321" gradientTransform="matrix(1 0 0 1 0 -129.2356)">
	<stop  offset="0" style="stop-color:#3F3F3F"/>
	<stop  offset="0.35" style="stop-color:#828282"/>
	<stop  offset="0.5" style="stop-color:#8C8C8C"/>
	<stop  offset="1" style="stop-color:#3F3F3F"/>
</linearGradient>
<rect x="108.5" y="316.9" style="fill:url(#SVGID_00000016795178880768088140000009913806684422566029_);" width="15" height="86.3"/>
<linearGradient id="SVGID_00000024713093453018971120000006498178975742291591_" gradientUnits="userSpaceOnUse" x1="-2370.9385" y1="-211.301" x2="-2369.5295" y2="-338.2498" gradientTransform="matrix(1 -1.000000e-02 1.000000e-02 -0.79 2417.1663 117.9264)">
	<stop  offset="0" style="stop-color:#3F3F3F"/>
	<stop  offset="0.35" style="stop-color:#828282"/>
	<stop  offset="0.5" style="stop-color:#8C8C8C"/>
	<stop  offset="1" style="stop-color:#3F3F3F"/>
</linearGradient>
<polygon style="fill:url(#SVGID_00000024713093453018971120000006498178975742291591_);" points="49.2,410.6 43.8,404.3 39.2,317.4 
	43.9,310.7 "/>
<linearGradient id="SVGID_00000101824752429987366260000006752873090597360278_" gradientUnits="userSpaceOnUse" x1="-2360.8435" y1="-211.442" x2="-2359.4346" y2="-338.4036" gradientTransform="matrix(1 -1.000000e-02 1.000000e-02 -0.79 2417.1663 117.9264)">
	<stop  offset="0" style="stop-color:#3F3F3F"/>
	<stop  offset="0.35" style="stop-color:#828282"/>
	<stop  offset="0.5" style="stop-color:#8C8C8C"/>
	<stop  offset="1" style="stop-color:#3F3F3F"/>
</linearGradient>
<polygon style="fill:url(#SVGID_00000101824752429987366260000006752873090597360278_);" points="59.2,410.6 53.9,404.2 49.3,317.3 
	54,310.7 "/>
<linearGradient id="SVGID_00000018215281990868508270000017418235258412001713_" gradientUnits="userSpaceOnUse" x1="-2350.7549" y1="-211.5958" x2="-2349.3459" y2="-338.5446" gradientTransform="matrix(1 -1.000000e-02 1.000000e-02 -0.79 2417.1663 117.9264)">
	<stop  offset="0" style="stop-color:#3F3F3F"/>
	<stop  offset="0.35" style="stop-color:#828282"/>
	<stop  offset="0.5" style="stop-color:#8C8C8C"/>
	<stop  offset="1" style="stop-color:#3F3F3F"/>
</linearGradient>
<polygon style="fill:url(#SVGID_00000018215281990868508270000017418235258412001713_);" points="69.3,410.6 63.9,404.1 59.4,317.2 
	64.1,310.7 "/>
<linearGradient id="SVGID_00000143613417284970222820000011937922073985394869_" gradientUnits="userSpaceOnUse" x1="-2340.6665" y1="-211.7367" x2="-2339.2573" y2="-338.6855" gradientTransform="matrix(1 -1.000000e-02 1.000000e-02 -0.79 2417.1663 117.9264)">
	<stop  offset="0" style="stop-color:#3F3F3F"/>
	<stop  offset="0.35" style="stop-color:#828282"/>
	<stop  offset="0.5" style="stop-color:#8C8C8C"/>
	<stop  offset="1" style="stop-color:#3F3F3F"/>
</linearGradient>
<polygon style="fill:url(#SVGID_00000143613417284970222820000011937922073985394869_);" points="79.4,410.6 74,403.9 69.5,317.1 
	74.2,310.7 "/>
<linearGradient id="SVGID_00000131349130099084691070000008616972771531544235_" gradientUnits="userSpaceOnUse" x1="-2330.5842" y1="-211.8777" x2="-2329.1755" y2="-338.8266" gradientTransform="matrix(1 -1.000000e-02 1.000000e-02 -0.79 2417.1663 117.9264)">
	<stop  offset="0" style="stop-color:#3F3F3F"/>
	<stop  offset="0.35" style="stop-color:#828282"/>
	<stop  offset="0.5" style="stop-color:#8C8C8C"/>
	<stop  offset="1" style="stop-color:#3F3F3F"/>
</linearGradient>
<polygon style="fill:url(#SVGID_00000131349130099084691070000008616972771531544235_);" points="89.5,410.6 84.1,403.8 79.6,316.9 
	84.3,310.7 "/>
<linearGradient id="SVGID_00000000944683758470602950000003694467738385880500_" gradientUnits="userSpaceOnUse" x1="-2320.4895" y1="-212.0186" x2="-2319.0806" y2="-338.9674" gradientTransform="matrix(1 -1.000000e-02 1.000000e-02 -0.79 2417.1663 117.9264)">
	<stop  offset="0" style="stop-color:#3F3F3F"/>
	<stop  offset="0.35" style="stop-color:#828282"/>
	<stop  offset="0.5" style="stop-color:#8C8C8C"/>
	<stop  offset="1" style="stop-color:#3F3F3F"/>
</linearGradient>
<polygon style="fill:url(#SVGID_00000000944683758470602950000003694467738385880500_);" points="99.6,410.6 94.2,403.8 89.7,316.9 
	94.4,310.7 "/>
<linearGradient id="SVGID_00000156580848147979820670000000216983790128799387_" gradientUnits="userSpaceOnUse" x1="-2366.2163" y1="-211.2497" x2="-2364.8074" y2="-338.1985" gradientTransform="matrix(1 -1.000000e-02 1.000000e-02 -0.79 2417.1663 117.9264)">
	<stop  offset="0" style="stop-color:#424242"/>
	<stop  offset="5.000000e-02" style="stop-color:#595959"/>
	<stop  offset="0.17" style="stop-color:#848484"/>
	<stop  offset="0.42" style="stop-color:#DDDDDD"/>
	<stop  offset="0.5" style="stop-color:#EDEDED"/>
	<stop  offset="0.82" style="stop-color:#7A7A7A"/>
	<stop  offset="0.93" style="stop-color:#595959"/>
	<stop  offset="1" style="stop-color:#494949"/>
</linearGradient>
<polygon style="fill:url(#SVGID_00000156580848147979820670000000216983790128799387_);" points="49.2,410.6 43.9,310.7 49.3,317.3 
	53.9,404.2 "/>
<linearGradient id="SVGID_00000176036612389404398260000006533830901752447655_" gradientUnits="userSpaceOnUse" x1="-2381.0654" y1="-211.16" x2="-2379.6562" y2="-338.1089" gradientTransform="matrix(1 -1.000000e-02 1.000000e-02 -0.79 2417.1663 117.9264)">
	<stop  offset="0" style="stop-color:#3F3F3F"/>
	<stop  offset="0.35" style="stop-color:#828282"/>
	<stop  offset="0.5" style="stop-color:#8C8C8C"/>
	<stop  offset="1" style="stop-color:#3F3F3F"/>
</linearGradient>
<polygon style="fill:url(#SVGID_00000176036612389404398260000006533830901752447655_);" points="39,410.6 33.6,404.3 29.1,317.5 
	33.8,310.7 "/>
<linearGradient id="SVGID_00000006700240034998825980000008410468035770128288_" gradientUnits="userSpaceOnUse" x1="-2376.3367" y1="-211.1088" x2="-2374.928" y2="-338.0576" gradientTransform="matrix(1 -1.000000e-02 1.000000e-02 -0.79 2417.1663 117.9264)">
	<stop  offset="0" style="stop-color:#424242"/>
	<stop  offset="5.000000e-02" style="stop-color:#595959"/>
	<stop  offset="0.17" style="stop-color:#848484"/>
	<stop  offset="0.42" style="stop-color:#DDDDDD"/>
	<stop  offset="0.5" style="stop-color:#EDEDED"/>
	<stop  offset="0.82" style="stop-color:#7A7A7A"/>
	<stop  offset="0.93" style="stop-color:#595959"/>
	<stop  offset="1" style="stop-color:#494949"/>
</linearGradient>
<polygon style="fill:url(#SVGID_00000006700240034998825980000008410468035770128288_);" points="39,410.6 33.8,310.7 39.2,317.4 
	43.8,404.3 "/>
<linearGradient id="SVGID_00000157297154635880434960000004019535531863265408_" gradientUnits="userSpaceOnUse" x1="-2356.1343" y1="-211.3907" x2="-2354.7251" y2="-338.3395" gradientTransform="matrix(1 -1.000000e-02 1.000000e-02 -0.79 2417.1663 117.9264)">
	<stop  offset="0" style="stop-color:#424242"/>
	<stop  offset="5.000000e-02" style="stop-color:#595959"/>
	<stop  offset="0.17" style="stop-color:#848484"/>
	<stop  offset="0.42" style="stop-color:#DDDDDD"/>
	<stop  offset="0.5" style="stop-color:#EDEDED"/>
	<stop  offset="0.82" style="stop-color:#7A7A7A"/>
	<stop  offset="0.93" style="stop-color:#595959"/>
	<stop  offset="1" style="stop-color:#494949"/>
</linearGradient>
<polygon style="fill:url(#SVGID_00000157297154635880434960000004019535531863265408_);" points="59.2,410.6 54,310.7 59.4,317.2 
	63.9,404.1 "/>
<linearGradient id="SVGID_00000009567261388781952750000012708056829508736674_" gradientUnits="userSpaceOnUse" x1="-2346.0457" y1="-211.5316" x2="-2344.6367" y2="-338.4933" gradientTransform="matrix(1 -1.000000e-02 1.000000e-02 -0.79 2417.1663 117.9264)">
	<stop  offset="0" style="stop-color:#424242"/>
	<stop  offset="5.000000e-02" style="stop-color:#595959"/>
	<stop  offset="0.17" style="stop-color:#848484"/>
	<stop  offset="0.42" style="stop-color:#DDDDDD"/>
	<stop  offset="0.5" style="stop-color:#EDEDED"/>
	<stop  offset="0.82" style="stop-color:#7A7A7A"/>
	<stop  offset="0.93" style="stop-color:#595959"/>
	<stop  offset="1" style="stop-color:#494949"/>
</linearGradient>
<polygon style="fill:url(#SVGID_00000009567261388781952750000012708056829508736674_);" points="69.3,410.6 64.1,310.7 69.5,317.1 
	74,403.9 "/>
<linearGradient id="SVGID_00000062908046926824902430000017604231511388974995_" gradientUnits="userSpaceOnUse" x1="-2335.9634" y1="-211.6855" x2="-2334.5544" y2="-338.6343" gradientTransform="matrix(1 -1.000000e-02 1.000000e-02 -0.79 2417.1663 117.9264)">
	<stop  offset="0" style="stop-color:#424242"/>
	<stop  offset="5.000000e-02" style="stop-color:#595959"/>
	<stop  offset="0.17" style="stop-color:#848484"/>
	<stop  offset="0.42" style="stop-color:#DDDDDD"/>
	<stop  offset="0.5" style="stop-color:#EDEDED"/>
	<stop  offset="0.82" style="stop-color:#7A7A7A"/>
	<stop  offset="0.93" style="stop-color:#595959"/>
	<stop  offset="1" style="stop-color:#494949"/>
</linearGradient>
<polygon style="fill:url(#SVGID_00000062908046926824902430000017604231511388974995_);" points="79.4,410.6 74.2,310.7 79.6,316.9 
	84.1,403.8 "/>
<linearGradient id="SVGID_00000105418358322552259040000007724965972381710488_" gradientUnits="userSpaceOnUse" x1="-2325.8748" y1="-211.8264" x2="-2324.4661" y2="-338.7753" gradientTransform="matrix(1 -1.000000e-02 1.000000e-02 -0.79 2417.1663 117.9264)">
	<stop  offset="0" style="stop-color:#424242"/>
	<stop  offset="5.000000e-02" style="stop-color:#595959"/>
	<stop  offset="0.17" style="stop-color:#848484"/>
	<stop  offset="0.42" style="stop-color:#DDDDDD"/>
	<stop  offset="0.5" style="stop-color:#EDEDED"/>
	<stop  offset="0.82" style="stop-color:#7A7A7A"/>
	<stop  offset="0.93" style="stop-color:#595959"/>
	<stop  offset="1" style="stop-color:#494949"/>
</linearGradient>
<polygon style="fill:url(#SVGID_00000105418358322552259040000007724965972381710488_);" points="89.5,410.6 84.3,310.7 89.7,316.8 
	94.2,403.7 "/>
<linearGradient id="SVGID_00000112607956490528544450000015111526280512245675_" gradientUnits="userSpaceOnUse" x1="-2315.761" y1="-211.9674" x2="-2314.3518" y2="-338.9162" gradientTransform="matrix(1 -1.000000e-02 1.000000e-02 -0.79 2417.1663 117.9264)">
	<stop  offset="0" style="stop-color:#424242"/>
	<stop  offset="5.000000e-02" style="stop-color:#595959"/>
	<stop  offset="0.17" style="stop-color:#848484"/>
	<stop  offset="0.42" style="stop-color:#DDDDDD"/>
	<stop  offset="0.5" style="stop-color:#EDEDED"/>
	<stop  offset="0.82" style="stop-color:#7A7A7A"/>
	<stop  offset="0.93" style="stop-color:#595959"/>
	<stop  offset="1" style="stop-color:#494949"/>
</linearGradient>
<polygon style="fill:url(#SVGID_00000112607956490528544450000015111526280512245675_);" points="99.6,410.6 94.4,310.7 99.8,316.8 
	104.3,403.7 "/>
<linearGradient id="SVGID_00000136379187280432224810000002899327213728101308_" gradientUnits="userSpaceOnUse" x1="4311.9595" y1="-4838.0542" x2="4311.9595" y2="-4748.6479" gradientTransform="matrix(1 0 0 -1 -4205.3501 -4435.3442)">
	<stop  offset="0" style="stop-color:#424242"/>
	<stop  offset="5.000000e-02" style="stop-color:#595959"/>
	<stop  offset="0.17" style="stop-color:#848484"/>
	<stop  offset="0.42" style="stop-color:#DDDDDD"/>
	<stop  offset="0.5" style="stop-color:#EDEDED"/>
	<stop  offset="0.82" style="stop-color:#7A7A7A"/>
	<stop  offset="0.93" style="stop-color:#595959"/>
	<stop  offset="1" style="stop-color:#494949"/>
</linearGradient>
<polygon style="fill:url(#SVGID_00000136379187280432224810000002899327213728101308_);" points="108.7,318.6 108.7,402.7 
	104.6,313.3 "/>
<linearGradient id="SVGID_00000106124729323770442670000010901285378505974411_" gradientUnits="userSpaceOnUse" x1="-3972.8257" y1="4047.1113" x2="-3971.417" y2="3920.1882" gradientTransform="matrix(-1 1.000000e-02 -1.000000e-02 0.79 -3902.8262 -2733.5164)">
	<stop  offset="0" style="stop-color:#424242"/>
	<stop  offset="5.000000e-02" style="stop-color:#595959"/>
	<stop  offset="0.17" style="stop-color:#848484"/>
	<stop  offset="0.42" style="stop-color:#DDDDDD"/>
	<stop  offset="0.5" style="stop-color:#EDEDED"/>
	<stop  offset="0.82" style="stop-color:#7A7A7A"/>
	<stop  offset="0.93" style="stop-color:#595959"/>
	<stop  offset="1" style="stop-color:#494949"/>
</linearGradient>
<polygon style="fill:url(#SVGID_00000106124729323770442670000010901285378505974411_);" points="25.2,310.7 29.1,317.6 33.7,404.5 
	29,410.6 "/>
<linearGradient id="SVGID_00000123402771748479623480000009385086255007750551_" gradientUnits="userSpaceOnUse" x1="4309.5259" y1="-4842.1016" x2="4309.5259" y2="-4748.6479" gradientTransform="matrix(1 0 0 -1 -4205.3501 -4435.3442)">
	<stop  offset="0" style="stop-color:#3F3F3F"/>
	<stop  offset="0.35" style="stop-color:#828282"/>
	<stop  offset="0.5" style="stop-color:#8C8C8C"/>
	<stop  offset="1" style="stop-color:#3F3F3F"/>
</linearGradient>
<polygon style="fill:url(#SVGID_00000123402771748479623480000009385086255007750551_);" points="108,406.8 104.3,403.8 99.8,317 
	104.5,313.3 108.6,402.7 "/>
<linearGradient id="SVGID_00000007399577312928341860000000404260470140768427_" gradientUnits="userSpaceOnUse" x1="-3969.5613" y1="4047.1377" x2="-3968.1523" y2="3920.2275" gradientTransform="matrix(-1 1.000000e-02 -1.000000e-02 0.79 -3902.8262 -2733.5164)">
	<stop  offset="0" style="stop-color:#3F3F3F"/>
	<stop  offset="0.35" style="stop-color:#828282"/>
	<stop  offset="0.5" style="stop-color:#8C8C8C"/>
	<stop  offset="1" style="stop-color:#3F3F3F"/>
</linearGradient>
<polygon style="fill:url(#SVGID_00000007399577312928341860000000404260470140768427_);" points="23.5,317.5 25.2,310.7 29,410.6 
	23.5,403.8 "/>
<path class="st15" d="M108.7,403.2l-0.6,3.6l-3.7-2.9l-4.8,6.8c-1.8-2.3-3.6-4.6-5.4-6.9l-4.7,6.9l-5.4-6.8l-4.7,6.8l-5.4-6.7
	l-4.7,6.7l-5.4-6.5l-4.7,6.5l-5.4-6.4l-4.7,6.4l-5.4-6.4l-4.7,6.4l-5.4-6.1l-4.6,6.1l-5.6-6.8v-86.3l1.7-6.8l3.8,6.8l4.7-6.8
	l5.4,6.7l4.8-6.8l5.4,6.6l4.7-6.6l5.4,6.5l4.7-6.5l5.4,6.4l4.7-6.4l5.4,6.2l4.7-6.2l5.4,6.1c0,0,3.2-4,4.7-6.1l5.5,6.2l4.7-3.6
	l4.1,5.3v-1.7h15.1v86.3H108.7z"/>
<polygon class="st53" points="87.5,330 109.7,320.7 109.7,402.3 87.5,392.3 "/>
<polygon class="st54" points="111.2,326.7 119.4,326.7 119.4,320 123.7,320 123.7,326.7 123.7,396.3 123.7,402.4 119.4,402.4 
	119.4,396.3 111.2,396.3 108.3,392.3 108.3,330 "/>
<g>
	<defs>
		<polyline id="SVGID_00000039126484575234826320000002031323599410557347_" points="209,320.4 171.5,320.4 171.5,330.1 61.7,330.1 
			46.7,331.9 46.7,330.1 5.7,330.1 5.7,392.4 46.7,392.4 46.7,390.6 61.7,392.4 171.5,392.4 171.5,402.1 209,402.1 		"/>
	</defs>
	<clipPath id="SVGID_00000132778233416827514960000006560340829972059528_">
		<use xlink:href="#SVGID_00000039126484575234826320000002031323599410557347_"  style="overflow:visible;"/>
	</clipPath>
	<g style="clip-path:url(#SVGID_00000132778233416827514960000006560340829972059528_);">
		
			<image style="overflow:visible;" width="600" height="600" xlink:href="../../background.jpg"  transform="matrix(0.5381 0 0 0.5381 -65.1058 206.8818)">
		</image>
	</g>
	
		<use xlink:href="#SVGID_00000039126484575234826320000002031323599410557347_"  style="overflow:visible;fill:none;stroke:#AAAAAA;stroke-miterlimit:10;"/>
</g>
<linearGradient id="SVGID_00000070830143910016199750000012213568787956279222_" gradientUnits="userSpaceOnUse" x1="96.1959" y1="100.3175" x2="96.1959" y2="140.1531" gradientTransform="matrix(1 0 0 -1 0 481.4956)">
	<stop  offset="0" style="stop-color:#424242"/>
	<stop  offset="0.1068" style="stop-color:#333333"/>
	<stop  offset="0.2055" style="stop-color:#2D2D2D"/>
	<stop  offset="0.3492" style="stop-color:#424244"/>
	<stop  offset="0.6732" style="stop-color:#7F7F7F"/>
	<stop  offset="0.9078" style="stop-color:#414042"/>
</linearGradient>
<path style="fill:url(#SVGID_00000070830143910016199750000012213568787956279222_);" d="M5.7,341.3h181.1v39.8H5.7V341.3z"/>
<path class="st15" d="M209,403.4l4.2,5.3c0,0,3-2.5,4.6-3.7l5.5,6.3l4.7-6.1l0,0l5.4,6.1l4.7-6.2l5.4,6.2l4.7-6.4l5.4,6.4l4.7-6.5
	l5.4,6.5l4.7-6.6l5.4,6.6l4.7-6.7l5.4,6.7l4.7-6.8l3.8,6.8l1.7-6.8v-86.3l-5.6-6.8l-4.6,6.2l-5.4-6.2l-4.7,6.4l-5.4-6.4l-4.7,6.4
	l-5.4-6.4l-4.7,6.5l-5.4-6.5l-4.7,6.7l-5.4-6.7l-4.7,6.8l-5.4-6.8l-4.6,6.9l-5.5-6.9l-4.6,6.8c-1.3-1-2.6-1.9-3.8-2.9l-0.7,4.2"/>
<linearGradient id="SVGID_00000026144543899854834850000003058479507253861009_" gradientUnits="userSpaceOnUse" x1="197.9625" y1="88.5845" x2="197.9625" y2="152.1422" gradientTransform="matrix(1 0 0 -1 0 481.4956)">
	<stop  offset="0" style="stop-color:#424242"/>
	<stop  offset="0.1068" style="stop-color:#333333"/>
	<stop  offset="0.2055" style="stop-color:#2D2D2D"/>
	<stop  offset="0.3492" style="stop-color:#424244"/>
	<stop  offset="0.6732" style="stop-color:#7F7F7F"/>
	<stop  offset="0.9078" style="stop-color:#414042"/>
</linearGradient>
<polygon style="fill:url(#SVGID_00000026144543899854834850000003058479507253861009_);" points="186.7,381.2 209.2,402.3 
	209,320.4 186.7,341.4 "/>
<path class="st57" d="M209.2,402.1l-22.4-20.9H5.7v-39.8h181.1l22.2-21"/>
<image style="overflow:visible;" width="200" height="200" xlink:href="../../pepsi.png"  transform="matrix(0.1876 0 0 0.1876 54.8025 98.5602)">
</image>
</svg>
