<?xml version="1.0" encoding="utf-8"?>
<!-- Generator: Adobe Illustrator 25.4.1, SVG Export Plug-In . SVG Version: 6.00 Build 0)  -->
<svg version="1.1" id="Слой_1" xmlns="http://www.w3.org/2000/svg" xmlns:xlink="http://www.w3.org/1999/xlink" x="0px" y="0px"
	 viewBox="0 0 100 160" style="enable-background:new 0 0 100 160;" xml:space="preserve">
<style type="text/css">
	.st0{fill:url(#SVGID_1_);}
	.st1{fill:#606060;}
	.st2{fill:url(#SVGID_00000146501187498271197380000011636719219938414245_);}
	.st3{fill:url(#SVGID_00000036209771339294287580000004931480807352820634_);}
	.st4{fill:url(#SVGID_00000153701158609423305080000006611244268878734470_);}
	.st5{clip-path:url(#SVGID_00000132083755996451856880000005762230364751924926_);}
	.st6{fill:none;stroke:#848383;stroke-width:0.5;stroke-miterlimit:10;}
	.st7{fill:url(#SVGID_00000127766766066856915370000007503615042887407264_);}
	.st8{opacity:0.19;fill:url(#SVGID_00000103977052025983467120000003371344943662973370_);enable-background:new    ;}
	.st9{opacity:0.19;fill:url(#SVGID_00000127029937633121472810000009747774240086971565_);enable-background:new    ;}
</style>
<linearGradient id="SVGID_1_" gradientUnits="userSpaceOnUse" x1="233.8662" y1="-2786.9265" x2="233.8662" y2="-2771.7998" gradientTransform="matrix(2.01 0 0 -4.4 -417.6953 -12196.2959)">
	<stop  offset="0" style="stop-color:#999898"/>
	<stop  offset="0.1963" style="stop-color:#4F4F4F"/>
	<stop  offset="0.2507" style="stop-color:#5B5B5B"/>
	<stop  offset="0.3499" style="stop-color:#7C7C7C"/>
	<stop  offset="0.3704" style="stop-color:#848484"/>
	<stop  offset="0.433" style="stop-color:#878787"/>
	<stop  offset="0.5974" style="stop-color:#D9D9D9"/>
	<stop  offset="0.6843" style="stop-color:#FFFFFF"/>
	<stop  offset="0.9078" style="stop-color:#B7B7B7"/>
	<stop  offset="1" style="stop-color:#C6C6C6"/>
</linearGradient>
<rect x="49.4" y="7.4" class="st0" width="6" height="55"/>
<path class="st1" d="M49.1,62.7c-0.1,0.3-0.2,0.6-0.2,0.9V6.3c0,0.3,0.1,0.6,0.2,0.9c0.1,0.1,0.2,0.2,0.3,0.2v55
	C49.2,62.5,49.1,62.6,49.1,62.7z"/>
<linearGradient id="SVGID_00000099648823987929108190000002771342887567779463_" gradientUnits="userSpaceOnUse" x1="56.8547" y1="97.1698" x2="56.8547" y2="152.2005" gradientTransform="matrix(1 0 0 -1 0 159.62)">
	<stop  offset="0" style="stop-color:#999898"/>
	<stop  offset="0.1963" style="stop-color:#4F4F4F"/>
	<stop  offset="0.2507" style="stop-color:#5B5B5B"/>
	<stop  offset="0.3499" style="stop-color:#7C7C7C"/>
	<stop  offset="0.3704" style="stop-color:#848484"/>
	<stop  offset="0.433" style="stop-color:#878787"/>
	<stop  offset="0.5974" style="stop-color:#D9D9D9"/>
	<stop  offset="0.6843" style="stop-color:#FFFFFF"/>
	<stop  offset="0.9078" style="stop-color:#B7B7B7"/>
	<stop  offset="1" style="stop-color:#C6C6C6"/>
</linearGradient>
<polygon style="fill:url(#SVGID_00000099648823987929108190000002771342887567779463_);" points="58.3,61.2 55.4,62.5 55.4,7.4 
	58.3,8.5 "/>
<linearGradient id="SVGID_00000057117281736157324900000003903585855243536057_" gradientUnits="userSpaceOnUse" x1="231.1609" y1="-2786.2163" x2="231.1609" y2="-2771.3525" gradientTransform="matrix(2.01 0 0 -4.4 -417.6953 -12196.2959)">
	<stop  offset="0" style="stop-color:#AFAFAF"/>
	<stop  offset="0.1963" style="stop-color:#686868"/>
	<stop  offset="0.433" style="stop-color:#999999"/>
	<stop  offset="0.6843" style="stop-color:#FFFFFF"/>
	<stop  offset="0.9078" style="stop-color:#D3D3D3"/>
	<stop  offset="1" style="stop-color:#DDDDDD"/>
</linearGradient>
<rect x="45" y="2.2" style="fill:url(#SVGID_00000057117281736157324900000003903585855243536057_);" width="3.9" height="65.4"/>
<linearGradient id="SVGID_00000175324602155853863670000017321430407132295079_" gradientUnits="userSpaceOnUse" x1="43.3311" y1="91.9823" x2="43.3311" y2="157.383" gradientTransform="matrix(1 0 0 -1 0 159.62)">
	<stop  offset="0" style="stop-color:#999898"/>
	<stop  offset="0.1963" style="stop-color:#4F4F4F"/>
	<stop  offset="0.2507" style="stop-color:#5B5B5B"/>
	<stop  offset="0.3499" style="stop-color:#7C7C7C"/>
	<stop  offset="0.3704" style="stop-color:#848484"/>
	<stop  offset="0.433" style="stop-color:#878787"/>
	<stop  offset="0.5974" style="stop-color:#D9D9D9"/>
	<stop  offset="0.9078" style="stop-color:#B7B7B7"/>
	<stop  offset="1" style="stop-color:#C6C6C6"/>
</linearGradient>
<polygon style="fill:url(#SVGID_00000175324602155853863670000017321430407132295079_);" points="41.7,61.2 45,67.6 45,2.2 
	41.7,8.5 "/>
<g>
	<defs>
		<path id="SVGID_00000013157185139854454750000003310040210814065794_" d="M58.3,151.4V98.7l-3-1.1h-6c-0.1,0-0.2-0.1-0.2-0.1
			c0,0-0.1-0.1-0.1-0.1c-0.1-0.3-0.2-0.6-0.2-0.8v-4.1H45l-3.4,6.2v52.7l3.4,6.4h3.9v-4.1c0,0,0-0.3,0.1-0.5c0,0,0-0.1,0-0.1
			c0-0.1,0-0.1,0.1-0.2c0.1-0.1,0.2-0.2,0.3-0.2h6l0,0L58.3,151.4z"/>
	</defs>
	<clipPath id="SVGID_00000087385820428866191460000002377477126570996663_">
		<use xlink:href="#SVGID_00000013157185139854454750000003310040210814065794_"  style="overflow:visible;"/>
	</clipPath>
	<g style="clip-path:url(#SVGID_00000087385820428866191460000002377477126570996663_);">
		
			<image style="overflow:visible;enable-background:new    ;" width="600" height="600" xlink:href="../../background.jpg"  transform="matrix(0.1326 1.762621e-02 -1.762621e-02 0.1326 16.8637 77.1721)">
		</image>
	</g>
</g>
<path class="st6" d="M58.3,151.4V98.7l-3-1.1h-6c-0.1,0-0.2-0.1-0.2-0.1c0,0-0.1-0.1-0.1-0.1c-0.1-0.3-0.2-0.6-0.2-0.8v-4.1H45
	l-3.4,6.2v52.7l3.4,6.4h3.9v-4.1c0,0,0-0.3,0.1-0.5c0,0,0-0.1,0-0.1c0-0.1,0-0.1,0.1-0.2c0.1-0.1,0.2-0.2,0.3-0.2h6l0,0L58.3,151.4z
	"/>
<linearGradient id="SVGID_00000133530138620397721440000012931778471941069752_" gradientUnits="userSpaceOnUse" x1="50" y1="12.3372" x2="50" y2="56.557" gradientTransform="matrix(1 0 0 -1 0 159.62)">
	<stop  offset="0" style="stop-color:#424242"/>
	<stop  offset="0.1068" style="stop-color:#333333"/>
	<stop  offset="0.2055" style="stop-color:#2D2D2D"/>
	<stop  offset="0.3492" style="stop-color:#424244"/>
	<stop  offset="0.6732" style="stop-color:#7F7F7F"/>
	<stop  offset="0.9078" style="stop-color:#414042"/>
</linearGradient>
<rect x="41.7" y="103.1" style="fill:url(#SVGID_00000133530138620397721440000012931778471941069752_);" width="16.7" height="44.2"/>
<image style="overflow:visible;enable-background:new    ;" width="200" height="200" xlink:href="\\server\share\boris\vasilisa\Елизавета\Фитинги для сайта\images\pepsi.png"  transform="matrix(2.356038e-02 0 0 2.356038e-02 50.0073 32.5813)">
</image>
<linearGradient id="SVGID_00000096054742432200736070000000271196412752520125_" gradientUnits="userSpaceOnUse" x1="41.6516" y1="124.6827" x2="45.0107" y2="124.6827" gradientTransform="matrix(1 0 0 -1 0 159.62)">
	<stop  offset="0" style="stop-color:#000000;stop-opacity:0"/>
	<stop  offset="1" style="stop-color:#000000"/>
</linearGradient>
<polygon style="opacity:0.19;fill:url(#SVGID_00000096054742432200736070000000271196412752520125_);enable-background:new    ;" points="
	41.7,61.2 45,67.6 45,2.2 41.7,8.5 "/>
<linearGradient id="SVGID_00000178189732716187720970000010141522274111102903_" gradientUnits="userSpaceOnUse" x1="58.3485" y1="124.6827" x2="55.3609" y2="124.6827" gradientTransform="matrix(1 0 0 -1 0 159.62)">
	<stop  offset="0" style="stop-color:#000000;stop-opacity:0"/>
	<stop  offset="1" style="stop-color:#000000"/>
</linearGradient>
<polygon style="opacity:0.19;fill:url(#SVGID_00000178189732716187720970000010141522274111102903_);enable-background:new    ;" points="
	58.3,61.2 55.4,62.5 55.4,7.4 58.3,8.5 "/>
</svg>
