<?xml version="1.0" encoding="utf-8"?>
<!-- Generator: Adobe Illustrator 25.4.1, SVG Export Plug-In . SVG Version: 6.00 Build 0)  -->
<svg version="1.1" id="Слой_1" xmlns="http://www.w3.org/2000/svg" xmlns:xlink="http://www.w3.org/1999/xlink" x="0px" y="0px"
	 viewBox="0 0 100 160" style="enable-background:new 0 0 100 160;" xml:space="preserve">
<style type="text/css">
	.st0{fill:url(#SVGID_1_);}
	.st1{fill:url(#SVGID_00000016059065711752164260000000863424067945718941_);}
	.st2{fill:url(#SVGID_00000098186957834495024240000017088939224917039749_);}
	.st3{clip-path:url(#SVGID_00000123421230849504949450000011531490966574144160_);}
	.st4{fill:url(#SVGID_00000088815071831975057410000008413977634326834366_);}
	.st5{fill:url(#SVGID_00000163766758525046380760000010236264741142178490_);}
</style>
<linearGradient id="SVGID_1_" gradientUnits="userSpaceOnUse" x1="23.4577" y1="-2758.854" x2="23.4577" y2="-2743.3333" gradientTransform="matrix(2.01 0 0 -4.4 -15.9521 -12073.0215)">
	<stop  offset="0" style="stop-color:#999898"/>
	<stop  offset="0.1963" style="stop-color:#4F4F4F"/>
	<stop  offset="0.2507" style="stop-color:#5B5B5B"/>
	<stop  offset="0.3499" style="stop-color:#7C7C7C"/>
	<stop  offset="0.3704" style="stop-color:#848484"/>
	<stop  offset="0.433" style="stop-color:#878787"/>
	<stop  offset="0.5974" style="stop-color:#D9D9D9"/>
	<stop  offset="0.6843" style="stop-color:#FFFFFF"/>
	<stop  offset="0.9078" style="stop-color:#B7B7B7"/>
	<stop  offset="1" style="stop-color:#C6C6C6"/>
</linearGradient>
<path class="st0" d="M31.8,1.4L31.8,1.4L31.8,1.4v68.3l0,0l0,0c-0.6,0-1.2-0.5-1.2-1.2c0,0,0,0,0,0v-66C30.6,2,31.1,1.4,31.8,1.4z"
	/>
<linearGradient id="SVGID_00000044160945702753984550000013750942286204804489_" gradientUnits="userSpaceOnUse" x1="737.8444" y1="-2208.6497" x2="737.8444" y2="-2193.9941" gradientTransform="matrix(-3.7 0 0 -2.71 2799.1733 -5929.8477)">
	<stop  offset="0" style="stop-color:#999898"/>
	<stop  offset="0.1963" style="stop-color:#4F4F4F"/>
	<stop  offset="0.2507" style="stop-color:#5B5B5B"/>
	<stop  offset="0.3499" style="stop-color:#7C7C7C"/>
	<stop  offset="0.3704" style="stop-color:#848484"/>
	<stop  offset="0.433" style="stop-color:#878787"/>
	<stop  offset="0.5974" style="stop-color:#D9D9D9"/>
	<stop  offset="0.6843" style="stop-color:#FFFFFF"/>
	<stop  offset="0.9078" style="stop-color:#B7B7B7"/>
	<stop  offset="1" style="stop-color:#C6C6C6"/>
</linearGradient>
<path style="fill:url(#SVGID_00000044160945702753984550000013750942286204804489_);" d="M68.9,55.4L68.9,55.4L68.9,55.4V15.7l0,0
	l0,0c0.3,0,0.5,0.2,0.5,0.5l0,0v38.7C69.4,55.2,69.2,55.4,68.9,55.4L68.9,55.4z"/>
<linearGradient id="SVGID_00000127044999738399858790000012457315195290459528_" gradientUnits="userSpaceOnUse" x1="50.3423" y1="89.9267" x2="50.3423" y2="158.202" gradientTransform="matrix(1 0 0 -1 0 159.64)">
	<stop  offset="0" style="stop-color:#999898"/>
	<stop  offset="0.1963" style="stop-color:#4F4F4F"/>
	<stop  offset="0.2507" style="stop-color:#5B5B5B"/>
	<stop  offset="0.3499" style="stop-color:#7C7C7C"/>
	<stop  offset="0.3704" style="stop-color:#848484"/>
	<stop  offset="0.433" style="stop-color:#878787"/>
	<stop  offset="0.5974" style="stop-color:#D9D9D9"/>
	<stop  offset="0.6843" style="stop-color:#FFFFFF"/>
	<stop  offset="0.9078" style="stop-color:#B7B7B7"/>
	<stop  offset="1" style="stop-color:#C6C6C6"/>
</linearGradient>
<polygon style="fill:url(#SVGID_00000127044999738399858790000012457315195290459528_);" points="31.8,1.4 68.9,15.7 68.9,55.4 
	31.8,69.7 "/>
<g>
	<defs>
		<path id="SVGID_00000030487793987706103420000007210309585254376880_" d="M68.9,104.6L31.8,90.3l0,0c-0.6,0-1.2,0.5-1.2,1.2
			c0,0,0,0,0,0v65.9c0,0.6,0.5,1.2,1.2,1.2c0,0,0,0,0,0l0,0l37.1-14.3c0.3,0,0.5-0.2,0.5-0.5v-38.7
			C69.4,104.9,69.2,104.6,68.9,104.6z"/>
	</defs>
	<clipPath id="SVGID_00000178178491020796549480000013059123842350111372_">
		<use xlink:href="#SVGID_00000030487793987706103420000007210309585254376880_"  style="overflow:visible;"/>
	</clipPath>
	<g style="clip-path:url(#SVGID_00000178178491020796549480000013059123842350111372_);">
		
			<image style="overflow:visible;enable-background:new    ;" width="600" height="600" xlink:href="../../background.jpg"  transform="matrix(0.1221 1.797053e-02 -1.797053e-02 0.1221 10.7425 80.7571)">
		</image>
	</g>
	
		<use xlink:href="#SVGID_00000030487793987706103420000007210309585254376880_"  style="overflow:visible;fill:none;stroke:#9E9E9E;stroke-width:0.5;stroke-miterlimit:10;"/>
</g>
<linearGradient id="SVGID_00000124148822534297404200000000927011037076378510_" gradientUnits="userSpaceOnUse" x1="51.7514" y1="15.7601" x2="51.7514" y2="54.5671" gradientTransform="matrix(1 0 0 -1 0 159.64)">
	<stop  offset="0" style="stop-color:#424242"/>
	<stop  offset="0.1068" style="stop-color:#333333"/>
	<stop  offset="0.2055" style="stop-color:#2D2D2D"/>
	<stop  offset="0.3492" style="stop-color:#424244"/>
	<stop  offset="0.6732" style="stop-color:#7F7F7F"/>
	<stop  offset="0.9078" style="stop-color:#414042"/>
</linearGradient>
<rect x="34.1" y="105.1" style="fill:url(#SVGID_00000124148822534297404200000000927011037076378510_);" width="35.3" height="38.8"/>
<linearGradient id="SVGID_00000032637790848402184670000009836477629351274887_" gradientUnits="userSpaceOnUse" x1="32.3211" y1="11.6214" x2="32.3211" y2="58.6317" gradientTransform="matrix(1 0 0 -1 0 159.64)">
	<stop  offset="0" style="stop-color:#3A3A3A"/>
	<stop  offset="0.2055" style="stop-color:#262626"/>
	<stop  offset="0.6732" style="stop-color:#636363"/>
	<stop  offset="0.9078" style="stop-color:#383838"/>
</linearGradient>
<polygon style="fill:url(#SVGID_00000032637790848402184670000009836477629351274887_);" points="34,143.9 30.6,148 30.6,101 
	34,105.1 "/>
<image style="overflow:visible;" width="200" height="200" xlink:href="\\server\share\boris\vasilisa\Елизавета\Фитинги для сайта\images\pepsi.png"  transform="matrix(6.228906e-02 0 0 6.228906e-02 44.1134 29.3468)">
</image>
</svg>
