<?xml version="1.0" encoding="utf-8"?>
<!-- Generator: Adobe Illustrator 25.4.1, SVG Export Plug-In . SVG Version: 6.00 Build 0)  -->
<svg version="1.1" id="Слой_1" xmlns="http://www.w3.org/2000/svg" xmlns:xlink="http://www.w3.org/1999/xlink" x="0px" y="0px"
	 viewBox="0 0 100 160" style="enable-background:new 0 0 100 160;" xml:space="preserve">
<style type="text/css">
	.st0{fill:url(#SVGID_00000146462168418133803280000008459406231001050017_);}
	.st1{fill:url(#SVGID_00000140000055012272180200000003276915321666477714_);}
	.st2{fill:url(#SVGID_00000005978186354584959520000008153317103670383789_);}
	.st3{fill:url(#SVGID_00000173849561384514771370000004769006423376810418_);}
	.st4{fill:url(#SVGID_00000018226808920061434260000013264101637492165279_);}
	.st5{fill:url(#SVGID_00000178193478373118829350000007321396755086203798_);}
	.st6{opacity:0.17;fill:url(#SVGID_00000019640116072291625800000007984583061039388800_);enable-background:new    ;}
	.st7{opacity:0.1;fill:url(#SVGID_00000021103353429938981040000000350841911693073044_);enable-background:new    ;}
	.st8{opacity:0.1;fill:url(#SVGID_00000173157803093725003230000005848093086089006271_);enable-background:new    ;}
	.st9{opacity:0.17;fill:url(#SVGID_00000069386291979823454620000013628591392800810941_);enable-background:new    ;}
	.st10{opacity:3.000000e-02;fill:url(#SVGID_00000057115653978483043810000010704893996898003372_);enable-background:new    ;}
	.st11{opacity:5.000000e-02;fill:url(#SVGID_00000025436346868030801390000014153879567820220548_);enable-background:new    ;}
	.st12{opacity:4.000000e-02;fill:url(#SVGID_00000059994668942411626000000016645506691976771993_);enable-background:new    ;}
	.st13{fill:none;}
	.st14{fill:url(#SVGID_00000168813330640528921800000006162036248602709160_);}
</style>
<g>
	<defs>
		<path id="SVGID_1_" d="M99.4,105.5H82.6l-0.8-1h-2.1h-2.1c0-0.7,0-1.5,0-2.2h-2c0,0,0,0,0,0.1c0,0-0.3,1-0.9,3h-34
			c0.3-0.3,0.9-0.9,0.9-0.9s0-0.5,0-1.5c-2.7,0.8-5.5,1.6-8.3,2.4v0.1H0.8v26.2h32.4v0.1c2.7,0.8,5.5,1.6,8.3,2.4c0-1,0-1.5,0-1.5
			s-0.9-0.9-1-1h34.1l0,0l1,3.2c0,0,0.7,0,2,0c0-0.7,0-1.5,0-2.2h2.1h2.1c0.3-0.3,0.5-0.6,0.8-0.9l0,0h16.8L99.4,105.5L99.4,105.5z"
			/>
	</defs>
	<clipPath id="SVGID_00000166656244655908717810000010454272268549770663_">
		<use xlink:href="#SVGID_1_"  style="overflow:visible;"/>
	</clipPath>
	<g transform="matrix(1 0 0 1 0 0)" style="clip-path:url(#SVGID_00000166656244655908717810000010454272268549770663_);">
		
			<image style="overflow:visible;" width="600" height="600" xlink:href="../../background.jpg"  transform="matrix(0.1006 0 0 0.1006 25.6742 90.1431)">
		</image>
	</g>
	<use xlink:href="#SVGID_1_"  style="overflow:visible;fill:none;stroke:#999999;stroke-width:0.5;stroke-miterlimit:10;"/>
</g>
<linearGradient id="SVGID_00000141434038681311185130000008441005623340955311_" gradientUnits="userSpaceOnUse" x1="-138.2592" y1="1310.7657" x2="-138.2592" y2="1284.6658" gradientTransform="matrix(-1 0 0 1 -88.1592 -1256.3229)">
	<stop  offset="0" style="stop-color:#8E8D8D"/>
	<stop  offset="0.1963" style="stop-color:#575656"/>
	<stop  offset="0.2692" style="stop-color:#616060"/>
	<stop  offset="0.402" style="stop-color:#7D7C7C"/>
	<stop  offset="0.4442" style="stop-color:#878787"/>
	<stop  offset="0.5936" style="stop-color:#D6D4D5"/>
	<stop  offset="0.6731" style="stop-color:#FFFFFF"/>
	<stop  offset="1" style="stop-color:#B8B7B7"/>
</linearGradient>
<polygon style="fill:url(#SVGID_00000141434038681311185130000008441005623340955311_);" points="99.4,54.4 0.8,54.4 0.8,28.3 
	99.4,28.3 "/>
<linearGradient id="SVGID_00000116205506646165289170000000991318653241392774_" gradientUnits="userSpaceOnUse" x1="-85.2564" y1="60.3228" x2="-85.2564" y2="91.5731" gradientTransform="matrix(-1 0 0 -1 -47.9064 117.3228)">
	<stop  offset="0" style="stop-color:#858686"/>
	<stop  offset="0.1983" style="stop-color:#6E6D6D"/>
	<stop  offset="0.2933" style="stop-color:#5E5E5E"/>
	<stop  offset="0.433" style="stop-color:#7D7D7D"/>
	<stop  offset="0.6732" style="stop-color:#FFFFFF"/>
	<stop  offset="0.9469" style="stop-color:#A2A2A2"/>
	<stop  offset="1" style="stop-color:#B9B8B8"/>
</linearGradient>
<path style="fill:url(#SVGID_00000116205506646165289170000000991318653241392774_);" d="M33.3,54.6c2.7,0.8,5.4,1.6,8.2,2.4V25.8
	c-2.7,0.8-5.5,1.6-8.3,2.4C33.2,37,33.3,45.8,33.3,54.6z"/>
<linearGradient id="SVGID_00000023252412637304099870000004557091484897478277_" gradientUnits="userSpaceOnUse" x1="-426.4858" y1="1311.7228" x2="-426.4858" y2="1283.5829" gradientTransform="matrix(1.0587 0 0 1 531.1705 -1256.3229)">
	<stop  offset="0" style="stop-color:#858686"/>
	<stop  offset="0.1983" style="stop-color:#6E6D6D"/>
	<stop  offset="0.2933" style="stop-color:#5E5E5E"/>
	<stop  offset="0.433" style="stop-color:#7D7D7D"/>
	<stop  offset="0.6732" style="stop-color:#FFFFFF"/>
	<stop  offset="0.9078" style="stop-color:#A2A2A2"/>
	<stop  offset="1" style="stop-color:#B9B8B8"/>
</linearGradient>
<rect x="77.5" y="27.3" style="fill:url(#SVGID_00000023252412637304099870000004557091484897478277_);" width="4.3" height="28.1"/>
<linearGradient id="SVGID_00000103253268761265559050000015017155947215604110_" gradientUnits="userSpaceOnUse" x1="422.5429" y1="1311.7228" x2="422.5429" y2="1283.5896" gradientTransform="matrix(-1.0587 0 0 1 529.5461 -1256.3229)">
	<stop  offset="0" style="stop-color:#878887"/>
	<stop  offset="0.1983" style="stop-color:#5B5A5A"/>
	<stop  offset="0.2933" style="stop-color:#525252"/>
	<stop  offset="0.433" style="stop-color:#737373"/>
	<stop  offset="0.6732" style="stop-color:#BFBEBF"/>
	<stop  offset="0.9078" style="stop-color:#8C8C8C"/>
	<stop  offset="1" style="stop-color:#B0B0AF"/>
</linearGradient>
<path style="fill:url(#SVGID_00000103253268761265559050000015017155947215604110_);" d="M81.8,27.3l0.8,1c0,8.8,0,17.5,0,26.2
	c-0.3,0.3-0.5,0.6-0.8,0.9V27.3z"/>
<linearGradient id="SVGID_00000021087366117927679970000011348856358806353292_" gradientUnits="userSpaceOnUse" x1="-429.8895" y1="1313.9229" x2="-429.8895" y2="1281.3229" gradientTransform="matrix(1.0587 0 0 1 531.1705 -1256.3229)">
	<stop  offset="0" style="stop-color:#858686"/>
	<stop  offset="0.1983" style="stop-color:#6E6D6D"/>
	<stop  offset="0.2933" style="stop-color:#5E5E5E"/>
	<stop  offset="0.433" style="stop-color:#7D7D7D"/>
	<stop  offset="0.6732" style="stop-color:#FFFFFF"/>
	<stop  offset="0.9078" style="stop-color:#A2A2A2"/>
	<stop  offset="1" style="stop-color:#B9B8B8"/>
</linearGradient>
<path style="fill:url(#SVGID_00000021087366117927679970000011348856358806353292_);" d="M75.5,57.6c0,0,0.7,0,2,0
	c0-10.9,0-21.7,0-32.6h-2c0,0,0,0,0,0.1c0,0-0.3,1.1-0.9,3.2l0,0l0,0l0,0v26.2l0,0l0,0l0,0l0,0l0,0C74.5,54.4,75.5,57.6,75.5,57.6z"
	/>
<linearGradient id="SVGID_00000131335795853033963350000005806887255700190633_" gradientUnits="userSpaceOnUse" x1="74.9" y1="1313.3229" x2="74.9" y2="1313.3229" gradientTransform="matrix(1 0 0 1 0 -1256.3229)">
	<stop  offset="0" style="stop-color:#7F8080"/>
	<stop  offset="0.1983" style="stop-color:#626161"/>
	<stop  offset="0.2933" style="stop-color:#555454"/>
	<stop  offset="0.433" style="stop-color:#767676"/>
	<stop  offset="0.6732" style="stop-color:#FFFFFF"/>
	<stop  offset="0.9078" style="stop-color:#9C9B9B"/>
	<stop  offset="1" style="stop-color:#B3B2B2"/>
</linearGradient>
<path style="fill:url(#SVGID_00000131335795853033963350000005806887255700190633_);" d="M74.9,57"/>
<linearGradient id="SVGID_00000145765294642838657280000009571429948222886306_" gradientUnits="userSpaceOnUse" x1="-530.6408" y1="892.6392" x2="-516.3172" y2="892.6392" gradientTransform="matrix(-1 0 0 1 -474.8593 -851.2892)">
	<stop  offset="0" style="stop-color:#020203;stop-opacity:0"/>
	<stop  offset="0.2479" style="stop-color:#050708;stop-opacity:0.2415"/>
	<stop  offset="0.6694" style="stop-color:#18191B;stop-opacity:0.6522"/>
	<stop  offset="1" style="stop-color:#2A292A;stop-opacity:0.9744"/>
</linearGradient>
<polygon style="opacity:0.17;fill:url(#SVGID_00000145765294642838657280000009571429948222886306_);enable-background:new    ;" points="
	41.5,54.4 55.8,54.4 55.8,28.3 41.5,28.3 "/>
<linearGradient id="SVGID_00000167396629121330641430000007131210472562462100_" gradientUnits="userSpaceOnUse" x1="-350.3927" y1="-335.1844" x2="-336.0691" y2="-335.1844" gradientTransform="matrix(1 0 0 -1 369.2638 -293.8345)">
	<stop  offset="0" style="stop-color:#020203;stop-opacity:0"/>
	<stop  offset="0.2479" style="stop-color:#050708;stop-opacity:0.2415"/>
	<stop  offset="0.6694" style="stop-color:#18191B;stop-opacity:0.6522"/>
	<stop  offset="1" style="stop-color:#2A292A;stop-opacity:0.9744"/>
</linearGradient>
<rect x="18.9" y="28.3" style="opacity:0.1;fill:url(#SVGID_00000167396629121330641430000007131210472562462100_);enable-background:new    ;" width="14.3" height="26.1"/>
<linearGradient id="SVGID_00000001647097395444682510000001701172891323505536_" gradientUnits="userSpaceOnUse" x1="-425.1537" y1="-335.9935" x2="-410.83" y2="-335.9935" gradientTransform="matrix(1 0 0 -1 485.3537 -294.6435)">
	<stop  offset="0" style="stop-color:#020203;stop-opacity:0"/>
	<stop  offset="0.2479" style="stop-color:#050708;stop-opacity:0.2415"/>
	<stop  offset="0.6694" style="stop-color:#18191B;stop-opacity:0.6522"/>
	<stop  offset="1" style="stop-color:#2A292A;stop-opacity:0.9744"/>
</linearGradient>
<rect x="60.2" y="28.3" style="opacity:0.1;fill:url(#SVGID_00000001647097395444682510000001701172891323505536_);enable-background:new    ;" width="14.3" height="26.1"/>
<linearGradient id="SVGID_00000168093169909698986510000000352439833154822281_" gradientUnits="userSpaceOnUse" x1="-556.6182" y1="892.6392" x2="-552.3464" y2="892.6392" gradientTransform="matrix(-1 0 0 1 -474.8593 -851.2892)">
	<stop  offset="0" style="stop-color:#020203;stop-opacity:0"/>
	<stop  offset="0.2479" style="stop-color:#050708;stop-opacity:0.1487"/>
	<stop  offset="0.6694" style="stop-color:#18191B;stop-opacity:0.4016"/>
	<stop  offset="1" style="stop-color:#2A292A;stop-opacity:0.6"/>
</linearGradient>
<polygon style="opacity:0.17;fill:url(#SVGID_00000168093169909698986510000000352439833154822281_);enable-background:new    ;" points="
	77.5,55.4 81.8,55.4 81.8,27.3 77.5,27.3 "/>
<linearGradient id="SVGID_00000005954963602152117810000002335576731751502782_" gradientUnits="userSpaceOnUse" x1="-531.9369" y1="892.6392" x2="-516.3172" y2="892.6392" gradientTransform="matrix(-1 0 0 1 -474.8593 -851.2892)">
	<stop  offset="0" style="stop-color:#020203;stop-opacity:0"/>
	<stop  offset="1" style="stop-color:#2A292A;stop-opacity:0.9744"/>
</linearGradient>
<polygon style="opacity:3.000000e-02;fill:url(#SVGID_00000005954963602152117810000002335576731751502782_);enable-background:new    ;" points="
	41.5,54.4 57.1,54.4 57.1,28.3 41.5,28.3 "/>
<linearGradient id="SVGID_00000130616291399302277130000017270231467248663215_" gradientUnits="userSpaceOnUse" x1="-330.7549" y1="-309.7014" x2="-323.4797" y2="-309.7014" gradientTransform="matrix(1 0 0 -1 397.9829 -268.3514)">
	<stop  offset="0" style="stop-color:#020203;stop-opacity:0"/>
	<stop  offset="0.2479" style="stop-color:#050708;stop-opacity:0.2415"/>
	<stop  offset="0.6694" style="stop-color:#18191B;stop-opacity:0.6522"/>
	<stop  offset="1" style="stop-color:#2A292A;stop-opacity:0.9744"/>
</linearGradient>
<rect x="67.2" y="28.3" style="opacity:5.000000e-02;fill:url(#SVGID_00000130616291399302277130000017270231467248663215_);enable-background:new    ;" width="7.3" height="26.1"/>
<linearGradient id="SVGID_00000114788529929525348270000013324742359621549970_" gradientUnits="userSpaceOnUse" x1="-373.6273" y1="-309.7014" x2="-364.8607" y2="-309.7014" gradientTransform="matrix(1 0 0 -1 397.9829 -268.3514)">
	<stop  offset="0" style="stop-color:#020203;stop-opacity:0"/>
	<stop  offset="0.2479" style="stop-color:#050708;stop-opacity:0.2415"/>
	<stop  offset="0.6694" style="stop-color:#18191B;stop-opacity:0.6522"/>
	<stop  offset="1" style="stop-color:#2A292A;stop-opacity:0.9744"/>
</linearGradient>
<rect x="24.4" y="28.3" style="opacity:4.000000e-02;fill:url(#SVGID_00000114788529929525348270000013324742359621549970_);enable-background:new    ;" width="8.8" height="26.1"/>
<path class="st13" d="M81.8,104.5h-2.1h-2.1c0-0.7,0-1.5,0-2.2h-2c0,0,0,0,0,0.1c0,0-0.3,1-0.9,3h-34c0.3-0.3,0.9-0.9,0.9-0.9
	s0-0.5,0-1.5c-2.7,0.8-5.5,1.6-8.3,2.4v26.2l0,0c0,0.1,0,0.1,0,0.2c2.7,0.8,5.5,1.6,8.3,2.4c0-1,0-1.5,0-1.5l-1-1h1c0,0,0,0,0-0.1
	h33.1c0,0.1,0,0.1,0,0.1l1,3.2c0,0,0.7,0,2,0c0-0.7,0-1.5,0-2.2h2.1h2.1c0.3-0.3,0.5-0.6,0.8-0.9c0-8.8,0-17.5,0-26.2L81.8,104.5z"
	/>
<linearGradient id="SVGID_00000127006596225136096220000016776962714658059941_" gradientUnits="userSpaceOnUse" x1="50" y1="1387.772" x2="50" y2="1362.0652" gradientTransform="matrix(1 0 0 1 0 -1256.3229)">
	<stop  offset="0" style="stop-color:#434342"/>
	<stop  offset="0.1068" style="stop-color:#343434"/>
	<stop  offset="0.2055" style="stop-color:#2E2E2E"/>
	<stop  offset="0.3492" style="stop-color:#424244"/>
	<stop  offset="0.6732" style="stop-color:#7F8080"/>
	<stop  offset="0.9078" style="stop-color:#414142"/>
</linearGradient>
<rect x="0.7" y="105.7" style="fill:url(#SVGID_00000127006596225136096220000016776962714658059941_);" width="98.6" height="25.7"/>
<image style="overflow:visible;" width="200" height="200" xlink:href="../../pepsi.png"  transform="matrix(6.426966e-02 0 0 6.426966e-02 51.9213 34.615)">
</image>
</svg>
