<?xml version="1.0" encoding="utf-8"?>
<!-- Generator: Adobe Illustrator 25.4.1, SVG Export Plug-In . SVG Version: 6.00 Build 0)  -->
<svg version="1.1" id="Слой_1" xmlns="http://www.w3.org/2000/svg" xmlns:xlink="http://www.w3.org/1999/xlink" x="0px" y="0px"
	 viewBox="0 0 100 160" style="enable-background:new 0 0 100 160;" xml:space="preserve">
<style type="text/css">
	.st0{clip-path:url(#SVGID_00000091003966142516157030000015595056131850358703_);}
	.st1{fill:url(#SVGID_00000165222219794044890840000012103181863835447952_);}
	.st2{fill:url(#SVGID_00000148633160852251694980000016125726155408299920_);}
	.st3{fill:url(#SVGID_00000168090945469060289660000015266263264872531127_);}
	.st4{fill:url(#SVGID_00000034088103920682841010000004395342905786649263_);}
	.st5{fill:url(#SVGID_00000076573634446947132300000012891151322948289975_);}
	.st6{fill:url(#SVGID_00000029014891472130060710000007359590359473131661_);}
	.st7{clip-path:url(#SVGID_00000166673672879114872090000006232267655408527495_);}
	.st8{fill:none;stroke:#969696;stroke-width:0.5;stroke-miterlimit:10;}
	.st9{fill:url(#SVGID_00000122708982131732152730000005250401832196294307_);}
	.st10{fill:url(#SVGID_00000052822857617994861050000009924714153642503069_);}
	.st11{fill:url(#SVGID_00000026871118930014813890000016185835360190771881_);}
	.st12{fill:#333333;}
	.st13{opacity:0.19;fill:url(#SVGID_00000096767831323968065090000016376743144881160363_);enable-background:new    ;}
	.st14{opacity:0.25;fill:url(#SVGID_00000096769070563974132910000013550205309430250174_);enable-background:new    ;}
</style>
<g>
	<g>
		<defs>
			<path id="SVGID_1_" d="M26.4,93.9h33.2l3.1,3.4H76c0.4,0,0.7,0.3,0.7,0.7l0,0v56.1c0,0.4-0.3,0.7-0.7,0.7l0,0H62.7l-3.1,3.7H26.5
				l-3.1-3.5V97.6L26.4,93.9z"/>
		</defs>
		<clipPath id="SVGID_00000173845780559860871100000009456440450647692680_">
			<use xlink:href="#SVGID_1_"  style="overflow:visible;"/>
		</clipPath>
		<g style="clip-path:url(#SVGID_00000173845780559860871100000009456440450647692680_);">
			
				<image style="overflow:visible;enable-background:new    ;" width="600" height="600" xlink:href="CC6DA938.jpeg"  transform="matrix(0.1133 0 0 0.1133 20.3871 93.1793)">
			</image>
		</g>
	</g>
</g>
<linearGradient id="SVGID_00000030450033031795730520000017182794082412142499_" gradientUnits="userSpaceOnUse" x1="-2734.72" y1="95.7283" x2="-2734.72" y2="160.2283" gradientTransform="matrix(-1 0 0 -1 -2675.4199 161.7284)">
	<stop  offset="0" style="stop-color:#ABABAB"/>
	<stop  offset="3.557613e-02" style="stop-color:#8D8D8D"/>
	<stop  offset="8.328447e-02" style="stop-color:#6D6D6D"/>
	<stop  offset="0.1326" style="stop-color:#535353"/>
	<stop  offset="0.1835" style="stop-color:#414141"/>
	<stop  offset="0.237" style="stop-color:#373737"/>
	<stop  offset="0.2974" style="stop-color:#333333"/>
	<stop  offset="0.6814" style="stop-color:#F2F2F2"/>
	<stop  offset="0.98" style="stop-color:#A3A3A3"/>
</linearGradient>
<polygon style="fill:url(#SVGID_00000030450033031795730520000017182794082412142499_);" points="55.8,66 59.6,66 62.8,62.5 62.8,5 
	59.6,1.5 55.8,1.5 "/>
<linearGradient id="SVGID_00000167392360066319087240000007618900203140237984_" gradientUnits="userSpaceOnUse" x1="-1952.6499" y1="95.7283" x2="-1952.6499" y2="160.2283" gradientTransform="matrix(1 0 0 -1 1979.45 161.7284)">
	<stop  offset="0" style="stop-color:#ABABAB"/>
	<stop  offset="3.557613e-02" style="stop-color:#8D8D8D"/>
	<stop  offset="8.328447e-02" style="stop-color:#6D6D6D"/>
	<stop  offset="0.1326" style="stop-color:#535353"/>
	<stop  offset="0.1835" style="stop-color:#414141"/>
	<stop  offset="0.237" style="stop-color:#373737"/>
	<stop  offset="0.2974" style="stop-color:#333333"/>
	<stop  offset="0.6814" style="stop-color:#F2F2F2"/>
	<stop  offset="0.98" style="stop-color:#A3A3A3"/>
</linearGradient>
<polygon style="fill:url(#SVGID_00000167392360066319087240000007618900203140237984_);" points="30.3,66 26.5,66 23.3,62.5 23.3,5 
	26.5,1.5 30.3,1.5 "/>
<linearGradient id="SVGID_00000152254103594850470220000017062551629606200219_" gradientUnits="userSpaceOnUse" x1="-2718.47" y1="143.3065" x2="-2718.47" y2="160.2605" gradientTransform="matrix(-1 0 0 -1 -2675.4199 161.7284)">
	<stop  offset="0" style="stop-color:#F4F4F4"/>
	<stop  offset="1" style="stop-color:#BABABA"/>
</linearGradient>
<path style="fill:url(#SVGID_00000152254103594850470220000017062551629606200219_);" d="M59.6,1.5H26.5c0,0-3.2,2.9-3.2,8.5
	s3.2,8.5,3.2,8.5h33.1c0,0,3.2-2.9,3.2-8.5S59.6,1.5,59.6,1.5z"/>
<linearGradient id="SVGID_00000025400776903354804730000000439442261869997247_" gradientUnits="userSpaceOnUse" x1="-2718.47" y1="95.7193" x2="-2718.47" y2="112.6733" gradientTransform="matrix(-1 0 0 -1 -2675.4199 161.7284)">
	<stop  offset="0" style="stop-color:#727272"/>
	<stop  offset="1" style="stop-color:#4C4C4C"/>
</linearGradient>
<path style="fill:url(#SVGID_00000025400776903354804730000000439442261869997247_);" d="M59.6,49.1H26.5c0,0-3.2,2.9-3.2,8.5
	s3.2,8.5,3.2,8.5h33.1c0,0,3.2-2.9,3.2-8.5S59.6,49.1,59.6,49.1z"/>
<linearGradient id="SVGID_00000147903864858147004140000014556981590405871274_" gradientUnits="userSpaceOnUse" x1="-2718.47" y1="112.6733" x2="-2718.47" y2="143.3065" gradientTransform="matrix(-1 0 0 -1 -2675.4199 161.7284)">
	<stop  offset="0" style="stop-color:#B3B3B3"/>
	<stop  offset="1" style="stop-color:#B3B3B3"/>
</linearGradient>
<path style="fill:url(#SVGID_00000147903864858147004140000014556981590405871274_);" d="M59.6,18.4H26.5c0,0-3.2,4.8-3.2,15.3
	S26.5,49,26.5,49h33.1c0,0,3.2-4.8,3.2-15.3S59.6,18.4,59.6,18.4z"/>
<linearGradient id="SVGID_00000129198868914376739920000014630744908955471011_" gradientUnits="userSpaceOnUse" x1="-2611.28" y1="131.4184" x2="-2611.28" y2="188.9184" gradientTransform="matrix(-1 0 0 -1 -2541.53 193.9184)">
	<stop  offset="0" style="stop-color:#999898"/>
	<stop  offset="0.1963" style="stop-color:#4F4F4F"/>
	<stop  offset="0.2507" style="stop-color:#5B5B5B"/>
	<stop  offset="0.3499" style="stop-color:#7C7C7C"/>
	<stop  offset="0.3704" style="stop-color:#848484"/>
	<stop  offset="0.433" style="stop-color:#878787"/>
	<stop  offset="0.5974" style="stop-color:#D9D9D9"/>
	<stop  offset="0.6843" style="stop-color:#FFFFFF"/>
	<stop  offset="0.9078" style="stop-color:#B7B7B7"/>
	<stop  offset="1" style="stop-color:#C6C6C6"/>
</linearGradient>
<path style="fill:url(#SVGID_00000129198868914376739920000014630744908955471011_);" d="M75.8,62.5h-13l0,0V5l0,0h13.1
	c0.5,0,0.8,0.4,0.8,0.8v55.8C76.7,62.2,76.3,62.5,75.8,62.5z"/>
<g>
	<g>
		<g>
			<defs>
				<path id="SVGID_00000029023373960479110840000007735427538400319644_" d="M26.4,94h33.2l3.1,3.4H76c0.4,0,0.7,0.3,0.7,0.7l0,0
					v56.1c0,0.4-0.3,0.7-0.7,0.7l0,0H62.7l-3.1,3.7H26.5l-3.1-3.5V97.6L26.4,94z"/>
			</defs>
			<clipPath id="SVGID_00000133510368277769355420000009909859497755579523_">
				<use xlink:href="#SVGID_00000029023373960479110840000007735427538400319644_"  style="overflow:visible;"/>
			</clipPath>
			<g style="clip-path:url(#SVGID_00000133510368277769355420000009909859497755579523_);">
				<g transform="translate(-134.77 249.88) rotate(-45) scale(0.5)">
					
						<image style="overflow:visible;enable-background:new    ;" width="600" height="600" id="image" xlink:href="CC6DA938.jpeg"  transform="matrix(0.1326 4.600507e-03 -4.600507e-03 0.1326 7.7399 82.8171)">
					</image>
				</g>
			</g>
		</g>
	</g>
</g>
<path class="st8" d="M26.4,94h33.2l3.1,3.4H76c0.4,0,0.7,0.3,0.7,0.7l0,0v56.1c0,0.4-0.3,0.7-0.7,0.7l0,0H62.7l-3.1,3.7H26.5
	l-3.1-3.5V97.6L26.4,94z"/>
<linearGradient id="SVGID_00000066492787728130839240000007335792857928793008_" gradientUnits="userSpaceOnUse" x1="75.7" y1="52.2283" x2="75.7" y2="18.5283" gradientTransform="matrix(1 0 0 -1 0 161.7284)">
	<stop  offset="0" style="stop-color:#3A3A3A"/>
	<stop  offset="0.2055" style="stop-color:#262626"/>
	<stop  offset="0.6732" style="stop-color:#636363"/>
	<stop  offset="0.9078" style="stop-color:#383838"/>
</linearGradient>
<polygon style="fill:url(#SVGID_00000066492787728130839240000007335792857928793008_);" points="76.6,109.5 74.8,111.1 74.8,141.4 
	76.6,143.2 "/>
<linearGradient id="SVGID_00000159439933168580562250000014206339988019240118_" gradientUnits="userSpaceOnUse" x1="57.95" y1="55.4283" x2="57.95" y2="15.4803" gradientTransform="matrix(1 0 0 -1 0 161.7284)">
	<stop  offset="0" style="stop-color:#424242"/>
	<stop  offset="0.1068" style="stop-color:#333333"/>
	<stop  offset="0.2055" style="stop-color:#2D2D2D"/>
	<stop  offset="0.3492" style="stop-color:#424244"/>
	<stop  offset="0.6732" style="stop-color:#7F7F7F"/>
	<stop  offset="0.9078" style="stop-color:#414042"/>
</linearGradient>
<rect x="54.9" y="106.3" style="fill:url(#SVGID_00000159439933168580562250000014206339988019240118_);" width="6.1" height="39.9"/>
<linearGradient id="SVGID_00000022540148118445842280000016422053567865289384_" gradientUnits="userSpaceOnUse" x1="67.95" y1="50.6283" x2="67.95" y2="20.2794" gradientTransform="matrix(1 0 0 -1 0 161.7284)">
	<stop  offset="0" style="stop-color:#424242"/>
	<stop  offset="0.1068" style="stop-color:#333333"/>
	<stop  offset="0.2055" style="stop-color:#2D2D2D"/>
	<stop  offset="0.3492" style="stop-color:#424244"/>
	<stop  offset="0.6732" style="stop-color:#7F7F7F"/>
	<stop  offset="0.9078" style="stop-color:#414042"/>
</linearGradient>
<rect x="61" y="111.1" style="fill:url(#SVGID_00000022540148118445842280000016422053567865289384_);" width="13.9" height="30.3"/>
<path class="st12" d="M52.4,104.3l-2.1,1.7l0,0l0,0l-2.5-2.8l-2.2,2.9l0,0V106c-0.8-0.9-1.7-1.9-2.5-2.8l-2.2,2.9l-2.5-2.9l-2.2,2.9
	l-2.5-2.9l-2.2,3l-2.5-3l-2.2,3.1l-2.5-3.1l0,0l-1.1,1.5v22.8v0.1v20.2l1-1.3l2.5,2.9l2.2-3l2.5,3l2.2-3l2.5,3l2.2-3.1l2.5,3.1
	l2.2-3.2l2.5,3.2l2.2-3.2c0,0,0,0,0,0.1c0.8,1.1,1.7,2.1,2.5,3.2l2.2-3.2l0,0l0,0c0.6,0.5,1.2,1.1,1.8,1.6l0.8-1.6v-39.9L52.4,104.3
	z"/>
<linearGradient id="SVGID_00000030472309274107393010000011820248927581311407_" gradientUnits="userSpaceOnUse" x1="-1608.5255" y1="3051.6833" x2="-1610.8938" y2="3051.6833" gradientTransform="matrix(3.7581 6.509233e-06 0 0.8919 6116.6997 -2688.0359)">
	<stop  offset="0" style="stop-color:#000000;stop-opacity:0"/>
	<stop  offset="1" style="stop-color:#000000"/>
</linearGradient>
<rect x="62.8" y="5" style="opacity:0.19;fill:url(#SVGID_00000030472309274107393010000011820248927581311407_);enable-background:new    ;" width="8.9" height="57.5"/>
<linearGradient id="SVGID_00000017515565675980103020000016220527439916550022_" gradientUnits="userSpaceOnUse" x1="-2215.1699" y1="-365.7484" x2="-2216.7827" y2="-365.7484" gradientTransform="matrix(-3.7581 -6.509233e-06 0 -0.8919 -8269.9395 -199.9754)">
	<stop  offset="0" style="stop-color:#000000;stop-opacity:0"/>
	<stop  offset="1" style="stop-color:#000000"/>
</linearGradient>
<rect x="54.9" y="106.3" style="opacity:0.25;fill:url(#SVGID_00000017515565675980103020000016220527439916550022_);enable-background:new    ;" width="6.1" height="39.9"/>
<image style="overflow:visible;" width="200" height="200" xlink:href="../../pepsi.png"  transform="matrix(8.853804e-02 0 0 8.853804e-02 34.1962 24.9463)">
</image>
</svg>
