<?xml version="1.0" encoding="utf-8"?>
<!-- Generator: Adobe Illustrator 25.4.1, SVG Export Plug-In . SVG Version: 6.00 Build 0)  -->
<svg version="1.1" id="Слой_1" xmlns="http://www.w3.org/2000/svg" xmlns:xlink="http://www.w3.org/1999/xlink" x="0px" y="0px"
	 viewBox="0 0 100 160" style="enable-background:new 0 0 100 160;" xml:space="preserve">
<style type="text/css">
	.st0{fill:none;stroke:#A5A5A5;stroke-width:0.5;stroke-miterlimit:10;}
	.st1{fill:url(#SVGID_00000124125067865267559280000008890844522307231904_);}
	.st2{fill:url(#SVGID_00000179616209001378402020000014465646346351805328_);}
	.st3{fill:url(#SVGID_00000143604313100678233770000002255432942739255170_);}
	.st4{fill:url(#SVGID_00000169535412716819427380000016317611028470835600_);}
	.st5{fill:url(#SVGID_00000079448626919715400890000012645723848272309129_);}
	.st6{fill:url(#SVGID_00000176014459537148044850000007338046266206648990_);}
	.st7{opacity:0.17;fill:url(#SVGID_00000060739581229230479840000008583316702231734677_);enable-background:new    ;}
	.st8{opacity:0.1;fill:url(#SVGID_00000069378627322058099670000014348430608362839174_);enable-background:new    ;}
	.st9{opacity:0.1;fill:url(#SVGID_00000062900916844538148720000015910102979684106143_);enable-background:new    ;}
	.st10{opacity:0.17;fill:url(#SVGID_00000160910070230893455870000015064002898150796708_);enable-background:new    ;}
	.st11{opacity:8.000000e-02;fill:url(#SVGID_00000038386910662986115440000005290972828142095272_);enable-background:new    ;}
	.st12{opacity:5.000000e-02;fill:url(#SVGID_00000031208515855900637050000014653408195182217859_);enable-background:new    ;}
	.st13{opacity:7.000000e-02;fill:url(#SVGID_00000080208370543618201150000013279982310092724147_);enable-background:new    ;}
	.st14{fill:url(#SVGID_00000146490979486815014960000013867533562528070584_);}
	.st15{fill:url(#SVGID_00000036951868011040496760000005380082796872706438_);}
	.st16{opacity:8.000000e-02;fill:url(#SVGID_00000132085333025736391660000011593174274569107088_);enable-background:new    ;}
	.st17{fill:url(#SVGID_00000163069456616951048340000007355927108576872858_);}
	.st18{fill:url(#SVGID_00000158017907635787194700000004271924747239152522_);}
	.st19{fill:url(#SVGID_00000117674996286485294150000013810977631499473847_);}
	.st20{fill:url(#SVGID_00000157297300647289955670000017281352382445421988_);}
	.st21{opacity:0.17;fill:url(#SVGID_00000019655995715326196550000000269490450670881925_);enable-background:new    ;}
	.st22{opacity:0.1;fill:url(#SVGID_00000024708075361226237380000010415082263274657207_);enable-background:new    ;}
	.st23{opacity:0.17;fill:url(#SVGID_00000142890396276345627340000009633241391412915874_);enable-background:new    ;}
	.st24{fill:url(#SVGID_00000000210347749301446530000013433908980665110446_);}
	.st25{fill:url(#SVGID_00000072995729512874830500000010158039972321940374_);}
	.st26{fill:url(#SVGID_00000007422720544769770990000014060237311836884896_);}
	.st27{fill:url(#SVGID_00000036228340866036620320000008691688926839753862_);}
	.st28{fill:url(#SVGID_00000148628347804126200090000009754391571404921016_);}
	.st29{fill:url(#SVGID_00000030484651290028544730000009985888164498668694_);}
	.st30{fill:url(#SVGID_00000018221236859338431180000003109181195069904017_);}
	.st31{fill:url(#SVGID_00000143617111330180744970000006918649403212864170_);}
	.st32{fill:url(#SVGID_00000069362399380295802410000004098913860951359112_);}
	.st33{fill:url(#SVGID_00000029031822470988916200000017913713287888856990_);}
	.st34{fill:url(#SVGID_00000127741129456907455080000008650225471357456571_);}
	.st35{fill:url(#SVGID_00000162343989276848001200000005132199552195323025_);}
	.st36{fill:url(#SVGID_00000019662371686905124010000017384323067843908227_);}
	.st37{fill:url(#SVGID_00000082352859605552417060000016201242278634581159_);}
	.st38{fill:url(#SVGID_00000123429147724017321730000015112002713724847778_);}
	.st39{fill:url(#SVGID_00000068669931002666297040000004811344930246657444_);}
	.st40{opacity:0.4;fill:url(#SVGID_00000103967689066045594890000004761105375481779123_);enable-background:new    ;}
	.st41{fill:url(#SVGID_00000023264461780443375990000014184182960999967383_);}
	.st42{fill:url(#SVGID_00000141428544066652394350000002922031866363488168_);}
	.st43{fill:url(#SVGID_00000034085036553166983560000010605469260547946144_);}
	.st44{fill:url(#SVGID_00000013871651445195304980000016570302147894493883_);}
</style>
<g>
	<defs>
		<path id="SVGID_00000101801374917664969140000001648462713475408314_" d="M91.9,113.9h-2.6v-2.3c0-0.1,0-0.3-0.1-0.4
			c-0.1-0.3-0.4-0.5-0.8-0.5l0,0h-6.8c-0.2-2-0.7-3.2-0.7-3.2H58.6c-0.7,1.6-0.9,3.3-0.8,4.8v1.7l0,0v-0.1h-2.5v0.1H49h-2.7v-0.1
			l-0.7-0.9h-1.9h-1.9c0-0.7,0-1.3,0-2H40c0,0,0,0,0,0.1c0,0-0.3,1-0.8,2.8l0,0h-1.1h-7v0.1h-6.2h-2.8v-2.3
			c-2.4,0.7-4.9,1.4-7.3,2.1v0.1l0,0l0,0v-0.1h-1.1v0.1H2.1H0.7v23.2h1.4h12.7h0.1v0.1c2.4,0.7,4.8,1.4,7.3,2.1V137h2.7H35h4.2
			c0,0.1,0.8,2.8,0.8,2.8s0.6,0,1.8,0c0-0.7,0-1.3,0-2h1.9h1.9c0.2-0.3,0.5-0.5,0.7-0.8l0,0H49h8.8l0,0v0.9c0,0.5,0,1.1,0,1.5l0,0
			l0,0c0.1,2.2,0.8,3.8,0.8,3.8h22.3c0.4-1.1,0.6-2.1,0.7-3.1h6.9l0,0c0.3,0,0.6-0.2,0.8-0.5c0.1-0.1,0.1-0.3,0.1-0.4v-2.3H92h7.7
			v-23.2h-7.8V113.9z"/>
	</defs>
	<clipPath id="SVGID_00000176733979296197392940000016072274342106186159_">
		<use xlink:href="#SVGID_00000101801374917664969140000001648462713475408314_"  style="overflow:visible;"/>
	</clipPath>
	<g style="clip-path:url(#SVGID_00000176733979296197392940000016072274342106186159_);">
		
			<image style="overflow:visible;" width="600" height="600" xlink:href="../../background.jpg"  transform="matrix(0.1735 0 0 0.1735 -2.1712 69.1947)">
		</image>
	</g>
	
		<use xlink:href="#SVGID_00000101801374917664969140000001648462713475408314_"  style="overflow:visible;fill:none;stroke:#A5A5A5;stroke-width:0.5;stroke-miterlimit:10;"/>
</g>
<path class="st0" d="M91.9,113.9h-2.6v-2.3c0-0.1,0-0.3-0.1-0.4c-0.1-0.3-0.4-0.5-0.8-0.5l0,0h-6.8c-0.2-2-0.7-3.2-0.7-3.2H58.6
	c-0.7,1.6-0.9,3.3-0.8,4.8v1.7l0,0v-0.1h-2.5v0.1H49h-2.7v-0.1l-0.7-0.9h-1.9h-1.9c0-0.7,0-1.3,0-2H40c0,0,0,0,0,0.1
	c0,0-0.3,1-0.8,2.8l0,0h-1.1h-7v0.1h-6.2h-2.8v-2.3c-2.4,0.7-4.9,1.4-7.3,2.1v0.1l0,0l0,0v-0.1h-1.1v0.1H2.1H0.7v23.2h1.4h12.7h0.1
	v0.1c2.4,0.7,4.8,1.4,7.3,2.1V137h2.7H35h4.2c0,0.1,0.8,2.8,0.8,2.8s0.6,0,1.8,0c0-0.7,0-1.3,0-2h1.9h1.9c0.2-0.3,0.5-0.5,0.7-0.8
	l0,0H49h8.8l0,0v0.9c0,0.5,0,1.1,0,1.5l0,0l0,0c0.1,2.2,0.8,3.8,0.8,3.8h22.3c0.4-1.1,0.6-2.1,0.7-3.1h6.9l0,0
	c0.3,0,0.6-0.2,0.8-0.5c0.1-0.1,0.1-0.3,0.1-0.4v-2.3H92h7.7v-23.2h-7.8V113.9z"/>
<g>
	<path id="SVGID_1_" class="st0" d="M91.9,113.9h-2.6v-2.3c0-0.1,0-0.3-0.1-0.4c-0.1-0.3-0.4-0.5-0.8-0.5l0,0h-6.8
		c-0.2-2-0.7-3.2-0.7-3.2H58.6c-0.7,1.6-0.9,3.3-0.8,4.8v1.7l0,0v-0.1h-2.5v0.1H49h-2.7v-0.1l-0.7-0.9h-1.9h-1.9c0-0.7,0-1.3,0-2H40
		c0,0,0,0,0,0.1c0,0-0.3,1-0.8,2.8l0,0h-1.1h-7v0.1h-6.2h-2.8v-2.3c-2.4,0.7-4.9,1.4-7.3,2.1v0.1l0,0l0,0v-0.1h-1.1v0.1H2.1H0.7
		v23.2h1.4h12.7h0.1v0.1c2.4,0.7,4.8,1.4,7.3,2.1V137h2.7H35h4.2c0,0.1,0.8,2.8,0.8,2.8s0.6,0,1.8,0c0-0.7,0-1.3,0-2h1.9h1.9
		c0.2-0.3,0.5-0.5,0.7-0.8l0,0H49h8.8l0,0v0.9c0,0.5,0,1.1,0,1.5l0,0l0,0c0.1,2.2,0.8,3.8,0.8,3.8h22.3c0.4-1.1,0.6-2.1,0.7-3.1h6.9
		l0,0c0.3,0,0.6-0.2,0.8-0.5c0.1-0.1,0.1-0.3,0.1-0.4v-2.3H92h7.7v-23.2h-7.8V113.9z"/>
</g>
<linearGradient id="SVGID_00000058580047890952985400000013883197012509101727_" gradientUnits="userSpaceOnUse" x1="-138.3301" y1="1302.2267" x2="-138.3301" y2="1279.0267" gradientTransform="matrix(-1 0 0 1 -88.1592 -1255.3229)">
	<stop  offset="0" style="stop-color:#8E8D8D"/>
	<stop  offset="0.1963" style="stop-color:#575656"/>
	<stop  offset="0.2692" style="stop-color:#616060"/>
	<stop  offset="0.402" style="stop-color:#7D7C7C"/>
	<stop  offset="0.4442" style="stop-color:#878787"/>
	<stop  offset="0.5936" style="stop-color:#D6D4D5"/>
	<stop  offset="0.6731" style="stop-color:#FFFFFF"/>
	<stop  offset="1" style="stop-color:#B8B7B7"/>
</linearGradient>
<polygon style="fill:url(#SVGID_00000058580047890952985400000013883197012509101727_);" points="99.6,46.9 0.7,46.9 0.7,23.7 
	99.6,23.7 "/>
<linearGradient id="SVGID_00000177453379908209907140000014794841650734577843_" gradientUnits="userSpaceOnUse" x1="-66.4551" y1="83.5178" x2="-66.4551" y2="111.3032" gradientTransform="matrix(-1 0 0 -1 -47.9064 132.6771)">
	<stop  offset="0" style="stop-color:#858686"/>
	<stop  offset="0.1983" style="stop-color:#6E6D6D"/>
	<stop  offset="0.2933" style="stop-color:#5E5E5E"/>
	<stop  offset="0.433" style="stop-color:#7D7D7D"/>
	<stop  offset="0.6732" style="stop-color:#FFFFFF"/>
	<stop  offset="0.9469" style="stop-color:#A2A2A2"/>
	<stop  offset="1" style="stop-color:#B9B8B8"/>
</linearGradient>
<path style="fill:url(#SVGID_00000177453379908209907140000014794841650734577843_);" d="M14.9,47c2.4,0.7,4.8,1.4,7.3,2.1V21.4
	c-2.4,0.7-4.9,1.4-7.3,2.1C14.8,31.4,14.9,39.2,14.9,47z"/>
<linearGradient id="SVGID_00000124848249332744870240000004967834681441716904_" gradientUnits="userSpaceOnUse" x1="-460.5172" y1="1303.0267" x2="-460.5172" y2="1278.0267" gradientTransform="matrix(1.0587 0 0 1 531.1705 -1255.3229)">
	<stop  offset="0" style="stop-color:#858686"/>
	<stop  offset="0.1983" style="stop-color:#6E6D6D"/>
	<stop  offset="0.2933" style="stop-color:#5E5E5E"/>
	<stop  offset="0.433" style="stop-color:#7D7D7D"/>
	<stop  offset="0.6732" style="stop-color:#FFFFFF"/>
	<stop  offset="0.9078" style="stop-color:#A2A2A2"/>
	<stop  offset="1" style="stop-color:#B9B8B8"/>
</linearGradient>
<rect x="41.7" y="22.7" style="fill:url(#SVGID_00000124848249332744870240000004967834681441716904_);" width="3.8" height="25"/>
<linearGradient id="SVGID_00000181769259165429502010000004266139131736730006_" gradientUnits="userSpaceOnUse" x1="456.8577" y1="1303.0267" x2="456.8577" y2="1278.0267" gradientTransform="matrix(-1.0587 0 0 1 529.5461 -1255.3229)">
	<stop  offset="0" style="stop-color:#878887"/>
	<stop  offset="0.1983" style="stop-color:#5B5A5A"/>
	<stop  offset="0.2933" style="stop-color:#525252"/>
	<stop  offset="0.433" style="stop-color:#737373"/>
	<stop  offset="0.6732" style="stop-color:#BFBEBF"/>
	<stop  offset="0.9078" style="stop-color:#8C8C8C"/>
	<stop  offset="1" style="stop-color:#B0B0AF"/>
</linearGradient>
<path style="fill:url(#SVGID_00000181769259165429502010000004266139131736730006_);" d="M45.5,22.7l0.7,0.9c0,7.8,0,15.6,0,23.3
	c-0.2,0.3-0.5,0.5-0.7,0.8C45.5,47.7,45.5,22.7,45.5,22.7z"/>
<linearGradient id="SVGID_00000168817082246118205470000014314808356792111541_" gradientUnits="userSpaceOnUse" x1="-463.5435" y1="1305.0267" x2="-463.5435" y2="1276.0656" gradientTransform="matrix(1.0587 0 0 1 531.1705 -1255.3229)">
	<stop  offset="0" style="stop-color:#858686"/>
	<stop  offset="0.1983" style="stop-color:#6E6D6D"/>
	<stop  offset="0.2933" style="stop-color:#5E5E5E"/>
	<stop  offset="0.433" style="stop-color:#7D7D7D"/>
	<stop  offset="0.6732" style="stop-color:#FFFFFF"/>
	<stop  offset="0.9078" style="stop-color:#A2A2A2"/>
	<stop  offset="1" style="stop-color:#B9B8B8"/>
</linearGradient>
<path style="fill:url(#SVGID_00000168817082246118205470000014314808356792111541_);" d="M39.9,49.7c0,0,0.6,0,1.8,0
	c0-9.7,0-19.3,0-29h-1.8c0,0,0,0,0,0.1c0,0-0.3,1-0.8,2.8l0,0l0,0l0,0v23.2l0,0l0,0l0,0l0,0l0,0C39,46.9,39.9,49.7,39.9,49.7z"/>
<linearGradient id="SVGID_00000073680041647460364730000002531867651069507006_" gradientUnits="userSpaceOnUse" x1="51.8209" y1="1304.4266" x2="51.8209" y2="1304.4266" gradientTransform="matrix(1 0 0 1 0 -1255.3229)">
	<stop  offset="0" style="stop-color:#7F8080"/>
	<stop  offset="0.1983" style="stop-color:#626161"/>
	<stop  offset="0.2933" style="stop-color:#555454"/>
	<stop  offset="0.433" style="stop-color:#767676"/>
	<stop  offset="0.6732" style="stop-color:#FFFFFF"/>
	<stop  offset="0.9078" style="stop-color:#9C9B9B"/>
	<stop  offset="1" style="stop-color:#B3B2B2"/>
</linearGradient>
<path style="fill:url(#SVGID_00000073680041647460364730000002531867651069507006_);" d="M51.8,49.1"/>
<linearGradient id="SVGID_00000163050742462184194660000008403719670138700201_" gradientUnits="userSpaceOnUse" x1="-509.7494" y1="885.593" x2="-497.0158" y2="885.593" gradientTransform="matrix(-1 0 0 1 -474.8593 -850.2892)">
	<stop  offset="0" style="stop-color:#020203;stop-opacity:0"/>
	<stop  offset="0.2479" style="stop-color:#050708;stop-opacity:0.2415"/>
	<stop  offset="0.6694" style="stop-color:#18191B;stop-opacity:0.6522"/>
	<stop  offset="1" style="stop-color:#2A292A;stop-opacity:0.9744"/>
</linearGradient>
<polygon style="opacity:0.17;fill:url(#SVGID_00000163050742462184194660000008403719670138700201_);enable-background:new    ;" points="
	22.1,46.9 34.9,46.9 34.9,23.7 22.1,23.7 "/>
<linearGradient id="SVGID_00000106828490221327559190000005634918502912293544_" gradientUnits="userSpaceOnUse" x1="-367.183" y1="-313.784" x2="-354.4494" y2="-313.784" gradientTransform="matrix(1 0 0 -1 369.2638 -278.4802)">
	<stop  offset="0" style="stop-color:#020203;stop-opacity:0"/>
	<stop  offset="0.2479" style="stop-color:#050708;stop-opacity:0.2415"/>
	<stop  offset="0.6694" style="stop-color:#18191B;stop-opacity:0.6522"/>
	<stop  offset="1" style="stop-color:#2A292A;stop-opacity:0.9744"/>
</linearGradient>
<rect x="2.1" y="23.7" style="opacity:0.1;fill:url(#SVGID_00000106828490221327559190000005634918502912293544_);enable-background:new    ;" width="12.7" height="23.2"/>
<linearGradient id="SVGID_00000129206519447186041780000009976298395159600256_" gradientUnits="userSpaceOnUse" x1="-454.3652" y1="-314.493" x2="-446.2881" y2="-314.493" gradientTransform="matrix(1 0 0 -1 485.3537 -279.2892)">
	<stop  offset="0" style="stop-color:#020203;stop-opacity:0"/>
	<stop  offset="0.2479" style="stop-color:#050708;stop-opacity:0.2415"/>
	<stop  offset="0.6694" style="stop-color:#18191B;stop-opacity:0.6522"/>
	<stop  offset="1" style="stop-color:#2A292A;stop-opacity:0.9744"/>
</linearGradient>
<rect x="31" y="23.6" style="opacity:0.1;fill:url(#SVGID_00000129206519447186041780000009976298395159600256_);enable-background:new    ;" width="8.1" height="23.2"/>
<linearGradient id="SVGID_00000127751503649862052070000012827722320271314597_" gradientUnits="userSpaceOnUse" x1="-518.4657" y1="885.493" x2="-516.5683" y2="885.493" gradientTransform="matrix(-1 0 0 1 -474.8593 -850.2892)">
	<stop  offset="0" style="stop-color:#020203;stop-opacity:0"/>
	<stop  offset="0.2479" style="stop-color:#050708;stop-opacity:0.1487"/>
	<stop  offset="0.6694" style="stop-color:#18191B;stop-opacity:0.4016"/>
	<stop  offset="1" style="stop-color:#2A292A;stop-opacity:0.6"/>
</linearGradient>
<polygon style="opacity:0.17;fill:url(#SVGID_00000127751503649862052070000012827722320271314597_);enable-background:new    ;" points="
	41.7,47.7 43.6,47.7 43.6,22.7 41.7,22.7 "/>
<linearGradient id="SVGID_00000078752640933019773140000015262643120018056101_" gradientUnits="userSpaceOnUse" x1="-504.4017" y1="885.593" x2="-497.0158" y2="885.593" gradientTransform="matrix(-1 0 0 1 -474.8593 -850.2892)">
	<stop  offset="0" style="stop-color:#020203;stop-opacity:0"/>
	<stop  offset="0.2479" style="stop-color:#050708;stop-opacity:0.2415"/>
	<stop  offset="0.6694" style="stop-color:#18191B;stop-opacity:0.6522"/>
	<stop  offset="1" style="stop-color:#2A292A;stop-opacity:0.9744"/>
</linearGradient>
<polygon style="opacity:8.000000e-02;fill:url(#SVGID_00000078752640933019773140000015262643120018056101_);enable-background:new    ;" points="
	22.1,46.9 29.5,46.9 29.5,23.7 22.1,23.7 "/>
<linearGradient id="SVGID_00000008852660696628726120000003567365887623542673_" gradientUnits="userSpaceOnUse" x1="-362.9185" y1="-288.2009" x2="-358.9278" y2="-288.2009" gradientTransform="matrix(1 0 0 -1 397.9829 -252.9971)">
	<stop  offset="0" style="stop-color:#020203;stop-opacity:0"/>
	<stop  offset="0.2479" style="stop-color:#050708;stop-opacity:0.2415"/>
	<stop  offset="0.6694" style="stop-color:#18191B;stop-opacity:0.6522"/>
	<stop  offset="1" style="stop-color:#2A292A;stop-opacity:0.9744"/>
</linearGradient>
<rect x="35.1" y="23.6" style="opacity:5.000000e-02;fill:url(#SVGID_00000008852660696628726120000003567365887623542673_);enable-background:new    ;" width="4" height="23.2"/>
<linearGradient id="SVGID_00000160174872308763847540000010399553493201578675_" gradientUnits="userSpaceOnUse" x1="-392.662" y1="-288.2009" x2="-383.218" y2="-288.2009" gradientTransform="matrix(1 0 0 -1 397.9829 -252.9971)">
	<stop  offset="0" style="stop-color:#020203;stop-opacity:0"/>
	<stop  offset="0.2479" style="stop-color:#050708;stop-opacity:0.2415"/>
	<stop  offset="0.6694" style="stop-color:#18191B;stop-opacity:0.6522"/>
	<stop  offset="1" style="stop-color:#2A292A;stop-opacity:0.9744"/>
</linearGradient>
<rect x="5.3" y="23.6" style="opacity:7.000000e-02;fill:url(#SVGID_00000160174872308763847540000010399553493201578675_);enable-background:new    ;" width="9.4" height="23.2"/>
<linearGradient id="SVGID_00000176740538657947123600000014125280284985626497_" gradientUnits="userSpaceOnUse" x1="50.1709" y1="1392.0206" x2="50.1709" y2="1369.4327" gradientTransform="matrix(1 0 0 1 0 -1255.3229)">
	<stop  offset="0" style="stop-color:#434342"/>
	<stop  offset="0.1068" style="stop-color:#343434"/>
	<stop  offset="0.2055" style="stop-color:#2E2E2E"/>
	<stop  offset="0.3492" style="stop-color:#424244"/>
	<stop  offset="0.6732" style="stop-color:#7F8080"/>
	<stop  offset="0.9078" style="stop-color:#414142"/>
</linearGradient>
<rect x="0.7" y="114.1" style="fill:url(#SVGID_00000176740538657947123600000014125280284985626497_);" width="98.9" height="22.6"/>
<linearGradient id="SVGID_00000070813521586177182600000005395487303254437286_" gradientUnits="userSpaceOnUse" x1="167.6047" y1="1305.4266" x2="167.6047" y2="1275.724" gradientTransform="matrix(-1 0 0 1 245.3256 -1255.3229)">
	<stop  offset="0" style="stop-color:#848484"/>
	<stop  offset="0.1424" style="stop-color:#717171"/>
	<stop  offset="0.2174" style="stop-color:#626262"/>
	<stop  offset="0.269" style="stop-color:#5C5C5C"/>
	<stop  offset="0.3007" style="stop-color:#666565"/>
	<stop  offset="0.3587" style="stop-color:#7F7F7F"/>
	<stop  offset="0.3704" style="stop-color:#858585"/>
	<stop  offset="0.433" style="stop-color:#878787"/>
	<stop  offset="0.597" style="stop-color:#D6D4D5"/>
	<stop  offset="0.6843" style="stop-color:#FFFFFF"/>
	<stop  offset="0.9078" style="stop-color:#B8B7B7"/>
	<stop  offset="1" style="stop-color:#C7C6C6"/>
</linearGradient>
<path style="fill:url(#SVGID_00000070813521586177182600000005395487303254437286_);" d="M67,50.1h21.4c0.5,0,0.8-0.4,0.8-0.8v-28
	c0-0.5-0.4-0.8-0.8-0.8H67c-0.5,0-0.8,0.4-0.8,0.8v28C66.2,49.7,66.6,50.1,67,50.1z"/>
<linearGradient id="SVGID_00000123434465843372151100000001623047919667914943_" gradientUnits="userSpaceOnUse" x1="-277.8119" y1="1212.4419" x2="-286.537" y2="1212.4419" gradientTransform="matrix(1 0 0 1 367.0701 -1177.1881)">
	<stop  offset="0" style="stop-color:#020203;stop-opacity:0"/>
	<stop  offset="0.3192" style="stop-color:#0D0F11;stop-opacity:0.311"/>
	<stop  offset="1" style="stop-color:#2A292A;stop-opacity:0.9744"/>
</linearGradient>
<path style="opacity:8.000000e-02;fill:url(#SVGID_00000123434465843372151100000001623047919667914943_);enable-background:new    ;" d="
	M88.5,50.1h-7.2c-0.4,0-0.8-0.3-0.8-0.8V21.2c0-0.4,0.3-0.8,0.8-0.8h7.2c0.4,0,0.8,0.3,0.8,0.8v28.1C89.2,49.8,88.9,50.1,88.5,50.1z
	"/>
<g>
	
		<linearGradient id="SVGID_00000118393867503373354180000002367545847093731007_" gradientUnits="userSpaceOnUse" x1="-124.2181" y1="1304.7267" x2="-124.2181" y2="1276.2267" gradientTransform="matrix(-1 0 0 1 -54.4972 -1255.3229)">
		<stop  offset="2.230000e-02" style="stop-color:#1B1B1B"/>
		<stop  offset="0.9832" style="stop-color:#CDCCCC"/>
	</linearGradient>
	<polygon style="fill:url(#SVGID_00000118393867503373354180000002367545847093731007_);" points="57.8,49.4 81.6,49.4 81.6,20.9 
		57.8,20.9 	"/>
	
		<linearGradient id="SVGID_00000022526607263364904230000006732428293192174751_" gradientUnits="userSpaceOnUse" x1="-124.1681" y1="1308.5107" x2="-124.1681" y2="1299.672" gradientTransform="matrix(-1 0 0 1 -54.4972 -1255.3229)">
		<stop  offset="0" style="stop-color:#737373"/>
		<stop  offset="1" style="stop-color:#4D4D4D"/>
	</linearGradient>
	<path style="fill:url(#SVGID_00000022526607263364904230000006732428293192174751_);" d="M58.5,44.3h22.3c0,0,1.8,3.8,0,8.8H58.5
		C58.5,53.2,56.7,48.6,58.5,44.3z"/>
	
		<linearGradient id="SVGID_00000122720974411648785510000014143237790169691017_" gradientUnits="userSpaceOnUse" x1="-124.2459" y1="1299.672" x2="-124.2459" y2="1281.3467" gradientTransform="matrix(-1 0 0 1 -54.4972 -1255.3229)">
		<stop  offset="0" style="stop-color:#A1A0A0"/>
		<stop  offset="1" style="stop-color:#777778"/>
	</linearGradient>
	<path style="fill:url(#SVGID_00000122720974411648785510000014143237790169691017_);" d="M58.6,26h22.3c0,0,1.8,7.8,0,18.3H58.6
		C58.6,44.3,56.7,34.9,58.6,26z"/>
	
		<linearGradient id="SVGID_00000061473855372618343310000011324166617841846680_" gradientUnits="userSpaceOnUse" x1="-124.2459" y1="1281.3467" x2="-124.2459" y2="1272.5079" gradientTransform="matrix(-1 0 0 1 -54.4972 -1255.3229)">
		<stop  offset="0" style="stop-color:#F4F3F4"/>
		<stop  offset="1" style="stop-color:#BABABA"/>
	</linearGradient>
	<path style="fill:url(#SVGID_00000061473855372618343310000011324166617841846680_);" d="M58.6,17.2h22.3c0,0,1.8,3.8,0,8.8H58.6
		C58.6,26,56.7,21.5,58.6,17.2z"/>
</g>
<linearGradient id="SVGID_00000049912844688927049110000017051680780054407834_" gradientUnits="userSpaceOnUse" x1="-574.446" y1="885.493" x2="-564.1175" y2="885.493" gradientTransform="matrix(-1 0 0 1 -474.8593 -850.2892)">
	<stop  offset="0" style="stop-color:#020203;stop-opacity:0"/>
	<stop  offset="0.2479" style="stop-color:#050708;stop-opacity:0.2415"/>
	<stop  offset="0.6694" style="stop-color:#18191B;stop-opacity:0.6522"/>
	<stop  offset="1" style="stop-color:#2A292A;stop-opacity:0.9744"/>
</linearGradient>
<polygon style="opacity:0.17;fill:url(#SVGID_00000049912844688927049110000017051680780054407834_);enable-background:new    ;" points="
	89.2,46.8 99.6,46.8 99.6,23.6 89.2,23.6 "/>
<linearGradient id="SVGID_00000048489051209453740250000009055129966775401388_" gradientUnits="userSpaceOnUse" x1="-436.4006" y1="-314.593" x2="-427.6006" y2="-314.593" gradientTransform="matrix(1 0 0 -1 485.3537 -279.2892)">
	<stop  offset="0" style="stop-color:#020203;stop-opacity:0"/>
	<stop  offset="0.2479" style="stop-color:#050708;stop-opacity:0.2415"/>
	<stop  offset="0.6694" style="stop-color:#18191B;stop-opacity:0.6522"/>
	<stop  offset="1" style="stop-color:#2A292A;stop-opacity:0.9744"/>
</linearGradient>
<rect x="48.9" y="23.7" style="opacity:0.1;fill:url(#SVGID_00000048489051209453740250000009055129966775401388_);enable-background:new    ;" width="8.8" height="23.2"/>
<linearGradient id="SVGID_00000139261706253966145400000000642384602406645899_" gradientUnits="userSpaceOnUse" x1="-342.7432" y1="-288.2009" x2="-340.2275" y2="-288.2009" gradientTransform="matrix(1 0 0 -1 397.9829 -252.9971)">
	<stop  offset="0" style="stop-color:#020203;stop-opacity:0"/>
	<stop  offset="0.2479" style="stop-color:#050708;stop-opacity:0.2415"/>
	<stop  offset="0.6694" style="stop-color:#18191B;stop-opacity:0.6522"/>
	<stop  offset="1" style="stop-color:#2A292A;stop-opacity:0.9744"/>
</linearGradient>
<rect x="55.2" y="23.6" style="opacity:0.17;fill:url(#SVGID_00000139261706253966145400000000642384602406645899_);enable-background:new    ;" width="2.5" height="23.2"/>
<linearGradient id="SVGID_00000142137449144303418510000014465070542931396285_" gradientUnits="userSpaceOnUse" x1="346.1221" y1="-474.7208" x2="346.1221" y2="-444.2538" gradientTransform="matrix(0.9993 3.650000e-02 3.640000e-02 -0.9977 -264.6732 -345.573)">
	<stop  offset="0" style="stop-color:#343434"/>
	<stop  offset="0.3541" style="stop-color:#4E4D4D"/>
	<stop  offset="0.433" style="stop-color:#676767"/>
	<stop  offset="0.5" style="stop-color:#808181"/>
	<stop  offset="0.6362" style="stop-color:#A9A9AA"/>
	<stop  offset="0.7094" style="stop-color:#808181"/>
	<stop  offset="0.7987" style="stop-color:#4E4D4D"/>
	<stop  offset="1" style="stop-color:#676767"/>
</linearGradient>
<polygon style="fill:url(#SVGID_00000142137449144303418510000014465070542931396285_);" points="63.6,110.3 64.8,112.4 65.4,138.5 
	64.3,140.7 "/>
<linearGradient id="SVGID_00000054231051036987777060000006498672438797749155_" gradientUnits="userSpaceOnUse" x1="343.7887" y1="-478.0976" x2="343.7887" y2="-447.388" gradientTransform="matrix(0.9993 3.650000e-02 3.620000e-02 -0.993 -264.6155 -346.5605)">
	<stop  offset="0" style="stop-color:#343434"/>
	<stop  offset="0.3541" style="stop-color:#4E4D4D"/>
	<stop  offset="0.433" style="stop-color:#676767"/>
	<stop  offset="0.5" style="stop-color:#808181"/>
	<stop  offset="0.6362" style="stop-color:#A9A9AA"/>
	<stop  offset="0.7094" style="stop-color:#808181"/>
	<stop  offset="0.7987" style="stop-color:#4E4D4D"/>
	<stop  offset="1" style="stop-color:#676767"/>
</linearGradient>
<polygon style="fill:url(#SVGID_00000054231051036987777060000006498672438797749155_);" points="61.3,110.2 62.5,112.3 63.1,138.6 
	62.1,140.8 "/>
<linearGradient id="SVGID_00000135667287492697044200000010397781322481573544_" gradientUnits="userSpaceOnUse" x1="-10605.3652" y1="348.1286" x2="-10605.3652" y2="319.6155" gradientTransform="matrix(-0.9993 -3.650000e-02 3.900000e-02 -1.0686 -10545.3594 99.4748)">
	<stop  offset="0" style="stop-color:#343434"/>
	<stop  offset="0.3541" style="stop-color:#4E4D4D"/>
	<stop  offset="0.433" style="stop-color:#676767"/>
	<stop  offset="0.5" style="stop-color:#808181"/>
	<stop  offset="0.6362" style="stop-color:#808181"/>
	<stop  offset="0.7094" style="stop-color:#808181"/>
	<stop  offset="0.7987" style="stop-color:#676767"/>
	<stop  offset="1" style="stop-color:#343434"/>
</linearGradient>
<path style="fill:url(#SVGID_00000135667287492697044200000010397781322481573544_);" d="M65.8,110.2l0.8,30.5l-1.2-2.2
	c-0.2-8.7-0.4-17.4-0.6-26.1C65.2,111.7,65.5,110.9,65.8,110.2z"/>
<linearGradient id="SVGID_00000098908094348501773320000007440790400955431302_" gradientUnits="userSpaceOnUse" x1="-10603.0684" y1="341.668" x2="-10603.0684" y2="312.8917" gradientTransform="matrix(-0.9993 -3.650000e-02 3.860000e-02 -1.0576 -10544.9746 88.9171)">
	<stop  offset="0" style="stop-color:#343434"/>
	<stop  offset="0.3541" style="stop-color:#4E4D4D"/>
	<stop  offset="0.433" style="stop-color:#676767"/>
	<stop  offset="0.5" style="stop-color:#808181"/>
	<stop  offset="0.6362" style="stop-color:#808181"/>
	<stop  offset="0.7094" style="stop-color:#808181"/>
	<stop  offset="0.7987" style="stop-color:#676767"/>
	<stop  offset="1" style="stop-color:#343434"/>
</linearGradient>
<path style="fill:url(#SVGID_00000098908094348501773320000007440790400955431302_);" d="M63.6,110.3l0.7,30.5l-1.2-2.2
	c-0.2-8.7-0.4-17.5-0.6-26.2C62.9,111.7,63.2,111,63.6,110.3z"/>
<linearGradient id="SVGID_00000178923134187202041320000017429120327348980365_" gradientUnits="userSpaceOnUse" x1="-10600.8115" y1="338.7711" x2="-10600.8115" y2="309.8003" gradientTransform="matrix(-0.9993 -3.650000e-02 3.840000e-02 -1.0526 -10544.7871 84.1334)">
	<stop  offset="0" style="stop-color:#343434"/>
	<stop  offset="0.3541" style="stop-color:#4E4D4D"/>
	<stop  offset="0.433" style="stop-color:#676767"/>
	<stop  offset="0.5" style="stop-color:#808181"/>
	<stop  offset="0.6362" style="stop-color:#808181"/>
	<stop  offset="0.7094" style="stop-color:#808181"/>
	<stop  offset="0.7987" style="stop-color:#676767"/>
	<stop  offset="1" style="stop-color:#343434"/>
</linearGradient>
<path style="fill:url(#SVGID_00000178923134187202041320000017429120327348980365_);" d="M61.3,110.2l0.8,30.6
	c-0.4-0.7-0.9-1.5-1.3-2.2c-0.1-4.4-0.2-8.7-0.3-13.1s-0.2-8.8-0.3-13.1C60.5,111.6,60.9,110.9,61.3,110.2z"/>
<linearGradient id="SVGID_00000098939656306447386530000003658749660279090095_" gradientUnits="userSpaceOnUse" x1="350.7929" y1="-462.1191" x2="350.7929" y2="-432.177" gradientTransform="matrix(0.9993 3.650000e-02 3.710000e-02 -1.0163 -264.8281 -341.7681)">
	<stop  offset="0" style="stop-color:#343434"/>
	<stop  offset="0.3541" style="stop-color:#4E4D4D"/>
	<stop  offset="0.433" style="stop-color:#676767"/>
	<stop  offset="0.5" style="stop-color:#808181"/>
	<stop  offset="0.6362" style="stop-color:#A9A9AA"/>
	<stop  offset="0.7094" style="stop-color:#808181"/>
	<stop  offset="0.7987" style="stop-color:#4E4D4D"/>
	<stop  offset="1" style="stop-color:#676767"/>
</linearGradient>
<polygon style="fill:url(#SVGID_00000098939656306447386530000003658749660279090095_);" points="68.2,110.2 69.4,112.4 70.1,138.5 
	69,140.7 "/>
<linearGradient id="SVGID_00000020362523592793208910000015602837269252964247_" gradientUnits="userSpaceOnUse" x1="348.4436" y1="-467.6249" x2="348.4436" y2="-437.4392" gradientTransform="matrix(0.9993 3.650000e-02 3.680000e-02 -1.0081 -264.7665 -343.4416)">
	<stop  offset="0" style="stop-color:#343434"/>
	<stop  offset="0.3541" style="stop-color:#4E4D4D"/>
	<stop  offset="0.433" style="stop-color:#676767"/>
	<stop  offset="0.5" style="stop-color:#808181"/>
	<stop  offset="0.6362" style="stop-color:#A9A9AA"/>
	<stop  offset="0.7094" style="stop-color:#808181"/>
	<stop  offset="0.7987" style="stop-color:#4E4D4D"/>
	<stop  offset="1" style="stop-color:#676767"/>
</linearGradient>
<polygon style="fill:url(#SVGID_00000020362523592793208910000015602837269252964247_);" points="65.8,110.2 67,112.4 67.8,138.5 
	66.6,140.7 "/>
<linearGradient id="SVGID_00000058554969832039453260000004451904866359708077_" gradientUnits="userSpaceOnUse" x1="-10607.7334" y1="353.1094" x2="-10607.7334" y2="324.8627" gradientTransform="matrix(-0.9993 -3.650000e-02 3.930000e-02 -1.0773 -10545.6787 107.8203)">
	<stop  offset="0" style="stop-color:#343434"/>
	<stop  offset="0.3541" style="stop-color:#4E4D4D"/>
	<stop  offset="0.433" style="stop-color:#676767"/>
	<stop  offset="0.5" style="stop-color:#808181"/>
	<stop  offset="0.6362" style="stop-color:#808181"/>
	<stop  offset="0.7094" style="stop-color:#808181"/>
	<stop  offset="0.7987" style="stop-color:#676767"/>
	<stop  offset="1" style="stop-color:#343434"/>
</linearGradient>
<path style="fill:url(#SVGID_00000058554969832039453260000004451904866359708077_);" d="M68.2,110.2l0.8,30.5l-1.2-2.2
	c-0.2-8.7-0.5-17.4-0.7-26.1C67.4,111.7,67.8,110.9,68.2,110.2z"/>
<linearGradient id="SVGID_00000049209178447575969120000018107317519782558368_" gradientUnits="userSpaceOnUse" x1="341.8918" y1="-481.4998" x2="341.8918" y2="-454.8036" gradientTransform="matrix(0.9993 3.650000e-02 3.600000e-02 -0.9851 -264.6233 -348.1843)">
	<stop  offset="0" style="stop-color:#343434"/>
	<stop  offset="0.3541" style="stop-color:#4E4D4D"/>
	<stop  offset="0.433" style="stop-color:#676767"/>
	<stop  offset="0.5" style="stop-color:#808181"/>
	<stop  offset="0.6362" style="stop-color:#A9A9AA"/>
	<stop  offset="0.7094" style="stop-color:#808181"/>
	<stop  offset="0.7987" style="stop-color:#4E4D4D"/>
	<stop  offset="1" style="stop-color:#676767"/>
</linearGradient>
<path style="fill:url(#SVGID_00000049209178447575969120000018107317519782558368_);" d="M59.5,112.6c0.2-0.1,0.5-0.2,0.7-0.3
	c0.2,8.8,0.4,17.5,0.6,26.3c-0.4,0-0.9,0-1.3,0.1C59.5,129.9,59.5,121.2,59.5,112.6z"/>
<linearGradient id="SVGID_00000036946977581502488860000008648486520550250916_" gradientUnits="userSpaceOnUse" x1="-10609.9619" y1="348.2888" x2="-10609.9619" y2="319.7757" gradientTransform="matrix(-0.9993 -3.650000e-02 3.900000e-02 -1.0686 -10545.3594 99.4748)">
	<stop  offset="0" style="stop-color:#343434"/>
	<stop  offset="0.3541" style="stop-color:#4E4D4D"/>
	<stop  offset="0.433" style="stop-color:#676767"/>
	<stop  offset="0.5" style="stop-color:#808181"/>
	<stop  offset="0.6362" style="stop-color:#808181"/>
	<stop  offset="0.7094" style="stop-color:#808181"/>
	<stop  offset="0.7987" style="stop-color:#676767"/>
	<stop  offset="1" style="stop-color:#343434"/>
</linearGradient>
<path style="fill:url(#SVGID_00000036946977581502488860000008648486520550250916_);" d="M70.4,110.2l0.8,30.5
	c-0.4-0.7-0.7-1.5-1.1-2.2c-0.2-8.7-0.5-17.4-0.7-26.1C69.7,111.7,70,110.9,70.4,110.2z"/>
<linearGradient id="SVGID_00000096038026962127817470000005721589746786894516_" gradientUnits="userSpaceOnUse" x1="352.9907" y1="-467.4585" x2="352.9907" y2="-437.2728" gradientTransform="matrix(0.9993 3.650000e-02 3.680000e-02 -1.0081 -264.7665 -343.4416)">
	<stop  offset="0" style="stop-color:#343434"/>
	<stop  offset="0.3541" style="stop-color:#4E4D4D"/>
	<stop  offset="0.433" style="stop-color:#676767"/>
	<stop  offset="0.5" style="stop-color:#808181"/>
	<stop  offset="0.6362" style="stop-color:#A9A9AA"/>
	<stop  offset="0.7094" style="stop-color:#808181"/>
	<stop  offset="0.7987" style="stop-color:#4E4D4D"/>
	<stop  offset="1" style="stop-color:#676767"/>
</linearGradient>
<polygon style="fill:url(#SVGID_00000096038026962127817470000005721589746786894516_);" points="70.4,110.2 71.6,112.4 72.3,138.5 
	71.2,140.7 "/>
<linearGradient id="SVGID_00000038407473642630694400000000292195509725012877_" gradientUnits="userSpaceOnUse" x1="-10612.1611" y1="348.3604" x2="-10612.1611" y2="319.8472" gradientTransform="matrix(-0.9993 -3.650000e-02 3.900000e-02 -1.0686 -10545.3594 99.4748)">
	<stop  offset="0" style="stop-color:#343434"/>
	<stop  offset="0.3541" style="stop-color:#4E4D4D"/>
	<stop  offset="0.433" style="stop-color:#676767"/>
	<stop  offset="0.5" style="stop-color:#808181"/>
	<stop  offset="0.6362" style="stop-color:#808181"/>
	<stop  offset="0.7094" style="stop-color:#808181"/>
	<stop  offset="0.7987" style="stop-color:#676767"/>
	<stop  offset="1" style="stop-color:#343434"/>
</linearGradient>
<path style="fill:url(#SVGID_00000038407473642630694400000000292195509725012877_);" d="M72.6,110.2l0.8,30.5
	c-0.4-0.7-0.7-1.4-1.1-2.2c-0.2-8.7-0.5-17.4-0.7-26.1C71.9,111.7,72.3,110.9,72.6,110.2z"/>
<linearGradient id="SVGID_00000058580340874009252700000006740254506836186248_" gradientUnits="userSpaceOnUse" x1="355.1893" y1="-467.3789" x2="355.1893" y2="-437.1551" gradientTransform="matrix(0.9993 3.650000e-02 3.680000e-02 -1.0081 -264.7665 -343.4416)">
	<stop  offset="0" style="stop-color:#343434"/>
	<stop  offset="0.3541" style="stop-color:#4E4D4D"/>
	<stop  offset="0.433" style="stop-color:#676767"/>
	<stop  offset="0.5" style="stop-color:#808181"/>
	<stop  offset="0.6362" style="stop-color:#A9A9AA"/>
	<stop  offset="0.7094" style="stop-color:#808181"/>
	<stop  offset="0.7987" style="stop-color:#4E4D4D"/>
	<stop  offset="1" style="stop-color:#676767"/>
</linearGradient>
<polygon style="fill:url(#SVGID_00000058580340874009252700000006740254506836186248_);" points="72.6,110.2 73.8,112.4 74.5,138.5 
	73.4,140.7 "/>
<linearGradient id="SVGID_00000054260336331005338610000016579597782040825484_" gradientUnits="userSpaceOnUse" x1="357.307" y1="-461.825" x2="357.307" y2="-431.9811" gradientTransform="matrix(0.9993 3.650000e-02 3.710000e-02 -1.0163 -264.8281 -341.7681)">
	<stop  offset="0" style="stop-color:#343434"/>
	<stop  offset="0.3541" style="stop-color:#4E4D4D"/>
	<stop  offset="0.433" style="stop-color:#676767"/>
	<stop  offset="0.5" style="stop-color:#808181"/>
	<stop  offset="0.6362" style="stop-color:#A9A9AA"/>
	<stop  offset="0.7094" style="stop-color:#808181"/>
	<stop  offset="0.7987" style="stop-color:#4E4D4D"/>
	<stop  offset="1" style="stop-color:#676767"/>
</linearGradient>
<path style="fill:url(#SVGID_00000054260336331005338610000016579597782040825484_);" d="M74.9,110.3c0.5,0.4,1,0.9,1.5,1.3
	c0,9.3,0,18.5,0,27.8c-0.2,0.4-0.4,0.8-0.7,1.3C75.5,130.5,75.2,120.4,74.9,110.3z"/>
<linearGradient id="SVGID_00000036243904613734099270000005221548291448819892_" gradientUnits="userSpaceOnUse" x1="-10614.4316" y1="353.2997" x2="-10614.4316" y2="325.1457" gradientTransform="matrix(-0.9993 -3.650000e-02 3.930000e-02 -1.0773 -10545.6787 107.8203)">
	<stop  offset="0" style="stop-color:#343434"/>
	<stop  offset="0.3541" style="stop-color:#4E4D4D"/>
	<stop  offset="0.433" style="stop-color:#676767"/>
	<stop  offset="0.5" style="stop-color:#808181"/>
	<stop  offset="0.6362" style="stop-color:#808181"/>
	<stop  offset="0.7094" style="stop-color:#808181"/>
	<stop  offset="0.7987" style="stop-color:#676767"/>
	<stop  offset="1" style="stop-color:#343434"/>
</linearGradient>
<path style="fill:url(#SVGID_00000036243904613734099270000005221548291448819892_);" d="M74.9,110.3c0.3,10.1,0.5,20.3,0.8,30.4
	c-0.4-0.7-0.8-1.4-1.2-2.1c-0.2-8.7-0.5-17.4-0.7-26.1C74.2,111.7,74.6,111,74.9,110.3z"/>
<g>
	
		<linearGradient id="SVGID_00000080886391884933744550000009409317971589561758_" gradientUnits="userSpaceOnUse" x1="-291.2725" y1="1394.8973" x2="-291.2725" y2="1366.337" gradientTransform="matrix(-1 0 0 1 -232.6016 -1255.3229)">
		<stop  offset="0" style="stop-color:#434342"/>
		<stop  offset="0.1068" style="stop-color:#343434"/>
		<stop  offset="0.2055" style="stop-color:#2E2E2E"/>
		<stop  offset="0.3492" style="stop-color:#424244"/>
		<stop  offset="0.6732" style="stop-color:#7F8080"/>
		<stop  offset="0.9078" style="stop-color:#414142"/>
	</linearGradient>
	<path style="fill:url(#SVGID_00000080886391884933744550000009409317971589561758_);" d="M57.8,111c0.6,0.5,1.1,1,1.7,1.5
		c0,8.7,0,17.4,0,26c-0.6,0.3-1.1,0.6-1.7,1C57.8,130.1,57.8,120.5,57.8,111z"/>
	
		<linearGradient id="SVGID_00000047052013949054767760000010141912476135033990_" gradientUnits="userSpaceOnUse" x1="-290.3867" y1="1380.5767" x2="-292.0769" y2="1380.5767" gradientTransform="matrix(-1 0 0 1 -232.6016 -1255.3229)">
		<stop  offset="0" style="stop-color:#020203;stop-opacity:0"/>
		<stop  offset="0.2479" style="stop-color:#050708;stop-opacity:0.2415"/>
		<stop  offset="0.6694" style="stop-color:#18191B;stop-opacity:0.6522"/>
		<stop  offset="1" style="stop-color:#2A292A;stop-opacity:0.9744"/>
	</linearGradient>
	<path style="opacity:0.4;fill:url(#SVGID_00000047052013949054767760000010141912476135033990_);enable-background:new    ;" d="
		M57.8,111c0.6,0.5,1.1,1,1.7,1.5c0,8.7,0,17.4,0,26c-0.6,0.3-1.1,0.6-1.7,1C57.8,130.1,57.8,120.5,57.8,111z"/>
</g>
<linearGradient id="SVGID_00000162311595822325838910000011913958858128657804_" gradientUnits="userSpaceOnUse" x1="-310.0725" y1="1394.7267" x2="-310.0725" y2="1366.9266" gradientTransform="matrix(-1 0 0 1 -232.6016 -1255.3229)">
	<stop  offset="0" style="stop-color:#434342"/>
	<stop  offset="0.1068" style="stop-color:#343434"/>
	<stop  offset="0.2055" style="stop-color:#2E2E2E"/>
	<stop  offset="0.3492" style="stop-color:#424244"/>
	<stop  offset="0.6732" style="stop-color:#7F8080"/>
	<stop  offset="0.9078" style="stop-color:#414142"/>
</linearGradient>
<polygon style="fill:url(#SVGID_00000162311595822325838910000011913958858128657804_);" points="76.4,139.4 78.5,139.4 78.5,111.6 
	76.4,111.6 "/>
<linearGradient id="SVGID_00000038391860831205295150000006990505187774103691_" gradientUnits="userSpaceOnUse" x1="-312.3225" y1="1394.7267" x2="-312.3225" y2="1366.9266" gradientTransform="matrix(-1 0 0 1 -232.6016 -1255.3229)">
	<stop  offset="0" style="stop-color:#383938"/>
	<stop  offset="0.1068" style="stop-color:#2E2E2E"/>
	<stop  offset="0.2055" style="stop-color:#262626"/>
	<stop  offset="0.3492" style="stop-color:#3D3E3E"/>
	<stop  offset="0.6732" style="stop-color:#737373"/>
	<stop  offset="0.9078" style="stop-color:#3B3A3A"/>
</linearGradient>
<path style="fill:url(#SVGID_00000038391860831205295150000006990505187774103691_);" d="M78.5,111.6c0,9.3,0,18.5,0,27.8
	c0.8-0.8,1.6-1.6,2.4-2.4c0-7.7,0-15.5,0-23.2C80.2,113,79.3,112.3,78.5,111.6z"/>
<linearGradient id="SVGID_00000057861049636827040030000007410026779008342932_" gradientUnits="userSpaceOnUse" x1="58.4209" y1="1395.8267" x2="58.4209" y2="1395.8267" gradientTransform="matrix(1 0 0 1 0 -1255.3229)">
	<stop  offset="0" style="stop-color:#434342"/>
	<stop  offset="0.1068" style="stop-color:#343434"/>
	<stop  offset="0.2055" style="stop-color:#2E2E2E"/>
	<stop  offset="0.3492" style="stop-color:#424244"/>
	<stop  offset="0.6732" style="stop-color:#7F8080"/>
	<stop  offset="0.9078" style="stop-color:#414142"/>
</linearGradient>
<path style="fill:url(#SVGID_00000057861049636827040030000007410026779008342932_);" d="M58.4,140.5"/>
<linearGradient id="SVGID_00000121999671437164767980000000405579204896890553_" gradientUnits="userSpaceOnUse" x1="57.8209" y1="1366.4266" x2="57.8209" y2="1366.4266" gradientTransform="matrix(1 0 0 1 0 -1255.3229)">
	<stop  offset="0" style="stop-color:#434342"/>
	<stop  offset="0.1068" style="stop-color:#343434"/>
	<stop  offset="0.2055" style="stop-color:#2E2E2E"/>
	<stop  offset="0.3492" style="stop-color:#424244"/>
	<stop  offset="0.6732" style="stop-color:#7F8080"/>
	<stop  offset="0.9078" style="stop-color:#414142"/>
</linearGradient>
<path style="fill:url(#SVGID_00000121999671437164767980000000405579204896890553_);" d="M57.8,111.1"/>
<image style="overflow:visible;" width="200" height="200" xlink:href="../../pepsi.png"  transform="matrix(5.124420e-02 0 0 5.124420e-02 64.6785 29.8707)">
</image>
</svg>
