<?xml version="1.0" encoding="utf-8"?>
<!-- Generator: Adobe Illustrator 25.4.1, SVG Export Plug-In . SVG Version: 6.00 Build 0)  -->
<svg version="1.1" id="Слой_1" xmlns="http://www.w3.org/2000/svg" xmlns:xlink="http://www.w3.org/1999/xlink" x="0px" y="0px"
	 viewBox="0 0 100 160" style="enable-background:new 0 0 100 160;" xml:space="preserve">
<style type="text/css">
	.st0{fill:url(#SVGID_1_);}
	.st1{fill:url(#SVGID_00000106135302910108007040000010589527091701377408_);}
	.st2{fill:url(#SVGID_00000036232553792167962970000004190214343616966533_);}
	.st3{fill:url(#SVGID_00000114753970237403859130000014770288697851836818_);}
	.st4{fill:url(#SVGID_00000018939229401398276270000012143727633674171537_);}
	.st5{fill:url(#SVGID_00000083784379841843016150000003185303552484016531_);}
	.st6{fill:url(#SVGID_00000029741666729179765550000010921471388253711000_);}
	.st7{fill:url(#SVGID_00000165924862076087555600000010528009766533242522_);}
	.st8{fill:url(#SVGID_00000073692780602809667610000015242418680634173877_);}
	.st9{clip-path:url(#SVGID_00000120523996470477324080000013114807429340298682_);}
	.st10{clip-path:url(#SVGID_00000058554073663152361940000003897166957993727673_);}
	.st11{clip-path:url(#SVGID_00000098915055250111212480000007603559271636193674_);}
	.st12{fill:none;stroke:#A3A3A3;stroke-width:0.5;stroke-miterlimit:10;}
	.st13{fill:none;stroke:#000000;stroke-width:0.25;stroke-miterlimit:10;}
	.st14{fill:none;stroke:#0F0F0F;stroke-width:0.25;stroke-miterlimit:10;}
	.st15{fill:#3A3A3A;stroke:#AFAFAF;stroke-width:0.5;stroke-miterlimit:10;}
	.st16{clip-path:url(#SVGID_00000090993571890033424980000002621972227579706545_);}
	.st17{clip-path:url(#SVGID_00000142150755396371968110000003951553253683574419_);}
	.st18{fill:url(#SVGID_00000111897405086778862830000005434287428319234983_);}
	.st19{fill:url(#SVGID_00000167392904216432925490000007529104784234196405_);}
	.st20{fill:#3A3A3A;}
	.st21{fill:url(#SVGID_00000034769799411166157020000004470034268030591163_);}
	.st22{opacity:0.19;fill:url(#SVGID_00000015353179687874897770000013524828525760626082_);enable-background:new    ;}
	.st23{opacity:0.19;fill:url(#SVGID_00000111878779748541244200000013315774014476990347_);enable-background:new    ;}
	.st24{opacity:0.19;fill:url(#SVGID_00000071531844984522862790000003827459743954377394_);enable-background:new    ;}
	.st25{opacity:0.19;fill:url(#SVGID_00000051346569737276427070000005715081350385132718_);enable-background:new    ;}
</style>
<linearGradient id="SVGID_1_" gradientUnits="userSpaceOnUse" x1="66.95" y1="3278.6685" x2="66.95" y2="3218.6685" gradientTransform="matrix(1 0 0 1 0 -3214.1682)">
	<stop  offset="0" style="stop-color:#999898"/>
	<stop  offset="0.1963" style="stop-color:#4F4F4F"/>
	<stop  offset="0.2507" style="stop-color:#5B5B5B"/>
	<stop  offset="0.3499" style="stop-color:#7C7C7C"/>
	<stop  offset="0.3704" style="stop-color:#848484"/>
	<stop  offset="0.433" style="stop-color:#878787"/>
	<stop  offset="0.5974" style="stop-color:#D9D9D9"/>
	<stop  offset="0.6843" style="stop-color:#FFFFFF"/>
	<stop  offset="0.9078" style="stop-color:#B7B7B7"/>
	<stop  offset="1" style="stop-color:#C6C6C6"/>
</linearGradient>
<rect x="59.7" y="4.5" class="st0" width="14.5" height="60"/>
<linearGradient id="SVGID_00000038374813964497406000000011323232752820436654_" gradientUnits="userSpaceOnUse" x1="21.3" y1="3282.3684" x2="21.3" y2="3215.0684" gradientTransform="matrix(1 0 0 1 0 -3214.1682)">
	<stop  offset="0" style="stop-color:#ABABAB"/>
	<stop  offset="3.557613e-02" style="stop-color:#8D8D8D"/>
	<stop  offset="8.328447e-02" style="stop-color:#6D6D6D"/>
	<stop  offset="0.1326" style="stop-color:#535353"/>
	<stop  offset="0.1835" style="stop-color:#414141"/>
	<stop  offset="0.237" style="stop-color:#373737"/>
	<stop  offset="0.2974" style="stop-color:#333333"/>
	<stop  offset="0.6814" style="stop-color:#F2F2F2"/>
	<stop  offset="0.98" style="stop-color:#A3A3A3"/>
</linearGradient>
<polygon style="fill:url(#SVGID_00000038374813964497406000000011323232752820436654_);" points="26.3,68.2 20.8,68.2 16.3,64.6 
	16.3,4.6 20.8,0.9 26.3,0.9 "/>
<linearGradient id="SVGID_00000005236015696263292160000017848484119517432249_" gradientUnits="userSpaceOnUse" x1="-2859.9099" y1="3282.3684" x2="-2859.9099" y2="3215.0684" gradientTransform="matrix(-1 0 0 1 -2805.21 -3214.1682)">
	<stop  offset="0" style="stop-color:#ABABAB"/>
	<stop  offset="3.557613e-02" style="stop-color:#8D8D8D"/>
	<stop  offset="8.328447e-02" style="stop-color:#6D6D6D"/>
	<stop  offset="0.1326" style="stop-color:#535353"/>
	<stop  offset="0.1835" style="stop-color:#414141"/>
	<stop  offset="0.237" style="stop-color:#373737"/>
	<stop  offset="0.2974" style="stop-color:#333333"/>
	<stop  offset="0.6814" style="stop-color:#F2F2F2"/>
	<stop  offset="0.98" style="stop-color:#A3A3A3"/>
</linearGradient>
<polygon style="fill:url(#SVGID_00000005236015696263292160000017848484119517432249_);" points="49.7,68.2 55.2,68.2 59.7,64.6 
	59.7,4.6 55.2,0.9 49.7,0.9 "/>
<linearGradient id="SVGID_00000023260959723472007950000017199063468627608235_" gradientUnits="userSpaceOnUse" x1="38" y1="3232.7258" x2="38" y2="3215.0466" gradientTransform="matrix(1 0 0 1 0 -3214.1682)">
	<stop  offset="0" style="stop-color:#F4F4F4"/>
	<stop  offset="1" style="stop-color:#BABABA"/>
</linearGradient>
<path style="fill:url(#SVGID_00000023260959723472007950000017199063468627608235_);" d="M20.8,0.9h34.4C58,3,59.7,6.2,59.7,9.7
	s-1.7,6.8-4.5,8.8H20.8c-2.8-2.1-4.5-5.4-4.5-8.8C16.4,6.2,18,3,20.8,0.9z"/>
<linearGradient id="SVGID_00000123420146829388776560000013343495450961435787_" gradientUnits="userSpaceOnUse" x1="38" y1="3282.3684" x2="38" y2="3264.6685" gradientTransform="matrix(1 0 0 1 0 -3214.1682)">
	<stop  offset="0" style="stop-color:#727272"/>
	<stop  offset="1" style="stop-color:#4C4C4C"/>
</linearGradient>
<path style="fill:url(#SVGID_00000123420146829388776560000013343495450961435787_);" d="M20.8,50.5h34.4c4.9,3.6,6,10.4,2.4,15.3
	c-0.7,0.9-1.5,1.7-2.4,2.4H20.8c-4.9-3.6-6-10.4-2.4-15.3C19.1,52,19.9,51.2,20.8,50.5z"/>
<linearGradient id="SVGID_00000161622546788962976350000008834476494203835809_" gradientUnits="userSpaceOnUse" x1="38" y1="3264.7063" x2="38" y2="3232.7063" gradientTransform="matrix(1 0 0 1 0 -3214.1682)">
	<stop  offset="0" style="stop-color:#B3B3B3"/>
	<stop  offset="1" style="stop-color:#B3B3B3"/>
</linearGradient>
<path style="fill:url(#SVGID_00000161622546788962976350000008834476494203835809_);" d="M20.8,18.6h34.4c0,0,4.5,5,4.5,16
	s-4.5,16-4.5,16H20.8c0,0-4.5-5-4.5-16S20.8,18.6,20.8,18.6z"/>
<linearGradient id="SVGID_00000072990106075068824130000000988088601100762776_" gradientUnits="userSpaceOnUse" x1="77.35" y1="3263.0684" x2="77.35" y2="3234.2009" gradientTransform="matrix(1 0 0 1 0 -3214.1682)">
	<stop  offset="0" style="stop-color:#999898"/>
	<stop  offset="0.1963" style="stop-color:#4F4F4F"/>
	<stop  offset="0.2507" style="stop-color:#5B5B5B"/>
	<stop  offset="0.3499" style="stop-color:#7C7C7C"/>
	<stop  offset="0.3704" style="stop-color:#848484"/>
	<stop  offset="0.433" style="stop-color:#878787"/>
	<stop  offset="0.5974" style="stop-color:#D9D9D9"/>
	<stop  offset="0.6843" style="stop-color:#FFFFFF"/>
	<stop  offset="0.9078" style="stop-color:#B7B7B7"/>
	<stop  offset="1" style="stop-color:#C6C6C6"/>
</linearGradient>
<rect x="76" y="20" style="fill:url(#SVGID_00000072990106075068824130000000988088601100762776_);" width="2.7" height="28.9"/>
<linearGradient id="SVGID_00000103979359159254279300000010070105088448519615_" gradientUnits="userSpaceOnUse" x1="75.15" y1="3264.8684" x2="75.15" y2="3232.3684" gradientTransform="matrix(1 0 0 1 0 -3214.1682)">
	<stop  offset="0" style="stop-color:#999898"/>
	<stop  offset="0.1963" style="stop-color:#4F4F4F"/>
	<stop  offset="0.2507" style="stop-color:#5B5B5B"/>
	<stop  offset="0.3499" style="stop-color:#7C7C7C"/>
	<stop  offset="0.3704" style="stop-color:#848484"/>
	<stop  offset="0.433" style="stop-color:#878787"/>
	<stop  offset="0.5974" style="stop-color:#D9D9D9"/>
	<stop  offset="0.6843" style="stop-color:#FFFFFF"/>
	<stop  offset="0.9078" style="stop-color:#B7B7B7"/>
	<stop  offset="1" style="stop-color:#C6C6C6"/>
</linearGradient>
<rect x="74.2" y="18.2" style="fill:url(#SVGID_00000103979359159254279300000010070105088448519615_);" width="1.9" height="32.5"/>
<linearGradient id="SVGID_00000039120264348246735550000007286790784337430176_" gradientUnits="userSpaceOnUse" x1="81.2" y1="3264.8684" x2="81.2" y2="3232.4131" gradientTransform="matrix(1 0 0 1 0 -3214.1682)">
	<stop  offset="0" style="stop-color:#999898"/>
	<stop  offset="0.1963" style="stop-color:#4F4F4F"/>
	<stop  offset="0.2507" style="stop-color:#5B5B5B"/>
	<stop  offset="0.3499" style="stop-color:#7C7C7C"/>
	<stop  offset="0.3704" style="stop-color:#848484"/>
	<stop  offset="0.433" style="stop-color:#878787"/>
	<stop  offset="0.5974" style="stop-color:#D9D9D9"/>
	<stop  offset="0.6843" style="stop-color:#FFFFFF"/>
	<stop  offset="0.9078" style="stop-color:#B7B7B7"/>
	<stop  offset="1" style="stop-color:#C6C6C6"/>
</linearGradient>
<polygon style="fill:url(#SVGID_00000039120264348246735550000007286790784337430176_);" points="83.7,48.4 81.4,50.7 78.7,50.7 
	78.7,18.2 81.4,18.2 83.7,20.5 "/>
<g>
	<g>
		<defs>
			<polygon id="SVGID_00000063602322386726096450000002036311085508183202_" points="16.3,95.5 20.8,91.8 55.2,91.8 59.7,95.5 
				74.2,95.5 74.2,155.5 59.7,155.5 55.2,159.1 20.8,159.1 16.3,155.5 			"/>
		</defs>
		<clipPath id="SVGID_00000019635717657270364600000001358333869243361726_">
			<use xlink:href="#SVGID_00000063602322386726096450000002036311085508183202_"  style="overflow:visible;"/>
		</clipPath>
		<g style="clip-path:url(#SVGID_00000019635717657270364600000001358333869243361726_);">
			
				<image style="overflow:visible;enable-background:new    ;" width="600" height="600" xlink:href="23AE234B.jpeg"  transform="matrix(0.1427 0 0 0.1427 3.6517 82.6518)">
			</image>
		</g>
	</g>
	<g>
		<defs>
			<polygon id="SVGID_00000163766092547559806030000000200456772893822865_" points="16.3,95.5 20.8,91.8 55.2,91.8 59.7,95.5 
				74.2,95.5 74.2,155.5 59.7,155.5 55.2,159.1 20.8,159.1 16.3,155.5 			"/>
		</defs>
		<clipPath id="SVGID_00000154405241140768127300000006508045035334563712_">
			<use xlink:href="#SVGID_00000163766092547559806030000000200456772893822865_"  style="overflow:visible;"/>
		</clipPath>
		<g style="clip-path:url(#SVGID_00000154405241140768127300000006508045035334563712_);">
			<g>
				<g>
					<defs>
						<polygon id="SVGID_00000139294589094503873470000002803225708700296116_" points="16.3,95.5 20.8,91.8 55.2,91.8 59.7,95.5 
							74.2,95.5 74.2,155.5 59.7,155.5 55.2,159.1 20.8,159.1 16.3,155.5 						"/>
					</defs>
					<clipPath id="SVGID_00000182515026061633341210000007512603958580104880_">
						<use xlink:href="#SVGID_00000139294589094503873470000002803225708700296116_"  style="overflow:visible;"/>
					</clipPath>
					<g style="clip-path:url(#SVGID_00000182515026061633341210000007512603958580104880_);">
						<g transform="translate(-69.59 254.42) rotate(-45) scale(0.31)">
							
								<image style="overflow:visible;enable-background:new    ;" width="600" height="600" id="image-2" xlink:href="23AE2349.jpeg"  transform="matrix(0.2117 2.259544e-04 -2.259544e-04 0.2117 -52.0011 32.6552)">
							</image>
						</g>
					</g>
				</g>
				<g>
					<polygon id="SVGID_00000170964115372950705520000009181066050791261364_" class="st12" points="16.3,95.5 20.8,91.8 55.2,91.8 
						59.7,95.5 74.2,95.5 74.2,155.5 59.7,155.5 55.2,159.1 20.8,159.1 16.3,155.5 					"/>
				</g>
			</g>
			<g>
				<polygon id="SVGID_00000071523480981025047190000011923193126909190822_" class="st12" points="16.3,95.5 20.8,91.8 55.2,91.8 
					59.7,95.5 74.2,95.5 74.2,155.5 59.7,155.5 55.2,159.1 20.8,159.1 16.3,155.5 				"/>
			</g>
		</g>
	</g>
	<g>
		<polygon id="SVGID_00000049930862017519782710000008647217316326777480_" class="st12" points="16.3,95.5 20.8,91.8 55.2,91.8 
			59.7,95.5 74.2,95.5 74.2,155.5 59.7,155.5 55.2,159.1 20.8,159.1 16.3,155.5 		"/>
	</g>
</g>
<polyline class="st13" points="16.4,149.1 17.6,150.5 19.9,147.3 "/>
<polyline class="st13" points="19.9,100.2 17.6,103.6 16.4,101.9 "/>
<polyline class="st14" points="19.9,147.3 22.5,150.5 24.8,147.2 27.4,150.5 29.7,147.2 32.4,150.5 34.7,147.1 37.3,150.5 39.6,147 
	42.3,150.5 44.6,147 46.5,148.8 47.3,147.1 51.8,147.1 51.8,103.6 47.3,103.6 44.6,101.5 42.3,103.3 39.7,100.2 37.4,103.3 
	34.8,100.2 32.5,103.3 29.8,100.2 27.5,103.4 24.9,100.2 22.6,103.5 19.9,100.2 "/>
<path class="st15" d="M47.3,103.6c-0.9-0.7-1.8-1.4-2.7-2.1l-2.3,1.8c-0.9-1-1.8-2-2.6-3.1c-0.8,1-1.5,2-2.3,3.1l-2.6-3.1l-2.3,3.1
	l-2.6-3.1l-2.3,3.2l-2.6-3.2l-2.3,3.3l-2.6-3.3l-2.3,3.3l-1.3-1.6v24.7V149l1.2,1.5l2.3-3.2l0,0l0,0c0.9,1.1,1.8,2.2,2.6,3.2
	l2.3-3.3l2.6,3.3l2.3-3.4l2.6,3.4l2.3-3.4l2.6,3.4l2.3-3.5c0.9,1.2,1.8,2.3,2.7,3.5l2.3-3.5c0.6,0.6,1.3,1.2,1.9,1.8l0.9-1.7h4.5
	v-43.5C51.9,103.6,47.3,103.6,47.3,103.6z"/>
<g>
	<g>
		<g>
			<g>
				<defs>
					<polygon id="SVGID_00000129193068538938344460000009220758143260045220_" points="60,146.9 49.6,146.9 37.1,142.3 37.1,108.4 
						49.6,103.9 60,103.9 61.4,109.1 76,109.1 76,110.9 78.7,110.9 78.7,109.2 81.4,109.2 83.7,111.5 83.7,139.3 81.4,141.6 
						78.7,141.6 78.7,139.8 76,139.8 76,141.6 74.2,141.6 61.4,141.6 					"/>
				</defs>
				<clipPath id="SVGID_00000114794967095287138720000015414933721483241660_">
					<use xlink:href="#SVGID_00000129193068538938344460000009220758143260045220_"  style="overflow:visible;"/>
				</clipPath>
				<g style="clip-path:url(#SVGID_00000114794967095287138720000015414933721483241660_);">
					<g transform="translate(-99.47 269.62) rotate(-45) scale(0.42)">
						
							<image style="overflow:visible;enable-background:new    ;" width="600" height="600" id="image_00000088091963816186961090000006676742076957640580_" xlink:href="23AE234F.jpeg"  transform="matrix(0.2097 9.626124e-03 -9.626124e-03 0.2097 28.758 98.0989)">
						</image>
					</g>
				</g>
			</g>
		</g>
	</g>
</g>
<g>
	<g>
		<g>
			<defs>
				<polygon id="SVGID_00000018917199993918872000000016076859160591310267_" points="60,146.9 49.6,146.9 37.1,142.3 37.1,108.4 
					49.6,103.9 60,103.9 61.4,109.1 76,109.1 76,110.9 78.7,110.9 78.7,109.2 81.4,109.2 83.7,111.5 83.7,139.3 81.4,141.6 
					78.7,141.6 78.7,139.8 76,139.8 76,141.6 74.2,141.6 61.4,141.6 				"/>
			</defs>
			<clipPath id="SVGID_00000096776599288133111950000012317691097977170098_">
				<use xlink:href="#SVGID_00000018917199993918872000000016076859160591310267_"  style="overflow:visible;"/>
			</clipPath>
			<g style="clip-path:url(#SVGID_00000096776599288133111950000012317691097977170098_);">
				
					<image style="overflow:visible;enable-background:new    ;" width="600" height="600" xlink:href="23AE2349.jpeg"  transform="matrix(0.207 0 0 0.207 34.2 101.6789)">
				</image>
			</g>
		</g>
		<g>
			<polygon id="SVGID_00000010297026563848358680000001720998314994932917_" class="st12" points="60,146.9 49.6,146.9 37.1,142.3 
				37.1,108.4 49.6,103.9 60,103.9 61.4,109.1 76,109.1 76,110.9 78.7,110.9 78.7,109.2 81.4,109.2 83.7,111.5 83.7,139.3 
				81.4,141.6 78.7,141.6 78.7,139.8 76,139.8 76,141.6 74.2,141.6 61.4,141.6 			"/>
		</g>
	</g>
</g>
<linearGradient id="SVGID_00000147214504505845219800000013021007437712123037_" gradientUnits="userSpaceOnUse" x1="46.45" y1="3354.0168" x2="46.45" y2="3325.1169" gradientTransform="matrix(1 0 0 1 0 -3214.1682)">
	<stop  offset="0" style="stop-color:#424242"/>
	<stop  offset="0.1068" style="stop-color:#333333"/>
	<stop  offset="0.2055" style="stop-color:#2D2D2D"/>
	<stop  offset="0.3492" style="stop-color:#424244"/>
	<stop  offset="0.6732" style="stop-color:#7F7F7F"/>
	<stop  offset="0.9078" style="stop-color:#414042"/>
</linearGradient>
<polyline style="fill:url(#SVGID_00000147214504505845219800000013021007437712123037_);" points="53.7,110.9 39.2,110.9 
	39.3,139.8 53.7,139.8 "/>
<linearGradient id="SVGID_00000098187723619951915950000016478718175145346714_" gradientUnits="userSpaceOnUse" x1="38.1" y1="3356.0684" x2="38.1" y2="3322.9683" gradientTransform="matrix(1 0 0 1 0 -3214.1682)">
	<stop  offset="0" style="stop-color:#3A3A3A"/>
	<stop  offset="0.2055" style="stop-color:#262626"/>
	<stop  offset="0.6732" style="stop-color:#636363"/>
	<stop  offset="0.9078" style="stop-color:#383838"/>
</linearGradient>
<polygon style="fill:url(#SVGID_00000098187723619951915950000016478718175145346714_);" points="39.3,110.9 36.9,108.8 36.9,141.9 
	39.3,139.8 "/>
<rect x="76.1" y="106.1" class="st20" width="2.7" height="4.7"/>
<rect x="76.1" y="139.8" class="st20" width="2.7" height="4.7"/>
<linearGradient id="SVGID_00000066486525083016410350000012048267990097151642_" gradientUnits="userSpaceOnUse" x1="58.25" y1="3354.0168" x2="58.25" y2="3325.0247" gradientTransform="matrix(1 0 0 1 0 -3214.1682)">
	<stop  offset="0" style="stop-color:#3A3A3A"/>
	<stop  offset="0.2055" style="stop-color:#262626"/>
	<stop  offset="0.6732" style="stop-color:#636363"/>
	<stop  offset="0.9078" style="stop-color:#383838"/>
</linearGradient>
<polygon style="fill:url(#SVGID_00000066486525083016410350000012048267990097151642_);" points="53.7,139.8 53.7,110.9 62.8,124.9 
	"/>
<linearGradient id="SVGID_00000029010560582798339710000010953359710764656061_" gradientUnits="userSpaceOnUse" x1="-1676.4617" y1="3361.145" x2="-1678.6479" y2="3361.145" gradientTransform="matrix(3.7581 6.509233e-06 0 0.8919 6368.2251 -2963.3943)">
	<stop  offset="0" style="stop-color:#000000;stop-opacity:0"/>
	<stop  offset="1" style="stop-color:#000000"/>
</linearGradient>
<rect x="59.7" y="4.5" style="opacity:0.19;fill:url(#SVGID_00000029010560582798339710000010953359710764656061_);enable-background:new    ;" width="8.3" height="59.8"/>
<linearGradient id="SVGID_00000029030491835932456540000005792034272611968904_" gradientUnits="userSpaceOnUse" x1="-1674.3016" y1="3361.2012" x2="-1674.7976" y2="3361.2012" gradientTransform="matrix(3.7581 6.509233e-06 0 0.8919 6368.2251 -2963.3943)">
	<stop  offset="0" style="stop-color:#000000;stop-opacity:0"/>
	<stop  offset="1" style="stop-color:#000000"/>
</linearGradient>
<rect x="74.2" y="18.2" style="opacity:0.19;fill:url(#SVGID_00000029030491835932456540000005792034272611968904_);enable-background:new    ;" width="1.9" height="32.5"/>
<linearGradient id="SVGID_00000083090088992407185840000004081055896029429907_" gradientUnits="userSpaceOnUse" x1="-1673.5837" y1="3361.145" x2="-1674.2993" y2="3361.145" gradientTransform="matrix(3.7581 6.509233e-06 0 0.8919 6368.2251 -2963.3943)">
	<stop  offset="0" style="stop-color:#000000;stop-opacity:0"/>
	<stop  offset="1" style="stop-color:#000000"/>
</linearGradient>
<rect x="76" y="20" style="opacity:0.19;fill:url(#SVGID_00000083090088992407185840000004081055896029429907_);enable-background:new    ;" width="2.7" height="28.8"/>
<linearGradient id="SVGID_00000026884554278737240500000006245511701627017603_" gradientUnits="userSpaceOnUse" x1="-2284.8169" y1="-250.8448" x2="-2285.2522" y2="-250.8448" gradientTransform="matrix(-3.7581 -6.509233e-06 0 -0.8919 -8509.4678 -189.3433)">
	<stop  offset="0" style="stop-color:#000000;stop-opacity:0"/>
	<stop  offset="1" style="stop-color:#000000"/>
</linearGradient>
<rect x="77.1" y="20" style="opacity:0.19;fill:url(#SVGID_00000026884554278737240500000006245511701627017603_);enable-background:new    ;" width="1.6" height="28.8"/>
<path class="st15" d="M40.3,166.5"/>
<image style="overflow:visible;" width="200" height="200" xlink:href="../../pepsi.png"  transform="matrix(4.404255e-02 0 0 4.404255e-02 62.5457 30.0458)">
</image>
</svg>
