<?xml version="1.0" encoding="utf-8"?>
<!-- Generator: Adobe Illustrator 25.4.1, SVG Export Plug-In . SVG Version: 6.00 Build 0)  -->
<svg version="1.1" id="Слой_1" xmlns="http://www.w3.org/2000/svg" xmlns:xlink="http://www.w3.org/1999/xlink" x="0px" y="0px"
	 viewBox="0 0 100 160" style="enable-background:new 0 0 100 160;" xml:space="preserve">
<style type="text/css">
	.st0{fill:url(#SVGID_1_);}
	.st1{fill:url(#SVGID_00000138548310849430890190000000631749743664891785_);}
	.st2{fill:url(#SVGID_00000147185422553795903950000013441668577196512701_);}
	.st3{fill:url(#SVGID_00000143610975283732485350000011747929906786825628_);}
	.st4{fill:url(#SVGID_00000141423652991929174080000004609670919019798913_);}
	.st5{fill:url(#SVGID_00000181768424616137131770000015078869777808383890_);}
	.st6{fill:url(#SVGID_00000080914160548456465190000018122850088994130859_);}
	.st7{fill:url(#SVGID_00000055687275864663726040000002969988940823822484_);}
	.st8{fill:url(#SVGID_00000086672177339753733450000010012374831622512314_);}
	.st9{fill:url(#SVGID_00000114758539813691987690000010075227707136546734_);}
	.st10{fill:url(#SVGID_00000005986246654249451520000012217771348160817798_);}
	.st11{fill:url(#SVGID_00000078735725798863832770000011051264977749722006_);}
	.st12{fill:url(#SVGID_00000122719430415246438420000009967743484029555135_);}
	.st13{fill:url(#SVGID_00000032648711690998006130000014126596625907495317_);}
	.st14{fill:url(#SVGID_00000048471312574078911670000010267897204691366042_);}
	.st15{fill:url(#SVGID_00000146466447378275586310000003643014355700378543_);}
	.st16{fill:url(#SVGID_00000083056707755526218440000014907406099795043993_);}
	.st17{fill:url(#SVGID_00000181081539725291361380000006816313623069040009_);}
	.st18{fill:url(#SVGID_00000159469513834108847680000012148440858678993844_);}
	.st19{fill:url(#SVGID_00000000198969322441247640000002296753095527921836_);}
	.st20{fill:url(#SVGID_00000043440288870158546430000007705359313438249856_);}
	.st21{fill:url(#SVGID_00000018218344143204040270000015866505393316044430_);}
	.st22{fill:url(#SVGID_00000030478340333142948150000014487231869099243950_);}
	.st23{fill:url(#SVGID_00000169550057421977100800000002680615749546875834_);}
	.st24{fill:url(#SVGID_00000039821269260212288950000015873258915004393099_);}
	.st25{fill:url(#SVGID_00000057130214144217975730000009936660126438058412_);}
	.st26{fill:url(#SVGID_00000051383008410311332460000008720163181947382970_);}
	.st27{fill:url(#SVGID_00000142895046249294070730000003888939519957072794_);}
	.st28{fill:url(#SVGID_00000004505763388878925440000016953724586266158758_);}
	.st29{clip-path:url(#SVGID_00000104681706393480196740000015051924983819171206_);}
	.st30{fill:none;stroke:#969696;stroke-width:0.5;stroke-miterlimit:10;}
	.st31{fill:#333333;}
	.st32{clip-path:url(#SVGID_00000057867046890952658330000009084265457890078904_);}
	.st33{fill:#DEDBDB;}
	.st34{fill:#CAC7C6;}
	.st35{fill:#54504E;}
	.st36{fill:none;}
	.st37{fill:url(#SVGID_00000011027244114261165480000008620290397280672690_);}
	.st38{fill:url(#SVGID_00000091010845293703134370000007553194941899096979_);}
	.st39{fill:url(#SVGID_00000078763262015847571520000005067992643402214819_);}
	.st40{fill:url(#SVGID_00000051374877313445345230000000296348255483233705_);}
	.st41{opacity:0.54;enable-background:new    ;}
	.st42{opacity:0.74;fill:#333333;enable-background:new    ;}
	.st43{opacity:0.54;fill:#333333;enable-background:new    ;}
	.st44{fill:url(#SVGID_00000146479210048447190110000013186531820622250115_);}
	.st45{fill:url(#SVGID_00000070110047019759635130000007066343657969745585_);}
	.st46{fill:url(#SVGID_00000111897451627649708920000013776119502499246769_);}
	.st47{fill:url(#SVGID_00000052102001797260292400000018307779223780849588_);}
</style>
<linearGradient id="SVGID_1_" gradientUnits="userSpaceOnUse" x1="139.4603" y1="127.4915" x2="139.4603" y2="165.6896" gradientTransform="matrix(1 0 0 -1 -133.89 192.44)">
	<stop  offset="0" style="stop-color:#999898"/>
	<stop  offset="0.1963" style="stop-color:#4F4F4F"/>
	<stop  offset="0.2507" style="stop-color:#5B5B5B"/>
	<stop  offset="0.3499" style="stop-color:#7C7C7C"/>
	<stop  offset="0.3704" style="stop-color:#848484"/>
	<stop  offset="0.433" style="stop-color:#878787"/>
	<stop  offset="0.5974" style="stop-color:#D9D9D9"/>
	<stop  offset="0.6843" style="stop-color:#FFFFFF"/>
	<stop  offset="0.9078" style="stop-color:#B7B7B7"/>
	<stop  offset="1" style="stop-color:#C6C6C6"/>
</linearGradient>
<path class="st0" d="M1.5,26.8h8.7l0,0v38.2l0,0H1.5c-0.3,0-0.6-0.3-0.6-0.6V27.3C1,27,1.2,26.8,1.5,26.8z"/>
<linearGradient id="SVGID_00000173135169385860851730000006302141184541922703_" gradientUnits="userSpaceOnUse" x1="48.137" y1="92.3404" x2="48.137" y2="136.5198" gradientTransform="matrix(1 0 0 -1 0 160.25)">
	<stop  offset="0" style="stop-color:#ABABAB"/>
	<stop  offset="3.557613e-02" style="stop-color:#8D8D8D"/>
	<stop  offset="8.328447e-02" style="stop-color:#6D6D6D"/>
	<stop  offset="0.1326" style="stop-color:#535353"/>
	<stop  offset="0.1835" style="stop-color:#414141"/>
	<stop  offset="0.237" style="stop-color:#373737"/>
	<stop  offset="0.2974" style="stop-color:#333333"/>
	<stop  offset="0.6814" style="stop-color:#F2F2F2"/>
	<stop  offset="0.98" style="stop-color:#A3A3A3"/>
</linearGradient>
<polygon style="fill:url(#SVGID_00000173135169385860851730000006302141184541922703_);" points="50.1,67.9 47.9,67.9 46.2,65.5 
	46.2,26.2 47.9,23.7 50.1,23.7 "/>
<linearGradient id="SVGID_00000047775092783283652910000009374407734414103195_" gradientUnits="userSpaceOnUse" x1="-3442.8042" y1="92.3404" x2="-3442.8042" y2="136.5198" gradientTransform="matrix(-1 0 0 -1 -3381.51 160.25)">
	<stop  offset="0" style="stop-color:#ABABAB"/>
	<stop  offset="3.557613e-02" style="stop-color:#8D8D8D"/>
	<stop  offset="8.328447e-02" style="stop-color:#6D6D6D"/>
	<stop  offset="0.1326" style="stop-color:#535353"/>
	<stop  offset="0.1835" style="stop-color:#414141"/>
	<stop  offset="0.237" style="stop-color:#373737"/>
	<stop  offset="0.2974" style="stop-color:#333333"/>
	<stop  offset="0.6814" style="stop-color:#F2F2F2"/>
	<stop  offset="0.98" style="stop-color:#A3A3A3"/>
</linearGradient>
<polygon style="fill:url(#SVGID_00000047775092783283652910000009374407734414103195_);" points="59.3,67.9 61.5,67.9 63.3,65.5 
	63.3,26.2 61.5,23.7 59.3,23.7 "/>
<linearGradient id="SVGID_00000160888068856702226920000014998580990105459606_" gradientUnits="userSpaceOnUse" x1="54.7156" y1="124.916" x2="54.7156" y2="136.5198" gradientTransform="matrix(1 0 0 -1 0 160.25)">
	<stop  offset="0" style="stop-color:#F4F4F4"/>
	<stop  offset="1" style="stop-color:#BABABA"/>
</linearGradient>
<path style="fill:url(#SVGID_00000160888068856702226920000014998580990105459606_);" d="M47.9,23.7h13.5c0,0,1.8,2,1.8,5.8
	s-1.8,5.8-1.8,5.8H47.9c0,0-1.8-2-1.8-5.8S47.9,23.7,47.9,23.7z"/>
<linearGradient id="SVGID_00000062881519371459397380000004848181394373795471_" gradientUnits="userSpaceOnUse" x1="54.7156" y1="92.3404" x2="54.7156" y2="103.9441" gradientTransform="matrix(1 0 0 -1 0 160.25)">
	<stop  offset="0" style="stop-color:#727272"/>
	<stop  offset="1" style="stop-color:#4C4C4C"/>
</linearGradient>
<path style="fill:url(#SVGID_00000062881519371459397380000004848181394373795471_);" d="M47.9,56.3h13.5c0,0,1.8,2,1.8,5.8
	s-1.8,5.8-1.8,5.8H47.9c0,0-1.8-2-1.8-5.8S47.9,56.3,47.9,56.3z"/>
<linearGradient id="SVGID_00000030471604578409101530000003275453678932641981_" gradientUnits="userSpaceOnUse" x1="54.7156" y1="103.9441" x2="54.7156" y2="124.916" gradientTransform="matrix(1 0 0 -1 0 160.25)">
	<stop  offset="0" style="stop-color:#B3B3B3"/>
	<stop  offset="1" style="stop-color:#B3B3B3"/>
</linearGradient>
<path style="fill:url(#SVGID_00000030471604578409101530000003275453678932641981_);" d="M47.9,35.3h13.5c0,0,1.8,3.3,1.8,10.5
	s-1.8,10.5-1.8,10.5H47.9c0,0-1.8-3.3-1.8-10.5S47.9,35.3,47.9,35.3z"/>
<linearGradient id="SVGID_00000155147719268433737160000001107589874138702271_" gradientUnits="userSpaceOnUse" x1="25.2202" y1="140.8921" x2="25.2202" y2="110.9787" gradientTransform="matrix(1 0 0 -1.06 0.49 179.2675)">
	<stop  offset="0" style="stop-color:#686868"/>
	<stop  offset="6.000000e-02" style="stop-color:#595959"/>
	<stop  offset="0.22" style="stop-color:#898989"/>
	<stop  offset="0.27" style="stop-color:#7C7C7C"/>
	<stop  offset="0.34" style="stop-color:#898989"/>
	<stop  offset="0.73" style="stop-color:#D8D8D8"/>
	<stop  offset="0.82" style="stop-color:#A5A5A5"/>
	<stop  offset="0.86" style="stop-color:#BABABA"/>
	<stop  offset="0.88" style="stop-color:#A8A8A8"/>
	<stop  offset="0.93" style="stop-color:#BBBABB"/>
	<stop  offset="1" style="stop-color:#606060"/>
</linearGradient>
<polygon style="fill:url(#SVGID_00000155147719268433737160000001107589874138702271_);" points="26,61.7 24.3,30 25.6,32.1 
	27.1,59.6 "/>
<linearGradient id="SVGID_00000021836092747188750910000007216379329812481456_" gradientUnits="userSpaceOnUse" x1="26.5233" y1="110.966" x2="26.5233" y2="140.8794" gradientTransform="matrix(1 0 0 -1.06 0.49 179.2675)">
	<stop  offset="0" style="stop-color:#686868"/>
	<stop  offset="6.000000e-02" style="stop-color:#424242"/>
	<stop  offset="0.22" style="stop-color:#898989"/>
	<stop  offset="0.27" style="stop-color:#7C7C7C"/>
	<stop  offset="0.34" style="stop-color:#898989"/>
	<stop  offset="0.41" style="stop-color:#C6C6C6"/>
	<stop  offset="0.47" style="stop-color:#F4F4F4"/>
	<stop  offset="0.52" style="stop-color:#D6D6D6"/>
	<stop  offset="0.55" style="stop-color:#D3D3D3"/>
	<stop  offset="0.59" style="stop-color:#F9F9F9"/>
	<stop  offset="0.61" style="stop-color:#F9F9F9"/>
	<stop  offset="0.66" style="stop-color:#FFFFFF"/>
	<stop  offset="0.69" style="stop-color:#FFFFFF"/>
	<stop  offset="0.73" style="stop-color:#D8D8D8"/>
	<stop  offset="0.82" style="stop-color:#A5A5A5"/>
	<stop  offset="0.86" style="stop-color:#BABABA"/>
	<stop  offset="0.88" style="stop-color:#A8A8A8"/>
	<stop  offset="0.93" style="stop-color:#BBBABB"/>
	<stop  offset="1" style="stop-color:#606060"/>
</linearGradient>
<polygon style="fill:url(#SVGID_00000021836092747188750910000007216379329812481456_);" points="28.4,61.7 27.1,59.6 25.6,32.1 
	26.7,30 "/>
<linearGradient id="SVGID_00000117653346899256448590000014154785510579732634_" gradientUnits="userSpaceOnUse" x1="27.6076" y1="140.9" x2="27.6076" y2="110.9866" gradientTransform="matrix(1 0 0 -1.06 0.49 179.2675)">
	<stop  offset="0" style="stop-color:#686868"/>
	<stop  offset="6.000000e-02" style="stop-color:#595959"/>
	<stop  offset="0.22" style="stop-color:#898989"/>
	<stop  offset="0.27" style="stop-color:#7C7C7C"/>
	<stop  offset="0.34" style="stop-color:#898989"/>
	<stop  offset="0.73" style="stop-color:#D8D8D8"/>
	<stop  offset="0.82" style="stop-color:#A5A5A5"/>
	<stop  offset="0.86" style="stop-color:#BABABA"/>
	<stop  offset="0.88" style="stop-color:#A8A8A8"/>
	<stop  offset="0.93" style="stop-color:#BBBABB"/>
	<stop  offset="1" style="stop-color:#606060"/>
</linearGradient>
<polygon style="fill:url(#SVGID_00000117653346899256448590000014154785510579732634_);" points="28.4,61.7 26.7,30 28,32.1 
	29.5,59.6 "/>
<linearGradient id="SVGID_00000109727879464778932660000016747796473219142283_" gradientUnits="userSpaceOnUse" x1="28.9107" y1="110.9739" x2="28.9107" y2="140.8873" gradientTransform="matrix(1 0 0 -1.06 0.49 179.2675)">
	<stop  offset="0" style="stop-color:#686868"/>
	<stop  offset="6.000000e-02" style="stop-color:#424242"/>
	<stop  offset="0.22" style="stop-color:#898989"/>
	<stop  offset="0.27" style="stop-color:#7C7C7C"/>
	<stop  offset="0.34" style="stop-color:#898989"/>
	<stop  offset="0.41" style="stop-color:#C6C6C6"/>
	<stop  offset="0.47" style="stop-color:#F4F4F4"/>
	<stop  offset="0.52" style="stop-color:#D6D6D6"/>
	<stop  offset="0.55" style="stop-color:#D3D3D3"/>
	<stop  offset="0.59" style="stop-color:#F9F9F9"/>
	<stop  offset="0.61" style="stop-color:#F9F9F9"/>
	<stop  offset="0.66" style="stop-color:#FFFFFF"/>
	<stop  offset="0.69" style="stop-color:#FFFFFF"/>
	<stop  offset="0.73" style="stop-color:#D8D8D8"/>
	<stop  offset="0.82" style="stop-color:#A5A5A5"/>
	<stop  offset="0.86" style="stop-color:#BABABA"/>
	<stop  offset="0.88" style="stop-color:#A8A8A8"/>
	<stop  offset="0.93" style="stop-color:#BBBABB"/>
	<stop  offset="1" style="stop-color:#606060"/>
</linearGradient>
<polygon style="fill:url(#SVGID_00000109727879464778932660000016747796473219142283_);" points="30.8,61.7 29.5,59.6 28,32.1 
	29.1,30 "/>
<linearGradient id="SVGID_00000063606639504846180460000013353102281047991971_" gradientUnits="userSpaceOnUse" x1="29.995" y1="140.9079" x2="29.995" y2="110.9944" gradientTransform="matrix(1 0 0 -1.06 0.49 179.2675)">
	<stop  offset="0" style="stop-color:#686868"/>
	<stop  offset="6.000000e-02" style="stop-color:#595959"/>
	<stop  offset="0.22" style="stop-color:#898989"/>
	<stop  offset="0.27" style="stop-color:#7C7C7C"/>
	<stop  offset="0.34" style="stop-color:#898989"/>
	<stop  offset="0.73" style="stop-color:#D8D8D8"/>
	<stop  offset="0.82" style="stop-color:#A5A5A5"/>
	<stop  offset="0.86" style="stop-color:#BABABA"/>
	<stop  offset="0.88" style="stop-color:#A8A8A8"/>
	<stop  offset="0.93" style="stop-color:#BBBABB"/>
	<stop  offset="1" style="stop-color:#606060"/>
</linearGradient>
<polygon style="fill:url(#SVGID_00000063606639504846180460000013353102281047991971_);" points="30.8,61.7 29.1,30 30.4,32.1 
	31.9,59.6 "/>
<linearGradient id="SVGID_00000121247255719853500690000001583609884065207460_" gradientUnits="userSpaceOnUse" x1="31.2981" y1="110.9818" x2="31.2981" y2="140.8952" gradientTransform="matrix(1 0 0 -1.06 0.49 179.2675)">
	<stop  offset="0" style="stop-color:#686868"/>
	<stop  offset="6.000000e-02" style="stop-color:#424242"/>
	<stop  offset="0.22" style="stop-color:#898989"/>
	<stop  offset="0.27" style="stop-color:#7C7C7C"/>
	<stop  offset="0.34" style="stop-color:#898989"/>
	<stop  offset="0.41" style="stop-color:#C6C6C6"/>
	<stop  offset="0.47" style="stop-color:#F4F4F4"/>
	<stop  offset="0.52" style="stop-color:#D6D6D6"/>
	<stop  offset="0.55" style="stop-color:#D3D3D3"/>
	<stop  offset="0.59" style="stop-color:#F9F9F9"/>
	<stop  offset="0.61" style="stop-color:#F9F9F9"/>
	<stop  offset="0.66" style="stop-color:#FFFFFF"/>
	<stop  offset="0.69" style="stop-color:#FFFFFF"/>
	<stop  offset="0.73" style="stop-color:#D8D8D8"/>
	<stop  offset="0.82" style="stop-color:#A5A5A5"/>
	<stop  offset="0.86" style="stop-color:#BABABA"/>
	<stop  offset="0.88" style="stop-color:#A8A8A8"/>
	<stop  offset="0.93" style="stop-color:#BBBABB"/>
	<stop  offset="1" style="stop-color:#606060"/>
</linearGradient>
<polygon style="fill:url(#SVGID_00000121247255719853500690000001583609884065207460_);" points="33.2,61.7 31.9,59.6 30.4,32.1 
	31.5,30 "/>
<linearGradient id="SVGID_00000054957713484717041860000010352951500460315818_" gradientUnits="userSpaceOnUse" x1="32.3804" y1="140.9118" x2="32.3804" y2="110.9984" gradientTransform="matrix(1 0 0 -1.06 0.49 179.2675)">
	<stop  offset="0" style="stop-color:#686868"/>
	<stop  offset="6.000000e-02" style="stop-color:#595959"/>
	<stop  offset="0.22" style="stop-color:#898989"/>
	<stop  offset="0.27" style="stop-color:#7C7C7C"/>
	<stop  offset="0.34" style="stop-color:#898989"/>
	<stop  offset="0.73" style="stop-color:#D8D8D8"/>
	<stop  offset="0.82" style="stop-color:#A5A5A5"/>
	<stop  offset="0.86" style="stop-color:#BABABA"/>
	<stop  offset="0.88" style="stop-color:#A8A8A8"/>
	<stop  offset="0.93" style="stop-color:#BBBABB"/>
	<stop  offset="1" style="stop-color:#606060"/>
</linearGradient>
<polygon style="fill:url(#SVGID_00000054957713484717041860000010352951500460315818_);" points="33.2,61.7 31.5,30 32.8,32.1 
	34.2,59.6 "/>
<linearGradient id="SVGID_00000051357487539969232340000008556246831056873900_" gradientUnits="userSpaceOnUse" x1="33.6835" y1="110.9857" x2="33.6835" y2="140.8992" gradientTransform="matrix(1 0 0 -1.06 0.49 179.2675)">
	<stop  offset="0" style="stop-color:#686868"/>
	<stop  offset="6.000000e-02" style="stop-color:#424242"/>
	<stop  offset="0.22" style="stop-color:#898989"/>
	<stop  offset="0.27" style="stop-color:#7C7C7C"/>
	<stop  offset="0.34" style="stop-color:#898989"/>
	<stop  offset="0.41" style="stop-color:#C6C6C6"/>
	<stop  offset="0.47" style="stop-color:#F4F4F4"/>
	<stop  offset="0.52" style="stop-color:#D6D6D6"/>
	<stop  offset="0.55" style="stop-color:#D3D3D3"/>
	<stop  offset="0.59" style="stop-color:#F9F9F9"/>
	<stop  offset="0.61" style="stop-color:#F9F9F9"/>
	<stop  offset="0.66" style="stop-color:#FFFFFF"/>
	<stop  offset="0.69" style="stop-color:#FFFFFF"/>
	<stop  offset="0.73" style="stop-color:#D8D8D8"/>
	<stop  offset="0.82" style="stop-color:#A5A5A5"/>
	<stop  offset="0.86" style="stop-color:#BABABA"/>
	<stop  offset="0.88" style="stop-color:#A8A8A8"/>
	<stop  offset="0.93" style="stop-color:#BBBABB"/>
	<stop  offset="1" style="stop-color:#606060"/>
</linearGradient>
<polygon style="fill:url(#SVGID_00000051357487539969232340000008556246831056873900_);" points="35.5,61.7 34.2,59.6 32.8,32.1 
	33.9,30 "/>
<linearGradient id="SVGID_00000094619554960885204290000008978308276994824098_" gradientUnits="userSpaceOnUse" x1="34.7678" y1="140.9197" x2="34.7678" y2="111.0063" gradientTransform="matrix(1 0 0 -1.06 0.49 179.2675)">
	<stop  offset="0" style="stop-color:#686868"/>
	<stop  offset="6.000000e-02" style="stop-color:#595959"/>
	<stop  offset="0.22" style="stop-color:#898989"/>
	<stop  offset="0.27" style="stop-color:#7C7C7C"/>
	<stop  offset="0.34" style="stop-color:#898989"/>
	<stop  offset="0.73" style="stop-color:#D8D8D8"/>
	<stop  offset="0.82" style="stop-color:#A5A5A5"/>
	<stop  offset="0.86" style="stop-color:#BABABA"/>
	<stop  offset="0.88" style="stop-color:#A8A8A8"/>
	<stop  offset="0.93" style="stop-color:#BBBABB"/>
	<stop  offset="1" style="stop-color:#606060"/>
</linearGradient>
<polygon style="fill:url(#SVGID_00000094619554960885204290000008978308276994824098_);" points="35.5,61.7 33.9,30 35.2,32.1 
	36.6,59.6 "/>
<linearGradient id="SVGID_00000111169212284682970240000007383018315875534477_" gradientUnits="userSpaceOnUse" x1="36.0709" y1="110.9936" x2="36.0709" y2="140.907" gradientTransform="matrix(1 0 0 -1.06 0.49 179.2675)">
	<stop  offset="0" style="stop-color:#686868"/>
	<stop  offset="6.000000e-02" style="stop-color:#424242"/>
	<stop  offset="0.22" style="stop-color:#898989"/>
	<stop  offset="0.27" style="stop-color:#7C7C7C"/>
	<stop  offset="0.34" style="stop-color:#898989"/>
	<stop  offset="0.41" style="stop-color:#C6C6C6"/>
	<stop  offset="0.47" style="stop-color:#F4F4F4"/>
	<stop  offset="0.52" style="stop-color:#D6D6D6"/>
	<stop  offset="0.55" style="stop-color:#D3D3D3"/>
	<stop  offset="0.59" style="stop-color:#F9F9F9"/>
	<stop  offset="0.61" style="stop-color:#F9F9F9"/>
	<stop  offset="0.66" style="stop-color:#FFFFFF"/>
	<stop  offset="0.69" style="stop-color:#FFFFFF"/>
	<stop  offset="0.73" style="stop-color:#D8D8D8"/>
	<stop  offset="0.82" style="stop-color:#A5A5A5"/>
	<stop  offset="0.86" style="stop-color:#BABABA"/>
	<stop  offset="0.88" style="stop-color:#A8A8A8"/>
	<stop  offset="0.93" style="stop-color:#BBBABB"/>
	<stop  offset="1" style="stop-color:#606060"/>
</linearGradient>
<polygon style="fill:url(#SVGID_00000111169212284682970240000007383018315875534477_);" points="37.9,61.7 36.6,59.6 35.2,32.1 
	36.3,30 "/>
<linearGradient id="SVGID_00000070827913463461987320000010828626790875141003_" gradientUnits="userSpaceOnUse" x1="37.1552" y1="140.9276" x2="37.1552" y2="111.0142" gradientTransform="matrix(1 0 0 -1.06 0.49 179.2675)">
	<stop  offset="0" style="stop-color:#686868"/>
	<stop  offset="6.000000e-02" style="stop-color:#595959"/>
	<stop  offset="0.22" style="stop-color:#898989"/>
	<stop  offset="0.27" style="stop-color:#7C7C7C"/>
	<stop  offset="0.34" style="stop-color:#898989"/>
	<stop  offset="0.73" style="stop-color:#D8D8D8"/>
	<stop  offset="0.82" style="stop-color:#A5A5A5"/>
	<stop  offset="0.86" style="stop-color:#BABABA"/>
	<stop  offset="0.88" style="stop-color:#A8A8A8"/>
	<stop  offset="0.93" style="stop-color:#BBBABB"/>
	<stop  offset="1" style="stop-color:#606060"/>
</linearGradient>
<polygon style="fill:url(#SVGID_00000070827913463461987320000010828626790875141003_);" points="37.9,61.7 36.3,30 37.6,32.1 
	39,59.6 "/>
<linearGradient id="SVGID_00000163070577729087608710000017607698364363614397_" gradientUnits="userSpaceOnUse" x1="38.4563" y1="111.0015" x2="38.4563" y2="140.9149" gradientTransform="matrix(1 0 0 -1.06 0.49 179.2675)">
	<stop  offset="0" style="stop-color:#686868"/>
	<stop  offset="6.000000e-02" style="stop-color:#424242"/>
	<stop  offset="0.22" style="stop-color:#898989"/>
	<stop  offset="0.27" style="stop-color:#7C7C7C"/>
	<stop  offset="0.34" style="stop-color:#898989"/>
	<stop  offset="0.41" style="stop-color:#C6C6C6"/>
	<stop  offset="0.47" style="stop-color:#F4F4F4"/>
	<stop  offset="0.52" style="stop-color:#D6D6D6"/>
	<stop  offset="0.55" style="stop-color:#D3D3D3"/>
	<stop  offset="0.59" style="stop-color:#F9F9F9"/>
	<stop  offset="0.61" style="stop-color:#F9F9F9"/>
	<stop  offset="0.66" style="stop-color:#FFFFFF"/>
	<stop  offset="0.69" style="stop-color:#FFFFFF"/>
	<stop  offset="0.73" style="stop-color:#D8D8D8"/>
	<stop  offset="0.82" style="stop-color:#A5A5A5"/>
	<stop  offset="0.86" style="stop-color:#BABABA"/>
	<stop  offset="0.88" style="stop-color:#A8A8A8"/>
	<stop  offset="0.93" style="stop-color:#BBBABB"/>
	<stop  offset="1" style="stop-color:#606060"/>
</linearGradient>
<polygon style="fill:url(#SVGID_00000163070577729087608710000017607698364363614397_);" points="40.3,61.7 39,59.6 37.6,32.1 
	38.7,30 "/>
<linearGradient id="SVGID_00000060750250744567543990000014915500923064516283_" gradientUnits="userSpaceOnUse" x1="39.5406" y1="140.9355" x2="39.5406" y2="111.022" gradientTransform="matrix(1 0 0 -1.06 0.49 179.2675)">
	<stop  offset="0" style="stop-color:#686868"/>
	<stop  offset="6.000000e-02" style="stop-color:#595959"/>
	<stop  offset="0.22" style="stop-color:#898989"/>
	<stop  offset="0.27" style="stop-color:#7C7C7C"/>
	<stop  offset="0.34" style="stop-color:#898989"/>
	<stop  offset="0.73" style="stop-color:#D8D8D8"/>
	<stop  offset="0.82" style="stop-color:#A5A5A5"/>
	<stop  offset="0.86" style="stop-color:#BABABA"/>
	<stop  offset="0.88" style="stop-color:#A8A8A8"/>
	<stop  offset="0.93" style="stop-color:#BBBABB"/>
	<stop  offset="1" style="stop-color:#606060"/>
</linearGradient>
<polygon style="fill:url(#SVGID_00000060750250744567543990000014915500923064516283_);" points="40.3,61.7 38.7,30 40,32.1 
	41.4,59.6 "/>
<linearGradient id="SVGID_00000117663252780201077650000006661516577010461835_" gradientUnits="userSpaceOnUse" x1="40.6643" y1="111.9084" x2="40.6643" y2="140.0215" gradientTransform="matrix(1 0 0 -1.06 0.49 179.2675)">
	<stop  offset="0" style="stop-color:#686868"/>
	<stop  offset="6.000000e-02" style="stop-color:#424242"/>
	<stop  offset="0.22" style="stop-color:#898989"/>
	<stop  offset="0.27" style="stop-color:#7C7C7C"/>
	<stop  offset="0.34" style="stop-color:#898989"/>
	<stop  offset="0.41" style="stop-color:#C6C6C6"/>
	<stop  offset="0.47" style="stop-color:#F4F4F4"/>
	<stop  offset="0.52" style="stop-color:#D6D6D6"/>
	<stop  offset="0.55" style="stop-color:#D3D3D3"/>
	<stop  offset="0.59" style="stop-color:#F9F9F9"/>
	<stop  offset="0.61" style="stop-color:#F9F9F9"/>
	<stop  offset="0.66" style="stop-color:#FFFFFF"/>
	<stop  offset="0.69" style="stop-color:#FFFFFF"/>
	<stop  offset="0.73" style="stop-color:#D8D8D8"/>
	<stop  offset="0.82" style="stop-color:#A5A5A5"/>
	<stop  offset="0.86" style="stop-color:#BABABA"/>
	<stop  offset="0.88" style="stop-color:#A8A8A8"/>
	<stop  offset="0.93" style="stop-color:#BBBABB"/>
	<stop  offset="1" style="stop-color:#606060"/>
</linearGradient>
<polygon style="fill:url(#SVGID_00000117663252780201077650000006661516577010461835_);" points="42.3,60.7 41.4,59.6 40,32.1 
	41,30.9 "/>
<linearGradient id="SVGID_00000062170931032943520480000008354422403257376413_" gradientUnits="userSpaceOnUse" x1="41.443" y1="140.0404" x2="41.443" y2="111.9273" gradientTransform="matrix(1 0 0 -1.06 0.49 179.2675)">
	<stop  offset="0" style="stop-color:#686868"/>
	<stop  offset="6.000000e-02" style="stop-color:#595959"/>
	<stop  offset="0.22" style="stop-color:#898989"/>
	<stop  offset="0.27" style="stop-color:#7C7C7C"/>
	<stop  offset="0.34" style="stop-color:#898989"/>
	<stop  offset="0.73" style="stop-color:#D8D8D8"/>
	<stop  offset="0.82" style="stop-color:#A5A5A5"/>
	<stop  offset="0.86" style="stop-color:#BABABA"/>
	<stop  offset="0.88" style="stop-color:#A8A8A8"/>
	<stop  offset="0.93" style="stop-color:#BBBABB"/>
	<stop  offset="1" style="stop-color:#606060"/>
</linearGradient>
<polygon style="fill:url(#SVGID_00000062170931032943520480000008354422403257376413_);" points="42.8,59.6 42.3,60.7 41,30.9 
	42.8,32.1 "/>
<linearGradient id="SVGID_00000113342209695331357460000004935137151482452135_" gradientUnits="userSpaceOnUse" x1="44.4938" y1="100.6361" x2="44.4938" y2="128.1767" gradientTransform="matrix(1 0 0 -1 0 160.25)">
	<stop  offset="0" style="stop-color:#999898"/>
	<stop  offset="0.1963" style="stop-color:#4F4F4F"/>
	<stop  offset="0.2507" style="stop-color:#5B5B5B"/>
	<stop  offset="0.3499" style="stop-color:#7C7C7C"/>
	<stop  offset="0.3704" style="stop-color:#848484"/>
	<stop  offset="0.433" style="stop-color:#878787"/>
	<stop  offset="0.5974" style="stop-color:#D9D9D9"/>
	<stop  offset="0.6843" style="stop-color:#FFFFFF"/>
	<stop  offset="0.9078" style="stop-color:#B7B7B7"/>
	<stop  offset="1" style="stop-color:#C6C6C6"/>
</linearGradient>
<rect x="42.8" y="32.1" style="fill:url(#SVGID_00000113342209695331357460000004935137151482452135_);" width="3.3" height="27.5"/>
<linearGradient id="SVGID_00000180361540488740286910000001566820113639420855_" gradientUnits="userSpaceOnUse" x1="37.2489" y1="95.3015" x2="37.2489" y2="133.4996" gradientTransform="matrix(1 0 0 -1 0 160.25)">
	<stop  offset="0" style="stop-color:#999898"/>
	<stop  offset="0.1963" style="stop-color:#4F4F4F"/>
	<stop  offset="0.2507" style="stop-color:#5B5B5B"/>
	<stop  offset="0.3499" style="stop-color:#7C7C7C"/>
	<stop  offset="0.3704" style="stop-color:#848484"/>
	<stop  offset="0.433" style="stop-color:#878787"/>
	<stop  offset="0.5974" style="stop-color:#D9D9D9"/>
	<stop  offset="0.6843" style="stop-color:#FFFFFF"/>
	<stop  offset="0.9078" style="stop-color:#B7B7B7"/>
	<stop  offset="1" style="stop-color:#C6C6C6"/>
</linearGradient>
<rect x="36.4" y="26.8" style="fill:url(#SVGID_00000180361540488740286910000001566820113639420855_);" width="1.7" height="38.2"/>
<linearGradient id="SVGID_00000127747954908186059240000001154878826415696799_" gradientUnits="userSpaceOnUse" x1="12.5195" y1="92.9949" x2="12.5195" y2="135.8653" gradientTransform="matrix(1 0 0 -1 0 160.25)">
	<stop  offset="0" style="stop-color:#ABABAB"/>
	<stop  offset="3.557613e-02" style="stop-color:#8D8D8D"/>
	<stop  offset="8.328447e-02" style="stop-color:#6D6D6D"/>
	<stop  offset="0.1326" style="stop-color:#535353"/>
	<stop  offset="0.1835" style="stop-color:#414141"/>
	<stop  offset="0.237" style="stop-color:#373737"/>
	<stop  offset="0.2974" style="stop-color:#333333"/>
	<stop  offset="0.6814" style="stop-color:#F2F2F2"/>
	<stop  offset="0.98" style="stop-color:#A3A3A3"/>
</linearGradient>
<polygon style="fill:url(#SVGID_00000127747954908186059240000001154878826415696799_);" points="14.9,67.3 12.3,67.3 10.2,64.9 
	10.2,26.8 12.3,24.4 14.9,24.4 "/>
<linearGradient id="SVGID_00000005953490709297634450000017519519181519011484_" gradientUnits="userSpaceOnUse" x1="-3415.5691" y1="92.9949" x2="-3415.5691" y2="135.8653" gradientTransform="matrix(-1 0 0 -1 -3381.51 160.25)">
	<stop  offset="0" style="stop-color:#ABABAB"/>
	<stop  offset="3.557613e-02" style="stop-color:#8D8D8D"/>
	<stop  offset="8.328447e-02" style="stop-color:#6D6D6D"/>
	<stop  offset="0.1326" style="stop-color:#535353"/>
	<stop  offset="0.1835" style="stop-color:#414141"/>
	<stop  offset="0.237" style="stop-color:#373737"/>
	<stop  offset="0.2974" style="stop-color:#333333"/>
	<stop  offset="0.6814" style="stop-color:#F2F2F2"/>
	<stop  offset="0.98" style="stop-color:#A3A3A3"/>
</linearGradient>
<polygon style="fill:url(#SVGID_00000005953490709297634450000017519519181519011484_);" points="31.7,67.3 34.3,67.3 36.4,64.9 
	36.4,26.8 34.3,24.4 31.7,24.4 "/>
<linearGradient id="SVGID_00000050650587207492334510000014083030896921939596_" gradientUnits="userSpaceOnUse" x1="23.2893" y1="124.6045" x2="23.2893" y2="135.8653" gradientTransform="matrix(1 0 0 -1 0 160.25)">
	<stop  offset="0" style="stop-color:#F4F4F4"/>
	<stop  offset="1" style="stop-color:#BABABA"/>
</linearGradient>
<path style="fill:url(#SVGID_00000050650587207492334510000014083030896921939596_);" d="M12.3,24.4h22c0,0,2.1,1.9,2.1,5.6
	s-2.1,5.6-2.1,5.6h-22c0,0-2.1-1.9-2.1-5.6S12.3,24.4,12.3,24.4z"/>
<linearGradient id="SVGID_00000147917784597297654840000000303113872596807854_" gradientUnits="userSpaceOnUse" x1="23.2893" y1="92.9949" x2="23.2893" y2="104.2556" gradientTransform="matrix(1 0 0 -1 0 160.25)">
	<stop  offset="0" style="stop-color:#727272"/>
	<stop  offset="1" style="stop-color:#4C4C4C"/>
</linearGradient>
<path style="fill:url(#SVGID_00000147917784597297654840000000303113872596807854_);" d="M12.3,56h22c0,0,2.1,1.9,2.1,5.6
	c0,3.7-2.1,5.6-2.1,5.6h-22c0,0-2.1-1.9-2.1-5.6C10.2,57.9,12.3,56,12.3,56z"/>
<linearGradient id="SVGID_00000127724871533566759760000010418014433677300124_" gradientUnits="userSpaceOnUse" x1="23.2893" y1="104.2398" x2="23.2893" y2="124.6045" gradientTransform="matrix(1 0 0 -1 0 160.25)">
	<stop  offset="0" style="stop-color:#F4F4F4"/>
	<stop  offset="1" style="stop-color:#BABABA"/>
</linearGradient>
<path style="fill:url(#SVGID_00000127724871533566759760000010418014433677300124_);" d="M12.3,35.6h22c0,0,2.1,3.2,2.1,10.2
	S34.3,56,34.3,56h-22c0,0-2.1-3.2-2.1-10.2S12.3,35.6,12.3,35.6z"/>
<linearGradient id="SVGID_00000165218433821384996170000005705666409666571648_" gradientUnits="userSpaceOnUse" x1="81.1543" y1="100.6361" x2="81.1543" y2="128.1767" gradientTransform="matrix(1 0 0 -1 0 160.25)">
	<stop  offset="0" style="stop-color:#999898"/>
	<stop  offset="0.1963" style="stop-color:#4F4F4F"/>
	<stop  offset="0.2507" style="stop-color:#5B5B5B"/>
	<stop  offset="0.3499" style="stop-color:#7C7C7C"/>
	<stop  offset="0.3704" style="stop-color:#848484"/>
	<stop  offset="0.433" style="stop-color:#878787"/>
	<stop  offset="0.5974" style="stop-color:#D9D9D9"/>
	<stop  offset="0.6843" style="stop-color:#FFFFFF"/>
	<stop  offset="0.9078" style="stop-color:#B7B7B7"/>
	<stop  offset="1" style="stop-color:#C6C6C6"/>
</linearGradient>
<rect x="63.3" y="32.1" style="fill:url(#SVGID_00000165218433821384996170000005705666409666571648_);" width="35.8" height="27.5"/>
<g>
	<defs>
		<path id="SVGID_00000177479760552169915290000010077997429928569520_" d="M34.3,135.7h-22l-2.1-2.3H1.4c-0.3,0-0.4-0.2-0.4-0.5
			l0-37.1c0-0.2,0.2-0.5,0.4-0.5h8.8l2.1-2.4l22.1,0.1l2.1,2.3h1.7v38.1h-1.7L34.3,135.7z"/>
	</defs>
	<clipPath id="SVGID_00000125580686202347152750000017328221316298076038_">
		<use xlink:href="#SVGID_00000177479760552169915290000010077997429928569520_"  style="overflow:visible;"/>
	</clipPath>
	<g style="clip-path:url(#SVGID_00000125580686202347152750000017328221316298076038_);">
		
			<image style="overflow:visible;enable-background:new    ;" width="600" height="600" xlink:href="../../background.jpg"  transform="matrix(0.1833 0 0 0.1833 -71.2896 26.2592)">
		</image>
	</g>
</g>
<path class="st30" d="M34.3,135.7h-22l-2.1-2.3H1.4c-0.3,0-0.4-0.2-0.4-0.5l0-37.1c0-0.2,0.2-0.5,0.4-0.5h8.8l2.1-2.4l22.1,0.1
	l2.1,2.3h1.7v38.1h-1.7L34.3,135.7z"/>
<path class="st31" d="M11.2,123.8l1.2,3.6h5.3l0.7,2.6l1.1-2l1.3,2l1.1-2l1.3,2l0.5-1l-1.1-2l3.8-3.3L11.2,123.8z"/>
<path class="st31" d="M11.2,104.8l1.2-3.8h5.5l1.1-2.4l1.3,2l1.1-2l1.3,2l1.2-2.2l0.7,1.1l-1,2.4c0.9,0.9,1.9,1.8,2.8,2.6
	L11.2,104.8z"/>
<g>
	<defs>
		<path id="SVGID_00000138548643650787227430000006493614491917192891_" d="M63.2,97.3v-2.7l-1.6-2c-0.1-0.2-0.3-0.3-0.4-0.5H48.2
			c-0.1,0.1-0.3,0.3-0.4,0.5l-1.6,2v5.9h-3.4L41,99.4l-1.1,1.1l-1.3-2.1l-1.1,2.2l-1.4-2.2l-1,2.2l-1.4-2.2l-1,2.2l-1.4-2.2l-1,2.2
			l-1.4-2.2l-1.1,2.2l-1.4-2.2l-1.1,2.2l-0.7-1.1l-0.9,1.6h-3.5v26.4h2.5l1,1.6l0.6-1.1l1.3,2.1l1.2-2.1l1.3,2.1l1.1-2.1l1.3,2.1
			l1.1-2.1l1.3,2.1l1.1-2.1l1.3,2.1l1.1-2.1l1.3,2.1c0.4-0.7,0.8-1.3,1.1-2.1l1.3,2.1l1.1-2.1l0.9,1.1c0.2-0.4,0.3-0.8,0.5-1.1h3.4
			v5.9l1.7,2c0.1,0.1,0.2,0.3,0.3,0.4h12.9c0.1-0.1,0.2-0.3,0.3-0.4l1.7-2v-2.7h35.7V97.3L63.2,97.3z"/>
	</defs>
	<clipPath id="SVGID_00000000927346217825465930000011588545470187769522_">
		<use xlink:href="#SVGID_00000138548643650787227430000006493614491917192891_"  style="overflow:visible;"/>
	</clipPath>
	<g style="clip-path:url(#SVGID_00000000927346217825465930000011588545470187769522_);">
		
			<image style="overflow:visible;enable-background:new    ;" width="600" height="600" xlink:href="../../background.jpg"  transform="matrix(0.1829 0 0 0.1829 17.3607 88.8815)">
		</image>
	</g>
</g>
<path class="st30" d="M63.2,97.3v-2.7l-1.6-2c-0.1-0.2-0.3-0.3-0.4-0.5H48.2c-0.1,0.1-0.3,0.3-0.4,0.5l-1.6,2v5.9h-3.4L41,99.4
	l-1.1,1.1l-1.3-2.1l-1.1,2.2l-1.4-2.2l-1,2.2l-1.4-2.2l-1,2.2l-1.4-2.2l-1,2.2l-1.4-2.2l-1.1,2.2l-1.4-2.2l-1.1,2.2l-0.7-1.1
	l-0.9,1.6h-3.5v26.4h2.5l1,1.6l0.6-1.1l1.3,2.1l1.2-2.1l1.3,2.1l1.1-2.1l1.3,2.1l1.1-2.1l1.3,2.1l1.1-2.1l1.3,2.1l1.1-2.1l1.3,2.1
	c0.4-0.7,0.8-1.3,1.1-2.1l1.3,2.1l1.1-2.1l0.9,1.1c0.2-0.4,0.3-0.8,0.5-1.1h3.4v5.9l1.7,2c0.1,0.1,0.2,0.3,0.3,0.4h12.9
	c0.1-0.1,0.2-0.3,0.3-0.4l1.7-2v-2.7h35.7V97.3L63.2,97.3z"/>
<polygon class="st33" points="26.5,104.6 17.3,100.9 16,101 16,127.5 17.3,127.5 26.5,123.8 "/>
<polygon class="st34" points="17,123.8 17,104.6 16,102.4 13.7,102.4 13.7,100.9 12.4,100.9 12.4,100.9 11.2,104.6 11.2,123.8 
	12.4,127.5 13.7,127.5 13.7,125.9 16,125.9 "/>
<g>
	<polygon class="st35" points="16,102.4 18,104.6 18,123.8 16,125.9 17,123.8 17,104.6 	"/>
</g>
<polyline class="st36" points="16,102.4 17,104.6 17,123.8 16,125.9 "/>
<linearGradient id="SVGID_00000022531482819153318360000017780740272620755639_" gradientUnits="userSpaceOnUse" x1="97.8502" y1="57.9668" x2="97.8502" y2="34.1206" gradientTransform="matrix(1 0 0 -1 0 160.25)">
	<stop  offset="0" style="stop-color:#3A3A3A"/>
	<stop  offset="0.2055" style="stop-color:#262626"/>
	<stop  offset="0.6732" style="stop-color:#636363"/>
	<stop  offset="0.9078" style="stop-color:#383838"/>
</linearGradient>
<polygon style="fill:url(#SVGID_00000022531482819153318360000017780740272620755639_);" points="96.8,104.6 98.9,102.3 98.9,126.1 
	96.8,123.8 "/>
<polygon class="st33" points="26.6,104.6 17.8,100.9 16,101 16,127.5 17.6,127.4 26.6,123.8 "/>
<polygon class="st34" points="17.1,123.8 17.1,104.6 16,102.4 13.8,102.4 13.8,100.9 12.4,100.9 12.4,100.9 11.3,104.6 11.3,123.8 
	12.4,127.5 13.8,127.5 13.8,125.9 16,125.9 "/>
<linearGradient id="SVGID_00000115484284244670226850000015969748676812089760_" gradientUnits="userSpaceOnUse" x1="2987.1782" y1="2162.2751" x2="2987.1782" y2="2143.0854" gradientTransform="matrix(1 0 0 -1 -2963.6799 2266.9199)">
	<stop  offset="0" style="stop-color:#424242"/>
	<stop  offset="0.1068" style="stop-color:#333333"/>
	<stop  offset="0.2055" style="stop-color:#2D2D2D"/>
	<stop  offset="0.3492" style="stop-color:#424244"/>
	<stop  offset="0.6732" style="stop-color:#7F7F7F"/>
	<stop  offset="0.9078" style="stop-color:#414042"/>
</linearGradient>
<rect x="3.6" y="104.6" style="fill:url(#SVGID_00000115484284244670226850000015969748676812089760_);" width="39.8" height="19.2"/>
<linearGradient id="SVGID_00000016070788792104068990000009837556196236636292_" gradientUnits="userSpaceOnUse" x1="2631.3608" y1="2162.2749" x2="2631.3608" y2="2143.0852" gradientTransform="matrix(1 0 0 -1 -2609.55 2266.9199)">
	<stop  offset="0" style="stop-color:#424242"/>
	<stop  offset="0.1068" style="stop-color:#333333"/>
	<stop  offset="0.2055" style="stop-color:#2D2D2D"/>
	<stop  offset="0.3492" style="stop-color:#424244"/>
	<stop  offset="0.6732" style="stop-color:#7F7F7F"/>
	<stop  offset="0.9078" style="stop-color:#414042"/>
</linearGradient>
<rect x="17.1" y="104.6" style="fill:url(#SVGID_00000016070788792104068990000009837556196236636292_);" width="9.5" height="19.2"/>
<linearGradient id="SVGID_00000169554630550398234660000000272343995204928674_" gradientUnits="userSpaceOnUse" x1="2623.7236" y1="2162.2749" x2="2623.7236" y2="2143.0852" gradientTransform="matrix(1 0 0 -1 -2609.55 2266.9199)">
	<stop  offset="0" style="stop-color:#424242"/>
	<stop  offset="0.1068" style="stop-color:#333333"/>
	<stop  offset="0.2055" style="stop-color:#2D2D2D"/>
	<stop  offset="0.3492" style="stop-color:#424244"/>
	<stop  offset="0.6732" style="stop-color:#7F7F7F"/>
	<stop  offset="0.9078" style="stop-color:#414042"/>
</linearGradient>
<rect x="11.3" y="104.6" style="fill:url(#SVGID_00000169554630550398234660000000272343995204928674_);" width="5.8" height="19.2"/>
<g>
	<polygon class="st31" points="16.1,102.4 18.1,104.6 18.1,123.8 16.1,125.9 17.1,123.8 17.1,104.6 	"/>
</g>
<g class="st41">
	<polygon class="st42" points="27.5,104.6 27.5,123.8 26.6,123.8 26.6,104.6 	"/>
</g>
<g class="st41">
	<polygon class="st43" points="9.2,104.6 9.2,123.8 11.3,123.8 11.3,104.6 	"/>
</g>
<g class="st41">
	<polygon class="st43" points="41.3,104.6 41.3,123.8 43.4,123.8 43.4,104.6 	"/>
</g>
<line class="st36" x1="11.3" y1="123.8" x2="11.3" y2="104.6"/>
<polyline class="st36" points="16.1,102.4 17.1,104.6 17.1,123.8 16.1,125.9 "/>
<line class="st36" x1="26.6" y1="104.6" x2="26.6" y2="123.8"/>
<linearGradient id="SVGID_00000147204448236155288180000002292740612193486743_" gradientUnits="userSpaceOnUse" x1="2.2839" y1="57.9826" x2="2.2839" y2="34.1048" gradientTransform="matrix(1 0 0 -1 0 160.25)">
	<stop  offset="0" style="stop-color:#3A3A3A"/>
	<stop  offset="0.2055" style="stop-color:#262626"/>
	<stop  offset="0.6732" style="stop-color:#636363"/>
	<stop  offset="0.9078" style="stop-color:#383838"/>
</linearGradient>
<polygon style="fill:url(#SVGID_00000147204448236155288180000002292740612193486743_);" points="3.6,123.8 1,126.1 1,102.3 
	3.6,104.6 "/>
<linearGradient id="SVGID_00000178185854323745108010000001839571303816261250_" gradientUnits="userSpaceOnUse" x1="69.8206" y1="53.8461" x2="69.8206" y2="38.2374" gradientTransform="matrix(1 0 0 -1 0 160.25)">
	<stop  offset="0" style="stop-color:#424242"/>
	<stop  offset="0.1068" style="stop-color:#333333"/>
	<stop  offset="0.2055" style="stop-color:#2D2D2D"/>
	<stop  offset="0.3492" style="stop-color:#424244"/>
	<stop  offset="0.6732" style="stop-color:#7F7F7F"/>
	<stop  offset="0.9078" style="stop-color:#414042"/>
</linearGradient>
<rect x="43.4" y="106.4" style="fill:url(#SVGID_00000178185854323745108010000001839571303816261250_);" width="52.9" height="15.6"/>
<linearGradient id="SVGID_00000164477466431207125800000016828193183569199279_" gradientUnits="userSpaceOnUse" x1="89.3553" y1="55.6366" x2="89.3553" y2="36.4508" gradientTransform="matrix(1 0 0 -1 0 160.25)">
	<stop  offset="0" style="stop-color:#424242"/>
	<stop  offset="0.1068" style="stop-color:#333333"/>
	<stop  offset="0.2055" style="stop-color:#2D2D2D"/>
	<stop  offset="0.3492" style="stop-color:#424244"/>
	<stop  offset="0.6732" style="stop-color:#7F7F7F"/>
	<stop  offset="0.9078" style="stop-color:#414042"/>
</linearGradient>
<rect x="81.9" y="104.6" style="fill:url(#SVGID_00000164477466431207125800000016828193183569199279_);" width="14.9" height="19.2"/>
<polygon class="st36" points="43.4,106.8 43.4,104.6 3.6,104.6 3.6,123.8 43.4,123.8 43.4,121.6 78.2,121.6 78.2,121.9 82,123.8 
	96.8,123.8 96.8,104.6 82,104.6 78.2,106.5 78.2,106.8 "/>
<linearGradient id="SVGID_00000116220335318644799200000008776854116168932510_" gradientUnits="userSpaceOnUse" x1="80.0305" y1="55.6524" x2="80.0305" y2="36.435" gradientTransform="matrix(1 0 0 -1 0 160.25)">
	<stop  offset="0" style="stop-color:#3A3A3A"/>
	<stop  offset="0.2055" style="stop-color:#262626"/>
	<stop  offset="0.6732" style="stop-color:#636363"/>
	<stop  offset="0.9078" style="stop-color:#383838"/>
</linearGradient>
<polygon style="fill:url(#SVGID_00000116220335318644799200000008776854116168932510_);" points="78.2,121.9 81.9,123.8 81.9,104.6 
	78.2,106.5 "/>
<image style="overflow:visible;" width="200" height="200" xlink:href="\\server\share\boris\vasilisa\Елизавета\Фитинги для сайта\images\pepsi.png"  transform="matrix(4.584756e-02 0 0 4.584756e-02 50.1309 41.2352)">
</image>
</svg>
