<?xml version="1.0" encoding="utf-8"?>
<!-- Generator: Adobe Illustrator 25.4.1, SVG Export Plug-In . SVG Version: 6.00 Build 0)  -->
<svg version="1.1" id="Слой_1" xmlns="http://www.w3.org/2000/svg" xmlns:xlink="http://www.w3.org/1999/xlink" x="0px" y="0px"
	 viewBox="0 0 100 160" style="enable-background:new 0 0 100 160;" xml:space="preserve">
<style type="text/css">
	.st0{fill:url(#SVGID_1_);}
	.st1{opacity:0.28;fill:url(#SVGID_00000169534877221758350290000000844289756025392815_);enable-background:new    ;}
	.st2{fill:url(#SVGID_00000094595812101043104820000016594372382878801838_);}
	.st3{fill:url(#SVGID_00000112611518628604849010000017314989075595821994_);}
	.st4{opacity:0.28;fill:url(#SVGID_00000053540740040399191320000010337380495351817911_);enable-background:new    ;}
	.st5{fill:none;}
	.st6{fill:url(#SVGID_00000088843698711178474150000009322033582118561958_);}
	.st7{fill:url(#SVGID_00000104670554228552192150000015690845368415761059_);}
	.st8{fill:url(#SVGID_00000009549614798488492640000011907587848164778124_);}
	.st9{fill:url(#SVGID_00000078008313055895046970000010599092055583809208_);}
	.st10{fill:url(#SVGID_00000069390064043994455330000009613359190551933071_);}
	.st11{fill:url(#SVGID_00000034064400749726963040000003576743074834720675_);}
	.st12{fill:url(#SVGID_00000085219709085480405300000006161866799235444406_);}
	.st13{fill:url(#SVGID_00000075122792326445095170000013205836990301457335_);}
	.st14{fill:url(#SVGID_00000044864561505312181320000007478292882054324888_);}
	.st15{fill:url(#SVGID_00000028326529933301667710000015312095100072309394_);}
	.st16{fill:url(#SVGID_00000023245315078477271540000012184652313908402317_);}
	.st17{fill:url(#SVGID_00000138563866338408781680000008498606251615804317_);}
	.st18{fill:url(#SVGID_00000131348688677152312790000005229322284470682752_);}
	.st19{fill:url(#SVGID_00000070828859992561125680000005696648883004734108_);}
	.st20{fill:url(#SVGID_00000013891203142780414730000012024091456118488452_);}
	.st21{fill:url(#SVGID_00000111189927678921565350000008277996364262050495_);}
	.st22{opacity:0.28;fill:url(#SVGID_00000023990226777043486550000006188076579234100131_);enable-background:new    ;}
	.st23{opacity:0.28;fill:url(#SVGID_00000088833732572413695330000009388894508004543381_);enable-background:new    ;}
	.st24{fill:url(#SVGID_00000174602520923270498100000004468734410904724384_);}
	.st25{fill:url(#SVGID_00000034809843442964098530000004471195221085550267_);}
	.st26{fill:url(#SVGID_00000077308812698291522150000007169509536357236868_);}
	.st27{fill:url(#SVGID_00000067204707828603929720000009161923678322732973_);}
	.st28{fill:url(#SVGID_00000148635726084346284450000005221483152322276520_);}
	.st29{fill:url(#SVGID_00000182511983122069120730000009668710849524144008_);}
	.st30{fill:url(#SVGID_00000067237488061953842500000012101321301867566258_);}
	.st31{fill:url(#SVGID_00000068666966643319779300000007461372391506391449_);}
	.st32{clip-path:url(#SVGID_00000112634132685781841870000006134789635277383812_);}
	.st33{clip-path:url(#SVGID_00000175308335554574536150000006210833159548474528_);enable-background:new    ;}
	.st34{fill:url(#SVGID_00000173156479491347929760000014269176398350048938_);}
	.st35{fill:url(#SVGID_00000083787240934165307800000005496970013599742626_);}
	.st36{fill:url(#SVGID_00000021831494972059500530000003611695757619790251_);}
	.st37{opacity:0.38;enable-background:new    ;}
	.st38{fill:#8C8C8C;}
	.st39{fill:none;stroke:#ADADAD;stroke-width:0.5;stroke-miterlimit:10;}
	.st40{fill:#282828;stroke:#282828;stroke-width:0.5;stroke-miterlimit:10;}
	.st41{fill:none;stroke:#8C8C8C;stroke-width:0.2;}
	.st42{fill:#282828;}
	.st43{fill:url(#SVGID_00000173864189618193118220000016225315974377598598_);}
	.st44{clip-path:url(#SVGID_00000175283242203100187670000015806323274561172359_);}
	.st45{clip-path:url(#SVGID_00000003818104042271999360000012834783229734871721_);enable-background:new    ;}
	.st46{clip-path:url(#SVGID_00000094589245371161213780000013432523185197399181_);}
	.st47{clip-path:url(#SVGID_00000077285581859730348530000001402265448967955094_);enable-background:new    ;}
	.st48{fill:url(#SVGID_00000066488333246665967280000011138203907538085531_);}
	.st49{fill:url(#SVGID_00000145044329612536845290000014032515748309364629_);}
</style>
<linearGradient id="SVGID_1_" gradientUnits="userSpaceOnUse" x1="155.8937" y1="108.1" x2="155.8937" y2="135.1314" gradientTransform="matrix(-1 0 0 -1 179.1937 160)">
	<stop  offset="0" style="stop-color:#999898"/>
	<stop  offset="0.1963" style="stop-color:#4F4F4F"/>
	<stop  offset="0.2507" style="stop-color:#5B5B5B"/>
	<stop  offset="0.3499" style="stop-color:#7C7C7C"/>
	<stop  offset="0.3704" style="stop-color:#848484"/>
	<stop  offset="0.433" style="stop-color:#878787"/>
	<stop  offset="0.5974" style="stop-color:#D9D9D9"/>
	<stop  offset="0.6843" style="stop-color:#FFFFFF"/>
	<stop  offset="0.9078" style="stop-color:#B7B7B7"/>
	<stop  offset="1" style="stop-color:#C6C6C6"/>
</linearGradient>
<polygon class="st0" points="25.7,51.9 20.9,51.9 20.9,24.9 25.7,24.9 "/>
<linearGradient id="SVGID_00000093883176501871332330000003671595536047199872_" gradientUnits="userSpaceOnUse" x1="-499.904" y1="526.6837" x2="-496.3672" y2="526.6837" gradientTransform="matrix(1 0 0 -1 522.053 565.0337)">
	<stop  offset="0" style="stop-color:#000000;stop-opacity:0"/>
	<stop  offset="0.3429" style="stop-color:#0A0A0A;stop-opacity:0.3341"/>
	<stop  offset="0.9264" style="stop-color:#252525;stop-opacity:0.9026"/>
	<stop  offset="1" style="stop-color:#292929;stop-opacity:0.9744"/>
</linearGradient>
<rect x="22.1" y="24.9" style="opacity:0.28;fill:url(#SVGID_00000093883176501871332330000003671595536047199872_);enable-background:new    ;" width="3.5" height="26.9"/>
<linearGradient id="SVGID_00000139291102267273987050000017828446131287927175_" gradientUnits="userSpaceOnUse" x1="152.1937" y1="121.25" x2="154.5523" y2="121.25" gradientTransform="matrix(-1 0 0 -1 179.1937 160)">
	<stop  offset="0" style="stop-color:#282828"/>
	<stop  offset="0.4022" style="stop-color:#3D3D3D;stop-opacity:0.9744"/>
	<stop  offset="0.7211" style="stop-color:#363636;stop-opacity:0.9744"/>
	<stop  offset="1" style="stop-color:#2B2B2B;stop-opacity:0.9744"/>
</linearGradient>
<polygon style="fill:url(#SVGID_00000139291102267273987050000017828446131287927175_);" points="24.6,56.2 27,56.2 27,21.3 
	24.6,21.3 "/>
<linearGradient id="SVGID_00000040539631984898042770000013319422462854130590_" gradientUnits="userSpaceOnUse" x1="151.0937" y1="102.3" x2="151.0937" y2="140.5417" gradientTransform="matrix(-1 0 0 -1 179.1937 160)">
	<stop  offset="0" style="stop-color:#999898"/>
	<stop  offset="0.1963" style="stop-color:#4F4F4F"/>
	<stop  offset="0.2507" style="stop-color:#5B5B5B"/>
	<stop  offset="0.3499" style="stop-color:#7C7C7C"/>
	<stop  offset="0.3704" style="stop-color:#848484"/>
	<stop  offset="0.433" style="stop-color:#878787"/>
	<stop  offset="0.5974" style="stop-color:#D9D9D9"/>
	<stop  offset="0.6843" style="stop-color:#FFFFFF"/>
	<stop  offset="0.9078" style="stop-color:#B7B7B7"/>
	<stop  offset="1" style="stop-color:#C6C6C6"/>
</linearGradient>
<polygon style="fill:url(#SVGID_00000040539631984898042770000013319422462854130590_);" points="30.5,57.7 25.7,57.7 25.7,19.4 
	30.5,19.4 "/>
<linearGradient id="SVGID_00000041278366280764832070000008307152967640483979_" gradientUnits="userSpaceOnUse" x1="-494.5405" y1="526.5337" x2="-491.3696" y2="526.5337" gradientTransform="matrix(1 0 0 -1 522.053 565.0337)">
	<stop  offset="0" style="stop-color:#000000;stop-opacity:0"/>
	<stop  offset="0.3429" style="stop-color:#0A0A0A;stop-opacity:0.3341"/>
	<stop  offset="0.9264" style="stop-color:#252525;stop-opacity:0.9026"/>
	<stop  offset="1" style="stop-color:#292929;stop-opacity:0.9744"/>
</linearGradient>
<rect x="27.5" y="19.4" style="opacity:0.28;fill:url(#SVGID_00000041278366280764832070000008307152967640483979_);enable-background:new    ;" width="3.2" height="38.2"/>
<path class="st5" d="M233.8,235.6c0.7,1.3,1.4,2.6,2.1,3.9l2.3-4c0.7,1.3,1.4,2.6,2.1,4l0,0l2.3-4c0.7,1.3,1.3,2.7,2,4l0,0l2.3-4
	c0.7,1.3,1.4,2.6,2.1,4l0,0l2.3-4c0.7,1.3,1.3,2.7,2,4l2.3-3.9l0,0l0,0c0.6,1.1,1.2,2.2,1.9,3.3l0.3,0.6l0,0
	c0.8-1.4,1.5-2.7,2.3-4.1c0.7,1.1,1.3,2.2,2,3.3c0.3,0,0.6,0,0.8,0c0.3-0.2,0.5-0.4,0.8-0.7h1.8h3.7v-6.7h1.5v-1.7h1.3h3.8
	c0.2-3.8,0.6-6.1,0.6-6.1h18.1c0.6,3.7,0.7,7.5,0.6,10.8v3.7l0,0l0,0l0,0c3.3,0.6,6.1,0.8,8.5,0.7c0,0,0,0,0.1,0
	c2,0,3.6-0.2,4.7-0.4c0.4-0.1,0.7-0.1,1.1-0.2l0,0c0.5-0.8,0.9-1.5,1.4-2.3c0.5,0.6,1.1,1.3,1.6,1.9v-5.6c0-0.9,0-1.7,0-2.5l0,0l0,0
	c0.3-5.5,1.9-8.9,1.9-8.9h56.4c1.8,4,2.2,8,2,11.5v14.2h2.4v0.1c0.5,0,1,0,1.5,0c-0.4,1.2-1.4,4.6-1.4,8.9c0.1,4.6,1.3,8.5,1.4,8.8
	c0.2,0.8,0.6,1.7,1,3.4c0.5,2.5,0.6,4,0.5,4.3c0,0.2,0,0.9,0,1.8c0,0.1,0,0.9-0.1,1.4c-0.1,1.3-0.2,2.2-0.4,3c-0.3,1.7-0.7,3-1,3.9
	c-0.5,0-1,0-1.5,0c-0.8,0-1.6,0-2.4,0v12c0.5,7.2-2,13.1-2,13.1h-56.4c-1.2-3.3-1.7-6.4-1.9-9.1h-0.1v-9.2c-0.5,0.7-1.1,1.4-1.6,2.1
	c-0.5-0.8-1-1.5-1.5-2.3c-6.7-1.3-12.9-0.2-14,0.1c-0.1,0-0.1,0-0.2,0l0,0l0,0l0,0v3.6c0.2,6.7-0.6,12.2-0.6,12.2h-18.1
	c-0.3-2.3-0.5-4.4-0.5-6.4h-3.8h-1.3v-1.6h-1.5v-7.9h-5.5v-0.1c-0.8-0.5-1.7-1-2.5-1.5c-0.9,1.3-1.7,2.7-2.6,4l-2-4l0,0l0,0l0,0
	l-2.3,3.9l0,0l0,0l0,0l-2.1-4v-0.1l0,0c-0.8,1.3-1.5,2.6-2.3,4l-2.1-3.9l0,0l0,0l-2.3,4l-2.1-4c-0.7,1.3-1.5,2.7-2.2,4l-2.1-3.9l0,0
	l0,0l-2.3,4l-2.1-4l0,0c-0.8,1.2-1.6,2.5-2.3,3.7c-0.4-1.2-0.9-2.4-1.3-3.6c0-15.7,0-31.5,0-47.2C231.9,238.4,232.9,237,233.8,235.6
	z"/>
<linearGradient id="SVGID_00000062908937393253134830000001402906300176927628_" gradientUnits="userSpaceOnUse" x1="5.0596" y1="532.0487" x2="5.0596" y2="500.381" gradientTransform="matrix(0.9993 3.650000e-02 -3.640000e-02 0.9977 19.7429 -476.8812)">
	<stop  offset="0" style="stop-color:#808285"/>
	<stop  offset="0.1313" style="stop-color:#4D4E50"/>
	<stop  offset="0.2039" style="stop-color:#424244"/>
	<stop  offset="0.338" style="stop-color:#808285"/>
	<stop  offset="0.4162" style="stop-color:#D1D3D4"/>
	<stop  offset="0.5168" style="stop-color:#A7A9AC"/>
	<stop  offset="0.662" style="stop-color:#F1F2F2"/>
	<stop  offset="0.8519" style="stop-color:#838587"/>
	<stop  offset="0.919" style="stop-color:#E6E7E8"/>
	<stop  offset="1" style="stop-color:#919396"/>
</linearGradient>
<polygon style="fill:url(#SVGID_00000062908937393253134830000001402906300176927628_);" points="4.9,22.5 6.4,24.7 7.2,51.9 
	5.8,54.1 "/>
<linearGradient id="SVGID_00000019675025815684707800000009016306688371077039_" gradientUnits="userSpaceOnUse" x1="2.1453" y1="532.0646" x2="2.1453" y2="500.1197" gradientTransform="matrix(0.9993 3.650000e-02 -3.620000e-02 0.993 19.646 -474.2356)">
	<stop  offset="0" style="stop-color:#808285"/>
	<stop  offset="0.1313" style="stop-color:#4D4E50"/>
	<stop  offset="0.2039" style="stop-color:#424244"/>
	<stop  offset="0.338" style="stop-color:#808285"/>
	<stop  offset="0.4162" style="stop-color:#D1D3D4"/>
	<stop  offset="0.5168" style="stop-color:#A7A9AC"/>
	<stop  offset="0.662" style="stop-color:#F1F2F2"/>
	<stop  offset="0.8519" style="stop-color:#838587"/>
	<stop  offset="0.919" style="stop-color:#E6E7E8"/>
	<stop  offset="1" style="stop-color:#919396"/>
</linearGradient>
<polygon style="fill:url(#SVGID_00000019675025815684707800000009016306688371077039_);" points="2,22.4 3.5,24.6 4.3,51.9 3,54.2 
	"/>
<linearGradient id="SVGID_00000080902836267367323240000006670609166550956734_" gradientUnits="userSpaceOnUse" x1="-10132.5947" y1="-244.321" x2="-10132.5947" y2="-214.6861" gradientTransform="matrix(-0.9993 -3.650000e-02 -3.900000e-02 1.0686 -10127.0254 -81.8212)">
	<stop  offset="6.980000e-02" style="stop-color:#6D6E71"/>
	<stop  offset="0.1536" style="stop-color:#939598"/>
	<stop  offset="0.2151" style="stop-color:#6D6E71"/>
	<stop  offset="0.3883" style="stop-color:#6D6E71"/>
	<stop  offset="0.4832" style="stop-color:#939598"/>
	<stop  offset="0.6844" style="stop-color:#BCBEC0"/>
	<stop  offset="0.7458" style="stop-color:#808285"/>
	<stop  offset="0.8073" style="stop-color:#B4B4B4"/>
	<stop  offset="0.9134" style="stop-color:#6D6E71"/>
	<stop  offset="1" style="stop-color:#939598"/>
</linearGradient>
<path style="fill:url(#SVGID_00000080902836267367323240000006670609166550956734_);" d="M7.7,22.4l1,31.7l-1.5-2.3
	c-0.3-9-0.5-18.1-0.8-27.1C6.8,23.9,7.3,23.2,7.7,22.4z"/>
<linearGradient id="SVGID_00000134243774110692553170000000043023736083978899_" gradientUnits="userSpaceOnUse" x1="-10129.6982" y1="-244.8009" x2="-10129.6982" y2="-214.8983" gradientTransform="matrix(-0.9993 -3.650000e-02 -3.860000e-02 1.0576 -10126.9512 -83.8758)">
	<stop  offset="6.980000e-02" style="stop-color:#6D6E71"/>
	<stop  offset="0.1536" style="stop-color:#939598"/>
	<stop  offset="0.2151" style="stop-color:#6D6E71"/>
	<stop  offset="0.3883" style="stop-color:#6D6E71"/>
	<stop  offset="0.4832" style="stop-color:#939598"/>
	<stop  offset="0.6844" style="stop-color:#BCBEC0"/>
	<stop  offset="0.7458" style="stop-color:#808285"/>
	<stop  offset="0.8073" style="stop-color:#B4B4B4"/>
	<stop  offset="0.9134" style="stop-color:#6D6E71"/>
	<stop  offset="1" style="stop-color:#939598"/>
</linearGradient>
<path style="fill:url(#SVGID_00000134243774110692553170000000043023736083978899_);" d="M4.9,22.5l0.9,31.7L4.3,52
	C4,42.9,3.8,33.8,3.5,24.7C4,23.9,4.4,23.2,4.9,22.5z"/>
<linearGradient id="SVGID_00000101815851760244575190000003323554432343005116_" gradientUnits="userSpaceOnUse" x1="-10127.1006" y1="-245.101" x2="-10127.1006" y2="-214.965" gradientTransform="matrix(-0.9993 -3.650000e-02 -3.840000e-02 1.0526 -10126.918 -84.7945)">
	<stop  offset="6.980000e-02" style="stop-color:#6D6E71"/>
	<stop  offset="0.1536" style="stop-color:#939598"/>
	<stop  offset="0.2151" style="stop-color:#6D6E71"/>
	<stop  offset="0.3883" style="stop-color:#6D6E71"/>
	<stop  offset="0.4832" style="stop-color:#939598"/>
	<stop  offset="0.6844" style="stop-color:#BCBEC0"/>
	<stop  offset="0.7458" style="stop-color:#808285"/>
	<stop  offset="0.8073" style="stop-color:#B4B4B4"/>
	<stop  offset="0.9134" style="stop-color:#6D6E71"/>
	<stop  offset="1" style="stop-color:#939598"/>
</linearGradient>
<path style="fill:url(#SVGID_00000101815851760244575190000003323554432343005116_);" d="M2,22.4l1,31.8c-0.6-0.9-1.3-1.7-1.9-2.6
	c0-9,0-18.1,0-27.1C1.4,23.8,1.7,23.1,2,22.4z"/>
<linearGradient id="SVGID_00000165232727247264991200000005604845268999591059_" gradientUnits="userSpaceOnUse" x1="10.7629" y1="532.5024" x2="10.7629" y2="501.3882" gradientTransform="matrix(0.9993 3.650000e-02 -3.710000e-02 1.0163 20.1291 -487.4541)">
	<stop  offset="0" style="stop-color:#808285"/>
	<stop  offset="0.1313" style="stop-color:#4D4E50"/>
	<stop  offset="0.2039" style="stop-color:#424244"/>
	<stop  offset="0.338" style="stop-color:#808285"/>
	<stop  offset="0.4162" style="stop-color:#D1D3D4"/>
	<stop  offset="0.5168" style="stop-color:#A7A9AC"/>
	<stop  offset="0.662" style="stop-color:#F1F2F2"/>
	<stop  offset="0.8519" style="stop-color:#838587"/>
	<stop  offset="0.919" style="stop-color:#E6E7E8"/>
	<stop  offset="1" style="stop-color:#919396"/>
</linearGradient>
<polygon style="fill:url(#SVGID_00000165232727247264991200000005604845268999591059_);" points="10.6,22.4 12,24.7 12.9,51.8 
	11.6,54.1 "/>
<linearGradient id="SVGID_00000145754958125772201180000009361056620568726150_" gradientUnits="userSpaceOnUse" x1="7.9162" y1="532.2734" x2="7.9162" y2="500.8606" gradientTransform="matrix(0.9993 3.650000e-02 -3.680000e-02 1.0081 19.9588 -482.789)">
	<stop  offset="0" style="stop-color:#808285"/>
	<stop  offset="0.1313" style="stop-color:#4D4E50"/>
	<stop  offset="0.2039" style="stop-color:#424244"/>
	<stop  offset="0.338" style="stop-color:#808285"/>
	<stop  offset="0.4162" style="stop-color:#D1D3D4"/>
	<stop  offset="0.5168" style="stop-color:#A7A9AC"/>
	<stop  offset="0.662" style="stop-color:#F1F2F2"/>
	<stop  offset="0.8519" style="stop-color:#838587"/>
	<stop  offset="0.919" style="stop-color:#E6E7E8"/>
	<stop  offset="1" style="stop-color:#919396"/>
</linearGradient>
<polygon style="fill:url(#SVGID_00000145754958125772201180000009361056620568726150_);" points="7.7,22.4 9.2,24.7 10.1,51.9 
	8.7,54.1 "/>
<linearGradient id="SVGID_00000112629643994955424060000014880957764290231739_" gradientUnits="userSpaceOnUse" x1="-10135.4727" y1="-243.9155" x2="-10135.4727" y2="-214.5631" gradientTransform="matrix(-0.9993 -3.650000e-02 -3.930000e-02 1.0773 -10127.1123 -80.2007)">
	<stop  offset="6.980000e-02" style="stop-color:#6D6E71"/>
	<stop  offset="0.1536" style="stop-color:#939598"/>
	<stop  offset="0.2151" style="stop-color:#6D6E71"/>
	<stop  offset="0.3883" style="stop-color:#6D6E71"/>
	<stop  offset="0.4832" style="stop-color:#939598"/>
	<stop  offset="0.6844" style="stop-color:#BCBEC0"/>
	<stop  offset="0.7458" style="stop-color:#808285"/>
	<stop  offset="0.8073" style="stop-color:#B4B4B4"/>
	<stop  offset="0.9134" style="stop-color:#6D6E71"/>
	<stop  offset="1" style="stop-color:#939598"/>
</linearGradient>
<path style="fill:url(#SVGID_00000112629643994955424060000014880957764290231739_);" d="M10.6,22.4l1,31.7l-1.5-2.3
	c-0.3-9.1-0.6-18.1-0.9-27.2C9.6,23.9,10.1,23.2,10.6,22.4z"/>
<linearGradient id="SVGID_00000045615408493160799550000002321064990396038296_" gradientUnits="userSpaceOnUse" x1="19.0114" y1="532.057" x2="19.0114" y2="501.0581" gradientTransform="matrix(0.9993 3.650000e-02 -3.710000e-02 1.0163 20.1291 -487.4541)">
	<stop  offset="0" style="stop-color:#808285"/>
	<stop  offset="0.1313" style="stop-color:#4D4E50"/>
	<stop  offset="0.2039" style="stop-color:#424244"/>
	<stop  offset="0.338" style="stop-color:#808285"/>
	<stop  offset="0.4162" style="stop-color:#D1D3D4"/>
	<stop  offset="0.5168" style="stop-color:#A7A9AC"/>
	<stop  offset="0.662" style="stop-color:#F1F2F2"/>
	<stop  offset="0.8519" style="stop-color:#838587"/>
	<stop  offset="0.919" style="stop-color:#E6E7E8"/>
	<stop  offset="1" style="stop-color:#919396"/>
</linearGradient>
<path style="fill:url(#SVGID_00000045615408493160799550000002321064990396038296_);" d="M19.1,22.4c0.6,0.8,1.2,1.6,1.8,2.5
	c0,9,0,18.1,0,27.1c-0.3,0.7-0.6,1.4-0.8,2.1C19.7,43.5,19.4,32.9,19.1,22.4z"/>
<linearGradient id="SVGID_00000055675770690763908500000011953484660888117408_" gradientUnits="userSpaceOnUse" x1="-10143.9678" y1="-244.2223" x2="-10143.9678" y2="-214.9626" gradientTransform="matrix(-0.9993 -3.650000e-02 -3.930000e-02 1.0773 -10127.1123 -80.2007)">
	<stop  offset="6.980000e-02" style="stop-color:#6D6E71"/>
	<stop  offset="0.1536" style="stop-color:#939598"/>
	<stop  offset="0.2151" style="stop-color:#6D6E71"/>
	<stop  offset="0.3883" style="stop-color:#6D6E71"/>
	<stop  offset="0.4832" style="stop-color:#939598"/>
	<stop  offset="0.6844" style="stop-color:#BCBEC0"/>
	<stop  offset="0.7458" style="stop-color:#808285"/>
	<stop  offset="0.8073" style="stop-color:#B4B4B4"/>
	<stop  offset="0.9134" style="stop-color:#6D6E71"/>
	<stop  offset="1" style="stop-color:#939598"/>
</linearGradient>
<path style="fill:url(#SVGID_00000055675770690763908500000011953484660888117408_);" d="M19.1,22.4c0.3,10.5,0.7,21.1,1,31.6
	c-0.5-0.7-1-1.4-1.5-2.1c-0.3-9.1-0.6-18.1-0.9-27.2C18.1,23.9,18.6,23.2,19.1,22.4z"/>
<linearGradient id="SVGID_00000009558760898343565380000017193084500664409762_" gradientUnits="userSpaceOnUse" x1="-10138.1914" y1="-244.5188" x2="-10138.1914" y2="-214.884" gradientTransform="matrix(-0.9993 -3.650000e-02 -3.900000e-02 1.0686 -10127.0254 -81.8212)">
	<stop  offset="6.980000e-02" style="stop-color:#6D6E71"/>
	<stop  offset="0.1536" style="stop-color:#939598"/>
	<stop  offset="0.2151" style="stop-color:#6D6E71"/>
	<stop  offset="0.3883" style="stop-color:#6D6E71"/>
	<stop  offset="0.4832" style="stop-color:#939598"/>
	<stop  offset="0.6844" style="stop-color:#BCBEC0"/>
	<stop  offset="0.7458" style="stop-color:#808285"/>
	<stop  offset="0.8073" style="stop-color:#B4B4B4"/>
	<stop  offset="0.9134" style="stop-color:#6D6E71"/>
	<stop  offset="1" style="stop-color:#939598"/>
</linearGradient>
<path style="fill:url(#SVGID_00000009558760898343565380000017193084500664409762_);" d="M13.3,22.4l1,31.7
	c-0.5-0.8-0.9-1.5-1.4-2.3c-0.3-9-0.6-18.1-0.9-27.1C12.5,23.9,12.9,23.2,13.3,22.4z"/>
<linearGradient id="SVGID_00000000205040106112455840000016795445973185600426_" gradientUnits="userSpaceOnUse" x1="16.4094" y1="532.2639" x2="16.4094" y2="501.1498" gradientTransform="matrix(0.9993 3.650000e-02 -3.710000e-02 1.0163 20.1291 -487.4541)">
	<stop  offset="0" style="stop-color:#808285"/>
	<stop  offset="0.1313" style="stop-color:#4D4E50"/>
	<stop  offset="0.2039" style="stop-color:#424244"/>
	<stop  offset="0.338" style="stop-color:#808285"/>
	<stop  offset="0.4162" style="stop-color:#D1D3D4"/>
	<stop  offset="0.5168" style="stop-color:#A7A9AC"/>
	<stop  offset="0.662" style="stop-color:#F1F2F2"/>
	<stop  offset="0.8519" style="stop-color:#838587"/>
	<stop  offset="0.919" style="stop-color:#E6E7E8"/>
	<stop  offset="1" style="stop-color:#919396"/>
</linearGradient>
<polygon style="fill:url(#SVGID_00000000205040106112455840000016795445973185600426_);" points="16.2,22.4 17.7,24.7 18.6,51.8 
	17.2,54.1 "/>
<linearGradient id="SVGID_00000033335559012357148560000016102118664010058372_" gradientUnits="userSpaceOnUse" x1="13.5127" y1="532.0707" x2="13.5127" y2="500.6579" gradientTransform="matrix(0.9993 3.650000e-02 -3.680000e-02 1.0081 19.9588 -482.789)">
	<stop  offset="0" style="stop-color:#808285"/>
	<stop  offset="0.1313" style="stop-color:#4D4E50"/>
	<stop  offset="0.2039" style="stop-color:#424244"/>
	<stop  offset="0.338" style="stop-color:#808285"/>
	<stop  offset="0.4162" style="stop-color:#D1D3D4"/>
	<stop  offset="0.5168" style="stop-color:#A7A9AC"/>
	<stop  offset="0.662" style="stop-color:#F1F2F2"/>
	<stop  offset="0.8519" style="stop-color:#838587"/>
	<stop  offset="0.919" style="stop-color:#E6E7E8"/>
	<stop  offset="1" style="stop-color:#919396"/>
</linearGradient>
<polygon style="fill:url(#SVGID_00000033335559012357148560000016102118664010058372_);" points="13.3,22.4 14.8,24.7 15.7,51.9 
	14.3,54.1 "/>
<linearGradient id="SVGID_00000103944533539087526250000008646113180133872033_" gradientUnits="userSpaceOnUse" x1="-10141.0693" y1="-244.1118" x2="-10141.0693" y2="-214.7594" gradientTransform="matrix(-0.9993 -3.650000e-02 -3.930000e-02 1.0773 -10127.1123 -80.2007)">
	<stop  offset="6.980000e-02" style="stop-color:#6D6E71"/>
	<stop  offset="0.1536" style="stop-color:#939598"/>
	<stop  offset="0.2151" style="stop-color:#6D6E71"/>
	<stop  offset="0.3883" style="stop-color:#6D6E71"/>
	<stop  offset="0.4832" style="stop-color:#939598"/>
	<stop  offset="0.6844" style="stop-color:#BCBEC0"/>
	<stop  offset="0.7458" style="stop-color:#808285"/>
	<stop  offset="0.8073" style="stop-color:#B4B4B4"/>
	<stop  offset="0.9134" style="stop-color:#6D6E71"/>
	<stop  offset="1" style="stop-color:#939598"/>
</linearGradient>
<path style="fill:url(#SVGID_00000103944533539087526250000008646113180133872033_);" d="M16.2,22.4l1,31.7l-1.5-2.3
	c-0.3-9.1-0.6-18.1-0.9-27.2C15.3,23.9,15.7,23.2,16.2,22.4z"/>
<linearGradient id="SVGID_00000152258937705087651090000005061427358318209470_" gradientUnits="userSpaceOnUse" x1="12.4" y1="136.5" x2="12.4" y2="136.5" gradientTransform="matrix(1 0 0 -1 0 160)">
	<stop  offset="6.980000e-02" style="stop-color:#6D6E71"/>
	<stop  offset="0.1536" style="stop-color:#939598"/>
	<stop  offset="0.2151" style="stop-color:#6D6E71"/>
	<stop  offset="0.3883" style="stop-color:#6D6E71"/>
	<stop  offset="0.4832" style="stop-color:#939598"/>
	<stop  offset="0.6844" style="stop-color:#BCBEC0"/>
	<stop  offset="0.7458" style="stop-color:#808285"/>
	<stop  offset="0.8073" style="stop-color:#B4B4B4"/>
	<stop  offset="0.9134" style="stop-color:#6D6E71"/>
	<stop  offset="1" style="stop-color:#939598"/>
</linearGradient>
<path style="fill:url(#SVGID_00000152258937705087651090000005061427358318209470_);" d="M12.4,23.5"/>
<linearGradient id="SVGID_00000080204713145631309980000010959491926635419008_" gradientUnits="userSpaceOnUse" x1="120.0937" y1="108.2472" x2="120.0937" y2="135.1472" gradientTransform="matrix(-1 0 0 -1 179.1937 160)">
	<stop  offset="0" style="stop-color:#999898"/>
	<stop  offset="0.1963" style="stop-color:#4F4F4F"/>
	<stop  offset="0.2507" style="stop-color:#5B5B5B"/>
	<stop  offset="0.3499" style="stop-color:#7C7C7C"/>
	<stop  offset="0.3704" style="stop-color:#848484"/>
	<stop  offset="0.433" style="stop-color:#878787"/>
	<stop  offset="0.5974" style="stop-color:#D9D9D9"/>
	<stop  offset="0.6843" style="stop-color:#FFFFFF"/>
	<stop  offset="0.9078" style="stop-color:#B7B7B7"/>
	<stop  offset="1" style="stop-color:#C6C6C6"/>
</linearGradient>
<polygon style="fill:url(#SVGID_00000080204713145631309980000010959491926635419008_);" points="64.8,51.8 53.4,51.8 53.4,24.9 
	64.8,24.9 "/>
<linearGradient id="SVGID_00000021112731864142494830000001770422227893231034_" gradientUnits="userSpaceOnUse" x1="-463.2169" y1="526.6837" x2="-457.2532" y2="526.6837" gradientTransform="matrix(1 0 0 -1 522.053 565.0337)">
	<stop  offset="0" style="stop-color:#000000;stop-opacity:0"/>
	<stop  offset="0.3278" style="stop-color:#040404;stop-opacity:0.2295"/>
	<stop  offset="0.6217" style="stop-color:#0E0E0E;stop-opacity:0.4352"/>
	<stop  offset="0.9016" style="stop-color:#212121;stop-opacity:0.6311"/>
	<stop  offset="1" style="stop-color:#292929;stop-opacity:0.7"/>
</linearGradient>
<rect x="58.8" y="24.9" style="opacity:0.28;fill:url(#SVGID_00000021112731864142494830000001770422227893231034_);enable-background:new    ;" width="6" height="26.9"/>
<linearGradient id="SVGID_00000025405302221069590390000017434466022144769430_" gradientUnits="userSpaceOnUse" x1="-416.3791" y1="561.9792" x2="-409.5998" y2="561.9792" gradientTransform="matrix(-1 0 0 1 -352.1541 -523.6292)">
	<stop  offset="0" style="stop-color:#000000;stop-opacity:0"/>
	<stop  offset="0.3278" style="stop-color:#040404;stop-opacity:0.2295"/>
	<stop  offset="0.6217" style="stop-color:#0E0E0E;stop-opacity:0.4352"/>
	<stop  offset="0.9016" style="stop-color:#212121;stop-opacity:0.6311"/>
	<stop  offset="1" style="stop-color:#292929;stop-opacity:0.7"/>
</linearGradient>
<polygon style="opacity:0.28;fill:url(#SVGID_00000025405302221069590390000017434466022144769430_);enable-background:new    ;" points="
	57.4,24.9 64.2,24.9 64.2,51.8 57.4,51.8 "/>
<g>
	
		<linearGradient id="SVGID_00000054987855321241108770000007909834953180795283_" gradientUnits="userSpaceOnUse" x1="-80.6395" y1="100.3811" x2="-80.6395" y2="142.5811" gradientTransform="matrix(1 0 0 -1 162.4895 160)">
		<stop  offset="2.234637e-02" style="stop-color:#1A1A1A"/>
		<stop  offset="0.9832" style="stop-color:#CCCCCC"/>
	</linearGradient>
	
		<rect x="64.7" y="17.5" style="fill:url(#SVGID_00000054987855321241108770000007909834953180795283_);" width="34.3" height="42.2"/>
	
		<linearGradient id="SVGID_00000101078043062977470010000007143812506558528390_" gradientUnits="userSpaceOnUse" x1="-80.6173" y1="94.7484" x2="-80.6173" y2="107.8347" gradientTransform="matrix(1 0 0 -1 162.4895 160)">
		<stop  offset="0" style="stop-color:#727272"/>
		<stop  offset="1" style="stop-color:#4C4C4C"/>
	</linearGradient>
	<path style="fill:url(#SVGID_00000101078043062977470010000007143812506558528390_);" d="M97.9,52.2H65.8c0,0-2.5,5.6,0,13.1h32.1
		C97.9,65.3,100.5,58.5,97.9,52.2z"/>
	
		<linearGradient id="SVGID_00000011741746332286728320000001855372092961292709_" gradientUnits="userSpaceOnUse" x1="-80.6173" y1="107.8347" x2="-80.6173" y2="134.9709" gradientTransform="matrix(1 0 0 -1 162.4895 160)">
		<stop  offset="0" style="stop-color:#A0A0A0"/>
		<stop  offset="1" style="stop-color:#777777"/>
	</linearGradient>
	<path style="fill:url(#SVGID_00000011741746332286728320000001855372092961292709_);" d="M97.9,25H65.8c0,0-2.5,11.6,0,27.1h32.1
		C97.9,52.2,100.5,38.2,97.9,25z"/>
	
		<linearGradient id="SVGID_00000147912964746082327020000013557276420157363593_" gradientUnits="userSpaceOnUse" x1="-80.6173" y1="134.9709" x2="-80.6173" y2="148.0571" gradientTransform="matrix(1 0 0 -1 162.4895 160)">
		<stop  offset="0" style="stop-color:#F4F4F4"/>
		<stop  offset="1" style="stop-color:#BABABA"/>
	</linearGradient>
	<path style="fill:url(#SVGID_00000147912964746082327020000013557276420157363593_);" d="M97.9,11.9H65.8c0,0-2.5,5.6,0,13.1h32.1
		C97.9,25,100.5,18.3,97.9,11.9z"/>
</g>
<g>
	
		<linearGradient id="SVGID_00000137103729492064075740000004896886241039877542_" gradientUnits="userSpaceOnUse" x1="-118.3895" y1="101.5" x2="-118.3895" y2="141.4" gradientTransform="matrix(1 0 0 -1 162.4895 160)">
		<stop  offset="2.234637e-02" style="stop-color:#1A1A1A"/>
		<stop  offset="0.9832" style="stop-color:#CCCCCC"/>
	</linearGradient>
	
		<rect x="30.1" y="18.6" style="fill:url(#SVGID_00000137103729492064075740000004896886241039877542_);" width="28" height="39.9"/>
	
		<linearGradient id="SVGID_00000030456641603630642470000012190053397753053582_" gradientUnits="userSpaceOnUse" x1="-118.4154" y1="96.1688" x2="-118.4154" y2="108.5688" gradientTransform="matrix(1 0 0 -1 162.4895 160)">
		<stop  offset="0" style="stop-color:#727272"/>
		<stop  offset="1" style="stop-color:#4C4C4C"/>
	</linearGradient>
	<path style="fill:url(#SVGID_00000030456641603630642470000012190053397753053582_);" d="M57.1,51.4H31c0,0-2.1,5.3,0,12.4h26.2
		C57.1,63.8,59.3,57.5,57.1,51.4z"/>
	
		<linearGradient id="SVGID_00000139260709875712610950000010208267294486355378_" gradientUnits="userSpaceOnUse" x1="-118.4154" y1="108.5577" x2="-118.4154" y2="134.2577" gradientTransform="matrix(1 0 0 -1 162.4895 160)">
		<stop  offset="0" style="stop-color:#A0A0A0"/>
		<stop  offset="1" style="stop-color:#777777"/>
	</linearGradient>
	<path style="fill:url(#SVGID_00000139260709875712610950000010208267294486355378_);" d="M57.1,25.8H31c0,0-2.1,11,0,25.7h26.2
		C57.1,51.4,59.3,38.2,57.1,25.8z"/>
	
		<linearGradient id="SVGID_00000177460539362229537870000009529364301481297810_" gradientUnits="userSpaceOnUse" x1="-118.4154" y1="134.2479" x2="-118.4154" y2="146.6479" gradientTransform="matrix(1 0 0 -1 162.4895 160)">
		<stop  offset="0" style="stop-color:#F4F4F4"/>
		<stop  offset="1" style="stop-color:#BABABA"/>
	</linearGradient>
	<path style="fill:url(#SVGID_00000177460539362229537870000009529364301481297810_);" d="M57.1,13.4H31c0,0-2.1,5.3,0,12.4h26.2
		C57.1,25.8,59.3,19.4,57.1,13.4z"/>
</g>
<g>
	<g>
		<defs>
			<path id="SVGID_00000009582423375329387530000014405113842804888199_" d="M99,140.2c0.1-2,0.1-3.9,0-5.5l0,0h-2l0,0
				c0,0,0-9.2,0-26.8l0,0c0.7,0,1.4,0,2,0c0-2.6,0-4.5,0-5.8c0-1.4,0-2.2-0.2-3.4c-0.2-1.2-0.5-2.4-1-3.7H65.7c0,0-1,2.1-1.1,5.5
				l0,0l0,0c0,0.5,0,1,0,1.5v5.8H58V103c0.1-2-0.1-4.4-0.9-6.7H30.9c0,0-0.8,2-0.9,5.2l0,0l0,0c0,0.3,0,0.5,0,0.8h-4.4v1.8h-1v3.6
				h-2.5h-1.2l0,0l0,0c-0.6-0.8-1.2-1.6-1.8-2.5c-0.5,0.8-0.9,1.5-1.4,2.3l-1.5-2.3c-0.5,0.8-0.9,1.5-1.4,2.3l0,0l-1.5-2.3
				c-0.4,0.8-0.9,1.5-1.3,2.3l0,0l-1.5-2.3c-0.5,0.8-0.9,1.5-1.4,2.3l0,0l-1.5-2.3c-0.4,0.8-0.9,1.5-1.3,2.3l-1.5-2.2
				c-0.5,0.7-0.9,1.4-1.4,2.2l-1.4-2c-0.3,0.7-0.6,1.4-0.9,2.1c0,9,0,18.1,0,27.1c0.6,0.9,1.3,1.7,1.9,2.6l0,0l1.3-2.3l0,0l1.5,2.2
				l0,0l1.4-2.3l0,0l0,0c0.5,0.8,1,1.5,1.5,2.3l1.4-2.2l0,0l0,0l1.5,2.3L13,135c0.5,0.8,0.9,1.5,1.4,2.3l1.4-2.2l0,0
				c0.5,0.8,1,1.5,1.5,2.3l1.4-2.3l0,0c0.5,0.7,1,1.4,1.5,2.1c0.3-0.7,0.6-1.4,0.8-2.1c0,0,0,0,0.1,0h3.7v4.3h1v1.5h1.8H30v0.8l0,0
				c0.1,1.6,0.3,3.4,0.9,5.3h26.2c0,0,0.7-2.3,0.9-5.3l0,0v-0.1c0-0.7,0-1.4,0-2.2v-4.5h0.8v0.1h5.8v7.8l0,0
				c0.1,1.7,0.4,3.6,1.1,5.6h32.1C98.4,146,98.8,143.3,99,140.2z"/>
		</defs>
		<clipPath id="SVGID_00000023283453552133224310000007459669007019072132_">
			<use xlink:href="#SVGID_00000009582423375329387530000014405113842804888199_"  style="overflow:visible;"/>
		</clipPath>
		<g style="clip-path:url(#SVGID_00000023283453552133224310000007459669007019072132_);">
			<g>
				<defs>
					<rect id="SVGID_00000088847634475907495720000018289505897350477970_" x="-29.7" y="92.3" width="175.4" height="131.5"/>
				</defs>
				<clipPath id="SVGID_00000001628087730776588130000005438511407165834119_">
					<use xlink:href="#SVGID_00000088847634475907495720000018289505897350477970_"  style="overflow:visible;"/>
				</clipPath>
				<g style="clip-path:url(#SVGID_00000001628087730776588130000005438511407165834119_);enable-background:new    ;">
					
						<image style="overflow:visible;enable-background:new    ;" width="1200" height="900" xlink:href="AC340C3D.jpeg"  transform="matrix(-0.1461 0 0 0.1461 145.6942 92.2548)">
					</image>
				</g>
			</g>
		</g>
	</g>
</g>
<linearGradient id="SVGID_00000102543103927093119010000008608525830989626544_" gradientUnits="userSpaceOnUse" x1="-242.5421" y1="23.7" x2="-242.5421" y2="23.7" gradientTransform="matrix(1 0 0 -1 323.3421 160)">
	<stop  offset="0" style="stop-color:#808285"/>
	<stop  offset="0.2039" style="stop-color:#424244"/>
	<stop  offset="0.3035" style="stop-color:#464648"/>
	<stop  offset="0.4018" style="stop-color:#525253"/>
	<stop  offset="0.4888" style="stop-color:#636363"/>
	<stop  offset="0.6229" style="stop-color:#666666"/>
	<stop  offset="0.7905" style="stop-color:#959696"/>
	<stop  offset="0.8351" style="stop-color:#747575"/>
	<stop  offset="0.919" style="stop-color:#919191"/>
	<stop  offset="1" style="stop-color:#676868"/>
</linearGradient>
<path style="fill:url(#SVGID_00000102543103927093119010000008608525830989626544_);" d="M80.8,136.3"/>
<linearGradient id="SVGID_00000130611505051144156190000014255929286212096164_" gradientUnits="userSpaceOnUse" x1="-232.7421" y1="52.4" x2="-232.7421" y2="52.4" gradientTransform="matrix(1 0 0 -1 323.3421 160)">
	<stop  offset="0" style="stop-color:#444444"/>
	<stop  offset="8.097430e-02" style="stop-color:#5B5B5B"/>
	<stop  offset="0.2486" style="stop-color:#3A3A3A"/>
	<stop  offset="0.3205" style="stop-color:#3E3E3E"/>
	<stop  offset="0.3898" style="stop-color:#494949"/>
	<stop  offset="0.458" style="stop-color:#5D5D5D"/>
	<stop  offset="0.4832" style="stop-color:#666666"/>
	<stop  offset="0.6844" style="stop-color:#474747"/>
	<stop  offset="0.8352" style="stop-color:#636363"/>
</linearGradient>
<path style="fill:url(#SVGID_00000130611505051144156190000014255929286212096164_);" d="M90.6,107.6"/>
<linearGradient id="SVGID_00000173159969897622006020000006404687843944547262_" gradientUnits="userSpaceOnUse" x1="-232.7421" y1="220.3502" x2="-232.7421" y2="220.3502" gradientTransform="matrix(1 0 0 1 323.3421 -82.0502)">
	<stop  offset="0" style="stop-color:#444444"/>
	<stop  offset="8.097430e-02" style="stop-color:#5B5B5B"/>
	<stop  offset="0.2486" style="stop-color:#3A3A3A"/>
	<stop  offset="0.3205" style="stop-color:#3E3E3E"/>
	<stop  offset="0.3898" style="stop-color:#494949"/>
	<stop  offset="0.458" style="stop-color:#5D5D5D"/>
	<stop  offset="0.4832" style="stop-color:#666666"/>
	<stop  offset="0.6844" style="stop-color:#474747"/>
	<stop  offset="0.8352" style="stop-color:#636363"/>
</linearGradient>
<path style="fill:url(#SVGID_00000173159969897622006020000006404687843944547262_);" d="M90.6,138.3"/>
<path class="st37" d="M84.4,134.8c0,0.9,0,1.8,0,2.7c0.5,0.5,1,1.1,1.5,1.6c0.3,0.7,0.6,1.4,0.9,2.1c0.7-0.7,1.3-1.4,2-2.2
	c0.5,0.7,1,1.4,1.5,2.2c0.6-0.8,1.2-1.6,1.8-2.3c0.5,0.8,1,1.6,1.6,2.3c0.6-0.8,1.2-1.6,1.7-2.3c0.5,0.8,1.1,1.6,1.6,2.3
	c0.6-0.9,1.2-1.7,1.8-2.6c0.1,0.7,0.1,1.4,0.1,2.1c0,0.8,0,1.5,0,2.2v0.1l0,0c-0.2,3.1-1.1,5.4-1.1,5.4c-10.7,0-21.3,0-32,0
	c-0.2-0.6-0.5-1.4-0.7-2.4c-0.3-1.4-0.4-2.9-0.4-3.1c-0.2-3-0.1-7.7,0-7.9"/>
<path class="st37" d="M64.6,107.9c0-0.3,0-0.7,0-1.1c0-2.7,0-4.1,0-4.6c0-1-0.1-2.5,0.2-4c0-0.2,0.1-0.4,0.1-0.5
	c0.2-1.2,0.6-2.2,0.9-2.8c10.7,0,21.4,0,32.1,0c0.5,1.1,0.8,2.2,1,3.3v0.1c0.2,1.3,0.1,3,0.1,3.1l0,0c0,1,0,2.1-0.1,3.3
	c-0.5-1-1-2.1-1.6-3.1c-0.5,0.8-1.1,1.6-1.6,2.3c-0.6-0.8-1.2-1.6-1.7-2.3c-0.5,0.8-1.1,1.6-1.6,2.3c-0.6-0.8-1.2-1.6-1.7-2.3
	c-0.5,0.8-1,1.5-1.5,2.3c-0.6-0.8-1.3-1.5-1.9-2.3c-0.4,0.7-0.8,1.4-1.1,2.1c-0.2,0-0.7,0-1.2,0.4c-0.8,0.6-0.8,1.7-0.8,1.8
	c0,0.6,0,1.3,0,1.9"/>
<path class="st38" d="M284,117.9"/>
<path class="st39" d="M98.9,104.8c-0.5-1-1-2.1-1.6-3.1c-0.5,0.8-1.1,1.6-1.6,2.3c-0.6-0.8-1.2-1.6-1.7-2.3
	c-0.5,0.8-1.1,1.6-1.6,2.3c-0.6-0.8-1.2-1.6-1.7-2.3c-0.5,0.8-1,1.5-1.5,2.3c-0.6-0.8-1.3-1.5-1.9-2.3c-0.4,0.7-0.8,1.4-1.1,2.1l0,0
	c-0.5,0-0.9-0.1-1.4-0.1"/>
<path d="M102.5,145.1"/>
<path class="st5" d="M81.6,107.3"/>
<path class="st40" d="M83.7,105"/>
<path class="st40" d="M83.4,107"/>
<path class="st41" d="M74.7,110"/>
<path class="st5" d="M88.3,108.6"/>
<path class="st40" d="M77.3,105.9c-1,0.8-1.7,1.4-1.9,1.5c-0.1,0.1-0.3,0.1-0.3,0.1c-0.1,0.1-0.2,0.1-0.3,0.1
	c-0.1,0-0.2,0.1-0.3,0.1c-0.1,0-1.1,0-0.9,0l0,0c0,0-1.4,0-1.5,0l1.7-0.7l0,0l0,0c0,0,2.3-1.4,2.4-1.4c0-0.1,0-0.3,0-0.4
	c0-0.2,0-0.3,0-0.5l0,0c0-0.2,0-1,0-1l0,0l0,0c0.2,0,0.4,0,0.6,0c0.6,0,1.3,0,1.9,0c0.4,0,0.9,0,1.3,0c0.3,0,0.3,0,0.3,0
	s1.3-1.3,1.8-1.8c0.5,0.6,0.9,1.3,1.4,1.9l1.5-2.3c0.6,1,0.9,1.6,0.9,1.6v0.9c0,0,0,0-0.9,0.5c0,0.9,0,1.9,0,2.8
	c-0.4,0-0.7,0.1-1.1,0.1C81.8,106.9,79.6,106.4,77.3,105.9z"/>
<polyline class="st42" points="92.2,107.9 92.2,107 96.9,107.9 "/>
<path class="st5" d="M92.8,110.4c-0.5,0-1,0-1.5,0c0.5,0.2,1,0.5,1.5,0.7C92.8,110.9,92.8,110.7,92.8,110.4z"/>
<path class="st5" d="M90.7,110.4c-0.5,0-1,0-1.5,0c0.5,0.2,1,0.5,1.5,0.7C90.7,110.9,90.7,110.7,90.7,110.4z"/>
<path class="st40" d="M77.2,136.8c-1.1-1.2-1.9-1.6-2.4-1.7c-0.1,0-1.1-0.2-1.1-0.2l0,0c0,0-0.3,0-0.9,0l0,0l0,0L76,137
	c0,0.1,0,0.3,0,0.4c0,0.2,0,0.3,0,0.5l0,0c0,0.2,0,1,0,1l0,0l0,0c0.2,0,0.4,0,0.6,0c0.6,0,1.3,0,1.9,0c0.4,0,0.9,0,1.3,0
	c0.3,0,0.3,0,0.3,0s1.3,1.3,1.8,1.8c0.5-0.6,0.9-1.2,1.4-1.9l1.5,2.2c0.7-1.1,1-1.7,1-1.7l0,0v-0.8c-0.1-0.4-0.2-0.6-0.2-0.6
	s-0.2,0-0.7,0c0-0.9,0-1.8,0-2.7c-0.4,0-0.7-0.1-1.1-0.1C81.6,135.8,79.4,136.3,77.2,136.8z"/>
<polygon class="st42" points="91.9,135.7 96.8,134.7 92,134.7 "/>
<path class="st39" d="M98.8,138.6c-0.6,0.9-1.2,1.7-1.8,2.6c-0.5-0.8-1.1-1.6-1.6-2.3c-0.6,0.8-1.2,1.6-1.7,2.3
	c-0.5-0.8-1-1.6-1.6-2.3c-0.6,0.8-1.2,1.6-1.8,2.3c-0.5-0.8-1-1.5-1.5-2.3c-0.6,0.8-1.3,1.5-1.9,2.3c-0.3-0.7-0.6-1.4-0.9-2.1l0,0"
	/>
<path class="st5" d="M282.2,151.4"/>
<linearGradient id="SVGID_00000182511279837089671270000005904911028067609747_" gradientUnits="userSpaceOnUse" x1="49.05" y1="26.87" x2="49.05" y2="50.3193" gradientTransform="matrix(1 0 0 -1 0 160)">
	<stop  offset="0" style="stop-color:#424242"/>
	<stop  offset="0.1068" style="stop-color:#333333"/>
	<stop  offset="0.2055" style="stop-color:#2D2D2D"/>
	<stop  offset="0.3492" style="stop-color:#424244"/>
	<stop  offset="0.6732" style="stop-color:#7F7F7F"/>
	<stop  offset="0.9078" style="stop-color:#414042"/>
</linearGradient>
<path style="fill:url(#SVGID_00000182511279837089671270000005904911028067609747_);" d="M1.1,109.7c32,0,63.9,0,95.9,0
	c0,7.8,0,15.6,0,23.4c-32,0-63.9,0-95.9-0.1"/>
<g>
	<g>
		<defs>
			<path id="SVGID_00000177463814663817653440000005855946624024616340_" d="M74.2,134.8c-0.1,0-0.4,0-0.6,0.2c0,0-0.1,0.1-0.1,0.2
				c-0.1,0.3,0.1,0.6,0.1,0.6s0.8,0.6,1.2,0.9c0.4,0.3,1,0.7,1.7,1.3c1,0,1.7,0,2.1,0c0,0,1.4,0,1.5,0h0.1h0.1l0,0l0,0l0,0l0,0l0,0
				l0,0l0,0c0,0,0,0,0-0.1v-0.1c0-0.1,0-0.2,0-0.3c0-0.3,0-0.3,0-0.3l0,0c0-0.2,0.1-0.3,0.1-0.3c0.1-0.1,0.1-0.1,0.2-0.1
				c0.3-0.1,0.5-0.1,0.8-0.1c0.2,0,0.3,0,0.5,0c0,0,0.4,0,1.2,0c2.9,0,2.9,0,2.9,0s3.5-0.6,5.8-1l0,0l0,0c0-0.6,0-0.7,0-0.8l0,0l0,0
				c-0.4,0-0.8,0-1.2,0l0,0c0-0.4,0.1-0.8,0.1-1.1c-0.5,0.4-0.9,0.8-1.4,1.1l0,0l0,0l0,0c-0.2,0-0.5,0-0.7,0c0-0.4,0-0.8,0-1.1
				c-0.5,0.4-0.9,0.8-1.4,1.2l0,0c-1.1,0-1.8,0-2.2,0c-0.1,0-0.5,0-1.1,0c-0.2,0-0.5,0-0.8,0c-0.5,0-1,0-1.3,0c-0.5,0-0.9,0-1.4,0
				h-2.7C77.9,134.7,75.1,134.7,74.2,134.8z"/>
		</defs>
		<clipPath id="SVGID_00000017514765856211814500000002708169804747425971_">
			<use xlink:href="#SVGID_00000177463814663817653440000005855946624024616340_"  style="overflow:visible;"/>
		</clipPath>
		<g style="clip-path:url(#SVGID_00000017514765856211814500000002708169804747425971_);">
			<g>
				<defs>
					<rect id="SVGID_00000075845146079910685230000017025998206724228504_" x="-1.9" y="126.8" width="107.7" height="84.9"/>
				</defs>
				<clipPath id="SVGID_00000092427262361065027850000004335731590545790613_">
					<use xlink:href="#SVGID_00000075845146079910685230000017025998206724228504_"  style="overflow:visible;"/>
				</clipPath>
				
					<g transform="matrix(1 0 0 1 -1.192093e-07 0)" style="clip-path:url(#SVGID_00000092427262361065027850000004335731590545790613_);enable-background:new    ;">
					
						<image style="overflow:visible;enable-background:new    ;" width="1203" height="958" xlink:href="AC340C3F.jpeg"  transform="matrix(8.431076e-02 0 0 8.857309e-02 1.2417 126.7697)">
					</image>
				</g>
			</g>
			<g>
				
					<rect id="SVGID_00000062190792332656991130000002332947958933728912_" x="-1.9" y="126.8" class="st41" width="107.7" height="84.9"/>
			</g>
		</g>
	</g>
	<g>
		<path id="SVGID_00000101804858372699465640000009010863865707677627_" class="st41" d="M74.2,134.8c-0.1,0-0.4,0-0.6,0.2
			c0,0-0.1,0.1-0.1,0.2c-0.1,0.3,0.1,0.6,0.1,0.6s0.8,0.6,1.2,0.9c0.4,0.3,1,0.7,1.7,1.3c1,0,1.7,0,2.1,0c0,0,1.4,0,1.5,0h0.1h0.1
			l0,0l0,0l0,0l0,0l0,0l0,0l0,0c0,0,0,0,0-0.1v-0.1c0-0.1,0-0.2,0-0.3c0-0.3,0-0.3,0-0.3l0,0c0-0.2,0.1-0.3,0.1-0.3
			c0.1-0.1,0.1-0.1,0.2-0.1c0.3-0.1,0.5-0.1,0.8-0.1c0.2,0,0.3,0,0.5,0c0,0,0.4,0,1.2,0c2.9,0,2.9,0,2.9,0s3.5-0.6,5.8-1l0,0l0,0
			c0-0.6,0-0.7,0-0.8l0,0l0,0c-0.4,0-0.8,0-1.2,0l0,0c0-0.4,0.1-0.8,0.1-1.1c-0.5,0.4-0.9,0.8-1.4,1.1l0,0l0,0l0,0
			c-0.2,0-0.5,0-0.7,0c0-0.4,0-0.8,0-1.1c-0.5,0.4-0.9,0.8-1.4,1.2l0,0c-1.1,0-1.8,0-2.2,0c-0.1,0-0.5,0-1.1,0c-0.2,0-0.5,0-0.8,0
			c-0.5,0-1,0-1.3,0c-0.5,0-0.9,0-1.4,0h-2.7C77.9,134.7,75.1,134.7,74.2,134.8z"/>
	</g>
</g>
<g>
	<g>
		<defs>
			<path id="SVGID_00000130623021700015906390000002331839272575477392_" d="M74.3,107.9c-0.1,0-0.4,0-0.6-0.2c0,0-0.1-0.1-0.1-0.2
				c-0.1-0.3,0.1-0.6,0.1-0.6s0.8-0.6,1.2-0.9c0.4-0.3,1-0.7,1.7-1.3c1,0,1.7,0,2.1,0c0,0,1.4,0,1.5,0h0.1h0.1l0,0l0,0l0,0l0,0l0,0
				l0,0l0,0c0,0,0,0,0,0.1v0.1c0,0.1,0,0.2,0,0.3c0,0.3,0,0.3,0,0.3l0,0c0,0.2,0.1,0.3,0.1,0.3c0.1,0.1,0.1,0.1,0.2,0.1
				c0.3,0.1,0.5,0.1,0.8,0.1c0.2,0,0.3,0,0.5,0c0,0,0.4,0,1.2,0c2.9,0,2.9,0,2.9,0s3.5,0.6,5.8,1l0,0l0,0c0,0.6,0,0.7,0,0.8l0,0l0,0
				c-0.4,0-0.8,0-1.2,0l0,0c0,0.4,0.1,0.8,0.1,1.1c-0.5-0.4-0.9-0.8-1.4-1.1l0,0l0,0l0,0c-0.2,0-0.5,0-0.7,0c0,0.4,0,0.8,0,1.1
				c-0.5-0.4-0.9-0.8-1.4-1.2l0,0c-1.1,0-1.8,0-2.2,0c-0.1,0-0.5,0-1.1,0c-0.2,0-0.5,0-0.8,0c-0.5,0-1,0-1.3,0c-0.5,0-0.9,0-1.4,0
				h-2.7C78.1,107.9,75.3,107.9,74.3,107.9z"/>
		</defs>
		<clipPath id="SVGID_00000079473093506944678670000006669037580301930639_">
			<use xlink:href="#SVGID_00000130623021700015906390000002331839272575477392_"  style="overflow:visible;"/>
		</clipPath>
		<g style="clip-path:url(#SVGID_00000079473093506944678670000006669037580301930639_);">
			<g>
				<defs>
					<rect id="SVGID_00000018925196663182466500000000538526626912327073_" x="-1.7" y="31" width="107.7" height="84.9"/>
				</defs>
				<clipPath id="SVGID_00000114041520772933143570000016378573598866606521_">
					<use xlink:href="#SVGID_00000018925196663182466500000000538526626912327073_"  style="overflow:visible;"/>
				</clipPath>
				
					<g transform="matrix(1 0 0 1 0 0)" style="clip-path:url(#SVGID_00000114041520772933143570000016378573598866606521_);enable-background:new    ;">
					
						<image style="overflow:visible;enable-background:new    ;" width="1203" height="958" xlink:href="AC340C3D.jpeg"  transform="matrix(8.431076e-02 0 0 -8.857309e-02 1.4225 115.8921)">
					</image>
				</g>
			</g>
			<g>
				
					<rect id="SVGID_00000021094577302730318980000002278903227214528647_" x="-1.7" y="31" class="st41" width="107.7" height="84.9"/>
			</g>
		</g>
	</g>
	<g>
		<path id="SVGID_00000089573656654263572360000018327853359589845927_" class="st41" d="M74.3,107.9c-0.1,0-0.4,0-0.6-0.2
			c0,0-0.1-0.1-0.1-0.2c-0.1-0.3,0.1-0.6,0.1-0.6s0.8-0.6,1.2-0.9c0.4-0.3,1-0.7,1.7-1.3c1,0,1.7,0,2.1,0c0,0,1.4,0,1.5,0h0.1h0.1
			l0,0l0,0l0,0l0,0l0,0l0,0l0,0c0,0,0,0,0,0.1v0.1c0,0.1,0,0.2,0,0.3c0,0.3,0,0.3,0,0.3l0,0c0,0.2,0.1,0.3,0.1,0.3
			c0.1,0.1,0.1,0.1,0.2,0.1c0.3,0.1,0.5,0.1,0.8,0.1c0.2,0,0.3,0,0.5,0c0,0,0.4,0,1.2,0c2.9,0,2.9,0,2.9,0s3.5,0.6,5.8,1l0,0l0,0
			c0,0.6,0,0.7,0,0.8l0,0l0,0c-0.4,0-0.8,0-1.2,0l0,0c0,0.4,0.1,0.8,0.1,1.1c-0.5-0.4-0.9-0.8-1.4-1.1l0,0l0,0l0,0
			c-0.2,0-0.5,0-0.7,0c0,0.4,0,0.8,0,1.1c-0.5-0.4-0.9-0.8-1.4-1.2l0,0c-1.1,0-1.8,0-2.2,0c-0.1,0-0.5,0-1.1,0c-0.2,0-0.5,0-0.8,0
			c-0.5,0-1,0-1.3,0c-0.5,0-0.9,0-1.4,0h-2.7C78.1,107.9,75.3,107.9,74.3,107.9z"/>
	</g>
</g>
<path class="st42" d="M85.9,138.7V138c-0.3,0-0.7,0-1,0c0.2,0.2,0.4,0.5,0.6,0.7c0,0.8,0.1,1,0.2,1s0.2-0.1,0.2-0.1l0,0
	C85.9,139.6,85.9,139.3,85.9,138.7z"/>
<path class="st39" d="M99,140.4c0.1-2,0.1-3.9,0-5.5h-2c0,0,0-9.2,0-26.7c0.7,0,1.4,0,2,0c0-2.6,0-4.5,0-5.8c0-1.5,0-2.3-0.2-3.4
	c-0.2-1.6-0.7-3-1-3.9c-10.7,0-21.4,0-32.1,0c-0.2,0.5-0.3,1.1-0.5,1.7c-0.4,1.5-0.5,2.8-0.6,4l0,0l0,0c0,0.5,0,1,0,1.5v5.8H58v-4.8
	c0.1-2-0.1-4.4-0.9-6.7H31c0,0-0.8,2-0.9,5.2l0,0l0,0c0,0.3,0,0.5,0,0.8h-4.4v1.8h-1v3.6h-2.5H21c-0.6-0.8-1.2-1.6-1.9-2.4
	c-0.5,0.8-0.9,1.5-1.4,2.3l-1.5-2.3c-0.5,0.8-0.9,1.5-1.4,2.3c-0.5-0.8-1-1.5-1.5-2.3c-0.4,0.8-0.9,1.5-1.3,2.3
	c-0.5-0.8-1-1.5-1.5-2.3c-0.5,0.8-0.9,1.5-1.4,2.3c-0.5-0.8-1-1.5-1.5-2.3c-0.4,0.8-0.9,1.5-1.3,2.3l-1.5-2.2
	c-0.5,0.7-0.9,1.4-1.4,2.2L2,105.6c-0.3,0.7-0.6,1.4-0.9,2.1c0,9,0,18,0,27.1c0.6,0.9,1.3,1.7,1.9,2.6l0,0l1.3-2.3
	c0.5,0.7,1,1.5,1.5,2.2c0.5-0.8,0.9-1.5,1.4-2.3c0.5,0.7,1,1.5,1.5,2.2l1.4-2.2l0,0l0,0l1.5,2.3L13,135c0.5,0.8,0.9,1.5,1.4,2.3
	l1.4-2.2c0.5,0.8,1,1.5,1.5,2.3l1.4-2.3c0.5,0.7,1,1.4,1.5,2.2c0.3-0.7,0.6-1.4,0.8-2.1c0,0,0,0,0.1,0h3.7v4.3h1v1.5h1.8h2.6v0.8
	l0,0c0.1,1.6,0.3,3.4,0.9,5.3h26.2c0,0,0.7-2.2,0.9-5.3l0,0v-0.1c0-0.7,0-1.4,0-2.2V135c2.2,0,4.4,0,6.6,0c0,2.6,0,5.2,0,7.9l0,0
	c0.1,1.7,0.4,3.6,1.1,5.6H98C98.4,146.1,98.8,143.4,99,140.4z"/>
<linearGradient id="SVGID_00000181789990138129348290000010450362165027497127_" gradientUnits="userSpaceOnUse" x1="152.4019" y1="53.85" x2="154.7073" y2="53.85" gradientTransform="matrix(-1 0 0 -1 179.1937 160)">
	<stop  offset="0" style="stop-color:#282828"/>
	<stop  offset="0.4022" style="stop-color:#3D3D3D;stop-opacity:0.9744"/>
	<stop  offset="0.7211" style="stop-color:#363636;stop-opacity:0.9744"/>
	<stop  offset="1" style="stop-color:#2B2B2B;stop-opacity:0.9744"/>
</linearGradient>
<polygon style="fill:url(#SVGID_00000181789990138129348290000010450362165027497127_);" points="24.5,107.9 26.8,107.9 26.8,104.4 
	24.5,104.4 "/>
<linearGradient id="SVGID_00000043452632774734511340000017810681525971247283_" gradientUnits="userSpaceOnUse" x1="152.4457" y1="22.2" x2="154.7511" y2="22.2" gradientTransform="matrix(-1 0 0 -1 179.1937 160)">
	<stop  offset="0" style="stop-color:#282828"/>
	<stop  offset="0.4022" style="stop-color:#3D3D3D;stop-opacity:0.9744"/>
	<stop  offset="0.7211" style="stop-color:#363636;stop-opacity:0.9744"/>
	<stop  offset="1" style="stop-color:#2B2B2B;stop-opacity:0.9744"/>
</linearGradient>
<polygon style="fill:url(#SVGID_00000043452632774734511340000017810681525971247283_);" points="24.4,139.6 26.7,139.6 26.7,136 
	24.4,136 "/>
<image style="overflow:visible;" width="200" height="200" xlink:href="../../pepsi.png"  transform="matrix(5.987360e-02 0 0 5.987360e-02 37.8455 32.5197)">
</image>
</svg>
