<?xml version="1.0" encoding="utf-8"?>
<!-- Generator: Adobe Illustrator 25.4.1, SVG Export Plug-In . SVG Version: 6.00 Build 0)  -->
<svg version="1.1" id="Слой_1" xmlns="http://www.w3.org/2000/svg" xmlns:xlink="http://www.w3.org/1999/xlink" x="0px" y="0px"
	 viewBox="0 0 100 160" style="enable-background:new 0 0 100 160;" xml:space="preserve">
<style type="text/css">
	.st0{fill:none;}
	.st1{opacity:0.5;enable-background:new    ;}
	.st2{fill:#303030;}
	.st3{fill:#BABABA;}
	.st4{fill:url(#SVGID_00000177459662141320675740000000152091485709828492_);}
	.st5{fill:url(#SVGID_00000093147148562001369130000001966933581889689782_);}
	.st6{fill:url(#SVGID_00000100355729496392805750000005050923577588639664_);}
	.st7{fill:url(#SVGID_00000099643480245188202840000006654749163495649725_);}
	.st8{fill:url(#SVGID_00000182514344049977989370000014152518696074439341_);}
</style>
<g>
	<defs>
		<path id="SVGID_1_" d="M97.4,30.1c0.2-0.8,0.7-2.6,0.7-4.9c0-0.1,0-0.3,0-0.4C98,22.7,97.5,21,97,19.2c-0.7-2.6-1.3-3.6-1.9-5.3
			c-0.7-1.9-1.5-4.8-1.6-8.6h-0.2c0,0-0.5,0-1.2,0c-0.1,0-0.3,0-0.5,0c-2.6,0-7.3,0-8.2,0c-1.3,0-1.6,3.2-1.6,3.2s0,4.5,0,7.3
			s-8,1-8,1l-0.9-2.1l-0.5,0.7v-4.6c0-0.7,0-1.3,0-1.9l0,0l0,0C72.2,4.7,71.2,2,71.2,2H37.6c-1.1,3.1-1.3,6.2-1.2,8.9v11.8H4.6
			l-2.7,2.5c0,6.8,0,13.7,0,20.5l2.7,2.6h31.8v10.1c-0.3,5.5,1.2,10.1,1.2,10.1h33.7c0.7-2.6,1-4.9,1.1-7l0,0v-5.9l0.5,0.7l0.9-2.1
			c0,0,8-1.8,8,1s0,7.3,0,7.3s0.4,3.2,1.6,3.2c0.9,0,5.6,0,8.2,0c0.2,0,0.3,0,0.5,0h1.4l0,0h3.8c-1.9-3.8-2.7-6.9-3-9
			c-0.5-3.5-0.5-7.3-0.1-10.9C94.9,39.6,96.4,33.8,97.4,30.1z"/>
	</defs>
	<clipPath id="SVGID_00000026138521679664168160000015014377883456186245_">
		<use xlink:href="#SVGID_1_"  style="overflow:visible;"/>
	</clipPath>
	<g style="clip-path:url(#SVGID_00000026138521679664168160000015014377883456186245_);">
		
			<image style="overflow:visible;" width="600" height="600" xlink:href="../../background.jpg"  transform="matrix(0.2809 0 0 0.2809 -1.2144 -9.2576)">
		</image>
	</g>
	<use xlink:href="#SVGID_1_"  style="overflow:visible;fill:none;stroke:#999999;stroke-width:0.75;stroke-miterlimit:10;"/>
</g>
<path class="st0" d="M97.6,30.1c0.2-0.8,0.7-2.6,0.7-4.9c0-0.1,0-0.3,0-0.4c-0.1-2.1-0.6-3.8-1.1-5.5c-0.7-2.6-1.3-3.6-1.9-5.3
	c-0.7-1.9-1.5-4.8-1.6-8.6h-0.2c0,0-0.5,0-1.2,0c-0.1,0-0.3,0-0.5,0c-2.6,0-7.3,0-8.2,0c-1.3,0-1.6,3.2-1.6,3.2s0,4.5,0,7.3
	s-8,1-8,1l-0.9-2.1l-0.5,0.7v-4.6c0-0.7,0-1.3,0-1.9l0,0l0,0c-0.2-4.2-1.2-6.9-1.2-6.9H37.8c-1.1,3.1-1.3,6.2-1.2,8.9v11.8H4.7
	L2,25.2H1.9v20.5H2l2.7,2.6h31.8v10.1c-0.3,5.5,1.2,10.1,1.2,10.1h33.7c0.7-2.6,1-4.9,1.1-7l0,0v-5.9l0.5,0.7l0.9-2.1c0,0,8-1.8,8,1
	s0,7.3,0,7.3s0.4,3.2,1.6,3.2c0.9,0,5.6,0,8.2,0c0.2,0,0.3,0,0.5,0h1.4l0,0h3.8c-1.9-3.8-2.7-6.9-3-9c-0.5-3.5-0.5-7.3-0.1-10.9
	C95,39.6,96.6,33.8,97.6,30.1z"/>
<path class="st1" d="M72.4,10.8c0-0.7,0-1.3,0-1.9l0,0l0,0C72.2,4.7,71.2,2,71.2,2H37.6c-1.1,3.1-1.3,6.2-1.2,8.9v21.2
	c0,1.6,0,3.2,0,4.6v21.7c-0.3,5.5,1.2,10.1,1.2,10.1h33.7c0.7-2.6,1-4.9,1.1-7l0,0c0.1-3.7,0.2-5.6,0.2-5.6l0,0l-1.1-1.7l0,0
	l-1.8,3.1l0,0l-1.4-3.1l0,0l-1.6,3.1l0,0l-1.6-2.9l0,0l-1.5,2.9l0,0l-1.5-3.1l0,0l-1.6,3.1l0,0l-1.4-3.1l0,0c-1.3,0.1-1.4,0-1.4,0
	c-0.6-0.3-0.6-1.8,0-2.8c0.8-1.4,2.6-1.6,3.4-1.9c6.3-2.1,6.4-26.4,0.2-28.4c-1-0.3-2.8-0.2-3.6-1.5c-0.6-1-0.6-2.5,0-2.8
	c0,0,0.1-0.1,1.4,0l0,0l1.4-3.1l0,0l1.6,3.1l0,0l1.5-3.1l0,0l1.5,2.9l0,0l1.6-2.9l0,0l1.6,3.1l0,0l1.4-3.1l0,0l1.8,3.1l0,0l0.9-1.5
	l0,0C72.4,15.2,72.4,13.7,72.4,10.8z"/>
<path class="st2" d="M49.6,18.9v-1.6l3.9-1l0.8-2l1.5,2.5l1.5-3.1l1.7,3.1h-1.4v2.8C57.5,19.5,53.1,21.6,49.6,18.9z"/>
<path class="st2" d="M49.6,52v1.6l3.9,1l0.8,2l1.5-2.5l1.5,3.1l1.7-3.1h-1.4v-2.8C57.5,51.3,53.1,49.3,49.6,52z"/>
<polygon class="st3" points="92,65.6 93.4,65.6 93.4,65.6 "/>
<path class="st3" d="M92,45.7h2.2c0.7-6.1,2.2-11.9,3.2-15.6c0.2-0.8,0.7-2.6,0.7-4.9H92V45.7z"/>
<g>
	<defs>
		<path id="SVGID_00000129901656532314637160000007640214358578026144_" d="M1.9,45.5C1.9,45.6,1.9,45.6,1.9,45.5c0,0.1,0,0.2,0,0.2
			l0,0c0.2,0.2,2.6,2.5,2.6,2.5c13.7,0,27.3,0,41,0c0,0,1,2.9,3.8,3.6c0.1,0,0.2,0.1,0.3,0.1c1.9,0,3.7,0,5.6,0
			c4.4-1.2,8.8-2.4,13.2-3.6v-2l-1.6-0.7C45.3,45.6,23.6,45.6,1.9,45.5C2,45.5,1.9,45.5,1.9,45.5z"/>
	</defs>
	<clipPath id="SVGID_00000090264515636512340610000007048351580706892956_">
		<use xlink:href="#SVGID_00000129901656532314637160000007640214358578026144_"  style="overflow:visible;"/>
	</clipPath>
	<g style="clip-path:url(#SVGID_00000090264515636512340610000007048351580706892956_);">
		
			<image style="overflow:visible;" width="600" height="600" xlink:href="../../background.jpg"  transform="matrix(0.1701 0 0 0.1701 -29.8211 -47.9991)">
		</image>
	</g>
</g>
<radialGradient id="SVGID_00000176034049565280031130000017669671208052835517_" cx="63.1664" cy="1357.6423" r="1.4541" gradientTransform="matrix(1 0 0 1 0 -1308.6711)" gradientUnits="userSpaceOnUse">
	<stop  offset="0" style="stop-color:#353535"/>
	<stop  offset="1" style="stop-color:#282828"/>
</radialGradient>
<circle style="fill:url(#SVGID_00000176034049565280031130000017669671208052835517_);" cx="63.2" cy="49" r="1.5"/>
<g>
	<defs>
		<path id="SVGID_00000046320564594418204880000009257052977169401985_" d="M1.9,25.1L1.9,25.1L1.9,25.1L1.9,25.1l2.6-2.5
			c13.7,0,27.3,0,41,0c0,0,1-2.9,3.8-3.6c0.1,0,0.2-0.1,0.3-0.1c1.9,0,3.7,0,5.6,0c4.4,1.2,8.8,2.4,13.2,3.6v2l-1.5,0.7
			C64.6,25.2,2,25.3,2,25.3H1.9l0,0C1.9,25.3,1.9,25.2,1.9,25.1z"/>
	</defs>
	<clipPath id="SVGID_00000163784564039530718180000001658284933573047710_">
		<use xlink:href="#SVGID_00000046320564594418204880000009257052977169401985_"  style="overflow:visible;"/>
	</clipPath>
	<g style="clip-path:url(#SVGID_00000163784564039530718180000001658284933573047710_);">
		
			<image style="overflow:visible;" width="600" height="600" xlink:href="../../background.jpg"  transform="matrix(0.1701 0 0 0.1701 -26.6188 -73.0553)">
		</image>
	</g>
</g>
<radialGradient id="SVGID_00000144332652197936806000000011350284376315199389_" cx="63.1664" cy="139.4134" r="1.4541" gradientTransform="matrix(1 0 0 -1 0 161.3228)" gradientUnits="userSpaceOnUse">
	<stop  offset="0" style="stop-color:#353535"/>
	<stop  offset="1" style="stop-color:#282828"/>
</radialGradient>
<circle style="fill:url(#SVGID_00000144332652197936806000000011350284376315199389_);" cx="63.2" cy="21.9" r="1.5"/>
<path class="st0" d="M57.5,19.5"/>
<linearGradient id="SVGID_00000029757982945064291190000005748222461294979981_" gradientUnits="userSpaceOnUse" x1="49.9" y1="115.6102" x2="49.9" y2="136.1102" gradientTransform="matrix(1 0 0 -1 0 161.3228)">
	<stop  offset="0" style="stop-color:#424242"/>
	<stop  offset="0.1068" style="stop-color:#333333"/>
	<stop  offset="0.2055" style="stop-color:#2D2D2D"/>
	<stop  offset="0.3492" style="stop-color:#424244"/>
	<stop  offset="0.6732" style="stop-color:#7F7F7F"/>
	<stop  offset="0.9078" style="stop-color:#414042"/>
</linearGradient>
<path style="fill:url(#SVGID_00000029757982945064291190000005748222461294979981_);" d="M92,25.2h-0.5H71.2H1.7v20.5h69.4h20.4H92
	h2.2c0.7-6.1,2.2-11.9,3.2-15.6c0.2-0.8,0.7-2.6,0.7-4.9H92z"/>
<linearGradient id="SVGID_00000135660782952563263200000007454914891418945204_" gradientUnits="userSpaceOnUse" x1="70.05" y1="112.5594" x2="70.05" y2="139.2056" gradientTransform="matrix(1 0 0 -1 0 161.3228)">
	<stop  offset="0" style="stop-color:#303030"/>
	<stop  offset="0.1068" style="stop-color:#232323"/>
	<stop  offset="0.2055" style="stop-color:#1C1C1C"/>
	<stop  offset="0.3492" style="stop-color:#333333"/>
	<stop  offset="0.6732" style="stop-color:#686868"/>
	<stop  offset="0.9078" style="stop-color:#303030"/>
</linearGradient>
<polygon style="fill:url(#SVGID_00000135660782952563263200000007454914891418945204_);" points="68.5,48.8 71.6,48.8 71.6,22.1 
	68.5,22.1 68.5,24.5 "/>
<linearGradient id="SVGID_00000035531267057639911460000003025043027735543215_" gradientUnits="userSpaceOnUse" x1="67.45" y1="114.9102" x2="67.45" y2="136.859" gradientTransform="matrix(1 0 0 -1 0 161.3228)">
	<stop  offset="0" style="stop-color:#3A3A3A"/>
	<stop  offset="0.1068" style="stop-color:#2D2D2D"/>
	<stop  offset="0.2055" style="stop-color:#262626"/>
	<stop  offset="0.3492" style="stop-color:#3D3D3D"/>
	<stop  offset="0.6732" style="stop-color:#757575"/>
	<stop  offset="0.9078" style="stop-color:#383838"/>
</linearGradient>
<polygon style="fill:url(#SVGID_00000035531267057639911460000003025043027735543215_);" points="66.4,25.2 66.4,45.7 68.5,46.4 
	68.5,24.5 "/>
<image style="overflow:visible;" width="200" height="200" xlink:href="../../pepsi.png"  transform="matrix(6.539326e-02 0 0 6.539326e-02 42.3258 28.8423)">
</image>
</svg>
