<?xml version="1.0" encoding="utf-8"?>
<!-- Generator: Adobe Illustrator 25.4.1, SVG Export Plug-In . SVG Version: 6.00 Build 0)  -->
<svg version="1.1" id="Слой_1" xmlns="http://www.w3.org/2000/svg" xmlns:xlink="http://www.w3.org/1999/xlink" x="0px" y="0px"
	 viewBox="0 0 100 160" style="enable-background:new 0 0 100 160;" xml:space="preserve">
<style type="text/css">
	.st0{fill:url(#SVGID_1_);}
	.st1{fill:url(#SVGID_00000047052957568868397480000008958736729968757675_);}
	.st2{fill:url(#SVGID_00000100367524396146860400000013130722845761653177_);}
	.st3{opacity:0.28;fill:url(#SVGID_00000038382631254699964860000004458243264117412785_);enable-background:new    ;}
	.st4{opacity:0.28;fill:url(#SVGID_00000099662577479286541080000003565467484476192676_);enable-background:new    ;}
	.st5{fill:url(#SVGID_00000075848282254693884950000008841236150679110298_);}
	.st6{opacity:0.28;fill:url(#SVGID_00000101814681304402254970000011204314594624823692_);enable-background:new    ;}
	.st7{fill:url(#SVGID_00000129166177272918582640000002432177240013185682_);}
	.st8{fill:url(#SVGID_00000088842204682264032620000016790559486264966799_);}
	.st9{fill:url(#SVGID_00000010305025289566966560000007603579467659430287_);}
	.st10{fill:url(#SVGID_00000038386137083910319820000010257193741041523645_);}
	.st11{fill:url(#SVGID_00000116939456604821563800000015481239765659572401_);}
	.st12{fill:url(#SVGID_00000023242116749708900640000015424296890974794400_);}
	.st13{fill:url(#SVGID_00000002350477436842103640000010346384000170286494_);}
	.st14{fill:url(#SVGID_00000013914512259295282120000001062642789609816227_);}
	.st15{fill:url(#SVGID_00000029016328489829730610000010123030784904013985_);}
	.st16{fill:url(#SVGID_00000106112016548962335140000000890999429722463904_);}
	.st17{fill:url(#SVGID_00000151525065847701518440000006244102253283032252_);}
	.st18{opacity:0.28;fill:url(#SVGID_00000145027401276357310850000013520115391619186866_);enable-background:new    ;}
	.st19{fill:url(#SVGID_00000166653322529514346270000013050959882453126046_);}
	.st20{clip-path:url(#SVGID_00000123431151424121671910000010046918609770875825_);enable-background:new    ;}
	.st21{fill:url(#SVGID_00000016045266975732875290000016718557194617116606_);}
	.st22{fill:url(#SVGID_00000000209862660921400900000016685724138604277378_);}
	.st23{opacity:0.38;enable-background:new    ;}
	.st24{fill:none;stroke:#ADADAD;stroke-width:0.5;stroke-miterlimit:10;}
	.st25{fill:#282828;}
	.st26{fill:#282828;stroke:#282828;stroke-width:0.5;stroke-miterlimit:10;}
	.st27{fill:url(#SVGID_00000035521788862462944780000002964303211885285525_);}
	.st28{opacity:0.4;fill:url(#SVGID_00000143613175010873650680000007280583505059384755_);enable-background:new    ;}
	.st29{clip-path:url(#SVGID_00000042014481106977090700000003136225173823600044_);}
	.st30{clip-path:url(#SVGID_00000008842419095590371720000010779971475181468825_);enable-background:new    ;}
	.st31{fill:none;stroke:#8C8C8C;stroke-width:0.2;}
	.st32{clip-path:url(#SVGID_00000067232433542528642930000004856924736052805551_);}
	.st33{clip-path:url(#SVGID_00000107563584252928861990000015347333651827126972_);enable-background:new    ;}
	.st34{fill:url(#SVGID_00000163065945234649344100000017684377322093807793_);}
	.st35{fill:url(#SVGID_00000129203031501637795730000002650279422639365520_);}
	.st36{fill:url(#SVGID_00000071526928674226210100000013483576370238250144_);}
	.st37{fill:url(#SVGID_00000093146287628385713610000001430085500598939314_);}
	.st38{opacity:0.28;fill:url(#SVGID_00000101807121523438980590000012121641975519358602_);enable-background:new    ;}
	.st39{fill:none;stroke:#686768;stroke-width:0.25;stroke-miterlimit:10;}
</style>
<linearGradient id="SVGID_1_" gradientUnits="userSpaceOnUse" x1="26.53" y1="108.2" x2="26.53" y2="136.8" gradientTransform="matrix(-1 0 0 -1 70.38 160)">
	<stop  offset="0" style="stop-color:#999898"/>
	<stop  offset="0.1963" style="stop-color:#4F4F4F"/>
	<stop  offset="0.2507" style="stop-color:#5B5B5B"/>
	<stop  offset="0.3499" style="stop-color:#7C7C7C"/>
	<stop  offset="0.3704" style="stop-color:#848484"/>
	<stop  offset="0.433" style="stop-color:#878787"/>
	<stop  offset="0.5974" style="stop-color:#D9D9D9"/>
	<stop  offset="0.6843" style="stop-color:#FFFFFF"/>
	<stop  offset="0.9078" style="stop-color:#B7B7B7"/>
	<stop  offset="1" style="stop-color:#C6C6C6"/>
</linearGradient>
<path class="st0" d="M40.6,51.8c0,0,3.2-0.9,6.5,0V23.2c0,0-2.6,1-6.5,0V51.8z"/>
<linearGradient id="SVGID_00000088811957722699810310000007672909168781119876_" gradientUnits="userSpaceOnUse" x1="-15.676" y1="107" x2="-15.676" y2="138.1" gradientTransform="matrix(1 0 0 -1 63.526 160)">
	<stop  offset="0" style="stop-color:#636363"/>
	<stop  offset="0.1983" style="stop-color:#444444"/>
	<stop  offset="0.2933" style="stop-color:#383838"/>
	<stop  offset="0.433" style="stop-color:#565656"/>
	<stop  offset="0.6732" style="stop-color:#E5E5E5"/>
	<stop  offset="0.9078" style="stop-color:#7F7E7E"/>
	<stop  offset="1" style="stop-color:#939292"/>
</linearGradient>
<path style="fill:url(#SVGID_00000088811957722699810310000007672909168781119876_);" d="M47.5,53c0.2-0.4,0.5-0.8,0.7-1.2
	c0-9.6,0-19.2,0-28.8c-0.2-0.4-0.5-0.7-0.7-1.1V53z"/>
<linearGradient id="SVGID_00000146474640309909298840000003268715722549039012_" gradientUnits="userSpaceOnUse" x1="-53.0172" y1="107" x2="-53.0172" y2="138.1" gradientTransform="matrix(-1 0 0 -1 -5.8672 160)">
	<stop  offset="0" style="stop-color:#7F7F7F"/>
	<stop  offset="0.1983" style="stop-color:#606060"/>
	<stop  offset="0.2933" style="stop-color:#545454"/>
	<stop  offset="0.433" style="stop-color:#757575"/>
	<stop  offset="0.6732" style="stop-color:#FFFFFF"/>
	<stop  offset="0.9078" style="stop-color:#9B9B9B"/>
	<stop  offset="1" style="stop-color:#B2B2B2"/>
</linearGradient>
<path style="fill:url(#SVGID_00000146474640309909298840000003268715722549039012_);" d="M47.5,53c-0.2-0.4-0.4-0.9-0.7-1.3
	c0-9.5,0-19,0-28.5c0.2-0.4,0.4-0.9,0.6-1.3V53H47.5z"/>
<linearGradient id="SVGID_00000138539543111181270120000008797732754362173877_" gradientUnits="userSpaceOnUse" x1="-197.1037" y1="101.2528" x2="-194.5543" y2="101.2528" gradientTransform="matrix(-1 0 0 1 -155.2194 -63.7528)">
	<stop  offset="0" style="stop-color:#000000;stop-opacity:0"/>
	<stop  offset="1" style="stop-color:#000000;stop-opacity:0.9744"/>
</linearGradient>
<path style="opacity:0.28;fill:url(#SVGID_00000138539543111181270120000008797732754362173877_);enable-background:new    ;" d="
	M39.3,23.2c0.4,0.1,0.9,0.2,1.4,0.3c0.4,0.1,0.8,0.1,1.1,0.1c0,9.3,0,18.6,0,27.8c-0.4,0-0.8,0-1.2,0.1c-0.5,0.1-0.9,0.2-1.3,0.3
	C39.3,42.2,39.3,32.7,39.3,23.2z"/>
<linearGradient id="SVGID_00000033356164658395418890000005491719899372405177_" gradientUnits="userSpaceOnUse" x1="-126.4162" y1="101.2028" x2="-123.7884" y2="101.2028" gradientTransform="matrix(1 0 0 1 170.6759 -63.7528)">
	<stop  offset="0" style="stop-color:#010101;stop-opacity:1.521599e-02"/>
	<stop  offset="0.3743" style="stop-color:#0D0D0D;stop-opacity:0.3742"/>
	<stop  offset="1" style="stop-color:#292929;stop-opacity:0.9744"/>
</linearGradient>
<path style="opacity:0.28;fill:url(#SVGID_00000033356164658395418890000005491719899372405177_);enable-background:new    ;" d="
	M46.9,23.2c-0.4,0.1-0.8,0.2-1.3,0.3c-0.5,0.1-0.9,0.1-1.3,0.1c0,9.3,0,18.5,0,27.8c0.4,0,0.9,0,1.4,0.1c0.4,0.1,0.8,0.1,1.2,0.2
	C46.9,42.2,46.9,32.7,46.9,23.2z"/>
<linearGradient id="SVGID_00000060714868869089271560000014630150742800757686_" gradientUnits="userSpaceOnUse" x1="85.15" y1="111.0239" x2="85.15" y2="134.0239" gradientTransform="matrix(1 0 0 -1 0 160)">
	<stop  offset="0" style="stop-color:#999898"/>
	<stop  offset="0.1963" style="stop-color:#4F4F4F"/>
	<stop  offset="0.2507" style="stop-color:#5B5B5B"/>
	<stop  offset="0.3499" style="stop-color:#7C7C7C"/>
	<stop  offset="0.3704" style="stop-color:#848484"/>
	<stop  offset="0.433" style="stop-color:#878787"/>
	<stop  offset="0.5974" style="stop-color:#D9D9D9"/>
	<stop  offset="0.6843" style="stop-color:#FFFFFF"/>
	<stop  offset="0.9078" style="stop-color:#B7B7B7"/>
	<stop  offset="1" style="stop-color:#C6C6C6"/>
</linearGradient>
<rect x="73.4" y="26" style="fill:url(#SVGID_00000060714868869089271560000014630150742800757686_);" width="23.5" height="23"/>
<linearGradient id="SVGID_00000140698449738938721350000015226415315400635830_" gradientUnits="userSpaceOnUse" x1="-426.0332" y1="527.5837" x2="-416.2833" y2="527.5837" gradientTransform="matrix(-1 0 0 -1 -342.8593 565.0337)">
	<stop  offset="0" style="stop-color:#000000;stop-opacity:0"/>
	<stop  offset="0.3429" style="stop-color:#0A0A0A;stop-opacity:0.3341"/>
	<stop  offset="0.9264" style="stop-color:#252525;stop-opacity:0.9026"/>
	<stop  offset="1" style="stop-color:#292929;stop-opacity:0.9744"/>
</linearGradient>
<polygon style="opacity:0.28;fill:url(#SVGID_00000140698449738938721350000015226415315400635830_);enable-background:new    ;" points="
	73.4,48.9 83.2,48.9 83.2,26 73.4,26 "/>
<g>
	
		<linearGradient id="SVGID_00000031171314795841958410000014154079372789076153_" gradientUnits="userSpaceOnUse" x1="-44.1458" y1="104.7" x2="-44.1458" y2="140.4" gradientTransform="matrix(-1 0 0 -1 16.7042 160)">
		<stop  offset="2.234637e-02" style="stop-color:#1A1A1A"/>
		<stop  offset="0.9832" style="stop-color:#CCCCCC"/>
	</linearGradient>
	<polygon style="fill:url(#SVGID_00000031171314795841958410000014154079372789076153_);" points="48.3,55.3 73.4,55.3 73.4,19.6 
		48.3,19.6 	"/>
	
		<linearGradient id="SVGID_00000018931325413373955110000007016050163284597676_" gradientUnits="userSpaceOnUse" x1="-44.1458" y1="99.9383" x2="-44.1458" y2="111.0239" gradientTransform="matrix(-1 0 0 -1 16.7042 160)">
		<stop  offset="0" style="stop-color:#727272"/>
		<stop  offset="1" style="stop-color:#4C4C4C"/>
	</linearGradient>
	<path style="fill:url(#SVGID_00000018931325413373955110000007016050163284597676_);" d="M49.1,49h23.5c0,0,1.9,4.7,0,11.1H49.1
		C49.1,60.1,47.2,54.4,49.1,49z"/>
	
		<linearGradient id="SVGID_00000156589208793314969550000011633642743851892621_" gradientUnits="userSpaceOnUse" x1="-44.1458" y1="111.0239" x2="-44.1458" y2="134.0239" gradientTransform="matrix(-1 0 0 -1 16.7042 160)">
		<stop  offset="0" style="stop-color:#A0A0A0"/>
		<stop  offset="1" style="stop-color:#777777"/>
	</linearGradient>
	<path style="fill:url(#SVGID_00000156589208793314969550000011633642743851892621_);" d="M49.1,26h23.5c0,0,1.9,9.8,0,23H49.1
		C49.1,49,47.2,37.1,49.1,26z"/>
	
		<linearGradient id="SVGID_00000114041932955892431010000007493310654737050013_" gradientUnits="userSpaceOnUse" x1="-44.1458" y1="134.0115" x2="-44.1458" y2="145.0971" gradientTransform="matrix(-1 0 0 -1 16.7042 160)">
		<stop  offset="0" style="stop-color:#F4F4F4"/>
		<stop  offset="1" style="stop-color:#BABABA"/>
	</linearGradient>
	<path style="fill:url(#SVGID_00000114041932955892431010000007493310654737050013_);" d="M49.1,14.9h23.5c0,0,1.9,4.7,0,11.1H49.1
		C49.1,26,47.2,20.3,49.1,14.9z"/>
</g>
<g>
	
		<linearGradient id="SVGID_00000178166402501350229830000005608680387697107377_" gradientUnits="userSpaceOnUse" x1="-18.3958" y1="106.3" x2="-18.3958" y2="138.9" gradientTransform="matrix(-1 0 0 -1 16.7042 160)">
		<stop  offset="2.234637e-02" style="stop-color:#1A1A1A"/>
		<stop  offset="0.9832" style="stop-color:#CCCCCC"/>
	</linearGradient>
	<polygon style="fill:url(#SVGID_00000178166402501350229830000005608680387697107377_);" points="29.4,53.7 40.8,53.7 40.8,21.1 
		29.4,21.1 	"/>
	
		<linearGradient id="SVGID_00000065071385135768247710000006112637736152917889_" gradientUnits="userSpaceOnUse" x1="-18.3736" y1="101.932" x2="-18.3736" y2="112.0457" gradientTransform="matrix(-1 0 0 -1 16.7042 160)">
		<stop  offset="0" style="stop-color:#727272"/>
		<stop  offset="1" style="stop-color:#4C4C4C"/>
	</linearGradient>
	<path style="fill:url(#SVGID_00000065071385135768247710000006112637736152917889_);" d="M29.8,48h10.6c0,0,0.8,4.3,0,10.1H29.8
		C29.8,58.1,28.9,52.9,29.8,48z"/>
	
		<linearGradient id="SVGID_00000136401122991420209940000005313112654903447956_" gradientUnits="userSpaceOnUse" x1="-18.3958" y1="112.0457" x2="-18.3958" y2="133.0179" gradientTransform="matrix(-1 0 0 -1 16.7042 160)">
		<stop  offset="0" style="stop-color:#A0A0A0"/>
		<stop  offset="1" style="stop-color:#777777"/>
	</linearGradient>
	<path style="fill:url(#SVGID_00000136401122991420209940000005313112654903447956_);" d="M29.8,27h10.6c0,0,0.8,9,0,21H29.8
		C29.8,48,29,37.2,29.8,27z"/>
	
		<linearGradient id="SVGID_00000025422773960120994520000011772576318789370026_" gradientUnits="userSpaceOnUse" x1="-18.3958" y1="133.0179" x2="-18.3958" y2="143.1316" gradientTransform="matrix(-1 0 0 -1 16.7042 160)">
		<stop  offset="0" style="stop-color:#F4F4F4"/>
		<stop  offset="1" style="stop-color:#BABABA"/>
	</linearGradient>
	<path style="fill:url(#SVGID_00000025422773960120994520000011772576318789370026_);" d="M29.8,16.9h10.6c0,0,0.8,4.3,0,10.1H29.8
		C29.8,27,29,21.8,29.8,16.9z"/>
</g>
<linearGradient id="SVGID_00000067931810599598043920000003865702495498807979_" gradientUnits="userSpaceOnUse" x1="96.9" y1="134" x2="96.9" y2="134" gradientTransform="matrix(1 0 0 -1 0 160)">
	<stop  offset="0" style="stop-color:#999898"/>
	<stop  offset="0.1963" style="stop-color:#4F4F4F"/>
	<stop  offset="0.2507" style="stop-color:#5B5B5B"/>
	<stop  offset="0.3499" style="stop-color:#7C7C7C"/>
	<stop  offset="0.3704" style="stop-color:#848484"/>
	<stop  offset="0.433" style="stop-color:#878787"/>
	<stop  offset="0.5974" style="stop-color:#D9D9D9"/>
	<stop  offset="0.6843" style="stop-color:#FFFFFF"/>
	<stop  offset="0.9078" style="stop-color:#B7B7B7"/>
	<stop  offset="1" style="stop-color:#C6C6C6"/>
</linearGradient>
<path style="fill:url(#SVGID_00000067931810599598043920000003865702495498807979_);" d="M96.9,26"/>
<linearGradient id="SVGID_00000003827839652934330060000015251607458939561914_" gradientUnits="userSpaceOnUse" x1="97.95" y1="111.0239" x2="97.95" y2="134.0239" gradientTransform="matrix(1 0 0 -1 0 160)">
	<stop  offset="0" style="stop-color:#8E8E8E"/>
	<stop  offset="0.1963" style="stop-color:#444444"/>
	<stop  offset="0.2542" style="stop-color:#505050"/>
	<stop  offset="0.3599" style="stop-color:#717171"/>
	<stop  offset="0.3704" style="stop-color:#757575"/>
	<stop  offset="0.6843" style="stop-color:#DDDDDD"/>
	<stop  offset="0.9078" style="stop-color:#B7B7B7"/>
	<stop  offset="1" style="stop-color:#B7B7B7"/>
</linearGradient>
<polygon style="fill:url(#SVGID_00000003827839652934330060000015251607458939561914_);" points="99,29.5 99,45.5 96.9,49 96.9,26 
	"/>
<linearGradient id="SVGID_00000040543613330507739710000000297393786293329047_" gradientUnits="userSpaceOnUse" x1="63.0955" y1="112.0457" x2="63.0955" y2="133.0179" gradientTransform="matrix(-1 0 0 -1 79.5955 160)">
	<stop  offset="0" style="stop-color:#999898"/>
	<stop  offset="0.1963" style="stop-color:#4F4F4F"/>
	<stop  offset="0.2507" style="stop-color:#5B5B5B"/>
	<stop  offset="0.3499" style="stop-color:#7C7C7C"/>
	<stop  offset="0.3704" style="stop-color:#848484"/>
	<stop  offset="0.433" style="stop-color:#878787"/>
	<stop  offset="0.5974" style="stop-color:#D9D9D9"/>
	<stop  offset="0.6843" style="stop-color:#FFFFFF"/>
	<stop  offset="0.9078" style="stop-color:#B7B7B7"/>
	<stop  offset="1" style="stop-color:#C6C6C6"/>
</linearGradient>
<polygon style="fill:url(#SVGID_00000040543613330507739710000000297393786293329047_);" points="29.4,48 3.6,48 3.6,27 29.4,27 "/>
<linearGradient id="SVGID_00000134235932406960837090000006949181927791913396_" gradientUnits="userSpaceOnUse" x1="-402.7795" y1="527.5837" x2="-393.0296" y2="527.5837" gradientTransform="matrix(1 0 0 -1 422.4548 565.0337)">
	<stop  offset="0" style="stop-color:#000000;stop-opacity:0"/>
	<stop  offset="0.3429" style="stop-color:#0A0A0A;stop-opacity:0.3341"/>
	<stop  offset="0.9264" style="stop-color:#252525;stop-opacity:0.9026"/>
	<stop  offset="1" style="stop-color:#292929;stop-opacity:0.9744"/>
</linearGradient>
<rect x="19.7" y="27" style="opacity:0.28;fill:url(#SVGID_00000134235932406960837090000006949181927791913396_);enable-background:new    ;" width="9.7" height="20.9"/>
<linearGradient id="SVGID_00000080188644425162060970000013051317013669603999_" gradientUnits="userSpaceOnUse" x1="0.2416" y1="112.0457" x2="0.2416" y2="133.0179" gradientTransform="matrix(-1 0 0 -1 2.7416 160)">
	<stop  offset="0" style="stop-color:#8E8E8E"/>
	<stop  offset="0.1963" style="stop-color:#444444"/>
	<stop  offset="0.2542" style="stop-color:#505050"/>
	<stop  offset="0.3599" style="stop-color:#717171"/>
	<stop  offset="0.3704" style="stop-color:#757575"/>
	<stop  offset="0.6843" style="stop-color:#DDDDDD"/>
	<stop  offset="0.9078" style="stop-color:#B7B7B7"/>
	<stop  offset="1" style="stop-color:#B7B7B7"/>
</linearGradient>
<polygon style="fill:url(#SVGID_00000080188644425162060970000013051317013669603999_);" points="1.5,30.2 1.5,44.7 3.5,48 3.5,27 
	"/>
<g>
	<g>
		<defs>
			<path id="SVGID_00000124132847697186656990000001650621342914719907_" d="M96.7,110.9H83h-9.7l0,0v-5.1c0-0.5,0-0.9,0-1.3l0,0
				l0,0c-0.1-2.9-0.8-4.7-0.8-4.7H48.9c-0.7,2.1-0.9,4.2-0.8,6v2.1c-0.2-0.4-0.5-0.7-0.7-1.1c-0.2,0.4-0.4,0.9-0.6,1.3l0,0
				c-0.1,0-0.3,0.1-0.5,0.1c-0.5,0.1-1.2,0.2-2.1,0.2l0,0c-1,0-2.2-0.1-3.5-0.4v-0.9c0-0.4,0-0.8,0-1.2l0,0l0,0
				c0-2.6-0.4-4.3-0.4-4.3H29.6c-0.3,1.9-0.4,3.8-0.4,5.5v4.7l0,0c-3.2,0-6.5,0-9.7,0H3.3l0,0l0,0c-0.7,1-1.4,2-2,3c0,5,0,10,0,15
				c0.8,1,1.5,2,2.3,3h25.6v-0.1l0,0v4.1c0,0.6,0,1.2,0,1.8v0.1l0,0c0.1,2.5,0.4,4.4,0.4,4.4h10.6c0.2-1.6,0.3-3,0.4-4.4l0,0v-2
				c0.7-0.2,3.3-0.7,6.1,0c0.2,0.4,0.4,0.9,0.7,1.3c0.2-0.4,0.5-0.8,0.7-1.2v1.5c0,0.7,0,1.3,0,1.9v0.1l0,0c0.1,2.8,0.8,4.8,0.8,4.8
				h23.5c0.5-1.7,0.7-3.3,0.8-4.8l0,0v-6.4l0,0v0.1h23.5l2-3.5v-16L96.7,110.9z"/>
		</defs>
		<clipPath id="SVGID_00000040554298812643327810000001216463942934807218_">
			<use xlink:href="#SVGID_00000124132847697186656990000001650621342914719907_"  style="overflow:visible;"/>
		</clipPath>
		
			<g transform="matrix(1 0 0 1 -1.907349e-06 0)" style="clip-path:url(#SVGID_00000040554298812643327810000001216463942934807218_);enable-background:new    ;">
			
				<image style="overflow:visible;enable-background:new    ;" width="1201" height="909" xlink:href="4E7D00C6.jpeg"  transform="matrix(0.1763 0 0 0.1763 -22.8854 70.9282)">
			</image>
		</g>
	</g>
</g>
<path d="M43,120.8"/>
<linearGradient id="SVGID_00000054958701642914293300000013339502453486182301_" gradientUnits="userSpaceOnUse" x1="85.2381" y1="29.7" x2="85.2381" y2="45.6" gradientTransform="matrix(-1 0 0 -1 136.3381 160)">
	<stop  offset="0" style="stop-color:#424242"/>
	<stop  offset="0.1068" style="stop-color:#333333"/>
	<stop  offset="0.2055" style="stop-color:#2D2D2D"/>
	<stop  offset="0.3492" style="stop-color:#424244"/>
	<stop  offset="0.6732" style="stop-color:#7F7F7F"/>
	<stop  offset="0.9078" style="stop-color:#414042"/>
</linearGradient>
<path style="fill:url(#SVGID_00000054958701642914293300000013339502453486182301_);" d="M50.4,114.4c0.5,0.5,0.9,1,1.4,1.5
	c0,4.3,0,8.6,0,12.9c-0.5,0.5-0.9,1-1.4,1.5C50.4,125,50.4,119.7,50.4,114.4z"/>
<linearGradient id="SVGID_00000178168945075256578070000015582226933819197060_" gradientUnits="userSpaceOnUse" x1="-72.1245" y1="48.5" x2="-72.1245" y2="48.5" gradientTransform="matrix(-1 0 0 -1 -18.3245 160)">
	<stop  offset="0" style="stop-color:#444444"/>
	<stop  offset="8.097430e-02" style="stop-color:#5B5B5B"/>
	<stop  offset="0.2486" style="stop-color:#3A3A3A"/>
	<stop  offset="0.3205" style="stop-color:#3E3E3E"/>
	<stop  offset="0.3898" style="stop-color:#494949"/>
	<stop  offset="0.458" style="stop-color:#5D5D5D"/>
	<stop  offset="0.4832" style="stop-color:#666666"/>
	<stop  offset="0.6844" style="stop-color:#474747"/>
	<stop  offset="0.8352" style="stop-color:#636363"/>
</linearGradient>
<path style="fill:url(#SVGID_00000178168945075256578070000015582226933819197060_);" d="M53.8,111.5"/>
<path class="st23" d="M98.8,114.4c0,0-1-1.7-2-3.5l0,0c0,0-6,0-15.5,0c-2.7,0-5.4,0-8.1,0c0-0.2,0-0.5,0-0.8c0-1.4,0-2,0-3.8
	s0-2.4-0.1-3.1c-0.1-0.6-0.1-1.1-0.2-1.4c-0.2-0.8-0.4-1.5-0.5-2c-7.8,0-15.6,0-23.5,0c-0.1,0.3-0.3,0.8-0.4,1.3
	c-0.2,1-0.4,1.7-0.4,1.9c-0.1,0.7-0.1,1.2-0.1,2.3c0,0.6,0,1.5,0,2.5c0.3-0.7,0.6-1.4,0.9-2c0.3,0.6,0.7,1.2,1,1.8
	c0.4-0.6,0.7-1.2,1.1-1.8c0.3,0.5,0.6,1.1,0.9,1.6c0.4-0.5,0.8-1.1,1.2-1.6c0.3,0.6,0.6,1.1,0.9,1.7c0.4-0.6,0.9-1.1,1.3-1.7
	c0.3,0.7,0.6,1.3,0.8,2c0.8,0.5,1.7,1,2.5,1.4c-0.1,7.9-0.2,15.8-0.2,23.7c0.1,0.2,0.6,1,0.3,1.9c-0.3,1-1.3,1.8-2.5,1.9
	c-0.3,0.7-0.6,1.4-0.9,2.2c-0.4-0.6-0.8-1.1-1.2-1.7c-0.3,0.6-0.6,1.1-1,1.7c-0.4-0.6-0.7-1.2-1.1-1.8c-0.3,0.6-0.7,1.2-1,1.8
	c-0.4-0.6-0.7-1.2-1.1-1.8c-0.3,0.6-0.7,1.2-1,1.8c-0.3-0.7-0.6-1.5-0.8-2.2c-0.1,1.3-0.2,2.9,0.1,4.8c0.2,1.3,0.4,2.5,0.7,3.5
	c7.8,0,15.7,0,23.5,0c0.2-0.8,0.5-2.1,0.7-3.6c0-0.3,0.1-1,0.1-3.5c0-1,0-2.3,0-4c17.4,0,23.6,0,23.6,0l0,0l2-3.6l0,0l0,0
	C98.7,130.3,98.7,125,98.8,114.4z"/>
<path class="st24" d="M47.9,108.1c0.3-0.8,0.7-1.6,1-2.3c0.3,0.6,0.7,1.2,1,1.8c0.4-0.6,0.7-1.2,1.1-1.8c0.3,0.6,0.7,1.2,1,1.8
	c0.4-0.6,0.7-1.2,1.1-1.8c0.3,0.6,0.6,1.1,1,1.7c0.4-0.6,0.8-1.1,1.2-1.7c0.2,0.5,0.5,1.1,0.7,1.6c0.1,0.2,0.2,0.5,0.3,0.7"/>
<rect x="56.9" y="109.9" class="st25" width="0.2" height="0.3"/>
<path class="st26" d="M59.5,109.5"/>
<path class="st26" d="M59.8,111"/>
<path class="st26" d="M64.5,113.9L64.5,113.9L64.5,113.9L64.5,113.9c0-1.1,0-2.2-0.1-3.3c0-0.2,0-0.4,0-0.7c0-0.2,0-0.4,0-0.5l0,0
	c0-0.3,0-1.2,0-1.2l0,0l0,0c-0.2,0-0.3,0-0.5,0c-0.5,0-1,0-1.6,0c-0.4,0-0.7,0-1.1,0c-0.2,0-0.2,0-0.2,0c-0.4-0.7-0.9-1.4-1.3-2.1
	l0,0c-0.4,0.7-0.8,1.4-1.2,2.1c-0.4-0.8-0.8-1.6-1.2-2.4c-0.3,0.6-0.7,1.1-1,1.7v1c0,0,0,0,0.7,0.6c0,1.1,0,2.2,0,3.2l0,0
	C59.5,112.9,62,113.4,64.5,113.9z"/>
<path d="M46.4,140.3"/>
<linearGradient id="SVGID_00000021839793747900272160000012224172558270036156_" gradientUnits="userSpaceOnUse" x1="75.3" y1="31.2" x2="75.3" y2="44.1" gradientTransform="matrix(1 0 0 -1 0 160)">
	<stop  offset="0" style="stop-color:#424242"/>
	<stop  offset="0.1068" style="stop-color:#333333"/>
	<stop  offset="0.2055" style="stop-color:#2D2D2D"/>
	<stop  offset="0.3492" style="stop-color:#424244"/>
	<stop  offset="0.6732" style="stop-color:#7F7F7F"/>
	<stop  offset="0.9078" style="stop-color:#414042"/>
</linearGradient>
<path style="fill:url(#SVGID_00000021839793747900272160000012224172558270036156_);" d="M98.8,115.9h-4.9c-14,0-28.1,0-42.1,0
	c0,4.3,0,8.6,0,12.9c14.6,0,29.3,0,43.9,0h3.1V115.9z"/>
<linearGradient id="SVGID_00000141442031602603022590000009041424306073052582_" gradientUnits="userSpaceOnUse" x1="85.2381" y1="29.7" x2="85.2381" y2="45.6" gradientTransform="matrix(-1 0 0 -1 136.3381 160)">
	<stop  offset="0" style="stop-color:#000000;stop-opacity:0"/>
	<stop  offset="0.3429" style="stop-color:#0A0A0A;stop-opacity:0.3341"/>
	<stop  offset="0.9264" style="stop-color:#252525;stop-opacity:0.9026"/>
	<stop  offset="1" style="stop-color:#292929;stop-opacity:0.9744"/>
</linearGradient>
<path style="opacity:0.4;fill:url(#SVGID_00000141442031602603022590000009041424306073052582_);enable-background:new    ;" d="
	M50.4,114.4c0.5,0.5,0.9,1,1.4,1.5c0,4.3,0,8.6,0,12.9c-0.5,0.5-0.9,1-1.4,1.5C50.4,125,50.4,119.7,50.4,114.4z"/>
<g>
	<g>
		<defs>
			<path id="SVGID_00000154406555845084201550000007914134081745217430_" d="M98.8,114.4v1.5h-47c-0.5-0.5-1-1-1.4-1.5v-0.5v-0.2
				c3.4-0.7,6.7-1.4,10.1-2.1c1.4,0,2.8,0,4.2,0c0.8,0.9,1.6,1.9,2.4,2.8C77.7,114.4,88.2,114.4,98.8,114.4z"/>
		</defs>
		<clipPath id="SVGID_00000008851194204770417360000015772296367681084825_">
			<use xlink:href="#SVGID_00000154406555845084201550000007914134081745217430_"  style="overflow:visible;"/>
		</clipPath>
		<g style="clip-path:url(#SVGID_00000008851194204770417360000015772296367681084825_);">
			<g>
				<defs>
					<rect id="SVGID_00000090262021581628278410000016982660711024018849_" x="-16.3" y="63.5" width="127" height="114.6"/>
				</defs>
				<clipPath id="SVGID_00000024722398456418989010000003191140733500829336_">
					<use xlink:href="#SVGID_00000090262021581628278410000016982660711024018849_"  style="overflow:visible;"/>
				</clipPath>
				<g style="clip-path:url(#SVGID_00000024722398456418989010000003191140733500829336_);enable-background:new    ;">
					
						<image style="overflow:visible;enable-background:new    ;" width="1211" height="1088" xlink:href="4E7D00CA.jpeg"  transform="matrix(8.751839e-02 0 0 -0.1053 -5.8006 178.1546)">
					</image>
				</g>
			</g>
			<g>
				
					<rect id="SVGID_00000059303635398206221480000017204214623681871765_" x="-16.3" y="63.5" class="st31" width="127" height="114.6"/>
			</g>
		</g>
	</g>
</g>
<path class="st24" d="M48,136.6c0.3,0.8,0.7,1.6,1,2.3c0.3-0.6,0.7-1.2,1-1.8c0.4,0.6,0.7,1.2,1.1,1.8c0.3-0.6,0.7-1.2,1-1.8
	c0.4,0.6,0.7,1.2,1.1,1.8c0.3-0.6,0.6-1.1,1-1.7c0.4,0.6,0.8,1.1,1.2,1.7c0.2-0.5,0.5-1.1,0.7-1.6c0.1-0.2,0.2-0.5,0.3-0.7"/>
<path class="st26" d="M64.5,130.8L64.5,130.8L64.5,130.8L64.5,130.8c0,1.1,0,2.2-0.1,3.3c0,0.2,0,0.4,0,0.7c0,0.2,0,0.4,0,0.5l0,0
	c0,0.3,0,1.2,0,1.2l0,0l0,0c-0.2,0-0.3,0-0.5,0c-0.5,0-1,0-1.6,0c-0.4,0-0.7,0-1.1,0c-0.2,0-0.2,0-0.2,0c-0.4,0.7-0.9,1.4-1.3,2.1
	l0,0c-0.4-0.7-0.8-1.4-1.2-2.1c-0.4,0.8-0.8,1.6-1.2,2.4c-0.3-0.6-0.7-1.1-1-1.7v-1c0,0,0,0,0.7-0.6c0-1.1,0-2.2,0-3.2l0,0
	C59.6,131.8,62.1,131.3,64.5,130.8z"/>
<g>
	<g>
		<defs>
			<path id="SVGID_00000088131953665551804130000007776888043052948111_" d="M98.8,130.3v-1.5c-15.7,0-31.3,0-47,0
				c-0.5,0.5-1,1-1.4,1.5c0,0.2,0,0.3,0,0.5c0,0.1,0,0.1,0,0.2c3.4,0.7,6.8,1.4,10.1,2.1c1.4,0,2.8,0,4.2,0c0.8-0.9,1.6-1.9,2.4-2.8
				C77.7,130.3,88.3,130.3,98.8,130.3z"/>
		</defs>
		<clipPath id="SVGID_00000082364306017361805630000012318417099743522491_">
			<use xlink:href="#SVGID_00000088131953665551804130000007776888043052948111_"  style="overflow:visible;"/>
		</clipPath>
		<g style="clip-path:url(#SVGID_00000082364306017361805630000012318417099743522491_);">
			<g>
				<defs>
					<rect id="SVGID_00000054952759001768355660000011870510583090046361_" x="-16.2" y="66.5" width="127" height="114.6"/>
				</defs>
				<clipPath id="SVGID_00000027601596019287212970000017650849460018631356_">
					<use xlink:href="#SVGID_00000054952759001768355660000011870510583090046361_"  style="overflow:visible;"/>
				</clipPath>
				<g style="clip-path:url(#SVGID_00000027601596019287212970000017650849460018631356_);enable-background:new    ;">
					
						<image style="overflow:visible;enable-background:new    ;" width="1211" height="1097" xlink:href="4E7D00CA.jpeg"  transform="matrix(8.680037e-02 0 0 0.1044 -5.3078 66.5326)">
					</image>
				</g>
			</g>
			<g>
				
					<rect id="SVGID_00000164471961826707057950000007826181421133825703_" x="-16.2" y="66.5" class="st31" width="127" height="114.6"/>
			</g>
		</g>
	</g>
</g>
<radialGradient id="SVGID_00000167387457663299336170000014700197299431049880_" cx="53.3367" cy="46.8812" r="0.7627" gradientTransform="matrix(1 0 0 -1 0 160)" gradientUnits="userSpaceOnUse">
	<stop  offset="0" style="stop-color:#424244"/>
	<stop  offset="1" style="stop-color:#2D2D2D"/>
</radialGradient>
<circle style="fill:url(#SVGID_00000167387457663299336170000014700197299431049880_);" cx="53.3" cy="113.1" r="0.8"/>
<radialGradient id="SVGID_00000059999987550076355010000005196134985341680055_" cx="53.3367" cy="28.4655" r="0.7627" gradientTransform="matrix(1 0 0 -1 0 160)" gradientUnits="userSpaceOnUse">
	<stop  offset="0" style="stop-color:#424244"/>
	<stop  offset="1" style="stop-color:#2D2D2D"/>
</radialGradient>
<circle style="fill:url(#SVGID_00000059999987550076355010000005196134985341680055_);" cx="53.3" cy="131.5" r="0.8"/>
<linearGradient id="SVGID_00000140733363339404402460000000710324758615056284_" gradientUnits="userSpaceOnUse" x1="24.9" y1="30.1798" x2="24.9" y2="45.1103" gradientTransform="matrix(1 0 0 -1 0 160)">
	<stop  offset="0" style="stop-color:#424242"/>
	<stop  offset="0.1068" style="stop-color:#333333"/>
	<stop  offset="0.2055" style="stop-color:#2D2D2D"/>
	<stop  offset="0.3492" style="stop-color:#424244"/>
	<stop  offset="0.6732" style="stop-color:#7F7F7F"/>
	<stop  offset="0.9078" style="stop-color:#414042"/>
</linearGradient>
<rect x="1.3" y="114.9" style="fill:url(#SVGID_00000140733363339404402460000000710324758615056284_);" width="47.2" height="14.9"/>
<linearGradient id="SVGID_00000096041827366781937820000002620253596298452635_" gradientUnits="userSpaceOnUse" x1="48.95" y1="29.0211" x2="48.95" y2="46.2928" gradientTransform="matrix(1 0 0 -1 0 160)">
	<stop  offset="0" style="stop-color:#383838"/>
	<stop  offset="0.1068" style="stop-color:#262626"/>
	<stop  offset="0.2055" style="stop-color:#2D2D2D"/>
	<stop  offset="0.3492" style="stop-color:#353535"/>
	<stop  offset="0.6732" style="stop-color:#727272"/>
	<stop  offset="0.9078" style="stop-color:#353535"/>
</linearGradient>
<rect x="47.5" y="113.7" style="fill:url(#SVGID_00000096041827366781937820000002620253596298452635_);" width="2.9" height="17.3"/>
<path class="st24" d="M96.7,110.9H83h-9.7l0,0v-5.1c0-0.5,0-0.9,0-1.3l0,0l0,0c-0.1-2.9-0.8-4.7-0.8-4.7H48.9
	c-0.7,2.1-0.9,4.2-0.8,6v2.1c-0.2-0.4-0.5-0.7-0.7-1.1c-0.2,0.4-0.4,0.9-0.6,1.3l0,0c-0.1,0-0.3,0.1-0.5,0.1
	c-0.5,0.1-1.2,0.2-2.1,0.2l0,0c-1,0-2.2-0.1-3.5-0.4v-0.9c0-0.4,0-0.8,0-1.2l0,0l0,0c0-2.6-0.4-4.3-0.4-4.3H29.6
	c-0.3,1.9-0.4,3.8-0.4,5.5v4.7l0,0c-3.2,0-6.5,0-9.7,0H3.3l0,0l0,0c-0.7,1-1.4,2-2,3c0,5,0,10,0,15c0.8,1,1.5,2,2.3,3h25.6v-0.1l0,0
	v4.1c0,0.6,0,1.2,0,1.8v0.1l0,0c0.1,2.5,0.4,4.4,0.4,4.4h10.6c0.2-1.6,0.3-3,0.4-4.4l0,0v-2c0.7-0.2,3.3-0.7,6.1,0
	c0.2,0.4,0.4,0.9,0.7,1.3c0.2-0.4,0.5-0.8,0.7-1.2v1.5c0,0.7,0,1.3,0,1.9v0.1l0,0c0.1,2.8,0.8,4.8,0.8,4.8h23.5
	c0.5-1.7,0.7-3.3,0.8-4.8l0,0c0-2.1,0-4.2,0-6.3h23.5l2-3.5v-16L96.7,110.9z"/>
<linearGradient id="SVGID_00000018943525116663839720000013075718344292255419_" gradientUnits="userSpaceOnUse" x1="-384.6887" y1="442.6837" x2="-374.9388" y2="442.6837" gradientTransform="matrix(1 0 0 -1 422.4548 565.0337)">
	<stop  offset="0" style="stop-color:#000000;stop-opacity:0"/>
	<stop  offset="0.3429" style="stop-color:#0A0A0A;stop-opacity:0.3341"/>
	<stop  offset="0.9264" style="stop-color:#252525;stop-opacity:0.9026"/>
	<stop  offset="1" style="stop-color:#292929;stop-opacity:0.9744"/>
</linearGradient>
<rect x="37.8" y="114.9" style="opacity:0.28;fill:url(#SVGID_00000018943525116663839720000013075718344292255419_);enable-background:new    ;" width="9.7" height="14.9"/>
<path class="st39" d="M50.4,113.7V131V113.7z"/>
<image style="overflow:visible;" width="200" height="200" xlink:href="../../pepsi.png"  transform="matrix(4.643258e-02 0 0 4.643258e-02 81.0309 32.7893)">
</image>
</svg>
