<?xml version="1.0" encoding="utf-8"?>
<!-- Generator: Adobe Illustrator 25.4.1, SVG Export Plug-In . SVG Version: 6.00 Build 0)  -->
<svg version="1.1" id="Слой_1" xmlns="http://www.w3.org/2000/svg" xmlns:xlink="http://www.w3.org/1999/xlink" x="0px" y="0px"
	 viewBox="0 0 100 160" style="enable-background:new 0 0 100 160;" xml:space="preserve">
<style type="text/css">
	.st0{clip-path:url(#SVGID_00000168115044823460315440000007930183682607772078_);enable-background:new    ;}
	.st1{fill:url(#SVGID_00000151516054036772680510000016312317027932762535_);}
	.st2{fill:url(#SVGID_00000162349707734201763840000006117225194788581291_);}
	.st3{fill:url(#SVGID_00000066499784368463317570000005075461483679243689_);}
	.st4{opacity:0.38;enable-background:new    ;}
	.st5{fill:#8C8C8C;}
	.st6{fill:none;stroke:#ADADAD;stroke-width:0.5;stroke-miterlimit:10;}
	.st7{fill:#282828;}
	.st8{fill:none;}
	.st9{fill:#282828;stroke:#282828;stroke-width:0.5;stroke-miterlimit:10;}
	.st10{fill:none;stroke:#8C8C8C;stroke-width:0.2;}
	.st11{clip-path:url(#SVGID_00000113331672143848365280000014982468626485769151_);enable-background:new    ;}
	.st12{clip-path:url(#SVGID_00000129193897981951707380000012727743074255400090_);enable-background:new    ;}
	.st13{clip-path:url(#SVGID_00000157276900536927629850000007756599373781217424_);}
	.st14{clip-path:url(#SVGID_00000102542360558850912090000002749514563221775006_);enable-background:new    ;}
	.st15{clip-path:url(#SVGID_00000000214529549715214740000011541541433144191676_);}
	.st16{clip-path:url(#SVGID_00000088812119841831205470000002007031426823246526_);enable-background:new    ;}
	.st17{fill:url(#SVGID_00000072964177927964182620000011739713737868795547_);}
	.st18{fill:url(#SVGID_00000034058337772135279640000013243008722913126529_);}
	.st19{fill:url(#SVGID_00000152976194906570192050000015483050771249566867_);}
	.st20{opacity:0.28;fill:url(#SVGID_00000013178329531172565190000011485400165166628273_);enable-background:new    ;}
	.st21{fill:url(#SVGID_00000114788550770671330280000013158536558593337515_);}
	.st22{fill:url(#SVGID_00000036218926625827089700000003680135127417748911_);}
	.st23{fill:url(#SVGID_00000059275132388979597350000016015900445731838352_);}
	.st24{opacity:0.28;fill:url(#SVGID_00000054945633698866686660000007890109413700276400_);enable-background:new    ;}
	.st25{opacity:0.19;fill:url(#SVGID_00000142872810009401525580000000912037837271585190_);enable-background:new    ;}
	.st26{fill:url(#SVGID_00000062913060187062180830000003579042853032067498_);}
	.st27{fill:url(#SVGID_00000134226783393353928170000018307598913673299122_);}
	.st28{fill:url(#SVGID_00000157995084054824631200000008981093742046426297_);}
	.st29{fill:url(#SVGID_00000083783175439744908710000004533297943808666518_);}
	.st30{fill:url(#SVGID_00000123429768183091186940000003899926592616203702_);}
	.st31{opacity:0.19;fill:url(#SVGID_00000060030010885924302700000014196394319860272001_);enable-background:new    ;}
	.st32{fill:url(#SVGID_00000049910688698319454780000005675657522296019352_);}
	.st33{fill:url(#SVGID_00000138537647691919785910000009942248278822700196_);}
	.st34{fill:url(#SVGID_00000140730948550513108780000009930707474634151094_);}
	.st35{fill:url(#SVGID_00000070088682363656841770000010611078776044985017_);}
	.st36{fill:url(#SVGID_00000054981820495723018010000009851164740493076103_);}
	.st37{opacity:0.14;fill:url(#SVGID_00000008853779461059118950000017471457906817141676_);enable-background:new    ;}
</style>
<g>
	<g>
		<g>
			<defs>
				<path id="SVGID_1_" d="M97.3,141c0.2-0.1,0.3-0.2,0.5-0.3l0.5-0.3l0,0l0.3-0.2c0,0,0.1,0,0.1-0.1l0.2-0.1c0,0,0,0,0-0.1v-0.2
					c0-0.1,0-0.2,0-0.4v-31.2v-0.1v-0.7v-0.1v-1.2c0-0.1,0-0.2,0-0.2v-0.1l0,0l-0.5-0.3c0,0-0.1-0.1-0.2-0.1l-0.5-0.2
					c-0.2-0.1-0.4-0.2-0.6-0.3l-0.6-0.3c-0.1,0-0.1-0.1-0.2-0.1l-3.5-1.7c-0.1,0-0.2,0-0.3,0c-4.5,0-9,0-13.5,0h-0.1v-3.6
					c0.1-5.4-0.6-9-0.6-9H62.8c-0.5,3.1-0.6,6.2-0.6,8.9v3.2c-3,0.5-5.6,0.6-7.7,0.6c0,0,0,0-0.1,0c-1.9,0-3.5-0.2-4.5-0.4
					c-0.4-0.1-0.7-0.1-1.1-0.2c0,0,0,0-0.1,0c-0.6-0.6-1.2-1.3-1.7-1.8c-0.5,0.4-1.1,0.8-1.5,1.2c0.1-1.3,0.1-2.5,0.2-3.8
					c0-0.5,0-1,0-1.5c0-0.1,0-0.3,0-0.4c0-0.1,0-0.3,0-0.4c0.1-2.1-0.2-3.8-0.5-4.8c0,0-0.1-0.2-0.8-2.7l0,0c-12.4,0-24.9,0-37.2,0
					C6.7,89.4,6.2,91,6,92.7c-0.3,1.8-0.3,3.6-0.2,4.9c0,3.7,0,7.4,0,11v0.1c-0.8,0-1.5,0-2.3,0c-0.3,0-0.7,0-1,0
					c1,3.2,1.1,5.8,1.1,7.4c0,2.2-0.3,4.3-0.5,4.9c-0.2,1.2-0.5,2.4-0.5,2.4C2.3,125,2.2,125,2,126.1c-0.1,0.3-0.3,1.5-0.4,3
					c0,0.7,0,1.4,0,1.5c0,0.5,0,0.9,0,1c0,0.1,0,0.7,0.1,1.4c0,0.3,0.1,1.1,0.4,2.5c0.1,0.8,0.3,1.7,0.6,2.9h1.6H6c0,4,0,7.8,0,11.8
					c-0.1,1.5,0,3.4,0.5,5.5c0.3,1.4,0.7,2.4,1.1,3.5c12.2,0,24.5,0,36.7,0c0.8-2.7,1.2-5.2,1.3-7.4l0,0v-7.2
					c0.5,0.4,1.1,0.9,1.5,1.3c0.6-0.6,1.3-1.3,1.8-1.8c6-1,11.6-0.3,13.4,0v3c-0.1,5.5,0.6,10.1,0.6,10.1h15.9
					c0.4-2.5,0.5-4.9,0.6-7.1l0,0v-6.6h0.1h13.5h0.3l1.7-1c0.3-0.2,0.6-0.3,0.9-0.5L97.3,141z"/>
			</defs>
			<clipPath id="SVGID_00000008121416395990539460000014604449840152186241_">
				<use xlink:href="#SVGID_1_"  style="overflow:visible;"/>
			</clipPath>
			<g style="clip-path:url(#SVGID_00000008121416395990539460000014604449840152186241_);enable-background:new    ;">
				
					<image style="overflow:visible;enable-background:new    ;" width="1206" height="911" xlink:href="../../Фитинги/Гидравлические/74A506C1.jpg"  transform="matrix(0.1737 0 0 0.1737 -32.0307 60.3027)">
				</image>
			</g>
		</g>
	</g>
</g>
<linearGradient id="SVGID_00000021078902443673072430000004844707236946500520_" gradientUnits="userSpaceOnUse" x1="24.4657" y1="151.0286" x2="24.4657" y2="151.0286" gradientTransform="matrix(1 0 0 1 0 -8)">
	<stop  offset="0" style="stop-color:#808285"/>
	<stop  offset="0.2039" style="stop-color:#424244"/>
	<stop  offset="0.3035" style="stop-color:#464648"/>
	<stop  offset="0.4018" style="stop-color:#525253"/>
	<stop  offset="0.4888" style="stop-color:#636363"/>
	<stop  offset="0.6229" style="stop-color:#666666"/>
	<stop  offset="0.7905" style="stop-color:#959696"/>
	<stop  offset="0.8351" style="stop-color:#747575"/>
	<stop  offset="0.919" style="stop-color:#919191"/>
	<stop  offset="1" style="stop-color:#676868"/>
</linearGradient>
<path style="fill:url(#SVGID_00000021078902443673072430000004844707236946500520_);" d="M24.5,143"/>
<linearGradient id="SVGID_00000110468074268650556880000004567397597924133560_" gradientUnits="userSpaceOnUse" x1="35.8824" y1="112.8117" x2="35.8824" y2="112.8117" gradientTransform="matrix(1 0 0 1 0 -8)">
	<stop  offset="0" style="stop-color:#444444"/>
	<stop  offset="8.100000e-02" style="stop-color:#5B5B5B"/>
	<stop  offset="0.2486" style="stop-color:#3A3A3A"/>
	<stop  offset="0.3205" style="stop-color:#3E3E3E"/>
	<stop  offset="0.3898" style="stop-color:#494949"/>
	<stop  offset="0.458" style="stop-color:#5D5D5D"/>
	<stop  offset="0.4832" style="stop-color:#666666"/>
	<stop  offset="0.6844" style="stop-color:#474747"/>
	<stop  offset="0.8352" style="stop-color:#636363"/>
</linearGradient>
<path style="fill:url(#SVGID_00000110468074268650556880000004567397597924133560_);" d="M35.9,104.8"/>
<linearGradient id="SVGID_00000165204563763990395610000011513832562277605000_" gradientUnits="userSpaceOnUse" x1="35.8824" y1="4.2122" x2="35.8824" y2="4.2122" gradientTransform="matrix(1 0 0 -1 0 149.9498)">
	<stop  offset="0" style="stop-color:#444444"/>
	<stop  offset="8.100000e-02" style="stop-color:#5B5B5B"/>
	<stop  offset="0.2486" style="stop-color:#3A3A3A"/>
	<stop  offset="0.3205" style="stop-color:#3E3E3E"/>
	<stop  offset="0.3898" style="stop-color:#494949"/>
	<stop  offset="0.458" style="stop-color:#5D5D5D"/>
	<stop  offset="0.4832" style="stop-color:#666666"/>
	<stop  offset="0.6844" style="stop-color:#474747"/>
	<stop  offset="0.8352" style="stop-color:#636363"/>
</linearGradient>
<path style="fill:url(#SVGID_00000165204563763990395610000011513832562277605000_);" d="M35.9,145.7"/>
<path class="st4" d="M3.8,121.1c0.4-1.6,0.9-4.2,0.5-6.7c-0.3-2.3-1.1-4.2-1.7-5.5c1.1,0,2.1-0.1,3.2-0.1c0-0.8,0-2,0-3.5
	c0-3.6,0-4.7,0-6.8c0-4.4,0.2-5.4,0.3-6.3c0.3-1.7,0.7-3.1,1.1-4.1c12.4,0,24.9,0,37.2,0c0.6,1.6,1,3.3,1.2,4.8v0.1
	c0.2,1.8,0.2,4.5,0.2,4.5c0,1.8-0.1,3.5-0.3,4.9c-0.5-1.4-1-2.7-1.5-4.2c-0.6,1.1-1.1,2-1.6,3.1c-0.6-1.1-1.2-2-1.7-3.1
	c-0.6,1.1-1.1,2-1.6,3.1c-0.6-1.1-1.2-2-1.7-3.1c-0.5,1-1.1,2-1.5,3c-0.7-1-1.4-2-1.9-3c-0.5,1.2-0.9,2.2-1.4,3.4
	c-1.4,0.8-2.7,1.6-4,2.4c0.1,13.3,0.3,26.5,0.4,39.9c1.3,0,2.6,0,3.9-0.1c0.3,0.9,0.7,1.8,1,2.7c0.7-1,1.4-2,1.9-3
	c0.5,1.1,1.1,2.1,1.5,3.2c0.6-1.1,1.3-2.2,1.8-3.3c0.5,1.2,1.1,2.2,1.5,3.4c0.6-1.2,1.3-2.2,1.8-3.4c0.6,1.1,1.1,2,1.6,3.1
	c0.6-1,1.1-2,1.6-3c0.1,0.7,0.2,1.6,0.2,2.9c0,0.6,0,1.1,0,1.8c0,1.1,0,2,0,3.1v0.1l0,0c-0.2,4.4-1.3,7.4-1.3,7.4H7.4
	c-0.4-1-0.8-2.2-1.1-3.6c-0.3-1.5-0.4-2.8-0.5-3.9c0-4.6,0-9.3,0-13.8c-0.6,0-1.1,0-1.6,0c-0.5,0-1,0-1.5,0c-0.1-0.4-0.2-0.7-0.2-1
	c-0.3-1-0.3-1.2-0.4-1.7c0-0.2-0.1-0.5-0.1-1C2,133.5,2,133,2,133c-0.1-0.5-0.1-1.8,0-3.5c0.1-1,0.2-2.4,0.6-4.4
	C3.1,123,3.4,122.7,3.8,121.1z"/>
<path class="st5" d="M4.2,112.5"/>
<path class="st5" d="M43.2,138.1v-3.2c-13.4,0-26.7,0-40.1,0c0.1,0.4,0.1,0.8,0.2,1.3c0.1,0.7,0.3,1.4,0.5,1.9
	C17,138.1,30.1,138.1,43.2,138.1z"/>
<path class="st6" d="M45.6,102.5c-0.5-1.4-1.1-2.7-1.5-4.1c-0.6,1.1-1.1,2-1.6,3.1c-0.6-1.1-1.2-2-1.7-3.1c-0.6,1.1-1.1,2-1.6,3.1
	c-0.6-1.1-1.2-2-1.7-3.1c-0.5,1-1.1,2-1.5,3c-0.7-1-1.4-2-1.9-3c-0.4,1-0.8,1.9-1.2,2.8c-0.2,0.4-0.3,0.9-0.5,1.3"/>
<rect x="31.3" y="102" class="st7" width="0.2" height="0.5"/>
<path class="st8" d="M25.4,104.4"/>
<path class="st9" d="M27.9,101.4"/>
<path class="st9" d="M27.6,104"/>
<path class="st10" d="M17.5,108.1"/>
<path class="st8" d="M33.2,106.3"/>
<path class="st9" d="M22.4,105.5c-0.7,1-2.2,2.7-4.6,3.3c-0.5,0.1-1,0.2-1.4,0.2c1.5-1.4,3.1-2.6,4.6-4c0-0.4,0-0.9,0-1.4l0,0
	c0-0.4,0-1.5,0-1.5l0,0l0,0c0.2,0,0.5,0,0.7,0c0.8,0,1.5,0,2.2,0c0.5,0,1.1,0,1.5,0c0.3,0,0.3,0,0.3,0s1.5-1.8,2.1-2.7
	c0.6,1,1.1,1.8,1.6,2.8l1.7-3.4c0.7,1.5,1.1,2.3,1.1,2.3l0,0v1.4l0,0c0,0,0,0-1.1,0.8c0,1.5,0,2.8,0,4.3c-0.4,0.1-0.9,0.1-1.3,0.2
	C27.6,107,24.9,106.3,22.4,105.5z"/>
<polygon class="st7" points="39.7,107.5 45.2,108.8 39.7,108.8 "/>
<path class="st8" d="M38.4,108.7c-0.6,0-1.2,0-1.6,0c0.6,0.3,1.2,0.7,1.6,1C38.4,109.3,38.4,109,38.4,108.7z"/>
<path class="st8" d="M36.1,108.7c-0.6,0-1.2,0-1.6,0c0.6,0.3,1.2,0.7,1.6,1C36.1,109.3,36.1,109,36.1,108.7z"/>
<path class="st9" d="M22.4,141.5c-0.7-1-2.2-2.7-4.6-3.3c-0.5-0.1-1-0.2-1.4-0.2c1.5,1.4,3.1,2.6,4.6,4c0,0.4,0,0.9,0,1.4l0,0
	c0,0.4,0,1.5,0,1.5l0,0l0,0c0.2,0,0.5,0,0.7,0c0.8,0,1.5,0,2.2,0c0.5,0,1.1,0,1.5,0c0.3,0,0.3,0,0.3,0s1.5,1.8,2.1,2.7
	c0.6-1,1.1-1.8,1.6-2.8l1.7,3.4c0.8-1.6,1.2-2.5,1.2-2.5l0,0l-0.1-1.2l0,0c0,0-0.4-0.3-1-0.7c0-1.5,0-2.8,0-4.3
	c-0.4-0.1-0.9-0.1-1.3-0.2C27.6,139.9,24.9,140.7,22.4,141.5z"/>
<polygon class="st7" points="39.7,139.3 45.2,138 39.7,138 "/>
<path class="st6" d="M45.7,143.2c-0.7,1.2-1.3,2.3-1.9,3.5c-0.6-1.1-1.1-2-1.6-3.1c-0.6,1.1-1.2,2-1.7,3.1c-0.5-1.1-1.1-2-1.5-3.1
	c-0.6,1.1-1.3,2-1.8,3.1c-0.5-1-1.1-2-1.5-3c-0.7,1-1.4,2-1.9,3c-0.3-0.9-0.7-1.8-1-2.7l0,0"/>
<g>
	<g>
		<g>
			<defs>
				<path id="SVGID_00000100355946679030915240000006966648939671143587_" d="M50.2,138.2v-3.8c-16.1,0-32.2-0.1-48.4-0.2
					c0.1,0.8,0.2,1.6,0.4,2.5c0.1,0.5,0.2,1,0.3,1.5C18.6,138.2,34.4,138.2,50.2,138.2z"/>
			</defs>
			<clipPath id="SVGID_00000044867741934203082500000007979641339649777052_">
				<use xlink:href="#SVGID_00000100355946679030915240000006966648939671143587_"  style="overflow:visible;"/>
			</clipPath>
			
				<g transform="matrix(1 0 0 1 0 -1.907349e-06)" style="clip-path:url(#SVGID_00000044867741934203082500000007979641339649777052_);enable-background:new    ;">
				
					<image style="overflow:visible;enable-background:new    ;" width="1204" height="921" xlink:href="../../Фитинги/Гидравлические/74A506C3.jpg"  transform="matrix(0.1357 0 0 0.137 -90.7391 31.8895)">
				</image>
			</g>
		</g>
	</g>
</g>
<g>
	<g>
		<g>
			<defs>
				<path id="SVGID_00000161609293021948655930000014128824837755772808_" d="M50.2,108.8v3.4c-15.7,0-31.3,0-47,0
					c-0.1-0.5-0.2-1.1-0.3-1.5c-0.2-0.7-0.3-1.3-0.5-1.8C18.4,108.8,34.3,108.8,50.2,108.8z"/>
			</defs>
			<clipPath id="SVGID_00000165196512495703950140000007056636512739119520_">
				<use xlink:href="#SVGID_00000161609293021948655930000014128824837755772808_"  style="overflow:visible;"/>
			</clipPath>
			
				<g transform="matrix(1 0 0 1 0 4.768372e-07)" style="clip-path:url(#SVGID_00000165196512495703950140000007056636512739119520_);enable-background:new    ;">
				
					<image style="overflow:visible;enable-background:new    ;" width="1204" height="738" xlink:href="../../Фитинги/Гидравлические/74A506C6.jpg"  transform="matrix(0.1428 0 0 0.1287 -104.1905 28.2193)">
				</image>
			</g>
		</g>
	</g>
</g>
<g>
	<g>
		<g>
			<defs>
				<path id="SVGID_00000154425805961618473990000000241843381482920873_" d="M19,108.7c-0.1,0-0.5,0-0.7-0.3c0,0-0.1-0.1-0.2-0.3
					c-0.1-0.4,0.1-0.8,0.1-0.8s0.9-0.8,1.4-1.2c0.5-0.4,1.2-1,2-1.6c1.3,0,1.9,0,2.4,0c0,0,1.6,0,1.7,0c0.1,0,0.1,0,0.2,0
					s0.1,0,0.2,0l0,0c0,0,0,0,0.1,0l0,0l0,0l0,0l0,0l0,0c0,0,0,0,0,0.1v0.1c0,0.1,0,0.2,0,0.4c0,0.4,0,0.4,0,0.4l0,0
					c0,0.2,0.2,0.4,0.2,0.4c0.1,0.1,0.1,0.1,0.2,0.2c0.3,0.1,0.6,0.1,1,0.1c0.2,0,0.4,0,0.6,0c0,0,0.5,0,1.5,0c3.3,0,3.3,0,3.3,0
					s4.1,0.8,6.7,1.4l0,0l0,0c0,0.8,0,0.9,0,1.1v0.1l0,0c-0.5,0-1,0-1.4,0l0,0c0,0.5,0.1,1,0.1,1.5c-0.6-0.5-1.1-1.1-1.6-1.5l0,0
					l0,0l0,0c-0.3,0-0.6,0-0.9,0c0,0.5,0,1.1,0,1.5c-0.6-0.5-1.1-1.1-1.6-1.5l0,0c-1.3,0-2,0-2.5,0c-0.2,0-0.6,0-1.3,0
					c-0.3,0-0.6,0-1,0c-0.6,0-1.2,0-1.5,0c-0.5,0-1.1,0-1.5,0h-3.2C23.3,108.8,20,108.8,19,108.7z"/>
			</defs>
			<clipPath id="SVGID_00000047026857832570171170000013592506331645383867_">
				<use xlink:href="#SVGID_00000154425805961618473990000000241843381482920873_"  style="overflow:visible;"/>
			</clipPath>
			<g style="clip-path:url(#SVGID_00000047026857832570171170000013592506331645383867_);">
				<g>
					<g>
						<defs>
							<rect id="SVGID_00000173845368824409871480000002716656401096981675_" x="-69.4" y="6.4" width="125.1" height="112.9"/>
						</defs>
						<clipPath id="SVGID_00000041979877857138042300000002547514435377490328_">
							<use xlink:href="#SVGID_00000173845368824409871480000002716656401096981675_"  style="overflow:visible;"/>
						</clipPath>
						
							<g transform="matrix(1 0 0 1 7.629395e-06 0)" style="clip-path:url(#SVGID_00000041979877857138042300000002547514435377490328_);enable-background:new    ;">
							
								<image style="overflow:visible;enable-background:new    ;" width="1217" height="1329" xlink:href="../../Фитинги/Гидравлические/74A506C7.jpg"  transform="matrix(7.754038e-02 0 0 -9.337743e-02 -54.0323 124.9089)">
							</image>
						</g>
					</g>
				</g>
				<g>
					<rect id="SVGID_12_" x="-69.4" y="6.4" class="st10" width="125.1" height="112.9"/>
				</g>
			</g>
		</g>
	</g>
	<g>
		<path id="SVGID_10_" class="st10" d="M19,108.7c-0.1,0-0.5,0-0.7-0.3c0,0-0.1-0.1-0.2-0.3c-0.1-0.4,0.1-0.8,0.1-0.8
			s0.9-0.8,1.4-1.2c0.5-0.4,1.2-1,2-1.6c1.3,0,1.9,0,2.4,0c0,0,1.6,0,1.7,0c0.1,0,0.1,0,0.2,0s0.1,0,0.2,0l0,0c0,0,0,0,0.1,0l0,0
			l0,0l0,0l0,0l0,0c0,0,0,0,0,0.1v0.1c0,0.1,0,0.2,0,0.4c0,0.4,0,0.4,0,0.4l0,0c0,0.2,0.2,0.4,0.2,0.4c0.1,0.1,0.1,0.1,0.2,0.2
			c0.3,0.1,0.6,0.1,1,0.1c0.2,0,0.4,0,0.6,0c0,0,0.5,0,1.5,0c3.3,0,3.3,0,3.3,0s4.1,0.8,6.7,1.4l0,0l0,0c0,0.8,0,0.9,0,1.1v0.1l0,0
			c-0.5,0-1,0-1.4,0l0,0c0,0.5,0.1,1,0.1,1.5c-0.6-0.5-1.1-1.1-1.6-1.5l0,0l0,0l0,0c-0.3,0-0.6,0-0.9,0c0,0.5,0,1.1,0,1.5
			c-0.6-0.5-1.1-1.1-1.6-1.5l0,0c-1.3,0-2,0-2.5,0c-0.2,0-0.6,0-1.3,0c-0.3,0-0.6,0-1,0c-0.6,0-1.2,0-1.5,0c-0.5,0-1.1,0-1.5,0h-3.2
			C23.3,108.8,20,108.8,19,108.7z"/>
	</g>
</g>
<g>
	<g>
		<g>
			<defs>
				<path id="SVGID_00000137105061791784700200000011629693926921416616_" d="M19,138.3c-0.1,0-0.5,0-0.7,0.3c0,0-0.1,0.1-0.2,0.3
					c-0.1,0.4,0.1,0.8,0.1,0.8s0.9,0.8,1.4,1.2c0.5,0.4,1.2,1,2,1.6c1.3,0,1.9,0,2.4,0c0,0,1.6,0,1.7,0c0.1,0,0.1,0,0.2,0
					s0.1,0,0.2,0l0,0c0,0,0,0,0.1,0l0,0l0,0l0,0l0,0l0,0c0,0,0,0,0-0.1v-0.1c0-0.1,0-0.2,0-0.4c0-0.4,0-0.4,0-0.4l0,0
					c0-0.2,0.2-0.4,0.2-0.4c0.1-0.1,0.1-0.1,0.2-0.2c0.3-0.1,0.6-0.1,1-0.1c0.2,0,0.4,0,0.6,0c0,0,0.5,0,1.5,0c3.3,0,3.3,0,3.3,0
					s4.1-0.8,6.7-1.4l0,0l0,0c0-0.8,0-0.9,0-1.1v-0.1l0,0c-0.5,0-1,0-1.4,0l0,0c0-0.5,0.1-1,0.1-1.5c-0.6,0.5-1.1,1.1-1.6,1.5l0,0
					l0,0l0,0c-0.3,0-0.6,0-0.9,0c0-0.5,0-1.1,0-1.5c-0.6,0.5-1.1,1.1-1.6,1.5l0,0c-1.3,0-2,0-2.5,0c-0.2,0-0.6,0-1.3,0
					c-0.3,0-0.6,0-1,0c-0.6,0-1.2,0-1.5,0c-0.5,0-1.1,0-1.5,0h-3.2C23.3,138.2,20,138.2,19,138.3z"/>
			</defs>
			<clipPath id="SVGID_00000177469273982101501590000000206912708169533586_">
				<use xlink:href="#SVGID_00000137105061791784700200000011629693926921416616_"  style="overflow:visible;"/>
			</clipPath>
			<g style="clip-path:url(#SVGID_00000177469273982101501590000000206912708169533586_);">
				<g>
					<g>
						<defs>
							<rect id="SVGID_00000088812843908289173830000007140690955357446816_" x="-69.4" y="127.6" width="125.1" height="112.9"/>
						</defs>
						<clipPath id="SVGID_00000062895717679845574940000012149168370610584510_">
							<use xlink:href="#SVGID_00000088812843908289173830000007140690955357446816_"  style="overflow:visible;"/>
						</clipPath>
						<g style="clip-path:url(#SVGID_00000062895717679845574940000012149168370610584510_);enable-background:new    ;">
							
								<image style="overflow:visible;enable-background:new    ;" width="1220" height="1321" xlink:href="../../Фитинги/Гидравлические/74A506C2.jpg"  transform="matrix(7.798260e-02 0 0 9.391899e-02 -54.4414 122.0922)">
							</image>
						</g>
					</g>
				</g>
				<g>
					<rect id="SVGID_16_" x="-69.4" y="127.6" class="st10" width="125.1" height="112.9"/>
				</g>
			</g>
		</g>
	</g>
	<g>
		<path id="SVGID_14_" class="st10" d="M19,138.3c-0.1,0-0.5,0-0.7,0.3c0,0-0.1,0.1-0.2,0.3c-0.1,0.4,0.1,0.8,0.1,0.8
			s0.9,0.8,1.4,1.2c0.5,0.4,1.2,1,2,1.6c1.3,0,1.9,0,2.4,0c0,0,1.6,0,1.7,0c0.1,0,0.1,0,0.2,0s0.1,0,0.2,0l0,0c0,0,0,0,0.1,0l0,0
			l0,0l0,0l0,0l0,0c0,0,0,0,0-0.1v-0.1c0-0.1,0-0.2,0-0.4c0-0.4,0-0.4,0-0.4l0,0c0-0.2,0.2-0.4,0.2-0.4c0.1-0.1,0.1-0.1,0.2-0.2
			c0.3-0.1,0.6-0.1,1-0.1c0.2,0,0.4,0,0.6,0c0,0,0.5,0,1.5,0c3.3,0,3.3,0,3.3,0s4.1-0.8,6.7-1.4l0,0l0,0c0-0.8,0-0.9,0-1.1v-0.1l0,0
			c-0.5,0-1,0-1.4,0l0,0c0-0.5,0.1-1,0.1-1.5c-0.6,0.5-1.1,1.1-1.6,1.5l0,0l0,0l0,0c-0.3,0-0.6,0-0.9,0c0-0.5,0-1.1,0-1.5
			c-0.6,0.5-1.1,1.1-1.6,1.5l0,0c-1.3,0-2,0-2.5,0c-0.2,0-0.6,0-1.3,0c-0.3,0-0.6,0-1,0c-0.6,0-1.2,0-1.5,0c-0.5,0-1.1,0-1.5,0h-3.2
			C23.3,138.2,20,138.2,19,138.3z"/>
	</g>
</g>
<linearGradient id="SVGID_00000047758801115964688510000004352291377737977278_" gradientUnits="userSpaceOnUse" x1="50.25" y1="142.4177" x2="50.25" y2="120.1592" gradientTransform="matrix(1 0 0 1 0 -8)">
	<stop  offset="0" style="stop-color:#424242"/>
	<stop  offset="0.1068" style="stop-color:#333333"/>
	<stop  offset="0.2055" style="stop-color:#2D2D2D"/>
	<stop  offset="0.3492" style="stop-color:#424244"/>
	<stop  offset="0.6732" style="stop-color:#7F7F7F"/>
	<stop  offset="0.9078" style="stop-color:#414042"/>
</linearGradient>
<path style="fill:url(#SVGID_00000047758801115964688510000004352291377737977278_);" d="M99,134.4c-32.3,0-64.7-0.1-97.1-0.1
	c0-0.2-0.1-0.4-0.1-0.6c-0.1-0.5-0.2-1.7-0.2-3.4c0-0.5,0-1.5,0.1-2.7c0.2-1.7,0.5-2.6,0.9-4.2c0.9-3.6,1-6.5,1-7.1
	c0-1.1,0-2.5-0.3-4.3c31.9,0,63.8,0,95.7-0.1C99,119.5,99,127,99,134.4z"/>
<path class="st7" d="M32.6,144v1.5l-0.7-0.8c-0.4-0.2-0.5-0.3-0.5-0.4C31.5,144.3,31.5,144.2,32.6,144L32.6,144z"/>
<linearGradient id="SVGID_00000043432559363924817040000006264898559213756065_" gradientUnits="userSpaceOnUse" x1="101.2865" y1="108.6513" x2="101.2865" y2="108.6513" gradientTransform="matrix(1 0 0 1 0 -8)">
	<stop  offset="0" style="stop-color:#424242"/>
	<stop  offset="0.1068" style="stop-color:#333333"/>
	<stop  offset="0.2055" style="stop-color:#2D2D2D"/>
	<stop  offset="0.3492" style="stop-color:#424244"/>
	<stop  offset="0.6732" style="stop-color:#7F7F7F"/>
	<stop  offset="0.9078" style="stop-color:#414042"/>
</linearGradient>
<path style="fill:url(#SVGID_00000043432559363924817040000006264898559213756065_);" d="M101.3,100.7"/>
<path class="st8" d="M-1.7,112.1c1.7,0,3.5,0,5.2,0"/>
<linearGradient id="SVGID_00000085235342422953248410000002866245342884770989_" gradientUnits="userSpaceOnUse" x1="-105.6854" y1="58.8248" x2="-106.7706" y2="29.1241" gradientTransform="matrix(1 0 0 1 109.9476 -8)">
	<stop  offset="0" style="stop-color:#999898"/>
	<stop  offset="0.1963" style="stop-color:#4F4F4F"/>
	<stop  offset="0.2507" style="stop-color:#5B5B5B"/>
	<stop  offset="0.3499" style="stop-color:#7C7C7C"/>
	<stop  offset="0.3704" style="stop-color:#848484"/>
	<stop  offset="0.433" style="stop-color:#878787"/>
	<stop  offset="0.5268" style="stop-color:#A0A0A0"/>
	<stop  offset="0.6843" style="stop-color:#C6C6C6"/>
	<stop  offset="0.9078" style="stop-color:#B7B7B7"/>
	<stop  offset="1" style="stop-color:#C6C6C6"/>
</linearGradient>
<path style="fill:url(#SVGID_00000085235342422953248410000002866245342884770989_);" d="M2.2,50.8c1.3,0,2.5,0,3.8,0V21.1
	c-1.3,0-2.5,0.1-3.7,0.1c0.3,1.1,1,3.8,0.9,7.4c0,3.8-0.9,7.1-0.9,7.4c-0.2,0.7-0.4,1.5-0.7,2.8c-0.4,2.1-0.4,3.3-0.4,3.6
	c0,0.2,0,0.8,0,1.5c0,0.1,0,0.8,0,1.2c0,1.1,0.2,1.8,0.3,2.5C1.7,48.9,1.9,50,2.2,50.8z"/>
<linearGradient id="SVGID_00000133490485489076939630000014708182932456321926_" gradientUnits="userSpaceOnUse" x1="-436.8747" y1="132.2947" x2="-434.8686" y2="132.2947" gradientTransform="matrix(1 0 0 -1 440.0504 168.2472)">
	<stop  offset="0" style="stop-color:#000000;stop-opacity:0"/>
	<stop  offset="0.3429" style="stop-color:#0A0A0A;stop-opacity:0.3341"/>
	<stop  offset="0.9264" style="stop-color:#252525;stop-opacity:0.9026"/>
	<stop  offset="1" style="stop-color:#292929;stop-opacity:0.9744"/>
</linearGradient>
<rect x="3.2" y="21.1" style="opacity:0.28;fill:url(#SVGID_00000133490485489076939630000014708182932456321926_);enable-background:new    ;" width="2" height="29.7"/>
<linearGradient id="SVGID_00000151510204333281357450000016629627545384475522_" gradientUnits="userSpaceOnUse" x1="55.6681" y1="63.9317" x2="55.6681" y2="22.909" gradientTransform="matrix(1 0 0 1 0 -8)">
	<stop  offset="0" style="stop-color:#999898"/>
	<stop  offset="0.1963" style="stop-color:#4F4F4F"/>
	<stop  offset="0.2507" style="stop-color:#5B5B5B"/>
	<stop  offset="0.3499" style="stop-color:#7C7C7C"/>
	<stop  offset="0.3704" style="stop-color:#848484"/>
	<stop  offset="0.433" style="stop-color:#878787"/>
	<stop  offset="0.5974" style="stop-color:#D9D9D9"/>
	<stop  offset="0.6843" style="stop-color:#FFFFFF"/>
	<stop  offset="0.9078" style="stop-color:#B7B7B7"/>
	<stop  offset="1" style="stop-color:#C6C6C6"/>
</linearGradient>
<path style="fill:url(#SVGID_00000151510204333281357450000016629627545384475522_);" d="M62.6,55.9c0,0-6.8-1.3-13.8,0v-41
	c0,0,5.6,1.4,13.8,0V55.9z"/>
<linearGradient id="SVGID_00000102527794034720924320000017316570683659533988_" gradientUnits="userSpaceOnUse" x1="13.474" y1="65.6733" x2="13.474" y2="21.1675" gradientTransform="matrix(-1 0 0 1 59.8539 -8)">
	<stop  offset="0" style="stop-color:#636363"/>
	<stop  offset="0.1983" style="stop-color:#444444"/>
	<stop  offset="0.2933" style="stop-color:#383838"/>
	<stop  offset="0.433" style="stop-color:#565656"/>
	<stop  offset="0.6732" style="stop-color:#E5E5E5"/>
	<stop  offset="0.9078" style="stop-color:#7F7E7E"/>
	<stop  offset="1" style="stop-color:#939292"/>
</linearGradient>
<path style="fill:url(#SVGID_00000102527794034720924320000017316570683659533988_);" d="M47.4,57.7c-0.7-0.6-1.4-1.2-2-1.7
	c0-13.7,0-27.5,0-41.2c0.7-0.5,1.4-1.1,2-1.5V57.7z"/>
<linearGradient id="SVGID_00000171720496485817900170000017595846279356760451_" gradientUnits="userSpaceOnUse" x1="-27.9322" y1="65.6733" x2="-27.9322" y2="21.1675" gradientTransform="matrix(1 0 0 1 76.2472 -8)">
	<stop  offset="0" style="stop-color:#7F7F7F"/>
	<stop  offset="0.1983" style="stop-color:#606060"/>
	<stop  offset="0.2933" style="stop-color:#545454"/>
	<stop  offset="0.433" style="stop-color:#757575"/>
	<stop  offset="0.6732" style="stop-color:#FFFFFF"/>
	<stop  offset="0.9078" style="stop-color:#9B9B9B"/>
	<stop  offset="1" style="stop-color:#B2B2B2"/>
</linearGradient>
<path style="fill:url(#SVGID_00000171720496485817900170000017595846279356760451_);" d="M47.4,57.7c0.6-0.6,1.2-1.3,1.8-1.8
	c0-13.6-0.1-27.2-0.1-40.8c-0.6-0.6-1.2-1.3-1.7-1.8L47.4,57.7L47.4,57.7z"/>
<linearGradient id="SVGID_00000011028469905672567280000012555143515529285525_" gradientUnits="userSpaceOnUse" x1="-165.7577" y1="132.8268" x2="-160.3156" y2="132.8268" gradientTransform="matrix(1 0 0 -1 225.5993 168.2472)">
	<stop  offset="0" style="stop-color:#000000;stop-opacity:0"/>
	<stop  offset="1" style="stop-color:#000000;stop-opacity:0.9744"/>
</linearGradient>
<path style="opacity:0.28;fill:url(#SVGID_00000011028469905672567280000012555143515529285525_);enable-background:new    ;" d="
	M65.3,14.9c-0.9,0.2-1.9,0.4-3,0.5c-0.9,0.1-1.6,0.1-2.4,0.1c0,13.3,0,26.6,0,39.9c0.8,0,1.6,0.1,2.6,0.2c1,0.1,1.9,0.2,2.9,0.4
	C65.3,42.2,65.3,28.6,65.3,14.9z"/>
<linearGradient id="SVGID_00000094613381028582474410000003910486151607667853_" gradientUnits="userSpaceOnUse" x1="-102.0661" y1="132.8268" x2="-96.4545" y2="132.8268" gradientTransform="matrix(-1 0 0 -1 -47.296 168.2472)">
	<stop  offset="0" style="stop-color:#010101;stop-opacity:1.520000e-02"/>
	<stop  offset="0.3743" style="stop-color:#0D0D0D;stop-opacity:0.3742"/>
	<stop  offset="1" style="stop-color:#292929;stop-opacity:0.9744"/>
</linearGradient>
<path style="opacity:0.19;fill:url(#SVGID_00000094613381028582474410000003910486151607667853_);enable-background:new    ;" d="
	M49.1,15c0.9,0.2,1.8,0.3,2.8,0.4c1,0.1,1.9,0.1,2.8,0.1c0,13.3,0,26.5,0,39.9c-0.9,0-1.9,0-3,0.1c-0.9,0.1-1.7,0.2-2.5,0.4
	C49.2,42.2,49.1,28.6,49.1,15z"/>
<g>
	
		<linearGradient id="SVGID_00000111167244653874431150000017807284068564541882_" gradientUnits="userSpaceOnUse" x1="44.0775" y1="71.4784" x2="44.0775" y2="16.097" gradientTransform="matrix(-1 0 0 1 69.7042 -8)">
		<stop  offset="2.230000e-02" style="stop-color:#1A1A1A"/>
		<stop  offset="0.9832" style="stop-color:#CCCCCC"/>
	</linearGradient>
	<polygon style="fill:url(#SVGID_00000111167244653874431150000017807284068564541882_);" points="5.3,63.5 45.9,63.5 45.9,8 5.3,8 
			"/>
	
		<linearGradient id="SVGID_00000089549162924516283880000003456642702431812030_" gradientUnits="userSpaceOnUse" x1="44.1474" y1="78.8578" x2="44.1474" y2="61.6707" gradientTransform="matrix(-1 0 0 1 69.7042 -8)">
		<stop  offset="0" style="stop-color:#727272"/>
		<stop  offset="1" style="stop-color:#4C4C4C"/>
	</linearGradient>
	<path style="fill:url(#SVGID_00000089549162924516283880000003456642702431812030_);" d="M6.6,53.7h38c0,0,3,7.4,0,17.2h-38
		C6.6,70.8,3.5,62,6.6,53.7z"/>
	
		<linearGradient id="SVGID_00000049908727839263193230000015197668350257617026_" gradientUnits="userSpaceOnUse" x1="44.0506" y1="61.6707" x2="44.0506" y2="26.0254" gradientTransform="matrix(-1 0 0 1 69.7042 -8)">
		<stop  offset="0" style="stop-color:#A0A0A0"/>
		<stop  offset="1" style="stop-color:#777777"/>
	</linearGradient>
	<path style="fill:url(#SVGID_00000049908727839263193230000015197668350257617026_);" d="M6.7,18h38c0,0,3,15.3,0,35.6h-38
		C6.7,53.7,3.6,35.3,6.7,18z"/>
	
		<linearGradient id="SVGID_00000031173633236223585700000011542843742168260520_" gradientUnits="userSpaceOnUse" x1="44.0506" y1="26.0254" x2="44.0506" y2="8.8383" gradientTransform="matrix(-1 0 0 1 69.7042 -8)">
		<stop  offset="0" style="stop-color:#F4F4F4"/>
		<stop  offset="1" style="stop-color:#BABABA"/>
	</linearGradient>
	<path style="fill:url(#SVGID_00000031173633236223585700000011542843742168260520_);" d="M6.7,0.9h38c0,0,3,7.4,0,17.2h-38
		C6.7,18,3.6,9.2,6.7,0.9z"/>
</g>
<linearGradient id="SVGID_00000114041081944966626890000004729652302608577722_" gradientUnits="userSpaceOnUse" x1="85.9997" y1="63.3512" x2="85.9997" y2="23.4895" gradientTransform="matrix(1 0 0 1 0 -8)">
	<stop  offset="0" style="stop-color:#999898"/>
	<stop  offset="0.1963" style="stop-color:#4F4F4F"/>
	<stop  offset="0.2507" style="stop-color:#5B5B5B"/>
	<stop  offset="0.3499" style="stop-color:#7C7C7C"/>
	<stop  offset="0.3704" style="stop-color:#848484"/>
	<stop  offset="0.433" style="stop-color:#878787"/>
	<stop  offset="0.5974" style="stop-color:#D9D9D9"/>
	<stop  offset="0.6843" style="stop-color:#FFFFFF"/>
	<stop  offset="0.9078" style="stop-color:#B7B7B7"/>
	<stop  offset="1" style="stop-color:#C6C6C6"/>
</linearGradient>
<rect x="78.8" y="15.5" style="fill:url(#SVGID_00000114041081944966626890000004729652302608577722_);" width="14.3" height="39.9"/>
<linearGradient id="SVGID_00000021119162489740329320000001227833742508897442_" gradientUnits="userSpaceOnUse" x1="-379.9371" y1="-361.7101" x2="-368.7139" y2="-361.7101" gradientTransform="matrix(-1 0 0 1 -289.8593 397.0337)">
	<stop  offset="0" style="stop-color:#000000;stop-opacity:0"/>
	<stop  offset="1" style="stop-color:#292929;stop-opacity:0.9744"/>
</linearGradient>
<polygon style="opacity:0.19;fill:url(#SVGID_00000021119162489740329320000001227833742508897442_);enable-background:new    ;" points="
	78.8,55.2 90.1,55.2 90.1,15.5 78.8,15.5 "/>
<g>
	
		<linearGradient id="SVGID_00000082344342004174784430000008299141219417579914_" gradientUnits="userSpaceOnUse" x1="-0.7185" y1="69.8336" x2="-0.7185" y2="17.8779" gradientTransform="matrix(-1 0 0 1 69.7042 -8)">
		<stop  offset="2.230000e-02" style="stop-color:#1A1A1A"/>
		<stop  offset="0.9832" style="stop-color:#CCCCCC"/>
	</linearGradient>
	<polygon style="fill:url(#SVGID_00000082344342004174784430000008299141219417579914_);" points="62,61.8 78.8,61.8 78.8,9.9 
		62,9.9 	"/>
	
		<linearGradient id="SVGID_00000165920687312949297490000015370149493910355622_" gradientUnits="userSpaceOnUse" x1="-0.7185" y1="76.7997" x2="-0.7185" y2="60.6786" gradientTransform="matrix(-1 0 0 1 69.7042 -8)">
		<stop  offset="0" style="stop-color:#727272"/>
		<stop  offset="1" style="stop-color:#4C4C4C"/>
	</linearGradient>
	<path style="fill:url(#SVGID_00000165920687312949297490000015370149493910355622_);" d="M62.6,52.6h15.7c0,0,1.3,6.9,0,16.2H62.6
		C62.6,68.8,61.3,60.5,62.6,52.6z"/>
	
		<linearGradient id="SVGID_00000102545664248926665820000007325878096454560899_" gradientUnits="userSpaceOnUse" x1="-0.7185" y1="60.6644" x2="-0.7185" y2="27.2303" gradientTransform="matrix(-1 0 0 1 69.7042 -8)">
		<stop  offset="0" style="stop-color:#A0A0A0"/>
		<stop  offset="1" style="stop-color:#777777"/>
	</linearGradient>
	<path style="fill:url(#SVGID_00000102545664248926665820000007325878096454560899_);" d="M62.6,19.3h15.7c0,0,1.3,14.3,0,33.5H62.6
		C62.6,52.6,61.3,35.4,62.6,19.3z"/>
	
		<linearGradient id="SVGID_00000175309487913520996990000017509282164686395296_" gradientUnits="userSpaceOnUse" x1="-0.7185" y1="27.2238" x2="-0.7185" y2="11.1026" gradientTransform="matrix(-1 0 0 1 69.7042 -8)">
		<stop  offset="0" style="stop-color:#F4F4F4"/>
		<stop  offset="1" style="stop-color:#BABABA"/>
	</linearGradient>
	<path style="fill:url(#SVGID_00000175309487913520996990000017509282164686395296_);" d="M62.6,3.1h15.7c0,0,1.3,6.9,0,16.2H62.6
		C62.6,19.3,61.3,10.9,62.6,3.1z"/>
</g>
<linearGradient id="SVGID_00000155865642390178008980000005254756822811892894_" gradientUnits="userSpaceOnUse" x1="96.0619" y1="63.2545" x2="96.0619" y2="23.3928" gradientTransform="matrix(1 0 0 1 0 -8)">
	<stop  offset="0" style="stop-color:#999898"/>
	<stop  offset="0.1963" style="stop-color:#4F4F4F"/>
	<stop  offset="0.2507" style="stop-color:#5B5B5B"/>
	<stop  offset="0.3499" style="stop-color:#7C7C7C"/>
	<stop  offset="0.3704" style="stop-color:#848484"/>
	<stop  offset="0.433" style="stop-color:#878787"/>
	<stop  offset="0.5974" style="stop-color:#D9D9D9"/>
	<stop  offset="0.6843" style="stop-color:#FFFFFF"/>
	<stop  offset="0.9078" style="stop-color:#B7B7B7"/>
	<stop  offset="1" style="stop-color:#C6C6C6"/>
</linearGradient>
<polygon style="fill:url(#SVGID_00000155865642390178008980000005254756822811892894_);" points="93.2,15.4 93.2,55.3 99,52.1 
	99,18.5 "/>
<linearGradient id="SVGID_00000009567674840421443470000005185082878063314855_" gradientUnits="userSpaceOnUse" x1="99.0024" y1="43.3236" x2="93.13" y2="43.3236" gradientTransform="matrix(1 0 0 1 0 -8)">
	<stop  offset="0" style="stop-color:#000000;stop-opacity:0"/>
	<stop  offset="0.3429" style="stop-color:#0A0A0A;stop-opacity:0.3326"/>
	<stop  offset="0.9264" style="stop-color:#252525;stop-opacity:0.8986"/>
	<stop  offset="1" style="stop-color:#292929;stop-opacity:0.97"/>
</linearGradient>
<polygon style="opacity:0.14;fill:url(#SVGID_00000009567674840421443470000005185082878063314855_);enable-background:new    ;" points="
	93.2,15.4 93.2,55.3 99,52.1 99,18.5 "/>
<path class="st6" d="M97.2,141c0.2-0.1,0.3-0.2,0.5-0.3l0.5-0.3l0,0l0.3-0.2c0,0,0.1,0,0.1-0.1l0.2-0.1c0,0,0,0,0-0.1v-0.2
	c0-0.1,0-0.2,0-0.4v-31.2v-0.1v-0.7v-0.1v-1.2c0-0.1,0-0.2,0-0.2v-0.1l0,0l-0.5-0.3c0,0-0.1-0.1-0.2-0.1l-0.5-0.2
	c-0.2-0.1-0.4-0.2-0.6-0.3l-0.6-0.3c-0.1,0-0.1-0.1-0.2-0.1l-3.5-1.7c-0.1,0-0.2,0-0.3,0c-4.5,0-9,0-13.5,0H79v-3.6
	c0.1-5.4-0.6-9-0.6-9H62.7c-0.5,3.1-0.6,6.2-0.6,8.9v3.2c-3,0.5-5.6,0.6-7.7,0.6c0,0,0,0-0.1,0c-1.9,0-3.5-0.2-4.5-0.4
	c-0.4,0-0.7,0-1.1-0.1c0,0,0,0-0.1,0c-0.6-0.6-1.2-1.3-1.7-1.8c-0.5,0.4-1.1,0.8-1.5,1.2c0.1-1.3,0.1-2.5,0.2-3.8c0-0.5,0-1,0-1.5
	c0-0.1,0-0.3,0-0.4s0-0.3,0-0.4c0.1-2.1-0.2-3.8-0.5-4.8c0,0-0.1-0.2-0.8-2.7l0,0c-12.4,0-24.9,0-37.2,0c-0.4,1.3-0.9,2.8-1.1,4.5
	c-0.3,1.8-0.3,3.6-0.2,4.9c0,3.7,0,7.4,0,11v0.1c-0.8,0-1.5,0-2.3,0c-0.3,0-0.7,0-1,0c1,3.2,1.1,5.8,1.1,7.4c0,2.2-0.3,4.3-0.5,4.9
	c-0.2,1.2-0.5,2.4-0.5,2.4c-0.3,1.5-0.4,1.5-0.6,2.5c-0.1,0.3-0.3,1.5-0.4,3c0,0.7,0,1.4,0,1.5c0,0.5,0,0.9,0,1c0,0.1,0,0.7,0.1,1.4
	c0,0.3,0.1,1.1,0.4,2.5c0.1,0.8,0.3,1.7,0.6,2.9h1.6h1.6c0,4,0,7.8,0,11.8c-0.1,1.5,0,3.4,0.5,5.5c0.3,1.4,0.7,2.4,1.1,3.5
	c12.2,0,24.5,0,36.7,0c0.8-2.7,1.2-5.2,1.3-7.4l0,0v-7.2c0.5,0.4,1.1,0.9,1.5,1.3c0.6-0.6,1.3-1.3,1.8-1.8c6-1,11.6-0.3,13.4,0v3
	c-0.1,5.5,0.6,10.1,0.6,10.1h15.9c0.4-2.5,0.5-4.9,0.6-7.1l0,0v-6.6h0.1h13.5h0.3l1.7-1c0.3-0.2,0.6-0.3,0.9-0.5L97.2,141z"/>
<image style="overflow:visible;" width="200" height="200" xlink:href="../../pepsi.png"  transform="matrix(4.643258e-02 0 0 4.643258e-02 65.4972 31.2582)">
</image>
</svg>
