<?xml version="1.0" encoding="utf-8"?>
<!-- Generator: Adobe Illustrator 25.4.1, SVG Export Plug-In . SVG Version: 6.00 Build 0)  -->
<svg version="1.1" id="Слой_1" xmlns="http://www.w3.org/2000/svg" xmlns:xlink="http://www.w3.org/1999/xlink" x="0px" y="0px"
	 viewBox="0 0 200 320" style="enable-background:new 0 0 200 320;" xml:space="preserve">
<style type="text/css">
	.st0{fill:#282828;}
	.st1{clip-path:url(#SVGID_00000150092279630616765560000001481159953819305351_);fill:none;stroke:#CCCCCC;stroke-miterlimit:10;}
	.st2{clip-path:url(#SVGID_00000150092279630616765560000001481159953819305351_);}
	.st3{opacity:0.38;enable-background:new    ;}
	.st4{clip-path:url(#SVGID_00000176725352324352407100000017999227943781651129_);}
	.st5{fill:none;stroke:#CCCCCC;stroke-miterlimit:10;}
	.st6{fill:none;}
	.st7{clip-path:url(#SVGID_00000091015344250843362350000010035907619087528627_);}
	.st8{fill:none;stroke:#8E8E8E;stroke-width:0.75;stroke-miterlimit:10;}
	.st9{fill:none;stroke:#8E8E8E;stroke-width:0.25;stroke-miterlimit:10;}
	.st10{clip-path:url(#SVGID_00000134937239172298155920000015155475400166708358_);}
	.st11{fill:none;stroke:#999999;stroke-width:0.75;}
	.st12{fill:url(#SVGID_00000060739195193106802150000017167807171208799906_);}
	.st13{fill:url(#SVGID_00000008118289621883028840000000621374463548000165_);}
	.st14{fill:url(#SVGID_00000135685871784977465640000004035615414848956344_);}
	.st15{fill:url(#SVGID_00000101812130715818965040000005198904298287442092_);}
	.st16{opacity:0.28;fill:url(#SVGID_00000131350939880458251380000004676601788908294025_);enable-background:new    ;}
	.st17{fill:url(#SVGID_00000026885369961633650570000006566575424669625017_);}
	.st18{fill:url(#SVGID_00000146458546589709851170000009415975823508393628_);}
	.st19{fill:#AAAAAA;}
	.st20{fill:url(#SVGID_00000046301017525278890230000003978935686024429989_);}
	.st21{fill:url(#SVGID_00000150082023903072151890000012206937829460223641_);}
	.st22{fill:url(#SVGID_00000108283130160144688810000017138832685533915785_);}
	.st23{fill:url(#SVGID_00000168080361353161137360000006214343335230745244_);}
	.st24{opacity:0.28;fill:url(#SVGID_00000015341796459218554150000015772926028405821347_);enable-background:new    ;}
	.st25{fill:url(#SVGID_00000003085124382195786740000002328637395052035476_);}
	.st26{fill:url(#SVGID_00000111904558475215087660000009752465182724678332_);}
	.st27{fill:url(#SVGID_00000093136665624960104410000017232404764686912417_);}
	.st28{fill:url(#SVGID_00000062888581196080740640000000335551867371868863_);}
	.st29{opacity:0.28;fill:url(#SVGID_00000143610203071364761800000015010235827762005398_);enable-background:new    ;}
	.st30{fill:url(#SVGID_00000021101755695058544970000003830774242977097388_);}
	.st31{fill:url(#SVGID_00000107576149451064195250000018337701152139540108_);}
	.st32{fill:url(#SVGID_00000121998947995208619880000011074629132333045428_);}
	.st33{fill:url(#SVGID_00000078735871538971547130000001112922923983829662_);}
	.st34{fill:url(#SVGID_00000112617019120068359240000008261176375357053099_);}
	.st35{fill:url(#SVGID_00000118381063114916955210000015708890487453435071_);}
	.st36{opacity:0.28;fill:url(#SVGID_00000108295415690027602950000009611340339016372878_);enable-background:new    ;}
	.st37{opacity:0.28;fill:url(#SVGID_00000164500844346230364250000015893678803148451768_);enable-background:new    ;}
	.st38{fill:url(#SVGID_00000082341442496457642850000000997654078150905771_);}
	.st39{fill:url(#SVGID_00000075133737387608412670000008929901178258266770_);}
	.st40{fill:url(#SVGID_00000152985313875294831950000016902827845054491788_);}
	.st41{fill:url(#SVGID_00000085249703460224445630000010609952580061085581_);}
	.st42{fill:url(#SVGID_00000027579587473417169130000006985867670059714957_);}
	.st43{fill:url(#SVGID_00000121272228741084873750000000160055591654042806_);}
	.st44{fill:url(#SVGID_00000182523905635178522190000000422975088739674287_);}
	.st45{fill:url(#SVGID_00000039839901024887533840000016191306734288215430_);}
	.st46{fill:none;stroke:url(#SVGID_00000160905456019645164970000011769501474553584291_);stroke-miterlimit:10;}
	.st47{fill:none;stroke:url(#SVGID_00000031178345835991504550000015490975147220000646_);stroke-miterlimit:10;}
	.st48{fill:none;stroke:url(#SVGID_00000054245249473816805220000004135040524381128623_);stroke-miterlimit:10;}
	.st49{fill:#282828;stroke:#282828;stroke-width:0.5;stroke-miterlimit:10;}
	.st50{fill:none;stroke:#ADADAD;stroke-width:0.5;stroke-miterlimit:10;}
	.st51{clip-path:url(#SVGID_00000160905454299082638240000009528647576314842762_);}
	.st52{clip-path:url(#SVGID_00000158727425410981227440000012427204581678216103_);}
	.st53{opacity:0.53;}
	.st54{fill:#666666;}
	.st55{clip-path:url(#SVGID_00000152246351267046451530000005276661136717208490_);}
	.st56{clip-path:url(#SVGID_00000008838200757495422880000004184300602602307250_);}
	.st57{clip-path:url(#SVGID_00000019671368176535699900000017254597794560681869_);}
	.st58{clip-path:url(#SVGID_00000071535842910825282370000005187814562928655756_);}
	.st59{opacity:0.54;fill:#666666;enable-background:new    ;}
	.st60{clip-path:url(#SVGID_00000178180316469008442450000012283142888781338517_);}
	.st61{clip-path:url(#SVGID_00000132767848818364423880000001129920524104876980_);}
	.st62{clip-path:url(#SVGID_00000160190762728627772950000008567827549828357820_);}
	.st63{clip-path:url(#SVGID_00000041995422918872205440000010004945667076982416_);}
	.st64{clip-path:url(#SVGID_00000027581746761434693210000013289491862853747865_);}
	.st65{clip-path:url(#SVGID_00000112625056460260471320000007457933835239341989_);}
	.st66{clip-path:url(#SVGID_00000167381087451117298190000005564517639041297325_);}
	.st67{clip-path:url(#SVGID_00000106141681250707899740000014193501677885802891_);}
	.st68{clip-path:url(#SVGID_00000094603734347984512240000006622789875700976807_);}
	.st69{clip-path:url(#SVGID_00000036962932487371248080000000564185262750226851_);}
	.st70{fill:url(#SVGID_00000031901161553240193420000008819962104607731379_);}
	.st71{fill:#4D4D4D;}
	.st72{fill:url(#SVGID_00000079480548288311756720000010511927467759416195_);}
	.st73{fill:url(#SVGID_00000013190761528532139510000018379160289401815471_);}
	.st74{fill:url(#SVGID_00000018200962987809281790000009654674157837152671_);}
</style>
<path class="st0" d="M77.8,276.9h48.4c4.7,11.6,4.5,22.6-1.2,27.8c-0.9,0.9-2.2,1.7-3.8,2.2c-14.5-0.3-29-0.4-43.5-0.6V276.9z"/>
<g>
	<defs>
		<path id="SVGID_1_" d="M123.9,305.2c-0.9-0.5-1.9-1-2.8-1.6c1-0.5,2.1-1,3-1.6c-1-0.5-2.1-1-3-1.6c0.9-0.5,1.9-1,2.8-1.6
			c-0.9-0.5-1.8-0.9-2.7-1.4c0.9-0.6,2.7-1.8,2.7-1.8l-3.2-1.8c0,0,2.1-0.9,3.1-1.4c-0.8-0.4-1.4-0.8-2.3-1
			c-0.3-0.1-0.5-0.3-0.8-0.4c0.4-0.3,0.8-0.5,1.3-0.8c0.5-0.3,0.9-0.5,1.4-0.8c-0.4-0.1-0.8-0.4-1.2-0.8c-0.5-0.4-0.9-0.8-1.2-1.3
			c0,0,0,0,0-0.3c0-0.5,0-0.9,0-1.4c0-0.6,0-1.3,0-2.1c0-0.3,0-0.4,0-0.6c0,0-1,0-1.4,0c-0.5,0-0.9,0-1.2,0
			c-1.2-1.4-3.6-4.3-3.6-4.1v-0.5h-27c-0.1,0.3-2.5,3-3.6,4.4c-0.4,0-0.8,0-1.2,0c-0.4,0-1.4,0-1.4,0c0,0.3,0,0.4,0,0.6
			c0,0.6,0,1.3,0,2.1c0,0.5,0,0.9,0,1.4c0,0.3,0,0.3,0,0.3s-1.7,1.3-2.6,1.9c0.8,0.5,1.7,1,2.6,1.6l-3.1,1.6l3.2,1.4
			c0,0-2.1,1-3.1,1.6l2.8,1.8l-2.8,1.4l3,1.7l-3,1.6c0.9,0.5,2.7,1.6,2.7,1.6l-2.7,1.6c0.9,0.5,2.7,1.6,2.7,1.6h-1h-6.3l-5.6-0.6
			v-34.2c0.8-0.3,1.8-0.6,3-0.8c1.2-0.3,2.3-0.4,3.4-0.4c4.3,0,8.5,0,12.9,0h27h9.8c1.4-0.1,3.4-0.1,5.4,0.1c1.4,0.3,2.8,0.6,3.9,1
			c0,11.4,0,22.8,0,34.2c-1,0.4-2.3,0.6-3.6,0.8c-1.2,0.1-2.3,0.3-3.2,0.4c-1.8,0-3.6,0-5.4,0.1c-0.5,0-1.2-0.1-1.7-0.1
			C121.1,306.1,122.6,305.7,123.9,305.2z"/>
	</defs>
	<clipPath id="SVGID_00000063593048440838060080000007917529998578679992_">
		<use xlink:href="#SVGID_1_"  style="overflow:visible;"/>
	</clipPath>
	
		<path style="clip-path:url(#SVGID_00000063593048440838060080000007917529998578679992_);fill:none;stroke:#CCCCCC;stroke-miterlimit:10;" d="
		M76.9,306.5h22.3c1.7,0,3.4,0,4.9,0h21.1c5.3,0.1,8.8-1.2,8.8-1.2v-33.8c-3-1-6.1-1.3-8.7-1.3h-21.1c-1.4,0-3,0-4.3,0H78.3
		c-5.4-0.4-9.8,1.2-9.8,1.2v33.8c2.6,0.8,4.8,1,7,1.2l0,0h0.8C76.4,306.5,76.6,306.5,76.9,306.5z"/>
	<g style="clip-path:url(#SVGID_00000063593048440838060080000007917529998578679992_);">
		
			<image style="overflow:visible;enable-background:new    ;" width="600" height="600" xlink:href="../../background.jpg"  transform="matrix(0.2232 0 0 0.2232 12.4452 266.474)">
		</image>
	</g>
</g>
<path class="st3" d="M123.9,305.2c-0.9-0.5-1.9-1-2.8-1.6c1-0.5,2.1-1,3-1.6c-1-0.5-2.1-1-3-1.6c0.9-0.5,1.9-1,2.8-1.6
	c-0.9-0.5-1.8-0.9-2.7-1.4c0.9-0.6,2.7-1.8,2.7-1.8c-1-0.6-2.2-1.3-3.2-1.8c0.4-0.1,0.8-0.4,1.2-0.5c0.6-0.4,1.3-0.6,1.9-0.9
	c-0.8-0.4-1.4-0.8-2.3-1c-0.3-0.1-0.5-0.3-0.8-0.4c0.4-0.3,0.8-0.5,1.3-0.8c0.5-0.3,0.9-0.5,1.4-0.8c-0.4-0.1-0.8-0.4-1.2-0.8
	c-0.5-0.4-0.9-0.8-1.2-1.3c0,0,0,0,0-0.3c0-0.5,0-0.9,0-1.4c0-0.6,0-1.3,0-2.1c0-0.3,0-0.4,0-0.6c0,0-1,0-1.4,0c-0.5,0-0.9,0-1.2,0
	c-1.2-1.4-3.6-4.3-3.6-4.1v-0.5h-27c-0.1,0.3-2.5,3-3.6,4.4c-0.4,0-0.8,0-1.2,0c-0.4,0-1.4,0-1.4,0c0,0.3,0,0.4,0,0.6
	c0,0.6,0,1.3,0,2.1c0,0.5,0,0.9,0,1.4c0,0.3,0,0.3,0,0.3s-1.7,1.3-2.6,1.9c0.8,0.5,1.7,1,2.6,1.6l-3.1,1.6l3.2,1.4
	c0,0-2.1,1-3.1,1.6l2.8,1.8l-2.8,1.4l3,1.7l-3,1.6c0.9,0.5,2.7,1.6,2.7,1.6l-2.7,1.6c0.9,0.5,2.7,1.6,2.7,1.6h-1h-6.3l-5.6-0.6
	v-34.2c0.8-0.3,1.8-0.6,3-0.8c1.2-0.3,2.3-0.4,3.4-0.4c4.3,0,8.5,0,12.9,0h27h9.8c1.4-0.1,3.4-0.1,5.4,0.1c1.4,0.3,2.8,0.6,3.9,1
	c0,11.4,0,22.8,0,34.2c-1,0.4-2.3,0.6-3.6,0.8c-1.2,0.1-2.3,0.3-3.2,0.4c-1.8,0-3.6,0-5.4,0.1c-0.5,0-1.2-0.1-1.7-0.1
	C121.2,306.1,122.6,305.7,123.9,305.2z"/>
<g>
	<g>
		<defs>
			<path id="SVGID_00000160165556188742330360000013780452540549957792_" d="M195.4,216.2c-0.3-1.4-0.5-2.2-0.8-2.8
				c0-0.1-0.3-1-0.5-2.3c-0.4-1.7-0.4-3-0.5-5c-0.1-2.2-0.3-3.2-0.1-4.1c0.3-1.4,0.6-2.7,1-3.5c-1.2,0-2.5,0-3.6,0v-11.4
				c0.3-5.8-1.3-9.7-1.3-9.7h-37.9c-0.9,2.6-1.3,5-1.3,7.5l0,0v6.6c-0.5-0.5-1.2-1-1.7-1.6c-0.5,0.6-0.9,1.3-1.4,1.9l0,0
				c-2.1,0.3-4,0.4-5.8,0.4v-0.8v-0.3H61.3v0.3v0.6c-2.8,0.1-5,0-6.6-0.3c-0.1,0-0.1,0-0.3,0c-0.8-0.1-1.4-0.1-1.8-0.3
				c-0.5-0.6-0.9-1.3-1.4-1.9c-0.5,0.5-1,0.9-1.6,1.4v-4.3c0.3-5.8-1.3-9.7-1.3-9.7H10.6c-0.9,2.6-1.3,5-1.3,7.5l0,0v13.6
				c-1,0-2.2,0-3.4,0c-0.3,0-0.5,0-0.6,0c0.6,1.3,1,2.3,1.3,3.2c2.3,8.8-4.4,14.9-2.1,23.4c0.4,1.3,0.8,2.3,1.2,3.1c0.5,0,1,0,1.7,0
				v0.1h2.1v13.5h0.1c0.3,4.4,1.3,7.6,1.3,7.6h37.9c0.8-2.7,1.2-5.3,1.3-7.6l0,0v0c0-0.8,0-1.6,0-2.3v-5c0.5,0.5,1,1,1.6,1.7
				c0.5-0.6,1-1.3,1.6-1.9c3-0.4,5.8-0.5,8.3-0.5l0,0c0.1,0,0.1,0,0.3,0c0,1.4,0,3,0,3c3.5,0,6.9,0.1,10.4,0.1
				c0.8,0.1,2.3,0.6,3.9,1.9c2.1,1.9,2.5,4.5,2.6,5.2c0,3.6,0.1,7.1,0.1,10.7c3.1,0,6.2,0,9.3,0c0,17.6,0,35.2,0,52.7
				c9.1,0,18.2,0,27.3,0c0-17.6,0-35.2,0-52.7c1.4,0,2.7,0,4.1,0c1.9,0,3.8,0,5.7,0c0.1-3.4,0.1-6.9,0.3-10.2c0-0.5-0.1-3.4,2.1-5.7
				c1.9-2.1,4.4-2.2,4.9-2.2c3.2,0,6.5,0.1,9.7,0.1v-3c0.8,0,1.7,0,2.6,0.1c1,0.1,2.1,0.1,3,0.3c0.5,0.6,1,1.3,1.6,1.9
				c0.5-0.6,1.2-1.2,1.7-1.8v7.9h0.1c0.3,4.4,1.3,7.6,1.3,7.6h37.9c0.8-2.7,1.2-5.3,1.3-7.6l0,0v-0.3c0-0.8,0-1.6,0-2.3v-10.9
				c0.9,0,1.7,0,2.6,0c0.4,0,0.9,0,1.3,0c0.3-0.8,0.5-1.8,0.9-3.2c0.1-0.5,0.3-1.4,0.4-2.5c0-0.4,0-1,0-1.2c0-0.8,0-1.4,0-1.6
				C195.9,219.6,195.9,218.3,195.4,216.2z"/>
		</defs>
		<clipPath id="SVGID_00000172417451056762420700000011534526853178900132_">
			<use xlink:href="#SVGID_00000160165556188742330360000013780452540549957792_"  style="overflow:visible;"/>
		</clipPath>
		<g style="clip-path:url(#SVGID_00000172417451056762420700000011534526853178900132_);">
			
				<image style="overflow:visible;enable-background:new    ;" width="600" height="600" xlink:href="../../background.jpg"  transform="matrix(0.4434 0 0 0.4457 7.9365 136.2759)">
			</image>
		</g>
	</g>
	<g>
		<path id="SVGID_88_" class="st5" d="M195.4,216.2c-0.3-1.4-0.5-2.2-0.8-2.8c0-0.1-0.3-1-0.5-2.3c-0.4-1.7-0.4-3-0.5-5
			c-0.1-2.2-0.3-3.2-0.1-4.1c0.3-1.4,0.6-2.7,1-3.5c-1.2,0-2.5,0-3.6,0v-11.4c0.3-5.8-1.3-9.7-1.3-9.7h-37.9c-0.9,2.6-1.3,5-1.3,7.5
			l0,0v6.6c-0.5-0.5-1.2-1-1.7-1.6c-0.5,0.6-0.9,1.3-1.4,1.9l0,0c-2.1,0.3-4,0.4-5.8,0.4v-0.8v-0.3H61.3v0.3v0.6
			c-2.8,0.1-5,0-6.6-0.3c-0.1,0-0.1,0-0.3,0c-0.8-0.1-1.4-0.1-1.8-0.3c-0.5-0.6-0.9-1.3-1.4-1.9c-0.5,0.5-1,0.9-1.6,1.4v-4.3
			c0.3-5.8-1.3-9.7-1.3-9.7H10.6c-0.9,2.6-1.3,5-1.3,7.5l0,0v13.6c-1,0-2.2,0-3.4,0c-0.3,0-0.5,0-0.6,0c0.6,1.3,1,2.3,1.3,3.2
			c2.3,8.8-4.4,14.9-2.1,23.4c0.4,1.3,0.8,2.3,1.2,3.1c0.5,0,1,0,1.7,0v0.1h2.1v13.5h0.1c0.3,4.4,1.3,7.6,1.3,7.6h37.9
			c0.8-2.7,1.2-5.3,1.3-7.6l0,0v0c0-0.8,0-1.6,0-2.3v-5c0.5,0.5,1,1,1.6,1.7c0.5-0.6,1-1.3,1.6-1.9c3-0.4,5.8-0.5,8.3-0.5l0,0
			c0.1,0,0.1,0,0.3,0c0,1.4,0,3,0,3c3.5,0,6.9,0.1,10.4,0.1c0.8,0.1,2.3,0.6,3.9,1.9c2.1,1.9,2.5,4.5,2.6,5.2
			c0,3.6,0.1,7.1,0.1,10.7c3.1,0,6.2,0,9.3,0c0,17.6,0,35.2,0,52.7c9.1,0,18.2,0,27.3,0c0-17.6,0-35.2,0-52.7c1.4,0,2.7,0,4.1,0
			c1.9,0,3.8,0,5.7,0c0.1-3.4,0.1-6.9,0.3-10.2c0-0.5-0.1-3.4,2.1-5.7c1.9-2.1,4.4-2.2,4.9-2.2c3.2,0,6.5,0.1,9.7,0.1v-3
			c0.8,0,1.7,0,2.6,0.1c1,0.1,2.1,0.1,3,0.3c0.5,0.6,1,1.3,1.6,1.9c0.5-0.6,1.2-1.2,1.7-1.8v7.9h0.1c0.3,4.4,1.3,7.6,1.3,7.6h37.9
			c0.8-2.7,1.2-5.3,1.3-7.6l0,0v-0.3c0-0.8,0-1.6,0-2.3v-10.9c0.9,0,1.7,0,2.6,0c0.4,0,0.9,0,1.3,0c0.3-0.8,0.5-1.8,0.9-3.2
			c0.1-0.5,0.3-1.4,0.4-2.5c0-0.4,0-1,0-1.2c0-0.8,0-1.4,0-1.6C195.9,219.6,195.9,218.3,195.4,216.2z"/>
	</g>
</g>
<g>
	<path class="st6" d="M87.6,281.4c0-0.1,0-0.4-0.3-0.6c0,0-0.1-0.1-0.3-0.1c-0.4-0.1-0.6,0.1-0.8,0.1c0,0-0.6,0.8-1,1.3
		c-0.4,0.4-0.9,1-1.6,1.8c0,1,0,1.7,0,2.2v1.6v0.1v0.1c0,0,0,0,0,0.1c0,0,0,0,0,0.1l0,0l0,0l0,0l0,0l0,0h0.1c0.1,0,0.1,0,0.1,0
		c0.1,0,0.1,0,0.4,0c0.4,0,0.4,0,0.4,0l0,0c0.3,0,0.4,0.1,0.4,0.1c0.1,0.1,0.1,0.1,0.1,0.3c0.1,0.3,0.1,0.5,0.1,0.9
		c0,0.1,0,0.4,0,0.5c0,0,0,0.4,0,1.3c0,3.1,0,3.1,0,3.1s0.8,3.8,1.3,6.2l0,0l0,0c0.8,0,0.8,0,1,0h0.1l0,0c0-0.4,0-0.8,0-1.3l0,0
		c0.5,0,0.9,0.1,1.4,0.1c-0.5-0.5-0.9-1-1.4-1.6l0,0l0,0l0,0c0-0.3,0-0.5,0-0.8c0.5,0,0.9,0,1.4,0c-0.5-0.5-0.9-1-1.4-1.6l0,0
		c0-1,0-1.8,0-2.5c0-0.1,0-0.5,0-1.2c0-0.3,0-0.5,0-0.8c0-0.5,0-1,0-1.3c0-0.5,0-0.9,0-1.4v-2.8C87.6,285.4,87.6,282.3,87.6,281.4z"
		/>
	<path class="st6" d="M87.6,281.4c0-0.1,0-0.4-0.3-0.6c0,0-0.1-0.1-0.3-0.1c-0.4-0.1-0.6,0.1-0.8,0.1c0,0-0.6,0.8-1,1.3
		c-0.4,0.4-0.9,1-1.6,1.8c0,1,0,1.7,0,2.2v1.6v0.1v0.1c0,0,0,0,0,0.1c0,0,0,0,0,0.1l0,0l0,0l0,0l0,0l0,0h0.1c0.1,0,0.1,0,0.1,0
		c0.1,0,0.1,0,0.4,0c0.4,0,0.4,0,0.4,0l0,0c0.3,0,0.4,0.1,0.4,0.1c0.1,0.1,0.1,0.1,0.1,0.3c0.1,0.3,0.1,0.5,0.1,0.9
		c0,0.1,0,0.4,0,0.5c0,0,0,0.4,0,1.3c0,3.1,0,3.1,0,3.1s0.8,3.8,1.3,6.2l0,0l0,0c0.8,0,0.8,0,1,0h0.1l0,0c0-0.4,0-0.8,0-1.3l0,0
		c0.5,0,0.9,0.1,1.4,0.1c-0.5-0.5-0.9-1-1.4-1.6l0,0l0,0l0,0c0-0.3,0-0.5,0-0.8c0.5,0,0.9,0,1.4,0c-0.5-0.5-0.9-1-1.4-1.6l0,0
		c0-1,0-1.8,0-2.5c0-0.1,0-0.5,0-1.2c0-0.3,0-0.5,0-0.8c0-0.5,0-1,0-1.3c0-0.5,0-0.9,0-1.4v-2.8C87.6,285.4,87.6,282.3,87.6,281.4z"
		/>
	<path class="st6" d="M87.6,281.4c0-0.1,0-0.4-0.3-0.6c0,0-0.1-0.1-0.3-0.1c-0.4-0.1-0.6,0.1-0.8,0.1c0,0-0.6,0.8-1,1.3
		c-0.4,0.4-0.9,1-1.6,1.8c0,1,0,1.7,0,2.2v1.6v0.1v0.1c0,0,0,0,0,0.1c0,0,0,0,0,0.1l0,0l0,0l0,0l0,0l0,0h0.1c0.1,0,0.1,0,0.1,0
		c0.1,0,0.1,0,0.4,0c0.4,0,0.4,0,0.4,0l0,0c0.3,0,0.4,0.1,0.4,0.1c0.1,0.1,0.1,0.1,0.1,0.3c0.1,0.3,0.1,0.5,0.1,0.9
		c0,0.1,0,0.4,0,0.5c0,0,0,0.4,0,1.3c0,3.1,0,3.1,0,3.1s0.8,3.8,1.3,6.2l0,0l0,0c0.8,0,0.8,0,1,0h0.1l0,0c0-0.4,0-0.8,0-1.3l0,0
		c0.5,0,0.9,0.1,1.4,0.1c-0.5-0.5-0.9-1-1.4-1.6l0,0l0,0l0,0c0-0.3,0-0.5,0-0.8c0.5,0,0.9,0,1.4,0c-0.5-0.5-0.9-1-1.4-1.6l0,0
		c0-1,0-1.8,0-2.5c0-0.1,0-0.5,0-1.2c0-0.3,0-0.5,0-0.8c0-0.5,0-1,0-1.3c0-0.5,0-0.9,0-1.4v-2.8C87.6,285.4,87.6,282.3,87.6,281.4z"
		/>
</g>
<g>
	<g>
		<g>
			<defs>
				<path id="SVGID_00000111893806628743770510000006882982672431583126_" d="M87.2,281.4c0-0.1,0-0.4-0.3-0.6c0,0-0.1-0.1-0.3-0.1
					c-0.4-0.1-0.6,0.1-0.8,0.1c0,0-0.6,0.8-1,1.3c-0.4,0.4-0.9,1-1.6,1.8c0,1,0,1.7,0,2.2v1.6v0.1v0.1c0,0,0,0,0,0.1c0,0,0,0,0,0.1
					l0,0l0,0l0,0l0,0l0,0h0.1c0.1,0,0.1,0,0.1,0c0.1,0,0.1,0,0.4,0c0.4,0,0.4,0,0.4,0l0,0c0.3,0,0.4,0.1,0.4,0.1
					c0.1,0.1,0.1,0.1,0.1,0.3c0.1,0.3,0.1,0.5,0.1,0.9c0,0.1,0,0.4,0,0.5c0,0,0,0.4,0,1.3c0,3.1,0,3.1,0,3.1s0.8,3.8,1.3,6.2l0,0
					l0,0c0.8,0,0.8,0,1,0h0.1l0,0c0-0.4,0-0.8,0-1.3l0,0c0.5,0,0.9,0.1,1.4,0.1c-0.5-0.5-0.9-1-1.4-1.6l0,0l0,0l0,0
					c0-0.3,0-0.5,0-0.8c0.5,0,0.9,0,1.4,0c-0.5-0.5-0.9-1-1.4-1.6l0,0c0-1,0-1.8,0-2.5c0-0.1,0-0.5,0-1.2c0-0.3,0-0.5,0-0.8
					c0-0.5,0-1,0-1.3c0-0.5,0-0.9,0-1.4v-2.8C87.4,285.4,87.4,282.3,87.2,281.4z"/>
			</defs>
			<clipPath id="SVGID_00000161607619660360750870000009911711031928775078_">
				<use xlink:href="#SVGID_00000111893806628743770510000006882982672431583126_"  style="overflow:visible;"/>
			</clipPath>
			<g transform="matrix(1 0 0 1 0 0)" style="clip-path:url(#SVGID_00000161607619660360750870000009911711031928775078_);">
				
					<image style="overflow:visible;enable-background:new    ;" width="600" height="600" xlink:href="../../background.jpg"  transform="matrix(0.2234 0 0 0.2234 -16.8142 252.3671)">
				</image>
			</g>
		</g>
		<g>
			<path id="SVGID_362_" class="st8" d="M87.2,281.4c0-0.1,0-0.4-0.3-0.6c0,0-0.1-0.1-0.3-0.1c-0.4-0.1-0.6,0.1-0.8,0.1
				c0,0-0.6,0.8-1,1.3c-0.4,0.4-0.9,1-1.6,1.8c0,1,0,1.7,0,2.2v1.6v0.1v0.1c0,0,0,0,0,0.1c0,0,0,0,0,0.1l0,0l0,0l0,0l0,0l0,0h0.1
				c0.1,0,0.1,0,0.1,0c0.1,0,0.1,0,0.4,0c0.4,0,0.4,0,0.4,0l0,0c0.3,0,0.4,0.1,0.4,0.1c0.1,0.1,0.1,0.1,0.1,0.3
				c0.1,0.3,0.1,0.5,0.1,0.9c0,0.1,0,0.4,0,0.5c0,0,0,0.4,0,1.3c0,3.1,0,3.1,0,3.1s0.8,3.8,1.3,6.2l0,0l0,0c0.8,0,0.8,0,1,0h0.1l0,0
				c0-0.4,0-0.8,0-1.3l0,0c0.5,0,0.9,0.1,1.4,0.1c-0.5-0.5-0.9-1-1.4-1.6l0,0l0,0l0,0c0-0.3,0-0.5,0-0.8c0.5,0,0.9,0,1.4,0
				c-0.5-0.5-0.9-1-1.4-1.6l0,0c0-1,0-1.8,0-2.5c0-0.1,0-0.5,0-1.2c0-0.3,0-0.5,0-0.8c0-0.5,0-1,0-1.3c0-0.5,0-0.9,0-1.4v-2.8
				C87.4,285.4,87.4,282.3,87.2,281.4z"/>
		</g>
	</g>
	<g>
		<path id="SVGID_361_" class="st9" d="M87.2,281.4c0-0.1,0-0.4-0.3-0.6c0,0-0.1-0.1-0.3-0.1c-0.4-0.1-0.6,0.1-0.8,0.1
			c0,0-0.6,0.8-1,1.3c-0.4,0.4-0.9,1-1.6,1.8c0,1,0,1.7,0,2.2v1.6v0.1v0.1c0,0,0,0,0,0.1c0,0,0,0,0,0.1l0,0l0,0l0,0l0,0l0,0h0.1
			c0.1,0,0.1,0,0.1,0c0.1,0,0.1,0,0.4,0c0.4,0,0.4,0,0.4,0l0,0c0.3,0,0.4,0.1,0.4,0.1c0.1,0.1,0.1,0.1,0.1,0.3
			c0.1,0.3,0.1,0.5,0.1,0.9c0,0.1,0,0.4,0,0.5c0,0,0,0.4,0,1.3c0,3.1,0,3.1,0,3.1s0.8,3.8,1.3,6.2l0,0l0,0c0.8,0,0.8,0,1,0h0.1l0,0
			c0-0.4,0-0.8,0-1.3l0,0c0.5,0,0.9,0.1,1.4,0.1c-0.5-0.5-0.9-1-1.4-1.6l0,0l0,0l0,0c0-0.3,0-0.5,0-0.8c0.5,0,0.9,0,1.4,0
			c-0.5-0.5-0.9-1-1.4-1.6l0,0c0-1,0-1.8,0-2.5c0-0.1,0-0.5,0-1.2c0-0.3,0-0.5,0-0.8c0-0.5,0-1,0-1.3c0-0.5,0-0.9,0-1.4v-2.8
			C87.4,285.4,87.4,282.3,87.2,281.4z"/>
	</g>
</g>
<g>
	<g>
		<g>
			<defs>
				<path id="SVGID_00000104663736387878026750000011736546081047451319_" d="M114.7,281.4c0-0.1,0-0.4,0.3-0.6c0,0,0.1-0.1,0.3-0.1
					c0.4-0.1,0.6,0.1,0.8,0.1c0,0,0.6,0.8,1,1.3c0.4,0.4,0.9,1,1.6,1.8c0,1,0,1.7,0,2.2v1.6v0.1v0.1c0,0,0,0,0,0.1c0,0,0,0,0,0.1
					l0,0l0,0l0,0l0,0l0,0h-0.1c-0.1,0-0.1,0-0.1,0c-0.1,0-0.1,0-0.4,0c-0.4,0-0.4,0-0.4,0l0,0c-0.3,0-0.4,0.1-0.4,0.1
					c-0.1,0.1-0.1,0.1-0.1,0.3c-0.1,0.3-0.1,0.5-0.1,0.9c0,0.1,0,0.4,0,0.5c0,0,0,0.4,0,1.3c0,3.1,0,3.1,0,3.1s-0.8,3.8-1.3,6.2l0,0
					l0,0c-0.8,0-0.8,0-1,0h-0.1l0,0c0-0.4,0-0.8,0-1.3l0,0c-0.5,0-0.9,0.1-1.4,0.1c0.5-0.5,0.9-1,1.4-1.6l0,0l0,0l0,0
					c0-0.3,0-0.5,0-0.8c-0.5,0-0.9,0-1.4,0c0.5-0.5,0.9-1,1.4-1.6l0,0c0-1,0-1.8,0-2.5c0-0.1,0-0.5,0-1.2c0-0.3,0-0.5,0-0.8
					c0-0.5,0-1,0-1.3c0-0.5,0-0.9,0-1.4v-2.8C114.4,285.4,114.4,282.6,114.7,281.4z"/>
			</defs>
			<clipPath id="SVGID_00000080188234809966127730000013958987606043192996_">
				<use xlink:href="#SVGID_00000104663736387878026750000011736546081047451319_"  style="overflow:visible;"/>
			</clipPath>
			<g transform="matrix(1 0 0 1 0 0)" style="clip-path:url(#SVGID_00000080188234809966127730000013958987606043192996_);">
				
					<image style="overflow:visible;enable-background:new    ;" width="600" height="600" xlink:href="../../background.jpg"  transform="matrix(0.2234 0 0 0.2234 -11.9378 255.3409)">
				</image>
			</g>
		</g>
		<g>
			<path id="SVGID_356_" class="st11" d="M114.7,281.4c0-0.1,0-0.4,0.3-0.6c0,0,0.1-0.1,0.3-0.1c0.4-0.1,0.6,0.1,0.8,0.1
				c0,0,0.6,0.8,1,1.3c0.4,0.4,0.9,1,1.6,1.8c0,1,0,1.7,0,2.2v1.6v0.1v0.1c0,0,0,0,0,0.1c0,0,0,0,0,0.1l0,0l0,0l0,0l0,0l0,0h-0.1
				c-0.1,0-0.1,0-0.1,0c-0.1,0-0.1,0-0.4,0c-0.4,0-0.4,0-0.4,0l0,0c-0.3,0-0.4,0.1-0.4,0.1c-0.1,0.1-0.1,0.1-0.1,0.3
				c-0.1,0.3-0.1,0.5-0.1,0.9c0,0.1,0,0.4,0,0.5c0,0,0,0.4,0,1.3c0,3.1,0,3.1,0,3.1s-0.8,3.8-1.3,6.2l0,0l0,0c-0.8,0-0.8,0-1,0h-0.1
				l0,0c0-0.4,0-0.8,0-1.3l0,0c-0.5,0-0.9,0.1-1.4,0.1c0.5-0.5,0.9-1,1.4-1.6l0,0l0,0l0,0c0-0.3,0-0.5,0-0.8c-0.5,0-0.9,0-1.4,0
				c0.5-0.5,0.9-1,1.4-1.6l0,0c0-1,0-1.8,0-2.5c0-0.1,0-0.5,0-1.2c0-0.3,0-0.5,0-0.8c0-0.5,0-1,0-1.3c0-0.5,0-0.9,0-1.4v-2.8
				C114.4,285.4,114.4,282.6,114.7,281.4z"/>
		</g>
	</g>
</g>
<linearGradient id="SVGID_00000071551766925954873000000004445592601376956322_" gradientUnits="userSpaceOnUse" x1="85.4201" y1="223.2106" x2="116.935" y2="223.2106" gradientTransform="matrix(1 0 0 -1 0 322)">
	<stop  offset="0" style="stop-color:#7F7F7F"/>
	<stop  offset="0.1983" style="stop-color:#606060"/>
	<stop  offset="0.2933" style="stop-color:#545454"/>
	<stop  offset="0.433" style="stop-color:#757575"/>
	<stop  offset="0.6732" style="stop-color:#FFFFFF"/>
	<stop  offset="0.9078" style="stop-color:#9B9B9B"/>
	<stop  offset="1" style="stop-color:#B2B2B2"/>
</linearGradient>
<rect x="85.4" y="85.7" style="fill:url(#SVGID_00000071551766925954873000000004445592601376956322_);" width="31.6" height="26.1"/>
<linearGradient id="SVGID_00000103982349754577993950000004013934602828397961_" gradientUnits="userSpaceOnUse" x1="101.2089" y1="223.2625" x2="101.2089" y2="212.9601" gradientTransform="matrix(1 0 0 -1 0 322)">
	<stop  offset="0" style="stop-color:#333333;stop-opacity:0"/>
	<stop  offset="1" style="stop-color:#333333"/>
</linearGradient>
<rect x="85.4" y="98.8" style="fill:url(#SVGID_00000103982349754577993950000004013934602828397961_);" width="31.6" height="10.4"/>
<linearGradient id="SVGID_00000084502753742571087750000006630113514078472582_" gradientUnits="userSpaceOnUse" x1="429.0167" y1="1322.7917" x2="429.0167" y2="1312.4893" gradientTransform="matrix(-1 0 0 1 530.2256 -1222.5789)">
	<stop  offset="0" style="stop-color:#333333;stop-opacity:0"/>
	<stop  offset="1" style="stop-color:#333333"/>
</linearGradient>
<polygon style="fill:url(#SVGID_00000084502753742571087750000006630113514078472582_);" points="85.4,89.9 117,89.9 117,100.2 
	85.4,100.2 "/>
<g>
	
		<linearGradient id="SVGID_00000109014874630524390840000008910224063204758673_" gradientUnits="userSpaceOnUse" x1="-1883.4952" y1="1014.2564" x2="-1884.5878" y2="984.3582" gradientTransform="matrix(-1 0 0 1 -1691.1812 -946)">
		<stop  offset="0" style="stop-color:#999898"/>
		<stop  offset="0.1963" style="stop-color:#4F4F4F"/>
		<stop  offset="0.2507" style="stop-color:#5B5B5B"/>
		<stop  offset="0.3499" style="stop-color:#7C7C7C"/>
		<stop  offset="0.3704" style="stop-color:#848484"/>
		<stop  offset="0.433" style="stop-color:#878787"/>
		<stop  offset="0.5268" style="stop-color:#A0A0A0"/>
		<stop  offset="0.6843" style="stop-color:#C6C6C6"/>
		<stop  offset="0.9078" style="stop-color:#B7B7B7"/>
		<stop  offset="1" style="stop-color:#C6C6C6"/>
	</linearGradient>
	<path style="fill:url(#SVGID_00000109014874630524390840000008910224063204758673_);" d="M194.8,68.1c-1.7,0-3.2,0-4.9,0V38.4
		c1.7,0,3.2,0,4.9,0.1c-0.4,1-1.2,3.9-1.2,7.5c0,3.9,1.2,7.1,1.2,7.4c0.3,0.6,0.5,1.4,0.8,2.8c0.5,2.1,0.5,3.4,0.5,3.6
		c0,0.1,0,0.8,0,1.6c0,0.1,0,0.8,0,1.2c-0.1,1-0.3,1.9-0.4,2.5C195.3,66.3,195,67.3,194.8,68.1z"/>
	
		<linearGradient id="SVGID_00000109738662939098598920000010839539464783288992_" gradientUnits="userSpaceOnUse" x1="-2214.6968" y1="257.0121" x2="-2212.0691" y2="257.0121" gradientTransform="matrix(-1 0 0 -1 -2021.2839 310.2472)">
		<stop  offset="0" style="stop-color:#1A1A1A"/>
		<stop  offset="0" style="stop-color:#000000;stop-opacity:0"/>
		<stop  offset="0.3429" style="stop-color:#0A0A0A;stop-opacity:0.3341"/>
		<stop  offset="0.9264" style="stop-color:#252525;stop-opacity:0.9026"/>
		<stop  offset="1" style="stop-color:#292929;stop-opacity:0.9744"/>
	</linearGradient>
	
		<polygon style="opacity:0.28;fill:url(#SVGID_00000109738662939098598920000010839539464783288992_);enable-background:new    ;" points="
		190.8,38.4 193.5,38.4 193.5,68.1 190.8,68.1 	"/>
	
		<linearGradient id="SVGID_00000003799328943756129930000012510426720723979935_" gradientUnits="userSpaceOnUse" x1="-1817.8716" y1="1027.7065" x2="-1817.8716" y2="970.7635" gradientTransform="matrix(-1 0 0 1 -1647.2958 -946)">
		<stop  offset="2.230000e-02" style="stop-color:#1A1A1A"/>
		<stop  offset="0.9832" style="stop-color:#CCCCCC"/>
	</linearGradient>
	<polygon style="fill:url(#SVGID_00000003799328943756129930000012510426720723979935_);" points="150.3,81.7 190.9,81.7 
		190.9,24.8 150.3,24.8 	"/>
	
		<linearGradient id="SVGID_00000031921881550911918140000015331616343450748299_" gradientUnits="userSpaceOnUse" x1="-1817.9722" y1="1035.254" x2="-1817.9722" y2="1017.5748" gradientTransform="matrix(-1 0 0 1 -1647.2958 -946)">
		<stop  offset="0" style="stop-color:#727272"/>
		<stop  offset="1" style="stop-color:#4C4C4C"/>
	</linearGradient>
	<path style="fill:url(#SVGID_00000031921881550911918140000015331616343450748299_);" d="M151.7,71.6h38c0,0,3,7.6,0,17.6h-38
		C151.7,89.2,148.6,80.2,151.7,71.6z"/>
	<path class="st19" d="M151.7,34.9h38c0,0,3,15.7,0,36.8h-38C151.7,71.6,148.6,52.7,151.7,34.9z"/>
	
		<linearGradient id="SVGID_00000096055408624342703090000006966453155291615905_" gradientUnits="userSpaceOnUse" x1="-1817.9722" y1="980.9044" x2="-1817.9722" y2="963.225" gradientTransform="matrix(-1 0 0 1 -1647.2958 -946)">
		<stop  offset="0" style="stop-color:#F4F4F4"/>
		<stop  offset="1" style="stop-color:#BABABA"/>
	</linearGradient>
	<path style="fill:url(#SVGID_00000096055408624342703090000006966453155291615905_);" d="M151.7,17.3h38c0,0,3,7.6,0,17.6h-38
		C151.7,34.9,148.6,25.8,151.7,17.3z"/>
	
		<linearGradient id="SVGID_00000160891403408844748840000011891988783816138941_" gradientUnits="userSpaceOnUse" x1="141.0042" y1="1019.8122" x2="141.0042" y2="977.6371" gradientTransform="matrix(1 0 0 1 0 -946)">
		<stop  offset="0" style="stop-color:#999898"/>
		<stop  offset="0.1963" style="stop-color:#4F4F4F"/>
		<stop  offset="0.2507" style="stop-color:#5B5B5B"/>
		<stop  offset="0.3499" style="stop-color:#7C7C7C"/>
		<stop  offset="0.3704" style="stop-color:#848484"/>
		<stop  offset="0.433" style="stop-color:#878787"/>
		<stop  offset="0.5974" style="stop-color:#D9D9D9"/>
		<stop  offset="0.6843" style="stop-color:#FFFFFF"/>
		<stop  offset="0.9078" style="stop-color:#B7B7B7"/>
		<stop  offset="1" style="stop-color:#C6C6C6"/>
	</linearGradient>
	<path style="fill:url(#SVGID_00000160891403408844748840000011891988783816138941_);" d="M148.4,73.8c0,0-7.2-1.3-14.9,0V31.5
		c0,0,6.1,1.4,14.9,0V73.8z"/>
	
		<linearGradient id="SVGID_00000049194745506801778470000015729219754373955757_" gradientUnits="userSpaceOnUse" x1="73.5061" y1="1021.624" x2="73.5061" y2="975.8108" gradientTransform="matrix(1 0 0 1 75.9101 -946)">
		<stop  offset="0" style="stop-color:#636363"/>
		<stop  offset="0.1983" style="stop-color:#444444"/>
		<stop  offset="0.2933" style="stop-color:#383838"/>
		<stop  offset="0.433" style="stop-color:#565656"/>
		<stop  offset="0.6732" style="stop-color:#E5E5E5"/>
		<stop  offset="0.9078" style="stop-color:#7F7E7E"/>
		<stop  offset="1" style="stop-color:#939292"/>
	</linearGradient>
	<path style="fill:url(#SVGID_00000049194745506801778470000015729219754373955757_);" d="M148.6,75.6c0.5-0.6,1.2-1.2,1.7-1.8
		c0-14.1,0-28.3,0-42.4c-0.5-0.5-1.2-1-1.7-1.6V75.6z"/>
	
		<linearGradient id="SVGID_00000147215149124177771210000009084995790828205449_" gradientUnits="userSpaceOnUse" x1="-1805.2816" y1="1021.624" x2="-1805.2816" y2="975.8108" gradientTransform="matrix(-1 0 0 1 -1657.4832 -946)">
		<stop  offset="0" style="stop-color:#7F7F7F"/>
		<stop  offset="0.1983" style="stop-color:#606060"/>
		<stop  offset="0.2933" style="stop-color:#545454"/>
		<stop  offset="0.433" style="stop-color:#757575"/>
		<stop  offset="0.6732" style="stop-color:#FFFFFF"/>
		<stop  offset="0.9078" style="stop-color:#9B9B9B"/>
		<stop  offset="1" style="stop-color:#B2B2B2"/>
	</linearGradient>
	<path style="fill:url(#SVGID_00000147215149124177771210000009084995790828205449_);" d="M148.6,75.6c-0.5-0.6-1-1.3-1.6-1.9
		c0-14,0-28,0.1-41.9c0.5-0.6,0.9-1.3,1.4-1.9V75.6z"/>
	
		<linearGradient id="SVGID_00000166675353664391823360000003137011124633210518_" gradientUnits="userSpaceOnUse" x1="-84.4721" y1="257.5945" x2="-78.4362" y2="257.5945" gradientTransform="matrix(1 0 0 -1 225.5993 310.2472)">
		<stop  offset="0" style="stop-color:#1A1A1A"/>
		<stop  offset="0" style="stop-color:#000000;stop-opacity:0"/>
		<stop  offset="0.3429" style="stop-color:#0A0A0A;stop-opacity:0.3341"/>
		<stop  offset="0.9264" style="stop-color:#252525;stop-opacity:0.9026"/>
		<stop  offset="1" style="stop-color:#292929;stop-opacity:0.9744"/>
	</linearGradient>
	<path style="opacity:0.28;fill:url(#SVGID_00000166675353664391823360000003137011124633210518_);enable-background:new    ;" d="
		M147.2,31.8c-0.9,0.1-1.9,0.3-3,0.4c-1,0.1-2.1,0.1-3.1,0.1c0,13.6,0,27.3,0,40.9c0.9,0,1.9,0,3,0.1c1,0.1,2.1,0.1,3,0.3
		C147.2,59.6,147.2,45.7,147.2,31.8z"/>
</g>
<g>
	<g>
		
			<linearGradient id="SVGID_00000137817270526965372860000013976198392027747211_" gradientUnits="userSpaceOnUse" x1="-1502.1658" y1="1.74" x2="-1502.1658" y2="-55.2029" gradientTransform="matrix(0 -1 -1 0 74.2803 -1378.6578)">
			<stop  offset="2.230000e-02" style="stop-color:#1A1A1A"/>
			<stop  offset="0.9832" style="stop-color:#CCCCCC"/>
		</linearGradient>
		<polygon style="fill:url(#SVGID_00000137817270526965372860000013976198392027747211_);" points="72.5,103.2 72.5,143.8 
			129.4,143.8 129.4,103.2 		"/>
		
			<linearGradient id="SVGID_00000025433574283392052590000001949189218153655465_" gradientUnits="userSpaceOnUse" x1="-1502.2377" y1="9.3776" x2="-1502.2377" y2="-8.3016" gradientTransform="matrix(0 -1 -1 0 74.2803 -1378.6578)">
			<stop  offset="0" style="stop-color:#727272"/>
			<stop  offset="1" style="stop-color:#4C4C4C"/>
		</linearGradient>
		<path style="fill:url(#SVGID_00000025433574283392052590000001949189218153655465_);" d="M82.6,104.6v38c0,0-7.6,3-17.6,0v-38
			C65,104.6,73.9,101.4,82.6,104.6z"/>
		<path class="st19" d="M119.3,104.6v38c0,0-15.7,3-36.8,0v-38C82.6,104.6,101.3,101.5,119.3,104.6z"/>
		
			<linearGradient id="SVGID_00000018223313642344604570000011831100976842354343_" gradientUnits="userSpaceOnUse" x1="-1502.2664" y1="-44.9644" x2="-1502.2664" y2="-62.6437" gradientTransform="matrix(0 -1 -1 0 74.2803 -1378.6578)">
			<stop  offset="0" style="stop-color:#F4F4F4"/>
			<stop  offset="1" style="stop-color:#BABABA"/>
		</linearGradient>
		<path style="fill:url(#SVGID_00000018223313642344604570000011831100976842354343_);" d="M136.9,104.6v38c0,0-7.6,3-17.6,0v-38
			C119.3,104.6,128.3,101.5,136.9,104.6z"/>
	</g>
</g>
<g>
	<g>
		
			<linearGradient id="SVGID_00000116939409645354216290000011332175918642060215_" gradientUnits="userSpaceOnUse" x1="-102.0388" y1="1014.2074" x2="-103.1315" y2="984.302" gradientTransform="matrix(1 0 0 1 109.9476 -946)">
			<stop  offset="0" style="stop-color:#999898"/>
			<stop  offset="0.1963" style="stop-color:#4F4F4F"/>
			<stop  offset="0.2507" style="stop-color:#5B5B5B"/>
			<stop  offset="0.3499" style="stop-color:#7C7C7C"/>
			<stop  offset="0.3704" style="stop-color:#848484"/>
			<stop  offset="0.433" style="stop-color:#878787"/>
			<stop  offset="0.5268" style="stop-color:#A0A0A0"/>
			<stop  offset="0.6843" style="stop-color:#C6C6C6"/>
			<stop  offset="0.9078" style="stop-color:#B7B7B7"/>
			<stop  offset="1" style="stop-color:#C6C6C6"/>
		</linearGradient>
		<path style="fill:url(#SVGID_00000116939409645354216290000011332175918642060215_);" d="M5.4,68.1c1.7,0,3.2,0,4.9,0V38.2
			c-1.7,0.1-3.2,0.1-4.9,0.1c0.4,1,1.2,3.9,1.2,7.5c0,3.9-1.2,7.1-1.2,7.4c-0.3,0.6-0.5,1.4-0.8,2.8c-0.5,1.9-0.5,3.2-0.5,3.5
			c0,0.1,0,0.8,0,1.6c0,0.1,0,0.8,0,1.2c0.1,1,0.3,1.9,0.4,2.5C4.8,66.3,5.2,67.3,5.4,68.1z"/>
		
			<linearGradient id="SVGID_00000054251692939950770580000000843131105268874390_" gradientUnits="userSpaceOnUse" x1="-433.3069" y1="256.9474" x2="-430.6793" y2="256.9474" gradientTransform="matrix(1 0 0 -1 440.0504 310.2472)">
			<stop  offset="0" style="stop-color:#020202;stop-opacity:6.003360e-02"/>
			<stop  offset="0.1458" style="stop-color:#000000;stop-opacity:0"/>
			<stop  offset="0.3429" style="stop-color:#0A0A0A;stop-opacity:0.3341"/>
			<stop  offset="0.9264" style="stop-color:#252525;stop-opacity:0.9026"/>
			<stop  offset="1" style="stop-color:#292929;stop-opacity:0.9744"/>
		</linearGradient>
		<path style="opacity:0.28;fill:url(#SVGID_00000054251692939950770580000000843131105268874390_);enable-background:new    ;" d="
			M6.7,38.4c0.9,0,1.8,0,2.6,0v29.9H6.7C6.7,58.2,6.7,48.3,6.7,38.4z"/>
	</g>
	<g>
		
			<linearGradient id="SVGID_00000161621657385087211180000010804273258152412058_" gradientUnits="userSpaceOnUse" x1="-1676.42" y1="1027.7065" x2="-1676.42" y2="970.7635" gradientTransform="matrix(-1 0 0 1 -1647.2958 -946)">
			<stop  offset="2.230000e-02" style="stop-color:#1A1A1A"/>
			<stop  offset="0.9832" style="stop-color:#CCCCCC"/>
		</linearGradient>
		<polygon style="fill:url(#SVGID_00000161621657385087211180000010804273258152412058_);" points="8.8,81.7 49.4,81.7 49.4,24.8 
			8.8,24.8 		"/>
		
			<linearGradient id="SVGID_00000157990407317360024050000009299338622875142283_" gradientUnits="userSpaceOnUse" x1="-1676.4561" y1="1035.254" x2="-1676.4561" y2="1017.5748" gradientTransform="matrix(-1 0 0 1 -1647.2958 -946)">
			<stop  offset="0" style="stop-color:#727272"/>
			<stop  offset="1" style="stop-color:#4C4C4C"/>
		</linearGradient>
		<path style="fill:url(#SVGID_00000157990407317360024050000009299338622875142283_);" d="M10.2,71.6h37.9c0,0,3,7.6,0,17.6H10.2
			C10.2,89.2,7.1,80.2,10.2,71.6z"/>
		<path class="st19" d="M10.2,34.9h37.9c0,0,3,15.7,0,36.8H10.2C10.2,71.6,7.1,52.7,10.2,34.9z"/>
		
			<linearGradient id="SVGID_00000115484820630121016760000009079969155893251721_" gradientUnits="userSpaceOnUse" x1="-1676.4561" y1="980.9044" x2="-1676.4561" y2="963.2251" gradientTransform="matrix(-1 0 0 1 -1647.2958 -946)">
			<stop  offset="0" style="stop-color:#F4F4F4"/>
			<stop  offset="1" style="stop-color:#BABABA"/>
		</linearGradient>
		<path style="fill:url(#SVGID_00000115484820630121016760000009079969155893251721_);" d="M10.2,17.3h37.9c0,0,3,7.6,0,17.6H10.2
			C10.2,34.9,7.1,25.8,10.2,17.3z"/>
	</g>
	
		<linearGradient id="SVGID_00000025440203813695684880000007603209835090643846_" gradientUnits="userSpaceOnUse" x1="59.4723" y1="1019.8122" x2="59.4723" y2="977.6371" gradientTransform="matrix(1 0 0 1 0 -946)">
		<stop  offset="0" style="stop-color:#999898"/>
		<stop  offset="0.1963" style="stop-color:#4F4F4F"/>
		<stop  offset="0.2507" style="stop-color:#5B5B5B"/>
		<stop  offset="0.3499" style="stop-color:#7C7C7C"/>
		<stop  offset="0.3704" style="stop-color:#848484"/>
		<stop  offset="0.433" style="stop-color:#878787"/>
		<stop  offset="0.5974" style="stop-color:#D9D9D9"/>
		<stop  offset="0.6843" style="stop-color:#FFFFFF"/>
		<stop  offset="0.9078" style="stop-color:#B7B7B7"/>
		<stop  offset="1" style="stop-color:#C6C6C6"/>
	</linearGradient>
	<path style="fill:url(#SVGID_00000025440203813695684880000007603209835090643846_);" d="M66.9,73.8c0,0-7.2-1.3-14.9,0V31.5
		c0,0,6.1,1.4,14.9,0V73.8z"/>
	
		<linearGradient id="SVGID_00000183963303082624497010000000786272699502904234_" gradientUnits="userSpaceOnUse" x1="-1707.3004" y1="1021.624" x2="-1707.3004" y2="975.8108" gradientTransform="matrix(-1 0 0 1 -1657.1461 -946)">
		<stop  offset="0" style="stop-color:#636363"/>
		<stop  offset="0.1983" style="stop-color:#444444"/>
		<stop  offset="0.2933" style="stop-color:#383838"/>
		<stop  offset="0.433" style="stop-color:#565656"/>
		<stop  offset="0.6732" style="stop-color:#E5E5E5"/>
		<stop  offset="0.9078" style="stop-color:#7F7E7E"/>
		<stop  offset="1" style="stop-color:#939292"/>
	</linearGradient>
	<path style="fill:url(#SVGID_00000183963303082624497010000000786272699502904234_);" d="M51,75.6c-0.5-0.6-1.2-1.2-1.7-1.8
		c0-14.1,0-28.3,0-42.4c0.5-0.5,1.2-1,1.7-1.6V75.6z"/>
	
		<linearGradient id="SVGID_00000083089844631095518150000016320989765281192088_" gradientUnits="userSpaceOnUse" x1="-24.4752" y1="1021.624" x2="-24.4752" y2="975.8108" gradientTransform="matrix(1 0 0 1 76.2472 -946)">
		<stop  offset="0" style="stop-color:#7F7F7F"/>
		<stop  offset="0.1983" style="stop-color:#606060"/>
		<stop  offset="0.2933" style="stop-color:#545454"/>
		<stop  offset="0.433" style="stop-color:#757575"/>
		<stop  offset="0.6732" style="stop-color:#FFFFFF"/>
		<stop  offset="0.9078" style="stop-color:#9B9B9B"/>
		<stop  offset="1" style="stop-color:#B2B2B2"/>
	</linearGradient>
	<path style="fill:url(#SVGID_00000083089844631095518150000016320989765281192088_);" d="M51,75.6c0.5-0.6,1-1.3,1.6-1.9
		c0-14,0-28-0.1-41.9c-0.5-0.6-0.9-1.3-1.4-1.9L51,75.6z"/>
	
		<linearGradient id="SVGID_00000168795988217899332540000012042267835983198395_" gradientUnits="userSpaceOnUse" x1="-164.647" y1="257.6592" x2="-158.6777" y2="257.6592" gradientTransform="matrix(1 0 0 -1 225.5993 310.2472)">
		<stop  offset="0" style="stop-color:#1A1A1A"/>
		<stop  offset="0" style="stop-color:#000000;stop-opacity:0"/>
		<stop  offset="0.3429" style="stop-color:#0A0A0A;stop-opacity:0.3341"/>
		<stop  offset="0.9264" style="stop-color:#252525;stop-opacity:0.9026"/>
		<stop  offset="1" style="stop-color:#292929;stop-opacity:0.9744"/>
	</linearGradient>
	<path style="opacity:0.28;fill:url(#SVGID_00000168795988217899332540000012042267835983198395_);enable-background:new    ;" d="
		M66.9,31.5c-1,0.1-2.1,0.4-3.4,0.5c-0.9,0.1-1.8,0.1-2.7,0.1c0,13.6,0,27.3,0,41c0.9,0,1.8,0.1,2.8,0.1c1.2,0.1,2.2,0.3,3.1,0.4
		C66.9,59.7,66.9,45.6,66.9,31.5z"/>
	
		<linearGradient id="SVGID_00000103968651412695835660000007304821547145777829_" gradientUnits="userSpaceOnUse" x1="-1822.8396" y1="257.6592" x2="-1816.8037" y2="257.6592" gradientTransform="matrix(-1 0 0 -1 -1764.296 310.2472)">
		<stop  offset="0" style="stop-color:#1A1A1A"/>
		<stop  offset="0" style="stop-color:#000000;stop-opacity:0"/>
		<stop  offset="0.3429" style="stop-color:#0A0A0A;stop-opacity:0.3341"/>
		<stop  offset="0.9264" style="stop-color:#252525;stop-opacity:0.9026"/>
		<stop  offset="1" style="stop-color:#292929;stop-opacity:0.9744"/>
	</linearGradient>
	<path style="opacity:0.28;fill:url(#SVGID_00000103968651412695835660000007304821547145777829_);enable-background:new    ;" d="
		M52.4,31.6c0.9,0.1,1.9,0.3,3.1,0.4c1,0.1,2.1,0.1,3,0.1c0,13.6,0,27.3,0,40.9c-1,0-2.1,0-3.2,0.1c-1,0.1-1.9,0.3-2.7,0.4
		C52.5,59.6,52.5,45.7,52.4,31.6z"/>
</g>
<g>
	
		<linearGradient id="SVGID_00000041262944736832767420000011779206498685389757_" gradientUnits="userSpaceOnUse" x1="61.2194" y1="-794.0179" x2="141.4572" y2="-794.0179" gradientTransform="matrix(1 0 0 -1 0 -727.0001)">
		<stop  offset="0" style="stop-color:#919396"/>
		<stop  offset="0.3883" style="stop-color:#D1D3D4"/>
		<stop  offset="0.6788" style="stop-color:#BCBEC0"/>
		<stop  offset="1" style="stop-color:#919396"/>
	</linearGradient>
	<path style="fill:url(#SVGID_00000041262944736832767420000011779206498685389757_);" d="M85.4,94.1c0,0,0.1-13.8,0.1-20.8
		c-0.1-0.6-0.5-1.8-1.4-3c-1.4-1.7-3.1-2.1-3.8-2.2c-6.3,0-12.8,0-19.2,0V39.9h80.2c0,9.4,0,18.6,0,28c-6.3,0-12.8,0-19,0
		c-0.9,0.3-2.6,0.8-3.8,2.2c-1,1.2-1.4,3-1.4,3c0,7,0,21.1,0,21.1H85.4z"/>
	
		<linearGradient id="SVGID_00000015355835017727132870000006103347342945475976_" gradientUnits="userSpaceOnUse" x1="52.9553" y1="238.6673" x2="163.8544" y2="294.8478" gradientTransform="matrix(1 0 0 -1 0 324)">
		<stop  offset="0" style="stop-color:#58595B;stop-opacity:0"/>
		<stop  offset="2.469746e-02" style="stop-color:#656668;stop-opacity:2.514163e-02"/>
		<stop  offset="0.1228" style="stop-color:#949496;stop-opacity:0.125"/>
		<stop  offset="0.221" style="stop-color:#BABBBB;stop-opacity:0.225"/>
		<stop  offset="0.3176" style="stop-color:#D8D9D9;stop-opacity:0.3233"/>
		<stop  offset="0.4122" style="stop-color:#EEEEEE;stop-opacity:0.4196"/>
		<stop  offset="0.5039" style="stop-color:#FBFBFB;stop-opacity:0.513"/>
		<stop  offset="0.5894" style="stop-color:#FFFFFF;stop-opacity:0.6"/>
		<stop  offset="1" style="stop-color:#58595B;stop-opacity:0"/>
	</linearGradient>
	<path style="fill:url(#SVGID_00000015355835017727132870000006103347342945475976_);" d="M85.4,94.1c0,0,0.1-13.8,0.1-20.8
		c-0.1-0.6-0.5-1.8-1.4-3c-1.4-1.7-3.1-2.1-3.8-2.2c-6.3,0-12.8,0-19.2,0V39.9h80.2c0,9.4,0,18.6,0,28c-6.3,0-12.8,0-19,0
		c-0.9,0.3-2.6,0.8-3.8,2.2c-1,1.2-1.4,3-1.4,3c-0.1,7-0.3,21.1-0.3,21.1H85.4z"/>
	
		<linearGradient id="SVGID_00000137821893229439330470000007097555907184335787_" gradientUnits="userSpaceOnUse" x1="58.132" y1="-784.6574" x2="86.1799" y2="-815.0823" gradientTransform="matrix(1 0 0 -1 0 -727.0001)">
		<stop  offset="0.1201" style="stop-color:#686566"/>
		<stop  offset="0.1983" style="stop-color:#6E7072"/>
		<stop  offset="0.433" style="stop-color:#919396"/>
		<stop  offset="0.6732" style="stop-color:#E6E7E8"/>
		<stop  offset="0.8966" style="stop-color:#9F9D9D"/>
		<stop  offset="1" style="stop-color:#919396"/>
	</linearGradient>
	<path style="fill:url(#SVGID_00000137821893229439330470000007097555907184335787_);" d="M61.1,76.3h13.6c0.4,0.1,1.6,0.4,2.3,1.4
		c0.6,0.6,0.8,1.6,0.9,1.9c0,4.9,0,9.7,0,14.5h7.5V73.3c-0.1-0.6-0.5-1.8-1.4-3c-1.4-1.7-3.1-2.1-3.8-2.2c-6.3,0-12.8,0-19.2,0V76.3
		z"/>
	
		<linearGradient id="SVGID_00000149375866058640095530000000568112868289795470_" gradientUnits="userSpaceOnUse" x1="81.7434" y1="-824.7762" x2="72.8299" y2="-800.5317" gradientTransform="matrix(1 0 0 -1 0 -727.0001)">
		<stop  offset="0" style="stop-color:#333333;stop-opacity:0.8"/>
		<stop  offset="1" style="stop-color:#FFFFFF;stop-opacity:0"/>
	</linearGradient>
	<path style="fill:url(#SVGID_00000149375866058640095530000000568112868289795470_);" d="M61.1,76.3h13.6c0.4,0.1,1.6,0.4,2.3,1.4
		c0.6,0.6,0.8,1.6,0.9,1.9c0,4.9,0,9.7,0,14.5h7.5V73.3c-0.1-0.6-0.5-1.8-1.4-3c-1.4-1.7-3.1-2.1-3.8-2.2c-6.3,0-12.8,0-19.2,0V76.3
		z"/>
	
		<linearGradient id="SVGID_00000145056922408595659370000014176420654268692397_" gradientUnits="userSpaceOnUse" x1="102.4309" y1="-821.8749" x2="137.7284" y2="-797.9866" gradientTransform="matrix(1 0 0 -1 0 -727.0001)">
		<stop  offset="0.1201" style="stop-color:#686566"/>
		<stop  offset="0.1983" style="stop-color:#6E7072"/>
		<stop  offset="0.433" style="stop-color:#919396"/>
		<stop  offset="0.6732" style="stop-color:#E6E7E8"/>
		<stop  offset="0.8966" style="stop-color:#9F9D9D"/>
		<stop  offset="1" style="stop-color:#919396"/>
	</linearGradient>
	<path style="fill:url(#SVGID_00000145056922408595659370000014176420654268692397_);" d="M141.5,76.3h-13.8
		c-0.4,0.1-1.6,0.4-2.3,1.4c-0.6,0.6-0.9,1.6-0.9,1.9c0,4.9,0,9.7,0,14.5h-7.5V73.3c0,0,0.5-1.8,1.4-3c1.4-1.7,3.2-2.1,3.9-2.2
		c6.5,0,12.8,0,19.2,0v8.2H141.5z"/>
	
		<linearGradient id="SVGID_00000136389837120808838820000001932950581523348124_" gradientUnits="userSpaceOnUse" x1="61.09" y1="-762.5699" x2="141.3278" y2="-762.5699" gradientTransform="matrix(1 0 0 -1 0 -727.0001)">
		<stop  offset="0" style="stop-color:#919396"/>
		<stop  offset="0.3883" style="stop-color:#D1D3D4"/>
		<stop  offset="0.6788" style="stop-color:#BCBEC0"/>
		<stop  offset="1" style="stop-color:#919396"/>
	</linearGradient>
	
		<rect x="61.1" y="31.1" style="fill:url(#SVGID_00000136389837120808838820000001932950581523348124_);" width="80.2" height="8.9"/>
	
		<linearGradient id="SVGID_00000003094075988563486380000013110267979343246750_" gradientUnits="userSpaceOnUse" x1="61.09" y1="-762.8287" x2="141.3278" y2="-762.8287" gradientTransform="matrix(1 0 0 -1 0 -727.0001)">
		<stop  offset="0" style="stop-color:#58595B;stop-opacity:0"/>
		<stop  offset="0.4749" style="stop-color:#FFFFFF"/>
		<stop  offset="0.5701" style="stop-color:#FCFCFC;stop-opacity:0.8187"/>
		<stop  offset="0.6515" style="stop-color:#F1F1F1;stop-opacity:0.6636"/>
		<stop  offset="0.728" style="stop-color:#DFE0E0;stop-opacity:0.518"/>
		<stop  offset="0.8014" style="stop-color:#C7C7C8;stop-opacity:0.3783"/>
		<stop  offset="0.8726" style="stop-color:#A6A7A8;stop-opacity:0.2426"/>
		<stop  offset="0.9412" style="stop-color:#808082;stop-opacity:0.112"/>
		<stop  offset="1" style="stop-color:#58595B;stop-opacity:0"/>
	</linearGradient>
	
		<rect x="61.1" y="31.4" style="fill:url(#SVGID_00000003094075988563486380000013110267979343246750_);" width="80.2" height="8.9"/>
	
		<linearGradient id="SVGID_00000038399774111934082570000011882521356408805531_" gradientUnits="userSpaceOnUse" x1="100.8435" y1="-718.4865" x2="101.5566" y2="-804.5317" gradientTransform="matrix(1 0 0 -1 0 -727.0001)">
		<stop  offset="0.4342" style="stop-color:#58595B;stop-opacity:0"/>
		<stop  offset="0.6053" style="stop-color:#FFFFFF;stop-opacity:0.8"/>
	</linearGradient>
	
		<rect x="61.1" y="31.1" style="fill:url(#SVGID_00000038399774111934082570000011882521356408805531_);" width="80.2" height="8.9"/>
	
		<linearGradient id="SVGID_00000056417468612608632750000013585654053172459648_" gradientUnits="userSpaceOnUse" x1="61.09" y1="-766.9053" x2="141.4572" y2="-766.9053" gradientTransform="matrix(1 0 0 -1 0 -727.0001)">
		<stop  offset="2.513967e-02" style="stop-color:#666666"/>
		<stop  offset="0.3212" style="stop-color:#9F9D9D"/>
		<stop  offset="0.6732" style="stop-color:#FFFFFF"/>
		<stop  offset="0.7793" style="stop-color:#E4E3E3"/>
		<stop  offset="1" style="stop-color:#919396"/>
	</linearGradient>
	
		<line style="fill:none;stroke:url(#SVGID_00000056417468612608632750000013585654053172459648_);stroke-miterlimit:10;" x1="61.1" y1="39.9" x2="141.5" y2="39.9"/>
	
		<linearGradient id="SVGID_00000081616980824179674830000007364999637501145474_" gradientUnits="userSpaceOnUse" x1="115.5187" y1="-820.5654" x2="133.2947" y2="-789.7761" gradientTransform="matrix(1 0 0 -1 0 -727.0001)">
		<stop  offset="2.513967e-02" style="stop-color:#666666"/>
		<stop  offset="0.3212" style="stop-color:#9F9D9D"/>
		<stop  offset="0.5168" style="stop-color:#FFFFFF"/>
		<stop  offset="0.7793" style="stop-color:#E4E3E3"/>
		<stop  offset="1" style="stop-color:#919396"/>
	</linearGradient>
	<path style="fill:none;stroke:url(#SVGID_00000081616980824179674830000007364999637501145474_);stroke-miterlimit:10;" d="
		M141.5,68h-19.3c-0.4,0-2.2,0.3-3.6,1.7c-1,1-1.6,3.5-1.6,3.5v21"/>
	
		<linearGradient id="SVGID_00000011736368062657105800000008257302197825849996_" gradientUnits="userSpaceOnUse" x1="87.0129" y1="-820.5744" x2="69.2375" y2="-789.7863" gradientTransform="matrix(1 0 0 -1 0 -727.0001)">
		<stop  offset="2.513967e-02" style="stop-color:#666666"/>
		<stop  offset="0.3212" style="stop-color:#9F9D9D"/>
		<stop  offset="0.5168" style="stop-color:#FFFFFF"/>
		<stop  offset="0.7793" style="stop-color:#E4E3E3"/>
		<stop  offset="1" style="stop-color:#919396"/>
	</linearGradient>
	<path style="fill:none;stroke:url(#SVGID_00000011736368062657105800000008257302197825849996_);stroke-miterlimit:10;" d="
		M85.5,94.1c0-7,0-13.8,0-20.8c-0.1-0.6-0.5-1.8-1.4-3c-1.3-1.7-3.4-1.9-4.9-2.2c-6.2-0.9-16.6-0.1-17.9,0"/>
</g>
<g>
	<path class="st3" d="M47.9,238.1c-0.5-1-1.2-2.1-1.7-3.1c-0.6,1-1.2,2.2-1.8,3.2c-0.5-1-1.2-2.2-1.7-3.2c-0.6,1-1.2,2.1-1.8,3.1
		c-0.5-1-1-2.1-1.6-3.1c-0.6,1-1.3,2.1-2.1,3.1c-0.5-1.2-0.9-2.3-1.4-3.4c-0.6,1.4-1.3,2.7-1.9,4.1c-0.6-1.2-1.8-3.4-1.8-3.4
		c-0.5,0.9-1,1.8-1.6,2.7c-0.8-1-1.7-2.2-2.5-3.2c0,0,0,0-0.3,0c-0.5,0-1,0-1.6,0c-0.8,0-1.6,0-2.3,0c-0.3,0-0.5,0-0.8,0
		c0,0,0-1.2,0-1.6c0-0.5,0-0.9,0-1.4c-1.6-1.3-4.7-4-4.7-4h-0.1v-29.2c0.3-0.1,3.2-2.7,4.8-4c0-0.4,0-0.9,0-1.4c0-0.4,0-1.6,0-1.6
		c0.3,0,0.5,0,0.8,0c0.8,0,1.6,0,2.3,0c0.5,0,1,0,1.6,0c0.3,0,0.3,0,0.3,0s1.6-1.9,2.2-2.7c0.5,0.9,1.2,1.9,1.7,2.8l1.8-3.4l1.6,3.5
		c0,0,1.2-2.3,1.7-3.4l2.1,3.1l1.7-3.1l1.8,3.2l1.7-3.2c0.6,1,1.8,3.1,1.8,3.1l1.8-3.1c0.6,1,1.8,3,1.8,3v-1v-7.4l-1.2-6.1h-38
		c-0.4,0.9-0.6,2.1-0.9,3.2c-0.3,1.3-0.4,2.6-0.4,3.6c0,4.7,0,9.4,0,14.1V228c0,0-0.1,14.4,0.1,16.8c0.3,1.7,0.6,3.1,1.2,4.3
		c12.6,0,25.2,0,37.8,0c0.4-1.2,0.6-2.5,0.9-4c0.3-1.3,0.3-2.5,0.4-3.6c0-2.1,0-4,0.1-6.1c0-0.6-0.1-1.3-0.1-1.9
		C48.9,235.1,48.4,236.6,47.9,238.1z"/>
	<path class="st49" d="M24.6,231.5c-0.8-0.9-2.3-2.7-4.8-3.4c-0.5-0.1-1-0.3-1.4-0.3c1.6,1.3,3.2,2.7,4.8,4c0,0.4,0,0.9,0,1.4
		c0,0.4,0,1.6,0,1.6c0.3,0,0.5,0,0.8,0c0.8,0,1.6,0,2.3,0c0.5,0,1,0,1.6,0c0.3,0,0.3,0,0.3,0c0.3,0.4,0.5,0.6,0.9,1
		c0.5,0.6,0.9,1.3,1.4,1.8c0.3-0.5,0.5-1,0.8-1.6c0.3-0.5,0.5-0.9,0.8-1.3c0.6,1,1.2,2.2,1.8,3.2l1.6-3.4c-0.5-0.4-1-0.6-1.6-1
		c0-1.4,0-2.8,0-4.3c-0.4-0.1-0.9-0.1-1.3-0.3C29.9,229.9,27.3,230.7,24.6,231.5z"/>
	<polygon class="st0" points="42.3,229.5 48,228.2 42.5,228.2 	"/>
	<path class="st49" d="M24.6,195.2c-0.8,0.9-2.3,2.7-4.8,3.4c-0.5,0.1-1,0.3-1.4,0.3c1.6-1.3,3.2-2.7,4.8-4c0-0.4,0-0.9,0-1.4l0,0
		c0-0.4,0-1.6,0-1.6l0,0l0,0c0.3,0,0.5,0,0.8,0c0.8,0,1.6,0,2.3,0c0.5,0,1,0,1.6,0c0.3,0,0.3,0,0.3,0s1.6-1.9,2.2-2.7
		c0.5,0.9,1.2,1.9,1.7,2.8l1.8-3.4l1.6,3.4c-0.5,0.4-1,0.6-1.6,1c0,1.4,0,2.8,0,4.3c-0.4,0.1-0.9,0.1-1.3,0.3
		C29.9,196.8,27.3,196,24.6,195.2z"/>
	<polygon class="st0" points="42.3,197.2 48,198.5 42.5,198.5 	"/>
	<path class="st50" d="M49.7,192c-0.6-1.2-1.4-2.3-2.1-3.5l-1.7,3.1l-1.8-3.1l-1.7,3.1l-1.8-3.1l-1.6,3.1l-2.1-3.1
		c-0.5,1.2-0.9,2.3-1.4,3.5c-0.4,0-0.6,0-1,0"/>
	<path class="st0" d="M34.2,193.2c-0.3-0.4-0.4-0.6-0.6-1v-0.6c0.5-0.3,1-0.5,1.6-0.8c0.3,0.4,0.4,0.9,0.6,1.3
		C35.2,192.5,34.7,192.8,34.2,193.2z"/>
	<path class="st50" d="M49.6,233.5c-0.3,0.8-0.5,1.6-0.8,2.5c-0.3,0.8-0.5,1.4-0.8,2.1l-1.7-3.1l-1.8,3.1l-1.7-3.1l-1.8,3.1
		l-1.6-3.1l-2.1,3.1c-0.5-1.2-0.9-2.3-1.4-3.4c-0.1,0-0.3,0-0.3,0"/>
	<path class="st0" d="M33.8,238.8c0-1.3,0-2.6-0.1-3.9c0.1-0.5,0.3-0.9,0.4-1.4c0.4,0.3,0.9,0.6,1.3,0.9c0.1,0.1,0.3,0.3,0.3,0.4
		C35.1,236.1,34.4,237.4,33.8,238.8z"/>
	<g>
		<g>
			<defs>
				<path id="SVGID_00000048485338309276680840000006371551679104496538_" d="M53.6,198.3v3.2c-15.8,0-31.4,0-47.2,0
					c-0.1-0.4-0.3-0.8-0.4-1.3c-0.3-0.8-0.5-1.4-0.8-2.1C21.2,198.3,37.4,198.3,53.6,198.3z"/>
			</defs>
			<clipPath id="SVGID_00000109011723093116449450000006347103890691170742_">
				<use xlink:href="#SVGID_00000048485338309276680840000006371551679104496538_"  style="overflow:visible;"/>
			</clipPath>
			<g transform="matrix(1 0 0 1 0 0)" style="clip-path:url(#SVGID_00000109011723093116449450000006347103890691170742_);">
				
					<image style="overflow:visible;enable-background:new    ;" width="600" height="600" xlink:href="../../background.jpg"  transform="matrix(-0.3665 0 0 0.3672 41.457 134.4314)">
				</image>
			</g>
		</g>
	</g>
	<g>
		<g>
			<defs>
				<path id="SVGID_00000007387488442752361550000013644936906831790494_" d="M53.6,198.3v3.2c-15.8,0-31.4,0-47.2,0
					c-0.1-0.4-0.3-0.8-0.4-1.3c-0.3-0.8-0.5-1.4-0.8-2.1C21.2,198.3,37.4,198.3,53.6,198.3z"/>
			</defs>
			<clipPath id="SVGID_00000032629164387583301170000013667212844219266720_">
				<use xlink:href="#SVGID_00000007387488442752361550000013644936906831790494_"  style="overflow:visible;"/>
			</clipPath>
			
				<g transform="matrix(1 -3.469447e-18 3.469447e-18 1 0 1.525879e-05)" style="clip-path:url(#SVGID_00000032629164387583301170000013667212844219266720_);">
				
					<image style="overflow:visible;enable-background:new    ;" width="600" height="600" xlink:href="../../background.jpg"  transform="matrix(1.890506e-11 -0.4258 0.4283 1.901636e-11 -22.849 316.2822)">
				</image>
			</g>
		</g>
	</g>
	<g class="st53">
		<path id="SVGID_392_" class="st54" d="M53.6,198.3v3.2c-15.8,0-31.4,0-47.2,0c-0.1-0.4-0.3-0.8-0.4-1.3c-0.3-0.8-0.5-1.4-0.8-2.1
			C21.2,198.3,37.4,198.3,53.6,198.3z"/>
	</g>
	<g>
		<g>
			<defs>
				<path id="SVGID_00000044153333255931946140000011718014517679009942_" d="M21.1,198.3c-0.1,0-0.5,0-0.8-0.3c0,0-0.1-0.1-0.1-0.3
					c-0.1-0.4,0.1-0.8,0.1-0.8s0.9-0.8,1.4-1.2c0.5-0.4,1.2-1,2.1-1.7c1.3,0,2.1,0,2.5,0c0,0,1.7,0,1.8,0h0.1h0.1l0,0l0,0l0,0l0,0
					l0,0l0,0l0,0c0,0,0,0,0,0.1v0.1c0,0.1,0,0.3,0,0.4c0,0.4,0,0.4,0,0.4l0,0c0,0.3,0.1,0.4,0.1,0.4c0.1,0.1,0.1,0.1,0.3,0.1
					c0.3,0.1,0.6,0.1,1,0.1c0.3,0,0.4,0,0.6,0c0,0,0.5,0,1.4,0c3.4,0,3.4,0,3.4,0s4.1,0.8,6.9,1.4l0,0l0,0c0,0.8,0,0.9,0,1.2l0,0
					l0,0c-0.5,0-0.9,0-1.4,0l0,0c0,0.5,0.1,1,0.1,1.6c-0.5-0.5-1.2-1-1.7-1.6l0,0l0,0l0,0c-0.3,0-0.6,0-0.9,0c0,0.5,0,1,0,1.6
					c-0.5-0.5-1.2-1-1.7-1.6l0,0c-1.3,0-2.1,0-2.6,0c-0.1,0-0.6,0-1.3,0c-0.3,0-0.6,0-0.9,0c-0.6,0-1.2,0-1.6,0c-0.5,0-1,0-1.7,0
					h-3.2C25.6,198.5,22.3,198.5,21.1,198.3z"/>
			</defs>
			<clipPath id="SVGID_00000175297519024549502870000017189428574564059293_">
				<use xlink:href="#SVGID_00000044153333255931946140000011718014517679009942_"  style="overflow:visible;"/>
			</clipPath>
		</g>
		<g>
			<defs>
				<path id="SVGID_00000134226272103160194570000009372032696378188682_" d="M21.1,198.3c-0.1,0-0.5,0-0.8-0.3c0,0-0.1-0.1-0.1-0.3
					c-0.1-0.4,0.1-0.8,0.1-0.8s0.9-0.8,1.4-1.2c0.5-0.4,1.2-1,2.1-1.7c1.3,0,2.1,0,2.5,0c0,0,1.7,0,1.8,0h0.1h0.1l0,0l0,0l0,0l0,0
					l0,0l0,0l0,0c0,0,0,0,0,0.1v0.1c0,0.1,0,0.3,0,0.4c0,0.4,0,0.4,0,0.4l0,0c0,0.3,0.1,0.4,0.1,0.4c0.1,0.1,0.1,0.1,0.3,0.1
					c0.3,0.1,0.6,0.1,1,0.1c0.3,0,0.4,0,0.6,0c0,0,0.5,0,1.4,0c3.4,0,3.4,0,3.4,0s4.1,0.8,6.9,1.4l0,0l0,0c0,0.8,0,0.9,0,1.2l0,0
					l0,0c-0.5,0-0.9,0-1.4,0l0,0c0,0.5,0.1,1,0.1,1.6c-0.5-0.5-1.2-1-1.7-1.6l0,0l0,0l0,0c-0.3,0-0.6,0-0.9,0c0,0.5,0,1,0,1.6
					c-0.5-0.5-1.2-1-1.7-1.6l0,0c-1.3,0-2.1,0-2.6,0c-0.1,0-0.6,0-1.3,0c-0.3,0-0.6,0-0.9,0c-0.6,0-1.2,0-1.6,0c-0.5,0-1,0-1.7,0
					h-3.2C25.6,198.5,22.3,198.5,21.1,198.3z"/>
			</defs>
			<defs>
				<path id="SVGID_00000158736720224010947080000011705736305746978236_" d="M21.1,198.3c-0.1,0-0.5,0-0.8-0.3c0,0-0.1-0.1-0.1-0.3
					c-0.1-0.4,0.1-0.8,0.1-0.8s0.9-0.8,1.4-1.2c0.5-0.4,1.2-1,2.1-1.7c1.3,0,2.1,0,2.5,0c0,0,1.7,0,1.8,0h0.1h0.1l0,0l0,0l0,0l0,0
					l0,0l0,0l0,0c0,0,0,0,0,0.1v0.1c0,0.1,0,0.3,0,0.4c0,0.4,0,0.4,0,0.4l0,0c0,0.3,0.1,0.4,0.1,0.4c0.1,0.1,0.1,0.1,0.3,0.1
					c0.3,0.1,0.6,0.1,1,0.1c0.3,0,0.4,0,0.6,0c0,0,0.5,0,1.4,0c3.4,0,3.4,0,3.4,0s4.1,0.8,6.9,1.4l0,0l0,0c0,0.8,0,0.9,0,1.2l0,0
					l0,0c-0.5,0-0.9,0-1.4,0l0,0c0,0.5,0.1,1,0.1,1.6c-0.5-0.5-1.2-1-1.7-1.6l0,0l0,0l0,0c-0.3,0-0.6,0-0.9,0c0,0.5,0,1,0,1.6
					c-0.5-0.5-1.2-1-1.7-1.6l0,0c-1.3,0-2.1,0-2.6,0c-0.1,0-0.6,0-1.3,0c-0.3,0-0.6,0-0.9,0c-0.6,0-1.2,0-1.6,0c-0.5,0-1,0-1.7,0
					h-3.2C25.6,198.5,22.3,198.5,21.1,198.3z"/>
			</defs>
			<clipPath id="SVGID_00000000204402537827308510000012281848975277648023_">
				<use xlink:href="#SVGID_00000134226272103160194570000009372032696378188682_"  style="overflow:visible;"/>
			</clipPath>
			
				<clipPath id="SVGID_00000000931025596488264920000007365039292273814415_" style="clip-path:url(#SVGID_00000000204402537827308510000012281848975277648023_);">
				<use xlink:href="#SVGID_00000158736720224010947080000011705736305746978236_"  style="overflow:visible;"/>
			</clipPath>
			
				<g transform="matrix(1 -3.469447e-18 3.469447e-18 1 0 0)" style="clip-path:url(#SVGID_00000000931025596488264920000007365039292273814415_);">
				
					<image style="overflow:visible;enable-background:new    ;" width="600" height="600" xlink:href="../../background.jpg"  transform="matrix(1.890506e-11 -0.4258 0.4283 1.901636e-11 -29.572 334.7501)">
				</image>
			</g>
		</g>
		<g>
			<path id="SVGID_391_" class="st11" d="M21.1,198.3c-0.1,0-0.5,0-0.8-0.3c0,0-0.1-0.1-0.1-0.3c-0.1-0.4,0.1-0.8,0.1-0.8
				s0.9-0.8,1.4-1.2c0.5-0.4,1.2-1,2.1-1.7c1.3,0,2.1,0,2.5,0c0,0,1.7,0,1.8,0h0.1h0.1l0,0l0,0l0,0l0,0l0,0l0,0l0,0c0,0,0,0,0,0.1
				v0.1c0,0.1,0,0.3,0,0.4c0,0.4,0,0.4,0,0.4l0,0c0,0.3,0.1,0.4,0.1,0.4c0.1,0.1,0.1,0.1,0.3,0.1c0.3,0.1,0.6,0.1,1,0.1
				c0.3,0,0.4,0,0.6,0c0,0,0.5,0,1.4,0c3.4,0,3.4,0,3.4,0s4.1,0.8,6.9,1.4l0,0l0,0c0,0.8,0,0.9,0,1.2l0,0l0,0c-0.5,0-0.9,0-1.4,0
				l0,0c0,0.5,0.1,1,0.1,1.6c-0.5-0.5-1.2-1-1.7-1.6l0,0l0,0l0,0c-0.3,0-0.6,0-0.9,0c0,0.5,0,1,0,1.6c-0.5-0.5-1.2-1-1.7-1.6l0,0
				c-1.3,0-2.1,0-2.6,0c-0.1,0-0.6,0-1.3,0c-0.3,0-0.6,0-0.9,0c-0.6,0-1.2,0-1.6,0c-0.5,0-1,0-1.7,0h-3.2
				C25.6,198.5,22.3,198.5,21.1,198.3z"/>
		</g>
		<g>
			<path id="SVGID_390_" class="st11" d="M21.1,198.3c-0.1,0-0.5,0-0.8-0.3c0,0-0.1-0.1-0.1-0.3c-0.1-0.4,0.1-0.8,0.1-0.8
				s0.9-0.8,1.4-1.2c0.5-0.4,1.2-1,2.1-1.7c1.3,0,2.1,0,2.5,0c0,0,1.7,0,1.8,0h0.1h0.1l0,0l0,0l0,0l0,0l0,0l0,0l0,0c0,0,0,0,0,0.1
				v0.1c0,0.1,0,0.3,0,0.4c0,0.4,0,0.4,0,0.4l0,0c0,0.3,0.1,0.4,0.1,0.4c0.1,0.1,0.1,0.1,0.3,0.1c0.3,0.1,0.6,0.1,1,0.1
				c0.3,0,0.4,0,0.6,0c0,0,0.5,0,1.4,0c3.4,0,3.4,0,3.4,0s4.1,0.8,6.9,1.4l0,0l0,0c0,0.8,0,0.9,0,1.2l0,0l0,0c-0.5,0-0.9,0-1.4,0
				l0,0c0,0.5,0.1,1,0.1,1.6c-0.5-0.5-1.2-1-1.7-1.6l0,0l0,0l0,0c-0.3,0-0.6,0-0.9,0c0,0.5,0,1,0,1.6c-0.5-0.5-1.2-1-1.7-1.6l0,0
				c-1.3,0-2.1,0-2.6,0c-0.1,0-0.6,0-1.3,0c-0.3,0-0.6,0-0.9,0c-0.6,0-1.2,0-1.6,0c-0.5,0-1,0-1.7,0h-3.2
				C25.6,198.5,22.3,198.5,21.1,198.3z"/>
		</g>
	</g>
	<g>
		<g>
			<defs>
				<path id="SVGID_00000121270406694113343690000015707980995741637022_" d="M53.6,228.2V225c-16.4,0-32.9,0-49.3,0
					c0.1,0.5,0.3,1.2,0.5,1.8c0.3,0.5,0.5,1,0.8,1.4C21.5,228.2,37.5,228.2,53.6,228.2z"/>
			</defs>
			<clipPath id="SVGID_00000075121367432800463960000014771049182419654794_">
				<use xlink:href="#SVGID_00000121270406694113343690000015707980995741637022_"  style="overflow:visible;"/>
			</clipPath>
			<g transform="matrix(1 0 0 1 0 0)" style="clip-path:url(#SVGID_00000075121367432800463960000014771049182419654794_);">
				
					<image style="overflow:visible;enable-background:new    ;" width="600" height="600" xlink:href="../../background.jpg"  transform="matrix(-0.3665 0 0 0.3672 40.1003 134.4314)">
				</image>
			</g>
		</g>
	</g>
	<g>
		<g>
			<defs>
				<path id="SVGID_00000082358811819435665720000016808570426778077580_" d="M53.6,228.2V225c-16.4,0-32.9,0-49.3,0
					c0.1,0.5,0.3,1.2,0.5,1.8c0.3,0.5,0.5,1,0.8,1.4C21.5,228.2,37.5,228.2,53.6,228.2z"/>
			</defs>
			<clipPath id="SVGID_00000027585077829867015650000000115963430534824628_">
				<use xlink:href="#SVGID_00000082358811819435665720000016808570426778077580_"  style="overflow:visible;"/>
			</clipPath>
			
				<g transform="matrix(1 -3.469447e-18 3.469447e-18 1 0 -1.525879e-05)" style="clip-path:url(#SVGID_00000027585077829867015650000000115963430534824628_);">
				
					<image style="overflow:visible;enable-background:new    ;" width="600" height="600" xlink:href="../../background.jpg"  transform="matrix(1.890506e-11 -0.4258 0.4283 1.901636e-11 -26.883 333.7319)">
				</image>
			</g>
		</g>
	</g>
	<path id="SVGID_387_" class="st59" d="M53.6,228.2V225c-16.4,0-32.9,0-49.3,0c0.1,0.5,0.3,1.2,0.5,1.8c0.3,0.5,0.5,1,0.8,1.4
		C21.5,228.2,37.5,228.2,53.6,228.2z"/>
	<g>
		<g>
			<defs>
				<path id="SVGID_00000041268249974491817480000002343376083236584597_" d="M21.1,228.4c-0.1,0-0.5,0-0.8,0.3c0,0-0.1,0.1-0.1,0.3
					c-0.1,0.4,0.1,0.8,0.1,0.8s0.9,0.8,1.4,1.2c0.5,0.4,1.2,1,2.1,1.7c1.3,0,2.1,0,2.5,0c0,0,1.7,0,1.8,0h0.1h0.1l0,0l0,0l0,0l0,0
					l0,0l0,0l0,0c0,0,0,0,0-0.1v-0.1c0-0.1,0-0.3,0-0.4c0-0.4,0-0.4,0-0.4l0,0c0-0.3,0.1-0.4,0.1-0.4c0.1-0.1,0.1-0.1,0.3-0.1
					c0.3-0.1,0.6-0.1,1-0.1c0.3,0,0.4,0,0.6,0c0,0,0.5,0,1.4,0c3.4,0,3.4,0,3.4,0s4.1-0.8,6.9-1.4l0,0l0,0c0-0.8,0-0.9,0-1.2l0,0
					l0,0c-0.5,0-0.9,0-1.4,0l0,0c0-0.5,0.1-1,0.1-1.6c-0.5,0.5-1.2,1-1.7,1.6l0,0l0,0l0,0c-0.3,0-0.6,0-0.9,0c0-0.5,0-1,0-1.6
					c-0.5,0.5-1.2,1-1.7,1.6l0,0c-1.3,0-2.1,0-2.6,0c-0.1,0-0.6,0-1.3,0c-0.3,0-0.6,0-0.9,0c-0.6,0-1.2,0-1.6,0c-0.5,0-1,0-1.7,0
					h-3.2C25.5,228.2,22.3,228.2,21.1,228.4z"/>
			</defs>
			<clipPath id="SVGID_00000084494308066100054070000009334661955011773570_">
				<use xlink:href="#SVGID_00000041268249974491817480000002343376083236584597_"  style="overflow:visible;"/>
			</clipPath>
		</g>
		<g>
			<defs>
				<path id="SVGID_00000155147195457231658810000006952436815443512745_" d="M21.1,228.4c-0.1,0-0.5,0-0.8,0.3c0,0-0.1,0.1-0.1,0.3
					c-0.1,0.4,0.1,0.8,0.1,0.8s0.9,0.8,1.4,1.2c0.5,0.4,1.2,1,2.1,1.7c1.3,0,2.1,0,2.5,0c0,0,1.7,0,1.8,0h0.1h0.1l0,0l0,0l0,0l0,0
					l0,0l0,0l0,0c0,0,0,0,0-0.1v-0.1c0-0.1,0-0.3,0-0.4c0-0.4,0-0.4,0-0.4l0,0c0-0.3,0.1-0.4,0.1-0.4c0.1-0.1,0.1-0.1,0.3-0.1
					c0.3-0.1,0.6-0.1,1-0.1c0.3,0,0.4,0,0.6,0c0,0,0.5,0,1.4,0c3.4,0,3.4,0,3.4,0s4.1-0.8,6.9-1.4l0,0l0,0c0-0.8,0-0.9,0-1.2l0,0
					l0,0c-0.5,0-0.9,0-1.4,0l0,0c0-0.5,0.1-1,0.1-1.6c-0.5,0.5-1.2,1-1.7,1.6l0,0l0,0l0,0c-0.3,0-0.6,0-0.9,0c0-0.5,0-1,0-1.6
					c-0.5,0.5-1.2,1-1.7,1.6l0,0c-1.3,0-2.1,0-2.6,0c-0.1,0-0.6,0-1.3,0c-0.3,0-0.6,0-0.9,0c-0.6,0-1.2,0-1.6,0c-0.5,0-1,0-1.7,0
					h-3.2C25.5,228.2,22.3,228.2,21.1,228.4z"/>
			</defs>
			<defs>
				<path id="SVGID_00000053534985814768025410000011634805164036043935_" d="M21.1,228.4c-0.1,0-0.5,0-0.8,0.3c0,0-0.1,0.1-0.1,0.3
					c-0.1,0.4,0.1,0.8,0.1,0.8s0.9,0.8,1.4,1.2c0.5,0.4,1.2,1,2.1,1.7c1.3,0,2.1,0,2.5,0c0,0,1.7,0,1.8,0h0.1h0.1l0,0l0,0l0,0l0,0
					l0,0l0,0l0,0c0,0,0,0,0-0.1v-0.1c0-0.1,0-0.3,0-0.4c0-0.4,0-0.4,0-0.4l0,0c0-0.3,0.1-0.4,0.1-0.4c0.1-0.1,0.1-0.1,0.3-0.1
					c0.3-0.1,0.6-0.1,1-0.1c0.3,0,0.4,0,0.6,0c0,0,0.5,0,1.4,0c3.4,0,3.4,0,3.4,0s4.1-0.8,6.9-1.4l0,0l0,0c0-0.8,0-0.9,0-1.2l0,0
					l0,0c-0.5,0-0.9,0-1.4,0l0,0c0-0.5,0.1-1,0.1-1.6c-0.5,0.5-1.2,1-1.7,1.6l0,0l0,0l0,0c-0.3,0-0.6,0-0.9,0c0-0.5,0-1,0-1.6
					c-0.5,0.5-1.2,1-1.7,1.6l0,0c-1.3,0-2.1,0-2.6,0c-0.1,0-0.6,0-1.3,0c-0.3,0-0.6,0-0.9,0c-0.6,0-1.2,0-1.6,0c-0.5,0-1,0-1.7,0
					h-3.2C25.5,228.2,22.3,228.2,21.1,228.4z"/>
			</defs>
			<clipPath id="SVGID_00000085253068600302458470000015384007972521077434_">
				<use xlink:href="#SVGID_00000155147195457231658810000006952436815443512745_"  style="overflow:visible;"/>
			</clipPath>
			
				<clipPath id="SVGID_00000116917638780830815150000010742670291448269712_" style="clip-path:url(#SVGID_00000085253068600302458470000015384007972521077434_);">
				<use xlink:href="#SVGID_00000053534985814768025410000011634805164036043935_"  style="overflow:visible;"/>
			</clipPath>
			
				<g transform="matrix(1 -3.469447e-18 3.469447e-18 1 0 -1.525879e-05)" style="clip-path:url(#SVGID_00000116917638780830815150000010742670291448269712_);">
				
					<image style="overflow:visible;enable-background:new    ;" width="600" height="600" xlink:href="../../background.jpg"  transform="matrix(1.890506e-11 -0.4258 0.4283 1.901636e-11 -19.7127 329.3098)">
				</image>
			</g>
		</g>
		<g>
			<path id="SVGID_386_" class="st11" d="M21.1,228.4c-0.1,0-0.5,0-0.8,0.3c0,0-0.1,0.1-0.1,0.3c-0.1,0.4,0.1,0.8,0.1,0.8
				s0.9,0.8,1.4,1.2c0.5,0.4,1.2,1,2.1,1.7c1.3,0,2.1,0,2.5,0c0,0,1.7,0,1.8,0h0.1h0.1l0,0l0,0l0,0l0,0l0,0l0,0l0,0c0,0,0,0,0-0.1
				v-0.1c0-0.1,0-0.3,0-0.4c0-0.4,0-0.4,0-0.4l0,0c0-0.3,0.1-0.4,0.1-0.4c0.1-0.1,0.1-0.1,0.3-0.1c0.3-0.1,0.6-0.1,1-0.1
				c0.3,0,0.4,0,0.6,0c0,0,0.5,0,1.4,0c3.4,0,3.4,0,3.4,0s4.1-0.8,6.9-1.4l0,0l0,0c0-0.8,0-0.9,0-1.2l0,0l0,0c-0.5,0-0.9,0-1.4,0
				l0,0c0-0.5,0.1-1,0.1-1.6c-0.5,0.5-1.2,1-1.7,1.6l0,0l0,0l0,0c-0.3,0-0.6,0-0.9,0c0-0.5,0-1,0-1.6c-0.5,0.5-1.2,1-1.7,1.6l0,0
				c-1.3,0-2.1,0-2.6,0c-0.1,0-0.6,0-1.3,0c-0.3,0-0.6,0-0.9,0c-0.6,0-1.2,0-1.6,0c-0.5,0-1,0-1.7,0h-3.2
				C25.5,228.2,22.3,228.2,21.1,228.4z"/>
		</g>
		<g>
			<path id="SVGID_385_" class="st11" d="M21.1,228.4c-0.1,0-0.5,0-0.8,0.3c0,0-0.1,0.1-0.1,0.3c-0.1,0.4,0.1,0.8,0.1,0.8
				s0.9,0.8,1.4,1.2c0.5,0.4,1.2,1,2.1,1.7c1.3,0,2.1,0,2.5,0c0,0,1.7,0,1.8,0h0.1h0.1l0,0l0,0l0,0l0,0l0,0l0,0l0,0c0,0,0,0,0-0.1
				v-0.1c0-0.1,0-0.3,0-0.4c0-0.4,0-0.4,0-0.4l0,0c0-0.3,0.1-0.4,0.1-0.4c0.1-0.1,0.1-0.1,0.3-0.1c0.3-0.1,0.6-0.1,1-0.1
				c0.3,0,0.4,0,0.6,0c0,0,0.5,0,1.4,0c3.4,0,3.4,0,3.4,0s4.1-0.8,6.9-1.4l0,0l0,0c0-0.8,0-0.9,0-1.2l0,0l0,0c-0.5,0-0.9,0-1.4,0
				l0,0c0-0.5,0.1-1,0.1-1.6c-0.5,0.5-1.2,1-1.7,1.6l0,0l0,0l0,0c-0.3,0-0.6,0-0.9,0c0-0.5,0-1,0-1.6c-0.5,0.5-1.2,1-1.7,1.6l0,0
				c-1.3,0-2.1,0-2.6,0c-0.1,0-0.6,0-1.3,0c-0.3,0-0.6,0-0.9,0c-0.6,0-1.2,0-1.6,0c-0.5,0-1,0-1.7,0h-3.2
				C25.5,228.2,22.3,228.2,21.1,228.4z"/>
		</g>
	</g>
</g>
<g>
	<path class="st3" d="M151.9,237.9c0.5-1,1.2-2.1,1.7-3.1c0.6,1,1.2,2.2,1.8,3.2c0.5-1,1.2-2.2,1.7-3.2c0.6,1,1.2,2.1,1.8,3.1
		c0.5-1,1-2.1,1.6-3c0.6,1,1.3,2.1,2.1,3c0.5-1.2,0.9-2.2,1.4-3.4c0.6,1.4,1.3,2.7,1.9,4.1c0.6-1.2,1.8-3.4,1.8-3.4
		c0.5,0.9,1,1.8,1.6,2.7c0.8-1,1.6-2.2,2.5-3.2c0,0,0,0,0.3,0c0.5,0,1,0,1.6,0c0.8,0,1.6,0,2.2,0c0.3,0,0.5,0,0.8,0c0,0,0-1.2,0-1.6
		c0-0.5,0-0.9,0-1.4c1.6-1.3,4.7-4,4.7-4h0.1v-29.1c-0.3-0.1-3.2-2.7-4.8-4c0-0.4,0-0.9,0-1.4c0-0.4,0-1.6,0-1.6c-0.3,0-0.5,0-0.8,0
		c-0.8,0-1.6,0-2.2,0c-0.5,0-1,0-1.6,0c-0.3,0-0.3,0-0.3,0s-1.6-1.9-2.2-2.7c-0.5,0.9-1.2,1.9-1.7,2.8l-1.7-3.4l-1.6,3.4
		c0,0-1.2-2.2-1.7-3.4l-2.1,3.1l-1.6-3.1l-1.8,3.1l-1.7-3.1c-0.5,1-1.7,3-1.7,3l-1.8-3c-0.6,0.9-1.8,2.8-1.8,2.8v-7.9l1.2-6.1h37.5
		c0.4,0.9,0.6,2.1,0.9,3.2c0.3,1.3,0.4,2.6,0.4,3.6c0,4.7,0,9.4,0,14.1V228v10.7c0.1,1.6,0.1,3.6-0.1,6c-0.3,1.7-0.6,3.1-1.2,4.3
		c-12.6,0-25,0-37.5,0c-0.4-1.2-0.6-2.5-0.9-4c-0.3-1.3-0.3-2.5-0.4-3.6c0-1.9,0-4-0.1-6c0-0.6,0-1.3,0.1-1.9
		C150.9,235,151.4,236.4,151.9,237.9z"/>
	<path class="st49" d="M175,231.3c0.8-0.9,2.2-2.7,4.8-3.4c0.5-0.1,1-0.3,1.4-0.3c-1.6,1.3-3.2,2.7-4.8,4c0,0.4,0,0.9,0,1.4l0,0
		c0,0.4,0,1.6,0,1.6l0,0l0,0c-0.3,0-0.5,0-0.8,0c-0.8,0-1.6,0-2.2,0c-0.5,0-1,0-1.6,0c-0.3,0-0.3,0-0.3,0s-1.6,1.9-2.2,2.7
		c-0.5-0.9-1.2-1.9-1.7-2.8l-1.7,3.4l-1.6-3.4c0.5-0.4,1-0.6,1.6-1c0-1.4,0-2.8,0-4.3c0.4-0.1,0.9-0.1,1.3-0.3
		C169.8,229.8,172.4,230.6,175,231.3z"/>
	<polygon class="st0" points="157.4,229.3 151.8,228.1 157.4,228.1 	"/>
	<path class="st49" d="M175,195.2c0.8,0.9,2.2,2.7,4.8,3.4c0.5,0.1,1,0.3,1.4,0.3c-1.6-1.3-3.2-2.7-4.8-4c0-0.4,0-0.9,0-1.4l0,0
		c0-0.4,0-1.6,0-1.6l0,0l0,0c-0.3,0-0.5,0-0.8,0c-0.8,0-1.6,0-2.2,0c-0.5,0-1,0-1.6,0c-0.3,0-0.3,0-0.3,0s-1.6-1.9-2.2-2.7
		c-0.5,0.9-1.2,1.9-1.7,2.8l-1.7-3.4l-1.6,3.4c0.5,0.4,1,0.6,1.6,1c0,1.4,0,2.8,0,4.3c0.4,0.1,0.9,0.1,1.3,0.3
		C169.8,196.8,172.4,196,175,195.2z"/>
	<polygon class="st0" points="157.4,197.2 151.8,198.5 157.4,198.5 	"/>
	<path class="st50" d="M150.1,192c0.6-1.2,1.3-2.3,2.1-3.5l1.7,3.1l1.8-3.1l1.7,3.1l1.8-3.1l1.6,3l2.1-3c0.5,1.2,0.9,2.3,1.4,3.4
		c0.4,0,0.6,0,1,0"/>
	<path class="st0" d="M165.7,193.2c0.1-0.4,0.4-0.6,0.5-1v-0.6c-0.5-0.4-0.9-0.6-1.4-1c-0.3,0.5-0.5,1.2-0.8,1.7
		C164.5,192.5,165,192.9,165.7,193.2z"/>
	<path class="st50" d="M150.4,233.4c0.3,0.8,0.5,1.6,0.8,2.5c0.3,0.8,0.5,1.4,0.8,2.1l1.7-3.1l1.8,3.1l1.7-3.1l1.8,3.1l1.6-3l2.1,3
		c0.5-1.2,0.9-2.2,1.4-3.4c0.1,0,0.3,0,0.3,0"/>
	<path class="st0" d="M164.2,235c0.3,0.5,0.5,0.9,0.6,1.4c0.4-0.6,0.8-1.4,1.2-2.1c0,0-0.4-0.1-0.5-0.5c0-0.1,0-0.4,0-0.4
		c-0.4,0.3-0.8,0.5-1.3,0.8C164.2,234.4,164.2,234.7,164.2,235z"/>
	<g>
		<g>
			<defs>
				<path id="SVGID_00000003076944854273121150000009359809012677398963_" d="M146.4,198.3v3.2c15.7,0,31.2,0,46.8,0
					c0.1-0.4,0.3-0.8,0.4-1.3c0.3-0.6,0.5-1.4,0.8-1.9C178.3,198.3,162.4,198.3,146.4,198.3z"/>
			</defs>
			<clipPath id="SVGID_00000160876108223596577690000002112355402481659037_">
				<use xlink:href="#SVGID_00000003076944854273121150000009359809012677398963_"  style="overflow:visible;"/>
			</clipPath>
			<g style="clip-path:url(#SVGID_00000160876108223596577690000002112355402481659037_);">
				
					<image style="overflow:visible;enable-background:new    ;" width="600" height="600" xlink:href="../../background.jpg"  transform="matrix(0.3635 0 0 0.3654 158.3551 134.778)">
				</image>
			</g>
		</g>
	</g>
	<g>
		<g>
			<defs>
				<path id="SVGID_00000182513432419876416320000012673917897920070815_" d="M146.4,198.3v3.2c15.7,0,31.2,0,46.8,0
					c0.1-0.4,0.3-0.8,0.4-1.3c0.3-0.6,0.5-1.4,0.8-1.9C178.3,198.3,162.4,198.3,146.4,198.3z"/>
			</defs>
			<clipPath id="SVGID_00000005982408698873814580000006029391503436567682_">
				<use xlink:href="#SVGID_00000182513432419876416320000012673917897920070815_"  style="overflow:visible;"/>
			</clipPath>
			
				<g transform="matrix(1 1.469368e-39 0 1 0 0)" style="clip-path:url(#SVGID_00000005982408698873814580000006029391503436567682_);">
				
					<image style="overflow:visible;enable-background:new    ;" width="600" height="600" xlink:href="../../background.jpg"  transform="matrix(0 -0.4235 -0.4248 0 222.1418 315.6733)">
				</image>
			</g>
		</g>
	</g>
	<g class="st53">
		<path id="SVGID_382_" class="st54" d="M146.4,198.3v3.2c15.7,0,31.2,0,46.8,0c0.1-0.4,0.3-0.8,0.4-1.3c0.3-0.6,0.5-1.4,0.8-1.9
			C178.3,198.3,162.4,198.3,146.4,198.3z"/>
	</g>
	<g>
		<g>
			<defs>
				<path id="SVGID_00000016758473112303110370000014352977664762428069_" d="M178.5,198.3c0.1,0,0.5,0,0.8-0.3c0,0,0.1-0.1,0.1-0.3
					c0.1-0.4-0.1-0.8-0.1-0.8s-0.9-0.8-1.4-1.2c-0.5-0.4-1.2-1-2.1-1.7c-1.3,0-1.9,0-2.5,0c0,0-1.7,0-1.8,0h-0.1h-0.1l0,0l0,0l0,0
					l0,0l0,0l0,0l0,0c0,0,0,0,0,0.1v0.1c0,0.1,0,0.3,0,0.4c0,0.4,0,0.4,0,0.4l0,0c0,0.3-0.1,0.4-0.1,0.4c-0.1,0.1-0.1,0.1-0.3,0.1
					c-0.3,0.1-0.6,0.1-1,0.1c-0.3,0-0.4,0-0.6,0c0,0-0.5,0-1.4,0c-3.4,0-3.4,0-3.4,0s-4.1,0.8-6.9,1.3l0,0l0,0c0,0.8,0,0.9,0,1.2
					l0,0l0,0c0.5,0,0.9,0,1.4,0l0,0c0,0.5-0.1,1-0.1,1.6c0.5-0.5,1.2-1,1.7-1.6l0,0l0,0l0,0c0.3,0,0.6,0,0.9,0c0,0.5,0,1,0,1.6
					c0.5-0.5,1-1,1.7-1.6l0,0c1.3,0,2.1,0,2.6,0c0.1,0,0.6,0,1.3,0c0.3,0,0.6,0,0.9,0c0.6,0,1.2,0,1.6,0c0.5,0,1,0,1.6,0h3.2
					C174.1,198.5,177.4,198.5,178.5,198.3z"/>
			</defs>
			<clipPath id="SVGID_00000065043066215848272740000007551066574155818923_">
				<use xlink:href="#SVGID_00000016758473112303110370000014352977664762428069_"  style="overflow:visible;"/>
			</clipPath>
		</g>
		<g>
			<defs>
				<path id="SVGID_00000062892125588362605880000012382667706756092077_" d="M178.5,198.3c0.1,0,0.5,0,0.8-0.3c0,0,0.1-0.1,0.1-0.3
					c0.1-0.4-0.1-0.8-0.1-0.8s-0.9-0.8-1.4-1.2c-0.5-0.4-1.2-1-2.1-1.7c-1.3,0-1.9,0-2.5,0c0,0-1.7,0-1.8,0h-0.1h-0.1l0,0l0,0l0,0
					l0,0l0,0l0,0l0,0c0,0,0,0,0,0.1v0.1c0,0.1,0,0.3,0,0.4c0,0.4,0,0.4,0,0.4l0,0c0,0.3-0.1,0.4-0.1,0.4c-0.1,0.1-0.1,0.1-0.3,0.1
					c-0.3,0.1-0.6,0.1-1,0.1c-0.3,0-0.4,0-0.6,0c0,0-0.5,0-1.4,0c-3.4,0-3.4,0-3.4,0s-4.1,0.8-6.9,1.3l0,0l0,0c0,0.8,0,0.9,0,1.2
					l0,0l0,0c0.5,0,0.9,0,1.4,0l0,0c0,0.5-0.1,1-0.1,1.6c0.5-0.5,1.2-1,1.7-1.6l0,0l0,0l0,0c0.3,0,0.6,0,0.9,0c0,0.5,0,1,0,1.6
					c0.5-0.5,1-1,1.7-1.6l0,0c1.3,0,2.1,0,2.6,0c0.1,0,0.6,0,1.3,0c0.3,0,0.6,0,0.9,0c0.6,0,1.2,0,1.6,0c0.5,0,1,0,1.6,0h3.2
					C174.1,198.5,177.4,198.5,178.5,198.3z"/>
			</defs>
			<defs>
				<path id="SVGID_00000012468133097297862450000009474172133364672160_" d="M178.5,198.3c0.1,0,0.5,0,0.8-0.3c0,0,0.1-0.1,0.1-0.3
					c0.1-0.4-0.1-0.8-0.1-0.8s-0.9-0.8-1.4-1.2c-0.5-0.4-1.2-1-2.1-1.7c-1.3,0-1.9,0-2.5,0c0,0-1.7,0-1.8,0h-0.1h-0.1l0,0l0,0l0,0
					l0,0l0,0l0,0l0,0c0,0,0,0,0,0.1v0.1c0,0.1,0,0.3,0,0.4c0,0.4,0,0.4,0,0.4l0,0c0,0.3-0.1,0.4-0.1,0.4c-0.1,0.1-0.1,0.1-0.3,0.1
					c-0.3,0.1-0.6,0.1-1,0.1c-0.3,0-0.4,0-0.6,0c0,0-0.5,0-1.4,0c-3.4,0-3.4,0-3.4,0s-4.1,0.8-6.9,1.3l0,0l0,0c0,0.8,0,0.9,0,1.2
					l0,0l0,0c0.5,0,0.9,0,1.4,0l0,0c0,0.5-0.1,1-0.1,1.6c0.5-0.5,1.2-1,1.7-1.6l0,0l0,0l0,0c0.3,0,0.6,0,0.9,0c0,0.5,0,1,0,1.6
					c0.5-0.5,1-1,1.7-1.6l0,0c1.3,0,2.1,0,2.6,0c0.1,0,0.6,0,1.3,0c0.3,0,0.6,0,0.9,0c0.6,0,1.2,0,1.6,0c0.5,0,1,0,1.6,0h3.2
					C174.1,198.5,177.4,198.5,178.5,198.3z"/>
			</defs>
			<clipPath id="SVGID_00000181059071828007970360000001386018523712492940_">
				<use xlink:href="#SVGID_00000062892125588362605880000012382667706756092077_"  style="overflow:visible;"/>
			</clipPath>
			
				<clipPath id="SVGID_00000054974940686677983590000007930235472302557095_" style="clip-path:url(#SVGID_00000181059071828007970360000001386018523712492940_);">
				<use xlink:href="#SVGID_00000012468133097297862450000009474172133364672160_"  style="overflow:visible;"/>
			</clipPath>
			
				<g transform="matrix(1 1.469368e-39 0 1 0 -1.525879e-05)" style="clip-path:url(#SVGID_00000054974940686677983590000007930235472302557095_);">
				
					<image style="overflow:visible;enable-background:new    ;" width="600" height="600" xlink:href="../../background.jpg"  transform="matrix(0 -0.4235 -0.4248 0 228.8103 334.0436)">
				</image>
			</g>
		</g>
		<g>
			<path id="SVGID_381_" class="st11" d="M178.5,198.3c0.1,0,0.5,0,0.8-0.3c0,0,0.1-0.1,0.1-0.3c0.1-0.4-0.1-0.8-0.1-0.8
				s-0.9-0.8-1.4-1.2c-0.5-0.4-1.2-1-2.1-1.7c-1.3,0-1.9,0-2.5,0c0,0-1.7,0-1.8,0h-0.1h-0.1l0,0l0,0l0,0l0,0l0,0l0,0l0,0
				c0,0,0,0,0,0.1v0.1c0,0.1,0,0.3,0,0.4c0,0.4,0,0.4,0,0.4l0,0c0,0.3-0.1,0.4-0.1,0.4c-0.1,0.1-0.1,0.1-0.3,0.1
				c-0.3,0.1-0.6,0.1-1,0.1c-0.3,0-0.4,0-0.6,0c0,0-0.5,0-1.4,0c-3.4,0-3.4,0-3.4,0s-4.1,0.8-6.9,1.3l0,0l0,0c0,0.8,0,0.9,0,1.2l0,0
				l0,0c0.5,0,0.9,0,1.4,0l0,0c0,0.5-0.1,1-0.1,1.6c0.5-0.5,1.2-1,1.7-1.6l0,0l0,0l0,0c0.3,0,0.6,0,0.9,0c0,0.5,0,1,0,1.6
				c0.5-0.5,1-1,1.7-1.6l0,0c1.3,0,2.1,0,2.6,0c0.1,0,0.6,0,1.3,0c0.3,0,0.6,0,0.9,0c0.6,0,1.2,0,1.6,0c0.5,0,1,0,1.6,0h3.2
				C174.1,198.5,177.4,198.5,178.5,198.3z"/>
		</g>
		<g>
			<path id="SVGID_380_" class="st11" d="M178.5,198.3c0.1,0,0.5,0,0.8-0.3c0,0,0.1-0.1,0.1-0.3c0.1-0.4-0.1-0.8-0.1-0.8
				s-0.9-0.8-1.4-1.2c-0.5-0.4-1.2-1-2.1-1.7c-1.3,0-1.9,0-2.5,0c0,0-1.7,0-1.8,0h-0.1h-0.1l0,0l0,0l0,0l0,0l0,0l0,0l0,0
				c0,0,0,0,0,0.1v0.1c0,0.1,0,0.3,0,0.4c0,0.4,0,0.4,0,0.4l0,0c0,0.3-0.1,0.4-0.1,0.4c-0.1,0.1-0.1,0.1-0.3,0.1
				c-0.3,0.1-0.6,0.1-1,0.1c-0.3,0-0.4,0-0.6,0c0,0-0.5,0-1.4,0c-3.4,0-3.4,0-3.4,0s-4.1,0.8-6.9,1.3l0,0l0,0c0,0.8,0,0.9,0,1.2l0,0
				l0,0c0.5,0,0.9,0,1.4,0l0,0c0,0.5-0.1,1-0.1,1.6c0.5-0.5,1.2-1,1.7-1.6l0,0l0,0l0,0c0.3,0,0.6,0,0.9,0c0,0.5,0,1,0,1.6
				c0.5-0.5,1-1,1.7-1.6l0,0c1.3,0,2.1,0,2.6,0c0.1,0,0.6,0,1.3,0c0.3,0,0.6,0,0.9,0c0.6,0,1.2,0,1.6,0c0.5,0,1,0,1.6,0h3.2
				C174.1,198.5,177.4,198.5,178.5,198.3z"/>
		</g>
	</g>
	<g>
		<g>
			<defs>
				<path id="SVGID_00000048461038892056530510000012804419596943274137_" d="M146.4,228.1v-3.2c16.3,0,32.6,0,48.9,0
					c-0.1,0.5-0.3,1.2-0.5,1.8c-0.3,0.5-0.5,1-0.8,1.4C178.2,228.1,162.3,228.1,146.4,228.1z"/>
			</defs>
			<clipPath id="SVGID_00000125571773375721179670000012539390812486216629_">
				<use xlink:href="#SVGID_00000048461038892056530510000012804419596943274137_"  style="overflow:visible;"/>
			</clipPath>
			
				<g transform="matrix(1 0 0 1 -7.629395e-06 0)" style="clip-path:url(#SVGID_00000125571773375721179670000012539390812486216629_);">
				
					<image style="overflow:visible;enable-background:new    ;" width="600" height="600" xlink:href="../../background.jpg"  transform="matrix(0.3635 0 0 0.3654 159.7007 134.778)">
				</image>
			</g>
		</g>
	</g>
	<g>
		<g>
			<defs>
				<path id="SVGID_00000043450926068453697990000010356562391140279948_" d="M146.4,228.1v-3.2c16.3,0,32.6,0,48.9,0
					c-0.1,0.5-0.3,1.2-0.5,1.8c-0.3,0.5-0.5,1-0.8,1.4C178.2,228.1,162.3,228.1,146.4,228.1z"/>
			</defs>
			<clipPath id="SVGID_00000150805682406295648250000013422766952013128872_">
				<use xlink:href="#SVGID_00000043450926068453697990000010356562391140279948_"  style="overflow:visible;"/>
			</clipPath>
			
				<g transform="matrix(1 1.469368e-39 0 1 0 1.525879e-05)" style="clip-path:url(#SVGID_00000150805682406295648250000013422766952013128872_);">
				
					<image style="overflow:visible;enable-background:new    ;" width="600" height="600" xlink:href="../../background.jpg"  transform="matrix(0 -0.4235 -0.4248 0 226.1431 333.0307)">
				</image>
			</g>
		</g>
	</g>
	<path id="SVGID_377_" class="st59" d="M146.4,228.1v-3.2c16.3,0,32.6,0,48.9,0c-0.1,0.5-0.3,1.2-0.5,1.8c-0.3,0.5-0.5,1-0.8,1.4
		C178.2,228.1,162.3,228.1,146.4,228.1z"/>
	<g>
		<g>
			<defs>
				<path id="SVGID_00000154416914703630632360000014606489902449528456_" d="M178.6,228.2c0.1,0,0.5,0,0.8,0.3c0,0,0.1,0.1,0.1,0.3
					c0.1,0.4-0.1,0.8-0.1,0.8s-0.9,0.8-1.4,1.2c-0.5,0.4-1.2,1-2.1,1.7c-1.3,0-1.9,0-2.5,0c0,0-1.7,0-1.8,0h-0.1h-0.1l0,0l0,0l0,0
					l0,0l0,0l0,0l0,0c0,0,0,0,0-0.1v-0.1c0-0.1,0-0.3,0-0.4c0-0.4,0-0.4,0-0.4l0,0c0-0.3-0.1-0.4-0.1-0.4c-0.1-0.1-0.1-0.1-0.3-0.1
					c-0.3-0.1-0.6-0.1-1-0.1c-0.3,0-0.4,0-0.6,0c0,0-0.5,0-1.4,0c-3.4,0-3.4,0-3.4,0s-4.1-0.8-6.9-1.3l0,0l0,0c0-0.8,0-0.9,0-1.2
					l0,0l0,0c0.5,0,0.9,0,1.4,0l0,0c0-0.5-0.1-1-0.1-1.6c0.5,0.5,1.2,1,1.7,1.6l0,0l0,0l0,0c0.3,0,0.6,0,0.9,0c0-0.5,0-1,0-1.6
					c0.5,0.5,1,1,1.7,1.6l0,0c1.3,0,2.1,0,2.6,0c0.1,0,0.6,0,1.3,0c0.3,0,0.6,0,0.9,0c0.6,0,1.2,0,1.6,0c0.5,0,1,0,1.6,0h3.2
					C174.1,228.1,177.4,228.1,178.6,228.2z"/>
			</defs>
			<clipPath id="SVGID_00000054235601468047771630000002781597800935829931_">
				<use xlink:href="#SVGID_00000154416914703630632360000014606489902449528456_"  style="overflow:visible;"/>
			</clipPath>
		</g>
		<g>
			<defs>
				<path id="SVGID_00000000224575674192067140000012078730358457733291_" d="M178.6,228.2c0.1,0,0.5,0,0.8,0.3c0,0,0.1,0.1,0.1,0.3
					c0.1,0.4-0.1,0.8-0.1,0.8s-0.9,0.8-1.4,1.2c-0.5,0.4-1.2,1-2.1,1.7c-1.3,0-1.9,0-2.5,0c0,0-1.7,0-1.8,0h-0.1h-0.1l0,0l0,0l0,0
					l0,0l0,0l0,0l0,0c0,0,0,0,0-0.1v-0.1c0-0.1,0-0.3,0-0.4c0-0.4,0-0.4,0-0.4l0,0c0-0.3-0.1-0.4-0.1-0.4c-0.1-0.1-0.1-0.1-0.3-0.1
					c-0.3-0.1-0.6-0.1-1-0.1c-0.3,0-0.4,0-0.6,0c0,0-0.5,0-1.4,0c-3.4,0-3.4,0-3.4,0s-4.1-0.8-6.9-1.3l0,0l0,0c0-0.8,0-0.9,0-1.2
					l0,0l0,0c0.5,0,0.9,0,1.4,0l0,0c0-0.5-0.1-1-0.1-1.6c0.5,0.5,1.2,1,1.7,1.6l0,0l0,0l0,0c0.3,0,0.6,0,0.9,0c0-0.5,0-1,0-1.6
					c0.5,0.5,1,1,1.7,1.6l0,0c1.3,0,2.1,0,2.6,0c0.1,0,0.6,0,1.3,0c0.3,0,0.6,0,0.9,0c0.6,0,1.2,0,1.6,0c0.5,0,1,0,1.6,0h3.2
					C174.1,228.1,177.4,228.1,178.6,228.2z"/>
			</defs>
			<defs>
				<path id="SVGID_00000070111330327982004450000010765628736785796756_" d="M178.6,228.2c0.1,0,0.5,0,0.8,0.3c0,0,0.1,0.1,0.1,0.3
					c0.1,0.4-0.1,0.8-0.1,0.8s-0.9,0.8-1.4,1.2c-0.5,0.4-1.2,1-2.1,1.7c-1.3,0-1.9,0-2.5,0c0,0-1.7,0-1.8,0h-0.1h-0.1l0,0l0,0l0,0
					l0,0l0,0l0,0l0,0c0,0,0,0,0-0.1v-0.1c0-0.1,0-0.3,0-0.4c0-0.4,0-0.4,0-0.4l0,0c0-0.3-0.1-0.4-0.1-0.4c-0.1-0.1-0.1-0.1-0.3-0.1
					c-0.3-0.1-0.6-0.1-1-0.1c-0.3,0-0.4,0-0.6,0c0,0-0.5,0-1.4,0c-3.4,0-3.4,0-3.4,0s-4.1-0.8-6.9-1.3l0,0l0,0c0-0.8,0-0.9,0-1.2
					l0,0l0,0c0.5,0,0.9,0,1.4,0l0,0c0-0.5-0.1-1-0.1-1.6c0.5,0.5,1.2,1,1.7,1.6l0,0l0,0l0,0c0.3,0,0.6,0,0.9,0c0-0.5,0-1,0-1.6
					c0.5,0.5,1,1,1.7,1.6l0,0c1.3,0,2.1,0,2.6,0c0.1,0,0.6,0,1.3,0c0.3,0,0.6,0,0.9,0c0.6,0,1.2,0,1.6,0c0.5,0,1,0,1.6,0h3.2
					C174.1,228.1,177.4,228.1,178.6,228.2z"/>
			</defs>
			<clipPath id="SVGID_00000117648799245268307880000007569809175517529266_">
				<use xlink:href="#SVGID_00000000224575674192067140000012078730358457733291_"  style="overflow:visible;"/>
			</clipPath>
			
				<clipPath id="SVGID_00000035527163211756354070000018255270642754904967_" style="clip-path:url(#SVGID_00000117648799245268307880000007569809175517529266_);">
				<use xlink:href="#SVGID_00000070111330327982004450000010765628736785796756_"  style="overflow:visible;"/>
			</clipPath>
			
				<g transform="matrix(1 1.469368e-39 0 1 0 0)" style="clip-path:url(#SVGID_00000035527163211756354070000018255270642754904967_);">
				
					<image style="overflow:visible;enable-background:new    ;" width="600" height="600" xlink:href="../../background.jpg"  transform="matrix(0 -0.4235 -0.4248 0 219.0308 328.6321)">
				</image>
			</g>
		</g>
		<g>
			<path id="SVGID_376_" class="st11" d="M178.6,228.2c0.1,0,0.5,0,0.8,0.3c0,0,0.1,0.1,0.1,0.3c0.1,0.4-0.1,0.8-0.1,0.8
				s-0.9,0.8-1.4,1.2c-0.5,0.4-1.2,1-2.1,1.7c-1.3,0-1.9,0-2.5,0c0,0-1.7,0-1.8,0h-0.1h-0.1l0,0l0,0l0,0l0,0l0,0l0,0l0,0
				c0,0,0,0,0-0.1v-0.1c0-0.1,0-0.3,0-0.4c0-0.4,0-0.4,0-0.4l0,0c0-0.3-0.1-0.4-0.1-0.4c-0.1-0.1-0.1-0.1-0.3-0.1
				c-0.3-0.1-0.6-0.1-1-0.1c-0.3,0-0.4,0-0.6,0c0,0-0.5,0-1.4,0c-3.4,0-3.4,0-3.4,0s-4.1-0.8-6.9-1.3l0,0l0,0c0-0.8,0-0.9,0-1.2l0,0
				l0,0c0.5,0,0.9,0,1.4,0l0,0c0-0.5-0.1-1-0.1-1.6c0.5,0.5,1.2,1,1.7,1.6l0,0l0,0l0,0c0.3,0,0.6,0,0.9,0c0-0.5,0-1,0-1.6
				c0.5,0.5,1,1,1.7,1.6l0,0c1.3,0,2.1,0,2.6,0c0.1,0,0.6,0,1.3,0c0.3,0,0.6,0,0.9,0c0.6,0,1.2,0,1.6,0c0.5,0,1,0,1.6,0h3.2
				C174.1,228.1,177.4,228.1,178.6,228.2z"/>
		</g>
		<g>
			<path id="SVGID_375_" class="st11" d="M178.6,228.2c0.1,0,0.5,0,0.8,0.3c0,0,0.1,0.1,0.1,0.3c0.1,0.4-0.1,0.8-0.1,0.8
				s-0.9,0.8-1.4,1.2c-0.5,0.4-1.2,1-2.1,1.7c-1.3,0-1.9,0-2.5,0c0,0-1.7,0-1.8,0h-0.1h-0.1l0,0l0,0l0,0l0,0l0,0l0,0l0,0
				c0,0,0,0,0-0.1v-0.1c0-0.1,0-0.3,0-0.4c0-0.4,0-0.4,0-0.4l0,0c0-0.3-0.1-0.4-0.1-0.4c-0.1-0.1-0.1-0.1-0.3-0.1
				c-0.3-0.1-0.6-0.1-1-0.1c-0.3,0-0.4,0-0.6,0c0,0-0.5,0-1.4,0c-3.4,0-3.4,0-3.4,0s-4.1-0.8-6.9-1.3l0,0l0,0c0-0.8,0-0.9,0-1.2l0,0
				l0,0c0.5,0,0.9,0,1.4,0l0,0c0-0.5-0.1-1-0.1-1.6c0.5,0.5,1.2,1,1.7,1.6l0,0l0,0l0,0c0.3,0,0.6,0,0.9,0c0-0.5,0-1,0-1.6
				c0.5,0.5,1,1,1.7,1.6l0,0c1.3,0,2.1,0,2.6,0c0.1,0,0.6,0,1.3,0c0.3,0,0.6,0,0.9,0c0.6,0,1.2,0,1.6,0c0.5,0,1,0,1.6,0h3.2
				C174.1,228.1,177.4,228.1,178.6,228.2z"/>
		</g>
	</g>
</g>
<linearGradient id="SVGID_00000046309150421601361900000018308197662958668198_" gradientUnits="userSpaceOnUse" x1="-426.2793" y1="1289.3689" x2="-426.2793" y2="1289.3689" gradientTransform="matrix(0 1 1 0 -1193.7249 696.8266)">
	<stop  offset="0" style="stop-color:#444444"/>
	<stop  offset="8.100000e-02" style="stop-color:#5B5B5B"/>
	<stop  offset="0.2486" style="stop-color:#3A3A3A"/>
	<stop  offset="0.3205" style="stop-color:#3E3E3E"/>
	<stop  offset="0.3898" style="stop-color:#494949"/>
	<stop  offset="0.458" style="stop-color:#5D5D5D"/>
	<stop  offset="0.4832" style="stop-color:#666666"/>
	<stop  offset="0.6844" style="stop-color:#474747"/>
	<stop  offset="0.8352" style="stop-color:#636363"/>
</linearGradient>
<path style="fill:url(#SVGID_00000046309150421601361900000018308197662958668198_);" d="M95.6,270.5"/>
<g>
	<path class="st71" d="M193.2,201.6c-36.4,0-72.6-0.1-109-0.1c-25.9,0-51.9,0-77.8,0c0.8,4,0.4,7-0.1,9.1c-0.8,3.5-2.3,5.6-2.5,9.6
		c-0.1,1.9,0.3,3.5,0.4,4.5c28.5,0,56.9,0,85.4,0l0,0H117l0,0c26,0,52.2,0,78.2,0c0.1-0.5,0.3-1.3,0.4-2.2c0.6-5.3-1.2-8.4-2.1-13.8
		C193.4,207.1,193.1,204.7,193.2,201.6z"/>
	
		<linearGradient id="SVGID_00000008847786506903499290000014723713068019258521_" gradientUnits="userSpaceOnUse" x1="99.9225" y1="120.7286" x2="99.9225" y2="98.7304" gradientTransform="matrix(1 0 0 -1 0 322)">
		<stop  offset="0" style="stop-color:#333333;stop-opacity:0"/>
		<stop  offset="0.5754" style="stop-color:#808080"/>
		<stop  offset="0.6781" style="stop-color:#C7C7C7;stop-opacity:0.76"/>
		<stop  offset="0.8698" style="stop-color:#4F4F4F;stop-opacity:0.3067"/>
		<stop  offset="1" style="stop-color:#333333;stop-opacity:0"/>
	</linearGradient>
	<path style="fill:url(#SVGID_00000008847786506903499290000014723713068019258521_);" d="M193.2,201.6c-12.2,0-30.5,0-53.1-0.1
		c-12.2,0-30.2,0-55.9,0c-18.2,0-44.8,0-77.8,0.1c0.8,3.4,0.5,5.8,0.3,7.5c-0.8,4.7-3,7-2.8,11.9c0,1.7,0.3,3,0.5,3.8
		c25.9,0,51.6,0,77.5,0l0,0h47.8l0,0c21.9,0,43.9-0.1,65.7-0.1c0.1-0.8,0.5-2.1,0.5-3.9c0.3-5.4-1.9-8.2-2.5-14.6
		C193.2,205.3,193.1,203.6,193.2,201.6z"/>
</g>
<rect x="90" y="224.3" class="st71" width="22.3" height="82.7"/>
<linearGradient id="SVGID_00000117673594526662102660000015074295448245894578_" gradientUnits="userSpaceOnUse" x1="90.0117" y1="58.5759" x2="112.2712" y2="58.5759" gradientTransform="matrix(1 0 0 -1 0 322)">
	<stop  offset="8.379889e-03" style="stop-color:#333333;stop-opacity:0"/>
	<stop  offset="0.4921" style="stop-color:#808080"/>
	<stop  offset="0.5843" style="stop-color:#C7C7C7;stop-opacity:0.76"/>
	<stop  offset="0.8698" style="stop-color:#4F4F4F;stop-opacity:0.3067"/>
	<stop  offset="1" style="stop-color:#333333;stop-opacity:0"/>
</linearGradient>
<path style="fill:url(#SVGID_00000117673594526662102660000015074295448245894578_);" d="M89.9,306.9v-82c0.6-0.6,4.9-5.2,11.8-4.9
	c6.1,0.3,9.8,4.1,10.5,4.9c0,27.3,0,54.7,0,82H89.9z"/>
<linearGradient id="SVGID_00000177480197685546012600000003765954111895908274_" gradientUnits="userSpaceOnUse" x1="101.1145" y1="105.4012" x2="101.0921" y2="73.9439" gradientTransform="matrix(1 0 0 -1 0 322)">
	<stop  offset="0.4916" style="stop-color:#333333;stop-opacity:0.8"/>
	<stop  offset="1" style="stop-color:#333333;stop-opacity:0"/>
</linearGradient>
<path style="fill:url(#SVGID_00000177480197685546012600000003765954111895908274_);" d="M89.9,306.9v-82c0.6-0.6,4.9-5.2,11.8-4.9
	c6.1,0.3,9.8,4.1,10.5,4.9c0,27.3,0,54.7,0,82H89.9z"/>
<image style="overflow:visible;" width="200" height="200" xlink:href="../../pepsi.png"  transform="matrix(9.153021e-02 0 0 9.153021e-02 92.9592 46.7293)">
</image>
</svg>
