<?xml version="1.0" encoding="utf-8"?>
<!-- Generator: Adobe Illustrator 25.4.1, SVG Export Plug-In . SVG Version: 6.00 Build 0)  -->
<svg version="1.1" id="Слой_1" xmlns="http://www.w3.org/2000/svg" xmlns:xlink="http://www.w3.org/1999/xlink" x="0px" y="0px"
	 viewBox="0 0 100 160" style="enable-background:new 0 0 100 160;" xml:space="preserve">
<style type="text/css">
	.st0{fill:url(#SVGID_00000160895693980725934710000003629485668059485082_);}
	.st1{opacity:0.28;fill:url(#SVGID_00000097477605676215298860000008104407179127941022_);enable-background:new    ;}
	.st2{fill:url(#SVGID_00000003786291578549584210000012786074605783089025_);}
	.st3{fill:url(#SVGID_00000061472796107610027980000016164557421630946203_);}
	.st4{fill:url(#SVGID_00000176034664284461706620000011717782844159661187_);}
	.st5{fill:url(#SVGID_00000141413600856787656420000000155628800955544745_);}
	.st6{fill:url(#SVGID_00000088110149334571103630000017882379598833361058_);}
	.st7{fill:url(#SVGID_00000065061665117589325210000011558290043434144662_);}
	.st8{opacity:0.28;fill:url(#SVGID_00000114785436434494200590000007603443890486931107_);enable-background:new    ;}
	.st9{opacity:0.28;fill:url(#SVGID_00000052089985049256136390000015812810403397799816_);enable-background:new    ;}
	.st10{opacity:0.28;fill:url(#SVGID_00000183240751866948487070000001358479199954462599_);enable-background:new    ;}
	.st11{fill:url(#SVGID_00000040570731088247391890000016987995680339498910_);}
	.st12{fill:url(#SVGID_00000042720712954218603480000000180413561456852098_);}
	.st13{fill:url(#SVGID_00000173162897562036115110000004052226612754899086_);}
	.st14{fill:url(#SVGID_00000054264595178773554960000005662967150614848408_);}
	.st15{fill:url(#SVGID_00000052063835651242044010000010258527335611533995_);}
	.st16{fill:url(#SVGID_00000182498324056175888930000008729721038102090152_);}
	.st17{fill:url(#SVGID_00000140722433790372961480000010927134126024099215_);}
	.st18{opacity:0.28;fill:url(#SVGID_00000069382554218752618200000007586817260875135401_);enable-background:new    ;}
	.st19{opacity:0.28;fill:url(#SVGID_00000016059254861607892690000005221185160882386059_);enable-background:new    ;}
	.st20{fill:url(#SVGID_00000031906570324332771710000003877076151711136683_);}
	.st21{fill:url(#SVGID_00000016788927667318219580000011081406327604795009_);}
	.st22{fill:url(#SVGID_00000176756897116479494230000002473839408443019927_);}
	.st23{fill:none;}
	.st24{fill:url(#SVGID_00000150795433976894466600000001700990868259035552_);}
	.st25{fill:url(#SVGID_00000175324410663438454630000016605257124835344559_);}
	.st26{fill:url(#SVGID_00000121281019414448129500000015526852329379369129_);}
	.st27{opacity:0.38;enable-background:new    ;}
	.st28{fill:#282828;stroke:#282828;stroke-width:0.5;stroke-miterlimit:10;}
	.st29{fill:#8C8C8C;}
	.st30{fill:none;stroke:#ADADAD;stroke-width:0.5;stroke-miterlimit:10;}
	.st31{fill:#282828;}
	.st32{fill:none;stroke:#8C8C8C;stroke-width:0.2;}
	.st33{fill:url(#SVGID_00000051353803627716892290000017135937435537013154_);}
	.st34{fill:url(#SVGID_00000139251944955690777870000016202392409258144927_);}
	.st35{fill:url(#SVGID_00000160894640191648995270000003175047309613651073_);}
	.st36{fill:url(#SVGID_00000114062670490076118550000013724130612929508483_);}
	.st37{opacity:0.4;fill:#282828;}
</style>
<g>
	<defs>
		<path id="SVGID_1_" d="M99.4,121c-0.1-0.3-0.1-0.3-0.2-0.9c0,0-0.1-0.4-0.2-0.8c-0.1-0.3-0.4-1.9-0.5-3.1c0-0.7,0-2,0.7-3.6
			c-0.4,0-0.8,0-1.3,0c-0.6,0-1.1,0-1.7,0l0,0l0,0c0-1.2,0.1-2.4,0.1-3.6c0-0.4,0-0.9,0-1.4c0-0.2,0-0.5-0.1-0.7v-0.1l0,0
			c-0.2-1.1-0.3-2.1-0.5-3.2l0,0c-5.4,0-10.9,0-16.3,0c-0.5,1.4-0.6,2.9-0.6,4.1v1.9c-0.2-0.2-0.4-0.4-0.6-0.6
			c-0.2,0.3-0.4,0.5-0.6,0.8c0,0,0,0,0,0.1c-0.2,0-0.4,0.1-0.6,0.1c-0.3,0-0.5,0-0.7,0.1c-0.4,0-0.9,0-1.3-0.1
			c-0.8,0-1.6-0.1-2.3-0.2v-4.7H27.4v4.7l0,0l0,0c-0.7,0.1-1.5,0.1-2.4,0.2c-0.4,0-0.9,0-1.3,0.1c-0.2,0-0.5,0-0.7-0.1
			c-0.3,0-0.5-0.1-0.8-0.1l0,0c-0.2-0.3-0.4-0.5-0.6-0.8c-0.2,0.2-0.5,0.4-0.7,0.7v-2c0-0.3,0-0.6,0-0.9l0,0l0,0
			c-0.1-2-0.6-3.2-0.6-3.2h-16c-0.5,1.4-0.6,2.9-0.6,4.1c0,1.6,0,3.2,0,4.7c-0.4,0-0.9,0-1.3,0s-0.9,0-1.3,0c0.5,1.1,0.6,2,0.7,2.6
			c0.1,1.2-0.1,2.2-0.2,2.6s-0.2,1-0.3,1.2c-0.1,0.6-0.2,0.7-0.3,1.4c0,0.2-0.3,1.3-0.3,1.7c0,0,0,0.4,0,0.6c0,0,0,0.3,0,0.5
			c0,0.3,0.2,0.9,0.2,1.1c0.1,0.2,0.1,0.6,0.2,1c0.1,0,0.9,0,1,0c0.2,0,1.3,0,1.5,0c0,1.6,0,3.1,0,4.7c0,0.5,0,0.9,0,1.3l0,0l0,0
			c0.1,1.9,0.6,3.3,0.6,3.3h16.1c0.1-0.4,0.3-1,0.5-1.7c0.2-1,0.2-1.7,0.2-2.9c0-0.5,0-1.2-0.1-2c0.2,0.2,0.5,0.5,0.7,0.7
			c0.2-0.3,0.4-0.5,0.6-0.8c0,0,0,0,0-0.1c0.3,0,0.8-0.1,1.4-0.1c0.4,0,0.8,0,1.2,0c0.9,0,1.8,0.1,2.6,0.2l0,0l0,0v5.1h45.3v-5.1
			c0.8-0.1,1.6-0.1,2.5-0.2c0.4,0,0.8,0,1.2,0c0.5,0,0.9,0.1,1.3,0.1v0.1c0.2,0.3,0.4,0.5,0.6,0.8c0.2-0.2,0.4-0.4,0.6-0.6v1.9
			c0,0.5,0,0.9,0,1.3l0,0l0,0c0.1,1.9,0.6,3.3,0.6,3.3c5.4,0,10.9,0,16.3,0c0.1-0.2,0.1-0.4,0.2-0.7c0.1-0.5,0.2-1,0.3-1.4
			c0-0.4,0.1-0.7,0.1-1.1c0-1.1,0-2.2,0-3.3c0-0.9,0-1.9,0-2.8c0.5,0,1.5,0,1.5,0c0.1,0,1.2,0,1.3,0c0.1-0.4,0.2-0.8,0.2-1
			c0.1-0.2,0.2-0.8,0.2-1.1c0-0.2,0-0.5,0-0.5c0-0.2,0-0.6,0-0.6C99.6,121.8,99.5,121.2,99.4,121z"/>
	</defs>
	<clipPath id="SVGID_00000157994857259710957790000009525586588422852739_">
		<use xlink:href="#SVGID_1_"  style="overflow:visible;"/>
	</clipPath>
	
		<g transform="matrix(1 0 0 1 2.980232e-08 7.629395e-06)" style="clip-path:url(#SVGID_00000157994857259710957790000009525586588422852739_);">
		
			<image style="overflow:visible;" width="600" height="600" xlink:href="../../background.jpg"  transform="matrix(0.185 0 0 0.185 -0.4382 100.3483)">
		</image>
	</g>
	<use xlink:href="#SVGID_1_"  style="overflow:visible;fill:none;stroke:#AFAFAF;stroke-width:0.5;"/>
</g>
<linearGradient id="SVGID_00000160182468581145627940000018398280962391218307_" gradientUnits="userSpaceOnUse" x1="-106.9646" y1="113.3705" x2="-107.4385" y2="126.3409" gradientTransform="matrix(1 0 0 -1 109.9476 161)">
	<stop  offset="0" style="stop-color:#999898"/>
	<stop  offset="0.1963" style="stop-color:#4F4F4F"/>
	<stop  offset="0.2507" style="stop-color:#5B5B5B"/>
	<stop  offset="0.3499" style="stop-color:#7C7C7C"/>
	<stop  offset="0.3704" style="stop-color:#848484"/>
	<stop  offset="0.433" style="stop-color:#878787"/>
	<stop  offset="0.5268" style="stop-color:#A0A0A0"/>
	<stop  offset="0.6843" style="stop-color:#C6C6C6"/>
	<stop  offset="0.9078" style="stop-color:#B7B7B7"/>
	<stop  offset="1" style="stop-color:#C6C6C6"/>
</linearGradient>
<path style="fill:url(#SVGID_00000160182468581145627940000018398280962391218307_);" d="M1.5,47.6c1.1,0,2.1,0,3.2,0V34.7
	c-1.1,0-2.1,0-3.2,0c0.2,0.4,0.8,1.7,0.8,3.2c0,1.7-0.7,3.1-0.8,3.2c-0.1,0.3-0.3,0.6-0.5,1.2c-0.3,0.9-0.3,1.4-0.3,1.6
	c0,0.1,0,0.3,0,0.6c0,0,0,0.3,0,0.5c0,0.5,0.1,0.8,0.2,1.1C1.1,46.8,1.3,47.2,1.5,47.6z"/>
<linearGradient id="SVGID_00000135666061985541592630000002520811552039272588_" gradientUnits="userSpaceOnUse" x1="-437.6861" y1="551.9028" x2="-435.9783" y2="551.9028" gradientTransform="matrix(1 0 0 1 440.0504 -510.7528)">
	<stop  offset="0" style="stop-color:#000000;stop-opacity:0"/>
	<stop  offset="0.3429" style="stop-color:#0A0A0A;stop-opacity:0.3341"/>
	<stop  offset="0.9264" style="stop-color:#252525;stop-opacity:0.9026"/>
	<stop  offset="1" style="stop-color:#292929;stop-opacity:0.9744"/>
</linearGradient>
<rect x="2.4" y="34.7" style="opacity:0.28;fill:url(#SVGID_00000135666061985541592630000002520811552039272588_);enable-background:new    ;" width="1.7" height="12.9"/>
<linearGradient id="SVGID_00000047043406858952850810000010535581310577931156_" gradientUnits="userSpaceOnUse" x1="75.6" y1="111.1482" x2="75.6" y2="129.3901" gradientTransform="matrix(1 0 0 -1 0 161)">
	<stop  offset="0" style="stop-color:#999898"/>
	<stop  offset="0.1963" style="stop-color:#4F4F4F"/>
	<stop  offset="0.2507" style="stop-color:#5B5B5B"/>
	<stop  offset="0.3499" style="stop-color:#7C7C7C"/>
	<stop  offset="0.3704" style="stop-color:#848484"/>
	<stop  offset="0.433" style="stop-color:#878787"/>
	<stop  offset="0.5974" style="stop-color:#D9D9D9"/>
	<stop  offset="0.6843" style="stop-color:#FFFFFF"/>
	<stop  offset="0.9078" style="stop-color:#B7B7B7"/>
	<stop  offset="1" style="stop-color:#C6C6C6"/>
</linearGradient>
<path style="fill:url(#SVGID_00000047043406858952850810000010535581310577931156_);" d="M78.5,49.9c0,0-2.8-0.6-5.8,0V31.6
	c0,0,2.4,0.6,5.8,0V49.9z"/>
<g>
	
		<linearGradient id="SVGID_00000142866380942419578740000006000529814361442703_" gradientUnits="userSpaceOnUse" x1="-973.5958" y1="107.8" x2="-973.5958" y2="132.4365" gradientTransform="matrix(-1 0 0 -1 -961.2958 161)">
		<stop  offset="2.234637e-02" style="stop-color:#1A1A1A"/>
		<stop  offset="0.9832" style="stop-color:#CCCCCC"/>
	</linearGradient>
	<polygon style="fill:url(#SVGID_00000142866380942419578740000006000529814361442703_);" points="3.7,53.2 20.9,53.2 20.9,28.6 
		3.7,28.6 	"/>
	
		<linearGradient id="SVGID_00000047026475241265559670000012773648213774099631_" gradientUnits="userSpaceOnUse" x1="-973.6458" y1="104.5" x2="-973.6458" y2="112.147" gradientTransform="matrix(-1 0 0 -1 -961.2958 161)">
		<stop  offset="0" style="stop-color:#727272"/>
		<stop  offset="1" style="stop-color:#4C4C4C"/>
	</linearGradient>
	<path style="fill:url(#SVGID_00000047026475241265559670000012773648213774099631_);" d="M4.3,48.9h16.1c0,0,1.3,3.3,0,7.6H4.3
		C4.3,56.5,3,52.6,4.3,48.9z"/>
	
		<linearGradient id="SVGID_00000075844154010151198520000007672184388813837471_" gradientUnits="userSpaceOnUse" x1="-973.6458" y1="112.1399" x2="-973.6458" y2="127.997" gradientTransform="matrix(-1 0 0 -1 -961.2958 161)">
		<stop  offset="0" style="stop-color:#A0A0A0"/>
		<stop  offset="1" style="stop-color:#777777"/>
	</linearGradient>
	<path style="fill:url(#SVGID_00000075844154010151198520000007672184388813837471_);" d="M4.3,33h16.1c0,0,1.3,6.8,0,15.9H4.3
		C4.3,48.9,3,40.7,4.3,33z"/>
	
		<linearGradient id="SVGID_00000052091893599508072300000006981542789866459815_" gradientUnits="userSpaceOnUse" x1="-973.6458" y1="128" x2="-973.6458" y2="135.647" gradientTransform="matrix(-1 0 0 -1 -961.2958 161)">
		<stop  offset="0" style="stop-color:#F4F4F4"/>
		<stop  offset="1" style="stop-color:#BABABA"/>
	</linearGradient>
	<path style="fill:url(#SVGID_00000052091893599508072300000006981542789866459815_);" d="M4.3,25.4h16.1c0,0,1.3,3.3,0,7.6H4.3
		C4.3,33,3,29.1,4.3,25.4z"/>
</g>
<linearGradient id="SVGID_00000116926350587247131300000015572441423768582063_" gradientUnits="userSpaceOnUse" x1="-1102.4982" y1="113.3693" x2="-1102.972" y2="126.3397" gradientTransform="matrix(-1 0 0 -1 -1005.1812 161)">
	<stop  offset="0" style="stop-color:#999898"/>
	<stop  offset="0.1963" style="stop-color:#4F4F4F"/>
	<stop  offset="0.2507" style="stop-color:#5B5B5B"/>
	<stop  offset="0.3499" style="stop-color:#7C7C7C"/>
	<stop  offset="0.3704" style="stop-color:#848484"/>
	<stop  offset="0.433" style="stop-color:#878787"/>
	<stop  offset="0.5268" style="stop-color:#A0A0A0"/>
	<stop  offset="0.6843" style="stop-color:#C6C6C6"/>
	<stop  offset="0.9078" style="stop-color:#B7B7B7"/>
	<stop  offset="1" style="stop-color:#C6C6C6"/>
</linearGradient>
<path style="fill:url(#SVGID_00000116926350587247131300000015572441423768582063_);" d="M98.8,47.6c-1.1,0-2.1,0-3.2,0V34.7
	c1.1,0,2.1,0,3.2,0c-0.2,0.4-0.8,1.7-0.8,3.2c0,1.7,0.7,3.1,0.8,3.2c0.1,0.3,0.3,0.6,0.5,1.2c0.3,0.9,0.3,1.4,0.3,1.6
	c0,0.1,0,0.3,0,0.6c0,0,0,0.3,0,0.5c0,0.5-0.1,0.8-0.2,1.1C99.2,46.8,98.9,47.2,98.8,47.6z"/>
<linearGradient id="SVGID_00000041294205920885591520000011810116841231480719_" gradientUnits="userSpaceOnUse" x1="-1433.1864" y1="551.9028" x2="-1431.4786" y2="551.9028" gradientTransform="matrix(-1 0 0 1 -1335.2839 -510.7528)">
	<stop  offset="0" style="stop-color:#000000;stop-opacity:0"/>
	<stop  offset="0.3429" style="stop-color:#0A0A0A;stop-opacity:0.3341"/>
	<stop  offset="0.9264" style="stop-color:#252525;stop-opacity:0.9026"/>
	<stop  offset="1" style="stop-color:#292929;stop-opacity:0.9744"/>
</linearGradient>
<polygon style="opacity:0.28;fill:url(#SVGID_00000041294205920885591520000011810116841231480719_);enable-background:new    ;" points="
	96.2,34.7 97.9,34.7 97.9,47.6 96.2,47.6 "/>
<linearGradient id="SVGID_00000040549103016460967840000005530583252831459517_" gradientUnits="userSpaceOnUse" x1="-149.9083" y1="551.4528" x2="-147.5582" y2="551.4528" gradientTransform="matrix(1 0 0 1 225.5993 -510.7528)">
	<stop  offset="0" style="stop-color:#010101;stop-opacity:1.261298e-02"/>
	<stop  offset="0.371" style="stop-color:#0C0C0C;stop-opacity:0.3694"/>
	<stop  offset="1" style="stop-color:#292929;stop-opacity:0.9744"/>
</linearGradient>
<path style="opacity:0.28;fill:url(#SVGID_00000040549103016460967840000005530583252831459517_);enable-background:new    ;" d="
	M78,31.7c-0.4,0.1-0.7,0.1-1.1,0.1s-0.8,0.1-1.2,0.1c0,5.9,0,11.8,0,17.7c0.4,0,0.8,0,1.2,0c0.4,0,0.8,0.1,1.2,0.1
	C78,43.7,78,37.7,78,31.7z"/>
<linearGradient id="SVGID_00000034776833605538259160000008936355457499605134_" gradientUnits="userSpaceOnUse" x1="-1156.0215" y1="551.5028" x2="-1151.0107" y2="551.5028" gradientTransform="matrix(-1 0 0 1 -1078.296 -510.7528)">
	<stop  offset="0" style="stop-color:#000000;stop-opacity:0"/>
	<stop  offset="0.3429" style="stop-color:#0A0A0A;stop-opacity:0.3341"/>
	<stop  offset="0.9264" style="stop-color:#252525;stop-opacity:0.9026"/>
	<stop  offset="1" style="stop-color:#292929;stop-opacity:0.9744"/>
</linearGradient>
<path style="opacity:0.28;fill:url(#SVGID_00000034776833605538259160000008936355457499605134_);enable-background:new    ;" d="
	M72.7,31.6c0.7,0.1,1.5,0.1,2.3,0.2c1,0.1,1.9,0.1,2.7,0.1c0,5.9,0,11.8,0,17.7c-0.8,0-1.6,0-2.5,0.1c-0.9,0-1.8,0.1-2.5,0.2
	C72.7,43.8,72.7,37.7,72.7,31.6z"/>
<g>
	
		<linearGradient id="SVGID_00000165195324727073091190000014169129988012659585_" gradientUnits="userSpaceOnUse" x1="-1048.8458" y1="107.7675" x2="-1048.8458" y2="132.404" gradientTransform="matrix(-1 0 0 -1 -961.2958 161)">
		<stop  offset="2.234637e-02" style="stop-color:#1A1A1A"/>
		<stop  offset="0.9832" style="stop-color:#CCCCCC"/>
	</linearGradient>
	<polygon style="fill:url(#SVGID_00000165195324727073091190000014169129988012659585_);" points="78.9,53.2 96.2,53.2 96.2,28.6 
		78.9,28.6 	"/>
	
		<linearGradient id="SVGID_00000015318341250882700030000014988571394751040664_" gradientUnits="userSpaceOnUse" x1="-1048.8458" y1="104.476" x2="-1048.8458" y2="112.123" gradientTransform="matrix(-1 0 0 -1 -961.2958 161)">
		<stop  offset="0" style="stop-color:#727272"/>
		<stop  offset="1" style="stop-color:#4C4C4C"/>
	</linearGradient>
	<path style="fill:url(#SVGID_00000015318341250882700030000014988571394751040664_);" d="M79.5,48.9h16.1c0,0,1.3,3.3,0,7.6H79.5
		C79.5,56.5,78.2,52.6,79.5,48.9z"/>
	
		<linearGradient id="SVGID_00000103244872574624402570000012313251658392936340_" gradientUnits="userSpaceOnUse" x1="-1048.8458" y1="112.123" x2="-1048.8458" y2="127.9802" gradientTransform="matrix(-1 0 0 -1 -961.2958 161)">
		<stop  offset="0" style="stop-color:#A0A0A0"/>
		<stop  offset="1" style="stop-color:#777777"/>
	</linearGradient>
	<path style="fill:url(#SVGID_00000103244872574624402570000012313251658392936340_);" d="M79.5,33h16.1c0,0,1.3,6.8,0,15.9H79.5
		C79.5,48.9,78.2,40.7,79.5,33z"/>
	
		<linearGradient id="SVGID_00000077306888146338672960000003229668948826383254_" gradientUnits="userSpaceOnUse" x1="-1048.8458" y1="127.9802" x2="-1048.8458" y2="135.6272" gradientTransform="matrix(-1 0 0 -1 -961.2958 161)">
		<stop  offset="0" style="stop-color:#F4F4F4"/>
		<stop  offset="1" style="stop-color:#BABABA"/>
	</linearGradient>
	<path style="fill:url(#SVGID_00000077306888146338672960000003229668948826383254_);" d="M79.5,25.4h16.1c0,0,1.3,3.3,0,7.6H79.5
		C79.5,33,78.2,29.1,79.5,25.4z"/>
</g>
<linearGradient id="SVGID_00000071538084923230712580000015462808555406896560_" gradientUnits="userSpaceOnUse" x1="18.0421" y1="110.3633" x2="18.0421" y2="130.1723" gradientTransform="matrix(1 0 0 -1 60.7079 161)">
	<stop  offset="0" style="stop-color:#636363"/>
	<stop  offset="0.1983" style="stop-color:#444444"/>
	<stop  offset="0.2933" style="stop-color:#383838"/>
	<stop  offset="0.433" style="stop-color:#565656"/>
	<stop  offset="0.6732" style="stop-color:#E5E5E5"/>
	<stop  offset="0.9078" style="stop-color:#7F7E7E"/>
	<stop  offset="1" style="stop-color:#939292"/>
</linearGradient>
<path style="fill:url(#SVGID_00000071538084923230712580000015462808555406896560_);" d="M78.4,50.6c0.2-0.3,0.5-0.5,0.7-0.8
	c0-6.1,0-12.2,0-18.4c-0.2-0.2-0.5-0.5-0.7-0.7V50.6z"/>
<linearGradient id="SVGID_00000043446796324190244810000016854039828544269708_" gradientUnits="userSpaceOnUse" x1="-1064.7854" y1="110.3633" x2="-1064.7854" y2="130.1633" gradientTransform="matrix(-1 0 0 -1 -986.6854 161)">
	<stop  offset="0" style="stop-color:#7F7F7F"/>
	<stop  offset="0.1983" style="stop-color:#606060"/>
	<stop  offset="0.2933" style="stop-color:#545454"/>
	<stop  offset="0.433" style="stop-color:#757575"/>
	<stop  offset="0.6732" style="stop-color:#FFFFFF"/>
	<stop  offset="0.9078" style="stop-color:#9B9B9B"/>
	<stop  offset="1" style="stop-color:#B2B2B2"/>
</linearGradient>
<path style="fill:url(#SVGID_00000043446796324190244810000016854039828544269708_);" d="M78.4,50.6c-0.2-0.3-0.4-0.5-0.6-0.8
	c0-6.1,0-12.1,0-18.2c0.2-0.3,0.4-0.5,0.6-0.8V50.6z"/>
<linearGradient id="SVGID_00000034768212508698436730000015401795142009384088_" gradientUnits="userSpaceOnUse" x1="-908.6461" y1="111.1503" x2="-908.6461" y2="129.3923" gradientTransform="matrix(-1 0 0 -1 -884.1461 161)">
	<stop  offset="0" style="stop-color:#999898"/>
	<stop  offset="0.1963" style="stop-color:#4F4F4F"/>
	<stop  offset="0.2507" style="stop-color:#5B5B5B"/>
	<stop  offset="0.3499" style="stop-color:#7C7C7C"/>
	<stop  offset="0.3704" style="stop-color:#848484"/>
	<stop  offset="0.433" style="stop-color:#878787"/>
	<stop  offset="0.5974" style="stop-color:#D9D9D9"/>
	<stop  offset="0.6843" style="stop-color:#FFFFFF"/>
	<stop  offset="0.9078" style="stop-color:#B7B7B7"/>
	<stop  offset="1" style="stop-color:#C6C6C6"/>
</linearGradient>
<path style="fill:url(#SVGID_00000034768212508698436730000015401795142009384088_);" d="M21.6,49.8c0,0,2.8-0.6,5.8,0V31.6
	c0,0-2.4,0.6-5.8,0L21.6,49.8z"/>
<linearGradient id="SVGID_00000182505950773988070620000005868499860199935630_" gradientUnits="userSpaceOnUse" x1="-1134.1882" y1="551.4528" x2="-1131.8381" y2="551.4528" gradientTransform="matrix(-1 0 0 1 -1109.7454 -510.7528)">
	<stop  offset="0" style="stop-color:#010101;stop-opacity:1.261298e-02"/>
	<stop  offset="0.371" style="stop-color:#0C0C0C;stop-opacity:0.3694"/>
	<stop  offset="1" style="stop-color:#292929;stop-opacity:0.9744"/>
</linearGradient>
<path style="opacity:0.28;fill:url(#SVGID_00000182505950773988070620000005868499860199935630_);enable-background:new    ;" d="
	M22.1,31.7c0.4,0.1,0.7,0.1,1.1,0.1s0.8,0.1,1.2,0.1c0,5.9,0,11.8,0,17.7c-0.4,0-0.8,0-1.2,0c-0.4,0-0.8,0.1-1.2,0.1
	C22.1,43.7,22.1,37.7,22.1,31.7z"/>
<linearGradient id="SVGID_00000003807837748359125550000013038388073976062347_" gradientUnits="userSpaceOnUse" x1="-171.8973" y1="551.5028" x2="-166.7308" y2="551.5028" gradientTransform="matrix(1 0 0 1 194.1499 -510.7528)">
	<stop  offset="0" style="stop-color:#000000;stop-opacity:0"/>
	<stop  offset="0.3429" style="stop-color:#0A0A0A;stop-opacity:0.3341"/>
	<stop  offset="0.9264" style="stop-color:#252525;stop-opacity:0.9026"/>
	<stop  offset="1" style="stop-color:#292929;stop-opacity:0.9744"/>
</linearGradient>
<path style="opacity:0.28;fill:url(#SVGID_00000003807837748359125550000013038388073976062347_);enable-background:new    ;" d="
	M27.4,31.6c-0.7,0.1-1.5,0.1-2.4,0.2c-1,0.1-1.9,0.1-2.7,0.1c0,5.9,0,11.8,0,17.7c0.8,0,1.7,0,2.6,0.1c0.9,0,1.8,0.1,2.6,0.2
	C27.4,43.8,27.4,37.7,27.4,31.6z"/>
<linearGradient id="SVGID_00000114072868280782833910000001126855988675368120_" gradientUnits="userSpaceOnUse" x1="-992.3961" y1="110.3646" x2="-992.3961" y2="130.1736" gradientTransform="matrix(-1 0 0 -1 -971.1461 161)">
	<stop  offset="0" style="stop-color:#636363"/>
	<stop  offset="0.1983" style="stop-color:#444444"/>
	<stop  offset="0.2933" style="stop-color:#383838"/>
	<stop  offset="0.433" style="stop-color:#565656"/>
	<stop  offset="0.6732" style="stop-color:#E5E5E5"/>
	<stop  offset="0.9078" style="stop-color:#7F7E7E"/>
	<stop  offset="1" style="stop-color:#939292"/>
</linearGradient>
<path style="fill:url(#SVGID_00000114072868280782833910000001126855988675368120_);" d="M21.6,50.6c-0.2-0.3-0.5-0.5-0.7-0.8
	c0-6.1,0-12.2,0-18.4c0.2-0.2,0.5-0.5,0.7-0.7V50.6z"/>
<linearGradient id="SVGID_00000113327258362344782590000009449504933536904330_" gradientUnits="userSpaceOnUse" x1="-54.3472" y1="110.3646" x2="-54.3472" y2="130.1646" gradientTransform="matrix(1 0 0 -1 76.2472 161)">
	<stop  offset="0" style="stop-color:#7F7F7F"/>
	<stop  offset="0.1983" style="stop-color:#606060"/>
	<stop  offset="0.2933" style="stop-color:#545454"/>
	<stop  offset="0.433" style="stop-color:#757575"/>
	<stop  offset="0.6732" style="stop-color:#FFFFFF"/>
	<stop  offset="0.9078" style="stop-color:#9B9B9B"/>
	<stop  offset="1" style="stop-color:#B2B2B2"/>
</linearGradient>
<path style="fill:url(#SVGID_00000113327258362344782590000009449504933536904330_);" d="M21.6,50.6c0.2-0.3,0.4-0.5,0.6-0.8
	c0-6.1,0-12.1,0-18.2c-0.2-0.3-0.4-0.5-0.6-0.8V50.6z"/>
<linearGradient id="SVGID_00000029034873048514302770000004645375954413308578_" gradientUnits="userSpaceOnUse" x1="50.05" y1="106.0795" x2="50.05" y2="134.1381" gradientTransform="matrix(1 0 0 -1 0 161)">
	<stop  offset="0" style="stop-color:#7F7F7F"/>
	<stop  offset="0.1983" style="stop-color:#606060"/>
	<stop  offset="0.2933" style="stop-color:#545454"/>
	<stop  offset="0.433" style="stop-color:#757575"/>
	<stop  offset="0.6732" style="stop-color:#FFFFFF"/>
	<stop  offset="0.9078" style="stop-color:#9B9B9B"/>
	<stop  offset="1" style="stop-color:#B2B2B2"/>
</linearGradient>
<rect x="27.4" y="26.9" style="fill:url(#SVGID_00000029034873048514302770000004645375954413308578_);" width="45.3" height="28.1"/>
<path class="st23" d="M99.1,122c-0.1-0.3-0.1-0.3-0.2-0.9c0,0-0.1-0.4-0.2-0.8c-0.1-0.3-0.4-1.9-0.5-3.1c0-0.7,0-2,0.7-3.6
	c-0.4,0-0.8,0-1.3,0c-0.6,0-1.1,0-1.7,0l0,0l0,0c0-1.2,0.1-2.4,0.1-3.6c0-0.4,0-0.9,0-1.4c0-0.2,0-0.5-0.1-0.7v-0.1l0,0
	c-0.2-1.1-0.3-2.1-0.5-3.2l0,0c-5.4,0-10.9,0-16.3,0c-0.5,1.4-0.6,2.9-0.6,4.1v1.9c-0.2-0.2-0.4-0.4-0.6-0.6
	c-0.2,0.3-0.4,0.5-0.6,0.8c0,0,0,0,0,0.1c-0.2,0-0.4,0.1-0.6,0.1c-0.3,0-0.5,0-0.7,0.1c-0.4,0-0.9,0-1.3-0.1c-0.8,0-1.6-0.1-2.3-0.2
	v-4.7H27.1v4.7l0,0l0,0c-0.7,0.1-1.5,0.1-2.4,0.2c-0.4,0-0.9,0-1.3,0.1c-0.2,0-0.5,0-0.7-0.1c-0.3,0-0.5-0.1-0.8-0.1l0,0
	c-0.2-0.3-0.4-0.5-0.6-0.8c-0.2,0.2-0.5,0.4-0.7,0.7v-2c0-0.3,0-0.6,0-0.9l0,0l0,0c-0.1-2-0.6-3.2-0.6-3.2H4
	c-0.5,1.4-0.6,2.9-0.6,4.1c0,1.6,0,3.2,0,4.7c-0.4,0-0.9,0-1.3,0s-0.9,0-1.3,0c0.5,1.1,0.6,2,0.7,2.6c0.1,1.2-0.1,2.2-0.2,2.6
	s-0.2,1-0.3,1.2c-0.1,0.6-0.2,0.7-0.3,1.4c0,0.2-0.3,1.3-0.3,1.7c0,0,0,0.4,0,0.6c0,0,0,0.3,0,0.5c0,0.3,0.2,0.9,0.2,1.1
	c0.1,0.2,0.1,0.6,0.2,1c0.1,0,0.9,0,1,0c0.2,0,1.3,0,1.5,0c0,1.6,0,3.1,0,4.7c0,0.5,0,0.9,0,1.3l0,0l0,0c0.1,1.9,0.6,3.3,0.6,3.3H20
	c0.1-0.4,0.3-1,0.5-1.7c0.2-1,0.2-1.7,0.2-2.9c0-0.5,0-1.2-0.1-2c0.2,0.2,0.5,0.5,0.7,0.7c0.2-0.3,0.4-0.5,0.6-0.8c0,0,0,0,0-0.1
	c0.3,0,0.8-0.1,1.4-0.1c0.4,0,0.8,0,1.2,0c0.9,0,1.8,0.1,2.6,0.2l0,0l0,0v5.1h45.3v-5.1c0.8-0.1,1.6-0.1,2.5-0.2c0.4,0,0.8,0,1.2,0
	c0.5,0,0.9,0.1,1.3,0.1v0.1c0.2,0.3,0.4,0.5,0.6,0.8c0.2-0.2,0.4-0.4,0.6-0.6v1.9c0,0.5,0,0.9,0,1.3l0,0l0,0
	c0.1,1.9,0.6,3.3,0.6,3.3c5.4,0,10.9,0,16.3,0c0.1-0.2,0.1-0.4,0.2-0.7c0.1-0.5,0.2-1,0.3-1.4c0-0.4,0.1-0.7,0.1-1.1
	c0-1.1,0-2.2,0-3.3c0-0.9,0-1.9,0-2.8c0.5,0,1.5,0,1.5,0c0.1,0,1.2,0,1.3,0c0.1-0.4,0.2-0.8,0.2-1c0.1-0.2,0.2-0.8,0.2-1.1
	c0-0.2,0-0.5,0-0.5c0-0.2,0-0.6,0-0.6C99.3,122.8,99.2,122.2,99.1,122z"/>
<linearGradient id="SVGID_00000139251342131640164710000008876683227746393234_" gradientUnits="userSpaceOnUse" x1="11.4" y1="33.3" x2="11.4" y2="33.3" gradientTransform="matrix(1 0 0 -1 0 161)">
	<stop  offset="0" style="stop-color:#808285"/>
	<stop  offset="0.2039" style="stop-color:#424244"/>
	<stop  offset="0.3035" style="stop-color:#464648"/>
	<stop  offset="0.4018" style="stop-color:#525253"/>
	<stop  offset="0.4888" style="stop-color:#636363"/>
	<stop  offset="0.6229" style="stop-color:#666666"/>
	<stop  offset="0.7905" style="stop-color:#959696"/>
	<stop  offset="0.8351" style="stop-color:#747575"/>
	<stop  offset="0.919" style="stop-color:#919191"/>
	<stop  offset="1" style="stop-color:#676868"/>
</linearGradient>
<path style="fill:url(#SVGID_00000139251342131640164710000008876683227746393234_);" d="M11.4,127.7"/>
<linearGradient id="SVGID_00000024681615516933605340000003370178530527606458_" gradientUnits="userSpaceOnUse" x1="16.5" y1="50.1" x2="16.5" y2="50.1" gradientTransform="matrix(1 0 0 -1 0 161)">
	<stop  offset="0" style="stop-color:#444444"/>
	<stop  offset="8.097430e-02" style="stop-color:#5B5B5B"/>
	<stop  offset="0.2486" style="stop-color:#3A3A3A"/>
	<stop  offset="0.3205" style="stop-color:#3E3E3E"/>
	<stop  offset="0.3898" style="stop-color:#494949"/>
	<stop  offset="0.458" style="stop-color:#5D5D5D"/>
	<stop  offset="0.4832" style="stop-color:#666666"/>
	<stop  offset="0.6844" style="stop-color:#474747"/>
	<stop  offset="0.8352" style="stop-color:#636363"/>
</linearGradient>
<path style="fill:url(#SVGID_00000024681615516933605340000003370178530527606458_);" d="M16.5,110.9"/>
<linearGradient id="SVGID_00000029746668958949777730000008667815307436828351_" gradientUnits="userSpaceOnUse" x1="16.5" y1="657.8502" x2="16.5" y2="657.8502" gradientTransform="matrix(1 0 0 1 0 -529.0502)">
	<stop  offset="0" style="stop-color:#444444"/>
	<stop  offset="8.097430e-02" style="stop-color:#5B5B5B"/>
	<stop  offset="0.2486" style="stop-color:#3A3A3A"/>
	<stop  offset="0.3205" style="stop-color:#3E3E3E"/>
	<stop  offset="0.3898" style="stop-color:#494949"/>
	<stop  offset="0.458" style="stop-color:#5D5D5D"/>
	<stop  offset="0.4832" style="stop-color:#666666"/>
	<stop  offset="0.6844" style="stop-color:#474747"/>
	<stop  offset="0.8352" style="stop-color:#636363"/>
</linearGradient>
<path style="fill:url(#SVGID_00000029746668958949777730000008667815307436828351_);" d="M16.5,128.8"/>
<path class="st27" d="M2.5,117.9c0.3-1.2,0.3-2.3,0.2-2.9s-0.2-1.6-0.6-2.6c0.3,0,0.5,0,0.8,0s0.5,0,0.8,0c-0.1-3.3-0.2-4.5-0.1-4.7
	c0,0,0.1-0.4,0.1-0.8v-0.1c0.1-0.5,0.2-1,0.3-1.5l0.2-1.7h16.2c0.5,1.4,0.6,2.9,0.6,4.1c0,0.5,0,1,0,1.6c-0.2-0.4-0.5-0.8-0.7-1.2
	c-0.2,0.5-0.5,0.9-0.7,1.4c-0.3-0.5-0.5-0.9-0.8-1.4c-0.2,0.5-0.5,0.9-0.7,1.4c-0.3-0.5-0.5-0.9-0.8-1.4c-0.2,0.4-0.5,0.9-0.7,1.3
	c-0.3-0.4-0.6-0.9-0.9-1.3c-0.2,0.5-0.4,1-0.6,1.5c-0.6,0.4-1.2,0.7-1.8,1.1c0.1,5.8,0.1,11.7,0.2,17.5c0.5,0,1,0,1.5,0
	c0.2,0.5,0.4,1,0.6,1.5c0.3-0.4,0.6-0.9,0.9-1.3c0.2,0.4,0.5,0.9,0.7,1.3c0.3-0.5,0.5-0.9,0.8-1.4c0.2,0.5,0.5,0.9,0.7,1.4
	c0.3-0.5,0.5-0.9,0.8-1.4c0.2,0.5,0.5,0.9,0.7,1.4c0.3-0.6,0.6-1.2,0.9-1.8c0,0.7,0,1.5-0.1,2.2c0,0.5,0,0.9,0,1.3l0,0l0,0
	c-0.1,1.9-0.6,3.3-0.6,3.3H4.1c-0.3-1.2-0.5-2.3-0.5-3.3l0,0c0-2,0.1-4.1,0.1-6.1c-0.3,0-0.6,0-0.9,0c-0.2,0-0.4,0-0.6,0
	c0-0.2-0.1-0.3-0.1-0.4c-0.1-0.4-0.1-0.5-0.2-0.8c0-0.1,0-0.2-0.1-0.4c0-0.3-0.1-0.5-0.1-0.5c0-0.2-0.1-0.8,0-1.5
	c0-0.4,0.1-1.1,0.3-1.9C2.2,118.7,2.3,118.6,2.5,117.9z"/>
<path class="st28" d="M10.5,126.8c-0.3-0.4-1-1.2-2.1-1.5c-0.2-0.1-0.4-0.1-0.6-0.1c0.7,0.6,1.4,1.2,2.1,1.7c0,0.2,0,0.4,0,0.6l0,0
	c0,0.2,0,0.7,0,0.7l0,0l0,0c0.1,0,0.2,0,0.3,0c0.3,0,0.7,0,1,0c0.2,0,0.5,0,0.7,0c0.1,0,0.1,0,0.1,0s0.7,0.8,1,1.2
	c0.2-0.4,0.5-0.8,0.7-1.2l0.8,1.5l0.7-1.5c-0.2-0.2-0.4-0.3-0.7-0.5c0-0.6,0-1.2,0-1.9c-0.2,0-0.4-0.1-0.6-0.1
	C12.8,126.1,11.6,126.5,10.5,126.8z"/>
<path class="st29" d="M2.1,114.2"/>
<g>
	<defs>
		<path id="SVGID_00000100378042425053195210000014749585757123016335_" d="M22.7,125.5v-1.4c-7.3,0-14.5,0-21.8,0
			c0,0.2,0.1,0.4,0.1,0.5c0.1,0.3,0.1,0.6,0.2,0.9C8.4,125.5,15.5,125.5,22.7,125.5z"/>
	</defs>
	<clipPath id="SVGID_00000132072117648327414470000016274716086165249212_">
		<use xlink:href="#SVGID_00000100378042425053195210000014749585757123016335_"  style="overflow:visible;"/>
	</clipPath>
	<g style="clip-path:url(#SVGID_00000132072117648327414470000016274716086165249212_);">
		
			<image style="overflow:visible;" width="600" height="600" xlink:href="../../background.jpg"  transform="matrix(-6.383296e-02 0 0 -5.249311e-02 27.4231 130.3734)">
		</image>
	</g>
</g>
<path class="st30" d="M20.9,109.5l-0.7-1.3l-0.7,1.4l-0.7-1.4l-0.7,1.4l-0.8-1.4l-0.7,1.3l-0.8-1.3c-0.2,0.5-0.4,1-0.6,1.5l0,0"/>
<rect x="15.1" y="109.6" class="st31" width="0.1" height="0.2"/>
<path d="M22.7,132.8"/>
<path class="st23" d="M11.8,110.7"/>
<path class="st28" d="M13,109.4"/>
<path class="st28" d="M12.8,110.5"/>
<path class="st32" d="M8.3,112.3"/>
<path class="st23" d="M15.3,111.5"/>
<path class="st28" d="M10.5,111.2c-0.3,0.4-1,1.2-2.1,1.5c-0.2,0.1-0.4,0.1-0.6,0.1c0.7-0.6,1.4-1.2,2.1-1.7c0-0.2,0-0.4,0-0.6l0,0
	c0-0.2,0-0.7,0-0.7l0,0l0,0c0.1,0,0.2,0,0.3,0c0.3,0,0.7,0,1,0c0.2,0,0.5,0,0.7,0c0.1,0,0.1,0,0.1,0s0.7-0.8,1-1.2
	c0.2,0.4,0.5,0.8,0.7,1.2l0.8-1.5l0.7,1.5c-0.2,0.2-0.4,0.3-0.7,0.5c0,0.6,0,1.2,0,1.9c-0.2,0-0.4,0.1-0.6,0.1
	C12.8,111.8,11.6,111.5,10.5,111.2z"/>
<polygon class="st31" points="18.2,112.1 20.6,112.7 18.2,112.7 "/>
<path class="st23" d="M17.6,112.6c-0.3,0-0.5,0-0.8,0c0.3,0.1,0.5,0.3,0.8,0.4C17.6,112.8,17.6,112.7,17.6,112.6z"/>
<path class="st23" d="M16.6,112.6c-0.3,0-0.5,0-0.8,0c0.3,0.1,0.5,0.3,0.8,0.4C16.6,112.8,16.6,112.7,16.6,112.6z"/>
<path class="st23" d="M8.9,125.5c0,0-0.2,0-0.3,0.1l-0.1,0.1c-0.1,0.2,0,0.3,0.1,0.4l0,0c0,0,0.4,0.3,0.6,0.5
	c0.2,0.2,0.5,0.4,0.9,0.7c0.5,0,0.9,0,1.1,0c0,0,0.7,0,0.8,0c0,0,0,0,0.1,0c0,0,0,0,0.1,0l0,0l0,0l0,0l0,0l0,0l0,0l0,0l0,0
	c0,0,0,0,0-0.1c0,0,0-0.1,0-0.2c0-0.2,0-0.2,0-0.2l0,0c0-0.1,0.1-0.2,0.1-0.2l0.1-0.1c0.1-0.1,0.3,0,0.4,0c0.1,0,0.2,0,0.3,0
	c0,0,0.2,0,0.6,0c1.5,0,1.5,0,1.5,0s1.8-0.4,3-0.6l0,0l0,0c0-0.3,0-0.4,0-0.5l0,0l0,0c-0.4,0-0.6,0-0.6,0c0-0.2,0-0.3,0-0.3
	l-0.5,0.3c0,0-0.2,0-0.3,0c0,0-0.1,0-0.2,0c0-0.2,0-0.3,0-0.3s-0.2,0.1-0.5,0.3c-1,0-2,0-3,0C11.6,125.5,10.3,125.5,8.9,125.5z"/>
<polygon class="st31" points="18.2,126 20.6,125.5 18.2,125.5 "/>
<path class="st30" d="M21.1,128c-0.3,0.6-0.6,1.2-0.9,1.8l-0.7-1.4l-0.8,1.4l-0.7-1.4l-0.8,1.4l-0.7-1.3l-0.8,1.3
	c-0.2-0.5-0.3-1-0.5-1.5c-0.1,0-0.2,0-0.3,0"/>
<polygon class="st31" points="15.3,128.9 15.4,128.9 15.4,128 14.4,128 14.4,128.9 "/>
<path class="st23" d="M22.7,125.5v-1.4c-7.3,0-14.6,0-21.9,0c0,0.2,0.1,0.4,0.1,0.5c0.1,0.3,0.2,0.6,0.2,0.9
	C8.3,125.5,15.5,125.5,22.7,125.5z"/>
<g>
	<defs>
		<path id="SVGID_00000069357779617090266560000003866213991058422181_" d="M22.7,112.6v1.4c-7,0-14,0-21.1,0
			c-0.1-0.2-0.1-0.4-0.2-0.5c-0.1-0.3-0.2-0.6-0.4-0.9C8.3,112.6,15.5,112.6,22.7,112.6z"/>
	</defs>
	<clipPath id="SVGID_00000061431272500305411780000005587017492068771987_">
		<use xlink:href="#SVGID_00000069357779617090266560000003866213991058422181_"  style="overflow:visible;"/>
	</clipPath>
	<g style="clip-path:url(#SVGID_00000061431272500305411780000005587017492068771987_);">
		
			<image style="overflow:visible;" width="600" height="600" xlink:href="../../background.jpg"  transform="matrix(-5.249311e-02 0 0 -5.249311e-02 28.0103 142.6375)">
		</image>
	</g>
</g>
<path class="st23" d="M8.9,112.6c-0.1,0-0.2,0-0.3-0.1l-0.1-0.1c-0.1-0.2,0-0.3,0.1-0.4c0,0,0.4-0.3,0.6-0.5
	c0.2-0.2,0.5-0.4,0.9-0.7c0.5,0,0.9,0,1.1,0c0,0,0.7,0,0.8,0c0,0,0,0,0.1,0c0,0,0,0,0.1,0l0,0l0,0l0,0l0,0l0,0l0,0l0,0l0,0
	c0,0,0,0,0,0.1c0,0,0,0.1,0,0.2c0,0.2,0,0.2,0,0.2l0,0c0,0.1,0.1,0.2,0.1,0.2l0.1,0.1c0.1,0.1,0.3,0,0.4,0c0.1,0,0.2,0,0.3,0
	c0,0,0.2,0,0.6,0c1.5,0,1.5,0,1.5,0s1.8,0.4,3,0.6l0,0l0,0c0,0.3,0,0.4,0,0.5l0,0l0,0c-0.2,0-0.4,0-0.6,0l0,0c0,0.2,0,0.4,0,0.7
	c-0.2-0.2-0.5-0.4-0.7-0.7l0,0l0,0l0,0c-0.1,0-0.3,0-0.4,0c0,0.2,0,0.4,0,0.7c-0.2-0.2-0.5-0.4-0.7-0.7l0,0c-0.5,0-0.9,0-1.1,0
	c-0.1,0-0.3,0-0.6,0c-0.1,0-0.3,0-0.4,0c-0.3,0-0.5,0-0.7,0s-0.5,0-0.7,0h-1.4C10.8,112.6,9.3,112.6,8.9,112.6z"/>
<g>
	<defs>
		<path id="SVGID_00000115505966830300238580000004528241087219295127_" d="M8.9,112.5c-0.1,0-0.2,0-0.3-0.1l-0.1-0.1
			c-0.1-0.2,0-0.3,0.1-0.4c0,0,0.4-0.3,0.6-0.5c0.2-0.2,0.5-0.4,0.9-0.7c0.5,0,0.9,0,1.1,0c0,0,0.7,0,0.8,0c0,0,0,0,0.1,0
			c0,0,0,0,0.1,0l0,0l0,0l0,0l0,0l0,0l0,0l0,0l0,0c0,0,0,0,0,0.1c0,0,0,0.1,0,0.2c0,0.2,0,0.2,0,0.2l0,0c0,0.1,0.1,0.2,0.1,0.2
			l0.1,0.1c0.1,0.1,0.3,0,0.4,0c0.1,0,0.2,0,0.3,0c0,0,0.2,0,0.6,0c1.5,0,1.5,0,1.5,0s1.8,0.4,3,0.6l0,0l0,0c0,0.3,0,0.4,0,0.5l0,0
			l0,0c-0.2,0-0.4,0-0.6,0l0,0c0,0.2,0,0.4,0,0.7c-0.2-0.2-0.5-0.4-0.7-0.7l0,0l0,0l0,0c-0.1,0-0.3,0-0.4,0c0,0.2,0,0.4,0,0.7
			c-0.2-0.2-0.5-0.4-0.7-0.7l0,0c-0.5,0-0.9,0-1.1,0c-0.1,0-0.3,0-0.6,0c-0.1,0-0.3,0-0.4,0c-0.3,0-0.5,0-0.7,0s-0.5,0-0.7,0h-1.4
			C10.8,112.5,9.3,112.5,8.9,112.5z"/>
	</defs>
	<clipPath id="SVGID_00000058552893698384398430000011007358456763820691_">
		<use xlink:href="#SVGID_00000115505966830300238580000004528241087219295127_"  style="overflow:visible;"/>
	</clipPath>
	<g style="clip-path:url(#SVGID_00000058552893698384398430000011007358456763820691_);">
		
			<image style="overflow:visible;" width="600" height="600" xlink:href="../../background.jpg"  transform="matrix(2.981742e-02 0 0 2.930246e-02 7.6826 102.0249)">
		</image>
	</g>
</g>
<path class="st23" d="M8.8,125.5c-0.1,0-0.2,0-0.3,0.1l-0.1,0.1c-0.1,0.2,0,0.3,0.1,0.4c0,0,0.4,0.3,0.6,0.5
	c0.2,0.2,0.5,0.4,0.9,0.7c0.5,0,0.9,0,1.1,0c0,0,0.7,0,0.8,0c0,0,0,0,0.1,0c0,0,0,0,0.1,0l0,0l0,0l0,0l0,0l0,0l0,0l0,0l0,0
	c0,0,0,0,0-0.1c0,0,0-0.1,0-0.2c0-0.2,0-0.2,0-0.2l0,0c0-0.1,0.1-0.2,0.1-0.2l0.1-0.1c0.1-0.1,0.3,0,0.4,0c0.1,0,0.2,0,0.3,0
	c0,0,0.2,0,0.6,0c1.5,0,1.5,0,1.5,0s1.8-0.4,3-0.6l0,0l0,0c0-0.3,0-0.4,0-0.5l0,0l0,0c-0.2,0-0.4,0-0.6,0l0,0c0-0.2,0-0.4,0-0.7
	c-0.2,0.2-0.5,0.4-0.7,0.7l0,0l0,0l0,0c-0.1,0-0.3,0-0.4,0c0-0.2,0-0.4,0-0.7c-0.2,0.2-0.5,0.4-0.7,0.7l0,0c-0.5,0-0.9,0-1.1,0
	c-0.1,0-0.3,0-0.6,0c-0.1,0-0.3,0-0.4,0c-0.3,0-0.5,0-0.7,0s-0.5,0-0.7,0h-1.4C10.8,125.5,9.3,125.5,8.8,125.5z"/>
<linearGradient id="SVGID_00000093884014983273839820000002984641919269065114_" gradientUnits="userSpaceOnUse" x1="-798.0131" y1="33.3" x2="-798.0131" y2="33.3" gradientTransform="matrix(-1 0 0 -1 -709.4131 161)">
	<stop  offset="0" style="stop-color:#808285"/>
	<stop  offset="0.2039" style="stop-color:#424244"/>
	<stop  offset="0.3035" style="stop-color:#464648"/>
	<stop  offset="0.4018" style="stop-color:#525253"/>
	<stop  offset="0.4888" style="stop-color:#636363"/>
	<stop  offset="0.6229" style="stop-color:#666666"/>
	<stop  offset="0.7905" style="stop-color:#959696"/>
	<stop  offset="0.8351" style="stop-color:#747575"/>
	<stop  offset="0.919" style="stop-color:#919191"/>
	<stop  offset="1" style="stop-color:#676868"/>
</linearGradient>
<path style="fill:url(#SVGID_00000093884014983273839820000002984641919269065114_);" d="M88.6,127.7"/>
<linearGradient id="SVGID_00000031927473653606772050000018122318051976874938_" gradientUnits="userSpaceOnUse" x1="-792.9131" y1="50.1" x2="-792.9131" y2="50.1" gradientTransform="matrix(-1 0 0 -1 -709.4131 161)">
	<stop  offset="0" style="stop-color:#444444"/>
	<stop  offset="8.097430e-02" style="stop-color:#5B5B5B"/>
	<stop  offset="0.2486" style="stop-color:#3A3A3A"/>
	<stop  offset="0.3205" style="stop-color:#3E3E3E"/>
	<stop  offset="0.3898" style="stop-color:#494949"/>
	<stop  offset="0.458" style="stop-color:#5D5D5D"/>
	<stop  offset="0.4832" style="stop-color:#666666"/>
	<stop  offset="0.6844" style="stop-color:#474747"/>
	<stop  offset="0.8352" style="stop-color:#636363"/>
</linearGradient>
<path style="fill:url(#SVGID_00000031927473653606772050000018122318051976874938_);" d="M83.5,110.9"/>
<linearGradient id="SVGID_00000023269912309681452450000000602647158237033611_" gradientUnits="userSpaceOnUse" x1="-792.9131" y1="657.8502" x2="-792.9131" y2="657.8502" gradientTransform="matrix(-1 0 0 1 -709.4131 -529.0502)">
	<stop  offset="0" style="stop-color:#444444"/>
	<stop  offset="8.097430e-02" style="stop-color:#5B5B5B"/>
	<stop  offset="0.2486" style="stop-color:#3A3A3A"/>
	<stop  offset="0.3205" style="stop-color:#3E3E3E"/>
	<stop  offset="0.3898" style="stop-color:#494949"/>
	<stop  offset="0.458" style="stop-color:#5D5D5D"/>
	<stop  offset="0.4832" style="stop-color:#666666"/>
	<stop  offset="0.6844" style="stop-color:#474747"/>
	<stop  offset="0.8352" style="stop-color:#636363"/>
</linearGradient>
<path style="fill:url(#SVGID_00000023269912309681452450000000602647158237033611_);" d="M83.5,128.8"/>
<path class="st28" d="M89.5,126.9c0.3-0.4,1-1.2,2.1-1.5c0.2-0.1,0.4-0.1,0.6-0.1c-0.7,0.6-1.4,1.2-2.1,1.7c0,0.2,0,0.4,0,0.6l0,0
	c0,0.2,0,0.7,0,0.7l0,0l0,0c-0.1,0-0.2,0-0.3,0c-0.3,0-0.7,0-1,0c-0.2,0-0.5,0-0.7,0c-0.1,0-0.1,0-0.1,0s-0.7,0.8-1,1.2
	c-0.2-0.4-0.5-0.8-0.7-1.2l-0.8,1.5l-0.7-1.5c0.2-0.2,0.4-0.3,0.7-0.5c0-0.6,0-1.2,0-1.9c0.2,0,0.4-0.1,0.6-0.1
	C87.2,126.2,88.4,126.6,89.5,126.9z"/>
<path class="st27" d="M97.5,118c-0.3-1.2-0.3-2.3-0.2-2.9c0.1-0.6,0.2-1.6,0.6-2.6c-0.3,0-0.5,0-0.8,0s-0.5,0-0.8,0
	c0.1-3.3,0.2-4.5,0.1-4.7c0,0-0.1-0.4-0.1-0.8v-0.1c-0.1-0.5-0.2-1-0.3-1.5l-0.2-1.7H79.7c-0.5,1.4-0.6,2.9-0.6,4.1c0,0.5,0,1,0,1.6
	c0.2-0.4,0.5-0.8,0.7-1.2c0.2,0.5,0.5,0.9,0.7,1.4c0.3-0.5,0.5-0.9,0.8-1.4c0.2,0.5,0.5,0.9,0.7,1.4c0.3-0.5,0.5-0.9,0.8-1.4
	c0.2,0.4,0.5,0.9,0.7,1.3c0.3-0.4,0.6-0.9,0.9-1.3c0.2,0.5,0.4,1,0.6,1.5c0.6,0.4,1.2,0.7,1.8,1.1c-0.1,5.8-0.1,11.7-0.2,17.5
	c-0.5,0-1,0-1.5,0c-0.2,0.5-0.4,1-0.6,1.5c-0.3-0.4-0.6-0.9-0.9-1.3c-0.2,0.4-0.5,0.9-0.7,1.3c-0.3-0.5-0.5-0.9-0.8-1.4
	c-0.2,0.5-0.5,0.9-0.7,1.4c-0.3-0.5-0.5-0.9-0.8-1.4c-0.2,0.5-0.5,0.9-0.7,1.4c-0.3-0.6-0.6-1.2-0.9-1.8c0,0.7,0,1.5,0.1,2.2
	c0,0.5,0,0.9,0,1.3l0,0l0,0c0.1,1.9,0.6,3.3,0.6,3.3h16.2c0.3-1.2,0.5-2.3,0.5-3.3l0,0c0-2-0.1-4.1-0.1-6.1c0.3,0,0.6,0,0.9,0
	c0.2,0,0.4,0,0.6,0c0-0.2,0.1-0.3,0.1-0.4c0.1-0.4,0.1-0.5,0.2-0.8c0-0.1,0-0.2,0.1-0.4c0-0.3,0.1-0.5,0.1-0.5c0-0.2,0.1-0.8,0-1.5
	c0-0.4-0.1-1.1-0.3-1.9C97.8,118.8,97.7,118.7,97.5,118z"/>
<g>
	<defs>
		<path id="SVGID_00000045612060548299464380000006885407019648408747_" d="M77.3,125.5v-1.4c7.5,0,14.8,0,22.3,0
			c0,0.2-0.1,0.4-0.1,0.5c-0.1,0.3-0.1,0.6-0.2,0.9C91.8,125.5,84.6,125.5,77.3,125.5z"/>
	</defs>
	<clipPath id="SVGID_00000121991566042559668710000004705339492408709774_">
		<use xlink:href="#SVGID_00000045612060548299464380000006885407019648408747_"  style="overflow:visible;"/>
	</clipPath>
	<g style="clip-path:url(#SVGID_00000121991566042559668710000004705339492408709774_);">
		
			<image style="overflow:visible;" width="600" height="600" xlink:href="../../background.jpg"  transform="matrix(4.003974e-18 5.249311e-02 -6.538985e-02 3.214276e-18 115.7892 117.873)">
		</image>
	</g>
</g>
<path class="st30" d="M79,109.5l0.8-1.3l0.7,1.4l0.8-1.4l0.7,1.4l0.8-1.4l0.7,1.3l0.8-1.3c0.2,0.5,0.4,1,0.6,1.5l0,0"/>
<rect x="84.8" y="109.6" class="st31" width="0.1" height="0.2"/>
<path d="M77.3,132.8"/>
<path class="st23" d="M88.2,110.7"/>
<path class="st28" d="M87,109.4"/>
<path class="st28" d="M87.2,110.5"/>
<path class="st32" d="M91.7,112.3"/>
<path class="st23" d="M84.7,111.5"/>
<path class="st28" d="M89.5,111.3c0.3,0.4,1,1.2,2.1,1.5c0.2,0.1,0.4,0.1,0.6,0.1c-0.7-0.6-1.4-1.2-2.1-1.7c0-0.2,0-0.4,0-0.6l0,0
	c0-0.2,0-0.7,0-0.7l0,0l0,0c-0.1,0-0.2,0-0.3,0c-0.3,0-0.7,0-1,0c-0.2,0-0.5,0-0.7,0c-0.1,0-0.1,0-0.1,0s-0.7-0.8-1-1.2
	c-0.2,0.4-0.5,0.8-0.7,1.2l-0.8-1.5l-0.7,1.5c0.2,0.2,0.4,0.3,0.7,0.5c0,0.6,0,1.2,0,1.9c0.2,0,0.4,0.1,0.6,0.1
	C87.2,111.9,88.4,111.6,89.5,111.3z"/>
<polygon class="st31" points="81.9,112.2 79.4,112.8 81.9,112.8 "/>
<path class="st23" d="M82.4,112.6c0.3,0,0.5,0,0.8,0c-0.3,0.1-0.5,0.3-0.8,0.4C82.4,112.8,82.4,112.7,82.4,112.6z"/>
<path class="st23" d="M83.4,112.6c0.3,0,0.5,0,0.8,0c-0.3,0.1-0.5,0.3-0.8,0.4C83.4,112.8,83.4,112.7,83.4,112.6z"/>
<path class="st23" d="M91.1,125.5c0,0,0.2,0,0.3,0.1l0.1,0.1c0.1,0.2,0,0.3-0.1,0.4l0,0c0,0-0.4,0.3-0.6,0.5s-0.5,0.4-0.9,0.7
	c-0.5,0-0.9,0-1.1,0c0,0-0.7,0-0.8,0c0,0,0,0-0.1,0c0,0,0,0-0.1,0l0,0l0,0l0,0l0,0l0,0l0,0l0,0l0,0c0,0,0,0,0-0.1c0,0,0-0.1,0-0.2
	c0-0.2,0-0.2,0-0.2l0,0c0-0.1-0.1-0.2-0.1-0.2l-0.1-0.1c-0.1-0.1-0.3,0-0.4,0s-0.2,0-0.3,0c0,0-0.2,0-0.6,0c-1.5,0-1.5,0-1.5,0
	s-1.8-0.4-3-0.6l0,0l0,0c0-0.3,0-0.4,0-0.5l0,0l0,0c0.4,0,0.6,0,0.6,0c0-0.2,0-0.3,0-0.3l0.5,0.3c0,0,0.2,0,0.3,0c0,0,0.1,0,0.2,0
	c0-0.2,0-0.3,0-0.3s0.2,0.1,0.5,0.3c1,0,2,0,3,0C88.3,125.5,89.7,125.5,91.1,125.5z"/>
<polygon class="st31" points="81.8,125.9 79.4,125.4 81.8,125.4 "/>
<path class="st30" d="M78.9,128c0.3,0.6,0.6,1.2,0.9,1.8l0.7-1.4l0.8,1.4l0.7-1.4l0.8,1.4l0.7-1.3l0.8,1.3c0.2-0.5,0.3-1,0.5-1.5
	c0.1,0,0.2,0,0.3,0"/>
<polygon class="st31" points="84.8,129 84.7,129 84.7,128 85.6,128 85.6,129 "/>
<path class="st23" d="M77.4,125.5v-1.4c7.4,0,14.7,0,22.1,0c0,0.2-0.1,0.4-0.1,0.5c-0.1,0.3-0.2,0.6-0.2,0.9
	C91.8,125.5,84.6,125.5,77.4,125.5z"/>
<g>
	<defs>
		<path id="SVGID_00000006699755054077832310000013604817579957141913_" d="M77.4,112.6v1.4c7.1,0,14.2,0,21.3,0
			c0.1-0.2,0.1-0.4,0.2-0.5c0.1-0.3,0.2-0.6,0.4-0.9C91.9,112.6,84.6,112.6,77.4,112.6z"/>
	</defs>
	<clipPath id="SVGID_00000151505795791613625880000000022299459892403619_">
		<use xlink:href="#SVGID_00000006699755054077832310000013604817579957141913_"  style="overflow:visible;"/>
	</clipPath>
	
		<g transform="matrix(1 0 0 1 0 7.629395e-06)" style="clip-path:url(#SVGID_00000151505795791613625880000000022299459892403619_);">
		
			<image style="overflow:visible;" width="600" height="600" xlink:href="../../background.jpg"  transform="matrix(3.214276e-18 5.249311e-02 -5.249311e-02 3.214276e-18 106.6897 108.8568)">
		</image>
	</g>
</g>
<path class="st23" d="M91.2,112.6c0.1,0,0.2,0,0.3-0.1l0.1-0.1c0.1-0.2,0-0.3-0.1-0.4c0,0-0.4-0.3-0.6-0.5s-0.5-0.4-0.9-0.7
	c-0.5,0-0.9,0-1.1,0c0,0-0.7,0-0.8,0c0,0,0,0-0.1,0c0,0,0,0-0.1,0l0,0l0,0l0,0l0,0l0,0l0,0l0,0l0,0c0,0,0,0,0,0.1c0,0,0,0.1,0,0.2
	c0,0.2,0,0.2,0,0.2l0,0c0,0.1-0.1,0.2-0.1,0.2l-0.1,0.1c-0.1,0.1-0.3,0-0.4,0s-0.2,0-0.3,0c0,0-0.2,0-0.6,0c-1.5,0-1.5,0-1.5,0
	s-1.8,0.4-3,0.6l0,0l0,0c0,0.3,0,0.4,0,0.5l0,0l0,0c0.2,0,0.4,0,0.6,0l0,0c0,0.2,0,0.4,0,0.7c0.2-0.2,0.5-0.4,0.7-0.7l0,0l0,0l0,0
	c0.1,0,0.3,0,0.4,0c0,0.2,0,0.4,0,0.7c0.2-0.2,0.5-0.4,0.7-0.7l0,0c0.5,0,0.9,0,1.1,0c0.1,0,0.3,0,0.6,0c0.1,0,0.3,0,0.4,0
	c0.3,0,0.5,0,0.7,0s0.5,0,0.7,0h1.4C89.2,112.6,90.7,112.6,91.2,112.6z"/>
<g>
	<defs>
		<path id="SVGID_00000109749899515380388400000004627812674565482143_" d="M91.3,112.6c0.1,0,0.2,0,0.3-0.1l0.1-0.1
			c0.1-0.2,0-0.3-0.1-0.4c0,0-0.4-0.3-0.6-0.5s-0.5-0.4-0.9-0.7c-0.5,0-0.9,0-1.1,0c0,0-0.7,0-0.8,0c0,0,0,0-0.1,0c0,0,0,0-0.1,0
			l0,0l0,0l0,0l0,0l0,0l0,0l0,0l0,0c0,0,0,0,0,0.1c0,0,0,0.1,0,0.2c0,0.2,0,0.2,0,0.2l0,0c0,0.1-0.1,0.2-0.1,0.2l-0.1,0.1
			c-0.1,0.1-0.3,0-0.4,0s-0.2,0-0.3,0c0,0-0.2,0-0.6,0c-1.5,0-1.5,0-1.5,0s-1.8,0.4-3,0.6l0,0l0,0c0,0.3,0,0.4,0,0.5l0,0l0,0
			c0.2,0,0.4,0,0.6,0l0,0c0,0.2,0,0.4,0,0.7c0.2-0.2,0.5-0.4,0.7-0.7l0,0l0,0l0,0c0.1,0,0.3,0,0.4,0c0,0.2,0,0.4,0,0.7
			c0.2-0.2,0.5-0.4,0.7-0.7l0,0c0.5,0,0.9,0,1.1,0c0.1,0,0.3,0,0.6,0c0.1,0,0.3,0,0.4,0c0.3,0,0.5,0,0.7,0s0.5,0,0.7,0h1.4
			C89.3,112.6,90.8,112.6,91.3,112.6z"/>
	</defs>
	<clipPath id="SVGID_00000152948734076895562090000005178938735608686985_">
		<use xlink:href="#SVGID_00000109749899515380388400000004627812674565482143_"  style="overflow:visible;"/>
	</clipPath>
	<g style="clip-path:url(#SVGID_00000152948734076895562090000005178938735608686985_);">
		
			<image style="overflow:visible;" width="600" height="600" xlink:href="../../background.jpg"  transform="matrix(2.860478e-02 0 0 2.821704e-02 76.841 97.0952)">
		</image>
	</g>
</g>
<path class="st23" d="M91.1,125.5c0.1,0,0.2,0,0.3,0.1l0.1,0.1c0.1,0.2,0,0.3-0.1,0.4c0,0-0.4,0.3-0.6,0.5s-0.5,0.4-0.9,0.7
	c-0.5,0-0.9,0-1.1,0c0,0-0.7,0-0.8,0c0,0,0,0-0.1,0c0,0,0,0-0.1,0l0,0l0,0l0,0l0,0l0,0l0,0l0,0l0,0c0,0,0,0,0-0.1c0,0,0-0.1,0-0.2
	c0-0.2,0-0.2,0-0.2l0,0c0-0.1-0.1-0.2-0.1-0.2l-0.1-0.1c-0.1-0.1-0.3,0-0.4,0s-0.2,0-0.3,0c0,0-0.2,0-0.6,0c-1.5,0-1.5,0-1.5,0
	s-1.8-0.4-3-0.6l0,0l0,0c0-0.3,0-0.4,0-0.5l0,0l0,0c0.2,0,0.4,0,0.6,0l0,0c0-0.2,0-0.4,0-0.7c0.2,0.2,0.5,0.4,0.7,0.7l0,0l0,0l0,0
	c0.1,0,0.3,0,0.4,0c0-0.2,0-0.4,0-0.7c0.2,0.2,0.5,0.4,0.7,0.7l0,0c0.5,0,0.9,0,1.1,0c0.1,0,0.3,0,0.6,0c0.1,0,0.3,0,0.4,0
	c0.3,0,0.5,0,0.7,0s0.5,0,0.7,0h1.4C89.2,125.5,90.6,125.5,91.1,125.5z"/>
<g>
	<defs>
		<path id="SVGID_00000021797872293693409430000007552728653353215642_" d="M91.5,125.5c0.1,0,0.2,0,0.3,0.1l0.1,0.1
			c0.1,0.2,0,0.3-0.1,0.4c0,0-0.4,0.3-0.6,0.5c-0.2,0.2-0.5,0.4-0.9,0.7c-0.5,0-0.9,0-1.1,0c0,0-0.7,0-0.8,0c0,0,0,0-0.1,0
			c0,0,0,0-0.1,0l0,0l0,0l0,0l0,0l0,0l0,0l0,0l0,0c0,0,0,0,0-0.1c0,0,0-0.1,0-0.2c0-0.2,0-0.2,0-0.2l0,0c0-0.1-0.1-0.2-0.1-0.2
			l-0.1-0.1c-0.1-0.1-0.3,0-0.4,0c-0.1,0-0.2,0-0.3,0c0,0-0.2,0-0.6,0c-1.6,0-1.6,0-1.6,0s-1.9-0.4-3.1-0.6l0,0l0,0
			c0-0.3,0-0.4,0-0.5l0,0l0,0c0.2,0,0.4,0,0.6,0l0,0c0-0.2,0-0.4,0-0.7c0.2,0.2,0.5,0.4,0.7,0.7l0,0l0,0l0,0c0.1,0,0.3,0,0.4,0
			c0-0.2,0-0.4,0-0.7c0.2,0.2,0.5,0.4,0.7,0.7l0,0c0.5,0,0.9,0,1.1,0c0.1,0,0.3,0,0.6,0c0.1,0,0.3,0,0.4,0c0.3,0,0.5,0,0.7,0
			c0.2,0,0.5,0,0.7,0h1.5C89.5,125.5,91,125.5,91.5,125.5z"/>
	</defs>
	<clipPath id="SVGID_00000180351013103465137760000018021483061181197718_">
		<use xlink:href="#SVGID_00000021797872293693409430000007552728653353215642_"  style="overflow:visible;"/>
	</clipPath>
	
		<g transform="matrix(1 0 0 1 0 7.629395e-06)" style="clip-path:url(#SVGID_00000180351013103465137760000018021483061181197718_);">
		
			<image style="overflow:visible;" width="600" height="600" xlink:href="../../background.jpg"  transform="matrix(2.019041e-02 0 0 1.932525e-02 79.8193 119.9891)">
		</image>
	</g>
</g>
<linearGradient id="SVGID_00000162338265984938096980000012389147348117600647_" gradientUnits="userSpaceOnUse" x1="50.15" y1="36.9" x2="50.15" y2="47" gradientTransform="matrix(1 0 0 -1 0 161)">
	<stop  offset="0" style="stop-color:#424242"/>
	<stop  offset="0.1068" style="stop-color:#333333"/>
	<stop  offset="0.2055" style="stop-color:#2D2D2D"/>
	<stop  offset="0.3492" style="stop-color:#424244"/>
	<stop  offset="0.6732" style="stop-color:#7F7F7F"/>
	<stop  offset="0.9078" style="stop-color:#414042"/>
</linearGradient>
<path style="fill:url(#SVGID_00000162338265984938096980000012389147348117600647_);" d="M99.6,122.2c0-1-0.2-1.3-0.6-3
	c-0.3-1.4-0.5-2.2-0.5-3.2c0-0.8,0.1-1.5,0.2-2c-8.7,0-17.5,0-26.2,0c-0.3,0-0.6,0-0.8,0c-14.5,0-28.9,0-43.4,0c-1,0-1.9,0-2.9,0
	c-7.9,0-15.9,0-23.8,0c0.1,0.5,0.2,1.2,0.2,2c0,1-0.2,1.7-0.5,3.2c-0.4,1.8-0.6,2.1-0.6,3c0,0.8,0.1,1.5,0.2,1.9
	c7.8,0,15.5,0,23.3,0l0,0c16,0,31.9,0,47.9,0c9.1,0,18.3,0,27.4,0C99.5,123.7,99.6,123,99.6,122.2z"/>
<path class="st23" d="M-0.2,110.5"/>
<image style="overflow:visible;" width="200" height="200" xlink:href="../../pepsi.png"  transform="matrix(7.000000e-02 0 0 7.000000e-02 44.0787 34.4045)">
</image>
<path class="st37" d="M22.7,125.5v-1.4c-7.3,0-14.6,0-21.9,0c0,0.2,0.1,0.4,0.1,0.5c0.1,0.3,0.2,0.6,0.2,0.9
	C8.3,125.5,15.5,125.5,22.7,125.5z"/>
<g>
	<defs>
		<path id="SVGID_00000085941327820402566460000015072900316902408337_" d="M8.8,125.5c-0.1,0-0.2,0-0.3,0.1l-0.1,0.1
			c-0.1,0.2,0,0.3,0.1,0.4c0,0,0.4,0.3,0.6,0.5c0.2,0.2,0.5,0.4,0.9,0.7c0.5,0,0.9,0,1.1,0c0,0,0.7,0,0.8,0c0,0,0,0,0.1,0
			c0,0,0,0,0.1,0l0,0l0,0l0,0l0,0l0,0l0,0l0,0l0,0c0,0,0,0,0-0.1c0,0,0-0.1,0-0.2c0-0.2,0-0.2,0-0.2l0,0c0-0.1,0.1-0.2,0.1-0.2
			l0.1-0.1c0.1-0.1,0.3,0,0.4,0c0.1,0,0.2,0,0.3,0c0,0,0.2,0,0.6,0c1.5,0,1.5,0,1.5,0s1.8-0.4,3-0.6l0,0l0,0c0-0.3,0-0.4,0-0.5l0,0
			l0,0c-0.2,0-0.4,0-0.6,0l0,0c0-0.2,0-0.4,0-0.7c-0.2,0.2-0.5,0.4-0.7,0.7l0,0l0,0l0,0c-0.1,0-0.3,0-0.4,0c0-0.2,0-0.4,0-0.7
			c-0.2,0.2-0.5,0.4-0.7,0.7l0,0c-0.5,0-0.9,0-1.1,0c-0.1,0-0.3,0-0.6,0c-0.1,0-0.3,0-0.4,0c-0.3,0-0.5,0-0.7,0s-0.5,0-0.7,0h-1.4
			C10.8,125.5,9.3,125.5,8.8,125.5z"/>
	</defs>
	<clipPath id="SVGID_00000163763407896935035960000014530782796609472165_">
		<use xlink:href="#SVGID_00000085941327820402566460000015072900316902408337_"  style="overflow:visible;"/>
	</clipPath>
	
		<g transform="matrix(1 0 0 1 0 7.629395e-06)" style="clip-path:url(#SVGID_00000163763407896935035960000014530782796609472165_);">
		
			<image style="overflow:visible;" width="600" height="600" xlink:href="../../background.jpg"  transform="matrix(2.539608e-02 0 0 2.539608e-02 8.1781 113.6957)">
		</image>
	</g>
</g>
</svg>
