<?xml version="1.0" encoding="utf-8"?>
<!-- Generator: Adobe Illustrator 25.4.1, SVG Export Plug-In . SVG Version: 6.00 Build 0)  -->
<svg version="1.1" id="Слой_1" xmlns="http://www.w3.org/2000/svg" xmlns:xlink="http://www.w3.org/1999/xlink" x="0px" y="0px"
	 viewBox="0 0 200 320" style="enable-background:new 0 0 200 320;" xml:space="preserve">
<style type="text/css">
	.st0{fill:url(#SVGID_1_);}
	.st1{fill:url(#SVGID_00000105396961117042672260000000742763709847648933_);}
	.st2{fill:url(#SVGID_00000108996141942267409120000018077506366250608311_);}
	.st3{fill:url(#SVGID_00000023969117770140375910000004693234225576217525_);}
	.st4{fill:url(#SVGID_00000060736083687920884670000012048598880296843932_);}
	.st5{fill:url(#SVGID_00000033334706493399586410000003751816897326516138_);}
	.st6{fill:url(#SVGID_00000055681551573445602860000011897054107765769091_);}
	.st7{fill:url(#SVGID_00000094586538297672350720000013129216770430139534_);}
	.st8{fill:url(#SVGID_00000122703872542245221630000001415136798453978261_);}
	.st9{fill:url(#SVGID_00000131348803242931088130000006707527023750837397_);}
	.st10{fill:url(#SVGID_00000037670641870341017340000007058688542438653616_);}
	.st11{fill:url(#SVGID_00000058585939787062901030000008122001373657814956_);}
	.st12{fill:url(#SVGID_00000157296808146876692530000013709138071196020105_);}
	.st13{fill:url(#SVGID_00000096737621070157067990000017475524513953459126_);}
	.st14{fill:url(#SVGID_00000085967127818599464240000014836487005146012605_);}
	.st15{fill:url(#SVGID_00000132049268516153758620000004252570713887354303_);}
	.st16{fill:url(#SVGID_00000164507798244110288220000003542585363048525756_);}
	.st17{fill:url(#SVGID_00000092447425552038692890000016219858515345189040_);}
	.st18{clip-path:url(#SVGID_00000035531520415764537540000014066006971924853951_);}
	.st19{fill:none;stroke:#B1B1B1;stroke-miterlimit:10;}
	.st20{fill:url(#SVGID_00000176010612841068504670000008717211609818801596_);}
	.st21{fill:url(#SVGID_00000060016965578525163210000009286112980873869725_);}
	.st22{fill:url(#SVGID_00000013165438450552938160000014893329027604101811_);}
	.st23{fill:url(#SVGID_00000028320133007815441650000017703447434423889811_);}
	.st24{fill:url(#SVGID_00000117641630519197653400000002324451518273841582_);}
	.st25{fill:url(#SVGID_00000126313565460557652150000009559846622528937638_);}
	.st26{fill:#FAFAFA;}
	.st27{fill:url(#SVGID_00000169558118394681417890000010674688477807952533_);}
	.st28{fill:url(#SVGID_00000108296307146919900640000006951395989166387349_);}
	.st29{fill:url(#SVGID_00000088850409767529528030000017308812216210875798_);}
	.st30{fill:url(#SVGID_00000106117771312226429980000009129812543619715972_);}
	.st31{fill:url(#SVGID_00000094593869515827317240000006315511383218761126_);}
	.st32{fill:url(#SVGID_00000118362311362329601650000014792171063353914500_);}
	.st33{fill:url(#SVGID_00000006687181867041609360000009086728285310187711_);}
</style>
<linearGradient id="SVGID_1_" gradientUnits="userSpaceOnUse" x1="190.8527" y1="98.8001" x2="190.8527" y2="150.7312" gradientTransform="matrix(1 0 0 -1 0 203)">
	<stop  offset="0" style="stop-color:#999999"/>
	<stop  offset="0.163" style="stop-color:#727272"/>
	<stop  offset="0.2095" style="stop-color:#666666"/>
	<stop  offset="0.3659" style="stop-color:#9F9D9D"/>
	<stop  offset="0.433" style="stop-color:#919396"/>
	<stop  offset="0.6341" style="stop-color:#FFFFFF"/>
	<stop  offset="0.6518" style="stop-color:#F5F4F4"/>
	<stop  offset="0.6831" style="stop-color:#E8E7E7"/>
	<stop  offset="0.7123" style="stop-color:#E4E3E3"/>
	<stop  offset="0.7494" style="stop-color:#C5C5C6"/>
	<stop  offset="0.7913" style="stop-color:#A8AAAC"/>
	<stop  offset="0.8278" style="stop-color:#97999C"/>
	<stop  offset="0.8547" style="stop-color:#919396"/>
	<stop  offset="0.986" style="stop-color:#CCCCCC"/>
</linearGradient>
<rect x="188.2" y="52.3" class="st0" width="5.2" height="51.9"/>
<g>
	
		<linearGradient id="SVGID_00000029018188059502370540000006463789013845223071_" gradientUnits="userSpaceOnUse" x1="1468.3405" y1="-37.7603" x2="1468.3405" y2="-98.5694" gradientTransform="matrix(0.9993 3.650000e-02 -3.640000e-02 0.9977 -1313.79 92.4648)">
		<stop  offset="0" style="stop-color:#808285"/>
		<stop  offset="0.1313" style="stop-color:#4D4E50"/>
		<stop  offset="0.2039" style="stop-color:#424244"/>
		<stop  offset="0.338" style="stop-color:#808285"/>
		<stop  offset="0.4162" style="stop-color:#D1D3D4"/>
		<stop  offset="0.5168" style="stop-color:#A7A9AC"/>
		<stop  offset="0.662" style="stop-color:#F1F2F2"/>
		<stop  offset="0.8519" style="stop-color:#838587"/>
		<stop  offset="0.919" style="stop-color:#E6E7E8"/>
		<stop  offset="1" style="stop-color:#919396"/>
	</linearGradient>
	<polygon style="fill:url(#SVGID_00000029018188059502370540000006463789013845223071_);" points="154,47.7 156.7,52 158.1,104.1 
		155.6,108.4 	"/>
	
		<linearGradient id="SVGID_00000052815579094952724300000016928219018204917922_" gradientUnits="userSpaceOnUse" x1="1463.1296" y1="-42.7494" x2="1463.1296" y2="-104.0177" gradientTransform="matrix(0.9993 3.650000e-02 -3.620000e-02 0.993 -1313.9906 97.5452)">
		<stop  offset="0" style="stop-color:#808285"/>
		<stop  offset="0.1313" style="stop-color:#4D4E50"/>
		<stop  offset="0.2039" style="stop-color:#424244"/>
		<stop  offset="0.338" style="stop-color:#808285"/>
		<stop  offset="0.4162" style="stop-color:#D1D3D4"/>
		<stop  offset="0.5168" style="stop-color:#A7A9AC"/>
		<stop  offset="0.662" style="stop-color:#F1F2F2"/>
		<stop  offset="0.8519" style="stop-color:#838587"/>
		<stop  offset="0.919" style="stop-color:#E6E7E8"/>
		<stop  offset="1" style="stop-color:#919396"/>
	</linearGradient>
	<polygon style="fill:url(#SVGID_00000052815579094952724300000016928219018204917922_);" points="148.8,47.5 151.5,51.9 
		152.9,104.2 150.7,108.5 	"/>
	
		<linearGradient id="SVGID_00000093883296423051889280000003945029941509443994_" gradientUnits="userSpaceOnUse" x1="-13265.0557" y1="-765.3879" x2="-13265.0557" y2="-708.4767" gradientTransform="matrix(-0.9993 -3.650000e-02 -3.900000e-02 1.0686 -13126.0449 389.9167)">
		<stop  offset="6.980000e-02" style="stop-color:#6D6E71"/>
		<stop  offset="0.1536" style="stop-color:#939598"/>
		<stop  offset="0.2151" style="stop-color:#6D6E71"/>
		<stop  offset="0.3883" style="stop-color:#6D6E71"/>
		<stop  offset="0.4832" style="stop-color:#939598"/>
		<stop  offset="0.6844" style="stop-color:#BCBEC0"/>
		<stop  offset="0.7458" style="stop-color:#808285"/>
		<stop  offset="0.8073" style="stop-color:#B4B4B4"/>
		<stop  offset="0.9134" style="stop-color:#6D6E71"/>
		<stop  offset="1" style="stop-color:#939598"/>
	</linearGradient>
	<path style="fill:url(#SVGID_00000093883296423051889280000003945029941509443994_);" d="M159.1,47.5c0.5,20.3,1.1,40.6,1.7,60.9
		l-2.7-4.3c-0.5-17.4-0.9-34.7-1.5-52.1c0.4-0.8,0.8-1.4,1.1-2.2C158.3,49.1,158.6,48.3,159.1,47.5z"/>
	
		<linearGradient id="SVGID_00000129167436077161429970000004133353274310894989_" gradientUnits="userSpaceOnUse" x1="-13259.9521" y1="-776.5771" x2="-13259.9521" y2="-719.163" gradientTransform="matrix(-0.9993 -3.650000e-02 -3.860000e-02 1.0576 -13126.1758 393.5602)">
		<stop  offset="6.980000e-02" style="stop-color:#6D6E71"/>
		<stop  offset="0.1536" style="stop-color:#939598"/>
		<stop  offset="0.2151" style="stop-color:#6D6E71"/>
		<stop  offset="0.3883" style="stop-color:#6D6E71"/>
		<stop  offset="0.4832" style="stop-color:#939598"/>
		<stop  offset="0.6844" style="stop-color:#BCBEC0"/>
		<stop  offset="0.7458" style="stop-color:#808285"/>
		<stop  offset="0.8073" style="stop-color:#B4B4B4"/>
		<stop  offset="0.9134" style="stop-color:#6D6E71"/>
		<stop  offset="1" style="stop-color:#939598"/>
	</linearGradient>
	<path style="fill:url(#SVGID_00000129167436077161429970000004133353274310894989_);" d="M154,47.7l1.7,60.9l-2.7-4.3
		c-0.5-17.4-0.9-35-1.5-52.3C152.4,50.4,153.3,49,154,47.7z"/>
	
		<linearGradient id="SVGID_00000127045004103010267180000004172329058430466718_" gradientUnits="userSpaceOnUse" x1="-13254.9346" y1="-781.8853" x2="-13254.9346" y2="-724.0861" gradientTransform="matrix(-0.9993 -3.650000e-02 -3.840000e-02 1.0526 -13126.2461 395.2315)">
		<stop  offset="6.980000e-02" style="stop-color:#6D6E71"/>
		<stop  offset="0.1536" style="stop-color:#939598"/>
		<stop  offset="0.2151" style="stop-color:#6D6E71"/>
		<stop  offset="0.3883" style="stop-color:#6D6E71"/>
		<stop  offset="0.4832" style="stop-color:#939598"/>
		<stop  offset="0.6844" style="stop-color:#BCBEC0"/>
		<stop  offset="0.7458" style="stop-color:#808285"/>
		<stop  offset="0.8073" style="stop-color:#B4B4B4"/>
		<stop  offset="0.9134" style="stop-color:#6D6E71"/>
		<stop  offset="1" style="stop-color:#939598"/>
	</linearGradient>
	<path style="fill:url(#SVGID_00000127045004103010267180000004172329058430466718_);" d="M148.8,47.5c0.6,20.3,1.3,40.7,1.9,61
		c-0.5-0.8-1-1.4-1.5-2.2c-0.5-0.8-1-1.5-1.5-2.3c-0.1-5.7-0.3-10.1-0.4-13c0-1.4-0.1-3.3-0.1-6c-0.1-3.7-0.1-6.5-0.1-7.1
		c0-3.3-0.1-10.2-0.6-26.2C147,50.2,148,49,148.8,47.5z"/>
	
		<linearGradient id="SVGID_00000049219084517232969280000001329273141707587229_" gradientUnits="userSpaceOnUse" x1="1478.6517" y1="-17.5609" x2="1478.6517" y2="-77.3036" gradientTransform="matrix(0.9993 3.650000e-02 -3.710000e-02 1.0163 -1313.0413 72.2573)">
		<stop  offset="0" style="stop-color:#808285"/>
		<stop  offset="0.1313" style="stop-color:#4D4E50"/>
		<stop  offset="0.2039" style="stop-color:#424244"/>
		<stop  offset="0.338" style="stop-color:#808285"/>
		<stop  offset="0.4162" style="stop-color:#D1D3D4"/>
		<stop  offset="0.5168" style="stop-color:#A7A9AC"/>
		<stop  offset="0.662" style="stop-color:#F1F2F2"/>
		<stop  offset="0.8519" style="stop-color:#838587"/>
		<stop  offset="0.919" style="stop-color:#E6E7E8"/>
		<stop  offset="1" style="stop-color:#919396"/>
	</linearGradient>
	<polygon style="fill:url(#SVGID_00000049219084517232969280000001329273141707587229_);" points="164.2,47.5 167.1,51.9 
		168.6,103.9 166,108.4 	"/>
	
		<linearGradient id="SVGID_00000175309606075288749910000007439305746691352197_" gradientUnits="userSpaceOnUse" x1="1473.554" y1="-26.36" x2="1473.554" y2="-86.681" gradientTransform="matrix(0.9993 3.650000e-02 -3.680000e-02 1.0081 -1313.3669 81.1699)">
		<stop  offset="0" style="stop-color:#808285"/>
		<stop  offset="0.1313" style="stop-color:#4D4E50"/>
		<stop  offset="0.2039" style="stop-color:#424244"/>
		<stop  offset="0.338" style="stop-color:#808285"/>
		<stop  offset="0.4162" style="stop-color:#D1D3D4"/>
		<stop  offset="0.5168" style="stop-color:#A7A9AC"/>
		<stop  offset="0.662" style="stop-color:#F1F2F2"/>
		<stop  offset="0.8519" style="stop-color:#838587"/>
		<stop  offset="0.919" style="stop-color:#E6E7E8"/>
		<stop  offset="1" style="stop-color:#919396"/>
	</linearGradient>
	<path style="fill:url(#SVGID_00000175309606075288749910000007439305746691352197_);" d="M159.1,47.5l2.7,4.3l1.7,52.2
		c-0.9,1.4-1.7,2.9-2.6,4.3C160.3,88.1,159.7,67.8,159.1,47.5z"/>
	
		<linearGradient id="SVGID_00000116208564529409080090000016970118299526352008_" gradientUnits="userSpaceOnUse" x1="-13270.3945" y1="-756.6393" x2="-13270.3945" y2="-700.2837" gradientTransform="matrix(-0.9993 -3.650000e-02 -3.930000e-02 1.0773 -13125.9766 387.0306)">
		<stop  offset="6.980000e-02" style="stop-color:#6D6E71"/>
		<stop  offset="0.1536" style="stop-color:#939598"/>
		<stop  offset="0.2151" style="stop-color:#6D6E71"/>
		<stop  offset="0.3883" style="stop-color:#6D6E71"/>
		<stop  offset="0.4832" style="stop-color:#939598"/>
		<stop  offset="0.6844" style="stop-color:#BCBEC0"/>
		<stop  offset="0.7458" style="stop-color:#808285"/>
		<stop  offset="0.8073" style="stop-color:#B4B4B4"/>
		<stop  offset="0.9134" style="stop-color:#6D6E71"/>
		<stop  offset="1" style="stop-color:#939598"/>
	</linearGradient>
	<path style="fill:url(#SVGID_00000116208564529409080090000016970118299526352008_);" d="M164.2,47.5l1.9,60.9l-2.7-4.5
		c-0.5-17.4-1-34.7-1.7-52.1c0.4-0.8,0.8-1.4,1.1-2.2C163.4,49,163.7,48.2,164.2,47.5z"/>
	
		<linearGradient id="SVGID_00000112593141751344388500000006038126809080795795_" gradientUnits="userSpaceOnUse" x1="1458.3427" y1="-51.8364" x2="1458.3427" y2="-110.4724" gradientTransform="matrix(0.9993 3.650000e-02 -3.600000e-02 0.9851 -1314.2566 106.1202)">
		<stop  offset="0" style="stop-color:#808285"/>
		<stop  offset="0.1313" style="stop-color:#4D4E50"/>
		<stop  offset="0.2039" style="stop-color:#424244"/>
		<stop  offset="0.338" style="stop-color:#808285"/>
		<stop  offset="0.4162" style="stop-color:#D1D3D4"/>
		<stop  offset="0.5168" style="stop-color:#A7A9AC"/>
		<stop  offset="0.662" style="stop-color:#F1F2F2"/>
		<stop  offset="0.8519" style="stop-color:#838587"/>
		<stop  offset="0.919" style="stop-color:#E6E7E8"/>
		<stop  offset="1" style="stop-color:#919396"/>
	</linearGradient>
	<path style="fill:url(#SVGID_00000112593141751344388500000006038126809080795795_);" d="M144.6,50.4c0.3,0.1,0.5,0.4,0.8,0.6
		s0.5,0.5,0.8,0.8c0.1,3.8,0.3,9.6,0.5,16.6c0.1,4.5,0.1,7.5,0.3,9.6c0.1,6,0.3,14.7,0.6,26.2c-0.9,1.4-1.9,2.8-2.7,4.2
		C144.7,89,144.7,69.7,144.6,50.4z"/>
	
		<linearGradient id="SVGID_00000176044400982110235050000011525426169100222398_" gradientUnits="userSpaceOnUse" x1="1498.8036" y1="-18.5536" x2="1498.8036" y2="-78.0455" gradientTransform="matrix(0.9993 3.650000e-02 -3.710000e-02 1.0163 -1313.0413 72.2573)">
		<stop  offset="0" style="stop-color:#808285"/>
		<stop  offset="0.1313" style="stop-color:#4D4E50"/>
		<stop  offset="0.2039" style="stop-color:#424244"/>
		<stop  offset="0.338" style="stop-color:#808285"/>
		<stop  offset="0.4162" style="stop-color:#D1D3D4"/>
		<stop  offset="0.5168" style="stop-color:#A7A9AC"/>
		<stop  offset="0.662" style="stop-color:#F1F2F2"/>
		<stop  offset="0.8519" style="stop-color:#838587"/>
		<stop  offset="0.919" style="stop-color:#E6E7E8"/>
		<stop  offset="1" style="stop-color:#919396"/>
	</linearGradient>
	<path style="fill:url(#SVGID_00000176044400982110235050000011525426169100222398_);" d="M184.9,47.5c1,1.5,2.3,3.2,3.3,4.7
		c0,17.2,0,34.7,0,51.9c-0.5,1.3-1,2.7-1.5,4C186.1,88,185.4,67.7,184.9,47.5z"/>
	
		<linearGradient id="SVGID_00000054247498804851899420000010621270365492707000_" gradientUnits="userSpaceOnUse" x1="-13290.9834" y1="-757.3733" x2="-13290.9834" y2="-701.2542" gradientTransform="matrix(-0.9993 -3.650000e-02 -3.930000e-02 1.0773 -13125.9766 387.0306)">
		<stop  offset="6.980000e-02" style="stop-color:#6D6E71"/>
		<stop  offset="0.1536" style="stop-color:#939598"/>
		<stop  offset="0.2151" style="stop-color:#6D6E71"/>
		<stop  offset="0.3883" style="stop-color:#6D6E71"/>
		<stop  offset="0.4832" style="stop-color:#939598"/>
		<stop  offset="0.6844" style="stop-color:#BCBEC0"/>
		<stop  offset="0.7458" style="stop-color:#808285"/>
		<stop  offset="0.8073" style="stop-color:#B4B4B4"/>
		<stop  offset="0.9134" style="stop-color:#6D6E71"/>
		<stop  offset="1" style="stop-color:#939598"/>
	</linearGradient>
	<path style="fill:url(#SVGID_00000054247498804851899420000010621270365492707000_);" d="M184.9,47.5c0.6,20.2,1.1,40.4,1.9,60.6
		c-0.4-0.6-0.9-1.4-1.3-2c-0.5-0.8-1-1.4-1.5-2.2c-0.5-17.4-1-34.7-1.7-52.1c0.4-0.8,0.8-1.4,1.3-2.2C184,49,184.4,48.2,184.9,47.5z
		"/>
	
		<linearGradient id="SVGID_00000032619685694285030830000012371901835585521328_" gradientUnits="userSpaceOnUse" x1="-13275.3818" y1="-765.7514" x2="-13275.3818" y2="-708.8412" gradientTransform="matrix(-0.9993 -3.650000e-02 -3.900000e-02 1.0686 -13126.0449 389.9167)">
		<stop  offset="6.980000e-02" style="stop-color:#6D6E71"/>
		<stop  offset="0.1536" style="stop-color:#939598"/>
		<stop  offset="0.2151" style="stop-color:#6D6E71"/>
		<stop  offset="0.3883" style="stop-color:#6D6E71"/>
		<stop  offset="0.4832" style="stop-color:#939598"/>
		<stop  offset="0.6844" style="stop-color:#BCBEC0"/>
		<stop  offset="0.7458" style="stop-color:#808285"/>
		<stop  offset="0.8073" style="stop-color:#B4B4B4"/>
		<stop  offset="0.9134" style="stop-color:#6D6E71"/>
		<stop  offset="1" style="stop-color:#939598"/>
	</linearGradient>
	<path style="fill:url(#SVGID_00000032619685694285030830000012371901835585521328_);" d="M169.4,47.5c0.6,20.3,1.1,40.6,1.8,60.9
		c-0.8-1.4-1.8-2.9-2.6-4.5c-0.5-17.4-1-34.7-1.7-52.1c0.4-0.6,0.8-1.4,1.1-2.2C168.6,49,169,48.2,169.4,47.5z"/>
	
		<linearGradient id="SVGID_00000133515638730092852680000008233075989021703846_" gradientUnits="userSpaceOnUse" x1="1488.9803" y1="-17.9318" x2="1488.9803" y2="-77.6746" gradientTransform="matrix(0.9993 3.650000e-02 -3.710000e-02 1.0163 -1313.0413 72.2573)">
		<stop  offset="0" style="stop-color:#808285"/>
		<stop  offset="0.1313" style="stop-color:#4D4E50"/>
		<stop  offset="0.2039" style="stop-color:#424244"/>
		<stop  offset="0.338" style="stop-color:#808285"/>
		<stop  offset="0.4162" style="stop-color:#D1D3D4"/>
		<stop  offset="0.5168" style="stop-color:#A7A9AC"/>
		<stop  offset="0.662" style="stop-color:#F1F2F2"/>
		<stop  offset="0.8519" style="stop-color:#838587"/>
		<stop  offset="0.919" style="stop-color:#E6E7E8"/>
		<stop  offset="1" style="stop-color:#919396"/>
	</linearGradient>
	<polygon style="fill:url(#SVGID_00000133515638730092852680000008233075989021703846_);" points="174.6,47.5 177.3,51.9 
		178.9,103.9 176.4,108.4 	"/>
	
		<linearGradient id="SVGID_00000079471772189589385250000015322105286665677473_" gradientUnits="userSpaceOnUse" x1="1483.7551" y1="-26.7294" x2="1483.7551" y2="-87.0494" gradientTransform="matrix(0.9993 3.650000e-02 -3.680000e-02 1.0081 -1313.3669 81.1699)">
		<stop  offset="0" style="stop-color:#808285"/>
		<stop  offset="0.1313" style="stop-color:#4D4E50"/>
		<stop  offset="0.2039" style="stop-color:#424244"/>
		<stop  offset="0.338" style="stop-color:#808285"/>
		<stop  offset="0.4162" style="stop-color:#D1D3D4"/>
		<stop  offset="0.5168" style="stop-color:#A7A9AC"/>
		<stop  offset="0.662" style="stop-color:#F1F2F2"/>
		<stop  offset="0.8519" style="stop-color:#838587"/>
		<stop  offset="0.919" style="stop-color:#E6E7E8"/>
		<stop  offset="1" style="stop-color:#919396"/>
	</linearGradient>
	<polygon style="fill:url(#SVGID_00000079471772189589385250000015322105286665677473_);" points="169.4,47.5 172,51.9 173.7,104.1 
		171.1,108.4 	"/>
	
		<linearGradient id="SVGID_00000131357310657187296670000012156275121124025741_" gradientUnits="userSpaceOnUse" x1="-13280.5957" y1="-756.9988" x2="-13280.5957" y2="-700.6389" gradientTransform="matrix(-0.9993 -3.650000e-02 -3.930000e-02 1.0773 -13125.9766 387.0306)">
		<stop  offset="6.980000e-02" style="stop-color:#6D6E71"/>
		<stop  offset="0.1536" style="stop-color:#939598"/>
		<stop  offset="0.2151" style="stop-color:#6D6E71"/>
		<stop  offset="0.3883" style="stop-color:#6D6E71"/>
		<stop  offset="0.4832" style="stop-color:#939598"/>
		<stop  offset="0.6844" style="stop-color:#BCBEC0"/>
		<stop  offset="0.7458" style="stop-color:#808285"/>
		<stop  offset="0.8073" style="stop-color:#B4B4B4"/>
		<stop  offset="0.9134" style="stop-color:#6D6E71"/>
		<stop  offset="1" style="stop-color:#939598"/>
	</linearGradient>
	<path style="fill:url(#SVGID_00000131357310657187296670000012156275121124025741_);" d="M174.6,47.5c0.6,20.3,1.1,40.6,1.8,60.9
		l-2.7-4.5c-0.5-17.4-1-34.7-1.7-52.1c0.4-0.6,0.8-1.4,1.3-2C173.8,49,174.2,48.3,174.6,47.5z"/>
	
		<linearGradient id="SVGID_00000134243103060698887770000018345097675435950264_" gradientUnits="userSpaceOnUse" x1="1494.0809" y1="-18.115" x2="1494.0809" y2="-77.8578" gradientTransform="matrix(0.9993 3.650000e-02 -3.710000e-02 1.0163 -1313.0413 72.2573)">
		<stop  offset="0" style="stop-color:#808285"/>
		<stop  offset="0.1313" style="stop-color:#4D4E50"/>
		<stop  offset="0.2039" style="stop-color:#424244"/>
		<stop  offset="0.338" style="stop-color:#808285"/>
		<stop  offset="0.4162" style="stop-color:#D1D3D4"/>
		<stop  offset="0.5168" style="stop-color:#A7A9AC"/>
		<stop  offset="0.662" style="stop-color:#F1F2F2"/>
		<stop  offset="0.8519" style="stop-color:#838587"/>
		<stop  offset="0.919" style="stop-color:#E6E7E8"/>
		<stop  offset="1" style="stop-color:#919396"/>
	</linearGradient>
	<polygon style="fill:url(#SVGID_00000134243103060698887770000018345097675435950264_);" points="179.7,47.5 182.4,51.9 184,103.9 
		181.5,108.4 	"/>
	
		<linearGradient id="SVGID_00000014617865304008669110000005450538984187189403_" gradientUnits="userSpaceOnUse" x1="-13285.7578" y1="-757.1606" x2="-13285.7578" y2="-700.8007" gradientTransform="matrix(-0.9993 -3.650000e-02 -3.930000e-02 1.0773 -13125.9766 387.0306)">
		<stop  offset="6.980000e-02" style="stop-color:#6D6E71"/>
		<stop  offset="0.1536" style="stop-color:#939598"/>
		<stop  offset="0.2151" style="stop-color:#6D6E71"/>
		<stop  offset="0.3883" style="stop-color:#6D6E71"/>
		<stop  offset="0.4832" style="stop-color:#939598"/>
		<stop  offset="0.6844" style="stop-color:#BCBEC0"/>
		<stop  offset="0.7458" style="stop-color:#808285"/>
		<stop  offset="0.8073" style="stop-color:#B4B4B4"/>
		<stop  offset="0.9134" style="stop-color:#6D6E71"/>
		<stop  offset="1" style="stop-color:#939598"/>
	</linearGradient>
	<path style="fill:url(#SVGID_00000014617865304008669110000005450538984187189403_);" d="M179.7,47.5c0.6,20.3,1.1,40.6,1.8,60.9
		c-0.9-1.5-1.8-2.9-2.6-4.5c-0.5-17.4-1-34.8-1.7-52.2c0.4-0.6,0.6-1.3,1.1-2C178.8,49,179.3,48.2,179.7,47.5z"/>
</g>
<g>
	<g>
		<defs>
			<path id="SVGID_00000010311362238476226560000006393464788476656031_" d="M188.2,211.4L188.2,211.4c-1-1.5-2.3-3.2-3.3-4.7
				c-0.4,0.6-0.9,1.4-1.3,2.2c-0.4,0.8-0.9,1.4-1.3,2.2l-2.7-4.3c-0.5,0.6-0.9,1.4-1.4,2.2c-0.4,0.8-0.8,1.4-1.1,2c0,0,0,0,0,0.1
				l-2.7-4.2c-0.4,0.8-0.9,1.5-1.3,2.2c-0.4,0.8-0.8,1.4-1.3,2c-0.9-1.4-1.8-2.9-2.7-4.3c-0.4,0.8-0.8,1.4-1.3,2.2
				c-0.4,0.8-0.8,1.4-1.1,2.2c-0.9-1.4-1.9-2.9-2.8-4.3c-0.4,0.8-0.8,1.4-1.1,2.2s-0.8,1.4-1.1,2.2l-2.7-4.3
				c-0.4,0.8-0.8,1.5-1.3,2.3c-0.4,0.8-0.8,1.4-1.1,2.2l-2.7-4.3c-0.8,1.3-1.7,2.8-2.6,4.2l-2.7-4.3c-0.8,1.4-1.8,2.8-2.6,4.2
				c-0.3-0.3-0.5-0.5-0.8-0.8c-0.3-0.1-0.4-0.4-0.6-0.5v-20.7c-2-1-20-0.9-39-0.8c-12.1,0.1-25.8,0.1-39.2,0
				c-15.3,0.4-27.1,0.1-36.5-0.1c-12.1-0.3-19.5-0.4-23.6,0.9V285c3.3,1.4,31.5,1.1,58.8,0.8c20.9-0.3,42.5-0.4,58.8-0.1
				c6.9-0.3,10.3,0,12.6,0.1c2.9,0.3,4,0.3,8-1c0-5.9,0-11.7,0-17.7c0.9-1.4,1.9-2.8,2.8-4.2c0,0,1,1.5,1.5,2.3
				c0.5,0.8,1,1.5,1.5,2.2l2.3-4.3l2.7,4.2c0.9-1.4,1.7-2.8,2.6-4.3l2.7,4.3c0.9-1.4,1.7-2.9,2.6-4.3v-0.1l0,0
				c0.9,1.5,1.8,2.9,2.7,4.5l0,0l0,0l0,0l2.6-4.5c0.4,0.8,0.8,1.5,1.3,2.3c0.4,0.8,1.3,2.2,1.3,2.2l2.6-4.3v-0.1l2.7,4.5l0,0l0,0
				l2.6-4.5c0.9,1.5,1.7,2.9,2.6,4.5l2.6-4.5c0.5,0.6,1,1.4,1.4,2.2c0.5,0.6,0.9,1.4,1.3,2c0.4-1.3,0.9-2.7,1.5-4h5.2V211h-5.2
				V211.4z"/>
		</defs>
		<clipPath id="SVGID_00000098179332756875941150000006920312874489951636_">
			<use xlink:href="#SVGID_00000010311362238476226560000006393464788476656031_"  style="overflow:visible;"/>
		</clipPath>
		<g style="clip-path:url(#SVGID_00000098179332756875941150000006920312874489951636_);">
			
				<image style="overflow:visible;enable-background:new    ;" width="600" height="600" xlink:href="../../background.jpg"  transform="matrix(0.3636 0 0 0.3636 -9.8897 172.986)">
			</image>
		</g>
	</g>
	<g>
		<path id="SVGID_19_" class="st19" d="M188.2,211.4L188.2,211.4c-1-1.5-2.3-3.2-3.3-4.7c-0.4,0.6-0.9,1.4-1.3,2.2
			c-0.4,0.8-0.9,1.4-1.3,2.2l-2.7-4.3c-0.5,0.6-0.9,1.4-1.4,2.2c-0.4,0.8-0.8,1.4-1.1,2c0,0,0,0,0,0.1l-2.7-4.2
			c-0.4,0.8-0.9,1.5-1.3,2.2c-0.4,0.8-0.8,1.4-1.3,2c-0.9-1.4-1.8-2.9-2.7-4.3c-0.4,0.8-0.8,1.4-1.3,2.2c-0.4,0.8-0.8,1.4-1.1,2.2
			c-0.9-1.4-1.9-2.9-2.8-4.3c-0.4,0.8-0.8,1.4-1.1,2.2s-0.8,1.4-1.1,2.2l-2.7-4.3c-0.4,0.8-0.8,1.5-1.3,2.3
			c-0.4,0.8-0.8,1.4-1.1,2.2l-2.7-4.3c-0.8,1.3-1.7,2.8-2.6,4.2l-2.7-4.3c-0.8,1.4-1.8,2.8-2.6,4.2c-0.3-0.3-0.5-0.5-0.8-0.8
			c-0.3-0.1-0.4-0.4-0.6-0.5v-20.7c-2-1-20-0.9-39-0.8c-12.1,0.1-25.8,0.1-39.2,0c-15.3,0.4-27.1,0.1-36.5-0.1
			c-12.1-0.3-19.5-0.4-23.6,0.9V285c3.3,1.4,31.5,1.1,58.8,0.8c20.9-0.3,42.5-0.4,58.8-0.1c6.9-0.3,10.3,0,12.6,0.1
			c2.9,0.3,4,0.3,8-1c0-5.9,0-11.7,0-17.7c0.9-1.4,1.9-2.8,2.8-4.2c0,0,1,1.5,1.5,2.3c0.5,0.8,1,1.5,1.5,2.2l2.3-4.3l2.7,4.2
			c0.9-1.4,1.7-2.8,2.6-4.3l2.7,4.3c0.9-1.4,1.7-2.9,2.6-4.3v-0.1l0,0c0.9,1.5,1.8,2.9,2.7,4.5l0,0l0,0l0,0l2.6-4.5
			c0.4,0.8,0.8,1.5,1.3,2.3c0.4,0.8,1.3,2.2,1.3,2.2l2.6-4.3v-0.1l2.7,4.5l0,0l0,0l2.6-4.5c0.9,1.5,1.7,2.9,2.6,4.5l2.6-4.5
			c0.5,0.6,1,1.4,1.4,2.2c0.5,0.6,0.9,1.4,1.3,2c0.4-1.3,0.9-2.7,1.5-4h5.2V211h-5.2V211.4z"/>
	</g>
</g>
<linearGradient id="SVGID_00000013877436645475683720000016255948182489251754_" gradientUnits="userSpaceOnUse" x1="6.7334" y1="75.5779" x2="6.7334" y2="174.5915" gradientTransform="matrix(1 0 0 -1 0 203)">
	<stop  offset="0" style="stop-color:#999999"/>
	<stop  offset="0.163" style="stop-color:#727272"/>
	<stop  offset="0.2095" style="stop-color:#666666"/>
	<stop  offset="0.3659" style="stop-color:#9F9D9D"/>
	<stop  offset="0.433" style="stop-color:#919396"/>
	<stop  offset="0.6341" style="stop-color:#FFFFFF"/>
	<stop  offset="0.6518" style="stop-color:#F5F4F4"/>
	<stop  offset="0.6831" style="stop-color:#E8E7E7"/>
	<stop  offset="0.7123" style="stop-color:#E4E3E3"/>
	<stop  offset="0.7494" style="stop-color:#C5C5C6"/>
	<stop  offset="0.7913" style="stop-color:#A8AAAC"/>
	<stop  offset="0.8278" style="stop-color:#97999C"/>
	<stop  offset="0.8547" style="stop-color:#919396"/>
	<stop  offset="0.986" style="stop-color:#CCCCCC"/>
</linearGradient>
<path style="fill:url(#SVGID_00000013877436645475683720000016255948182489251754_);" d="M5.4,126.4c0.9,0.4,1.7,0.6,2.7,1
	c0-32.9,0-66,0-99c-0.9,0.4-1.8,0.8-2.7,1V126.4z"/>
<linearGradient id="SVGID_00000124862400776426432590000010072895216846291126_" gradientUnits="userSpaceOnUse" x1="13.9528" y1="125.0847" x2="1.6692" y2="125.0847" gradientTransform="matrix(1 0 0 -1 0 203)">
	<stop  offset="0" style="stop-color:#FFFFFF"/>
	<stop  offset="0.3157" style="stop-color:#FAFAFA;stop-opacity:0.6843"/>
	<stop  offset="1" style="stop-color:#F2F2F2;stop-opacity:0"/>
</linearGradient>
<path style="fill:url(#SVGID_00000124862400776426432590000010072895216846291126_);" d="M5.4,126.4c0.9,0.4,1.7,0.6,2.7,1
	c0-32.9,0-66,0-99c-0.9,0.4-1.8,0.8-2.7,1V126.4z"/>
<linearGradient id="SVGID_00000178914897939134771260000016985272712952887936_" gradientUnits="userSpaceOnUse" x1="-1711.6298" y1="75.5779" x2="-1711.6298" y2="174.5915" gradientTransform="matrix(-1 0 0 -1 -1567.7319 203)">
	<stop  offset="0" style="stop-color:#999999"/>
	<stop  offset="0.163" style="stop-color:#727272"/>
	<stop  offset="0.2095" style="stop-color:#666666"/>
	<stop  offset="0.3659" style="stop-color:#9F9D9D"/>
	<stop  offset="0.433" style="stop-color:#919396"/>
	<stop  offset="0.6341" style="stop-color:#FFFFFF"/>
	<stop  offset="0.6518" style="stop-color:#F5F4F4"/>
	<stop  offset="0.6831" style="stop-color:#E8E7E7"/>
	<stop  offset="0.7123" style="stop-color:#E4E3E3"/>
	<stop  offset="0.7494" style="stop-color:#C5C5C6"/>
	<stop  offset="0.7913" style="stop-color:#A8AAAC"/>
	<stop  offset="0.8278" style="stop-color:#97999C"/>
	<stop  offset="0.8547" style="stop-color:#919396"/>
	<stop  offset="0.986" style="stop-color:#CCCCCC"/>
</linearGradient>
<path style="fill:url(#SVGID_00000178914897939134771260000016985272712952887936_);" d="M145.4,126.4c-0.9,0.4-1.8,0.6-2.9,1
	c0-32.9,0-66,0-99c0.9,0.4,1.8,0.6,2.9,1V126.4z"/>
<linearGradient id="SVGID_00000085220000011367358070000005850433197824880772_" gradientUnits="userSpaceOnUse" x1="-1703.8257" y1="125.0847" x2="-1717.115" y2="125.0847" gradientTransform="matrix(-1 0 0 -1 -1567.7319 203)">
	<stop  offset="0" style="stop-color:#FFFFFF"/>
	<stop  offset="0.3157" style="stop-color:#FAFAFA;stop-opacity:0.6843"/>
	<stop  offset="1" style="stop-color:#F2F2F2;stop-opacity:0"/>
</linearGradient>
<path style="fill:url(#SVGID_00000085220000011367358070000005850433197824880772_);" d="M145.4,126.4c-0.9,0.4-1.8,0.6-2.9,1
	c0-32.9,0-66,0-99c0.9,0.4,1.8,0.6,2.9,1V126.4z"/>
<linearGradient id="SVGID_00000054980068985272791640000014348090279478460351_" gradientUnits="userSpaceOnUse" x1="75.2518" y1="75.4503" x2="75.2518" y2="174.4639" gradientTransform="matrix(1 0 0 -1 0 203)">
	<stop  offset="0" style="stop-color:#999999"/>
	<stop  offset="0.163" style="stop-color:#727272"/>
	<stop  offset="0.2095" style="stop-color:#666666"/>
	<stop  offset="0.3659" style="stop-color:#9F9D9D"/>
	<stop  offset="0.433" style="stop-color:#919396"/>
	<stop  offset="0.6341" style="stop-color:#FFFFFF"/>
	<stop  offset="0.6518" style="stop-color:#F5F4F4"/>
	<stop  offset="0.6831" style="stop-color:#E8E7E7"/>
	<stop  offset="0.7123" style="stop-color:#E4E3E3"/>
	<stop  offset="0.7494" style="stop-color:#C5C5C6"/>
	<stop  offset="0.7913" style="stop-color:#A8AAAC"/>
	<stop  offset="0.8278" style="stop-color:#97999C"/>
	<stop  offset="0.8547" style="stop-color:#919396"/>
	<stop  offset="0.986" style="stop-color:#CCCCCC"/>
</linearGradient>
<rect x="8.1" y="28.5" style="fill:url(#SVGID_00000054980068985272791640000014348090279478460351_);" width="134.4" height="99"/>
<linearGradient id="SVGID_00000057137920909767974530000001918582354240374926_" gradientUnits="userSpaceOnUse" x1="7.9455" y1="125.0847" x2="100.2161" y2="125.0847" gradientTransform="matrix(1 0 0 -1 0 203)">
	<stop  offset="0" style="stop-color:#999999"/>
	<stop  offset="0.474" style="stop-color:#9B9B9B"/>
	<stop  offset="0.6447" style="stop-color:#A2A2A2"/>
	<stop  offset="0.7665" style="stop-color:#ADADAD"/>
	<stop  offset="0.8649" style="stop-color:#BEBEBE"/>
	<stop  offset="0.9481" style="stop-color:#D4D4D4"/>
	<stop  offset="1" style="stop-color:#E6E6E6"/>
</linearGradient>
<path style="fill:url(#SVGID_00000057137920909767974530000001918582354240374926_);" d="M97.6,105h-87c-1.4,0-2.7-1.1-2.7-2.7V53.5
	c0-1.4,1.1-2.7,2.7-2.7h87c1.4,0,2.7,1.1,2.7,2.7v48.9C100.3,103.8,99,105,97.6,105z"/>
<path class="st26" d="M100.3,53.5c-0.6,6.4-1,13.4-1,20.7c-0.1,10.2,0.3,19.6,1,28.2C100.3,86.1,100.3,69.9,100.3,53.5z"/>
<linearGradient id="SVGID_00000038410042326235743310000017498426369578695348_" gradientUnits="userSpaceOnUse" x1="67.7875" y1="-9.269" x2="67.7875" y2="-59.031" gradientTransform="matrix(1 0 0 -1 0 203)">
	<stop  offset="0" style="stop-color:#424242"/>
	<stop  offset="0.1068" style="stop-color:#333333"/>
	<stop  offset="0.2055" style="stop-color:#2D2D2D"/>
	<stop  offset="0.3492" style="stop-color:#424244"/>
	<stop  offset="0.6732" style="stop-color:#7F7F7F"/>
	<stop  offset="0.9078" style="stop-color:#414042"/>
</linearGradient>
<rect x="6.3" y="212.3" style="fill:url(#SVGID_00000038410042326235743310000017498426369578695348_);" width="123" height="49.8"/>
<linearGradient id="SVGID_00000062169587353282808010000008907174207993698224_" gradientUnits="userSpaceOnUse" x1="158.635" y1="-15.3936" x2="158.635" y2="-52.8203" gradientTransform="matrix(1 0 0 -1 0 203)">
	<stop  offset="0" style="stop-color:#424242"/>
	<stop  offset="0.1068" style="stop-color:#333333"/>
	<stop  offset="0.2055" style="stop-color:#2D2D2D"/>
	<stop  offset="0.3492" style="stop-color:#424244"/>
	<stop  offset="0.6732" style="stop-color:#7F7F7F"/>
	<stop  offset="0.9078" style="stop-color:#414042"/>
</linearGradient>
<rect x="146.3" y="218.4" style="fill:url(#SVGID_00000062169587353282808010000008907174207993698224_);" width="24.8" height="37.5"/>
<linearGradient id="SVGID_00000017480342101068165660000016723810806632865446_" gradientUnits="userSpaceOnUse" x1="137.1353" y1="-17.6903" x2="137.1353" y2="-50.4822" gradientTransform="matrix(1 0 0 -1 0 203)">
	<stop  offset="0" style="stop-color:#424242"/>
	<stop  offset="0.1068" style="stop-color:#333333"/>
	<stop  offset="0.2055" style="stop-color:#2D2D2D"/>
	<stop  offset="0.3492" style="stop-color:#424244"/>
	<stop  offset="0.6732" style="stop-color:#7F7F7F"/>
	<stop  offset="0.9078" style="stop-color:#414042"/>
</linearGradient>
<rect x="131.5" y="220.7" style="fill:url(#SVGID_00000017480342101068165660000016723810806632865446_);" width="11.4" height="32.8"/>
<linearGradient id="SVGID_00000050656712301659723630000016594168460103185281_" gradientUnits="userSpaceOnUse" x1="144.5358" y1="-15.3303" x2="144.5358" y2="-52.8947" gradientTransform="matrix(1 0 0 -1 0 203)">
	<stop  offset="0.1068" style="stop-color:#333333"/>
	<stop  offset="0.2055" style="stop-color:#2D2D2D"/>
	<stop  offset="0.3492" style="stop-color:#424244"/>
	<stop  offset="0.6732" style="stop-color:#666666"/>
	<stop  offset="0.9078" style="stop-color:#414042"/>
</linearGradient>
<path style="fill:url(#SVGID_00000050656712301659723630000016594168460103185281_);" d="M146.3,255.9l-3.4-2.4v-32.7l3.4-2.4V255.9
	z"/>
<linearGradient id="SVGID_00000060726983081169966000000006234846675592338354_" gradientUnits="userSpaceOnUse" x1="130.5004" y1="-9.3583" x2="130.5004" y2="-59.1067" gradientTransform="matrix(1 0 0 -1 0 203)">
	<stop  offset="0.1068" style="stop-color:#333333"/>
	<stop  offset="0.2055" style="stop-color:#2D2D2D"/>
	<stop  offset="0.3492" style="stop-color:#424244"/>
	<stop  offset="0.6732" style="stop-color:#666666"/>
	<stop  offset="0.9078" style="stop-color:#414042"/>
</linearGradient>
<path style="fill:url(#SVGID_00000060726983081169966000000006234846675592338354_);" d="M129.3,262l2.4-8.5v-32.8l-2.4-8.5V262z"/>
<linearGradient id="SVGID_00000159446496413609847280000012306271839289324208_" gradientUnits="userSpaceOnUse" x1="7.0523" y1="-7.4738" x2="7.0523" y2="-61.574" gradientTransform="matrix(1 0 0 -1 0 203)">
	<stop  offset="0.1068" style="stop-color:#333333"/>
	<stop  offset="0.2055" style="stop-color:#2D2D2D"/>
	<stop  offset="0.3492" style="stop-color:#424244"/>
	<stop  offset="0.6732" style="stop-color:#666666"/>
	<stop  offset="0.9078" style="stop-color:#414042"/>
</linearGradient>
<path style="fill:url(#SVGID_00000159446496413609847280000012306271839289324208_);" d="M8.3,262.4l-2.6,2v-54.1l2.6,2.2
	C8.3,212.7,8.3,245.8,8.3,262.4z"/>
<linearGradient id="SVGID_00000144331068424812842100000013560651045407385778_" gradientUnits="userSpaceOnUse" x1="182.5591" y1="105.7755" x2="182.5591" y2="63.9244" gradientTransform="matrix(1 0 0 -1 0 322)">
	<stop  offset="0.1068" style="stop-color:#333333"/>
	<stop  offset="0.2055" style="stop-color:#2D2D2D"/>
	<stop  offset="0.3492" style="stop-color:#424244"/>
	<stop  offset="0.6732" style="stop-color:#666666"/>
	<stop  offset="0.9078" style="stop-color:#414042"/>
</linearGradient>
<polygon style="fill:url(#SVGID_00000144331068424812842100000013560651045407385778_);" points="194.1,216.2 194.1,258.1 171,256 
	171,218.3 "/>
<image style="overflow:visible;" width="200" height="200" xlink:href="../../pepsi.png"  transform="matrix(0.1639 0 0 0.1639 29.1476 61.8475)">
</image>
</svg>
