<?xml version="1.0" encoding="utf-8"?>
<!-- Generator: Adobe Illustrator 25.4.1, SVG Export Plug-In . SVG Version: 6.00 Build 0)  -->
<svg version="1.1" id="Слой_1" xmlns="http://www.w3.org/2000/svg" xmlns:xlink="http://www.w3.org/1999/xlink" x="0px" y="0px"
	 viewBox="0 0 200 320" style="enable-background:new 0 0 200 320;" xml:space="preserve">
<style type="text/css">
	.st0{fill:#666666;}
	.st1{fill:url(#SVGID_1_);}
	.st2{fill:#4D4D4D;}
	.st3{fill:url(#SVGID_00000014593825470413166970000015545523009961068418_);}
	.st4{fill:url(#SVGID_00000060024932937438947700000013238751805848704942_);}
	.st5{fill:#333333;}
	.st6{fill:url(#SVGID_00000181783425269180849690000010425677881247744693_);}
</style>
<polygon points="24.8,218.7 13.2,218.7 7.2,228 13.2,237.4 24.8,237.4 30.6,228 "/>
<polygon points="24.8,86 13.2,86 7.2,95.3 13.2,104.6 24.8,104.6 30.6,95.3 "/>
<rect x="13.2" y="104.6" class="st0" width="11.8" height="114.1"/>
<linearGradient id="SVGID_1_" gradientUnits="userSpaceOnUse" x1="19.0705" y1="102.2944" x2="19.0705" y2="216.444" gradientTransform="matrix(1 0 0 -1 0 321)">
	<stop  offset="0" style="stop-color:#333333"/>
	<stop  offset="0.1095" style="stop-color:#393939;stop-opacity:0.8017"/>
	<stop  offset="0.2583" style="stop-color:#4B4B4B;stop-opacity:0.5321"/>
	<stop  offset="0.429" style="stop-color:#676767;stop-opacity:0.223"/>
	<stop  offset="0.5521" style="stop-color:#808080;stop-opacity:0"/>
	<stop  offset="0.6122" style="stop-color:#6A6A6A;stop-opacity:0.1343"/>
	<stop  offset="0.697" style="stop-color:#525252;stop-opacity:0.3235"/>
	<stop  offset="0.7865" style="stop-color:#414141;stop-opacity:0.5234"/>
	<stop  offset="0.8832" style="stop-color:#363636;stop-opacity:0.7393"/>
	<stop  offset="1" style="stop-color:#333333"/>
</linearGradient>
<rect x="13.2" y="104.6" class="st1" width="11.8" height="114.1"/>
<polygon class="st2" points="30.6,95.3 24.8,104.6 24.8,218.7 30.6,228 "/>
<linearGradient id="SVGID_00000013885903192279877440000008385654259591403453_" gradientUnits="userSpaceOnUse" x1="30.6703" y1="159.3692" x2="24.8217" y2="159.3692" gradientTransform="matrix(1 0 0 -1 0 321)">
	<stop  offset="0" style="stop-color:#333333"/>
	<stop  offset="1" style="stop-color:#333333;stop-opacity:0"/>
</linearGradient>
<polygon style="fill:url(#SVGID_00000013885903192279877440000008385654259591403453_);" points="30.6,95.3 24.8,104.6 24.8,218.7 
	30.6,228 "/>
<polygon class="st2" points="13.2,104.6 7.2,95.3 7.2,228 13.2,218.7 "/>
<linearGradient id="SVGID_00000014611575437844962930000016750198044814469255_" gradientUnits="userSpaceOnUse" x1="7.2757" y1="159.3692" x2="13.1243" y2="159.3692" gradientTransform="matrix(1 0 0 -1 0 321)">
	<stop  offset="0" style="stop-color:#333333"/>
	<stop  offset="1" style="stop-color:#333333;stop-opacity:0"/>
</linearGradient>
<polygon style="fill:url(#SVGID_00000014611575437844962930000016750198044814469255_);" points="13.2,104.6 7.2,95.3 7.2,228 
	13.2,218.7 "/>
<path class="st5" d="M120.8,86c-41.8,0-75.5,33.9-75.5,75.7s33.9,75.7,75.7,75.7s75.7-33.9,75.7-75.7S162.6,86,120.8,86z
	 M120.8,218.8c-31.5,0-57.1-25.6-57.1-57.1s25.6-57.1,57.1-57.1s57.1,25.6,57.1,57.1S152.4,218.8,120.8,218.8z"/>
<path class="st2" d="M120.8,93.5c-37.6,0-68.1,30.4-68.1,68.1s30.4,68.1,68.1,68.1s68.1-30.4,68.1-68.1S158.5,93.5,120.8,93.5z
	 M120.8,218.8c-31.5,0-57.1-25.6-57.1-57.1s25.6-57.1,57.1-57.1s57.1,25.6,57.1,57.1S152.4,218.8,120.8,218.8z"/>
<radialGradient id="SVGID_00000006685279313156430260000001931412605221598889_" cx="120.8366" cy="159.4384" r="68.0747" gradientTransform="matrix(1 0 0 -1 0 321)" gradientUnits="userSpaceOnUse">
	<stop  offset="0.7188" style="stop-color:#333333;stop-opacity:0"/>
	<stop  offset="0.8636" style="stop-color:#353535;stop-opacity:0.5149"/>
	<stop  offset="0.9157" style="stop-color:#3C3C3C;stop-opacity:0.7003"/>
	<stop  offset="0.9529" style="stop-color:#474747;stop-opacity:0.8325"/>
	<stop  offset="0.9827" style="stop-color:#585858;stop-opacity:0.9387"/>
	<stop  offset="1" style="stop-color:#666666"/>
</radialGradient>
<path style="fill:url(#SVGID_00000006685279313156430260000001931412605221598889_);" d="M120.8,93.5c-37.6,0-68.1,30.4-68.1,68.1
	s30.4,68.1,68.1,68.1s68.1-30.4,68.1-68.1S158.5,93.5,120.8,93.5z M120.8,218.7c-31.5,0-57.1-25.6-57.1-57.1s25.6-57.1,57.1-57.1
	S178,130,178,161.6S152.4,218.7,120.8,218.7z"/>
<image style="overflow:visible;" width="200" height="200" xlink:href="../../pepsi.png"  transform="matrix(4.289988e-02 0 0 4.289988e-02 53.7849 155.0578)">
</image>
</svg>
