<?xml version="1.0" encoding="utf-8"?>
<!-- Generator: Adobe Illustrator 25.4.1, SVG Export Plug-In . SVG Version: 6.00 Build 0)  -->
<svg version="1.1" id="Слой_1" xmlns="http://www.w3.org/2000/svg" xmlns:xlink="http://www.w3.org/1999/xlink" x="0px" y="0px"
	 viewBox="0 0 200 320" style="enable-background:new 0 0 200 320;" xml:space="preserve">
<style type="text/css">
	.st0{fill:#333333;}
	.st1{fill:#666666;}
	.st2{fill:url(#SVGID_1_);}
</style>
<path class="st0" d="M119.4,84.3c-41.8,0-75.7,33.9-75.7,75.7s33.9,75.7,75.7,75.7s75.7-33.9,75.7-75.7S161.1,84.3,119.4,84.3z
	 M119.4,225.2c-36,0-65.2-29.1-65.2-65.2c0-35.9,29.1-65.2,65.2-65.2s65.2,29.1,65.2,65.2S155.3,225.2,119.4,225.2z"/>
<rect x="7.2" y="84.4" class="st1" width="23.5" height="151.3"/>
<linearGradient id="SVGID_1_" gradientUnits="userSpaceOnUse" x1="18.9111" y1="85.3051" x2="18.9111" y2="236.5599" gradientTransform="matrix(1 0 0 -1 0 321)">
	<stop  offset="0" style="stop-color:#333333"/>
	<stop  offset="0.1095" style="stop-color:#393939;stop-opacity:0.8017"/>
	<stop  offset="0.2583" style="stop-color:#4B4B4B;stop-opacity:0.5321"/>
	<stop  offset="0.429" style="stop-color:#676767;stop-opacity:0.223"/>
	<stop  offset="0.5521" style="stop-color:#808080;stop-opacity:0"/>
	<stop  offset="0.6122" style="stop-color:#6A6A6A;stop-opacity:0.1343"/>
	<stop  offset="0.697" style="stop-color:#525252;stop-opacity:0.3235"/>
	<stop  offset="0.7865" style="stop-color:#414141;stop-opacity:0.5234"/>
	<stop  offset="0.8832" style="stop-color:#363636;stop-opacity:0.7393"/>
	<stop  offset="1" style="stop-color:#333333"/>
</linearGradient>
<rect x="7.2" y="84.4" class="st2" width="23.5" height="151.3"/>
<rect x="7.2" y="84.4" width="23.5" height="10.5"/>
<rect x="7.2" y="225.2" width="23.5" height="10.5"/>
<image style="overflow:visible;" width="200" height="200" xlink:href="../../pepsi.png"  transform="matrix(4.065441e-02 0 0 4.065441e-02 44.7847 156.002)">
</image>
</svg>
