<?xml version="1.0" encoding="utf-8"?>
<!-- Generator: Adobe Illustrator 25.4.1, SVG Export Plug-In . SVG Version: 6.00 Build 0)  -->
<svg version="1.1" id="Слой_1" xmlns="http://www.w3.org/2000/svg" xmlns:xlink="http://www.w3.org/1999/xlink" x="0px" y="0px"
	 viewBox="0 0 100 160" style="enable-background:new 0 0 100 160;" xml:space="preserve">
<style type="text/css">
	.st0{fill:#282828;stroke:#282828;stroke-width:0.5;stroke-miterlimit:10;}
	.st1{fill:url(#SVGID_00000122700921518692703960000008027131192608242073_);}
	.st2{opacity:0.28;fill:url(#SVGID_00000093865697385798057560000000631294279590736281_);enable-background:new    ;}
	.st3{fill:url(#SVGID_00000146466849323389834070000003652496851744619696_);}
	.st4{fill:url(#SVGID_00000098910740377118792570000001367963768409072805_);}
	.st5{fill:url(#SVGID_00000101825246668448714480000002474372349152021937_);}
	.st6{opacity:0.23;fill:url(#SVGID_00000090270894437779590590000001637327032742577589_);enable-background:new    ;}
	.st7{opacity:0.13;fill:url(#SVGID_00000170977928693288601010000013340729343400933532_);enable-background:new    ;}
	.st8{fill:url(#SVGID_00000128456085793784175170000003162799326306371003_);}
	.st9{opacity:0.33;fill:url(#SVGID_00000147908253019292833620000000261907004704197765_);enable-background:new    ;}
	.st10{fill:url(#SVGID_00000113321062026930308540000003542633277687336871_);}
	.st11{fill:url(#SVGID_00000140722901179432657010000016526352323709991593_);}
	.st12{fill:url(#SVGID_00000078731590190671656000000005864824136197232777_);}
	.st13{fill:url(#SVGID_00000026866111143383884710000013248422990142296765_);}
	.st14{fill:url(#SVGID_00000068644167224214594320000003464786767792831381_);}
	.st15{fill:url(#SVGID_00000097499507328998534940000011091456664449637251_);}
	.st16{fill:url(#SVGID_00000113350479028445550870000006556074080372892607_);}
	.st17{fill:url(#SVGID_00000136412426963453059970000006982189409661116057_);}
	.st18{fill:none;stroke:#ADADAD;stroke-width:0.35;stroke-miterlimit:10;}
	.st19{fill:url(#SVGID_00000183241001925893732270000003262652184848587648_);}
	.st20{fill:url(#SVGID_00000094614368287461278270000000206101278167371912_);}
	.st21{opacity:0.38;enable-background:new    ;}
	.st22{fill:#8C8C8C;}
	.st23{fill:none;stroke:#ADADAD;stroke-width:0.5;stroke-miterlimit:10;}
	.st24{fill:#282828;}
	.st25{fill:none;}
	.st26{fill:none;stroke:#8C8C8C;stroke-width:0.2;}
	.st27{fill:url(#SVGID_00000007406619410758459630000015943353446739327104_);}
	.st28{fill:url(#SVGID_00000062150862772755504140000013361503501744254631_);}
	.st29{fill:url(#SVGID_00000138546755774716022510000003452513282355327150_);}
	.st30{fill:url(#SVGID_00000040542230918749098620000017134089723326171053_);}
	.st31{fill:url(#SVGID_00000148649407024054383340000009872685859837978789_);}
	.st32{fill:url(#SVGID_00000071559166792900802000000000000880520484637887_);}
	.st33{opacity:0.4;fill:url(#SVGID_00000130636570331863724300000000608670881923335051_);enable-background:new    ;}
	.st34{opacity:0.33;fill:url(#SVGID_00000180340386941530913900000012705785939261828512_);enable-background:new    ;}
	.st35{opacity:0.33;fill:url(#SVGID_00000079473449717687683540000017636941566259823748_);enable-background:new    ;}
	.st36{opacity:0.33;fill:url(#SVGID_00000183223526283773969940000002564196643292669353_);enable-background:new    ;}
</style>
<g>
	<defs>
		<path id="SVGID_1_" d="M94.3,113.8L94.3,113.8c0-0.5,0-0.8,0-0.8c0-0.5-0.5-1.9-0.6-2.1h-1H91c0-3.4,0-6.7,0-10.1
			c0-0.5,0-1.1,0-1.5l0,0l0,0c-0.1-3.4-1-5.6-1-5.6H62.4c-0.9,2.5-1.1,5-1,7.2c0,1.5,0,2.9,0,4.4l0,0c-0.3-0.4-0.6-0.7-0.8-1.1
			c-0.3,0.4-0.6,0.9-0.9,1.3c-2.6,0.4-4.1,0.5-5.1,0.4l0,0c-1.2,0-2.2-0.1-2.8-0.3c-0.2,0-0.4-0.1-0.6-0.1l0,0v-8.2h-5h-9v-4.1
			c0-0.8,0-1.7,0-2.4l0,0C37.1,86,36.3,83,36.3,83H8.5c-0.6,2.9-1,6.2-1,10c0,1.5,0.1,2.9,0.2,4.3h1.9c0,15.6,0,31.2,0,46.9
			c-1.2,0-2,0-2,0s0,2.4,0,4.3c0,2.9,0,4.4,0.2,6s0.5,2.9,0.7,3.8c9.2,0,18.4,0,27.6,0c0.6-2.9,0.9-5.6,0.9-8l0,0v-6.1h9h5v-8.6
			c4-0.8,7.7-0.1,8.4,0h0.1l0,0l0,0l0,0c0.3,0.4,0.6,0.8,0.9,1.3c0.3-0.4,0.6-0.8,0.9-1.2v3.6c-0.2,4.5,1,8.1,1,8.1H90
			c0.6-2.1,0.9-4,0.9-5.7l0,0c0-3.3,0-6.6,0-9.9c1,0,2,0,3,0c-0.2-0.5-0.4-1.1-0.5-1.6c-0.2-0.7-0.8-2.7-0.8-5.3
			c0-2.7,0.7-5.1,0.8-5.3c0.1-0.5,0.3-1,0.5-2c0.3-1.5,0.3-2.4,0.3-2.6C94.3,114.7,94.3,114.3,94.3,113.8z"/>
	</defs>
	<clipPath id="SVGID_00000154402080655325514250000002167074494730326190_">
		<use xlink:href="#SVGID_1_"  style="overflow:visible;"/>
	</clipPath>
	<g style="clip-path:url(#SVGID_00000154402080655325514250000002167074494730326190_);">
		
			<image style="overflow:visible;" width="600" height="600" xlink:href="../../background.jpg"  transform="matrix(0.1555 0 0 0.1555 2.9551 78.2584)">
		</image>
	</g>
</g>
<path class="st0" d="M26.6,94.7c0.8,0.7,1.5,1.5,2.3,2.2c0.7,0,1.4,0,2.2,0c-0.5-0.3-1.1-0.7-1.6-1l0,0c0,0-0.6-0.4-1.9-1.4
	c0-0.2,0-0.3,0-0.5s0-0.3,0-0.5l0,0c0-0.2,0-1.1,0-1.1l0,0l0,0c-0.2,0-0.4,0-0.5,0c-0.5,0-1.1,0-1.6,0c-0.4,0-0.7,0-1.1,0
	c-0.2,0-0.2,0-0.2,0s-1.1-1.3-1.6-1.9c-0.4,0.7-0.8,1.3-1.2,2l-1.2-2.4c-0.5,1.1-0.8,1.7-0.8,1.7v1c0,0,0,0,0.7,0.5c0,1,0,2,0,3
	c0.3,0,0.6,0.1,0.9,0.1C22.8,95.8,24.7,95.2,26.6,94.7z"/>
<linearGradient id="SVGID_00000119102609105959848360000002860607290383419802_" gradientUnits="userSpaceOnUse" x1="-1532.6752" y1="207.4431" x2="-1532.6752" y2="186.1052" gradientTransform="matrix(-1 0 0 1 -1440.5752 -157.9431)">
	<stop  offset="0" style="stop-color:#999898"/>
	<stop  offset="0.1963" style="stop-color:#4F4F4F"/>
	<stop  offset="0.2507" style="stop-color:#5B5B5B"/>
	<stop  offset="0.3499" style="stop-color:#7C7C7C"/>
	<stop  offset="0.3704" style="stop-color:#848484"/>
	<stop  offset="0.433" style="stop-color:#878787"/>
	<stop  offset="0.5268" style="stop-color:#A0A0A0"/>
	<stop  offset="0.6843" style="stop-color:#C6C6C6"/>
	<stop  offset="0.9078" style="stop-color:#B7B7B7"/>
	<stop  offset="1" style="stop-color:#C6C6C6"/>
</linearGradient>
<path style="fill:url(#SVGID_00000119102609105959848360000002860607290383419802_);" d="M93.3,28.2c-1.1,0-2.2,0-3.2,0v21.3
	c1.1,0,2.1,0,3.2-0.1c-0.2-0.7-0.8-2.7-0.8-5.3c0-2.7,0.7-5.1,0.8-5.3c0.1-0.5,0.3-1,0.5-2c0.3-1.5,0.3-2.4,0.3-2.6
	c0-0.1,0-0.6,0-1.1c0-0.1,0-0.5,0-0.8c0-0.8-0.1-1.3-0.2-1.8C93.7,29.5,93.5,28.7,93.3,28.2z"/>
<linearGradient id="SVGID_00000160191188464295327770000012117391536531968431_" gradientUnits="userSpaceOnUse" x1="-1863.1201" y1="474.9597" x2="-1861.3845" y2="474.9597" gradientTransform="matrix(-1 0 0 -1 -1770.678 513.8097)">
	<stop  offset="0" style="stop-color:#000000;stop-opacity:0"/>
	<stop  offset="0.3429" style="stop-color:#0A0A0A;stop-opacity:0.3341"/>
	<stop  offset="0.9264" style="stop-color:#252525;stop-opacity:0.9026"/>
	<stop  offset="1" style="stop-color:#292929;stop-opacity:0.9744"/>
</linearGradient>
<polygon style="opacity:0.28;fill:url(#SVGID_00000160191188464295327770000012117391536531968431_);enable-background:new    ;" points="
	90.7,49.5 92.4,49.5 92.4,28.2 90.7,28.2 "/>
<linearGradient id="SVGID_00000085236064922773269710000004957241747072588208_" gradientUnits="userSpaceOnUse" x1="55" y1="106.3" x2="55" y2="136.4507" gradientTransform="matrix(1 0 0 -1 0 161)">
	<stop  offset="0" style="stop-color:#999898"/>
	<stop  offset="0.1963" style="stop-color:#4F4F4F"/>
	<stop  offset="0.2507" style="stop-color:#5B5B5B"/>
	<stop  offset="0.3499" style="stop-color:#7C7C7C"/>
	<stop  offset="0.3704" style="stop-color:#848484"/>
	<stop  offset="0.433" style="stop-color:#878787"/>
	<stop  offset="0.5974" style="stop-color:#D9D9D9"/>
	<stop  offset="0.6843" style="stop-color:#FFFFFF"/>
	<stop  offset="0.9078" style="stop-color:#B7B7B7"/>
	<stop  offset="1" style="stop-color:#C6C6C6"/>
</linearGradient>
<path style="fill:url(#SVGID_00000085236064922773269710000004957241747072588208_);" d="M59.4,54.7c0,0-4.3-0.9-8.8,0V24.6
	c0,0,3.6,1,8.8,0V54.7z"/>
<linearGradient id="SVGID_00000118376856223512663120000007934435199098022314_" gradientUnits="userSpaceOnUse" x1="-1031.0961" y1="105" x2="-1031.0961" y2="137.7407" gradientTransform="matrix(-1 0 0 -1 -971.1461 161)">
	<stop  offset="0" style="stop-color:#636363"/>
	<stop  offset="0.1983" style="stop-color:#444444"/>
	<stop  offset="0.2933" style="stop-color:#383838"/>
	<stop  offset="0.433" style="stop-color:#565656"/>
	<stop  offset="0.6732" style="stop-color:#E5E5E5"/>
	<stop  offset="0.9078" style="stop-color:#7F7E7E"/>
	<stop  offset="1" style="stop-color:#939292"/>
</linearGradient>
<path style="fill:url(#SVGID_00000118376856223512663120000007934435199098022314_);" d="M60.4,56c-0.3-0.4-0.6-0.8-0.9-1.3
	c0-10.1,0-20.2,0-30.3c0.3-0.4,0.6-0.8,0.9-1.1V56z"/>
<linearGradient id="SVGID_00000102507274966194362180000012168419786243477920_" gradientUnits="userSpaceOnUse" x1="-15.3472" y1="105" x2="-15.3472" y2="137.7407" gradientTransform="matrix(1 0 0 -1 76.2472 161)">
	<stop  offset="0" style="stop-color:#7F7F7F"/>
	<stop  offset="0.1983" style="stop-color:#606060"/>
	<stop  offset="0.2933" style="stop-color:#545454"/>
	<stop  offset="0.433" style="stop-color:#757575"/>
	<stop  offset="0.6732" style="stop-color:#FFFFFF"/>
	<stop  offset="0.9078" style="stop-color:#9B9B9B"/>
	<stop  offset="1" style="stop-color:#B2B2B2"/>
</linearGradient>
<path style="fill:url(#SVGID_00000102507274966194362180000012168419786243477920_);" d="M60.4,56c0.3-0.5,0.6-0.9,1-1.4
	c0-10,0-20,0-30c-0.3-0.5-0.6-0.9-0.9-1.4L60.4,56L60.4,56z"/>
<linearGradient id="SVGID_00000061455818490742517650000011524061304109049020_" gradientUnits="userSpaceOnUse" x1="-169.1459" y1="550.4028" x2="-166.1688" y2="550.4028" gradientTransform="matrix(1 0 0 1 225.5993 -510.7528)">
	<stop  offset="0" style="stop-color:#000000;stop-opacity:0"/>
	<stop  offset="1" style="stop-color:#000000;stop-opacity:0.9744"/>
</linearGradient>
<path style="opacity:0.23;fill:url(#SVGID_00000061455818490742517650000011524061304109049020_);enable-background:new    ;" d="
	M59.4,24.6c-0.5,0.1-1.1,0.3-1.6,0.3C57.3,25,56.9,25,56.5,25c0,9.8,0,19.6,0,29.3c0.4,0,0.9,0.1,1.4,0.1c0.6,0.1,1.1,0.2,1.6,0.3
	C59.4,44.7,59.4,34.6,59.4,24.6z"/>
<linearGradient id="SVGID_00000115510792497278578740000009170039842438159279_" gradientUnits="userSpaceOnUse" x1="-1132.7528" y1="550.4028" x2="-1129.1689" y2="550.4028" gradientTransform="matrix(-1 0 0 1 -1078.296 -510.7528)">
	<stop  offset="0" style="stop-color:#010101;stop-opacity:1.521599e-02"/>
	<stop  offset="0.3743" style="stop-color:#0D0D0D;stop-opacity:0.3742"/>
	<stop  offset="1" style="stop-color:#292929;stop-opacity:0.9744"/>
</linearGradient>
<path style="opacity:0.13;fill:url(#SVGID_00000115510792497278578740000009170039842438159279_);enable-background:new    ;" d="
	M50.9,24.6c0.5,0.1,1.2,0.2,1.8,0.3c0.6,0.1,1.2,0.1,1.8,0.1c0,9.8,0,19.5,0,29.3c-0.6,0-1.2,0-1.9,0.1c-0.6,0.1-1.1,0.2-1.6,0.3
	C50.9,44.6,50.9,34.6,50.9,24.6z"/>
<linearGradient id="SVGID_00000009573694946099744930000000389531303074268329_" gradientUnits="userSpaceOnUse" x1="43.75" y1="97.7" x2="43.75" y2="144.6" gradientTransform="matrix(1 0 0 -1 0 161)">
	<stop  offset="0" style="stop-color:#999898"/>
	<stop  offset="0.1963" style="stop-color:#4F4F4F"/>
	<stop  offset="0.2507" style="stop-color:#5B5B5B"/>
	<stop  offset="0.3499" style="stop-color:#7C7C7C"/>
	<stop  offset="0.3704" style="stop-color:#848484"/>
	<stop  offset="0.433" style="stop-color:#878787"/>
	<stop  offset="0.5974" style="stop-color:#D9D9D9"/>
	<stop  offset="0.6843" style="stop-color:#FFFFFF"/>
	<stop  offset="0.9078" style="stop-color:#B7B7B7"/>
	<stop  offset="1" style="stop-color:#C6C6C6"/>
</linearGradient>
<rect x="36.6" y="16.4" style="fill:url(#SVGID_00000009573694946099744930000000389531303074268329_);" width="14.3" height="46.9"/>
<linearGradient id="SVGID_00000117651483919271418560000001512525106214452654_" gradientUnits="userSpaceOnUse" x1="-1401.9158" y1="136.6556" x2="-1392.6293" y2="136.6556" gradientTransform="matrix(-1 0 0 -1 -1356.0504 176.5056)">
	<stop  offset="0" style="stop-color:#000000;stop-opacity:0"/>
	<stop  offset="0.3429" style="stop-color:#0A0A0A;stop-opacity:0.3341"/>
	<stop  offset="0.9264" style="stop-color:#252525;stop-opacity:0.9026"/>
	<stop  offset="1" style="stop-color:#292929;stop-opacity:0.9744"/>
</linearGradient>
<polygon style="opacity:0.33;fill:url(#SVGID_00000117651483919271418560000001512525106214452654_);enable-background:new    ;" points="
	36.6,63.3 45.9,63.3 45.9,16.4 36.6,16.4 "/>
<g>
	
		<linearGradient id="SVGID_00000178170427810182908770000006888050759373805221_" gradientUnits="userSpaceOnUse" x1="-983.3958" y1="91.6" x2="-983.3958" y2="151.1" gradientTransform="matrix(-1 0 0 -1 -961.2958 161)">
		<stop  offset="2.234637e-02" style="stop-color:#1A1A1A"/>
		<stop  offset="0.9832" style="stop-color:#CCCCCC"/>
	</linearGradient>
	<polygon style="fill:url(#SVGID_00000178170427810182908770000006888050759373805221_);" points="7.3,69.4 36.9,69.4 36.9,9.9 
		7.3,9.9 	"/>
	
		<linearGradient id="SVGID_00000122698298392527575900000001180206600998939562_" gradientUnits="userSpaceOnUse" x1="-983.3736" y1="83.6407" x2="-983.3736" y2="102.1215" gradientTransform="matrix(-1 0 0 -1 -961.2958 161)">
		<stop  offset="0" style="stop-color:#727272"/>
		<stop  offset="1" style="stop-color:#4C4C4C"/>
	</linearGradient>
	<path style="fill:url(#SVGID_00000122698298392527575900000001180206600998939562_);" d="M8.3,58.9h27.6c0,0,2.2,7.9,0,18.5H8.3
		C8.3,77.4,6,67.9,8.3,58.9z"/>
	
		<linearGradient id="SVGID_00000132790698526041173300000017777629875980537985_" gradientUnits="userSpaceOnUse" x1="-983.3958" y1="102.1" x2="-983.3958" y2="140.4" gradientTransform="matrix(-1 0 0 -1 -961.2958 161)">
		<stop  offset="0" style="stop-color:#A0A0A0"/>
		<stop  offset="1" style="stop-color:#777777"/>
	</linearGradient>
	<path style="fill:url(#SVGID_00000132790698526041173300000017777629875980537985_);" d="M8.3,20.6h27.6c0,0,2.2,16.4,0,38.3H8.3
		C8.3,58.9,6.1,39.2,8.3,20.6z"/>
	
		<linearGradient id="SVGID_00000028295325481996559670000006699672531812968856_" gradientUnits="userSpaceOnUse" x1="-983.3958" y1="140.4441" x2="-983.3958" y2="158.9249" gradientTransform="matrix(-1 0 0 -1 -961.2958 161)">
		<stop  offset="0" style="stop-color:#F4F4F4"/>
		<stop  offset="1" style="stop-color:#BABABA"/>
	</linearGradient>
	<path style="fill:url(#SVGID_00000028295325481996559670000006699672531812968856_);" d="M8.3,2.1h27.6c0,0,2.2,7.9,0,18.5H8.3
		C8.3,20.6,6.1,11,8.3,2.1z"/>
</g>
<g>
	
		<linearGradient id="SVGID_00000064344491114259575840000000605252454161352873_" gradientUnits="userSpaceOnUse" x1="-1037.2958" y1="100.2" x2="-1037.2958" y2="142.6583" gradientTransform="matrix(-1 0 0 -1 -961.2958 161)">
		<stop  offset="2.234637e-02" style="stop-color:#1A1A1A"/>
		<stop  offset="0.9832" style="stop-color:#CCCCCC"/>
	</linearGradient>
	<polygon style="fill:url(#SVGID_00000064344491114259575840000000605252454161352873_);" points="61.2,60.8 90.8,60.8 90.8,18.4 
		61.2,18.4 	"/>
	
		<linearGradient id="SVGID_00000023978933963585760200000002637483556970192534_" gradientUnits="userSpaceOnUse" x1="-1037.3236" y1="94.5" x2="-1037.3236" y2="107.6788" gradientTransform="matrix(-1 0 0 -1 -961.2958 161)">
		<stop  offset="0" style="stop-color:#727272"/>
		<stop  offset="1" style="stop-color:#4C4C4C"/>
	</linearGradient>
	<path style="fill:url(#SVGID_00000023978933963585760200000002637483556970192534_);" d="M62.2,53.3h27.7c0,0,2.2,5.6,0,13.2H62.2
		C62.2,66.5,59.9,59.7,62.2,53.3z"/>
	
		<linearGradient id="SVGID_00000077302698282736937540000001847164931988382652_" gradientUnits="userSpaceOnUse" x1="-1037.3458" y1="107.7" x2="-1037.3458" y2="135.0281" gradientTransform="matrix(-1 0 0 -1 -961.2958 161)">
		<stop  offset="0" style="stop-color:#A0A0A0"/>
		<stop  offset="1" style="stop-color:#777777"/>
	</linearGradient>
	<path style="fill:url(#SVGID_00000077302698282736937540000001847164931988382652_);" d="M62.2,26h27.7c0,0,2.2,11.7,0,27.3H62.2
		C62.2,53.3,60,39.3,62.2,26z"/>
	
		<linearGradient id="SVGID_00000173147710611149775080000006771796350477514633_" gradientUnits="userSpaceOnUse" x1="-1037.3458" y1="135" x2="-1037.3458" y2="148.1788" gradientTransform="matrix(-1 0 0 -1 -961.2958 161)">
		<stop  offset="0" style="stop-color:#F4F4F4"/>
		<stop  offset="1" style="stop-color:#BABABA"/>
	</linearGradient>
	<path style="fill:url(#SVGID_00000173147710611149775080000006771796350477514633_);" d="M62.2,12.8h27.7c0,0,2.2,5.6,0,13.2H62.2
		C62.2,26,60,19.2,62.2,12.8z"/>
</g>
<path class="st18" d="M94.3,113.8L94.3,113.8c0-0.5,0-0.8,0-0.8c0-0.5-0.5-1.9-0.6-2.1h-1H91c0-3.4,0-6.7,0-10.1c0-0.5,0-1.1,0-1.5
	l0,0l0,0c-0.1-3.4-1-5.6-1-5.6H62.4c-0.9,2.5-1.1,5-1,7.2v4.6c-0.3-0.4-0.6-0.9-0.9-1.3c-0.3,0.4-0.6,0.8-0.9,1.1c0,0.1,0,0.1,0,0.2
	l0,0l0,0l0,0c-2,0.4-3.7,0.5-5.1,0.4l0,0c-1.2,0-2.2-0.1-2.8-0.3c-0.2,0-0.4-0.1-0.6-0.1l0,0v-8.2h-5h-9v-4.1c0-0.8,0-1.7,0-2.4l0,0
	C37,86,36.2,83,36.2,83H8.5c-1,4.9-1.1,8-1,10c0.1,1.4,0.3,5.7,0.2,4.3h1.9c0,15.6,0,31.2,0,46.9c-1.2,0-2,0-2,0s0,2.4,0,4.3
	c0,2.9,0,4.4,0.2,6s0.5,2.9,0.7,3.8c9.2,0,18.4,0,27.6,0c0.6-2.9,0.9-5.6,0.9-8l0,0v-6.1h9h5v-8.6c4-0.8,7.7-0.1,8.4,0h0.1l0,0l0,0
	l0,0c0.3,0.4,0.6,0.8,0.9,1.3c0.3-0.4,0.6-0.8,0.9-1.2v3.6c-0.2,4.5,1,8.1,1,8.1H90c0.6-2.1,0.9-4,0.9-5.7l0,0c0-3.3,0-6.6,0-9.9
	c1,0,2,0,3,0c-0.2-0.5-0.4-1.1-0.5-1.6c-0.2-0.7-0.8-2.7-0.8-5.3c0-2.7,0.7-5.1,0.8-5.3c0.1-0.5,0.3-1,0.5-2
	c0.3-1.5,0.3-2.4,0.3-2.6C94.3,114.7,94.3,114.3,94.3,113.8z"/>
<linearGradient id="SVGID_00000084529829937319583570000005572290389414263221_" gradientUnits="userSpaceOnUse" x1="-1680.8536" y1="26" x2="-1680.8536" y2="26" gradientTransform="matrix(-1 0 0 -1 -1602.6537 161)">
	<stop  offset="0" style="stop-color:#808285"/>
	<stop  offset="0.2039" style="stop-color:#424244"/>
	<stop  offset="0.3035" style="stop-color:#464648"/>
	<stop  offset="0.4018" style="stop-color:#525253"/>
	<stop  offset="0.4888" style="stop-color:#636363"/>
	<stop  offset="0.6229" style="stop-color:#666666"/>
	<stop  offset="0.7905" style="stop-color:#959696"/>
	<stop  offset="0.8351" style="stop-color:#747575"/>
	<stop  offset="0.919" style="stop-color:#919191"/>
	<stop  offset="1" style="stop-color:#676868"/>
</linearGradient>
<path style="fill:url(#SVGID_00000084529829937319583570000005572290389414263221_);" d="M78.2,135"/>
<linearGradient id="SVGID_00000096020350956808576320000005553243765023786924_" gradientUnits="userSpaceOnUse" x1="-1672.5537" y1="54.4" x2="-1672.5537" y2="54.4" gradientTransform="matrix(-1 0 0 -1 -1602.6537 161)">
	<stop  offset="0" style="stop-color:#444444"/>
	<stop  offset="8.097430e-02" style="stop-color:#5B5B5B"/>
	<stop  offset="0.2486" style="stop-color:#3A3A3A"/>
	<stop  offset="0.3205" style="stop-color:#3E3E3E"/>
	<stop  offset="0.3898" style="stop-color:#494949"/>
	<stop  offset="0.458" style="stop-color:#5D5D5D"/>
	<stop  offset="0.4832" style="stop-color:#666666"/>
	<stop  offset="0.6844" style="stop-color:#474747"/>
	<stop  offset="0.8352" style="stop-color:#636363"/>
</linearGradient>
<path style="fill:url(#SVGID_00000096020350956808576320000005553243765023786924_);" d="M69.9,106.6"/>
<path class="st21" d="M94.1,117.2c0.2-1,0.4-2.1,0.2-3.6c-0.1-1.2-0.4-2.1-0.6-2.8c-0.6,0-1.2,0-1.8,0c-0.6,0-0.9,0-0.9,0
	s0-2.8,0-5.8c0-1.7,0.1-1.6,0.1-2.6c0-1.2,0-2.2-0.1-4.2c-0.1-1.2-0.1-1.4-0.1-1.5c-0.2-1.4-0.5-2.4-0.8-3.2
	c-9.3,0-18.5,0.1-27.8,0.1c-0.4,1.2-0.7,2.5-0.9,3.7v0.1c0,0.4-0.1,0.8-0.1,1.1c-0.1,1.1,0,2.2,0,2.2c0,1.2,0.1,2.7,0.1,4.5l1-2.2
	c0.2,0.3,0.4,0.6,0.6,1c0.2,0.4,0.4,0.8,0.6,1.2c0.3-0.8,0.7-1.6,1-2.3c0.4,0.7,0.8,1.5,1.3,2.2c0.3-0.7,0.7-1.5,1-2.2
	c0.4,0.8,0.8,1.6,1.2,2.3c0.4-0.8,0.8-1.6,1.1-2.4c0.4,0.8,0.8,1.5,1.2,2.3c0.4-0.8,0.8-1.5,1.1-2.3c0.3,0.7,0.6,1.4,1,2.1
	c0.6,0.2,1.3,0.5,1.9,0.7c-0.1,10-0.2,20.1-0.3,30.1c-0.6,0-1.2,0-1.9,0c0,0.5,0,0.6,0,0.6l-0.7,1.8l-1.3-2.2c0,0-0.4,0.8-1,2.2
	c-0.4-0.7-0.8-1.5-1.2-2.2c-0.4,0.7-0.8,1.5-1.2,2.2c-0.4-0.7-0.8-1.5-1.2-2.2c-0.4,0.7-0.7,1.5-1.1,2.2c-0.4-0.7-0.8-1.5-1.3-2.2
	c-0.4,0.7-0.7,1.5-1.1,2.2c-0.3-0.6-0.6-1.3-1-1.9c0,0.9-0.1,1.8-0.1,2.8c0,0.8,0,1.6,0,2.3v0.1l0,0c0.2,3.3,1,5.7,1,5.7h27.9
	c0.2-0.8,0.3-1.7,0.5-2.7c0,0,0.2-1.5,0.4-3c0.2-2,0.3-5.5,0-9.9c0.4-0.1,0.9-0.2,1.6-0.2c0.6,0,1.1,0.1,1.4,0.2
	c-0.7-1.1-1.4-2.6-1.7-4.5c-0.1-0.4-0.2-1.4-0.1-2.6c0.1-0.8,0.2-1.3,0.9-3.8C93.9,117.9,93.9,117.9,94.1,117.2z"/>
<path class="st0" d="M79.7,134c0.5-0.7,1.6-2,3.4-2.5c0.4-0.1,0.7-0.2,1-0.2c-1.1,1-2.3,2-3.4,2.9c0,0.3,0,0.7,0,1l0,0
	c0,0.3,0,1.1,0,1.1l0,0l0,0c-0.2,0-0.4,0-0.5,0c-0.5,0-1.1,0-1.6,0c-0.4,0-0.7,0-1.1,0c-0.2,0-0.2,0-0.2,0s-1.1,1.4-1.6,2
	c-0.4-0.7-0.8-1.4-1.2-2.1l-1.2,2.5c-0.5-1.2-0.8-1.9-0.8-1.9l0,0v-0.9l0,0c0,0,0.3-0.2,0.7-0.5c0-1,0-2.1,0-3.1
	c0.3-0.1,0.6-0.1,0.9-0.2C76,132.9,77.8,133.5,79.7,134z"/>
<path class="st22" d="M92.9,112.3"/>
<g>
	<defs>
		<path id="SVGID_00000152247299287377526990000012546452816072104071_" d="M60,131.6c0-0.9,0-1.7,0-2.6c11,0,22.1,0,33.1,0.1
			c0.1,0.4,0.2,0.9,0.4,1.4c0.1,0.5,0.3,0.9,0.5,1.2C82.6,131.7,71.3,131.6,60,131.6z"/>
	</defs>
	<clipPath id="SVGID_00000057834294235779772870000008829345639583739063_">
		<use xlink:href="#SVGID_00000152247299287377526990000012546452816072104071_"  style="overflow:visible;"/>
	</clipPath>
	
		<g transform="matrix(1 3.308722e-24 0 1 7.629395e-06 0)" style="clip-path:url(#SVGID_00000057834294235779772870000008829345639583739063_);">
		
			<image style="overflow:visible;" width="600" height="600" xlink:href="../../background.jpg"  transform="matrix(6.517754e-18 9.206044e-02 -0.1064 5.637076e-18 112.2818 79.3393)">
		</image>
	</g>
</g>
<path class="st23" d="M72.8,106.1c-0.1-0.3-0.2-0.6-0.3-1c-0.3-0.8-0.5-1.5-0.8-2.1c-0.4,0.8-0.8,1.5-1.1,2.3
	c-0.4-0.8-0.8-1.5-1.2-2.3c-0.4,0.7-0.8,1.5-1.1,2.2c-0.4-0.7-0.8-1.5-1.2-2.2c-0.3,0.7-0.7,1.5-1,2.2c-0.4-0.7-0.8-1.5-1.3-2.2
	c-0.3,0.8-0.7,1.6-1,2.3c-0.4-0.8-0.8-1.6-1.1-2.3c-0.4,0.7-0.8,1.5-1.2,2.2"/>
<rect x="73.1" y="104.6" class="st24" width="0.2" height="0.4"/>
<path class="st25" d="M77.5,106.4"/>
<path class="st0" d="M75.7,104.1"/>
<path class="st0" d="M76,106"/>
<path class="st26" d="M83.3,109.1"/>
<path class="st25" d="M71.9,107.7"/>
<path class="st0" d="M79.7,108.3c0.5,0.7,1.6,2,3.4,2.5c0.4,0.1,0.7,0.2,1,0.2c-1.1-1-2.3-2-3.4-2.9c0-0.3,0-0.7,0-1l0,0
	c0-0.3,0-1.1,0-1.1l0,0l0,0c-0.2,0-0.4,0-0.5,0c-0.5,0-1.1,0-1.6,0c-0.4,0-0.7,0-1.1,0c-0.2,0-0.2,0-0.2,0s-1.1-1.4-1.6-2
	c-0.4,0.7-0.8,1.4-1.2,2.1l-1.2-2.5c-0.5,1.2-0.8,1.7-0.8,1.7l0,0v1l0,0c0,0,0,0,0.7,0.5c0,1,0,2.1,0,3.1c0.3,0.1,0.6,0.1,0.9,0.2
	C76,109.5,77.8,108.9,79.7,108.3z"/>
<polygon class="st24" points="67.2,109.9 63.2,110.8 67.2,110.8 "/>
<path class="st25" d="M68.1,109.5c0.4,0,0.8,0,1.2,0c-0.4,0.2-0.8,0.5-1.2,0.7C68.1,109.9,68.1,109.7,68.1,109.5z"/>
<path class="st25" d="M69.8,109.5c0.4,0,0.8,0,1.2,0c-0.4,0.2-0.8,0.5-1.2,0.7C69.8,109.9,69.8,109.7,69.8,109.5z"/>
<polygon class="st24" points="67.2,132.4 63.2,131.5 67.2,131.5 "/>
<path class="st23" d="M72.4,136.3c-0.3,0.7-0.6,1.4-0.8,2.1c-0.4-0.7-0.8-1.5-1.3-2.2c-0.3,0.7-0.7,1.4-1,2.1
	c-0.4-0.7-0.8-1.4-1.2-2.1c-0.4,0.7-0.8,1.5-1.2,2.2c-0.4-0.7-0.8-1.5-1.2-2.2c-0.4,0.7-0.7,1.5-1.1,2.2c-0.4-0.7-0.8-1.5-1.3-2.2
	c-0.4,0.7-0.7,1.5-1.1,2.2c-0.4-0.7-0.7-1.5-1.1-2.2"/>
<path class="st25" d="M59.5,131.5v-2.4c11.2,0,22.5,0,33.7,0c0.1,0.4,0.2,0.8,0.3,1.2c0.2,0.5,0.3,1,0.5,1.4
	C82.5,131.7,71,131.6,59.5,131.5z"/>
<g>
	<defs>
		<path id="SVGID_00000133507708725873784940000017156723520332916157_" d="M59.5,110.7v2.5c11.6,0,23.2,0,34.8,0
			c-0.1-0.3-0.2-0.7-0.3-1.1c-0.1-0.5-0.3-0.9-0.4-1.4C82.3,110.8,70.9,110.8,59.5,110.7z"/>
	</defs>
	<clipPath id="SVGID_00000088838424061064218050000001139373320474187664_">
		<use xlink:href="#SVGID_00000133507708725873784940000017156723520332916157_"  style="overflow:visible;"/>
	</clipPath>
	<g style="clip-path:url(#SVGID_00000088838424061064218050000001139373320474187664_);">
		
			<image style="overflow:visible;" width="600" height="600" xlink:href="../../background.jpg"  transform="matrix(5.637076e-18 9.206044e-02 -9.206044e-02 5.637076e-18 111.5437 59.5615)">
		</image>
	</g>
</g>
<path class="st25" d="M82.2,110.7c0.1,0,0.3,0,0.5-0.2c0,0,0.1-0.1,0.1-0.2c0.1-0.3-0.1-0.6-0.1-0.6s-0.6-0.6-1-0.8
	c-0.3-0.3-0.8-0.7-1.4-1.2c-0.9,0-1.4,0-1.8,0c0,0-1.2,0-1.3,0h-0.1H77l0,0l0,0l0,0l0,0l0,0l0,0l0,0c0,0,0,0,0,0.1v0.1
	c0,0.1,0,0.2,0,0.3c0,0.3,0,0.3,0,0.3l0,0c0,0.2-0.1,0.3-0.1,0.3c0,0.1-0.1,0.1-0.2,0.1c-0.2,0.1-0.4,0.1-0.7,0.1
	c-0.1,0-0.3,0-0.4,0c0,0-0.3,0-1,0c-2.4,0-2.4,0-2.4,0s-2.9,0.6-4.9,1l0,0l0,0c0,0.6,0,0.7,0,0.8l0,0l0,0c0.3,0,0.7,0,1,0l0,0
	c0,0.4,0,0.8-0.1,1.1c0.4-0.4,0.8-0.8,1.2-1.1l0,0l0,0l0,0c0.2,0,0.4,0,0.6,0c0,0.4,0,0.8,0,1.1c0.4-0.4,0.8-0.8,1.2-1.1l0,0
	c0.9,0,1.5,0,1.9,0c0.1,0,0.5,0,0.9,0c0.2,0,0.4,0,0.7,0c0.4,0,0.8,0,1.1,0c0.4,0,0.8,0,1.1,0h2.3C79.1,110.7,81.4,110.7,82.2,110.7
	z"/>
<g>
	<defs>
		<path id="SVGID_00000041255591036101234500000001895752700659138976_" d="M82.2,110.7c0.1,0,0.3,0,0.5-0.2c0,0,0.1-0.1,0.1-0.2
			c0.1-0.3-0.1-0.6-0.1-0.6s-0.6-0.6-1-0.8c-0.3-0.3-0.8-0.7-1.4-1.2c-0.9,0-1.4,0-1.8,0c0,0-1.2,0-1.3,0h-0.1H77l0,0l0,0l0,0l0,0
			l0,0l0,0l0,0c0,0,0,0,0,0.1v0.1c0,0.1,0,0.2,0,0.3c0,0.3,0,0.3,0,0.3l0,0c0,0.2-0.1,0.3-0.1,0.3c0,0.1-0.1,0.1-0.2,0.1
			c-0.2,0.1-0.4,0.1-0.7,0.1c-0.1,0-0.3,0-0.4,0c0,0-0.3,0-1,0c-2.4,0-2.4,0-2.4,0s-2.9,0.6-4.9,1l0,0l0,0c0,0.6,0,0.7,0,0.8l0,0
			l0,0c0.3,0,0.7,0,1,0l0,0c0,0.4,0,0.8-0.1,1.1c0.4-0.4,0.8-0.8,1.2-1.1l0,0l0,0l0,0c0.2,0,0.4,0,0.6,0c0,0.4,0,0.8,0,1.1
			c0.4-0.4,0.8-0.8,1.2-1.1l0,0c0.9,0,1.5,0,1.9,0c0.1,0,0.5,0,0.9,0c0.2,0,0.4,0,0.7,0c0.4,0,0.8,0,1.1,0c0.4,0,0.8,0,1.1,0h2.3
			C79.1,110.7,81.4,110.7,82.2,110.7z"/>
	</defs>
	<clipPath id="SVGID_00000147926260223708022470000002776373285786232460_">
		<use xlink:href="#SVGID_00000041255591036101234500000001895752700659138976_"  style="overflow:visible;"/>
	</clipPath>
	<g style="clip-path:url(#SVGID_00000147926260223708022470000002776373285786232460_);">
		
			<image style="overflow:visible;" width="600" height="600" xlink:href="../../background.jpg"  transform="matrix(4.573034e-02 0 0 4.573034e-02 62.7865 104.8202)">
		</image>
	</g>
</g>
<path class="st25" d="M82.2,131.7c0.1,0,0.3,0,0.5,0.2c0,0,0.1,0.1,0.1,0.2c0.1,0.3-0.1,0.6-0.1,0.6s-0.6,0.6-1,0.8
	c-0.3,0.3-0.8,0.7-1.4,1.2c-0.9,0-1.4,0-1.8,0c0,0-1.2,0-1.3,0h-0.1H77l0,0l0,0l0,0l0,0l0,0l0,0l0,0c0,0,0,0,0-0.1v-0.1
	c0-0.1,0-0.2,0-0.3c0-0.3,0-0.3,0-0.3l0,0c0-0.2-0.1-0.3-0.1-0.3c0-0.1-0.1-0.1-0.2-0.1c-0.2-0.1-0.4-0.1-0.7-0.1
	c-0.1,0-0.3,0-0.4,0c0,0-0.3,0-1,0c-2.4,0-2.4,0-2.4,0s-2.9-0.6-4.9-1l0,0l0,0c0-0.6,0-0.7,0-0.8l0,0l0,0c0.3,0,0.7,0,1,0l0,0
	c0-0.4,0-0.8-0.1-1.1c0.4,0.4,0.8,0.8,1.2,1.1l0,0l0,0l0,0c0.2,0,0.4,0,0.6,0c0-0.4,0-0.8,0-1.1c0.4,0.4,0.8,0.8,1.2,1.1l0,0
	c0.9,0,1.5,0,1.9,0c0.1,0,0.5,0,0.9,0c0.2,0,0.4,0,0.7,0c0.4,0,0.8,0,1.1,0c0.4,0,0.8,0,1.1,0h2.3C79.1,131.6,81.4,131.6,82.2,131.7
	z"/>
<g>
	<defs>
		<path id="SVGID_00000065056715615014069940000005836318881322659501_" d="M82.2,131.7c0.1,0,0.3,0,0.5,0.2c0,0,0.1,0.1,0.1,0.2
			c0.1,0.3-0.1,0.6-0.1,0.6s-0.6,0.6-1,0.8c-0.3,0.3-0.8,0.7-1.4,1.2c-0.9,0-1.4,0-1.8,0c0,0-1.2,0-1.3,0h-0.1H77l0,0l0,0l0,0l0,0
			l0,0l0,0l0,0c0,0,0,0,0-0.1v-0.1c0-0.1,0-0.2,0-0.3c0-0.3,0-0.3,0-0.3l0,0c0-0.2-0.1-0.3-0.1-0.3c0-0.1-0.1-0.1-0.2-0.1
			c-0.2-0.1-0.4-0.1-0.7-0.1c-0.1,0-0.3,0-0.4,0c0,0-0.3,0-1,0c-2.4,0-2.4,0-2.4,0s-2.9-0.6-4.9-1l0,0l0,0c0-0.6,0-0.7,0-0.8l0,0
			l0,0c0.3,0,0.7,0,1,0l0,0c0-0.4,0-0.8-0.1-1.1c0.4,0.4,0.8,0.8,1.2,1.1l0,0l0,0l0,0c0.2,0,0.4,0,0.6,0c0-0.4,0-0.8,0-1.1
			c0.4,0.4,0.8,0.8,1.2,1.1l0,0c0.9,0,1.5,0,1.9,0c0.1,0,0.5,0,0.9,0c0.2,0,0.4,0,0.7,0c0.4,0,0.8,0,1.1,0c0.4,0,0.8,0,1.1,0h2.3
			C79.1,131.6,81.4,131.6,82.2,131.7z"/>
	</defs>
	<clipPath id="SVGID_00000155112673061016047840000002203383042794092203_">
		<use xlink:href="#SVGID_00000065056715615014069940000005836318881322659501_"  style="overflow:visible;"/>
	</clipPath>
	<g style="clip-path:url(#SVGID_00000155112673061016047840000002203383042794092203_);">
		
			<image style="overflow:visible;" width="600" height="600" xlink:href="../../background.jpg"  transform="matrix(4.573034e-02 0 0 4.573034e-02 63.8989 127.8764)">
		</image>
	</g>
</g>
<polygon class="st24" points="72.3,135.9 72.3,137 72.8,136.4 "/>
<linearGradient id="SVGID_00000088130948664150035140000001820581965438940341_" gradientUnits="userSpaceOnUse" x1="-1627.7537" y1="38.7" x2="-1627.7537" y2="38.7" gradientTransform="matrix(-1 0 0 -1 -1602.6537 161)">
	<stop  offset="0" style="stop-color:#808285"/>
	<stop  offset="0.2039" style="stop-color:#424244"/>
	<stop  offset="0.3035" style="stop-color:#464648"/>
	<stop  offset="0.4018" style="stop-color:#525253"/>
	<stop  offset="0.4888" style="stop-color:#636363"/>
	<stop  offset="0.6229" style="stop-color:#666666"/>
	<stop  offset="0.7905" style="stop-color:#959696"/>
	<stop  offset="0.8351" style="stop-color:#747575"/>
	<stop  offset="0.919" style="stop-color:#919191"/>
	<stop  offset="1" style="stop-color:#676868"/>
</linearGradient>
<path style="fill:url(#SVGID_00000088130948664150035140000001820581965438940341_);" d="M25.1,122.3"/>
<linearGradient id="SVGID_00000018229648365251132980000008809360173900121778_" gradientUnits="userSpaceOnUse" x1="-1619.4537" y1="65.9" x2="-1619.4537" y2="65.9" gradientTransform="matrix(-1 0 0 -1 -1602.6537 161)">
	<stop  offset="0" style="stop-color:#444444"/>
	<stop  offset="8.097430e-02" style="stop-color:#5B5B5B"/>
	<stop  offset="0.2486" style="stop-color:#3A3A3A"/>
	<stop  offset="0.3205" style="stop-color:#3E3E3E"/>
	<stop  offset="0.3898" style="stop-color:#494949"/>
	<stop  offset="0.458" style="stop-color:#5D5D5D"/>
	<stop  offset="0.4832" style="stop-color:#666666"/>
	<stop  offset="0.6844" style="stop-color:#474747"/>
	<stop  offset="0.8352" style="stop-color:#636363"/>
</linearGradient>
<path style="fill:url(#SVGID_00000018229648365251132980000008809360173900121778_);" d="M16.8,95.1"/>
<path class="st21" d="M39.1,108"/>
<path class="st21" d="M36.9,97.2c0-0.6,0-1.4,0-2.4c0-3.6,0-2.9,0-4.8c0-3.1-0.1-3.8-0.2-4.4c-0.2-1.2-0.5-2.2-0.8-2.8
	c-9.2,0-18.4,0-27.5,0c-0.1,0.4-0.6,2.8-0.6,3.4v0.1c-0.1,0.5-0.1,0.9-0.1,1c0,0.6-0.1,1.5-0.2,2.1c-0.1,0.7-0.1,1.7,0,2.9
	c0,0.1,0,0.1,0,0.2c0.1,0.1,0.4,0.1,0.7-0.1c0.5-0.6,0.6-1,0.7-1.3c0-0.1,0.1-0.3,0.2-0.5c0.1-0.1,0.2-0.2,0.2-0.3
	c0.2,0.1,0.4,0.2,0.5,0.4c0.6,0.7,0.6,1.5,0.6,1.8c0.3-0.7,0.6-1.4,0.9-2.1c0.5,0.7,0.9,1.3,1.4,2c0.3-0.7,0.7-1.4,1-2.1
	c0.4,0.7,0.7,1.3,1.1,2c0.4-0.6,0.8-1.3,1.2-1.9c0.4,0.7,0.8,1.3,1.2,2c0.4-0.7,0.8-1.4,1.1-2.2c0.3,0.7,0.7,1.4,1,2.1
	c0.3,0.5,0.6,1,1,1.5c0,1,0,2.1,0,3.1"/>
<path class="st22" d="M39.8,100.5"/>
<path class="st23" d="M19.5,93.5c-0.1-0.3-0.2-0.6-0.3-0.9c-0.3-0.7-0.5-1.4-0.8-2c-0.4,0.7-0.8,1.4-1.1,2.2
	c-0.4-0.7-0.8-1.4-1.2-2.2c-0.4,0.7-0.8,1.4-1.1,2.1c-0.4-0.7-0.8-1.4-1.2-2.1c-0.3,0.7-0.7,1.4-1,2.1c-0.4-0.7-0.8-1.4-1.3-2.1
	c-0.3,0.7-0.7,1.5-1,2.2c-0.4-0.7-0.8-1.5-1.1-2.2C9,91.3,8.6,92,8.2,92.7"/>
<rect x="19.9" y="93.1" class="st24" width="0.2" height="0.4"/>
<path class="st25" d="M24.4,94.8"/>
<path class="st0" d="M22.6,92.6"/>
<path class="st0" d="M22.8,94.5"/>
<path class="st26" d="M30.2,97.4"/>
<path class="st25" d="M18.7,96.1"/>
<polygon class="st24" points="14.1,96.4 10,97.3 14,97.3 "/>
<path class="st25" d="M15,97.8c0.4,0,0.8,0,1.2,0c-0.4,0.2-0.8,0.5-1.2,0.7C15,98.2,15,98,15,97.8z"/>
<path class="st25" d="M16.7,97.8c0.4,0,0.8,0,1.2,0c-0.4,0.2-0.8,0.5-1.2,0.7C16.7,98.2,16.7,98,16.7,97.8z"/>
<path class="st25" d="M29.1,97.2c0.1,0,0.3,0,0.5-0.2c0,0,0.1-0.1,0.1-0.2c0.1-0.3-0.1-0.6-0.1-0.6s-0.6-0.6-1-0.9
	c-0.3-0.3-0.8-0.8-1.4-1.3c-0.9,0-1.4,0-1.8,0c0,0-1.2,0-1.3,0H24h-0.1l0,0l0,0l0,0l0,0l0,0l0,0l0,0c0,0,0,0,0,0.1v0.1
	c0,0.1,0,0.2,0,0.3c0,0.3,0,0.3,0,0.3l0,0c0,0.2-0.1,0.3-0.1,0.3c0,0.1-0.1,0.1-0.2,0.1c-0.2,0.1-0.4,0.1-0.7,0.1
	c-0.1,0-0.3,0-0.4,0c0,0-0.3,0-1,0c-2.4,0-2.4,0-2.4,0s-2.9,0.6-4.9,1l0,0l0,0c0,0.6,0,0.7,0,0.9l0,0l0,0c0.3,0,0.7,0,1,0l0,0
	c0,0.4,0,0.8-0.1,1.2c0.4-0.4,0.8-0.8,1.2-1.2l0,0l0,0l0,0c0.2,0,0.4,0,0.6,0c0,0.4,0,0.8,0,1.2c0.4-0.4,0.8-0.8,1.2-1.2l0,0
	c0.9,0,1.5,0,1.9,0c0.1,0,0.5,0,0.9,0c0.2,0,0.4,0,0.7,0c0.4,0,0.8,0,1.1,0c0.4,0,0.8,0,1.1,0h2.3C25.9,97.3,28.3,97.3,29.1,97.2z"
	/>
<g>
	<defs>
		<path id="SVGID_00000142141496960284351610000005861967505465868677_" d="M29.1,97.2c0.1,0,0.3,0,0.5-0.2c0,0,0.1-0.1,0.1-0.2
			c0.1-0.3-0.1-0.6-0.1-0.6s-0.6-0.6-1-0.9c-0.3-0.3-0.8-0.8-1.4-1.3c-0.9,0-1.4,0-1.8,0c0,0-1.2,0-1.3,0H24h-0.1l0,0l0,0l0,0l0,0
			l0,0l0,0l0,0c0,0,0,0,0,0.1v0.1c0,0.1,0,0.2,0,0.3c0,0.3,0,0.3,0,0.3l0,0c0,0.2-0.1,0.3-0.1,0.3c0,0.1-0.1,0.1-0.2,0.1
			c-0.2,0.1-0.4,0.1-0.7,0.1c-0.1,0-0.3,0-0.4,0c0,0-0.3,0-1,0c-2.4,0-2.4,0-2.4,0s-2.9,0.6-4.9,1l0,0l0,0c0,0.6,0,0.7,0,0.9l0,0
			l0,0c0.3,0,0.7,0,1,0l0,0c0,0.4,0,0.8-0.1,1.2c0.4-0.4,0.8-0.8,1.2-1.2l0,0l0,0l0,0c0.2,0,0.4,0,0.6,0c0,0.4,0,0.8,0,1.2
			c0.4-0.4,0.8-0.8,1.2-1.2l0,0c0.9,0,1.5,0,1.9,0c0.1,0,0.5,0,0.9,0c0.2,0,0.4,0,0.7,0c0.4,0,0.8,0,1.1,0c0.4,0,0.8,0,1.1,0h2.3
			C25.9,97.3,28.3,97.3,29.1,97.2z"/>
	</defs>
	<clipPath id="SVGID_00000165233954030944359210000013479109556912728242_">
		<use xlink:href="#SVGID_00000142141496960284351610000005861967505465868677_"  style="overflow:visible;"/>
	</clipPath>
	<g style="clip-path:url(#SVGID_00000165233954030944359210000013479109556912728242_);">
		
			<image style="overflow:visible;" width="600" height="600" xlink:href="../../background.jpg"  transform="matrix(4.573034e-02 0 0 4.573034e-02 4.1348 71.0449)">
		</image>
	</g>
</g>
<path class="st21" d="M37,144.1c0,0.6,0,1.4,0,2.3c0,1.9,0,2.5,0,3c0,0.8,0,1.2,0,1.6c0,0.8-0.1,1.7-0.3,3.4
	c-0.1,1.2-0.2,1.4-0.2,1.7c-0.1,0.8-0.3,1.5-0.5,2c-9.2,0-18.4,0-27.5,0c-0.1-0.4-0.6-2.7-0.6-3.3v-0.1c-0.1-0.5-0.1-0.9-0.1-1
	c0-0.6-0.1-1.4-0.2-2.1c-0.1-0.7-0.1-1.6,0-2.9l0.3,0.1c0.1-0.1,0.2-0.1,0.3-0.1c0.2,0.1,0.3,0.4,0.3,0.6c0.1,0.4,0.3,0.8,0.9,1.4
	c0.1-0.2,0.3-0.5,0.4-0.7c0.2-0.4,0.4-0.8,0.6-1.2c0.4,0.7,0.8,1.4,1.3,2.1c0.4-0.7,0.7-1.4,1.1-2.1c0.4,0.7,0.8,1.4,1.2,2.1
	c0.4-0.7,0.8-1.4,1.2-2.1c0.4,0.7,0.8,1.3,1.2,2c0.3-0.7,0.7-1.3,1-2c0.4,0.7,0.8,1.4,1.3,2.1c0.4-0.8,0.7-1.6,1.1-2.3
	c0.3-0.5,0.6-1,1-1.4c0-1,0-2,0-3"/>
<path class="st0" d="M26.7,146.7c1.5-1.5,2.4-2.4,2.4-2.4l0,0c0,0,0.7,0,2,0c-1.1,0.9-2.3,1.7-3.4,2.6c0,0.3,0,0.6,0,1l0,0
	c0,0.2,0,1.1,0,1.1l0,0l0,0c-0.2,0-0.4,0-0.5,0c-0.5,0-1.1,0-1.6,0c-0.4,0-0.7,0-1.1,0c-0.2,0-0.2,0-0.2,0s-1.1,1.3-1.6,1.9
	c-0.4-0.7-0.8-1.3-1.2-2l-1.2,2.4c-0.5-1.2-0.8-1.8-0.8-1.8l0,0v-0.8c0,0,0.3-0.2,0.7-0.5c0-1,0-2,0-3c0.3,0,0.6-0.1,0.9-0.1
	C23,145.6,24.8,146.1,26.7,146.7z"/>
<polygon class="st24" points="14.1,145.1 9.8,144.1 14,144.1 "/>
<path class="st23" d="M19.3,148.9c-0.3,0.7-0.6,1.3-0.8,2c-0.4-0.7-0.8-1.4-1.3-2.1c-0.3,0.7-0.7,1.3-1,2c-0.4-0.7-0.8-1.3-1.2-2
	c-0.4,0.7-0.8,1.4-1.2,2.1c-0.4-0.7-0.8-1.4-1.2-2.1c-0.4,0.7-0.7,1.4-1.1,2.1c-0.4-0.7-0.8-1.4-1.3-2.1c-0.4,0.7-0.7,1.4-1.1,2.1
	c-0.4-0.7-0.7-1.4-1.1-2.1"/>
<path class="st25" d="M29,144.1c0,0,0.4,0,0.6,0.3c0.1,0.1,0.1,0.3,0.1,0.4c0,0.3-0.1,0.5-0.1,0.5s-0.6,0.5-1,0.8
	c-0.3,0.3-0.8,0.7-1.4,1.2c-0.9,0-1.4,0-1.8,0c0,0-1.2,0-1.3,0H24h-0.1l0,0l0,0l0,0l0,0l0,0l0,0l0,0l0,0v-0.1c0-0.1,0-0.1,0-0.3
	s0-0.3,0-0.3l0,0c0-0.2-0.1-0.3-0.1-0.3c0-0.1-0.1-0.1-0.2-0.1c-0.2-0.1-0.4-0.1-0.7-0.1c-0.1,0-0.3,0-0.4,0c0,0-0.3,0-1,0
	c-2.4,0-2.4,0-2.4,0s-2.9-0.6-4.9-1l0,0l0,0c0-0.3,0-0.5,0-0.7c0,0,0,0,0-0.3l0,0l0,0h1l0,0l0,0c0-0.3,0-0.6-0.1-0.9
	c0.3,0.3,0.7,0.6,1,0.9c0.3,0,0.5,0,0.8,0c0-0.3,0-0.6,0-0.9c0.3,0.3,0.7,0.6,1,0.9c0.6,0,1.3,0,1.9,0c0.1,0,0.3,0,0.4,0
	c0.2,0,0.5,0,0.7,0s0.5,0,0.7,0c0.3,0,0.7,0,1,0c0.4,0,0.8,0,1.2,0c0.4,0,0.8,0,1.1,0c0.4,0,0.7,0,1.1,0C28,144.1,29,144.1,29,144.1
	L29,144.1z"/>
<g>
	<defs>
		<path id="SVGID_00000062872879612079376930000010346706686480283822_" d="M29,144.1c0,0,0.4,0,0.6,0.3c0.1,0.1,0.1,0.3,0.1,0.4
			c0,0.3-0.1,0.5-0.1,0.5s-0.6,0.5-1,0.8c-0.3,0.3-0.8,0.7-1.4,1.2c-0.9,0-1.4,0-1.8,0c0,0-1.2,0-1.3,0H24h-0.1l0,0l0,0l0,0l0,0l0,0
			l0,0l0,0l0,0v-0.1c0-0.1,0-0.1,0-0.3s0-0.3,0-0.3l0,0c0-0.2-0.1-0.3-0.1-0.3c0-0.1-0.1-0.1-0.2-0.1c-0.2-0.1-0.4-0.1-0.7-0.1
			c-0.1,0-0.3,0-0.4,0c0,0-0.3,0-1,0c-2.4,0-2.4,0-2.4,0s-2.9-0.6-4.9-1l0,0l0,0c0-0.3,0-0.5,0-0.7c0,0,0,0,0-0.3l0,0l0,0h1l0,0l0,0
			c0-0.3,0-0.6-0.1-0.9c0.3,0.3,0.7,0.6,1,0.9c0.3,0,0.5,0,0.8,0c0-0.3,0-0.6,0-0.9c0.3,0.3,0.7,0.6,1,0.9c0.6,0,1.3,0,1.9,0
			c0.1,0,0.3,0,0.4,0c0.2,0,0.5,0,0.7,0s0.5,0,0.7,0c0.3,0,0.7,0,1,0c0.4,0,0.8,0,1.2,0c0.4,0,0.8,0,1.1,0c0.4,0,0.7,0,1.1,0
			C28,144.1,29,144.1,29,144.1L29,144.1z"/>
	</defs>
	<clipPath id="SVGID_00000152265749401342261830000000891116583668914575_">
		<use xlink:href="#SVGID_00000062872879612079376930000010346706686480283822_"  style="overflow:visible;"/>
	</clipPath>
	<g style="clip-path:url(#SVGID_00000152265749401342261830000000891116583668914575_);">
		
			<image style="overflow:visible;" width="600" height="600" xlink:href="../../background.jpg"  transform="matrix(4.573034e-02 0 0 4.573034e-02 2.9213 120.2921)">
		</image>
	</g>
</g>
<polygon class="st24" points="19.2,148.5 19.2,149.6 19.7,149 "/>
<linearGradient id="SVGID_00000039126696828365157750000008464055348293779590_" gradientUnits="userSpaceOnUse" x1="22.2039" y1="23.5" x2="22.2039" y2="57.2" gradientTransform="matrix(1 0 0 -1 0 161)">
	<stop  offset="0" style="stop-color:#424242"/>
	<stop  offset="0.1068" style="stop-color:#333333"/>
	<stop  offset="0.2055" style="stop-color:#2D2D2D"/>
	<stop  offset="0.3492" style="stop-color:#424244"/>
	<stop  offset="0.6732" style="stop-color:#7F7F7F"/>
	<stop  offset="0.9078" style="stop-color:#414042"/>
</linearGradient>
<rect x="10.7" y="103.8" style="fill:url(#SVGID_00000039126696828365157750000008464055348293779590_);" width="23" height="33.7"/>
<linearGradient id="SVGID_00000105410897471662884300000016811862940236950679_" gradientUnits="userSpaceOnUse" x1="68.6" y1="31.9" x2="68.6" y2="47.7412" gradientTransform="matrix(1 0 0 -1 0 161)">
	<stop  offset="0" style="stop-color:#424242"/>
	<stop  offset="0.1068" style="stop-color:#333333"/>
	<stop  offset="0.2055" style="stop-color:#2D2D2D"/>
	<stop  offset="0.3492" style="stop-color:#424244"/>
	<stop  offset="0.6732" style="stop-color:#7F7F7F"/>
	<stop  offset="0.9078" style="stop-color:#414042"/>
</linearGradient>
<path style="fill:url(#SVGID_00000105410897471662884300000016811862940236950679_);" d="M42.9,129.1c16.8,0,33.5,0,50.3,0
	c-0.6-2.6-0.5-4.6-0.4-6c0.1-1.2,0.5-2.7,0.5-3c0.4-1.8,0.6-2.3,0.8-3.6c0.1-0.7,0.2-1.9,0.2-3.2c-17.1,0-34.3,0-51.4,0.1
	C42.9,113.4,42.9,129.1,42.9,129.1z"/>
<linearGradient id="SVGID_00000142153471064545318090000013397983132123635586_" gradientUnits="userSpaceOnUse" x1="38.3" y1="23.5" x2="38.3" y2="57.2" gradientTransform="matrix(1 0 0 -1 0 161)">
	<stop  offset="0" style="stop-color:#444444"/>
	<stop  offset="4.348338e-02" style="stop-color:#3E3E3E"/>
	<stop  offset="0.179" style="stop-color:#313131"/>
	<stop  offset="0.3055" style="stop-color:#2D2D2D"/>
	<stop  offset="0.3745" style="stop-color:#353535"/>
	<stop  offset="0.4806" style="stop-color:#4A4A4A"/>
	<stop  offset="0.6099" style="stop-color:#6D6D6D"/>
	<stop  offset="0.6192" style="stop-color:#707070"/>
	<stop  offset="0.7475" style="stop-color:#565656"/>
	<stop  offset="0.8801" style="stop-color:#414141"/>
	<stop  offset="0.9687" style="stop-color:#3A3A3A"/>
</linearGradient>
<polygon style="fill:url(#SVGID_00000142153471064545318090000013397983132123635586_);" points="42.9,113.3 33.7,103.8 33.7,137.5 
	42.9,129.1 "/>
<linearGradient id="SVGID_00000173874415161028983330000008078120128724803742_" gradientUnits="userSpaceOnUse" x1="-1219.4584" y1="22.405" x2="-1219.4584" y2="58.278" gradientTransform="matrix(-1 0 0 -1 -1209.2584 161)">
	<stop  offset="0" style="stop-color:#424242"/>
	<stop  offset="0.1068" style="stop-color:#333333"/>
	<stop  offset="0.2055" style="stop-color:#2D2D2D"/>
	<stop  offset="0.3492" style="stop-color:#424244"/>
	<stop  offset="0.6732" style="stop-color:#7F7F7F"/>
	<stop  offset="0.9078" style="stop-color:#414042"/>
</linearGradient>
<path style="fill:url(#SVGID_00000173874415161028983330000008078120128724803742_);" d="M9.6,102.7c0.4,0.4,0.8,0.7,1.2,1.1
	c0,11.2,0,22.4,0,33.6c-0.4,0.4-0.8,0.8-1.2,1.1c0-0.3,0-0.6,0-0.8C9.6,126.1,9.6,114.4,9.6,102.7z"/>
<linearGradient id="SVGID_00000162338775188537882550000013282467662705857423_" gradientUnits="userSpaceOnUse" x1="-1218.9072" y1="40.4" x2="-1220.1185" y2="40.4" gradientTransform="matrix(-1 0 0 -1 -1209.2584 161)">
	<stop  offset="0" style="stop-color:#000000;stop-opacity:0"/>
	<stop  offset="0.3429" style="stop-color:#0A0A0A;stop-opacity:0.3341"/>
	<stop  offset="0.9264" style="stop-color:#252525;stop-opacity:0.9026"/>
	<stop  offset="1" style="stop-color:#292929;stop-opacity:0.9744"/>
</linearGradient>
<path style="opacity:0.4;fill:url(#SVGID_00000162338775188537882550000013282467662705857423_);enable-background:new    ;" d="
	M9.6,102.7c0.4,0.4,0.8,0.7,1.2,1.1c0,11.2,0,22.4,0,33.6c-0.4,0.4-0.8,0.8-1.2,1.1c0-0.3,0-0.6,0-0.8
	C9.6,126.1,9.6,114.4,9.6,102.7z"/>
<path class="st25" d="M7.5,96.2"/>
<path class="st0" d="M31.2,97.5"/>
<path class="st0" d="M-0.7,94.2"/>
<linearGradient id="SVGID_00000131357254403479926600000013394644649552804766_" gradientUnits="userSpaceOnUse" x1="42.9" y1="40.35" x2="33.6509" y2="40.35" gradientTransform="matrix(1 0 0 -1 0 161)">
	<stop  offset="0" style="stop-color:#000000;stop-opacity:0"/>
	<stop  offset="0.3429" style="stop-color:#0A0A0A;stop-opacity:0.3341"/>
	<stop  offset="0.9264" style="stop-color:#252525;stop-opacity:0.9026"/>
	<stop  offset="1" style="stop-color:#292929;stop-opacity:0.9744"/>
</linearGradient>
<polygon style="opacity:0.33;fill:url(#SVGID_00000131357254403479926600000013394644649552804766_);enable-background:new    ;" points="
	42.9,113.3 33.7,103.8 33.7,137.5 42.9,129.1 "/>
<linearGradient id="SVGID_00000157299028165842353690000003480535685136450998_" gradientUnits="userSpaceOnUse" x1="-1440.1504" y1="55.3556" x2="-1398.9504" y2="55.3556" gradientTransform="matrix(-1 0 0 -1 -1356.0504 176.5056)">
	<stop  offset="0" style="stop-color:#000000;stop-opacity:0"/>
	<stop  offset="0.3429" style="stop-color:#0A0A0A;stop-opacity:0.3341"/>
	<stop  offset="0.9264" style="stop-color:#252525;stop-opacity:0.9026"/>
	<stop  offset="1" style="stop-color:#292929;stop-opacity:0.9744"/>
</linearGradient>
<polygon style="opacity:0.33;fill:url(#SVGID_00000157299028165842353690000003480535685136450998_);enable-background:new    ;" points="
	42.9,129 84.1,129 84.1,113.3 42.9,113.3 "/>
<linearGradient id="SVGID_00000094588420569832646640000010300271156225119375_" gradientUnits="userSpaceOnUse" x1="-1382.4073" y1="55.8556" x2="-1366.8215" y2="55.8556" gradientTransform="matrix(-1 0 0 -1 -1356.0504 176.5056)">
	<stop  offset="0" style="stop-color:#000000;stop-opacity:0"/>
	<stop  offset="0.3429" style="stop-color:#0A0A0A;stop-opacity:0.3341"/>
	<stop  offset="0.9264" style="stop-color:#252525;stop-opacity:0.9026"/>
	<stop  offset="1" style="stop-color:#292929;stop-opacity:0.9744"/>
</linearGradient>
<polygon style="opacity:0.33;fill:url(#SVGID_00000094588420569832646640000010300271156225119375_);enable-background:new    ;" points="
	10.8,137.5 26.4,137.5 26.4,103.8 10.8,103.8 "/>
<image style="overflow:visible;" width="200" height="200" xlink:href="../../pepsi.png"  transform="matrix(5.157303e-02 0 0 5.157303e-02 38.8876 34.9101)">
</image>
<path class="st25" d="M97.3,134.5"/>
</svg>
