<?xml version="1.0" encoding="utf-8"?>
<!-- Generator: Adobe Illustrator 25.4.1, SVG Export Plug-In . SVG Version: 6.00 Build 0)  -->
<svg version="1.1" id="Слой_1" xmlns="http://www.w3.org/2000/svg" xmlns:xlink="http://www.w3.org/1999/xlink" x="0px" y="0px"
	 viewBox="0 0 200 320" style="enable-background:new 0 0 200 320;" xml:space="preserve">
<style type="text/css">
	.st0{fill:none;stroke:#CCCCCC;stroke-miterlimit:10;}
	.st1{fill:#282828;}
	.st2{clip-path:url(#SVGID_00000010998200583054152610000016311560903523387296_);}
	.st3{opacity:0.38;enable-background:new    ;}
	.st4{clip-path:url(#SVGID_00000147920316406310984980000009166463520945289105_);}
	.st5{fill:url(#SVGID_00000183237613610564635330000000341136942085090195_);}
	.st6{opacity:0.28;fill:url(#SVGID_00000110471284807769746440000015429163621907620999_);enable-background:new    ;}
	.st7{fill:url(#SVGID_00000037655428990754902720000002124605526227470245_);}
	.st8{fill:url(#SVGID_00000067205800094276570460000010803404243346386088_);}
	.st9{fill:#AAAAAA;}
	.st10{fill:url(#SVGID_00000089532574127004309840000011641602002507997841_);}
	.st11{fill:url(#SVGID_00000173122481101568224960000008689331168989395085_);}
	.st12{fill:url(#SVGID_00000035523238093732195260000007783287520197897354_);}
	.st13{fill:url(#SVGID_00000053528115087356940770000015614277592076906138_);}
	.st14{opacity:0.28;fill:url(#SVGID_00000106141991996055070420000016908310770732162995_);enable-background:new    ;}
	.st15{opacity:0.5;fill:url(#SVGID_00000070829580897798818640000006006542729726039468_);enable-background:new    ;}
	.st16{fill:url(#SVGID_00000083788590612971164890000014620507319830503587_);}
	.st17{fill:url(#SVGID_00000150076007767527836410000016572723577802723494_);}
	.st18{fill:url(#SVGID_00000081620740484862895770000007140894671274365314_);}
	.st19{fill:url(#SVGID_00000148646412893594675440000005907790083129412752_);}
	.st20{fill:url(#SVGID_00000176728046163183016520000004782313067489706116_);}
	.st21{fill:url(#SVGID_00000088844845594414925650000000407217500499189415_);}
	.st22{fill:url(#SVGID_00000041288508385522890960000005713865143513262734_);}
	.st23{fill:url(#SVGID_00000039855666260837275020000000094974966770106814_);}
	.st24{fill:url(#SVGID_00000012457455635147300780000010688436343426822582_);}
	.st25{fill:url(#SVGID_00000057868282345076556910000017671900267041706414_);}
	.st26{fill:url(#SVGID_00000031890093245023644810000010136949704762873755_);}
	.st27{fill:none;stroke:url(#SVGID_00000170984375227328498350000000952961672257098404_);stroke-width:0.75;stroke-miterlimit:10;}
	.st28{fill:none;stroke:url(#SVGID_00000044160584564173509100000005073109342891861132_);stroke-width:0.75;stroke-miterlimit:10;}
	.st29{fill:#282828;stroke:#282828;stroke-width:0.5;stroke-miterlimit:10;}
	.st30{fill:none;stroke:#ADADAD;stroke-width:0.5;stroke-miterlimit:10;}
	.st31{clip-path:url(#SVGID_00000141455733030060169500000018166848985204833714_);}
	.st32{clip-path:url(#SVGID_00000107583907210613149480000009176747257949906091_);}
	.st33{opacity:0.53;}
	.st34{fill:#666666;}
	.st35{fill:none;stroke:#8E8E8E;stroke-miterlimit:10;}
	.st36{clip-path:url(#SVGID_00000037650939909130073120000005993573053430781352_);}
	.st37{clip-path:url(#SVGID_00000057864168110383886070000013509534336042097299_);}
	.st38{clip-path:url(#SVGID_00000101805274183714182890000007053618034819975607_);}
	.st39{clip-path:url(#SVGID_00000052789389233759709960000008000947548552023981_);}
	.st40{opacity:0.54;fill:#666666;enable-background:new    ;}
	.st41{clip-path:url(#SVGID_00000065070666327166050290000007253029058566294972_);}
	.st42{clip-path:url(#SVGID_00000022554217040818798350000014897312186233473923_);}
	.st43{fill:url(#SVGID_00000023992714223606569810000014997906039004852143_);}
	.st44{fill:url(#SVGID_00000016041705893418239720000004091678140390909613_);}
	.st45{fill:#8C8C8C;}
	.st46{fill:url(#SVGID_00000075842876275094509270000002610779797585571261_);}
	.st47{fill:#4D4D4D;}
	.st48{fill:url(#SVGID_00000008840751790710131160000011668424177935552652_);}
	.st49{fill:url(#SVGID_00000057113670711077464420000004212938152001924488_);}
	.st50{fill:url(#SVGID_00000144302165028037424730000004278402365234012565_);}
	.st51{fill:none;}
	.st52{fill:none;stroke:#808080;stroke-width:0.5;}
	.st53{clip-path:url(#SVGID_00000076603630402411198880000009811787254567708802_);}
	.st54{clip-path:url(#SVGID_00000144314677803900095440000000571654331837684922_);}
</style>
<path class="st0" d="M31,315h29.6c2.3,0,4.4,0,6.5,0h28c7,0.2,11.7-1.5,11.7-1.5v-44.4c-4-1.4-8-1.7-11.5-1.6H67.2c-2,0-3.9,0-5.7,0
	H32.9c-7.2-0.4-13.1,1.5-13.1,1.5v44.4c3.4,1,6.4,1.4,9.2,1.5l0,0h1C30.4,315,30.7,315,31,315z"/>
<rect x="32.9" y="276.5" class="st1" width="63.4" height="38.4"/>
<g>
	<g>
		<g>
			<g>
				<defs>
					<path id="SVGID_1_" d="M93.4,312.8c-1.2-0.7-2.5-1.3-3.8-2c1.3-0.7,2.7-1.4,4-2.1c-1.3-0.7-2.7-1.3-4-2
						c1.2-0.7,2.5-1.4,3.8-2.1c-1.2-0.7-2.4-1.2-3.7-1.8c1.2-0.8,3.7-2.3,3.7-2.3l-4.3-2.4c0,0,2.8-1.2,4.1-1.8c-1-0.4-2-1-3.1-1.4
						c-0.3-0.2-0.7-0.3-1-0.5c0.5-0.3,1.1-0.7,1.7-1s1.2-0.7,1.8-1c-0.4-0.2-1-0.5-1.5-1c-0.8-0.5-1.2-1.1-1.6-1.6c0,0,0,0,0-0.3
						c0-0.7,0-1.2,0-1.8c0-0.9,0-1.7,0-2.7c0-0.3,0-0.5,0-0.9c0,0-1.4,0-1.8,0c-0.7,0-1.2,0-1.6,0c-1.6-1.8-4.9-5.5-4.9-5.4v-0.7
						H45.6c-0.1,0.3-3.3,3.8-4.9,5.6c-0.5,0-1.1,0-1.6,0c-0.4,0-1.8,0-1.8,0c0,0.3,0,0.5,0,0.9c0,0.9,0,1.7,0,2.7c0,0.7,0,1.2,0,1.8
						c0,0.3,0,0.3,0,0.3s-2.3,1.7-3.4,2.5c1.1,0.7,2.3,1.3,3.5,2l-4.1,2.1l4.2,1.8c0,0-2.8,1.4-4.1,2l3.8,2.4l-3.8,1.8l3.9,2.2
						l-3.9,2c1.2,0.7,3.7,2.1,3.7,2.1l-3.7,2.1c1.2,0.7,3.6,2.1,3.6,2.1h-1.3h-8.5l-7.4-0.9v-44.4c1.1-0.3,2.4-0.8,4-1
						c1.6-0.3,3.1-0.4,4.4-0.5c5.7,0,11.4,0,17.1,0h35.9h13.1c1.8-0.2,4.4-0.2,7.3,0.2c2,0.3,3.8,0.8,5.2,1.3c0,14.7,0,29.6,0,44.4
						c-1.4,0.4-3.1,0.8-4.9,1.1c-1.5,0.2-3,0.3-4.3,0.4c-2.4,0-4.9,0-7.3,0.1c-0.8,0-1.5-0.1-2.3-0.1
						C89.8,314,91.6,313.5,93.4,312.8z"/>
				</defs>
				<clipPath id="SVGID_00000160902592234992862220000008562373213973662141_">
					<use xlink:href="#SVGID_1_"  style="overflow:visible;"/>
				</clipPath>
				<g style="clip-path:url(#SVGID_00000160902592234992862220000008562373213973662141_);">
					
						<image style="overflow:visible;enable-background:new    ;" width="600" height="600" xlink:href="../../background.jpg"  transform="matrix(0.187 0 0 0.187 9.3481 243.8307)">
					</image>
				</g>
			</g>
		</g>
	</g>
</g>
<path class="st3" d="M93.4,312.8c-1.2-0.7-2.5-1.3-3.8-2c1.3-0.7,2.7-1.4,4-2.1c-1.3-0.7-2.7-1.3-4-2c1.2-0.7,2.5-1.4,3.8-2.1
	c-1.2-0.7-2.4-1.2-3.7-1.8c1.2-0.8,3.7-2.3,3.7-2.3c-1.4-0.8-2.9-1.6-4.3-2.4c0.5-0.2,1.1-0.4,1.5-0.7c0.9-0.4,1.7-0.8,2.5-1.2
	c-1-0.4-2-1-3.1-1.4c-0.3-0.2-0.7-0.3-1-0.5c0.5-0.3,1.1-0.7,1.7-1s1.2-0.7,1.8-1c-0.4-0.2-1-0.5-1.5-1c-0.8-0.5-1.2-1.1-1.6-1.6
	c0,0,0,0,0-0.3c0-0.7,0-1.2,0-1.8c0-0.9,0-1.7,0-2.7c0-0.3,0-0.5,0-0.9c0,0-1.4,0-1.8,0c-0.7,0-1.2,0-1.6,0
	c-1.6-1.8-4.9-5.5-4.9-5.4v-0.7H45.6c-0.1,0.3-3.3,3.8-4.9,5.6c-0.5,0-1.1,0-1.6,0c-0.4,0-1.8,0-1.8,0c0,0.3,0,0.5,0,0.9
	c0,0.9,0,1.7,0,2.7c0,0.7,0,1.2,0,1.8c0,0.3,0,0.3,0,0.3s-2.3,1.7-3.4,2.5c1.1,0.7,2.3,1.3,3.5,2l-4.1,2.1l4.2,1.8
	c0,0-2.8,1.4-4.1,2l3.8,2.4l-3.8,1.8l3.9,2.2l-3.9,2c1.2,0.7,3.7,2.1,3.7,2.1l-3.7,2.1c1.2,0.7,3.6,2.1,3.6,2.1h-1.3h-8.5l-7.4-0.9
	v-44.4c1.1-0.3,2.4-0.8,4-1c1.6-0.3,3.1-0.4,4.4-0.5c5.7,0,11.4,0,17.1,0h35.9h13.1c1.8-0.2,4.4-0.2,7.3,0.2c2,0.3,3.8,0.8,5.2,1.3
	c0,14.7,0,29.6,0,44.4c-1.4,0.4-3.1,0.8-4.9,1.1c-1.5,0.2-3,0.3-4.3,0.4c-2.4,0-4.9,0-7.3,0.1c-0.8,0-1.5-0.1-2.3-0.1
	C89.8,314,91.6,313.5,93.4,312.8z"/>
<g>
	<g>
		<g>
			<g>
				<defs>
					<path id="SVGID_00000029037768162974900370000002131826007213708695_" d="M179.5,209.9c-0.4-1.7-0.8-2.7-1-3.5
						c-0.1-0.2-1.3-4.2-1.4-8.9c-0.1-4.3,0.9-7.8,1.3-9c-0.5,0-1,0-1.5,0v-0.1H174v-12c0.7-8-1.4-13.4-1.4-13.4h-44
						c-1.1,3-1.5,6.2-1.5,9h-0.1v8.6c-0.7-0.7-1.2-1.2-1.8-1.8c0,0-0.1,0.3-0.1,0.2c-0.5,0.8-1.1,1.5-1.6,2.3
						c-9.4,1.3-15.8-0.2-15.8-0.2v-0.7c-14.6,0-29.2,0-43.9-0.1c-3,0.5-9.9,2.3-16.3,8c-7.7,6.9-9.8,15.3-10.3,18.2v45.2h7.4v7.6
						v7.8l0,0c-0.1,15.8-0.2,31.6-0.3,47.4c12.6,0,25.2,0,37.8,0c0-18.4,0-36.9,0-55.3v-7.6h7.6c0-3.7,0-7.5,0-11.2
						c0.4-1.1,1.2-2.6,2.6-4.1c1.8-2.1,3.8-3,5-3.6h10.4v-0.8c0.9-0.2,1.8-0.3,2.8-0.4c1-0.1,2-0.2,2.9-0.2v-0.1
						c1.1,0,2.1-0.1,3-0.1c0,0,0,0,0,0.1c1.1,0,2.3,0,3.5,0.1c1.2,0.1,2.4,0.2,3.5,0.3l0,0h0.1v0.1c0.5,0.8,1.2,1.5,1.7,2.3
						c0.7-0.7,1.2-1.3,1.8-2.1v8.8h0.1c0.3,5.3,1.5,9.1,1.5,9.2h44c1.5-5.5,1.7-10.4,1.4-14.1v-11.4c1,0,2,0,2.9,0c0.5,0,1,0,1.5,0
						c0.3-1,0.7-2.3,1.2-3.9c0.1-0.8,0.2-1.7,0.3-3c0.1-0.5,0.1-1.3,0.1-1.4c0-0.9,0-1.6,0-1.8C180,213.9,180,212.4,179.5,209.9z
						 M49.5,204.5c0-0.1,0-0.1,0.1-0.2C49.5,204.4,49.5,204.5,49.5,204.5L49.5,204.5z"/>
				</defs>
				<clipPath id="SVGID_00000049903833511602496840000017514980171387327369_">
					<use xlink:href="#SVGID_00000029037768162974900370000002131826007213708695_"  style="overflow:visible;"/>
				</clipPath>
				<g transform="matrix(1 0 0 1 0 0)" style="clip-path:url(#SVGID_00000049903833511602496840000017514980171387327369_);">
					
						<image style="overflow:visible;enable-background:new    ;" width="600" height="600" xlink:href="../../background.jpg"  transform="matrix(0.3261 0 0 0.3269 23.7946 143.9676)">
					</image>
				</g>
			</g>
		</g>
	</g>
	<g>
		<path id="SVGID_70_" class="st0" d="M179.5,209.9c-0.4-1.7-0.8-2.7-1-3.5c-0.1-0.2-1.3-4.2-1.4-8.9c-0.1-4.3,0.9-7.8,1.3-9
			c-0.5,0-1,0-1.5,0v-0.1H174v-12c0.7-8-1.4-13.4-1.4-13.4h-44c-1.1,3-1.5,6.2-1.5,9h-0.1v8.6c-0.7-0.7-1.2-1.2-1.8-1.8
			c0,0-0.1,0.3-0.1,0.2c-0.5,0.8-1.1,1.5-1.6,2.3c-9.4,1.3-15.8-0.2-15.8-0.2v-0.7c-14.6,0-29.2,0-43.9-0.1c-3,0.5-9.9,2.3-16.3,8
			c-7.7,6.9-9.8,15.3-10.3,18.2v45.2h7.4v7.6v7.8l0,0c-0.1,15.8-0.2,31.6-0.3,47.4c12.6,0,25.2,0,37.8,0c0-18.4,0-36.9,0-55.3v-7.6
			h7.6c0-3.7,0-7.5,0-11.2c0.4-1.1,1.2-2.6,2.6-4.1c1.8-2.1,3.8-3,5-3.6h10.4v-0.8c0.9-0.2,1.8-0.3,2.8-0.4c1-0.1,2-0.2,2.9-0.2
			v-0.1c1.1,0,2.1-0.1,3-0.1c0,0,0,0,0,0.1c1.1,0,2.3,0,3.5,0.1c1.2,0.1,2.4,0.2,3.5,0.3l0,0h0.1v0.1c0.5,0.8,1.2,1.5,1.7,2.3
			c0.7-0.7,1.2-1.3,1.8-2.1v8.8h0.1c0.3,5.3,1.5,9.1,1.5,9.2h44c1.5-5.5,1.7-10.4,1.4-14.1v-11.4c1,0,2,0,2.9,0c0.5,0,1,0,1.5,0
			c0.3-1,0.7-2.3,1.2-3.9c0.1-0.8,0.2-1.7,0.3-3c0.1-0.5,0.1-1.3,0.1-1.4c0-0.9,0-1.6,0-1.8C180,213.9,180,212.4,179.5,209.9z
			 M49.5,204.5c0-0.1,0-0.1,0.1-0.2C49.5,204.4,49.5,204.5,49.5,204.5L49.5,204.5z"/>
	</g>
</g>
<g>
	<g>
		
			<linearGradient id="SVGID_00000001649244066418013240000014105115391604074641_" gradientUnits="userSpaceOnUse" x1="-1867.092" y1="447.8243" x2="-1868.4094" y2="483.8769" gradientTransform="matrix(-1 0 0 -1 -1691.1812 514)">
			<stop  offset="0" style="stop-color:#999898"/>
			<stop  offset="0.1963" style="stop-color:#4F4F4F"/>
			<stop  offset="0.2507" style="stop-color:#5B5B5B"/>
			<stop  offset="0.3499" style="stop-color:#7C7C7C"/>
			<stop  offset="0.3704" style="stop-color:#848484"/>
			<stop  offset="0.433" style="stop-color:#878787"/>
			<stop  offset="0.5268" style="stop-color:#A0A0A0"/>
			<stop  offset="0.6843" style="stop-color:#C6C6C6"/>
			<stop  offset="0.9078" style="stop-color:#B7B7B7"/>
			<stop  offset="1" style="stop-color:#C6C6C6"/>
		</linearGradient>
		<path style="fill:url(#SVGID_00000001649244066418013240000014105115391604074641_);" d="M178.7,66.1c-2,0-3.8,0-5.6,0v-36
			c1.8,0,3.8,0.1,5.6,0.1c-0.4,1.2-1.4,4.7-1.3,9c0.1,4.7,1.3,8.7,1.4,8.9c0.2,0.8,0.5,1.7,1,3.5c0.5,2.5,0.5,4,0.5,4.4
			c0,0.2,0,1,0,1.8c0,0.1,0,0.9-0.1,1.4c-0.1,1.3-0.2,2.3-0.3,3C179.4,63.8,179.1,65.1,178.7,66.1z"/>
		
			<linearGradient id="SVGID_00000081629405117193890190000005365770729729317306_" gradientUnits="userSpaceOnUse" x1="-2198.4373" y1="779.8237" x2="-2195.4009" y2="779.8237" gradientTransform="matrix(-1 0 0 1 -2021.2839 -731.7528)">
			<stop  offset="0" style="stop-color:#1A1A1A"/>
			<stop  offset="0" style="stop-color:#000000;stop-opacity:0"/>
			<stop  offset="0.3429" style="stop-color:#0A0A0A;stop-opacity:0.3341"/>
			<stop  offset="0.9264" style="stop-color:#252525;stop-opacity:0.9026"/>
			<stop  offset="1" style="stop-color:#292929;stop-opacity:0.9744"/>
		</linearGradient>
		
			<polygon style="opacity:0.28;fill:url(#SVGID_00000081629405117193890190000005365770729729317306_);enable-background:new    ;" points="
			174.2,30.1 177.2,30.1 177.2,66.1 174.2,66.1 		"/>
	</g>
	<g>
		
			<linearGradient id="SVGID_00000016789948502595338190000003686157705461350022_" gradientUnits="userSpaceOnUse" x1="-1798.0431" y1="431.661" x2="-1798.0431" y2="500.414" gradientTransform="matrix(-1 0 0 -1 -1647.2958 514)">
			<stop  offset="2.230000e-02" style="stop-color:#1A1A1A"/>
			<stop  offset="0.9832" style="stop-color:#CCCCCC"/>
		</linearGradient>
		<polygon style="fill:url(#SVGID_00000016789948502595338190000003686157705461350022_);" points="127.2,82.3 174.3,82.3 
			174.3,13.6 127.2,13.6 		"/>
		
			<linearGradient id="SVGID_00000074414024776230143750000008020902475144146304_" gradientUnits="userSpaceOnUse" x1="-1798.1274" y1="422.5251" x2="-1798.1274" y2="443.8391" gradientTransform="matrix(-1 0 0 -1 -1647.2958 514)">
			<stop  offset="0" style="stop-color:#727272"/>
			<stop  offset="1" style="stop-color:#4C4C4C"/>
		</linearGradient>
		<path style="fill:url(#SVGID_00000074414024776230143750000008020902475144146304_);" d="M128.8,70.2h44c0,0,3.5,9.1,0,21.4h-44
			C128.8,91.4,125.3,80.5,128.8,70.2z"/>
		<path class="st9" d="M128.8,25.9h44c0,0,3.5,19,0,44.1h-44C128.8,70.2,125.3,47.5,128.8,25.9z"/>
		
			<linearGradient id="SVGID_00000084497367266553961010000011332330082958687139_" gradientUnits="userSpaceOnUse" x1="-1798.1274" y1="488.0053" x2="-1798.1274" y2="509.3194" gradientTransform="matrix(-1 0 0 -1 -1647.2958 514)">
			<stop  offset="0" style="stop-color:#F4F4F4"/>
			<stop  offset="1" style="stop-color:#BABABA"/>
		</linearGradient>
		<path style="fill:url(#SVGID_00000084497367266553961010000011332330082958687139_);" d="M128.8,4.7h44c0,0,3.5,9.1,0,21.4h-44
			C128.8,25.9,125.3,15,128.8,4.7z"/>
	</g>
</g>
<g>
	
		<linearGradient id="SVGID_00000105395909207960145620000001398707461225132991_" gradientUnits="userSpaceOnUse" x1="116.4249" y1="440.5533" x2="116.4249" y2="491.4132" gradientTransform="matrix(1 0 0 -1 0 514)">
		<stop  offset="0" style="stop-color:#999898"/>
		<stop  offset="0.1963" style="stop-color:#4F4F4F"/>
		<stop  offset="0.2507" style="stop-color:#5B5B5B"/>
		<stop  offset="0.3499" style="stop-color:#7C7C7C"/>
		<stop  offset="0.3704" style="stop-color:#848484"/>
		<stop  offset="0.433" style="stop-color:#878787"/>
		<stop  offset="0.5974" style="stop-color:#D9D9D9"/>
		<stop  offset="0.6843" style="stop-color:#FFFFFF"/>
		<stop  offset="0.9078" style="stop-color:#B7B7B7"/>
		<stop  offset="1" style="stop-color:#C6C6C6"/>
	</linearGradient>
	<path style="fill:url(#SVGID_00000105395909207960145620000001398707461225132991_);" d="M125,73.4c0,0-8.5-1.6-17.2,0V22.6
		c0,0,7,1.7,17.2,0V73.4z"/>
	
		<linearGradient id="SVGID_00000012455174428572996080000017686634660775064763_" gradientUnits="userSpaceOnUse" x1="50.4374" y1="438.3845" x2="50.4374" y2="493.5631" gradientTransform="matrix(1 0 0 -1 75.9101 514)">
		<stop  offset="0" style="stop-color:#636363"/>
		<stop  offset="0.1983" style="stop-color:#444444"/>
		<stop  offset="0.2933" style="stop-color:#383838"/>
		<stop  offset="0.433" style="stop-color:#565656"/>
		<stop  offset="0.6732" style="stop-color:#E5E5E5"/>
		<stop  offset="0.9078" style="stop-color:#7F7E7E"/>
		<stop  offset="1" style="stop-color:#939292"/>
	</linearGradient>
	<path style="fill:url(#SVGID_00000012455174428572996080000017686634660775064763_);" d="M125.4,75.6c0.7-0.7,1.3-1.4,2-2.2
		c0-17.1,0-34.1,0-51.2c-0.7-0.7-1.3-1.3-2-2V75.6z"/>
	
		<linearGradient id="SVGID_00000158720125053526423220000005203794159259388589_" gradientUnits="userSpaceOnUse" x1="-1781.9871" y1="438.3845" x2="-1781.9871" y2="493.5745" gradientTransform="matrix(-1 0 0 -1 -1657.4832 514)">
		<stop  offset="0" style="stop-color:#7F7F7F"/>
		<stop  offset="0.1983" style="stop-color:#606060"/>
		<stop  offset="0.2933" style="stop-color:#545454"/>
		<stop  offset="0.433" style="stop-color:#757575"/>
		<stop  offset="0.6732" style="stop-color:#FFFFFF"/>
		<stop  offset="0.9078" style="stop-color:#9B9B9B"/>
		<stop  offset="1" style="stop-color:#B2B2B2"/>
	</linearGradient>
	<path style="fill:url(#SVGID_00000158720125053526423220000005203794159259388589_);" d="M125.4,75.6c-0.5-0.8-1.2-1.5-1.7-2.3
		c0-16.9,0-33.7,0-50.5c0.5-0.8,1.1-1.5,1.6-2.3L125.4,75.6L125.4,75.6z"/>
	
		<linearGradient id="SVGID_00000057852500724850535020000002049922873816307842_" gradientUnits="userSpaceOnUse" x1="-108.9061" y1="779.8237" x2="-101.9265" y2="779.8237" gradientTransform="matrix(1 0 0 1 225.5993 -731.7528)">
		<stop  offset="0" style="stop-color:#1A1A1A"/>
		<stop  offset="0" style="stop-color:#000000;stop-opacity:0"/>
		<stop  offset="0.3429" style="stop-color:#0A0A0A;stop-opacity:0.3341"/>
		<stop  offset="0.9264" style="stop-color:#252525;stop-opacity:0.9026"/>
		<stop  offset="1" style="stop-color:#292929;stop-opacity:0.9744"/>
	</linearGradient>
	<path style="opacity:0.28;fill:url(#SVGID_00000057852500724850535020000002049922873816307842_);enable-background:new    ;" d="
		M123.6,22.9c-1.1,0.1-2.2,0.3-3.5,0.4c-1.3,0.1-2.5,0.1-3.6,0.1c0,16.5,0,32.9,0,49.3c1.1,0,2.3,0,3.5,0.1c1.2,0.1,2.4,0.2,3.5,0.3
		C123.6,56.5,123.6,39.7,123.6,22.9z"/>
	
		<linearGradient id="SVGID_00000106120642553199415740000001099086626517011612_" gradientUnits="userSpaceOnUse" x1="-441.0261" y1="-1561.4749" x2="-429.8133" y2="-1561.4749" gradientTransform="matrix(1 0 0 -1 543.2952 -1513.3497)">
		<stop  offset="0" style="stop-color:#3F3B3C"/>
		<stop  offset="0.1413" style="stop-color:#3F3B3C;stop-opacity:0.8587"/>
		<stop  offset="1" style="stop-color:#3F3B3C;stop-opacity:0"/>
	</linearGradient>
	<path style="opacity:0.5;fill:url(#SVGID_00000106120642553199415740000001099086626517011612_);enable-background:new    ;" d="
		M113.3,23.3c-0.9-0.1-1.6-0.1-2.6-0.2c-1.1-0.1-2.1-0.3-2.9-0.4c-2,0-3.8,0-5.7,0v50.9h5.7c0.9-0.2,1.8-0.3,2.8-0.4
		c1-0.1,2-0.2,2.9-0.2C113.4,56.4,113.4,39.8,113.3,23.3z"/>
</g>
<g>
	<g>
		<g>
			
				<linearGradient id="SVGID_00000104679377703811431980000000684169461118505371_" gradientUnits="userSpaceOnUse" x1="-1243.8632" y1="1250.2545" x2="-1243.8632" y2="1319.0076" gradientTransform="matrix(0 -1 1 0 -1220.9637 -1111.8029)">
				<stop  offset="2.230000e-02" style="stop-color:#1A1A1A"/>
				<stop  offset="0.9832" style="stop-color:#CCCCCC"/>
			</linearGradient>
			<polygon style="fill:url(#SVGID_00000104679377703811431980000000684169461118505371_);" points="29.3,108.6 29.3,155.5 
				98,155.5 98,108.6 			"/>
			
				<linearGradient id="SVGID_00000026843611258618488390000006372214962944231060_" gradientUnits="userSpaceOnUse" x1="-1243.8933" y1="1241.1178" x2="-1243.8933" y2="1262.4319" gradientTransform="matrix(0 -1 1 0 -1220.9637 -1111.8029)">
				<stop  offset="0" style="stop-color:#727272"/>
				<stop  offset="1" style="stop-color:#4C4C4C"/>
			</linearGradient>
			<path style="fill:url(#SVGID_00000026843611258618488390000006372214962944231060_);" d="M41.4,110.1v44c0,0-9.1,3.5-21.4,0v-44
				C20.2,110.1,31.1,106.5,41.4,110.1z"/>
			<path class="st9" d="M85.7,110.1v44c0,0-19,3.5-44.1,0v-44C41.4,110.1,64.2,106.5,85.7,110.1z"/>
			
				<linearGradient id="SVGID_00000038390497497510526150000003755260302362452913_" gradientUnits="userSpaceOnUse" x1="-1243.8933" y1="1306.598" x2="-1243.8933" y2="1327.9121" gradientTransform="matrix(0 -1 1 0 -1220.9637 -1111.8029)">
				<stop  offset="0" style="stop-color:#F4F4F4"/>
				<stop  offset="1" style="stop-color:#BABABA"/>
			</linearGradient>
			<path style="fill:url(#SVGID_00000038390497497510526150000003755260302362452913_);" d="M106.9,110.1v44c0,0-9.1,3.5-21.4,0v-44
				C85.7,110.1,96.6,106.5,106.9,110.1z"/>
		</g>
	</g>
</g>
<linearGradient id="SVGID_00000080898460923647171370000005895197823227281599_" gradientUnits="userSpaceOnUse" x1="42.6172" y1="291.1172" x2="95.2274" y2="291.1172" gradientTransform="matrix(1 0 0 -1 0 392)">
	<stop  offset="0" style="stop-color:#999898"/>
	<stop  offset="0.1963" style="stop-color:#4F4F4F"/>
	<stop  offset="0.2507" style="stop-color:#5B5B5B"/>
	<stop  offset="0.3499" style="stop-color:#7C7C7C"/>
	<stop  offset="0.3704" style="stop-color:#848484"/>
	<stop  offset="0.433" style="stop-color:#878787"/>
	<stop  offset="0.5974" style="stop-color:#D9D9D9"/>
	<stop  offset="0.6843" style="stop-color:#FFFFFF"/>
	<stop  offset="0.9078" style="stop-color:#B7B7B7"/>
	<stop  offset="1" style="stop-color:#C6C6C6"/>
</linearGradient>
<rect x="44.7" y="93.2" style="fill:url(#SVGID_00000080898460923647171370000005895197823227281599_);" width="37.6" height="15.4"/>
<linearGradient id="SVGID_00000009563012177387292270000001178661809150106018_" gradientUnits="userSpaceOnUse" x1="63.5046" y1="304.5302" x2="63.5046" y2="291.3999" gradientTransform="matrix(1 0 0 -1 0 392)">
	<stop  offset="0" style="stop-color:#3F3B3C"/>
	<stop  offset="0.1413" style="stop-color:#3F3B3C;stop-opacity:0.8587"/>
	<stop  offset="1" style="stop-color:#3F3B3C;stop-opacity:0"/>
</linearGradient>
<rect x="44.7" y="87.3" style="fill:url(#SVGID_00000009563012177387292270000001178661809150106018_);" width="37.6" height="13.4"/>
<linearGradient id="SVGID_00000106129426323276864290000013457172779490534047_" gradientUnits="userSpaceOnUse" x1="65.5932" y1="811.6494" x2="104.1263" y2="783.8385" gradientTransform="matrix(1 0 0 1 0 -718)">
	<stop  offset="0.1201" style="stop-color:#686566"/>
	<stop  offset="0.1983" style="stop-color:#6E7072"/>
	<stop  offset="0.433" style="stop-color:#919396"/>
	<stop  offset="0.6732" style="stop-color:#E6E7E8"/>
	<stop  offset="0.8966" style="stop-color:#9F9D9D"/>
	<stop  offset="1" style="stop-color:#919396"/>
</linearGradient>
<path style="fill:url(#SVGID_00000106129426323276864290000013457172779490534047_);" d="M107.8,61.6v12.7H97.4
	c-1.2,0.5-3.1,1.5-5,3.6c-1.4,1.5-2.2,3-2.6,4.1c0,3.7,0,7.5,0,11.2H76.7V74.7c0.1-1,0.9-6.8,6-10.4c2.8-2,5.6-2.5,7.2-2.6
	C95.8,61.7,101.7,61.6,107.8,61.6z"/>
<linearGradient id="SVGID_00000168077079650480066160000002064761843054955919_" gradientUnits="userSpaceOnUse" x1="-17.6487" y1="815.9156" x2="111.3532" y2="744.2105" gradientTransform="matrix(1 0 0 1 0 -718)">
	<stop  offset="0.1201" style="stop-color:#686566"/>
	<stop  offset="0.2877" style="stop-color:#9F9D9D"/>
	<stop  offset="0.433" style="stop-color:#919396"/>
	<stop  offset="0.7793" style="stop-color:#E4E3E3"/>
	<stop  offset="1" style="stop-color:#919396"/>
</linearGradient>
<path style="fill:url(#SVGID_00000168077079650480066160000002064761843054955919_);" d="M107.8,21.9v12.3H61.5
	c-1.5,0.4-4.4,1.4-7.2,4c-3.1,2.9-4.2,6.3-4.7,7.8c0,15.7,0,31.3,0,47.2H37.4V48.1C38,45.1,40,36.8,47.7,29.9
	c6.4-5.7,13.2-7.5,16.3-8C78.6,21.9,93.3,21.9,107.8,21.9z"/>
<linearGradient id="SVGID_00000111890436425256003740000001359628819003379871_" gradientUnits="userSpaceOnUse" x1="27.9726" y1="802.0521" x2="121.4569" y2="755.4774" gradientTransform="matrix(1 0 0 1 0 -718)">
	<stop  offset="0" style="stop-color:#919396"/>
	<stop  offset="0.3883" style="stop-color:#D1D3D4"/>
	<stop  offset="0.6788" style="stop-color:#BCBEC0"/>
	<stop  offset="1" style="stop-color:#919396"/>
</linearGradient>
<path style="fill:url(#SVGID_00000111890436425256003740000001359628819003379871_);" d="M107.8,34.2v27.3l-18.2,0.2
	c-1.3,0.1-4.9,0.5-8,3.3c-4.3,3.7-4.9,8.7-5,9.8c0,6.2,0,12.3,0,18.4H49.8V46.1c0.4-1.5,1.5-4.9,4.7-7.8c2.7-2.6,5.7-3.6,7.2-4
	C77,34.2,92.5,34.2,107.8,34.2z"/>
<linearGradient id="SVGID_00000013883551875081961830000008456950050976892060_" gradientUnits="userSpaceOnUse" x1="70.3703" y1="764.9169" x2="92.4849" y2="795.7433" gradientTransform="matrix(1 0 0 1 0 -718)">
	<stop  offset="0" style="stop-color:#58595B"/>
	<stop  offset="0.1159" style="stop-color:#606162;stop-opacity:0.8841"/>
	<stop  offset="0.292" style="stop-color:#757577;stop-opacity:0.708"/>
	<stop  offset="0.5065" style="stop-color:#979899;stop-opacity:0.4935"/>
	<stop  offset="0.7509" style="stop-color:#C7C7C8;stop-opacity:0.2491"/>
	<stop  offset="1" style="stop-color:#FFFFFF;stop-opacity:0"/>
</linearGradient>
<path style="fill:url(#SVGID_00000013883551875081961830000008456950050976892060_);" d="M107.8,61.6v12.7H97.4
	c-1.2,0.5-3.1,1.5-5,3.6c-1.4,1.5-2.2,3-2.6,4.1c0,3.7,0,7.5,0,11.2H76.7V74.7c0.1-1,0.9-6.8,6-10.4c2.8-2,5.6-2.5,7.2-2.6
	C95.8,61.7,101.7,61.6,107.8,61.6z"/>
<linearGradient id="SVGID_00000031192937682108020490000016307048730866781338_" gradientUnits="userSpaceOnUse" x1="65.2918" y1="766.8205" x2="26.3398" y2="720.3297" gradientTransform="matrix(1 0 0 1 0 -718)">
	<stop  offset="0" style="stop-color:#808285;stop-opacity:0"/>
	<stop  offset="0.6088" style="stop-color:#808285;stop-opacity:0.8587"/>
	<stop  offset="0.7091" style="stop-color:#808285"/>
</linearGradient>
<path style="fill:url(#SVGID_00000031192937682108020490000016307048730866781338_);" d="M107.8,21.9v12.3H61.5
	c-1.5,0.4-4.4,1.4-7.2,4c-3.1,2.9-4.2,6.3-4.7,7.8c0,15.7,0,31.3,0,47.2H37.4V48.1C38,45.1,40,36.8,47.7,29.9
	c6.4-5.7,13.2-7.5,16.3-8C78.6,21.9,93.3,21.9,107.8,21.9z"/>
<linearGradient id="SVGID_00000061429433421987246950000002809622442329044354_" gradientUnits="userSpaceOnUse" x1="89.4755" y1="809.9584" x2="59.5706" y2="730.7982" gradientTransform="matrix(1 0 0 1 0 -718)">
	<stop  offset="0" style="stop-color:#58595B;stop-opacity:0"/>
	<stop  offset="1" style="stop-color:#FFFFFF"/>
</linearGradient>
<path style="fill:url(#SVGID_00000061429433421987246950000002809622442329044354_);" d="M107.8,34.2v27.3l-18.2,0.2
	c-1.3,0.1-4.9,0.5-8,3.3c-4.3,3.7-4.9,8.7-5,9.8c0,6.2,0,12.3,0,18.4H49.8V46.1c0.4-1.5,1.5-4.9,4.7-7.8c2.7-2.6,5.7-3.6,7.2-4
	C77,34.2,92.5,34.2,107.8,34.2z"/>
<linearGradient id="SVGID_00000121959558442964867060000000276648250505794737_" gradientUnits="userSpaceOnUse" x1="76.8855" y1="811.5182" x2="98.5969" y2="773.913" gradientTransform="matrix(1 0 0 1 0 -718)">
	<stop  offset="0.1201" style="stop-color:#686566"/>
	<stop  offset="0.2877" style="stop-color:#9F9D9D"/>
	<stop  offset="0.433" style="stop-color:#919396"/>
	<stop  offset="0.6732" style="stop-color:#FFFFFF"/>
	<stop  offset="0.7793" style="stop-color:#E4E3E3"/>
	<stop  offset="1" style="stop-color:#919396"/>
</linearGradient>
<path style="fill:none;stroke:url(#SVGID_00000121959558442964867060000000276648250505794737_);stroke-width:0.75;stroke-miterlimit:10;" d="
	M76.7,93.2V74.7c0.1-1.2,0.8-5.2,4.1-8.7c3.5-3.6,7.8-4.2,9-4.3c6.1-0.1,12.1-0.1,18.2-0.2"/>
<linearGradient id="SVGID_00000124129343661228481090000003872585272372971183_" gradientUnits="userSpaceOnUse" x1="48.0806" y1="810.415" x2="88.4129" y2="740.5573" gradientTransform="matrix(1 0 0 1 0 -718)">
	<stop  offset="0.1201" style="stop-color:#686566"/>
	<stop  offset="0.2877" style="stop-color:#9F9D9D"/>
	<stop  offset="0.433" style="stop-color:#919396"/>
	<stop  offset="0.6732" style="stop-color:#FFFFFF"/>
	<stop  offset="0.7793" style="stop-color:#E4E3E3"/>
	<stop  offset="1" style="stop-color:#919396"/>
</linearGradient>
<path style="fill:none;stroke:url(#SVGID_00000124129343661228481090000003872585272372971183_);stroke-width:0.75;stroke-miterlimit:10;" d="
	M49.8,93.2V46.1c0.2-1.3,1.1-4.8,4.1-7.8c3-2.9,6.4-3.8,7.7-4.1c15.5,0,30.8,0,46.3,0"/>
<g>
	<path class="st3" d="M128.8,236.8c0.7-1.3,1.3-2.5,2-3.8c0.7,1.3,1.4,2.6,2.1,3.9c0.7-1.3,1.3-2.6,2.1-3.9c0.8,1.3,1.4,2.5,2.2,3.8
		c0.7-1.2,1.3-2.5,1.8-3.7c0.8,1.2,1.6,2.5,2.4,3.7c0.5-1.4,1.1-2.7,1.6-4.1c0.8,1.6,1.5,3.4,2.3,5c0.7-1.4,2.1-4.1,2.1-4.1
		c0.7,1.1,1.2,2.2,1.8,3.3c1-1.3,1.8-2.6,2.8-3.9c0,0,0,0,0.3,0c0.7,0,1.2,0,1.8,0c0.9,0,1.7,0,2.6,0c0.3,0,0.5,0,0.9,0
		c0,0,0-1.4,0-1.8c0-0.7,0-1.2,0-1.7c1.8-1.6,5.5-4.9,5.4-4.9h0.1V189c-0.3-0.1-3.7-3.3-5.6-4.9c0-0.5,0-1.1,0-1.7
		c0-0.4,0-1.8,0-1.8c-0.3,0-0.5,0-0.9,0c-0.9,0-1.7,0-2.6,0c-0.7,0-1.2,0-1.8,0c-0.3,0-0.3,0-0.3,0s-1.7-2.4-2.6-3.4
		c-0.7,1.2-1.3,2.3-2,3.5l-2.1-4.1l-1.8,4.1c0,0-1.4-2.7-2-4.1l-2.4,3.7l-1.8-3.7l-2.2,3.8l-2-3.8c-0.7,1.2-2.1,3.7-2.1,3.7
		l-2.1-3.7c-0.8,1.2-2.2,3.6-2.2,3.6v-1.3v-8.4l1.4-7.4h44c0.4,1.2,0.8,2.5,1.1,4c0.3,1.6,0.4,3.1,0.5,4.4c0,5.7,0,11.4,0,17.1v36.1
		v13c0.2,2,0.2,4.4-0.2,7.3c-0.3,2.1-0.8,3.8-1.3,5.2c-14.6,0-29.4,0-44,0c-0.4-1.4-0.8-3-1.1-4.9c-0.2-1.5-0.3-3-0.4-4.3
		c0-2.5,0-4.9-0.1-7.4c0-0.8,0.1-1.5,0.1-2.4C127.5,233.1,128.2,235,128.8,236.8z"/>
	<path class="st29" d="M156,228.8c0.9-1.2,2.6-3.3,5.5-4.1c0.5-0.1,1.2-0.2,1.6-0.3c-1.8,1.6-3.7,3.3-5.5,4.9c0,0.5,0,1.1,0,1.7l0,0
		c0,0.4,0,1.8,0,1.8l0,0l0,0c-0.3,0-0.5,0-0.9,0c-0.9,0-1.7,0-2.6,0c-0.7,0-1.2,0-1.8,0c-0.3,0-0.3,0-0.3,0s-1.7,2.3-2.6,3.4
		c-0.7-1.2-1.3-2.3-2-3.5l-2.1,4.1l-1.8-4.1c0.5-0.4,1.2-0.9,1.7-1.3c0-1.7,0-3.5,0-5.2c0.5-0.1,1-0.2,1.5-0.2
		C149.8,226.9,152.8,227.8,156,228.8z"/>
	<polygon class="st1" points="135.2,226.3 128.6,224.8 135.2,224.8 	"/>
	<path class="st29" d="M156,184.9c0.9,1.2,2.6,3.3,5.5,4.1c0.5,0.1,1.2,0.2,1.6,0.3c-1.8-1.6-3.7-3.3-5.5-4.9c0-0.5,0-1.1,0-1.7l0,0
		c0-0.4,0-1.8,0-1.8l0,0l0,0c-0.3,0-0.5,0-0.9,0c-0.9,0-1.7,0-2.6,0c-0.7,0-1.2,0-1.8,0c-0.3,0-0.3,0-0.3,0s-1.7-2.3-2.6-3.4
		c-0.7,1.2-1.3,2.3-2,3.5l-2.1-4.1l-1.8,4.1c0.5,0.4,1.2,0.9,1.7,1.3c0,1.7,0,3.5,0,5.2c0.5,0.1,1,0.2,1.5,0.2
		C149.8,186.7,152.8,185.7,156,184.9z"/>
	<polygon class="st1" points="135.2,187.3 128.6,188.8 135.2,188.8 	"/>
	<path class="st30" d="M126.7,181c0.8-1.4,1.6-2.8,2.4-4.2l2,3.8l2.2-3.8l2,3.8l2.2-3.8l1.8,3.7l2.4-3.7c0.5,1.4,1.1,2.8,1.6,4.1
		c0.4,0,0.9,0,1.2,0"/>
	<path class="st1" d="M145.1,181.8c0.1-0.2,0.3-0.4,0.4-0.7v-0.8c-0.8-0.3-1.4-0.7-2.2-0.9c-0.1,0.7-0.1,1.3-0.2,2
		C143.8,181.6,144.5,181.7,145.1,181.8z"/>
	<path class="st30" d="M127,231.3c0.3,1,0.7,2,1,2.9c0.3,0.9,0.7,1.7,1,2.6l2-3.8l2.2,3.8l2-3.8l2.2,3.8l1.8-3.7l2.4,3.7
		c0.5-1.4,1.1-2.7,1.6-4.1c0.1,0,0.2,0,0.3,0"/>
	<path class="st1" d="M143.7,234.1c0.5-0.3,1.2-0.8,1.7-1.1v-0.5c-0.4-0.3-1.2-0.7-2-0.4h-0.1c0,0.5,0,1.2,0,1.7
		C143.4,233.9,143.5,234,143.7,234.1z"/>
	<g>
		<g>
			<g>
				<g>
					<defs>
						<path id="SVGID_00000073704082325876902710000002676827625471835050_" d="M122.3,188.7v3.9c18.3,0,36.7,0,54.9,0
							c0.1-0.4,0.3-1,0.4-1.5c0.3-0.9,0.7-1.7,1-2.4C159.9,188.7,141.1,188.7,122.3,188.7z"/>
					</defs>
					<clipPath id="SVGID_00000103982778852273811930000000060786809538091441_">
						<use xlink:href="#SVGID_00000073704082325876902710000002676827625471835050_"  style="overflow:visible;"/>
					</clipPath>
					<g style="clip-path:url(#SVGID_00000103982778852273811930000000060786809538091441_);">
						
							<image style="overflow:visible;enable-background:new    ;" width="600" height="600" xlink:href="../../background.jpg"  transform="matrix(0.4265 0 0 0.4447 136.3501 111.2467)">
						</image>
					</g>
				</g>
			</g>
		</g>
	</g>
	<g>
		<g>
			<g>
				<g>
					<defs>
						<path id="SVGID_00000071518791719066878560000001536084274584330897_" d="M122.3,188.7v3.9c18.3,0,36.7,0,54.9,0
							c0.1-0.4,0.3-1,0.4-1.5c0.3-0.9,0.7-1.7,1-2.4C159.9,188.7,141.1,188.7,122.3,188.7z"/>
					</defs>
					<clipPath id="SVGID_00000183940189395530253930000008439969370099690373_">
						<use xlink:href="#SVGID_00000071518791719066878560000001536084274584330897_"  style="overflow:visible;"/>
					</clipPath>
					<g style="clip-path:url(#SVGID_00000183940189395530253930000008439969370099690373_);">
						
							<image style="overflow:visible;enable-background:new    ;" width="600" height="600" xlink:href="../../background.jpg"  transform="matrix(0 -0.5157 -0.4986 0 211.2079 331.4589)">
						</image>
					</g>
				</g>
			</g>
		</g>
	</g>
	<g class="st33">
		<path id="SVGID_213_" class="st34" d="M122.3,188.6v3.9c18.3,0,36.7,0,54.9,0c0.1-0.4,0.3-1,0.4-1.5c0.3-0.9,0.7-1.7,1-2.4
			C159.9,188.6,141.1,188.6,122.3,188.6z"/>
	</g>
	<g>
		<g>
			<g>
				<path id="SVGID_32_" class="st35" d="M160,188.7c0.2,0,0.5,0,0.9-0.3c0,0,0.1-0.2,0.2-0.3c0.1-0.4-0.1-1-0.2-1
					c0,0-1.1-1-1.6-1.4s-1.4-1.2-2.4-2.1c-1.4,0-2.4,0-2.9,0c0,0-2,0-2.1,0c-0.1,0-0.1,0-0.2,0s-0.1,0-0.2,0c0,0,0,0-0.1,0
					c0,0,0,0-0.1,0l0,0l0,0l0,0l0,0l0,0v0.1c0,0.1,0,0.1,0,0.1c0,0.1,0,0.2,0,0.4c0,0.4,0,0.4,0,0.5l0,0c0,0.3-0.2,0.4-0.2,0.4
					c-0.1,0.1-0.2,0.1-0.3,0.2c-0.3,0.1-0.7,0.1-1.2,0.1c-0.2,0-0.4,0-0.7,0c0,0-0.5,0-1.7,0c-4,0-4,0-4,0s-4.9,1-8,1.6l0,0l0,0
					c0,1,0,1.1,0,1.4v0.1l0,0c0.5,0,1.1,0,1.6,0l0,0c0,0.7-0.1,1.2-0.1,1.8c0.7-0.7,1.3-1.3,2-1.8l0,0l0,0l0,0c0.3,0,0.7,0,1,0
					c0,0.7,0,1.3,0,1.8c0.7-0.7,1.3-1.3,2-1.8l0,0c1.5,0,2.5,0,3,0c0.2,0,0.8,0,1.5,0c0.3,0,0.7,0,1.1,0c0.8,0,1.3,0,1.7,0
					c0.7,0,1.3,0,1.8,0h3.8C154.8,188.8,158.7,188.8,160,188.7z"/>
			</g>
		</g>
		<g>
			<g>
				<g>
					<defs>
						<path id="SVGID_00000156568534117263754770000002339257216109847984_" d="M160,188.7c0.2,0,0.5,0,0.9-0.3c0,0,0.1-0.2,0.2-0.3
							c0.1-0.4-0.1-1-0.2-1c0,0-1.1-1-1.6-1.4s-1.4-1.2-2.4-2.1c-1.4,0-2.4,0-2.9,0c0,0-2,0-2.1,0c-0.1,0-0.1,0-0.2,0s-0.1,0-0.2,0
							c0,0,0,0-0.1,0c0,0,0,0-0.1,0l0,0l0,0l0,0l0,0l0,0v0.1c0,0.1,0,0.1,0,0.1c0,0.1,0,0.2,0,0.4c0,0.4,0,0.4,0,0.5l0,0
							c0,0.3-0.2,0.4-0.2,0.4c-0.1,0.1-0.2,0.1-0.3,0.2c-0.3,0.1-0.7,0.1-1.2,0.1c-0.2,0-0.4,0-0.7,0c0,0-0.5,0-1.7,0c-4,0-4,0-4,0
							s-4.9,1-8,1.6l0,0l0,0c0,1,0,1.1,0,1.4v0.1l0,0c0.5,0,1.1,0,1.6,0l0,0c0,0.7-0.1,1.2-0.1,1.8c0.7-0.7,1.3-1.3,2-1.8l0,0l0,0
							l0,0c0.3,0,0.7,0,1,0c0,0.7,0,1.3,0,1.8c0.7-0.7,1.3-1.3,2-1.8l0,0c1.5,0,2.5,0,3,0c0.2,0,0.8,0,1.5,0c0.3,0,0.7,0,1.1,0
							c0.8,0,1.3,0,1.7,0c0.7,0,1.3,0,1.8,0h3.8C154.8,188.8,158.7,188.8,160,188.7z"/>
					</defs>
					<clipPath id="SVGID_00000117641898479356648170000005384200069257740976_">
						<use xlink:href="#SVGID_00000156568534117263754770000002339257216109847984_"  style="overflow:visible;"/>
					</clipPath>
				</g>
				<g>
					<defs>
						<path id="SVGID_00000129172581659049393010000006468407488496239767_" d="M160,188.7c0.2,0,0.5,0,0.9-0.3c0,0,0.1-0.2,0.2-0.3
							c0.1-0.4-0.1-1-0.2-1c0,0-1.1-1-1.6-1.4s-1.4-1.2-2.4-2.1c-1.4,0-2.4,0-2.9,0c0,0-2,0-2.1,0c-0.1,0-0.1,0-0.2,0s-0.1,0-0.2,0
							c0,0,0,0-0.1,0c0,0,0,0-0.1,0l0,0l0,0l0,0l0,0l0,0v0.1c0,0.1,0,0.1,0,0.1c0,0.1,0,0.2,0,0.4c0,0.4,0,0.4,0,0.5l0,0
							c0,0.3-0.2,0.4-0.2,0.4c-0.1,0.1-0.2,0.1-0.3,0.2c-0.3,0.1-0.7,0.1-1.2,0.1c-0.2,0-0.4,0-0.7,0c0,0-0.5,0-1.7,0c-4,0-4,0-4,0
							s-4.9,1-8,1.6l0,0l0,0c0,1,0,1.1,0,1.4v0.1l0,0c0.5,0,1.1,0,1.6,0l0,0c0,0.7-0.1,1.2-0.1,1.8c0.7-0.7,1.3-1.3,2-1.8l0,0l0,0
							l0,0c0.3,0,0.7,0,1,0c0,0.7,0,1.3,0,1.8c0.7-0.7,1.3-1.3,2-1.8l0,0c1.5,0,2.5,0,3,0c0.2,0,0.8,0,1.5,0c0.3,0,0.7,0,1.1,0
							c0.8,0,1.3,0,1.7,0c0.7,0,1.3,0,1.8,0h3.8C154.8,188.8,158.7,188.8,160,188.7z"/>
					</defs>
					<defs>
						<path id="SVGID_00000081623648334793660040000010165141552123153059_" d="M160,188.7c0.2,0,0.5,0,0.9-0.3c0,0,0.1-0.2,0.2-0.3
							c0.1-0.4-0.1-1-0.2-1c0,0-1.1-1-1.6-1.4s-1.4-1.2-2.4-2.1c-1.4,0-2.4,0-2.9,0c0,0-2,0-2.1,0c-0.1,0-0.1,0-0.2,0s-0.1,0-0.2,0
							c0,0,0,0-0.1,0c0,0,0,0-0.1,0l0,0l0,0l0,0l0,0l0,0v0.1c0,0.1,0,0.1,0,0.1c0,0.1,0,0.2,0,0.4c0,0.4,0,0.4,0,0.5l0,0
							c0,0.3-0.2,0.4-0.2,0.4c-0.1,0.1-0.2,0.1-0.3,0.2c-0.3,0.1-0.7,0.1-1.2,0.1c-0.2,0-0.4,0-0.7,0c0,0-0.5,0-1.7,0c-4,0-4,0-4,0
							s-4.9,1-8,1.6l0,0l0,0c0,1,0,1.1,0,1.4v0.1l0,0c0.5,0,1.1,0,1.6,0l0,0c0,0.7-0.1,1.2-0.1,1.8c0.7-0.7,1.3-1.3,2-1.8l0,0l0,0
							l0,0c0.3,0,0.7,0,1,0c0,0.7,0,1.3,0,1.8c0.7-0.7,1.3-1.3,2-1.8l0,0c1.5,0,2.5,0,3,0c0.2,0,0.8,0,1.5,0c0.3,0,0.7,0,1.1,0
							c0.8,0,1.3,0,1.7,0c0.7,0,1.3,0,1.8,0h3.8C154.8,188.8,158.7,188.8,160,188.7z"/>
					</defs>
					<clipPath id="SVGID_00000045581842587628960390000003333313175400165007_">
						<use xlink:href="#SVGID_00000129172581659049393010000006468407488496239767_"  style="overflow:visible;"/>
					</clipPath>
					
						<clipPath id="SVGID_00000158007658019940620260000005004950275735223954_" style="clip-path:url(#SVGID_00000045581842587628960390000003333313175400165007_);">
						<use xlink:href="#SVGID_00000081623648334793660040000010165141552123153059_"  style="overflow:visible;"/>
					</clipPath>
					<g style="clip-path:url(#SVGID_00000158007658019940620260000005004950275735223954_);">
						
							<image style="overflow:visible;enable-background:new    ;" width="600" height="600" xlink:href="../../background.jpg"  transform="matrix(0 -0.5157 -0.4986 0 219.0331 353.8226)">
						</image>
					</g>
				</g>
			</g>
			<g>
				<path id="SVGID_34_" class="st35" d="M160,188.7c0.2,0,0.5,0,0.9-0.3c0,0,0.1-0.2,0.2-0.3c0.1-0.4-0.1-1-0.2-1
					c0,0-1.1-1-1.6-1.4s-1.4-1.2-2.4-2.1c-1.4,0-2.4,0-2.9,0c0,0-2,0-2.1,0c-0.1,0-0.1,0-0.2,0s-0.1,0-0.2,0c0,0,0,0-0.1,0
					c0,0,0,0-0.1,0l0,0l0,0l0,0l0,0l0,0v0.1c0,0.1,0,0.1,0,0.1c0,0.1,0,0.2,0,0.4c0,0.4,0,0.4,0,0.5l0,0c0,0.3-0.2,0.4-0.2,0.4
					c-0.1,0.1-0.2,0.1-0.3,0.2c-0.3,0.1-0.7,0.1-1.2,0.1c-0.2,0-0.4,0-0.7,0c0,0-0.5,0-1.7,0c-4,0-4,0-4,0s-4.9,1-8,1.6l0,0l0,0
					c0,1,0,1.1,0,1.4v0.1l0,0c0.5,0,1.1,0,1.6,0l0,0c0,0.7-0.1,1.2-0.1,1.8c0.7-0.7,1.3-1.3,2-1.8l0,0l0,0l0,0c0.3,0,0.7,0,1,0
					c0,0.7,0,1.3,0,1.8c0.7-0.7,1.3-1.3,2-1.8l0,0c1.5,0,2.5,0,3,0c0.2,0,0.8,0,1.5,0c0.3,0,0.7,0,1.1,0c0.8,0,1.3,0,1.7,0
					c0.7,0,1.3,0,1.8,0h3.8C154.8,188.8,158.7,188.8,160,188.7z"/>
			</g>
			<g>
				<path id="SVGID_35_" class="st35" d="M160,188.7c0.2,0,0.5,0,0.9-0.3c0,0,0.1-0.2,0.2-0.3c0.1-0.4-0.1-1-0.2-1
					c0,0-1.1-1-1.6-1.4s-1.4-1.2-2.4-2.1c-1.4,0-2.4,0-2.9,0c0,0-2,0-2.1,0c-0.1,0-0.1,0-0.2,0s-0.1,0-0.2,0c0,0,0,0-0.1,0
					c0,0,0,0-0.1,0l0,0l0,0l0,0l0,0l0,0v0.1c0,0.1,0,0.1,0,0.1c0,0.1,0,0.2,0,0.4c0,0.4,0,0.4,0,0.5l0,0c0,0.3-0.2,0.4-0.2,0.4
					c-0.1,0.1-0.2,0.1-0.3,0.2c-0.3,0.1-0.7,0.1-1.2,0.1c-0.2,0-0.4,0-0.7,0c0,0-0.5,0-1.7,0c-4,0-4,0-4,0s-4.9,1-8,1.6l0,0l0,0
					c0,1,0,1.1,0,1.4v0.1l0,0c0.5,0,1.1,0,1.6,0l0,0c0,0.7-0.1,1.2-0.1,1.8c0.7-0.7,1.3-1.3,2-1.8l0,0l0,0l0,0c0.3,0,0.7,0,1,0
					c0,0.7,0,1.3,0,1.8c0.7-0.7,1.3-1.3,2-1.8l0,0c1.5,0,2.5,0,3,0c0.2,0,0.8,0,1.5,0c0.3,0,0.7,0,1.1,0c0.8,0,1.3,0,1.7,0
					c0.7,0,1.3,0,1.8,0h3.8C154.8,188.8,158.7,188.8,160,188.7z"/>
			</g>
		</g>
		<g>
			<path id="SVGID_212_" class="st35" d="M160,188.7c0.2,0,0.5,0,0.9-0.3c0,0,0.1-0.2,0.2-0.3c0.1-0.4-0.1-1-0.2-1
				c0,0-1.1-1-1.6-1.4s-1.4-1.2-2.4-2.1c-1.4,0-2.4,0-2.9,0c0,0-2,0-2.1,0c-0.1,0-0.1,0-0.2,0s-0.1,0-0.2,0c0,0,0,0-0.1,0
				c0,0,0,0-0.1,0l0,0l0,0l0,0l0,0l0,0v0.1c0,0.1,0,0.1,0,0.1c0,0.1,0,0.2,0,0.4c0,0.4,0,0.4,0,0.5l0,0c0,0.3-0.2,0.4-0.2,0.4
				c-0.1,0.1-0.2,0.1-0.3,0.2c-0.3,0.1-0.7,0.1-1.2,0.1c-0.2,0-0.4,0-0.7,0c0,0-0.5,0-1.7,0c-4,0-4,0-4,0s-4.9,1-8,1.6l0,0l0,0
				c0,1,0,1.1,0,1.4v0.1l0,0c0.5,0,1.1,0,1.6,0l0,0c0,0.7-0.1,1.2-0.1,1.8c0.7-0.7,1.3-1.3,2-1.8l0,0l0,0l0,0c0.3,0,0.7,0,1,0
				c0,0.7,0,1.3,0,1.8c0.7-0.7,1.3-1.3,2-1.8l0,0c1.5,0,2.5,0,3,0c0.2,0,0.8,0,1.5,0c0.3,0,0.7,0,1.1,0c0.8,0,1.3,0,1.7,0
				c0.7,0,1.3,0,1.8,0h3.8C154.8,188.8,158.7,188.8,160,188.7z"/>
		</g>
		<g>
			<path id="SVGID_211_" class="st35" d="M160,188.7c0.2,0,0.5,0,0.9-0.3c0,0,0.1-0.2,0.2-0.3c0.1-0.4-0.1-1-0.2-1
				c0,0-1.1-1-1.6-1.4s-1.4-1.2-2.4-2.1c-1.4,0-2.4,0-2.9,0c0,0-2,0-2.1,0c-0.1,0-0.1,0-0.2,0s-0.1,0-0.2,0c0,0,0,0-0.1,0
				c0,0,0,0-0.1,0l0,0l0,0l0,0l0,0l0,0v0.1c0,0.1,0,0.1,0,0.1c0,0.1,0,0.2,0,0.4c0,0.4,0,0.4,0,0.5l0,0c0,0.3-0.2,0.4-0.2,0.4
				c-0.1,0.1-0.2,0.1-0.3,0.2c-0.3,0.1-0.7,0.1-1.2,0.1c-0.2,0-0.4,0-0.7,0c0,0-0.5,0-1.7,0c-4,0-4,0-4,0s-4.9,1-8,1.6l0,0l0,0
				c0,1,0,1.1,0,1.4v0.1l0,0c0.5,0,1.1,0,1.6,0l0,0c0,0.7-0.1,1.2-0.1,1.8c0.7-0.7,1.3-1.3,2-1.8l0,0l0,0l0,0c0.3,0,0.7,0,1,0
				c0,0.7,0,1.3,0,1.8c0.7-0.7,1.3-1.3,2-1.8l0,0c1.5,0,2.5,0,3,0c0.2,0,0.8,0,1.5,0c0.3,0,0.7,0,1.1,0c0.8,0,1.3,0,1.7,0
				c0.7,0,1.3,0,1.8,0h3.8C154.8,188.8,158.7,188.8,160,188.7z"/>
		</g>
	</g>
	<g>
		<g>
			<g>
				<g>
					<defs>
						<path id="SVGID_00000114764653302063151250000007175157356770930861_" d="M122.3,224.8v-3.9c19.1,0,38.3,0,57.4-0.1
							c-0.1,0.7-0.3,1.4-0.7,2.2c-0.2,0.7-0.5,1.3-0.9,1.7C159.6,224.8,141,224.8,122.3,224.8z"/>
					</defs>
					<clipPath id="SVGID_00000058575192709998501330000013453475182355263410_">
						<use xlink:href="#SVGID_00000114764653302063151250000007175157356770930861_"  style="overflow:visible;"/>
					</clipPath>
					<g style="clip-path:url(#SVGID_00000058575192709998501330000013453475182355263410_);">
						
							<image style="overflow:visible;enable-background:new    ;" width="600" height="600" xlink:href="../../background.jpg"  transform="matrix(0.4265 0 0 0.4447 137.9292 111.2467)">
						</image>
					</g>
				</g>
			</g>
		</g>
	</g>
	<g>
		<g>
			<g>
				<g>
					<defs>
						<path id="SVGID_00000181796646080610734050000000597434501546807684_" d="M122.3,224.8v-3.9c19.1,0,38.3,0,57.4-0.1
							c-0.1,0.7-0.3,1.4-0.7,2.2c-0.2,0.7-0.5,1.3-0.9,1.7C159.6,224.8,141,224.8,122.3,224.8z"/>
					</defs>
					<clipPath id="SVGID_00000034064624437837541480000009894059927533406602_">
						<use xlink:href="#SVGID_00000181796646080610734050000000597434501546807684_"  style="overflow:visible;"/>
					</clipPath>
					<g style="clip-path:url(#SVGID_00000034064624437837541480000009894059927533406602_);">
						
							<image style="overflow:visible;enable-background:new    ;" width="600" height="600" xlink:href="../../background.jpg"  transform="matrix(0 -0.5157 -0.4986 0 215.9033 352.5895)">
						</image>
					</g>
				</g>
			</g>
		</g>
	</g>
	<path id="SVGID_208_" class="st40" d="M122.3,224.8v-3.9c19.1,0,38.3,0,57.4-0.1c-0.1,0.7-0.3,1.4-0.7,2.2
		c-0.2,0.7-0.5,1.3-0.9,1.7C159.6,224.8,141,224.8,122.3,224.8z"/>
	<g>
		<g>
			<g>
				<path id="SVGID_42_" class="st35" d="M160.1,225c0.2,0,0.5,0,0.9,0.3c0,0,0.1,0.2,0.2,0.3c0.1,0.4-0.1,1-0.2,1
					c0,0-1.1,1-1.6,1.4c-0.5,0.4-1.4,1.2-2.4,2.1c-1.4,0-2.4,0-2.9,0c0,0-2,0-2.1,0s-0.1,0-0.2,0s-0.1,0-0.2,0c0,0,0,0-0.1,0
					c0,0,0,0-0.1,0s0,0,0,0l0,0l0,0l0,0l0,0V230c0-0.1,0-0.1,0-0.1c0-0.1,0-0.2,0-0.4c0-0.4,0-0.4,0-0.5l0,0c0-0.3-0.2-0.4-0.2-0.4
					c-0.1-0.1-0.2-0.1-0.3-0.2c-0.3-0.1-0.7-0.1-1.2-0.1c-0.2,0-0.4,0-0.7,0c0,0-0.5,0-1.7,0c-4,0-4,0-4,0s-4.9-1-8-1.6l0,0l0,0
					c0-1,0-1.1,0-1.4V225l0,0c0.5,0,1.1,0,1.6,0l0,0c0-0.7-0.1-1.2-0.1-1.8c0.7,0.7,1.3,1.3,2,1.8l0,0l0,0l0,0c0.3,0,0.7,0,1,0
					c0-0.7,0-1.3,0-1.8c0.7,0.7,1.3,1.3,2,1.8l0,0c1.5,0,2.5,0,3,0c0.2,0,0.8,0,1.5,0c0.3,0,0.7,0,1.1,0c0.8,0,1.3,0,1.7,0
					c0.7,0,1.3,0,1.8,0h3.8C154.9,224.9,158.8,224.9,160.1,225z"/>
			</g>
		</g>
		<g>
			<g>
				<g>
					<defs>
						<path id="SVGID_00000085220978848331730950000014309068790185645485_" d="M160.1,225c0.2,0,0.5,0,0.9,0.3c0,0,0.1,0.2,0.2,0.3
							c0.1,0.4-0.1,1-0.2,1c0,0-1.1,1-1.6,1.4c-0.5,0.4-1.4,1.2-2.4,2.1c-1.4,0-2.4,0-2.9,0c0,0-2,0-2.1,0s-0.1,0-0.2,0
							s-0.1,0-0.2,0c0,0,0,0-0.1,0c0,0,0,0-0.1,0s0,0,0,0l0,0l0,0l0,0l0,0V230c0-0.1,0-0.1,0-0.1c0-0.1,0-0.2,0-0.4
							c0-0.4,0-0.4,0-0.5l0,0c0-0.3-0.2-0.4-0.2-0.4c-0.1-0.1-0.2-0.1-0.3-0.2c-0.3-0.1-0.7-0.1-1.2-0.1c-0.2,0-0.4,0-0.7,0
							c0,0-0.5,0-1.7,0c-4,0-4,0-4,0s-4.9-1-8-1.6l0,0l0,0c0-1,0-1.1,0-1.4V225l0,0c0.5,0,1.1,0,1.6,0l0,0c0-0.7-0.1-1.2-0.1-1.8
							c0.7,0.7,1.3,1.3,2,1.8l0,0l0,0l0,0c0.3,0,0.7,0,1,0c0-0.7,0-1.3,0-1.8c0.7,0.7,1.3,1.3,2,1.8l0,0c1.5,0,2.5,0,3,0
							c0.2,0,0.8,0,1.5,0c0.3,0,0.7,0,1.1,0c0.8,0,1.3,0,1.7,0c0.7,0,1.3,0,1.8,0h3.8C154.9,224.9,158.8,224.9,160.1,225z"/>
					</defs>
					<clipPath id="SVGID_00000165196587344317392730000011885831042788298168_">
						<use xlink:href="#SVGID_00000085220978848331730950000014309068790185645485_"  style="overflow:visible;"/>
					</clipPath>
				</g>
				<g>
					<defs>
						<path id="SVGID_00000166655436637336819320000014944329136267810745_" d="M160.1,225c0.2,0,0.5,0,0.9,0.3c0,0,0.1,0.2,0.2,0.3
							c0.1,0.4-0.1,1-0.2,1c0,0-1.1,1-1.6,1.4c-0.5,0.4-1.4,1.2-2.4,2.1c-1.4,0-2.4,0-2.9,0c0,0-2,0-2.1,0s-0.1,0-0.2,0
							s-0.1,0-0.2,0c0,0,0,0-0.1,0c0,0,0,0-0.1,0s0,0,0,0l0,0l0,0l0,0l0,0V230c0-0.1,0-0.1,0-0.1c0-0.1,0-0.2,0-0.4
							c0-0.4,0-0.4,0-0.5l0,0c0-0.3-0.2-0.4-0.2-0.4c-0.1-0.1-0.2-0.1-0.3-0.2c-0.3-0.1-0.7-0.1-1.2-0.1c-0.2,0-0.4,0-0.7,0
							c0,0-0.5,0-1.7,0c-4,0-4,0-4,0s-4.9-1-8-1.6l0,0l0,0c0-1,0-1.1,0-1.4V225l0,0c0.5,0,1.1,0,1.6,0l0,0c0-0.7-0.1-1.2-0.1-1.8
							c0.7,0.7,1.3,1.3,2,1.8l0,0l0,0l0,0c0.3,0,0.7,0,1,0c0-0.7,0-1.3,0-1.8c0.7,0.7,1.3,1.3,2,1.8l0,0c1.5,0,2.5,0,3,0
							c0.2,0,0.8,0,1.5,0c0.3,0,0.7,0,1.1,0c0.8,0,1.3,0,1.7,0c0.7,0,1.3,0,1.8,0h3.8C154.9,224.9,158.8,224.9,160.1,225z"/>
					</defs>
					<defs>
						<path id="SVGID_00000010286598010562718530000007088065391516747684_" d="M160.1,225c0.2,0,0.5,0,0.9,0.3c0,0,0.1,0.2,0.2,0.3
							c0.1,0.4-0.1,1-0.2,1c0,0-1.1,1-1.6,1.4c-0.5,0.4-1.4,1.2-2.4,2.1c-1.4,0-2.4,0-2.9,0c0,0-2,0-2.1,0s-0.1,0-0.2,0
							s-0.1,0-0.2,0c0,0,0,0-0.1,0c0,0,0,0-0.1,0s0,0,0,0l0,0l0,0l0,0l0,0V230c0-0.1,0-0.1,0-0.1c0-0.1,0-0.2,0-0.4
							c0-0.4,0-0.4,0-0.5l0,0c0-0.3-0.2-0.4-0.2-0.4c-0.1-0.1-0.2-0.1-0.3-0.2c-0.3-0.1-0.7-0.1-1.2-0.1c-0.2,0-0.4,0-0.7,0
							c0,0-0.5,0-1.7,0c-4,0-4,0-4,0s-4.9-1-8-1.6l0,0l0,0c0-1,0-1.1,0-1.4V225l0,0c0.5,0,1.1,0,1.6,0l0,0c0-0.7-0.1-1.2-0.1-1.8
							c0.7,0.7,1.3,1.3,2,1.8l0,0l0,0l0,0c0.3,0,0.7,0,1,0c0-0.7,0-1.3,0-1.8c0.7,0.7,1.3,1.3,2,1.8l0,0c1.5,0,2.5,0,3,0
							c0.2,0,0.8,0,1.5,0c0.3,0,0.7,0,1.1,0c0.8,0,1.3,0,1.7,0c0.7,0,1.3,0,1.8,0h3.8C154.9,224.9,158.8,224.9,160.1,225z"/>
					</defs>
					<clipPath id="SVGID_00000129179066483884998830000009052955010529012356_">
						<use xlink:href="#SVGID_00000166655436637336819320000014944329136267810745_"  style="overflow:visible;"/>
					</clipPath>
					
						<clipPath id="SVGID_00000008124507205455620160000013903732177558476931_" style="clip-path:url(#SVGID_00000129179066483884998830000009052955010529012356_);">
						<use xlink:href="#SVGID_00000010286598010562718530000007088065391516747684_"  style="overflow:visible;"/>
					</clipPath>
					
						<g transform="matrix(1 0 0 1 0 3.051758e-05)" style="clip-path:url(#SVGID_00000008124507205455620160000013903732177558476931_);">
						
							<image style="overflow:visible;enable-background:new    ;" width="600" height="600" xlink:href="../../background.jpg"  transform="matrix(0 -0.5157 -0.4986 0 207.5573 347.2346)">
						</image>
					</g>
				</g>
			</g>
			<g>
				<path id="SVGID_44_" class="st35" d="M160.1,225c0.2,0,0.5,0,0.9,0.3c0,0,0.1,0.2,0.2,0.3c0.1,0.4-0.1,1-0.2,1
					c0,0-1.1,1-1.6,1.4c-0.5,0.4-1.4,1.2-2.4,2.1c-1.4,0-2.4,0-2.9,0c0,0-2,0-2.1,0s-0.1,0-0.2,0s-0.1,0-0.2,0c0,0,0,0-0.1,0
					c0,0,0,0-0.1,0s0,0,0,0l0,0l0,0l0,0l0,0V230c0-0.1,0-0.1,0-0.1c0-0.1,0-0.2,0-0.4c0-0.4,0-0.4,0-0.5l0,0c0-0.3-0.2-0.4-0.2-0.4
					c-0.1-0.1-0.2-0.1-0.3-0.2c-0.3-0.1-0.7-0.1-1.2-0.1c-0.2,0-0.4,0-0.7,0c0,0-0.5,0-1.7,0c-4,0-4,0-4,0s-4.9-1-8-1.6l0,0l0,0
					c0-1,0-1.1,0-1.4V225l0,0c0.5,0,1.1,0,1.6,0l0,0c0-0.7-0.1-1.2-0.1-1.8c0.7,0.7,1.3,1.3,2,1.8l0,0l0,0l0,0c0.3,0,0.7,0,1,0
					c0-0.7,0-1.3,0-1.8c0.7,0.7,1.3,1.3,2,1.8l0,0c1.5,0,2.5,0,3,0c0.2,0,0.8,0,1.5,0c0.3,0,0.7,0,1.1,0c0.8,0,1.3,0,1.7,0
					c0.7,0,1.3,0,1.8,0h3.8C154.9,224.9,158.8,224.9,160.1,225z"/>
			</g>
			<g>
				<path id="SVGID_45_" class="st35" d="M160.1,225c0.2,0,0.5,0,0.9,0.3c0,0,0.1,0.2,0.2,0.3c0.1,0.4-0.1,1-0.2,1
					c0,0-1.1,1-1.6,1.4c-0.5,0.4-1.4,1.2-2.4,2.1c-1.4,0-2.4,0-2.9,0c0,0-2,0-2.1,0s-0.1,0-0.2,0s-0.1,0-0.2,0c0,0,0,0-0.1,0
					c0,0,0,0-0.1,0s0,0,0,0l0,0l0,0l0,0l0,0V230c0-0.1,0-0.1,0-0.1c0-0.1,0-0.2,0-0.4c0-0.4,0-0.4,0-0.5l0,0c0-0.3-0.2-0.4-0.2-0.4
					c-0.1-0.1-0.2-0.1-0.3-0.2c-0.3-0.1-0.7-0.1-1.2-0.1c-0.2,0-0.4,0-0.7,0c0,0-0.5,0-1.7,0c-4,0-4,0-4,0s-4.9-1-8-1.6l0,0l0,0
					c0-1,0-1.1,0-1.4V225l0,0c0.5,0,1.1,0,1.6,0l0,0c0-0.7-0.1-1.2-0.1-1.8c0.7,0.7,1.3,1.3,2,1.8l0,0l0,0l0,0c0.3,0,0.7,0,1,0
					c0-0.7,0-1.3,0-1.8c0.7,0.7,1.3,1.3,2,1.8l0,0c1.5,0,2.5,0,3,0c0.2,0,0.8,0,1.5,0c0.3,0,0.7,0,1.1,0c0.8,0,1.3,0,1.7,0
					c0.7,0,1.3,0,1.8,0h3.8C154.9,224.9,158.8,224.9,160.1,225z"/>
			</g>
		</g>
		<g>
			<path id="SVGID_207_" class="st35" d="M160.1,225c0.2,0,0.5,0,0.9,0.3c0,0,0.1,0.2,0.2,0.3c0.1,0.4-0.1,1-0.2,1
				c0,0-1.1,1-1.6,1.4c-0.5,0.4-1.4,1.2-2.4,2.1c-1.4,0-2.4,0-2.9,0c0,0-2,0-2.1,0s-0.1,0-0.2,0s-0.1,0-0.2,0c0,0,0,0-0.1,0
				c0,0,0,0-0.1,0s0,0,0,0l0,0l0,0l0,0l0,0V230c0-0.1,0-0.1,0-0.1c0-0.1,0-0.2,0-0.4c0-0.4,0-0.4,0-0.5l0,0c0-0.3-0.2-0.4-0.2-0.4
				c-0.1-0.1-0.2-0.1-0.3-0.2c-0.3-0.1-0.7-0.1-1.2-0.1c-0.2,0-0.4,0-0.7,0c0,0-0.5,0-1.7,0c-4,0-4,0-4,0s-4.9-1-8-1.6l0,0l0,0
				c0-1,0-1.1,0-1.4V225l0,0c0.5,0,1.1,0,1.6,0l0,0c0-0.7-0.1-1.2-0.1-1.8c0.7,0.7,1.3,1.3,2,1.8l0,0l0,0l0,0c0.3,0,0.7,0,1,0
				c0-0.7,0-1.3,0-1.8c0.7,0.7,1.3,1.3,2,1.8l0,0c1.5,0,2.5,0,3,0c0.2,0,0.8,0,1.5,0c0.3,0,0.7,0,1.1,0c0.8,0,1.3,0,1.7,0
				c0.7,0,1.3,0,1.8,0h3.8C154.9,224.9,158.8,224.9,160.1,225z"/>
		</g>
		<g>
			<path id="SVGID_206_" class="st35" d="M160.1,225c0.2,0,0.5,0,0.9,0.3c0,0,0.1,0.2,0.2,0.3c0.1,0.4-0.1,1-0.2,1
				c0,0-1.1,1-1.6,1.4c-0.5,0.4-1.4,1.2-2.4,2.1c-1.4,0-2.4,0-2.9,0c0,0-2,0-2.1,0s-0.1,0-0.2,0s-0.1,0-0.2,0c0,0,0,0-0.1,0
				c0,0,0,0-0.1,0s0,0,0,0l0,0l0,0l0,0l0,0V230c0-0.1,0-0.1,0-0.1c0-0.1,0-0.2,0-0.4c0-0.4,0-0.4,0-0.5l0,0c0-0.3-0.2-0.4-0.2-0.4
				c-0.1-0.1-0.2-0.1-0.3-0.2c-0.3-0.1-0.7-0.1-1.2-0.1c-0.2,0-0.4,0-0.7,0c0,0-0.5,0-1.7,0c-4,0-4,0-4,0s-4.9-1-8-1.6l0,0l0,0
				c0-1,0-1.1,0-1.4V225l0,0c0.5,0,1.1,0,1.6,0l0,0c0-0.7-0.1-1.2-0.1-1.8c0.7,0.7,1.3,1.3,2,1.8l0,0l0,0l0,0c0.3,0,0.7,0,1,0
				c0-0.7,0-1.3,0-1.8c0.7,0.7,1.3,1.3,2,1.8l0,0c1.5,0,2.5,0,3,0c0.2,0,0.8,0,1.5,0c0.3,0,0.7,0,1.1,0c0.8,0,1.3,0,1.7,0
				c0.7,0,1.3,0,1.8,0h3.8C154.9,224.9,158.8,224.9,160.1,225z"/>
		</g>
	</g>
</g>
<linearGradient id="SVGID_00000152247994220653854350000010636878939861382530_" gradientUnits="userSpaceOnUse" x1="107.4784" y1="927.8079" x2="107.4784" y2="927.8079" gradientTransform="matrix(1 0 0 1 0 -718)">
	<stop  offset="0" style="stop-color:#808285"/>
	<stop  offset="0.2039" style="stop-color:#424244"/>
	<stop  offset="0.3035" style="stop-color:#464648"/>
	<stop  offset="0.4018" style="stop-color:#525253"/>
	<stop  offset="0.4888" style="stop-color:#636363"/>
	<stop  offset="0.6229" style="stop-color:#666666"/>
	<stop  offset="0.7905" style="stop-color:#959696"/>
	<stop  offset="0.8351" style="stop-color:#747575"/>
	<stop  offset="0.919" style="stop-color:#919191"/>
	<stop  offset="1" style="stop-color:#676868"/>
</linearGradient>
<path style="fill:url(#SVGID_00000152247994220653854350000010636878939861382530_);" d="M107.5,209.8"/>
<linearGradient id="SVGID_00000167363684415506094110000001928853103960097453_" gradientUnits="userSpaceOnUse" x1="118.5396" y1="149.3828" x2="118.5396" y2="149.3828" gradientTransform="matrix(1 0 0 -1 0 359.9498)">
	<stop  offset="0" style="stop-color:#444444"/>
	<stop  offset="8.100000e-02" style="stop-color:#5B5B5B"/>
	<stop  offset="0.2486" style="stop-color:#3A3A3A"/>
	<stop  offset="0.3205" style="stop-color:#3E3E3E"/>
	<stop  offset="0.3898" style="stop-color:#494949"/>
	<stop  offset="0.458" style="stop-color:#5D5D5D"/>
	<stop  offset="0.4832" style="stop-color:#666666"/>
	<stop  offset="0.6844" style="stop-color:#474747"/>
	<stop  offset="0.8352" style="stop-color:#636363"/>
</linearGradient>
<path style="fill:url(#SVGID_00000167363684415506094110000001928853103960097453_);" d="M118.5,210.6"/>
<path class="st45" d="M88,180.6"/>
<linearGradient id="SVGID_00000036969538376607864220000005055506855677686195_" gradientUnits="userSpaceOnUse" x1="-467.797" y1="1217.994" x2="-467.797" y2="1217.994" gradientTransform="matrix(0 1 1 0 -1160.7249 731.8266)">
	<stop  offset="0" style="stop-color:#444444"/>
	<stop  offset="8.100000e-02" style="stop-color:#5B5B5B"/>
	<stop  offset="0.2486" style="stop-color:#3A3A3A"/>
	<stop  offset="0.3205" style="stop-color:#3E3E3E"/>
	<stop  offset="0.3898" style="stop-color:#494949"/>
	<stop  offset="0.458" style="stop-color:#5D5D5D"/>
	<stop  offset="0.4832" style="stop-color:#666666"/>
	<stop  offset="0.6844" style="stop-color:#474747"/>
	<stop  offset="0.8352" style="stop-color:#636363"/>
</linearGradient>
<path style="fill:url(#SVGID_00000036969538376607864220000005055506855677686195_);" d="M57.3,264"/>
<path class="st47" d="M110.9,192.3H69.6c-2,0.2-7.9,1.2-13.1,6.1c-5.9,5.4-6.8,12.3-7,14.1v37.4c0,0,0,36.9,0,45.8
	c0,2.3,0,12,0,19.3h28.2c0-21.4,0-42.8,0-64.2c0-6.9,0-20.8,0-20.8c0-3.1,0-6.2,0-9.3c10.7,0,21.6,0,32.3,0c23.2,0,46.3,0,69.5,0
	c0.2-1,0.5-2.7,0.7-4.9c0.2-6.4-2.3-9.4-3-16.6c-0.1-1.4-0.3-3.7-0.1-6.6C155.1,192.3,133.1,192.3,110.9,192.3z"/>
<linearGradient id="SVGID_00000038391370513026800580000005312944679472005527_" gradientUnits="userSpaceOnUse" x1="966.0571" y1="73.3282" x2="966.0571" y2="101.6319" gradientTransform="matrix(0 1 1 0 -23.8037 -702.2986)">
	<stop  offset="0" style="stop-color:#424242"/>
	<stop  offset="0.1068" style="stop-color:#333333"/>
	<stop  offset="0.2055" style="stop-color:#2D2D2D"/>
	<stop  offset="0.3492" style="stop-color:#424244"/>
	<stop  offset="0.6732" style="stop-color:#7F7F7F"/>
	<stop  offset="0.9078" style="stop-color:#414042"/>
</linearGradient>
<path style="fill:url(#SVGID_00000038391370513026800580000005312944679472005527_);" d="M49.6,314.9c0-34.1,0-68.2,0-102.3
	c9.4,2.7,18.9,5.4,28.3,8.1c0,31.3-0.1,62.8-0.1,94.1H49.6z"/>
<linearGradient id="SVGID_00000113322633447065505770000009601711862463099316_" gradientUnits="userSpaceOnUse" x1="124.9046" y1="170.8384" x2="124.9046" y2="197.4674" gradientTransform="matrix(1 0 0 -1 0 392)">
	<stop  offset="0" style="stop-color:#424242"/>
	<stop  offset="0.1068" style="stop-color:#333333"/>
	<stop  offset="0.2055" style="stop-color:#2D2D2D"/>
	<stop  offset="0.3492" style="stop-color:#424244"/>
	<stop  offset="0.6732" style="stop-color:#7F7F7F"/>
	<stop  offset="0.9078" style="stop-color:#414042"/>
</linearGradient>
<path style="fill:url(#SVGID_00000113322633447065505770000009601711862463099316_);" d="M176.6,199.1c-0.2-1.4-0.3-3.8-0.1-6.6
	c-27,0-54.1-0.1-81.1-0.1c-8.6,0.1-17.1,0.1-25.7,0.2c2.7,9.4,5.4,18.9,8.1,28.3c5.5,0,11.1,0,16.5,0c28.4,0,56.8,0,85.1,0
	c0.3-1,0.8-2.8,0.8-5C180.6,209.4,177.5,206.3,176.6,199.1z"/>
<linearGradient id="SVGID_00000023274332826707964960000001732489886177215896_" gradientUnits="userSpaceOnUse" x1="95.622" y1="156.118" x2="65.2735" y2="186.9765" gradientTransform="matrix(1 0 0 -1 0 392)">
	<stop  offset="0" style="stop-color:#4D4D4D;stop-opacity:0"/>
	<stop  offset="9.835356e-02" style="stop-color:#4D4D4D;stop-opacity:9.835356e-02"/>
	<stop  offset="1" style="stop-color:#4D4D4D"/>
</linearGradient>
<path style="fill:url(#SVGID_00000023274332826707964960000001732489886177215896_);" d="M110.9,192.3H69.6c-2,0.2-7.9,1.2-13.1,6.1
	c-5.9,5.4-6.8,12.3-7,14.1v37.4c0,0,0,36.9,0,45.8c0,2.3,0,12,0,19.3h28.2c0-21.4,0-42.8,0-64.2c0-6.9,0-20.8,0-20.8
	c0-3.1,0-6.2,0-9.3c10.7,0,21.6,0,32.3,0c23.2,0,46.3,0,69.5,0c0.2-1,0.5-2.7,0.7-4.9c0.2-6.4-2.3-9.4-3-16.6
	c-0.1-1.4-0.3-3.7-0.1-6.6C155.1,192.3,133.1,192.3,110.9,192.3z"/>
<g>
	<path class="st51" d="M45.3,282.4c0-0.2,0-0.5-0.3-0.9c0,0-0.2-0.1-0.3-0.2c-0.4-0.1-0.9,0.1-1,0.2c0,0-0.9,1.1-1.4,1.6
		c-0.4,0.5-1.2,1.3-2.1,2.4c0,1.4,0,2.3,0,2.9c0,0,0,2,0,2.1s0,0.1,0,0.2c0,0.1,0,0.1,0,0.2c0,0,0,0,0,0.1c0,0,0,0,0,0.1l0,0l0,0
		l0,0l0,0l0,0h0.1c0.1,0,0.1,0,0.1,0c0.1,0,0.2,0,0.4,0c0.4,0,0.4,0,0.5,0l0,0c0.3,0,0.4,0.2,0.4,0.2c0.1,0.1,0.1,0.2,0.2,0.3
		c0.1,0.3,0.1,0.7,0.1,1.2c0,0.2,0,0.4,0,0.7c0,0,0,0.5,0,1.6c0,4,0,4,0,4s1,4.9,1.6,8.1l0,0l0,0c1,0,1.1,0,1.3,0h0.1l0,0
		c0-0.5,0-1.1,0-1.6l0,0c0.7,0,1.2,0.1,1.8,0.1c-0.7-0.7-1.2-1.3-1.8-2l0,0l0,0l0,0c0-0.3,0-0.7,0-1c0.7,0,1.2,0,1.8,0
		c-0.7-0.7-1.2-1.3-1.8-2l0,0c0-1.4,0-2.4,0-3.1c0-0.2,0-0.8,0-1.5c0-0.3,0-0.7,0-1.1c0-0.8,0-1.3,0-1.7c0-0.7,0-1.2,0-1.8v-3.8
		C45.4,287.7,45.4,283.7,45.3,282.4z"/>
	<path class="st51" d="M45.3,282.4c0-0.2,0-0.5-0.3-0.9c0,0-0.2-0.1-0.3-0.2c-0.4-0.1-0.9,0.1-1,0.2c0,0-0.9,1.1-1.4,1.6
		c-0.4,0.5-1.2,1.3-2.1,2.4c0,1.4,0,2.3,0,2.9c0,0,0,2,0,2.1s0,0.1,0,0.2c0,0.1,0,0.1,0,0.2c0,0,0,0,0,0.1c0,0,0,0,0,0.1l0,0l0,0
		l0,0l0,0l0,0h0.1c0.1,0,0.1,0,0.1,0c0.1,0,0.2,0,0.4,0c0.4,0,0.4,0,0.5,0l0,0c0.3,0,0.4,0.2,0.4,0.2c0.1,0.1,0.1,0.2,0.2,0.3
		c0.1,0.3,0.1,0.7,0.1,1.2c0,0.2,0,0.4,0,0.7c0,0,0,0.5,0,1.6c0,4,0,4,0,4s1,4.9,1.6,8.1l0,0l0,0c1,0,1.1,0,1.3,0h0.1l0,0
		c0-0.5,0-1.1,0-1.6l0,0c0.7,0,1.2,0.1,1.8,0.1c-0.7-0.7-1.2-1.3-1.8-2l0,0l0,0l0,0c0-0.3,0-0.7,0-1c0.7,0,1.2,0,1.8,0
		c-0.7-0.7-1.2-1.3-1.8-2l0,0c0-1.4,0-2.4,0-3.1c0-0.2,0-0.8,0-1.5c0-0.3,0-0.7,0-1.1c0-0.8,0-1.3,0-1.7c0-0.7,0-1.2,0-1.8v-3.8
		C45.4,287.7,45.4,283.7,45.3,282.4z"/>
	<path class="st51" d="M45.3,282.4c0-0.2,0-0.5-0.3-0.9c0,0-0.2-0.1-0.3-0.2c-0.4-0.1-0.9,0.1-1,0.2c0,0-0.9,1.1-1.4,1.6
		c-0.4,0.5-1.2,1.3-2.1,2.4c0,1.4,0,2.3,0,2.9c0,0,0,2,0,2.1s0,0.1,0,0.2c0,0.1,0,0.1,0,0.2c0,0,0,0,0,0.1c0,0,0,0,0,0.1l0,0l0,0
		l0,0l0,0l0,0h0.1c0.1,0,0.1,0,0.1,0c0.1,0,0.2,0,0.4,0c0.4,0,0.4,0,0.5,0l0,0c0.3,0,0.4,0.2,0.4,0.2c0.1,0.1,0.1,0.2,0.2,0.3
		c0.1,0.3,0.1,0.7,0.1,1.2c0,0.2,0,0.4,0,0.7c0,0,0,0.5,0,1.6c0,4,0,4,0,4s1,4.9,1.6,8.1l0,0l0,0c1,0,1.1,0,1.3,0h0.1l0,0
		c0-0.5,0-1.1,0-1.6l0,0c0.7,0,1.2,0.1,1.8,0.1c-0.7-0.7-1.2-1.3-1.8-2l0,0l0,0l0,0c0-0.3,0-0.7,0-1c0.7,0,1.2,0,1.8,0
		c-0.7-0.7-1.2-1.3-1.8-2l0,0c0-1.4,0-2.4,0-3.1c0-0.2,0-0.8,0-1.5c0-0.3,0-0.7,0-1.1c0-0.8,0-1.3,0-1.7c0-0.7,0-1.2,0-1.8v-3.8
		C45.4,287.7,45.4,283.7,45.3,282.4z"/>
</g>
<path id="SVGID_177_" class="st52" d="M45.3,282.4c0-0.2,0-0.5-0.3-0.9c0,0-0.2-0.1-0.3-0.2c-0.4-0.1-0.9,0.1-1,0.2
	c0,0-0.9,1.1-1.4,1.6c-0.4,0.5-1.2,1.3-2.1,2.4c0,1.4,0,2.3,0,2.9c0,0,0,2,0,2.1s0,0.1,0,0.2c0,0.1,0,0.1,0,0.2c0,0,0,0,0,0.1
	c0,0,0,0,0,0.1l0,0l0,0l0,0l0,0l0,0h0.1c0.1,0,0.1,0,0.1,0c0.1,0,0.2,0,0.4,0c0.4,0,0.4,0,0.5,0l0,0c0.3,0,0.4,0.2,0.4,0.2
	c0.1,0.1,0.1,0.2,0.2,0.3c0.1,0.3,0.1,0.7,0.1,1.2c0,0.2,0,0.4,0,0.7c0,0,0,0.5,0,1.6c0,4,0,4,0,4s1,4.9,1.6,8.1l0,0l0,0
	c1,0,1.1,0,1.3,0h0.1l0,0c0-0.5,0-1.1,0-1.6l0,0c0.7,0,1.2,0.1,1.8,0.1c-0.7-0.7-1.2-1.3-1.8-2l0,0l0,0l0,0c0-0.3,0-0.7,0-1
	c0.7,0,1.2,0,1.8,0c-0.7-0.7-1.2-1.3-1.8-2l0,0c0-1.4,0-2.4,0-3.1c0-0.2,0-0.8,0-1.5c0-0.3,0-0.7,0-1.1c0-0.8,0-1.3,0-1.7
	c0-0.7,0-1.2,0-1.8v-3.8C45.4,287.7,45.4,283.7,45.3,282.4z"/>
<g>
	<g>
		<g>
			<defs>
				<path id="SVGID_00000093881849870118326040000010911910969029942958_" d="M45.3,282.4c0-0.2,0-0.5-0.3-0.9c0,0-0.2-0.1-0.3-0.2
					c-0.4-0.1-0.9,0.1-1,0.2c0,0-0.9,1.1-1.4,1.6c-0.4,0.5-1.2,1.3-2.1,2.4c0,1.4,0,2.3,0,2.9c0,0,0,2,0,2.1s0,0.1,0,0.2
					c0,0.1,0,0.1,0,0.2c0,0,0,0,0,0.1c0,0,0,0,0,0.1l0,0l0,0l0,0l0,0l0,0h0.1c0.1,0,0.1,0,0.1,0c0.1,0,0.2,0,0.4,0
					c0.4,0,0.4,0,0.5,0l0,0c0.3,0,0.4,0.2,0.4,0.2c0.1,0.1,0.1,0.2,0.2,0.3c0.1,0.3,0.1,0.7,0.1,1.2c0,0.2,0,0.4,0,0.7
					c0,0,0,0.5,0,1.6c0,4,0,4,0,4s1,4.9,1.6,8.1l0,0l0,0c1,0,1.1,0,1.3,0h0.1l0,0c0-0.5,0-1.1,0-1.6l0,0c0.7,0,1.2,0.1,1.8,0.1
					c-0.7-0.7-1.2-1.3-1.8-2l0,0l0,0l0,0c0-0.3,0-0.7,0-1c0.7,0,1.2,0,1.8,0c-0.7-0.7-1.2-1.3-1.8-2l0,0c0-1.4,0-2.4,0-3.1
					c0-0.2,0-0.8,0-1.5c0-0.3,0-0.7,0-1.1c0-0.8,0-1.3,0-1.7c0-0.7,0-1.2,0-1.8v-3.8C45.4,287.7,45.4,283.7,45.3,282.4z"/>
			</defs>
			<clipPath id="SVGID_00000116204321286706269370000010804866464726000000_">
				<use xlink:href="#SVGID_00000093881849870118326040000010911910969029942958_"  style="overflow:visible;"/>
			</clipPath>
			<g transform="matrix(1 0 0 1 0 0)" style="clip-path:url(#SVGID_00000116204321286706269370000010804866464726000000_);">
				
					<image style="overflow:visible;enable-background:new    ;" width="600" height="600" xlink:href="../../background.jpg"  transform="matrix(0.1872 0 0 0.1872 1.0989 230.9025)">
				</image>
			</g>
		</g>
	</g>
	<g>
		<path id="SVGID_176_" class="st35" d="M45.3,282.4c0-0.2,0-0.5-0.3-0.9c0,0-0.2-0.1-0.3-0.2c-0.4-0.1-0.9,0.1-1,0.2
			c0,0-0.9,1.1-1.4,1.6c-0.4,0.5-1.2,1.3-2.1,2.4c0,1.4,0,2.3,0,2.9c0,0,0,2,0,2.1s0,0.1,0,0.2c0,0.1,0,0.1,0,0.2c0,0,0,0,0,0.1
			c0,0,0,0,0,0.1l0,0l0,0l0,0l0,0l0,0h0.1c0.1,0,0.1,0,0.1,0c0.1,0,0.2,0,0.4,0c0.4,0,0.4,0,0.5,0l0,0c0.3,0,0.4,0.2,0.4,0.2
			c0.1,0.1,0.1,0.2,0.2,0.3c0.1,0.3,0.1,0.7,0.1,1.2c0,0.2,0,0.4,0,0.7c0,0,0,0.5,0,1.6c0,4,0,4,0,4s1,4.9,1.6,8.1l0,0l0,0
			c1,0,1.1,0,1.3,0h0.1l0,0c0-0.5,0-1.1,0-1.6l0,0c0.7,0,1.2,0.1,1.8,0.1c-0.7-0.7-1.2-1.3-1.8-2l0,0l0,0l0,0c0-0.3,0-0.7,0-1
			c0.7,0,1.2,0,1.8,0c-0.7-0.7-1.2-1.3-1.8-2l0,0c0-1.4,0-2.4,0-3.1c0-0.2,0-0.8,0-1.5c0-0.3,0-0.7,0-1.1c0-0.8,0-1.3,0-1.7
			c0-0.7,0-1.2,0-1.8v-3.8C45.4,287.7,45.4,283.7,45.3,282.4z"/>
	</g>
</g>
<g>
	<g>
		<g>
			<path id="SVGID_173_" class="st52" d="M81.7,282.4c0-0.2,0-0.5,0.3-0.9c0,0,0.2-0.1,0.3-0.2c0.4-0.1,0.9,0.1,1,0.2
				c0,0,0.9,1.1,1.4,1.6c0.4,0.5,1.2,1.3,2.1,2.4c0,1.4,0,2.3,0,2.9c0,0,0,2,0,2.1s0,0.1,0,0.2c0,0.1,0,0.1,0,0.2c0,0,0,0,0,0.1
				c0,0,0,0,0,0.1l0,0l0,0l0,0l0,0l0,0h-0.1c-0.1,0-0.1,0-0.1,0c-0.1,0-0.2,0-0.4,0c-0.4,0-0.4,0-0.5,0l0,0c-0.3,0-0.4,0.2-0.4,0.2
				c-0.1,0.1-0.1,0.2-0.2,0.3c-0.1,0.3-0.1,0.7-0.1,1.2c0,0.2,0,0.4,0,0.7c0,0,0,0.5,0,1.6c0,4,0,4,0,4s-1,4.9-1.6,8.1l0,0l0,0
				c-1,0-1.1,0-1.3,0h-0.1l0,0c0-0.5,0-1.1,0-1.6l0,0c-0.7,0-1.2,0.1-1.8,0.1c0.7-0.7,1.2-1.3,1.8-2l0,0l0,0l0,0c0-0.3,0-0.7,0-1
				c-0.7,0-1.2,0-1.8,0c0.7-0.7,1.2-1.3,1.8-2l0,0c0-1.4,0-2.4,0-3.1c0-0.2,0-0.8,0-1.5c0-0.3,0-0.7,0-1.1c0-0.8,0-1.3,0-1.7
				c0-0.7,0-1.2,0-1.8v-3.8C81.5,287.7,81.5,283.9,81.7,282.4z"/>
		</g>
	</g>
	<g>
		<path class="st51" d="M81.7,282.4c0-0.2,0-0.5,0.3-0.9c0,0,0.2-0.1,0.3-0.2c0.4-0.1,0.9,0.1,1,0.2c0,0,0.9,1.1,1.4,1.6
			c0.4,0.5,1.2,1.3,2.1,2.4c0,1.4,0,2.3,0,2.9c0,0,0,2,0,2.1s0,0.1,0,0.2c0,0.1,0,0.1,0,0.2c0,0,0,0,0,0.1c0,0,0,0,0,0.1l0,0l0,0
			l0,0l0,0l0,0h-0.1c-0.1,0-0.1,0-0.1,0c-0.1,0-0.2,0-0.4,0c-0.4,0-0.4,0-0.5,0l0,0c-0.3,0-0.4,0.2-0.4,0.2
			c-0.1,0.1-0.1,0.2-0.2,0.3c-0.1,0.3-0.1,0.7-0.1,1.2c0,0.2,0,0.4,0,0.7c0,0,0,0.5,0,1.6c0,4,0,4,0,4s-1,4.9-1.6,8.1l0,0l0,0
			c-1,0-1.1,0-1.3,0h-0.1l0,0c0-0.5,0-1.1,0-1.6l0,0c-0.7,0-1.2,0.1-1.8,0.1c0.7-0.7,1.2-1.3,1.8-2l0,0l0,0l0,0c0-0.3,0-0.7,0-1
			c-0.7,0-1.2,0-1.8,0c0.7-0.7,1.2-1.3,1.8-2l0,0c0-1.4,0-2.4,0-3.1c0-0.2,0-0.8,0-1.5c0-0.3,0-0.7,0-1.1c0-0.8,0-1.3,0-1.7
			c0-0.7,0-1.2,0-1.8v-3.8C81.5,287.7,81.5,283.9,81.7,282.4z"/>
		<path class="st51" d="M81.7,282.4c0-0.2,0-0.5,0.3-0.9c0,0,0.2-0.1,0.3-0.2c0.4-0.1,0.9,0.1,1,0.2c0,0,0.9,1.1,1.4,1.6
			c0.4,0.5,1.2,1.3,2.1,2.4c0,1.4,0,2.3,0,2.9c0,0,0,2,0,2.1s0,0.1,0,0.2c0,0.1,0,0.1,0,0.2c0,0,0,0,0,0.1c0,0,0,0,0,0.1l0,0l0,0
			l0,0l0,0l0,0h-0.1c-0.1,0-0.1,0-0.1,0c-0.1,0-0.2,0-0.4,0c-0.4,0-0.4,0-0.5,0l0,0c-0.3,0-0.4,0.2-0.4,0.2
			c-0.1,0.1-0.1,0.2-0.2,0.3c-0.1,0.3-0.1,0.7-0.1,1.2c0,0.2,0,0.4,0,0.7c0,0,0,0.5,0,1.6c0,4,0,4,0,4s-1,4.9-1.6,8.1l0,0l0,0
			c-1,0-1.1,0-1.3,0h-0.1l0,0c0-0.5,0-1.1,0-1.6l0,0c-0.7,0-1.2,0.1-1.8,0.1c0.7-0.7,1.2-1.3,1.8-2l0,0l0,0l0,0c0-0.3,0-0.7,0-1
			c-0.7,0-1.2,0-1.8,0c0.7-0.7,1.2-1.3,1.8-2l0,0c0-1.4,0-2.4,0-3.1c0-0.2,0-0.8,0-1.5c0-0.3,0-0.7,0-1.1c0-0.8,0-1.3,0-1.7
			c0-0.7,0-1.2,0-1.8v-3.8C81.5,287.7,81.5,283.9,81.7,282.4z"/>
		<path class="st51" d="M81.7,282.4c0-0.2,0-0.5,0.3-0.9c0,0,0.2-0.1,0.3-0.2c0.4-0.1,0.9,0.1,1,0.2c0,0,0.9,1.1,1.4,1.6
			c0.4,0.5,1.2,1.3,2.1,2.4c0,1.4,0,2.3,0,2.9c0,0,0,2,0,2.1s0,0.1,0,0.2c0,0.1,0,0.1,0,0.2c0,0,0,0,0,0.1c0,0,0,0,0,0.1l0,0l0,0
			l0,0l0,0l0,0h-0.1c-0.1,0-0.1,0-0.1,0c-0.1,0-0.2,0-0.4,0c-0.4,0-0.4,0-0.5,0l0,0c-0.3,0-0.4,0.2-0.4,0.2
			c-0.1,0.1-0.1,0.2-0.2,0.3c-0.1,0.3-0.1,0.7-0.1,1.2c0,0.2,0,0.4,0,0.7c0,0,0,0.5,0,1.6c0,4,0,4,0,4s-1,4.9-1.6,8.1l0,0l0,0
			c-1,0-1.1,0-1.3,0h-0.1l0,0c0-0.5,0-1.1,0-1.6l0,0c-0.7,0-1.2,0.1-1.8,0.1c0.7-0.7,1.2-1.3,1.8-2l0,0l0,0l0,0c0-0.3,0-0.7,0-1
			c-0.7,0-1.2,0-1.8,0c0.7-0.7,1.2-1.3,1.8-2l0,0c0-1.4,0-2.4,0-3.1c0-0.2,0-0.8,0-1.5c0-0.3,0-0.7,0-1.1c0-0.8,0-1.3,0-1.7
			c0-0.7,0-1.2,0-1.8v-3.8C81.5,287.7,81.5,283.9,81.7,282.4z"/>
		<g>
			<path id="SVGID_172_" class="st52" d="M81.7,282.4c0-0.2,0-0.5,0.3-0.9c0,0,0.2-0.1,0.3-0.2c0.4-0.1,0.9,0.1,1,0.2
				c0,0,0.9,1.1,1.4,1.6c0.4,0.5,1.2,1.3,2.1,2.4c0,1.4,0,2.3,0,2.9c0,0,0,2,0,2.1s0,0.1,0,0.2c0,0.1,0,0.1,0,0.2c0,0,0,0,0,0.1
				c0,0,0,0,0,0.1l0,0l0,0l0,0l0,0l0,0h-0.1c-0.1,0-0.1,0-0.1,0c-0.1,0-0.2,0-0.4,0c-0.4,0-0.4,0-0.5,0l0,0c-0.3,0-0.4,0.2-0.4,0.2
				c-0.1,0.1-0.1,0.2-0.2,0.3c-0.1,0.3-0.1,0.7-0.1,1.2c0,0.2,0,0.4,0,0.7c0,0,0,0.5,0,1.6c0,4,0,4,0,4s-1,4.9-1.6,8.1l0,0l0,0
				c-1,0-1.1,0-1.3,0h-0.1l0,0c0-0.5,0-1.1,0-1.6l0,0c-0.7,0-1.2,0.1-1.8,0.1c0.7-0.7,1.2-1.3,1.8-2l0,0l0,0l0,0c0-0.3,0-0.7,0-1
				c-0.7,0-1.2,0-1.8,0c0.7-0.7,1.2-1.3,1.8-2l0,0c0-1.4,0-2.4,0-3.1c0-0.2,0-0.8,0-1.5c0-0.3,0-0.7,0-1.1c0-0.8,0-1.3,0-1.7
				c0-0.7,0-1.2,0-1.8v-3.8C81.5,287.7,81.5,283.9,81.7,282.4z"/>
		</g>
		<g>
			<path id="SVGID_171_" class="st52" d="M81.7,282.4c0-0.2,0-0.5,0.3-0.9c0,0,0.2-0.1,0.3-0.2c0.4-0.1,0.9,0.1,1,0.2
				c0,0,0.9,1.1,1.4,1.6c0.4,0.5,1.2,1.3,2.1,2.4c0,1.4,0,2.3,0,2.9c0,0,0,2,0,2.1s0,0.1,0,0.2c0,0.1,0,0.1,0,0.2c0,0,0,0,0,0.1
				c0,0,0,0,0,0.1l0,0l0,0l0,0l0,0l0,0h-0.1c-0.1,0-0.1,0-0.1,0c-0.1,0-0.2,0-0.4,0c-0.4,0-0.4,0-0.5,0l0,0c-0.3,0-0.4,0.2-0.4,0.2
				c-0.1,0.1-0.1,0.2-0.2,0.3c-0.1,0.3-0.1,0.7-0.1,1.2c0,0.2,0,0.4,0,0.7c0,0,0,0.5,0,1.6c0,4,0,4,0,4s-1,4.9-1.6,8.1l0,0l0,0
				c-1,0-1.1,0-1.3,0h-0.1l0,0c0-0.5,0-1.1,0-1.6l0,0c-0.7,0-1.2,0.1-1.8,0.1c0.7-0.7,1.2-1.3,1.8-2l0,0l0,0l0,0c0-0.3,0-0.7,0-1
				c-0.7,0-1.2,0-1.8,0c0.7-0.7,1.2-1.3,1.8-2l0,0c0-1.4,0-2.4,0-3.1c0-0.2,0-0.8,0-1.5c0-0.3,0-0.7,0-1.1c0-0.8,0-1.3,0-1.7
				c0-0.7,0-1.2,0-1.8v-3.8C81.5,287.7,81.5,283.9,81.7,282.4z"/>
		</g>
	</g>
</g>
<g>
	<path id="SVGID_170_" class="st52" d="M81.7,282.4c0-0.2,0-0.5,0.3-0.9c0,0,0.2-0.1,0.3-0.2c0.4-0.1,0.9,0.1,1,0.2
		c0,0,0.9,1.1,1.4,1.6c0.4,0.5,1.2,1.3,2.1,2.4c0,1.4,0,2.3,0,2.9c0,0,0,2,0,2.1s0,0.1,0,0.2c0,0.1,0,0.1,0,0.2c0,0,0,0,0,0.1
		c0,0,0,0,0,0.1l0,0l0,0l0,0l0,0l0,0h-0.1c-0.1,0-0.1,0-0.1,0c-0.1,0-0.2,0-0.4,0c-0.4,0-0.4,0-0.5,0l0,0c-0.3,0-0.4,0.2-0.4,0.2
		c-0.1,0.1-0.1,0.2-0.2,0.3c-0.1,0.3-0.1,0.7-0.1,1.2c0,0.2,0,0.4,0,0.7c0,0,0,0.5,0,1.6c0,4,0,4,0,4s-1,4.9-1.6,8.1l0,0l0,0
		c-1,0-1.1,0-1.3,0h-0.1l0,0c0-0.5,0-1.1,0-1.6l0,0c-0.7,0-1.2,0.1-1.8,0.1c0.7-0.7,1.2-1.3,1.8-2l0,0l0,0l0,0c0-0.3,0-0.7,0-1
		c-0.7,0-1.2,0-1.8,0c0.7-0.7,1.2-1.3,1.8-2l0,0c0-1.4,0-2.4,0-3.1c0-0.2,0-0.8,0-1.5c0-0.3,0-0.7,0-1.1c0-0.8,0-1.3,0-1.7
		c0-0.7,0-1.2,0-1.8v-3.8C81.5,287.7,81.5,283.9,81.7,282.4z"/>
</g>
<g>
	<g>
		<g>
			<defs>
				<path id="SVGID_00000109021485835546890040000014762458552568666769_" d="M81.7,282.4c0-0.2,0-0.5,0.3-0.9c0,0,0.2-0.1,0.3-0.2
					c0.4-0.1,0.9,0.1,1,0.2c0,0,0.9,1.1,1.4,1.6c0.4,0.5,1.2,1.3,2.1,2.4c0,1.4,0,2.3,0,2.9c0,0,0,2,0,2.1s0,0.1,0,0.2
					c0,0.1,0,0.1,0,0.2c0,0,0,0,0,0.1c0,0,0,0,0,0.1l0,0l0,0l0,0l0,0l0,0h-0.1c-0.1,0-0.1,0-0.1,0c-0.1,0-0.2,0-0.4,0
					c-0.4,0-0.4,0-0.5,0l0,0c-0.3,0-0.4,0.2-0.4,0.2c-0.1,0.1-0.1,0.2-0.2,0.3c-0.1,0.3-0.1,0.7-0.1,1.2c0,0.2,0,0.4,0,0.7
					c0,0,0,0.5,0,1.6c0,4,0,4,0,4s-1,4.9-1.6,8.1l0,0l0,0c-1,0-1.1,0-1.3,0h-0.1l0,0c0-0.5,0-1.1,0-1.6l0,0c-0.7,0-1.2,0.1-1.8,0.1
					c0.7-0.7,1.2-1.3,1.8-2l0,0l0,0l0,0c0-0.3,0-0.7,0-1c-0.7,0-1.2,0-1.8,0c0.7-0.7,1.2-1.3,1.8-2l0,0c0-1.4,0-2.4,0-3.1
					c0-0.2,0-0.8,0-1.5c0-0.3,0-0.7,0-1.1c0-0.8,0-1.3,0-1.7c0-0.7,0-1.2,0-1.8v-3.8C81.5,287.7,81.5,283.9,81.7,282.4z"/>
			</defs>
			<clipPath id="SVGID_00000062894019183713113420000011406268311797819271_">
				<use xlink:href="#SVGID_00000109021485835546890040000014762458552568666769_"  style="overflow:visible;"/>
			</clipPath>
			<g transform="matrix(1 0 0 1 0 0)" style="clip-path:url(#SVGID_00000062894019183713113420000011406268311797819271_);">
				
					<image style="overflow:visible;enable-background:new    ;" width="600" height="600" xlink:href="../../background.jpg"  transform="matrix(0.1872 0 0 0.1872 5.1851 233.3943)">
				</image>
			</g>
		</g>
	</g>
	<g>
		<path id="SVGID_169_" class="st35" d="M81.7,282.4c0-0.2,0-0.5,0.3-0.9c0,0,0.2-0.1,0.3-0.2c0.4-0.1,0.9,0.1,1,0.2
			c0,0,0.9,1.1,1.4,1.6c0.4,0.5,1.2,1.3,2.1,2.4c0,1.4,0,2.3,0,2.9c0,0,0,2,0,2.1s0,0.1,0,0.2c0,0.1,0,0.1,0,0.2c0,0,0,0,0,0.1
			c0,0,0,0,0,0.1l0,0l0,0l0,0l0,0l0,0h-0.1c-0.1,0-0.1,0-0.1,0c-0.1,0-0.2,0-0.4,0c-0.4,0-0.4,0-0.5,0l0,0c-0.3,0-0.4,0.2-0.4,0.2
			c-0.1,0.1-0.1,0.2-0.2,0.3c-0.1,0.3-0.1,0.7-0.1,1.2c0,0.2,0,0.4,0,0.7c0,0,0,0.5,0,1.6c0,4,0,4,0,4s-1,4.9-1.6,8.1l0,0l0,0
			c-1,0-1.1,0-1.3,0h-0.1l0,0c0-0.5,0-1.1,0-1.6l0,0c-0.7,0-1.2,0.1-1.8,0.1c0.7-0.7,1.2-1.3,1.8-2l0,0l0,0l0,0c0-0.3,0-0.7,0-1
			c-0.7,0-1.2,0-1.8,0c0.7-0.7,1.2-1.3,1.8-2l0,0c0-1.4,0-2.4,0-3.1c0-0.2,0-0.8,0-1.5c0-0.3,0-0.7,0-1.1c0-0.8,0-1.3,0-1.7
			c0-0.7,0-1.2,0-1.8v-3.8C81.5,287.7,81.5,283.9,81.7,282.4z"/>
	</g>
</g>
<image style="overflow:visible;" width="200" height="200" xlink:href="../../pepsi.png"  transform="matrix(8.190928e-02 0 0 8.190928e-02 58.9719 43.874)">
</image>
</svg>
