<?xml version="1.0" encoding="utf-8"?>
<!-- Generator: Adobe Illustrator 25.4.1, SVG Export Plug-In . SVG Version: 6.00 Build 0)  -->
<svg version="1.1" id="Слой_1" xmlns="http://www.w3.org/2000/svg" xmlns:xlink="http://www.w3.org/1999/xlink" x="0px" y="0px"
	 viewBox="0 0 200 320" style="enable-background:new 0 0 200 320;" xml:space="preserve">
<style type="text/css">
	.st0{fill:#515051;}
	.st1{fill:#D6D7D7;}
	.st2{fill:#AAAAAA;}
	.st3{fill:url(#SVGID_00000101785151433077423440000003637151276472489862_);}
	.st4{fill:url(#SVGID_00000139973476327764499200000002476005941814407819_);}
	.st5{fill:#4D4E50;}
	.st6{clip-path:url(#SVGID_00000104694742303000653070000016259508603018608300_);}
	.st7{fill:none;stroke:#CCCCCC;stroke-width:2;stroke-miterlimit:10;}
	.st8{fill:url(#SVGID_00000076579261535906570800000006643494322320897959_);}
	.st9{fill:url(#SVGID_00000072963640760887893050000004056767361501740735_);}
	.st10{fill:url(#SVGID_00000060742609477093465820000004254535575526301077_);}
	.st11{fill:url(#SVGID_00000095320660364254252470000003542562601326704823_);}
	.st12{fill:url(#SVGID_00000070109675548300630330000005083282566594668161_);}
	.st13{fill:url(#SVGID_00000125564634281072294760000010551676748307899057_);}
	.st14{fill:url(#SVGID_00000057141741981004222260000013129473886496893866_);}
	.st15{opacity:0.25;enable-background:new    ;}
	.st16{fill:url(#SVGID_00000029007623217073450940000005983603868639076534_);}
	.st17{fill:url(#SVGID_00000040543280513183937960000011536092984501107120_);}
	.st18{fill:url(#SVGID_00000063591500010659559280000011114997498937759375_);}
	.st19{fill:url(#SVGID_00000147206009451578601100000016017830789171807934_);}
	.st20{fill:url(#SVGID_00000126284811833790252960000006105795620007954561_);}
	.st21{fill:url(#SVGID_00000163770321430080510640000015318326134021857449_);}
	.st22{fill:url(#SVGID_00000007400928715117063050000006459108714451525788_);}
	.st23{fill:url(#SVGID_00000008111843020245441850000002955618950008580227_);}
	.st24{fill:url(#SVGID_00000075160801049721532360000006983562943780576444_);}
	.st25{fill:url(#SVGID_00000080196340091865243100000000516556646597632392_);}
	.st26{fill:url(#SVGID_00000112618923591925416460000000645086175657585597_);}
	.st27{fill:url(#SVGID_00000108987160235412845550000004510608481013880968_);}
	.st28{fill:url(#SVGID_00000116955293307583238740000015090409129521750967_);}
	.st29{opacity:0.29;fill:url(#SVGID_00000026851957968539581030000000071180510925545397_);enable-background:new    ;}
</style>
<rect x="76.6" y="96.8" class="st0" width="4.3" height="33.8"/>
<rect x="76.5" y="31.9" class="st1" width="4.2" height="33.8"/>
<path class="st2" d="M119.8,47.4h-40c-1.1,6.1-2.2,12.3-3.3,18.4c0,10.6,0,21.2,0,31.9l3.3,18.4h39.9L119.8,47.4L119.8,47.4z"/>
<linearGradient id="SVGID_00000140729199946245465640000005741913578900588212_" gradientUnits="userSpaceOnUse" x1="98.2" y1="205.925" x2="98.2" y2="168.5801" gradientTransform="matrix(1 0 0 -1 0 322)">
	<stop  offset="0" style="stop-color:#5A5758"/>
	<stop  offset="1" style="stop-color:#838587"/>
</linearGradient>
<path style="fill:url(#SVGID_00000140729199946245465640000005741913578900588212_);" d="M119.8,116.1c-13.3,0-26.6,0-39.9,0
	l-3.3,10.3v17.2l6,9.9h37.2V116.1z"/>
<linearGradient id="SVGID_00000067924632608797104360000004142626820217918908_" gradientUnits="userSpaceOnUse" x1="98.2" y1="274.5763" x2="98.2" y2="311.9215" gradientTransform="matrix(1 0 0 -1 0 322)">
	<stop  offset="0" style="stop-color:#F4F4F4"/>
	<stop  offset="1" style="stop-color:#BABABA"/>
</linearGradient>
<path style="fill:url(#SVGID_00000067924632608797104360000004142626820217918908_);" d="M119.8,10H82.6l-6,9.9v17.2l3.3,10.3
	c13.3,0,26.6,0,39.9,0V10z"/>
<g>
	<polygon class="st5" points="116.5,291.1 112.6,284 110.4,198.3 113.9,191.2 	"/>
	<g>
		<g>
			<defs>
				<path id="SVGID_00000073698284379202932680000009121664180340534696_" d="M81.9,168.8l-6,9.9v12v5.2v28.6c0,10.4,0,20.6,0,31.1
					h-0.1v33.8h0.1v13l6,9.9h37.2v-37.4v-68.7v-0.1v-37.3H81.9z"/>
			</defs>
			<clipPath id="SVGID_00000129199121651126612380000010391262751349965491_">
				<use xlink:href="#SVGID_00000073698284379202932680000009121664180340534696_"  style="overflow:visible;"/>
			</clipPath>
			<g style="clip-path:url(#SVGID_00000129199121651126612380000010391262751349965491_);">
				
					<image style="overflow:visible;enable-background:new    ;" width="1200" height="900" xlink:href="../../Фитинги/Резьбовые/Металл.jpg"  transform="matrix(0.2272 0 0 0.2272 -17.2683 153.4116)">
				</image>
			</g>
		</g>
		<g>
			<path id="SVGID_1_" class="st7" d="M81.9,168.8l-6,9.9v12v5.2v28.6c0,10.4,0,20.6,0,31.1h-0.1v33.8h0.1v13l6,9.9h37.2v-37.4
				v-68.7v-0.1v-37.3H81.9z"/>
		</g>
	</g>
	<g>
		<g>
			<path class="st5" d="M79.9,291.1c-1.6-2.6-3.2-5.1-4.8-7.7c0-28.4,0-56.9,0-85.3c0.8-2.2,1.4-4.3,2.2-6.5
				C78.1,224.8,79,257.9,79.9,291.1z"/>
			
				<linearGradient id="SVGID_00000050657273324182466650000017251631023989113773_" gradientUnits="userSpaceOnUse" x1="-11518.7568" y1="2432.2131" x2="-11515.1279" y2="2524.4648" gradientTransform="matrix(0.9993 3.650000e-02 -3.930000e-02 1.0773 11686.6299 -2008.7041)">
				<stop  offset="0" style="stop-color:#4D4E50"/>
				<stop  offset="0" style="stop-color:#414042"/>
				<stop  offset="0.2528" style="stop-color:#424244"/>
				<stop  offset="0.433" style="stop-color:#666769"/>
				<stop  offset="0.5" style="stop-color:#BCBEC0"/>
				<stop  offset="0.5615" style="stop-color:#808285"/>
				<stop  offset="0.6732" style="stop-color:#E3E4E5"/>
				<stop  offset="0.7905" style="stop-color:#939598"/>
				<stop  offset="0.9078" style="stop-color:#414042"/>
				<stop  offset="1" style="stop-color:#58595B"/>
			</linearGradient>
			<path style="fill:url(#SVGID_00000050657273324182466650000017251631023989113773_);" d="M79.9,291.1
				c-0.8-33.2-1.8-66.3-2.6-99.5c1.3,2.3,2.6,4.5,3.8,6.7c0.8,28.5,1.5,57,2.3,85.6C82.2,286.3,81,288.7,79.9,291.1z"/>
			
				<linearGradient id="SVGID_00000030475634656455988500000005518955939199507355_" gradientUnits="userSpaceOnUse" x1="-11482.2188" y1="2443.0984" x2="-11478.5742" y2="2536.4734" gradientTransform="matrix(0.9993 3.650000e-02 -3.900000e-02 1.0686 11686.3115 -2000.3845)">
				<stop  offset="0" style="stop-color:#4D4E50"/>
				<stop  offset="0" style="stop-color:#414042"/>
				<stop  offset="0.2528" style="stop-color:#424244"/>
				<stop  offset="0.433" style="stop-color:#666769"/>
				<stop  offset="0.5" style="stop-color:#BCBEC0"/>
				<stop  offset="0.5615" style="stop-color:#808285"/>
				<stop  offset="0.6732" style="stop-color:#E3E4E5"/>
				<stop  offset="0.7905" style="stop-color:#939598"/>
				<stop  offset="0.9078" style="stop-color:#414042"/>
				<stop  offset="1" style="stop-color:#58595B"/>
			</linearGradient>
			<path style="fill:url(#SVGID_00000030475634656455988500000005518955939199507355_);" d="M116.5,291.1l-2.6-99.9
				c1.2,2.4,2.4,4.8,3.6,7.2c0.8,28.4,1.5,57,2.3,85.4C118.7,286.2,117.5,288.7,116.5,291.1z"/>
			<polygon class="st5" points="109.1,291.1 105.3,283.9 103,198.4 106.5,191.1 			"/>
			<polygon class="st5" points="116.5,291.1 112.6,284 110.4,198.3 113.9,191.2 			"/>
			
				<linearGradient id="SVGID_00000171678291130686620980000002924610444519435648_" gradientUnits="userSpaceOnUse" x1="-11489.5742" y1="2431.2456" x2="-11485.9287" y2="2523.9607" gradientTransform="matrix(0.9993 3.650000e-02 -3.930000e-02 1.0773 11686.6299 -2008.7041)">
				<stop  offset="0" style="stop-color:#4D4E50"/>
				<stop  offset="0" style="stop-color:#414042"/>
				<stop  offset="0.2528" style="stop-color:#424244"/>
				<stop  offset="0.433" style="stop-color:#666769"/>
				<stop  offset="0.5" style="stop-color:#BCBEC0"/>
				<stop  offset="0.5615" style="stop-color:#808285"/>
				<stop  offset="0.6732" style="stop-color:#E3E4E5"/>
				<stop  offset="0.7905" style="stop-color:#939598"/>
				<stop  offset="0.9078" style="stop-color:#414042"/>
				<stop  offset="1" style="stop-color:#58595B"/>
			</linearGradient>
			<path style="fill:url(#SVGID_00000171678291130686620980000002924610444519435648_);" d="M109.1,291.1l-2.6-100l3.8,7.2
				c0.8,28.5,1.5,57,2.3,85.6C111.4,286.3,110.3,288.7,109.1,291.1z"/>
			<polygon class="st5" points="101.8,291.1 97.9,283.8 95.6,198.4 99.2,191.1 			"/>
			
				<linearGradient id="SVGID_00000075854901759949558130000003993691436142481563_" gradientUnits="userSpaceOnUse" x1="-11496.8691" y1="2431.4927" x2="-11493.2236" y2="2524.208" gradientTransform="matrix(0.9993 3.650000e-02 -3.930000e-02 1.0773 11686.6299 -2008.7041)">
				<stop  offset="0" style="stop-color:#4D4E50"/>
				<stop  offset="0" style="stop-color:#414042"/>
				<stop  offset="0.2528" style="stop-color:#424244"/>
				<stop  offset="0.433" style="stop-color:#666769"/>
				<stop  offset="0.5" style="stop-color:#BCBEC0"/>
				<stop  offset="0.5615" style="stop-color:#808285"/>
				<stop  offset="0.6732" style="stop-color:#E3E4E5"/>
				<stop  offset="0.7905" style="stop-color:#939598"/>
				<stop  offset="0.9078" style="stop-color:#414042"/>
				<stop  offset="1" style="stop-color:#58595B"/>
			</linearGradient>
			<path style="fill:url(#SVGID_00000075854901759949558130000003993691436142481563_);" d="M101.8,291.1l-2.6-100l3.8,7.2
				c0.8,28.5,1.5,57,2.3,85.6C104.1,286.3,102.9,288.7,101.8,291.1z"/>
			
				<linearGradient id="SVGID_00000106859002687741742780000015246618730657983669_" gradientUnits="userSpaceOnUse" x1="-11504.1045" y1="2443.8459" x2="-11500.4609" y2="2537.2209" gradientTransform="matrix(0.9993 3.650000e-02 -3.900000e-02 1.0686 11686.3115 -2000.3845)">
				<stop  offset="0" style="stop-color:#4D4E50"/>
				<stop  offset="0" style="stop-color:#414042"/>
				<stop  offset="0.2528" style="stop-color:#424244"/>
				<stop  offset="0.433" style="stop-color:#666769"/>
				<stop  offset="0.5" style="stop-color:#BCBEC0"/>
				<stop  offset="0.5615" style="stop-color:#808285"/>
				<stop  offset="0.6732" style="stop-color:#E3E4E5"/>
				<stop  offset="0.7905" style="stop-color:#939598"/>
				<stop  offset="0.9078" style="stop-color:#414042"/>
				<stop  offset="1" style="stop-color:#58595B"/>
			</linearGradient>
			<path style="fill:url(#SVGID_00000106859002687741742780000015246618730657983669_);" d="M94.6,291.1L92,191.2
				c1.2,2.4,2.4,4.8,3.6,7.2c0.8,28.4,1.5,57,2.3,85.4C96.8,286.2,95.7,288.7,94.6,291.1z"/>
			<polygon class="st5" points="87.2,291.1 83.4,283.9 81.1,198.4 84.6,191.1 			"/>
			<polygon class="st5" points="94.6,291.1 90.7,284 88.5,198.3 92,191.2 			"/>
			
				<linearGradient id="SVGID_00000061429665134430388910000014015906643763322505_" gradientUnits="userSpaceOnUse" x1="-11511.46" y1="2431.9871" x2="-11507.8145" y2="2524.7024" gradientTransform="matrix(0.9993 3.650000e-02 -3.930000e-02 1.0773 11686.6299 -2008.7041)">
				<stop  offset="0" style="stop-color:#4D4E50"/>
				<stop  offset="0" style="stop-color:#414042"/>
				<stop  offset="0.2528" style="stop-color:#424244"/>
				<stop  offset="0.433" style="stop-color:#666769"/>
				<stop  offset="0.5" style="stop-color:#BCBEC0"/>
				<stop  offset="0.5615" style="stop-color:#808285"/>
				<stop  offset="0.6732" style="stop-color:#E3E4E5"/>
				<stop  offset="0.7905" style="stop-color:#939598"/>
				<stop  offset="0.9078" style="stop-color:#414042"/>
				<stop  offset="1" style="stop-color:#58595B"/>
			</linearGradient>
			<path style="fill:url(#SVGID_00000061429665134430388910000014015906643763322505_);" d="M87.2,291.1l-2.6-100l3.8,7.2
				c0.8,28.5,1.5,57,2.3,85.6C89.6,286.3,88.4,288.7,87.2,291.1z"/>
			
				<linearGradient id="SVGID_00000133505209793658228780000007015718138107308457_" gradientUnits="userSpaceOnUse" x1="-254.8615" y1="-967.5132" x2="-254.8615" y2="-967.5132" gradientTransform="matrix(-1 0 0 -1 -136.1615 -679.7882)">
				<stop  offset="6.980000e-02" style="stop-color:#6D6E71"/>
				<stop  offset="0.1536" style="stop-color:#939598"/>
				<stop  offset="0.2151" style="stop-color:#6D6E71"/>
				<stop  offset="0.3883" style="stop-color:#6D6E71"/>
				<stop  offset="0.4832" style="stop-color:#939598"/>
				<stop  offset="0.6844" style="stop-color:#BCBEC0"/>
				<stop  offset="0.7458" style="stop-color:#808285"/>
				<stop  offset="0.8073" style="stop-color:#B4B4B4"/>
				<stop  offset="0.9134" style="stop-color:#6D6E71"/>
				<stop  offset="1" style="stop-color:#939598"/>
			</linearGradient>
			<path style="fill:url(#SVGID_00000133505209793658228780000007015718138107308457_);" d="M118.7,287.7"/>
		</g>
		<g class="st15">
			
				<linearGradient id="SVGID_00000026133875611418236230000010626297925509789334_" gradientUnits="userSpaceOnUse" x1="-269.8106" y1="1816.9995" x2="-274.6526" y2="1816.8256" gradientTransform="matrix(-0.9993 -3.650000e-02 -3.710000e-02 1.0163 -127.1405 -1615.2896)">
				<stop  offset="0" style="stop-color:#D6D5D5"/>
				<stop  offset="0.5251" style="stop-color:#D7D6D6;stop-opacity:0"/>
				<stop  offset="1" style="stop-color:#F1F1F1;stop-opacity:0.8"/>
			</linearGradient>
			<path style="fill:url(#SVGID_00000026133875611418236230000010626297925509789334_);" d="M79.9,290.9c-1.6-2.6-3.2-5.1-4.8-7.7
				c0-28.4,0-56.9,0-85.3c0.8-2.2,1.4-4.3,2.2-6.5C78.1,224.6,79,257.8,79.9,290.9z"/>
			
				<linearGradient id="SVGID_00000014611911424526899870000011714088223043328138_" gradientUnits="userSpaceOnUse" x1="-11519.3057" y1="2478.7283" x2="-11512.7256" y2="2478.5051" gradientTransform="matrix(0.9993 3.650000e-02 -3.930000e-02 1.0773 11686.6299 -2008.7041)">
				<stop  offset="0" style="stop-color:#D6D5D5"/>
				<stop  offset="0.5251" style="stop-color:#D7D6D6;stop-opacity:0"/>
				<stop  offset="1" style="stop-color:#F1F1F1;stop-opacity:0.8"/>
			</linearGradient>
			<path style="fill:url(#SVGID_00000014611911424526899870000011714088223043328138_);" d="M79.9,290.9
				c-0.8-33.2-1.8-66.3-2.6-99.5c1.3,2.3,2.6,4.5,3.8,6.7c0.8,28.5,1.5,57,2.3,85.6C82.2,286.2,81,288.6,79.9,290.9z"/>
			
				<linearGradient id="SVGID_00000146473175678293905980000011913676410685738897_" gradientUnits="userSpaceOnUse" x1="-11482.6641" y1="2489.7778" x2="-11476.3574" y2="2489.5625" gradientTransform="matrix(0.9993 3.650000e-02 -3.900000e-02 1.0686 11686.3115 -2000.3845)">
				<stop  offset="0" style="stop-color:#D6D5D5"/>
				<stop  offset="0.5251" style="stop-color:#D7D6D6;stop-opacity:0"/>
				<stop  offset="1" style="stop-color:#F1F1F1;stop-opacity:0.8"/>
			</linearGradient>
			<path style="fill:url(#SVGID_00000146473175678293905980000011913676410685738897_);" d="M116.5,291l-2.6-99.9
				c1.2,2.4,2.4,4.8,3.6,7.2c0.8,28.4,1.5,57,2.3,85.4C118.7,286.1,117.5,288.6,116.5,291z"/>
			
				<linearGradient id="SVGID_00000029007540088201674960000008017458757456894109_" gradientUnits="userSpaceOnUse" x1="-297.6582" y1="1815.8582" x2="-303.8781" y2="1815.6348" gradientTransform="matrix(-0.9993 -3.650000e-02 -3.710000e-02 1.0163 -127.1405 -1615.2896)">
				<stop  offset="0" style="stop-color:#D6D5D5"/>
				<stop  offset="0.5251" style="stop-color:#D7D6D6;stop-opacity:0"/>
				<stop  offset="1" style="stop-color:#F1F1F1;stop-opacity:0.8"/>
			</linearGradient>
			<polygon style="fill:url(#SVGID_00000029007540088201674960000008017458757456894109_);" points="109.1,291 105.3,283.8 
				103,198.4 106.5,191 			"/>
			
				<linearGradient id="SVGID_00000111151352754705511760000014559906930399494824_" gradientUnits="userSpaceOnUse" x1="-305.0591" y1="1828.7732" x2="-311.2321" y2="1828.5497" gradientTransform="matrix(-0.9993 -3.650000e-02 -3.680000e-02 1.0081 -127.2013 -1613.6407)">
				<stop  offset="0" style="stop-color:#D6D5D5"/>
				<stop  offset="0.5251" style="stop-color:#D7D6D6;stop-opacity:0"/>
				<stop  offset="1" style="stop-color:#F1F1F1;stop-opacity:0.8"/>
			</linearGradient>
			<polygon style="fill:url(#SVGID_00000111151352754705511760000014559906930399494824_);" points="116.5,291 112.6,283.8 
				110.4,198.2 113.9,191.1 			"/>
			
				<linearGradient id="SVGID_00000090972927934293398230000008250058636383311276_" gradientUnits="userSpaceOnUse" x1="-11490.0771" y1="2477.5986" x2="-11483.5" y2="2477.3757" gradientTransform="matrix(0.9993 3.650000e-02 -3.930000e-02 1.0773 11686.6299 -2008.7041)">
				<stop  offset="0" style="stop-color:#D6D5D5"/>
				<stop  offset="0.5251" style="stop-color:#D7D6D6;stop-opacity:0"/>
				<stop  offset="1" style="stop-color:#F1F1F1;stop-opacity:0.8"/>
			</linearGradient>
			<path style="fill:url(#SVGID_00000090972927934293398230000008250058636383311276_);" d="M109.1,291l-2.6-100l3.8,7.2
				c0.8,28.5,1.5,57,2.3,85.6C111.4,286.3,110.3,288.6,109.1,291z"/>
			
				<linearGradient id="SVGID_00000181785270345453006250000011377429780131672713_" gradientUnits="userSpaceOnUse" x1="-290.279" y1="1816.0676" x2="-296.4993" y2="1815.8441" gradientTransform="matrix(-0.9993 -3.650000e-02 -3.710000e-02 1.0163 -127.1405 -1615.2896)">
				<stop  offset="0" style="stop-color:#D6D5D5"/>
				<stop  offset="0.5251" style="stop-color:#D7D6D6;stop-opacity:0"/>
				<stop  offset="1" style="stop-color:#F1F1F1;stop-opacity:0.8"/>
			</linearGradient>
			<polygon style="fill:url(#SVGID_00000181785270345453006250000011377429780131672713_);" points="101.8,290.9 97.9,283.8 
				95.6,198.3 99.2,191 			"/>
			
				<linearGradient id="SVGID_00000024709531560254220910000006815206878225880212_" gradientUnits="userSpaceOnUse" x1="-11497.457" y1="2477.7559" x2="-11490.8789" y2="2477.533" gradientTransform="matrix(0.9993 3.650000e-02 -3.930000e-02 1.0773 11686.6299 -2008.7041)">
				<stop  offset="0" style="stop-color:#D6D5D5"/>
				<stop  offset="0.5251" style="stop-color:#D7D6D6;stop-opacity:0"/>
				<stop  offset="1" style="stop-color:#F1F1F1;stop-opacity:0.8"/>
			</linearGradient>
			<path style="fill:url(#SVGID_00000024709531560254220910000006815206878225880212_);" d="M101.8,290.9l-2.6-100l3.8,7.2
				c0.8,28.5,1.5,57,2.3,85.6C104.1,286.2,102.9,288.6,101.8,290.9z"/>
			
				<linearGradient id="SVGID_00000061444985722692529670000007141154527823494553_" gradientUnits="userSpaceOnUse" x1="-11504.5498" y1="2490.5254" x2="-11498.2432" y2="2490.3101" gradientTransform="matrix(0.9993 3.650000e-02 -3.900000e-02 1.0686 11686.3115 -2000.3845)">
				<stop  offset="0" style="stop-color:#D6D5D5"/>
				<stop  offset="0.5251" style="stop-color:#D7D6D6;stop-opacity:0"/>
				<stop  offset="1" style="stop-color:#F1F1F1;stop-opacity:0.8"/>
			</linearGradient>
			<path style="fill:url(#SVGID_00000061444985722692529670000007141154527823494553_);" d="M94.6,291L92,191.1
				c1.2,2.4,2.4,4.8,3.6,7.2c0.8,28.4,1.5,57,2.3,85.4C96.8,286.1,95.7,288.6,94.6,291z"/>
			
				<linearGradient id="SVGID_00000157304248636944879070000016300244571807859639_" gradientUnits="userSpaceOnUse" x1="-275.7729" y1="1816.6398" x2="-281.9929" y2="1816.4164" gradientTransform="matrix(-0.9993 -3.650000e-02 -3.710000e-02 1.0163 -127.1405 -1615.2896)">
				<stop  offset="0" style="stop-color:#D6D5D5"/>
				<stop  offset="0.5251" style="stop-color:#D7D6D6;stop-opacity:0"/>
				<stop  offset="1" style="stop-color:#F1F1F1;stop-opacity:0.8"/>
			</linearGradient>
			<polygon style="fill:url(#SVGID_00000157304248636944879070000016300244571807859639_);" points="87.2,291 83.4,283.8 
				81.1,198.4 84.6,191 			"/>
			
				<linearGradient id="SVGID_00000136411740663433453320000007111773283443795377_" gradientUnits="userSpaceOnUse" x1="-283.1763" y1="1829.5656" x2="-289.3494" y2="1829.342" gradientTransform="matrix(-0.9993 -3.650000e-02 -3.680000e-02 1.0081 -127.2013 -1613.6407)">
				<stop  offset="0" style="stop-color:#D6D5D5"/>
				<stop  offset="0.5251" style="stop-color:#D7D6D6;stop-opacity:0"/>
				<stop  offset="1" style="stop-color:#F1F1F1;stop-opacity:0.8"/>
			</linearGradient>
			<polygon style="fill:url(#SVGID_00000136411740663433453320000007111773283443795377_);" points="94.6,291 90.7,283.8 
				88.5,198.2 92,191.1 			"/>
			
				<linearGradient id="SVGID_00000013890554510126767430000011539438727760661675_" gradientUnits="userSpaceOnUse" x1="-11511.9619" y1="2478.3401" x2="-11505.3848" y2="2478.1174" gradientTransform="matrix(0.9993 3.650000e-02 -3.930000e-02 1.0773 11686.6299 -2008.7041)">
				<stop  offset="0" style="stop-color:#D6D5D5"/>
				<stop  offset="0.5251" style="stop-color:#D7D6D6;stop-opacity:0"/>
				<stop  offset="1" style="stop-color:#F1F1F1;stop-opacity:0.8"/>
			</linearGradient>
			<path style="fill:url(#SVGID_00000013890554510126767430000011539438727760661675_);" d="M87.2,291l-2.6-100l3.8,7.2
				c0.8,28.5,1.5,57,2.3,85.6C89.6,286.3,88.4,288.6,87.2,291z"/>
			
				<linearGradient id="SVGID_00000005955646556256122890000000742428036433831321_" gradientUnits="userSpaceOnUse" x1="-254.8615" y1="-967.4132" x2="-254.8615" y2="-967.4132" gradientTransform="matrix(-1 0 0 -1 -136.1615 -679.7882)">
				<stop  offset="0" style="stop-color:#D6D5D5"/>
				<stop  offset="0.5251" style="stop-color:#D7D6D6;stop-opacity:0"/>
				<stop  offset="1" style="stop-color:#F1F1F1;stop-opacity:0.8"/>
			</linearGradient>
			<path style="fill:url(#SVGID_00000005955646556256122890000000742428036433831321_);" d="M118.7,287.6"/>
		</g>
	</g>
	<polygon class="st5" points="117.5,198.4 119.7,191.2 119.7,283.8 	"/>
	
		<linearGradient id="SVGID_00000022552039720836603530000005822579341088771722_" gradientUnits="userSpaceOnUse" x1="117.4652" y1="84.675" x2="119.7209" y2="84.675" gradientTransform="matrix(1 0 0 -1 0 322)">
		<stop  offset="0" style="stop-color:#D6D5D5"/>
		<stop  offset="0.5251" style="stop-color:#D7D6D6;stop-opacity:0"/>
		<stop  offset="1" style="stop-color:#F1F1F1;stop-opacity:0.8"/>
	</linearGradient>
	
		<polygon style="opacity:0.29;fill:url(#SVGID_00000022552039720836603530000005822579341088771722_);enable-background:new    ;" points="
		117.5,198.2 119.7,191 119.7,283.6 	"/>
</g>
<image style="overflow:visible;" width="200" height="200" xlink:href="../../pepsi.png"  transform="matrix(0.1278 0 0 0.1278 85.4201 69.4451)">
</image>
</svg>
