<?xml version="1.0" encoding="utf-8"?>
<!-- Generator: Adobe Illustrator 25.4.1, SVG Export Plug-In . SVG Version: 6.00 Build 0)  -->
<svg version="1.1" id="Слой_1" xmlns="http://www.w3.org/2000/svg" xmlns:xlink="http://www.w3.org/1999/xlink" x="0px" y="0px"
	 viewBox="0 0 200 320" style="enable-background:new 0 0 200 320;" xml:space="preserve">
<style type="text/css">
	.st0{clip-path:url(#SVGID_00000173868107959652423490000003143183102576559278_);}
	.st1{fill:none;stroke:#CCCCCC;stroke-width:0.75;stroke-miterlimit:10;}
	.st2{fill:#D6D7D7;}
	.st3{fill:#515051;}
	.st4{fill:url(#SVGID_00000150080313427704693260000009290062004007804345_);}
	.st5{fill:url(#SVGID_00000149375656989059973510000006737735712735677851_);}
	.st6{fill:#AAAAAA;}
	.st7{fill:#4D4E50;}
	.st8{fill:url(#SVGID_00000052086370179360226400000017487862731326953137_);}
	.st9{fill:url(#SVGID_00000123427503733380364860000012162364044669481399_);}
	.st10{fill:url(#SVGID_00000022524943482052050890000002072373202549333940_);}
	.st11{fill:url(#SVGID_00000001635784827976267210000008585935469510276517_);}
	.st12{fill:url(#SVGID_00000111179065281912025850000005191773477777905829_);}
	.st13{fill:url(#SVGID_00000026165074165311850140000005420453251840627086_);}
	.st14{fill:url(#SVGID_00000070106476842562514240000000315679289628753843_);}
	.st15{fill:url(#SVGID_00000013161152235006158720000000216360213775880125_);}
	.st16{fill:url(#SVGID_00000108269951460171532230000011051916867313876646_);}
	.st17{fill:url(#SVGID_00000103952168817289915190000014274613503257051277_);}
	.st18{fill:url(#SVGID_00000097493246590187407240000014531128458842971829_);}
	.st19{opacity:0.25;enable-background:new    ;}
	.st20{fill:url(#SVGID_00000180361276966205370550000014960108792899701924_);}
	.st21{fill:url(#SVGID_00000179610271510516415360000008017142483563945131_);}
	.st22{fill:url(#SVGID_00000098180288825254019220000001309493650780136381_);}
	.st23{fill:url(#SVGID_00000013906826400470519240000006731377449427124104_);}
	.st24{fill:url(#SVGID_00000009591951552825100980000013861248012507983774_);}
	.st25{fill:url(#SVGID_00000088128349743139810660000003151703596685756329_);}
	.st26{fill:url(#SVGID_00000103957913993936476640000007247559376866675614_);}
	.st27{fill:url(#SVGID_00000137827528189116852260000008640512990288627388_);}
	.st28{fill:url(#SVGID_00000019679258705689074820000012120673823053935746_);}
	.st29{fill:url(#SVGID_00000106845689288759632480000017119576256018507145_);}
	.st30{fill:url(#SVGID_00000059291151120813707120000016675292989158574723_);}
	.st31{fill:url(#SVGID_00000023976941721711523780000002249807909188053635_);}
	.st32{fill:url(#SVGID_00000085952783226505419530000013324595571105171646_);}
	.st33{fill:url(#SVGID_00000109721175716565464870000010119446952576517795_);}
	.st34{fill:url(#SVGID_00000005945527585210890060000004250786077855828634_);}
	.st35{fill:url(#SVGID_00000146481250292672937400000014342467030641511601_);}
	.st36{fill:url(#SVGID_00000029011735673693345120000008616512104676642727_);}
	.st37{fill:url(#SVGID_00000137816687175867505350000004256697515847247027_);}
	.st38{fill:url(#SVGID_00000097465793969962682750000002715902441589033404_);}
	.st39{fill:url(#SVGID_00000150802519734215870060000016094889634178337448_);}
	.st40{fill:url(#SVGID_00000079463096854238355310000003591641617745375641_);}
	.st41{fill:url(#SVGID_00000166652166065948220280000014678896300219616938_);}
	.st42{fill:url(#SVGID_00000079466074378179547470000008424804332372612276_);}
	.st43{fill:url(#SVGID_00000002386189572803527650000001300196091029472938_);}
</style>
<g>
	<g>
		<defs>
			<path id="SVGID_00000066485598046401632270000007755953641858031263_" d="M154.9,223.6v-32.9h-0.2V179l-11.8-9.7H57.3l-12.7,9.6
				v11.7v5v27.8v0.2c0,10,0,20,0,30.1h-0.2v32.9h0.2V299l12.8,9.7h85.7l11.8-9.7l0.2-45.4h-0.2c0-10,0-20,0-30.1L154.9,223.6
				L154.9,223.6z"/>
		</defs>
		<clipPath id="SVGID_00000093864800356117302140000005584147451103065774_">
			<use xlink:href="#SVGID_00000066485598046401632270000007755953641858031263_"  style="overflow:visible;"/>
		</clipPath>
		<g style="clip-path:url(#SVGID_00000093864800356117302140000005584147451103065774_);">
			
				<image style="overflow:visible;enable-background:new    ;" width="1200" height="900" xlink:href="../../Фитинги/Резьбовые/Металл.jpg"  transform="matrix(0.2145 0 0 0.2145 4.9971 155.052)">
			</image>
		</g>
	</g>
	<g>
		<path id="SVGID_1_" class="st1" d="M154.9,223.6v-32.9h-0.2V179l-11.8-9.7H57.3l-12.7,9.6v11.7v5v27.8v0.2c0,10,0,20,0,30.1h-0.2
			v32.9h0.2V299l12.8,9.7h85.7l11.8-9.7l0.2-45.4h-0.2c0-10,0-20,0-30.1L154.9,223.6L154.9,223.6z"/>
	</g>
</g>
<rect x="144.1" y="32.1" class="st2" width="9.1" height="32.9"/>
<rect x="144.1" y="95.2" class="st3" width="9.1" height="32.9"/>
<rect x="42.6" y="95.2" class="st3" width="9.1" height="32.9"/>
<rect x="42.8" y="32.1" class="st2" width="8.8" height="32.9"/>
<linearGradient id="SVGID_00000098915014618402165960000015907995491436488335_" gradientUnits="userSpaceOnUse" x1="97.917" y1="2114.7126" x2="97.917" y2="2151.0044" gradientTransform="matrix(1 0 0 1 0 -2000.8347)">
	<stop  offset="0" style="stop-color:#5A5758"/>
	<stop  offset="1" style="stop-color:#838587"/>
</linearGradient>
<path style="fill:url(#SVGID_00000098915014618402165960000015907995491436488335_);" d="M49.8,113.9l-6.9,10v16.7l12.7,9.7h85.7
	l11.8-9.7v-16.7c-2.1-3.3-4-6.6-6.1-10C114.5,113.9,82.1,113.9,49.8,113.9z"/>
<linearGradient id="SVGID_00000134215128701458564380000012602033201090288015_" gradientUnits="userSpaceOnUse" x1="97.917" y1="-705.9046" x2="97.917" y2="-669.6127" gradientTransform="matrix(1 0 0 -1 0 -658.74)">
	<stop  offset="0" style="stop-color:#F4F4F4"/>
	<stop  offset="1" style="stop-color:#BABABA"/>
</linearGradient>
<path style="fill:url(#SVGID_00000134215128701458564380000012602033201090288015_);" d="M49.8,47.2l-6.9-10V20.5l12.7-9.7h85.7
	l11.8,9.7v16.7c-2.1,3.3-4,6.6-6.1,10C114.5,47.2,82.1,47.2,49.8,47.2z"/>
<path class="st6" d="M146.8,113.9l6.1-17.9c0-10.3,0-20.6,0-31c-2.1-5.9-4-11.9-6.1-17.9H49.8C47.5,53,45.1,59,42.8,65
	c0,10.3,0,20.6,0,31l6.9,17.9H146.8z"/>
<g>
	<polygon class="st7" points="101.6,290.3 98.1,283.2 96.2,197 99.4,189.7 	"/>
	<polygon class="st7" points="108.3,290.5 104.8,283.4 102.9,196.8 105.9,189.7 	"/>
	
		<linearGradient id="SVGID_00000159436431225088917650000000832925920616078737_" gradientUnits="userSpaceOnUse" x1="-11505.751" y1="-1196.007" x2="-11502.0723" y2="-1290.2482" gradientTransform="matrix(0.9993 3.650000e-02 3.900000e-02 -1.0686 11639.667 -668.3024)">
		<stop  offset="0" style="stop-color:#4D4E50"/>
		<stop  offset="0" style="stop-color:#414042"/>
		<stop  offset="0.2528" style="stop-color:#424244"/>
		<stop  offset="0.433" style="stop-color:#666769"/>
		<stop  offset="0.5" style="stop-color:#BCBEC0"/>
		<stop  offset="0.5615" style="stop-color:#808285"/>
		<stop  offset="0.6732" style="stop-color:#E3E4E5"/>
		<stop  offset="0.7905" style="stop-color:#939598"/>
		<stop  offset="0.9078" style="stop-color:#414042"/>
		<stop  offset="1" style="stop-color:#58595B"/>
	</linearGradient>
	<path style="fill:url(#SVGID_00000159436431225088917650000000832925920616078737_);" d="M95,290.5l-2.4-100.7l3.5,7.2
		c0.6,28.8,1.2,57.4,1.8,86.2C97,285.7,96,288.1,95,290.5z"/>
	
		<linearGradient id="SVGID_00000162311547388546501000000003254491336124406189_" gradientUnits="userSpaceOnUse" x1="-11498.9814" y1="-1210.7196" x2="-11495.3096" y2="-1305.7611" gradientTransform="matrix(0.9993 3.650000e-02 3.860000e-02 -1.0576 11639.7617 -670.9338)">
		<stop  offset="0" style="stop-color:#4D4E50"/>
		<stop  offset="0" style="stop-color:#414042"/>
		<stop  offset="0.2528" style="stop-color:#424244"/>
		<stop  offset="0.433" style="stop-color:#666769"/>
		<stop  offset="0.5" style="stop-color:#BCBEC0"/>
		<stop  offset="0.5615" style="stop-color:#808285"/>
		<stop  offset="0.6732" style="stop-color:#E3E4E5"/>
		<stop  offset="0.7905" style="stop-color:#939598"/>
		<stop  offset="0.9078" style="stop-color:#414042"/>
		<stop  offset="1" style="stop-color:#58595B"/>
	</linearGradient>
	<path style="fill:url(#SVGID_00000162311547388546501000000003254491336124406189_);" d="M101.6,290.3l-2.1-100.6l3.5,7.2
		c0.6,28.8,1.2,57.7,1.8,86.6C103.7,285.7,102.6,288,101.6,290.3z"/>
	
		<linearGradient id="SVGID_00000090987607270641122290000003933042875836743303_" gradientUnits="userSpaceOnUse" x1="-11492.3896" y1="-1216.5444" x2="-11488.71" y2="-1312.3262" gradientTransform="matrix(0.9993 3.650000e-02 3.840000e-02 -1.0526 11639.8135 -672.1451)">
		<stop  offset="0" style="stop-color:#4D4E50"/>
		<stop  offset="0" style="stop-color:#414042"/>
		<stop  offset="0.2528" style="stop-color:#424244"/>
		<stop  offset="0.433" style="stop-color:#666769"/>
		<stop  offset="0.5" style="stop-color:#BCBEC0"/>
		<stop  offset="0.5615" style="stop-color:#808285"/>
		<stop  offset="0.6732" style="stop-color:#E3E4E5"/>
		<stop  offset="0.7905" style="stop-color:#939598"/>
		<stop  offset="0.9078" style="stop-color:#414042"/>
		<stop  offset="1" style="stop-color:#58595B"/>
	</linearGradient>
	<path style="fill:url(#SVGID_00000090987607270641122290000003933042875836743303_);" d="M108.3,290.5l-2.4-100.9
		c1.3,2.4,2.6,4.9,3.9,7.3c0.3,14.5,0.6,28.8,0.9,43.3c0.3,14.5,0.6,28.9,0.9,43.4C110.5,285.9,109.4,288.2,108.3,290.5z"/>
	<polygon class="st7" points="88.3,290.5 84.8,283.2 82.8,197.1 86,189.7 	"/>
	<polygon class="st7" points="95,290.5 91.5,283.3 89.5,197 92.7,189.8 	"/>
	
		<linearGradient id="SVGID_00000176010767773440885550000012202418762008764326_" gradientUnits="userSpaceOnUse" x1="-11512.3887" y1="-1184.4652" x2="-11508.7139" y2="-1277.9139" gradientTransform="matrix(0.9993 3.650000e-02 3.930000e-02 -1.0773 11639.626 -666.2168)">
		<stop  offset="0" style="stop-color:#4D4E50"/>
		<stop  offset="0" style="stop-color:#414042"/>
		<stop  offset="0.2528" style="stop-color:#424244"/>
		<stop  offset="0.433" style="stop-color:#666769"/>
		<stop  offset="0.5" style="stop-color:#BCBEC0"/>
		<stop  offset="0.5615" style="stop-color:#808285"/>
		<stop  offset="0.6732" style="stop-color:#E3E4E5"/>
		<stop  offset="0.7905" style="stop-color:#939598"/>
		<stop  offset="0.9078" style="stop-color:#414042"/>
		<stop  offset="1" style="stop-color:#58595B"/>
	</linearGradient>
	<path style="fill:url(#SVGID_00000176010767773440885550000012202418762008764326_);" d="M88.3,290.5L86,189.7l3.5,7.2
		c0.7,28.8,1.4,57.5,2.1,86.3C90.5,285.7,89.4,288.1,88.3,290.5z"/>
	<path class="st7" d="M113.6,285.7c-0.7-0.7-1.3-1.4-2-2.1c-0.6-28.9-1.2-57.8-1.8-86.6c1.1-2.3,2.4-4.6,3.5-6.8
		C113.4,221.9,113.5,253.8,113.6,285.7z"/>
	<path class="st7" d="M48.5,290.5c-1.4-2.6-2.9-5.2-4.3-7.8c0-28.7,0-57.4,0-86c0.7-2.2,1.3-4.3,2-6.5
		C46.9,223.7,47.7,257.1,48.5,290.5z"/>
	
		<linearGradient id="SVGID_00000090287658317050827730000013753546997627934859_" gradientUnits="userSpaceOnUse" x1="-11552.2217" y1="-1185.8822" x2="-11548.5625" y2="-1278.908" gradientTransform="matrix(0.9993 3.650000e-02 3.930000e-02 -1.0773 11639.626 -666.2168)">
		<stop  offset="0" style="stop-color:#4D4E50"/>
		<stop  offset="0" style="stop-color:#414042"/>
		<stop  offset="0.2528" style="stop-color:#424244"/>
		<stop  offset="0.433" style="stop-color:#666769"/>
		<stop  offset="0.5" style="stop-color:#BCBEC0"/>
		<stop  offset="0.5615" style="stop-color:#808285"/>
		<stop  offset="0.6732" style="stop-color:#E3E4E5"/>
		<stop  offset="0.7905" style="stop-color:#939598"/>
		<stop  offset="0.9078" style="stop-color:#414042"/>
		<stop  offset="1" style="stop-color:#58595B"/>
	</linearGradient>
	<path style="fill:url(#SVGID_00000090287658317050827730000013753546997627934859_);" d="M48.5,290.5c-0.8-33.5-1.6-66.9-2.4-100.3
		c1.1,2.3,2.4,4.6,3.5,6.8c0.7,28.8,1.4,57.5,2.1,86.3C50.6,285.7,49.5,288.1,48.5,290.5z"/>
	
		<linearGradient id="SVGID_00000123406248738180904590000006234588152444007103_" gradientUnits="userSpaceOnUse" x1="-11518.9785" y1="-1196.4587" x2="-11515.3008" y2="-1290.6998" gradientTransform="matrix(0.9993 3.650000e-02 3.900000e-02 -1.0686 11639.667 -668.3024)">
		<stop  offset="0" style="stop-color:#4D4E50"/>
		<stop  offset="0" style="stop-color:#414042"/>
		<stop  offset="0.2528" style="stop-color:#424244"/>
		<stop  offset="0.433" style="stop-color:#666769"/>
		<stop  offset="0.5" style="stop-color:#BCBEC0"/>
		<stop  offset="0.5615" style="stop-color:#808285"/>
		<stop  offset="0.6732" style="stop-color:#E3E4E5"/>
		<stop  offset="0.7905" style="stop-color:#939598"/>
		<stop  offset="0.9078" style="stop-color:#414042"/>
		<stop  offset="1" style="stop-color:#58595B"/>
	</linearGradient>
	<path style="fill:url(#SVGID_00000123406248738180904590000006234588152444007103_);" d="M81.8,290.5l-2.4-100.7
		c1.1,2.4,2.2,4.9,3.3,7.3c0.7,28.7,1.4,57.4,2.1,86.1C83.8,285.7,82.8,288.1,81.8,290.5z"/>
	<polygon class="st7" points="75.1,290.5 71.6,283.3 69.5,197.1 72.7,189.7 	"/>
	<polygon class="st7" points="81.8,290.5 78.3,283.4 76.2,197 79.4,189.8 	"/>
	
		<linearGradient id="SVGID_00000085961487683726665300000003325085084309948347_" gradientUnits="userSpaceOnUse" x1="-11525.6133" y1="-1185.0126" x2="-11521.9375" y2="-1278.4613" gradientTransform="matrix(0.9993 3.650000e-02 3.930000e-02 -1.0773 11639.626 -666.2168)">
		<stop  offset="0" style="stop-color:#4D4E50"/>
		<stop  offset="0" style="stop-color:#414042"/>
		<stop  offset="0.2528" style="stop-color:#424244"/>
		<stop  offset="0.433" style="stop-color:#666769"/>
		<stop  offset="0.5" style="stop-color:#BCBEC0"/>
		<stop  offset="0.5615" style="stop-color:#808285"/>
		<stop  offset="0.6732" style="stop-color:#E3E4E5"/>
		<stop  offset="0.7905" style="stop-color:#939598"/>
		<stop  offset="0.9078" style="stop-color:#414042"/>
		<stop  offset="1" style="stop-color:#58595B"/>
	</linearGradient>
	<path style="fill:url(#SVGID_00000085961487683726665300000003325085084309948347_);" d="M75.1,290.5l-2.4-100.8l3.5,7.2
		c0.7,28.8,1.4,57.5,2.1,86.3C77.2,285.7,76.2,288.2,75.1,290.5z"/>
	<polygon class="st7" points="68.4,290.5 64.9,283.2 62.8,197.1 66,189.7 	"/>
	
		<linearGradient id="SVGID_00000010280208354972422430000006497789631885019540_" gradientUnits="userSpaceOnUse" x1="-11532.3027" y1="-1185.2391" x2="-11528.6279" y2="-1278.688" gradientTransform="matrix(0.9993 3.650000e-02 3.930000e-02 -1.0773 11639.626 -666.2168)">
		<stop  offset="0" style="stop-color:#4D4E50"/>
		<stop  offset="0" style="stop-color:#414042"/>
		<stop  offset="0.2528" style="stop-color:#424244"/>
		<stop  offset="0.433" style="stop-color:#666769"/>
		<stop  offset="0.5" style="stop-color:#BCBEC0"/>
		<stop  offset="0.5615" style="stop-color:#808285"/>
		<stop  offset="0.6732" style="stop-color:#E3E4E5"/>
		<stop  offset="0.7905" style="stop-color:#939598"/>
		<stop  offset="0.9078" style="stop-color:#414042"/>
		<stop  offset="1" style="stop-color:#58595B"/>
	</linearGradient>
	<path style="fill:url(#SVGID_00000010280208354972422430000006497789631885019540_);" d="M68.4,290.5L66,189.7l3.5,7.2
		c0.7,28.8,1.4,57.5,2.1,86.3C70.5,285.7,69.5,288.1,68.4,290.5z"/>
	
		<linearGradient id="SVGID_00000092425398523476234510000011173700783323867282_" gradientUnits="userSpaceOnUse" x1="-11538.8965" y1="-1197.139" x2="-11535.2188" y2="-1291.3801" gradientTransform="matrix(0.9993 3.650000e-02 3.900000e-02 -1.0686 11639.667 -668.3024)">
		<stop  offset="0" style="stop-color:#4D4E50"/>
		<stop  offset="0" style="stop-color:#414042"/>
		<stop  offset="0.2528" style="stop-color:#424244"/>
		<stop  offset="0.433" style="stop-color:#666769"/>
		<stop  offset="0.5" style="stop-color:#BCBEC0"/>
		<stop  offset="0.5615" style="stop-color:#808285"/>
		<stop  offset="0.6732" style="stop-color:#E3E4E5"/>
		<stop  offset="0.7905" style="stop-color:#939598"/>
		<stop  offset="0.9078" style="stop-color:#414042"/>
		<stop  offset="1" style="stop-color:#58595B"/>
	</linearGradient>
	<path style="fill:url(#SVGID_00000092425398523476234510000011173700783323867282_);" d="M61.9,290.5l-2.4-100.7
		c1.1,2.4,2.2,4.9,3.3,7.3c0.7,28.7,1.4,57.4,2.1,86.1C63.9,285.7,62.8,288.1,61.9,290.5z"/>
	<polygon class="st7" points="55.2,290.5 51.7,283.3 49.6,197.1 52.8,189.7 	"/>
	<polygon class="st7" points="61.9,290.5 58.4,283.4 56.3,197 59.5,189.8 	"/>
	
		<linearGradient id="SVGID_00000101809544182151255970000010163125617251530422_" gradientUnits="userSpaceOnUse" x1="-11545.5303" y1="-1185.6874" x2="-11541.8555" y2="-1279.1361" gradientTransform="matrix(0.9993 3.650000e-02 3.930000e-02 -1.0773 11639.626 -666.2168)">
		<stop  offset="0" style="stop-color:#4D4E50"/>
		<stop  offset="0" style="stop-color:#414042"/>
		<stop  offset="0.2528" style="stop-color:#424244"/>
		<stop  offset="0.433" style="stop-color:#666769"/>
		<stop  offset="0.5" style="stop-color:#BCBEC0"/>
		<stop  offset="0.5615" style="stop-color:#808285"/>
		<stop  offset="0.6732" style="stop-color:#E3E4E5"/>
		<stop  offset="0.7905" style="stop-color:#939598"/>
		<stop  offset="0.9078" style="stop-color:#414042"/>
		<stop  offset="1" style="stop-color:#58595B"/>
	</linearGradient>
	<path style="fill:url(#SVGID_00000101809544182151255970000010163125617251530422_);" d="M55.2,290.5l-2.4-100.8l3.5,7.2
		c0.7,28.8,1.4,57.5,2.1,86.3C57.3,285.7,56.2,288.2,55.2,290.5z"/>
	
		<linearGradient id="SVGID_00000152248651230167742140000017114358095125346714_" gradientUnits="userSpaceOnUse" x1="-222.0011" y1="2108.8862" x2="-222.0011" y2="2108.8862" gradientTransform="matrix(-1 0 0 1 -138.1615 -1821.7882)">
		<stop  offset="6.980000e-02" style="stop-color:#6D6E71"/>
		<stop  offset="0.1536" style="stop-color:#939598"/>
		<stop  offset="0.2151" style="stop-color:#6D6E71"/>
		<stop  offset="0.3883" style="stop-color:#6D6E71"/>
		<stop  offset="0.4832" style="stop-color:#939598"/>
		<stop  offset="0.6844" style="stop-color:#BCBEC0"/>
		<stop  offset="0.7458" style="stop-color:#808285"/>
		<stop  offset="0.8073" style="stop-color:#B4B4B4"/>
		<stop  offset="0.9134" style="stop-color:#6D6E71"/>
		<stop  offset="1" style="stop-color:#939598"/>
	</linearGradient>
	<path style="fill:url(#SVGID_00000152248651230167742140000017114358095125346714_);" d="M83.8,287.1"/>
</g>
<g class="st19">
	
		<linearGradient id="SVGID_00000181064718496913230720000015144506215268697533_" gradientUnits="userSpaceOnUse" x1="-290.8753" y1="-595.0522" x2="-296.2254" y2="-594.8566" gradientTransform="matrix(-0.9993 -3.650000e-02 3.640000e-02 -0.9977 -172.827 -364.3278)">
		<stop  offset="0" style="stop-color:#D6D5D5"/>
		<stop  offset="0.5251" style="stop-color:#D7D6D6;stop-opacity:0"/>
		<stop  offset="1" style="stop-color:#F1F1F1;stop-opacity:0.8"/>
	</linearGradient>
	<polygon style="fill:url(#SVGID_00000181064718496913230720000015144506215268697533_);" points="101.6,290.3 98.1,283.1 
		96.2,196.9 99.4,189.7 	"/>
	
		<linearGradient id="SVGID_00000075145464951895639130000014357716654291733426_" gradientUnits="userSpaceOnUse" x1="-297.5801" y1="-602.3794" x2="-302.8826" y2="-602.1846" gradientTransform="matrix(-0.9993 -3.650000e-02 3.620000e-02 -0.993 -172.6449 -368.9756)">
		<stop  offset="0" style="stop-color:#D6D5D5"/>
		<stop  offset="0.5251" style="stop-color:#D7D6D6;stop-opacity:0"/>
		<stop  offset="1" style="stop-color:#F1F1F1;stop-opacity:0.8"/>
	</linearGradient>
	<polygon style="fill:url(#SVGID_00000075145464951895639130000014357716654291733426_);" points="108.3,290.5 104.8,283.4 
		102.9,196.8 105.9,189.6 	"/>
	
		<linearGradient id="SVGID_00000096027553083949664210000011852793339175741346_" gradientUnits="userSpaceOnUse" x1="-11505.9609" y1="-1243.1378" x2="-11500.1777" y2="-1242.9403" gradientTransform="matrix(0.9993 3.650000e-02 3.900000e-02 -1.0686 11639.667 -668.3024)">
		<stop  offset="0" style="stop-color:#D6D5D5"/>
		<stop  offset="0.5251" style="stop-color:#D7D6D6;stop-opacity:0"/>
		<stop  offset="1" style="stop-color:#F1F1F1;stop-opacity:0.8"/>
	</linearGradient>
	<path style="fill:url(#SVGID_00000096027553083949664210000011852793339175741346_);" d="M95,290.5l-2.4-100.7l3.5,7.2
		c0.6,28.8,1.2,57.4,1.8,86.2C97,285.6,96,288,95,290.5z"/>
	
		<linearGradient id="SVGID_00000176028411722786764510000005630286562387919008_" gradientUnits="userSpaceOnUse" x1="-11499.2314" y1="-1258.1586" x2="-11493.5146" y2="-1257.9613" gradientTransform="matrix(0.9993 3.650000e-02 3.860000e-02 -1.0576 11639.7617 -670.9338)">
		<stop  offset="0" style="stop-color:#D6D5D5"/>
		<stop  offset="0.5251" style="stop-color:#D7D6D6;stop-opacity:0"/>
		<stop  offset="1" style="stop-color:#F1F1F1;stop-opacity:0.8"/>
	</linearGradient>
	<path style="fill:url(#SVGID_00000176028411722786764510000005630286562387919008_);" d="M101.6,290.3l-2.1-100.6l3.5,7.2
		c0.6,28.8,1.2,57.7,1.8,86.6C103.7,285.7,102.6,288,101.6,290.3z"/>
	
		<linearGradient id="SVGID_00000011012466301125411380000008541204101942065324_" gradientUnits="userSpaceOnUse" x1="-11492.6836" y1="-1265.131" x2="-11486.6006" y2="-1264.9199" gradientTransform="matrix(0.9993 3.650000e-02 3.840000e-02 -1.0526 11639.8135 -672.1451)">
		<stop  offset="0" style="stop-color:#D6D5D5"/>
		<stop  offset="0.5251" style="stop-color:#D7D6D6;stop-opacity:0"/>
		<stop  offset="1" style="stop-color:#F1F1F1;stop-opacity:0.8"/>
	</linearGradient>
	<path style="fill:url(#SVGID_00000011012466301125411380000008541204101942065324_);" d="M108.3,290.5l-2.4-100.9
		c1.3,2.4,2.6,4.9,3.9,7.3c0.3,14.5,0.6,28.8,0.9,43.3c0.3,14.5,0.6,28.9,0.9,43.4C110.5,285.8,109.4,288.2,108.3,290.5z"/>
	
		<linearGradient id="SVGID_00000181775698277276375510000000159119491713010572_" gradientUnits="userSpaceOnUse" x1="-277.4122" y1="-566.5579" x2="-283.0864" y2="-566.354" gradientTransform="matrix(-0.9993 -3.650000e-02 3.710000e-02 -1.0163 -173.5114 -345.8313)">
		<stop  offset="0" style="stop-color:#D6D5D5"/>
		<stop  offset="0.5251" style="stop-color:#D7D6D6;stop-opacity:0"/>
		<stop  offset="1" style="stop-color:#F1F1F1;stop-opacity:0.8"/>
	</linearGradient>
	<polygon style="fill:url(#SVGID_00000181775698277276375510000000159119491713010572_);" points="88.3,290.4 84.8,283.2 82.8,197 
		86,189.7 	"/>
	
		<linearGradient id="SVGID_00000029035482664476414650000011129864284650377373_" gradientUnits="userSpaceOnUse" x1="-284.1542" y1="-579.0815" x2="-289.7805" y2="-578.8777" gradientTransform="matrix(-0.9993 -3.650000e-02 3.680000e-02 -1.0081 -173.2133 -353.9896)">
		<stop  offset="0" style="stop-color:#D6D5D5"/>
		<stop  offset="0.5251" style="stop-color:#D7D6D6;stop-opacity:0"/>
		<stop  offset="1" style="stop-color:#F1F1F1;stop-opacity:0.8"/>
	</linearGradient>
	<polygon style="fill:url(#SVGID_00000029035482664476414650000011129864284650377373_);" points="95,290.5 91.5,283.3 89.5,196.9 
		92.7,189.7 	"/>
	
		<linearGradient id="SVGID_00000037681444065972672890000007750896356486224557_" gradientUnits="userSpaceOnUse" x1="-11512.7188" y1="-1231.3007" x2="-11506.6836" y2="-1231.0962" gradientTransform="matrix(0.9993 3.650000e-02 3.930000e-02 -1.0773 11639.626 -666.2168)">
		<stop  offset="0" style="stop-color:#D6D5D5"/>
		<stop  offset="0.5251" style="stop-color:#D7D6D6;stop-opacity:0"/>
		<stop  offset="1" style="stop-color:#F1F1F1;stop-opacity:0.8"/>
	</linearGradient>
	<path style="fill:url(#SVGID_00000037681444065972672890000007750896356486224557_);" d="M88.3,290.4L86,189.7l3.5,7.2
		c0.7,28.8,1.4,57.5,2.1,86.3C90.5,285.7,89.4,288.1,88.3,290.4z"/>
	
		<linearGradient id="SVGID_00000180353231572238661770000002388043016963523743_" gradientUnits="userSpaceOnUse" x1="-304.5277" y1="-612.7459" x2="-308.2315" y2="-612.6086" gradientTransform="matrix(-0.9993 -3.650000e-02 3.600000e-02 -0.9851 -172.3973 -376.8239)">
		<stop  offset="0" style="stop-color:#D6D5D5"/>
		<stop  offset="0.5251" style="stop-color:#D7D6D6;stop-opacity:0"/>
		<stop  offset="1" style="stop-color:#F1F1F1;stop-opacity:0.8"/>
	</linearGradient>
	<path style="fill:url(#SVGID_00000180353231572238661770000002388043016963523743_);" d="M113.6,285.7c-0.7-0.7-1.3-1.4-2-2.1
		c-0.6-28.9-1.2-57.8-1.8-86.6c1.1-2.3,2.4-4.6,3.5-6.8C113.4,221.9,113.5,253.8,113.6,285.7z"/>
	
		<linearGradient id="SVGID_00000047745314718401730090000011018690942743905452_" gradientUnits="userSpaceOnUse" x1="-238.8484" y1="-568.1299" x2="-243.268" y2="-567.9712" gradientTransform="matrix(-0.9993 -3.650000e-02 3.710000e-02 -1.0163 -173.5114 -345.8313)">
		<stop  offset="0" style="stop-color:#D6D5D5"/>
		<stop  offset="0.5251" style="stop-color:#D7D6D6;stop-opacity:0"/>
		<stop  offset="1" style="stop-color:#F1F1F1;stop-opacity:0.8"/>
	</linearGradient>
	<path style="fill:url(#SVGID_00000047745314718401730090000011018690942743905452_);" d="M48.5,290.4c-1.4-2.6-2.9-5.2-4.3-7.8
		c0-28.7,0-57.4,0-86c0.7-2.2,1.3-4.3,2-6.5C46.9,223.6,47.7,257.1,48.5,290.4z"/>
	
		<linearGradient id="SVGID_00000051383985641590514870000002442083012108287423_" gradientUnits="userSpaceOnUse" x1="-11552.5391" y1="-1232.871" x2="-11546.501" y2="-1232.6664" gradientTransform="matrix(0.9993 3.650000e-02 3.930000e-02 -1.0773 11639.626 -666.2168)">
		<stop  offset="0" style="stop-color:#D6D5D5"/>
		<stop  offset="0.5251" style="stop-color:#D7D6D6;stop-opacity:0"/>
		<stop  offset="1" style="stop-color:#F1F1F1;stop-opacity:0.8"/>
	</linearGradient>
	<path style="fill:url(#SVGID_00000051383985641590514870000002442083012108287423_);" d="M48.5,290.4c-0.8-33.5-1.6-66.9-2.4-100.3
		c1.1,2.3,2.4,4.6,3.5,6.8c0.7,28.8,1.4,57.5,2.1,86.3C50.6,285.7,49.5,288.1,48.5,290.4z"/>
	
		<linearGradient id="SVGID_00000118365194629765847220000007537303385165905555_" gradientUnits="userSpaceOnUse" x1="-11519.1709" y1="-1243.589" x2="-11513.3877" y2="-1243.3915" gradientTransform="matrix(0.9993 3.650000e-02 3.900000e-02 -1.0686 11639.667 -668.3024)">
		<stop  offset="0" style="stop-color:#D6D5D5"/>
		<stop  offset="0.5251" style="stop-color:#D7D6D6;stop-opacity:0"/>
		<stop  offset="1" style="stop-color:#F1F1F1;stop-opacity:0.8"/>
	</linearGradient>
	<path style="fill:url(#SVGID_00000118365194629765847220000007537303385165905555_);" d="M81.8,290.5l-2.4-100.7
		c1.1,2.4,2.2,4.9,3.3,7.3c0.7,28.7,1.4,57.4,2.1,86.1C83.8,285.6,82.8,288.1,81.8,290.5z"/>
	
		<linearGradient id="SVGID_00000130620996512115769800000000713630405653663882_" gradientUnits="userSpaceOnUse" x1="-264.2031" y1="-567.0574" x2="-269.8773" y2="-566.8536" gradientTransform="matrix(-0.9993 -3.650000e-02 3.710000e-02 -1.0163 -173.5114 -345.8313)">
		<stop  offset="0" style="stop-color:#D6D5D5"/>
		<stop  offset="0.5251" style="stop-color:#D7D6D6;stop-opacity:0"/>
		<stop  offset="1" style="stop-color:#F1F1F1;stop-opacity:0.8"/>
	</linearGradient>
	<polygon style="fill:url(#SVGID_00000130620996512115769800000000713630405653663882_);" points="75.1,290.5 71.6,283.2 
		69.5,197.1 72.7,189.7 	"/>
	
		<linearGradient id="SVGID_00000073713296887620602020000007288555275847042188_" gradientUnits="userSpaceOnUse" x1="-270.9454" y1="-579.5975" x2="-276.5717" y2="-579.3937" gradientTransform="matrix(-0.9993 -3.650000e-02 3.680000e-02 -1.0081 -173.2133 -353.9896)">
		<stop  offset="0" style="stop-color:#D6D5D5"/>
		<stop  offset="0.5251" style="stop-color:#D7D6D6;stop-opacity:0"/>
		<stop  offset="1" style="stop-color:#F1F1F1;stop-opacity:0.8"/>
	</linearGradient>
	<polygon style="fill:url(#SVGID_00000073713296887620602020000007288555275847042188_);" points="81.8,290.5 78.3,283.3 76.2,197 
		79.4,189.8 	"/>
	
		<linearGradient id="SVGID_00000058571655789866298640000000529835191755810445_" gradientUnits="userSpaceOnUse" x1="-11525.9268" y1="-1231.8188" x2="-11519.8916" y2="-1231.6144" gradientTransform="matrix(0.9993 3.650000e-02 3.930000e-02 -1.0773 11639.626 -666.2168)">
		<stop  offset="0" style="stop-color:#D6D5D5"/>
		<stop  offset="0.5251" style="stop-color:#D7D6D6;stop-opacity:0"/>
		<stop  offset="1" style="stop-color:#F1F1F1;stop-opacity:0.8"/>
	</linearGradient>
	<path style="fill:url(#SVGID_00000058571655789866298640000000529835191755810445_);" d="M75.1,290.5l-2.4-100.8l3.5,7.2
		c0.7,28.8,1.4,57.5,2.1,86.3C77.2,285.7,76.2,288.1,75.1,290.5z"/>
	
		<linearGradient id="SVGID_00000082361709881539620940000005148679942015924890_" gradientUnits="userSpaceOnUse" x1="-257.4852" y1="-567.2735" x2="-263.1595" y2="-567.0696" gradientTransform="matrix(-0.9993 -3.650000e-02 3.710000e-02 -1.0163 -173.5114 -345.8313)">
		<stop  offset="0" style="stop-color:#D6D5D5"/>
		<stop  offset="0.5251" style="stop-color:#D7D6D6;stop-opacity:0"/>
		<stop  offset="1" style="stop-color:#F1F1F1;stop-opacity:0.8"/>
	</linearGradient>
	<polygon style="fill:url(#SVGID_00000082361709881539620940000005148679942015924890_);" points="68.4,290.4 64.9,283.2 62.8,197 
		66,189.7 	"/>
	
		<linearGradient id="SVGID_00000178924366704840034320000008592816712821532317_" gradientUnits="userSpaceOnUse" x1="-11532.6455" y1="-1231.9758" x2="-11526.6104" y2="-1231.7714" gradientTransform="matrix(0.9993 3.650000e-02 3.930000e-02 -1.0773 11639.626 -666.2168)">
		<stop  offset="0" style="stop-color:#D6D5D5"/>
		<stop  offset="0.5251" style="stop-color:#D7D6D6;stop-opacity:0"/>
		<stop  offset="1" style="stop-color:#F1F1F1;stop-opacity:0.8"/>
	</linearGradient>
	<path style="fill:url(#SVGID_00000178924366704840034320000008592816712821532317_);" d="M68.4,290.4L66,189.7l3.5,7.2
		c0.7,28.8,1.4,57.5,2.1,86.3C70.5,285.7,69.5,288.1,68.4,290.4z"/>
	
		<linearGradient id="SVGID_00000100341881477434862090000000596751246296252308_" gradientUnits="userSpaceOnUse" x1="-11539.0986" y1="-1244.2695" x2="-11533.3154" y2="-1244.072" gradientTransform="matrix(0.9993 3.650000e-02 3.900000e-02 -1.0686 11639.667 -668.3024)">
		<stop  offset="0" style="stop-color:#D6D5D5"/>
		<stop  offset="0.5251" style="stop-color:#D7D6D6;stop-opacity:0"/>
		<stop  offset="1" style="stop-color:#F1F1F1;stop-opacity:0.8"/>
	</linearGradient>
	<path style="fill:url(#SVGID_00000100341881477434862090000000596751246296252308_);" d="M61.9,290.5l-2.4-100.7
		c1.1,2.4,2.2,4.9,3.3,7.3c0.7,28.7,1.4,57.4,2.1,86.1C63.9,285.6,62.8,288.1,61.9,290.5z"/>
	
		<linearGradient id="SVGID_00000077308822801739301960000016011212118505424770_" gradientUnits="userSpaceOnUse" x1="-244.2761" y1="-567.773" x2="-249.9504" y2="-567.5693" gradientTransform="matrix(-0.9993 -3.650000e-02 3.710000e-02 -1.0163 -173.5114 -345.8313)">
		<stop  offset="0" style="stop-color:#D6D5D5"/>
		<stop  offset="0.5251" style="stop-color:#D7D6D6;stop-opacity:0"/>
		<stop  offset="1" style="stop-color:#F1F1F1;stop-opacity:0.8"/>
	</linearGradient>
	<polygon style="fill:url(#SVGID_00000077308822801739301960000016011212118505424770_);" points="55.2,290.5 51.7,283.2 
		49.6,197.1 52.8,189.7 	"/>
	
		<linearGradient id="SVGID_00000006691577299921187590000006980492872208797843_" gradientUnits="userSpaceOnUse" x1="-251.0207" y1="-580.319" x2="-256.6471" y2="-580.1152" gradientTransform="matrix(-0.9993 -3.650000e-02 3.680000e-02 -1.0081 -173.2133 -353.9896)">
		<stop  offset="0" style="stop-color:#D6D5D5"/>
		<stop  offset="0.5251" style="stop-color:#D7D6D6;stop-opacity:0"/>
		<stop  offset="1" style="stop-color:#F1F1F1;stop-opacity:0.8"/>
	</linearGradient>
	<polygon style="fill:url(#SVGID_00000006691577299921187590000006980492872208797843_);" points="61.9,290.5 58.4,283.3 56.3,197 
		59.5,189.8 	"/>
	
		<linearGradient id="SVGID_00000142160388004609409020000009475329199133863103_" gradientUnits="userSpaceOnUse" x1="-11545.8535" y1="-1232.4939" x2="-11539.8184" y2="-1232.2894" gradientTransform="matrix(0.9993 3.650000e-02 3.930000e-02 -1.0773 11639.626 -666.2168)">
		<stop  offset="0" style="stop-color:#D6D5D5"/>
		<stop  offset="0.5251" style="stop-color:#D7D6D6;stop-opacity:0"/>
		<stop  offset="1" style="stop-color:#F1F1F1;stop-opacity:0.8"/>
	</linearGradient>
	<path style="fill:url(#SVGID_00000142160388004609409020000009475329199133863103_);" d="M55.2,290.5l-2.4-100.8l3.5,7.2
		c0.7,28.8,1.4,57.5,2.1,86.3C57.3,285.7,56.2,288.1,55.2,290.5z"/>
	
		<linearGradient id="SVGID_00000045603923300141047030000003528776166760950426_" gradientUnits="userSpaceOnUse" x1="-222.0011" y1="2108.8862" x2="-222.0011" y2="2108.8862" gradientTransform="matrix(-1 0 0 1 -138.1615 -1821.7882)">
		<stop  offset="0" style="stop-color:#D6D5D5"/>
		<stop  offset="0.5251" style="stop-color:#D7D6D6;stop-opacity:0"/>
		<stop  offset="1" style="stop-color:#F1F1F1;stop-opacity:0.8"/>
	</linearGradient>
	<path style="fill:url(#SVGID_00000045603923300141047030000003528776166760950426_);" d="M83.8,287.1"/>
</g>
<linearGradient id="SVGID_00000016050681004713368070000002074835267299728306_" gradientUnits="userSpaceOnUse" x1="-284.0362" y1="2021.9384" x2="-284.0362" y2="2097.3997" gradientTransform="matrix(-1 0 0 1 -138.1615 -1821.7882)">
	<stop  offset="0" style="stop-color:#4D4E50"/>
	<stop  offset="0" style="stop-color:#414042"/>
	<stop  offset="0.3101" style="stop-color:#424244"/>
	<stop  offset="0.433" style="stop-color:#666769"/>
	<stop  offset="0.5" style="stop-color:#BCBEC0"/>
	<stop  offset="0.5615" style="stop-color:#808285"/>
	<stop  offset="0.6732" style="stop-color:#E3E4E5"/>
	<stop  offset="0.7905" style="stop-color:#939598"/>
	<stop  offset="0.9078" style="stop-color:#414042"/>
</linearGradient>
<polygon style="fill:url(#SVGID_00000016050681004713368070000002074835267299728306_);" points="154.7,200.2 137.1,200.2 
	137.1,275.6 154.7,275.6 "/>
<linearGradient id="SVGID_00000163789356077441879990000011339019376149753020_" gradientUnits="userSpaceOnUse" x1="125.2217" y1="36.3472" x2="125.2217" y2="131.9672" gradientTransform="matrix(1 0 0 -1 0 322)">
	<stop  offset="0" style="stop-color:#333333"/>
	<stop  offset="8.399249e-02" style="stop-color:#3A3A3A"/>
	<stop  offset="0.2079" style="stop-color:#4E4E4E"/>
	<stop  offset="0.3557" style="stop-color:#6E6E6E"/>
	<stop  offset="0.4245" style="stop-color:#808080"/>
	<stop  offset="0.4269" style="stop-color:#7F7F7F"/>
	<stop  offset="0.5128" style="stop-color:#636363"/>
	<stop  offset="0.6051" style="stop-color:#4E4E4E"/>
	<stop  offset="0.7074" style="stop-color:#3F3F3F"/>
	<stop  offset="0.8261" style="stop-color:#363636"/>
	<stop  offset="1" style="stop-color:#333333"/>
</linearGradient>
<path style="fill:url(#SVGID_00000163789356077441879990000011339019376149753020_);" d="M137.2,200.1c-8-3.3-15.9-6.7-23.9-10
	c0.1,31.9,0.2,63.7,0.3,95.6c7.8-3.3,15.7-6.7,23.6-10C137.2,250.4,137.2,225.3,137.2,200.1z"/>
<image style="overflow:visible;" width="200" height="200" xlink:href="../../pepsi.png"  transform="matrix(0.1837 0 0 0.1837 79.6991 62.1512)">
</image>
</svg>
