<?xml version="1.0" encoding="utf-8"?>
<!-- Generator: Adobe Illustrator 25.4.1, SVG Export Plug-In . SVG Version: 6.00 Build 0)  -->
<svg version="1.1" id="Слой_1" xmlns="http://www.w3.org/2000/svg" xmlns:xlink="http://www.w3.org/1999/xlink" x="0px" y="0px"
	 viewBox="0 0 100 160" style="enable-background:new 0 0 100 160;" xml:space="preserve">
<style type="text/css">
	.st0{clip-path:url(#SVGID_00000093144491346856383640000012318401810440693135_);}
	.st1{clip-path:url(#SVGID_00000116919252857175395540000003516225464060467355_);enable-background:new    ;}
	.st2{opacity:0.38;enable-background:new    ;}
	.st3{fill:url(#SVGID_00000157990730252060150120000015430089115006215084_);}
	.st4{opacity:0.28;fill:url(#SVGID_00000142150529352223208710000006918181758799281849_);enable-background:new    ;}
	.st5{fill:url(#SVGID_00000112590315531816332970000008964496437702941830_);}
	.st6{fill:url(#SVGID_00000085249403154237326900000012588520664369859254_);}
	.st7{fill:url(#SVGID_00000158742565975697277810000005651886131473027736_);}
	.st8{opacity:0.28;fill:url(#SVGID_00000156583406972904857870000003205690047961773230_);enable-background:new    ;}
	.st9{opacity:0.17;fill:url(#SVGID_00000150780763907808889360000011163688393517886873_);enable-background:new    ;}
	.st10{fill:url(#SVGID_00000116213057473238836190000000429304251170256284_);}
	.st11{opacity:0.28;fill:url(#SVGID_00000041278720710392583100000002994078505681500561_);enable-background:new    ;}
	.st12{fill:url(#SVGID_00000114781225390753310150000017773635394194195379_);}
	.st13{fill:url(#SVGID_00000034084797125021918440000011041249739804170398_);}
	.st14{fill:url(#SVGID_00000109729183802512510730000015266742917377057954_);}
	.st15{fill:url(#SVGID_00000068671734051025465360000014990692230742756244_);}
	.st16{fill:url(#SVGID_00000057138535471141201970000013552494898086260358_);}
	.st17{fill:url(#SVGID_00000181082204545937353980000006132148268388699011_);}
	.st18{fill:url(#SVGID_00000178891201371322438160000012626065448572703921_);}
	.st19{fill:url(#SVGID_00000060731220607050952660000017567747612071601303_);}
	.st20{fill:url(#SVGID_00000047034273133337290480000015446288144442144648_);}
	.st21{fill:url(#SVGID_00000017488042716649402620000006701546008501054088_);}
	.st22{fill:url(#SVGID_00000100352055231797739950000005755351774175237535_);}
	.st23{fill:url(#SVGID_00000107557676049544560220000007945896158077350587_);}
	.st24{fill:url(#SVGID_00000118396603561608869160000015112550851629238936_);}
	.st25{fill:url(#SVGID_00000030476159655709373100000011199347067487284134_);}
	.st26{fill:url(#SVGID_00000109024059493878393590000015195841764869775797_);}
	.st27{fill:#8C8C8C;}
	.st28{fill:none;stroke:#ADADAD;stroke-width:0.5;stroke-miterlimit:10;}
	.st29{fill:#282828;}
	.st30{fill:none;}
	.st31{fill:#282828;stroke:#282828;stroke-width:0.5;stroke-miterlimit:10;}
	.st32{fill:none;stroke:#8C8C8C;stroke-width:0.2;}
	.st33{clip-path:url(#SVGID_00000034797577635276690650000004687806802693819526_);}
	.st34{clip-path:url(#SVGID_00000157986826250720368750000009726876038540899757_);enable-background:new    ;}
	.st35{clip-path:url(#SVGID_00000005982843410354934690000005125584385780109698_);enable-background:new    ;}
	.st36{clip-path:url(#SVGID_00000174559802689782647340000012573588232574473398_);enable-background:new    ;}
	.st37{clip-path:url(#SVGID_00000115472762431281376410000015884136385079393191_);}
	.st38{clip-path:url(#SVGID_00000127725732306164862200000014160371236663362969_);enable-background:new    ;}
	.st39{clip-path:url(#SVGID_00000094610819549028702750000017713437030976202374_);}
	.st40{clip-path:url(#SVGID_00000054955346174874673440000006938691693664604591_);enable-background:new    ;}
	.st41{fill:url(#SVGID_00000159457014200548921910000018340015366418226064_);}
	.st42{fill:url(#SVGID_00000016788362630339319420000003289420231655648686_);}
	.st43{fill:url(#SVGID_00000137827874719990210530000010942332618116976788_);}
	.st44{fill:url(#SVGID_00000043423098788690827940000008065698144968226184_);}
	.st45{fill:url(#SVGID_00000103236268956573980900000018356199523786216351_);}
	.st46{fill:url(#SVGID_00000133506888926819816950000005685581175144847272_);}
	.st47{fill:url(#SVGID_00000024690928837826353850000016725577021336217501_);}
	.st48{fill:url(#SVGID_00000001626933762720408990000007212165785149854885_);}
	.st49{fill:url(#SVGID_00000135682430966422435160000010237945447935946128_);}
</style>
<g>
	<g>
		<defs>
			<path id="SVGID_1_" d="M98.7,121.7c0-0.2,0-0.4,0-0.5c0-0.6,0-1.1,0-1.7l0,0v-9c-0.1,0-2.5-0.4-2.6-0.4h-0.3h-0.3h-0.3
				c0,0,0,0-0.1,0v2.4c-0.8-0.1-1.5-0.2-2.3-0.3c0-0.1,0-0.2,0-0.3c0-0.6,0-1.1,0-1.7c0-0.1,0-0.2,0-0.3c-0.1,0-0.3,0-0.3,0h-0.3
				c0,0-7.6-1.1-7.7-1.1c0-0.5,0-0.9,0-1.4h-7.8v-0.3v-0.2c1.2-0.4,2.4-0.9,3.6-1.3c0.3-0.5,0.7-1,1-1.4c0.4,0.8,0.8,1.5,1.2,2.3
				c0.4-0.8,0.8-1.5,1.1-2.3c0.4,0.8,0.8,1.5,1.2,2.3c0.4-0.8,0.7-1.5,1.1-2.3c0.4,0.8,0.8,1.5,1.2,2.3c0.4-0.8,0.7-1.5,1.1-2.3
				c0.4,0.8,0.8,1.5,1.2,2.3c0.4-0.8,0.7-1.5,1.1-2.3c0.4,0.8,0.8,1.5,1.3,2.3c0.4-0.8,0.8-1.5,1.2-2.3c0.4,0.8,0.8,1.5,1.1,2.3
				c0.4-0.8,0.7-1.5,1.1-2.3c0.4,0.8,0.8,1.5,1.2,2.3c0.7-1.5,1.1-2.3,1.1-2.3l1.1,2.3v-3.7l0,0c0-0.3,0-0.5,0-0.7s0-0.5,0-0.7l0,0
				l0,0c-0.1-3.3-1.1-5.4-1.1-5.4H65.8c-1,2.4-1.2,4.8-1.1,6.9v4.6H62h-1.3l0,0h-0.1c0-0.3,0-0.7,0-1l0,0l0,0
				c-0.1-2.4-0.4-3.9-0.5-4.1H46.6c-0.4,1.8-0.5,3.7-0.5,5.3v1c0,0,0,0-0.1,0l0,0c-0.1,0-0.3,0-0.4,0c-4.8,0.3-8.2-0.1-8.9-0.3
				c-0.2-0.2-0.3-0.5-0.5-0.7l0,0c-0.1-0.1-0.2-0.3-0.3-0.4l-0.1-0.1c-0.2,0.2-0.3,0.4-0.5,0.6c0-0.9,0-1.7,0-2.6c0-0.1,0-0.2,0-0.3
				l0,0c0-0.5-0.1-1-0.2-1.5c0-0.1,0-0.2-0.1-0.4c0,0,0,0,0-0.1c-0.2-0.8-0.4-1.5-0.7-2H5.7c-0.2,0.5-0.3,1.2-0.5,2
				c-0.1,0.3-0.3,1.7-0.5,3c0,0.2,0,0.5-0.1,0.7c-0.2,2.6-0.1,5.1,0,6.8c-0.8,0-1.6,0-2.3,0c0.2,0.7,0.7,2.3,0.7,4.5
				c0,2.3-0.7,4.3-0.7,4.5c-0.1,0.4-0.3,0.9-0.5,1.7c-0.3,1.3-0.3,2-0.3,2.2c0,0.1,0,0.5,0,0.9c0,0.1,0,0.4,0,0.7
				c0,0.5,0.2,1.5,0.2,1.5c0.1,0.5,0.2,1,0.4,1.7h0.1c0.2,0,0.3,0,0.5,0c0.1,0,0.2,0,0.4,0c0.4,0,0.8,0,1.3,0c0.1,0,0.1,0,0.2,0h0.1
				c0.1,2.3,0.1,4.1,0.1,5.3c0,0.1,0,0.3,0,0.4c0,0.1,0,0.3,0,0.4c0,0.1,0,0.3,0,0.4c0,0.6,0,1.1,0,1.6c0.2,2.5,1,4.4,1,4.4h28.7
				c0.1-0.4,0.2-0.7,0.4-1.1c0-0.1,0.1-0.2,0.1-0.3c0.1-0.3,0.2-0.6,0.2-1c0-0.1,0-0.2,0-0.2c0.1-0.3,0.1-0.5,0.1-0.8
				c0-0.1,0-0.1,0-0.2c0-0.3,0.1-0.5,0.1-0.8c0-0.5,0-1,0.1-1.5V136c0.2,0.2,0.3,0.4,0.5,0.6c0.3-0.4,0.6-0.8,0.8-1.2
				c3-0.4,5.9-0.4,8.1-0.3c0.4,0,0.8,0,1.2,0.1l0,0h0.1v1c0,0.6,0,1.2,0,1.7l0,0l0,0c0.1,2.4,0.5,4.2,0.5,4.2h13.7
				c0.3-1.5,0.4-2.9,0.5-4.2l0,0v-1.2H61l0,0h3.9v3.1c-0.3,4.3,1.1,7.9,1.1,7.9h31.8c0.7-2,1-3.8,1.1-5.5l0,0v-4.5l-1.1,2.3
				c0,0-0.4-0.8-1.1-2.3c-0.4,0.8-0.8,1.5-1.2,2.3c-0.4-0.8-0.7-1.5-1.1-2.3c-0.4,0.8-0.8,1.5-1.1,2.3c-0.4-0.8-0.8-1.5-1.2-2.3
				c-0.4,0.8-0.8,1.5-1.3,2.3c-0.4-0.8-0.7-1.5-1.1-2.3c-0.4,0.8-0.8,1.5-1.2,2.3c-0.4-0.8-0.7-1.5-1.1-2.3
				c-0.4,0.8-0.8,1.5-1.2,2.3c-0.4-0.8-0.7-1.5-1.1-2.3c-0.4,0.8-0.8,1.5-1.2,2.3c-0.4-0.8-0.8-1.5-1.1-2.3
				c-0.4,0.8-0.8,1.5-1.2,2.3c-0.3-0.5-0.7-1-1-1.4c-1.2-0.4-2.4-0.9-3.6-1.3c0,0,0-0.1,0-0.2v-0.3h7.8c0-0.5,0-0.9,0-1.4
				c0.1,0,7.7-1.1,7.7-1.1h0.3c0,0,0.2,0,0.3,0c0-0.1,0-0.2,0-0.3c0-0.6,0-1.1,0-1.7c0-0.1,0-0.2,0-0.3c0.8-0.1,1.5-0.2,2.3-0.3v2.4
				h0.1h0.3h0.3h0.3c0.1,0,2.5-0.4,2.6-0.4v-10.3l0,0C98.7,122.5,98.7,122.1,98.7,121.7z"/>
		</defs>
		<clipPath id="SVGID_00000132047743629580180580000005654642566261556912_">
			<use xlink:href="#SVGID_1_"  style="overflow:visible;"/>
		</clipPath>
		<g style="clip-path:url(#SVGID_00000132047743629580180580000005654642566261556912_);">
			<g>
				<defs>
					<rect id="SVGID_00000072240211552357359600000012478032360553002649_" x="-21.3" y="81.3" width="126.5" height="94.9"/>
				</defs>
				<clipPath id="SVGID_00000012450687671034812720000005359197549453116834_">
					<use xlink:href="#SVGID_00000072240211552357359600000012478032360553002649_"  style="overflow:visible;"/>
				</clipPath>
				<g style="clip-path:url(#SVGID_00000012450687671034812720000005359197549453116834_);enable-background:new    ;">
					
						<image style="overflow:visible;enable-background:new    ;" width="1200" height="900" xlink:href="C7F060C9.jpeg"  transform="matrix(-0.1054 0 0 0.1054 105.1749 81.2826)">
					</image>
				</g>
			</g>
		</g>
	</g>
</g>
<path class="st2" d="M3.1,120.4c0.3-1,0.7-2.5,0.4-4C3.2,115,2.6,113.8,2,113c0.9,0,1.8,0,2.7,0c0-1-0.1-4,0-6.4
	c0-0.8,0.1-1.4,0.1-1.5c0.1-1.1,0.3-2,0.5-2.9c0.1-0.4,0.2-1,0.4-1.7c9.6,0,19.2,0,28.8,0c0.3,0.9,0.4,1.1,0.4,1.1
	c0.1,0.4,0.2,0.7,0.3,1c0.2,1,0.3,1.9,0.3,2.4c0,0.6,0.1,1.5,0,2.4c-0.5,0.4-1.1,0.8-1.6,1.2c-0.5-0.6-0.9-1.2-1.4-1.9
	c-0.4,0.6-0.9,1.2-1.3,1.9c-0.5-0.6-1-1.2-1.4-1.9c-0.4,0.6-0.8,1.2-1.3,1.8c-0.5-0.6-1.1-1.2-1.6-1.8c-0.4,0.7-0.7,1.3-1.1,2
	c-1.1,0.5-2.1,1-3.2,1.5c0.1,8,0.2,16,0.3,24c1,0,1.9,0.1,2.9,0.1c0.3,0.8,0.7,1.6,1,2.5c0.5-0.6,1.1-1.2,1.6-1.8
	c0.4,0.6,0.8,1.2,1.3,1.8c0.5-0.6,1-1.2,1.5-1.8c0.4,0.6,0.8,1.2,1.2,1.8c0.5-0.6,0.9-1.2,1.4-1.9c0.6,0.5,1.2,1.1,1.7,1.6
	c0,0,0.1,1.2,0,2.2c-0.1,1.2-0.3,2-0.4,2.7c-0.2,0.7-0.4,1.4-0.6,1.8c-9.6,0-19.2,0-28.7,0c-0.2-0.5-0.4-1.3-0.6-2.2
	c-0.1-0.4-0.2-0.8-0.2-1.2c-0.2-1.1-0.1-2-0.1-2.4c0-1.3,0-3.7,0-6.8H3.7H2.5c-0.1-0.2-0.2-0.5-0.3-0.9c-0.1-0.3-0.2-0.6-0.2-1.1
	c-0.1-0.6-0.1-1.2-0.1-1.2c0-0.2-0.1-1.1,0-2.1c0-0.6,0.2-1.5,0.5-2.6C2.5,121.5,2.7,121.4,3.1,120.4z"/>
<linearGradient id="SVGID_00000145022614613853713210000010573745227253513143_" gradientUnits="userSpaceOnUse" x1="-106.2045" y1="112.992" x2="-106.8654" y2="131.0789" gradientTransform="matrix(1 0 0 -1 109.9476 160)">
	<stop  offset="0" style="stop-color:#999898"/>
	<stop  offset="0.1963" style="stop-color:#4F4F4F"/>
	<stop  offset="0.2507" style="stop-color:#5B5B5B"/>
	<stop  offset="0.3499" style="stop-color:#7C7C7C"/>
	<stop  offset="0.3704" style="stop-color:#848484"/>
	<stop  offset="0.433" style="stop-color:#878787"/>
	<stop  offset="0.5268" style="stop-color:#A0A0A0"/>
	<stop  offset="0.6843" style="stop-color:#C6C6C6"/>
	<stop  offset="0.9078" style="stop-color:#B7B7B7"/>
	<stop  offset="1" style="stop-color:#C6C6C6"/>
</linearGradient>
<path style="fill:url(#SVGID_00000145022614613853713210000010573745227253513143_);" d="M2.3,47c1,0,2,0,2.9,0V28.9
	c-1,0-2,0-2.9,0.1C2.5,29.6,3,31.3,3,33.5c0,2.3-0.7,4.3-0.7,4.5c-0.1,0.4-0.3,0.9-0.5,1.7c-0.3,1.3-0.3,2-0.3,2.2
	c0,0.1,0,0.5,0,0.9c0,0.1,0,0.4,0,0.7c0,0.6,0.1,1.1,0.2,1.5C2,45.8,2.2,46.5,2.3,47z"/>
<linearGradient id="SVGID_00000057835949986866691430000006195306781413295542_" gradientUnits="userSpaceOnUse" x1="-436.9397" y1="101.7028" x2="-435.359" y2="101.7028" gradientTransform="matrix(1 0 0 1 440.0504 -63.7528)">
	<stop  offset="0" style="stop-color:#000000;stop-opacity:0"/>
	<stop  offset="0.3429" style="stop-color:#0A0A0A;stop-opacity:0.3341"/>
	<stop  offset="0.9264" style="stop-color:#252525;stop-opacity:0.9026"/>
	<stop  offset="1" style="stop-color:#292929;stop-opacity:0.9744"/>
</linearGradient>
<rect x="3.1" y="28.9" style="opacity:0.28;fill:url(#SVGID_00000057835949986866691430000006195306781413295542_);enable-background:new    ;" width="1.6" height="18.1"/>
<linearGradient id="SVGID_00000077304006451258037700000004713598724967241392_" gradientUnits="userSpaceOnUse" x1="42.65" y1="108.8" x2="42.65" y2="135.9573" gradientTransform="matrix(1 0 0 -1 0 160)">
	<stop  offset="0" style="stop-color:#999898"/>
	<stop  offset="0.1963" style="stop-color:#4F4F4F"/>
	<stop  offset="0.2507" style="stop-color:#5B5B5B"/>
	<stop  offset="0.3499" style="stop-color:#7C7C7C"/>
	<stop  offset="0.3704" style="stop-color:#848484"/>
	<stop  offset="0.433" style="stop-color:#878787"/>
	<stop  offset="0.5974" style="stop-color:#D9D9D9"/>
	<stop  offset="0.6843" style="stop-color:#FFFFFF"/>
	<stop  offset="0.9078" style="stop-color:#B7B7B7"/>
	<stop  offset="1" style="stop-color:#C6C6C6"/>
</linearGradient>
<path style="fill:url(#SVGID_00000077304006451258037700000004713598724967241392_);" d="M48.7,51.2c0,0-5.9-0.8-12.1,0V24
	c0,0,4.9,0.9,12.1,0L48.7,51.2z"/>
<linearGradient id="SVGID_00000112611042438705868640000014172518801149583028_" gradientUnits="userSpaceOnUse" x1="-28.6961" y1="107.6534" x2="-28.6961" y2="137.1437" gradientTransform="matrix(-1 0 0 -1 6.8539 160)">
	<stop  offset="0" style="stop-color:#636363"/>
	<stop  offset="0.1983" style="stop-color:#444444"/>
	<stop  offset="0.2933" style="stop-color:#383838"/>
	<stop  offset="0.433" style="stop-color:#565656"/>
	<stop  offset="0.6732" style="stop-color:#E5E5E5"/>
	<stop  offset="0.9078" style="stop-color:#7F7E7E"/>
	<stop  offset="1" style="stop-color:#939292"/>
</linearGradient>
<path style="fill:url(#SVGID_00000112611042438705868640000014172518801149583028_);" d="M36,52.3c-0.3-0.4-0.6-0.8-0.9-1.1
	c0-9.1,0-18.2,0-27.3c0.3-0.3,0.6-0.7,0.9-1V52.3z"/>
<linearGradient id="SVGID_00000104686375074997258010000011140788070105214375_" gradientUnits="userSpaceOnUse" x1="-39.8472" y1="107.6534" x2="-39.8472" y2="137.1437" gradientTransform="matrix(1 0 0 -1 76.2472 160)">
	<stop  offset="0" style="stop-color:#7F7F7F"/>
	<stop  offset="0.1983" style="stop-color:#606060"/>
	<stop  offset="0.2933" style="stop-color:#545454"/>
	<stop  offset="0.433" style="stop-color:#757575"/>
	<stop  offset="0.6732" style="stop-color:#FFFFFF"/>
	<stop  offset="0.9078" style="stop-color:#9B9B9B"/>
	<stop  offset="1" style="stop-color:#B2B2B2"/>
</linearGradient>
<path style="fill:url(#SVGID_00000104686375074997258010000011140788070105214375_);" d="M36,52.3c0.3-0.4,0.6-0.8,0.8-1.2
	c0-9,0-18,0-27c-0.3-0.4-0.5-0.8-0.8-1.2V52.3z"/>
<linearGradient id="SVGID_00000135676190473455388430000005374720183052099714_" gradientUnits="userSpaceOnUse" x1="-178.8919" y1="101.3528" x2="-174.9869" y2="101.3528" gradientTransform="matrix(1 0 0 1 225.5993 -63.7528)">
	<stop  offset="0" style="stop-color:#000000;stop-opacity:0"/>
	<stop  offset="1" style="stop-color:#000000;stop-opacity:0.9744"/>
</linearGradient>
<path style="opacity:0.28;fill:url(#SVGID_00000135676190473455388430000005374720183052099714_);enable-background:new    ;" d="
	M50.6,24c-0.7,0.1-1.4,0.2-2.2,0.3c-0.6,0.1-1.2,0.1-1.7,0.1c0,8.8,0,17.6,0,26.4c0.6,0,1.2,0,1.9,0.1s1.4,0.2,2.1,0.3
	C50.6,42.1,50.6,33.1,50.6,24z"/>
<linearGradient id="SVGID_00000163780246583038604720000000774965708939882165_" gradientUnits="userSpaceOnUse" x1="-141.3799" y1="101.4028" x2="-137.0744" y2="101.4028" gradientTransform="matrix(-1 0 0 1 -100.296 -63.7528)">
	<stop  offset="0" style="stop-color:#010101;stop-opacity:0"/>
	<stop  offset="1" style="stop-color:#010101;stop-opacity:0.8"/>
</linearGradient>
<path style="opacity:0.17;fill:url(#SVGID_00000163780246583038604720000000774965708939882165_);enable-background:new    ;" d="
	M36.8,24.1c0.7,0.1,1.4,0.2,2.2,0.3c0.8,0.1,1.5,0.1,2.1,0.1c0,8.8,0,17.6,0,26.4c-0.7,0-1.5,0-2.3,0.1c-0.7,0.1-1.4,0.1-2,0.2
	C36.8,42.1,36.8,33.1,36.8,24.1z"/>
<linearGradient id="SVGID_00000097501466415971316280000000434862511473937808_" gradientUnits="userSpaceOnUse" x1="61.1" y1="107.4549" x2="61.1" y2="136.9111" gradientTransform="matrix(1 0 0 -1 0 160)">
	<stop  offset="0" style="stop-color:#999898"/>
	<stop  offset="0.1963" style="stop-color:#4F4F4F"/>
	<stop  offset="0.2507" style="stop-color:#5B5B5B"/>
	<stop  offset="0.3499" style="stop-color:#7C7C7C"/>
	<stop  offset="0.3704" style="stop-color:#848484"/>
	<stop  offset="0.433" style="stop-color:#878787"/>
	<stop  offset="0.5974" style="stop-color:#D9D9D9"/>
	<stop  offset="0.6843" style="stop-color:#FFFFFF"/>
	<stop  offset="0.9078" style="stop-color:#B7B7B7"/>
	<stop  offset="1" style="stop-color:#C6C6C6"/>
</linearGradient>
<rect x="56.9" y="23.1" style="fill:url(#SVGID_00000097501466415971316280000000434862511473937808_);" width="8.4" height="29.5"/>
<linearGradient id="SVGID_00000109739987682939226330000006099422143573181826_" gradientUnits="userSpaceOnUse" x1="-404.897" y1="527.2837" x2="-396.2287" y2="527.2837" gradientTransform="matrix(-1 0 0 -1 -342.8593 565.0337)">
	<stop  offset="0" style="stop-color:#000000;stop-opacity:0"/>
	<stop  offset="0.3429" style="stop-color:#0A0A0A;stop-opacity:0.3341"/>
	<stop  offset="0.9264" style="stop-color:#252525;stop-opacity:0.9026"/>
	<stop  offset="1" style="stop-color:#292929;stop-opacity:0.9744"/>
</linearGradient>
<polygon style="opacity:0.28;fill:url(#SVGID_00000109739987682939226330000006099422143573181826_);enable-background:new    ;" points="
	53.4,52.4 62,52.4 62,23.1 53.4,23.1 "/>
<g>
	
		<linearGradient id="SVGID_00000105394613038180550910000007921743814706814122_" gradientUnits="userSpaceOnUse" x1="-3.3458" y1="105.3" x2="-3.3458" y2="139" gradientTransform="matrix(-1 0 0 -1 16.7042 160)">
		<stop  offset="2.234637e-02" style="stop-color:#1A1A1A"/>
		<stop  offset="0.9832" style="stop-color:#CCCCCC"/>
	</linearGradient>
	<polygon style="fill:url(#SVGID_00000105394613038180550910000007921743814706814122_);" points="4.7,54.7 35.4,54.7 35.4,21 
		4.7,21 	"/>
	
		<linearGradient id="SVGID_00000013906693897482531470000012217134931910118841_" gradientUnits="userSpaceOnUse" x1="-3.3458" y1="100.8186" x2="-3.3458" y2="111.2788" gradientTransform="matrix(-1 0 0 -1 16.7042 160)">
		<stop  offset="0" style="stop-color:#727272"/>
		<stop  offset="1" style="stop-color:#4C4C4C"/>
	</linearGradient>
	<path style="fill:url(#SVGID_00000013906693897482531470000012217134931910118841_);" d="M5.7,48.7h28.7c0,0,2.3,4.5,0,10.5H5.7
		C5.7,59.2,3.4,53.8,5.7,48.7z"/>
	
		<linearGradient id="SVGID_00000038391157393476170040000015519787419463830177_" gradientUnits="userSpaceOnUse" x1="-3.3458" y1="111.3" x2="-3.3458" y2="133" gradientTransform="matrix(-1 0 0 -1 16.7042 160)">
		<stop  offset="0" style="stop-color:#A0A0A0"/>
		<stop  offset="1" style="stop-color:#777777"/>
	</linearGradient>
	<path style="fill:url(#SVGID_00000038391157393476170040000015519787419463830177_);" d="M5.7,27h28.7c0,0,2.3,9.3,0,21.7H5.7
		C5.7,48.7,3.4,37.6,5.7,27z"/>
	
		<linearGradient id="SVGID_00000060022410105154635700000001725344675771300505_" gradientUnits="userSpaceOnUse" x1="-3.3458" y1="132.9694" x2="-3.3458" y2="143.4295" gradientTransform="matrix(-1 0 0 -1 16.7042 160)">
		<stop  offset="0" style="stop-color:#F4F4F4"/>
		<stop  offset="1" style="stop-color:#BABABA"/>
	</linearGradient>
	<path style="fill:url(#SVGID_00000060022410105154635700000001725344675771300505_);" d="M5.7,16.6h28.7c0,0,2.3,4.5,0,10.5H5.7
		C5.7,27,3.4,21.6,5.7,16.6z"/>
</g>
<g>
	
		<linearGradient id="SVGID_00000083052994897950285820000012368779721948929669_" gradientUnits="userSpaceOnUse" x1="-36.7458" y1="106.3" x2="-36.7458" y2="137.9537" gradientTransform="matrix(-1 0 0 -1 16.7042 160)">
		<stop  offset="2.234637e-02" style="stop-color:#1A1A1A"/>
		<stop  offset="0.9832" style="stop-color:#CCCCCC"/>
	</linearGradient>
	<polygon style="fill:url(#SVGID_00000083052994897950285820000012368779721948929669_);" points="46.1,53.7 60.8,53.7 60.8,22.1 
		46.1,22.1 	"/>
	
		<linearGradient id="SVGID_00000110448262679173806850000007145797985762099887_" gradientUnits="userSpaceOnUse" x1="-36.7458" y1="102.0519" x2="-36.7458" y2="111.877" gradientTransform="matrix(-1 0 0 -1 16.7042 160)">
		<stop  offset="0" style="stop-color:#727272"/>
		<stop  offset="1" style="stop-color:#4C4C4C"/>
	</linearGradient>
	<path style="fill:url(#SVGID_00000110448262679173806850000007145797985762099887_);" d="M46.6,48.1h13.7c0,0,1.1,4.2,0,9.8H46.6
		C46.6,57.9,45.5,52.9,46.6,48.1z"/>
	
		<linearGradient id="SVGID_00000123414449566267257850000001563007485941309373_" gradientUnits="userSpaceOnUse" x1="-36.7458" y1="111.877" x2="-36.7458" y2="132.2507" gradientTransform="matrix(-1 0 0 -1 16.7042 160)">
		<stop  offset="0" style="stop-color:#A0A0A0"/>
		<stop  offset="1" style="stop-color:#777777"/>
	</linearGradient>
	<path style="fill:url(#SVGID_00000123414449566267257850000001563007485941309373_);" d="M46.6,27.7h13.7c0,0,1.1,8.7,0,20.4H46.6
		C46.6,48.1,45.5,37.6,46.6,27.7z"/>
	
		<linearGradient id="SVGID_00000060016925805595007110000006254216065753832892_" gradientUnits="userSpaceOnUse" x1="-36.7458" y1="132.2507" x2="-36.7458" y2="142.0758" gradientTransform="matrix(-1 0 0 -1 16.7042 160)">
		<stop  offset="0" style="stop-color:#F4F4F4"/>
		<stop  offset="1" style="stop-color:#BABABA"/>
	</linearGradient>
	<path style="fill:url(#SVGID_00000060016925805595007110000006254216065753832892_);" d="M46.6,17.9h13.7c0,0,1.1,4.2,0,9.8H46.6
		C46.6,27.7,45.5,22.7,46.6,17.9z"/>
</g>
<g>
	
		<linearGradient id="SVGID_00000118387196253958159670000001415600318755689094_" gradientUnits="userSpaceOnUse" x1="-64.9958" y1="102" x2="-64.9958" y2="143.1" gradientTransform="matrix(-1 0 0 -1 16.7042 160)">
		<stop  offset="2.234637e-02" style="stop-color:#1A1A1A"/>
		<stop  offset="0.9832" style="stop-color:#CCCCCC"/>
	</linearGradient>
	<polygon style="fill:url(#SVGID_00000118387196253958159670000001415600318755689094_);" points="64.7,58 98.7,58 98.7,16.9 
		64.7,16.9 	"/>
	
		<linearGradient id="SVGID_00000093155892221892019840000013732136697379196293_" gradientUnits="userSpaceOnUse" x1="-64.9736" y1="96.5" x2="-64.9736" y2="109.2516" gradientTransform="matrix(-1 0 0 -1 16.7042 160)">
		<stop  offset="0" style="stop-color:#727272"/>
		<stop  offset="1" style="stop-color:#4C4C4C"/>
	</linearGradient>
	<path style="fill:url(#SVGID_00000093155892221892019840000013732136697379196293_);" d="M65.8,50.7h31.8c0,0,2.5,5.5,0,12.8H65.8
		C65.8,63.5,63.2,56.9,65.8,50.7z"/>
	
		<linearGradient id="SVGID_00000062913479769526584810000005574389568576467127_" gradientUnits="userSpaceOnUse" x1="-64.9736" y1="109.2579" x2="-64.9736" y2="135.7" gradientTransform="matrix(-1 0 0 -1 16.7042 160)">
		<stop  offset="0" style="stop-color:#A0A0A0"/>
		<stop  offset="1" style="stop-color:#777777"/>
	</linearGradient>
	<path style="fill:url(#SVGID_00000062913479769526584810000005574389568576467127_);" d="M65.8,24.3h31.8c0,0,2.5,11.3,0,26.4H65.8
		C65.8,50.7,63.2,37.1,65.8,24.3z"/>
	
		<linearGradient id="SVGID_00000013167717056912143850000003686494721484046522_" gradientUnits="userSpaceOnUse" x1="-64.9736" y1="135.7" x2="-64.9736" y2="148.4516" gradientTransform="matrix(-1 0 0 -1 16.7042 160)">
		<stop  offset="0" style="stop-color:#F4F4F4"/>
		<stop  offset="1" style="stop-color:#BABABA"/>
	</linearGradient>
	<path style="fill:url(#SVGID_00000013167717056912143850000003686494721484046522_);" d="M65.8,11.5h31.8c0,0,2.5,5.5,0,12.8H65.8
		C65.8,24.3,63.2,17.7,65.8,11.5z"/>
</g>
<linearGradient id="SVGID_00000093156250363276834040000013786734054661820334_" gradientUnits="userSpaceOnUse" x1="19.6" y1="26.4" x2="19.6" y2="26.4" gradientTransform="matrix(1 0 0 -1 0 160)">
	<stop  offset="0" style="stop-color:#808285"/>
	<stop  offset="0.2039" style="stop-color:#424244"/>
	<stop  offset="0.3035" style="stop-color:#464648"/>
	<stop  offset="0.4018" style="stop-color:#525253"/>
	<stop  offset="0.4888" style="stop-color:#636363"/>
	<stop  offset="0.6229" style="stop-color:#666666"/>
	<stop  offset="0.7905" style="stop-color:#959696"/>
	<stop  offset="0.8351" style="stop-color:#747575"/>
	<stop  offset="0.919" style="stop-color:#919191"/>
	<stop  offset="1" style="stop-color:#676868"/>
</linearGradient>
<path style="fill:url(#SVGID_00000093156250363276834040000013786734054661820334_);" d="M19.6,133.6"/>
<linearGradient id="SVGID_00000021798379548757725580000004443784417585947779_" gradientUnits="userSpaceOnUse" x1="28.7" y1="49.4" x2="28.7" y2="49.4" gradientTransform="matrix(1 0 0 -1 0 160)">
	<stop  offset="0" style="stop-color:#444444"/>
	<stop  offset="8.097430e-02" style="stop-color:#5B5B5B"/>
	<stop  offset="0.2486" style="stop-color:#3A3A3A"/>
	<stop  offset="0.3205" style="stop-color:#3E3E3E"/>
	<stop  offset="0.3898" style="stop-color:#494949"/>
	<stop  offset="0.458" style="stop-color:#5D5D5D"/>
	<stop  offset="0.4832" style="stop-color:#666666"/>
	<stop  offset="0.6844" style="stop-color:#474747"/>
	<stop  offset="0.8352" style="stop-color:#636363"/>
</linearGradient>
<path style="fill:url(#SVGID_00000021798379548757725580000004443784417585947779_);" d="M28.7,110.6"/>
<linearGradient id="SVGID_00000015336176478932183510000009824950757855064233_" gradientUnits="userSpaceOnUse" x1="28.8" y1="217.2502" x2="28.8" y2="217.2502" gradientTransform="matrix(1 0 0 1 0 -82.0502)">
	<stop  offset="0" style="stop-color:#444444"/>
	<stop  offset="8.097430e-02" style="stop-color:#5B5B5B"/>
	<stop  offset="0.2486" style="stop-color:#3A3A3A"/>
	<stop  offset="0.3205" style="stop-color:#3E3E3E"/>
	<stop  offset="0.3898" style="stop-color:#494949"/>
	<stop  offset="0.458" style="stop-color:#5D5D5D"/>
	<stop  offset="0.4832" style="stop-color:#666666"/>
	<stop  offset="0.6844" style="stop-color:#474747"/>
	<stop  offset="0.8352" style="stop-color:#636363"/>
</linearGradient>
<path style="fill:url(#SVGID_00000015336176478932183510000009824950757855064233_);" d="M28.8,135.2"/>
<path class="st27" d="M34.6,130.7v-1.9c-10.7,0-21.3,0-32,0c0,0.2,0.1,0.5,0.2,0.7c0.1,0.4,0.2,0.8,0.3,1.2
	C13.6,130.6,24.1,130.6,34.6,130.7z"/>
<path class="st28" d="M36.7,108.1c-0.3-0.4-0.5-0.8-0.8-1.2c-0.7,0.6-1.4,1.1-2.1,1.7c-0.5-0.6-0.9-1.2-1.4-1.9
	c-0.4,0.6-0.9,1.2-1.3,1.9c-0.5-0.6-1-1.2-1.4-1.9c-0.4,0.6-0.8,1.2-1.3,1.8c-0.5-0.6-1.1-1.2-1.6-1.8c-0.3,0.6-0.6,1.1-0.9,1.7"/>
<rect x="25.1" y="109" class="st29" width="0.2" height="0.3"/>
<path d="M41.9,140.7"/>
<path class="st30" d="M20.4,110.4"/>
<path class="st31" d="M22.4,108.6"/>
<path class="st31" d="M22.1,110.2"/>
<path class="st32" d="M14,112.6"/>
<path class="st30" d="M26.6,111.5"/>
<path class="st31" d="M18,111c-0.6,0.6-1.8,1.6-3.7,2c-0.4,0.1-0.8,0.1-1.1,0.1c1.2-0.8,2.5-1.6,3.7-2.4c0-0.3,0-0.5,0-0.8l0,0
	c0-0.2,0-0.9,0-0.9l0,0l0,0c0.2,0,0.4,0,0.6,0c0.6,0,1.2,0,1.8,0c0.4,0,0.8,0,1.2,0c0.2,0,0.2,0,0.2,0s1.2-1.1,1.7-1.6
	c0.4,0.6,0.9,1.1,1.3,1.7l1.4-2c0.6,0.9,0.9,1.4,0.9,1.4l0,0v0.8l0,0c0,0,0,0-0.8,0.4c0,0.8,0,1.7,0,2.5c-0.3,0-0.7,0.1-1,0.1
	C22.1,112,20,111.5,18,111z"/>
<polygon class="st29" points="31.8,112.2 36.2,113 31.8,113 "/>
<path class="st30" d="M30.8,112.9c-0.5,0-0.9,0-1.4,0c0.5,0.2,0.9,0.4,1.4,0.6C30.8,113.3,30.8,113.1,30.8,112.9z"/>
<path class="st30" d="M28.9,112.9c-0.5,0-0.9,0-1.4,0c0.5,0.2,0.9,0.4,1.4,0.6C28.9,113.3,28.9,113.1,28.9,112.9z"/>
<path class="st31" d="M17.9,132.7c-0.6-0.6-1.8-1.6-3.7-2c-0.4-0.1-0.8-0.1-1.1-0.1c1.2,0.8,2.5,1.6,3.7,2.4c0,0.3,0,0.5,0,0.8l0,0
	c0,0.2,0,0.9,0,0.9l0,0l0,0c0.2,0,0.4,0,0.6,0c0.6,0,1.2,0,1.8,0c0.4,0,0.8,0,1.2,0c0.2,0,0.2,0,0.2,0s1.2,1.1,1.7,1.6
	c0.4-0.6,0.9-1.1,1.3-1.7l1.4,2c0.6-1,0.9-1.5,0.9-1.5l0,0v-0.7l0,0c0,0-0.3-0.2-0.8-0.4c0-0.8,0-1.7,0-2.5c-0.3,0-0.7-0.1-1-0.1
	C22.1,131.8,20,132.2,17.9,132.7z"/>
<g>
	<g>
		<defs>
			<path id="SVGID_00000134246130371938152730000014723092337531956878_" d="M15.2,130.6c-0.1,0-0.4,0-0.6,0.2c0,0-0.1,0.1-0.1,0.2
				c-0.1,0.2,0.1,0.5,0.1,0.5l0,0c0,0,0.7,0.5,1.1,0.7s0.9,0.6,1.6,1c1,0,1.6,0,1.9,0c0,0,1.3,0,1.4,0h0.1h0.1l0,0l0,0l0,0l0,0l0,0
				l0,0l0,0l0,0v-0.1c0-0.1,0-0.1,0-0.2c0-0.2,0-0.2,0-0.3l0,0c0-0.1,0.1-0.2,0.1-0.2s0.1-0.1,0.2-0.1c0.2-0.1,0.5-0.1,0.8-0.1
				c0.2,0,0.3,0,0.5,0c0,0,0.4,0,1.1,0c2.7,0,2.7,0,2.7,0s3.2-0.5,5.4-0.8l0,0l0,0c0-0.5,0-0.5,0-0.7l0,0l0,0c-0.7,0-1.1,0-1.1,0
				c0-0.3,0-0.4,0-0.4l-0.9,0.4c0,0-0.3,0-0.6,0c-0.1,0-0.2,0-0.4,0c0-0.2,0-0.4,0-0.4s-0.3,0.1-0.9,0.4c-1.8,0-3.6,0-5.3,0
				C20,130.6,17.6,130.6,15.2,130.6z"/>
		</defs>
		<clipPath id="SVGID_00000094583342016555362690000007320828385870444431_">
			<use xlink:href="#SVGID_00000134246130371938152730000014723092337531956878_"  style="overflow:visible;"/>
		</clipPath>
		<g style="clip-path:url(#SVGID_00000094583342016555362690000007320828385870444431_);">
			<g>
				<defs>
					<rect id="SVGID_00000094600363355582513560000014553078714963571841_" x="-55.5" y="124.2" width="100" height="67.9"/>
				</defs>
				<clipPath id="SVGID_00000132050496215270913900000007600327404702525362_">
					<use xlink:href="#SVGID_00000094600363355582513560000014553078714963571841_"  style="overflow:visible;"/>
				</clipPath>
				<g style="clip-path:url(#SVGID_00000132050496215270913900000007600327404702525362_);enable-background:new    ;">
					
						<image style="overflow:visible;enable-background:new    ;" width="1212" height="828" xlink:href="C7F060CB.jpeg"  transform="matrix(8.251987e-02 0 0 7.471942e-02 -55.4715 127.2523)">
					</image>
				</g>
			</g>
			<g>
				
					<rect id="SVGID_00000133517274874546767120000015780590552714538161_" x="-55.5" y="124.2" class="st32" width="100" height="67.9"/>
			</g>
		</g>
	</g>
	<g>
		<path id="SVGID_00000132071908089621114330000009416849633606467969_" class="st32" d="M15.2,130.6c-0.1,0-0.4,0-0.6,0.2
			c0,0-0.1,0.1-0.1,0.2c-0.1,0.2,0.1,0.5,0.1,0.5l0,0c0,0,0.7,0.5,1.1,0.7s0.9,0.6,1.6,1c1,0,1.6,0,1.9,0c0,0,1.3,0,1.4,0h0.1h0.1
			l0,0l0,0l0,0l0,0l0,0l0,0l0,0l0,0v-0.1c0-0.1,0-0.1,0-0.2c0-0.2,0-0.2,0-0.3l0,0c0-0.1,0.1-0.2,0.1-0.2s0.1-0.1,0.2-0.1
			c0.2-0.1,0.5-0.1,0.8-0.1c0.2,0,0.3,0,0.5,0c0,0,0.4,0,1.1,0c2.7,0,2.7,0,2.7,0s3.2-0.5,5.4-0.8l0,0l0,0c0-0.5,0-0.5,0-0.7l0,0
			l0,0c-0.7,0-1.1,0-1.1,0c0-0.3,0-0.4,0-0.4l-0.9,0.4c0,0-0.3,0-0.6,0c-0.1,0-0.2,0-0.4,0c0-0.2,0-0.4,0-0.4s-0.3,0.1-0.9,0.4
			c-1.8,0-3.6,0-5.3,0C20,130.6,17.6,130.6,15.2,130.6z"/>
	</g>
</g>
<polygon class="st29" points="31.7,131.3 36.1,130.6 31.8,130.6 "/>
<path class="st28" d="M36.8,135.2c-0.3,0.6-0.6,1.2-0.8,1.8c-0.7-0.7-1.4-1.3-2.1-2c-0.5,0.6-1,1.2-1.6,1.8
	c-0.4-0.6-0.8-1.2-1.3-1.9c-0.5,0.6-1,1.2-1.5,1.9c-0.4-0.6-0.8-1.2-1.3-1.8c-0.5,0.6-1.1,1.2-1.6,1.8c-0.3-0.5-0.5-1.1-0.8-1.6"/>
<g>
	<g>
		<defs>
			<path id="SVGID_00000152241054785452400430000014259870272660601221_" d="M40.2,130.7v-2.3c-12.9,0-25.8-0.1-38.7-0.1
				c0.1,0.5,0.2,1,0.3,1.5c0.1,0.3,0.2,0.6,0.3,0.9C14.8,130.7,27.5,130.7,40.2,130.7z"/>
		</defs>
		<clipPath id="SVGID_00000091012657665434497680000013471221273896523963_">
			<use xlink:href="#SVGID_00000152241054785452400430000014259870272660601221_"  style="overflow:visible;"/>
		</clipPath>
		<g style="clip-path:url(#SVGID_00000091012657665434497680000013471221273896523963_);enable-background:new    ;">
			
				<image style="overflow:visible;enable-background:new    ;" width="1215" height="689" xlink:href="C7F060C9.jpeg"  transform="matrix(0.1089 0 0 8.270768e-02 -73.3717 76.2069)">
			</image>
		</g>
	</g>
</g>
<g>
	<g>
		<defs>
			<path id="SVGID_00000077297042543140772400000002033591681378674846_" d="M40.2,113v2.1c-12.5,0-25,0-37.5,0
				c-0.1-0.3-0.1-0.6-0.2-1c-0.1-0.4-0.3-0.8-0.5-1.1C14.7,113,27.5,113,40.2,113z"/>
		</defs>
		<clipPath id="SVGID_00000054957637567121161730000003658734471877320836_">
			<use xlink:href="#SVGID_00000077297042543140772400000002033591681378674846_"  style="overflow:visible;"/>
		</clipPath>
		
			<g transform="matrix(1 0 0 1 0 0)" style="clip-path:url(#SVGID_00000054957637567121161730000003658734471877320836_);enable-background:new    ;">
			
				<image style="overflow:visible;enable-background:new    ;" width="1213" height="620" xlink:href="C7F060CF.jpeg"  transform="matrix(0.1101 0 0 7.467884e-02 -81.3663 69.954)">
			</image>
		</g>
	</g>
</g>
<g>
	<g>
		<defs>
			<path id="SVGID_00000182488632561030924110000015611515519702942109_" d="M15.2,112.9c-0.1,0-0.4,0-0.6-0.2c0,0-0.1-0.1-0.1-0.2
				c-0.1-0.2,0.1-0.5,0.1-0.5s0.7-0.5,1.1-0.7s0.9-0.6,1.6-1c1,0,1.6,0,1.9,0c0,0,1.3,0,1.4,0h0.1h0.1l0,0l0,0l0,0l0,0l0,0l0,0l0,0
				l0,0v0.1c0,0.1,0,0.1,0,0.2c0,0.2,0,0.2,0,0.3l0,0c0,0.1,0.1,0.2,0.1,0.2s0.1,0.1,0.2,0.1c0.2,0.1,0.5,0.1,0.8,0.1
				c0.2,0,0.3,0,0.5,0c0,0,0.4,0,1.1,0c2.7,0,2.7,0,2.7,0s3.2,0.5,5.4,0.8l0,0l0,0c0,0.5,0,0.5,0,0.7l0,0l0,0c-0.4,0-0.7,0-1.1,0
				l0,0c0,0.3,0.1,0.6,0.1,0.9c-0.4-0.3-0.9-0.6-1.3-0.9l0,0l0,0l0,0c-0.2,0-0.5,0-0.7,0c0,0.3,0,0.6,0,0.9
				c-0.4-0.3-0.9-0.6-1.3-0.9l0,0c-1,0-1.6,0-2,0c-0.1,0-0.5,0-1,0c-0.2,0-0.5,0-0.7,0c-0.5,0-0.9,0-1.2,0c-0.4,0-0.8,0-1.3,0h-2.5
				C18.7,113,16.1,113,15.2,112.9z"/>
		</defs>
		<clipPath id="SVGID_00000169541769537758734430000003436924253371260831_">
			<use xlink:href="#SVGID_00000182488632561030924110000015611515519702942109_"  style="overflow:visible;"/>
		</clipPath>
		<g style="clip-path:url(#SVGID_00000169541769537758734430000003436924253371260831_);">
			<g>
				<defs>
					<rect id="SVGID_00000114042373548665129210000013954860391808091815_" x="-55.5" y="51.4" width="100" height="67.9"/>
				</defs>
				<clipPath id="SVGID_00000057870411242253097830000017737526576112259253_">
					<use xlink:href="#SVGID_00000114042373548665129210000013954860391808091815_"  style="overflow:visible;"/>
				</clipPath>
				<g style="clip-path:url(#SVGID_00000057870411242253097830000017737526576112259253_);enable-background:new    ;">
					
						<image style="overflow:visible;enable-background:new    ;" width="1212" height="828" xlink:href="C7F060C9.jpeg"  transform="matrix(8.251987e-02 0 0 -7.471942e-02 -55.4531 116.329)">
					</image>
				</g>
			</g>
			<g>
				
					<rect id="SVGID_00000000197515937910835170000004413564499475446920_" x="-55.5" y="51.4" class="st32" width="100" height="67.9"/>
			</g>
		</g>
	</g>
	<g>
		<path id="SVGID_00000078029029106428917730000000138254816301176995_" class="st32" d="M15.2,112.9c-0.1,0-0.4,0-0.6-0.2
			c0,0-0.1-0.1-0.1-0.2c-0.1-0.2,0.1-0.5,0.1-0.5s0.7-0.5,1.1-0.7s0.9-0.6,1.6-1c1,0,1.6,0,1.9,0c0,0,1.3,0,1.4,0h0.1h0.1l0,0l0,0
			l0,0l0,0l0,0l0,0l0,0l0,0v0.1c0,0.1,0,0.1,0,0.2c0,0.2,0,0.2,0,0.3l0,0c0,0.1,0.1,0.2,0.1,0.2s0.1,0.1,0.2,0.1
			c0.2,0.1,0.5,0.1,0.8,0.1c0.2,0,0.3,0,0.5,0c0,0,0.4,0,1.1,0c2.7,0,2.7,0,2.7,0s3.2,0.5,5.4,0.8l0,0l0,0c0,0.5,0,0.5,0,0.7l0,0
			l0,0c-0.4,0-0.7,0-1.1,0l0,0c0,0.3,0.1,0.6,0.1,0.9c-0.4-0.3-0.9-0.6-1.3-0.9l0,0l0,0l0,0c-0.2,0-0.5,0-0.7,0c0,0.3,0,0.6,0,0.9
			c-0.4-0.3-0.9-0.6-1.3-0.9l0,0c-1,0-1.6,0-2,0c-0.1,0-0.5,0-1,0c-0.2,0-0.5,0-0.7,0c-0.5,0-0.9,0-1.2,0c-0.4,0-0.8,0-1.3,0h-2.5
			C18.7,113,16.1,113,15.2,112.9z"/>
	</g>
</g>
<g>
	<g>
		<defs>
			<path id="SVGID_00000107583569076610484310000006904169411433766043_" d="M15.2,130.8c-0.1,0-0.4,0-0.6,0.2c0,0-0.1,0.1-0.1,0.2
				c-0.1,0.2,0.1,0.5,0.1,0.5s0.7,0.5,1.1,0.7s0.9,0.6,1.6,1c1,0,1.6,0,1.9,0c0,0,1.3,0,1.4,0h0.1h0.1l0,0l0,0l0,0l0,0l0,0l0,0l0,0
				l0,0v-0.1c0-0.1,0-0.1,0-0.2c0-0.2,0-0.2,0-0.3l0,0c0-0.1,0.1-0.2,0.1-0.2s0.1-0.1,0.2-0.1c0.2-0.1,0.5-0.1,0.8-0.1
				c0.2,0,0.3,0,0.5,0c0,0,0.4,0,1.1,0c2.7,0,2.7,0,2.7,0s3.2-0.5,5.4-0.8l0,0l0,0c0-0.5,0-0.5,0-0.7l0,0l0,0c-0.4,0-0.7,0-1.1,0
				l0,0c0-0.3,0.1-0.6,0.1-0.9c-0.4,0.3-0.9,0.6-1.3,0.9l0,0l0,0l0,0c-0.2,0-0.5,0-0.7,0c0-0.3,0-0.6,0-0.9
				c-0.4,0.3-0.9,0.6-1.3,0.9l0,0c-1,0-1.6,0-2,0c-0.1,0-0.5,0-1,0c-0.2,0-0.5,0-0.7,0c-0.5,0-0.9,0-1.2,0c-0.4,0-0.8,0-1.3,0h-2.5
				C18.7,130.7,16.1,130.7,15.2,130.8z"/>
		</defs>
		<clipPath id="SVGID_00000128460767705401568200000004193351097967106212_">
			<use xlink:href="#SVGID_00000107583569076610484310000006904169411433766043_"  style="overflow:visible;"/>
		</clipPath>
		<g style="clip-path:url(#SVGID_00000128460767705401568200000004193351097967106212_);">
			<g>
				<defs>
					<rect id="SVGID_00000063627155089382132030000012440422353852580997_" x="-55.5" y="124.4" width="100" height="67.9"/>
				</defs>
				<clipPath id="SVGID_00000023269411315647883420000000605435130146188947_">
					<use xlink:href="#SVGID_00000063627155089382132030000012440422353852580997_"  style="overflow:visible;"/>
				</clipPath>
				<g style="clip-path:url(#SVGID_00000023269411315647883420000000605435130146188947_);enable-background:new    ;">
					
						<image style="overflow:visible;enable-background:new    ;" width="1212" height="828" xlink:href="C7F060CB.jpeg"  transform="matrix(8.251987e-02 0 0 7.471942e-02 -55.4715 127.3854)">
					</image>
				</g>
			</g>
			<g>
				
					<rect id="SVGID_00000060747611286851295870000012390962214378427816_" x="-55.5" y="124.4" class="st32" width="100" height="67.9"/>
			</g>
		</g>
	</g>
	<g>
		<path id="SVGID_00000078729569055514672510000002756412154077933239_" class="st32" d="M15.2,130.8c-0.1,0-0.4,0-0.6,0.2
			c0,0-0.1,0.1-0.1,0.2c-0.1,0.2,0.1,0.5,0.1,0.5s0.7,0.5,1.1,0.7s0.9,0.6,1.6,1c1,0,1.6,0,1.9,0c0,0,1.3,0,1.4,0h0.1h0.1l0,0l0,0
			l0,0l0,0l0,0l0,0l0,0l0,0v-0.1c0-0.1,0-0.1,0-0.2c0-0.2,0-0.2,0-0.3l0,0c0-0.1,0.1-0.2,0.1-0.2s0.1-0.1,0.2-0.1
			c0.2-0.1,0.5-0.1,0.8-0.1c0.2,0,0.3,0,0.5,0c0,0,0.4,0,1.1,0c2.7,0,2.7,0,2.7,0s3.2-0.5,5.4-0.8l0,0l0,0c0-0.5,0-0.5,0-0.7l0,0
			l0,0c-0.4,0-0.7,0-1.1,0l0,0c0-0.3,0.1-0.6,0.1-0.9c-0.4,0.3-0.9,0.6-1.3,0.9l0,0l0,0l0,0c-0.2,0-0.5,0-0.7,0c0-0.3,0-0.6,0-0.9
			c-0.4,0.3-0.9,0.6-1.3,0.9l0,0c-1,0-1.6,0-2,0c-0.1,0-0.5,0-1,0c-0.2,0-0.5,0-0.7,0c-0.5,0-0.9,0-1.2,0c-0.4,0-0.8,0-1.3,0h-2.5
			C18.7,130.7,16.1,130.7,15.2,130.8z"/>
	</g>
</g>
<linearGradient id="SVGID_00000019657626591756442430000004163192572511847561_" gradientUnits="userSpaceOnUse" x1="27.1" y1="31.6" x2="27.1" y2="44.96" gradientTransform="matrix(1 0 0 -1 0 160)">
	<stop  offset="0" style="stop-color:#424242"/>
	<stop  offset="0.1068" style="stop-color:#333333"/>
	<stop  offset="0.2055" style="stop-color:#2D2D2D"/>
	<stop  offset="0.3492" style="stop-color:#424244"/>
	<stop  offset="0.6732" style="stop-color:#7F7F7F"/>
	<stop  offset="0.9078" style="stop-color:#414042"/>
</linearGradient>
<path style="fill:url(#SVGID_00000019657626591756442430000004163192572511847561_);" d="M52.7,128.4c-17,0-34.1,0-51.1,0
	c-0.1-0.3-0.1-0.7-0.2-1.1c-0.1-0.5-0.1-1-0.1-1.6c0-0.5,0.1-0.9,0.2-1.3c0.3-1.3,0.6-2.1,0.9-3.1c0.2-0.7,0.6-2,0.6-3.6
	c0-1.1-0.1-2-0.2-2.7c16.7,0,33.4,0,50.1,0"/>
<polygon class="st29" points="26.2,135.1 25.8,135.7 25.5,135.2 "/>
<linearGradient id="SVGID_00000016794376015522971530000017004653905547296941_" gradientUnits="userSpaceOnUse" x1="78.8" y1="32.1" x2="78.8" y2="32.1" gradientTransform="matrix(1 0 0 -1 0 160)">
	<stop  offset="0" style="stop-color:#424242"/>
	<stop  offset="0.1068" style="stop-color:#333333"/>
	<stop  offset="0.2055" style="stop-color:#2D2D2D"/>
	<stop  offset="0.3492" style="stop-color:#424244"/>
	<stop  offset="0.6732" style="stop-color:#7F7F7F"/>
	<stop  offset="0.9078" style="stop-color:#414042"/>
</linearGradient>
<path style="fill:url(#SVGID_00000016794376015522971530000017004653905547296941_);" d="M78.8,127.9"/>
<linearGradient id="SVGID_00000142872362751882689230000006600230395556033926_" gradientUnits="userSpaceOnUse" x1="97.4" y1="26.7" x2="97.4" y2="26.7" gradientTransform="matrix(1 0 0 -1 0 160)">
	<stop  offset="0" style="stop-color:#F4F4F4"/>
	<stop  offset="1" style="stop-color:#BABABA"/>
</linearGradient>
<path style="fill:url(#SVGID_00000142872362751882689230000006600230395556033926_);" d="M97.4,133.3"/>
<linearGradient id="SVGID_00000016774677868437948980000013668058241621120910_" gradientUnits="userSpaceOnUse" x1="76.5" y1="30.0423" x2="76.5" y2="46.5015" gradientTransform="matrix(1 0 0 -1 0 160)">
	<stop  offset="0" style="stop-color:#424242"/>
	<stop  offset="0.1068" style="stop-color:#333333"/>
	<stop  offset="0.2055" style="stop-color:#2D2D2D"/>
	<stop  offset="0.3492" style="stop-color:#424244"/>
	<stop  offset="0.6732" style="stop-color:#7F7F7F"/>
	<stop  offset="0.9078" style="stop-color:#414042"/>
</linearGradient>
<rect x="54.3" y="113.5" style="fill:url(#SVGID_00000016774677868437948980000013668058241621120910_);" width="44.4" height="16.5"/>
<linearGradient id="SVGID_00000027585271757218606610000017620417588889927564_" gradientUnits="userSpaceOnUse" x1="54.3" y1="46.5" x2="54.3" y2="46.5" gradientTransform="matrix(1 0 0 -1 0 160)">
	<stop  offset="0" style="stop-color:#424242"/>
	<stop  offset="0.1068" style="stop-color:#333333"/>
	<stop  offset="0.2055" style="stop-color:#2D2D2D"/>
	<stop  offset="0.3492" style="stop-color:#424244"/>
	<stop  offset="0.6732" style="stop-color:#7F7F7F"/>
	<stop  offset="0.9078" style="stop-color:#414042"/>
</linearGradient>
<path style="fill:url(#SVGID_00000027585271757218606610000017620417588889927564_);" d="M54.3,113.5"/>
<linearGradient id="SVGID_00000098195537973763896000000008316297217177576376_" gradientUnits="userSpaceOnUse" x1="53.4" y1="30.0423" x2="53.4" y2="46.5015" gradientTransform="matrix(1 0 0 -1 0 160)">
	<stop  offset="0" style="stop-color:#383838"/>
	<stop  offset="0.1068" style="stop-color:#2D2D2D"/>
	<stop  offset="0.2055" style="stop-color:#262626"/>
	<stop  offset="0.3492" style="stop-color:#3D3D3D"/>
	<stop  offset="0.6732" style="stop-color:#727272"/>
	<stop  offset="0.9078" style="stop-color:#3A3A3A"/>
</linearGradient>
<path style="fill:url(#SVGID_00000098195537973763896000000008316297217177576376_);" d="M54.3,113.5V130c-0.6-0.5-1.2-1-1.8-1.5
	c0-4.5,0.1-8.9,0.1-13.4C53.2,114.5,53.7,114,54.3,113.5z"/>
<path d="M27.8,97.6"/>
<path d="M34.3,142.8"/>
<linearGradient id="SVGID_00000086656415946889787150000015011509498481492144_" gradientUnits="userSpaceOnUse" x1="4" y1="48.1" x2="4" y2="48.1" gradientTransform="matrix(1 0 0 -1 0 160)">
	<stop  offset="0" style="stop-color:#F4F4F4"/>
	<stop  offset="1" style="stop-color:#BABABA"/>
</linearGradient>
<path style="fill:url(#SVGID_00000086656415946889787150000015011509498481492144_);" d="M4,111.9"/>
<path class="st28" d="M98.7,121.9c0-0.2,0-0.4,0-0.5c0-0.6,0-1.1,0-1.7l0,0v-9c-0.1,0-2.5-0.4-2.6-0.4h-0.3h-0.3h-0.3c0,0,0,0-0.1,0
	v2.4c-0.8-0.1-1.5-0.2-2.3-0.3c0-0.1,0-0.2,0-0.3c0-0.6,0-1.1,0-1.7c0-0.1,0-0.2,0-0.3c-0.1,0-0.3,0-0.3,0h-0.3c0,0-7.6-1.1-7.7-1.1
	c0-0.5,0-0.9,0-1.4h-7.8v-0.3v-0.2c1.2-0.4,2.4-0.9,3.6-1.3c0.3-0.5,0.7-1,1-1.4c0.4,0.8,0.8,1.5,1.2,2.3c0.4-0.8,0.8-1.5,1.1-2.3
	c0.4,0.8,0.8,1.5,1.2,2.3c0.4-0.8,0.7-1.5,1.1-2.3c0.4,0.8,0.8,1.5,1.2,2.3c0.4-0.8,0.7-1.5,1.1-2.3c0.4,0.8,0.8,1.5,1.2,2.3
	c0.4-0.8,0.7-1.5,1.1-2.3c0.4,0.8,0.8,1.5,1.3,2.3c0.4-0.8,0.8-1.5,1.2-2.3c0.4,0.8,0.8,1.5,1.1,2.3c0.4-0.8,0.7-1.5,1.1-2.3
	c0.4,0.8,0.8,1.5,1.2,2.3c0.7-1.5,1.1-2.3,1.1-2.3l1.1,2.3V103l0,0c0-0.3,0-0.5,0-0.7s0-0.5,0-0.7l0,0l0,0c-0.1-3.3-1.1-5.4-1.1-5.4
	H65.8c-1,2.4-1.2,4.8-1.1,6.9v4.6H62h-1.3l0,0h-0.1c0-0.3,0-0.7,0-1l0,0l0,0c-0.1-2.4-0.4-3.9-0.5-4.1H46.6
	c-0.4,1.8-0.5,3.7-0.5,5.3v1c0,0,0,0-0.1,0l0,0c-0.1,0-0.3,0-0.4,0c-4.8,0.3-8.2-0.1-8.9-0.3c-0.2-0.2-0.3-0.5-0.5-0.7l0,0
	c-0.1-0.1-0.2-0.3-0.3-0.4l-0.1-0.1c-0.2,0.2-0.3,0.4-0.5,0.6c0-0.9,0-1.7,0-2.6c0-0.1,0-0.2,0-0.3l0,0c0-0.5-0.1-1-0.2-1.5
	c0-0.1,0-0.2-0.1-0.4c0,0,0,0,0-0.1c-0.2-0.8-0.4-1.5-0.7-2H5.7c-0.2,0.5-0.3,1.2-0.5,2c-0.1,0.3-0.3,1.7-0.5,3c0,0.2,0,0.5-0.1,0.7
	c-0.2,2.6-0.1,5.1,0,6.8c-0.8,0-1.6,0-2.3,0c0.2,0.7,0.7,2.3,0.7,4.5c0,2.3-0.7,4.3-0.7,4.5c-0.1,0.4-0.3,0.9-0.5,1.7
	c-0.3,1.3-0.3,2-0.3,2.2c0,0.1,0,0.5,0,0.9c0,0.1,0,0.4,0,0.7c0,0.5,0.2,1.5,0.2,1.5c0.1,0.5,0.2,1,0.4,1.7h0.1c0.2,0,0.3,0,0.5,0
	c0.1,0,0.2,0,0.4,0c0.4,0,0.8,0,1.3,0c0.1,0,0.1,0,0.2,0h0.1c0.1,2.3,0.1,4.1,0.1,5.3c0,0.1,0,0.3,0,0.4c0,0.1,0,0.3,0,0.4
	c0,0.1,0,0.3,0,0.4c0,0.6,0,1.1,0,1.6c0.2,2.5,1,4.4,1,4.4h28.7c0.1-0.4,0.2-0.7,0.4-1.1c0-0.1,0.1-0.2,0.1-0.3
	c0.1-0.3,0.2-0.6,0.2-1c0-0.1,0-0.2,0-0.2c0.1-0.3,0.1-0.5,0.1-0.8c0-0.1,0-0.1,0-0.2c0-0.3,0.1-0.5,0.1-0.8c0-0.5,0-1,0.1-1.5v-1.7
	c0.2,0.2,0.3,0.4,0.5,0.6c0.3-0.4,0.6-0.8,0.8-1.2c3-0.4,5.9-0.4,8.1-0.3c0.4,0,0.8,0,1.2,0.1l0,0h0.1v1c0,0.6,0,1.2,0,1.7l0,0l0,0
	c0.1,2.4,0.5,4.2,0.5,4.2h13.7c0.3-1.5,0.4-2.9,0.5-4.2l0,0v-1.2H61l0,0h3.9v3.1c-0.3,4.3,1.1,7.9,1.1,7.9h31.8c0.7-2,1-3.8,1.1-5.5
	l0,0v-4.5l-1.1,2.3c0,0-0.4-0.8-1.1-2.3c-0.4,0.8-0.8,1.5-1.2,2.3c-0.4-0.8-0.7-1.5-1.1-2.3c-0.4,0.8-0.8,1.5-1.1,2.3
	c-0.4-0.8-0.8-1.5-1.2-2.3c-0.4,0.8-0.8,1.5-1.3,2.3c-0.4-0.8-0.7-1.5-1.1-2.3c-0.4,0.8-0.8,1.5-1.2,2.3c-0.4-0.8-0.7-1.5-1.1-2.3
	c-0.4,0.8-0.8,1.5-1.2,2.3c-0.4-0.8-0.7-1.5-1.1-2.3c-0.4,0.8-0.8,1.5-1.2,2.3c-0.4-0.8-0.8-1.5-1.1-2.3c-0.4,0.8-0.8,1.5-1.2,2.3
	c-0.3-0.5-0.7-1-1-1.4c-1.2-0.4-2.4-0.9-3.6-1.3c0,0,0-0.1,0-0.2V137h7.8c0-0.5,0-0.9,0-1.4c0.1,0,7.7-1.1,7.7-1.1h0.3
	c0,0,0.2,0,0.3,0c0-0.1,0-0.2,0-0.3c0-0.6,0-1.1,0-1.7c0-0.1,0-0.2,0-0.3c0.8-0.1,1.5-0.2,2.3-0.3v2.4h0.1h0.3h0.3h0.3
	c0.1,0,2.5-0.4,2.6-0.4v-10.3l0,0C98.7,122.7,98.7,122.3,98.7,121.9z"/>
<radialGradient id="SVGID_00000150090532556698654940000005761499483711876787_" cx="93.9772" cy="48.9949" r="1.1495" gradientTransform="matrix(1 0 0 -1 0 160)" gradientUnits="userSpaceOnUse">
	<stop  offset="0" style="stop-color:#353535"/>
	<stop  offset="1" style="stop-color:#282828"/>
</radialGradient>
<circle style="fill:url(#SVGID_00000150090532556698654940000005761499483711876787_);" cx="94" cy="111" r="1.1"/>
<radialGradient id="SVGID_00000160181718813411723000000013989834337219138225_" cx="93.9772" cy="27.2486" r="1.1495" gradientTransform="matrix(1 0 0 -1 0 160)" gradientUnits="userSpaceOnUse">
	<stop  offset="0" style="stop-color:#353535"/>
	<stop  offset="1" style="stop-color:#282828"/>
</radialGradient>
<circle style="fill:url(#SVGID_00000160181718813411723000000013989834337219138225_);" cx="94" cy="132.8" r="1.1"/>
<image style="overflow:visible;" width="200" height="200" xlink:href="../../pepsi.png"  transform="matrix(7.537922e-02 0 0 7.537922e-02 74.1152 29.9717)">
</image>
</svg>
