<?xml version="1.0" encoding="utf-8"?>
<!-- Generator: Adobe Illustrator 25.4.1, SVG Export Plug-In . SVG Version: 6.00 Build 0)  -->
<svg version="1.1" id="Слой_1" xmlns="http://www.w3.org/2000/svg" xmlns:xlink="http://www.w3.org/1999/xlink" x="0px" y="0px"
	 viewBox="0 0 100 160" style="enable-background:new 0 0 100 160;" xml:space="preserve">
<style type="text/css">
	.st0{fill:none;}
	.st1{fill:url(#SVGID_00000178201675785193293400000017481184746504283573_);}
	.st2{opacity:0.28;fill:url(#SVGID_00000013894421045229178590000012354425034143378600_);enable-background:new    ;}
	.st3{fill:url(#SVGID_00000166653908588417860460000008550903635287203464_);}
	.st4{fill:url(#SVGID_00000101786330002009766970000013871837197746262156_);}
	.st5{fill:url(#SVGID_00000159431229138230134280000004216665334328558247_);}
	.st6{opacity:0.28;fill:url(#SVGID_00000124882874967100233270000001567552996081992602_);enable-background:new    ;}
	.st7{opacity:0.28;fill:url(#SVGID_00000096768147110338329550000009918019223635560366_);enable-background:new    ;}
	.st8{fill:url(#SVGID_00000036939477047252509810000014410825499640529327_);}
	.st9{opacity:0.28;fill:url(#SVGID_00000061466612669775880880000003911446055125070008_);enable-background:new    ;}
	.st10{fill:url(#SVGID_00000132071450800419371710000007399487385330457247_);}
	.st11{fill:url(#SVGID_00000036236731399448885040000017397571323181111230_);}
	.st12{fill:url(#SVGID_00000180339167410847360560000012868831624213320860_);}
	.st13{fill:url(#SVGID_00000167378794682947148750000017927169956986795677_);}
	.st14{fill:url(#SVGID_00000132775345092812510210000005284889668725496708_);}
	.st15{fill:url(#SVGID_00000129193627955473111920000006733774084961125807_);}
	.st16{fill:url(#SVGID_00000059295182207049298700000010314877276761798529_);}
	.st17{fill:url(#SVGID_00000094606588350539056510000001621821784835886989_);}
	.st18{fill:url(#SVGID_00000059307295115702865020000004009591269631611558_);}
	.st19{fill:url(#SVGID_00000000931125539793653890000005688841538750885560_);}
	.st20{fill:url(#SVGID_00000118397671895058283230000005336514390070193326_);}
	.st21{fill:url(#SVGID_00000155849018236032617050000016136770027832547225_);}
	.st22{fill:#1C1C1C;}
	.st23{fill:#2D2D2D;}
	.st24{fill:url(#SVGID_00000059294849598731558590000008679610336708230023_);}
	.st25{fill:url(#SVGID_00000042009467177877899530000014699409801484751235_);}
	.st26{fill:url(#SVGID_00000004537588870483459740000003385323095906247063_);}
	.st27{opacity:0.38;enable-background:new    ;}
	.st28{fill:none;stroke:#ADADAD;stroke-width:0.5;stroke-miterlimit:10;}
	.st29{fill:#282828;}
	.st30{fill:#282828;stroke:#282828;stroke-width:0.5;stroke-miterlimit:10;}
	.st31{fill:none;stroke:#8C8C8C;stroke-width:0.2;}
	.st32{clip-path:url(#SVGID_00000150067198198148223530000004832557113239696036_);}
	.st33{clip-path:url(#SVGID_00000147942121074047761270000001191367284807683206_);enable-background:new    ;}
	.st34{fill:url(#SVGID_00000020377101294531863140000004439750147997162118_);}
	.st35{fill:url(#SVGID_00000125560384508904096230000010666475444590418057_);}
	.st36{fill:url(#SVGID_00000012438489182945466920000002551925886871046589_);}
	.st37{fill:url(#SVGID_00000139977715579040169170000011943856429334987427_);}
	.st38{fill:url(#SVGID_00000104671405359102095920000005978274470217589633_);}
	.st39{fill:#848383;}
	
		.st40{fill:url(#SVGID_00000040575297752995245030000006306666430318970791_);stroke:#808080;stroke-width:0.25;stroke-miterlimit:10;}
	.st41{display:none;opacity:0.28;}
	.st42{display:inline;}
	.st43{clip-path:url(#SVGID_00000035498863027330603720000017406751977544627103_);}
	.st44{clip-path:url(#SVGID_00000088134340595256888130000009810990877588167304_);enable-background:new    ;}
	.st45{fill:url(#SVGID_00000070085319017103147860000002076302019738232471_);}
	.st46{fill:url(#SVGID_00000129886729844112653990000000114922219598364576_);}
	
		.st47{fill:url(#SVGID_00000094594682298364844070000016794425747031342523_);stroke:#808080;stroke-width:0.25;stroke-miterlimit:10;}
	.st48{fill:url(#SVGID_00000063606540248624835950000014643045030151315098_);}
</style>
<g>
	<defs>
		<path id="SVGID_1_" d="M99.1,123v-9.9c-0.1,0-2.7-0.4-2.9-0.4h-0.3h-0.3h-0.3h-0.1v2.6c-0.8-0.1-1.7-0.2-2.5-0.4
			c0-0.1,0-0.3,0-0.4c0-0.6,0-1.2,0-1.9c0-0.1,0-0.2,0-0.4c-0.1,0-0.4-0.1-0.4-0.1H92c-0.1,0-8.4-1.2-8.5-1.2c0-0.5,0-1,0-1.5h-8.6
			v-0.3v-0.2c1.3-0.5,2.7-1,4-1.4c0.4-0.5,0.8-1.1,1.1-1.6c0.4,0.8,0.9,1.7,1.3,2.5c0.4-0.8,0.8-1.7,1.2-2.5
			c0.4,0.8,0.9,1.7,1.3,2.5c0.4-0.8,0.8-1.7,1.2-2.5c0.5,0.8,0.9,1.7,1.4,2.5c0.4-0.8,0.8-1.7,1.2-2.5c0.4,0.8,0.8,1.7,1.3,2.5
			c0.4-0.8,0.8-1.7,1.2-2.5c0.5,0.8,0.9,1.7,1.4,2.5c0.4-0.8,0.9-1.7,1.3-2.5c0.4,0.8,0.8,1.7,1.2,2.5c0.4-0.8,0.8-1.7,1.2-2.5
			c0.5,0.8,0.9,1.7,1.4,2.5c0.8-1.7,1.2-2.5,1.2-2.5l1.2,2.5v-4.1c0-0.6,0-1.1,0-1.6l0,0l0,0c-0.2-3.6-1.2-5.9-1.2-5.9H62.9
			c-1.1,2.6-1.4,5.3-1.2,7.6v5.1h-2.9h-1.4c0-0.4,0-0.8,0-1.1l0,0l0,0c-0.1-2.8-0.5-4.6-0.5-4.6H41.6c-0.5,2-0.6,4.1-0.5,5.9v1.2
			c-4.3,0.3-7.3-0.2-8-0.3c-0.2-0.4-0.5-0.9-0.7-1.3c-0.2,0.2-0.3,0.4-0.5,0.6v-1.3c0-0.5,0-0.9,0-1.3l0,0l0,0
			c-0.1-3-0.9-4.9-0.9-4.9H5c-0.8,2.2-1,4.3-0.9,6.2v7.4l0,0l0,0H2.6l0,0c-0.2,0-0.5,0-0.7,0c0.2,0.7,0.7,2.5,0.6,5
			c0,2.6-0.6,4.8-0.6,4.9c-0.1,0.4-0.3,1-0.5,1.9c-0.3,1.4-0.3,2.2-0.3,2.4c0,0.1,0,0.5,0,1c0,0.1,0,0.5,0,0.8
			c0,0.7,0.1,1.3,0.2,1.7c0.1,0.9,0.3,1.7,0.5,2.2c0.2,0,0.5,0,0.7,0c0.5,0,1,0,1.4,0l0,0v6.4c0,0.7,0,1.4,0,2v0.1l0,0
			c0.2,2.9,0.9,5,0.9,5h26c0.6-1.8,0.8-3.5,0.9-5l0,0c0-0.8,0-1.6,0-2.3c0.1,0.1,0.1,0.1,0.2,0.2c0.3-0.6,0.7-1.2,1-1.7
			c3-0.5,5.9-0.4,8-0.3v1.2c0,0.7,0,1.3,0,1.9v0.1l0,0c0.1,2.7,0.5,4.7,0.5,4.7h15.1c0.3-1.7,0.5-3.3,0.5-4.7l0,0v-1.3h4.3v3.4
			c-0.3,4.8,1.2,8.7,1.2,8.7h35.1c0.8-2.2,1.1-4.2,1.2-6.1l0,0v-5l-1.2,2.5c0,0-0.4-0.8-1.2-2.5c-0.5,0.8-0.9,1.7-1.4,2.5
			c-0.4-0.8-0.8-1.7-1.2-2.5c-0.4,0.8-0.8,1.7-1.2,2.5c-0.4-0.8-0.9-1.7-1.3-2.5c-0.5,0.8-0.9,1.7-1.4,2.5c-0.4-0.8-0.8-1.7-1.2-2.5
			c-0.4,0.8-0.8,1.7-1.3,2.5c-0.4-0.8-0.8-1.7-1.2-2.5c-0.5,0.8-0.9,1.7-1.4,2.5c-0.4-0.8-0.8-1.7-1.2-2.5c-0.4,0.8-0.9,1.7-1.3,2.5
			c-0.4-0.8-0.8-1.7-1.2-2.5c-0.4,0.8-0.9,1.7-1.3,2.5c-0.4-0.5-0.8-1.1-1.1-1.6c-1.3-0.5-2.7-1-4-1.4c0,0,0-0.1,0-0.2v-0.3h8.6
			c0-0.5,0-1,0-1.5c0.2,0,8.5-1.2,8.5-1.2h0.3c0,0,0.2,0,0.4-0.1c0-0.1,0-0.2,0-0.4c0-0.6,0-1.2,0-1.9c0-0.1,0-0.3,0-0.4
			c0.8-0.1,1.7-0.2,2.5-0.4v2.6h0.1h0.3h0.3H96c0.2,0,2.8-0.4,2.9-0.4v-11.4C99.2,125.5,99.2,124.2,99.1,123z"/>
	</defs>
	<clipPath id="SVGID_00000103242237104317315220000011005729168456679843_">
		<use xlink:href="#SVGID_1_"  style="overflow:visible;"/>
	</clipPath>
	<g style="clip-path:url(#SVGID_00000103242237104317315220000011005729168456679843_);">
		
			<image style="overflow:visible;" width="600" height="600" xlink:href="../../background.jpg"  transform="matrix(0.2433 0 0 0.2433 -44.7753 24.3149)">
		</image>
	</g>
</g>
<path class="st0" d="M99.1,123v-9.9c-0.8-0.1-3.1-0.5-3.9-0.4v2.6c-0.8-0.1-1.7-0.2-2.5-0.4c0-0.9,0-1.7,0-2.7
	c-0.1,0-0.4-0.1-0.4-0.1H92c-0.1,0-8.4-1.2-8.5-1.2c0-0.5,0-1,0-1.5h-8.6c0-0.1,0-0.4,0-0.5c1.3-0.5,2.7-1,4-1.4
	c0.4-0.5,0.8-1.1,1.1-1.6c0.4,0.8,0.9,1.7,1.3,2.5c0.4-0.8,0.8-1.7,1.2-2.5c0.4,0.8,0.9,1.7,1.3,2.5c0.4-0.8,0.8-1.7,1.2-2.5
	c0.5,0.8,0.9,1.7,1.4,2.5c0.4-0.8,0.8-1.7,1.2-2.5c0.4,0.8,0.8,1.7,1.3,2.5c0.4-0.8,0.8-1.7,1.2-2.5c0.5,0.8,0.9,1.7,1.4,2.5
	c0.4-0.8,0.9-1.7,1.3-2.5c0.4,0.8,0.8,1.7,1.2,2.5c0.4-0.8,0.8-1.7,1.2-2.5c0.5,0.8,0.9,1.7,1.4,2.5c0.8-1.7,1.2-2.5,1.2-2.5
	l1.2,2.5c0-1.1,0-4.6,0-5.7l0,0l0,0c-0.2-3.6-1.2-5.9-1.2-5.9H62.9c-1.9,4.2-1.1,8.5-1.2,12.7c-0.9,0-3.4,0-4.3,0c0-0.4,0-0.8,0-1.1
	l0,0l0,0c-0.1-2.8-0.5-4.6-0.5-4.6H41.6c-0.6,2.5-0.5,4.8-0.5,7.1c-4.3,0.3-7.3-0.2-8-0.3c-0.2-0.4-0.5-0.9-0.7-1.3
	c-0.2,0.2-0.3,0.4-0.5,0.6c0-0.7,0-1.9,0-2.6l0,0l0,0c-0.1-3-0.9-4.9-0.9-4.9H5c-1.5,4-0.7,9.6-0.9,13.6l0,0H2.6c-0.2,0-0.5,0-0.7,0
	c2.2,6.2-2.5,14.1-0.1,19.9c0.7,0,1.5,0,2.1,0c0,1.6,0,7.1,0,8.5l0,0c0.2,2.9,0.9,5,0.9,5h26c0.6-1.8,0.8-3.5,0.9-5l0,0
	c0-0.8,0-1.6,0-2.3c0.1,0.1,0.1,0.1,0.2,0.2c0.3-0.6,0.7-1.2,1-1.7c3-0.5,5.9-0.4,8-0.3c0,1,0,2.3,0,3.2l0,0
	c0.1,2.7,0.5,4.7,0.5,4.7h15.1c0.3-1.7,0.5-3.3,0.5-4.7l0,0v-1.3h4.3c-0.4,3.1,0.7,12.5,1.2,12.1h35.1c0.8-2.2,1.1-4.2,1.2-6.1l0,0
	v-5l-1.2,2.5c0,0-0.4-0.8-1.2-2.5c-0.5,0.8-0.9,1.7-1.4,2.5c-0.4-0.8-0.8-1.7-1.2-2.5c-0.4,0.8-0.8,1.7-1.2,2.5
	c-0.4-0.8-0.9-1.7-1.3-2.5c-0.5,0.8-0.9,1.7-1.4,2.5c-0.4-0.8-0.8-1.7-1.2-2.5c-0.4,0.8-0.8,1.7-1.3,2.5c-0.4-0.8-0.8-1.7-1.2-2.5
	c-0.5,0.8-0.9,1.7-1.4,2.5c-0.4-0.8-0.8-1.7-1.2-2.5c-0.4,0.8-0.9,1.7-1.3,2.5c-0.4-0.8-0.8-1.7-1.2-2.5c-0.4,0.8-0.9,1.7-1.3,2.5
	c-0.4-0.5-0.8-1.1-1.1-1.6c-1.3-0.5-2.7-1-4-1.4c0,0,0-0.4,0-0.5h8.6c0-0.5,0-1,0-1.5c0.2,0,8.5-1.2,8.5-1.2c0.3,0,0.3,0.1,0.7-0.1
	c0-0.8,0-1.8,0-2.7c0.8-0.1,1.7-0.2,2.5-0.4v2.6c0.8,0.1,3.2-0.3,3.9-0.4C98.8,135.6,99.1,125.7,99.1,123z"/>
<linearGradient id="SVGID_00000170250875654285604820000004905867131635753116_" gradientUnits="userSpaceOnUse" x1="-106.5934" y1="115.4737" x2="-107.3537" y2="136.2843" gradientTransform="matrix(1 0 0 -1 109.9476 161.3228)">
	<stop  offset="0" style="stop-color:#999898"/>
	<stop  offset="0.1963" style="stop-color:#4F4F4F"/>
	<stop  offset="0.2507" style="stop-color:#5B5B5B"/>
	<stop  offset="0.3499" style="stop-color:#7C7C7C"/>
	<stop  offset="0.3704" style="stop-color:#848484"/>
	<stop  offset="0.433" style="stop-color:#878787"/>
	<stop  offset="0.5268" style="stop-color:#A0A0A0"/>
	<stop  offset="0.6843" style="stop-color:#C6C6C6"/>
	<stop  offset="0.9078" style="stop-color:#B7B7B7"/>
	<stop  offset="1" style="stop-color:#C6C6C6"/>
</linearGradient>
<path style="fill:url(#SVGID_00000170250875654285604820000004905867131635753116_);" d="M1.9,45.8c0.9,0,1.9,0,2.8,0V25
	c-0.9,0-1.8,0-2.8,0.1c0.2,0.7,0.7,2.7,0.7,5.2c0,2.7-0.6,5-0.7,5.1c-0.1,0.4-0.3,1-0.5,2c-0.3,1.5-0.3,2.3-0.3,2.5c0,0.1,0,0.6,0,1
	c0,0.1,0,0.5,0,0.8c0,0.7,0.1,1.3,0.2,1.7C1.6,44.5,1.8,45.3,1.9,45.8z"/>
<linearGradient id="SVGID_00000084524993792332367180000003147097651204800154_" gradientUnits="userSpaceOnUse" x1="-437.3868" y1="1356.4756" x2="-435.8904" y2="1356.4756" gradientTransform="matrix(1 0 0 1 440.0504 -1321.0757)">
	<stop  offset="0" style="stop-color:#000000;stop-opacity:0"/>
	<stop  offset="0.3429" style="stop-color:#0A0A0A;stop-opacity:0.3341"/>
	<stop  offset="0.9264" style="stop-color:#252525;stop-opacity:0.9026"/>
	<stop  offset="1" style="stop-color:#292929;stop-opacity:0.9744"/>
</linearGradient>
<rect x="2.7" y="25" style="opacity:0.28;fill:url(#SVGID_00000084524993792332367180000003147097651204800154_);enable-background:new    ;" width="1.5" height="20.8"/>
<linearGradient id="SVGID_00000070097532762529776070000010870925776479579015_" gradientUnits="userSpaceOnUse" x1="39" y1="110.6228" x2="39" y2="141.9228" gradientTransform="matrix(1 0 0 -1 0 161.3228)">
	<stop  offset="0" style="stop-color:#999898"/>
	<stop  offset="0.1963" style="stop-color:#4F4F4F"/>
	<stop  offset="0.2507" style="stop-color:#5B5B5B"/>
	<stop  offset="0.3499" style="stop-color:#7C7C7C"/>
	<stop  offset="0.3704" style="stop-color:#848484"/>
	<stop  offset="0.433" style="stop-color:#878787"/>
	<stop  offset="0.5974" style="stop-color:#D9D9D9"/>
	<stop  offset="0.6843" style="stop-color:#FFFFFF"/>
	<stop  offset="0.9078" style="stop-color:#B7B7B7"/>
	<stop  offset="1" style="stop-color:#C6C6C6"/>
</linearGradient>
<path style="fill:url(#SVGID_00000070097532762529776070000010870925776479579015_);" d="M43.4,50.7c0,0-4.3-1-8.8,0V19.4
	c0,0,3.6,1,8.8,0V50.7z"/>
<linearGradient id="SVGID_00000126294222113141239730000001389864119473966749_" gradientUnits="userSpaceOnUse" x1="-208.1961" y1="109.3228" x2="-208.1961" y2="143.3228" gradientTransform="matrix(-1 0 0 -1 -175.1461 161.3228)">
	<stop  offset="0" style="stop-color:#636363"/>
	<stop  offset="0.1983" style="stop-color:#444444"/>
	<stop  offset="0.2933" style="stop-color:#383838"/>
	<stop  offset="0.433" style="stop-color:#565656"/>
	<stop  offset="0.6732" style="stop-color:#E5E5E5"/>
	<stop  offset="0.9078" style="stop-color:#7F7E7E"/>
	<stop  offset="1" style="stop-color:#939292"/>
</linearGradient>
<path style="fill:url(#SVGID_00000126294222113141239730000001389864119473966749_);" d="M33.7,52c-0.4-0.4-0.8-0.9-1.3-1.3
	c0-10.5,0-21,0-31.5c0.4-0.4,0.8-0.8,1.3-1.2V52z"/>
<linearGradient id="SVGID_00000134968496152444227560000012083845565662999950_" gradientUnits="userSpaceOnUse" x1="-42.0472" y1="109.3228" x2="-42.0472" y2="143.2958" gradientTransform="matrix(1 0 0 -1 76.2472 161.3228)">
	<stop  offset="0" style="stop-color:#7F7F7F"/>
	<stop  offset="0.1983" style="stop-color:#606060"/>
	<stop  offset="0.2933" style="stop-color:#545454"/>
	<stop  offset="0.433" style="stop-color:#757575"/>
	<stop  offset="0.6732" style="stop-color:#FFFFFF"/>
	<stop  offset="0.9078" style="stop-color:#9B9B9B"/>
	<stop  offset="1" style="stop-color:#B2B2B2"/>
</linearGradient>
<path style="fill:url(#SVGID_00000134968496152444227560000012083845565662999950_);" d="M33.7,52c0.4-0.5,0.8-0.9,1.1-1.4
	c0-10.4,0-20.8-0.1-31.1c-0.4-0.5-0.7-0.9-1.1-1.4L33.7,52L33.7,52z"/>
<linearGradient id="SVGID_00000060751079755279085510000014108511896058197932_" gradientUnits="userSpaceOnUse" x1="-183.9526" y1="1356.0757" x2="-180.4881" y2="1356.0757" gradientTransform="matrix(1 0 0 1 225.5993 -1321.0757)">
	<stop  offset="0" style="stop-color:#000000;stop-opacity:0"/>
	<stop  offset="1" style="stop-color:#000000;stop-opacity:0.9744"/>
</linearGradient>
<path style="opacity:0.28;fill:url(#SVGID_00000060751079755279085510000014108511896058197932_);enable-background:new    ;" d="
	M45.1,19.4c-0.6,0.1-1.2,0.3-1.9,0.3c-0.5,0.1-1.1,0.1-1.5,0.1c0,10.1,0,20.3,0,30.4c0.5,0,1.1,0.1,1.6,0.1c0.6,0.1,1.3,0.2,1.8,0.3
	C45.1,40.3,45.1,29.8,45.1,19.4z"/>
<linearGradient id="SVGID_00000047743157838048582970000011498639359192710067_" gradientUnits="userSpaceOnUse" x1="-320.7146" y1="1356.1757" x2="-317.1435" y2="1356.1757" gradientTransform="matrix(-1 0 0 1 -282.296 -1321.0757)">
	<stop  offset="0" style="stop-color:#010101;stop-opacity:1.521599e-02"/>
	<stop  offset="0.3743" style="stop-color:#0D0D0D;stop-opacity:0.3742"/>
	<stop  offset="1" style="stop-color:#292929;stop-opacity:0.9744"/>
</linearGradient>
<path style="opacity:0.28;fill:url(#SVGID_00000047743157838048582970000011498639359192710067_);enable-background:new    ;" d="
	M34.8,19.5c0.5,0.1,1.2,0.2,1.8,0.3c0.6,0.1,1.2,0.1,1.8,0.1c0,10.1,0,20.3,0,30.4c-0.6,0-1.2,0-1.9,0.1c-0.6,0.1-1.1,0.2-1.6,0.3
	C34.9,40.2,34.9,29.9,34.8,19.5z"/>
<linearGradient id="SVGID_00000064333990303237392070000005009054404195389342_" gradientUnits="userSpaceOnUse" x1="60.15" y1="109.0607" x2="60.15" y2="142.9607" gradientTransform="matrix(1 0 0 -1 0 161.3228)">
	<stop  offset="0" style="stop-color:#999898"/>
	<stop  offset="0.1963" style="stop-color:#4F4F4F"/>
	<stop  offset="0.2507" style="stop-color:#5B5B5B"/>
	<stop  offset="0.3499" style="stop-color:#7C7C7C"/>
	<stop  offset="0.3704" style="stop-color:#848484"/>
	<stop  offset="0.433" style="stop-color:#878787"/>
	<stop  offset="0.5974" style="stop-color:#D9D9D9"/>
	<stop  offset="0.6843" style="stop-color:#FFFFFF"/>
	<stop  offset="0.9078" style="stop-color:#B7B7B7"/>
	<stop  offset="1" style="stop-color:#C6C6C6"/>
</linearGradient>
<rect x="55.3" y="18.3" style="fill:url(#SVGID_00000064333990303237392070000005009054404195389342_);" width="9.7" height="33.9"/>
<linearGradient id="SVGID_00000109009158539694768520000000135327636159719840_" gradientUnits="userSpaceOnUse" x1="-586.0593" y1="531.1566" x2="-576.0732" y2="531.1566" gradientTransform="matrix(-1 0 0 -1 -524.8593 566.3565)">
	<stop  offset="0" style="stop-color:#000000;stop-opacity:0"/>
	<stop  offset="0.3429" style="stop-color:#0A0A0A;stop-opacity:0.3341"/>
	<stop  offset="0.9264" style="stop-color:#252525;stop-opacity:0.9026"/>
	<stop  offset="1" style="stop-color:#292929;stop-opacity:0.9744"/>
</linearGradient>
<polygon style="opacity:0.28;fill:url(#SVGID_00000109009158539694768520000000135327636159719840_);enable-background:new    ;" points="
	51.2,52.1 61.2,52.1 61.2,18.3 51.2,18.3 "/>
<g>
	
		<linearGradient id="SVGID_00000053546984177885212670000015429880897295185847_" gradientUnits="userSpaceOnUse" x1="-183.6458" y1="107.0703" x2="-183.6458" y2="144.9703" gradientTransform="matrix(-1 0 0 -1 -165.2958 161.3228)">
		<stop  offset="2.234637e-02" style="stop-color:#1A1A1A"/>
		<stop  offset="0.9832" style="stop-color:#CCCCCC"/>
	</linearGradient>
	<polygon style="fill:url(#SVGID_00000053546984177885212670000015429880897295185847_);" points="4.2,54.3 32.5,54.3 32.5,16.4 
		4.2,16.4 	"/>
	
		<linearGradient id="SVGID_00000018951333432835728450000008894891653519365015_" gradientUnits="userSpaceOnUse" x1="-183.5958" y1="102.009" x2="-183.5958" y2="113.7679" gradientTransform="matrix(-1 0 0 -1 -165.2958 161.3228)">
		<stop  offset="0" style="stop-color:#727272"/>
		<stop  offset="1" style="stop-color:#4C4C4C"/>
	</linearGradient>
	<path style="fill:url(#SVGID_00000018951333432835728450000008894891653519365015_);" d="M5.1,47.6h26.4c0,0,2.1,5,0,11.8H5.1
		C5.1,59.3,3,53.3,5.1,47.6z"/>
	
		<linearGradient id="SVGID_00000025405367199703670450000011855126211498439841_" gradientUnits="userSpaceOnUse" x1="-183.5958" y1="113.7679" x2="-183.5958" y2="138.1679" gradientTransform="matrix(-1 0 0 -1 -165.2958 161.3228)">
		<stop  offset="0" style="stop-color:#A0A0A0"/>
		<stop  offset="1" style="stop-color:#777777"/>
	</linearGradient>
	<path style="fill:url(#SVGID_00000025405367199703670450000011855126211498439841_);" d="M5.1,23.2h26.4c0,0,2.1,10.4,0,24.4H5.1
		C5.1,47.6,3,35,5.1,23.2z"/>
	
		<linearGradient id="SVGID_00000130606874151825582900000003009639339307106981_" gradientUnits="userSpaceOnUse" x1="-183.5958" y1="138.1515" x2="-183.5958" y2="149.9103" gradientTransform="matrix(-1 0 0 -1 -165.2958 161.3228)">
		<stop  offset="0" style="stop-color:#F4F4F4"/>
		<stop  offset="1" style="stop-color:#BABABA"/>
	</linearGradient>
	<path style="fill:url(#SVGID_00000130606874151825582900000003009639339307106981_);" d="M5.1,11.4h26.4c0,0,2.1,5,0,11.8H5.1
		C5.1,23.2,3,17.1,5.1,11.4z"/>
</g>
<g>
	
		<linearGradient id="SVGID_00000101805568373698236950000004296429662555370421_" gradientUnits="userSpaceOnUse" x1="-214.2958" y1="108.1228" x2="-214.2958" y2="143.7228" gradientTransform="matrix(-1 0 0 -1 -165.2958 161.3228)">
		<stop  offset="2.234637e-02" style="stop-color:#1A1A1A"/>
		<stop  offset="0.9832" style="stop-color:#CCCCCC"/>
	</linearGradient>
	<polygon style="fill:url(#SVGID_00000101805568373698236950000004296429662555370421_);" points="41.2,53.2 56.8,53.2 56.8,17.6 
		41.2,17.6 	"/>
	
		<linearGradient id="SVGID_00000178176053972413432840000018016493576670753982_" gradientUnits="userSpaceOnUse" x1="-214.2736" y1="103.3956" x2="-214.2736" y2="114.4396" gradientTransform="matrix(-1 0 0 -1 -165.2958 161.3228)">
		<stop  offset="0" style="stop-color:#727272"/>
		<stop  offset="1" style="stop-color:#4C4C4C"/>
	</linearGradient>
	<path style="fill:url(#SVGID_00000178176053972413432840000018016493576670753982_);" d="M41.7,46.9h14.6c0,0,1.1,4.7,0,11H41.7
		C41.7,57.9,40.5,52.2,41.7,46.9z"/>
	
		<linearGradient id="SVGID_00000029003614920563491830000003199440704461712280_" gradientUnits="userSpaceOnUse" x1="-214.2736" y1="114.4228" x2="-214.2736" y2="137.3228" gradientTransform="matrix(-1 0 0 -1 -165.2958 161.3228)">
		<stop  offset="0" style="stop-color:#A0A0A0"/>
		<stop  offset="1" style="stop-color:#777777"/>
	</linearGradient>
	<path style="fill:url(#SVGID_00000029003614920563491830000003199440704461712280_);" d="M41.7,24h14.6c0,0,1.1,9.8,0,22.9H41.7
		C41.7,46.9,40.5,35.1,41.7,24z"/>
	
		<linearGradient id="SVGID_00000173840284301799041100000015548582996743053209_" gradientUnits="userSpaceOnUse" x1="-214.2736" y1="137.341" x2="-214.2736" y2="148.3851" gradientTransform="matrix(-1 0 0 -1 -165.2958 161.3228)">
		<stop  offset="0" style="stop-color:#F4F4F4"/>
		<stop  offset="1" style="stop-color:#BABABA"/>
	</linearGradient>
	<path style="fill:url(#SVGID_00000173840284301799041100000015548582996743053209_);" d="M41.7,12.9h14.6c0,0,1.1,4.7,0,11H41.7
		C41.7,24,40.5,18.3,41.7,12.9z"/>
</g>
<g>
	
		<linearGradient id="SVGID_00000044883669513305375750000011613959021314813607_" gradientUnits="userSpaceOnUse" x1="-245.4458" y1="103.5228" x2="-245.4458" y2="149.3228" gradientTransform="matrix(-1 0 0 -1 -165.2958 161.3228)">
		<stop  offset="2.234637e-02" style="stop-color:#1A1A1A"/>
		<stop  offset="0.9832" style="stop-color:#CCCCCC"/>
	</linearGradient>
	<polygon style="fill:url(#SVGID_00000044883669513305375750000011613959021314813607_);" points="61.2,57.8 99.1,57.8 99.1,12 
		61.2,12 	"/>
	
		<linearGradient id="SVGID_00000070803907113365985500000004248094500196782511_" gradientUnits="userSpaceOnUse" x1="-245.4736" y1="97.4228" x2="-245.4736" y2="111.6228" gradientTransform="matrix(-1 0 0 -1 -165.2958 161.3228)">
		<stop  offset="0" style="stop-color:#727272"/>
		<stop  offset="1" style="stop-color:#4C4C4C"/>
	</linearGradient>
	<path style="fill:url(#SVGID_00000070803907113365985500000004248094500196782511_);" d="M62.5,49.7h35.4c0,0,2.8,6.1,0,14.2H62.5
		C62.5,63.9,59.6,56.6,62.5,49.7z"/>
	
		<linearGradient id="SVGID_00000090993030854909080020000016496142972904730009_" gradientUnits="userSpaceOnUse" x1="-245.4736" y1="111.6228" x2="-245.4736" y2="141.0796" gradientTransform="matrix(-1 0 0 -1 -165.2958 161.3228)">
		<stop  offset="0" style="stop-color:#A0A0A0"/>
		<stop  offset="1" style="stop-color:#777777"/>
	</linearGradient>
	<path style="fill:url(#SVGID_00000090993030854909080020000016496142972904730009_);" d="M62.5,20.2h35.4c0,0,2.8,12.6,0,29.5H62.5
		C62.5,49.7,59.6,34.5,62.5,20.2z"/>
	
		<linearGradient id="SVGID_00000023267215360621973950000015977056549912783004_" gradientUnits="userSpaceOnUse" x1="-245.4736" y1="141.0969" x2="-245.4736" y2="155.2969" gradientTransform="matrix(-1 0 0 -1 -165.2958 161.3228)">
		<stop  offset="0" style="stop-color:#F4F4F4"/>
		<stop  offset="1" style="stop-color:#BABABA"/>
	</linearGradient>
	<path style="fill:url(#SVGID_00000023267215360621973950000015977056549912783004_);" d="M62.5,6h35.4c0,0,2.8,6.1,0,14.2H62.5
		C62.5,20.2,59.6,12.9,62.5,6z"/>
</g>
<ellipse class="st22" cx="71.7" cy="57.9" rx="1.8" ry="1.4"/>
<path class="st23" d="M69.9,57.9c0.2,0.2,0.9,0.5,1.8,0.5s1.5-0.4,1.7-0.5c0,0.1,0,0.3-0.1,0.4c-0.2,0.6-1,0.9-1.7,0.9
	s-1.4-0.3-1.7-1C69.9,58.2,69.9,58,69.9,57.9z"/>
<linearGradient id="SVGID_00000067936223308026336710000005749043582573804675_" gradientUnits="userSpaceOnUse" x1="17.8" y1="22.7228" x2="17.8" y2="22.7228" gradientTransform="matrix(1 0 0 -1 0 161.3228)">
	<stop  offset="0" style="stop-color:#808285"/>
	<stop  offset="0.2039" style="stop-color:#424244"/>
	<stop  offset="0.3035" style="stop-color:#464648"/>
	<stop  offset="0.4018" style="stop-color:#525253"/>
	<stop  offset="0.4888" style="stop-color:#636363"/>
	<stop  offset="0.6229" style="stop-color:#666666"/>
	<stop  offset="0.7905" style="stop-color:#959696"/>
	<stop  offset="0.8351" style="stop-color:#747575"/>
	<stop  offset="0.919" style="stop-color:#919191"/>
	<stop  offset="1" style="stop-color:#676868"/>
</linearGradient>
<path style="fill:url(#SVGID_00000067936223308026336710000005749043582573804675_);" d="M17.8,138.6"/>
<linearGradient id="SVGID_00000137833049308842884380000017240900443823037873_" gradientUnits="userSpaceOnUse" x1="26.3" y1="48.1228" x2="26.3" y2="48.1228" gradientTransform="matrix(1 0 0 -1 0 161.3228)">
	<stop  offset="0" style="stop-color:#444444"/>
	<stop  offset="8.097430e-02" style="stop-color:#5B5B5B"/>
	<stop  offset="0.2486" style="stop-color:#3A3A3A"/>
	<stop  offset="0.3205" style="stop-color:#3E3E3E"/>
	<stop  offset="0.3898" style="stop-color:#494949"/>
	<stop  offset="0.458" style="stop-color:#5D5D5D"/>
	<stop  offset="0.4832" style="stop-color:#666666"/>
	<stop  offset="0.6844" style="stop-color:#474747"/>
	<stop  offset="0.8352" style="stop-color:#636363"/>
</linearGradient>
<path style="fill:url(#SVGID_00000137833049308842884380000017240900443823037873_);" d="M26.3,113.2"/>
<linearGradient id="SVGID_00000072277533420150188200000004879801638376703375_" gradientUnits="userSpaceOnUse" x1="26.3" y1="1479.6731" x2="26.3" y2="1479.6731" gradientTransform="matrix(1 0 0 1 0 -1339.373)">
	<stop  offset="0" style="stop-color:#444444"/>
	<stop  offset="8.097430e-02" style="stop-color:#5B5B5B"/>
	<stop  offset="0.2486" style="stop-color:#3A3A3A"/>
	<stop  offset="0.3205" style="stop-color:#3E3E3E"/>
	<stop  offset="0.3898" style="stop-color:#494949"/>
	<stop  offset="0.458" style="stop-color:#5D5D5D"/>
	<stop  offset="0.4832" style="stop-color:#666666"/>
	<stop  offset="0.6844" style="stop-color:#474747"/>
	<stop  offset="0.8352" style="stop-color:#636363"/>
</linearGradient>
<path style="fill:url(#SVGID_00000072277533420150188200000004879801638376703375_);" d="M26.3,140.3"/>
<path class="st27" d="M2.5,124c0.3-1.1,0.6-2.8,0.4-4.4c-0.2-1.5-0.8-2.8-1.3-3.7c0.8,0,1.6,0,2.5,0c0-0.5,0-1.4,0-2.5
	c0-2.7,0-4.1,0-4.5c0-0.9-0.1-2.1,0.1-3.4c0.1-0.4,0.2-1,0.2-1.1c0.2-1.1,0.4-1.6,0.4-1.7c0.1-0.3,0.2-0.5,0.2-0.6
	c8.7,0,17.4,0,26.1,0c0.1,0.4,0.3,0.9,0.5,1.6c0.2,1,0.3,1.9,0.4,2.5c0.1,0.8,0.1,2,0.1,3.3c-0.3,0.5-0.6,1-0.9,1.5
	c-0.4-0.7-0.9-1.4-1.3-2.1c-0.4,0.7-0.8,1.4-1.2,2.1c-0.4-0.7-0.9-1.4-1.3-2.1c-0.4,0.7-0.8,1.3-1.2,2c-0.5-0.7-1-1.3-1.5-2
	c-0.3,0.7-0.7,1.5-1,2.2c-1,0.5-2,1.1-3,1.6c0.1,8.8,0.2,17.6,0.3,26.4c0.9,0,1.8,0.1,2.7,0.1c0.3,0.9,0.6,1.8,0.9,2.7
	c0.5-0.7,1-1.3,1.5-2c0.4,0.7,0.8,1.3,1.2,2c0.5-0.7,0.9-1.3,1.4-2c0.4,0.7,0.8,1.3,1.1,2c0.4-0.7,0.9-1.4,1.3-2.1
	c0.3,0.6,0.7,1.2,1,1.7l0,0c0,0,0,1.2,0,2.1c-0.1,1.9-0.4,3.3-0.5,3.7c-0.2,0.7-0.3,1.3-0.4,1.6c-8.7,0-17.4,0-26,0
	c-0.2-0.6-0.4-1.4-0.6-2.4c-0.3-1.7-0.3-2.9-0.3-3.9c0-2.3,0-4.7,0-7.2c-0.3,0-0.7,0-1,0c-0.4,0-0.8,0-1.2,0
	c-0.1-0.4-0.2-0.8-0.3-1.3c-0.1-0.4-0.2-0.7-0.2-1.2c-0.1-0.6-0.1-1.3-0.1-1.3c0-0.2-0.1-1.3,0-2.3c0-0.6,0.2-1.6,0.5-2.9
	C2,125.3,2.2,125.1,2.5,124z"/>
<path class="st28" d="M33.1,110.5c-0.2-0.5-0.5-0.9-0.7-1.4l0,0l0,0c-0.5,0.6-0.9,1.3-1.4,1.9c-0.4-0.7-0.9-1.4-1.3-2.1
	c-0.4,0.7-0.8,1.4-1.2,2.1c-0.4-0.7-0.9-1.4-1.3-2.1c-0.4,0.7-0.8,1.3-1.2,2c-0.5-0.7-1-1.3-1.5-2c-0.3,0.6-0.6,1.3-0.9,1.9"/>
<rect x="22.9" y="111.4" class="st29" width="0.2" height="0.3"/>
<path d="M36.5,146.4"/>
<path class="st0" d="M18.5,113"/>
<path class="st30" d="M20.4,111"/>
<path class="st30" d="M20.1,112.7"/>
<path class="st31" d="M12.7,115.4"/>
<path class="st0" d="M24.3,114.2"/>
<path class="st30" d="M16.3,113.7c-0.5,0.6-1.6,1.8-3.4,2.2c-0.4,0.1-0.7,0.1-1,0.2c1.2-0.9,2.3-1.7,3.5-2.6c0-0.3,0-0.6,0-0.9l0,0
	c0-0.2,0-1,0-1l0,0l0,0c0.2,0,0.4,0,0.5,0c0.5,0,1.1,0,1.6,0c0.4,0,0.8,0,1.1,0c0.2,0,0.2,0,0.2,0s1.1-1.2,1.6-1.8
	c0.4,0.6,0.8,1.2,1.2,1.9l1.3-2.2c0.5,1,0.8,1.5,0.8,1.5l0,0v0.9l0,0c0,0,0,0-0.8,0.5c0,0.9,0,1.9,0,2.8c-0.3,0-0.6,0.1-0.9,0.1
	C20.1,114.7,18.2,114.2,16.3,113.7z"/>
<polygon class="st29" points="29.1,115 33.2,115.8 29.1,115.8 "/>
<path class="st0" d="M28.2,115.8c-0.4,0-0.8,0-1.2,0c0.4,0.2,0.8,0.4,1.2,0.6C28.2,116.2,28.2,116,28.2,115.8z"/>
<path class="st0" d="M26.4,115.8c-0.4,0-0.8,0-1.2,0c0.4,0.2,0.8,0.4,1.2,0.6C26.4,116.2,26.4,116,26.4,115.8z"/>
<path class="st30" d="M16.3,137.5c-0.5-0.6-1.6-1.8-3.4-2.2c-0.4-0.1-0.7-0.1-1-0.2c1.2,0.9,2.3,1.7,3.5,2.6c0,0.3,0,0.6,0,0.9l0,0
	c0,0.2,0,1,0,1l0,0l0,0c0.2,0,0.4,0,0.5,0c0.5,0,1.1,0,1.6,0c0.4,0,0.8,0,1.1,0c0.2,0,0.2,0,0.2,0s1.1,1.2,1.6,1.8
	c0.4-0.6,0.8-1.2,1.2-1.9l1.3,2.2c0.6-1.1,0.9-1.7,0.9-1.7l0,0v-0.8l0,0c0,0-0.3-0.2-0.7-0.5c0-0.9,0-1.9,0-2.8
	c-0.3,0-0.6-0.1-0.9-0.1C20.1,136.5,18.2,137,16.3,137.5z"/>
<g>
	<g>
		<defs>
			<path id="SVGID_00000173873996137686440610000000015063228835316109_" d="M13.7,135.3c-0.1,0-0.3,0-0.5,0.2c0,0-0.1,0.1-0.1,0.2
				c-0.1,0.3,0.1,0.5,0.1,0.5l0,0c0,0,0.7,0.5,1,0.8s0.8,0.6,1.5,1.1c0.9,0,1.5,0,1.8,0c0,0,1.2,0,1.3,0h0.1H19l0,0l0,0l0,0l0,0l0,0
				l0,0l0,0l0,0V138c0-0.1,0-0.1,0-0.3s0-0.3,0-0.3l0,0c0-0.2,0.1-0.3,0.1-0.3s0.1-0.1,0.2-0.1c0.2-0.1,0.4-0.1,0.7-0.1
				c0.1,0,0.3,0,0.4,0c0,0,0.4,0,1.1,0c2.5,0,2.5,0,2.5,0s3-0.5,5-0.9l0,0l0,0c0-0.5,0-0.6,0-0.7l0,0l0,0c-0.7,0-1,0-1,0
				c0-0.3,0-0.4,0-0.4l-0.9,0.4c0,0-0.3,0-0.6,0c-0.1,0-0.2,0-0.4,0c0-0.3,0-0.4,0-0.4s-0.3,0.2-0.8,0.4c-1.6,0-3.3,0-4.9,0
				C18.2,135.3,16,135.3,13.7,135.3z"/>
		</defs>
		<clipPath id="SVGID_00000143592419877161176840000012472947298837533834_">
			<use xlink:href="#SVGID_00000173873996137686440610000000015063228835316109_"  style="overflow:visible;"/>
		</clipPath>
		<g style="clip-path:url(#SVGID_00000143592419877161176840000012472947298837533834_);">
			<g>
				<defs>
					<rect id="SVGID_00000103970550314605082180000008104883577842695848_" x="-51.6" y="128.2" width="92.6" height="74.9"/>
				</defs>
				<clipPath id="SVGID_00000170240242211506492870000004653754598301997222_">
					<use xlink:href="#SVGID_00000103970550314605082180000008104883577842695848_"  style="overflow:visible;"/>
				</clipPath>
				<g style="clip-path:url(#SVGID_00000170240242211506492870000004653754598301997222_);enable-background:new    ;">
					
						<image style="overflow:visible;enable-background:new    ;" width="1205" height="985" xlink:href="5B37790E.jpeg"  transform="matrix(7.047654e-02 0 0 7.601648e-02 -47.8264 128.2247)">
					</image>
				</g>
			</g>
			<g>
				
					<rect id="SVGID_00000042721193723153889170000017913349715557508021_" x="-51.6" y="128.2" class="st31" width="92.6" height="74.9"/>
			</g>
		</g>
	</g>
	<g>
		<path id="SVGID_00000067233352694143613370000013248984701280791475_" class="st31" d="M13.7,135.3c-0.1,0-0.3,0-0.5,0.2
			c0,0-0.1,0.1-0.1,0.2c-0.1,0.3,0.1,0.5,0.1,0.5l0,0c0,0,0.7,0.5,1,0.8s0.8,0.6,1.5,1.1c0.9,0,1.5,0,1.8,0c0,0,1.2,0,1.3,0h0.1H19
			l0,0l0,0l0,0l0,0l0,0l0,0l0,0l0,0V138c0-0.1,0-0.1,0-0.3s0-0.3,0-0.3l0,0c0-0.2,0.1-0.3,0.1-0.3s0.1-0.1,0.2-0.1
			c0.2-0.1,0.4-0.1,0.7-0.1c0.1,0,0.3,0,0.4,0c0,0,0.4,0,1.1,0c2.5,0,2.5,0,2.5,0s3-0.5,5-0.9l0,0l0,0c0-0.5,0-0.6,0-0.7l0,0l0,0
			c-0.7,0-1,0-1,0c0-0.3,0-0.4,0-0.4l-0.9,0.4c0,0-0.3,0-0.6,0c-0.1,0-0.2,0-0.4,0c0-0.3,0-0.4,0-0.4s-0.3,0.2-0.8,0.4
			c-1.6,0-3.3,0-4.9,0C18.2,135.3,16,135.3,13.7,135.3z"/>
	</g>
</g>
<polygon class="st29" points="29.1,136.1 33.1,135.3 29.1,135.3 "/>
<path class="st28" d="M33.3,140.1c-0.4,0.7-0.8,1.3-1.2,2c-0.4-0.7-0.8-1.4-1.2-2.1c-0.4,0.7-0.9,1.4-1.3,2.1
	c-0.4-0.7-0.8-1.4-1.2-2.1c-0.5,0.7-0.9,1.4-1.4,2.1c-0.4-0.7-0.8-1.3-1.2-2c-0.5,0.7-1,1.3-1.5,2c-0.2-0.6-0.5-1.2-0.7-1.8"/>
<g>
	<defs>
		<path id="SVGID_00000069361109572472953010000004195086043961896369_" d="M36.9,135.4v-2.5c-11.9,0-23.8-0.1-35.8-0.1
			c0.1,0.5,0.2,1.1,0.3,1.7c0.1,0.3,0.2,0.7,0.2,1C13.4,135.4,25.2,135.4,36.9,135.4z"/>
	</defs>
	<clipPath id="SVGID_00000162340878758544031890000003392444759945482147_">
		<use xlink:href="#SVGID_00000069361109572472953010000004195086043961896369_"  style="overflow:visible;"/>
	</clipPath>
	
		<g transform="matrix(1 0 0 1 -9.536743e-07 0)" style="clip-path:url(#SVGID_00000162340878758544031890000003392444759945482147_);">
		
			<image style="overflow:visible;" width="600" height="600" xlink:href="../../background.jpg"  transform="matrix(8.178281e-02 0 0 8.178281e-02 -10.9326 87.3263)">
		</image>
	</g>
</g>
<g>
	<defs>
		<path id="SVGID_00000083051407449764628270000014360973861311816855_" d="M36.9,115.8v2.3c-11.6,0-23.1,0-34.7,0
			c0-0.3-0.1-0.7-0.2-1.1c-0.1-0.5-0.3-0.9-0.5-1.2C13.3,115.8,25.1,115.8,36.9,115.8z"/>
	</defs>
	<clipPath id="SVGID_00000127727730095979976330000015954579898141983408_">
		<use xlink:href="#SVGID_00000083051407449764628270000014360973861311816855_"  style="overflow:visible;"/>
	</clipPath>
	<g style="clip-path:url(#SVGID_00000127727730095979976330000015954579898141983408_);">
		
			<image style="overflow:visible;" width="600" height="600" xlink:href="../../background.jpg"  transform="matrix(7.292280e-02 0 0 7.292280e-02 -1.9672 77.0866)">
		</image>
	</g>
</g>
<path class="st0" d="M13.7,115.8c-0.1,0-0.4,0-0.5-0.2c0,0-0.1-0.1-0.1-0.2c-0.1-0.3,0.1-0.5,0.1-0.5s0.7-0.5,1-0.8s0.8-0.6,1.5-1.1
	c0.9,0,1.5,0,1.8,0c0,0,1.2,0,1.3,0h0.1H19l0,0l0,0l0,0l0,0l0,0l0,0l0,0l0,0v0.1c0,0.1,0,0.1,0,0.3c0,0.2,0,0.3,0,0.3l0,0
	c0,0.2,0.1,0.3,0.1,0.3s0.1,0.1,0.2,0.1c0.2,0.1,0.4,0.1,0.7,0.1c0.1,0,0.3,0,0.4,0c0,0,0.4,0,1.1,0c2.5,0,2.5,0,2.5,0s3,0.5,5,0.9
	l0,0l0,0c0,0.5,0,0.6,0,0.7l0,0l0,0c-0.3,0-0.7,0-1,0l0,0c0,0.3,0,0.7,0.1,1c-0.4-0.3-0.8-0.7-1.2-1l0,0l0,0l0,0c-0.2,0-0.4,0-0.6,0
	c0,0.3,0,0.7,0,1c-0.4-0.3-0.8-0.7-1.2-1l0,0c-0.9,0-1.5,0-1.9,0c-0.1,0-0.5,0-0.9,0c-0.2,0-0.4,0-0.7,0c-0.5,0-0.8,0-1.1,0
	c-0.4,0-0.8,0-1.2,0H17C17,115.8,14.6,115.8,13.7,115.8z"/>
<g>
	<defs>
		<path id="SVGID_00000148639885234696800590000005855467813687987125_" d="M13.7,115.8c-0.1,0-0.4,0-0.5-0.2c0,0-0.1-0.1-0.1-0.2
			c-0.1-0.3,0.1-0.5,0.1-0.5s0.7-0.5,1-0.8s0.8-0.6,1.5-1.1c0.9,0,1.5,0,1.8,0c0,0,1.2,0,1.3,0h0.1H19l0,0l0,0l0,0l0,0l0,0l0,0l0,0
			l0,0v0.1c0,0.1,0,0.1,0,0.3c0,0.2,0,0.3,0,0.3l0,0c0,0.2,0.1,0.3,0.1,0.3s0.1,0.1,0.2,0.1c0.2,0.1,0.4,0.1,0.7,0.1
			c0.1,0,0.3,0,0.4,0c0,0,0.4,0,1.1,0c2.5,0,2.5,0,2.5,0s3,0.5,5,0.9l0,0l0,0c0,0.5,0,0.6,0,0.7l0,0l0,0c-0.3,0-0.7,0-1,0l0,0
			c0,0.3,0,0.7,0.1,1c-0.4-0.3-0.8-0.7-1.2-1l0,0l0,0l0,0c-0.2,0-0.4,0-0.6,0c0,0.3,0,0.7,0,1c-0.4-0.3-0.8-0.7-1.2-1l0,0
			c-0.9,0-1.5,0-1.9,0c-0.1,0-0.5,0-0.9,0c-0.2,0-0.4,0-0.7,0c-0.5,0-0.8,0-1.1,0c-0.4,0-0.8,0-1.2,0H17
			C17,115.8,14.6,115.8,13.7,115.8z"/>
	</defs>
	<clipPath id="SVGID_00000110457108828754885460000012362112753332756141_">
		<use xlink:href="#SVGID_00000148639885234696800590000005855467813687987125_"  style="overflow:visible;"/>
	</clipPath>
	
		<g transform="matrix(1 0 0 1 0 -7.629395e-06)" style="clip-path:url(#SVGID_00000110457108828754885460000012362112753332756141_);">
		
			<image style="overflow:visible;" width="600" height="600" xlink:href="../../background.jpg"  transform="matrix(8.576717e-02 0 0 8.576717e-02 10.4734 112.3929)">
		</image>
	</g>
</g>
<path class="st0" d="M13.7,135.4c-0.1,0-0.4,0-0.5,0.2c0,0-0.1,0.1-0.1,0.2c-0.1,0.3,0.1,0.5,0.1,0.5s0.7,0.5,1,0.8s0.8,0.6,1.5,1.1
	c0.9,0,1.5,0,1.8,0c0,0,1.2,0,1.3,0h0.1H19l0,0l0,0l0,0l0,0l0,0l0,0l0,0l0,0v-0.1c0-0.1,0-0.1,0-0.3s0-0.3,0-0.3l0,0
	c0-0.2,0.1-0.3,0.1-0.3s0.1-0.1,0.2-0.1c0.2-0.1,0.4-0.1,0.7-0.1c0.1,0,0.3,0,0.4,0c0,0,0.4,0,1.1,0c2.5,0,2.5,0,2.5,0s3-0.5,5-0.9
	l0,0l0,0c0-0.5,0-0.6,0-0.7l0,0l0,0c-0.3,0-0.7,0-1,0l0,0c0-0.3,0-0.7,0.1-1c-0.4,0.3-0.8,0.7-1.2,1l0,0l0,0l0,0c-0.2,0-0.4,0-0.6,0
	c0-0.3,0-0.7,0-1c-0.4,0.3-0.8,0.7-1.2,1l0,0c-0.9,0-1.5,0-1.9,0c-0.1,0-0.5,0-0.9,0c-0.2,0-0.4,0-0.7,0c-0.5,0-0.8,0-1.1,0
	c-0.4,0-0.8,0-1.2,0H17C17,135.4,14.5,135.4,13.7,135.4z"/>
<g>
	<defs>
		<path id="SVGID_00000111186941190413663610000009363753794744645289_" d="M13.7,135.4c-0.1,0-0.4,0-0.5,0.2c0,0-0.1,0.1-0.1,0.2
			c-0.1,0.3,0.1,0.5,0.1,0.5s0.7,0.5,1,0.8s0.8,0.6,1.5,1.1c0.9,0,1.5,0,1.8,0c0,0,1.2,0,1.3,0h0.1H19l0,0l0,0l0,0l0,0l0,0l0,0l0,0
			l0,0v-0.1c0-0.1,0-0.1,0-0.3s0-0.3,0-0.3l0,0c0-0.2,0.1-0.3,0.1-0.3s0.1-0.1,0.2-0.1c0.2-0.1,0.4-0.1,0.7-0.1c0.1,0,0.3,0,0.4,0
			c0,0,0.4,0,1.1,0c2.5,0,2.5,0,2.5,0s3-0.5,5-0.9l0,0l0,0c0-0.5,0-0.6,0-0.7l0,0l0,0c-0.3,0-0.7,0-1,0l0,0c0-0.3,0-0.7,0.1-1
			c-0.4,0.3-0.8,0.7-1.2,1l0,0l0,0l0,0c-0.2,0-0.4,0-0.6,0c0-0.3,0-0.7,0-1c-0.4,0.3-0.8,0.7-1.2,1l0,0c-0.9,0-1.5,0-1.9,0
			c-0.1,0-0.5,0-0.9,0c-0.2,0-0.4,0-0.7,0c-0.5,0-0.8,0-1.1,0c-0.4,0-0.8,0-1.2,0H17C17,135.4,14.5,135.4,13.7,135.4z"/>
	</defs>
	<clipPath id="SVGID_00000133528837114034537020000007187956286181050303_">
		<use xlink:href="#SVGID_00000111186941190413663610000009363753794744645289_"  style="overflow:visible;"/>
	</clipPath>
	<g style="clip-path:url(#SVGID_00000133528837114034537020000007187956286181050303_);">
		
			<image style="overflow:visible;" width="600" height="600" xlink:href="../../background.jpg"  transform="matrix(8.576717e-02 0 0 8.576717e-02 11.0183 133.3692)">
		</image>
	</g>
</g>
<linearGradient id="SVGID_00000078762188964783549140000012170678007102695847_" gradientUnits="userSpaceOnUse" x1="24.55" y1="28.4877" x2="24.55" y2="43.216" gradientTransform="matrix(1 0 0 -1 0 161.3228)">
	<stop  offset="0" style="stop-color:#424242"/>
	<stop  offset="0.1068" style="stop-color:#333333"/>
	<stop  offset="0.2055" style="stop-color:#2D2D2D"/>
	<stop  offset="0.3492" style="stop-color:#424244"/>
	<stop  offset="0.6732" style="stop-color:#7F7F7F"/>
	<stop  offset="0.9078" style="stop-color:#414042"/>
</linearGradient>
<path style="fill:url(#SVGID_00000078762188964783549140000012170678007102695847_);" d="M48.2,132.8c-15.7,0-31.4,0-47.1,0
	c-0.1-0.3-0.1-0.7-0.2-1.2s-0.1-1.1-0.1-1.8c0-0.6,0.1-1,0.2-1.4c0.2-1.5,0.5-2.3,0.8-3.4c0.2-0.8,0.5-2.2,0.6-3.9
	c0-1.2-0.1-2.2-0.2-2.9c15.4,0,30.7,0,46.1,0"/>
<polygon class="st29" points="23.9,140.2 23.6,140.8 23.3,140.3 "/>
<linearGradient id="SVGID_00000101067937841371122520000001364500183556381111_" gradientUnits="userSpaceOnUse" x1="77.2" y1="29.0228" x2="77.2" y2="29.0228" gradientTransform="matrix(1 0 0 -1 0 161.3228)">
	<stop  offset="0" style="stop-color:#424242"/>
	<stop  offset="0.1068" style="stop-color:#333333"/>
	<stop  offset="0.2055" style="stop-color:#2D2D2D"/>
	<stop  offset="0.3492" style="stop-color:#424244"/>
	<stop  offset="0.6732" style="stop-color:#7F7F7F"/>
	<stop  offset="0.9078" style="stop-color:#414042"/>
</linearGradient>
<path style="fill:url(#SVGID_00000101067937841371122520000001364500183556381111_);" d="M77.2,132.3"/>
<linearGradient id="SVGID_00000158018326200834739010000007703180669971610806_" gradientUnits="userSpaceOnUse" x1="97.8" y1="23.1228" x2="97.8" y2="23.1228" gradientTransform="matrix(1 0 0 -1 0 161.3228)">
	<stop  offset="0" style="stop-color:#F4F4F4"/>
	<stop  offset="1" style="stop-color:#BABABA"/>
</linearGradient>
<path style="fill:url(#SVGID_00000158018326200834739010000007703180669971610806_);" d="M97.8,138.2"/>
<linearGradient id="SVGID_00000134961168600393730890000007585834633286207142_" gradientUnits="userSpaceOnUse" x1="50.2" y1="44.9228" x2="50.2" y2="44.9228" gradientTransform="matrix(1 0 0 -1 0 161.3228)">
	<stop  offset="0" style="stop-color:#424242"/>
	<stop  offset="0.1068" style="stop-color:#333333"/>
	<stop  offset="0.2055" style="stop-color:#2D2D2D"/>
	<stop  offset="0.3492" style="stop-color:#424244"/>
	<stop  offset="0.6732" style="stop-color:#7F7F7F"/>
	<stop  offset="0.9078" style="stop-color:#414042"/>
</linearGradient>
<path style="fill:url(#SVGID_00000134961168600393730890000007585834633286207142_);" d="M50.2,116.4"/>
<linearGradient id="SVGID_00000096758021765253931030000015350321524947482502_" gradientUnits="userSpaceOnUse" x1="49.25" y1="26.7794" x2="49.25" y2="44.9243" gradientTransform="matrix(1 0 0 -1 0 161.3228)">
	<stop  offset="0" style="stop-color:#383838"/>
	<stop  offset="0.1068" style="stop-color:#2D2D2D"/>
	<stop  offset="0.2055" style="stop-color:#262626"/>
	<stop  offset="0.3492" style="stop-color:#3D3D3D"/>
	<stop  offset="0.6732" style="stop-color:#727272"/>
	<stop  offset="0.9078" style="stop-color:#3A3A3A"/>
</linearGradient>
<path style="fill:url(#SVGID_00000096758021765253931030000015350321524947482502_);" d="M50.2,116.4v18.1c-0.6-0.6-1.3-1.1-1.9-1.7
	c0-4.9,0.1-9.8,0.1-14.7C49,117.5,49.6,117,50.2,116.4z"/>
<rect x="61.6" y="108.9" class="st39" width="13.4" height="0.5"/>
<radialGradient id="SVGID_00000063618437891246379020000012684955359575549873_" cx="67.7206" cy="52.2885" r="1.1465" gradientTransform="matrix(1 0 0 -1 0 161.3228)" gradientUnits="userSpaceOnUse">
	<stop  offset="0" style="stop-color:#ADADAD"/>
	<stop  offset="1" style="stop-color:#8C8C8C"/>
</radialGradient>
<circle style="fill:url(#SVGID_00000063618437891246379020000012684955359575549873_);stroke:#808080;stroke-width:0.25;stroke-miterlimit:10;" cx="67.7" cy="109" r="1.1"/>
<rect x="61.6" y="141.9" class="st39" width="13.3" height="0.5"/>
<path d="M25.4,98.9"/>
<g class="st41">
	<g class="st42">
		<defs>
			<path id="SVGID_00000028320925087526930980000009641667685501902497_" d="M124,25.8v-15c-0.2,0-4.1-0.6-4.4-0.6l-0.5-0.1
				l-0.4-0.1l-0.5-0.1h-0.1v3.9c-1.3-0.2-2.6-0.4-3.8-0.5c0-0.2,0-0.4,0-0.6c0-0.9,0-1.9,0-2.8c0-0.2,0-0.4,0-0.6
				c-0.2,0-0.5-0.1-0.6-0.1l-0.5-0.1c-0.1,0-12.6-1.8-12.9-1.8c0-0.8,0-1.5,0-2.3H87.4V4.6c0-0.1,0-0.3,0-0.3c2-0.7,4-1.5,6-2.2
				c0.6-0.8,1.2-1.6,1.7-2.4c0.7,1.2,1.3,2.5,2,3.7c0.6-1.2,1.3-2.5,1.9-3.7c0.7,1.2,1.3,2.5,2,3.7c0.6-1.2,1.2-2.5,1.8-3.7
				c0.7,1.2,1.4,2.5,2.1,3.7c0.6-1.2,1.2-2.5,1.8-3.7c0.6,1.2,1.3,2.5,1.9,3.7c0.6-1.2,1.2-2.5,1.8-3.7c0.7,1.2,1.4,2.5,2.1,3.7
				c0.7-1.2,1.3-2.5,2-3.7c0.6,1.2,1.3,2.5,1.9,3.7c0.6-1.2,1.2-2.5,1.8-3.7c0.7,1.2,1.4,2.5,2.1,3.7c1.2-2.5,1.8-3.7,1.8-3.7
				l1.9,3.7v-6.2c0-0.9,0-1.7,0-2.5l0,0l0,0c-0.2-5.5-1.8-9-1.8-9h-53c-1.7,4-2,8.1-1.9,11.6V5h-4.4h-2.1c0-0.6,0-1.1,0-1.7l0,0l0,0
				c-0.1-4-0.8-6.7-0.8-6.7H37.1c-0.7,3.1-0.9,6.2-0.8,8.9v1.8c-6.5,0.5-11-0.2-12.1-0.4c-0.4-0.7-0.7-1.3-1.1-2
				c-0.2,0.3-0.5,0.6-0.7,1v-2c0-0.7,0-1.4,0-2l0,0l0,0C22.2-2.6,21-5.5,21-5.5h-39.3c-1.2,3.2-1.5,6.6-1.4,9.4V15c0,0,0,0-0.1,0
				l0,0H-22v0c-0.4,0-0.7,0-1.1,0c0.3,1,1,3.9,1,7.5c0,3.9-0.9,7.2-1,7.4c-0.2,0.6-0.4,1.4-0.7,2.9C-24,35-24,36.2-24,36.5
				c0,0.2,0,0.8,0,1.5c0,0.1,0,0.7,0,1.2c0.1,1.1,0.2,1.9,0.3,2.5c0.2,1.4,0.5,2.5,0.7,3.3c0.4,0,0.7,0,1.1,0c0.7,0,1.4,0,2.2,0
				c0,0,0,0,0.1,0v9.7c-0.1,1.1-0.1,2.1,0,3.1v0.1l0,0c0.2,4.3,1.4,7.5,1.4,7.5h39.3c0.8-2.7,1.2-5.3,1.3-7.5l0,0c0-1.2,0-2.4,0-3.5
				c0.1,0.1,0.2,0.2,0.3,0.3c0.5-0.9,1-1.8,1.5-2.6c4.6-0.7,9-0.7,12-0.4v1.7c0,1,0,2,0,2.9v0.1l0,0c0.1,4.1,0.8,7.1,0.8,7.1h23
				c0.5-2.6,0.7-4.9,0.8-7.1l0,0v-2h6.5v5.1c-0.5,7.2,1.8,13.1,1.8,13.1h53c1.1-3.3,1.6-6.4,1.8-9.2h0.1v-7.5l-1.9,3.7
				c0,0-0.6-1.2-1.8-3.7c-0.7,1.2-1.4,2.5-2.1,3.7c-0.6-1.2-1.2-2.5-1.8-3.7c-0.6,1.2-1.3,2.5-1.9,3.7c-0.7-1.2-1.3-2.5-2-3.7
				c-0.7,1.2-1.4,2.5-2.1,3.7c-0.6-1.2-1.2-2.5-1.8-3.7c-0.6,1.2-1.3,2.5-1.9,3.7c-0.6-1.2-1.2-2.5-1.8-3.7
				c-0.7,1.2-1.4,2.5-2.1,3.7c-0.6-1.2-1.2-2.5-1.8-3.7c-0.7,1.2-1.3,2.5-2,3.7c-0.6-1.2-1.3-2.5-1.9-3.7c-0.7,1.2-1.3,2.5-2,3.7
				c-0.6-0.8-1.2-1.6-1.7-2.4c-2-0.7-4-1.5-6-2.2c0,0,0-0.2,0-0.3v-0.4h12.9c0-0.8,0-1.5,0-2.3c0.2,0,12.8-1.8,12.9-1.8l0.5-0.1
				c0,0,0.3,0,0.6-0.1c0-0.2,0-0.4,0-0.6c0-0.9,0-1.9,0-2.8c0-0.2,0-0.4,0-0.6c1.3-0.2,2.6-0.4,3.8-0.5v3.9c0.1,0,0.1,0,0.1,0
				l0.5-0.1l0.4-0.1c0,0,0.4-0.1,0.5-0.1c0.2,0,4.2-0.6,4.4-0.6V31.6C124,29.6,124,27.7,124,25.8z"/>
		</defs>
		<clipPath id="SVGID_00000024000018768907834400000013974932980978823810_">
			<use xlink:href="#SVGID_00000028320925087526930980000009641667685501902497_"  style="overflow:visible;"/>
		</clipPath>
		<g style="clip-path:url(#SVGID_00000024000018768907834400000013974932980978823810_);">
			<g>
				<defs>
					<rect id="SVGID_00000025443330676091236360000000152953491330381440_" x="-140.7" y="-27.9" width="273.8" height="205.4"/>
				</defs>
				<clipPath id="SVGID_00000039094461871805654220000006757564188526393218_">
					<use xlink:href="#SVGID_00000025443330676091236360000000152953491330381440_"  style="overflow:visible;"/>
				</clipPath>
				<g style="clip-path:url(#SVGID_00000039094461871805654220000006757564188526393218_);enable-background:new    ;">
					
						<image style="overflow:visible;enable-background:new    ;" width="1200" height="900" xlink:href="5B377916.jpeg"  transform="matrix(-0.2282 0 0 0.2282 133.134 -27.9375)">
					</image>
				</g>
			</g>
		</g>
	</g>
</g>
<radialGradient id="SVGID_00000149356560123905971660000007441701610607782806_" cx="93.9369" cy="47.673" r="1.2672" gradientTransform="matrix(1 0 0 -1 0 161.3228)" gradientUnits="userSpaceOnUse">
	<stop  offset="0" style="stop-color:#353535"/>
	<stop  offset="1" style="stop-color:#282828"/>
</radialGradient>
<circle style="fill:url(#SVGID_00000149356560123905971660000007441701610607782806_);" cx="93.9" cy="113.6" r="1.3"/>
<radialGradient id="SVGID_00000137835624579462247970000002351408901364744103_" cx="93.9369" cy="23.6996" r="1.2672" gradientTransform="matrix(1 0 0 -1 0 161.3228)" gradientUnits="userSpaceOnUse">
	<stop  offset="0" style="stop-color:#353535"/>
	<stop  offset="1" style="stop-color:#282828"/>
</radialGradient>
<circle style="fill:url(#SVGID_00000137835624579462247970000002351408901364744103_);" cx="93.9" cy="137.6" r="1.3"/>
<radialGradient id="SVGID_00000082360946594416992520000011951727856988206754_" cx="67.7206" cy="19.1144" r="1.1465" gradientTransform="matrix(1 0 0 -1 0 161.3228)" gradientUnits="userSpaceOnUse">
	<stop  offset="0" style="stop-color:#ADADAD"/>
	<stop  offset="1" style="stop-color:#8C8C8C"/>
</radialGradient>
<circle style="fill:url(#SVGID_00000082360946594416992520000011951727856988206754_);stroke:#808080;stroke-width:0.25;stroke-miterlimit:10;" cx="67.7" cy="142.2" r="1.1"/>
<linearGradient id="SVGID_00000106136649412803614840000018023233910472673948_" gradientUnits="userSpaceOnUse" x1="74.7" y1="26.7794" x2="74.7" y2="44.9243" gradientTransform="matrix(1 0 0 -1 0 161.3228)">
	<stop  offset="0" style="stop-color:#424242"/>
	<stop  offset="0.1068" style="stop-color:#333333"/>
	<stop  offset="0.2055" style="stop-color:#2D2D2D"/>
	<stop  offset="0.3492" style="stop-color:#424244"/>
	<stop  offset="0.6732" style="stop-color:#7F7F7F"/>
	<stop  offset="0.9078" style="stop-color:#414042"/>
</linearGradient>
<rect x="50.2" y="116.4" style="fill:url(#SVGID_00000106136649412803614840000018023233910472673948_);" width="49" height="18.1"/>
<image style="overflow:visible;" width="200" height="200" xlink:href="../../pepsi.png"  transform="matrix(8.764045e-02 0 0 8.764045e-02 71.5843 26.0843)">
</image>
</svg>
