<?xml version="1.0" encoding="utf-8"?>
<!-- Generator: Adobe Illustrator 25.4.1, SVG Export Plug-In . SVG Version: 6.00 Build 0)  -->
<svg version="1.1" id="Слой_1" xmlns="http://www.w3.org/2000/svg" xmlns:xlink="http://www.w3.org/1999/xlink" x="0px" y="0px"
	 viewBox="0 0 200 320" style="enable-background:new 0 0 200 320;" xml:space="preserve">
<style type="text/css">
	.st0{fill:none;stroke:#CCCCCC;stroke-miterlimit:10;}
	.st1{fill:#282828;}
	.st2{clip-path:url(#SVGID_00000031920155854168041070000003326452686191077273_);}
	.st3{clip-path:url(#SVGID_00000088113130919886059310000011972605713346653861_);}
	.st4{opacity:0.38;enable-background:new    ;}
	.st5{clip-path:url(#SVGID_00000006699964164732276110000011370827408650643876_);}
	.st6{fill:none;stroke:#CCCCCC;stroke-width:0.75;stroke-miterlimit:10;}
	.st7{fill:url(#SVGID_00000023242060079434593660000016852431675030677666_);}
	.st8{fill:url(#SVGID_00000068643034785171437590000010345044367803663760_);}
	.st9{fill:url(#SVGID_00000093171010825206414780000012593432073710381452_);}
	.st10{fill:url(#SVGID_00000106857400573354601340000004133818058231827879_);}
	.st11{opacity:0.28;fill:url(#SVGID_00000052100355900563011760000017206243417422401418_);enable-background:new    ;}
	.st12{fill:url(#SVGID_00000155145064482138563920000010483822543263738028_);}
	.st13{fill:url(#SVGID_00000107581319014145220370000016436926345926253199_);}
	.st14{fill:#AAAAAA;}
	.st15{fill:url(#SVGID_00000096028573443178951670000005352467522114151055_);}
	.st16{fill:url(#SVGID_00000128450700899305933600000007578164805572980117_);}
	.st17{fill:url(#SVGID_00000178177343819824279930000009040486314866000285_);}
	.st18{fill:url(#SVGID_00000075876268633705201890000016399468775589188025_);}
	.st19{opacity:0.28;fill:url(#SVGID_00000156584391569410742270000003035120983247547278_);enable-background:new    ;}
	.st20{fill:url(#SVGID_00000008860695201637424780000000212589868255041950_);}
	.st21{opacity:0.28;fill:url(#SVGID_00000156546606415411184200000011721987255441015175_);enable-background:new    ;}
	.st22{fill:url(#SVGID_00000116938760855935116410000012044624649025923756_);}
	.st23{fill:url(#SVGID_00000134228122703451933500000012131975903432922770_);}
	.st24{fill:url(#SVGID_00000181791493928154175500000014281252387549992341_);}
	.st25{fill:url(#SVGID_00000171681926198081518790000016603813438607524529_);}
	.st26{fill:url(#SVGID_00000013152634886402261360000011450765423206101150_);}
	.st27{fill:url(#SVGID_00000151542880521467965760000006024367849200371647_);}
	.st28{opacity:0.28;fill:url(#SVGID_00000000928323239529080850000006295673258482995882_);enable-background:new    ;}
	.st29{fill:url(#SVGID_00000052099661170267879390000011770542665642834622_);}
	.st30{fill:url(#SVGID_00000156584036318333120660000016968618479707239594_);}
	.st31{fill:url(#SVGID_00000113324557338353595580000017934083238460378513_);}
	.st32{fill:url(#SVGID_00000183245908845629182980000015696370444992867007_);}
	.st33{fill:url(#SVGID_00000047033952947711819190000010237386110567322041_);}
	.st34{fill:url(#SVGID_00000014603433707007710440000004770578536397567623_);}
	.st35{fill:url(#SVGID_00000049201110621669093870000018445071930562546358_);}
	.st36{fill:url(#SVGID_00000016780091582225876780000016612484677634350494_);}
	.st37{fill:url(#SVGID_00000174560037355434701080000015512541319366858631_);}
	.st38{fill:url(#SVGID_00000075880743695126382240000010772873339106837160_);}
	.st39{fill:url(#SVGID_00000144329998568646106670000003201127346652509108_);}
	.st40{fill:url(#SVGID_00000157996931744550640220000016268172390088123558_);}
	.st41{fill:none;stroke:url(#SVGID_00000049193092454275456390000000546138950701331850_);stroke-miterlimit:10;}
	.st42{fill:none;stroke:url(#SVGID_00000003091977087504574840000003172097629956719294_);stroke-miterlimit:10;}
	.st43{fill:none;stroke:url(#SVGID_00000034048645802636246110000002304863815580588441_);stroke-miterlimit:10;}
	.st44{fill:#282828;stroke:#282828;stroke-width:0.5;stroke-miterlimit:10;}
	.st45{fill:none;stroke:#ADADAD;stroke-width:0.5;stroke-miterlimit:10;}
	.st46{clip-path:url(#SVGID_00000001630235618443450870000009022339092635727764_);}
	.st47{clip-path:url(#SVGID_00000117653276511137004390000004597381564208535453_);}
	.st48{opacity:0.53;}
	.st49{fill:#666666;}
	.st50{clip-path:url(#SVGID_00000032637442290902870840000002843534310433947793_);}
	.st51{clip-path:url(#SVGID_00000018232121376248540300000003527811417326649259_);}
	.st52{fill:none;stroke:#808080;stroke-width:0.25;}
	.st53{clip-path:url(#SVGID_00000084521094116303086710000005271085260887136670_);}
	.st54{clip-path:url(#SVGID_00000169556380016516959850000002739210441733522870_);}
	.st55{opacity:0.54;fill:#666666;enable-background:new    ;}
	.st56{clip-path:url(#SVGID_00000151506428688359528410000016148813157240134791_);}
	.st57{clip-path:url(#SVGID_00000079458023688245606710000013757757068240986028_);}
	.st58{fill:none;stroke:#999999;stroke-width:0.25;}
	.st59{clip-path:url(#SVGID_00000162315823044708971030000014471263846206211211_);}
	.st60{clip-path:url(#SVGID_00000039849984637592061460000011493145459578303627_);}
	.st61{clip-path:url(#SVGID_00000040533828649360351370000006372596146971118012_);}
	.st62{clip-path:url(#SVGID_00000039837304729427605290000010774200274996676226_);}
	.st63{clip-path:url(#SVGID_00000129177030551563654710000017074298826064590735_);}
	.st64{clip-path:url(#SVGID_00000113315653103543894670000005717664337753489032_);}
	.st65{clip-path:url(#SVGID_00000144302913000496775130000002039978531801567110_);}
	.st66{clip-path:url(#SVGID_00000010995857418809622630000013040144079917098414_);}
	.st67{fill:#4D4D4D;}
	.st68{fill:url(#SVGID_00000070834289793069028820000000245947402224484279_);}
	.st69{fill:url(#SVGID_00000150095154656480039500000015113100711496331924_);}
	.st70{fill:url(#SVGID_00000062910427965178381860000015679325056242775477_);}
	.st71{fill:none;}
	.st72{clip-path:url(#SVGID_00000051363834089850995870000010830313930557920400_);}
	.st73{clip-path:url(#SVGID_00000146499026412352116010000018231184935716006309_);}
</style>
<path class="st0" d="M3.5,186.7c0,4.2-0.1,5.6-0.3,9.6c-0.3,8,0.4,9.3,0.3,17.9c-0.1,7.6-0.3,15.1-0.5,22.5c0,2.4,0.1,5.2,0.8,8.2
	c0.3,1,0.4,2,0.7,2.9c12.7,0,25.3,0,38,0c1.2-3.4,1.4-6.8,1.4-9.7v-23.8c0-1.7,0-3.3,0-4.8v-24.2c0.4-6-1.3-11.1-1.3-11.1H5
	c-0.4,1.4-0.9,3.5-1.2,6.2C3.5,182.8,3.5,184.5,3.5,186.7z"/>
<path class="st1" d="M36.5,184.8v54.5c-13,5.2-25.3,5.1-30.9-1.3c-0.9-1-1.8-2.5-2.5-4.3c0.3-16.2,0.5-32.6,0.8-48.8L36.5,184.8
	L36.5,184.8z"/>
<g>
	<g>
		<g>
			<g>
				<g>
					<defs>
						<path id="SVGID_00000143593892651476353780000009036490392591822492_" d="M5.1,236.5c0.5-1,1.2-2.1,1.7-3.3
							c0.5,1,1.2,2.4,1.7,3.4c0.5-1,1.2-2.4,1.7-3.4c0.5,1,1.2,2.1,1.7,3.3c0.5-1,1-2,1.6-3.1c0.7,1,2,3.1,2,3.1l2-3.7
							c0,0,1,2.4,1.6,3.5c0.4-0.8,0.8-1.7,1.2-2.6c0.1-0.3,0.3-0.5,0.5-0.8c0.3,0.5,0.5,0.9,0.8,1.4s0.5,1,0.8,1.6
							c0.1-0.4,0.5-0.8,0.8-1.3c0.5-0.7,0.9-1,1.4-1.4c0,0,0,0,0.3,0c0.5,0,1,0,1.6,0c0.8,0,1.4,0,2.4,0c0.3,0,0.5,0,0.8,0
							c0,0,0-1.2,0-1.6c0-0.5,0-1,0-1.4c1.6-1.4,4.7-4.2,4.6-4.2h0.5v-30.1c-0.3-0.1-3.3-2.7-4.8-4.2c0-0.5,0-0.9,0-1.4
							c0-0.4,0-1.6,0-1.6c-0.3,0-0.5,0-0.8,0c-0.8,0-1.4,0-2.4,0c-0.5,0-1,0-1.6,0c-0.3,0-0.3,0-0.3,0s-1.4-2-2.1-2.9
							c-0.5,0.9-1.2,2-1.7,2.9l-1.7-3.5l-1.6,3.5c0,0-1.2-2.4-1.7-3.5l-2.1,3.3l-1.3-2.7l-1.8,3.3L9,185.7c-0.5,1-1.7,3.1-1.7,3.1
							l-1.8-3.1c-0.5,1-1.7,3-1.7,3v-1v-7.2c0.4-2.1,0.8-4.2,1.2-6.3c12.4,0,25,0,37.5,0c0.3,0.9,0.7,2,0.8,3.4
							c0.3,1.4,0.4,2.6,0.5,3.8c0,4.8,0,9.7,0,14.5v30.4v11.1c0.1,1.6,0.1,3.8-0.1,6.2c-0.3,1.7-0.7,3.3-1.2,4.5
							c-12.6,0-25.3,0-38,0c-0.4-1.2-0.7-2.6-0.9-4.2c-0.1-1.3-0.3-2.6-0.4-3.7c0-2,0-4.2-0.1-6.2c0-0.7,0.1-1.3,0.1-2
							C4,233.5,4.4,235.1,5.1,236.5z"/>
					</defs>
					<clipPath id="SVGID_00000156559690616971658950000001761264581296781977_">
						<use xlink:href="#SVGID_00000143593892651476353780000009036490392591822492_"  style="overflow:visible;"/>
					</clipPath>
					<g style="clip-path:url(#SVGID_00000156559690616971658950000001761264581296781977_);">
						
							<image style="overflow:visible;enable-background:new    ;" width="600" height="600" xlink:href="../../background.jpg"  transform="matrix(0.2259 0 0 0.2259 -8.2567 273.9121)">
						</image>
					</g>
				</g>
			</g>
		</g>
	</g>
</g>
<g>
	<g>
		<defs>
			<path id="SVGID_00000108295242978679933800000014780246649044400302_" d="M5.1,236.5c0.5-1,1.2-2.1,1.7-3.3
				c0.5,1,1.2,2.4,1.7,3.4c0.5-1,1.2-2.4,1.7-3.4c0.5,1,1.2,2.1,1.7,3.3c0.5-1,1-2,1.6-3.1c0.7,1,2,3.1,2,3.1
				c0.7-1.2,1.4-2.5,2.1-3.7c0.1,0.5,0.4,0.9,0.5,1.3c0.4,0.8,0.7,1.4,1,2.1c0.4-0.8,0.8-1.7,1.2-2.6c0.1-0.3,0.3-0.5,0.5-0.8
				c0.3,0.5,0.5,0.9,0.8,1.4c0.3,0.5,0.5,1,0.8,1.6c0.1-0.4,0.5-0.8,0.8-1.3c0.5-0.7,0.9-1,1.4-1.4c0,0,0,0,0.3,0c0.5,0,1,0,1.6,0
				c0.8,0,1.4,0,2.4,0c0.3,0,0.5,0,0.8,0c0,0,0-1.2,0-1.6c0-0.5,0-1,0-1.4c1.6-1.4,4.7-4.2,4.6-4.2h0.5v-30
				c-0.3-0.1-3.3-2.7-4.8-4.2c0-0.5,0-0.9,0-1.4c0-0.4,0-1.6,0-1.6c-0.3,0-0.5,0-0.8,0c-0.8,0-1.4,0-2.4,0c-0.5,0-1,0-1.6,0
				c-0.3,0-0.3,0-0.3,0s-1.4-2-2.1-2.9c-0.5,0.9-1.2,2-1.7,2.9l-1.7-3.5l-1.6,3.5c0,0-1.2-2.4-1.7-3.5l-2.1,3.3l-1.4-2.7l-1.8,3.3
				L9,185.7c-0.5,1-1.7,3.1-1.7,3.1l-1.8-3.1c-0.5,1-1.7,3-1.7,3v-1v-7.2c0.4-2.1,0.8-4.2,1.2-6.3c12.6,0,25,0,37.6,0
				c0.3,0.9,0.7,2,0.8,3.4c0.3,1.4,0.4,2.6,0.5,3.8c0,4.8,0,9.7,0,14.5v30.4v11.1c0.1,1.6,0.1,3.8-0.1,6.2c-0.3,1.7-0.7,3.3-1.2,4.5
				c-12.6,0-25.4,0-38,0c-0.3-1-0.7-2.5-0.9-4.2c-0.3-1.3-0.3-2.2-0.4-3.5c-0.1-1.4-0.3-3.8-0.1-6.8c0-0.7,0-1,0.1-1.4
				C4,233.5,4.4,235.1,5.1,236.5z"/>
		</defs>
		<clipPath id="SVGID_00000017516189740707331740000001264222984461116090_">
			<use xlink:href="#SVGID_00000108295242978679933800000014780246649044400302_"  style="overflow:visible;"/>
		</clipPath>
		<g style="clip-path:url(#SVGID_00000017516189740707331740000001264222984461116090_);">
			
				<image style="overflow:visible;enable-background:new    ;" width="600" height="600" xlink:href="../../background.jpg"  transform="matrix(0.1979 0 0 0.1979 3.4464 160.0355)">
			</image>
		</g>
	</g>
</g>
<path class="st4" d="M5.1,236.5c0.5-1,1.2-2.1,1.7-3.3c0.5,1,1.2,2.4,1.7,3.4c0.5-1,1.2-2.4,1.7-3.4c0.5,1,1.2,2.1,1.7,3.3
	c0.5-1,1-2,1.6-3.1c0.7,1,2,3.1,2,3.1c0.7-1.2,1.4-2.5,2.1-3.7c0.1,0.5,0.4,0.9,0.5,1.3c0.4,0.8,0.7,1.4,1,2.1
	c0.4-0.8,0.8-1.7,1.2-2.6c0.1-0.3,0.3-0.5,0.5-0.8c0.3,0.5,0.5,0.9,0.8,1.4c0.3,0.5,0.5,1,0.8,1.6c0.1-0.4,0.5-0.8,0.8-1.3
	c0.5-0.7,0.9-1,1.4-1.4c0,0,0,0,0.3,0c0.5,0,1,0,1.6,0c0.8,0,1.4,0,2.4,0c0.3,0,0.5,0,0.8,0c0,0,0-1.2,0-1.6c0-0.5,0-1,0-1.4
	c1.6-1.4,4.7-4.2,4.6-4.2h0.5v-30c-0.3-0.1-3.3-2.7-4.8-4.2c0-0.5,0-0.9,0-1.4c0-0.4,0-1.6,0-1.6c-0.3,0-0.5,0-0.8,0
	c-0.8,0-1.4,0-2.4,0c-0.5,0-1,0-1.6,0c-0.3,0-0.3,0-0.3,0s-1.4-2-2.1-2.9c-0.5,0.9-1.2,2-1.7,2.9l-1.7-3.5l-1.6,3.5
	c0,0-1.2-2.4-1.7-3.5l-2.1,3.3l-1.4-2.7l-1.8,3.3L9,185.7c-0.5,1-1.7,3.1-1.7,3.1l-1.8-3.1c-0.5,1-1.7,3-1.7,3v-1v-7.2
	c0.4-2.1,0.8-4.2,1.2-6.3c12.6,0,25,0,37.6,0c0.3,0.9,0.7,2,0.8,3.4c0.3,1.4,0.4,2.6,0.5,3.8c0,4.8,0,9.7,0,14.5v30.4v11.1
	c0.1,1.6,0.1,3.8-0.1,6.2c-0.3,1.7-0.7,3.3-1.2,4.5c-12.6,0-25.4,0-38,0c-0.3-1-0.7-2.5-0.9-4.2c-0.3-1.3-0.3-2.2-0.4-3.5
	c-0.1-1.4-0.3-3.8-0.1-6.8c0-0.7,0-1,0.1-1.4C4,233.5,4.4,235.1,5.1,236.5z"/>
<g>
	<g>
		<g>
			<defs>
				<path id="SVGID_00000072275180865265903690000009370961941600417211_" d="M196.9,214c-0.3-1.4-0.5-2.2-0.8-2.9
					c0-0.3-1.2-3.5-1.2-7.5c0-3.7,0.8-6.5,1.2-7.6c-0.4,0-0.9,0-1.3,0v-0.1h-2.6v-11.7c0.3-6-1.3-10-1.3-10H152
					c-0.9,2.6-1.3,5.2-1.4,7.6h-0.1v6.7c-0.5-0.5-1.2-1-1.7-1.6c-0.5,0.7-0.9,1.3-1.4,2l0,0l0,0c-0.9,0.1-2,0.3-3,0.4
					c-0.3,0-0.4,0-0.7,0c-0.3,0-0.5,0-0.8,0h-1.6v-0.7v-0.3H59.2v0.3c0,2.6,0,5.2,0,8c-18.7,0.1-37.5,0.1-56.2,0.3
					c0,10,0,19.8,0,29.7h56.3c0,2.7,0,5.4,0,8.1c3.1,0,6.4,0,9.6,0c0.9,0.3,3,0.9,4.8,2.7c2,2,2.5,4.1,2.7,5c0,3.5,0,7.1,0,10.6h2.6
					c0,0.8,0,1.6-0.1,2.5c-0.1,1-0.1,2.1-0.3,3c-0.7,0.5-1.3,1-2,1.6c0.7,0.5,1.2,1.2,1.8,1.7h-8v0.1c-4.5,0.3-7.7,1.3-7.7,1.3v38.9
					c2.9,0.8,5.5,1.2,7.7,1.3l0,0H71c0.8,0,1.6,0,2.4,0h11.1c0,0.9,0,1.7,0,2.6c0,0.4,0,0.9,0,1.3c0.8,0.4,1.8,0.9,3.3,1.3
					c2.6,0.8,19.9-3.7,23.8-2.2c0.4,0.1,3.3,1.3,3.3,1.3s0-1.7,0-2.6c0-0.7,0-1.2,0-1.8h11.7c6,0.3,10-1.3,10-1.3v-38.9
					c-2.6-0.9-5.2-1.3-7.6-1.4v-0.1h-6.7c0.5-0.5,1-1.2,1.6-1.7c-0.7-0.5-1.3-0.9-2-1.4l0,0c-0.3-2.1-0.4-3.9-0.4-5.6h2.9
					c0-4.1,0-8,0-12c0.3-0.8,0.8-2.5,2.5-4.1c1.7-1.6,3.5-2.1,4.3-2.2c3.5,0,7.2,0,10.7,0v-3h1.3c1.8,0.1,3.4,0.3,4.5,0.4
					c0,0,0,0,0,0.1c0.5,0.7,1,1.3,1.6,2c0.5-0.7,1.2-1.2,1.7-1.8v8h0.1c0.3,4.5,1.3,7.7,1.3,7.7h38.9c0.8-2.9,1.2-5.5,1.3-7.7l0,0
					v-0.4c0-0.8,0-1.6,0-2.4v-11.1c0.9,0,1.7,0,2.6,0c0.4,0,0.9,0,1.3,0c0.3-0.8,0.5-1.8,0.9-3.3c0.1-0.5,0.3-1.4,0.4-2.5
					c0-0.4,0-1,0-1.2c0-0.8,0-1.4,0-1.6C197.4,217.4,197.4,216.1,196.9,214z"/>
			</defs>
			<clipPath id="SVGID_00000009567612568580344470000006419511050632708994_">
				<use xlink:href="#SVGID_00000072275180865265903690000009370961941600417211_"  style="overflow:visible;"/>
			</clipPath>
			<g transform="matrix(1 0 0 1 0 0)" style="clip-path:url(#SVGID_00000009567612568580344470000006419511050632708994_);">
				
					<image style="overflow:visible;enable-background:new    ;" width="600" height="600" xlink:href="../../background.jpg"  transform="matrix(0.4181 0 0 0.4181 -38.7555 124.7895)">
				</image>
			</g>
		</g>
	</g>
	<g>
		<path id="SVGID_87_" class="st6" d="M196.9,214c-0.3-1.4-0.5-2.2-0.8-2.9c0-0.3-1.2-3.5-1.2-7.5c0-3.7,0.8-6.5,1.2-7.6
			c-0.4,0-0.9,0-1.3,0v-0.1h-2.6v-11.7c0.3-6-1.3-10-1.3-10H152c-0.9,2.6-1.3,5.2-1.4,7.6h-0.1v6.7c-0.5-0.5-1.2-1-1.7-1.6
			c-0.5,0.7-0.9,1.3-1.4,2l0,0l0,0c-0.9,0.1-2,0.3-3,0.4c-0.3,0-0.4,0-0.7,0c-0.3,0-0.5,0-0.8,0h-1.6v-0.7v-0.3H59.2v0.3
			c0,2.6,0,5.2,0,8c-18.7,0.1-37.5,0.1-56.2,0.3c0,10,0,19.8,0,29.7h56.3c0,2.7,0,5.4,0,8.1c3.1,0,6.4,0,9.6,0
			c0.9,0.3,3,0.9,4.8,2.7c2,2,2.5,4.1,2.7,5c0,3.5,0,7.1,0,10.6h2.6c0,0.8,0,1.6-0.1,2.5c-0.1,1-0.1,2.1-0.3,3c-0.7,0.5-1.3,1-2,1.6
			c0.7,0.5,1.2,1.2,1.8,1.7h-8v0.1c-4.5,0.3-7.7,1.3-7.7,1.3v38.9c2.9,0.8,5.5,1.2,7.7,1.3l0,0H71c0.8,0,1.6,0,2.4,0h11.1
			c0,0.9,0,1.7,0,2.6c0,0.4,0,0.9,0,1.3c0.8,0.4,1.8,0.9,3.3,1.3c2.6,0.8,19.9-3.7,23.8-2.2c0.4,0.1,3.3,1.3,3.3,1.3s0-1.7,0-2.6
			c0-0.7,0-1.2,0-1.8h11.7c6,0.3,10-1.3,10-1.3v-38.9c-2.6-0.9-5.2-1.3-7.6-1.4v-0.1h-6.7c0.5-0.5,1-1.2,1.6-1.7
			c-0.7-0.5-1.3-0.9-2-1.4l0,0c-0.3-2.1-0.4-3.9-0.4-5.6h2.9c0-4.1,0-8,0-12c0.3-0.8,0.8-2.5,2.5-4.1c1.7-1.6,3.5-2.1,4.3-2.2
			c3.5,0,7.2,0,10.7,0v-3h1.3c1.8,0.1,3.4,0.3,4.5,0.4c0,0,0,0,0,0.1c0.5,0.7,1,1.3,1.6,2c0.5-0.7,1.2-1.2,1.7-1.8v8h0.1
			c0.3,4.5,1.3,7.7,1.3,7.7h38.9c0.8-2.9,1.2-5.5,1.3-7.7l0,0v-0.4c0-0.8,0-1.6,0-2.4v-11.1c0.9,0,1.7,0,2.6,0c0.4,0,0.9,0,1.3,0
			c0.3-0.8,0.5-1.8,0.9-3.3c0.1-0.5,0.3-1.4,0.4-2.5c0-0.4,0-1,0-1.2c0-0.8,0-1.4,0-1.6C197.4,217.4,197.4,216.1,196.9,214z"/>
	</g>
</g>
<g>
	
		<linearGradient id="SVGID_00000129185095069417475990000002988326834650087354_" gradientUnits="userSpaceOnUse" x1="-430.0014" y1="69.8808" x2="-400.5381" y2="69.8808" gradientTransform="matrix(0 -1 1 0 -20.2061 -362.4205)">
		<stop  offset="0" style="stop-color:#7F7F7F"/>
		<stop  offset="0.1983" style="stop-color:#606060"/>
		<stop  offset="0.2933" style="stop-color:#545454"/>
		<stop  offset="0.433" style="stop-color:#757575"/>
		<stop  offset="0.7617" style="stop-color:#E6E6E6"/>
		<stop  offset="0.9078" style="stop-color:#9B9B9B"/>
		<stop  offset="1" style="stop-color:#B2B2B2"/>
	</linearGradient>
	<polygon style="fill:url(#SVGID_00000129185095069417475990000002988326834650087354_);" points="63.2,38.1 63.2,67.5 36.1,67.5 
		36.1,38.1 	"/>
	
		<linearGradient id="SVGID_00000043459500697069709010000013803072998616717489_" gradientUnits="userSpaceOnUse" x1="-415.1709" y1="70.9453" x2="-415.1709" y2="83.3854" gradientTransform="matrix(0 -1 1 0 -20.2061 -362.4205)">
		<stop  offset="0" style="stop-color:#333333;stop-opacity:0"/>
		<stop  offset="1" style="stop-color:#333333"/>
	</linearGradient>
	<polygon style="fill:url(#SVGID_00000043459500697069709010000013803072998616717489_);" points="63.2,38 63.2,67.5 50.8,67.5 
		50.8,38 	"/>
	
		<linearGradient id="SVGID_00000082364509864882362280000005092452014744227720_" gradientUnits="userSpaceOnUse" x1="945.3964" y1="708.8168" x2="945.3964" y2="719.499" gradientTransform="matrix(0 1 -1 0 757.2152 -892.646)">
		<stop  offset="0" style="stop-color:#333333;stop-opacity:0"/>
		<stop  offset="1" style="stop-color:#333333"/>
	</linearGradient>
	<polygon style="fill:url(#SVGID_00000082364509864882362280000005092452014744227720_);" points="37.7,67.4 37.7,38.1 48.4,38.1 
		48.4,67.4 	"/>
</g>
<g>
	
		<linearGradient id="SVGID_00000160168693693959187950000010199966362219742388_" gradientUnits="userSpaceOnUse" x1="-1884.3519" y1="127.8361" x2="-1885.4847" y2="158.8364" gradientTransform="matrix(-1 0 0 -1 -1691.1812 196)">
		<stop  offset="0" style="stop-color:#999898"/>
		<stop  offset="0.1963" style="stop-color:#4F4F4F"/>
		<stop  offset="0.2507" style="stop-color:#5B5B5B"/>
		<stop  offset="0.3499" style="stop-color:#7C7C7C"/>
		<stop  offset="0.3704" style="stop-color:#848484"/>
		<stop  offset="0.433" style="stop-color:#878787"/>
		<stop  offset="0.5268" style="stop-color:#A0A0A0"/>
		<stop  offset="0.6843" style="stop-color:#C6C6C6"/>
		<stop  offset="0.9078" style="stop-color:#B7B7B7"/>
		<stop  offset="1" style="stop-color:#C6C6C6"/>
	</linearGradient>
	<path style="fill:url(#SVGID_00000160168693693959187950000010199966362219742388_);" d="M195.7,68.1c-1.7,0-3.3,0-5.1,0V37.2
		c1.7,0,3.3,0,5.1,0.1c-0.4,1-1.2,4.1-1.2,7.7c0,4.1,1.2,7.3,1.2,7.6c0.3,0.7,0.5,1.4,0.8,2.9c0.5,2.1,0.5,3.5,0.5,3.8
		c0,0.1,0,0.8,0,1.6c0,0.1,0,0.8,0,1.2c-0.1,1-0.3,2-0.4,2.5C196.3,66.1,196,67.3,195.7,68.1z"/>
	
		<linearGradient id="SVGID_00000109751952632265357850000016092814261911185573_" gradientUnits="userSpaceOnUse" x1="-2215.655" y1="922.3723" x2="-2212.9307" y2="922.3723" gradientTransform="matrix(-1 0 0 1 -2021.2839 -869.7528)">
		<stop  offset="0" style="stop-color:#1A1A1A"/>
		<stop  offset="0" style="stop-color:#000000;stop-opacity:0"/>
		<stop  offset="0.3429" style="stop-color:#0A0A0A;stop-opacity:0.3341"/>
		<stop  offset="0.9264" style="stop-color:#252525;stop-opacity:0.9026"/>
		<stop  offset="1" style="stop-color:#292929;stop-opacity:0.9744"/>
	</linearGradient>
	
		<polygon style="opacity:0.28;fill:url(#SVGID_00000109751952632265357850000016092814261911185573_);enable-background:new    ;" points="
		191.7,37.2 194.4,37.2 194.4,68.1 191.7,68.1 	"/>
	
		<linearGradient id="SVGID_00000155131377462593660860000012534644182606207422_" gradientUnits="userSpaceOnUse" x1="-1817.9667" y1="113.9171" x2="-1817.9667" y2="172.9748" gradientTransform="matrix(-1 0 0 -1 -1647.2958 196)">
		<stop  offset="2.230000e-02" style="stop-color:#1A1A1A"/>
		<stop  offset="0.9832" style="stop-color:#CCCCCC"/>
	</linearGradient>
	<polygon style="fill:url(#SVGID_00000155131377462593660860000012534644182606207422_);" points="149.5,82.1 191.8,82.1 191.8,23 
		149.5,23 	"/>
	
		<linearGradient id="SVGID_00000128479167461185149130000008382646815481191583_" gradientUnits="userSpaceOnUse" x1="-1818.0394" y1="106.0602" x2="-1818.0394" y2="124.393" gradientTransform="matrix(-1 0 0 -1 -1647.2958 196)">
		<stop  offset="0" style="stop-color:#727272"/>
		<stop  offset="1" style="stop-color:#4C4C4C"/>
	</linearGradient>
	<path style="fill:url(#SVGID_00000128479167461185149130000008382646815481191583_);" d="M151.1,71.6h39.4c0,0,3,7.9,0,18.3h-39.4
		C151.1,89.9,147.8,80.4,151.1,71.6z"/>
	<path class="st14" d="M151.1,33.6h39.4c0,0,3,16.2,0,38.1h-39.4C151.1,71.6,147.8,52,151.1,33.6z"/>
	
		<linearGradient id="SVGID_00000067194675142019363990000014600324151298763199_" gradientUnits="userSpaceOnUse" x1="-1818.0394" y1="162.4277" x2="-1818.0394" y2="180.7605" gradientTransform="matrix(-1 0 0 -1 -1647.2958 196)">
		<stop  offset="0" style="stop-color:#F4F4F4"/>
		<stop  offset="1" style="stop-color:#BABABA"/>
	</linearGradient>
	<path style="fill:url(#SVGID_00000067194675142019363990000014600324151298763199_);" d="M151.1,15.3h39.4c0,0,3,7.9,0,18.3h-39.4
		C151.1,33.6,147.8,24.1,151.1,15.3z"/>
	
		<linearGradient id="SVGID_00000065791170804646142550000003056322384868600484_" gradientUnits="userSpaceOnUse" x1="139.9636" y1="122.0994" x2="139.9636" y2="165.8289" gradientTransform="matrix(1 0 0 -1 0 196)">
		<stop  offset="0" style="stop-color:#999898"/>
		<stop  offset="0.1963" style="stop-color:#4F4F4F"/>
		<stop  offset="0.2507" style="stop-color:#5B5B5B"/>
		<stop  offset="0.3499" style="stop-color:#7C7C7C"/>
		<stop  offset="0.3704" style="stop-color:#848484"/>
		<stop  offset="0.433" style="stop-color:#878787"/>
		<stop  offset="0.5974" style="stop-color:#D9D9D9"/>
		<stop  offset="0.6843" style="stop-color:#FFFFFF"/>
		<stop  offset="0.9078" style="stop-color:#B7B7B7"/>
		<stop  offset="1" style="stop-color:#C6C6C6"/>
	</linearGradient>
	<path style="fill:url(#SVGID_00000065791170804646142550000003056322384868600484_);" d="M147.7,74c0,0-7.5-1.3-15.5,0V30.1
		c0,0,6.3,1.4,15.5,0V74z"/>
	
		<linearGradient id="SVGID_00000062171410982190057750000004086510406703949734_" gradientUnits="userSpaceOnUse" x1="72.7615" y1="120.2027" x2="72.7615" y2="167.6833" gradientTransform="matrix(1 0 0 -1 75.9101 196)">
		<stop  offset="0" style="stop-color:#636363"/>
		<stop  offset="0.1983" style="stop-color:#444444"/>
		<stop  offset="0.2933" style="stop-color:#383838"/>
		<stop  offset="0.433" style="stop-color:#565656"/>
		<stop  offset="0.6732" style="stop-color:#E5E5E5"/>
		<stop  offset="0.9078" style="stop-color:#7F7E7E"/>
		<stop  offset="1" style="stop-color:#939292"/>
	</linearGradient>
	<path style="fill:url(#SVGID_00000062171410982190057750000004086510406703949734_);" d="M147.8,75.8c0.5-0.7,1.2-1.2,1.7-1.8
		c0-14.7,0-29.3,0-44.1c-0.5-0.5-1.2-1-1.7-1.6V75.8z"/>
	
		<linearGradient id="SVGID_00000139974341105634970070000007753465255564311721_" gradientUnits="userSpaceOnUse" x1="-1804.5178" y1="120.2027" x2="-1804.5178" y2="167.6931" gradientTransform="matrix(-1 0 0 -1 -1657.4832 196)">
		<stop  offset="0" style="stop-color:#7F7F7F"/>
		<stop  offset="0.1983" style="stop-color:#606060"/>
		<stop  offset="0.2933" style="stop-color:#545454"/>
		<stop  offset="0.433" style="stop-color:#757575"/>
		<stop  offset="0.6732" style="stop-color:#FFFFFF"/>
		<stop  offset="0.9078" style="stop-color:#9B9B9B"/>
		<stop  offset="1" style="stop-color:#B2B2B2"/>
	</linearGradient>
	<path style="fill:url(#SVGID_00000139974341105634970070000007753465255564311721_);" d="M147.8,75.8c-0.5-0.7-1-1.3-1.6-2
		c0-14.5,0-28.9,0.1-43.5c0.5-0.7,0.9-1.3,1.4-2V75.8z"/>
	
		<linearGradient id="SVGID_00000052800186332331379950000017407640277196248502_" gradientUnits="userSpaceOnUse" x1="-85.4409" y1="921.6521" x2="-79.1825" y2="921.6521" gradientTransform="matrix(1 0 0 1 225.5993 -869.7528)">
		<stop  offset="0" style="stop-color:#000000;stop-opacity:0"/>
		<stop  offset="0.3429" style="stop-color:#0A0A0A;stop-opacity:0.3341"/>
		<stop  offset="0.9264" style="stop-color:#252525;stop-opacity:0.9026"/>
		<stop  offset="1" style="stop-color:#292929;stop-opacity:0.9744"/>
	</linearGradient>
	<path style="opacity:0.28;fill:url(#SVGID_00000052800186332331379950000017407640277196248502_);enable-background:new    ;" d="
		M146.4,30.2c-0.9,0.1-2,0.3-3,0.4c-1,0.1-2.1,0.1-3.1,0.1c0,14.1,0,28.3,0,42.4c0.9,0,2,0,3,0.1c1,0.1,2.1,0.1,3,0.3
		C146.4,59,146.4,44.6,146.4,30.2z"/>
</g>
<g>
	
		<linearGradient id="SVGID_00000064351930436006697960000012434285791512087999_" gradientUnits="userSpaceOnUse" x1="-2753.6951" y1="542.3105" x2="-2754.8279" y2="573.3109" gradientTransform="matrix(0 -1 1 0 -459.7948 -2606.2268)">
		<stop  offset="0" style="stop-color:#999898"/>
		<stop  offset="0.1963" style="stop-color:#4F4F4F"/>
		<stop  offset="0.2507" style="stop-color:#5B5B5B"/>
		<stop  offset="0.3499" style="stop-color:#7C7C7C"/>
		<stop  offset="0.3704" style="stop-color:#848484"/>
		<stop  offset="0.433" style="stop-color:#878787"/>
		<stop  offset="0.5268" style="stop-color:#A0A0A0"/>
		<stop  offset="0.6843" style="stop-color:#C6C6C6"/>
		<stop  offset="0.9078" style="stop-color:#B7B7B7"/>
		<stop  offset="1" style="stop-color:#C6C6C6"/>
	</linearGradient>
	<path style="fill:url(#SVGID_00000064351930436006697960000012434285791512087999_);" d="M82.6,150c0-1.7,0-3.3,0-5.1h30.9
		c0,1.7,0,3.3-0.1,5.1c-1-0.4-4.1-1.2-7.7-1.2c-4.1,0-7.3,1.2-7.6,1.2c-0.7,0.3-1.4,0.5-2.9,0.8c-2.1,0.5-3.5,0.5-3.8,0.5
		c-0.1,0-0.8,0-1.6,0c-0.1,0-0.8,0-1.2,0c-1-0.1-2-0.3-2.5-0.4C84.4,150.6,83.4,150.3,82.6,150z"/>
	
		<linearGradient id="SVGID_00000100354046316077846810000009229564342246973334_" gradientUnits="userSpaceOnUse" x1="-3085.0063" y1="507.8979" x2="-3082.282" y2="507.8979" gradientTransform="matrix(0 -1 -1 0 605.958 -2936.3296)">
		<stop  offset="0" style="stop-color:#1A1A1A"/>
		<stop  offset="0" style="stop-color:#000000;stop-opacity:0"/>
		<stop  offset="0.3429" style="stop-color:#0A0A0A;stop-opacity:0.3341"/>
		<stop  offset="0.9264" style="stop-color:#252525;stop-opacity:0.9026"/>
		<stop  offset="1" style="stop-color:#292929;stop-opacity:0.9744"/>
	</linearGradient>
	
		<polygon style="opacity:0.28;fill:url(#SVGID_00000100354046316077846810000009229564342246973334_);enable-background:new    ;" points="
		113.5,146 113.5,148.7 82.6,148.7 82.6,146 	"/>
	
		<linearGradient id="SVGID_00000181790786539767676140000002652176538200068256_" gradientUnits="userSpaceOnUse" x1="-2687.3101" y1="528.3915" x2="-2687.3101" y2="587.4492" gradientTransform="matrix(0 -1 1 0 -459.7948 -2562.3416)">
		<stop  offset="2.230000e-02" style="stop-color:#1A1A1A"/>
		<stop  offset="0.9832" style="stop-color:#CCCCCC"/>
	</linearGradient>
	<polygon style="fill:url(#SVGID_00000181790786539767676140000002652176538200068256_);" points="68.6,103.8 68.6,146.1 
		127.7,146.1 127.7,103.8 	"/>
	
		<linearGradient id="SVGID_00000125561702921640824110000010235317066174295460_" gradientUnits="userSpaceOnUse" x1="-2687.3828" y1="520.5347" x2="-2687.3828" y2="538.8674" gradientTransform="matrix(0 -1 1 0 -459.7948 -2562.3416)">
		<stop  offset="0" style="stop-color:#727272"/>
		<stop  offset="1" style="stop-color:#4C4C4C"/>
	</linearGradient>
	<path style="fill:url(#SVGID_00000125561702921640824110000010235317066174295460_);" d="M79.1,105.4v39.4c0,0-7.9,3-18.3,0v-39.4
		C60.7,105.4,70.2,102.1,79.1,105.4z"/>
	<path class="st14" d="M117,105.4v39.4c0,0-16.2,3-38.1,0v-39.4C79.1,105.4,98.6,102.1,117,105.4z"/>
	
		<linearGradient id="SVGID_00000067233011529268495360000004918092947925858985_" gradientUnits="userSpaceOnUse" x1="-2687.3828" y1="576.871" x2="-2687.3828" y2="595.2037" gradientTransform="matrix(0 -1 1 0 -459.7948 -2562.3416)">
		<stop  offset="0" style="stop-color:#F4F4F4"/>
		<stop  offset="1" style="stop-color:#BABABA"/>
	</linearGradient>
	<path style="fill:url(#SVGID_00000067233011529268495360000004918092947925858985_);" d="M135.4,105.4v39.4c0,0-7.9,3-18.3,0v-39.4
		C117,105.4,126.6,102.1,135.4,105.4z"/>
	
		<linearGradient id="SVGID_00000060014610490732117810000001468847167831803300_" gradientUnits="userSpaceOnUse" x1="1009.3068" y1="536.5104" x2="1009.3068" y2="580.2471" gradientTransform="matrix(0 1 1 0 -459.7948 -915.0458)">
		<stop  offset="0" style="stop-color:#999898"/>
		<stop  offset="0.1963" style="stop-color:#4F4F4F"/>
		<stop  offset="0.2507" style="stop-color:#5B5B5B"/>
		<stop  offset="0.3499" style="stop-color:#7C7C7C"/>
		<stop  offset="0.3704" style="stop-color:#848484"/>
		<stop  offset="0.433" style="stop-color:#878787"/>
		<stop  offset="0.5974" style="stop-color:#D9D9D9"/>
		<stop  offset="0.6843" style="stop-color:#FFFFFF"/>
		<stop  offset="0.9078" style="stop-color:#B7B7B7"/>
		<stop  offset="1" style="stop-color:#C6C6C6"/>
	</linearGradient>
	<path style="fill:url(#SVGID_00000060014610490732117810000001468847167831803300_);" d="M76.7,102c0,0,1.3-7.5,0-15.5h43.7
		c0,0-1.4,6.3,0,15.5H76.7z"/>
	
		<linearGradient id="SVGID_00000093859185971952047260000005906343273416313238_" gradientUnits="userSpaceOnUse" x1="942.1047" y1="534.6771" x2="942.1047" y2="582.1577" gradientTransform="matrix(0 1 1 0 -459.7948 -839.1356)">
		<stop  offset="0" style="stop-color:#636363"/>
		<stop  offset="0.1983" style="stop-color:#444444"/>
		<stop  offset="0.2933" style="stop-color:#383838"/>
		<stop  offset="0.433" style="stop-color:#565656"/>
		<stop  offset="0.6732" style="stop-color:#E5E5E5"/>
		<stop  offset="0.9078" style="stop-color:#7F7E7E"/>
		<stop  offset="1" style="stop-color:#939292"/>
	</linearGradient>
	<path style="fill:url(#SVGID_00000093859185971952047260000005906343273416313238_);" d="M74.9,102.1c0.7,0.5,1.2,1.2,1.8,1.7
		c14.7,0,29.3,0,44.1,0c0.5-0.5,1-1.2,1.6-1.7H74.9z"/>
	
		<linearGradient id="SVGID_00000070094509943258321400000005821345683806303124_" gradientUnits="userSpaceOnUse" x1="-2673.8611" y1="534.6771" x2="-2673.8611" y2="582.1675" gradientTransform="matrix(0 -1 1 0 -459.7948 -2572.5288)">
		<stop  offset="0" style="stop-color:#7F7F7F"/>
		<stop  offset="0.1983" style="stop-color:#606060"/>
		<stop  offset="0.2933" style="stop-color:#545454"/>
		<stop  offset="0.433" style="stop-color:#757575"/>
		<stop  offset="0.6732" style="stop-color:#FFFFFF"/>
		<stop  offset="0.9078" style="stop-color:#9B9B9B"/>
		<stop  offset="1" style="stop-color:#B2B2B2"/>
	</linearGradient>
	<path style="fill:url(#SVGID_00000070094509943258321400000005821345683806303124_);" d="M74.9,102.1c0.7-0.5,1.3-1,2-1.6
		c14.5,0,28.9,0,43.5,0.1c0.7,0.5,1.3,0.9,2,1.4H74.9z"/>
	
		<linearGradient id="SVGID_00000073703687678661248860000002274505708069915039_" gradientUnits="userSpaceOnUse" x1="783.9105" y1="507.3086" x2="790.1689" y2="507.3086" gradientTransform="matrix(0 1 -1 0 605.958 -689.4464)">
		<stop  offset="0" style="stop-color:#1A1A1A"/>
		<stop  offset="0" style="stop-color:#000000;stop-opacity:0"/>
		<stop  offset="0.3429" style="stop-color:#0A0A0A;stop-opacity:0.3341"/>
		<stop  offset="0.9264" style="stop-color:#252525;stop-opacity:0.9026"/>
		<stop  offset="1" style="stop-color:#292929;stop-opacity:0.9744"/>
	</linearGradient>
	<path style="opacity:0.28;fill:url(#SVGID_00000073703687678661248860000002274505708069915039_);enable-background:new    ;" d="
		M120.3,100.7c-0.1-0.9-0.3-2-0.4-3c-0.1-1-0.1-2.1-0.1-3.1c-14.1,0-28.3,0-42.4,0c0,0.9,0,2-0.1,3c-0.1,1-0.1,2.1-0.3,3
		C91.4,100.7,105.9,100.7,120.3,100.7z"/>
</g>
<linearGradient id="SVGID_00000123423810238972631840000009658731732384673960_" gradientUnits="userSpaceOnUse" x1="-414.4507" y1="164.0136" x2="-414.4507" y2="152.0619" gradientTransform="matrix(0 -1 1 0 -20.2061 -362.4205)">
	<stop  offset="0" style="stop-color:#333333;stop-opacity:0"/>
	<stop  offset="1" style="stop-color:#333333"/>
</linearGradient>
<polygon style="fill:url(#SVGID_00000123423810238972631840000009658731732384673960_);" points="143.8,30.8 143.8,73.3 131.8,73.3 
	131.8,30.8 "/>
<g>
	<g>
		
			<linearGradient id="SVGID_00000154402918804937086420000000050289253087762577_" gradientUnits="userSpaceOnUse" x1="-1671.3701" y1="113.9171" x2="-1671.3701" y2="172.9748" gradientTransform="matrix(-1 0 0 -1 -1647.2958 196)">
			<stop  offset="2.230000e-02" style="stop-color:#1A1A1A"/>
			<stop  offset="0.9832" style="stop-color:#CCCCCC"/>
		</linearGradient>
		<polygon style="fill:url(#SVGID_00000154402918804937086420000000050289253087762577_);" points="3,82.1 45.2,82.1 45.2,23 3,23 
					"/>
		
			<linearGradient id="SVGID_00000139288530318737810160000015965187441351420331_" gradientUnits="userSpaceOnUse" x1="-1671.3774" y1="106.0602" x2="-1671.3774" y2="124.393" gradientTransform="matrix(-1 0 0 -1 -1647.2958 196)">
			<stop  offset="0" style="stop-color:#727272"/>
			<stop  offset="1" style="stop-color:#4C4C4C"/>
		</linearGradient>
		<path style="fill:url(#SVGID_00000139288530318737810160000015965187441351420331_);" d="M4.4,71.6h39.4c0,0,3,7.9,0,18.3H4.4
			C4.4,89.9,1.2,80.4,4.4,71.6z"/>
		<path class="st14" d="M4.4,33.6h39.4c0,0,3,16.2,0,38.1H4.4C4.4,71.6,1.2,52,4.4,33.6z"/>
		
			<linearGradient id="SVGID_00000093158633335334784850000007558731535034909106_" gradientUnits="userSpaceOnUse" x1="-1671.3774" y1="162.4277" x2="-1671.3774" y2="180.7605" gradientTransform="matrix(-1 0 0 -1 -1647.2958 196)">
			<stop  offset="0" style="stop-color:#F4F4F4"/>
			<stop  offset="1" style="stop-color:#BABABA"/>
		</linearGradient>
		<path style="fill:url(#SVGID_00000093158633335334784850000007558731535034909106_);" d="M4.4,15.3h39.4c0,0,3,7.9,0,18.3H4.4
			C4.4,33.6,1.2,24.1,4.4,15.3z"/>
	</g>
</g>
<g>
	
		<linearGradient id="SVGID_00000182496158325565656180000017150502880947803281_" gradientUnits="userSpaceOnUse" x1="57.2924" y1="1973.8929" x2="140.4864" y2="1973.8929" gradientTransform="matrix(1 0 0 1 0 -1907.0001)">
		<stop  offset="0" style="stop-color:#919396"/>
		<stop  offset="0.3883" style="stop-color:#D1D3D4"/>
		<stop  offset="0.6788" style="stop-color:#BCBEC0"/>
		<stop  offset="1" style="stop-color:#919396"/>
	</linearGradient>
	<path style="fill:url(#SVGID_00000182496158325565656180000017150502880947803281_);" d="M82.3,95c0,0,0.1-14.4,0.1-21.6
		c-0.1-0.7-0.5-1.8-1.4-3c-1.4-1.7-3.1-2.1-3.9-2.2c-6.5,0-13.2,0-19.9,0V38.7h83.3c0,9.7,0,19.4,0,28.9c-6.5,0-13.2,0-19.8,0
		c-0.9,0.3-2.6,0.8-3.9,2.2c-1,1.2-1.4,3-1.4,3c0,7.3,0,21.9,0,21.9h-33V95z"/>
	
		<linearGradient id="SVGID_00000047018501661262758830000007654418732373698176_" gradientUnits="userSpaceOnUse" x1="48.7301" y1="941.8463" x2="163.7169" y2="883.595" gradientTransform="matrix(1 0 0 1 0 -856)">
		<stop  offset="0" style="stop-color:#58595B;stop-opacity:0"/>
		<stop  offset="2.469746e-02" style="stop-color:#656668;stop-opacity:2.514163e-02"/>
		<stop  offset="0.1228" style="stop-color:#949496;stop-opacity:0.125"/>
		<stop  offset="0.221" style="stop-color:#BABBBB;stop-opacity:0.225"/>
		<stop  offset="0.3176" style="stop-color:#D8D9D9;stop-opacity:0.3233"/>
		<stop  offset="0.4122" style="stop-color:#EEEEEE;stop-opacity:0.4196"/>
		<stop  offset="0.5039" style="stop-color:#FBFBFB;stop-opacity:0.513"/>
		<stop  offset="0.5894" style="stop-color:#FFFFFF;stop-opacity:0.6"/>
		<stop  offset="1" style="stop-color:#58595B;stop-opacity:0"/>
	</linearGradient>
	<path style="fill:url(#SVGID_00000047018501661262758830000007654418732373698176_);" d="M82.3,95c0,0,0.1-14.4,0.1-21.6
		c-0.1-0.7-0.5-1.8-1.4-3c-1.4-1.7-3.1-2.1-3.9-2.2c-6.5,0-13.2,0-19.9,0V38.7h83.3c0,9.7,0,19.4,0,28.9c-6.5,0-13.2,0-19.8,0
		c-0.9,0.3-2.6,0.8-3.9,2.2c-1,1.2-1.4,3-1.4,3c0,7.5-0.3,22.1-0.3,22.1H82.3z"/>
	
		<linearGradient id="SVGID_00000098913810607421462090000006938177348235029132_" gradientUnits="userSpaceOnUse" x1="54.1526" y1="1964.2759" x2="83.163" y2="1995.7448" gradientTransform="matrix(1 0 0 1 0 -1907.0001)">
		<stop  offset="0.1201" style="stop-color:#686566"/>
		<stop  offset="0.1983" style="stop-color:#6E7072"/>
		<stop  offset="0.433" style="stop-color:#919396"/>
		<stop  offset="0.6732" style="stop-color:#E6E7E8"/>
		<stop  offset="0.8966" style="stop-color:#9F9D9D"/>
		<stop  offset="1" style="stop-color:#919396"/>
	</linearGradient>
	<path style="fill:url(#SVGID_00000098913810607421462090000006938177348235029132_);" d="M57.2,76.5c4.7,0,9.4,0,14,0
		c0.4,0.1,1.6,0.4,2.4,1.4c0.7,0.7,0.8,1.6,0.9,2c0,5.1,0,10,0,15.1h7.7V73.3c-0.1-0.7-0.5-1.8-1.4-3c-1.4-1.7-3.1-2.1-3.9-2.2
		c-6.5,0-13.2,0-19.8,0C57.3,70.8,57.2,73.6,57.2,76.5z"/>
	
		<linearGradient id="SVGID_00000093857201403066259700000009635191735593812640_" gradientUnits="userSpaceOnUse" x1="78.531" y1="2005.7783" x2="69.3015" y2="1980.6743" gradientTransform="matrix(1 0 0 1 0 -1907.0001)">
		<stop  offset="0" style="stop-color:#333333;stop-opacity:0.8"/>
		<stop  offset="1" style="stop-color:#FFFFFF;stop-opacity:0"/>
	</linearGradient>
	<path style="fill:url(#SVGID_00000093857201403066259700000009635191735593812640_);" d="M57.2,76.5c4.7,0,9.4,0,14,0
		c0.4,0.1,1.6,0.4,2.4,1.4c0.7,0.7,0.8,1.6,0.9,2c0,5.1,0,10,0,15.1h7.7V73.3c-0.1-0.7-0.5-1.8-1.4-3c-1.4-1.7-3.1-2.1-3.9-2.2
		c-6.5,0-13.2,0-19.8,0C57.3,70.8,57.2,73.6,57.2,76.5z"/>
	
		<linearGradient id="SVGID_00000174597604030629485340000002002019457385421476_" gradientUnits="userSpaceOnUse" x1="100.0754" y1="2002.8115" x2="136.674" y2="1978.0428" gradientTransform="matrix(1 0 0 1 0 -1907.0001)">
		<stop  offset="0.1201" style="stop-color:#686566"/>
		<stop  offset="0.1983" style="stop-color:#6E7072"/>
		<stop  offset="0.433" style="stop-color:#919396"/>
		<stop  offset="0.6732" style="stop-color:#E6E7E8"/>
		<stop  offset="0.8966" style="stop-color:#9F9D9D"/>
		<stop  offset="1" style="stop-color:#919396"/>
	</linearGradient>
	<path style="fill:url(#SVGID_00000174597604030629485340000002002019457385421476_);" d="M140.5,76.5h-14.3
		c-0.4,0.1-1.6,0.4-2.4,1.4c-0.7,0.7-0.9,1.6-0.9,2c0,5.1,0,10,0,15.1h-7.7V73.3c0,0,0.5-1.8,1.4-3c1.4-1.7,3.3-2.1,4.1-2.2
		c6.7,0,13.2,0,19.9,0L140.5,76.5L140.5,76.5z"/>
	
		<linearGradient id="SVGID_00000152955788023476475830000013604570398516207272_" gradientUnits="userSpaceOnUse" x1="57.2043" y1="1941.2869" x2="140.3564" y2="1941.2869" gradientTransform="matrix(1 0 0 1 0 -1907.0001)">
		<stop  offset="0" style="stop-color:#919396"/>
		<stop  offset="0.3883" style="stop-color:#D1D3D4"/>
		<stop  offset="0.6788" style="stop-color:#BCBEC0"/>
		<stop  offset="1" style="stop-color:#919396"/>
	</linearGradient>
	
		<rect x="57.2" y="29.7" style="fill:url(#SVGID_00000152955788023476475830000013604570398516207272_);" width="83.2" height="9.2"/>
	
		<linearGradient id="SVGID_00000029037256622239139470000000660181230771465353_" gradientUnits="userSpaceOnUse" x1="57.2043" y1="1941.5488" x2="140.3564" y2="1941.5488" gradientTransform="matrix(1 0 0 1 0 -1907.0001)">
		<stop  offset="0" style="stop-color:#58595B;stop-opacity:0"/>
		<stop  offset="0.4749" style="stop-color:#FFFFFF"/>
		<stop  offset="0.5701" style="stop-color:#FCFCFC;stop-opacity:0.8187"/>
		<stop  offset="0.6515" style="stop-color:#F1F1F1;stop-opacity:0.6636"/>
		<stop  offset="0.728" style="stop-color:#DFE0E0;stop-opacity:0.518"/>
		<stop  offset="0.8014" style="stop-color:#C7C7C8;stop-opacity:0.3783"/>
		<stop  offset="0.8726" style="stop-color:#A6A7A8;stop-opacity:0.2426"/>
		<stop  offset="0.9412" style="stop-color:#808082;stop-opacity:0.112"/>
		<stop  offset="1" style="stop-color:#58595B;stop-opacity:0"/>
	</linearGradient>
	<rect x="57.2" y="30" style="fill:url(#SVGID_00000029037256622239139470000000660181230771465353_);" width="83.2" height="9.2"/>
	
		<linearGradient id="SVGID_00000045612222767135011620000005634067335251508389_" gradientUnits="userSpaceOnUse" x1="98.4014" y1="1895.5538" x2="99.1406" y2="1984.7705" gradientTransform="matrix(1 0 0 1 0 -1907.0001)">
		<stop  offset="0.4342" style="stop-color:#58595B;stop-opacity:0"/>
		<stop  offset="0.6053" style="stop-color:#FFFFFF;stop-opacity:0.8"/>
	</linearGradient>
	
		<rect x="57.2" y="29.7" style="fill:url(#SVGID_00000045612222767135011620000005634067335251508389_);" width="83.2" height="9.2"/>
	
		<linearGradient id="SVGID_00000131342935051820617460000002017190968206347682_" gradientUnits="userSpaceOnUse" x1="57.2043" y1="1945.7391" x2="140.4874" y2="1945.7391" gradientTransform="matrix(1 0 0 1 0 -1907.0001)">
		<stop  offset="2.513967e-02" style="stop-color:#666666"/>
		<stop  offset="0.3212" style="stop-color:#9F9D9D"/>
		<stop  offset="0.6732" style="stop-color:#FFFFFF"/>
		<stop  offset="0.7793" style="stop-color:#E4E3E3"/>
		<stop  offset="1" style="stop-color:#919396"/>
	</linearGradient>
	
		<line style="fill:none;stroke:url(#SVGID_00000131342935051820617460000002017190968206347682_);stroke-miterlimit:10;" x1="57.2" y1="38.7" x2="140.5" y2="38.7"/>
	
		<linearGradient id="SVGID_00000013179733806730215360000015188956524894373269_" gradientUnits="userSpaceOnUse" x1="113.5823" y1="2001.4043" x2="132.0121" y2="1969.4828" gradientTransform="matrix(1 0 0 1 0 -1907.0001)">
		<stop  offset="2.513967e-02" style="stop-color:#666666"/>
		<stop  offset="0.3212" style="stop-color:#9F9D9D"/>
		<stop  offset="0.5168" style="stop-color:#FFFFFF"/>
		<stop  offset="0.7793" style="stop-color:#E4E3E3"/>
		<stop  offset="1" style="stop-color:#919396"/>
	</linearGradient>
	<path style="fill:none;stroke:url(#SVGID_00000013179733806730215360000015188956524894373269_);stroke-miterlimit:10;" d="
		M140.5,67.9h-20c-0.4,0-2.2,0.3-3.8,1.7c-1,1-1.6,3.7-1.6,3.7V95"/>
	
		<linearGradient id="SVGID_00000096028507451040384380000002265678320564365203_" gradientUnits="userSpaceOnUse" x1="83.917" y1="2001.5044" x2="65.4746" y2="1969.5608" gradientTransform="matrix(1 0 0 1 0 -1907.0001)">
		<stop  offset="2.513967e-02" style="stop-color:#666666"/>
		<stop  offset="0.3212" style="stop-color:#9F9D9D"/>
		<stop  offset="0.5168" style="stop-color:#FFFFFF"/>
		<stop  offset="0.7793" style="stop-color:#E4E3E3"/>
		<stop  offset="1" style="stop-color:#919396"/>
	</linearGradient>
	<path style="fill:none;stroke:url(#SVGID_00000096028507451040384380000002265678320564365203_);stroke-miterlimit:10;" d="
		M82.5,95c0-7.2,0-14.4,0-21.6c-0.1-0.7-0.5-1.8-1.4-3c-1.3-1.7-5.1-2.2-5.1-2.2H57.3"/>
</g>
<g>
	<path class="st4" d="M152.4,236.5c0.5-1,1.2-2.1,1.7-3.3c0.7,1,1.2,2.2,1.8,3.3c0.7-1,1.2-2.2,1.8-3.3c0.7,1,1.3,2.1,1.8,3.3
		c0.5-1,1-2.1,1.7-3.1c0.7,1,1.4,2.1,2.1,3.1c0.5-1.2,0.9-2.4,1.4-3.5c0.7,1.4,1.3,2.7,2,4.2c0.7-1.2,1.8-3.5,1.8-3.5
		c0.5,0.9,1,1.8,1.6,2.7c0.8-1,1.7-2.2,2.5-3.3c0,0,0,0,0.3,0c0.5,0,1,0,1.6,0c0.8,0,1.6,0,2.4,0c0.3,0,0.5,0,0.8,0c0,0,0-1.2,0-1.6
		c0-0.5,0-1,0-1.4c1.6-1.4,4.8-4.1,4.7-4.1h0.1v-29.9c-0.3-0.1-3.3-2.7-5-4.2c0-0.4,0-0.9,0-1.4c0-0.4,0-1.6,0-1.6
		c-0.3,0-0.5,0-0.8,0c-0.8,0-1.6,0-2.4,0c-0.5,0-1,0-1.6,0c-0.3,0-0.3,0-0.3,0s-1.6-2-2.2-2.9c-0.5,0.9-1.2,2-1.7,2.9l-1.8-3.5
		l-1.6,3.5c0,0-1.3-2.4-1.7-3.5l-2.1,3.1l-1.7-3.1l-1.8,3.3l-1.7-3.3c-0.7,1-1.8,3.1-1.8,3.1l-1.8-3.1c-0.7,1-1.8,3-1.8,3v-8.1
		l1.2-6.2h38.6c0.4,0.9,0.7,2.1,0.9,3.4c0.3,1.4,0.4,2.6,0.4,3.7c0,4.8,0,9.7,0,14.5v30.5v11c0.1,1.6,0.3,3.7-0.1,6.2
		c-0.3,1.7-0.7,3.1-1.2,4.5c-12.8,0-25.8,0-38.6,0c-0.4-1.2-0.7-2.6-0.9-4.1c-0.3-1.3-0.3-2.6-0.4-3.7c0-2.1,0-4.2-0.1-6.2
		c0-0.7,0.1-1.3,0.1-2C151.4,233.5,151.9,235.1,152.4,236.5z"/>
	<path class="st44" d="M176.2,229.7c0.8-0.9,2.4-2.7,4.8-3.4c0.5-0.1,1-0.3,1.4-0.3c-1.6,1.3-3.3,2.7-4.8,4.1c0,0.4,0,0.9,0,1.4l0,0
		c0,0.4,0,1.6,0,1.6l0,0l0,0c-0.3,0-0.5,0-0.8,0c-0.8,0-1.6,0-2.4,0c-0.5,0-1,0-1.6,0c-0.3,0-0.3,0-0.3,0s-1.6,2-2.2,2.9
		c-0.5-0.9-1.2-2-1.7-2.9l-1.8,3.5l-1.6-3.5c0.5-0.4,1-0.8,1.6-1c0-1.4,0-2.9,0-4.3c0.4-0.1,0.9-0.1,1.3-0.3
		C170.7,228.1,173.5,228.9,176.2,229.7z"/>
	<polygon class="st1" points="158,227.7 152.3,226.4 158,226.4 	"/>
	<path class="st44" d="M176.2,192.6c0.8,0.9,2.4,2.7,4.8,3.4c0.5,0.1,1,0.3,1.4,0.3c-1.6-1.3-3.3-2.7-4.8-4.1c0-0.4,0-0.9,0-1.4l0,0
		c0-0.4,0-1.6,0-1.6l0,0l0,0c-0.3,0-0.5,0-0.8,0c-0.8,0-1.6,0-2.4,0c-0.5,0-1,0-1.6,0c-0.3,0-0.3,0-0.3,0s-1.6-2-2.2-2.9
		c-0.5,0.9-1.2,2-1.7,2.9l-1.8-3.5l-1.6,3.5c0.5,0.4,1,0.8,1.6,1c0,1.4,0,2.9,0,4.3c0.4,0.1,0.9,0.1,1.3,0.3
		C170.7,194.2,173.5,193.4,176.2,192.6z"/>
	<polygon class="st1" points="158,194.6 152.3,195.9 158,195.9 	"/>
	<path class="st45" d="M150.6,189.4c0.7-1.2,1.4-2.4,2.1-3.7l1.7,3.3l1.8-3.3l1.7,3.3l1.8-3.3l1.7,3.1l2.1-3.1
		c0.5,1.2,0.9,2.4,1.4,3.5c0.4,0,0.8,0,1,0"/>
	<path class="st1" d="M166.7,190c0.1-0.1,0.3-0.4,0.4-0.5v-0.7c-0.7-0.3-1.2-0.5-1.8-0.8c0,0.5-0.1,1.2-0.1,1.7
		C165.6,189.9,166.2,190,166.7,190z"/>
	<path class="st45" d="M150.8,231.9c0.3,0.8,0.5,1.6,0.8,2.5c0.3,0.8,0.5,1.4,0.8,2.1l1.7-3.3l1.8,3.3l1.7-3.3l1.8,3.3l1.7-3.1
		l2.1,3.1c0.5-1.2,0.9-2.4,1.4-3.5c0.1,0,0.3,0,0.3,0"/>
	<path class="st1" d="M165.4,234.3c0.5-0.3,1-0.7,1.6-0.9v-0.5c-0.4-0.3-1-0.5-1.7-0.4h-0.1c0,0.5,0,1,0,1.4
		C165.2,234,165.4,234.1,165.4,234.3z"/>
	<g>
		<g>
			<g>
				<defs>
					<path id="SVGID_00000166677786992438165110000012136941214436952759_" d="M146.8,195.9v3.3c16.1,0,32.1,0,48.2,0
						c0.1-0.4,0.3-0.8,0.4-1.3c0.3-0.8,0.5-1.4,0.8-2.1C179.6,195.9,163.1,195.9,146.8,195.9z"/>
				</defs>
				<clipPath id="SVGID_00000181794660550657747240000006752263082018983580_">
					<use xlink:href="#SVGID_00000166677786992438165110000012136941214436952759_"  style="overflow:visible;"/>
				</clipPath>
				<g style="clip-path:url(#SVGID_00000181794660550657747240000006752263082018983580_);">
					
						<image style="overflow:visible;enable-background:new    ;" width="600" height="600" xlink:href="../../background.jpg"  transform="matrix(0.3741 0 0 0.3759 159.0309 130.389)">
					</image>
				</g>
			</g>
		</g>
	</g>
	<g>
		<g>
			<g>
				<defs>
					<path id="SVGID_00000021828155725363255570000001399284048165616047_" d="M146.8,195.9v3.3c16.1,0,32.1,0,48.2,0
						c0.1-0.4,0.3-0.8,0.4-1.3c0.3-0.8,0.5-1.4,0.8-2.1C179.6,195.9,163.1,195.9,146.8,195.9z"/>
				</defs>
				<clipPath id="SVGID_00000150795001261810751670000003522858692963759018_">
					<use xlink:href="#SVGID_00000021828155725363255570000001399284048165616047_"  style="overflow:visible;"/>
				</clipPath>
				
					<g transform="matrix(1 1.469368e-39 0 1 0 0)" style="clip-path:url(#SVGID_00000150795001261810751670000003522858692963759018_);">
					
						<image style="overflow:visible;enable-background:new    ;" width="600" height="600" xlink:href="../../background.jpg"  transform="matrix(0 -0.4359 -0.4373 0 224.6814 316.5515)">
					</image>
				</g>
			</g>
		</g>
	</g>
	<g class="st48">
		<path id="SVGID_397_" class="st49" d="M146.8,195.8v3.3c16.1,0,32.1,0,48.2,0c0.1-0.4,0.3-0.8,0.4-1.3c0.3-0.8,0.5-1.4,0.8-2.1
			C179.6,195.8,163.1,195.8,146.8,195.8z"/>
	</g>
	<g>
		<g>
			<g>
				<defs>
					<path id="SVGID_00000026870175681793398680000011780035603423067271_" d="M179.8,195.8c0.1,0,0.5,0,0.8-0.3
						c0,0,0.1-0.1,0.1-0.3c0.1-0.4-0.1-0.8-0.1-0.9c0,0-0.9-0.8-1.4-1.2c-0.5-0.4-1.2-1-2.1-1.7c-1.3,0-2.1,0-2.5,0c0,0-1.7,0-1.8,0
						h-0.1h-0.1l0,0l0,0l0,0l0,0l0,0l0,0l0,0c0,0,0,0,0,0.1v0.1c0,0.1,0,0.3,0,0.4c0,0.4,0,0.4,0,0.4l0,0c0,0.3-0.1,0.4-0.1,0.4
						c-0.1,0.1-0.1,0.1-0.3,0.1c-0.3,0.1-0.7,0.1-1,0.1c-0.3,0-0.4,0-0.7,0c0,0-0.5,0-1.4,0c-3.5,0-3.5,0-3.5,0s-4.2,0.8-7.1,1.4
						l0,0l0,0c0,0.8,0,0.9,0,1.2l0,0l0,0c0.5,0,0.9,0,1.4,0l0,0c0,0.5-0.1,1-0.1,1.6c0.5-0.5,1.2-1,1.7-1.6l0,0l0,0l0,0
						c0.3,0,0.7,0,0.9,0c0,0.5,0,1,0,1.6c0.5-0.5,1.2-1,1.7-1.6l0,0c1.3,0,2.1,0,2.7,0c0.1,0,0.7,0,1.3,0c0.3,0,0.7,0,0.9,0
						c0.7,0,1.2,0,1.6,0c0.5,0,1,0,1.7,0h3.3C175.2,195.9,178.6,195.9,179.8,195.8z"/>
				</defs>
				<clipPath id="SVGID_00000132811049421551568890000001265110477502987704_">
					<use xlink:href="#SVGID_00000026870175681793398680000011780035603423067271_"  style="overflow:visible;"/>
				</clipPath>
			</g>
			<g>
				<defs>
					<path id="SVGID_00000152972172629683533220000015626033464512694185_" d="M179.8,195.8c0.1,0,0.5,0,0.8-0.3
						c0,0,0.1-0.1,0.1-0.3c0.1-0.4-0.1-0.8-0.1-0.9c0,0-0.9-0.8-1.4-1.2c-0.5-0.4-1.2-1-2.1-1.7c-1.3,0-2.1,0-2.5,0c0,0-1.7,0-1.8,0
						h-0.1h-0.1l0,0l0,0l0,0l0,0l0,0l0,0l0,0c0,0,0,0,0,0.1v0.1c0,0.1,0,0.3,0,0.4c0,0.4,0,0.4,0,0.4l0,0c0,0.3-0.1,0.4-0.1,0.4
						c-0.1,0.1-0.1,0.1-0.3,0.1c-0.3,0.1-0.7,0.1-1,0.1c-0.3,0-0.4,0-0.7,0c0,0-0.5,0-1.4,0c-3.5,0-3.5,0-3.5,0s-4.2,0.8-7.1,1.4
						l0,0l0,0c0,0.8,0,0.9,0,1.2l0,0l0,0c0.5,0,0.9,0,1.4,0l0,0c0,0.5-0.1,1-0.1,1.6c0.5-0.5,1.2-1,1.7-1.6l0,0l0,0l0,0
						c0.3,0,0.7,0,0.9,0c0,0.5,0,1,0,1.6c0.5-0.5,1.2-1,1.7-1.6l0,0c1.3,0,2.1,0,2.7,0c0.1,0,0.7,0,1.3,0c0.3,0,0.7,0,0.9,0
						c0.7,0,1.2,0,1.6,0c0.5,0,1,0,1.7,0h3.3C175.2,195.9,178.6,195.9,179.8,195.8z"/>
				</defs>
				<defs>
					<path id="SVGID_00000003803345704432438300000015009214054669166265_" d="M179.8,195.8c0.1,0,0.5,0,0.8-0.3
						c0,0,0.1-0.1,0.1-0.3c0.1-0.4-0.1-0.8-0.1-0.9c0,0-0.9-0.8-1.4-1.2c-0.5-0.4-1.2-1-2.1-1.7c-1.3,0-2.1,0-2.5,0c0,0-1.7,0-1.8,0
						h-0.1h-0.1l0,0l0,0l0,0l0,0l0,0l0,0l0,0c0,0,0,0,0,0.1v0.1c0,0.1,0,0.3,0,0.4c0,0.4,0,0.4,0,0.4l0,0c0,0.3-0.1,0.4-0.1,0.4
						c-0.1,0.1-0.1,0.1-0.3,0.1c-0.3,0.1-0.7,0.1-1,0.1c-0.3,0-0.4,0-0.7,0c0,0-0.5,0-1.4,0c-3.5,0-3.5,0-3.5,0s-4.2,0.8-7.1,1.4
						l0,0l0,0c0,0.8,0,0.9,0,1.2l0,0l0,0c0.5,0,0.9,0,1.4,0l0,0c0,0.5-0.1,1-0.1,1.6c0.5-0.5,1.2-1,1.7-1.6l0,0l0,0l0,0
						c0.3,0,0.7,0,0.9,0c0,0.5,0,1,0,1.6c0.5-0.5,1.2-1,1.7-1.6l0,0c1.3,0,2.1,0,2.7,0c0.1,0,0.7,0,1.3,0c0.3,0,0.7,0,0.9,0
						c0.7,0,1.2,0,1.6,0c0.5,0,1,0,1.7,0h3.3C175.2,195.9,178.6,195.9,179.8,195.8z"/>
				</defs>
				<clipPath id="SVGID_00000147189626436029054920000010305908061903721878_">
					<use xlink:href="#SVGID_00000152972172629683533220000015626033464512694185_"  style="overflow:visible;"/>
				</clipPath>
				
					<clipPath id="SVGID_00000090265596287097106870000005253559027703452855_" style="clip-path:url(#SVGID_00000147189626436029054920000010305908061903721878_);">
					<use xlink:href="#SVGID_00000003803345704432438300000015009214054669166265_"  style="overflow:visible;"/>
				</clipPath>
				
					<g transform="matrix(1 1.469368e-39 0 1 0 0)" style="clip-path:url(#SVGID_00000090265596287097106870000005253559027703452855_);">
					
						<image style="overflow:visible;enable-background:new    ;" width="600" height="600" xlink:href="../../background.jpg"  transform="matrix(0 -0.4359 -0.4373 0 231.5443 335.4572)">
					</image>
				</g>
			</g>
		</g>
		<g>
			<path id="SVGID_396_" class="st52" d="M179.8,195.8c0.1,0,0.5,0,0.8-0.3c0,0,0.1-0.1,0.1-0.3c0.1-0.4-0.1-0.8-0.1-0.9
				c0,0-0.9-0.8-1.4-1.2c-0.5-0.4-1.2-1-2.1-1.7c-1.3,0-2.1,0-2.5,0c0,0-1.7,0-1.8,0h-0.1h-0.1l0,0l0,0l0,0l0,0l0,0l0,0l0,0
				c0,0,0,0,0,0.1v0.1c0,0.1,0,0.3,0,0.4c0,0.4,0,0.4,0,0.4l0,0c0,0.3-0.1,0.4-0.1,0.4c-0.1,0.1-0.1,0.1-0.3,0.1
				c-0.3,0.1-0.7,0.1-1,0.1c-0.3,0-0.4,0-0.7,0c0,0-0.5,0-1.4,0c-3.5,0-3.5,0-3.5,0s-4.2,0.8-7.1,1.4l0,0l0,0c0,0.8,0,0.9,0,1.2l0,0
				l0,0c0.5,0,0.9,0,1.4,0l0,0c0,0.5-0.1,1-0.1,1.6c0.5-0.5,1.2-1,1.7-1.6l0,0l0,0l0,0c0.3,0,0.7,0,0.9,0c0,0.5,0,1,0,1.6
				c0.5-0.5,1.2-1,1.7-1.6l0,0c1.3,0,2.1,0,2.7,0c0.1,0,0.7,0,1.3,0c0.3,0,0.7,0,0.9,0c0.7,0,1.2,0,1.6,0c0.5,0,1,0,1.7,0h3.3
				C175.2,195.9,178.6,195.9,179.8,195.8z"/>
		</g>
		<g>
			<path id="SVGID_395_" class="st52" d="M179.8,195.8c0.1,0,0.5,0,0.8-0.3c0,0,0.1-0.1,0.1-0.3c0.1-0.4-0.1-0.8-0.1-0.9
				c0,0-0.9-0.8-1.4-1.2c-0.5-0.4-1.2-1-2.1-1.7c-1.3,0-2.1,0-2.5,0c0,0-1.7,0-1.8,0h-0.1h-0.1l0,0l0,0l0,0l0,0l0,0l0,0l0,0
				c0,0,0,0,0,0.1v0.1c0,0.1,0,0.3,0,0.4c0,0.4,0,0.4,0,0.4l0,0c0,0.3-0.1,0.4-0.1,0.4c-0.1,0.1-0.1,0.1-0.3,0.1
				c-0.3,0.1-0.7,0.1-1,0.1c-0.3,0-0.4,0-0.7,0c0,0-0.5,0-1.4,0c-3.5,0-3.5,0-3.5,0s-4.2,0.8-7.1,1.4l0,0l0,0c0,0.8,0,0.9,0,1.2l0,0
				l0,0c0.5,0,0.9,0,1.4,0l0,0c0,0.5-0.1,1-0.1,1.6c0.5-0.5,1.2-1,1.7-1.6l0,0l0,0l0,0c0.3,0,0.7,0,0.9,0c0,0.5,0,1,0,1.6
				c0.5-0.5,1.2-1,1.7-1.6l0,0c1.3,0,2.1,0,2.7,0c0.1,0,0.7,0,1.3,0c0.3,0,0.7,0,0.9,0c0.7,0,1.2,0,1.6,0c0.5,0,1,0,1.7,0h3.3
				C175.2,195.9,178.6,195.9,179.8,195.8z"/>
		</g>
	</g>
	<g>
		<g>
			<g>
				<defs>
					<path id="SVGID_00000121985851065809978570000011693657911342326694_" d="M146.8,226.4v-3.3c16.8,0,33.5,0,50.3,0
						c-0.1,0.5-0.3,1.2-0.5,1.8c-0.3,0.5-0.5,1-0.8,1.4C179.4,226.4,163,226.4,146.8,226.4z"/>
				</defs>
				<clipPath id="SVGID_00000036229320755617540160000007091204739570531200_">
					<use xlink:href="#SVGID_00000121985851065809978570000011693657911342326694_"  style="overflow:visible;"/>
				</clipPath>
				<g style="clip-path:url(#SVGID_00000036229320755617540160000007091204739570531200_);">
					
						<image style="overflow:visible;enable-background:new    ;" width="600" height="600" xlink:href="../../background.jpg"  transform="matrix(0.3741 0 0 0.3759 160.4159 130.389)">
					</image>
				</g>
			</g>
		</g>
	</g>
	<g>
		<g>
			<g>
				<defs>
					<path id="SVGID_00000113347421904934286640000001081071023819098278_" d="M146.8,226.4v-3.3c16.8,0,33.5,0,50.3,0
						c-0.1,0.5-0.3,1.2-0.5,1.8c-0.3,0.5-0.5,1-0.8,1.4C179.4,226.4,163,226.4,146.8,226.4z"/>
				</defs>
				<clipPath id="SVGID_00000031920031030806835180000008799759522972351616_">
					<use xlink:href="#SVGID_00000113347421904934286640000001081071023819098278_"  style="overflow:visible;"/>
				</clipPath>
				
					<g transform="matrix(1 1.469368e-39 0 1 0 1.525879e-05)" style="clip-path:url(#SVGID_00000031920031030806835180000008799759522972351616_);">
					
						<image style="overflow:visible;enable-background:new    ;" width="600" height="600" xlink:href="../../background.jpg"  transform="matrix(0 -0.4359 -0.4373 0 228.7993 334.4148)">
					</image>
				</g>
			</g>
		</g>
	</g>
	<path id="SVGID_359_" class="st55" d="M146.8,226.4v-3.3c16.8,0,33.5,0,50.3,0c-0.1,0.5-0.3,1.2-0.5,1.8c-0.3,0.5-0.5,1-0.8,1.4
		C179.4,226.4,163,226.4,146.8,226.4z"/>
	<g>
		<g>
			<g>
				<defs>
					<path id="SVGID_00000067953011506276210410000001312206553033868707_" d="M179.9,226.5c0.1,0,0.5,0,0.8,0.3
						c0,0,0.1,0.1,0.1,0.3c0.1,0.4-0.1,0.8-0.1,0.9c0,0-0.9,0.8-1.4,1.2c-0.5,0.4-1.2,1-2.1,1.7c-1.3,0-2.1,0-2.5,0c0,0-1.7,0-1.8,0
						h-0.1h-0.1l0,0l0,0l0,0l0,0l0,0l0,0l0,0c0,0,0,0,0-0.1v-0.1c0-0.1,0-0.3,0-0.4c0-0.4,0-0.4,0-0.4l0,0c0-0.3-0.1-0.4-0.1-0.4
						c-0.1-0.1-0.1-0.1-0.3-0.1c-0.3-0.1-0.7-0.1-1-0.1c-0.3,0-0.4,0-0.7,0c0,0-0.5,0-1.4,0c-3.5,0-3.5,0-3.5,0s-4.2-0.8-7.1-1.4
						l0,0l0,0c0-0.8,0-0.9,0-1.2l0,0l0,0c0.5,0,0.9,0,1.4,0l0,0c0-0.5-0.1-1-0.1-1.6c0.5,0.5,1.2,1,1.7,1.6l0,0l0,0l0,0
						c0.3,0,0.7,0,0.9,0c0-0.5,0-1,0-1.6c0.5,0.5,1.2,1,1.7,1.6l0,0c1.3,0,2.1,0,2.7,0c0.1,0,0.7,0,1.3,0c0.3,0,0.7,0,0.9,0
						c0.7,0,1.2,0,1.6,0c0.5,0,1,0,1.7,0h3.3C175.3,226.4,178.7,226.4,179.9,226.5z"/>
				</defs>
				<clipPath id="SVGID_00000047055118364647481050000013007360493874491013_">
					<use xlink:href="#SVGID_00000067953011506276210410000001312206553033868707_"  style="overflow:visible;"/>
				</clipPath>
			</g>
			<g>
				<defs>
					<path id="SVGID_00000068636457724846375060000009555602142715164545_" d="M179.9,226.5c0.1,0,0.5,0,0.8,0.3
						c0,0,0.1,0.1,0.1,0.3c0.1,0.4-0.1,0.8-0.1,0.9c0,0-0.9,0.8-1.4,1.2c-0.5,0.4-1.2,1-2.1,1.7c-1.3,0-2.1,0-2.5,0c0,0-1.7,0-1.8,0
						h-0.1h-0.1l0,0l0,0l0,0l0,0l0,0l0,0l0,0c0,0,0,0,0-0.1v-0.1c0-0.1,0-0.3,0-0.4c0-0.4,0-0.4,0-0.4l0,0c0-0.3-0.1-0.4-0.1-0.4
						c-0.1-0.1-0.1-0.1-0.3-0.1c-0.3-0.1-0.7-0.1-1-0.1c-0.3,0-0.4,0-0.7,0c0,0-0.5,0-1.4,0c-3.5,0-3.5,0-3.5,0s-4.2-0.8-7.1-1.4
						l0,0l0,0c0-0.8,0-0.9,0-1.2l0,0l0,0c0.5,0,0.9,0,1.4,0l0,0c0-0.5-0.1-1-0.1-1.6c0.5,0.5,1.2,1,1.7,1.6l0,0l0,0l0,0
						c0.3,0,0.7,0,0.9,0c0-0.5,0-1,0-1.6c0.5,0.5,1.2,1,1.7,1.6l0,0c1.3,0,2.1,0,2.7,0c0.1,0,0.7,0,1.3,0c0.3,0,0.7,0,0.9,0
						c0.7,0,1.2,0,1.6,0c0.5,0,1,0,1.7,0h3.3C175.3,226.4,178.7,226.4,179.9,226.5z"/>
				</defs>
				<defs>
					<path id="SVGID_00000120521433384653136220000011698873558393040296_" d="M179.9,226.5c0.1,0,0.5,0,0.8,0.3
						c0,0,0.1,0.1,0.1,0.3c0.1,0.4-0.1,0.8-0.1,0.9c0,0-0.9,0.8-1.4,1.2c-0.5,0.4-1.2,1-2.1,1.7c-1.3,0-2.1,0-2.5,0c0,0-1.7,0-1.8,0
						h-0.1h-0.1l0,0l0,0l0,0l0,0l0,0l0,0l0,0c0,0,0,0,0-0.1v-0.1c0-0.1,0-0.3,0-0.4c0-0.4,0-0.4,0-0.4l0,0c0-0.3-0.1-0.4-0.1-0.4
						c-0.1-0.1-0.1-0.1-0.3-0.1c-0.3-0.1-0.7-0.1-1-0.1c-0.3,0-0.4,0-0.7,0c0,0-0.5,0-1.4,0c-3.5,0-3.5,0-3.5,0s-4.2-0.8-7.1-1.4
						l0,0l0,0c0-0.8,0-0.9,0-1.2l0,0l0,0c0.5,0,0.9,0,1.4,0l0,0c0-0.5-0.1-1-0.1-1.6c0.5,0.5,1.2,1,1.7,1.6l0,0l0,0l0,0
						c0.3,0,0.7,0,0.9,0c0-0.5,0-1,0-1.6c0.5,0.5,1.2,1,1.7,1.6l0,0c1.3,0,2.1,0,2.7,0c0.1,0,0.7,0,1.3,0c0.3,0,0.7,0,0.9,0
						c0.7,0,1.2,0,1.6,0c0.5,0,1,0,1.7,0h3.3C175.3,226.4,178.7,226.4,179.9,226.5z"/>
				</defs>
				<clipPath id="SVGID_00000165941965514034043580000006069449320342360453_">
					<use xlink:href="#SVGID_00000068636457724846375060000009555602142715164545_"  style="overflow:visible;"/>
				</clipPath>
				
					<clipPath id="SVGID_00000145048162345414979160000009215741292046060951_" style="clip-path:url(#SVGID_00000165941965514034043580000006069449320342360453_);">
					<use xlink:href="#SVGID_00000120521433384653136220000011698873558393040296_"  style="overflow:visible;"/>
				</clipPath>
				
					<g transform="matrix(1 1.469368e-39 0 1 0 -1.525879e-05)" style="clip-path:url(#SVGID_00000145048162345414979160000009215741292046060951_);">
					
						<image style="overflow:visible;enable-background:new    ;" width="600" height="600" xlink:href="../../background.jpg"  transform="matrix(0 -0.4359 -0.4373 0 221.4797 329.8879)">
					</image>
				</g>
			</g>
		</g>
		<g>
			<path id="SVGID_358_" class="st58" d="M179.9,226.5c0.1,0,0.5,0,0.8,0.3c0,0,0.1,0.1,0.1,0.3c0.1,0.4-0.1,0.8-0.1,0.9
				c0,0-0.9,0.8-1.4,1.2c-0.5,0.4-1.2,1-2.1,1.7c-1.3,0-2.1,0-2.5,0c0,0-1.7,0-1.8,0h-0.1h-0.1l0,0l0,0l0,0l0,0l0,0l0,0l0,0
				c0,0,0,0,0-0.1v-0.1c0-0.1,0-0.3,0-0.4c0-0.4,0-0.4,0-0.4l0,0c0-0.3-0.1-0.4-0.1-0.4c-0.1-0.1-0.1-0.1-0.3-0.1
				c-0.3-0.1-0.7-0.1-1-0.1c-0.3,0-0.4,0-0.7,0c0,0-0.5,0-1.4,0c-3.5,0-3.5,0-3.5,0s-4.2-0.8-7.1-1.4l0,0l0,0c0-0.8,0-0.9,0-1.2l0,0
				l0,0c0.5,0,0.9,0,1.4,0l0,0c0-0.5-0.1-1-0.1-1.6c0.5,0.5,1.2,1,1.7,1.6l0,0l0,0l0,0c0.3,0,0.7,0,0.9,0c0-0.5,0-1,0-1.6
				c0.5,0.5,1.2,1,1.7,1.6l0,0c1.3,0,2.1,0,2.7,0c0.1,0,0.7,0,1.3,0c0.3,0,0.7,0,0.9,0c0.7,0,1.2,0,1.6,0c0.5,0,1,0,1.7,0h3.3
				C175.3,226.4,178.7,226.4,179.9,226.5z"/>
		</g>
		<g>
			<path id="SVGID_357_" class="st58" d="M179.9,226.5c0.1,0,0.5,0,0.8,0.3c0,0,0.1,0.1,0.1,0.3c0.1,0.4-0.1,0.8-0.1,0.9
				c0,0-0.9,0.8-1.4,1.2c-0.5,0.4-1.2,1-2.1,1.7c-1.3,0-2.1,0-2.5,0c0,0-1.7,0-1.8,0h-0.1h-0.1l0,0l0,0l0,0l0,0l0,0l0,0l0,0
				c0,0,0,0,0-0.1v-0.1c0-0.1,0-0.3,0-0.4c0-0.4,0-0.4,0-0.4l0,0c0-0.3-0.1-0.4-0.1-0.4c-0.1-0.1-0.1-0.1-0.3-0.1
				c-0.3-0.1-0.7-0.1-1-0.1c-0.3,0-0.4,0-0.7,0c0,0-0.5,0-1.4,0c-3.5,0-3.5,0-3.5,0s-4.2-0.8-7.1-1.4l0,0l0,0c0-0.8,0-0.9,0-1.2l0,0
				l0,0c0.5,0,0.9,0,1.4,0l0,0c0-0.5-0.1-1-0.1-1.6c0.5,0.5,1.2,1,1.7,1.6l0,0l0,0l0,0c0.3,0,0.7,0,0.9,0c0-0.5,0-1,0-1.6
				c0.5,0.5,1.2,1,1.7,1.6l0,0c1.3,0,2.1,0,2.7,0c0.1,0,0.7,0,1.3,0c0.3,0,0.7,0,0.9,0c0.7,0,1.2,0,1.6,0c0.5,0,1,0,1.7,0h3.3
				C175.3,226.4,178.7,226.4,179.9,226.5z"/>
		</g>
	</g>
</g>
<g>
	<path class="st4" d="M74.2,263.9c1,0.5,2.1,1.2,3.3,1.7c-1,0.7-2.2,1.2-3.3,1.8c1,0.7,2.2,1.2,3.3,1.8c-1,0.7-2.1,1.3-3.3,1.8
		c1,0.5,2.1,1,3.1,1.7c-1,0.7-2.1,1.4-3.1,2.1c1.2,0.5,2.4,0.9,3.5,1.4c-1.4,0.7-2.7,1.3-4.2,2c1.2,0.7,3.5,1.8,3.5,1.8
		c-0.9,0.5-1.8,1-2.7,1.6c1,0.8,2.2,1.7,3.3,2.5c0,0,0,0,0,0.3c0,0.5,0,1,0,1.6c0,0.8,0,1.6,0,2.4c0,0.3,0,0.5,0,0.8
		c0,0,1.2,0,1.6,0c0.5,0,1,0,1.4,0c1.4,1.7,4.1,4.8,4.1,4.8v0.1h30c0.1-0.3,2.7-3.3,4.2-5c0.4,0,0.9,0,1.4,0c0.4,0,1.6,0,1.6,0
		c0-0.3,0-0.5,0-0.8c0-0.8,0-1.6,0-2.4c0-0.5,0-1,0-1.6c0-0.3,0-0.3,0-0.3s2-1.6,2.9-2.2c-0.9-0.5-2-1.2-2.9-1.7l3.5-1.8l-3.5-1.7
		c0,0,2.4-1.3,3.5-1.7l-3.1-2.1l3.1-1.7l-3.3-1.8l3.3-1.7c-1-0.7-3.1-1.8-3.1-1.8l3.1-1.8c-1-0.7-3-1.8-3-1.8h8.1l6.2,1.3v38.8
		c-0.9,0.4-2.1,0.7-3.4,0.9c-1.4,0.3-2.6,0.4-3.7,0.4c-4.8,0-9.7,0-14.5,0H84.4h-11c-1.6,0.1-3.7,0.3-6.2-0.1
		c-1.7-0.3-3.1-0.7-4.5-1.2c0-13,0-25.9,0-38.9c1.2-0.4,2.6-0.7,4.1-0.9c1.3-0.3,2.6-0.4,3.7-0.4c2.1,0,4.2,0,6.2-0.1
		c0.7,0,1.3,0.1,2,0.1C77.2,262.7,75.8,263.2,74.2,263.9z"/>
	<path class="st44" d="M81,287.7c0.9,0.8,2.7,2.4,3.4,5c0.1,0.5,0.3,1,0.3,1.4c-1.3-1.7-2.7-3.3-4.1-5c-0.4,0-0.9,0-1.4,0l0,0
		c-0.4,0-1.6,0-1.6,0l0,0l0,0c0-0.3,0-0.5,0-0.8c0-0.8,0-1.6,0-2.4c0-0.5,0-1,0-1.6c0-0.3,0-0.3,0-0.3s-2-1.6-2.9-2.2
		c0.9-0.5,2-1.2,2.9-1.7l-3.5-1.8l3.5-1.7c0.4,0.5,0.8,1,1,1.6c1.4,0,2.9,0,4.3,0c0.1,0.4,0.1,0.9,0.3,1.3
		C82.6,282.2,81.8,284.9,81,287.7z"/>
	<polygon class="st1" points="83,269.5 84.3,263.6 84.3,269.5 	"/>
	<path class="st44" d="M118.1,287.7c-0.9,0.8-2.7,2.4-3.4,5c-0.1,0.5-0.3,1-0.3,1.4c1.3-1.7,2.7-3.3,4.1-5c0.4,0,0.9,0,1.4,0l0,0
		c0.4,0,1.6,0,1.6,0l0,0l0,0c0-0.3,0-0.5,0-0.8c0-0.8,0-1.6,0-2.4c0-0.5,0-1,0-1.6c0-0.3,0-0.3,0-0.3s2-1.6,2.9-2.2
		c-0.9-0.5-2-1.2-2.9-1.7l3.5-1.8l-3.5-1.7c-0.4,0.5-0.8,1-1,1.6c-1.4,0-2.9,0-4.3,0c-0.1,0.4-0.1,0.9-0.3,1.3
		C116.5,282.2,117.3,284.9,118.1,287.7z"/>
	<polygon class="st1" points="116.1,269.5 114.8,263.6 114.8,269.5 	"/>
	<path class="st45" d="M121.4,261.9c1.2,0.7,2.4,1.4,3.7,2.1l-3.3,1.7l3.3,1.8l-3.3,1.7l3.3,1.8l-3.1,1.7l3.1,2.1
		c-1.2,0.5-2.4,0.9-3.5,1.4c0,0.4,0,0.8,0,1"/>
	<path class="st1" d="M120.7,278.1c0.1,0.1,0.4,0.3,0.5,0.4h0.7c0.3-0.7,0.5-1.3,0.8-1.8c-0.5,0-1.2-0.1-1.7-0.1
		C120.8,277,120.7,277.6,120.7,278.1z"/>
	<path class="st45" d="M78.8,262.2c-0.8,0.3-1.6,0.5-2.5,0.8c-0.8,0.3-1.4,0.5-2.1,0.8l3.3,1.7l-3.3,1.8l3.3,1.7l-3.3,1.8l3.1,1.7
		l-3.1,2.1c1.2,0.5,2.4,0.9,3.5,1.4c0,0.1,0,0.3,0,0.3"/>
	<path class="st1" d="M76.5,276.8c0.3,0.5,0.7,1,0.9,1.6h0.5c0.3-0.4,0.5-1,0.4-1.7v-0.1c-0.5,0-1,0-1.4,0
		C76.7,276.7,76.6,276.7,76.5,276.8z"/>
	<g>
		<g>
			<g>
				<defs>
					<path id="SVGID_00000054965445102452958010000017428969718455558577_" d="M114.8,258.1h-3.3c0,16.1,0,32.3,0,48.5
						c0.4,0.1,0.8,0.3,1.3,0.4c0.8,0.3,1.4,0.5,2.1,0.8C114.8,291.2,114.8,274.6,114.8,258.1z"/>
				</defs>
				<clipPath id="SVGID_00000152257516864174373170000013484175777565794234_">
					<use xlink:href="#SVGID_00000054965445102452958010000017428969718455558577_"  style="overflow:visible;"/>
				</clipPath>
				
					<g transform="matrix(1 -6.617445e-24 -6.617445e-24 1 0 0)" style="clip-path:url(#SVGID_00000152257516864174373170000013484175777565794234_);">
					
						<image style="overflow:visible;enable-background:new    ;" width="600" height="600" xlink:href="../../background.jpg"  transform="matrix(0 0.3762 -0.3759 0 180.3413 270.4294)">
					</image>
				</g>
			</g>
		</g>
	</g>
	<g>
		<g>
			<g>
				<defs>
					<path id="SVGID_00000066484912362382841050000011448945295115450527_" d="M114.8,258.1h-3.3c0,16.1,0,32.3,0,48.5
						c0.4,0.1,0.8,0.3,1.3,0.4c0.8,0.3,1.4,0.5,2.1,0.8C114.8,291.2,114.8,274.6,114.8,258.1z"/>
				</defs>
				<clipPath id="SVGID_00000036962579583661990600000012805532577539896496_">
					<use xlink:href="#SVGID_00000066484912362382841050000011448945295115450527_"  style="overflow:visible;"/>
				</clipPath>
				
					<g transform="matrix(1 0 0 1 0 1.525879e-05)" style="clip-path:url(#SVGID_00000036962579583661990600000012805532577539896496_);">
					
						<image style="overflow:visible;enable-background:new    ;" width="600" height="600" xlink:href="../../background.jpg"  transform="matrix(0.4359 0 0 -0.4398 -5.8211 336.4596)">
					</image>
				</g>
			</g>
		</g>
	</g>
	<g class="st48">
		<path id="SVGID_407_" class="st49" d="M115,258.1h-3.3c0,16.1,0,32.3,0,48.5c0.4,0.1,0.8,0.3,1.3,0.4c0.8,0.3,1.4,0.5,2.1,0.8
			C115,291.2,115,274.6,115,258.1z"/>
	</g>
	<g>
		<g>
			<g>
				<defs>
					<path id="SVGID_00000163070864975966080830000017946498752955416996_" d="M115,291.2c0,0.1,0,0.5,0.3,0.8c0,0,0.1,0.1,0.3,0.1
						c0.4,0.1,0.8-0.1,0.9-0.1c0,0,0.8-0.9,1.2-1.4c0.4-0.5,1-1.2,1.7-2.1c0-1.3,0-2.1,0-2.6c0,0,0-1.7,0-1.8v-0.1v-0.1l0,0l0,0l0,0
						l0,0l0,0l0,0l0,0c0,0,0,0-0.1,0H119c-0.1,0-0.3,0-0.4,0c-0.4,0-0.4,0-0.4,0l0,0c-0.3,0-0.4-0.1-0.4-0.1
						c-0.1-0.1-0.1-0.1-0.1-0.3c-0.1-0.3-0.1-0.7-0.1-1c0-0.3,0-0.4,0-0.7c0,0,0-0.5,0-1.4c0-3.5,0-3.5,0-3.5s-0.8-4.3-1.4-7.1l0,0
						l0,0c-0.8,0-0.9,0-1.2,0l0,0l0,0c0,0.5,0,0.9,0,1.4l0,0c-0.5,0-1-0.1-1.6-0.1c0.5,0.5,1,1.2,1.6,1.7l0,0l0,0l0,0
						c0,0.3,0,0.7,0,0.9c-0.5,0-1,0-1.6,0c0.5,0.5,1,1.2,1.6,1.7l0,0c0,1.3,0,2.1,0,2.7c0,0.1,0,0.7,0,1.3c0,0.3,0,0.7,0,0.9
						c0,0.7,0,1.2,0,1.6c0,0.5,0,1,0,1.7v3.3C114.8,286.6,114.8,290.1,115,291.2z"/>
				</defs>
				<clipPath id="SVGID_00000055704432585911893500000016158372329300667559_">
					<use xlink:href="#SVGID_00000163070864975966080830000017946498752955416996_"  style="overflow:visible;"/>
				</clipPath>
			</g>
			<g>
				<defs>
					<path id="SVGID_00000176732459568377607560000012824645641867176382_" d="M115,291.2c0,0.1,0,0.5,0.3,0.8c0,0,0.1,0.1,0.3,0.1
						c0.4,0.1,0.8-0.1,0.9-0.1c0,0,0.8-0.9,1.2-1.4c0.4-0.5,1-1.2,1.7-2.1c0-1.3,0-2.1,0-2.6c0,0,0-1.7,0-1.8v-0.1v-0.1l0,0l0,0l0,0
						l0,0l0,0l0,0l0,0c0,0,0,0-0.1,0H119c-0.1,0-0.3,0-0.4,0c-0.4,0-0.4,0-0.4,0l0,0c-0.3,0-0.4-0.1-0.4-0.1
						c-0.1-0.1-0.1-0.1-0.1-0.3c-0.1-0.3-0.1-0.7-0.1-1c0-0.3,0-0.4,0-0.7c0,0,0-0.5,0-1.4c0-3.5,0-3.5,0-3.5s-0.8-4.3-1.4-7.1l0,0
						l0,0c-0.8,0-0.9,0-1.2,0l0,0l0,0c0,0.5,0,0.9,0,1.4l0,0c-0.5,0-1-0.1-1.6-0.1c0.5,0.5,1,1.2,1.6,1.7l0,0l0,0l0,0
						c0,0.3,0,0.7,0,0.9c-0.5,0-1,0-1.6,0c0.5,0.5,1,1.2,1.6,1.7l0,0c0,1.3,0,2.1,0,2.7c0,0.1,0,0.7,0,1.3c0,0.3,0,0.7,0,0.9
						c0,0.7,0,1.2,0,1.6c0,0.5,0,1,0,1.7v3.3C114.8,286.6,114.8,290.1,115,291.2z"/>
				</defs>
				<defs>
					<path id="SVGID_00000085229734404297295600000002353950315378232487_" d="M115,291.2c0,0.1,0,0.5,0.3,0.8c0,0,0.1,0.1,0.3,0.1
						c0.4,0.1,0.8-0.1,0.9-0.1c0,0,0.8-0.9,1.2-1.4c0.4-0.5,1-1.2,1.7-2.1c0-1.3,0-2.1,0-2.6c0,0,0-1.7,0-1.8v-0.1v-0.1l0,0l0,0l0,0
						l0,0l0,0l0,0l0,0c0,0,0,0-0.1,0H119c-0.1,0-0.3,0-0.4,0c-0.4,0-0.4,0-0.4,0l0,0c-0.3,0-0.4-0.1-0.4-0.1
						c-0.1-0.1-0.1-0.1-0.1-0.3c-0.1-0.3-0.1-0.7-0.1-1c0-0.3,0-0.4,0-0.7c0,0,0-0.5,0-1.4c0-3.5,0-3.5,0-3.5s-0.8-4.3-1.4-7.1l0,0
						l0,0c-0.8,0-0.9,0-1.2,0l0,0l0,0c0,0.5,0,0.9,0,1.4l0,0c-0.5,0-1-0.1-1.6-0.1c0.5,0.5,1,1.2,1.6,1.7l0,0l0,0l0,0
						c0,0.3,0,0.7,0,0.9c-0.5,0-1,0-1.6,0c0.5,0.5,1,1.2,1.6,1.7l0,0c0,1.3,0,2.1,0,2.7c0,0.1,0,0.7,0,1.3c0,0.3,0,0.7,0,0.9
						c0,0.7,0,1.2,0,1.6c0,0.5,0,1,0,1.7v3.3C114.8,286.6,114.8,290.1,115,291.2z"/>
				</defs>
				<clipPath id="SVGID_00000177485472783461859680000012682263576001858478_">
					<use xlink:href="#SVGID_00000176732459568377607560000012824645641867176382_"  style="overflow:visible;"/>
				</clipPath>
				
					<clipPath id="SVGID_00000108305631926700936370000018265295928988482728_" style="clip-path:url(#SVGID_00000177485472783461859680000012682263576001858478_);">
					<use xlink:href="#SVGID_00000085229734404297295600000002353950315378232487_"  style="overflow:visible;"/>
				</clipPath>
				<g style="clip-path:url(#SVGID_00000108305631926700936370000018265295928988482728_);">
					
						<image style="overflow:visible;enable-background:new    ;" width="600" height="600" xlink:href="../../background.jpg"  transform="matrix(0.4359 0 0 -0.4398 -24.7268 343.3616)">
					</image>
				</g>
			</g>
		</g>
		<g>
			<path id="SVGID_406_" class="st52" d="M115,291.2c0,0.1,0,0.5,0.3,0.8c0,0,0.1,0.1,0.3,0.1c0.4,0.1,0.8-0.1,0.9-0.1
				c0,0,0.8-0.9,1.2-1.4c0.4-0.5,1-1.2,1.7-2.1c0-1.3,0-2.1,0-2.6c0,0,0-1.7,0-1.8v-0.1v-0.1l0,0l0,0l0,0l0,0l0,0l0,0l0,0
				c0,0,0,0-0.1,0H119c-0.1,0-0.3,0-0.4,0c-0.4,0-0.4,0-0.4,0l0,0c-0.3,0-0.4-0.1-0.4-0.1c-0.1-0.1-0.1-0.1-0.1-0.3
				c-0.1-0.3-0.1-0.7-0.1-1c0-0.3,0-0.4,0-0.7c0,0,0-0.5,0-1.4c0-3.5,0-3.5,0-3.5s-0.8-4.3-1.4-7.1l0,0l0,0c-0.8,0-0.9,0-1.2,0l0,0
				l0,0c0,0.5,0,0.9,0,1.4l0,0c-0.5,0-1-0.1-1.6-0.1c0.5,0.5,1,1.2,1.6,1.7l0,0l0,0l0,0c0,0.3,0,0.7,0,0.9c-0.5,0-1,0-1.6,0
				c0.5,0.5,1,1.2,1.6,1.7l0,0c0,1.3,0,2.1,0,2.7c0,0.1,0,0.7,0,1.3c0,0.3,0,0.7,0,0.9c0,0.7,0,1.2,0,1.6c0,0.5,0,1,0,1.7v3.3
				C114.8,286.6,114.8,290.1,115,291.2z"/>
		</g>
		<g>
			<path id="SVGID_405_" class="st52" d="M115,291.2c0,0.1,0,0.5,0.3,0.8c0,0,0.1,0.1,0.3,0.1c0.4,0.1,0.8-0.1,0.9-0.1
				c0,0,0.8-0.9,1.2-1.4c0.4-0.5,1-1.2,1.7-2.1c0-1.3,0-2.1,0-2.6c0,0,0-1.7,0-1.8v-0.1v-0.1l0,0l0,0l0,0l0,0l0,0l0,0l0,0
				c0,0,0,0-0.1,0H119c-0.1,0-0.3,0-0.4,0c-0.4,0-0.4,0-0.4,0l0,0c-0.3,0-0.4-0.1-0.4-0.1c-0.1-0.1-0.1-0.1-0.1-0.3
				c-0.1-0.3-0.1-0.7-0.1-1c0-0.3,0-0.4,0-0.7c0,0,0-0.5,0-1.4c0-3.5,0-3.5,0-3.5s-0.8-4.3-1.4-7.1l0,0l0,0c-0.8,0-0.9,0-1.2,0l0,0
				l0,0c0,0.5,0,0.9,0,1.4l0,0c-0.5,0-1-0.1-1.6-0.1c0.5,0.5,1,1.2,1.6,1.7l0,0l0,0l0,0c0,0.3,0,0.7,0,0.9c-0.5,0-1,0-1.6,0
				c0.5,0.5,1,1.2,1.6,1.7l0,0c0,1.3,0,2.1,0,2.7c0,0.1,0,0.7,0,1.3c0,0.3,0,0.7,0,0.9c0,0.7,0,1.2,0,1.6c0,0.5,0,1,0,1.7v3.3
				C114.8,286.6,114.8,290.1,115,291.2z"/>
		</g>
	</g>
	<g>
		<g>
			<g>
				<defs>
					<path id="SVGID_00000138567913223513855580000008008179077495863207_" d="M84.3,258.1h3.3c0,16.9,0,33.8,0,50.5
						c-0.5-0.1-1.2-0.3-1.8-0.5c-0.5-0.3-1-0.5-1.4-0.8C84.3,291,84.3,274.5,84.3,258.1z"/>
				</defs>
				<clipPath id="SVGID_00000085239783729967012170000001584836436538755462_">
					<use xlink:href="#SVGID_00000138567913223513855580000008008179077495863207_"  style="overflow:visible;"/>
				</clipPath>
				
					<g transform="matrix(1 -6.617445e-24 -6.617445e-24 1 0 -1.525879e-05)" style="clip-path:url(#SVGID_00000085239783729967012170000001584836436538755462_);">
					
						<image style="overflow:visible;enable-background:new    ;" width="600" height="600" xlink:href="../../background.jpg"  transform="matrix(0 0.3762 -0.3759 0 180.3413 271.8223)">
					</image>
				</g>
			</g>
		</g>
	</g>
	<g>
		<g>
			<g>
				<defs>
					<path id="SVGID_00000096053125927610904650000005104297061963251334_" d="M84.3,258.1h3.3c0,16.9,0,33.8,0,50.5
						c-0.5-0.1-1.2-0.3-1.8-0.5c-0.5-0.3-1-0.5-1.4-0.8C84.3,291,84.3,274.5,84.3,258.1z"/>
				</defs>
				<clipPath id="SVGID_00000114063640244880851160000014539961153182809264_">
					<use xlink:href="#SVGID_00000096053125927610904650000005104297061963251334_"  style="overflow:visible;"/>
				</clipPath>
				<g style="clip-path:url(#SVGID_00000114063640244880851160000014539961153182809264_);">
					
						<image style="overflow:visible;enable-background:new    ;" width="600" height="600" xlink:href="../../background.jpg"  transform="matrix(0.4359 0 0 -0.4398 -23.6844 340.6011)">
					</image>
				</g>
			</g>
		</g>
	</g>
	<path id="SVGID_402_" class="st55" d="M84.3,258.1h3.3c0,16.9,0,33.8,0,50.5c-0.5-0.1-1.2-0.3-1.8-0.5c-0.5-0.3-1-0.5-1.4-0.8
		C84.3,291,84.3,274.5,84.3,258.1z"/>
	<g>
		<g>
			<g>
				<defs>
					<path id="SVGID_00000161606748194719041160000003728641307435573903_" d="M84.2,291.4c0,0.1,0,0.5-0.3,0.8c0,0-0.1,0.1-0.3,0.1
						c-0.4,0.1-0.8-0.1-0.9-0.1c0,0-0.8-0.9-1.2-1.4s-1-1.2-1.7-2.1c0-1.3,0-2.1,0-2.6c0,0,0-1.7,0-1.8V284v-0.1l0,0l0,0l0,0l0,0
						l0,0l0,0l0,0c0,0,0,0,0.1,0h0.1c0.1,0,0.3,0,0.4,0c0.4,0,0.4,0,0.4,0l0,0c0.3,0,0.4-0.1,0.4-0.1c0.1-0.1,0.1-0.1,0.1-0.3
						c0.1-0.3,0.1-0.7,0.1-1c0-0.3,0-0.4,0-0.7c0,0,0-0.5,0-1.4c0-3.5,0-3.5,0-3.5s0.8-4.3,1.4-7.1l0,0l0,0c0.8,0,0.9,0,1.2,0l0,0
						l0,0c0,0.5,0,0.9,0,1.4l0,0c0.5,0,1-0.1,1.6-0.1c-0.5,0.5-1,1.2-1.6,1.7l0,0l0,0l0,0c0,0.3,0,0.7,0,0.9c0.5,0,1,0,1.6,0
						c-0.5,0.5-1,1.2-1.6,1.7l0,0c0,1.3,0,2.1,0,2.7c0,0.1,0,0.7,0,1.3c0,0.3,0,0.7,0,0.9c0,0.7,0,1.2,0,1.6c0,0.5,0,1,0,1.7v3.3
						C84.3,286.8,84.3,290.2,84.2,291.4z"/>
				</defs>
				<clipPath id="SVGID_00000043418923050026262640000008647688084835873715_">
					<use xlink:href="#SVGID_00000161606748194719041160000003728641307435573903_"  style="overflow:visible;"/>
				</clipPath>
			</g>
			<g>
				<defs>
					<path id="SVGID_00000128452257500485482850000008355356711677108653_" d="M84.2,291.4c0,0.1,0,0.5-0.3,0.8c0,0-0.1,0.1-0.3,0.1
						c-0.4,0.1-0.8-0.1-0.9-0.1c0,0-0.8-0.9-1.2-1.4s-1-1.2-1.7-2.1c0-1.3,0-2.1,0-2.6c0,0,0-1.7,0-1.8V284v-0.1l0,0l0,0l0,0l0,0
						l0,0l0,0l0,0c0,0,0,0,0.1,0h0.1c0.1,0,0.3,0,0.4,0c0.4,0,0.4,0,0.4,0l0,0c0.3,0,0.4-0.1,0.4-0.1c0.1-0.1,0.1-0.1,0.1-0.3
						c0.1-0.3,0.1-0.7,0.1-1c0-0.3,0-0.4,0-0.7c0,0,0-0.5,0-1.4c0-3.5,0-3.5,0-3.5s0.8-4.3,1.4-7.1l0,0l0,0c0.8,0,0.9,0,1.2,0l0,0
						l0,0c0,0.5,0,0.9,0,1.4l0,0c0.5,0,1-0.1,1.6-0.1c-0.5,0.5-1,1.2-1.6,1.7l0,0l0,0l0,0c0,0.3,0,0.7,0,0.9c0.5,0,1,0,1.6,0
						c-0.5,0.5-1,1.2-1.6,1.7l0,0c0,1.3,0,2.1,0,2.7c0,0.1,0,0.7,0,1.3c0,0.3,0,0.7,0,0.9c0,0.7,0,1.2,0,1.6c0,0.5,0,1,0,1.7v3.3
						C84.3,286.8,84.3,290.2,84.2,291.4z"/>
				</defs>
				<defs>
					<path id="SVGID_00000072973903044566234430000000459425646487756418_" d="M84.2,291.4c0,0.1,0,0.5-0.3,0.8c0,0-0.1,0.1-0.3,0.1
						c-0.4,0.1-0.8-0.1-0.9-0.1c0,0-0.8-0.9-1.2-1.4s-1-1.2-1.7-2.1c0-1.3,0-2.1,0-2.6c0,0,0-1.7,0-1.8V284v-0.1l0,0l0,0l0,0l0,0
						l0,0l0,0l0,0c0,0,0,0,0.1,0h0.1c0.1,0,0.3,0,0.4,0c0.4,0,0.4,0,0.4,0l0,0c0.3,0,0.4-0.1,0.4-0.1c0.1-0.1,0.1-0.1,0.1-0.3
						c0.1-0.3,0.1-0.7,0.1-1c0-0.3,0-0.4,0-0.7c0,0,0-0.5,0-1.4c0-3.5,0-3.5,0-3.5s0.8-4.3,1.4-7.1l0,0l0,0c0.8,0,0.9,0,1.2,0l0,0
						l0,0c0,0.5,0,0.9,0,1.4l0,0c0.5,0,1-0.1,1.6-0.1c-0.5,0.5-1,1.2-1.6,1.7l0,0l0,0l0,0c0,0.3,0,0.7,0,0.9c0.5,0,1,0,1.6,0
						c-0.5,0.5-1,1.2-1.6,1.7l0,0c0,1.3,0,2.1,0,2.7c0,0.1,0,0.7,0,1.3c0,0.3,0,0.7,0,0.9c0,0.7,0,1.2,0,1.6c0,0.5,0,1,0,1.7v3.3
						C84.3,286.8,84.3,290.2,84.2,291.4z"/>
				</defs>
				<clipPath id="SVGID_00000145047205866806437090000011931721866143568569_">
					<use xlink:href="#SVGID_00000128452257500485482850000008355356711677108653_"  style="overflow:visible;"/>
				</clipPath>
				
					<clipPath id="SVGID_00000070078324274317317260000014263754077230220728_" style="clip-path:url(#SVGID_00000145047205866806437090000011931721866143568569_);">
					<use xlink:href="#SVGID_00000072973903044566234430000000459425646487756418_"  style="overflow:visible;"/>
				</clipPath>
				
					<g transform="matrix(1 0 0 1 1.907349e-06 0)" style="clip-path:url(#SVGID_00000070078324274317317260000014263754077230220728_);">
					
						<image style="overflow:visible;enable-background:new    ;" width="600" height="600" xlink:href="../../background.jpg"  transform="matrix(0.4359 0 0 -0.4398 -19.1576 333.2396)">
					</image>
				</g>
			</g>
		</g>
		<g>
			<path id="SVGID_401_" class="st58" d="M84.2,291.4c0,0.1,0,0.5-0.3,0.8c0,0-0.1,0.1-0.3,0.1c-0.4,0.1-0.8-0.1-0.9-0.1
				c0,0-0.8-0.9-1.2-1.4s-1-1.2-1.7-2.1c0-1.3,0-2.1,0-2.6c0,0,0-1.7,0-1.8V284v-0.1l0,0l0,0l0,0l0,0l0,0l0,0l0,0c0,0,0,0,0.1,0h0.1
				c0.1,0,0.3,0,0.4,0c0.4,0,0.4,0,0.4,0l0,0c0.3,0,0.4-0.1,0.4-0.1c0.1-0.1,0.1-0.1,0.1-0.3c0.1-0.3,0.1-0.7,0.1-1
				c0-0.3,0-0.4,0-0.7c0,0,0-0.5,0-1.4c0-3.5,0-3.5,0-3.5s0.8-4.3,1.4-7.1l0,0l0,0c0.8,0,0.9,0,1.2,0l0,0l0,0c0,0.5,0,0.9,0,1.4l0,0
				c0.5,0,1-0.1,1.6-0.1c-0.5,0.5-1,1.2-1.6,1.7l0,0l0,0l0,0c0,0.3,0,0.7,0,0.9c0.5,0,1,0,1.6,0c-0.5,0.5-1,1.2-1.6,1.7l0,0
				c0,1.3,0,2.1,0,2.7c0,0.1,0,0.7,0,1.3c0,0.3,0,0.7,0,0.9c0,0.7,0,1.2,0,1.6c0,0.5,0,1,0,1.7v3.3
				C84.3,286.8,84.3,290.2,84.2,291.4z"/>
		</g>
		<g>
			<path id="SVGID_400_" class="st58" d="M84.2,291.4c0,0.1,0,0.5-0.3,0.8c0,0-0.1,0.1-0.3,0.1c-0.4,0.1-0.8-0.1-0.9-0.1
				c0,0-0.8-0.9-1.2-1.4s-1-1.2-1.7-2.1c0-1.3,0-2.1,0-2.6c0,0,0-1.7,0-1.8V284v-0.1l0,0l0,0l0,0l0,0l0,0l0,0l0,0c0,0,0,0,0.1,0h0.1
				c0.1,0,0.3,0,0.4,0c0.4,0,0.4,0,0.4,0l0,0c0.3,0,0.4-0.1,0.4-0.1c0.1-0.1,0.1-0.1,0.1-0.3c0.1-0.3,0.1-0.7,0.1-1
				c0-0.3,0-0.4,0-0.7c0,0,0-0.5,0-1.4c0-3.5,0-3.5,0-3.5s0.8-4.3,1.4-7.1l0,0l0,0c0.8,0,0.9,0,1.2,0l0,0l0,0c0,0.5,0,0.9,0,1.4l0,0
				c0.5,0,1-0.1,1.6-0.1c-0.5,0.5-1,1.2-1.6,1.7l0,0l0,0l0,0c0,0.3,0,0.7,0,0.9c0.5,0,1,0,1.6,0c-0.5,0.5-1,1.2-1.6,1.7l0,0
				c0,1.3,0,2.1,0,2.7c0,0.1,0,0.7,0,1.3c0,0.3,0,0.7,0,0.9c0,0.7,0,1.2,0,1.6c0,0.5,0,1,0,1.7v3.3
				C84.3,286.8,84.3,290.2,84.2,291.4z"/>
		</g>
	</g>
</g>
<path class="st67" d="M195.4,206.6c-0.3-1.7-0.5-4.3-0.4-7.5c-37.6,0-75-0.1-112.6-0.1c-26.5,0-52.8,0-79.2,0v24.1
	c28.3,0,56.6,0,84.9,0l0,0h28.3l0,0c27,0,53.8,0,80.8,0c0.1-0.5,0.3-1.3,0.4-2.4C198.1,215.5,196.3,212.3,195.4,206.6z"/>
<linearGradient id="SVGID_00000044160779928441943560000017117837841533423009_" gradientUnits="userSpaceOnUse" x1="100.2969" y1="1056.8231" x2="100.2969" y2="1079.5509" gradientTransform="matrix(1 0 0 1 0 -858)">
	<stop  offset="0" style="stop-color:#333333;stop-opacity:0"/>
	<stop  offset="0.5754" style="stop-color:#808080"/>
	<stop  offset="0.6781" style="stop-color:#C7C7C7;stop-opacity:0.76"/>
	<stop  offset="0.8698" style="stop-color:#4F4F4F;stop-opacity:0.3067"/>
	<stop  offset="1" style="stop-color:#333333;stop-opacity:0"/>
</linearGradient>
<path style="fill:url(#SVGID_00000044160779928441943560000017117837841533423009_);" d="M195,204c-0.1-1-0.3-2.7-0.1-4.8
	c-12.6,0-31.6,0-54.7-0.1c-12.6,0-31,0-57.9,0c-18.6,0-45.7,0-79.2,0.1v24.1c25.5,0,51.1,0,76.7,0l0,0h49.4l0,0
	c22.7,0,45.3-0.1,68-0.1c0.1-0.8,0.5-2.2,0.5-4.1C197.8,213.4,195.6,210.7,195,204z"/>
<g>
	<path class="st67" d="M87.7,308.6c0-28.8-0.1-57.6-0.1-86.3h24c0,28,0,56,0.1,84.2c-1,0-2.7,0-4.7,0.1c-4.5,0.3-6.8,0.9-10.7,1.4
		C94.1,308.4,91.3,308.6,87.7,308.6z"/>
	
		<linearGradient id="SVGID_00000090259304839452531530000009565229079775792045_" gradientUnits="userSpaceOnUse" x1="87.6251" y1="1121.3279" x2="111.6427" y2="1121.3279" gradientTransform="matrix(1 0 0 1 0 -858)">
		<stop  offset="8.379889e-03" style="stop-color:#333333;stop-opacity:0"/>
		<stop  offset="0.4921" style="stop-color:#808080"/>
		<stop  offset="0.5843" style="stop-color:#C7C7C7;stop-opacity:0.76"/>
		<stop  offset="0.8698" style="stop-color:#4F4F4F;stop-opacity:0.3067"/>
		<stop  offset="1" style="stop-color:#333333;stop-opacity:0"/>
	</linearGradient>
	<path style="fill:url(#SVGID_00000090259304839452531530000009565229079775792045_);" d="M87.7,308.6c0-28.5-0.1-57.1-0.1-85.6
		c0.7-0.7,5.4-5.4,12.6-5c6.5,0.3,10.5,4.2,11.3,5c0,27.9,0,55.7,0.1,83.5c-1.2,0-3,0-5.2,0.1c-4.7,0.4-6.8,1-11.4,1.6
		C93.2,308.4,90.7,308.6,87.7,308.6z"/>
	
		<linearGradient id="SVGID_00000174594021813407228010000001104871931352236930_" gradientUnits="userSpaceOnUse" x1="99.6018" y1="1072.3959" x2="99.5785" y2="1105.2188" gradientTransform="matrix(1 0 0 1 0 -858)">
		<stop  offset="0.4916" style="stop-color:#333333;stop-opacity:0.8"/>
		<stop  offset="1" style="stop-color:#333333;stop-opacity:0"/>
	</linearGradient>
	<path style="fill:url(#SVGID_00000174594021813407228010000001104871931352236930_);" d="M87.7,308.6c0-28.5-0.1-57.1-0.1-85.6
		c0.7-0.7,5.4-5.4,12.6-5c6.5,0.3,10.5,4.2,11.3,5c0,27.9,0,55.7,0.1,83.5c-3-0.1-5.5,0.1-7.1,0.3c-4.7,0.5-6.9,1.4-11.8,1.7
		C90.6,308.6,88.8,308.6,87.7,308.6z"/>
</g>
<g>
	<path class="st71" d="M32.1,196.4c0.1,0,0.5,0,0.8-0.3c0,0,0.1-0.1,0.1-0.3c0.1-0.4-0.1-0.8-0.1-0.8s-0.9-0.8-1.4-1.2s-1-1-2-1.7
		c-1.2,0-2,0-2.5,0h-1.7h-0.1c-0.1,0-0.1,0-0.1,0s0,0-0.1,0c0,0,0,0-0.1,0l0,0l0,0l0,0l0,0l0,0v0.1c0,0.1,0,0.1,0,0.1
		c0,0.1,0,0.1,0,0.4c0,0.4,0,0.4,0,0.5l0,0c0,0.3-0.1,0.4-0.1,0.4c-0.1,0.1-0.1,0.1-0.3,0.1c-0.3,0.1-0.5,0.1-1,0.1
		c-0.1,0-0.4,0-0.5,0c0,0-0.5,0-1.4,0c-3.4,0-3.4,0-3.4,0s-4.2,0.8-6.9,1.4l0,0l0,0c0,0.8,0,0.9,0,1v0.1l0,0c0.5,0,0.9,0,1.4,0l0,0
		c0,0.5-0.1,1-0.1,1.6c0.5-0.5,1-1,1.7-1.6l0,0l0,0l0,0c0.3,0,0.5,0,0.8,0c0,0.5,0,1,0,1.6c0.5-0.5,1-1,1.7-1.6l0,0c1.2,0,2,0,2.6,0
		c0.1,0,0.7,0,1.3,0c0.3,0,0.5,0,0.9,0c0.7,0,1,0,1.4,0c0.5,0,1,0,1.6,0h3.3C27.6,196.6,31,196.6,32.1,196.4z"/>
</g>
<g>
	<g>
		<defs>
			<path id="SVGID_00000170236657968673152970000016697614475027630474_" d="M32.1,196.4c0.1,0,0.5,0,0.8-0.3c0,0,0.1-0.1,0.1-0.3
				c0.1-0.4-0.1-0.8-0.1-0.8s-0.9-0.8-1.4-1.2s-1-1-2-1.7c-1.2,0-2,0-2.5,0h-1.7h-0.1c-0.1,0-0.1,0-0.1,0s0,0-0.1,0c0,0,0,0-0.1,0
				l0,0l0,0l0,0l0,0l0,0v0.1c0,0.1,0,0.1,0,0.1c0,0.1,0,0.1,0,0.4c0,0.4,0,0.4,0,0.5l0,0c0,0.3-0.1,0.4-0.1,0.4
				c-0.1,0.1-0.1,0.1-0.3,0.1c-0.3,0.1-0.5,0.1-1,0.1c-0.1,0-0.4,0-0.5,0c0,0-0.5,0-1.4,0c-3.4,0-3.4,0-3.4,0s-4.2,0.8-6.9,1.4l0,0
				l0,0c0,0.8,0,0.9,0,1v0.1l0,0c0.5,0,0.9,0,1.4,0l0,0c0,0.5-0.1,1-0.1,1.6c0.5-0.5,1-1,1.7-1.6l0,0l0,0l0,0c0.3,0,0.5,0,0.8,0
				c0,0.5,0,1,0,1.6c0.5-0.5,1-1,1.7-1.6l0,0c1.2,0,2,0,2.6,0c0.1,0,0.7,0,1.3,0c0.3,0,0.5,0,0.9,0c0.7,0,1,0,1.4,0c0.5,0,1,0,1.6,0
				h3.3C27.6,196.6,31,196.6,32.1,196.4z"/>
		</defs>
		<clipPath id="SVGID_00000123423218959545626600000003810359677105917117_">
			<use xlink:href="#SVGID_00000170236657968673152970000016697614475027630474_"  style="overflow:visible;"/>
		</clipPath>
		<g transform="matrix(1 0 0 1 0 0)" style="clip-path:url(#SVGID_00000123423218959545626600000003810359677105917117_);">
			
				<image style="overflow:visible;enable-background:new    ;" width="600" height="600" xlink:href="../../background.jpg"  transform="matrix(0.1384 0 0 0.1384 -14.2664 171.1373)">
			</image>
		</g>
	</g>
	<g>
		<path id="SVGID_412_" class="st58" d="M32.1,196.4c0.1,0,0.5,0,0.8-0.3c0,0,0.1-0.1,0.1-0.3c0.1-0.4-0.1-0.8-0.1-0.8
			s-0.9-0.8-1.4-1.2s-1-1-2-1.7c-1.2,0-2,0-2.5,0h-1.7h-0.1c-0.1,0-0.1,0-0.1,0s0,0-0.1,0c0,0,0,0-0.1,0l0,0l0,0l0,0l0,0l0,0v0.1
			c0,0.1,0,0.1,0,0.1c0,0.1,0,0.1,0,0.4c0,0.4,0,0.4,0,0.5l0,0c0,0.3-0.1,0.4-0.1,0.4c-0.1,0.1-0.1,0.1-0.3,0.1
			c-0.3,0.1-0.5,0.1-1,0.1c-0.1,0-0.4,0-0.5,0c0,0-0.5,0-1.4,0c-3.4,0-3.4,0-3.4,0s-4.2,0.8-6.9,1.4l0,0l0,0c0,0.8,0,0.9,0,1v0.1
			l0,0c0.5,0,0.9,0,1.4,0l0,0c0,0.5-0.1,1-0.1,1.6c0.5-0.5,1-1,1.7-1.6l0,0l0,0l0,0c0.3,0,0.5,0,0.8,0c0,0.5,0,1,0,1.6
			c0.5-0.5,1-1,1.7-1.6l0,0c1.2,0,2,0,2.6,0c0.1,0,0.7,0,1.3,0c0.3,0,0.5,0,0.9,0c0.7,0,1,0,1.4,0c0.5,0,1,0,1.6,0h3.3
			C27.6,196.6,31,196.6,32.1,196.4z"/>
	</g>
</g>
<g>
	<g>
		<defs>
			<path id="SVGID_00000031914987021987865040000015385822442544184225_" d="M27.1,225.6h-3.3c-0.5,0-1,0-1.6,0c-0.4,0-0.8,0-1.4,0
				c-0.4,0-0.7,0-0.9,0c-0.7,0-1.2,0-1.3,0c-0.7,0-1.4,0-2.6,0l0,0c-0.7-0.5-1.2-1-1.7-1.6c0,0.5,0,1,0,1.6c-0.3,0-0.5,0-0.8,0l0,0
				l0,0l0,0c-0.7-0.5-1.2-1-1.7-1.6c0,0.5,0.1,1,0.1,1.6l0,0c-0.5,0-0.9,0-1.4,0l0,0v0.1c0,0.1,0,0.3,0,1l0,0l0,0
				c2.7,0.7,6.9,1.4,6.9,1.4s0,0,3.4,0c0.9,0,1.4,0,1.4,0c0.1,0,0.4,0,0.5,0c0.5,0,0.8,0,1,0.1c0.1,0,0.1,0,0.3,0.1
				c0,0,0.1,0.1,0.1,0.4l0,0c0,0.1,0,0.1,0,0.5c0,0.3,0,0.3,0,0.4c0,0,0,0,0,0.1v0.1l0,0l0,0l0,0l0,0l0,0c0.1,0,0.1,0,0.1,0
				c0.1,0,0.1,0,0.1,0s0,0,0.1,0h0.1h1.7c0.5,0,1.3,0,2.5,0c0.9-0.7,1.4-1.3,2-1.7c0.5-0.4,1.4-1.2,1.4-1.2s0.3-0.4,0.1-0.8
				c0-0.1-0.1-0.3-0.1-0.3c-0.3-0.3-0.7-0.3-0.8-0.3C30.5,225.8,27.1,225.8,27.1,225.6z"/>
		</defs>
		<clipPath id="SVGID_00000004544947060050656670000011785512114983639722_">
			<use xlink:href="#SVGID_00000031914987021987865040000015385822442544184225_"  style="overflow:visible;"/>
		</clipPath>
		<g transform="matrix(1 0 0 1 0 0)" style="clip-path:url(#SVGID_00000004544947060050656670000011785512114983639722_);">
			
				<image style="overflow:visible;enable-background:new    ;" width="600" height="600" xlink:href="../../background.jpg"  transform="matrix(0.1384 0 0 -0.1384 -14.7902 251.176)">
			</image>
		</g>
	</g>
	<g>
		<path id="SVGID_1_" class="st58" d="M27.1,225.6h-3.3c-0.5,0-1,0-1.6,0c-0.4,0-0.8,0-1.4,0c-0.4,0-0.7,0-0.9,0c-0.7,0-1.2,0-1.3,0
			c-0.7,0-1.4,0-2.6,0l0,0c-0.7-0.5-1.2-1-1.7-1.6c0,0.5,0,1,0,1.6c-0.3,0-0.5,0-0.8,0l0,0l0,0l0,0c-0.7-0.5-1.2-1-1.7-1.6
			c0,0.5,0.1,1,0.1,1.6l0,0c-0.5,0-0.9,0-1.4,0l0,0v0.1c0,0.1,0,0.3,0,1l0,0l0,0c2.7,0.7,6.9,1.4,6.9,1.4s0,0,3.4,0
			c0.9,0,1.4,0,1.4,0c0.1,0,0.4,0,0.5,0c0.5,0,0.8,0,1,0.1c0.1,0,0.1,0,0.3,0.1c0,0,0.1,0.1,0.1,0.4l0,0c0,0.1,0,0.1,0,0.5
			c0,0.3,0,0.3,0,0.4c0,0,0,0,0,0.1v0.1l0,0l0,0l0,0l0,0l0,0c0.1,0,0.1,0,0.1,0c0.1,0,0.1,0,0.1,0s0,0,0.1,0h0.1h1.7
			c0.5,0,1.3,0,2.5,0c0.9-0.7,1.4-1.3,2-1.7c0.5-0.4,1.4-1.2,1.4-1.2s0.3-0.4,0.1-0.8c0-0.1-0.1-0.3-0.1-0.3
			c-0.3-0.3-0.7-0.3-0.8-0.3C30.5,225.8,27.1,225.8,27.1,225.6z"/>
	</g>
</g>
<image style="overflow:visible;" width="200" height="200" xlink:href="../../pepsi.png"  transform="matrix(9.723604e-02 0 0 9.723604e-02 88.9258 44.8128)">
</image>
</svg>
