<?xml version="1.0" encoding="utf-8"?>
<!-- Generator: Adobe Illustrator 25.4.1, SVG Export Plug-In . SVG Version: 6.00 Build 0)  -->
<svg version="1.1" id="Слой_1" xmlns="http://www.w3.org/2000/svg" xmlns:xlink="http://www.w3.org/1999/xlink" x="0px" y="0px"
	 viewBox="0 0 200 320" style="enable-background:new 0 0 200 320;" xml:space="preserve">
<style type="text/css">
	.st0{fill:url(#SVGID_00000172425652459449028470000000960124364459715255_);}
	.st1{opacity:0.28;fill:url(#SVGID_00000054988152661043654320000003383769490234317759_);enable-background:new    ;}
	.st2{fill:url(#SVGID_00000072992892641376426570000006143599630049736867_);}
	.st3{fill:url(#SVGID_00000024724659735610141930000002520434120353476481_);}
	.st4{fill:#AAAAAA;}
	.st5{fill:url(#SVGID_00000127014140388446072130000003693972068436878213_);}
	.st6{fill:url(#SVGID_00000154417986888560198640000015285062191031266713_);}
	.st7{fill:url(#SVGID_00000014605271246520727610000000055971671152754097_);}
	.st8{fill:url(#SVGID_00000092419000865908937060000005942156298234086328_);}
	.st9{opacity:0.28;fill:url(#SVGID_00000043426528201404107750000003484042296083704508_);enable-background:new    ;}
	.st10{fill:url(#SVGID_00000026873743977149773400000004302621942785215107_);}
	.st11{opacity:0.28;fill:url(#SVGID_00000014600670948460744950000010195312800138654138_);enable-background:new    ;}
	.st12{fill:url(#SVGID_00000033346416115288395540000006466636779641729687_);}
	.st13{fill:url(#SVGID_00000066490392946578314550000005946092498254760636_);}
	.st14{fill:url(#SVGID_00000150798414465086891350000014236121195750770817_);}
	.st15{fill:url(#SVGID_00000031192614969475176220000001672965636896206261_);}
	.st16{fill:url(#SVGID_00000108292228989201140410000010349297173610135716_);}
	.st17{fill:url(#SVGID_00000075852271756328965470000014139261531223972509_);}
	.st18{opacity:0.28;fill:url(#SVGID_00000028294027920265885390000005911992523975488940_);enable-background:new    ;}
	.st19{fill:url(#SVGID_00000109751361297616313870000017765904148135582368_);}
	.st20{opacity:0.28;fill:url(#SVGID_00000000945492813632106230000004988513366985110438_);enable-background:new    ;}
	.st21{fill:url(#SVGID_00000124146226543384409600000011541353802153550728_);}
	.st22{fill:url(#SVGID_00000011031201987458747600000011977245780206904760_);}
	.st23{fill:url(#SVGID_00000157287844549601924140000010971451606482741655_);}
	.st24{fill:url(#SVGID_00000055673099632091975670000017587291153844736920_);}
	.st25{fill:url(#SVGID_00000006703803333906337030000003116074160894241957_);}
	.st26{fill:url(#SVGID_00000050631967152868216620000000265248684877652608_);}
	.st27{opacity:0.28;fill:url(#SVGID_00000055677087324289487720000015818945753802888325_);enable-background:new    ;}
	.st28{opacity:0.28;fill:url(#SVGID_00000018195785044372753160000001246644473333862078_);enable-background:new    ;}
	.st29{fill:url(#SVGID_00000126302447939057346390000004749979426516894877_);}
	.st30{fill:url(#SVGID_00000053506091486131872030000000119412067688783293_);}
	.st31{fill:url(#SVGID_00000115482990919744359350000012485387925644971937_);}
	.st32{fill:url(#SVGID_00000065764657080962367910000007736357072481673099_);}
	.st33{fill:url(#SVGID_00000003065149485858916190000003516595698464866456_);}
	.st34{fill:url(#SVGID_00000126306823205344980430000000534969980990413441_);}
	.st35{fill:url(#SVGID_00000066509048934129812660000001728931833971558047_);}
	.st36{fill:url(#SVGID_00000042736133728312882760000006687405072900904095_);}
	.st37{fill:none;stroke:url(#SVGID_00000089552793680105234310000005975774242297881775_);stroke-miterlimit:10;}
	.st38{fill:none;stroke:url(#SVGID_00000103984279943769696870000000838890415688583308_);stroke-miterlimit:10;}
	.st39{fill:none;stroke:url(#SVGID_00000023280848951533968430000006866910460125726883_);stroke-miterlimit:10;}
	.st40{clip-path:url(#SVGID_00000176025394697137351590000007710183639893013389_);}
	.st41{fill:none;stroke:#CCCCCC;stroke-miterlimit:10;}
	.st42{opacity:0.38;enable-background:new    ;}
	.st43{fill:#282828;stroke:#282828;stroke-width:0.5;stroke-miterlimit:10;}
	.st44{fill:#282828;}
	.st45{fill:none;stroke:#ADADAD;stroke-width:0.5;stroke-miterlimit:10;}
	.st46{clip-path:url(#SVGID_00000111875440554796774960000006829656278974284725_);}
	.st47{opacity:0.53;}
	.st48{fill:#666666;}
	.st49{clip-path:url(#SVGID_00000070111591164627414350000018298754150295523256_);}
	.st50{clip-path:url(#SVGID_00000080918738356125698480000003239770855343207555_);}
	.st51{fill:none;stroke:#808080;stroke-width:0.5;}
	.st52{clip-path:url(#SVGID_00000102519780895084827620000011552043681692234145_);}
	.st53{opacity:0.54;fill:#666666;enable-background:new    ;}
	.st54{clip-path:url(#SVGID_00000129175410400814940460000009256671588623795869_);}
	.st55{clip-path:url(#SVGID_00000096018804451172190660000008072129394321405590_);}
	.st56{fill:none;stroke:#999999;stroke-width:0.5;}
	.st57{clip-path:url(#SVGID_00000183951945645346645800000000244289545902855298_);}
	.st58{clip-path:url(#SVGID_00000090992908665842273270000006482835920250795942_);}
	.st59{clip-path:url(#SVGID_00000178196487879739177450000013828337842063969184_);}
	.st60{clip-path:url(#SVGID_00000152253964312508210760000000405949482224528027_);}
	.st61{clip-path:url(#SVGID_00000144336628008101340690000001103057760254860682_);}
	.st62{clip-path:url(#SVGID_00000047025398945117037690000016872757061754944130_);}
	.st63{clip-path:url(#SVGID_00000034047322571675350290000015254297466031205025_);}
	.st64{clip-path:url(#SVGID_00000012446789546496185080000001201858965100851075_);}
	.st65{clip-path:url(#SVGID_00000000193927406293071630000018066087417262188714_);}
	.st66{clip-path:url(#SVGID_00000072241542024575821950000009976598035987287941_);}
	.st67{clip-path:url(#SVGID_00000127741068805682273320000016925811887154480560_);}
	.st68{clip-path:url(#SVGID_00000026858748415498088720000016140415845136245120_);}
	.st69{fill:#4D4D4D;}
	.st70{fill:url(#SVGID_00000003105419344947754610000007062109538479234724_);}
	.st71{fill:url(#SVGID_00000070824236675061337420000016201319184299007388_);}
	.st72{fill:url(#SVGID_00000178899196836117966410000015087590829072645005_);}
</style>
<g>
	
		<linearGradient id="SVGID_00000024699219823992459830000004872281804838228662_" gradientUnits="userSpaceOnUse" x1="-1885.7057" y1="123.1794" x2="-1886.8021" y2="153.1831" gradientTransform="matrix(-1 0 0 -1 -1693.1812 189)">
		<stop  offset="0" style="stop-color:#999898"/>
		<stop  offset="0.1963" style="stop-color:#4F4F4F"/>
		<stop  offset="0.2507" style="stop-color:#5B5B5B"/>
		<stop  offset="0.3499" style="stop-color:#7C7C7C"/>
		<stop  offset="0.3704" style="stop-color:#848484"/>
		<stop  offset="0.433" style="stop-color:#878787"/>
		<stop  offset="0.5268" style="stop-color:#A0A0A0"/>
		<stop  offset="0.6843" style="stop-color:#C6C6C6"/>
		<stop  offset="0.9078" style="stop-color:#B7B7B7"/>
		<stop  offset="1" style="stop-color:#C6C6C6"/>
	</linearGradient>
	<path style="fill:url(#SVGID_00000024699219823992459830000004872281804838228662_);" d="M195,65.7c-1.7,0-3.2,0-4.9,0V35.8
		c1.7,0,3.2,0,4.9,0.1c-0.4,1-1.2,3.9-1.2,7.5c0,3.9,1.2,7.1,1.2,7.4c0.3,0.6,0.5,1.4,0.8,2.8c0.5,2.1,0.5,3.4,0.5,3.6
		c0,0.1,0,0.8,0,1.6c0,0.1,0,0.8,0,1.2c-0.1,1-0.3,1.9-0.4,2.5C195.5,63.9,195.2,64.9,195,65.7z"/>
	
		<linearGradient id="SVGID_00000109713659121047445850000006954591268479820189_" gradientUnits="userSpaceOnUse" x1="-2216.9172" y1="921.5213" x2="-2214.2803" y2="921.5213" gradientTransform="matrix(-1 0 0 1 -2023.2839 -870.7528)">
		<stop  offset="0" style="stop-color:#1A1A1A"/>
		<stop  offset="0" style="stop-color:#000000;stop-opacity:0"/>
		<stop  offset="0.3429" style="stop-color:#0A0A0A;stop-opacity:0.3341"/>
		<stop  offset="0.9264" style="stop-color:#252525;stop-opacity:0.9026"/>
		<stop  offset="1" style="stop-color:#292929;stop-opacity:0.9744"/>
	</linearGradient>
	
		<polygon style="opacity:0.28;fill:url(#SVGID_00000109713659121047445850000006954591268479820189_);enable-background:new    ;" points="
		191,35.8 193.7,35.8 193.7,65.7 191,65.7 	"/>
	
		<linearGradient id="SVGID_00000168798899288704691010000011116832936108018081_" gradientUnits="userSpaceOnUse" x1="-1819.9857" y1="109.7331" x2="-1819.9857" y2="166.8591" gradientTransform="matrix(-1 0 0 -1 -1649.2958 189)">
		<stop  offset="2.230000e-02" style="stop-color:#1A1A1A"/>
		<stop  offset="0.9832" style="stop-color:#CCCCCC"/>
	</linearGradient>
	<polygon style="fill:url(#SVGID_00000168798899288704691010000011116832936108018081_);" points="150.3,79.3 191.1,79.3 
		191.1,22.1 150.3,22.1 	"/>
	
		<linearGradient id="SVGID_00000155830423809271688740000003529003894719965580_" gradientUnits="userSpaceOnUse" x1="-1820.0216" y1="102.1076" x2="-1820.0216" y2="119.8492" gradientTransform="matrix(-1 0 0 -1 -1649.2958 189)">
		<stop  offset="0" style="stop-color:#727272"/>
		<stop  offset="1" style="stop-color:#4C4C4C"/>
	</linearGradient>
	<path style="fill:url(#SVGID_00000155830423809271688740000003529003894719965580_);" d="M151.7,69.2h38.1c0,0,3,7.6,0,17.7h-38.1
		C151.7,86.9,148.6,77.7,151.7,69.2z"/>
	<path class="st4" d="M151.7,32.4h38.1c0,0,3,15.8,0,36.8h-38.1C151.7,69.2,148.6,50.2,151.7,32.4z"/>
	
		<linearGradient id="SVGID_00000133505089639339566460000006668668611015707267_" gradientUnits="userSpaceOnUse" x1="-1820.0216" y1="156.6488" x2="-1820.0216" y2="174.3905" gradientTransform="matrix(-1 0 0 -1 -1649.2958 189)">
		<stop  offset="0" style="stop-color:#F4F4F4"/>
		<stop  offset="1" style="stop-color:#BABABA"/>
	</linearGradient>
	<path style="fill:url(#SVGID_00000133505089639339566460000006668668611015707267_);" d="M151.7,14.6h38.1c0,0,3,7.6,0,17.7h-38.1
		C151.7,32.4,148.6,23.2,151.7,14.6z"/>
	
		<linearGradient id="SVGID_00000084506450664517823870000006452964840650472851_" gradientUnits="userSpaceOnUse" x1="140.9637" y1="117.617" x2="140.9637" y2="159.9407" gradientTransform="matrix(1 0 0 -1 0 189)">
		<stop  offset="0" style="stop-color:#999898"/>
		<stop  offset="0.1963" style="stop-color:#4F4F4F"/>
		<stop  offset="0.2507" style="stop-color:#5B5B5B"/>
		<stop  offset="0.3499" style="stop-color:#7C7C7C"/>
		<stop  offset="0.3704" style="stop-color:#848484"/>
		<stop  offset="0.433" style="stop-color:#878787"/>
		<stop  offset="0.5974" style="stop-color:#D9D9D9"/>
		<stop  offset="0.6843" style="stop-color:#FFFFFF"/>
		<stop  offset="0.9078" style="stop-color:#B7B7B7"/>
		<stop  offset="1" style="stop-color:#C6C6C6"/>
	</linearGradient>
	<path style="fill:url(#SVGID_00000084506450664517823870000006452964840650472851_);" d="M148.5,71.4c0,0-7.2-1.3-15,0V29
		c0,0,6.1,1.4,15,0V71.4z"/>
	
		<linearGradient id="SVGID_00000018924233624285223260000010442507287048216999_" gradientUnits="userSpaceOnUse" x1="73.5191" y1="115.8075" x2="73.5191" y2="161.7617" gradientTransform="matrix(1 0 0 -1 75.9101 189)">
		<stop  offset="0" style="stop-color:#636363"/>
		<stop  offset="0.1983" style="stop-color:#444444"/>
		<stop  offset="0.2933" style="stop-color:#383838"/>
		<stop  offset="0.433" style="stop-color:#565656"/>
		<stop  offset="0.6732" style="stop-color:#E5E5E5"/>
		<stop  offset="0.9078" style="stop-color:#7F7E7E"/>
		<stop  offset="1" style="stop-color:#939292"/>
	</linearGradient>
	<path style="fill:url(#SVGID_00000018924233624285223260000010442507287048216999_);" d="M148.6,73.2c0.5-0.6,1.2-1.2,1.7-1.8
		c0-14.2,0-28.4,0-42.7c-0.5-0.5-1.2-1-1.7-1.6V73.2z"/>
	
		<linearGradient id="SVGID_00000117643280645078739100000016311634495328301246_" gradientUnits="userSpaceOnUse" x1="-1807.2968" y1="115.8075" x2="-1807.2968" y2="161.7713" gradientTransform="matrix(-1 0 0 -1 -1659.4832 189)">
		<stop  offset="0" style="stop-color:#7F7F7F"/>
		<stop  offset="0.1983" style="stop-color:#606060"/>
		<stop  offset="0.2933" style="stop-color:#545454"/>
		<stop  offset="0.433" style="stop-color:#757575"/>
		<stop  offset="0.6732" style="stop-color:#FFFFFF"/>
		<stop  offset="0.9078" style="stop-color:#9B9B9B"/>
		<stop  offset="1" style="stop-color:#B2B2B2"/>
	</linearGradient>
	<path style="fill:url(#SVGID_00000117643280645078739100000016311634495328301246_);" d="M148.6,73.2c-0.5-0.6-1-1.3-1.6-1.9
		c0-14.1,0-28,0.1-42.1c0.5-0.6,0.9-1.3,1.4-1.9V73.2z"/>
	
		<linearGradient id="SVGID_00000167396463355526228320000008517857241332679045_" gradientUnits="userSpaceOnUse" x1="-84.4359" y1="921.0043" x2="-78.3788" y2="921.0043" gradientTransform="matrix(1 0 0 1 225.5993 -870.7528)">
		<stop  offset="0" style="stop-color:#1A1A1A"/>
		<stop  offset="0" style="stop-color:#000000;stop-opacity:0"/>
		<stop  offset="0.3429" style="stop-color:#0A0A0A;stop-opacity:0.3341"/>
		<stop  offset="0.9264" style="stop-color:#252525;stop-opacity:0.9026"/>
		<stop  offset="1" style="stop-color:#292929;stop-opacity:0.9744"/>
	</linearGradient>
	<path style="opacity:0.28;fill:url(#SVGID_00000167396463355526228320000008517857241332679045_);enable-background:new    ;" d="
		M147.2,29.2c-0.9,0.1-1.9,0.3-3,0.4c-1,0.1-2.1,0.1-3.1,0.1c0,13.7,0,27.4,0,41.1c0.9,0,1.9,0,3,0.1c1,0.1,2.1,0.1,3,0.3
		C147.2,57.2,147.2,43.2,147.2,29.2z"/>
</g>
<g>
	<g>
		
			<linearGradient id="SVGID_00000094607304294960231870000002212824082685087133_" gradientUnits="userSpaceOnUse" x1="-1589.6478" y1="1170.4598" x2="-1590.745" y2="1200.4855" gradientTransform="matrix(0 -1 1 0 -1084.7197 -1446.5433)">
			<stop  offset="0" style="stop-color:#999898"/>
			<stop  offset="0.1963" style="stop-color:#4F4F4F"/>
			<stop  offset="0.2507" style="stop-color:#5B5B5B"/>
			<stop  offset="0.3499" style="stop-color:#7C7C7C"/>
			<stop  offset="0.3704" style="stop-color:#848484"/>
			<stop  offset="0.433" style="stop-color:#878787"/>
			<stop  offset="0.5268" style="stop-color:#A0A0A0"/>
			<stop  offset="0.6843" style="stop-color:#C6C6C6"/>
			<stop  offset="0.9078" style="stop-color:#B7B7B7"/>
			<stop  offset="1" style="stop-color:#C6C6C6"/>
		</linearGradient>
		<path style="fill:url(#SVGID_00000094607304294960231870000002212824082685087133_);" d="M85.8,145.6c0-1.7,0-3.2,0-4.9h30
			c0,1.7,0,3.2-0.1,4.9c-1-0.4-3.9-1.2-7.5-1.2c-3.9,0-7.1,1.2-7.4,1.2c-0.6,0.3-1.4,0.5-2.8,0.8c-2.1,0.5-3.4,0.5-3.6,0.5
			c-0.1,0-0.8,0-1.6,0c-0.1,0-0.8,0-1.2,0c-1-0.1-1.9-0.3-2.5-0.4C87.7,146.1,86.6,145.8,85.8,145.6z"/>
		
			<linearGradient id="SVGID_00000003087344579744980840000013819583490466379186_" gradientUnits="userSpaceOnUse" x1="-1920.8333" y1="-125.7355" x2="-1918.1964" y2="-125.7355" gradientTransform="matrix(0 -1 -1 0 -24.9669 -1776.646)">
			<stop  offset="0" style="stop-color:#1A1A1A"/>
			<stop  offset="0" style="stop-color:#000000;stop-opacity:0"/>
			<stop  offset="0.3429" style="stop-color:#0A0A0A;stop-opacity:0.3341"/>
			<stop  offset="0.9264" style="stop-color:#252525;stop-opacity:0.9026"/>
			<stop  offset="1" style="stop-color:#292929;stop-opacity:0.9744"/>
		</linearGradient>
		
			<polygon style="opacity:0.28;fill:url(#SVGID_00000003087344579744980840000013819583490466379186_);enable-background:new    ;" points="
			115.8,141.6 115.8,144.1 85.8,144.1 85.8,141.6 		"/>
	</g>
	<g>
		
			<linearGradient id="SVGID_00000085218143319306237290000009857140828752121756_" gradientUnits="userSpaceOnUse" x1="-1523.9293" y1="1157.0546" x2="-1523.9293" y2="1214.1805" gradientTransform="matrix(0 -1 1 0 -1084.7197 -1402.6578)">
			<stop  offset="2.230000e-02" style="stop-color:#1A1A1A"/>
			<stop  offset="0.9832" style="stop-color:#CCCCCC"/>
		</linearGradient>
		<polygon style="fill:url(#SVGID_00000085218143319306237290000009857140828752121756_);" points="72.3,100.9 72.3,141.7 
			129.5,141.7 129.5,100.9 		"/>
		
			<linearGradient id="SVGID_00000156546317196538834660000000775916631409910150_" gradientUnits="userSpaceOnUse" x1="-1523.9365" y1="1149.3899" x2="-1523.9365" y2="1167.1315" gradientTransform="matrix(0 -1 1 0 -1084.7197 -1402.6578)">
			<stop  offset="0" style="stop-color:#727272"/>
			<stop  offset="1" style="stop-color:#4C4C4C"/>
		</linearGradient>
		<path style="fill:url(#SVGID_00000156546317196538834660000000775916631409910150_);" d="M82.4,102.3v38.1c0,0-7.6,3-17.7,0v-38.1
			C64.7,102.3,73.8,99,82.4,102.3z"/>
		<path class="st4" d="M119.3,102.3v38.1c0,0-15.8,3-36.8,0v-38.1C82.4,102.3,101.3,99.2,119.3,102.3z"/>
		
			<linearGradient id="SVGID_00000135666092030220786800000012406836900184399746_" gradientUnits="userSpaceOnUse" x1="-1523.9652" y1="1203.9233" x2="-1523.9652" y2="1221.665" gradientTransform="matrix(0 -1 1 0 -1084.7197 -1402.6578)">
			<stop  offset="0" style="stop-color:#F4F4F4"/>
			<stop  offset="1" style="stop-color:#BABABA"/>
		</linearGradient>
		<path style="fill:url(#SVGID_00000135666092030220786800000012406836900184399746_);" d="M137,102.3v38.1c0,0-7.6,3-17.7,0v-38.1
			C119.3,102.3,128.3,99.2,137,102.3z"/>
	</g>
	
		<linearGradient id="SVGID_00000060009590027958227320000008617005336786174859_" gradientUnits="userSpaceOnUse" x1="-155.0927" y1="1164.9385" x2="-155.0927" y2="1207.2621" gradientTransform="matrix(0 1 1 0 -1084.7197 246.6379)">
		<stop  offset="0" style="stop-color:#999898"/>
		<stop  offset="0.1963" style="stop-color:#4F4F4F"/>
		<stop  offset="0.2507" style="stop-color:#5B5B5B"/>
		<stop  offset="0.3499" style="stop-color:#7C7C7C"/>
		<stop  offset="0.3704" style="stop-color:#848484"/>
		<stop  offset="0.433" style="stop-color:#878787"/>
		<stop  offset="0.5974" style="stop-color:#D9D9D9"/>
		<stop  offset="0.6843" style="stop-color:#FFFFFF"/>
		<stop  offset="0.9078" style="stop-color:#B7B7B7"/>
		<stop  offset="1" style="stop-color:#C6C6C6"/>
	</linearGradient>
	<path style="fill:url(#SVGID_00000060009590027958227320000008617005336786174859_);" d="M80.2,99c0,0,1.3-7.2,0-15h42.3
		c0,0-1.4,6.1,0,15H80.2z"/>
	
		<linearGradient id="SVGID_00000023969203421444483220000000616213920721872560_" gradientUnits="userSpaceOnUse" x1="-222.5373" y1="1163.129" x2="-222.5373" y2="1209.0833" gradientTransform="matrix(0 1 1 0 -1084.7197 322.548)">
		<stop  offset="0" style="stop-color:#636363"/>
		<stop  offset="0.1983" style="stop-color:#444444"/>
		<stop  offset="0.2933" style="stop-color:#383838"/>
		<stop  offset="0.433" style="stop-color:#565656"/>
		<stop  offset="0.6732" style="stop-color:#E5E5E5"/>
		<stop  offset="0.9078" style="stop-color:#7F7E7E"/>
		<stop  offset="1" style="stop-color:#939292"/>
	</linearGradient>
	<path style="fill:url(#SVGID_00000023969203421444483220000000616213920721872560_);" d="M78.4,99.2c0.6,0.5,1.2,1.2,1.8,1.7
		c14.2,0,28.4,0,42.7,0c0.5-0.5,1-1.2,1.6-1.7H78.4z"/>
	
		<linearGradient id="SVGID_00000058570159466140242210000010877550404212083102_" gradientUnits="userSpaceOnUse" x1="-1511.2404" y1="1163.129" x2="-1511.2404" y2="1209.0928" gradientTransform="matrix(0 -1 1 0 -1084.7197 -1412.8452)">
		<stop  offset="0" style="stop-color:#7F7F7F"/>
		<stop  offset="0.1983" style="stop-color:#606060"/>
		<stop  offset="0.2933" style="stop-color:#545454"/>
		<stop  offset="0.433" style="stop-color:#757575"/>
		<stop  offset="0.6732" style="stop-color:#FFFFFF"/>
		<stop  offset="0.9078" style="stop-color:#9B9B9B"/>
		<stop  offset="1" style="stop-color:#B2B2B2"/>
	</linearGradient>
	<path style="fill:url(#SVGID_00000058570159466140242210000010877550404212083102_);" d="M78.4,99.2c0.6-0.5,1.3-1,1.9-1.6
		c14.1,0,28,0,42.1,0.1c0.6,0.5,1.3,0.9,1.9,1.4H78.4z"/>
	
		<linearGradient id="SVGID_00000072258033140427173580000007850147949126417287_" gradientUnits="userSpaceOnUse" x1="-380.5199" y1="-126.3818" x2="-374.4627" y2="-126.3818" gradientTransform="matrix(0 1 -1 0 -24.9669 472.2372)">
		<stop  offset="0" style="stop-color:#1A1A1A"/>
		<stop  offset="0" style="stop-color:#000000;stop-opacity:0"/>
		<stop  offset="0.3429" style="stop-color:#0A0A0A;stop-opacity:0.3341"/>
		<stop  offset="0.9264" style="stop-color:#252525;stop-opacity:0.9026"/>
		<stop  offset="1" style="stop-color:#292929;stop-opacity:0.9744"/>
	</linearGradient>
	<path style="opacity:0.28;fill:url(#SVGID_00000072258033140427173580000007850147949126417287_);enable-background:new    ;" d="
		M122.4,97.7c-0.1-0.9-0.3-1.9-0.4-3c0-1,0-2.1,0-3.1c-13.7,0-27.4,0-41.1,0c0,0.9,0,1.9-0.1,3c-0.1,1-0.1,2.1-0.3,3
		C94.4,97.7,108.4,97.7,122.4,97.7z"/>
</g>
<g>
	<g>
		
			<linearGradient id="SVGID_00000176736744671024273750000011970809415182604938_" gradientUnits="userSpaceOnUse" x1="-102.4824" y1="123.2144" x2="-103.5784" y2="153.2093" gradientTransform="matrix(1 0 0 -1 109.9476 189)">
			<stop  offset="0" style="stop-color:#999898"/>
			<stop  offset="0.1963" style="stop-color:#4F4F4F"/>
			<stop  offset="0.2507" style="stop-color:#5B5B5B"/>
			<stop  offset="0.3499" style="stop-color:#7C7C7C"/>
			<stop  offset="0.3704" style="stop-color:#848484"/>
			<stop  offset="0.433" style="stop-color:#878787"/>
			<stop  offset="0.5268" style="stop-color:#A0A0A0"/>
			<stop  offset="0.6843" style="stop-color:#C6C6C6"/>
			<stop  offset="0.9078" style="stop-color:#B7B7B7"/>
			<stop  offset="1" style="stop-color:#C6C6C6"/>
		</linearGradient>
		<path style="fill:url(#SVGID_00000176736744671024273750000011970809415182604938_);" d="M5,65.7c1.7,0,3.2,0,4.9,0v-30
			c-1.7,0.1-3.2,0.1-4.9,0.1c0.4,1,1.2,3.9,1.2,7.5c0,3.9-1.2,7.1-1.2,7.4c-0.3,0.6-0.5,1.4-0.8,2.8c-0.5,2.1-0.5,3.4-0.5,3.6
			c0,0.1,0,0.8,0,1.6c0,0.1,0,0.8,0,1.2c0.1,1,0.3,1.9,0.4,2.5C4.4,63.9,4.7,64.9,5,65.7z"/>
		
			<linearGradient id="SVGID_00000173122895059142243720000004064409804976304825_" gradientUnits="userSpaceOnUse" x1="-433.7443" y1="921.5859" x2="-431.1074" y2="921.5859" gradientTransform="matrix(1 0 0 1 440.0504 -870.7528)">
			<stop  offset="0" style="stop-color:#020202;stop-opacity:6.003360e-02"/>
			<stop  offset="0.1458" style="stop-color:#000000;stop-opacity:0"/>
			<stop  offset="0.3429" style="stop-color:#0A0A0A;stop-opacity:0.3341"/>
			<stop  offset="0.9264" style="stop-color:#252525;stop-opacity:0.9026"/>
			<stop  offset="1" style="stop-color:#292929;stop-opacity:0.9744"/>
		</linearGradient>
		<path style="opacity:0.28;fill:url(#SVGID_00000173122895059142243720000004064409804976304825_);enable-background:new    ;" d="
			M6.3,35.8c0.9,0,1.8,0,2.6,0v30H6.3C6.3,55.7,6.3,45.8,6.3,35.8z"/>
	</g>
	<g>
		
			<linearGradient id="SVGID_00000013193369694912867410000008357887684022592657_" gradientUnits="userSpaceOnUse" x1="-1678.0752" y1="109.7331" x2="-1678.0752" y2="166.8591" gradientTransform="matrix(-1 0 0 -1 -1649.2958 189)">
			<stop  offset="2.230000e-02" style="stop-color:#1A1A1A"/>
			<stop  offset="0.9832" style="stop-color:#CCCCCC"/>
		</linearGradient>
		<polygon style="fill:url(#SVGID_00000013193369694912867410000008357887684022592657_);" points="8.4,79.3 49.2,79.3 49.2,22.1 
			8.4,22.1 		"/>
		
			<linearGradient id="SVGID_00000053528031949851358750000007121349336241042067_" gradientUnits="userSpaceOnUse" x1="-1678.1111" y1="102.1076" x2="-1678.1111" y2="119.8492" gradientTransform="matrix(-1 0 0 -1 -1649.2958 189)">
			<stop  offset="0" style="stop-color:#727272"/>
			<stop  offset="1" style="stop-color:#4C4C4C"/>
		</linearGradient>
		<path style="fill:url(#SVGID_00000053528031949851358750000007121349336241042067_);" d="M9.8,69.2h38.1c0,0,3,7.6,0,17.7H9.8
			C9.8,86.9,6.7,77.7,9.8,69.2z"/>
		<path class="st4" d="M9.8,32.4h38.1c0,0,3,15.8,0,36.8H9.8C9.8,69.2,6.7,50.2,9.8,32.4z"/>
		
			<linearGradient id="SVGID_00000096738295744122943750000015841472691621738149_" gradientUnits="userSpaceOnUse" x1="-1678.1111" y1="156.6488" x2="-1678.1111" y2="174.3903" gradientTransform="matrix(-1 0 0 -1 -1649.2958 189)">
			<stop  offset="0" style="stop-color:#F4F4F4"/>
			<stop  offset="1" style="stop-color:#BABABA"/>
		</linearGradient>
		<path style="fill:url(#SVGID_00000096738295744122943750000015841472691621738149_);" d="M9.8,14.6h38.1c0,0,3,7.6,0,17.7H9.8
			C9.8,32.4,6.7,23.2,9.8,14.6z"/>
	</g>
	
		<linearGradient id="SVGID_00000070084978025161154570000016075685441579220627_" gradientUnits="userSpaceOnUse" x1="59.1519" y1="117.617" x2="59.1519" y2="159.9407" gradientTransform="matrix(1 0 0 -1 0 189)">
		<stop  offset="0" style="stop-color:#999898"/>
		<stop  offset="0.1963" style="stop-color:#4F4F4F"/>
		<stop  offset="0.2507" style="stop-color:#5B5B5B"/>
		<stop  offset="0.3499" style="stop-color:#7C7C7C"/>
		<stop  offset="0.3704" style="stop-color:#848484"/>
		<stop  offset="0.433" style="stop-color:#878787"/>
		<stop  offset="0.5974" style="stop-color:#D9D9D9"/>
		<stop  offset="0.6843" style="stop-color:#FFFFFF"/>
		<stop  offset="0.9078" style="stop-color:#B7B7B7"/>
		<stop  offset="1" style="stop-color:#C6C6C6"/>
	</linearGradient>
	<path style="fill:url(#SVGID_00000070084978025161154570000016075685441579220627_);" d="M66.6,71.4c0,0-7.2-1.3-15,0V29
		c0,0,6.1,1.4,15,0L66.6,71.4z"/>
	
		<linearGradient id="SVGID_00000164504931524659244420000002678856705019715456_" gradientUnits="userSpaceOnUse" x1="-1709.057" y1="115.8075" x2="-1709.057" y2="161.7617" gradientTransform="matrix(-1 0 0 -1 -1659.1461 189)">
		<stop  offset="0" style="stop-color:#636363"/>
		<stop  offset="0.1983" style="stop-color:#444444"/>
		<stop  offset="0.2933" style="stop-color:#383838"/>
		<stop  offset="0.433" style="stop-color:#565656"/>
		<stop  offset="0.6732" style="stop-color:#E5E5E5"/>
		<stop  offset="0.9078" style="stop-color:#7F7E7E"/>
		<stop  offset="1" style="stop-color:#939292"/>
	</linearGradient>
	<path style="fill:url(#SVGID_00000164504931524659244420000002678856705019715456_);" d="M50.8,73.2c-0.5-0.6-1.2-1.2-1.7-1.8
		c0-14.2,0-28.4,0-42.7c0.5-0.5,1.2-1,1.7-1.6V73.2z"/>
	
		<linearGradient id="SVGID_00000174578666128587568550000003878309253084255124_" gradientUnits="userSpaceOnUse" x1="-24.7207" y1="115.8075" x2="-24.7207" y2="161.7713" gradientTransform="matrix(1 0 0 -1 76.2472 189)">
		<stop  offset="0" style="stop-color:#7F7F7F"/>
		<stop  offset="0.1983" style="stop-color:#606060"/>
		<stop  offset="0.2933" style="stop-color:#545454"/>
		<stop  offset="0.433" style="stop-color:#757575"/>
		<stop  offset="0.6732" style="stop-color:#FFFFFF"/>
		<stop  offset="0.9078" style="stop-color:#9B9B9B"/>
		<stop  offset="1" style="stop-color:#B2B2B2"/>
	</linearGradient>
	<path style="fill:url(#SVGID_00000174578666128587568550000003878309253084255124_);" d="M50.8,73.2c0.5-0.6,1-1.3,1.6-1.9
		c0-14.1,0-28-0.1-42.1c-0.5-0.6-0.9-1.3-1.4-1.9C50.8,27.2,50.8,73.2,50.8,73.2z"/>
	
		<linearGradient id="SVGID_00000035490128311663916470000003898080367499959719_" gradientUnits="userSpaceOnUse" x1="-164.8934" y1="920.9398" x2="-158.903" y2="920.9398" gradientTransform="matrix(1 0 0 1 225.5993 -870.7528)">
		<stop  offset="0" style="stop-color:#1A1A1A"/>
		<stop  offset="0" style="stop-color:#000000;stop-opacity:0"/>
		<stop  offset="0.3429" style="stop-color:#0A0A0A;stop-opacity:0.3341"/>
		<stop  offset="0.9264" style="stop-color:#252525;stop-opacity:0.9026"/>
		<stop  offset="1" style="stop-color:#292929;stop-opacity:0.9744"/>
	</linearGradient>
	<path style="opacity:0.28;fill:url(#SVGID_00000035490128311663916470000003898080367499959719_);enable-background:new    ;" d="
		M66.6,29c-1,0.1-2.1,0.4-3.4,0.5c-0.9,0.1-1.8,0.1-2.7,0.1c0,13.7,0,27.4,0,41.2c0.9,0,1.8,0.1,2.8,0.1c1.2,0.1,2.2,0.3,3.1,0.4
		C66.6,57.3,66.6,43.1,66.6,29z"/>
	
		<linearGradient id="SVGID_00000140693851257061303400000017104502275715896722_" gradientUnits="userSpaceOnUse" x1="-1824.5848" y1="920.9398" x2="-1818.5276" y2="920.9398" gradientTransform="matrix(-1 0 0 1 -1766.296 -870.7528)">
		<stop  offset="0" style="stop-color:#1A1A1A"/>
		<stop  offset="0" style="stop-color:#000000;stop-opacity:0"/>
		<stop  offset="0.3429" style="stop-color:#0A0A0A;stop-opacity:0.3341"/>
		<stop  offset="0.9264" style="stop-color:#252525;stop-opacity:0.9026"/>
		<stop  offset="1" style="stop-color:#292929;stop-opacity:0.9744"/>
	</linearGradient>
	<path style="opacity:0.28;fill:url(#SVGID_00000140693851257061303400000017104502275715896722_);enable-background:new    ;" d="
		M52.2,29.1c0.9,0.1,1.9,0.3,3.1,0.4c1,0.1,2.1,0.1,3,0.1c0,13.7,0,27.4,0,41.1c-1,0-2.1,0-3.2,0.1c-1,0.1-1.9,0.3-2.7,0.4
		C52.3,57.2,52.3,43.2,52.2,29.1z"/>
</g>
<g>
	
		<linearGradient id="SVGID_00000080195699857876001900000015569123527684831369_" gradientUnits="userSpaceOnUse" x1="60.9613" y1="1972.5332" x2="141.4807" y2="1972.5332" gradientTransform="matrix(1 0 0 1 0 -1908.0001)">
		<stop  offset="0" style="stop-color:#919396"/>
		<stop  offset="0.3883" style="stop-color:#D1D3D4"/>
		<stop  offset="0.6788" style="stop-color:#BCBEC0"/>
		<stop  offset="1" style="stop-color:#919396"/>
	</linearGradient>
	<path style="fill:url(#SVGID_00000080195699857876001900000015569123527684831369_);" d="M85.4,91.7V70.9c-0.1-0.6-0.5-1.8-1.4-3
		c-1.4-1.7-3.1-2.1-3.7-2.2c-6.3,0-12.8,0-19.3,0V37.4h80.5c0,9.4,0,18.7,0,28c-6.3,0-12.8,0-19.1,0c-0.9,0.3-2.6,0.8-3.7,2.2
		c-1,1.2-1.4,3-1.4,3v20.9C117.2,91.7,96,91.7,85.4,91.7z"/>
	
		<linearGradient id="SVGID_00000103958321983323750780000012450368748200377221_" gradientUnits="userSpaceOnUse" x1="52.6597" y1="939.9159" x2="163.9497" y2="883.5374" gradientTransform="matrix(1 0 0 1 0 -857)">
		<stop  offset="0" style="stop-color:#58595B;stop-opacity:0"/>
		<stop  offset="2.469746e-02" style="stop-color:#656668;stop-opacity:2.514163e-02"/>
		<stop  offset="0.1228" style="stop-color:#949496;stop-opacity:0.125"/>
		<stop  offset="0.221" style="stop-color:#BABBBB;stop-opacity:0.225"/>
		<stop  offset="0.3176" style="stop-color:#D8D9D9;stop-opacity:0.3233"/>
		<stop  offset="0.4122" style="stop-color:#EEEEEE;stop-opacity:0.4196"/>
		<stop  offset="0.5039" style="stop-color:#FBFBFB;stop-opacity:0.513"/>
		<stop  offset="0.5894" style="stop-color:#FFFFFF;stop-opacity:0.6"/>
		<stop  offset="1" style="stop-color:#58595B;stop-opacity:0"/>
	</linearGradient>
	<path style="fill:url(#SVGID_00000103958321983323750780000012450368748200377221_);" d="M85.4,91.7V70.9c-0.1-0.6-0.5-1.8-1.4-3
		c-1.4-1.7-3.1-2.1-3.7-2.2c-6.3,0-12.8,0-19.3,0V37.4h80.5c0,9.4,0,18.7,0,28c-6.3,0-12.8,0-19.1,0c-0.9,0.3-2.6,0.8-3.7,2.2
		c-1,1.2-1.4,3-1.4,3v20.9C117.3,91.7,96.1,91.7,85.4,91.7z"/>
	
		<linearGradient id="SVGID_00000121959527746316303450000004082783151276812723_" gradientUnits="userSpaceOnUse" x1="57.8793" y1="1963.181" x2="86.0261" y2="1993.713" gradientTransform="matrix(1 0 0 1 0 -1908.0001)">
		<stop  offset="0.1201" style="stop-color:#686566"/>
		<stop  offset="0.1983" style="stop-color:#6E7072"/>
		<stop  offset="0.433" style="stop-color:#919396"/>
		<stop  offset="0.6732" style="stop-color:#E6E7E8"/>
		<stop  offset="0.8966" style="stop-color:#9F9D9D"/>
		<stop  offset="1" style="stop-color:#919396"/>
	</linearGradient>
	<path style="fill:url(#SVGID_00000121959527746316303450000004082783151276812723_);" d="M60.8,73.8h13.7c0.4,0.1,1.6,0.4,2.3,1.4
		c0.6,0.6,0.8,1.6,0.9,1.9c0,4.9,0,9.7,0,14.6h7.5V70.9c-0.1-0.6-0.5-1.8-1.4-3c-1.4-1.7-3.1-2.1-3.7-2.2c-6.3,0-12.8,0-19.3,0
		L60.8,73.8z"/>
	
		<linearGradient id="SVGID_00000091716867288095006850000008430848672353605278_" gradientUnits="userSpaceOnUse" x1="81.5703" y1="2003.4447" x2="72.6254" y2="1979.1147" gradientTransform="matrix(1 0 0 1 0 -1908.0001)">
		<stop  offset="0" style="stop-color:#333333;stop-opacity:0.8"/>
		<stop  offset="1" style="stop-color:#FFFFFF;stop-opacity:0"/>
	</linearGradient>
	<path style="fill:url(#SVGID_00000091716867288095006850000008430848672353605278_);" d="M60.8,73.8h13.7c0.4,0.1,1.6,0.4,2.3,1.4
		c0.6,0.6,0.8,1.6,0.9,1.9c0,4.9,0,9.7,0,14.6h7.5V70.9c-0.1-0.6-0.5-1.8-1.4-3c-1.4-1.7-3.1-2.1-3.7-2.2c-6.3,0-12.8,0-19.3,0
		L60.8,73.8z"/>
	
		<linearGradient id="SVGID_00000143605391031035542320000015147251399168503721_" gradientUnits="userSpaceOnUse" x1="102.3623" y1="2000.5797" x2="137.7842" y2="1976.6073" gradientTransform="matrix(1 0 0 1 0 -1908.0001)">
		<stop  offset="0.1201" style="stop-color:#686566"/>
		<stop  offset="0.1983" style="stop-color:#6E7072"/>
		<stop  offset="0.433" style="stop-color:#919396"/>
		<stop  offset="0.6732" style="stop-color:#E6E7E8"/>
		<stop  offset="0.8966" style="stop-color:#9F9D9D"/>
		<stop  offset="1" style="stop-color:#919396"/>
	</linearGradient>
	<path style="fill:url(#SVGID_00000143605391031035542320000015147251399168503721_);" d="M141.5,73.8h-13.8
		c-0.4,0.1-1.6,0.4-2.3,1.4c-0.6,0.6-0.9,1.6-0.9,1.9c0,4.9,0,9.7,0,14.6h-7.5V70.9c0.1-0.6,0.5-1.8,1.4-3c1.4-1.7,3.2-2.1,3.9-2.2
		c6.5,0,12.8,0,19.3,0V73.8L141.5,73.8z"/>
	
		<linearGradient id="SVGID_00000181054347770197627960000004871292654184391326_" gradientUnits="userSpaceOnUse" x1="60.8321" y1="1941.0621" x2="141.3514" y2="1941.0621" gradientTransform="matrix(1 0 0 1 0 -1908.0001)">
		<stop  offset="0" style="stop-color:#919396"/>
		<stop  offset="0.3883" style="stop-color:#D1D3D4"/>
		<stop  offset="0.6788" style="stop-color:#BCBEC0"/>
		<stop  offset="1" style="stop-color:#919396"/>
	</linearGradient>
	
		<rect x="60.8" y="28.6" style="fill:url(#SVGID_00000181054347770197627960000004871292654184391326_);" width="80.5" height="8.9"/>
	
		<linearGradient id="SVGID_00000134944555829901624020000011662948457824061863_" gradientUnits="userSpaceOnUse" x1="60.8321" y1="1941.3207" x2="141.3514" y2="1941.3207" gradientTransform="matrix(1 0 0 1 0 -1908.0001)">
		<stop  offset="0" style="stop-color:#58595B;stop-opacity:0"/>
		<stop  offset="0.4749" style="stop-color:#FFFFFF"/>
		<stop  offset="0.5701" style="stop-color:#FCFCFC;stop-opacity:0.8187"/>
		<stop  offset="0.6515" style="stop-color:#F1F1F1;stop-opacity:0.6636"/>
		<stop  offset="0.728" style="stop-color:#DFE0E0;stop-opacity:0.518"/>
		<stop  offset="0.8014" style="stop-color:#C7C7C8;stop-opacity:0.3783"/>
		<stop  offset="0.8726" style="stop-color:#A6A7A8;stop-opacity:0.2426"/>
		<stop  offset="0.9412" style="stop-color:#808082;stop-opacity:0.112"/>
		<stop  offset="1" style="stop-color:#58595B;stop-opacity:0"/>
	</linearGradient>
	
		<rect x="60.8" y="28.9" style="fill:url(#SVGID_00000134944555829901624020000011662948457824061863_);" width="80.5" height="8.9"/>
	
		<linearGradient id="SVGID_00000067199706635822038180000001884970868652791446_" gradientUnits="userSpaceOnUse" x1="100.7248" y1="1896.7803" x2="101.4403" y2="1983.1289" gradientTransform="matrix(1 0 0 1 0 -1908.0001)">
		<stop  offset="0.4342" style="stop-color:#58595B;stop-opacity:0"/>
		<stop  offset="0.6053" style="stop-color:#FFFFFF;stop-opacity:0.8"/>
	</linearGradient>
	
		<rect x="60.8" y="28.6" style="fill:url(#SVGID_00000067199706635822038180000001884970868652791446_);" width="80.5" height="8.9"/>
	
		<linearGradient id="SVGID_00000015326411706901699310000018078080111656282783_" gradientUnits="userSpaceOnUse" x1="60.8321" y1="1945.3918" x2="141.4806" y2="1945.3918" gradientTransform="matrix(1 0 0 1 0 -1908.0001)">
		<stop  offset="2.513967e-02" style="stop-color:#666666"/>
		<stop  offset="0.3212" style="stop-color:#9F9D9D"/>
		<stop  offset="0.6732" style="stop-color:#FFFFFF"/>
		<stop  offset="0.7793" style="stop-color:#E4E3E3"/>
		<stop  offset="1" style="stop-color:#919396"/>
	</linearGradient>
	
		<line style="fill:none;stroke:url(#SVGID_00000015326411706901699310000018078080111656282783_);stroke-miterlimit:10;" x1="60.8" y1="37.4" x2="141.5" y2="37.4"/>
	
		<linearGradient id="SVGID_00000110443980644144311530000004856077756710115772_" gradientUnits="userSpaceOnUse" x1="115.477" y1="1999.1277" x2="133.2624" y2="1968.3224" gradientTransform="matrix(1 0 0 1 0 -1908.0001)">
		<stop  offset="2.513967e-02" style="stop-color:#666666"/>
		<stop  offset="0.3212" style="stop-color:#9F9D9D"/>
		<stop  offset="0.5168" style="stop-color:#FFFFFF"/>
		<stop  offset="0.7793" style="stop-color:#E4E3E3"/>
		<stop  offset="1" style="stop-color:#919396"/>
	</linearGradient>
	<path style="fill:none;stroke:url(#SVGID_00000110443980644144311530000004856077756710115772_);stroke-miterlimit:10;" d="
		M141.5,65.6h-19.4c-0.4,0-2.2,0.3-3.6,1.7c-1.3,1.4-1.6,3-1.6,3.5c0,7,0,14,0,20.9"/>
	
		<linearGradient id="SVGID_00000085940045784474194190000008282694608518256280_" gradientUnits="userSpaceOnUse" x1="86.7826" y1="1999.1583" x2="69.0041" y2="1968.3649" gradientTransform="matrix(1 0 0 1 0 -1908.0001)">
		<stop  offset="2.513967e-02" style="stop-color:#666666"/>
		<stop  offset="0.3212" style="stop-color:#9F9D9D"/>
		<stop  offset="0.5168" style="stop-color:#FFFFFF"/>
		<stop  offset="0.7793" style="stop-color:#E4E3E3"/>
		<stop  offset="1" style="stop-color:#919396"/>
	</linearGradient>
	<path style="fill:none;stroke:url(#SVGID_00000085940045784474194190000008282694608518256280_);stroke-miterlimit:10;" d="
		M85.4,91.7V70.9c-0.1-0.6-0.5-1.8-1.4-3c-1.8-2.1-4.5-2.2-4.9-2.2c-5.9,0-12,0-18,0"/>
</g>
<g>
	<g>
		<g>
			<g>
				<g>
					<defs>
						<path id="SVGID_00000183217725248426524600000017961099057679015043_" d="M191.2,198.2v-11.4c0.3-5.8-1.3-9.7-1.3-9.7h-38
							c-0.9,2.5-1.3,5-1.3,7.5l0,0l0,0c0,0.6,0,1.4,0,2.1v4.7l0,0c-0.5-0.5-1-1-1.7-1.6c0,0-0.9,1.3-1.4,1.9c0,0,0,0,0,0.1
							c-0.1,0-0.1,0-0.3,0c-0.6,0.1-1.4,0.1-2.1,0.3c-0.4,0-0.6,0-1,0.1c-0.8,0-1.7,0.1-2.5,0.1v-1.2V191v-0.1H61.5v0.1v0.3v0.8
							h-0.1l0,0c-0.9,0-1.7,0-2.6,0c-0.6,0-1.6,0-2.3-0.1c-1.2-0.1-2.1-0.1-2.7-0.3c-0.3,0-0.6-0.1-0.9-0.1c0,0,0,0-0.1,0
							c-0.5-0.6-1.4-1.9-1.4-1.9c-0.5,0.5-1.7,1.6-1.7,1.6v-4.5c0-0.8,0-1.4,0-2.1l0,0l0,0c-0.1-4.5-1.3-7.5-1.3-7.5H10.4
							c-0.9,2.6-1.3,5-1.3,7.5l0,0l0,0c0,0.6,0,1.4,0,2.1v23.7c0,1.4,0,2.8,0,4.3v23.8c0,1,0,2.1,0,3.1v0.1l0,0
							c0.3,4.4,1.3,7.6,1.3,7.6h38c0.8-2.7,1.2-5.3,1.3-7.6l0,0v-7.8c0,0,1,1.2,1.7,1.8c0.5-0.6,1-1.3,1.4-1.9l0,0l0,0
							c0.5-0.1,1.2-0.1,1.8-0.3c1.3-0.1,2.6-0.3,3.7-0.3c0.1,0,0.3,0,0.4,0l0,0c0.9,0,1.8,0,2.6,0v3h7.8c0.9,0.1,3.6,0.4,6.1,2.7
							c2.8,2.7,3.1,6.3,3.1,7c0,2.7,0,5.4,0,8.1h3c0,0.6,0,1.3,0,1.9c0,0.6-0.1,1.2-0.1,1.8c0,0.6-0.1,1.4-0.3,1.9v0.1h-0.1
							c-0.6,0.5-1.3,1-1.9,1.4c0.5,0.5,1.8,1.7,1.8,1.7h-4.8c-1,0-2.1,0-3,0l0,0l0,0c-4.4,0.3-7.6,1.3-7.6,1.3v38.3
							c2.7,0.8,5.3,1.2,7.6,1.3l0,0h0.9c0.3,0,0.6,0,0.9,0h24.9c1.7,0,3.2,0,4.8,0h23.3c5.8,0.3,9.7-1.3,9.7-1.3v-38
							c-2.5-0.9-5-1.3-7.5-1.3l0,0l0,0c-0.6,0-1.4,0-2.1,0h-4.7l0.8-0.8c0.3-0.3,0.5-0.5,0.8-0.8c0,0-1.3-0.9-1.9-1.4c0,0,0,0-0.1,0
							c0-0.1,0-0.1,0-0.3c-0.1-0.6-0.1-1.4-0.3-2.2c0-0.4,0-0.6-0.1-1c0-0.9-0.1-1.7-0.1-2.6l0,0h2.6c0-2.7,0-5.4,0-8.1
							c0-0.5-0.3-4.8,3.1-7.8c2.5-2.2,5.4-2.2,6.1-2.1c2.6,0,5.2,0,7.8,0V233c0.5,0,1.2,0,1.8,0c0.6,0,1.2,0.1,1.8,0.1
							s1.4,0.1,1.9,0.3h0.1v0.1c0.5,0.6,1,1.3,1.4,1.9c0.5-0.5,1-1.2,1.7-1.8l0,0v4.7c0,1,0,2.1,0,3v0.1l0,0
							c0.3,4.4,1.3,7.6,1.3,7.6h38c0.8-2.7,1.2-5.3,1.3-7.6l0,0v-0.9c0-0.3,0-0.6,0-0.9v-11.8v-29.6L191.2,198.2L191.2,198.2z"/>
					</defs>
					<clipPath id="SVGID_00000130620935144436143290000005090665445253814932_">
						<use xlink:href="#SVGID_00000183217725248426524600000017961099057679015043_"  style="overflow:visible;"/>
					</clipPath>
					
						<g transform="matrix(1 0 0 1 0 7.629395e-06)" style="clip-path:url(#SVGID_00000130620935144436143290000005090665445253814932_);">
						
							<image style="overflow:visible;enable-background:new    ;" width="600" height="600" xlink:href="../../background.jpg"  transform="matrix(0.3731 0 0 0.3731 -11.0259 130.2373)">
						</image>
					</g>
				</g>
			</g>
		</g>
	</g>
	<g>
		<path id="SVGID_162_" class="st41" d="M191.2,198.2v-11.4c0.3-5.8-1.3-9.7-1.3-9.7h-38c-0.9,2.5-1.3,5-1.3,7.5l0,0l0,0
			c0,0.6,0,1.4,0,2.1v4.7l0,0c-0.5-0.5-1-1-1.7-1.6c0,0-0.9,1.3-1.4,1.9c0,0,0,0,0,0.1c-0.1,0-0.1,0-0.3,0c-0.6,0.1-1.4,0.1-2.1,0.3
			c-0.4,0-0.6,0-1,0.1c-0.8,0-1.7,0.1-2.5,0.1v-1.2V191v-0.1H61.5v0.1v0.3v0.8h-0.1l0,0c-0.9,0-1.7,0-2.6,0c-0.6,0-1.6,0-2.3-0.1
			c-1.2-0.1-2.1-0.1-2.7-0.3c-0.3,0-0.6-0.1-0.9-0.1c0,0,0,0-0.1,0c-0.5-0.6-1.4-1.9-1.4-1.9c-0.5,0.5-1.7,1.6-1.7,1.6v-4.5
			c0-0.8,0-1.4,0-2.1l0,0l0,0c-0.1-4.5-1.3-7.5-1.3-7.5H10.4c-0.9,2.6-1.3,5-1.3,7.5l0,0l0,0c0,0.6,0,1.4,0,2.1v23.7
			c0,1.4,0,2.8,0,4.3v23.8c0,1,0,2.1,0,3.1v0.1l0,0c0.3,4.4,1.3,7.6,1.3,7.6h38c0.8-2.7,1.2-5.3,1.3-7.6l0,0v-7.8c0,0,1,1.2,1.7,1.8
			c0.5-0.6,1-1.3,1.4-1.9l0,0l0,0c0.5-0.1,1.2-0.1,1.8-0.3c1.3-0.1,2.6-0.3,3.7-0.3c0.1,0,0.3,0,0.4,0l0,0c0.9,0,1.8,0,2.6,0v3h7.8
			c0.9,0.1,3.6,0.4,6.1,2.7c2.8,2.7,3.1,6.3,3.1,7c0,2.7,0,5.4,0,8.1h3c0,0.6,0,1.3,0,1.9s-0.1,1.2-0.1,1.8c0,0.6-0.1,1.4-0.3,1.9
			v0.1h-0.1c-0.6,0.5-1.3,1-1.9,1.4c0.5,0.5,1.8,1.7,1.8,1.7h-4.8c-1,0-2.1,0-3,0l0,0l0,0c-4.4,0.3-7.6,1.3-7.6,1.3v38.3
			c2.7,0.8,5.3,1.2,7.6,1.3l0,0h0.9c0.3,0,0.6,0,0.9,0h24.9c1.7,0,3.2,0,4.8,0h23.3c5.8,0.3,9.7-1.3,9.7-1.3v-38
			c-2.5-0.9-5-1.3-7.5-1.3l0,0l0,0c-0.6,0-1.4,0-2.1,0h-4.7l0.8-0.8c0.3-0.3,0.5-0.5,0.8-0.8c0,0-1.3-0.9-1.9-1.4c0,0,0,0-0.1,0
			c0-0.1,0-0.1,0-0.3c-0.1-0.6-0.1-1.4-0.3-2.2c0-0.4,0-0.6-0.1-1c0-0.9-0.1-1.7-0.1-2.6l0,0h2.6c0-2.7,0-5.4,0-8.1
			c0-0.5-0.3-4.8,3.1-7.8c2.5-2.2,5.4-2.2,6.1-2.1c2.6,0,5.2,0,7.8,0V233c0.5,0,1.2,0,1.8,0c0.6,0,1.2,0.1,1.8,0.1s1.4,0.1,1.9,0.3
			h0.1v0.1c0.5,0.6,1,1.3,1.4,1.9c0.5-0.5,1-1.2,1.7-1.8l0,0v4.7c0,1,0,2.1,0,3v0.1l0,0c0.3,4.4,1.3,7.6,1.3,7.6h38
			c0.8-2.7,1.2-5.3,1.3-7.6l0,0v-0.9c0-0.3,0-0.6,0-0.9v-11.8v-29.6L191.2,198.2L191.2,198.2z"/>
	</g>
</g>
<g>
	<path class="st42" d="M152.3,238.2c0.5-1,1.2-2.1,1.7-3.1c0.6,1,1.2,2.2,1.8,3.2c0.5-1,1.2-2.2,1.7-3.2c0.6,1,1.3,2.1,1.8,3.1
		c0.5-1,1-2.1,1.7-3.1c0.6,1,1.4,2.1,2.1,3.1c0.5-1.2,0.9-2.3,1.4-3.4c0.6,1.4,1.3,2.7,1.9,4.1c0.6-1.2,1.8-3.4,1.8-3.4
		c0.5,0.9,1,1.8,1.6,2.7c0.8-1,1.7-2.2,2.5-3.2c0,0,0,0,0.3,0c0.5,0,1,0,1.6,0c0.8,0,1.6,0,2.3,0c0.3,0,0.5,0,0.8,0c0,0,0-1.2,0-1.6
		c0-0.5,0-0.9,0-1.4c1.6-1.3,4.8-4,4.7-4h0.1v-29.3c-0.3-0.1-3.2-2.7-4.8-4c0-0.4,0-0.9,0-1.4c0-0.4,0-1.6,0-1.6c-0.3,0-0.5,0-0.8,0
		c-0.8,0-1.6,0-2.3,0c-0.5,0-1,0-1.6,0c-0.3,0-0.3,0-0.3,0s-1.6-1.9-2.2-2.8c-0.5,0.9-1.2,1.9-1.7,2.8l-1.8-3.4l-1.6,3.5
		c0,0-1.2-2.3-1.7-3.4l-2.1,3.1l-1.7-3.1l-1.8,3.2l-1.7-3.2c-0.6,1-1.8,3.1-1.8,3.1l-1.8-3.1c-0.6,1-1.8,3-1.8,3v-1v-7l1.2-6.1h38
		c0.4,0.9,0.6,2.1,0.9,3.4c0.3,1.3,0.4,2.6,0.4,3.6c0,4.8,0,9.4,0,14.2v29.9v10.7c0.1,1.6,0.3,3.6-0.1,5.9c-0.3,1.7-0.6,3.1-1.2,4.3
		c-12.7,0-25.3,0-38,0c-0.4-1.2-0.6-2.6-0.9-4c-0.3-1.3-0.3-2.5-0.4-3.6c0-2.1,0-4-0.1-6.1c0-0.6,0.1-1.3,0.1-1.9
		C151.2,235.1,151.8,236.6,152.3,238.2z"/>
	<path class="st43" d="M175.6,231.5c0.8-0.9,2.3-2.7,4.8-3.4c0.5-0.1,1-0.3,1.4-0.3c-1.6,1.3-3.2,2.7-4.8,4c0,0.4,0,0.9,0,1.4
		c0,0.4,0,1.6,0,1.6c-0.3,0-0.5,0-0.8,0c-0.8,0-1.6,0-2.3,0c-0.5,0-1,0-1.6,0c-0.3,0-0.3,0-0.3,0c-0.3,0.4-0.5,0.6-0.9,1
		c-0.5,0.8-1,1.4-1.4,2.1c-0.3-0.6-0.5-1.2-0.9-1.8c-0.3-0.4-0.5-0.8-0.6-1.2c-0.6,1.2-1.2,2.2-1.8,3.4c-0.5-1.2-1.2-2.3-1.7-3.6
		c0.3-0.1,0.6-0.4,0.9-0.6c0.3-0.1,0.5-0.4,0.8-0.5c0-1.4,0-2.8,0-4.3c0.4-0.1,0.9-0.1,1.3-0.3C170.3,229.9,173,230.7,175.6,231.5z"
		/>
	<polygon class="st44" points="158,229.6 152.1,228.2 158,228.2 	"/>
	<path class="st43" d="M175.6,195.1c0.8,0.9,2.3,2.7,4.8,3.4c0.5,0.1,1,0.3,1.4,0.3c-1.6-1.3-3.2-2.7-4.8-4c0-0.4,0-0.9,0-1.4l0,0
		c0-0.4,0-1.6,0-1.6l0,0l0,0c-0.3,0-0.5,0-0.8,0c-0.8,0-1.6,0-2.3,0c-0.5,0-1,0-1.6,0c-0.3,0-0.3,0-0.3,0s-1.6-1.9-2.2-2.7
		c-0.5,0.9-1.2,1.9-1.7,2.8l-1.8-3.4l-1.6,3.4c0.5,0.4,1,0.6,1.6,1c0,1.4,0,2.8,0,4.3c0.4,0.1,0.9,0.1,1.3,0.3
		C170.3,196.7,173,195.9,175.6,195.1z"/>
	<polygon class="st44" points="157.9,196.9 152.1,198.4 157.9,198.4 	"/>
	<path class="st45" d="M150.4,191.9c0.6-1.2,1.4-2.3,2.1-3.5l1.7,3.1l1.8-3.1l1.7,3.1l1.8-3.1l1.7,3.1l2.1-3.1
		c0.5,1.2,0.9,2.3,1.4,3.5c0.4,0,0.8,0,1,0"/>
	<path class="st44" d="M166.3,192.7c0.1-0.1,0.3-0.4,0.4-0.5v-0.6c-0.3-0.1-0.5-0.3-0.9-0.4c-0.3-0.1-0.6-0.4-0.6-0.4l-0.4,0.6v0.8
		c0.3,0.1,0.5,0.3,0.6,0.5c0.1,0,0.3,0,0.4,0C166,192.7,166.2,192.7,166.3,192.7z"/>
	<path class="st45" d="M150.7,233.6c0.3,0.8,0.5,1.6,0.8,2.5c0.3,0.8,0.5,1.4,0.8,2.1l1.7-3.1l1.8,3.1l1.7-3.1l1.8,3.1l1.7-3.1
		l2.1,3.1c0.5-1.2,0.9-2.3,1.4-3.4c0.1,0,0.3,0,0.3,0"/>
	<path class="st44" d="M164.9,235.8c0.3-0.1,0.5-0.3,0.9-0.5c0.3-0.1,0.5-0.3,0.6-0.4v-0.5c-0.3-0.1-0.5-0.3-0.8-0.4
		c-0.1,0-0.3-0.1-0.3-0.1c-0.3,0.1-0.5,0.4-0.8,0.5c0,0.3,0,0.4,0,0.6C164.6,235.3,164.7,235.6,164.9,235.8z"/>
	<g>
		<g>
			<g>
				<g>
					<g>
						<defs>
							<path id="SVGID_00000056418608178614997220000004904842222382078084_" d="M146.7,198.4v3.2c15.8,0,31.5,0,47.3,0
								c0.1-0.4,0.3-0.8,0.4-1.3c0.3-0.8,0.5-1.4,0.8-2.1C179.1,198.4,162.8,198.4,146.7,198.4z"/>
						</defs>
						<clipPath id="SVGID_00000047039237116946715480000004807662353512396947_">
							<use xlink:href="#SVGID_00000056418608178614997220000004904842222382078084_"  style="overflow:visible;"/>
						</clipPath>
						<g transform="matrix(1 0 0 1 0 0)" style="clip-path:url(#SVGID_00000047039237116946715480000004807662353512396947_);">
							
								<image style="overflow:visible;enable-background:new    ;" width="600" height="600" xlink:href="../../background.jpg"  transform="matrix(0.3676 0 0 0.3676 158.7593 134.3046)">
							</image>
						</g>
					</g>
				</g>
			</g>
		</g>
	</g>
	<g class="st47">
		<path id="SVGID_1_" class="st48" d="M146.7,198.4v3.2c15.8,0,31.5,0,47.3,0c0.1-0.4,0.3-0.8,0.4-1.3c0.3-0.8,0.5-1.4,0.8-2.1
			C179.1,198.4,162.8,198.4,146.7,198.4z"/>
	</g>
	<g>
		<g>
			<g>
				<g>
					<g>
						<defs>
							<path id="SVGID_00000143581421120451901990000008159112423455694983_" d="M179.1,198.2c0.1,0,0.5,0,0.8-0.3
								c0,0,0.1-0.1,0.1-0.3c0.1-0.4-0.1-0.8-0.1-0.8s-0.9-0.8-1.4-1.2c-0.5-0.4-1.2-1-2.1-1.7c-1.3,0-2.1,0-2.5,0c0,0-1.7,0-1.8,0
								H172h-0.1l0,0l0,0l0,0l0,0l0,0l0,0l0,0c0,0,0,0,0,0.1v0.1c0,0.1,0,0.3,0,0.4c0,0.4,0,0.4,0,0.4l0,0c0,0.3-0.1,0.4-0.1,0.4
								c-0.1,0.1-0.1,0.1-0.3,0.1c-0.3,0.1-0.6,0.1-1,0.1c-0.3,0-0.4,0-0.6,0c0,0-0.5,0-1.4,0c-3.4,0-3.4,0-3.4,0s-4.1,0.8-6.8,1.4
								l0,0l0,0c0,0.8,0,0.9,0,1.2l0,0l0,0c0.5,0,0.9,0,1.4,0l0,0c0,0.5-0.1,1-0.1,1.6c0.5-0.5,1.2-1,1.7-1.6l0,0l0,0l0,0
								c0.3,0,0.6,0,0.9,0c0,0.5,0,1,0,1.6c0.5-0.5,1.2-1,1.7-1.6l0,0c1.3,0,2.1,0,2.6,0c0.1,0,0.6,0,1.3,0c0.3,0,0.6,0,0.9,0
								c0.6,0,1.2,0,1.6,0c0.5,0,1,0,1.7,0h3.2C174.7,198.4,178.1,198.4,179.1,198.2z"/>
						</defs>
						<clipPath id="SVGID_00000081622942268782537000000010969225423474979496_">
							<use xlink:href="#SVGID_00000143581421120451901990000008159112423455694983_"  style="overflow:visible;"/>
						</clipPath>
					</g>
					<g>
						<defs>
							<path id="SVGID_00000132078993829627780620000003996516865191150208_" d="M179.1,198.2c0.1,0,0.5,0,0.8-0.3
								c0,0,0.1-0.1,0.1-0.3c0.1-0.4-0.1-0.8-0.1-0.8s-0.9-0.8-1.4-1.2c-0.5-0.4-1.2-1-2.1-1.7c-1.3,0-2.1,0-2.5,0c0,0-1.7,0-1.8,0
								H172h-0.1l0,0l0,0l0,0l0,0l0,0l0,0l0,0c0,0,0,0,0,0.1v0.1c0,0.1,0,0.3,0,0.4c0,0.4,0,0.4,0,0.4l0,0c0,0.3-0.1,0.4-0.1,0.4
								c-0.1,0.1-0.1,0.1-0.3,0.1c-0.3,0.1-0.6,0.1-1,0.1c-0.3,0-0.4,0-0.6,0c0,0-0.5,0-1.4,0c-3.4,0-3.4,0-3.4,0s-4.1,0.8-6.8,1.4
								l0,0l0,0c0,0.8,0,0.9,0,1.2l0,0l0,0c0.5,0,0.9,0,1.4,0l0,0c0,0.5-0.1,1-0.1,1.6c0.5-0.5,1.2-1,1.7-1.6l0,0l0,0l0,0
								c0.3,0,0.6,0,0.9,0c0,0.5,0,1,0,1.6c0.5-0.5,1.2-1,1.7-1.6l0,0c1.3,0,2.1,0,2.6,0c0.1,0,0.6,0,1.3,0c0.3,0,0.6,0,0.9,0
								c0.6,0,1.2,0,1.6,0c0.5,0,1,0,1.7,0h3.2C174.7,198.4,178.1,198.4,179.1,198.2z"/>
						</defs>
						<defs>
							<path id="SVGID_00000024703579078048750390000015265986254612234891_" d="M179.1,198.2c0.1,0,0.5,0,0.8-0.3
								c0,0,0.1-0.1,0.1-0.3c0.1-0.4-0.1-0.8-0.1-0.8s-0.9-0.8-1.4-1.2c-0.5-0.4-1.2-1-2.1-1.7c-1.3,0-2.1,0-2.5,0c0,0-1.7,0-1.8,0
								H172h-0.1l0,0l0,0l0,0l0,0l0,0l0,0l0,0c0,0,0,0,0,0.1v0.1c0,0.1,0,0.3,0,0.4c0,0.4,0,0.4,0,0.4l0,0c0,0.3-0.1,0.4-0.1,0.4
								c-0.1,0.1-0.1,0.1-0.3,0.1c-0.3,0.1-0.6,0.1-1,0.1c-0.3,0-0.4,0-0.6,0c0,0-0.5,0-1.4,0c-3.4,0-3.4,0-3.4,0s-4.1,0.8-6.8,1.4
								l0,0l0,0c0,0.8,0,0.9,0,1.2l0,0l0,0c0.5,0,0.9,0,1.4,0l0,0c0,0.5-0.1,1-0.1,1.6c0.5-0.5,1.2-1,1.7-1.6l0,0l0,0l0,0
								c0.3,0,0.6,0,0.9,0c0,0.5,0,1,0,1.6c0.5-0.5,1.2-1,1.7-1.6l0,0c1.3,0,2.1,0,2.6,0c0.1,0,0.6,0,1.3,0c0.3,0,0.6,0,0.9,0
								c0.6,0,1.2,0,1.6,0c0.5,0,1,0,1.7,0h3.2C174.7,198.4,178.1,198.4,179.1,198.2z"/>
						</defs>
						<clipPath id="SVGID_00000109751531545900695070000006693803987401200556_">
							<use xlink:href="#SVGID_00000132078993829627780620000003996516865191150208_"  style="overflow:visible;"/>
						</clipPath>
						
							<clipPath id="SVGID_00000172418982246450385620000013657540701973058990_" style="clip-path:url(#SVGID_00000109751531545900695070000006693803987401200556_);">
							<use xlink:href="#SVGID_00000024703579078048750390000015265986254612234891_"  style="overflow:visible;"/>
						</clipPath>
						
							<g transform="matrix(1 0 0 1 0 -7.629395e-06)" style="clip-path:url(#SVGID_00000172418982246450385620000013657540701973058990_);">
							
								<image style="overflow:visible;enable-background:new    ;" width="600" height="600" xlink:href="../../background.jpg"  transform="matrix(0.3676 0 0 0.3676 149.1073 135.6658)">
							</image>
						</g>
					</g>
				</g>
			</g>
		</g>
		<g>
			<path id="SVGID_66_" class="st51" d="M179.1,198.2c0.1,0,0.5,0,0.8-0.3c0,0,0.1-0.1,0.1-0.3c0.1-0.4-0.1-0.8-0.1-0.8
				s-0.9-0.8-1.4-1.2c-0.5-0.4-1.2-1-2.1-1.7c-1.3,0-2.1,0-2.5,0c0,0-1.7,0-1.8,0H172h-0.1l0,0l0,0l0,0l0,0l0,0l0,0l0,0
				c0,0,0,0,0,0.1v0.1c0,0.1,0,0.3,0,0.4c0,0.4,0,0.4,0,0.4l0,0c0,0.3-0.1,0.4-0.1,0.4c-0.1,0.1-0.1,0.1-0.3,0.1
				c-0.3,0.1-0.6,0.1-1,0.1c-0.3,0-0.4,0-0.6,0c0,0-0.5,0-1.4,0c-3.4,0-3.4,0-3.4,0s-4.1,0.8-6.8,1.4l0,0l0,0c0,0.8,0,0.9,0,1.2l0,0
				l0,0c0.5,0,0.9,0,1.4,0l0,0c0,0.5-0.1,1-0.1,1.6c0.5-0.5,1.2-1,1.7-1.6l0,0l0,0l0,0c0.3,0,0.6,0,0.9,0c0,0.5,0,1,0,1.6
				c0.5-0.5,1.2-1,1.7-1.6l0,0c1.3,0,2.1,0,2.6,0c0.1,0,0.6,0,1.3,0c0.3,0,0.6,0,0.9,0c0.6,0,1.2,0,1.6,0c0.5,0,1,0,1.7,0h3.2
				C174.7,198.4,178.1,198.4,179.1,198.2z"/>
		</g>
		<g>
			<path id="SVGID_65_" class="st51" d="M179.1,198.2c0.1,0,0.5,0,0.8-0.3c0,0,0.1-0.1,0.1-0.3c0.1-0.4-0.1-0.8-0.1-0.8
				s-0.9-0.8-1.4-1.2c-0.5-0.4-1.2-1-2.1-1.7c-1.3,0-2.1,0-2.5,0c0,0-1.7,0-1.8,0H172h-0.1l0,0l0,0l0,0l0,0l0,0l0,0l0,0
				c0,0,0,0,0,0.1v0.1c0,0.1,0,0.3,0,0.4c0,0.4,0,0.4,0,0.4l0,0c0,0.3-0.1,0.4-0.1,0.4c-0.1,0.1-0.1,0.1-0.3,0.1
				c-0.3,0.1-0.6,0.1-1,0.1c-0.3,0-0.4,0-0.6,0c0,0-0.5,0-1.4,0c-3.4,0-3.4,0-3.4,0s-4.1,0.8-6.8,1.4l0,0l0,0c0,0.8,0,0.9,0,1.2l0,0
				l0,0c0.5,0,0.9,0,1.4,0l0,0c0,0.5-0.1,1-0.1,1.6c0.5-0.5,1.2-1,1.7-1.6l0,0l0,0l0,0c0.3,0,0.6,0,0.9,0c0,0.5,0,1,0,1.6
				c0.5-0.5,1.2-1,1.7-1.6l0,0c1.3,0,2.1,0,2.6,0c0.1,0,0.6,0,1.3,0c0.3,0,0.6,0,0.9,0c0.6,0,1.2,0,1.6,0c0.5,0,1,0,1.7,0h3.2
				C174.7,198.4,178.1,198.4,179.1,198.2z"/>
		</g>
	</g>
	<g>
		<g>
			<g>
				<g>
					<g>
						<defs>
							<path id="SVGID_00000043440916412402111570000014502091393341153956_" d="M146.7,228.2V225c16.5,0,33,0,49.5,0
								c-0.1,0.5-0.3,1.2-0.5,1.8c-0.3,0.5-0.5,1-0.8,1.4C178.8,228.2,162.7,228.2,146.7,228.2z"/>
						</defs>
						<clipPath id="SVGID_00000139293376158910519150000011675310047585542590_">
							<use xlink:href="#SVGID_00000043440916412402111570000014502091393341153956_"  style="overflow:visible;"/>
						</clipPath>
						
							<g transform="matrix(1 0 0 1 7.629395e-06 0)" style="clip-path:url(#SVGID_00000139293376158910519150000011675310047585542590_);">
							
								<image style="overflow:visible;enable-background:new    ;" width="600" height="600" xlink:href="../../background.jpg"  transform="matrix(0.3676 0 0 0.3676 160.1205 134.3046)">
							</image>
						</g>
					</g>
				</g>
			</g>
		</g>
	</g>
	<path id="SVGID_2_" class="st53" d="M146.7,228.2V225c16.5,0,33,0,49.5,0c-0.1,0.5-0.3,1.2-0.5,1.8c-0.3,0.5-0.5,1-0.8,1.4
		C178.8,228.2,162.7,228.2,146.7,228.2z"/>
	<g>
		<g>
			<g>
				<g>
					<g>
						<defs>
							<path id="SVGID_00000148661814869790842900000008501143495033919420_" d="M179.2,228.3c0.1,0,0.5,0,0.8,0.3
								c0,0,0.1,0.1,0.1,0.3c0.1,0.4-0.1,0.8-0.1,0.8s-0.9,0.8-1.4,1.2c-0.5,0.4-1.2,1-2.1,1.7c-1.3,0-2.1,0-2.5,0c0,0-1.7,0-1.8,0
								h-0.1H172l0,0l0,0l0,0l0,0l0,0l0,0l0,0c0,0,0,0,0-0.1v-0.1c0-0.1,0-0.3,0-0.4c0-0.4,0-0.4,0-0.4l0,0c0-0.3-0.1-0.4-0.1-0.4
								c-0.1-0.1-0.1-0.1-0.3-0.1c-0.3-0.1-0.6-0.1-1-0.1c-0.3,0-0.4,0-0.6,0c0,0-0.5,0-1.4,0c-3.4,0-3.4,0-3.4,0s-4.1-0.8-6.8-1.4
								l0,0l0,0c0-0.8,0-0.9,0-1.2l0,0l0,0c0.5,0,0.9,0,1.4,0l0,0c0-0.5-0.1-1-0.1-1.6c0.5,0.5,1.2,1,1.7,1.6l0,0l0,0l0,0
								c0.3,0,0.6,0,0.9,0c0-0.5,0-1,0-1.6c0.5,0.5,1.2,1,1.7,1.6l0,0c1.3,0,2.1,0,2.6,0c0.1,0,0.6,0,1.3,0c0.3,0,0.6,0,0.9,0
								c0.6,0,1.2,0,1.6,0c0.5,0,1,0,1.7,0h3.2C174.7,228.2,178.1,228.2,179.2,228.3z"/>
						</defs>
						<clipPath id="SVGID_00000021833612872686043200000004777826070165770644_">
							<use xlink:href="#SVGID_00000148661814869790842900000008501143495033919420_"  style="overflow:visible;"/>
						</clipPath>
					</g>
					<g>
						<defs>
							<path id="SVGID_00000182514930053492838260000002328922826350996640_" d="M179.2,228.3c0.1,0,0.5,0,0.8,0.3
								c0,0,0.1,0.1,0.1,0.3c0.1,0.4-0.1,0.8-0.1,0.8s-0.9,0.8-1.4,1.2c-0.5,0.4-1.2,1-2.1,1.7c-1.3,0-2.1,0-2.5,0c0,0-1.7,0-1.8,0
								h-0.1H172l0,0l0,0l0,0l0,0l0,0l0,0l0,0c0,0,0,0,0-0.1v-0.1c0-0.1,0-0.3,0-0.4c0-0.4,0-0.4,0-0.4l0,0c0-0.3-0.1-0.4-0.1-0.4
								c-0.1-0.1-0.1-0.1-0.3-0.1c-0.3-0.1-0.6-0.1-1-0.1c-0.3,0-0.4,0-0.6,0c0,0-0.5,0-1.4,0c-3.4,0-3.4,0-3.4,0s-4.1-0.8-6.8-1.4
								l0,0l0,0c0-0.8,0-0.9,0-1.2l0,0l0,0c0.5,0,0.9,0,1.4,0l0,0c0-0.5-0.1-1-0.1-1.6c0.5,0.5,1.2,1,1.7,1.6l0,0l0,0l0,0
								c0.3,0,0.6,0,0.9,0c0-0.5,0-1,0-1.6c0.5,0.5,1.2,1,1.7,1.6l0,0c1.3,0,2.1,0,2.6,0c0.1,0,0.6,0,1.3,0c0.3,0,0.6,0,0.9,0
								c0.6,0,1.2,0,1.6,0c0.5,0,1,0,1.7,0h3.2C174.7,228.2,178.1,228.2,179.2,228.3z"/>
						</defs>
						<defs>
							<path id="SVGID_00000178172956000931862650000016896969631359134894_" d="M179.2,228.3c0.1,0,0.5,0,0.8,0.3
								c0,0,0.1,0.1,0.1,0.3c0.1,0.4-0.1,0.8-0.1,0.8s-0.9,0.8-1.4,1.2c-0.5,0.4-1.2,1-2.1,1.7c-1.3,0-2.1,0-2.5,0c0,0-1.7,0-1.8,0
								h-0.1H172l0,0l0,0l0,0l0,0l0,0l0,0l0,0c0,0,0,0,0-0.1v-0.1c0-0.1,0-0.3,0-0.4c0-0.4,0-0.4,0-0.4l0,0c0-0.3-0.1-0.4-0.1-0.4
								c-0.1-0.1-0.1-0.1-0.3-0.1c-0.3-0.1-0.6-0.1-1-0.1c-0.3,0-0.4,0-0.6,0c0,0-0.5,0-1.4,0c-3.4,0-3.4,0-3.4,0s-4.1-0.8-6.8-1.4
								l0,0l0,0c0-0.8,0-0.9,0-1.2l0,0l0,0c0.5,0,0.9,0,1.4,0l0,0c0-0.5-0.1-1-0.1-1.6c0.5,0.5,1.2,1,1.7,1.6l0,0l0,0l0,0
								c0.3,0,0.6,0,0.9,0c0-0.5,0-1,0-1.6c0.5,0.5,1.2,1,1.7,1.6l0,0c1.3,0,2.1,0,2.6,0c0.1,0,0.6,0,1.3,0c0.3,0,0.6,0,0.9,0
								c0.6,0,1.2,0,1.6,0c0.5,0,1,0,1.7,0h3.2C174.7,228.2,178.1,228.2,179.2,228.3z"/>
						</defs>
						<clipPath id="SVGID_00000055700353339779583430000001638696597871515565_">
							<use xlink:href="#SVGID_00000182514930053492838260000002328922826350996640_"  style="overflow:visible;"/>
						</clipPath>
						
							<clipPath id="SVGID_00000080185991705734951110000003811784660125512363_" style="clip-path:url(#SVGID_00000055700353339779583430000001638696597871515565_);">
							<use xlink:href="#SVGID_00000178172956000931862650000016896969631359134894_"  style="overflow:visible;"/>
						</clipPath>
						
							<g transform="matrix(1 0 0 1 -7.629395e-06 0)" style="clip-path:url(#SVGID_00000080185991705734951110000003811784660125512363_);">
							
								<image style="overflow:visible;enable-background:new    ;" width="600" height="600" xlink:href="../../background.jpg"  transform="matrix(0.3676 0 0 0.3676 158.2645 135.0471)">
							</image>
						</g>
					</g>
				</g>
			</g>
		</g>
		<g>
			<path id="SVGID_61_" class="st56" d="M179.2,228.3c0.1,0,0.5,0,0.8,0.3c0,0,0.1,0.1,0.1,0.3c0.1,0.4-0.1,0.8-0.1,0.8
				s-0.9,0.8-1.4,1.2c-0.5,0.4-1.2,1-2.1,1.7c-1.3,0-2.1,0-2.5,0c0,0-1.7,0-1.8,0h-0.1H172l0,0l0,0l0,0l0,0l0,0l0,0l0,0
				c0,0,0,0,0-0.1v-0.1c0-0.1,0-0.3,0-0.4c0-0.4,0-0.4,0-0.4l0,0c0-0.3-0.1-0.4-0.1-0.4c-0.1-0.1-0.1-0.1-0.3-0.1
				c-0.3-0.1-0.6-0.1-1-0.1c-0.3,0-0.4,0-0.6,0c0,0-0.5,0-1.4,0c-3.4,0-3.4,0-3.4,0s-4.1-0.8-6.8-1.4l0,0l0,0c0-0.8,0-0.9,0-1.2l0,0
				l0,0c0.5,0,0.9,0,1.4,0l0,0c0-0.5-0.1-1-0.1-1.6c0.5,0.5,1.2,1,1.7,1.6l0,0l0,0l0,0c0.3,0,0.6,0,0.9,0c0-0.5,0-1,0-1.6
				c0.5,0.5,1.2,1,1.7,1.6l0,0c1.3,0,2.1,0,2.6,0c0.1,0,0.6,0,1.3,0c0.3,0,0.6,0,0.9,0c0.6,0,1.2,0,1.6,0c0.5,0,1,0,1.7,0h3.2
				C174.7,228.2,178.1,228.2,179.2,228.3z"/>
		</g>
		<g>
			<path id="SVGID_60_" class="st56" d="M179.2,228.3c0.1,0,0.5,0,0.8,0.3c0,0,0.1,0.1,0.1,0.3c0.1,0.4-0.1,0.8-0.1,0.8
				s-0.9,0.8-1.4,1.2c-0.5,0.4-1.2,1-2.1,1.7c-1.3,0-2.1,0-2.5,0c0,0-1.7,0-1.8,0h-0.1H172l0,0l0,0l0,0l0,0l0,0l0,0l0,0
				c0,0,0,0,0-0.1v-0.1c0-0.1,0-0.3,0-0.4c0-0.4,0-0.4,0-0.4l0,0c0-0.3-0.1-0.4-0.1-0.4c-0.1-0.1-0.1-0.1-0.3-0.1
				c-0.3-0.1-0.6-0.1-1-0.1c-0.3,0-0.4,0-0.6,0c0,0-0.5,0-1.4,0c-3.4,0-3.4,0-3.4,0s-4.1-0.8-6.8-1.4l0,0l0,0c0-0.8,0-0.9,0-1.2l0,0
				l0,0c0.5,0,0.9,0,1.4,0l0,0c0-0.5-0.1-1-0.1-1.6c0.5,0.5,1.2,1,1.7,1.6l0,0l0,0l0,0c0.3,0,0.6,0,0.9,0c0-0.5,0-1,0-1.6
				c0.5,0.5,1.2,1,1.7,1.6l0,0c1.3,0,2.1,0,2.6,0c0.1,0,0.6,0,1.3,0c0.3,0,0.6,0,0.9,0c0.6,0,1.2,0,1.6,0c0.5,0,1,0,1.7,0h3.2
				C174.7,228.2,178.1,228.2,179.2,228.3z"/>
		</g>
	</g>
</g>
<g>
	<path class="st42" d="M76.2,264.7c1,0.5,2.1,1.2,3.1,1.7c-1,0.6-2.2,1.2-3.2,1.8c1,0.5,2.2,1.2,3.2,1.7c-1,0.6-2.1,1.3-3.1,1.8
		c1,0.5,2.1,1,3.1,1.7c-1,0.6-2.1,1.4-3.1,2.1c1.2,0.5,2.3,0.9,3.4,1.4c-1.4,0.6-2.7,1.3-4.1,1.9c1.2,0.6,3.4,1.8,3.4,1.8
		c-0.9,0.5-1.8,1-2.7,1.6c1,0.8,2.2,1.7,3.2,2.5c0,0,0,0,0,0.3c0,0.5,0,1,0,1.6c0,0.8,0,1.6,0,2.3c0,0.3,0,0.5,0,0.8
		c0,0,1.2,0,1.6,0c0.5,0,0.9,0,1.4,0c1.3,1.6,4,4.8,4,4.7v0.1h29.3c0.1-0.3,2.7-3.2,4-4.8c0.4,0,0.9,0,1.4,0c0.4,0,1.6,0,1.6,0
		c0-0.3,0-0.5,0-0.8c0-0.8,0-1.6,0-2.3c0-0.5,0-1,0-1.6c0-0.3,0-0.3,0-0.3s1.9-1.6,2.8-2.2c-0.9-0.5-1.9-1.2-2.8-1.7l3.4-1.8
		l-3.5-1.6c0,0,2.3-1.2,3.4-1.7l-3.1-2.1l3.1-1.7l-3.2-1.8l3.2-1.7c-1-0.6-3.1-1.8-3.1-1.8l3.1-1.8c-1-0.6-3-1.8-3-1.8h1h7l6.1,1.2
		v38c-0.9,0.4-2.1,0.6-3.4,0.9s-2.6,0.4-3.6,0.4c-4.8,0-9.4,0-14.2,0H86.2H75.4c-1.6,0.1-3.6,0.3-5.9-0.1c-1.7-0.3-3.1-0.6-4.3-1.2
		c0-12.7,0-25.3,0-38c1.2-0.4,2.6-0.6,4-0.9c1.3-0.3,2.5-0.3,3.6-0.4c2.1,0,4,0,6.1-0.1c0.6,0,1.3,0.1,1.9,0.1
		C79.2,263.6,77.8,264.1,76.2,264.7z"/>
	<path class="st43" d="M82.8,288.1c0.9,0.8,2.7,2.3,3.4,4.8c0.1,0.5,0.3,1,0.3,1.4c-1.3-1.6-2.7-3.2-4.1-4.8c-0.4,0-0.9,0-1.4,0
		c-0.4,0-1.6,0-1.6,0c0-0.3,0-0.5,0-0.8c0-0.8,0-1.6,0-2.3c0-0.5,0-1,0-1.6c0-0.3,0-0.3,0-0.3c-0.4-0.3-0.8-0.5-1-0.9
		c-0.6-0.5-1.2-0.9-1.7-1.4c0.5-0.3,1-0.6,1.6-0.9c0.5-0.3,0.9-0.5,1.4-0.8l-3.4-1.8l3.4-1.6c0.4,0.5,0.6,1,1,1.6c1.4,0,2.8,0,4.4,0
		c0.1,0.4,0.1,0.9,0.3,1.3C84.4,282.6,83.6,285.2,82.8,288.1z"/>
	<polygon class="st44" points="84.7,270.5 86.2,264.5 86.2,270.5 	"/>
	<path class="st43" d="M119.1,288.1c-0.9,0.8-2.7,2.3-3.4,4.8c-0.1,0.5-0.3,1-0.3,1.4c1.3-1.6,2.7-3.2,4-4.8c0.4,0,0.9,0,1.4,0l0,0
		c0.4,0,1.6,0,1.6,0l0,0l0,0c0-0.3,0-0.5,0-0.8c0-0.8,0-1.6,0-2.3c0-0.5,0-1,0-1.6c0-0.3,0-0.3,0-0.3s1.9-1.6,2.7-2.2
		c-0.9-0.5-1.9-1.2-2.8-1.7l3.4-1.8l-3.4-1.6c-0.4,0.5-0.6,1-1,1.6c-1.4,0-2.8,0-4.3,0c-0.1,0.4-0.1,0.9-0.3,1.3
		C117.7,282.8,118.5,285.3,119.1,288.1z"/>
	<polygon class="st44" points="117.3,270.4 115.9,264.5 115.9,270.4 	"/>
	<path class="st45" d="M122.4,262.9c1.2,0.6,2.3,1.4,3.5,2.1l-3.1,1.7l3.1,1.8l-3.1,1.7l3.1,1.8l-3.1,1.7l3.1,2.1
		c-1.2,0.5-2.3,0.9-3.5,1.4c0,0.4,0,0.8,0,1"/>
	<path class="st44" d="M121.7,278.6c0,0,0.4,0.3,0.5,0.4h0.6c0.1-0.3,0.3-0.6,0.4-0.9c0.1-0.3,0.3-0.6,0.3-0.6
		c-0.3-0.1-0.5-0.3-0.6-0.3c-0.3-0.1-0.5-0.3-0.8-0.4c-0.3,0.5-0.6,1.2-0.9,1.7C121.3,278.6,121.6,278.6,121.7,278.6z"/>
	<path class="st45" d="M80.7,263c-0.8,0.3-1.6,0.5-2.5,0.8c-0.8,0.3-1.4,0.5-2.1,0.8l3.1,1.7l-3.1,1.8l3.1,1.7l-3.1,1.8l3.1,1.7
		l-3.1,2.1c1.2,0.5,2.3,0.9,3.4,1.4c0,0.1,0,0.3,0,0.3"/>
	<path class="st44" d="M75.3,278.8l3.5-0.5c0,0,0.4,0.4,0.4,0.6h0.5c0.1-0.1,0.4-0.8,0.4-0.8c0.1,0.1,0.4,0.1,0.5,0.3
		c-0.3-0.6-0.5-1.3-0.8-1.9C78.4,277.2,76.9,278,75.3,278.8z"/>
	<g>
		<g>
			<g>
				<g>
					<g>
						<defs>
							<path id="SVGID_00000087390108547963972390000014109253550123671194_" d="M116,259h-3.2c0,15.8,0,31.5,0,47.3
								c0.4,0.1,0.8,0.3,1.3,0.4c0.8,0.3,1.4,0.5,2.1,0.8C116,291.4,116,275.3,116,259z"/>
						</defs>
						<clipPath id="SVGID_00000108272111304428621800000006533801160508342151_">
							<use xlink:href="#SVGID_00000087390108547963972390000014109253550123671194_"  style="overflow:visible;"/>
						</clipPath>
						
							<g transform="matrix(1 6.617445e-24 -6.617445e-24 1 0 0)" style="clip-path:url(#SVGID_00000108272111304428621800000006533801160508342151_);">
							
								<image style="overflow:visible;enable-background:new    ;" width="600" height="600" xlink:href="../../background.jpg"  transform="matrix(0 0.3676 -0.3676 0 180.0153 271.1487)">
							</image>
						</g>
					</g>
				</g>
			</g>
		</g>
	</g>
	<g class="st47">
		<path id="SVGID_9_" class="st48" d="M116,259h-3.2c0,15.8,0,31.5,0,47.3c0.4,0.1,0.8,0.3,1.3,0.4c0.8,0.3,1.4,0.5,2.1,0.8
			C116,291.4,116,275.3,116,259z"/>
	</g>
	<g>
		<g>
			<g>
				<g>
					<g>
						<defs>
							<path id="SVGID_00000033334710570129949630000008757191450512248195_" d="M116,291.5c0,0.1,0,0.5,0.3,0.8
								c0,0,0.1,0.1,0.3,0.1c0.4,0.1,0.8-0.1,0.8-0.1s0.8-0.9,1.2-1.4c0.4-0.5,1-1.2,1.7-2.1c0-1.3,0-2.1,0-2.5c0,0,0-1.7,0-1.8
								v-0.1v-0.1l0,0l0,0l0,0l0,0l0,0l0,0l0,0c0,0,0,0-0.1,0h-0.1c-0.1,0-0.3,0-0.4,0c-0.4,0-0.4,0-0.4,0l0,0
								c-0.3,0-0.4-0.1-0.4-0.1c-0.1-0.1-0.1-0.1-0.1-0.3c-0.1-0.3-0.1-0.6-0.1-1c0-0.3,0-0.4,0-0.6c0,0,0-0.5,0-1.4
								c0-3.4,0-3.4,0-3.4s-0.8-4.1-1.4-6.8l0,0l0,0c-0.8,0-0.9,0-1.2,0l0,0l0,0c0,0.5,0,0.9,0,1.4l0,0c-0.5,0-1-0.1-1.6-0.1
								c0.5,0.5,1,1.2,1.6,1.7l0,0l0,0l0,0c0,0.3,0,0.6,0,0.9c-0.5,0-1,0-1.6,0c0.5,0.5,1,1.2,1.6,1.7l0,0c0,1.3,0,2.1,0,2.6
								c0,0.1,0,0.6,0,1.3c0,0.3,0,0.6,0,0.9c0,0.6,0,1.2,0,1.6c0,0.5,0,1,0,1.7v3.2C116,287,116,290.4,116,291.5z"/>
						</defs>
						<clipPath id="SVGID_00000000191468480678909470000014193610879185597631_">
							<use xlink:href="#SVGID_00000033334710570129949630000008757191450512248195_"  style="overflow:visible;"/>
						</clipPath>
					</g>
					<g>
						<defs>
							<path id="SVGID_00000102529588418457339500000006685842028901084062_" d="M116,291.5c0,0.1,0,0.5,0.3,0.8
								c0,0,0.1,0.1,0.3,0.1c0.4,0.1,0.8-0.1,0.8-0.1s0.8-0.9,1.2-1.4c0.4-0.5,1-1.2,1.7-2.1c0-1.3,0-2.1,0-2.5c0,0,0-1.7,0-1.8
								v-0.1v-0.1l0,0l0,0l0,0l0,0l0,0l0,0l0,0c0,0,0,0-0.1,0h-0.1c-0.1,0-0.3,0-0.4,0c-0.4,0-0.4,0-0.4,0l0,0
								c-0.3,0-0.4-0.1-0.4-0.1c-0.1-0.1-0.1-0.1-0.1-0.3c-0.1-0.3-0.1-0.6-0.1-1c0-0.3,0-0.4,0-0.6c0,0,0-0.5,0-1.4
								c0-3.4,0-3.4,0-3.4s-0.8-4.1-1.4-6.8l0,0l0,0c-0.8,0-0.9,0-1.2,0l0,0l0,0c0,0.5,0,0.9,0,1.4l0,0c-0.5,0-1-0.1-1.6-0.1
								c0.5,0.5,1,1.2,1.6,1.7l0,0l0,0l0,0c0,0.3,0,0.6,0,0.9c-0.5,0-1,0-1.6,0c0.5,0.5,1,1.2,1.6,1.7l0,0c0,1.3,0,2.1,0,2.6
								c0,0.1,0,0.6,0,1.3c0,0.3,0,0.6,0,0.9c0,0.6,0,1.2,0,1.6c0,0.5,0,1,0,1.7v3.2C116,287,116,290.4,116,291.5z"/>
						</defs>
						<defs>
							<path id="SVGID_00000147214356533558866390000008253747958599520655_" d="M116,291.5c0,0.1,0,0.5,0.3,0.8
								c0,0,0.1,0.1,0.3,0.1c0.4,0.1,0.8-0.1,0.8-0.1s0.8-0.9,1.2-1.4c0.4-0.5,1-1.2,1.7-2.1c0-1.3,0-2.1,0-2.5c0,0,0-1.7,0-1.8
								v-0.1v-0.1l0,0l0,0l0,0l0,0l0,0l0,0l0,0c0,0,0,0-0.1,0h-0.1c-0.1,0-0.3,0-0.4,0c-0.4,0-0.4,0-0.4,0l0,0
								c-0.3,0-0.4-0.1-0.4-0.1c-0.1-0.1-0.1-0.1-0.1-0.3c-0.1-0.3-0.1-0.6-0.1-1c0-0.3,0-0.4,0-0.6c0,0,0-0.5,0-1.4
								c0-3.4,0-3.4,0-3.4s-0.8-4.1-1.4-6.8l0,0l0,0c-0.8,0-0.9,0-1.2,0l0,0l0,0c0,0.5,0,0.9,0,1.4l0,0c-0.5,0-1-0.1-1.6-0.1
								c0.5,0.5,1,1.2,1.6,1.7l0,0l0,0l0,0c0,0.3,0,0.6,0,0.9c-0.5,0-1,0-1.6,0c0.5,0.5,1,1.2,1.6,1.7l0,0c0,1.3,0,2.1,0,2.6
								c0,0.1,0,0.6,0,1.3c0,0.3,0,0.6,0,0.9c0,0.6,0,1.2,0,1.6c0,0.5,0,1,0,1.7v3.2C116,287,116,290.4,116,291.5z"/>
						</defs>
						<clipPath id="SVGID_00000109025803713901376180000001536029299838445757_">
							<use xlink:href="#SVGID_00000102529588418457339500000006685842028901084062_"  style="overflow:visible;"/>
						</clipPath>
						
							<clipPath id="SVGID_00000118378724954499626650000016273293365192269699_" style="clip-path:url(#SVGID_00000109025803713901376180000001536029299838445757_);">
							<use xlink:href="#SVGID_00000147214356533558866390000008253747958599520655_"  style="overflow:visible;"/>
						</clipPath>
						
							<g transform="matrix(1 6.617445e-24 -6.617445e-24 1 0 0)" style="clip-path:url(#SVGID_00000118378724954499626650000016273293365192269699_);">
							
								<image style="overflow:visible;enable-background:new    ;" width="600" height="600" xlink:href="../../background.jpg"  transform="matrix(0 0.3676 -0.3676 0 178.6541 261.4966)">
							</image>
						</g>
					</g>
				</g>
			</g>
		</g>
		<g>
			<path id="SVGID_8_" class="st51" d="M116,291.5c0,0.1,0,0.5,0.3,0.8c0,0,0.1,0.1,0.3,0.1c0.4,0.1,0.8-0.1,0.8-0.1
				s0.8-0.9,1.2-1.4c0.4-0.5,1-1.2,1.7-2.1c0-1.3,0-2.1,0-2.5c0,0,0-1.7,0-1.8v-0.1v-0.1l0,0l0,0l0,0l0,0l0,0l0,0l0,0c0,0,0,0-0.1,0
				h-0.1c-0.1,0-0.3,0-0.4,0c-0.4,0-0.4,0-0.4,0l0,0c-0.3,0-0.4-0.1-0.4-0.1c-0.1-0.1-0.1-0.1-0.1-0.3c-0.1-0.3-0.1-0.6-0.1-1
				c0-0.3,0-0.4,0-0.6c0,0,0-0.5,0-1.4c0-3.4,0-3.4,0-3.4s-0.8-4.1-1.4-6.8l0,0l0,0c-0.8,0-0.9,0-1.2,0l0,0l0,0c0,0.5,0,0.9,0,1.4
				l0,0c-0.5,0-1-0.1-1.6-0.1c0.5,0.5,1,1.2,1.6,1.7l0,0l0,0l0,0c0,0.3,0,0.6,0,0.9c-0.5,0-1,0-1.6,0c0.5,0.5,1,1.2,1.6,1.7l0,0
				c0,1.3,0,2.1,0,2.6c0,0.1,0,0.6,0,1.3c0,0.3,0,0.6,0,0.9c0,0.6,0,1.2,0,1.6c0,0.5,0,1,0,1.7v3.2C116,287,116,290.4,116,291.5z"/>
		</g>
		<g>
			<path id="SVGID_7_" class="st51" d="M116,291.5c0,0.1,0,0.5,0.3,0.8c0,0,0.1,0.1,0.3,0.1c0.4,0.1,0.8-0.1,0.8-0.1
				s0.8-0.9,1.2-1.4c0.4-0.5,1-1.2,1.7-2.1c0-1.3,0-2.1,0-2.5c0,0,0-1.7,0-1.8v-0.1v-0.1l0,0l0,0l0,0l0,0l0,0l0,0l0,0c0,0,0,0-0.1,0
				h-0.1c-0.1,0-0.3,0-0.4,0c-0.4,0-0.4,0-0.4,0l0,0c-0.3,0-0.4-0.1-0.4-0.1c-0.1-0.1-0.1-0.1-0.1-0.3c-0.1-0.3-0.1-0.6-0.1-1
				c0-0.3,0-0.4,0-0.6c0,0,0-0.5,0-1.4c0-3.4,0-3.4,0-3.4s-0.8-4.1-1.4-6.8l0,0l0,0c-0.8,0-0.9,0-1.2,0l0,0l0,0c0,0.5,0,0.9,0,1.4
				l0,0c-0.5,0-1-0.1-1.6-0.1c0.5,0.5,1,1.2,1.6,1.7l0,0l0,0l0,0c0,0.3,0,0.6,0,0.9c-0.5,0-1,0-1.6,0c0.5,0.5,1,1.2,1.6,1.7l0,0
				c0,1.3,0,2.1,0,2.6c0,0.1,0,0.6,0,1.3c0,0.3,0,0.6,0,0.9c0,0.6,0,1.2,0,1.6c0,0.5,0,1,0,1.7v3.2C116,287,116,290.4,116,291.5z"/>
		</g>
	</g>
	<g>
		<g>
			<g>
				<g>
					<g>
						<defs>
							<path id="SVGID_00000118386009055760478500000013691176875925296816_" d="M86.2,259h3.2c0,16.5,0,33,0,49.5
								c-0.5-0.1-1.2-0.3-1.8-0.5c-0.5-0.3-1-0.5-1.4-0.8C86.2,291.2,86.2,275.1,86.2,259z"/>
						</defs>
						<clipPath id="SVGID_00000002372228016548488300000017900426046982004141_">
							<use xlink:href="#SVGID_00000118386009055760478500000013691176875925296816_"  style="overflow:visible;"/>
						</clipPath>
						
							<g transform="matrix(1 6.617445e-24 -6.617445e-24 1 0 0)" style="clip-path:url(#SVGID_00000002372228016548488300000017900426046982004141_);">
							
								<image style="overflow:visible;enable-background:new    ;" width="600" height="600" xlink:href="../../background.jpg"  transform="matrix(0 0.3676 -0.3676 0 180.0153 272.5099)">
							</image>
						</g>
					</g>
				</g>
			</g>
		</g>
	</g>
	<path id="SVGID_5_" class="st53" d="M86.2,259h3.2c0,16.5,0,33,0,49.5c-0.5-0.1-1.2-0.3-1.8-0.5c-0.5-0.3-1-0.5-1.4-0.8
		C86.2,291.2,86.2,275.1,86.2,259z"/>
	<g>
		<g>
			<g>
				<g>
					<g>
						<defs>
							<path id="SVGID_00000107570482255367522060000007242618430193380252_" d="M86,291.7c0,0.1,0,0.5-0.3,0.8c0,0-0.1,0.1-0.3,0.1
								c-0.4,0.1-0.8-0.1-0.8-0.1s-0.8-0.9-1.2-1.4c-0.4-0.5-1-1.2-1.7-2.1c0-1.3,0-2.1,0-2.5c0,0,0-1.7,0-1.8v-0.1v-0.1l0,0l0,0
								l0,0l0,0l0,0l0,0l0,0c0,0,0,0,0.1,0h0.1c0.1,0,0.3,0,0.4,0c0.4,0,0.4,0,0.4,0l0,0c0.3,0,0.4-0.1,0.4-0.1
								c0.1-0.1,0.1-0.1,0.1-0.3c0.1-0.3,0.1-0.6,0.1-1c0-0.3,0-0.4,0-0.6c0,0,0-0.5,0-1.4c0-3.4,0-3.4,0-3.4s0.8-4.1,1.4-6.8l0,0
								l0,0c0.8,0,0.9,0,1.2,0l0,0l0,0c0,0.5,0,0.9,0,1.4l0,0c0.5,0,1-0.1,1.6-0.1c-0.5,0.5-1,1.2-1.6,1.7l0,0l0,0l0,0
								c0,0.3,0,0.6,0,0.9c0.5,0,1,0,1.6,0c-0.5,0.5-1,1.2-1.6,1.7l0,0c0,1.3,0,2.1,0,2.6c0,0.1,0,0.6,0,1.3c0,0.3,0,0.6,0,0.9
								c0,0.6,0,1.2,0,1.6c0,0.5,0,1,0,1.7v3.2C86,287.2,86,290.5,86,291.7z"/>
						</defs>
						<clipPath id="SVGID_00000067216099458661031160000008161712354192941720_">
							<use xlink:href="#SVGID_00000107570482255367522060000007242618430193380252_"  style="overflow:visible;"/>
						</clipPath>
					</g>
					<g>
						<defs>
							<path id="SVGID_00000049909948608455960450000015968244176278894253_" d="M86,291.7c0,0.1,0,0.5-0.3,0.8c0,0-0.1,0.1-0.3,0.1
								c-0.4,0.1-0.8-0.1-0.8-0.1s-0.8-0.9-1.2-1.4c-0.4-0.5-1-1.2-1.7-2.1c0-1.3,0-2.1,0-2.5c0,0,0-1.7,0-1.8v-0.1v-0.1l0,0l0,0
								l0,0l0,0l0,0l0,0l0,0c0,0,0,0,0.1,0h0.1c0.1,0,0.3,0,0.4,0c0.4,0,0.4,0,0.4,0l0,0c0.3,0,0.4-0.1,0.4-0.1
								c0.1-0.1,0.1-0.1,0.1-0.3c0.1-0.3,0.1-0.6,0.1-1c0-0.3,0-0.4,0-0.6c0,0,0-0.5,0-1.4c0-3.4,0-3.4,0-3.4s0.8-4.1,1.4-6.8l0,0
								l0,0c0.8,0,0.9,0,1.2,0l0,0l0,0c0,0.5,0,0.9,0,1.4l0,0c0.5,0,1-0.1,1.6-0.1c-0.5,0.5-1,1.2-1.6,1.7l0,0l0,0l0,0
								c0,0.3,0,0.6,0,0.9c0.5,0,1,0,1.6,0c-0.5,0.5-1,1.2-1.6,1.7l0,0c0,1.3,0,2.1,0,2.6c0,0.1,0,0.6,0,1.3c0,0.3,0,0.6,0,0.9
								c0,0.6,0,1.2,0,1.6c0,0.5,0,1,0,1.7v3.2C86,287.2,86,290.5,86,291.7z"/>
						</defs>
						<defs>
							<path id="SVGID_00000036238246455537028820000011009251153055030456_" d="M86,291.7c0,0.1,0,0.5-0.3,0.8c0,0-0.1,0.1-0.3,0.1
								c-0.4,0.1-0.8-0.1-0.8-0.1s-0.8-0.9-1.2-1.4c-0.4-0.5-1-1.2-1.7-2.1c0-1.3,0-2.1,0-2.5c0,0,0-1.7,0-1.8v-0.1v-0.1l0,0l0,0
								l0,0l0,0l0,0l0,0l0,0c0,0,0,0,0.1,0h0.1c0.1,0,0.3,0,0.4,0c0.4,0,0.4,0,0.4,0l0,0c0.3,0,0.4-0.1,0.4-0.1
								c0.1-0.1,0.1-0.1,0.1-0.3c0.1-0.3,0.1-0.6,0.1-1c0-0.3,0-0.4,0-0.6c0,0,0-0.5,0-1.4c0-3.4,0-3.4,0-3.4s0.8-4.1,1.4-6.8l0,0
								l0,0c0.8,0,0.9,0,1.2,0l0,0l0,0c0,0.5,0,0.9,0,1.4l0,0c0.5,0,1-0.1,1.6-0.1c-0.5,0.5-1,1.2-1.6,1.7l0,0l0,0l0,0
								c0,0.3,0,0.6,0,0.9c0.5,0,1,0,1.6,0c-0.5,0.5-1,1.2-1.6,1.7l0,0c0,1.3,0,2.1,0,2.6c0,0.1,0,0.6,0,1.3c0,0.3,0,0.6,0,0.9
								c0,0.6,0,1.2,0,1.6c0,0.5,0,1,0,1.7v3.2C86,287.2,86,290.5,86,291.7z"/>
						</defs>
						<clipPath id="SVGID_00000006680997950753310330000001560012725716957575_">
							<use xlink:href="#SVGID_00000049909948608455960450000015968244176278894253_"  style="overflow:visible;"/>
						</clipPath>
						
							<clipPath id="SVGID_00000140720251577860008010000016829729831221673643_" style="clip-path:url(#SVGID_00000006680997950753310330000001560012725716957575_);">
							<use xlink:href="#SVGID_00000036238246455537028820000011009251153055030456_"  style="overflow:visible;"/>
						</clipPath>
						
							<g transform="matrix(1 6.617445e-24 -6.617445e-24 1 0 0)" style="clip-path:url(#SVGID_00000140720251577860008010000016829729831221673643_);">
							
								<image style="overflow:visible;enable-background:new    ;" width="600" height="600" xlink:href="../../background.jpg"  transform="matrix(0 0.3676 -0.3676 0 179.2729 270.6537)">
							</image>
						</g>
					</g>
				</g>
			</g>
		</g>
		<g>
			<path id="SVGID_4_" class="st56" d="M86,291.7c0,0.1,0,0.5-0.3,0.8c0,0-0.1,0.1-0.3,0.1c-0.4,0.1-0.8-0.1-0.8-0.1
				s-0.8-0.9-1.2-1.4c-0.4-0.5-1-1.2-1.7-2.1c0-1.3,0-2.1,0-2.5c0,0,0-1.7,0-1.8v-0.1v-0.1l0,0l0,0l0,0l0,0l0,0l0,0l0,0
				c0,0,0,0,0.1,0h0.1c0.1,0,0.3,0,0.4,0c0.4,0,0.4,0,0.4,0l0,0c0.3,0,0.4-0.1,0.4-0.1c0.1-0.1,0.1-0.1,0.1-0.3
				c0.1-0.3,0.1-0.6,0.1-1c0-0.3,0-0.4,0-0.6c0,0,0-0.5,0-1.4c0-3.4,0-3.4,0-3.4s0.8-4.1,1.4-6.8l0,0l0,0c0.8,0,0.9,0,1.2,0l0,0l0,0
				c0,0.5,0,0.9,0,1.4l0,0c0.5,0,1-0.1,1.6-0.1c-0.5,0.5-1,1.2-1.6,1.7l0,0l0,0l0,0c0,0.3,0,0.6,0,0.9c0.5,0,1,0,1.6,0
				c-0.5,0.5-1,1.2-1.6,1.7l0,0c0,1.3,0,2.1,0,2.6c0,0.1,0,0.6,0,1.3c0,0.3,0,0.6,0,0.9c0,0.6,0,1.2,0,1.6c0,0.5,0,1,0,1.7v3.2
				C86,287.2,86,290.5,86,291.7z"/>
		</g>
		<g>
			<path id="SVGID_3_" class="st56" d="M86,291.7c0,0.1,0,0.5-0.3,0.8c0,0-0.1,0.1-0.3,0.1c-0.4,0.1-0.8-0.1-0.8-0.1
				s-0.8-0.9-1.2-1.4c-0.4-0.5-1-1.2-1.7-2.1c0-1.3,0-2.1,0-2.5c0,0,0-1.7,0-1.8v-0.1v-0.1l0,0l0,0l0,0l0,0l0,0l0,0l0,0
				c0,0,0,0,0.1,0h0.1c0.1,0,0.3,0,0.4,0c0.4,0,0.4,0,0.4,0l0,0c0.3,0,0.4-0.1,0.4-0.1c0.1-0.1,0.1-0.1,0.1-0.3
				c0.1-0.3,0.1-0.6,0.1-1c0-0.3,0-0.4,0-0.6c0,0,0-0.5,0-1.4c0-3.4,0-3.4,0-3.4s0.8-4.1,1.4-6.8l0,0l0,0c0.8,0,0.9,0,1.2,0l0,0l0,0
				c0,0.5,0,0.9,0,1.4l0,0c0.5,0,1-0.1,1.6-0.1c-0.5,0.5-1,1.2-1.6,1.7l0,0l0,0l0,0c0,0.3,0,0.6,0,0.9c0.5,0,1,0,1.6,0
				c-0.5,0.5-1,1.2-1.6,1.7l0,0c0,1.3,0,2.1,0,2.6c0,0.1,0,0.6,0,1.3c0,0.3,0,0.6,0,0.9c0,0.6,0,1.2,0,1.6c0,0.5,0,1,0,1.7v3.2
				C86,287.2,86,290.5,86,291.7z"/>
		</g>
	</g>
</g>
<g>
	<path class="st42" d="M48,188.5c-0.5,1-1.2,2.1-1.7,3.1c-0.6-1-1.2-2.2-1.8-3.2c-0.5,1-1.2,2.2-1.7,3.2c-0.6-1-1.3-2.1-1.8-3.1
		c-0.5,1-1,2.1-1.7,3.1c-0.6-1-1.4-2.1-2.1-3.1c-0.5,1.2-0.9,2.3-1.4,3.4c-0.6-1.4-1.3-2.7-1.9-4.1c-0.6,1.2-1.8,3.4-1.8,3.4
		c-0.5-0.9-1-1.8-1.6-2.7c-0.8,1-1.7,2.2-2.5,3.2c0,0,0,0-0.3,0c-0.5,0-1,0-1.6,0c-0.8,0-1.6,0-2.3,0c-0.3,0-0.5,0-0.8,0
		c0,0,0,1.2,0,1.6c0,0.5,0,0.9,0,1.4c-1.6,1.3-4.8,4-4.7,4h-0.1V228c0.3,0.1,3.2,2.7,4.8,4c0,0.4,0,0.9,0,1.4c0,0.4,0,1.6,0,1.6
		c0.3,0,0.5,0,0.8,0c0.8,0,1.6,0,2.3,0c0.5,0,1,0,1.6,0c0.3,0,0.3,0,0.3,0c0.4,0.3,0.8,0.5,1.2,0.9c0.6,0.5,1,1.2,1.3,1.6
		c0.1-0.4,0.4-0.6,0.6-1c0.4-0.6,0.8-1.2,1.2-1.7c0.5,1,1,2.2,1.6,3.2c0.5-1.2,1-2.5,1.6-3.6c0.5,1.3,1,2.6,1.6,3.7l2.1-3.1l1.7,3.1
		l1.8-3.2l1.7,3.2c0.6-1,1.8-3.1,1.8-3.1l1.8,3.1c0.6-1,1.8-3,1.8-3v1v7l-1.2,6.1H10.4c-0.4-0.9-0.6-2.1-0.9-3.4
		c-0.3-1.3-0.4-2.6-0.4-3.6c0-4.8,0-9.4,0-14.2v-29.9v-10.5c-0.1-1.6-0.3-3.6,0.1-5.9c0.3-1.7,0.6-3.1,1.2-4.3c12.7,0,25.3,0,38,0
		c0.4,1.2,0.6,2.6,0.9,4c0.3,1.3,0.3,2.5,0.4,3.6c0,2.1,0,4,0.1,6.1c0,0.6-0.1,1.3-0.1,1.9C49.1,191.6,48.6,190.1,48,188.5z"/>
	<path class="st43" d="M24.9,195c-0.8,0.9-2.3,2.7-4.8,3.4c-0.5,0.1-1,0.3-1.4,0.3c1.6-1.3,3.2-2.7,4.8-4c0-0.4,0-0.9,0-1.4
		c0-0.4,0-1.6,0-1.6c0.3,0,0.5,0,0.8,0c0.8,0,1.6,0,2.3,0c0.5,0,1,0,1.6,0c0.3,0,0.3,0,0.3,0s1.6-1.9,2.2-2.7
		c0.3,0.5,0.5,0.9,0.9,1.4c0.3,0.4,0.5,0.8,0.8,1.2c0.6-1,1.2-2.1,1.8-3.2c0.5,1.2,1,2.3,1.7,3.4c-0.5,0.4-1,0.6-1.6,1
		c0,1.4,0,2.8,0,4.3c-0.4,0.1-0.9,0.1-1.3,0.3C30.2,196.6,27.6,195.8,24.9,195z"/>
	<polygon class="st44" points="42.5,196.8 48.4,198.2 42.5,198.2 	"/>
	<path class="st43" d="M24.9,231.3c-0.8-0.9-2.3-2.7-4.8-3.4c-0.5-0.1-1-0.3-1.4-0.3c1.6,1.3,3.2,2.7,4.8,4c0,0.4,0,0.9,0,1.4l0,0
		c0,0.4,0,1.6,0,1.6l0,0l0,0c0.3,0,0.5,0,0.8,0c0.8,0,1.6,0,2.3,0c0.5,0,1,0,1.6,0c0.3,0,0.3,0,0.3,0s1.6,1.9,2.2,2.7
		c0.5-0.9,1.2-1.9,1.7-2.8l1.8,3.4l1.6-3.4c-0.5-0.4-1-0.6-1.6-1c0-1.4,0-2.8,0-4.3c-0.4-0.1-0.9-0.1-1.3-0.3
		C30.2,229.8,27.6,230.5,24.9,231.3z"/>
	<polygon class="st44" points="42.7,229.4 48.4,228.1 42.7,228.1 	"/>
	<path class="st45" d="M50.1,234.6c-0.6,1.2-1.4,2.3-2.1,3.5l-1.7-3.1l-1.8,3.1l-1.7-3.1l-1.8,3.1l-1.7-3.1l-2.1,3.1
		c-0.5-1.2-0.9-2.3-1.4-3.5c-0.4,0-0.8,0-1,0"/>
	<path class="st44" d="M34.3,233.8c-0.1,0.1-0.3,0.4-0.4,0.5v0.6c0.1,0.1,0.4,0.4,0.9,0.4c0.5,0,0.8-0.3,0.9-0.3
		c0-0.3,0.1-0.5,0.1-0.8c-0.3-0.1-0.5-0.3-0.6-0.4c-0.1,0-0.3,0-0.4,0C34.6,233.8,34.5,233.8,34.3,233.8z"/>
	<path class="st45" d="M49.8,192.9c-0.3-0.8-0.5-1.6-0.8-2.3c-0.3-0.8-0.5-1.4-0.8-2.1c-0.6,1-1.2,1.9-1.8,3c-0.5-1-1-1.9-1.6-3
		c-0.6,0.9-1.3,1.9-1.9,2.8c-0.5-0.9-1.2-1.8-1.7-2.7c-0.5,0.9-1.2,1.8-1.7,2.7c-0.6-0.9-1.3-1.8-1.9-2.8c-0.3,0.5-0.5,0.9-0.8,1.4
		c-0.3,0.5-0.5,1-0.6,1.6c-0.1,0-0.1,0-0.3,0"/>
	<path class="st44" d="M35.4,190.5c0,0-0.4,0.4-0.6,0.5c-0.3,0.1-0.5,0.4-0.6,0.4v0.5c0.1,0.1,0.4,0.3,0.8,0.4
		c0.4,0,0.6-0.1,0.8-0.1c0.1-0.1,0.3-0.1,0.4-0.3c0-0.3,0-0.6,0-0.6L35.4,190.5z"/>
	<g>
		<g>
			<g>
				<g>
					<g>
						<defs>
							<path id="SVGID_00000013895325078412837730000011958054154167020166_" d="M53.7,228.2V225c-15.8,0-31.5,0-47.3,0
								c-0.1,0.4-0.3,0.8-0.4,1.3c-0.3,0.8-0.5,1.4-0.8,2.1C21.4,228.2,37.6,228.2,53.7,228.2z"/>
						</defs>
						<clipPath id="SVGID_00000165193871405893776440000000309083780014340279_">
							<use xlink:href="#SVGID_00000013895325078412837730000011958054154167020166_"  style="overflow:visible;"/>
						</clipPath>
						<g transform="matrix(1 0 0 1 0 0)" style="clip-path:url(#SVGID_00000165193871405893776440000000309083780014340279_);">
							
								<image style="overflow:visible;enable-background:new    ;" width="600" height="600" xlink:href="../../background.jpg"  transform="matrix(-0.3676 0 0 -0.3676 41.6691 292.2413)">
							</image>
						</g>
					</g>
				</g>
			</g>
		</g>
	</g>
	<g class="st47">
		<path id="SVGID_17_" class="st48" d="M53.7,228.2V225c-15.8,0-31.5,0-47.3,0c-0.1,0.4-0.3,0.8-0.4,1.3c-0.3,0.8-0.5,1.4-0.8,2.1
			C21.4,228.2,37.6,228.2,53.7,228.2z"/>
	</g>
	<g>
		<g>
			<g>
				<g>
					<g>
						<defs>
							<path id="SVGID_00000171701657589889394640000006698831925501127567_" d="M21.4,228.1c-0.1,0-0.5,0-0.8,0.3
								c0,0-0.1,0.1-0.1,0.3c-0.1,0.4,0.1,0.8,0.1,0.8s0.9,0.8,1.4,1.2c0.5,0.4,1.2,1,2.1,1.7c1.3,0,2.1,0,2.5,0c0,0,1.7,0,1.8,0
								h0.1h0.1l0,0l0,0l0,0l0,0l0,0l0,0l0,0c0,0,0,0,0-0.1V232c0-0.1,0-0.3,0-0.4c0-0.4,0-0.4,0-0.4l0,0c0-0.3,0.1-0.4,0.1-0.4
								c0.1-0.1,0.1-0.1,0.3-0.1c0.3-0.1,0.6-0.1,1-0.1c0.3,0,0.4,0,0.6,0c0,0,0.5,0,1.4,0c3.4,0,3.4,0,3.4,0s4.1-0.8,6.8-1.4l0,0
								l0,0c0-0.8,0-0.9,0-1.2l0,0l0,0c-0.5,0-0.9,0-1.4,0l0,0c0-0.5,0.1-1,0.1-1.6c-0.5,0.5-1.2,1-1.7,1.6l0,0l0,0l0,0
								c-0.3,0-0.6,0-0.9,0c0-0.5,0-1,0-1.6c-0.5,0.5-1.2,1-1.7,1.6l0,0c-1.3,0-2.1,0-2.6,0c-0.1,0-0.6,0-1.3,0c-0.3,0-0.6,0-0.9,0
								c-0.6,0-1.2,0-1.6,0c-0.5,0-1,0-1.7,0h-3.2C25.9,228.1,22.6,228.1,21.4,228.1z"/>
						</defs>
						<clipPath id="SVGID_00000102543650878110235700000009219846557110107535_">
							<use xlink:href="#SVGID_00000171701657589889394640000006698831925501127567_"  style="overflow:visible;"/>
						</clipPath>
					</g>
					<g>
						<defs>
							<path id="SVGID_00000041285304980207459000000002019229129516003258_" d="M21.4,228.1c-0.1,0-0.5,0-0.8,0.3
								c0,0-0.1,0.1-0.1,0.3c-0.1,0.4,0.1,0.8,0.1,0.8s0.9,0.8,1.4,1.2c0.5,0.4,1.2,1,2.1,1.7c1.3,0,2.1,0,2.5,0c0,0,1.7,0,1.8,0
								h0.1h0.1l0,0l0,0l0,0l0,0l0,0l0,0l0,0c0,0,0,0,0-0.1V232c0-0.1,0-0.3,0-0.4c0-0.4,0-0.4,0-0.4l0,0c0-0.3,0.1-0.4,0.1-0.4
								c0.1-0.1,0.1-0.1,0.3-0.1c0.3-0.1,0.6-0.1,1-0.1c0.3,0,0.4,0,0.6,0c0,0,0.5,0,1.4,0c3.4,0,3.4,0,3.4,0s4.1-0.8,6.8-1.4l0,0
								l0,0c0-0.8,0-0.9,0-1.2l0,0l0,0c-0.5,0-0.9,0-1.4,0l0,0c0-0.5,0.1-1,0.1-1.6c-0.5,0.5-1.2,1-1.7,1.6l0,0l0,0l0,0
								c-0.3,0-0.6,0-0.9,0c0-0.5,0-1,0-1.6c-0.5,0.5-1.2,1-1.7,1.6l0,0c-1.3,0-2.1,0-2.6,0c-0.1,0-0.6,0-1.3,0c-0.3,0-0.6,0-0.9,0
								c-0.6,0-1.2,0-1.6,0c-0.5,0-1,0-1.7,0h-3.2C25.9,228.1,22.6,228.1,21.4,228.1z"/>
						</defs>
						<defs>
							<path id="SVGID_00000123413305518085239970000017541825767077965456_" d="M21.4,228.1c-0.1,0-0.5,0-0.8,0.3
								c0,0-0.1,0.1-0.1,0.3c-0.1,0.4,0.1,0.8,0.1,0.8s0.9,0.8,1.4,1.2c0.5,0.4,1.2,1,2.1,1.7c1.3,0,2.1,0,2.5,0c0,0,1.7,0,1.8,0
								h0.1h0.1l0,0l0,0l0,0l0,0l0,0l0,0l0,0c0,0,0,0,0-0.1V232c0-0.1,0-0.3,0-0.4c0-0.4,0-0.4,0-0.4l0,0c0-0.3,0.1-0.4,0.1-0.4
								c0.1-0.1,0.1-0.1,0.3-0.1c0.3-0.1,0.6-0.1,1-0.1c0.3,0,0.4,0,0.6,0c0,0,0.5,0,1.4,0c3.4,0,3.4,0,3.4,0s4.1-0.8,6.8-1.4l0,0
								l0,0c0-0.8,0-0.9,0-1.2l0,0l0,0c-0.5,0-0.9,0-1.4,0l0,0c0-0.5,0.1-1,0.1-1.6c-0.5,0.5-1.2,1-1.7,1.6l0,0l0,0l0,0
								c-0.3,0-0.6,0-0.9,0c0-0.5,0-1,0-1.6c-0.5,0.5-1.2,1-1.7,1.6l0,0c-1.3,0-2.1,0-2.6,0c-0.1,0-0.6,0-1.3,0c-0.3,0-0.6,0-0.9,0
								c-0.6,0-1.2,0-1.6,0c-0.5,0-1,0-1.7,0h-3.2C25.9,228.1,22.6,228.1,21.4,228.1z"/>
						</defs>
						<clipPath id="SVGID_00000080167909880239417860000003727209212205665198_">
							<use xlink:href="#SVGID_00000041285304980207459000000002019229129516003258_"  style="overflow:visible;"/>
						</clipPath>
						
							<clipPath id="SVGID_00000146477642260008626350000000312351077521657768_" style="clip-path:url(#SVGID_00000080167909880239417860000003727209212205665198_);">
							<use xlink:href="#SVGID_00000123413305518085239970000017541825767077965456_"  style="overflow:visible;"/>
						</clipPath>
						
							<g transform="matrix(1 0 0 1 -3.814697e-06 0)" style="clip-path:url(#SVGID_00000146477642260008626350000000312351077521657768_);">
							
								<image style="overflow:visible;enable-background:new    ;" width="600" height="600" xlink:href="../../background.jpg"  transform="matrix(-0.3676 0 0 -0.3676 51.4603 290.7718)">
							</image>
						</g>
					</g>
				</g>
			</g>
		</g>
		<g>
			<path id="SVGID_16_" class="st51" d="M21.4,228.1c-0.1,0-0.5,0-0.8,0.3c0,0-0.1,0.1-0.1,0.3c-0.1,0.4,0.1,0.8,0.1,0.8
				s0.9,0.8,1.4,1.2c0.5,0.4,1.2,1,2.1,1.7c1.3,0,2.1,0,2.5,0c0,0,1.7,0,1.8,0h0.1h0.1l0,0l0,0l0,0l0,0l0,0l0,0l0,0c0,0,0,0,0-0.1
				V232c0-0.1,0-0.3,0-0.4c0-0.4,0-0.4,0-0.4l0,0c0-0.3,0.1-0.4,0.1-0.4c0.1-0.1,0.1-0.1,0.3-0.1c0.3-0.1,0.6-0.1,1-0.1
				c0.3,0,0.4,0,0.6,0c0,0,0.5,0,1.4,0c3.4,0,3.4,0,3.4,0s4.1-0.8,6.8-1.4l0,0l0,0c0-0.8,0-0.9,0-1.2l0,0l0,0c-0.5,0-0.9,0-1.4,0
				l0,0c0-0.5,0.1-1,0.1-1.6c-0.5,0.5-1.2,1-1.7,1.6l0,0l0,0l0,0c-0.3,0-0.6,0-0.9,0c0-0.5,0-1,0-1.6c-0.5,0.5-1.2,1-1.7,1.6l0,0
				c-1.3,0-2.1,0-2.6,0c-0.1,0-0.6,0-1.3,0c-0.3,0-0.6,0-0.9,0c-0.6,0-1.2,0-1.6,0c-0.5,0-1,0-1.7,0h-3.2
				C25.9,228.1,22.6,228.1,21.4,228.1z"/>
		</g>
		<g>
			<path id="SVGID_15_" class="st51" d="M21.4,228.1c-0.1,0-0.5,0-0.8,0.3c0,0-0.1,0.1-0.1,0.3c-0.1,0.4,0.1,0.8,0.1,0.8
				s0.9,0.8,1.4,1.2c0.5,0.4,1.2,1,2.1,1.7c1.3,0,2.1,0,2.5,0c0,0,1.7,0,1.8,0h0.1h0.1l0,0l0,0l0,0l0,0l0,0l0,0l0,0c0,0,0,0,0-0.1
				V232c0-0.1,0-0.3,0-0.4c0-0.4,0-0.4,0-0.4l0,0c0-0.3,0.1-0.4,0.1-0.4c0.1-0.1,0.1-0.1,0.3-0.1c0.3-0.1,0.6-0.1,1-0.1
				c0.3,0,0.4,0,0.6,0c0,0,0.5,0,1.4,0c3.4,0,3.4,0,3.4,0s4.1-0.8,6.8-1.4l0,0l0,0c0-0.8,0-0.9,0-1.2l0,0l0,0c-0.5,0-0.9,0-1.4,0
				l0,0c0-0.5,0.1-1,0.1-1.6c-0.5,0.5-1.2,1-1.7,1.6l0,0l0,0l0,0c-0.3,0-0.6,0-0.9,0c0-0.5,0-1,0-1.6c-0.5,0.5-1.2,1-1.7,1.6l0,0
				c-1.3,0-2.1,0-2.6,0c-0.1,0-0.6,0-1.3,0c-0.3,0-0.6,0-0.9,0c-0.6,0-1.2,0-1.6,0c-0.5,0-1,0-1.7,0h-3.2
				C25.9,228.1,22.6,228.1,21.4,228.1z"/>
		</g>
	</g>
	<g>
		<g>
			<g>
				<g>
					<g>
						<defs>
							<path id="SVGID_00000073683834189967963870000015238407186004206242_" d="M53.9,198.2v3.2c-16.5,0-33,0-49.5,0
								c0.1-0.5,0.3-1.2,0.5-1.8c0.3-0.5,0.5-1,0.8-1.4C21.8,198.2,37.8,198.2,53.9,198.2z"/>
						</defs>
						<clipPath id="SVGID_00000019666978972767368410000002152731620410867635_">
							<use xlink:href="#SVGID_00000073683834189967963870000015238407186004206242_"  style="overflow:visible;"/>
						</clipPath>
						<g transform="matrix(1 0 0 1 0 0)" style="clip-path:url(#SVGID_00000019666978972767368410000002152731620410867635_);">
							
								<image style="overflow:visible;enable-background:new    ;" width="600" height="600" xlink:href="../../background.jpg"  transform="matrix(-0.3676 0 0 -0.3676 40.4471 292.133)">
							</image>
						</g>
					</g>
				</g>
			</g>
		</g>
	</g>
	<path id="SVGID_13_" class="st53" d="M53.9,198.2v3.2c-16.5,0-33,0-49.5,0c0.1-0.5,0.3-1.2,0.5-1.8c0.3-0.5,0.5-1,0.8-1.4
		C21.8,198.2,37.8,198.2,53.9,198.2z"/>
	<g>
		<g>
			<g>
				<g>
					<g>
						<defs>
							<path id="SVGID_00000144297095633431155490000007615142321360639932_" d="M21.3,198.1c-0.1,0-0.5,0-0.8-0.3
								c0,0-0.1-0.1-0.1-0.3c-0.1-0.4,0.1-0.8,0.1-0.8s0.9-0.8,1.4-1.2c0.5-0.4,1.2-1,2.1-1.7c1.3,0,2.1,0,2.5,0c0,0,1.7,0,1.8,0
								h0.1h0.1l0,0l0,0l0,0l0,0l0,0l0,0l0,0c0,0,0,0,0,0.1v0.1c0,0.1,0,0.3,0,0.4c0,0.4,0,0.4,0,0.4l0,0c0,0.3,0.1,0.4,0.1,0.4
								c0.1,0.1,0.1,0.1,0.3,0.1c0.3,0.1,0.6,0.1,1,0.1c0.3,0,0.4,0,0.6,0c0,0,0.5,0,1.4,0c3.4,0,3.4,0,3.4,0s4.1,0.8,6.8,1.4l0,0
								l0,0c0,0.8,0,0.9,0,1.2l0,0l0,0c-0.5,0-0.9,0-1.4,0l0,0c0,0.5,0.1,1,0.1,1.6c-0.5-0.5-1.2-1-1.7-1.6l0,0l0,0l0,0
								c-0.3,0-0.6,0-0.9,0c0,0.5,0,1,0,1.6c-0.5-0.5-1.2-1-1.7-1.6l0,0c-1.3,0-2.1,0-2.6,0c-0.1,0-0.6,0-1.3,0c-0.3,0-0.6,0-0.9,0
								c-0.6,0-1.2,0-1.6,0c-0.5,0-1,0-1.7,0h-3.2C25.8,198.1,22.4,198.1,21.3,198.1z"/>
						</defs>
						<clipPath id="SVGID_00000148660381525912655040000006157486649204870074_">
							<use xlink:href="#SVGID_00000144297095633431155490000007615142321360639932_"  style="overflow:visible;"/>
						</clipPath>
					</g>
					<g>
						<defs>
							<path id="SVGID_00000102522381696645610210000006898312757881167006_" d="M21.3,198.1c-0.1,0-0.5,0-0.8-0.3
								c0,0-0.1-0.1-0.1-0.3c-0.1-0.4,0.1-0.8,0.1-0.8s0.9-0.8,1.4-1.2c0.5-0.4,1.2-1,2.1-1.7c1.3,0,2.1,0,2.5,0c0,0,1.7,0,1.8,0
								h0.1h0.1l0,0l0,0l0,0l0,0l0,0l0,0l0,0c0,0,0,0,0,0.1v0.1c0,0.1,0,0.3,0,0.4c0,0.4,0,0.4,0,0.4l0,0c0,0.3,0.1,0.4,0.1,0.4
								c0.1,0.1,0.1,0.1,0.3,0.1c0.3,0.1,0.6,0.1,1,0.1c0.3,0,0.4,0,0.6,0c0,0,0.5,0,1.4,0c3.4,0,3.4,0,3.4,0s4.1,0.8,6.8,1.4l0,0
								l0,0c0,0.8,0,0.9,0,1.2l0,0l0,0c-0.5,0-0.9,0-1.4,0l0,0c0,0.5,0.1,1,0.1,1.6c-0.5-0.5-1.2-1-1.7-1.6l0,0l0,0l0,0
								c-0.3,0-0.6,0-0.9,0c0,0.5,0,1,0,1.6c-0.5-0.5-1.2-1-1.7-1.6l0,0c-1.3,0-2.1,0-2.6,0c-0.1,0-0.6,0-1.3,0c-0.3,0-0.6,0-0.9,0
								c-0.6,0-1.2,0-1.6,0c-0.5,0-1,0-1.7,0h-3.2C25.8,198.1,22.4,198.1,21.3,198.1z"/>
						</defs>
						<defs>
							<path id="SVGID_00000100375177114517354590000004874247939517614264_" d="M21.3,198.1c-0.1,0-0.5,0-0.8-0.3
								c0,0-0.1-0.1-0.1-0.3c-0.1-0.4,0.1-0.8,0.1-0.8s0.9-0.8,1.4-1.2c0.5-0.4,1.2-1,2.1-1.7c1.3,0,2.1,0,2.5,0c0,0,1.7,0,1.8,0
								h0.1h0.1l0,0l0,0l0,0l0,0l0,0l0,0l0,0c0,0,0,0,0,0.1v0.1c0,0.1,0,0.3,0,0.4c0,0.4,0,0.4,0,0.4l0,0c0,0.3,0.1,0.4,0.1,0.4
								c0.1,0.1,0.1,0.1,0.3,0.1c0.3,0.1,0.6,0.1,1,0.1c0.3,0,0.4,0,0.6,0c0,0,0.5,0,1.4,0c3.4,0,3.4,0,3.4,0s4.1,0.8,6.8,1.4l0,0
								l0,0c0,0.8,0,0.9,0,1.2l0,0l0,0c-0.5,0-0.9,0-1.4,0l0,0c0,0.5,0.1,1,0.1,1.6c-0.5-0.5-1.2-1-1.7-1.6l0,0l0,0l0,0
								c-0.3,0-0.6,0-0.9,0c0,0.5,0,1,0,1.6c-0.5-0.5-1.2-1-1.7-1.6l0,0c-1.3,0-2.1,0-2.6,0c-0.1,0-0.6,0-1.3,0c-0.3,0-0.6,0-0.9,0
								c-0.6,0-1.2,0-1.6,0c-0.5,0-1,0-1.7,0h-3.2C25.8,198.1,22.4,198.1,21.3,198.1z"/>
						</defs>
						<clipPath id="SVGID_00000083091374882595229740000007648226868250285494_">
							<use xlink:href="#SVGID_00000102522381696645610210000006898312757881167006_"  style="overflow:visible;"/>
						</clipPath>
						
							<clipPath id="SVGID_00000138539893067429444710000004027150307259389833_" style="clip-path:url(#SVGID_00000083091374882595229740000007648226868250285494_);">
							<use xlink:href="#SVGID_00000100375177114517354590000004874247939517614264_"  style="overflow:visible;"/>
						</clipPath>
						<g transform="matrix(1 0 0 1 0 0)" style="clip-path:url(#SVGID_00000138539893067429444710000004027150307259389833_);">
							
								<image style="overflow:visible;enable-background:new    ;" width="600" height="600" xlink:href="../../background.jpg"  transform="matrix(-0.3676 0 0 -0.3676 42.3032 291.3907)">
							</image>
						</g>
					</g>
				</g>
			</g>
		</g>
		<g>
			<path id="SVGID_12_" class="st56" d="M21.3,198.1c-0.1,0-0.5,0-0.8-0.3c0,0-0.1-0.1-0.1-0.3c-0.1-0.4,0.1-0.8,0.1-0.8
				s0.9-0.8,1.4-1.2c0.5-0.4,1.2-1,2.1-1.7c1.3,0,2.1,0,2.5,0c0,0,1.7,0,1.8,0h0.1h0.1l0,0l0,0l0,0l0,0l0,0l0,0l0,0c0,0,0,0,0,0.1
				v0.1c0,0.1,0,0.3,0,0.4c0,0.4,0,0.4,0,0.4l0,0c0,0.3,0.1,0.4,0.1,0.4c0.1,0.1,0.1,0.1,0.3,0.1c0.3,0.1,0.6,0.1,1,0.1
				c0.3,0,0.4,0,0.6,0c0,0,0.5,0,1.4,0c3.4,0,3.4,0,3.4,0s4.1,0.8,6.8,1.4l0,0l0,0c0,0.8,0,0.9,0,1.2l0,0l0,0c-0.5,0-0.9,0-1.4,0
				l0,0c0,0.5,0.1,1,0.1,1.6c-0.5-0.5-1.2-1-1.7-1.6l0,0l0,0l0,0c-0.3,0-0.6,0-0.9,0c0,0.5,0,1,0,1.6c-0.5-0.5-1.2-1-1.7-1.6l0,0
				c-1.3,0-2.1,0-2.6,0c-0.1,0-0.6,0-1.3,0c-0.3,0-0.6,0-0.9,0c-0.6,0-1.2,0-1.6,0c-0.5,0-1,0-1.7,0h-3.2
				C25.8,198.1,22.4,198.1,21.3,198.1z"/>
		</g>
		<g>
			<path id="SVGID_11_" class="st56" d="M21.3,198.1c-0.1,0-0.5,0-0.8-0.3c0,0-0.1-0.1-0.1-0.3c-0.1-0.4,0.1-0.8,0.1-0.8
				s0.9-0.8,1.4-1.2c0.5-0.4,1.2-1,2.1-1.7c1.3,0,2.1,0,2.5,0c0,0,1.7,0,1.8,0h0.1h0.1l0,0l0,0l0,0l0,0l0,0l0,0l0,0c0,0,0,0,0,0.1
				v0.1c0,0.1,0,0.3,0,0.4c0,0.4,0,0.4,0,0.4l0,0c0,0.3,0.1,0.4,0.1,0.4c0.1,0.1,0.1,0.1,0.3,0.1c0.3,0.1,0.6,0.1,1,0.1
				c0.3,0,0.4,0,0.6,0c0,0,0.5,0,1.4,0c3.4,0,3.4,0,3.4,0s4.1,0.8,6.8,1.4l0,0l0,0c0,0.8,0,0.9,0,1.2l0,0l0,0c-0.5,0-0.9,0-1.4,0
				l0,0c0,0.5,0.1,1,0.1,1.6c-0.5-0.5-1.2-1-1.7-1.6l0,0l0,0l0,0c-0.3,0-0.6,0-0.9,0c0,0.5,0,1,0,1.6c-0.5-0.5-1.2-1-1.7-1.6l0,0
				c-1.3,0-2.1,0-2.6,0c-0.1,0-0.6,0-1.3,0c-0.3,0-0.6,0-0.9,0c-0.6,0-1.2,0-1.6,0c-0.5,0-1,0-1.7,0h-3.2
				C25.8,198.1,22.4,198.1,21.3,198.1z"/>
		</g>
	</g>
</g>
<path class="st69" d="M194.1,201.5c-37.4,0-74.7-0.1-111.9,0c-26,0-51.8,0-77.8,0c0,0.1-0.1,0.3-0.1,0.5c0,0-0.3,1.4-0.4,2.8
	c-0.1,3.4,1.6,8.3,1.6,8.3c1.4,2.7,1.7,6.7,1,11.9c27.7,0,55.3,0,83,0c0,27.8,0,55.7,0,83.5c0,0,1.2,0.4,2.2,0.5
	c6.1,1,9.6-1.6,18.1-2.5c0.9-0.1,1.9-0.1,3.2-0.3c0-27.1,0-54.3,0-81.3c27.8,0,55.4,0,83.2,0c0-0.3,0.1-0.8,0.1-1.4
	c0.6-8.8-4.1-13.3-2.5-20.9C193.8,202.4,194,201.9,194.1,201.5z"/>
<linearGradient id="SVGID_00000001665755641102039170000001373341582642331520_" gradientUnits="userSpaceOnUse" x1="100.0845" y1="1053.1332" x2="100.0845" y2="1079.676" gradientTransform="matrix(1 0 0 1 0 -857)">
	<stop  offset="0" style="stop-color:#333333;stop-opacity:0"/>
	<stop  offset="0.5754" style="stop-color:#808080"/>
	<stop  offset="0.6781" style="stop-color:#C7C7C7;stop-opacity:0.76"/>
	<stop  offset="0.8698" style="stop-color:#4F4F4F;stop-opacity:0.3067"/>
	<stop  offset="1" style="stop-color:#333333;stop-opacity:0"/>
</linearGradient>
<path style="fill:url(#SVGID_00000001665755641102039170000001373341582642331520_);" d="M194.1,201.5c-37.4,0-74.7-0.1-111.9,0
	c-26,0-51.8,0-77.8,0c0,0.1-0.1,0.3-0.1,0.5c0,0-0.3,1.4-0.4,2.8c-0.1,3.4,1.6,8.3,1.6,8.3c1.4,2.7,1.7,6.7,1,11.9
	c27.7,0,55.4,0,83.1,0c0,27.8-0.1,55.7-0.1,83.5c0.4,0.1,1.2,0.4,2.2,0.5c6.1,1,9.6-1.6,18.1-2.5c0.9-0.1,1.9-0.1,3.2-0.3
	c0-27.1,0-54.3,0-81.3c27.8,0,55.4,0,83.2,0c0-0.3,0.1-0.8,0.1-1.4c0.6-8.8-4.1-13.3-2.5-20.9C193.8,202.4,194,201.9,194.1,201.5z"
	/>
<linearGradient id="SVGID_00000018935500622502620620000008243707226785401739_" gradientUnits="userSpaceOnUse" x1="89.2659" y1="1121.9822" x2="112.9204" y2="1121.9822" gradientTransform="matrix(1 0 0 1 0 -857)">
	<stop  offset="8.379889e-03" style="stop-color:#333333;stop-opacity:0"/>
	<stop  offset="0.4921" style="stop-color:#808080"/>
	<stop  offset="0.5843" style="stop-color:#C7C7C7;stop-opacity:0.76"/>
	<stop  offset="0.8698" style="stop-color:#4F4F4F;stop-opacity:0.3067"/>
	<stop  offset="1" style="stop-color:#333333;stop-opacity:0"/>
</linearGradient>
<path style="fill:url(#SVGID_00000018935500622502620620000008243707226785401739_);" d="M89.3,224.9c0,27.9,0.1,55.8,0.1,83.6
	c0.3,0.1,0.6,0.1,1,0.3c0.6,0.1,1.9,0.5,3.7,0.5c0.8,0,1.8,0,3.9-0.4c2.6-0.4,2.8-0.8,5.8-1.3c3-0.6,5.2-0.9,5.8-0.9
	c1.4-0.1,2.6-0.3,3.4-0.3c0-27.1-0.1-54.3-0.1-81.4c-1.2-0.9-5.3-4.3-11.5-4.3C94.7,220.5,90.4,224,89.3,224.9z"/>
<linearGradient id="SVGID_00000178194999722794028410000014625180271615361205_" gradientUnits="userSpaceOnUse" x1="101.0917" y1="1074.7748" x2="101.0917" y2="1104.9266" gradientTransform="matrix(1 0 0 1 0 -857)">
	<stop  offset="0.4916" style="stop-color:#333333;stop-opacity:0.8"/>
	<stop  offset="1" style="stop-color:#333333;stop-opacity:0"/>
</linearGradient>
<path style="fill:url(#SVGID_00000178194999722794028410000014625180271615361205_);" d="M89.4,225c0,13.8-0.1,27.8-0.1,41.7
	c0,14,0,27.9,0.1,41.7c0.5,0.1,1.2,0.3,1.8,0.5c0.3,0,1.4,0.3,2.7,0.3c2.1,0,3.7-0.4,4.8-0.5c7.6-1.7,9.7-1.9,10.9-2.1
	c1.4-0.1,2.7-0.3,3.4-0.3c0-27.1,0-54.3,0-81.3c-0.9-0.8-2.3-1.8-4.1-2.7c-1.2-0.5-3.9-1.7-7.4-1.7c-4.7-0.1-7.9,1.6-8.5,1.9
	C91.3,223.3,90.2,224.2,89.4,225z"/>
<image style="overflow:visible;" width="200" height="200" xlink:href="../../pepsi.png"  transform="matrix(9.000365e-02 0 0 9.000365e-02 93.4044 44.3587)">
</image>
</svg>
