<?xml version="1.0" encoding="utf-8"?>
<!-- Generator: Adobe Illustrator 25.4.1, SVG Export Plug-In . SVG Version: 6.00 Build 0)  -->
<svg version="1.1" id="Слой_1" xmlns="http://www.w3.org/2000/svg" xmlns:xlink="http://www.w3.org/1999/xlink" x="0px" y="0px"
	 viewBox="0 0 200 320" style="enable-background:new 0 0 200 320;" xml:space="preserve">
<style type="text/css">
	.st0{clip-path:url(#SVGID_00000114032604827492097030000013193359400621011116_);}
	.st1{fill:none;stroke:#B8B8B8;stroke-width:0.5;stroke-miterlimit:10;}
	.st2{fill:url(#SVGID_00000067932740925012148600000008470214245987841975_);}
	.st3{opacity:0.28;fill:url(#SVGID_00000084521090434931746510000017739029214864609705_);enable-background:new    ;}
	.st4{fill:url(#SVGID_00000102512151142685936500000008802500615907629245_);}
	.st5{fill:url(#SVGID_00000164491297289653869740000004017893856621093528_);}
	.st6{fill:#AAAAAA;}
	.st7{fill:url(#SVGID_00000011002030973406828720000013676900912608831908_);}
	.st8{fill:url(#SVGID_00000027575015372949882120000012332631041099345309_);}
	.st9{fill:url(#SVGID_00000097472859777769749010000016467532379990364062_);}
	.st10{fill:url(#SVGID_00000152256948079110393640000002609792802946973105_);}
	.st11{opacity:0.28;fill:url(#SVGID_00000115486982859538072770000012698966353267322504_);enable-background:new    ;}
	.st12{fill:url(#SVGID_00000178202621493832042810000008272801644332167063_);}
	.st13{opacity:0.28;fill:url(#SVGID_00000006698760908561355230000001618233170469317801_);enable-background:new    ;}
	.st14{fill:url(#SVGID_00000142162561298328333190000004236168410881567637_);}
	.st15{fill:url(#SVGID_00000151529197302490255740000001676026281071306675_);}
	.st16{fill:url(#SVGID_00000019638011159383965110000005890750315077943694_);}
	.st17{fill:url(#SVGID_00000085964883863502142340000002179691242189502351_);}
	.st18{fill:url(#SVGID_00000127766552193141662340000017232053993498603453_);}
	.st19{fill:url(#SVGID_00000105384306612727241670000015086210884725581981_);}
	.st20{opacity:0.28;fill:url(#SVGID_00000017506703068617527960000000084947510726442382_);enable-background:new    ;}
	.st21{fill:url(#SVGID_00000026129202736939503280000006332834136491412649_);}
	.st22{opacity:0.28;fill:url(#SVGID_00000069361063919051026800000009127958645540745632_);enable-background:new    ;}
	.st23{fill:url(#SVGID_00000142178264775742718320000009348518051517610423_);}
	.st24{fill:url(#SVGID_00000086660673270086417590000004169974614505759363_);}
	.st25{fill:url(#SVGID_00000078009111551077799890000016453724528800181427_);}
	.st26{fill:url(#SVGID_00000019646021073847675970000002056229900535138702_);}
	.st27{fill:url(#SVGID_00000144336196600363268200000012061181467104026788_);}
	.st28{fill:url(#SVGID_00000023244877129775690820000000755541088459777176_);}
	.st29{opacity:0.28;fill:url(#SVGID_00000110443730707973953360000000697983953668605088_);enable-background:new    ;}
	.st30{opacity:0.28;fill:url(#SVGID_00000170239419660892240680000016603883359743130299_);enable-background:new    ;}
	.st31{opacity:0.38;enable-background:new    ;}
	.st32{fill:#282828;stroke:#282828;stroke-width:0.5;stroke-miterlimit:10;}
	.st33{fill:#282828;}
	.st34{fill:none;stroke:#ADADAD;stroke-width:0.5;stroke-miterlimit:10;}
	.st35{clip-path:url(#SVGID_00000005972978666012655030000014061360844491776404_);}
	.st36{opacity:0.53;}
	.st37{fill:#666666;}
	.st38{clip-path:url(#SVGID_00000053547657114795214300000017982504253008006037_);}
	.st39{clip-path:url(#SVGID_00000091001751877123022230000009939344288289906107_);}
	.st40{fill:none;stroke:#808080;stroke-width:0.5;}
	.st41{clip-path:url(#SVGID_00000176023495330232511220000000223024757815707063_);}
	.st42{opacity:0.54;fill:#666666;enable-background:new    ;}
	.st43{clip-path:url(#SVGID_00000014610602393181105190000017703698885693541812_);}
	.st44{clip-path:url(#SVGID_00000056421499931902283110000011822438082802059710_);}
	.st45{clip-path:url(#SVGID_00000177453595022262294230000011113797474418926465_);}
	.st46{clip-path:url(#SVGID_00000067213701623281770940000009310092485783425417_);}
	.st47{clip-path:url(#SVGID_00000036934234551188388460000008411282199689187746_);}
	.st48{clip-path:url(#SVGID_00000073718341931359700420000010557270634059520185_);}
	.st49{clip-path:url(#SVGID_00000099625697301193021920000006970550176004838037_);}
	.st50{clip-path:url(#SVGID_00000002357131789523216750000015023318408441463723_);}
	.st51{clip-path:url(#SVGID_00000042004530506969009080000010073960023872281994_);}
	.st52{clip-path:url(#SVGID_00000035488709423366478780000015069712790969885090_);}
	.st53{clip-path:url(#SVGID_00000150796096741996168580000005973874044594925728_);}
	.st54{clip-path:url(#SVGID_00000052102309246370507090000017366238772659924886_);}
	.st55{clip-path:url(#SVGID_00000046326756669388543270000012054482593665252518_);}
	.st56{clip-path:url(#SVGID_00000146496552622239891550000009044580362633488317_);}
	.st57{fill:#4D4D4D;}
	.st58{fill:url(#SVGID_00000067954030488067496350000015192153635327591823_);}
	.st59{fill:url(#SVGID_00000152248493739064141200000016463727224025025461_);}
	.st60{fill:url(#SVGID_00000011000935959091114290000006767457090606359439_);}
	.st61{fill:url(#SVGID_00000178164747189951908810000001945014675867848370_);}
	.st62{fill:url(#SVGID_00000147188822766721579080000008371902409777461167_);}
	.st63{opacity:0.44;fill:url(#SVGID_00000052783355158258444080000000233748866452374165_);enable-background:new    ;}
	.st64{fill:url(#SVGID_00000049942771292498993170000011155567840979028870_);}
	.st65{fill:none;stroke:url(#SVGID_00000060022729810298673350000018167946760172143760_);stroke-miterlimit:10;}
	.st66{fill:none;stroke:url(#SVGID_00000095319788168259946660000009844706108681908631_);stroke-miterlimit:10;}
	.st67{fill:none;stroke:url(#SVGID_00000025425777604855337410000006119342617591925152_);stroke-miterlimit:10;}
	.st68{fill:url(#SVGID_00000183962763444684413630000017559568329818665392_);}
	.st69{fill:url(#SVGID_00000142135857257547976290000013403640901116771202_);}
	.st70{fill:url(#SVGID_00000090975533161032950970000017389716628705226881_);}
</style>
<g>
	<g>
		<defs>
			<path id="SVGID_00000090291314272192728220000014416712094980191394_" d="M195.9,218.6c-0.3-1.4-0.5-2.2-0.8-2.8
				c0-0.3-1.2-3.5-1.2-7.4c0-3.6,0.8-6.5,1.2-7.5c-0.4,0-0.9,0-1.3,0v-0.1h-2.6v-11.5c0.3-5.8-1.3-9.7-1.3-9.7h-38.1
				c-0.9,2.6-1.3,5.2-1.4,7.5l0,0v6.6c-0.5-0.5-1.2-1-1.7-1.6c-0.5,0.6-0.9,1.3-1.4,1.9l0,0c-2.2,0.3-4.3,0.4-5.9,0.4V192H60.9v2.5
				c-2.7,0.1-4.9,0-6.5-0.3c-0.1,0-0.3,0-0.5,0h-0.1c-0.1,0-0.3,0-0.4,0c-0.4,0-0.8-0.1-1-0.1c-0.5-0.6-0.9-1.3-1.4-1.9
				c-0.5,0.5-1,0.9-1.6,1.4v-4.3c0.3-5.8-1.3-9.7-1.3-9.7H9.9c-0.9,2.6-1.3,5.2-1.4,7.5l0,0v13.7v30v13.4h0.1
				c0.3,4.4,1.3,7.6,1.3,7.6h38.1c0.8-2.7,1.2-5.3,1.3-7.6l0,0v-0.4c0-0.8,0-1.6,0-2.3v-5c0.5,0.5,1,1,1.6,1.7
				c0.5-0.6,1-1.3,1.6-1.9c3-0.4,5.9-0.5,8.3-0.5l0,0h0.1c0,0.5,0,1,0,1.6c5.9,0,11.9,0,18,0c0.4,0,2.2,0.3,3.4,1.8
				c0.6,0.9,0.8,1.8,0.9,2.3c0,4.5,0,9.2,0,13.7H84c0,2.1-0.1,3.9-0.3,4.9l0,0c-0.5,0.4-1,0.9-1.7,1.3c0.5,0.4,1,1,1.6,1.4h-4.7
				c-0.4,0-0.8,0-1.3,0h-0.9l0,0c-3.7,0.3-6.5,1.2-6.5,1.2v32c2.3,0.6,4.5,1,6.5,1l0,0H77c0.6,0,1.3,0,1.9,0h9c0,0.6,0,1.4,0,2.1
				c0,0.4,0,0.8,0,1.2c0.6,0.3,1.7,0.4,2.8,0.8c0.4,0.1,1.2,0.3,2.1,0.4c0.4,0,0.9,0,1,0c0.6,0,1.2,0,1.3,0c0.3,0,1.3,0,3.1-0.4
				c1.2-0.3,1.8-0.4,2.3-0.6c0.3,0,3-1,6.2-1c3.1,0,5.4,0.6,6.3,1c0-0.4,0-0.8,0-1.2l0,0v-2.1h9.6c4.9,0.1,8.1-1,8.1-1v-31.9
				c-2.2-0.8-4.3-1-6.3-1.2l0,0H119c0.4-0.4,0.9-1,1.3-1.4c-0.5-0.4-1-0.8-1.7-1.2h-0.1c-0.1-0.6-0.1-1.3-0.3-2.1c0-0.3,0-0.5,0-0.6
				c0-0.8,0-1.6,0-2.3h0.8c0-4.5,0-9.2,0-13.7c0-0.5,0.3-1.4,0.9-2.3c1.2-1.6,3-1.8,3.4-1.8c5.9,0,11.9,0,18,0c0-0.5,0-1,0-1.6
				c0.9,0,1.9,0,2.8,0.1c1,0.1,2.1,0.1,3,0.3c0.5,0.6,1,1.3,1.6,1.9c0.5-0.6,1.2-1.2,1.7-1.8v7.9h0.1c0.3,4.4,1.3,7.6,1.3,7.6h38.1
				c0.8-2.7,1.2-5.3,1.3-7.6l0,0V244c0-0.8,0-1.6,0-2.3v-10.9c0.9,0,1.7,0,2.6,0c0.4,0,0.9,0,1.3,0c0.3-0.8,0.5-1.8,0.9-3.2
				c0.1-0.5,0.3-1.4,0.4-2.5c0-0.4,0-1,0-1.2c0-0.8,0-1.4,0-1.6C196.4,222,196.4,220.7,195.9,218.6z"/>
		</defs>
		<clipPath id="SVGID_00000072960216572158069650000004338959853335643822_">
			<use xlink:href="#SVGID_00000090291314272192728220000014416712094980191394_"  style="overflow:visible;"/>
		</clipPath>
		<g style="clip-path:url(#SVGID_00000072960216572158069650000004338959853335643822_);">
			
				<image style="overflow:visible;enable-background:new    ;" width="600" height="600" xlink:href="../../background.jpg"  transform="matrix(0.3893 0 0 0.3893 -12.599 127.7079)">
			</image>
		</g>
	</g>
	<g>
		<path id="SVGID_128_" class="st1" d="M195.9,218.6c-0.3-1.4-0.5-2.2-0.8-2.8c0-0.3-1.2-3.5-1.2-7.4c0-3.6,0.8-6.5,1.2-7.5
			c-0.4,0-0.9,0-1.3,0v-0.1h-2.6v-11.5c0.3-5.8-1.3-9.7-1.3-9.7h-38.1c-0.9,2.6-1.3,5.2-1.4,7.5l0,0v6.6c-0.5-0.5-1.2-1-1.7-1.6
			c-0.5,0.6-0.9,1.3-1.4,1.9l0,0c-2.2,0.3-4.3,0.4-5.9,0.4V192H60.9v2.5c-2.7,0.1-4.9,0-6.5-0.3c-0.1,0-0.3,0-0.5,0h-0.1
			c-0.1,0-0.3,0-0.4,0c-0.4,0-0.8-0.1-1-0.1c-0.5-0.6-0.9-1.3-1.4-1.9c-0.5,0.5-1,0.9-1.6,1.4v-4.3c0.3-5.8-1.3-9.7-1.3-9.7H9.9
			c-0.9,2.6-1.3,5.2-1.4,7.5l0,0v13.7v30v13.4h0.1c0.3,4.4,1.3,7.6,1.3,7.6h38.1c0.8-2.7,1.2-5.3,1.3-7.6l0,0v-0.4
			c0-0.8,0-1.6,0-2.3v-5c0.5,0.5,1,1,1.6,1.7c0.5-0.6,1-1.3,1.6-1.9c3-0.4,5.9-0.5,8.3-0.5l0,0h0.1c0,0.5,0,1,0,1.6
			c5.9,0,11.9,0,18,0c0.4,0,2.2,0.3,3.4,1.8c0.6,0.9,0.8,1.8,0.9,2.3c0,4.5,0,9.2,0,13.7H84c0,2.1-0.1,3.9-0.3,4.9l0,0
			c-0.5,0.4-1,0.9-1.7,1.3c0.5,0.4,1,1,1.6,1.4h-4.7c-0.4,0-0.8,0-1.3,0h-0.9l0,0c-3.7,0.3-6.5,1.2-6.5,1.2v32c2.3,0.6,4.5,1,6.5,1
			l0,0H77c0.6,0,1.3,0,1.9,0h9c0,0.6,0,1.4,0,2.1c0,0.4,0,0.8,0,1.2c0.6,0.3,1.7,0.4,2.8,0.8c0.4,0.1,1.2,0.3,2.1,0.4
			c0.4,0,0.9,0,1,0c0.6,0,1.2,0,1.3,0c0.3,0,1.3,0,3.1-0.4c1.2-0.3,1.8-0.4,2.3-0.6c0.3,0,3-1,6.2-1c3.1,0,5.4,0.6,6.3,1
			c0-0.4,0-0.8,0-1.2l0,0v-2.1h9.6c4.9,0.1,8.1-1,8.1-1v-31.9c-2.2-0.8-4.3-1-6.3-1.2l0,0H119c0.4-0.4,0.9-1,1.3-1.4
			c-0.5-0.4-1-0.8-1.7-1.2h-0.1c-0.1-0.6-0.1-1.3-0.3-2.1c0-0.3,0-0.5,0-0.6c0-0.8,0-1.6,0-2.3h0.8c0-4.5,0-9.2,0-13.7
			c0-0.5,0.3-1.4,0.9-2.3c1.2-1.6,3-1.8,3.4-1.8c5.9,0,11.9,0,18,0c0-0.5,0-1,0-1.6c0.9,0,1.9,0,2.8,0.1c1,0.1,2.1,0.1,3,0.3
			c0.5,0.6,1,1.3,1.6,1.9c0.5-0.6,1.2-1.2,1.7-1.8v7.9h0.1c0.3,4.4,1.3,7.6,1.3,7.6h38.1c0.8-2.7,1.2-5.3,1.3-7.6l0,0V244
			c0-0.8,0-1.6,0-2.3v-10.9c0.9,0,1.7,0,2.6,0c0.4,0,0.9,0,1.3,0c0.3-0.8,0.5-1.8,0.9-3.2c0.1-0.5,0.3-1.4,0.4-2.5c0-0.4,0-1,0-1.2
			c0-0.8,0-1.4,0-1.6C196.4,222,196.4,220.7,195.9,218.6z"/>
	</g>
</g>
<g>
	
		<linearGradient id="SVGID_00000123405431131221187290000011822437403324464784_" gradientUnits="userSpaceOnUse" x1="-1883.4567" y1="1034.4138" x2="-1884.5529" y2="1004.4127" gradientTransform="matrix(-1 0 0 1 -1691.1812 -962)">
		<stop  offset="0" style="stop-color:#999898"/>
		<stop  offset="0.1963" style="stop-color:#4F4F4F"/>
		<stop  offset="0.2507" style="stop-color:#5B5B5B"/>
		<stop  offset="0.3499" style="stop-color:#7C7C7C"/>
		<stop  offset="0.3704" style="stop-color:#848484"/>
		<stop  offset="0.433" style="stop-color:#878787"/>
		<stop  offset="0.5268" style="stop-color:#A0A0A0"/>
		<stop  offset="0.6843" style="stop-color:#C6C6C6"/>
		<stop  offset="0.9078" style="stop-color:#B7B7B7"/>
		<stop  offset="1" style="stop-color:#C6C6C6"/>
	</linearGradient>
	<path style="fill:url(#SVGID_00000123405431131221187290000011822437403324464784_);" d="M194.7,72.3c-1.7,0-3.2,0-4.9,0V42.4
		c1.7,0,3.2,0,4.9,0.1c-0.4,1-1.2,3.9-1.2,7.5c0,3.9,1.2,7.1,1.2,7.4c0.3,0.6,0.5,1.4,0.8,2.8c0.5,2.1,0.5,3.4,0.5,3.6
		c0,0.1,0,0.8,0,1.6c0,0.1,0,0.8,0,1.2c-0.1,1-0.3,1.9-0.4,2.5C195.3,70.5,195,71.5,194.7,72.3z"/>
	
		<linearGradient id="SVGID_00000053539118971503899630000014884695025094011789_" gradientUnits="userSpaceOnUse" x1="-2214.7202" y1="161.8938" x2="-2212.0835" y2="161.8938" gradientTransform="matrix(-1 0 0 -1 -2021.2839 219.2472)">
		<stop  offset="0" style="stop-color:#1A1A1A"/>
		<stop  offset="0" style="stop-color:#000000;stop-opacity:0"/>
		<stop  offset="0.3429" style="stop-color:#0A0A0A;stop-opacity:0.3341"/>
		<stop  offset="0.9264" style="stop-color:#252525;stop-opacity:0.9026"/>
		<stop  offset="1" style="stop-color:#292929;stop-opacity:0.9744"/>
	</linearGradient>
	
		<polygon style="opacity:0.28;fill:url(#SVGID_00000053539118971503899630000014884695025094011789_);enable-background:new    ;" points="
		190.7,42.4 193.4,42.4 193.4,72.3 190.7,72.3 	"/>
	
		<linearGradient id="SVGID_00000033343682860211161750000005557065541760410245_" gradientUnits="userSpaceOnUse" x1="-1817.7389" y1="1047.8494" x2="-1817.7389" y2="990.7283" gradientTransform="matrix(-1 0 0 1 -1647.2958 -962)">
		<stop  offset="2.230000e-02" style="stop-color:#1A1A1A"/>
		<stop  offset="0.9832" style="stop-color:#CCCCCC"/>
	</linearGradient>
	<polygon style="fill:url(#SVGID_00000033343682860211161750000005557065541760410245_);" points="150,85.8 190.9,85.8 190.9,28.7 
		150,28.7 	"/>
	
		<linearGradient id="SVGID_00000151516759256650706270000007186629117345695900_" gradientUnits="userSpaceOnUse" x1="-1817.7748" y1="1055.4741" x2="-1817.7748" y2="1037.7343" gradientTransform="matrix(-1 0 0 1 -1647.2958 -962)">
		<stop  offset="0" style="stop-color:#727272"/>
		<stop  offset="1" style="stop-color:#4C4C4C"/>
	</linearGradient>
	<path style="fill:url(#SVGID_00000151516759256650706270000007186629117345695900_);" d="M151.4,75.8h38.1c0,0,3,7.6,0,17.7h-38.1
		C151.4,93.5,148.3,84.3,151.4,75.8z"/>
	<path class="st6" d="M151.4,38.9h38.1c0,0,3,15.8,0,36.8h-38.1C151.4,75.8,148.3,56.8,151.4,38.9z"/>
	
		<linearGradient id="SVGID_00000057126292123370410970000000134611102591202996_" gradientUnits="userSpaceOnUse" x1="-1817.7748" y1="1000.9377" x2="-1817.7748" y2="983.1976" gradientTransform="matrix(-1 0 0 1 -1647.2958 -962)">
		<stop  offset="0" style="stop-color:#F4F4F4"/>
		<stop  offset="1" style="stop-color:#BABABA"/>
	</linearGradient>
	<path style="fill:url(#SVGID_00000057126292123370410970000000134611102591202996_);" d="M151.4,21.2h38.1c0,0,3,7.6,0,17.7h-38.1
		C151.4,38.9,148.3,29.8,151.4,21.2z"/>
	
		<linearGradient id="SVGID_00000069362322886266177140000004012218330669404595_" gradientUnits="userSpaceOnUse" x1="140.7194" y1="1039.9661" x2="140.7194" y2="997.6461" gradientTransform="matrix(1 0 0 1 0 -962)">
		<stop  offset="0" style="stop-color:#999898"/>
		<stop  offset="0.1963" style="stop-color:#4F4F4F"/>
		<stop  offset="0.2507" style="stop-color:#5B5B5B"/>
		<stop  offset="0.3499" style="stop-color:#7C7C7C"/>
		<stop  offset="0.3704" style="stop-color:#848484"/>
		<stop  offset="0.433" style="stop-color:#878787"/>
		<stop  offset="0.5974" style="stop-color:#D9D9D9"/>
		<stop  offset="0.6843" style="stop-color:#FFFFFF"/>
		<stop  offset="0.9078" style="stop-color:#B7B7B7"/>
		<stop  offset="1" style="stop-color:#C6C6C6"/>
	</linearGradient>
	<path style="fill:url(#SVGID_00000069362322886266177140000004012218330669404595_);" d="M148.2,78c0,0-7.2-1.3-15,0V35.6
		c0,0,6.1,1.4,15,0V78z"/>
	
		<linearGradient id="SVGID_00000070815399776387129330000005173095064217699200_" gradientUnits="userSpaceOnUse" x1="73.2741" y1="1041.7754" x2="73.2741" y2="995.8253" gradientTransform="matrix(1 0 0 1 75.9101 -962)">
		<stop  offset="0" style="stop-color:#636363"/>
		<stop  offset="0.1983" style="stop-color:#444444"/>
		<stop  offset="0.2933" style="stop-color:#383838"/>
		<stop  offset="0.433" style="stop-color:#565656"/>
		<stop  offset="0.6732" style="stop-color:#E5E5E5"/>
		<stop  offset="0.9078" style="stop-color:#7F7E7E"/>
		<stop  offset="1" style="stop-color:#939292"/>
	</linearGradient>
	<path style="fill:url(#SVGID_00000070815399776387129330000005173095064217699200_);" d="M148.3,79.8c0.5-0.6,1.2-1.2,1.7-1.8
		c0-14.2,0-28.4,0-42.6c-0.5-0.5-1.2-1-1.7-1.6V79.8z"/>
	
		<linearGradient id="SVGID_00000068640710371753271000000011547607842034241457_" gradientUnits="userSpaceOnUse" x1="-1805.0519" y1="1041.7754" x2="-1805.0519" y2="995.8157" gradientTransform="matrix(-1 0 0 1 -1657.4832 -962)">
		<stop  offset="0" style="stop-color:#7F7F7F"/>
		<stop  offset="0.1983" style="stop-color:#606060"/>
		<stop  offset="0.2933" style="stop-color:#545454"/>
		<stop  offset="0.433" style="stop-color:#757575"/>
		<stop  offset="0.6732" style="stop-color:#FFFFFF"/>
		<stop  offset="0.9078" style="stop-color:#9B9B9B"/>
		<stop  offset="1" style="stop-color:#B2B2B2"/>
	</linearGradient>
	<path style="fill:url(#SVGID_00000068640710371753271000000011547607842034241457_);" d="M148.3,79.8c-0.5-0.6-1-1.3-1.6-1.9
		c0-14.1,0-28,0.1-42.1c0.5-0.6,0.9-1.3,1.4-1.9V79.8z"/>
	
		<linearGradient id="SVGID_00000020389093144257601020000004642586723909290401_" gradientUnits="userSpaceOnUse" x1="-84.6283" y1="162.4107" x2="-78.5716" y2="162.4107" gradientTransform="matrix(1 0 0 -1 225.5993 219.2472)">
		<stop  offset="0" style="stop-color:#1A1A1A"/>
		<stop  offset="0" style="stop-color:#000000;stop-opacity:0"/>
		<stop  offset="0.3429" style="stop-color:#0A0A0A;stop-opacity:0.3341"/>
		<stop  offset="0.9264" style="stop-color:#252525;stop-opacity:0.9026"/>
		<stop  offset="1" style="stop-color:#292929;stop-opacity:0.9744"/>
	</linearGradient>
	<path style="opacity:0.28;fill:url(#SVGID_00000020389093144257601020000004642586723909290401_);enable-background:new    ;" d="
		M146.9,35.8c-0.9,0.1-1.9,0.3-3,0.4c-1,0.1-2.1,0.1-3.1,0.1c0,13.7,0,27.4,0,41.1c0.9,0,1.9,0,3,0.1c1,0.1,2.1,0.1,3,0.3
		C146.9,63.8,146.9,49.8,146.9,35.8z"/>
</g>
<g>
	<g>
		
			<linearGradient id="SVGID_00000172418355139907648500000003296146363007406466_" gradientUnits="userSpaceOnUse" x1="-1616.0724" y1="-50.8768" x2="-1616.9941" y2="-76.1062" gradientTransform="matrix(0 -1 -1 0 36.7803 -1476.0433)">
			<stop  offset="0" style="stop-color:#999898"/>
			<stop  offset="0.1963" style="stop-color:#4F4F4F"/>
			<stop  offset="0.2507" style="stop-color:#5B5B5B"/>
			<stop  offset="0.3499" style="stop-color:#7C7C7C"/>
			<stop  offset="0.3704" style="stop-color:#848484"/>
			<stop  offset="0.433" style="stop-color:#878787"/>
			<stop  offset="0.5268" style="stop-color:#A0A0A0"/>
			<stop  offset="0.6843" style="stop-color:#C6C6C6"/>
			<stop  offset="0.9078" style="stop-color:#B7B7B7"/>
			<stop  offset="1" style="stop-color:#C6C6C6"/>
		</linearGradient>
		<path style="fill:url(#SVGID_00000172418355139907648500000003296146363007406466_);" d="M87.7,142.1c0-1.4,0-2.7,0-4.1h25.2
			c0,1.4,0,2.7-0.1,4.1c-0.9-0.4-3.2-1-6.3-1c-3.2,0-5.9,1-6.2,1c-0.5,0.3-1.2,0.4-2.3,0.6c-1.8,0.5-2.8,0.5-3.1,0.5
			c-0.1,0-0.6,0-1.3,0c-0.1,0-0.6,0-1,0c-0.9-0.1-1.7-0.3-2.1-0.4C89.3,142.6,88.4,142.3,87.7,142.1z"/>
		
			<linearGradient id="SVGID_00000159454566993135010280000011258352450856722842_" gradientUnits="userSpaceOnUse" x1="-1947.1133" y1="1244.7363" x2="-1944.8992" y2="1244.7363" gradientTransform="matrix(0 -1 1 0 -1144.4669 -1806.146)">
			<stop  offset="0" style="stop-color:#1A1A1A"/>
			<stop  offset="0" style="stop-color:#000000;stop-opacity:0"/>
			<stop  offset="0.3429" style="stop-color:#0A0A0A;stop-opacity:0.3341"/>
			<stop  offset="0.9264" style="stop-color:#252525;stop-opacity:0.9026"/>
			<stop  offset="1" style="stop-color:#292929;stop-opacity:0.9744"/>
		</linearGradient>
		
			<polygon style="opacity:0.28;fill:url(#SVGID_00000159454566993135010280000011258352450856722842_);enable-background:new    ;" points="
			112.8,138.7 112.8,140.9 87.7,140.9 87.7,138.7 		"/>
	</g>
	<g>
		
			<linearGradient id="SVGID_00000089534477172810086940000009119658621019024558_" gradientUnits="userSpaceOnUse" x1="-1553.8694" y1="-39.581" x2="-1553.8694" y2="-87.5265" gradientTransform="matrix(0 -1 -1 0 36.7803 -1432.1578)">
			<stop  offset="2.230000e-02" style="stop-color:#1A1A1A"/>
			<stop  offset="0.9832" style="stop-color:#CCCCCC"/>
		</linearGradient>
		<polygon style="fill:url(#SVGID_00000089534477172810086940000009119658621019024558_);" points="76.4,104.6 76.4,138.8 
			124.3,138.8 124.3,104.6 		"/>
		
			<linearGradient id="SVGID_00000052082318484074789100000012332052110149142195_" gradientUnits="userSpaceOnUse" x1="-1553.8766" y1="-33.1741" x2="-1553.8766" y2="-48.0707" gradientTransform="matrix(0 -1 -1 0 36.7803 -1432.1578)">
			<stop  offset="0" style="stop-color:#727272"/>
			<stop  offset="1" style="stop-color:#4C4C4C"/>
		</linearGradient>
		<path style="fill:url(#SVGID_00000052082318484074789100000012332052110149142195_);" d="M84.9,105.8v32c0,0-6.5,2.5-14.9,0v-32
			C70,105.8,77.5,103,84.9,105.8z"/>
		<path class="st6" d="M115.8,105.8v32c0,0-13.2,2.5-30.9,0v-32C84.9,105.8,100.7,103.2,115.8,105.8z"/>
		
			<linearGradient id="SVGID_00000085250433509522900680000001576612618621985188_" gradientUnits="userSpaceOnUse" x1="-1553.9054" y1="-78.9629" x2="-1553.9054" y2="-93.8596" gradientTransform="matrix(0 -1 -1 0 36.7803 -1432.1578)">
			<stop  offset="0" style="stop-color:#F4F4F4"/>
			<stop  offset="1" style="stop-color:#BABABA"/>
		</linearGradient>
		<path style="fill:url(#SVGID_00000085250433509522900680000001576612618621985188_);" d="M130.6,105.8v32c0,0-6.5,2.5-14.9,0v-32
			C115.8,105.8,123.4,103.2,130.6,105.8z"/>
	</g>
	
		<linearGradient id="SVGID_00000083046418490439729550000005693640158144173961_" gradientUnits="userSpaceOnUse" x1="-118.3684" y1="-46.2293" x2="-118.3684" y2="-81.7684" gradientTransform="matrix(0 1 -1 0 36.7803 215.1379)">
		<stop  offset="0" style="stop-color:#999898"/>
		<stop  offset="0.1963" style="stop-color:#4F4F4F"/>
		<stop  offset="0.2507" style="stop-color:#5B5B5B"/>
		<stop  offset="0.3499" style="stop-color:#7C7C7C"/>
		<stop  offset="0.3704" style="stop-color:#848484"/>
		<stop  offset="0.433" style="stop-color:#878787"/>
		<stop  offset="0.5974" style="stop-color:#D9D9D9"/>
		<stop  offset="0.6843" style="stop-color:#FFFFFF"/>
		<stop  offset="0.9078" style="stop-color:#B7B7B7"/>
		<stop  offset="1" style="stop-color:#C6C6C6"/>
	</linearGradient>
	<path style="fill:url(#SVGID_00000083046418490439729550000005693640158144173961_);" d="M83,103c0,0,1-6.1,0-12.5h35.5
		c0,0-1.2,5,0,12.5H83z"/>
	
		<linearGradient id="SVGID_00000183944728094812763480000018405638658427792309_" gradientUnits="userSpaceOnUse" x1="-187.1706" y1="-44.71" x2="-187.1706" y2="-83.2953" gradientTransform="matrix(0 1 -1 0 36.7803 291.048)">
		<stop  offset="0" style="stop-color:#636363"/>
		<stop  offset="0.1983" style="stop-color:#444444"/>
		<stop  offset="0.2933" style="stop-color:#383838"/>
		<stop  offset="0.433" style="stop-color:#565656"/>
		<stop  offset="0.6732" style="stop-color:#E5E5E5"/>
		<stop  offset="0.9078" style="stop-color:#7F7E7E"/>
		<stop  offset="1" style="stop-color:#939292"/>
	</linearGradient>
	<path style="fill:url(#SVGID_00000183944728094812763480000018405638658427792309_);" d="M81.5,103.2c0.5,0.4,1,1,1.6,1.4
		c11.9,0,23.9,0,35.8,0c0.4-0.4,0.9-1,1.3-1.4H81.5z"/>
	
		<linearGradient id="SVGID_00000085226420145898608190000012233934498637481662_" gradientUnits="userSpaceOnUse" x1="-1544.8656" y1="-44.71" x2="-1544.8656" y2="-83.3033" gradientTransform="matrix(0 -1 -1 0 36.7803 -1442.3452)">
		<stop  offset="0" style="stop-color:#7F7F7F"/>
		<stop  offset="0.1983" style="stop-color:#606060"/>
		<stop  offset="0.2933" style="stop-color:#545454"/>
		<stop  offset="0.433" style="stop-color:#757575"/>
		<stop  offset="0.6732" style="stop-color:#FFFFFF"/>
		<stop  offset="0.9078" style="stop-color:#9B9B9B"/>
		<stop  offset="1" style="stop-color:#B2B2B2"/>
	</linearGradient>
	<path style="fill:url(#SVGID_00000085226420145898608190000012233934498637481662_);" d="M81.5,103.2c0.5-0.4,1-0.9,1.7-1.3
		c11.9,0,23.5,0,35.4,0.1c0.5,0.4,1,0.8,1.7,1.2H81.5z"/>
	
		<linearGradient id="SVGID_00000167374684829404592560000001794635921800300167_" gradientUnits="userSpaceOnUse" x1="-343.8261" y1="1245.1886" x2="-338.7403" y2="1245.1886" gradientTransform="matrix(0 1 1 0 -1144.4669 440.7372)">
		<stop  offset="0" style="stop-color:#1A1A1A"/>
		<stop  offset="0" style="stop-color:#000000;stop-opacity:0"/>
		<stop  offset="0.3429" style="stop-color:#0A0A0A;stop-opacity:0.3341"/>
		<stop  offset="0.9264" style="stop-color:#252525;stop-opacity:0.9026"/>
		<stop  offset="1" style="stop-color:#292929;stop-opacity:0.9744"/>
	</linearGradient>
	<path style="opacity:0.28;fill:url(#SVGID_00000167374684829404592560000001794635921800300167_);enable-background:new    ;" d="
		M118.4,102c-0.1-0.8-0.3-1.7-0.4-2.5c0-0.9,0-1.7,0-2.6c-11.5,0-23,0-34.5,0c0,0.8,0,1.7-0.1,2.5c-0.1,0.9-0.1,1.7-0.3,2.5
		C95,102,106.7,102,118.4,102z"/>
</g>
<g>
	<g>
		
			<linearGradient id="SVGID_00000010989534859746646150000010386673282185579963_" gradientUnits="userSpaceOnUse" x1="-102.715" y1="1034.3691" x2="-103.8108" y2="1004.3769" gradientTransform="matrix(1 0 0 1 109.9476 -962)">
			<stop  offset="0" style="stop-color:#999898"/>
			<stop  offset="0.1963" style="stop-color:#4F4F4F"/>
			<stop  offset="0.2507" style="stop-color:#5B5B5B"/>
			<stop  offset="0.3499" style="stop-color:#7C7C7C"/>
			<stop  offset="0.3704" style="stop-color:#848484"/>
			<stop  offset="0.433" style="stop-color:#878787"/>
			<stop  offset="0.5268" style="stop-color:#A0A0A0"/>
			<stop  offset="0.6843" style="stop-color:#C6C6C6"/>
			<stop  offset="0.9078" style="stop-color:#B7B7B7"/>
			<stop  offset="1" style="stop-color:#C6C6C6"/>
		</linearGradient>
		<path style="fill:url(#SVGID_00000010989534859746646150000010386673282185579963_);" d="M4.8,72.3c1.7,0,3.2,0,4.9,0v-30
			c-1.7,0.1-3.2,0.1-4.9,0.1c0.4,1,1.2,3.9,1.2,7.5c0,3.9-1.2,7.1-1.2,7.4c-0.3,0.6-0.5,1.4-0.8,2.8c-0.5,2.1-0.5,3.4-0.5,3.6
			c0,0.1,0,0.8,0,1.6c0,0.1,0,0.8,0,1.2c0.1,1,0.3,1.9,0.4,2.5C4.1,70.5,4.5,71.5,4.8,72.3z"/>
		
			<linearGradient id="SVGID_00000072970150374933791200000009633798755520212150_" gradientUnits="userSpaceOnUse" x1="-433.9249" y1="161.8292" x2="-431.2883" y2="161.8292" gradientTransform="matrix(1 0 0 -1 440.0504 219.2472)">
			<stop  offset="0" style="stop-color:#020202;stop-opacity:6.003360e-02"/>
			<stop  offset="0.1458" style="stop-color:#000000;stop-opacity:0"/>
			<stop  offset="0.3429" style="stop-color:#0A0A0A;stop-opacity:0.3341"/>
			<stop  offset="0.9264" style="stop-color:#252525;stop-opacity:0.9026"/>
			<stop  offset="1" style="stop-color:#292929;stop-opacity:0.9744"/>
		</linearGradient>
		<path style="opacity:0.28;fill:url(#SVGID_00000072970150374933791200000009633798755520212150_);enable-background:new    ;" d="
			M6.1,42.4c0.9,0,1.8,0,2.6,0v30H6.1C6.1,62.3,6.1,52.4,6.1,42.4z"/>
	</g>
	<g>
		
			<linearGradient id="SVGID_00000045589551657522104280000016593016865614091682_" gradientUnits="userSpaceOnUse" x1="-1675.8408" y1="1047.8494" x2="-1675.8408" y2="990.7283" gradientTransform="matrix(-1 0 0 1 -1647.2958 -962)">
			<stop  offset="2.230000e-02" style="stop-color:#1A1A1A"/>
			<stop  offset="0.9832" style="stop-color:#CCCCCC"/>
		</linearGradient>
		<polygon style="fill:url(#SVGID_00000045589551657522104280000016593016865614091682_);" points="8.1,85.8 49,85.8 49,28.7 
			8.1,28.7 		"/>
		
			<linearGradient id="SVGID_00000181810080706039830420000013114269580581375930_" gradientUnits="userSpaceOnUse" x1="-1675.8767" y1="1055.4741" x2="-1675.8767" y2="1037.7343" gradientTransform="matrix(-1 0 0 1 -1647.2958 -962)">
			<stop  offset="0" style="stop-color:#727272"/>
			<stop  offset="1" style="stop-color:#4C4C4C"/>
		</linearGradient>
		<path style="fill:url(#SVGID_00000181810080706039830420000013114269580581375930_);" d="M9.5,75.8h38.1c0,0,3,7.6,0,17.7H9.5
			C9.5,93.5,6.4,84.3,9.5,75.8z"/>
		<path class="st6" d="M9.5,38.9h38.1c0,0,3,15.8,0,36.8H9.5C9.5,75.8,6.4,56.8,9.5,38.9z"/>
		
			<linearGradient id="SVGID_00000018927672805307242420000008272743252791785660_" gradientUnits="userSpaceOnUse" x1="-1675.8767" y1="1000.9377" x2="-1675.8767" y2="983.1978" gradientTransform="matrix(-1 0 0 1 -1647.2958 -962)">
			<stop  offset="0" style="stop-color:#F4F4F4"/>
			<stop  offset="1" style="stop-color:#BABABA"/>
		</linearGradient>
		<path style="fill:url(#SVGID_00000018927672805307242420000008272743252791785660_);" d="M9.5,21.2h38.1c0,0,3,7.6,0,17.7H9.5
			C9.5,38.9,6.4,29.8,9.5,21.2z"/>
	</g>
	
		<linearGradient id="SVGID_00000091720702071602986830000010219010515638983076_" gradientUnits="userSpaceOnUse" x1="58.9148" y1="1039.9661" x2="58.9148" y2="997.6461" gradientTransform="matrix(1 0 0 1 0 -962)">
		<stop  offset="0" style="stop-color:#999898"/>
		<stop  offset="0.1963" style="stop-color:#4F4F4F"/>
		<stop  offset="0.2507" style="stop-color:#5B5B5B"/>
		<stop  offset="0.3499" style="stop-color:#7C7C7C"/>
		<stop  offset="0.3704" style="stop-color:#848484"/>
		<stop  offset="0.433" style="stop-color:#878787"/>
		<stop  offset="0.5974" style="stop-color:#D9D9D9"/>
		<stop  offset="0.6843" style="stop-color:#FFFFFF"/>
		<stop  offset="0.9078" style="stop-color:#B7B7B7"/>
		<stop  offset="1" style="stop-color:#C6C6C6"/>
	</linearGradient>
	<path style="fill:url(#SVGID_00000091720702071602986830000010219010515638983076_);" d="M66.4,78c0,0-7.2-1.3-15,0V35.6
		c0,0,6.1,1.4,15,0V78z"/>
	
		<linearGradient id="SVGID_00000117641644351171234280000012337823151208099260_" gradientUnits="userSpaceOnUse" x1="-1706.8208" y1="1041.7754" x2="-1706.8208" y2="995.8253" gradientTransform="matrix(-1 0 0 1 -1657.1461 -962)">
		<stop  offset="0" style="stop-color:#636363"/>
		<stop  offset="0.1983" style="stop-color:#444444"/>
		<stop  offset="0.2933" style="stop-color:#383838"/>
		<stop  offset="0.433" style="stop-color:#565656"/>
		<stop  offset="0.6732" style="stop-color:#E5E5E5"/>
		<stop  offset="0.9078" style="stop-color:#7F7E7E"/>
		<stop  offset="1" style="stop-color:#939292"/>
	</linearGradient>
	<path style="fill:url(#SVGID_00000117641644351171234280000012337823151208099260_);" d="M50.5,79.8c-0.5-0.6-1.2-1.2-1.7-1.8
		c0-14.2,0-28.4,0-42.6c0.5-0.5,1.2-1,1.7-1.6V79.8z"/>
	
		<linearGradient id="SVGID_00000155834287990490255120000016370916865725371816_" gradientUnits="userSpaceOnUse" x1="-24.9571" y1="1041.7754" x2="-24.9571" y2="995.8157" gradientTransform="matrix(1 0 0 1 76.2472 -962)">
		<stop  offset="0" style="stop-color:#7F7F7F"/>
		<stop  offset="0.1983" style="stop-color:#606060"/>
		<stop  offset="0.2933" style="stop-color:#545454"/>
		<stop  offset="0.433" style="stop-color:#757575"/>
		<stop  offset="0.6732" style="stop-color:#FFFFFF"/>
		<stop  offset="0.9078" style="stop-color:#9B9B9B"/>
		<stop  offset="1" style="stop-color:#B2B2B2"/>
	</linearGradient>
	<path style="fill:url(#SVGID_00000155834287990490255120000016370916865725371816_);" d="M50.5,79.8c0.5-0.6,1-1.3,1.6-1.9
		c0-14.1,0-28-0.1-42.1c-0.5-0.6-0.9-1.3-1.4-1.9L50.5,79.8z"/>
	
		<linearGradient id="SVGID_00000038406629529729173260000005864226215882391462_" gradientUnits="userSpaceOnUse" x1="-165.0788" y1="162.4753" x2="-159.0889" y2="162.4753" gradientTransform="matrix(1 0 0 -1 225.5993 219.2472)">
		<stop  offset="0" style="stop-color:#1A1A1A"/>
		<stop  offset="0" style="stop-color:#000000;stop-opacity:0"/>
		<stop  offset="0.3429" style="stop-color:#0A0A0A;stop-opacity:0.3341"/>
		<stop  offset="0.9264" style="stop-color:#252525;stop-opacity:0.9026"/>
		<stop  offset="1" style="stop-color:#292929;stop-opacity:0.9744"/>
	</linearGradient>
	<path style="opacity:0.28;fill:url(#SVGID_00000038406629529729173260000005864226215882391462_);enable-background:new    ;" d="
		M66.4,35.6c-1,0.1-2.1,0.4-3.4,0.5c-0.9,0.1-1.8,0.1-2.7,0.1c0,13.7,0,27.4,0,41.2c0.9,0,1.8,0.1,2.8,0.1c1.2,0.1,2.2,0.3,3.1,0.4
		C66.4,63.9,66.4,49.7,66.4,35.6z"/>
	
		<linearGradient id="SVGID_00000122691352003875151210000003994501577236966587_" gradientUnits="userSpaceOnUse" x1="-1822.3997" y1="162.4753" x2="-1816.343" y2="162.4753" gradientTransform="matrix(-1 0 0 -1 -1764.296 219.2472)">
		<stop  offset="0" style="stop-color:#1A1A1A"/>
		<stop  offset="0" style="stop-color:#000000;stop-opacity:0"/>
		<stop  offset="0.3429" style="stop-color:#0A0A0A;stop-opacity:0.3341"/>
		<stop  offset="0.9264" style="stop-color:#252525;stop-opacity:0.9026"/>
		<stop  offset="1" style="stop-color:#292929;stop-opacity:0.9744"/>
	</linearGradient>
	<path style="opacity:0.28;fill:url(#SVGID_00000122691352003875151210000003994501577236966587_);enable-background:new    ;" d="
		M51.9,35.7c0.9,0.1,1.9,0.3,3.1,0.4c1,0.1,2.1,0.1,3,0.1c0,13.7,0,27.4,0,41.1c-1,0-2.1,0-3.2,0.1c-1,0.1-1.9,0.3-2.7,0.4
		C52.1,63.8,52.1,49.8,51.9,35.7z"/>
</g>
<g>
	<path class="st31" d="M152.2,240.7c0.5-1,1.2-2.1,1.7-3.1c0.6,1,1.2,2.2,1.8,3.2c0.5-1,1.2-2.2,1.7-3.2c0.6,1,1.3,2.1,1.8,3.1
		c0.5-1,1-2.1,1.7-3.1c0.6,1,1.4,2.1,2.1,3.1c0.5-1.2,0.9-2.3,1.4-3.4c0.6,1.4,1.3,2.7,1.9,4.1c0.6-1.2,1.8-3.4,1.8-3.4
		c0.5,0.9,1,1.8,1.6,2.7c0.8-1,1.7-2.2,2.5-3.2c0,0,0,0,0.3,0c0.5,0,1,0,1.6,0c0.8,0,1.6,0,2.3,0c0.3,0,0.5,0,0.8,0c0,0,0-1.2,0-1.6
		c0-0.5,0-0.9,0-1.4c1.6-1.3,4.8-4,4.7-4h0.1v-29.6c-0.3-0.1-3.2-2.7-4.8-4c0-0.4,0-0.9,0-1.4c0-0.4,0-1.6,0-1.6c-0.3,0-0.5,0-0.8,0
		c-0.8,0-1.6,0-2.3,0c-0.5,0-1,0-1.6,0c-0.3,0-0.3,0-0.3,0s-1.6-1.9-2.2-2.8c-0.5,0.9-1.2,1.9-1.7,2.8l-1.8-3.4l-1.6,3.5
		c0,0-1.2-2.3-1.7-3.4l-2.1,3.1l-1.7-3.1l-1.8,3.2l-1.7-3.2c-0.6,1-1.8,3.1-1.8,3.1l-1.8-3.1c-0.6,1-1.8,3-1.8,3v-1v-7l1.2-6.1H190
		c0.4,0.9,0.6,2.1,0.9,3.4c0.3,1.3,0.4,2.6,0.4,3.6c0,4.8,0,9.6,0,14.3v30.1V242c0.1,1.6,0.3,3.6-0.1,5.9c-0.3,1.7-0.6,3.1-1.2,4.3
		c-12.8,0-25.6,0-38.3,0c-0.4-1.2-0.6-2.6-0.9-4c-0.3-1.3-0.3-2.5-0.4-3.6c0-2.1,0-4-0.1-6.1c0-0.6,0.1-1.3,0.1-1.9
		C151.1,237.6,151.7,239.2,152.2,240.7z"/>
	<path class="st32" d="M175.6,234c0.8-0.9,2.3-2.7,4.8-3.4c0.5-0.1,1-0.3,1.4-0.3c-1.6,1.3-3.2,2.7-4.8,4c0,0.4,0,0.9,0,1.4
		c0,0.4,0,1.6,0,1.6c-0.3,0-0.5,0-0.8,0c-0.8,0-1.6,0-2.3,0c-0.5,0-1,0-1.6,0c-0.3,0-0.3,0-0.3,0c-0.3,0.4-0.5,0.6-0.9,1
		c-0.5,0.8-1,1.4-1.4,2.1c-0.3-0.5-0.6-1.2-1-1.7c-0.3-0.4-0.5-0.8-0.8-1.2c-0.6,1-1.2,2.2-1.8,3.2c-0.5-1.2-1-2.5-1.6-3.6
		c0.5-0.4,1-0.6,1.6-1c0-1.4,0-2.8,0-4.3c0.4-0.1,0.9-0.1,1.3-0.3C170.3,232.5,173,233.2,175.6,234z"/>
	<polygon class="st33" points="157.6,232.1 152,230.8 157.6,230.8 	"/>
	<path class="st32" d="M175.6,197.4c0.8,0.9,2.3,2.7,4.8,3.4c0.5,0.1,1,0.3,1.4,0.3c-1.6-1.3-3.2-2.7-4.8-4c0-0.4,0-0.9,0-1.4l0,0
		c0-0.4,0-1.6,0-1.6l0,0l0,0c-0.3,0-0.5,0-0.8,0c-0.8,0-1.6,0-2.3,0c-0.5,0-1,0-1.6,0c-0.3,0-0.3,0-0.3,0s-1.6-1.9-2.2-2.7
		c-0.5,0.9-1.2,1.9-1.7,2.8l-1.8-3.4l-1.6,3.4c0.5,0.4,1,0.6,1.6,1c0,1.4,0,2.8,0,4.3c0.4,0.1,0.9,0.1,1.3,0.3
		C170.3,199,173,198.2,175.6,197.4z"/>
	<polygon class="st33" points="157.6,199.5 152,200.7 157.6,200.7 	"/>
	<path class="st34" d="M150.3,194.2c0.6-1.2,1.4-2.3,2.1-3.5l1.7,3.1l1.8-3.1l1.7,3.1l1.8-3.1l1.7,3.1l2.1-3.1
		c0.5,1.2,0.9,2.3,1.4,3.5c0.4,0,0.8,0,1,0"/>
	<path class="st33" d="M166.3,195c0.1-0.1,0.3-0.4,0.4-0.5v-0.6c-0.1-0.1-0.4-0.4-0.9-0.4c-0.5,0-0.9,0.1-1,0.3c0,0.1,0,0.1,0,0.3
		c0,0.1,0,0.4,0,0.5c0.1,0.1,0.5,0.3,0.8,0.4C165.8,195,166,195,166.3,195z"/>
	<path class="st34" d="M150.5,236.2c0.3,0.8,0.5,1.6,0.8,2.5c0.3,0.8,0.5,1.4,0.8,2.1l1.7-3.1l1.8,3.1l1.7-3.1l1.8,3.1l1.7-3.1
		l2.1,3.1c0.5-1.2,0.9-2.3,1.4-3.4c0.1,0,0.3,0,0.3,0"/>
	<path class="st33" d="M164.9,238.4c0.5-0.3,1-0.6,1.4-0.9V237c-0.4-0.3-1-0.5-1.7-0.4h-0.1c0,0.5,0,1,0,1.4
		C164.8,238.3,164.8,238.3,164.9,238.4z"/>
	<g>
		<g>
			<g>
				<g>
					<defs>
						<path id="SVGID_00000096040667823740056570000007337893409417964453_" d="M146.4,200.7v3.2c15.9,0,31.8,0,47.7,0
							c0.1-0.4,0.3-0.8,0.4-1.3c0.3-0.8,0.5-1.4,0.8-2.1C179.1,200.7,162.7,200.7,146.4,200.7z"/>
					</defs>
					<clipPath id="SVGID_00000178888170094659489540000002187450567271047319_">
						<use xlink:href="#SVGID_00000096040667823740056570000007337893409417964453_"  style="overflow:visible;"/>
					</clipPath>
					<g transform="matrix(1 0 0 1 0 0)" style="clip-path:url(#SVGID_00000178888170094659489540000002187450567271047319_);">
						
							<image style="overflow:visible;enable-background:new    ;" width="600" height="600" xlink:href="../../background.jpg"  transform="matrix(0.3706 0 0 0.3701 159.7577 132.7139)">
						</image>
					</g>
				</g>
			</g>
		</g>
	</g>
	<g class="st36">
		<path id="SVGID_1_" class="st37" d="M146.4,200.7v3.2c15.9,0,31.8,0,47.7,0c0.1-0.4,0.3-0.8,0.4-1.3c0.3-0.8,0.5-1.4,0.8-2.1
			C179.1,200.7,162.7,200.7,146.4,200.7z"/>
	</g>
	<g>
		<g>
			<g>
				<g>
					<defs>
						<path id="SVGID_00000101073653087473793400000014891255651656007073_" d="M179.1,200.5c0.1,0,0.5,0,0.8-0.3
							c0,0,0.1-0.1,0.1-0.3c0.1-0.4-0.1-0.8-0.1-0.8s-0.9-0.8-1.4-1.2c-0.5-0.4-1.2-1-2.1-1.7c-1.3,0-2.1,0-2.5,0c0,0-1.7,0-1.8,0
							H172h-0.1l0,0l0,0l0,0l0,0l0,0l0,0l0,0c0,0,0,0,0,0.1v0.1c0,0.1,0,0.3,0,0.4c0,0.4,0,0.4,0,0.4l0,0c0,0.3-0.1,0.4-0.1,0.4
							c-0.1,0.1-0.1,0.1-0.3,0.1c-0.3,0.1-0.6,0.1-1,0.1c-0.3,0-0.4,0-0.6,0c0,0-0.5,0-1.4,0c-3.4,0-3.4,0-3.4,0s-4.1,0.8-6.8,1.4
							l0,0l0,0c0,0.8,0,0.9,0,1.2l0,0l0,0c0.5,0,0.9,0,1.4,0l0,0c0,0.5-0.1,1-0.1,1.6c0.5-0.5,1.2-1,1.7-1.6l0,0l0,0l0,0
							c0.3,0,0.6,0,0.9,0c0,0.5,0,1,0,1.6c0.5-0.5,1.2-1,1.7-1.6l0,0c1.3,0,2.1,0,2.6,0c0.1,0,0.6,0,1.3,0c0.3,0,0.6,0,0.9,0
							c0.6,0,1.2,0,1.6,0c0.5,0,1,0,1.7,0h3.2C174.7,200.7,178.1,200.7,179.1,200.5z"/>
					</defs>
					<clipPath id="SVGID_00000086673553133455759680000006965446717450669450_">
						<use xlink:href="#SVGID_00000101073653087473793400000014891255651656007073_"  style="overflow:visible;"/>
					</clipPath>
				</g>
				<g>
					<defs>
						<path id="SVGID_00000091725772035939712750000004035742601749452723_" d="M179.1,200.5c0.1,0,0.5,0,0.8-0.3
							c0,0,0.1-0.1,0.1-0.3c0.1-0.4-0.1-0.8-0.1-0.8s-0.9-0.8-1.4-1.2c-0.5-0.4-1.2-1-2.1-1.7c-1.3,0-2.1,0-2.5,0c0,0-1.7,0-1.8,0
							H172h-0.1l0,0l0,0l0,0l0,0l0,0l0,0l0,0c0,0,0,0,0,0.1v0.1c0,0.1,0,0.3,0,0.4c0,0.4,0,0.4,0,0.4l0,0c0,0.3-0.1,0.4-0.1,0.4
							c-0.1,0.1-0.1,0.1-0.3,0.1c-0.3,0.1-0.6,0.1-1,0.1c-0.3,0-0.4,0-0.6,0c0,0-0.5,0-1.4,0c-3.4,0-3.4,0-3.4,0s-4.1,0.8-6.8,1.4
							l0,0l0,0c0,0.8,0,0.9,0,1.2l0,0l0,0c0.5,0,0.9,0,1.4,0l0,0c0,0.5-0.1,1-0.1,1.6c0.5-0.5,1.2-1,1.7-1.6l0,0l0,0l0,0
							c0.3,0,0.6,0,0.9,0c0,0.5,0,1,0,1.6c0.5-0.5,1.2-1,1.7-1.6l0,0c1.3,0,2.1,0,2.6,0c0.1,0,0.6,0,1.3,0c0.3,0,0.6,0,0.9,0
							c0.6,0,1.2,0,1.6,0c0.5,0,1,0,1.7,0h3.2C174.7,200.7,178.1,200.7,179.1,200.5z"/>
					</defs>
					<defs>
						<path id="SVGID_00000127748555690052419020000005669201778458995105_" d="M179.1,200.5c0.1,0,0.5,0,0.8-0.3
							c0,0,0.1-0.1,0.1-0.3c0.1-0.4-0.1-0.8-0.1-0.8s-0.9-0.8-1.4-1.2c-0.5-0.4-1.2-1-2.1-1.7c-1.3,0-2.1,0-2.5,0c0,0-1.7,0-1.8,0
							H172h-0.1l0,0l0,0l0,0l0,0l0,0l0,0l0,0c0,0,0,0,0,0.1v0.1c0,0.1,0,0.3,0,0.4c0,0.4,0,0.4,0,0.4l0,0c0,0.3-0.1,0.4-0.1,0.4
							c-0.1,0.1-0.1,0.1-0.3,0.1c-0.3,0.1-0.6,0.1-1,0.1c-0.3,0-0.4,0-0.6,0c0,0-0.5,0-1.4,0c-3.4,0-3.4,0-3.4,0s-4.1,0.8-6.8,1.4
							l0,0l0,0c0,0.8,0,0.9,0,1.2l0,0l0,0c0.5,0,0.9,0,1.4,0l0,0c0,0.5-0.1,1-0.1,1.6c0.5-0.5,1.2-1,1.7-1.6l0,0l0,0l0,0
							c0.3,0,0.6,0,0.9,0c0,0.5,0,1,0,1.6c0.5-0.5,1.2-1,1.7-1.6l0,0c1.3,0,2.1,0,2.6,0c0.1,0,0.6,0,1.3,0c0.3,0,0.6,0,0.9,0
							c0.6,0,1.2,0,1.6,0c0.5,0,1,0,1.7,0h3.2C174.7,200.7,178.1,200.7,179.1,200.5z"/>
					</defs>
					<clipPath id="SVGID_00000065055627251984299070000013370585403533998239_">
						<use xlink:href="#SVGID_00000091725772035939712750000004035742601749452723_"  style="overflow:visible;"/>
					</clipPath>
					
						<clipPath id="SVGID_00000093177399686369399590000000379399116766481079_" style="clip-path:url(#SVGID_00000065055627251984299070000013370585403533998239_);">
						<use xlink:href="#SVGID_00000127748555690052419020000005669201778458995105_"  style="overflow:visible;"/>
					</clipPath>
					
						<g transform="matrix(1 0 0 1 0 -7.629395e-06)" style="clip-path:url(#SVGID_00000093177399686369399590000000379399116766481079_);">
						
							<image style="overflow:visible;enable-background:new    ;" width="600" height="600" xlink:href="../../background.jpg"  transform="matrix(0.3706 0 0 0.3701 150.0278 134.0846)">
						</image>
					</g>
				</g>
			</g>
		</g>
		<g>
			<path id="SVGID_66_" class="st40" d="M179.1,200.5c0.1,0,0.5,0,0.8-0.3c0,0,0.1-0.1,0.1-0.3c0.1-0.4-0.1-0.8-0.1-0.8
				s-0.9-0.8-1.4-1.2c-0.5-0.4-1.2-1-2.1-1.7c-1.3,0-2.1,0-2.5,0c0,0-1.7,0-1.8,0H172h-0.1l0,0l0,0l0,0l0,0l0,0l0,0l0,0
				c0,0,0,0,0,0.1v0.1c0,0.1,0,0.3,0,0.4c0,0.4,0,0.4,0,0.4l0,0c0,0.3-0.1,0.4-0.1,0.4c-0.1,0.1-0.1,0.1-0.3,0.1
				c-0.3,0.1-0.6,0.1-1,0.1c-0.3,0-0.4,0-0.6,0c0,0-0.5,0-1.4,0c-3.4,0-3.4,0-3.4,0s-4.1,0.8-6.8,1.4l0,0l0,0c0,0.8,0,0.9,0,1.2l0,0
				l0,0c0.5,0,0.9,0,1.4,0l0,0c0,0.5-0.1,1-0.1,1.6c0.5-0.5,1.2-1,1.7-1.6l0,0l0,0l0,0c0.3,0,0.6,0,0.9,0c0,0.5,0,1,0,1.6
				c0.5-0.5,1.2-1,1.7-1.6l0,0c1.3,0,2.1,0,2.6,0c0.1,0,0.6,0,1.3,0c0.3,0,0.6,0,0.9,0c0.6,0,1.2,0,1.6,0c0.5,0,1,0,1.7,0h3.2
				C174.7,200.7,178.1,200.7,179.1,200.5z"/>
		</g>
		<g>
			<path id="SVGID_65_" class="st40" d="M179.1,200.5c0.1,0,0.5,0,0.8-0.3c0,0,0.1-0.1,0.1-0.3c0.1-0.4-0.1-0.8-0.1-0.8
				s-0.9-0.8-1.4-1.2c-0.5-0.4-1.2-1-2.1-1.7c-1.3,0-2.1,0-2.5,0c0,0-1.7,0-1.8,0H172h-0.1l0,0l0,0l0,0l0,0l0,0l0,0l0,0
				c0,0,0,0,0,0.1v0.1c0,0.1,0,0.3,0,0.4c0,0.4,0,0.4,0,0.4l0,0c0,0.3-0.1,0.4-0.1,0.4c-0.1,0.1-0.1,0.1-0.3,0.1
				c-0.3,0.1-0.6,0.1-1,0.1c-0.3,0-0.4,0-0.6,0c0,0-0.5,0-1.4,0c-3.4,0-3.4,0-3.4,0s-4.1,0.8-6.8,1.4l0,0l0,0c0,0.8,0,0.9,0,1.2l0,0
				l0,0c0.5,0,0.9,0,1.4,0l0,0c0,0.5-0.1,1-0.1,1.6c0.5-0.5,1.2-1,1.7-1.6l0,0l0,0l0,0c0.3,0,0.6,0,0.9,0c0,0.5,0,1,0,1.6
				c0.5-0.5,1.2-1,1.7-1.6l0,0c1.3,0,2.1,0,2.6,0c0.1,0,0.6,0,1.3,0c0.3,0,0.6,0,0.9,0c0.6,0,1.2,0,1.6,0c0.5,0,1,0,1.7,0h3.2
				C174.7,200.7,178.1,200.7,179.1,200.5z"/>
		</g>
	</g>
	<g>
		<g>
			<g>
				<g>
					<defs>
						<path id="SVGID_00000138547801530978463680000009446281976698121107_" d="M146.4,230.8v-3.2c16.7,0,33.2,0,49.9,0
							c-0.1,0.5-0.3,1.2-0.5,1.8c-0.3,0.5-0.5,1-0.8,1.4C178.8,230.8,162.6,230.8,146.4,230.8z"/>
					</defs>
					<clipPath id="SVGID_00000125578813312366688610000008633794175616765829_">
						<use xlink:href="#SVGID_00000138547801530978463680000009446281976698121107_"  style="overflow:visible;"/>
					</clipPath>
					
						<g transform="matrix(1 0 0 1 7.629395e-06 0)" style="clip-path:url(#SVGID_00000125578813312366688610000008633794175616765829_);">
						
							<image style="overflow:visible;enable-background:new    ;" width="600" height="600" xlink:href="../../background.jpg"  transform="matrix(0.3706 0 0 0.3701 161.1299 132.7139)">
						</image>
					</g>
				</g>
			</g>
		</g>
	</g>
	<path id="SVGID_2_" class="st42" d="M146.4,230.8v-3.2c16.7,0,33.2,0,49.9,0c-0.1,0.5-0.3,1.2-0.5,1.8c-0.3,0.5-0.5,1-0.8,1.4
		C178.8,230.8,162.6,230.8,146.4,230.8z"/>
	<g>
		<g>
			<g>
				<g>
					<path id="SVGID_168_" class="st40" d="M179.2,230.9c0.1,0,0.5,0,0.8,0.3c0,0,0.1,0.1,0.1,0.3c0.1,0.4-0.1,0.8-0.1,0.8
						s-0.9,0.8-1.4,1.2c-0.5,0.4-1.2,1-2.1,1.7c-1.3,0-2.1,0-2.5,0c0,0-1.7,0-1.8,0h-0.1H172l0,0l0,0l0,0l0,0l0,0l0,0l0,0
						c0,0,0,0,0-0.1v-0.1c0-0.1,0-0.3,0-0.4c0-0.4,0-0.4,0-0.4l0,0c0-0.3-0.1-0.4-0.1-0.4c-0.1-0.1-0.1-0.1-0.3-0.1
						c-0.3-0.1-0.6-0.1-1-0.1c-0.3,0-0.4,0-0.6,0c0,0-0.5,0-1.4,0c-3.4,0-3.4,0-3.4,0s-4.1-0.8-6.8-1.4l0,0l0,0c0-0.8,0-0.9,0-1.2
						l0,0l0,0c0.5,0,0.9,0,1.4,0l0,0c0-0.5-0.1-1-0.1-1.6c0.5,0.5,1.2,1,1.7,1.6l0,0l0,0l0,0c0.3,0,0.6,0,0.9,0c0-0.5,0-1,0-1.6
						c0.5,0.5,1.2,1,1.7,1.6l0,0c1.3,0,2.1,0,2.6,0c0.1,0,0.6,0,1.3,0c0.3,0,0.6,0,0.9,0c0.6,0,1.2,0,1.6,0c0.5,0,1,0,1.7,0h3.2
						C174.7,230.8,178.1,230.8,179.2,230.9z"/>
				</g>
			</g>
			<g>
				<g>
					<defs>
						<path id="SVGID_00000151501573244738589190000002522989458905967805_" d="M179.2,230.9c0.1,0,0.5,0,0.8,0.3
							c0,0,0.1,0.1,0.1,0.3c0.1,0.4-0.1,0.8-0.1,0.8s-0.9,0.8-1.4,1.2c-0.5,0.4-1.2,1-2.1,1.7c-1.3,0-2.1,0-2.5,0c0,0-1.7,0-1.8,0
							h-0.1H172l0,0l0,0l0,0l0,0l0,0l0,0l0,0c0,0,0,0,0-0.1v-0.1c0-0.1,0-0.3,0-0.4c0-0.4,0-0.4,0-0.4l0,0c0-0.3-0.1-0.4-0.1-0.4
							c-0.1-0.1-0.1-0.1-0.3-0.1c-0.3-0.1-0.6-0.1-1-0.1c-0.3,0-0.4,0-0.6,0c0,0-0.5,0-1.4,0c-3.4,0-3.4,0-3.4,0s-4.1-0.8-6.8-1.4
							l0,0l0,0c0-0.8,0-0.9,0-1.2l0,0l0,0c0.5,0,0.9,0,1.4,0l0,0c0-0.5-0.1-1-0.1-1.6c0.5,0.5,1.2,1,1.7,1.6l0,0l0,0l0,0
							c0.3,0,0.6,0,0.9,0c0-0.5,0-1,0-1.6c0.5,0.5,1.2,1,1.7,1.6l0,0c1.3,0,2.1,0,2.6,0c0.1,0,0.6,0,1.3,0c0.3,0,0.6,0,0.9,0
							c0.6,0,1.2,0,1.6,0c0.5,0,1,0,1.7,0h3.2C174.7,230.8,178.1,230.8,179.2,230.9z"/>
					</defs>
					<clipPath id="SVGID_00000062163092977505973320000009205096270052412322_">
						<use xlink:href="#SVGID_00000151501573244738589190000002522989458905967805_"  style="overflow:visible;"/>
					</clipPath>
				</g>
				<g>
					<defs>
						<path id="SVGID_00000152234044478935131620000009167985160427240072_" d="M179.2,230.9c0.1,0,0.5,0,0.8,0.3
							c0,0,0.1,0.1,0.1,0.3c0.1,0.4-0.1,0.8-0.1,0.8s-0.9,0.8-1.4,1.2c-0.5,0.4-1.2,1-2.1,1.7c-1.3,0-2.1,0-2.5,0c0,0-1.7,0-1.8,0
							h-0.1H172l0,0l0,0l0,0l0,0l0,0l0,0l0,0c0,0,0,0,0-0.1v-0.1c0-0.1,0-0.3,0-0.4c0-0.4,0-0.4,0-0.4l0,0c0-0.3-0.1-0.4-0.1-0.4
							c-0.1-0.1-0.1-0.1-0.3-0.1c-0.3-0.1-0.6-0.1-1-0.1c-0.3,0-0.4,0-0.6,0c0,0-0.5,0-1.4,0c-3.4,0-3.4,0-3.4,0s-4.1-0.8-6.8-1.4
							l0,0l0,0c0-0.8,0-0.9,0-1.2l0,0l0,0c0.5,0,0.9,0,1.4,0l0,0c0-0.5-0.1-1-0.1-1.6c0.5,0.5,1.2,1,1.7,1.6l0,0l0,0l0,0
							c0.3,0,0.6,0,0.9,0c0-0.5,0-1,0-1.6c0.5,0.5,1.2,1,1.7,1.6l0,0c1.3,0,2.1,0,2.6,0c0.1,0,0.6,0,1.3,0c0.3,0,0.6,0,0.9,0
							c0.6,0,1.2,0,1.6,0c0.5,0,1,0,1.7,0h3.2C174.7,230.8,178.1,230.8,179.2,230.9z"/>
					</defs>
					<defs>
						<path id="SVGID_00000166660023251800994580000015203393968439231408_" d="M179.2,230.9c0.1,0,0.5,0,0.8,0.3
							c0,0,0.1,0.1,0.1,0.3c0.1,0.4-0.1,0.8-0.1,0.8s-0.9,0.8-1.4,1.2c-0.5,0.4-1.2,1-2.1,1.7c-1.3,0-2.1,0-2.5,0c0,0-1.7,0-1.8,0
							h-0.1H172l0,0l0,0l0,0l0,0l0,0l0,0l0,0c0,0,0,0,0-0.1v-0.1c0-0.1,0-0.3,0-0.4c0-0.4,0-0.4,0-0.4l0,0c0-0.3-0.1-0.4-0.1-0.4
							c-0.1-0.1-0.1-0.1-0.3-0.1c-0.3-0.1-0.6-0.1-1-0.1c-0.3,0-0.4,0-0.6,0c0,0-0.5,0-1.4,0c-3.4,0-3.4,0-3.4,0s-4.1-0.8-6.8-1.4
							l0,0l0,0c0-0.8,0-0.9,0-1.2l0,0l0,0c0.5,0,0.9,0,1.4,0l0,0c0-0.5-0.1-1-0.1-1.6c0.5,0.5,1.2,1,1.7,1.6l0,0l0,0l0,0
							c0.3,0,0.6,0,0.9,0c0-0.5,0-1,0-1.6c0.5,0.5,1.2,1,1.7,1.6l0,0c1.3,0,2.1,0,2.6,0c0.1,0,0.6,0,1.3,0c0.3,0,0.6,0,0.9,0
							c0.6,0,1.2,0,1.6,0c0.5,0,1,0,1.7,0h3.2C174.7,230.8,178.1,230.8,179.2,230.9z"/>
					</defs>
					<clipPath id="SVGID_00000165198659086365245620000005237034640937258171_">
						<use xlink:href="#SVGID_00000152234044478935131620000009167985160427240072_"  style="overflow:visible;"/>
					</clipPath>
					
						<clipPath id="SVGID_00000124848970550010688550000017144268390541464213_" style="clip-path:url(#SVGID_00000165198659086365245620000005237034640937258171_);">
						<use xlink:href="#SVGID_00000166660023251800994580000015203393968439231408_"  style="overflow:visible;"/>
					</clipPath>
					
						<g transform="matrix(1 0 0 1 -7.629395e-06 0)" style="clip-path:url(#SVGID_00000124848970550010688550000017144268390541464213_);">
						
							<image style="overflow:visible;enable-background:new    ;" width="600" height="600" xlink:href="../../background.jpg"  transform="matrix(0.3706 0 0 0.3701 159.2589 133.4617)">
						</image>
					</g>
				</g>
				<g>
					<path id="SVGID_170_" class="st40" d="M179.2,230.9c0.1,0,0.5,0,0.8,0.3c0,0,0.1,0.1,0.1,0.3c0.1,0.4-0.1,0.8-0.1,0.8
						s-0.9,0.8-1.4,1.2c-0.5,0.4-1.2,1-2.1,1.7c-1.3,0-2.1,0-2.5,0c0,0-1.7,0-1.8,0h-0.1H172l0,0l0,0l0,0l0,0l0,0l0,0l0,0
						c0,0,0,0,0-0.1v-0.1c0-0.1,0-0.3,0-0.4c0-0.4,0-0.4,0-0.4l0,0c0-0.3-0.1-0.4-0.1-0.4c-0.1-0.1-0.1-0.1-0.3-0.1
						c-0.3-0.1-0.6-0.1-1-0.1c-0.3,0-0.4,0-0.6,0c0,0-0.5,0-1.4,0c-3.4,0-3.4,0-3.4,0s-4.1-0.8-6.8-1.4l0,0l0,0c0-0.8,0-0.9,0-1.2
						l0,0l0,0c0.5,0,0.9,0,1.4,0l0,0c0-0.5-0.1-1-0.1-1.6c0.5,0.5,1.2,1,1.7,1.6l0,0l0,0l0,0c0.3,0,0.6,0,0.9,0c0-0.5,0-1,0-1.6
						c0.5,0.5,1.2,1,1.7,1.6l0,0c1.3,0,2.1,0,2.6,0c0.1,0,0.6,0,1.3,0c0.3,0,0.6,0,0.9,0c0.6,0,1.2,0,1.6,0c0.5,0,1,0,1.7,0h3.2
						C174.7,230.8,178.1,230.8,179.2,230.9z"/>
				</g>
				<g>
					<path id="SVGID_171_" class="st40" d="M179.2,230.9c0.1,0,0.5,0,0.8,0.3c0,0,0.1,0.1,0.1,0.3c0.1,0.4-0.1,0.8-0.1,0.8
						s-0.9,0.8-1.4,1.2c-0.5,0.4-1.2,1-2.1,1.7c-1.3,0-2.1,0-2.5,0c0,0-1.7,0-1.8,0h-0.1H172l0,0l0,0l0,0l0,0l0,0l0,0l0,0
						c0,0,0,0,0-0.1v-0.1c0-0.1,0-0.3,0-0.4c0-0.4,0-0.4,0-0.4l0,0c0-0.3-0.1-0.4-0.1-0.4c-0.1-0.1-0.1-0.1-0.3-0.1
						c-0.3-0.1-0.6-0.1-1-0.1c-0.3,0-0.4,0-0.6,0c0,0-0.5,0-1.4,0c-3.4,0-3.4,0-3.4,0s-4.1-0.8-6.8-1.4l0,0l0,0c0-0.8,0-0.9,0-1.2
						l0,0l0,0c0.5,0,0.9,0,1.4,0l0,0c0-0.5-0.1-1-0.1-1.6c0.5,0.5,1.2,1,1.7,1.6l0,0l0,0l0,0c0.3,0,0.6,0,0.9,0c0-0.5,0-1,0-1.6
						c0.5,0.5,1.2,1,1.7,1.6l0,0c1.3,0,2.1,0,2.6,0c0.1,0,0.6,0,1.3,0c0.3,0,0.6,0,0.9,0c0.6,0,1.2,0,1.6,0c0.5,0,1,0,1.7,0h3.2
						C174.7,230.8,178.1,230.8,179.2,230.9z"/>
				</g>
			</g>
		</g>
		<g>
			<path id="SVGID_61_" class="st40" d="M179.2,230.9c0.1,0,0.5,0,0.8,0.3c0,0,0.1,0.1,0.1,0.3c0.1,0.4-0.1,0.8-0.1,0.8
				s-0.9,0.8-1.4,1.2c-0.5,0.4-1.2,1-2.1,1.7c-1.3,0-2.1,0-2.5,0c0,0-1.7,0-1.8,0h-0.1H172l0,0l0,0l0,0l0,0l0,0l0,0l0,0
				c0,0,0,0,0-0.1v-0.1c0-0.1,0-0.3,0-0.4c0-0.4,0-0.4,0-0.4l0,0c0-0.3-0.1-0.4-0.1-0.4c-0.1-0.1-0.1-0.1-0.3-0.1
				c-0.3-0.1-0.6-0.1-1-0.1c-0.3,0-0.4,0-0.6,0c0,0-0.5,0-1.4,0c-3.4,0-3.4,0-3.4,0s-4.1-0.8-6.8-1.4l0,0l0,0c0-0.8,0-0.9,0-1.2l0,0
				l0,0c0.5,0,0.9,0,1.4,0l0,0c0-0.5-0.1-1-0.1-1.6c0.5,0.5,1.2,1,1.7,1.6l0,0l0,0l0,0c0.3,0,0.6,0,0.9,0c0-0.5,0-1,0-1.6
				c0.5,0.5,1.2,1,1.7,1.6l0,0c1.3,0,2.1,0,2.6,0c0.1,0,0.6,0,1.3,0c0.3,0,0.6,0,0.9,0c0.6,0,1.2,0,1.6,0c0.5,0,1,0,1.7,0h3.2
				C174.7,230.8,178.1,230.8,179.2,230.9z"/>
		</g>
		<g>
			<path id="SVGID_60_" class="st40" d="M179.2,230.9c0.1,0,0.5,0,0.8,0.3c0,0,0.1,0.1,0.1,0.3c0.1,0.4-0.1,0.8-0.1,0.8
				s-0.9,0.8-1.4,1.2c-0.5,0.4-1.2,1-2.1,1.7c-1.3,0-2.1,0-2.5,0c0,0-1.7,0-1.8,0h-0.1H172l0,0l0,0l0,0l0,0l0,0l0,0l0,0
				c0,0,0,0,0-0.1v-0.1c0-0.1,0-0.3,0-0.4c0-0.4,0-0.4,0-0.4l0,0c0-0.3-0.1-0.4-0.1-0.4c-0.1-0.1-0.1-0.1-0.3-0.1
				c-0.3-0.1-0.6-0.1-1-0.1c-0.3,0-0.4,0-0.6,0c0,0-0.5,0-1.4,0c-3.4,0-3.4,0-3.4,0s-4.1-0.8-6.8-1.4l0,0l0,0c0-0.8,0-0.9,0-1.2l0,0
				l0,0c0.5,0,0.9,0,1.4,0l0,0c0-0.5-0.1-1-0.1-1.6c0.5,0.5,1.2,1,1.7,1.6l0,0l0,0l0,0c0.3,0,0.6,0,0.9,0c0-0.5,0-1,0-1.6
				c0.5,0.5,1.2,1,1.7,1.6l0,0c1.3,0,2.1,0,2.6,0c0.1,0,0.6,0,1.3,0c0.3,0,0.6,0,0.9,0c0.6,0,1.2,0,1.6,0c0.5,0,1,0,1.7,0h3.2
				C174.7,230.8,178.1,230.8,179.2,230.9z"/>
		</g>
	</g>
</g>
<g>
	<path class="st31" d="M79.6,264.5c0.9,0.4,1.7,1,2.6,1.4c-0.9,0.5-1.8,1-2.7,1.6c0.9,0.4,1.8,1,2.7,1.4c-0.9,0.5-1.7,1-2.6,1.6
		c0.9,0.4,1.7,0.9,2.6,1.4c-0.9,0.5-1.7,1.2-2.6,1.8c1,0.4,1.9,0.8,2.8,1.2c-1.2,0.5-2.3,1-3.5,1.7c1,0.5,2.8,1.6,2.8,1.6
		c-0.8,0.4-1.6,0.9-2.3,1.3c0.9,0.6,1.8,1.4,2.7,2.1c0,0,0,0,0,0.3c0,0.4,0,0.9,0,1.3c0,0.6,0,1.3,0,1.9c0,0.3,0,0.4,0,0.6
		c0,0,1,0,1.3,0c0.4,0,0.8,0,1.2,0c1,1.3,3.4,4,3.4,3.9v0.1h24.9c0.1-0.3,2.3-2.7,3.4-4c0.4,0,0.8,0,1.2,0s1.3,0,1.3,0
		c0-0.3,0-0.4,0-0.6c0-0.6,0-1.3,0-1.9c0-0.4,0-0.9,0-1.3c0-0.3,0-0.3,0-0.3s1.7-1.3,2.5-1.8c-0.8-0.4-1.7-1-2.5-1.4l2.8-1.6l-3-1.3
		c0,0,1.9-1,2.8-1.4l-2.6-1.8l2.6-1.4l-2.7-1.6l2.7-1.4c-0.9-0.5-2.6-1.6-2.6-1.6l2.6-1.6c-0.9-0.5-2.5-1.6-2.5-1.6h0.9h5.9l5.2,1
		v32.2c-0.8,0.4-1.7,0.5-2.8,0.8c-1,0.3-2.2,0.4-3.1,0.4c-4,0-8,0-12,0H88h-9c-1.3,0.1-3.1,0.3-5-0.1c-1.4-0.3-2.6-0.5-3.6-1
		c0-10.7,0-21.5,0-32.2c1-0.4,2.2-0.5,3.4-0.8c1-0.3,2.1-0.3,3.1-0.4c1.7,0,3.4,0,5.2-0.1c0.5,0,1,0.1,1.7,0.1
		C82.2,263.6,81,264.1,79.6,264.5z"/>
	<path class="st32" d="M85.1,284.3c0.8,0.6,2.3,1.9,2.8,4c0.1,0.4,0.3,0.9,0.3,1.2c-1-1.3-2.3-2.7-3.4-4c-0.4,0-0.8,0-1.2,0
		s-1.3,0-1.3,0c0-0.3,0-0.4,0-0.6c0-0.6,0-1.3,0-1.9c0-0.4,0-0.9,0-1.3c0-0.3,0-0.3,0-0.3c-0.3-0.3-0.6-0.5-0.9-0.8
		c-0.5-0.4-1-0.9-1.6-1.3c0.4-0.3,0.9-0.5,1.3-0.6c0.4-0.3,0.8-0.4,1-0.6c-0.9-0.5-1.8-1-2.7-1.6c0.9-0.4,1.9-0.9,2.8-1.3
		c0.1,0.3,0.3,0.5,0.4,0.8c0.1,0.3,0.3,0.5,0.4,0.6c1.2,0,2.5,0,3.6,0c0.1,0.4,0.1,0.8,0.3,1C86.6,279.9,85.9,282.1,85.1,284.3z"/>
	<polygon class="st33" points="87,269.3 88,264.4 88,269.3 	"/>
	<path class="st32" d="M115.8,284.3c-0.8,0.6-2.3,1.9-2.8,4c-0.1,0.4-0.3,0.9-0.3,1.2c1-1.3,2.3-2.7,3.4-4c0.4,0,0.8,0,1.2,0l0,0
		c0.4,0,1.3,0,1.3,0l0,0l0,0c0-0.3,0-0.4,0-0.6c0-0.6,0-1.3,0-1.9c0-0.4,0-0.9,0-1.3c0-0.3,0-0.3,0-0.3s1.7-1.3,2.3-1.8
		c-0.8-0.4-1.7-1-2.5-1.4l2.8-1.6l-2.8-1.3c-0.4,0.4-0.5,0.9-0.9,1.3c-1.2,0-2.5,0-3.6,0c-0.1,0.4-0.1,0.8-0.3,1
		C114.6,279.9,115.3,282.1,115.8,284.3z"/>
	<polygon class="st33" points="114.2,269.3 113.1,264.4 113.1,269.3 	"/>
	<path class="st34" d="M118.5,263c1,0.5,1.9,1.2,3,1.8l-2.6,1.4l2.6,1.6l-2.6,1.4l2.6,1.6l-2.6,1.4l2.6,1.8c-1,0.4-1.9,0.8-3,1.2
		c0,0.4,0,0.6,0,0.9"/>
	<path class="st33" d="M118,276.4c0.1,0.1,0.4,0.3,0.4,0.4h0.5c0.4-0.4,0.4-0.6,0.4-0.8s-0.1-0.3-0.1-0.5c0-0.1,0-0.1,0-0.3
		c-0.3,0-0.6-0.1-0.9-0.1C118.2,275,118,275.9,118,276.4z"/>
	<path class="st34" d="M83.5,263.1c-0.6,0.3-1.3,0.4-2.1,0.6c-0.6,0.3-1.2,0.4-1.7,0.6l2.6,1.4l-2.6,1.6l2.6,1.4l-2.6,1.6l2.6,1.4
		l-2.6,1.8c1,0.4,1.9,0.8,2.8,1.2c0,0.1,0,0.3,0,0.3"/>
	<path class="st33" d="M81.5,275.2c0.1,0.3,0.1,0.6,0.4,1c0.1,0.3,0.3,0.4,0.4,0.5h0.4c0.1-0.1,0.3-0.4,0.3-0.6c0-0.1,0-0.4,0-0.5
		c-0.1-0.3-0.3-0.6-0.4-0.9c-0.1,0-0.4,0-0.5,0C81.9,275,81.8,275.1,81.5,275.2z"/>
	<g>
		<g>
			<g>
				<g>
					<defs>
						<path id="SVGID_00000183218549430383483820000007473593323128446114_" d="M113.2,259.7h-2.7c0,13.3,0,26.6,0,40.1
							c0.4,0.1,0.6,0.3,1,0.4c0.6,0.3,1.2,0.4,1.7,0.6C113.2,287.1,113.2,273.6,113.2,259.7z"/>
					</defs>
					<clipPath id="SVGID_00000124881901479109639860000017589095938254247588_">
						<use xlink:href="#SVGID_00000183218549430383483820000007473593323128446114_"  style="overflow:visible;"/>
					</clipPath>
					
						<g transform="matrix(1 6.617445e-24 -6.617445e-24 1 0 0)" style="clip-path:url(#SVGID_00000124881901479109639860000017589095938254247588_);">
						
							<image style="overflow:visible;enable-background:new    ;" width="600" height="600" xlink:href="../../background.jpg"  transform="matrix(0 0.3109 -0.3098 0 168.2494 266.5259)">
						</image>
					</g>
				</g>
			</g>
		</g>
	</g>
	<g class="st36">
		<path id="SVGID_9_" class="st37" d="M113.2,259.7h-2.7c0,13.3,0,26.6,0,40.1c0.4,0.1,0.6,0.3,1,0.4c0.6,0.3,1.2,0.4,1.7,0.6
			C113.2,287.1,113.2,273.6,113.2,259.7z"/>
	</g>
	<g>
		<g>
			<g>
				<g>
					<defs>
						<path id="SVGID_00000084499772445454828360000001823330607223603617_" d="M113.2,287.3c0,0.1,0,0.4,0.3,0.6
							c0,0,0.1,0.1,0.3,0.1c0.4,0.1,0.6-0.1,0.6-0.1s0.6-0.8,1-1.2c0.4-0.4,0.9-1,1.4-1.8c0-1,0-1.8,0-2.1c0,0,0-1.4,0-1.6v-0.1
							v-0.1l0,0l0,0l0,0l0,0l0,0l0,0l0,0c0,0,0,0-0.1,0h-0.1c-0.1,0-0.3,0-0.4,0c-0.4,0-0.4,0-0.4,0l0,0c-0.3,0-0.4-0.1-0.4-0.1
							c-0.1-0.1-0.1-0.1-0.1-0.3c-0.1-0.3-0.1-0.5-0.1-0.9c0-0.3,0-0.4,0-0.5c0,0,0-0.4,0-1.2c0-2.8,0-2.8,0-2.8s-0.6-3.5-1.2-5.8
							l0,0l0,0c-0.6,0-0.8,0-1,0l0,0l0,0c0,0.4,0,0.8,0,1.2l0,0c-0.4,0-0.9-0.1-1.3-0.1c0.4,0.4,0.9,1,1.3,1.4l0,0l0,0l0,0
							c0,0.3,0,0.5,0,0.8c-0.4,0-0.9,0-1.3,0c0.4,0.4,0.9,1,1.3,1.4l0,0c0,1,0,1.8,0,2.2c0,0.1,0,0.5,0,1c0,0.3,0,0.5,0,0.8
							c0,0.5,0,1,0,1.3c0,0.4,0,0.9,0,1.4v2.7C113.2,283.5,113.2,286.4,113.2,287.3z"/>
					</defs>
					<clipPath id="SVGID_00000044152229009233494230000017105736459233875336_">
						<use xlink:href="#SVGID_00000084499772445454828360000001823330607223603617_"  style="overflow:visible;"/>
					</clipPath>
				</g>
				<g>
					<defs>
						<path id="SVGID_00000087404435219789564480000012463955031793001898_" d="M113.2,287.3c0,0.1,0,0.4,0.3,0.6
							c0,0,0.1,0.1,0.3,0.1c0.4,0.1,0.6-0.1,0.6-0.1s0.6-0.8,1-1.2c0.4-0.4,0.9-1,1.4-1.8c0-1,0-1.8,0-2.1c0,0,0-1.4,0-1.6v-0.1
							v-0.1l0,0l0,0l0,0l0,0l0,0l0,0l0,0c0,0,0,0-0.1,0h-0.1c-0.1,0-0.3,0-0.4,0c-0.4,0-0.4,0-0.4,0l0,0c-0.3,0-0.4-0.1-0.4-0.1
							c-0.1-0.1-0.1-0.1-0.1-0.3c-0.1-0.3-0.1-0.5-0.1-0.9c0-0.3,0-0.4,0-0.5c0,0,0-0.4,0-1.2c0-2.8,0-2.8,0-2.8s-0.6-3.5-1.2-5.8
							l0,0l0,0c-0.6,0-0.8,0-1,0l0,0l0,0c0,0.4,0,0.8,0,1.2l0,0c-0.4,0-0.9-0.1-1.3-0.1c0.4,0.4,0.9,1,1.3,1.4l0,0l0,0l0,0
							c0,0.3,0,0.5,0,0.8c-0.4,0-0.9,0-1.3,0c0.4,0.4,0.9,1,1.3,1.4l0,0c0,1,0,1.8,0,2.2c0,0.1,0,0.5,0,1c0,0.3,0,0.5,0,0.8
							c0,0.5,0,1,0,1.3c0,0.4,0,0.9,0,1.4v2.7C113.2,283.5,113.2,286.4,113.2,287.3z"/>
					</defs>
					<defs>
						<path id="SVGID_00000057136468230750593640000001607257515111645830_" d="M113.2,287.3c0,0.1,0,0.4,0.3,0.6
							c0,0,0.1,0.1,0.3,0.1c0.4,0.1,0.6-0.1,0.6-0.1s0.6-0.8,1-1.2c0.4-0.4,0.9-1,1.4-1.8c0-1,0-1.8,0-2.1c0,0,0-1.4,0-1.6v-0.1
							v-0.1l0,0l0,0l0,0l0,0l0,0l0,0l0,0c0,0,0,0-0.1,0h-0.1c-0.1,0-0.3,0-0.4,0c-0.4,0-0.4,0-0.4,0l0,0c-0.3,0-0.4-0.1-0.4-0.1
							c-0.1-0.1-0.1-0.1-0.1-0.3c-0.1-0.3-0.1-0.5-0.1-0.9c0-0.3,0-0.4,0-0.5c0,0,0-0.4,0-1.2c0-2.8,0-2.8,0-2.8s-0.6-3.5-1.2-5.8
							l0,0l0,0c-0.6,0-0.8,0-1,0l0,0l0,0c0,0.4,0,0.8,0,1.2l0,0c-0.4,0-0.9-0.1-1.3-0.1c0.4,0.4,0.9,1,1.3,1.4l0,0l0,0l0,0
							c0,0.3,0,0.5,0,0.8c-0.4,0-0.9,0-1.3,0c0.4,0.4,0.9,1,1.3,1.4l0,0c0,1,0,1.8,0,2.2c0,0.1,0,0.5,0,1c0,0.3,0,0.5,0,0.8
							c0,0.5,0,1,0,1.3c0,0.4,0,0.9,0,1.4v2.7C113.2,283.5,113.2,286.4,113.2,287.3z"/>
					</defs>
					<clipPath id="SVGID_00000048474600988234044020000000149944238103432085_">
						<use xlink:href="#SVGID_00000087404435219789564480000012463955031793001898_"  style="overflow:visible;"/>
					</clipPath>
					
						<clipPath id="SVGID_00000073001842252686569790000013674846435382193328_" style="clip-path:url(#SVGID_00000048474600988234044020000000149944238103432085_);">
						<use xlink:href="#SVGID_00000057136468230750593640000001607257515111645830_"  style="overflow:visible;"/>
					</clipPath>
					
						<g transform="matrix(1 6.617445e-24 -6.617445e-24 1 0 0)" style="clip-path:url(#SVGID_00000073001842252686569790000013674846435382193328_);">
						
							<image style="overflow:visible;enable-background:new    ;" width="600" height="600" xlink:href="../../background.jpg"  transform="matrix(0 0.3109 -0.3098 0 167.1022 258.3624)">
						</image>
					</g>
				</g>
			</g>
		</g>
		<g>
			<path id="SVGID_8_" class="st40" d="M113.2,287.3c0,0.1,0,0.4,0.3,0.6c0,0,0.1,0.1,0.3,0.1c0.4,0.1,0.6-0.1,0.6-0.1
				s0.6-0.8,1-1.2c0.4-0.4,0.9-1,1.4-1.8c0-1,0-1.8,0-2.1c0,0,0-1.4,0-1.6v-0.1v-0.1l0,0l0,0l0,0l0,0l0,0l0,0l0,0c0,0,0,0-0.1,0
				h-0.1c-0.1,0-0.3,0-0.4,0c-0.4,0-0.4,0-0.4,0l0,0c-0.3,0-0.4-0.1-0.4-0.1c-0.1-0.1-0.1-0.1-0.1-0.3c-0.1-0.3-0.1-0.5-0.1-0.9
				c0-0.3,0-0.4,0-0.5c0,0,0-0.4,0-1.2c0-2.8,0-2.8,0-2.8s-0.6-3.5-1.2-5.8l0,0l0,0c-0.6,0-0.8,0-1,0l0,0l0,0c0,0.4,0,0.8,0,1.2l0,0
				c-0.4,0-0.9-0.1-1.3-0.1c0.4,0.4,0.9,1,1.3,1.4l0,0l0,0l0,0c0,0.3,0,0.5,0,0.8c-0.4,0-0.9,0-1.3,0c0.4,0.4,0.9,1,1.3,1.4l0,0
				c0,1,0,1.8,0,2.2c0,0.1,0,0.5,0,1c0,0.3,0,0.5,0,0.8c0,0.5,0,1,0,1.3c0,0.4,0,0.9,0,1.4v2.7C113.2,283.5,113.2,286.4,113.2,287.3
				z"/>
		</g>
		<g>
			<path id="SVGID_7_" class="st40" d="M113.2,287.3c0,0.1,0,0.4,0.3,0.6c0,0,0.1,0.1,0.3,0.1c0.4,0.1,0.6-0.1,0.6-0.1
				s0.6-0.8,1-1.2c0.4-0.4,0.9-1,1.4-1.8c0-1,0-1.8,0-2.1c0,0,0-1.4,0-1.6v-0.1v-0.1l0,0l0,0l0,0l0,0l0,0l0,0l0,0c0,0,0,0-0.1,0
				h-0.1c-0.1,0-0.3,0-0.4,0c-0.4,0-0.4,0-0.4,0l0,0c-0.3,0-0.4-0.1-0.4-0.1c-0.1-0.1-0.1-0.1-0.1-0.3c-0.1-0.3-0.1-0.5-0.1-0.9
				c0-0.3,0-0.4,0-0.5c0,0,0-0.4,0-1.2c0-2.8,0-2.8,0-2.8s-0.6-3.5-1.2-5.8l0,0l0,0c-0.6,0-0.8,0-1,0l0,0l0,0c0,0.4,0,0.8,0,1.2l0,0
				c-0.4,0-0.9-0.1-1.3-0.1c0.4,0.4,0.9,1,1.3,1.4l0,0l0,0l0,0c0,0.3,0,0.5,0,0.8c-0.4,0-0.9,0-1.3,0c0.4,0.4,0.9,1,1.3,1.4l0,0
				c0,1,0,1.8,0,2.2c0,0.1,0,0.5,0,1c0,0.3,0,0.5,0,0.8c0,0.5,0,1,0,1.3c0,0.4,0,0.9,0,1.4v2.7C113.2,283.5,113.2,286.4,113.2,287.3
				z"/>
		</g>
	</g>
	<g>
		<g>
			<g>
				<g>
					<defs>
						<path id="SVGID_00000163768813454534068240000000611253708049093820_" d="M88,259.7h2.7c0,14,0,27.9,0,41.9
							c-0.4-0.1-1-0.3-1.6-0.4c-0.4-0.3-0.9-0.4-1.2-0.6C88,287,88,273.4,88,259.7z"/>
					</defs>
					<clipPath id="SVGID_00000065763909071873140210000005066622496990142870_">
						<use xlink:href="#SVGID_00000163768813454534068240000000611253708049093820_"  style="overflow:visible;"/>
					</clipPath>
					
						<g transform="matrix(1 6.617445e-24 -6.617445e-24 1 0 0)" style="clip-path:url(#SVGID_00000065763909071873140210000005066622496990142870_);">
						
							<image style="overflow:visible;enable-background:new    ;" width="600" height="600" xlink:href="../../background.jpg"  transform="matrix(0 0.3109 -0.3098 0 168.2494 267.6771)">
						</image>
					</g>
				</g>
			</g>
		</g>
	</g>
	<path id="SVGID_5_" class="st42" d="M88,259.7h2.7c0,14,0,27.9,0,41.9c-0.4-0.1-1-0.3-1.6-0.4c-0.4-0.3-0.9-0.4-1.2-0.6
		C88,287,88,273.4,88,259.7z"/>
	<g>
		<g>
			<g>
				<g>
					<path id="SVGID_184_" class="st40" d="M88,287.4c0,0.1,0,0.4-0.3,0.6c0,0-0.1,0.1-0.3,0.1c-0.4,0.1-0.6-0.1-0.6-0.1
						s-0.6-0.8-1-1.2c-0.4-0.4-0.9-1-1.4-1.8c0-1,0-1.8,0-2.1c0,0,0-1.4,0-1.6v-0.1v-0.1l0,0l0,0l0,0l0,0l0,0l0,0l0,0c0,0,0,0,0.1,0
						h0.1c0.1,0,0.3,0,0.4,0c0.4,0,0.4,0,0.4,0l0,0c0.3,0,0.4-0.1,0.4-0.1c0.1-0.1,0.1-0.1,0.1-0.3c0.1-0.3,0.1-0.5,0.1-0.9
						c0-0.3,0-0.4,0-0.5c0,0,0-0.4,0-1.2c0-2.8,0-2.8,0-2.8s0.6-3.5,1.2-5.8l0,0l0,0c0.6,0,0.8,0,1,0l0,0l0,0c0,0.4,0,0.8,0,1.2l0,0
						c0.4,0,0.9-0.1,1.3-0.1c-0.4,0.4-0.9,1-1.3,1.4l0,0l0,0l0,0c0,0.3,0,0.5,0,0.8c0.4,0,0.9,0,1.3,0c-0.4,0.4-0.9,1-1.3,1.4l0,0
						c0,1,0,1.8,0,2.2c0,0.1,0,0.5,0,1c0,0.3,0,0.5,0,0.8c0,0.5,0,1,0,1.3c0,0.4,0,0.9,0,1.4v2.7C88,283.5,88,286.4,88,287.4z"/>
				</g>
			</g>
			<g>
				<g>
					<defs>
						<path id="SVGID_00000019653056174842992560000004773113101190038167_" d="M88,287.4c0,0.1,0,0.4-0.3,0.6c0,0-0.1,0.1-0.3,0.1
							c-0.4,0.1-0.6-0.1-0.6-0.1s-0.6-0.8-1-1.2c-0.4-0.4-0.9-1-1.4-1.8c0-1,0-1.8,0-2.1c0,0,0-1.4,0-1.6v-0.1v-0.1l0,0l0,0l0,0l0,0
							l0,0l0,0l0,0c0,0,0,0,0.1,0h0.1c0.1,0,0.3,0,0.4,0c0.4,0,0.4,0,0.4,0l0,0c0.3,0,0.4-0.1,0.4-0.1c0.1-0.1,0.1-0.1,0.1-0.3
							c0.1-0.3,0.1-0.5,0.1-0.9c0-0.3,0-0.4,0-0.5c0,0,0-0.4,0-1.2c0-2.8,0-2.8,0-2.8s0.6-3.5,1.2-5.8l0,0l0,0c0.6,0,0.8,0,1,0l0,0
							l0,0c0,0.4,0,0.8,0,1.2l0,0c0.4,0,0.9-0.1,1.3-0.1c-0.4,0.4-0.9,1-1.3,1.4l0,0l0,0l0,0c0,0.3,0,0.5,0,0.8c0.4,0,0.9,0,1.3,0
							c-0.4,0.4-0.9,1-1.3,1.4l0,0c0,1,0,1.8,0,2.2c0,0.1,0,0.5,0,1c0,0.3,0,0.5,0,0.8c0,0.5,0,1,0,1.3c0,0.4,0,0.9,0,1.4v2.7
							C88,283.5,88,286.4,88,287.4z"/>
					</defs>
					<clipPath id="SVGID_00000079472867410300180340000014628500730762887313_">
						<use xlink:href="#SVGID_00000019653056174842992560000004773113101190038167_"  style="overflow:visible;"/>
					</clipPath>
				</g>
				<g>
					<defs>
						<path id="SVGID_00000026153536669218794140000000772949193700949673_" d="M88,287.4c0,0.1,0,0.4-0.3,0.6c0,0-0.1,0.1-0.3,0.1
							c-0.4,0.1-0.6-0.1-0.6-0.1s-0.6-0.8-1-1.2c-0.4-0.4-0.9-1-1.4-1.8c0-1,0-1.8,0-2.1c0,0,0-1.4,0-1.6v-0.1v-0.1l0,0l0,0l0,0l0,0
							l0,0l0,0l0,0c0,0,0,0,0.1,0h0.1c0.1,0,0.3,0,0.4,0c0.4,0,0.4,0,0.4,0l0,0c0.3,0,0.4-0.1,0.4-0.1c0.1-0.1,0.1-0.1,0.1-0.3
							c0.1-0.3,0.1-0.5,0.1-0.9c0-0.3,0-0.4,0-0.5c0,0,0-0.4,0-1.2c0-2.8,0-2.8,0-2.8s0.6-3.5,1.2-5.8l0,0l0,0c0.6,0,0.8,0,1,0l0,0
							l0,0c0,0.4,0,0.8,0,1.2l0,0c0.4,0,0.9-0.1,1.3-0.1c-0.4,0.4-0.9,1-1.3,1.4l0,0l0,0l0,0c0,0.3,0,0.5,0,0.8c0.4,0,0.9,0,1.3,0
							c-0.4,0.4-0.9,1-1.3,1.4l0,0c0,1,0,1.8,0,2.2c0,0.1,0,0.5,0,1c0,0.3,0,0.5,0,0.8c0,0.5,0,1,0,1.3c0,0.4,0,0.9,0,1.4v2.7
							C88,283.5,88,286.4,88,287.4z"/>
					</defs>
					<defs>
						<path id="SVGID_00000027569359993664218860000010871709280091419834_" d="M88,287.4c0,0.1,0,0.4-0.3,0.6c0,0-0.1,0.1-0.3,0.1
							c-0.4,0.1-0.6-0.1-0.6-0.1s-0.6-0.8-1-1.2c-0.4-0.4-0.9-1-1.4-1.8c0-1,0-1.8,0-2.1c0,0,0-1.4,0-1.6v-0.1v-0.1l0,0l0,0l0,0l0,0
							l0,0l0,0l0,0c0,0,0,0,0.1,0h0.1c0.1,0,0.3,0,0.4,0c0.4,0,0.4,0,0.4,0l0,0c0.3,0,0.4-0.1,0.4-0.1c0.1-0.1,0.1-0.1,0.1-0.3
							c0.1-0.3,0.1-0.5,0.1-0.9c0-0.3,0-0.4,0-0.5c0,0,0-0.4,0-1.2c0-2.8,0-2.8,0-2.8s0.6-3.5,1.2-5.8l0,0l0,0c0.6,0,0.8,0,1,0l0,0
							l0,0c0,0.4,0,0.8,0,1.2l0,0c0.4,0,0.9-0.1,1.3-0.1c-0.4,0.4-0.9,1-1.3,1.4l0,0l0,0l0,0c0,0.3,0,0.5,0,0.8c0.4,0,0.9,0,1.3,0
							c-0.4,0.4-0.9,1-1.3,1.4l0,0c0,1,0,1.8,0,2.2c0,0.1,0,0.5,0,1c0,0.3,0,0.5,0,0.8c0,0.5,0,1,0,1.3c0,0.4,0,0.9,0,1.4v2.7
							C88,283.5,88,286.4,88,287.4z"/>
					</defs>
					<clipPath id="SVGID_00000086683585748086277990000002638584969799607700_">
						<use xlink:href="#SVGID_00000026153536669218794140000000772949193700949673_"  style="overflow:visible;"/>
					</clipPath>
					
						<clipPath id="SVGID_00000139988513282586110500000003289667520655666574_" style="clip-path:url(#SVGID_00000086683585748086277990000002638584969799607700_);">
						<use xlink:href="#SVGID_00000027569359993664218860000010871709280091419834_"  style="overflow:visible;"/>
					</clipPath>
					
						<g transform="matrix(1 6.617445e-24 -6.617445e-24 1 0 0)" style="clip-path:url(#SVGID_00000139988513282586110500000003289667520655666574_);">
						
							<image style="overflow:visible;enable-background:new    ;" width="600" height="600" xlink:href="../../background.jpg"  transform="matrix(0 0.3109 -0.3098 0 167.6238 266.1072)">
						</image>
					</g>
				</g>
				<g>
					<path id="SVGID_186_" class="st40" d="M88,287.4c0,0.1,0,0.4-0.3,0.6c0,0-0.1,0.1-0.3,0.1c-0.4,0.1-0.6-0.1-0.6-0.1
						s-0.6-0.8-1-1.2c-0.4-0.4-0.9-1-1.4-1.8c0-1,0-1.8,0-2.1c0,0,0-1.4,0-1.6v-0.1v-0.1l0,0l0,0l0,0l0,0l0,0l0,0l0,0c0,0,0,0,0.1,0
						h0.1c0.1,0,0.3,0,0.4,0c0.4,0,0.4,0,0.4,0l0,0c0.3,0,0.4-0.1,0.4-0.1c0.1-0.1,0.1-0.1,0.1-0.3c0.1-0.3,0.1-0.5,0.1-0.9
						c0-0.3,0-0.4,0-0.5c0,0,0-0.4,0-1.2c0-2.8,0-2.8,0-2.8s0.6-3.5,1.2-5.8l0,0l0,0c0.6,0,0.8,0,1,0l0,0l0,0c0,0.4,0,0.8,0,1.2l0,0
						c0.4,0,0.9-0.1,1.3-0.1c-0.4,0.4-0.9,1-1.3,1.4l0,0l0,0l0,0c0,0.3,0,0.5,0,0.8c0.4,0,0.9,0,1.3,0c-0.4,0.4-0.9,1-1.3,1.4l0,0
						c0,1,0,1.8,0,2.2c0,0.1,0,0.5,0,1c0,0.3,0,0.5,0,0.8c0,0.5,0,1,0,1.3c0,0.4,0,0.9,0,1.4v2.7C88,283.5,88,286.4,88,287.4z"/>
				</g>
				<g>
					<path id="SVGID_187_" class="st40" d="M88,287.4c0,0.1,0,0.4-0.3,0.6c0,0-0.1,0.1-0.3,0.1c-0.4,0.1-0.6-0.1-0.6-0.1
						s-0.6-0.8-1-1.2c-0.4-0.4-0.9-1-1.4-1.8c0-1,0-1.8,0-2.1c0,0,0-1.4,0-1.6v-0.1v-0.1l0,0l0,0l0,0l0,0l0,0l0,0l0,0c0,0,0,0,0.1,0
						h0.1c0.1,0,0.3,0,0.4,0c0.4,0,0.4,0,0.4,0l0,0c0.3,0,0.4-0.1,0.4-0.1c0.1-0.1,0.1-0.1,0.1-0.3c0.1-0.3,0.1-0.5,0.1-0.9
						c0-0.3,0-0.4,0-0.5c0,0,0-0.4,0-1.2c0-2.8,0-2.8,0-2.8s0.6-3.5,1.2-5.8l0,0l0,0c0.6,0,0.8,0,1,0l0,0l0,0c0,0.4,0,0.8,0,1.2l0,0
						c0.4,0,0.9-0.1,1.3-0.1c-0.4,0.4-0.9,1-1.3,1.4l0,0l0,0l0,0c0,0.3,0,0.5,0,0.8c0.4,0,0.9,0,1.3,0c-0.4,0.4-0.9,1-1.3,1.4l0,0
						c0,1,0,1.8,0,2.2c0,0.1,0,0.5,0,1c0,0.3,0,0.5,0,0.8c0,0.5,0,1,0,1.3c0,0.4,0,0.9,0,1.4v2.7C88,283.5,88,286.4,88,287.4z"/>
				</g>
			</g>
		</g>
		<g>
			<path id="SVGID_4_" class="st40" d="M88,287.4c0,0.1,0,0.4-0.3,0.6c0,0-0.1,0.1-0.3,0.1c-0.4,0.1-0.6-0.1-0.6-0.1s-0.6-0.8-1-1.2
				c-0.4-0.4-0.9-1-1.4-1.8c0-1,0-1.8,0-2.1c0,0,0-1.4,0-1.6v-0.1v-0.1l0,0l0,0l0,0l0,0l0,0l0,0l0,0c0,0,0,0,0.1,0h0.1
				c0.1,0,0.3,0,0.4,0c0.4,0,0.4,0,0.4,0l0,0c0.3,0,0.4-0.1,0.4-0.1c0.1-0.1,0.1-0.1,0.1-0.3c0.1-0.3,0.1-0.5,0.1-0.9
				c0-0.3,0-0.4,0-0.5c0,0,0-0.4,0-1.2c0-2.8,0-2.8,0-2.8s0.6-3.5,1.2-5.8l0,0l0,0c0.6,0,0.8,0,1,0l0,0l0,0c0,0.4,0,0.8,0,1.2l0,0
				c0.4,0,0.9-0.1,1.3-0.1c-0.4,0.4-0.9,1-1.3,1.4l0,0l0,0l0,0c0,0.3,0,0.5,0,0.8c0.4,0,0.9,0,1.3,0c-0.4,0.4-0.9,1-1.3,1.4l0,0
				c0,1,0,1.8,0,2.2c0,0.1,0,0.5,0,1c0,0.3,0,0.5,0,0.8c0,0.5,0,1,0,1.3c0,0.4,0,0.9,0,1.4v2.7C88,283.5,88,286.4,88,287.4z"/>
		</g>
		<g>
			<path id="SVGID_3_" class="st40" d="M88,287.4c0,0.1,0,0.4-0.3,0.6c0,0-0.1,0.1-0.3,0.1c-0.4,0.1-0.6-0.1-0.6-0.1s-0.6-0.8-1-1.2
				c-0.4-0.4-0.9-1-1.4-1.8c0-1,0-1.8,0-2.1c0,0,0-1.4,0-1.6v-0.1v-0.1l0,0l0,0l0,0l0,0l0,0l0,0l0,0c0,0,0,0,0.1,0h0.1
				c0.1,0,0.3,0,0.4,0c0.4,0,0.4,0,0.4,0l0,0c0.3,0,0.4-0.1,0.4-0.1c0.1-0.1,0.1-0.1,0.1-0.3c0.1-0.3,0.1-0.5,0.1-0.9
				c0-0.3,0-0.4,0-0.5c0,0,0-0.4,0-1.2c0-2.8,0-2.8,0-2.8s0.6-3.5,1.2-5.8l0,0l0,0c0.6,0,0.8,0,1,0l0,0l0,0c0,0.4,0,0.8,0,1.2l0,0
				c0.4,0,0.9-0.1,1.3-0.1c-0.4,0.4-0.9,1-1.3,1.4l0,0l0,0l0,0c0,0.3,0,0.5,0,0.8c0.4,0,0.9,0,1.3,0c-0.4,0.4-0.9,1-1.3,1.4l0,0
				c0,1,0,1.8,0,2.2c0,0.1,0,0.5,0,1c0,0.3,0,0.5,0,0.8c0,0.5,0,1,0,1.3c0,0.4,0,0.9,0,1.4v2.7C88,283.5,88,286.4,88,287.4z"/>
		</g>
	</g>
</g>
<g>
	<path class="st31" d="M47.9,190.8c-0.5,1-1.2,2.1-1.7,3.1c-0.6-1-1.2-2.2-1.8-3.2c-0.5,1-1.2,2.2-1.7,3.2c-0.6-1-1.3-2.1-1.8-3.1
		c-0.5,1-1,2.1-1.7,3.1c-0.6-1-1.4-2.1-2.1-3.1c-0.5,1.2-0.9,2.3-1.4,3.4c-0.6-1.4-1.3-2.7-1.9-4.1c-0.6,1.2-1.8,3.4-1.8,3.4
		c-0.5-0.9-1-1.8-1.6-2.7c-0.8,1-1.7,2.2-2.5,3.2c0,0,0,0-0.3,0c-0.5,0-1,0-1.6,0c-0.8,0-1.6,0-2.3,0c-0.3,0-0.5,0-0.8,0
		c0,0,0,1.2,0,1.6c0,0.5,0,0.9,0,1.4c-1.6,1.3-4.8,4-4.7,4h-0.1v29.5c0.3,0.1,3.2,2.7,4.8,4c0,0.4,0,0.9,0,1.4c0,0.4,0,1.6,0,1.6
		c0.3,0,0.5,0,0.8,0c0.8,0,1.6,0,2.3,0c0.5,0,1,0,1.6,0c0.3,0,0.3,0,0.3,0c0.4,0.3,0.8,0.5,1.2,0.9c0.6,0.5,1,1.2,1.3,1.6
		c0.1-0.4,0.4-0.6,0.6-1c0.4-0.6,0.8-1.2,1.2-1.7c0.5,1,1,2.2,1.6,3.2c0.5-1.2,1-2.5,1.6-3.6c0.5,1.3,1,2.6,1.6,3.7l2.1-3.1l1.7,3.1
		l1.8-3.2l1.7,3.2c0.6-1,1.8-3.1,1.8-3.1l1.8,3.1c0.6-1,1.8-3,1.8-3v1v7l-1.2,6.1H9.9c-0.4-0.9-0.6-2.1-0.9-3.4
		c-0.3-1.3-0.4-2.6-0.4-3.6c0-4.8,0-9.4,0-14.3v-30v-10.5c-0.1-1.6-0.3-3.6,0.1-5.9c0.3-1.7,0.6-3.1,1.2-4.3c12.8,0,25.6,0,38.4,0
		c0.4,1.2,0.6,2.6,0.9,4c0.3,1.3,0.3,2.5,0.4,3.6c0,2.1,0,4,0.1,6.1c0,0.6-0.1,1.3-0.1,1.9C49,194,48.4,192.4,47.9,190.8z"/>
	<path class="st32" d="M24.5,197.3c-0.8,0.9-2.3,2.7-4.8,3.4c-0.5,0.1-1,0.3-1.4,0.3c1.6-1.3,3.2-2.7,4.8-4c0-0.4,0-0.9,0-1.4
		c0-0.4,0-1.6,0-1.6c0.3,0,0.5,0,0.8,0c0.8,0,1.6,0,2.3,0c0.5,0,1,0,1.6,0c0.3,0,0.3,0,0.3,0s1.6-1.9,2.2-2.7
		c0.3,0.4,0.5,0.9,0.9,1.4c0.3,0.5,0.5,0.9,0.6,1.3c0.6-1.2,1.3-2.3,1.8-3.5c0.5,1.2,1.2,2.3,1.7,3.5c-0.5,0.4-1,0.6-1.6,1
		c0,1.4,0,2.8,0,4.3c-0.4,0.1-0.9,0.1-1.3,0.3C29.8,198.9,27.3,198.1,24.5,197.3z"/>
	<polygon class="st33" points="42.5,199.2 48.3,200.5 42.5,200.5 	"/>
	<path class="st32" d="M24.5,233.8c-0.8-0.9-2.3-2.7-4.8-3.4c-0.5-0.1-1-0.3-1.4-0.3c1.6,1.3,3.2,2.7,4.8,4c0,0.4,0,0.9,0,1.4l0,0
		c0,0.4,0,1.6,0,1.6l0,0l0,0c0.3,0,0.5,0,0.8,0c0.8,0,1.6,0,2.3,0c0.5,0,1,0,1.6,0c0.3,0,0.3,0,0.3,0s1.6,1.9,2.2,2.7
		c0.5-0.9,1.2-1.9,1.7-2.8l1.8,3.4l1.7-3.4c-0.5-0.4-1-0.6-1.6-1c0-1.4,0-2.8,0-4.3c-0.4-0.1-0.9-0.1-1.3-0.3
		C29.8,232.2,27.3,233,24.5,233.8z"/>
	<polygon class="st33" points="42.5,231.7 48.3,230.5 42.5,230.5 	"/>
	<path class="st34" d="M50,237c-0.6,1.2-1.4,2.3-2.1,3.5l-1.7-3.1l-1.8,3.1l-1.7-3.1l-1.8,3.1l-1.7-3.1l-2.1,3.1
		c-0.5-1.2-0.9-2.3-1.4-3.5c-0.4,0-0.8,0-1,0"/>
	<path class="st33" d="M34.1,236.2c-0.1,0.1-0.3,0.4-0.4,0.5v0.6c0.6,0.3,1.2,0.5,1.8,0.8c0-0.5,0.1-1.2,0.1-1.7
		C35.1,236.3,34.6,236.3,34.1,236.2z"/>
	<path class="st34" d="M49.6,195.2c-0.1-0.8-0.4-1.7-0.6-2.6c-0.3-0.8-0.5-1.4-0.8-2.1c-0.6,1-1.3,2.2-1.9,3.2
		c-0.6-1-1.3-2.1-1.9-3.1c-0.6,1-1.2,2.1-1.8,3.1c-0.5-1-1.2-2.2-1.7-3.2c-0.6,1-1.2,2.1-1.8,3.1c-0.6-1-1.2-2.1-1.8-3.1
		c-0.5,1.2-0.9,2.3-1.4,3.4c-0.1,0-0.1,0-0.3,0"/>
	<path class="st33" d="M35.3,192.9c-0.5,0.3-1,0.6-1.4,0.9v0.5c0.4,0.3,1,0.5,1.7,0.4h0.1c0-0.5,0-1,0-1.4
		C35.5,193,35.4,192.9,35.3,192.9z"/>
	<g>
		<g>
			<g>
				<g>
					<defs>
						<path id="SVGID_00000053531738144703545490000004484486578193546387_" d="M53.7,230.5v-3.2c-15.9,0-31.9,0-47.8,0
							c-0.1,0.4-0.3,0.8-0.4,1.3c-0.3,0.8-0.5,1.4-0.8,2.1C21.2,230.5,37.5,230.5,53.7,230.5z"/>
					</defs>
					<clipPath id="SVGID_00000080166438820479484130000017368750263851496895_">
						<use xlink:href="#SVGID_00000053531738144703545490000004484486578193546387_"  style="overflow:visible;"/>
					</clipPath>
					<g transform="matrix(1 0 0 1 0 0)" style="clip-path:url(#SVGID_00000080166438820479484130000017368750263851496895_);">
						
							<image style="overflow:visible;enable-background:new    ;" width="600" height="600" xlink:href="../../background.jpg"  transform="matrix(-0.3715 0 0 -0.3694 42.7228 291.4214)">
						</image>
					</g>
				</g>
			</g>
		</g>
	</g>
	<g class="st36">
		<path id="SVGID_17_" class="st37" d="M53.7,230.5v-3.2c-15.9,0-31.9,0-47.8,0c-0.1,0.4-0.3,0.8-0.4,1.3c-0.3,0.8-0.5,1.4-0.8,2.1
			C21.2,230.5,37.5,230.5,53.7,230.5z"/>
	</g>
	<g>
		<g>
			<g>
				<g>
					<defs>
						<path id="SVGID_00000067933156994472862440000001853971472912777902_" d="M21,230.5c-0.1,0-0.5,0-0.8,0.3c0,0-0.1,0.1-0.1,0.3
							c-0.1,0.4,0.1,0.8,0.1,0.8s0.9,0.8,1.4,1.2s1.2,1,2.1,1.7c1.3,0,2.1,0,2.5,0c0,0,1.7,0,1.8,0h0.1h0.1l0,0l0,0l0,0l0,0l0,0l0,0
							l0,0c0,0,0,0,0-0.1v-0.1c0-0.1,0-0.3,0-0.4c0-0.4,0-0.4,0-0.4l0,0c0-0.3,0.1-0.4,0.1-0.4c0.1-0.1,0.1-0.1,0.3-0.1
							c0.3-0.1,0.6-0.1,1-0.1c0.3,0,0.4,0,0.6,0c0,0,0.5,0,1.4,0c3.4,0,3.4,0,3.4,0s4.1-0.8,7-1.4l0,0l0,0c0-0.8,0-0.9,0-1.2l0,0
							l0,0c-0.5,0-0.9,0-1.4,0l0,0c0-0.5,0.1-1,0.1-1.6c-0.5,0.5-1.2,1-1.7,1.6l0,0l0,0l0,0c-0.3,0-0.6,0-0.9,0c0-0.5,0-1,0-1.6
							c-0.5,0.5-1.2,1-1.7,1.6l0,0c-1.3,0-2.1,0-2.6,0c-0.1,0-0.6,0-1.3,0c-0.3,0-0.6,0-0.9,0c-0.6,0-1.2,0-1.6,0c-0.5,0-1,0-1.7,0
							h-3.2C25.6,230.5,22.2,230.5,21,230.5z"/>
					</defs>
					<clipPath id="SVGID_00000023274984816374583790000018279959930343197336_">
						<use xlink:href="#SVGID_00000067933156994472862440000001853971472912777902_"  style="overflow:visible;"/>
					</clipPath>
				</g>
				<g>
					<defs>
						<path id="SVGID_00000041297122707847195000000015814056901108812947_" d="M21,230.5c-0.1,0-0.5,0-0.8,0.3c0,0-0.1,0.1-0.1,0.3
							c-0.1,0.4,0.1,0.8,0.1,0.8s0.9,0.8,1.4,1.2c0.5,0.4,1.2,1,2.1,1.7c1.3,0,2.1,0,2.5,0c0,0,1.7,0,1.8,0h0.1h0.1l0,0l0,0l0,0l0,0
							l0,0l0,0l0,0c0,0,0,0,0-0.1v-0.1c0-0.1,0-0.3,0-0.4c0-0.4,0-0.4,0-0.4l0,0c0-0.3,0.1-0.4,0.1-0.4c0.1-0.1,0.1-0.1,0.3-0.1
							c0.3-0.1,0.6-0.1,1-0.1c0.3,0,0.4,0,0.6,0c0,0,0.5,0,1.4,0c3.4,0,3.4,0,3.4,0s4.1-0.8,7-1.4l0,0l0,0c0-0.8,0-0.9,0-1.2l0,0
							l0,0c-0.5,0-0.9,0-1.4,0l0,0c0-0.5,0.1-1,0.1-1.6c-0.5,0.5-1.2,1-1.7,1.6l0,0l0,0l0,0c-0.3,0-0.6,0-0.9,0c0-0.5,0-1,0-1.6
							c-0.5,0.5-1.2,1-1.7,1.6l0,0c-1.3,0-2.1,0-2.6,0c-0.1,0-0.6,0-1.3,0c-0.3,0-0.6,0-0.9,0c-0.6,0-1.2,0-1.6,0c-0.5,0-1,0-1.7,0
							h-3.2C25.6,230.5,22.2,230.5,21,230.5z"/>
					</defs>
					<defs>
						<path id="SVGID_00000043426612636377565390000008743311649189714305_" d="M21,230.5c-0.1,0-0.5,0-0.8,0.3c0,0-0.1,0.1-0.1,0.3
							c-0.1,0.4,0.1,0.8,0.1,0.8s0.9,0.8,1.4,1.2c0.5,0.4,1.2,1,2.1,1.7c1.3,0,2.1,0,2.5,0c0,0,1.7,0,1.8,0h0.1h0.1l0,0l0,0l0,0l0,0
							l0,0l0,0l0,0c0,0,0,0,0-0.1v-0.1c0-0.1,0-0.3,0-0.4c0-0.4,0-0.4,0-0.4l0,0c0-0.3,0.1-0.4,0.1-0.4c0.1-0.1,0.1-0.1,0.3-0.1
							c0.3-0.1,0.6-0.1,1-0.1c0.3,0,0.4,0,0.6,0c0,0,0.5,0,1.4,0c3.4,0,3.4,0,3.4,0s4.1-0.8,7-1.4l0,0l0,0c0-0.8,0-0.9,0-1.2l0,0
							l0,0c-0.5,0-0.9,0-1.4,0l0,0c0-0.5,0.1-1,0.1-1.6c-0.5,0.5-1.2,1-1.7,1.6l0,0l0,0l0,0c-0.3,0-0.6,0-0.9,0c0-0.5,0-1,0-1.6
							c-0.5,0.5-1.2,1-1.7,1.6l0,0c-1.3,0-2.1,0-2.6,0c-0.1,0-0.6,0-1.3,0c-0.3,0-0.6,0-0.9,0c-0.6,0-1.2,0-1.6,0c-0.5,0-1,0-1.7,0
							h-3.2C25.6,230.5,22.2,230.5,21,230.5z"/>
					</defs>
					<clipPath id="SVGID_00000074432032238099233920000003754217189199934397_">
						<use xlink:href="#SVGID_00000041297122707847195000000015814056901108812947_"  style="overflow:visible;"/>
					</clipPath>
					
						<clipPath id="SVGID_00000109708674452298384270000003887943685653420966_" style="clip-path:url(#SVGID_00000074432032238099233920000003754217189199934397_);">
						<use xlink:href="#SVGID_00000043426612636377565390000008743311649189714305_"  style="overflow:visible;"/>
					</clipPath>
					
						<g transform="matrix(1 0 0 1 -3.814697e-06 0)" style="clip-path:url(#SVGID_00000109708674452298384270000003887943685653420966_);">
						
							<image style="overflow:visible;enable-background:new    ;" width="600" height="600" xlink:href="../../background.jpg"  transform="matrix(-0.3715 0 0 -0.3694 52.4768 290.0532)">
						</image>
					</g>
				</g>
			</g>
		</g>
		<g>
			<path id="SVGID_16_" class="st40" d="M21,230.5c-0.1,0-0.5,0-0.8,0.3c0,0-0.1,0.1-0.1,0.3c-0.1,0.4,0.1,0.8,0.1,0.8
				s0.9,0.8,1.4,1.2s1.2,1,2.1,1.7c1.3,0,2.1,0,2.5,0c0,0,1.7,0,1.8,0h0.1h0.1l0,0l0,0l0,0l0,0l0,0l0,0l0,0c0,0,0,0,0-0.1v-0.1
				c0-0.1,0-0.3,0-0.4c0-0.4,0-0.4,0-0.4l0,0c0-0.3,0.1-0.4,0.1-0.4c0.1-0.1,0.1-0.1,0.3-0.1c0.3-0.1,0.6-0.1,1-0.1
				c0.3,0,0.4,0,0.6,0c0,0,0.5,0,1.4,0c3.4,0,3.4,0,3.4,0s4.1-0.8,7-1.4l0,0l0,0c0-0.8,0-0.9,0-1.2l0,0l0,0c-0.5,0-0.9,0-1.4,0l0,0
				c0-0.5,0.1-1,0.1-1.6c-0.5,0.5-1.2,1-1.7,1.6l0,0l0,0l0,0c-0.3,0-0.6,0-0.9,0c0-0.5,0-1,0-1.6c-0.5,0.5-1.2,1-1.7,1.6l0,0
				c-1.3,0-2.1,0-2.6,0c-0.1,0-0.6,0-1.3,0c-0.3,0-0.6,0-0.9,0c-0.6,0-1.2,0-1.6,0c-0.5,0-1,0-1.7,0h-3.2
				C25.6,230.5,22.2,230.5,21,230.5z"/>
		</g>
		<g>
			<path id="SVGID_15_" class="st40" d="M21,230.5c-0.1,0-0.5,0-0.8,0.3c0,0-0.1,0.1-0.1,0.3c-0.1,0.4,0.1,0.8,0.1,0.8
				s0.9,0.8,1.4,1.2s1.2,1,2.1,1.7c1.3,0,2.1,0,2.5,0c0,0,1.7,0,1.8,0h0.1h0.1l0,0l0,0l0,0l0,0l0,0l0,0l0,0c0,0,0,0,0-0.1v-0.1
				c0-0.1,0-0.3,0-0.4c0-0.4,0-0.4,0-0.4l0,0c0-0.3,0.1-0.4,0.1-0.4c0.1-0.1,0.1-0.1,0.3-0.1c0.3-0.1,0.6-0.1,1-0.1
				c0.3,0,0.4,0,0.6,0c0,0,0.5,0,1.4,0c3.4,0,3.4,0,3.4,0s4.1-0.8,7-1.4l0,0l0,0c0-0.8,0-0.9,0-1.2l0,0l0,0c-0.5,0-0.9,0-1.4,0l0,0
				c0-0.5,0.1-1,0.1-1.6c-0.5,0.5-1.2,1-1.7,1.6l0,0l0,0l0,0c-0.3,0-0.6,0-0.9,0c0-0.5,0-1,0-1.6c-0.5,0.5-1.2,1-1.7,1.6l0,0
				c-1.3,0-2.1,0-2.6,0c-0.1,0-0.6,0-1.3,0c-0.3,0-0.6,0-0.9,0c-0.6,0-1.2,0-1.6,0c-0.5,0-1,0-1.7,0h-3.2
				C25.6,230.5,22.2,230.5,21,230.5z"/>
		</g>
	</g>
	<g>
		<g>
			<g>
				<g>
					<defs>
						<path id="SVGID_00000039821200655590523920000013740838464531254670_" d="M53.7,200.5v3.2c-16.7,0-33.3,0-50,0
							c0.1-0.5,0.3-1.2,0.5-1.8c0.3-0.5,0.5-1,0.8-1.4C21.4,200.5,37.6,200.5,53.7,200.5z"/>
					</defs>
					<clipPath id="SVGID_00000026847584429679197130000012725376893620618173_">
						<use xlink:href="#SVGID_00000039821200655590523920000013740838464531254670_"  style="overflow:visible;"/>
					</clipPath>
					<g transform="matrix(1 0 0 1 0 0)" style="clip-path:url(#SVGID_00000026847584429679197130000012725376893620618173_);">
						
							<image style="overflow:visible;enable-background:new    ;" width="600" height="600" xlink:href="../../background.jpg"  transform="matrix(-0.3715 0 0 -0.3694 41.3472 291.4214)">
						</image>
					</g>
				</g>
			</g>
		</g>
	</g>
	<path id="SVGID_13_" class="st42" d="M53.7,200.5v3.2c-16.7,0-33.3,0-50,0c0.1-0.5,0.3-1.2,0.5-1.8c0.3-0.5,0.5-1,0.8-1.4
		C21.4,200.5,37.6,200.5,53.7,200.5z"/>
	<g>
		<g>
			<g>
				<g>
					<path id="SVGID_200_" class="st40" d="M20.9,200.4c-0.1,0-0.5,0-0.8-0.3c0,0-0.1-0.1-0.1-0.3c-0.1-0.4,0.1-0.8,0.1-0.8
						s0.9-0.8,1.4-1.2c0.5-0.4,1.2-1,2.1-1.7c1.3,0,2.1,0,2.5,0c0,0,1.7,0,1.8,0H28h0.1l0,0l0,0l0,0l0,0l0,0l0,0l0,0c0,0,0,0,0,0.1
						v0.1c0,0.1,0,0.3,0,0.4c0,0.4,0,0.4,0,0.4l0,0c0,0.3,0.1,0.4,0.1,0.4c0.1,0.1,0.1,0.1,0.3,0.1c0.3,0.1,0.6,0.1,1,0.1
						c0.3,0,0.4,0,0.6,0c0,0,0.5,0,1.4,0c3.5,0,3.5,0,3.5,0s4.3,0.8,7,1.4l0,0l0,0c0,0.8,0,0.9,0,1.2l0,0l0,0c-0.5,0-0.9,0-1.4,0
						l0,0c0,0.5,0.1,1,0.1,1.6c-0.5-0.5-1.2-1-1.7-1.6l0,0l0,0l0,0c-0.3,0-0.6,0-0.9,0c0,0.5,0,1,0,1.6c-0.5-0.5-1.2-1-1.7-1.6l0,0
						c-1.3,0-2.1,0-2.6,0c-0.1,0-0.6,0-1.3,0c-0.3,0-0.6,0-0.9,0c-0.6,0-1.2,0-1.6,0c-0.5,0-1,0-1.7,0h-3.4
						C25.6,200.4,22.1,200.4,20.9,200.4z"/>
				</g>
			</g>
			<g>
				<g>
					<defs>
						<path id="SVGID_00000080197190445794654240000018435665265079574677_" d="M20.9,200.4c-0.1,0-0.5,0-0.8-0.3
							c0,0-0.1-0.1-0.1-0.3c-0.1-0.4,0.1-0.8,0.1-0.8s0.9-0.8,1.4-1.2c0.5-0.4,1.2-1,2.1-1.7c1.3,0,2.1,0,2.5,0c0,0,1.7,0,1.8,0H28
							h0.1l0,0l0,0l0,0l0,0l0,0l0,0l0,0c0,0,0,0,0,0.1v0.1c0,0.1,0,0.3,0,0.4c0,0.4,0,0.4,0,0.4l0,0c0,0.3,0.1,0.4,0.1,0.4
							c0.1,0.1,0.1,0.1,0.3,0.1c0.3,0.1,0.6,0.1,1,0.1c0.3,0,0.4,0,0.6,0c0,0,0.5,0,1.4,0c3.5,0,3.5,0,3.5,0s4.3,0.8,7,1.4l0,0l0,0
							c0,0.8,0,0.9,0,1.2l0,0l0,0c-0.5,0-0.9,0-1.4,0l0,0c0,0.5,0.1,1,0.1,1.6c-0.5-0.5-1.2-1-1.7-1.6l0,0l0,0l0,0
							c-0.3,0-0.6,0-0.9,0c0,0.5,0,1,0,1.6c-0.5-0.5-1.2-1-1.7-1.6l0,0c-1.3,0-2.1,0-2.6,0c-0.1,0-0.6,0-1.3,0c-0.3,0-0.6,0-0.9,0
							c-0.6,0-1.2,0-1.6,0c-0.5,0-1,0-1.7,0h-3.4C25.6,200.4,22.1,200.4,20.9,200.4z"/>
					</defs>
					<clipPath id="SVGID_00000012453852845954379770000014732961807024430244_">
						<use xlink:href="#SVGID_00000080197190445794654240000018435665265079574677_"  style="overflow:visible;"/>
					</clipPath>
				</g>
				<g>
					<defs>
						<path id="SVGID_00000160896758505998066760000003233758263377310874_" d="M20.9,200.4c-0.1,0-0.5,0-0.8-0.3
							c0,0-0.1-0.1-0.1-0.3c-0.1-0.4,0.1-0.8,0.1-0.8s0.9-0.8,1.4-1.2c0.5-0.4,1.2-1,2.1-1.7c1.3,0,2.1,0,2.5,0c0,0,1.7,0,1.8,0H28
							h0.1l0,0l0,0l0,0l0,0l0,0l0,0l0,0c0,0,0,0,0,0.1v0.1c0,0.1,0,0.3,0,0.4c0,0.4,0,0.4,0,0.4l0,0c0,0.3,0.1,0.4,0.1,0.4
							c0.1,0.1,0.1,0.1,0.3,0.1c0.3,0.1,0.6,0.1,1,0.1c0.3,0,0.4,0,0.6,0c0,0,0.5,0,1.4,0c3.5,0,3.5,0,3.5,0s4.3,0.8,7,1.4l0,0l0,0
							c0,0.8,0,0.9,0,1.2l0,0l0,0c-0.5,0-0.9,0-1.4,0l0,0c0,0.5,0.1,1,0.1,1.6c-0.5-0.5-1.2-1-1.7-1.6l0,0l0,0l0,0
							c-0.3,0-0.6,0-0.9,0c0,0.5,0,1,0,1.6c-0.5-0.5-1.2-1-1.7-1.6l0,0c-1.3,0-2.1,0-2.6,0c-0.1,0-0.6,0-1.3,0c-0.3,0-0.6,0-0.9,0
							c-0.6,0-1.2,0-1.6,0c-0.5,0-1,0-1.7,0h-3.4C25.6,200.4,22.1,200.4,20.9,200.4z"/>
					</defs>
					<defs>
						<path id="SVGID_00000124881421096016861720000017472834805743295639_" d="M20.9,200.4c-0.1,0-0.5,0-0.8-0.3
							c0,0-0.1-0.1-0.1-0.3c-0.1-0.4,0.1-0.8,0.1-0.8s0.9-0.8,1.4-1.2c0.5-0.4,1.2-1,2.1-1.7c1.3,0,2.1,0,2.5,0c0,0,1.7,0,1.8,0H28
							h0.1l0,0l0,0l0,0l0,0l0,0l0,0l0,0c0,0,0,0,0,0.1v0.1c0,0.1,0,0.3,0,0.4c0,0.4,0,0.4,0,0.4l0,0c0,0.3,0.1,0.4,0.1,0.4
							c0.1,0.1,0.1,0.1,0.3,0.1c0.3,0.1,0.6,0.1,1,0.1c0.3,0,0.4,0,0.6,0c0,0,0.5,0,1.4,0c3.5,0,3.5,0,3.5,0s4.3,0.8,7,1.4l0,0l0,0
							c0,0.8,0,0.9,0,1.2l0,0l0,0c-0.5,0-0.9,0-1.4,0l0,0c0,0.5,0.1,1,0.1,1.6c-0.5-0.5-1.2-1-1.7-1.6l0,0l0,0l0,0
							c-0.3,0-0.6,0-0.9,0c0,0.5,0,1,0,1.6c-0.5-0.5-1.2-1-1.7-1.6l0,0c-1.3,0-2.1,0-2.6,0c-0.1,0-0.6,0-1.3,0c-0.3,0-0.6,0-0.9,0
							c-0.6,0-1.2,0-1.6,0c-0.5,0-1,0-1.7,0h-3.4C25.6,200.4,22.1,200.4,20.9,200.4z"/>
					</defs>
					<clipPath id="SVGID_00000023251713479645505230000004287654458093879473_">
						<use xlink:href="#SVGID_00000160896758505998066760000003233758263377310874_"  style="overflow:visible;"/>
					</clipPath>
					
						<clipPath id="SVGID_00000037692184678893970780000003560456663941981081_" style="clip-path:url(#SVGID_00000023251713479645505230000004287654458093879473_);">
						<use xlink:href="#SVGID_00000124881421096016861720000017472834805743295639_"  style="overflow:visible;"/>
					</clipPath>
					<g transform="matrix(1 0 0 1 0 0)" style="clip-path:url(#SVGID_00000037692184678893970780000003560456663941981081_);">
						
							<image style="overflow:visible;enable-background:new    ;" width="600" height="600" xlink:href="../../background.jpg"  transform="matrix(-0.376 0 0 -0.3694 43.5034 290.6752)">
						</image>
					</g>
				</g>
				<g>
					<path id="SVGID_202_" class="st40" d="M20.9,200.4c-0.1,0-0.5,0-0.8-0.3c0,0-0.1-0.1-0.1-0.3c-0.1-0.4,0.1-0.8,0.1-0.8
						s0.9-0.8,1.4-1.2c0.5-0.4,1.2-1,2.1-1.7c1.3,0,2.1,0,2.5,0c0,0,1.7,0,1.8,0H28h0.1l0,0l0,0l0,0l0,0l0,0l0,0l0,0c0,0,0,0,0,0.1
						v0.1c0,0.1,0,0.3,0,0.4c0,0.4,0,0.4,0,0.4l0,0c0,0.3,0.1,0.4,0.1,0.4c0.1,0.1,0.1,0.1,0.3,0.1c0.3,0.1,0.6,0.1,1,0.1
						c0.3,0,0.4,0,0.6,0c0,0,0.5,0,1.4,0c3.5,0,3.5,0,3.5,0s4.3,0.8,7,1.4l0,0l0,0c0,0.8,0,0.9,0,1.2l0,0l0,0c-0.5,0-0.9,0-1.4,0
						l0,0c0,0.5,0.1,1,0.1,1.6c-0.5-0.5-1.2-1-1.7-1.6l0,0l0,0l0,0c-0.3,0-0.6,0-0.9,0c0,0.5,0,1,0,1.6c-0.5-0.5-1.2-1-1.7-1.6l0,0
						c-1.3,0-2.1,0-2.6,0c-0.1,0-0.6,0-1.3,0c-0.3,0-0.6,0-0.9,0c-0.6,0-1.2,0-1.6,0c-0.5,0-1,0-1.7,0h-3.4
						C25.6,200.4,22.1,200.4,20.9,200.4z"/>
				</g>
				<g>
					<path id="SVGID_203_" class="st40" d="M20.9,200.4c-0.1,0-0.5,0-0.8-0.3c0,0-0.1-0.1-0.1-0.3c-0.1-0.4,0.1-0.8,0.1-0.8
						s0.9-0.8,1.4-1.2c0.5-0.4,1.2-1,2.1-1.7c1.3,0,2.1,0,2.5,0c0,0,1.7,0,1.8,0H28h0.1l0,0l0,0l0,0l0,0l0,0l0,0l0,0c0,0,0,0,0,0.1
						v0.1c0,0.1,0,0.3,0,0.4c0,0.4,0,0.4,0,0.4l0,0c0,0.3,0.1,0.4,0.1,0.4c0.1,0.1,0.1,0.1,0.3,0.1c0.3,0.1,0.6,0.1,1,0.1
						c0.3,0,0.4,0,0.6,0c0,0,0.5,0,1.4,0c3.5,0,3.5,0,3.5,0s4.3,0.8,7,1.4l0,0l0,0c0,0.8,0,0.9,0,1.2l0,0l0,0c-0.5,0-0.9,0-1.4,0
						l0,0c0,0.5,0.1,1,0.1,1.6c-0.5-0.5-1.2-1-1.7-1.6l0,0l0,0l0,0c-0.3,0-0.6,0-0.9,0c0,0.5,0,1,0,1.6c-0.5-0.5-1.2-1-1.7-1.6l0,0
						c-1.3,0-2.1,0-2.6,0c-0.1,0-0.6,0-1.3,0c-0.3,0-0.6,0-0.9,0c-0.6,0-1.2,0-1.6,0c-0.5,0-1,0-1.7,0h-3.4
						C25.6,200.4,22.1,200.4,20.9,200.4z"/>
				</g>
			</g>
		</g>
		<g>
			<path id="SVGID_12_" class="st40" d="M20.9,200.4c-0.1,0-0.5,0-0.8-0.3c0,0-0.1-0.1-0.1-0.3c-0.1-0.4,0.1-0.8,0.1-0.8
				s0.9-0.8,1.4-1.2c0.5-0.4,1.2-1,2.1-1.7c1.3,0,2.1,0,2.5,0c0,0,1.7,0,1.8,0H28h0.1l0,0l0,0l0,0l0,0l0,0l0,0l0,0c0,0,0,0,0,0.1
				v0.1c0,0.1,0,0.3,0,0.4c0,0.4,0,0.4,0,0.4l0,0c0,0.3,0.1,0.4,0.1,0.4c0.1,0.1,0.1,0.1,0.3,0.1c0.3,0.1,0.6,0.1,1,0.1
				c0.3,0,0.4,0,0.6,0c0,0,0.5,0,1.4,0c3.5,0,3.5,0,3.5,0s4.3,0.8,7,1.4l0,0l0,0c0,0.8,0,0.9,0,1.2l0,0l0,0c-0.5,0-0.9,0-1.4,0l0,0
				c0,0.5,0.1,1,0.1,1.6c-0.5-0.5-1.2-1-1.7-1.6l0,0l0,0l0,0c-0.3,0-0.6,0-0.9,0c0,0.5,0,1,0,1.6c-0.5-0.5-1.2-1-1.7-1.6l0,0
				c-1.3,0-2.1,0-2.6,0c-0.1,0-0.6,0-1.3,0c-0.3,0-0.6,0-0.9,0c-0.6,0-1.2,0-1.6,0c-0.5,0-1,0-1.7,0h-3.4
				C25.6,200.4,22.1,200.4,20.9,200.4z"/>
		</g>
		<g>
			<path id="SVGID_11_" class="st40" d="M20.9,200.4c-0.1,0-0.5,0-0.8-0.3c0,0-0.1-0.1-0.1-0.3c-0.1-0.4,0.1-0.8,0.1-0.8
				s0.9-0.8,1.4-1.2c0.5-0.4,1.2-1,2.1-1.7c1.3,0,2.1,0,2.5,0c0,0,1.7,0,1.8,0H28h0.1l0,0l0,0l0,0l0,0l0,0l0,0l0,0c0,0,0,0,0,0.1
				v0.1c0,0.1,0,0.3,0,0.4c0,0.4,0,0.4,0,0.4l0,0c0,0.3,0.1,0.4,0.1,0.4c0.1,0.1,0.1,0.1,0.3,0.1c0.3,0.1,0.6,0.1,1,0.1
				c0.3,0,0.4,0,0.6,0c0,0,0.5,0,1.4,0c3.5,0,3.5,0,3.5,0s4.3,0.8,7,1.4l0,0l0,0c0,0.8,0,0.9,0,1.2l0,0l0,0c-0.5,0-0.9,0-1.4,0l0,0
				c0,0.5,0.1,1,0.1,1.6c-0.5-0.5-1.2-1-1.7-1.6l0,0l0,0l0,0c-0.3,0-0.6,0-0.9,0c0,0.5,0,1,0,1.6c-0.5-0.5-1.2-1-1.7-1.6l0,0
				c-1.3,0-2.1,0-2.6,0c-0.1,0-0.6,0-1.3,0c-0.3,0-0.6,0-0.9,0c-0.6,0-1.2,0-1.6,0c-0.5,0-1,0-1.7,0h-3.4
				C25.6,200.4,22.1,200.4,20.9,200.4z"/>
		</g>
	</g>
</g>
<path class="st57" d="M90.6,226.8c0,24.9,0.1,49.9,0.1,74.7c0.3,0.1,0.9,0.3,1.8,0.4c5.4,0.8,8.4-1.7,15.4-2.2c0.5,0,1.6-0.1,2.7,0
	c0-24.3,0-48.6,0-72.9c-1-0.8-4.5-3.7-9.7-3.7C95.1,222.9,91.5,226,90.6,226.8z"/>
<path class="st57" d="M194.9,216.3c-0.6-2.5-0.9-3.7-0.9-3.9c-0.6-3.9-0.4-6.3,0.1-8.1c0-0.1,0.1-0.3,0.1-0.4
	c-37.3-0.1-74.8-0.3-112.2-0.4c-26.1,0-52.1,0-78.2,0c0,0.1-0.1,0.3-0.1,0.5c0,0-0.3,1.4-0.4,2.8c-0.1,3.4,1.6,8.3,1.6,8.3
	c0.5,1.3,1,3,1.3,5c0.4,2.8,0.1,5.2-0.1,6.8c27.8,0,55.6,0,83.4,0l0,0h23.5l0,0c27.8,0.1,55.7,0.1,83.5,0.3c0-0.4,0.1-1,0.1-1.8
	C196.5,222.9,196,220.8,194.9,216.3z"/>
<g>
	
		<linearGradient id="SVGID_00000018210692445581360690000006896357124821495427_" gradientUnits="userSpaceOnUse" x1="60.4656" y1="251.2402" x2="140.9779" y2="251.2402" gradientTransform="matrix(1 0 0 -1 0 321)">
		<stop  offset="0" style="stop-color:#919396"/>
		<stop  offset="0.3883" style="stop-color:#D1D3D4"/>
		<stop  offset="0.6788" style="stop-color:#BCBEC0"/>
		<stop  offset="1" style="stop-color:#919396"/>
	</linearGradient>
	<path style="fill:url(#SVGID_00000018210692445581360690000006896357124821495427_);" d="M141,42.6H60.5v28c7.4,0,14.9,0,22.2,0
		c0.4,0,2.7,0.3,4.3,2.3c1.2,1.7,1,3.4,0.9,3.7c0,6.7,0,13.6,0,20.3h25.7c0-7,0-14,0-20.8c0.1-0.5,0.4-2.2,1.8-3.5
		c1.3-1.3,2.6-1.7,3.2-1.8c7.5,0,15-0.1,22.4-0.1V42.6z"/>
	
		<linearGradient id="SVGID_00000095302823446608755570000003470049661620934580_" gradientUnits="userSpaceOnUse" x1="60.4656" y1="251.2402" x2="140.9779" y2="251.2402" gradientTransform="matrix(1 0 0 -1 0 321)">
		<stop  offset="0" style="stop-color:#58595B;stop-opacity:0"/>
		<stop  offset="2.469746e-02" style="stop-color:#656668;stop-opacity:2.514163e-02"/>
		<stop  offset="0.1228" style="stop-color:#949496;stop-opacity:0.125"/>
		<stop  offset="0.221" style="stop-color:#BABBBB;stop-opacity:0.225"/>
		<stop  offset="0.3176" style="stop-color:#D8D9D9;stop-opacity:0.3233"/>
		<stop  offset="0.4122" style="stop-color:#EEEEEE;stop-opacity:0.4196"/>
		<stop  offset="0.5039" style="stop-color:#FBFBFB;stop-opacity:0.513"/>
		<stop  offset="0.5894" style="stop-color:#FFFFFF;stop-opacity:0.6"/>
		<stop  offset="1" style="stop-color:#58595B;stop-opacity:0"/>
	</linearGradient>
	<path style="fill:url(#SVGID_00000095302823446608755570000003470049661620934580_);" d="M141,42.6H60.5v28c7.4,0,14.9,0,22.2,0
		c0.4,0,2.7,0.3,4.3,2.3c1.2,1.7,1,3.4,0.9,3.7c0,6.7,0,13.6,0,20.3h25.7c0-7,0-14,0-20.8c0.1-0.5,0.4-2.2,1.8-3.5
		c1.3-1.3,2.6-1.7,3.2-1.8c7.5,0,15-0.1,22.4-0.1V42.6z"/>
	
		<linearGradient id="SVGID_00000059303898161004423200000009129606282392725424_" gradientUnits="userSpaceOnUse" x1="61.0731" y1="257.2231" x2="88.9132" y2="230.4967" gradientTransform="matrix(1 0 0 -1 0 321)">
		<stop  offset="0.1201" style="stop-color:#686566"/>
		<stop  offset="0.1983" style="stop-color:#6E7072"/>
		<stop  offset="0.433" style="stop-color:#919396"/>
		<stop  offset="0.6732" style="stop-color:#E6E7E8"/>
		<stop  offset="0.8966" style="stop-color:#9F9D9D"/>
		<stop  offset="1" style="stop-color:#919396"/>
	</linearGradient>
	<path style="fill:url(#SVGID_00000059303898161004423200000009129606282392725424_);" d="M60.5,79c0-2.8,0-5.6,0-8.4h22.2
		c0.4,0,2.7,0.3,4.3,2.3c1.2,1.7,1,3.4,0.9,3.7c0,6.7,0,13.6,0,20.3h-5.3V83.3c0-0.5-0.3-1.4-0.9-2.3c-1.2-1.6-3-1.8-3.4-1.8
		C72.5,79,66.4,79,60.5,79z"/>
	
		<linearGradient id="SVGID_00000059990773226204727620000013057729564365404040_" gradientUnits="userSpaceOnUse" x1="97.5555" y1="224.669" x2="134.7995" y2="247.3122" gradientTransform="matrix(1 0 0 -1 0 321)">
		<stop  offset="0.1201" style="stop-color:#686566"/>
		<stop  offset="0.1983" style="stop-color:#6E7072"/>
		<stop  offset="0.433" style="stop-color:#919396"/>
		<stop  offset="0.6732" style="stop-color:#E6E7E8"/>
		<stop  offset="0.8966" style="stop-color:#9F9D9D"/>
		<stop  offset="1" style="stop-color:#919396"/>
	</linearGradient>
	<path style="fill:url(#SVGID_00000059990773226204727620000013057729564365404040_);" d="M141,79c0-2.8,0-5.6,0-8.4h-22.2
		c-0.4,0-2.7,0.3-4.3,2.3c-1.2,1.7-1,3.4-0.9,3.7c0,6.7,0,13.6,0,20.3h5.3V83.1c0-0.5,0.3-1.4,0.9-2.3c1.2-1.6,3-1.8,3.4-1.8
		C129.1,79,135,79,141,79z"/>
	
		<linearGradient id="SVGID_00000061466174890265650690000009508285466393281960_" gradientUnits="userSpaceOnUse" x1="60.4656" y1="282.7731" x2="140.9779" y2="282.7731" gradientTransform="matrix(1 0 0 -1 0 321)">
		<stop  offset="0" style="stop-color:#919396"/>
		<stop  offset="0.3883" style="stop-color:#D1D3D4"/>
		<stop  offset="0.6788" style="stop-color:#BCBEC0"/>
		<stop  offset="1" style="stop-color:#919396"/>
	</linearGradient>
	
		<rect x="60.5" y="33.8" style="fill:url(#SVGID_00000061466174890265650690000009508285466393281960_);" width="80.5" height="8.9"/>
	
		<linearGradient id="SVGID_00000150815388389843791940000018349734853821896843_" gradientUnits="userSpaceOnUse" x1="60.4656" y1="282.7731" x2="140.9779" y2="282.7731" gradientTransform="matrix(1 0 0 -1 0 321)">
		<stop  offset="0" style="stop-color:#58595B;stop-opacity:0"/>
		<stop  offset="0.4749" style="stop-color:#FFFFFF"/>
		<stop  offset="0.5701" style="stop-color:#FCFCFC;stop-opacity:0.8187"/>
		<stop  offset="0.6515" style="stop-color:#F1F1F1;stop-opacity:0.6636"/>
		<stop  offset="0.728" style="stop-color:#DFE0E0;stop-opacity:0.518"/>
		<stop  offset="0.8014" style="stop-color:#C7C7C8;stop-opacity:0.3783"/>
		<stop  offset="0.8726" style="stop-color:#A6A7A8;stop-opacity:0.2426"/>
		<stop  offset="0.9412" style="stop-color:#808082;stop-opacity:0.112"/>
		<stop  offset="1" style="stop-color:#58595B;stop-opacity:0"/>
	</linearGradient>
	
		<rect x="60.5" y="33.8" style="opacity:0.44;fill:url(#SVGID_00000150815388389843791940000018349734853821896843_);enable-background:new    ;" width="80.5" height="8.9"/>
	
		<linearGradient id="SVGID_00000116923190918134373260000013888482866617804960_" gradientUnits="userSpaceOnUse" x1="100.355" y1="-811.961" x2="101.0704" y2="-898.3019" gradientTransform="matrix(1 0 0 -1 0 -818.0001)">
		<stop  offset="0.4342" style="stop-color:#58595B;stop-opacity:0"/>
		<stop  offset="0.6053" style="stop-color:#FFFFFF;stop-opacity:0.8"/>
	</linearGradient>
	
		<rect x="60.5" y="33.8" style="fill:url(#SVGID_00000116923190918134373260000013888482866617804960_);" width="80.5" height="8.9"/>
	
		<linearGradient id="SVGID_00000028300218323135087210000002260456944784552879_" gradientUnits="userSpaceOnUse" x1="60.4656" y1="-860.5563" x2="141.1071" y2="-860.5563" gradientTransform="matrix(1 0 0 -1 0 -818.0001)">
		<stop  offset="2.513967e-02" style="stop-color:#666666"/>
		<stop  offset="0.3212" style="stop-color:#9F9D9D"/>
		<stop  offset="0.6732" style="stop-color:#FFFFFF"/>
		<stop  offset="0.7793" style="stop-color:#E4E3E3"/>
		<stop  offset="1" style="stop-color:#919396"/>
	</linearGradient>
	
		<line style="fill:none;stroke:url(#SVGID_00000028300218323135087210000002260456944784552879_);stroke-miterlimit:10;" x1="60.5" y1="42.6" x2="141.1" y2="42.6"/>
	
		<linearGradient id="SVGID_00000091017480824046419510000003913665563515737491_" gradientUnits="userSpaceOnUse" x1="88.3864" y1="224.0314" x2="69.6585" y2="256.4692" gradientTransform="matrix(1 0 0 -1 0 321)">
		<stop  offset="2.513967e-02" style="stop-color:#666666"/>
		<stop  offset="0.3212" style="stop-color:#9F9D9D"/>
		<stop  offset="0.5168" style="stop-color:#FFFFFF"/>
		<stop  offset="0.7793" style="stop-color:#E4E3E3"/>
		<stop  offset="1" style="stop-color:#919396"/>
	</linearGradient>
	<path style="fill:none;stroke:url(#SVGID_00000091017480824046419510000003913665563515737491_);stroke-miterlimit:10;" d="
		M60.5,70.6h22.2c0.5,0.1,2.2,0.4,3.7,1.9c1.4,1.4,1.8,3.2,1.9,3.7c-0.1,6.8-0.3,13.8-0.5,20.7"/>
	
		<linearGradient id="SVGID_00000130648312123597422340000017991651626974564746_" gradientUnits="userSpaceOnUse" x1="113.1301" y1="224.065" x2="131.854" y2="256.4958" gradientTransform="matrix(1 0 0 -1 0 321)">
		<stop  offset="2.513967e-02" style="stop-color:#666666"/>
		<stop  offset="0.3212" style="stop-color:#9F9D9D"/>
		<stop  offset="0.5168" style="stop-color:#FFFFFF"/>
		<stop  offset="0.7793" style="stop-color:#E4E3E3"/>
		<stop  offset="1" style="stop-color:#919396"/>
	</linearGradient>
	<path style="fill:none;stroke:url(#SVGID_00000130648312123597422340000017991651626974564746_);stroke-miterlimit:10;" d="
		M113.6,97V76.2c0-0.5,0.1-2.1,1.3-3.5c1.4-1.7,3.4-1.9,3.9-2.1c7.4,0,14.9,0,22.2,0"/>
</g>
<g>
	
		<linearGradient id="SVGID_00000094607447046162747750000004676031273750629046_" gradientUnits="userSpaceOnUse" x1="99.9625" y1="117.6949" x2="99.9625" y2="94.5766" gradientTransform="matrix(1 0 0 -1 0 321)">
		<stop  offset="0" style="stop-color:#333333;stop-opacity:0"/>
		<stop  offset="0.5754" style="stop-color:#808080"/>
		<stop  offset="0.6781" style="stop-color:#C7C7C7;stop-opacity:0.76"/>
		<stop  offset="0.8698" style="stop-color:#4F4F4F;stop-opacity:0.3067"/>
		<stop  offset="1" style="stop-color:#333333;stop-opacity:0"/>
	</linearGradient>
	<path style="fill:url(#SVGID_00000094607447046162747750000004676031273750629046_);" d="M194,204.8c0-0.3,0.1-0.5,0.1-0.9
		c-37.3-0.1-74.8-0.3-112.2-0.3c-26,0-52.1,0-78.1,0c0,0.1-0.1,0.3-0.1,0.5c0,0-0.3,1.4-0.4,2.8c-0.1,3.4,1.6,8.3,1.6,8.3
		c1.4,2.7,1.7,6.7,1,11.9c26.9,0,53.8,0,80.6,0V227H114v0.1c27.5,0,54.9,0,82.5,0c0-0.3,0.1-0.8,0.1-1.4
		C197.1,217.1,192.3,212.4,194,204.8z"/>
</g>
<linearGradient id="SVGID_00000045606001449955941200000005879982248031070645_" gradientUnits="userSpaceOnUse" x1="90.6599" y1="58.4825" x2="110.5865" y2="58.4825" gradientTransform="matrix(1 0 0 -1 0 321)">
	<stop  offset="8.379889e-03" style="stop-color:#333333;stop-opacity:0"/>
	<stop  offset="0.4921" style="stop-color:#808080"/>
	<stop  offset="0.5843" style="stop-color:#C7C7C7;stop-opacity:0.76"/>
	<stop  offset="0.8698" style="stop-color:#4F4F4F;stop-opacity:0.3067"/>
	<stop  offset="1" style="stop-color:#333333;stop-opacity:0"/>
</linearGradient>
<path style="fill:url(#SVGID_00000045606001449955941200000005879982248031070645_);" d="M90.7,226.8c0,24.9,0.1,49.9,0.1,74.7
	c0.3,0.1,0.9,0.3,1.8,0.4c5.4,0.8,8.4-1.7,15.4-2.2c0.5,0,1.6-0.1,2.7,0c0-24.3,0-48.6,0-72.9c-1-0.8-4.5-3.7-9.7-3.7
	C95.2,222.9,91.6,226,90.7,226.8z"/>
<linearGradient id="SVGID_00000089575574718869799500000014185495262274385085_" gradientUnits="userSpaceOnUse" x1="100.7218" y1="105.6514" x2="100.7218" y2="66.1936" gradientTransform="matrix(1 0 0 -1 0 321)">
	<stop  offset="0.4916" style="stop-color:#333333;stop-opacity:0.8"/>
	<stop  offset="1" style="stop-color:#333333;stop-opacity:0"/>
</linearGradient>
<path style="fill:url(#SVGID_00000089575574718869799500000014185495262274385085_);" d="M90.7,226.8c0,24.9,0.1,49.9,0.1,74.7
	c0.3,0.1,0.9,0.3,1.8,0.4c5.4,0.8,8.4-1.7,15.4-2.2c0.5,0,1.6-0.1,2.7,0c0-24.3,0-48.6,0-72.9c-1-0.8-4.5-3.7-9.7-3.7
	C95.2,222.9,91.6,226,90.7,226.8z"/>
<image style="overflow:visible;" width="200" height="200" xlink:href="../../pepsi.png"  transform="matrix(9.434019e-02 0 0 9.434019e-02 91.4816 47.984)">
</image>
</svg>
