<?xml version="1.0" encoding="utf-8"?>
<!-- Generator: Adobe Illustrator 25.4.1, SVG Export Plug-In . SVG Version: 6.00 Build 0)  -->
<svg version="1.1" id="Слой_1" xmlns="http://www.w3.org/2000/svg" xmlns:xlink="http://www.w3.org/1999/xlink" x="0px" y="0px"
	 viewBox="0 0 100 160" style="enable-background:new 0 0 100 160;" xml:space="preserve">
<style type="text/css">
	.st0{fill:url(#SVGID_00000071520525290066067520000011129625021643318674_);}
	.st1{fill:url(#SVGID_00000013875687723690692070000010850865464050559385_);}
	.st2{fill:url(#SVGID_00000108304663423689308260000014371564076893634454_);}
	.st3{fill:url(#SVGID_00000070079155106436538880000009050208810740049570_);}
	.st4{fill:url(#SVGID_00000106120776906431736480000005177202120271628189_);}
	.st5{opacity:0.28;fill:url(#SVGID_00000122717096014162034330000006249233545066932631_);enable-background:new    ;}
	.st6{fill:url(#SVGID_00000126310570265784442350000016340665754433487546_);}
	.st7{fill:url(#SVGID_00000153668183342331802840000012217530094997701510_);}
	.st8{fill:url(#SVGID_00000003785790332211233230000018369286756337503167_);}
	.st9{fill:url(#SVGID_00000067223617030545103250000001337811311657966014_);}
	.st10{fill:url(#SVGID_00000081631550036610225360000001778982871330047125_);}
	.st11{fill:url(#SVGID_00000178191433677077215450000009808934814660197511_);}
	.st12{fill:url(#SVGID_00000119827490490551766290000012202976183528948866_);}
	.st13{fill:url(#SVGID_00000108997833481251820200000004465264375925160633_);}
	.st14{fill:url(#SVGID_00000056397617126637895470000010006179264048983704_);}
	.st15{fill:url(#SVGID_00000052063123130895151500000007102170951509275556_);}
	.st16{fill:url(#SVGID_00000122722115203363553530000017161760368082111931_);}
	.st17{opacity:0.28;fill:url(#SVGID_00000136388845274657440910000016557207782283655338_);enable-background:new    ;}
	.st18{fill:url(#SVGID_00000075134649577785188540000009893855012011671936_);}
	.st19{fill:url(#SVGID_00000100384576903451731950000007591081952142246587_);}
	.st20{fill:url(#SVGID_00000097497206321244588800000016087145369596936869_);}
	.st21{fill:url(#SVGID_00000062163869821536191900000003263248371461324710_);}
	.st22{opacity:0.28;fill:url(#SVGID_00000124862313467848837500000005043488454207109551_);enable-background:new    ;}
	.st23{opacity:0.28;fill:url(#SVGID_00000164503518428353096230000017344555543104208524_);enable-background:new    ;}
	.st24{opacity:0.28;fill:url(#SVGID_00000034059505047773651330000018162960341185942688_);enable-background:new    ;}
	.st25{opacity:0.28;fill:url(#SVGID_00000013151722408065908540000013965368609038834350_);enable-background:new    ;}
	.st26{fill:none;}
	.st27{fill:url(#SVGID_00000123417440835758571340000009765920547585251728_);}
	.st28{fill:url(#SVGID_00000152238867310393321120000012972036947985002669_);}
	.st29{fill:url(#SVGID_00000058564009705600698220000004492415693270194561_);}
	.st30{opacity:0.38;enable-background:new    ;}
	.st31{fill:url(#SVGID_00000069364451148286240280000008145146442051581099_);}
	.st32{fill:#282828;stroke:#282828;stroke-width:0.5;stroke-miterlimit:10;}
	.st33{fill:#8C8C8C;}
	.st34{fill:none;stroke:#ADADAD;stroke-width:0.5;stroke-miterlimit:10;}
	.st35{fill:#282828;}
	.st36{fill:none;stroke:#8C8C8C;stroke-width:0.2;}
</style>
<g>
	<defs>
		<path id="SVGID_1_" d="M32.1,106.6c0,0,0-0.3,0-2.6c0-0.7-0.1-1.8-0.4-3.1c-0.2-0.7-0.4-1.4-0.6-2.1c-8.8,0-17.5,0-26.3,0
			c-0.3,1.5-0.6,3.2-0.7,5c-0.3,3.5-0.2,6.6,0,9.2c-0.4,0-0.9,0-1.3,0s-0.8,0-1.3,0c0.5,1.4,1,3.3,1,5.6c0,2.5-0.7,4.7-0.8,5.1
			c-0.1,0.4-0.4,1-0.6,2c-0.3,1.5-0.3,2.3-0.3,2.5c0,0.1,0,0.5,0,1c0,0.1,0,0.5,0,0.8c0,0.8,0.2,1.4,0.2,1.7
			c0.1,0.5,0.2,1.2,0.5,1.9c0.3,0,0.7,0,1,0c0.5,0,1,0,1.5,0c0.1,1.9,0.1,3.9,0,5.9c0,0.3,0,0.7,0,1c0,0.6,0,1.2,0,1.8
			c-0.1,1,0,2.2,0.2,3.6c0.2,1,0.4,1.9,0.6,2.7c8.8,0,17.5,0,26.3,0c0.3-1.4,0.6-3,0.8-4.6c0.1-0.8,0.2-1.5,0.2-2.3v-4.1l0,0
			c0.4,0.4,0.8,0.8,1.1,1.2c0.3-0.4,0.7-0.9,1-1.3c2.1-0.3,4.2-0.4,5.9-0.3c0.1,0,0.1,0,0.2,0c0.8,0,1.6,0.1,2.2,0.2
			c0.1,0,0.3,0,0.4,0c0.1,0,0.2,0,0.2,0c0.3,0,0.7,0.1,1,0.1l0,0l0,0l0,0c0,0.5,0,1,0,1.4l0,0l0,0c0.1,2.4,0.4,4.2,0.4,4.2h10.7
			c0.2-1.5,0.3-2.9,0.4-4.2l0,0v-1.5l0,0l0,0h0.1c3.9-0.7,7.7-0.3,9.3-0.1c0,0,0,0,0,0.1c0.3,0.4,0.7,0.9,1,1.3
			c0.4-0.4,0.8-0.8,1.1-1.2l0,0v1.8c0,0.7,0,1.5,0,2.1v0.1l0,0c0,1.1,0,2.5,0.3,4c0.2,1.2,0.4,2.2,0.7,3.2c8.8,0,17.5,0,26.3,0
			c0.3-1,0.6-2.2,0.7-3.5c0.2-1.4,0.2-2.6,0.1-3.6l0,0c0-2.7-0.1-5.4-0.1-8.1c0.5,0,1,0,1.5,0c0.3,0,0.7,0,1,0
			c0.2-0.3,0.4-0.7,0.6-1.3c0.3-1,0.4-1.8,0.5-2.3c0-0.2,0-0.4,0-0.6c0-0.5,0-0.9,0-1.3c-0.1-1-0.1-1.6-0.2-2.2
			c0-0.2-0.1-0.8-0.3-1.5c-0.1-0.4-0.2-0.6-0.3-0.8c-0.9-2.7-0.9-5.1-0.9-5.1l0,0l0,0l0,0l0,0c0.1-2,0.2-2.4,0.2-2.4
			c0.2-1,0.5-1.9,0.7-2.3c0.1-0.4,0.3-0.7,0.4-0.9c-1.8,0-3,0-3,0l0,0c0,0,0.1-5.3,0-9.3c0-0.6-0.1-2-0.5-3.8
			c-0.1-0.4-0.2-0.8-0.3-1c-8.8,0-17.5,0-26.3,0c-0.2,0.6-0.4,1.3-0.6,2.1c-0.2,1-0.3,1.9-0.4,2.7v4.6l0,0c-0.4-0.4-0.8-0.7-1.1-1.1
			c-0.3,0.4-0.7,0.9-1,1.3c0,0,0,0,0,0.1c-0.1,0-0.1,0-0.2,0s-0.1,0-0.2,0c-4,0.5-7,0.2-8.3,0c-0.3,0-0.5-0.1-0.8-0.1l0,0l0,0
			c0-0.3,0-0.5,0-0.7l0,0l0,0c0-2.5-0.4-4.1-0.4-4.1H44.7c-0.3,1.7-0.4,4.9-0.4,4.9c-0.8,0.1-1.9,0.3-3.2,0.4
			c-1,0.1-1.9,0.1-2.7,0.1l0,0c-1.4,0-2.5-0.1-3.3-0.2c-0.3,0-0.5-0.1-0.7-0.1l0,0c-0.3-0.4-0.7-0.9-1-1.3c-0.1,0.1-0.2,0.2-0.3,0.3
			c-0.3,0.3-0.4,0.5-0.4,0.5c-0.2,0.2-0.2,0.3-0.3,0.3s-0.1-0.2-0.1-0.3C32.2,107.6,32.1,107.1,32.1,106.6z"/>
	</defs>
	<clipPath id="SVGID_00000049184383599262402380000000469028957687403186_">
		<use xlink:href="#SVGID_1_"  style="overflow:visible;"/>
	</clipPath>
	
		<g transform="matrix(1 0 0 1 3.725290e-09 0)" style="clip-path:url(#SVGID_00000049184383599262402380000000469028957687403186_);">
		
			<image style="overflow:visible;" width="600" height="600" xlink:href="../../background.jpg"  transform="matrix(0.2155 0 0 0.2155 5.617978e-02 93.2247)">
		</image>
	</g>
	<use xlink:href="#SVGID_1_"  style="overflow:visible;fill:none;stroke:#9B9B9B;stroke-width:0.5;stroke-miterlimit:10;"/>
</g>
<g>
	
		<linearGradient id="SVGID_00000111186185331996853300000000476169700655045249_" gradientUnits="userSpaceOnUse" x1="-1011.3458" y1="108.7" x2="-1011.3458" y2="140.1" gradientTransform="matrix(-1 0 0 -1 -961.2958 161)">
		<stop  offset="2.234637e-02" style="stop-color:#1A1A1A"/>
		<stop  offset="0.9832" style="stop-color:#CCCCCC"/>
	</linearGradient>
	<polygon style="fill:url(#SVGID_00000111186185331996853300000000476169700655045249_);" points="44.3,52.3 55.8,52.3 55.8,20.9 
		44.3,20.9 	"/>
	
		<linearGradient id="SVGID_00000106121048226039881680000013133462531523292844_" gradientUnits="userSpaceOnUse" x1="-1011.3235" y1="104.4902" x2="-1011.3235" y2="114.2397" gradientTransform="matrix(-1 0 0 -1 -961.2958 161)">
		<stop  offset="0" style="stop-color:#727272"/>
		<stop  offset="1" style="stop-color:#4C4C4C"/>
	</linearGradient>
	<path style="fill:url(#SVGID_00000106121048226039881680000013133462531523292844_);" d="M44.7,46.8h10.7c0,0,0.8,4.2,0,9.7H44.7
		C44.7,56.5,43.8,51.5,44.7,46.8z"/>
	
		<linearGradient id="SVGID_00000045617464025635187080000009555623669559883676_" gradientUnits="userSpaceOnUse" x1="-1011.3235" y1="114.2397" x2="-1011.3235" y2="134.4404" gradientTransform="matrix(-1 0 0 -1 -961.2958 161)">
		<stop  offset="0" style="stop-color:#A0A0A0"/>
		<stop  offset="1" style="stop-color:#777777"/>
	</linearGradient>
	<path style="fill:url(#SVGID_00000045617464025635187080000009555623669559883676_);" d="M44.7,26.5h10.7c0,0,0.8,8.6,0,20.2H44.7
		C44.7,46.8,43.8,36.4,44.7,26.5z"/>
	
		<linearGradient id="SVGID_00000078747074965828725120000009026231132313139868_" gradientUnits="userSpaceOnUse" x1="-1011.3235" y1="134.4568" x2="-1011.3235" y2="144.2064" gradientTransform="matrix(-1 0 0 -1 -961.2958 161)">
		<stop  offset="0" style="stop-color:#F4F4F4"/>
		<stop  offset="1" style="stop-color:#BABABA"/>
	</linearGradient>
	<path style="fill:url(#SVGID_00000078747074965828725120000009026231132313139868_);" d="M44.7,16.8h10.7c0,0,0.8,4.2,0,9.7H44.7
		C44.7,26.5,43.8,21.5,44.7,16.8z"/>
</g>
<linearGradient id="SVGID_00000160904474759337788310000013549362769701554875_" gradientUnits="userSpaceOnUse" x1="-106.4465" y1="113.7379" x2="-107.2025" y2="134.4264" gradientTransform="matrix(1 0 0 -1 109.9476 161)">
	<stop  offset="0" style="stop-color:#999898"/>
	<stop  offset="0.1963" style="stop-color:#4F4F4F"/>
	<stop  offset="0.2507" style="stop-color:#5B5B5B"/>
	<stop  offset="0.3499" style="stop-color:#7C7C7C"/>
	<stop  offset="0.3704" style="stop-color:#848484"/>
	<stop  offset="0.433" style="stop-color:#878787"/>
	<stop  offset="0.5268" style="stop-color:#A0A0A0"/>
	<stop  offset="0.6843" style="stop-color:#C6C6C6"/>
	<stop  offset="0.9078" style="stop-color:#B7B7B7"/>
	<stop  offset="1" style="stop-color:#C6C6C6"/>
</linearGradient>
<path style="fill:url(#SVGID_00000160904474759337788310000013549362769701554875_);" d="M1.8,47.2c1.1,0,2.3,0,3.4,0V26.5
	c-1.1,0-2.2,0-3.4,0.1c0.2,0.7,0.8,2.6,0.8,5.2c0,2.7-0.8,4.9-0.8,5.1c-0.1,0.4-0.4,1-0.6,2c-0.3,1.5-0.3,2.3-0.3,2.5
	c0,0.1,0,0.5,0,1c0,0.1,0,0.5,0,0.8c0,0.7,0.1,1.3,0.2,1.7C1.3,45.9,1.6,46.7,1.8,47.2z"/>
<linearGradient id="SVGID_00000029750346407248181620000001308832368819205779_" gradientUnits="userSpaceOnUse" x1="-437.3719" y1="547.6028" x2="-435.5556" y2="547.6028" gradientTransform="matrix(1 0 0 1 440.0504 -510.7528)">
	<stop  offset="0" style="stop-color:#1A1A1A"/>
	<stop  offset="0" style="stop-color:#000000;stop-opacity:0"/>
	<stop  offset="0.3429" style="stop-color:#0A0A0A;stop-opacity:0.3341"/>
	<stop  offset="0.9264" style="stop-color:#252525;stop-opacity:0.9026"/>
	<stop  offset="1" style="stop-color:#292929;stop-opacity:0.9744"/>
</linearGradient>
<rect x="2.7" y="26.5" style="opacity:0.28;fill:url(#SVGID_00000029750346407248181620000001308832368819205779_);enable-background:new    ;" width="1.8" height="20.7"/>
<linearGradient id="SVGID_00000041280046929416859310000001249936228241109125_" gradientUnits="userSpaceOnUse" x1="39.15" y1="110.1479" x2="39.15" y2="139.3479" gradientTransform="matrix(1 0 0 -1 0 161)">
	<stop  offset="0" style="stop-color:#999898"/>
	<stop  offset="0.1963" style="stop-color:#4F4F4F"/>
	<stop  offset="0.2507" style="stop-color:#5B5B5B"/>
	<stop  offset="0.3499" style="stop-color:#7C7C7C"/>
	<stop  offset="0.3704" style="stop-color:#848484"/>
	<stop  offset="0.433" style="stop-color:#878787"/>
	<stop  offset="0.5974" style="stop-color:#D9D9D9"/>
	<stop  offset="0.6843" style="stop-color:#FFFFFF"/>
	<stop  offset="0.9078" style="stop-color:#B7B7B7"/>
	<stop  offset="1" style="stop-color:#C6C6C6"/>
</linearGradient>
<path style="fill:url(#SVGID_00000041280046929416859310000001249936228241109125_);" d="M44.3,50.9c0,0-5-0.9-10.3,0V21.7
	c0,0,4.2,1,10.3,0V50.9z"/>
<linearGradient id="SVGID_00000008829924818698195960000002709060745479663536_" gradientUnits="userSpaceOnUse" x1="60.95" y1="110.1479" x2="60.95" y2="139.3479" gradientTransform="matrix(1 0 0 -1 0 161)">
	<stop  offset="0" style="stop-color:#999898"/>
	<stop  offset="0.1963" style="stop-color:#4F4F4F"/>
	<stop  offset="0.2507" style="stop-color:#5B5B5B"/>
	<stop  offset="0.3499" style="stop-color:#7C7C7C"/>
	<stop  offset="0.3704" style="stop-color:#848484"/>
	<stop  offset="0.433" style="stop-color:#878787"/>
	<stop  offset="0.5974" style="stop-color:#D9D9D9"/>
	<stop  offset="0.6843" style="stop-color:#FFFFFF"/>
	<stop  offset="0.9078" style="stop-color:#B7B7B7"/>
	<stop  offset="1" style="stop-color:#C6C6C6"/>
</linearGradient>
<path style="fill:url(#SVGID_00000008829924818698195960000002709060745479663536_);" d="M66.1,50.9c0,0-5-0.9-10.3,0V21.7
	c0,0,4.2,1,10.3,0V50.9z"/>
<g>
	
		<linearGradient id="SVGID_00000001636033063829278620000017696907675643883907_" gradientUnits="userSpaceOnUse" x1="-979.4458" y1="104.8" x2="-979.4458" y2="144.2" gradientTransform="matrix(-1 0 0 -1 -961.2958 161)">
		<stop  offset="2.234637e-02" style="stop-color:#1A1A1A"/>
		<stop  offset="0.9832" style="stop-color:#CCCCCC"/>
	</linearGradient>
	<polygon style="fill:url(#SVGID_00000001636033063829278620000017696907675643883907_);" points="4.1,56.2 32.2,56.2 32.2,16.8 
		4.1,16.8 	"/>
	
		<linearGradient id="SVGID_00000098197036777185337310000003446333168492204435_" gradientUnits="userSpaceOnUse" x1="-979.4458" y1="99.5" x2="-979.4458" y2="111.7338" gradientTransform="matrix(-1 0 0 -1 -961.2958 161)">
		<stop  offset="0" style="stop-color:#727272"/>
		<stop  offset="1" style="stop-color:#4C4C4C"/>
	</linearGradient>
	<path style="fill:url(#SVGID_00000098197036777185337310000003446333168492204435_);" d="M5,49.3h26.3c0,0,2.1,5.2,0,12.2H5
		C5,61.5,2.9,55.2,5,49.3z"/>
	
		<linearGradient id="SVGID_00000071527998819721502160000010665445504482820007_" gradientUnits="userSpaceOnUse" x1="-979.5236" y1="111.7344" x2="-979.5236" y2="137.103" gradientTransform="matrix(-1 0 0 -1 -961.2958 161)">
		<stop  offset="0" style="stop-color:#A0A0A0"/>
		<stop  offset="1" style="stop-color:#777777"/>
	</linearGradient>
	<path style="fill:url(#SVGID_00000071527998819721502160000010665445504482820007_);" d="M5.1,23.9h26.3c0,0,2.1,10.8,0,25.4H5.1
		C5.1,49.3,2.9,36.2,5.1,23.9z"/>
	
		<linearGradient id="SVGID_00000106861431833845086960000012085570796030734261_" gradientUnits="userSpaceOnUse" x1="-979.5236" y1="137.1" x2="-979.5236" y2="149.3338" gradientTransform="matrix(-1 0 0 -1 -961.2958 161)">
		<stop  offset="0" style="stop-color:#F4F4F4"/>
		<stop  offset="1" style="stop-color:#BABABA"/>
	</linearGradient>
	<path style="fill:url(#SVGID_00000106861431833845086960000012085570796030734261_);" d="M5.1,11.7h26.3c0,0,2.1,5.2,0,12.2H5.1
		C5.1,23.9,2.9,17.6,5.1,11.7z"/>
</g>
<linearGradient id="SVGID_00000130633632864336394660000014094636337342124976_" gradientUnits="userSpaceOnUse" x1="-1003.9961" y1="108.9" x2="-1003.9961" y2="140.6" gradientTransform="matrix(-1 0 0 -1 -971.1461 161)">
	<stop  offset="0" style="stop-color:#636363"/>
	<stop  offset="0.1983" style="stop-color:#444444"/>
	<stop  offset="0.2933" style="stop-color:#383838"/>
	<stop  offset="0.433" style="stop-color:#565656"/>
	<stop  offset="0.6732" style="stop-color:#E5E5E5"/>
	<stop  offset="0.9078" style="stop-color:#7F7E7E"/>
	<stop  offset="1" style="stop-color:#939292"/>
</linearGradient>
<path style="fill:url(#SVGID_00000130633632864336394660000014094636337342124976_);" d="M33.4,52.1c-0.4-0.4-0.8-0.8-1.1-1.2
	c0-9.8,0-19.6,0-29.4c0.4-0.4,0.8-0.7,1.1-1.1V52.1z"/>
<linearGradient id="SVGID_00000034060468831244556600000002094790225019146644_" gradientUnits="userSpaceOnUse" x1="-42.3472" y1="108.9" x2="-42.3472" y2="140.6" gradientTransform="matrix(1 0 0 -1 76.2472 161)">
	<stop  offset="0" style="stop-color:#7F7F7F"/>
	<stop  offset="0.1983" style="stop-color:#606060"/>
	<stop  offset="0.2933" style="stop-color:#545454"/>
	<stop  offset="0.433" style="stop-color:#757575"/>
	<stop  offset="0.6732" style="stop-color:#FFFFFF"/>
	<stop  offset="0.9078" style="stop-color:#9B9B9B"/>
	<stop  offset="1" style="stop-color:#B2B2B2"/>
</linearGradient>
<path style="fill:url(#SVGID_00000034060468831244556600000002094790225019146644_);" d="M33.4,52.1c0.3-0.4,0.7-0.9,1-1.3
	c0-9.7,0-19.4,0-29.1c-0.3-0.4-0.7-0.9-1-1.3V52.1z"/>
<linearGradient id="SVGID_00000171695232613459825620000011875355543962111369_" gradientUnits="userSpaceOnUse" x1="-9.1601" y1="108.9" x2="-9.1601" y2="140.6" gradientTransform="matrix(1 0 0 -1 75.9101 161)">
	<stop  offset="0" style="stop-color:#636363"/>
	<stop  offset="0.1983" style="stop-color:#444444"/>
	<stop  offset="0.2933" style="stop-color:#383838"/>
	<stop  offset="0.433" style="stop-color:#565656"/>
	<stop  offset="0.6732" style="stop-color:#E5E5E5"/>
	<stop  offset="0.9078" style="stop-color:#7F7E7E"/>
	<stop  offset="1" style="stop-color:#939292"/>
</linearGradient>
<path style="fill:url(#SVGID_00000171695232613459825620000011875355543962111369_);" d="M66.2,52.1c0.4-0.4,0.8-0.8,1.1-1.2
	c0-9.8,0-19.6,0-29.4c-0.4-0.4-0.8-0.7-1.1-1.1V52.1z"/>
<linearGradient id="SVGID_00000182529910329069714200000006531536610217901980_" gradientUnits="userSpaceOnUse" x1="-1037.1831" y1="108.9" x2="-1037.1831" y2="140.6" gradientTransform="matrix(-1 0 0 -1 -971.4831 161)">
	<stop  offset="0" style="stop-color:#7F7F7F"/>
	<stop  offset="0.1983" style="stop-color:#606060"/>
	<stop  offset="0.2933" style="stop-color:#545454"/>
	<stop  offset="0.433" style="stop-color:#757575"/>
	<stop  offset="0.6732" style="stop-color:#FFFFFF"/>
	<stop  offset="0.9078" style="stop-color:#9B9B9B"/>
	<stop  offset="1" style="stop-color:#B2B2B2"/>
</linearGradient>
<path style="fill:url(#SVGID_00000182529910329069714200000006531536610217901980_);" d="M66.2,52.1c-0.3-0.4-0.7-0.9-1-1.3
	c0-9.7,0-19.4,0-29.1c0.3-0.4,0.7-0.9,1-1.3V52.1z"/>
<linearGradient id="SVGID_00000016039869919965771330000001954387922355229625_" gradientUnits="userSpaceOnUse" x1="-1101.5802" y1="113.7379" x2="-1102.3361" y2="134.4264" gradientTransform="matrix(-1 0 0 -1 -1005.1812 161)">
	<stop  offset="0" style="stop-color:#999898"/>
	<stop  offset="0.1963" style="stop-color:#4F4F4F"/>
	<stop  offset="0.2507" style="stop-color:#5B5B5B"/>
	<stop  offset="0.3499" style="stop-color:#7C7C7C"/>
	<stop  offset="0.3704" style="stop-color:#848484"/>
	<stop  offset="0.433" style="stop-color:#878787"/>
	<stop  offset="0.5268" style="stop-color:#A0A0A0"/>
	<stop  offset="0.6843" style="stop-color:#C6C6C6"/>
	<stop  offset="0.9078" style="stop-color:#B7B7B7"/>
	<stop  offset="1" style="stop-color:#C6C6C6"/>
</linearGradient>
<path style="fill:url(#SVGID_00000016039869919965771330000001954387922355229625_);" d="M98.1,47.2c-1.1,0-2.3,0-3.4,0V26.5
	c1.1,0,2.2,0,3.4,0.1c-0.2,0.7-0.8,2.6-0.8,5.2c0,2.7,0.8,4.9,0.8,5.1c0.1,0.4,0.4,1,0.6,2c0.3,1.5,0.3,2.3,0.3,2.5c0,0.1,0,0.5,0,1
	c0,0.1,0,0.5,0,0.8c0,0.7-0.1,1.3-0.2,1.7C98.6,45.9,98.3,46.7,98.1,47.2z"/>
<linearGradient id="SVGID_00000041288880232515925140000015384921240556784028_" gradientUnits="userSpaceOnUse" x1="-1432.5067" y1="547.6028" x2="-1430.6904" y2="547.6028" gradientTransform="matrix(-1 0 0 1 -1335.2839 -510.7528)">
	<stop  offset="0" style="stop-color:#1A1A1A"/>
	<stop  offset="0" style="stop-color:#000000;stop-opacity:0"/>
	<stop  offset="0.3429" style="stop-color:#0A0A0A;stop-opacity:0.3341"/>
	<stop  offset="0.9264" style="stop-color:#252525;stop-opacity:0.9026"/>
	<stop  offset="1" style="stop-color:#292929;stop-opacity:0.9744"/>
</linearGradient>
<polygon style="opacity:0.28;fill:url(#SVGID_00000041288880232515925140000015384921240556784028_);enable-background:new    ;" points="
	95.4,26.5 97.2,26.5 97.2,47.2 95.4,47.2 "/>
<g>
	
		<linearGradient id="SVGID_00000074419849324536905550000007034891113735479698_" gradientUnits="userSpaceOnUse" x1="-1042.7458" y1="104.8" x2="-1042.7458" y2="144.2" gradientTransform="matrix(-1 0 0 -1 -961.2958 161)">
		<stop  offset="2.234637e-02" style="stop-color:#1A1A1A"/>
		<stop  offset="0.9832" style="stop-color:#CCCCCC"/>
	</linearGradient>
	<polygon style="fill:url(#SVGID_00000074419849324536905550000007034891113735479698_);" points="67.4,56.2 95.5,56.2 95.5,16.8 
		67.4,16.8 	"/>
	
		<linearGradient id="SVGID_00000108304656761922942090000012600927451239652737_" gradientUnits="userSpaceOnUse" x1="-1042.7236" y1="99.5552" x2="-1042.7236" y2="111.789" gradientTransform="matrix(-1 0 0 -1 -961.2958 161)">
		<stop  offset="0" style="stop-color:#727272"/>
		<stop  offset="1" style="stop-color:#4C4C4C"/>
	</linearGradient>
	<path style="fill:url(#SVGID_00000108304656761922942090000012600927451239652737_);" d="M68.3,49.2h26.3c0,0,2.1,5.2,0,12.2H68.3
		C68.3,61.4,66.1,55.2,68.3,49.2z"/>
	
		<linearGradient id="SVGID_00000140724398681103136540000017276449606888836249_" gradientUnits="userSpaceOnUse" x1="-1042.7458" y1="111.8" x2="-1042.7458" y2="137.1686" gradientTransform="matrix(-1 0 0 -1 -961.2958 161)">
		<stop  offset="0" style="stop-color:#A0A0A0"/>
		<stop  offset="1" style="stop-color:#777777"/>
	</linearGradient>
	<path style="fill:url(#SVGID_00000140724398681103136540000017276449606888836249_);" d="M68.3,23.8h26.3c0,0,2.1,10.8,0,25.4H68.3
		C68.3,49.2,66.2,36.2,68.3,23.8z"/>
	
		<linearGradient id="SVGID_00000137840032955149515300000012772139023826650785_" gradientUnits="userSpaceOnUse" x1="-1042.7458" y1="137.1576" x2="-1042.7458" y2="149.3914" gradientTransform="matrix(-1 0 0 -1 -961.2958 161)">
		<stop  offset="0" style="stop-color:#F4F4F4"/>
		<stop  offset="1" style="stop-color:#BABABA"/>
	</linearGradient>
	<path style="fill:url(#SVGID_00000137840032955149515300000012772139023826650785_);" d="M68.3,11.6h26.3c0,0,2.1,5.2,0,12.2H68.3
		C68.3,23.8,66.2,17.5,68.3,11.6z"/>
</g>
<linearGradient id="SVGID_00000162314902684378973820000013662048593860390331_" gradientUnits="userSpaceOnUse" x1="-185.414" y1="547.0528" x2="-181.2856" y2="547.0528" gradientTransform="matrix(1 0 0 1 225.5993 -510.7528)">
	<stop  offset="0" style="stop-color:#000000;stop-opacity:0"/>
	<stop  offset="1" style="stop-color:#000000;stop-opacity:0.9744"/>
</linearGradient>
<path style="opacity:0.28;fill:url(#SVGID_00000162314902684378973820000013662048593860390331_);enable-background:new    ;" d="
	M44.3,21.7c-0.7,0.1-1.5,0.2-2.3,0.3c-0.7,0.1-1.3,0.1-1.8,0.1c0,9.5,0,18.9,0,28.4c0.6,0,1.3,0,2,0.1c0.8,0.1,1.5,0.2,2.2,0.3
	C44.3,41.1,44.3,31.4,44.3,21.7z"/>
<linearGradient id="SVGID_00000040540173364330374780000014872934932368328587_" gradientUnits="userSpaceOnUse" x1="-164.5491" y1="547.0028" x2="-160.3746" y2="547.0028" gradientTransform="matrix(1 0 0 1 225.5993 -510.7528)">
	<stop  offset="0" style="stop-color:#010101;stop-opacity:1.261298e-02"/>
	<stop  offset="0.371" style="stop-color:#0C0C0C;stop-opacity:0.3694"/>
	<stop  offset="1" style="stop-color:#292929;stop-opacity:0.9744"/>
</linearGradient>
<path style="opacity:0.28;fill:url(#SVGID_00000040540173364330374780000014872934932368328587_);enable-background:new    ;" d="
	M65.2,21.8c-0.6,0.1-1.3,0.2-2,0.2c-0.8,0.1-1.5,0.1-2.1,0.1c0,9.4,0,18.9,0,28.3c0.6,0,1.3,0,2.1,0.1c0.7,0,1.4,0.1,2.1,0.2
	C65.2,41.1,65.2,31.4,65.2,21.8z"/>
<linearGradient id="SVGID_00000071523330547618928390000003243436665802579631_" gradientUnits="userSpaceOnUse" x1="-1138.1877" y1="547.0528" x2="-1134.0592" y2="547.0528" gradientTransform="matrix(-1 0 0 1 -1078.296 -510.7528)">
	<stop  offset="0" style="stop-color:#000000;stop-opacity:0"/>
	<stop  offset="0.3429" style="stop-color:#0A0A0A;stop-opacity:0.3341"/>
	<stop  offset="0.9264" style="stop-color:#252525;stop-opacity:0.9026"/>
	<stop  offset="1" style="stop-color:#292929;stop-opacity:0.9744"/>
</linearGradient>
<path style="opacity:0.28;fill:url(#SVGID_00000071523330547618928390000003243436665802579631_);enable-background:new    ;" d="
	M55.8,21.7c0.6,0.1,1.2,0.2,1.9,0.3c0.8,0.1,1.5,0.1,2.2,0.1c0,9.5,0,18.9,0,28.4c-0.6,0-1.3,0-2.1,0.1c-0.7,0.1-1.4,0.2-2.1,0.3
	C55.8,41.1,55.8,31.4,55.8,21.7z"/>
<linearGradient id="SVGID_00000174600446717873321280000015175077353998784403_" gradientUnits="userSpaceOnUse" x1="-1116.8175" y1="547.0028" x2="-1112.6429" y2="547.0028" gradientTransform="matrix(-1 0 0 1 -1078.296 -510.7528)">
	<stop  offset="0" style="stop-color:#010101;stop-opacity:1.521599e-02"/>
	<stop  offset="0.3743" style="stop-color:#0D0D0D;stop-opacity:0.3742"/>
	<stop  offset="1" style="stop-color:#292929;stop-opacity:0.9744"/>
</linearGradient>
<path style="opacity:0.28;fill:url(#SVGID_00000174600446717873321280000015175077353998784403_);enable-background:new    ;" d="
	M34.3,21.7c0.6,0.1,1.3,0.2,2.1,0.3c0.7,0.1,1.4,0.1,2.1,0.1c0,9.4,0,18.9,0,28.3c-0.7,0-1.4,0-2.2,0.1c-0.7,0.1-1.3,0.2-1.9,0.3
	C34.4,41.1,34.4,31.4,34.3,21.7z"/>
<path class="st26" d="M32.1,106.6c0,0,0-0.3,0-2.6c0-0.7-0.1-1.8-0.4-3.1c-0.2-0.7-0.4-1.4-0.6-2.1c-8.8,0-17.5,0-26.3,0
	c-0.3,1.5-0.6,3.2-0.7,5c-0.3,3.5-0.2,6.6,0,9.2c-0.4,0-0.9,0-1.3,0s-0.8,0-1.3,0c0.5,1.4,1,3.3,1,5.6c0,2.5-0.7,4.7-0.8,5.1
	c-0.1,0.4-0.4,1-0.6,2c-0.3,1.5-0.3,2.3-0.3,2.5c0,0.1,0,0.5,0,1c0,0.1,0,0.5,0,0.8c0,0.8,0.2,1.4,0.2,1.7c0.1,0.5,0.2,1.2,0.5,1.9
	c0.3,0,0.7,0,1,0c0.5,0,1,0,1.5,0c0.1,1.9,0.1,3.9,0,5.9c0,0.3,0,0.7,0,1c0,0.6,0,1.2,0,1.8c-0.1,1,0,2.2,0.2,3.6
	c0.2,1,0.4,1.9,0.6,2.7c8.8,0,17.5,0,26.3,0c0.3-1.4,0.6-3,0.8-4.6c0.1-0.8,0.2-1.5,0.2-2.3v-4.1l0,0c0.4,0.4,0.8,0.8,1.1,1.2
	c0.3-0.4,0.7-0.9,1-1.3c2.1-0.3,4.2-0.4,5.9-0.3c0.1,0,0.1,0,0.2,0c0.8,0,1.6,0.1,2.2,0.2c0.1,0,0.3,0,0.4,0c0.1,0,0.2,0,0.2,0
	c0.3,0,0.7,0.1,1,0.1l0,0l0,0l0,0c0,0.5,0,1,0,1.4l0,0l0,0c0.1,2.4,0.4,4.2,0.4,4.2h10.7c0.2-1.5,0.3-2.9,0.4-4.2l0,0v-1.5l0,0l0,0
	h0.1c3.9-0.7,7.7-0.3,9.3-0.1c0,0,0,0,0,0.1c0.3,0.4,0.7,0.9,1,1.3c0.4-0.4,0.8-0.8,1.1-1.2l0,0v1.8c0,0.7,0,1.5,0,2.1v0.1l0,0
	c0,1.1,0,2.5,0.3,4c0.2,1.2,0.4,2.2,0.7,3.2c8.8,0,17.5,0,26.3,0c0.3-1,0.6-2.2,0.7-3.5c0.2-1.4,0.2-2.6,0.1-3.6l0,0
	c0-2.7-0.1-5.4-0.1-8.1c0.5,0,1,0,1.5,0c0.3,0,0.7,0,1,0c0.2-0.3,0.4-0.7,0.6-1.3c0.3-1,0.4-1.8,0.5-2.3c0-0.2,0-0.4,0-0.6
	c0-0.5,0-0.9,0-1.3c-0.1-1-0.1-1.6-0.2-2.2c0-0.2-0.1-0.8-0.3-1.5c-0.1-0.4-0.2-0.6-0.3-0.8c-0.9-2.7-0.9-5.1-0.9-5.1l0,0l0,0l0,0
	l0,0c0.1-2,0.2-2.4,0.2-2.4c0.2-1,0.5-1.9,0.7-2.3c0.1-0.4,0.3-0.7,0.4-0.9c-1.8,0-3,0-3,0l0,0c0,0,0.1-5.3,0-9.3
	c0-0.6-0.1-2-0.5-3.8c-0.1-0.4-0.2-0.8-0.3-1c-8.8,0-17.5,0-26.3,0c-0.2,0.6-0.4,1.3-0.6,2.1c-0.2,1-0.3,1.9-0.4,2.7v4.6l0,0
	c-0.4-0.4-0.8-0.7-1.1-1.1c-0.3,0.4-0.7,0.9-1,1.3c0,0,0,0,0,0.1c-0.1,0-0.1,0-0.2,0s-0.1,0-0.2,0c-4,0.5-7,0.2-8.3,0
	c-0.3,0-0.5-0.1-0.8-0.1l0,0l0,0c0-0.3,0-0.5,0-0.7l0,0l0,0c0-2.5-0.4-4.1-0.4-4.1H44.7c-0.3,1.7-0.4,4.9-0.4,4.9
	c-0.8,0.1-1.9,0.3-3.2,0.4c-1,0.1-1.9,0.1-2.7,0.1l0,0c-1.4,0-2.5-0.1-3.3-0.2c-0.3,0-0.5-0.1-0.7-0.1l0,0c-0.3-0.4-0.7-0.9-1-1.3
	c-0.1,0.1-0.2,0.2-0.3,0.3c-0.3,0.3-0.4,0.5-0.4,0.5c-0.2,0.2-0.2,0.3-0.3,0.3s-0.1-0.2-0.1-0.3C32.2,107.6,32.1,107.1,32.1,106.6z"
	/>
<path class="st26" d="M98.7,125.6c-0.2-1-0.4-1.5-0.6-2c0-0.2-0.8-2.4-0.8-5.1c0-2.5,0.6-4.5,0.8-5.2c-0.3,0-0.6,0-0.9,0l0,0h-1.7
	v-9.6c0-0.5,0-1,0-1.4l0,0l0,0c-0.1-0.6-0.3-1.1-0.4-1.7c-0.1-0.5-0.3-1-0.4-1.5c-8.8,0-17.5,0-26.3,0c-0.2,0.7-0.5,1.6-0.7,2.5
	c-0.1,0.8-0.2,1.5-0.3,2.1v4.6l0,0c-0.4-0.4-0.8-0.7-1.1-1.1c-0.3,0.4-0.7,0.9-1,1.3c0,0,0,0,0,0.1c-0.1,0-0.1,0-0.2,0s-0.1,0-0.2,0
	c-4,0.5-7,0.2-8.3,0c-0.3,0-0.5-0.1-0.8-0.1l0,0l0,0c0-0.3,0-0.5,0-0.7l0,0l0,0c0-2.5-0.4-4.1-0.4-4.1H44.7
	c-0.3,1.7-0.4,4.9-0.4,4.9c-0.8,0.1-1.9,0.3-3.2,0.4c-1,0.1-1.9,0.1-2.7,0.1l0,0c-1.4,0-2.5-0.1-3.3-0.2c-0.3,0-0.5-0.1-0.7-0.1l0,0
	c-0.3-0.4-0.7-0.9-1-1.3c-0.4,0.4-0.8,0.7-1.1,1.1V104c0-0.5,0-1,0-1.4l0,0l0,0c-0.1-3.2-0.9-5.2-0.9-5.2H5.1
	c-0.4,2-0.7,4.2-0.9,6.6c-0.3,3.5-0.2,6.6,0,9.2c-0.4,0-0.9,0-1.3,0s-0.8,0-1.3,0c0.5,1.4,1,3.3,1,5.6c0,2.5-0.7,4.7-0.8,5.1
	c-0.1,0.4-0.4,1-0.6,2c-0.3,1.5-0.3,2.3-0.3,2.5c0,0.1,0,0.5,0,1c0,0.1,0,0.5,0,0.8c0,0.2,0.1,0.9,0.2,1.7c0.1,0.5,0.3,1.2,0.6,2h1
	H4c0,1.9,0,3.9,0,5.8c0,0.7,0,1.5,0,2.1v0.1l0,0c0.2,3,0.9,5.3,0.9,5.3h26.3c0.6-1.9,0.8-3.7,0.9-5.3v-4.1l0,0
	c0.4,0.4,0.8,0.8,1.1,1.2c0.3-0.4,0.7-0.9,1-1.3c2.1-0.3,4.2-0.4,5.9-0.3c0.1,0,0.1,0,0.2,0c0.8,0,1.6,0.1,2.2,0.2
	c0.1,0,0.3,0,0.4,0c0.1,0,0.2,0,0.2,0c0.3,0,0.7,0.1,1,0.1l0,0l0,0l0,0c0,0.5,0,1,0,1.4l0,0l0,0c0.1,2.4,0.4,4.2,0.4,4.2h10.7
	c0.2-1.5,0.3-2.9,0.4-4.2l0,0v-1.5l0,0l0,0h0.1c3.9-0.7,7.7-0.3,9.3-0.1c0,0,0,0,0,0.1c0.3,0.4,0.7,0.9,1,1.3
	c0.4-0.4,0.8-0.8,1.1-1.2l0,0v1.8c0,0.7,0,1.5,0,2.1v0.1l0,0c0.2,3,0.9,5.3,0.9,5.3h26.3c0.6-1.9,0.8-3.7,0.9-5.3l0,0
	c0-2.6,0-5.3,0-7.9c0.6,0,1.1,0,1.7,0c0.3,0,0.6,0,0.9,0c0.4-0.8,0.5-1.5,0.6-2c0,0,0.2-0.8,0.2-1.7c0-0.3,0-0.7,0-0.8
	c0-0.5,0-0.9,0-1C99,127.9,99,127,98.7,125.6z"/>
<linearGradient id="SVGID_00000072958967012164062650000017400865621102702230_" gradientUnits="userSpaceOnUse" x1="16.3" y1="23.9" x2="16.3" y2="23.9" gradientTransform="matrix(1 0 0 -1 0 161)">
	<stop  offset="0" style="stop-color:#808285"/>
	<stop  offset="0.2039" style="stop-color:#424244"/>
	<stop  offset="0.3035" style="stop-color:#464648"/>
	<stop  offset="0.4018" style="stop-color:#525253"/>
	<stop  offset="0.4888" style="stop-color:#636363"/>
	<stop  offset="0.6229" style="stop-color:#666666"/>
	<stop  offset="0.7905" style="stop-color:#959696"/>
	<stop  offset="0.8351" style="stop-color:#747575"/>
	<stop  offset="0.919" style="stop-color:#919191"/>
	<stop  offset="1" style="stop-color:#676868"/>
</linearGradient>
<path style="fill:url(#SVGID_00000072958967012164062650000017400865621102702230_);" d="M16.3,137.1"/>
<linearGradient id="SVGID_00000021079026863678732510000006216357481887008179_" gradientUnits="userSpaceOnUse" x1="24.5" y1="50.7" x2="24.5" y2="50.7" gradientTransform="matrix(1 0 0 -1 0 161)">
	<stop  offset="0" style="stop-color:#444444"/>
	<stop  offset="8.097430e-02" style="stop-color:#5B5B5B"/>
	<stop  offset="0.2486" style="stop-color:#3A3A3A"/>
	<stop  offset="0.3205" style="stop-color:#3E3E3E"/>
	<stop  offset="0.3898" style="stop-color:#494949"/>
	<stop  offset="0.458" style="stop-color:#5D5D5D"/>
	<stop  offset="0.4832" style="stop-color:#666666"/>
	<stop  offset="0.6844" style="stop-color:#474747"/>
	<stop  offset="0.8352" style="stop-color:#636363"/>
</linearGradient>
<path style="fill:url(#SVGID_00000021079026863678732510000006216357481887008179_);" d="M24.5,110.3"/>
<linearGradient id="SVGID_00000034791632186876324190000016201191155541988233_" gradientUnits="userSpaceOnUse" x1="24.5" y1="668.0502" x2="24.5" y2="668.0502" gradientTransform="matrix(1 0 0 1 0 -529.0502)">
	<stop  offset="0" style="stop-color:#444444"/>
	<stop  offset="8.097430e-02" style="stop-color:#5B5B5B"/>
	<stop  offset="0.2486" style="stop-color:#3A3A3A"/>
	<stop  offset="0.3205" style="stop-color:#3E3E3E"/>
	<stop  offset="0.3898" style="stop-color:#494949"/>
	<stop  offset="0.458" style="stop-color:#5D5D5D"/>
	<stop  offset="0.4832" style="stop-color:#666666"/>
	<stop  offset="0.6844" style="stop-color:#474747"/>
	<stop  offset="0.8352" style="stop-color:#636363"/>
</linearGradient>
<path style="fill:url(#SVGID_00000034791632186876324190000016201191155541988233_);" d="M24.5,139"/>
<path class="st30" d="M98.6,126c-0.1-0.7-0.2-1.2-0.3-1.5c-0.2-0.8-0.4-1.2-0.6-1.8c0,0-0.3-1-0.6-2.5c-0.3-2,0-4,0.3-5.2
	c-0.7,0-1.4,0-2.1,0c0-3.2,0-6.4,0-9.7c0-0.4,0-1,0-1.4l0,0l0,0c-0.1-3.2-0.9-5.2-0.9-5.2H68.1c-0.8,2.3-1,4.6-0.9,6.6
	c0,0.8,0,1.7,0,2.5c0.4-0.7,0.8-1.3,1.3-2c0.4,0.7,0.8,1.5,1.2,2.2c0.4-0.7,0.8-1.5,1.3-2.2c0.4,0.7,0.8,1.5,1.2,2.2
	c0.4-0.7,0.9-1.5,1.3-2.2c0.4,0.7,0.7,1.4,1.1,2.1c0.4-0.7,0.9-1.3,1.3-2c0.4,0.8,0.7,1.5,1.1,2.3c0.9,0.6,1.9,1.2,2.8,1.7
	c-0.2,9.3-0.3,18.6-0.5,27.9c-0.3,0.6-0.7,1.2-1,1.8c-0.5-0.6-1-1.2-1.4-1.8c-0.3,0.8-0.7,1.6-1,2.4c-0.5-0.7-0.9-1.4-1.4-2.1
	c-0.4,0.7-0.7,1.4-1.1,2.1c-0.4-0.7-0.9-1.5-1.3-2.2c-0.4,0.7-0.8,1.5-1.2,2.2c-0.4-0.7-0.8-1.5-1.3-2.2c-0.4,0.7-0.8,1.5-1.2,2.2
	c-0.4-0.9-0.8-1.9-1.2-2.8c0,1.2,0,2.4,0.1,3.6c0,0.7,0,1.5,0,2.1v0.1l0,0c0.2,3,0.9,5.3,0.9,5.3h26.3c0.6-1.9,0.8-3.7,0.9-5.3l0,0
	c0-3.3-0.1-6.6-0.1-9.9c0.4,0,0.7,0,0.9,0c0,0,0.7,0,1.3,0h0.3c0,0,0.2-0.4,0.4-0.8c0.1-0.3,0.2-0.5,0.3-0.8c0-0.1,0.2-0.5,0.3-1.2
	c0.1-0.5,0.1-0.9,0.1-1.5C98.8,127.6,98.8,126.9,98.6,126z"/>
<path class="st30" d="M2.3,122c0.5-2,0.5-3.7,0.4-4.7s-0.3-2.5-1.1-4.2c0.4,0,0.8,0,1.3,0c0.4,0,0.9,0,1.3,0
	c-0.2-5.3-0.3-7.2-0.2-7.6c0-0.1,0.1-0.6,0.1-1.3c0-0.1,0-0.1,0-0.2c0.1-0.8,0.3-1.6,0.4-2.4l0.3-2.7h26.3c0.8,2.3,1,4.6,0.9,6.6
	c0,0.8,0,1.7,0,2.5c-0.4-0.6-0.8-1.3-1.2-1.9c-0.4,0.7-0.8,1.5-1.2,2.2c-0.4-0.7-0.8-1.5-1.3-2.2c-0.4,0.7-0.8,1.5-1.2,2.2
	c-0.4-0.7-0.9-1.5-1.3-2.2c-0.4,0.7-0.7,1.4-1.1,2.1c-0.5-0.7-0.9-1.4-1.4-2.1c-0.3,0.8-0.6,1.6-1,2.4c-1,0.6-1.9,1.1-2.9,1.7
	c0.1,9.3,0.2,18.7,0.3,28c0.8,0,1.7,0.1,2.5,0.1c0.3,0.8,0.6,1.6,1,2.4c0.5-0.7,0.9-1.4,1.4-2.1c0.4,0.7,0.7,1.4,1.1,2.1
	c0.4-0.7,0.9-1.5,1.3-2.2c0.4,0.7,0.8,1.5,1.1,2.2c0.4-0.7,0.8-1.5,1.3-2.2c0.4,0.7,0.8,1.5,1.2,2.2c0.5-0.9,1-1.9,1.4-2.8
	c0,1.2-0.1,2.3-0.1,3.5c0,0.7,0,1.5,0,2.1v0.1l0,0c-0.2,3-0.9,5.3-0.9,5.3H5c-0.6-2-0.9-3.8-0.9-5.4l0,0c0-3.2,0.1-6.5,0.1-9.7
	c-0.5,0-1,0-1.5,0c-0.3,0-0.7,0-1,0c-0.1-0.3-0.1-0.5-0.2-0.7c-0.2-0.7-0.2-0.8-0.3-1.2c0-0.1,0-0.3-0.1-0.7S1,130.5,1,130.4
	c0-0.4-0.1-1.3,0-2.5c0-0.7,0.1-1.7,0.4-3C1.8,123.4,2,123.2,2.3,122z"/>
<linearGradient id="SVGID_00000021093772430412873000000002903379380168380590_" gradientUnits="userSpaceOnUse" x1="49.8697" y1="29.6" x2="49.8697" y2="45.7447" gradientTransform="matrix(1 0 0 -1 0 161)">
	<stop  offset="0" style="stop-color:#424242"/>
	<stop  offset="0.1068" style="stop-color:#333333"/>
	<stop  offset="0.2055" style="stop-color:#2D2D2D"/>
	<stop  offset="0.3492" style="stop-color:#424244"/>
	<stop  offset="0.6732" style="stop-color:#7F7F7F"/>
	<stop  offset="0.9078" style="stop-color:#414042"/>
</linearGradient>
<path style="fill:url(#SVGID_00000021093772430412873000000002903379380168380590_);" d="M98.8,131.4c-32.6,0-65.1,0-97.7,0
	c-0.1-0.7-0.3-1.8-0.3-3.1c0.1-1.5,0.3-2,0.9-4.8c0.5-2.3,0.7-3.5,0.7-5.1c0-1.3-0.2-2.4-0.3-3.2c31.8,0,63.6,0,95.3,0
	c-0.3,1.7-0.3,3.1-0.3,4.1c0,0.6,0.1,1.5,0.3,2.6c0.3,1.4,0.6,1.7,0.9,3.2c0,0.2,0.3,1.3,0.4,2.7C99,128.7,99,130,98.8,131.4z"/>
<path class="st32" d="M14.8,135.9c-0.5-0.7-1.6-1.9-3.3-2.3c-0.4-0.1-0.7-0.1-1-0.2c1.1,0.9,2.2,1.9,3.3,2.8c0,0.3,0,0.6,0,1l0,0
	c0,0.2,0,1.1,0,1.1l0,0l0,0c0.2,0,0.3,0,0.5,0c0.5,0,1,0,1.6,0c0.4,0,0.7,0,1.1,0c0.2,0,0.2,0,0.2,0s1.1,1.3,1.5,1.9
	c0.4-0.7,0.8-1.3,1.2-2l1.2,2.4l1.1-2.4c-0.3-0.2-0.7-0.5-1-0.7c0-1,0-2,0-3c-0.3,0-0.6-0.1-0.9-0.1
	C18.5,134.8,16.7,135.3,14.8,135.9z"/>
<path class="st33" d="M1.9,115.6"/>
<g>
	<defs>
		<path id="SVGID_00000070087402954296161400000014400644077443413151_" d="M34.5,133.7v-2.3c-11.1,0-22.2,0-33.4,0
			c0,0.3,0.1,0.6,0.1,0.9c0.1,0.5,0.2,0.9,0.4,1.4C12.7,133.7,23.5,133.7,34.5,133.7z"/>
	</defs>
	<clipPath id="SVGID_00000027578141508338351420000005015117083587258023_">
		<use xlink:href="#SVGID_00000070087402954296161400000014400644077443413151_"  style="overflow:visible;"/>
	</clipPath>
	<g style="clip-path:url(#SVGID_00000027578141508338351420000005015117083587258023_);">
		
			<image style="overflow:visible;" width="600" height="600" xlink:href="../../background.jpg"  transform="matrix(-6.353222e-04 6.463884e-02 -7.550000e-02 -5.439269e-04 45.9477 95.7846)">
		</image>
	</g>
</g>
<path class="st34" d="M32.2,108l-1.3-2l-1.2,2.2l-1.3-2.2l-1.2,2.2L26,106l-1.1,2.1l-1.4-2.1c-0.3,0.8-0.6,1.6-1,2.4h-0.1"/>
<rect x="22.2" y="108.3" class="st35" width="0.2" height="0.4"/>
<path d="M34.4,145.4"/>
<path class="st26" d="M17,110"/>
<path class="st32" d="M18.8,107.9"/>
<path class="st32" d="M18.5,109.7"/>
<path class="st36" d="M11.3,112.6"/>
<path class="st26" d="M22.5,111.3"/>
<path class="st32" d="M15.2,110.9c-0.5,0.7-1.6,1.9-3.3,2.3c-0.4,0.1-0.7,0.1-1,0.2c1.1-0.9,2.2-1.9,3.3-2.8c0-0.3,0-0.6,0-1l0,0
	c0-0.2,0-1.1,0-1.1l0,0l0,0c0.2,0,0.3,0,0.5,0c0.5,0,1,0,1.6,0c0.4,0,0.7,0,1.1,0c0.2,0,0.2,0,0.2,0s1.1-1.3,1.5-1.9
	c0.4,0.7,0.8,1.3,1.2,2l1.2-2.4l1.1,2.4c-0.3,0.2-0.7,0.5-1,0.7c0,1,0,2,0,3c-0.3,0-0.6,0.1-0.9,0.1C18.8,111.9,17,111.4,15.2,110.9
	z"/>
<polygon class="st35" points="27.1,112.2 31,113.1 27.1,113.1 "/>
<path class="st26" d="M26.3,112.9c-0.4,0-0.8,0-1.2,0c0.4,0.2,0.8,0.4,1.2,0.7C26.3,113.4,26.3,113.2,26.3,112.9z"/>
<path class="st26" d="M24.6,112.9c-0.4,0-0.8,0-1.2,0c0.4,0.2,0.8,0.4,1.2,0.7C24.6,113.4,24.6,113.2,24.6,112.9z"/>
<path class="st32" d="M84.6,135.9c0.5-0.7,1.6-1.9,3.3-2.3c0.4-0.1,0.7-0.1,1-0.2c-1.1,0.9-2.2,1.9-3.3,2.8c0,0.3,0,0.6,0,1l0,0
	c0,0.2,0,1.1,0,1.1l0,0l0,0c-0.2,0-0.3,0-0.5,0c-0.5,0-1,0-1.6,0c-0.4,0-0.7,0-1.1,0c-0.2,0-0.2,0-0.2,0s-1.1,1.3-1.5,1.9
	c-0.4-0.7-0.8-1.3-1.2-2l-1.2,2.4l-1.1-2.4c0.3-0.2,0.7-0.5,1-0.7c0-1,0-2,0-3c0.3,0,0.6-0.1,0.9-0.1
	C81,134.9,82.8,135.4,84.6,135.9z"/>
<path class="st26" d="M87.1,133.7c0.1,0,0.3,0,0.5,0.2c0,0,0.1,0.1,0.1,0.2c0.1,0.3-0.1,0.5-0.1,0.6l0,0c0,0-0.6,0.5-1,0.8
	c-0.3,0.3-0.8,0.7-1.4,1.2c-0.9,0-1.4,0-1.7,0c0,0-1.2,0-1.3,0h-0.1H82l0,0l0,0l0,0l0,0l0,0l0,0l0,0l0,0v-0.1c0-0.1,0-0.1,0-0.3
	s0-0.3,0-0.3l0,0c0-0.2-0.1-0.3-0.1-0.3c0-0.1-0.1-0.1-0.2-0.1c-0.2-0.1-0.4-0.1-0.7-0.1c-0.1,0-0.3,0-0.4,0c0,0-0.3,0-1,0
	c-2.4,0-2.4,0-2.4,0s-2.9-0.6-4.8-0.9l0,0l0,0c0-0.5,0-0.6,0-0.8l0,0l0,0c0.6,0,1,0,1,0c0-0.3,0-0.5,0-0.5l0.8,0.5c0,0,0.3,0,0.5,0
	c0.1,0,0.2,0,0.3,0c0-0.3,0-0.5,0-0.5s0.3,0.2,0.8,0.5c1.6,0,3.2,0,4.8,0C82.8,133.7,84.9,133.7,87.1,133.7z"/>
<g>
	<path id="SVGID_00000083087495459736824060000012230874900018360749_" class="st36" d="M87.1,133.7c0.1,0,0.3,0,0.5,0.2
		c0,0,0.1,0.1,0.1,0.2c0.1,0.3-0.1,0.5-0.1,0.6l0,0c0,0-0.6,0.5-1,0.8c-0.3,0.3-0.8,0.7-1.4,1.2c-0.9,0-1.4,0-1.7,0c0,0-1.2,0-1.3,0
		h-0.1H82l0,0l0,0l0,0l0,0l0,0l0,0l0,0l0,0v-0.1c0-0.1,0-0.1,0-0.3s0-0.3,0-0.3l0,0c0-0.2-0.1-0.3-0.1-0.3c0-0.1-0.1-0.1-0.2-0.1
		c-0.2-0.1-0.4-0.1-0.7-0.1c-0.1,0-0.3,0-0.4,0c0,0-0.3,0-1,0c-2.4,0-2.4,0-2.4,0s-2.9-0.6-4.8-0.9l0,0l0,0c0-0.5,0-0.6,0-0.8l0,0
		l0,0c0.6,0,1,0,1,0c0-0.3,0-0.5,0-0.5l0.8,0.5c0,0,0.3,0,0.5,0c0.1,0,0.2,0,0.3,0c0-0.3,0-0.5,0-0.5s0.3,0.2,0.8,0.5
		c1.6,0,3.2,0,4.8,0C82.8,133.7,84.9,133.7,87.1,133.7z"/>
</g>
<polygon class="st35" points="72.3,134.5 68.4,133.7 72.3,133.7 "/>
<path class="st26" d="M12.4,133.6c-0.1,0-0.3,0-0.5,0.2c0,0-0.1,0.1-0.1,0.2c-0.1,0.3,0.1,0.5,0.1,0.6l0,0c0,0,0.6,0.5,1,0.8
	c0.3,0.3,0.8,0.7,1.4,1.2c0.9,0,1.4,0,1.7,0c0,0,1.2,0,1.3,0h0.1h0.1l0,0l0,0l0,0l0,0l0,0l0,0l0,0l0,0v-0.1c0-0.1,0-0.1,0-0.3
	s0-0.3,0-0.3l0,0c0-0.2,0.1-0.3,0.1-0.3c0-0.1,0.1-0.1,0.2-0.1c0.2-0.1,0.4-0.1,0.7-0.1c0.1,0,0.3,0,0.4,0c0,0,0.3,0,1,0
	c2.4,0,2.4,0,2.4,0s2.9-0.6,4.8-0.9l0,0l0,0c0-0.5,0-0.6,0-0.8l0,0l0,0c-0.6,0-1,0-1,0c0-0.3,0-0.5,0-0.5l-0.8,0.5c0,0-0.3,0-0.5,0
	c-0.1,0-0.2,0-0.3,0c0-0.3,0-0.5,0-0.5s-0.3,0.2-0.8,0.5c-1.6,0-3.2,0-4.8,0C16.7,133.6,14.5,133.6,12.4,133.6z"/>
<g>
	<path id="SVGID_00000101824745221998438710000016498269176141799840_" class="st36" d="M12.4,133.6c-0.1,0-0.3,0-0.5,0.2
		c0,0-0.1,0.1-0.1,0.2c-0.1,0.3,0.1,0.5,0.1,0.6l0,0c0,0,0.6,0.5,1,0.8c0.3,0.3,0.8,0.7,1.4,1.2c0.9,0,1.4,0,1.7,0c0,0,1.2,0,1.3,0
		h0.1h0.1l0,0l0,0l0,0l0,0l0,0l0,0l0,0l0,0v-0.1c0-0.1,0-0.1,0-0.3s0-0.3,0-0.3l0,0c0-0.2,0.1-0.3,0.1-0.3c0-0.1,0.1-0.1,0.2-0.1
		c0.2-0.1,0.4-0.1,0.7-0.1c0.1,0,0.3,0,0.4,0c0,0,0.3,0,1,0c2.4,0,2.4,0,2.4,0s2.9-0.6,4.8-0.9l0,0l0,0c0-0.5,0-0.6,0-0.8l0,0l0,0
		c-0.6,0-1,0-1,0c0-0.3,0-0.5,0-0.5l-0.8,0.5c0,0-0.3,0-0.5,0c-0.1,0-0.2,0-0.3,0c0-0.3,0-0.5,0-0.5s-0.3,0.2-0.8,0.5
		c-1.6,0-3.2,0-4.8,0C16.7,133.6,14.5,133.6,12.4,133.6z"/>
</g>
<polygon class="st35" points="27.1,134.5 31.1,133.6 27.2,133.6 "/>
<path class="st32" d="M84.6,110.8c0.5,0.7,1.6,1.9,3.3,2.3c0.4,0.1,0.7,0.1,1,0.2c-1.1-0.9-2.2-1.9-3.3-2.8c0-0.3,0-0.6,0-1l0,0
	c0-0.2,0-1.1,0-1.1l0,0l0,0c-0.2,0-0.3,0-0.5,0c-0.5,0-1,0-1.6,0c-0.4,0-0.7,0-1.1,0c-0.2,0-0.2,0-0.2,0s-1.1-1.3-1.5-1.9
	c-0.4,0.7-0.8,1.3-1.2,2l-1.2-2.4l-1.1,2.4c0.3,0.2,0.7,0.5,1,0.7c0,1,0,2,0,3c0.3,0,0.6,0.1,0.9,0.1
	C81,111.9,82.8,111.3,84.6,110.8z"/>
<polygon class="st35" points="72.4,111.8 68.5,112.7 72.4,112.7 "/>
<path class="st34" d="M32.2,137.6c-0.5,1-1,1.9-1.5,2.9l-1.2-2.2l-1.3,2.2l-1.2-2.2l-1.3,2.2l-1.1-2.1l-1.4,2.1
	c-0.3-0.8-0.6-1.6-0.9-2.4c-0.2,0-0.3,0-0.5,0"/>
<polygon class="st35" points="22.2,138.7 22.4,138.7 22.4,137.8 21.1,137.8 21.1,138.7 "/>
<path class="st34" d="M67.4,108.1l1.3-2l1.2,2.2l1.3-2.2l1.2,2.2l1.3-2.2l1.1,2.1l1.4-2.1c0.3,0.8,0.7,1.6,1,2.4c0.2,0,0.5,0,0.7,0"
	/>
<polygon class="st35" points="78.2,108.8 78.4,108.8 78.4,107.9 77.1,107.9 77.1,108.8 "/>
<path class="st34" d="M67.4,137.6c0.4,1,0.8,1.9,1.1,2.9l1.2-2.2l1.3,2.2l1.2-2.2l1.3,2.2l1.1-2.1l1.4,2.1c0.3-0.8,0.7-1.6,1-2.4
	c0.1,0,0.1,0,0.2,0"/>
<polygon class="st35" points="78.2,138.5 78.3,138.5 78.3,137.9 77.1,137.9 77.1,138.5 "/>
<path class="st26" d="M34.7,133.7v-2.3c-11.2,0-22.4,0-33.6,0c0,0.3,0.1,0.6,0.2,0.9c0.1,0.5,0.2,0.9,0.4,1.4
	C12.7,133.7,23.7,133.7,34.7,133.7z"/>
<g>
	<defs>
		<path id="SVGID_00000168075218751439563700000018214092281658230454_" d="M34.7,113v2.3c-10.8,0-21.6,0-32.4,0
			c-0.1-0.3-0.2-0.6-0.3-0.9c-0.2-0.5-0.4-1-0.6-1.4C12.6,113,23.6,113,34.7,113z"/>
	</defs>
	<clipPath id="SVGID_00000088113994435095174260000008001427021996274087_">
		<use xlink:href="#SVGID_00000168075218751439563700000018214092281658230454_"  style="overflow:visible;"/>
	</clipPath>
	<g style="clip-path:url(#SVGID_00000088113994435095174260000008001427021996274087_);">
		
			<image style="overflow:visible;" width="600" height="600" xlink:href="../../background.jpg"  transform="matrix(-5.439269e-04 6.463884e-02 -6.463884e-02 -5.439269e-04 39.8178 77.7732)">
		</image>
	</g>
</g>
<path class="st26" d="M12.4,113c-0.1,0-0.3,0-0.5-0.2c0,0-0.1-0.1-0.1-0.2c-0.1-0.3,0.1-0.5,0.1-0.6c0,0,0.6-0.5,1-0.8
	c0.3-0.3,0.8-0.7,1.4-1.2c0.9,0,1.4,0,1.7,0c0,0,1.2,0,1.3,0h0.1h0.1l0,0l0,0l0,0l0,0l0,0l0,0l0,0l0,0v0.1c0,0.1,0,0.1,0,0.3
	c0,0.2,0,0.3,0,0.3l0,0c0,0.2,0.1,0.3,0.1,0.3c0,0.1,0.1,0.1,0.2,0.1c0.2,0.1,0.4,0.1,0.7,0.1c0.1,0,0.3,0,0.4,0c0,0,0.3,0,1,0
	c2.4,0,2.4,0,2.4,0s2.9,0.6,4.8,0.9l0,0l0,0c0,0.5,0,0.6,0,0.8l0,0l0,0c-0.3,0-0.7,0-1,0l0,0c0,0.4,0,0.7,0.1,1.1
	c-0.4-0.4-0.8-0.7-1.2-1.1l0,0l0,0l0,0c-0.2,0-0.4,0-0.6,0c0,0.4,0,0.7,0,1.1c-0.4-0.4-0.8-0.7-1.2-1.1l0,0c-0.9,0-1.5,0-1.8,0
	c-0.1,0-0.4,0-0.9,0c-0.2,0-0.4,0-0.7,0c-0.4,0-0.8,0-1.1,0c-0.4,0-0.7,0-1.1,0h-2.2C15.5,113,13.2,113,12.4,113z"/>
<g>
	<defs>
		<path id="SVGID_00000009555786540535178680000017096740133356660370_" d="M12.4,113.1c-0.1,0-0.3,0-0.5-0.2c0,0-0.1-0.1-0.1-0.2
			c-0.1-0.3,0.1-0.5,0.1-0.6c0,0,0.6-0.5,1-0.8c0.3-0.3,0.8-0.7,1.4-1.2c0.9,0,1.4,0,1.7,0c0,0,1.2,0,1.3,0h0.1h0.1l0,0l0,0l0,0l0,0
			l0,0l0,0l0,0l0,0v0.1c0,0.1,0,0.1,0,0.3c0,0.2,0,0.3,0,0.3l0,0c0,0.2,0.1,0.3,0.1,0.3c0,0.1,0.1,0.1,0.2,0.1
			c0.2,0.1,0.4,0.1,0.7,0.1c0.1,0,0.3,0,0.4,0c0,0,0.3,0,1,0c2.4,0,2.4,0,2.4,0s2.9,0.6,4.8,0.9l0,0l0,0c0,0.5,0,0.6,0,0.8l0,0l0,0
			c-0.3,0-0.7,0-1,0l0,0c0,0.4,0,0.7,0.1,1.1c-0.4-0.4-0.8-0.7-1.2-1.1l0,0l0,0l0,0c-0.2,0-0.4,0-0.6,0c0,0.4,0,0.7,0,1.1
			c-0.4-0.4-0.8-0.7-1.2-1.1l0,0c-0.9,0-1.5,0-1.8,0c-0.1,0-0.4,0-0.9,0c-0.2,0-0.4,0-0.7,0c-0.4,0-0.8,0-1.1,0c-0.4,0-0.7,0-1.1,0
			h-2.2C15.5,113.1,13.2,113.1,12.4,113.1z"/>
	</defs>
	<clipPath id="SVGID_00000111160125422410559210000017229758012465072811_">
		<use xlink:href="#SVGID_00000009555786540535178680000017096740133356660370_"  style="overflow:visible;"/>
	</clipPath>
	<g style="clip-path:url(#SVGID_00000111160125422410559210000017229758012465072811_);">
		
			<image style="overflow:visible;" width="600" height="600" xlink:href="../../background.jpg"  transform="matrix(3.911575e-02 0 0 3.911575e-02 5.4494 91.1823)">
		</image>
	</g>
</g>
<path class="st26" d="M12.4,133.6c-0.1,0-0.3,0-0.5,0.2c0,0-0.1,0.1-0.1,0.2c-0.1,0.3,0.1,0.5,0.1,0.6c0,0,0.6,0.5,1,0.8
	c0.3,0.3,0.8,0.7,1.4,1.2c0.9,0,1.4,0,1.7,0c0,0,1.2,0,1.3,0h0.1h0.1l0,0l0,0l0,0l0,0l0,0l0,0l0,0l0,0v-0.1c0-0.1,0-0.1,0-0.3
	s0-0.3,0-0.3l0,0c0-0.2,0.1-0.3,0.1-0.3c0-0.1,0.1-0.1,0.2-0.1c0.2-0.1,0.4-0.1,0.7-0.1c0.1,0,0.3,0,0.4,0c0,0,0.3,0,1,0
	c2.4,0,2.4,0,2.4,0s2.9-0.6,4.8-0.9l0,0l0,0c0-0.5,0-0.6,0-0.8l0,0l0,0c-0.3,0-0.7,0-1,0l0,0c0-0.4,0-0.7,0.1-1.1
	c-0.4,0.4-0.8,0.7-1.2,1.1l0,0l0,0l0,0c-0.2,0-0.4,0-0.6,0c0-0.4,0-0.7,0-1.1c-0.4,0.4-0.8,0.7-1.2,1.1l0,0c-0.9,0-1.5,0-1.8,0
	c-0.1,0-0.4,0-0.9,0c-0.2,0-0.4,0-0.7,0c-0.4,0-0.8,0-1.1,0c-0.4,0-0.7,0-1.1,0h-2.2C15.5,133.6,13.2,133.6,12.4,133.6z"/>
<g>
	<defs>
		<path id="SVGID_00000060733533977013989690000005241073786572806785_" d="M12.4,133.6c-0.1,0-0.3,0-0.5,0.2c0,0-0.1,0.1-0.1,0.2
			c-0.1,0.3,0.1,0.5,0.1,0.6c0,0,0.6,0.5,1,0.8c0.3,0.3,0.8,0.7,1.4,1.2c0.9,0,1.4,0,1.7,0c0,0,1.2,0,1.3,0h0.1h0.1l0,0l0,0l0,0l0,0
			l0,0l0,0l0,0l0,0v-0.1c0-0.1,0-0.1,0-0.3s0-0.3,0-0.3l0,0c0-0.2,0.1-0.3,0.1-0.3c0-0.1,0.1-0.1,0.2-0.1c0.2-0.1,0.4-0.1,0.7-0.1
			c0.1,0,0.3,0,0.4,0c0,0,0.3,0,1,0c2.4,0,2.4,0,2.4,0s2.9-0.6,4.8-0.9l0,0l0,0c0-0.5,0-0.6,0-0.8l0,0l0,0c-0.3,0-0.7,0-1,0l0,0
			c0-0.4,0-0.7,0.1-1.1c-0.4,0.4-0.8,0.7-1.2,1.1l0,0l0,0l0,0c-0.2,0-0.4,0-0.6,0c0-0.4,0-0.7,0-1.1c-0.4,0.4-0.8,0.7-1.2,1.1l0,0
			c-0.9,0-1.5,0-1.8,0c-0.1,0-0.4,0-0.9,0c-0.2,0-0.4,0-0.7,0c-0.4,0-0.8,0-1.1,0c-0.4,0-0.7,0-1.1,0h-2.2
			C15.5,133.6,13.2,133.6,12.4,133.6z"/>
	</defs>
	<clipPath id="SVGID_00000068660460600309938990000001638573205848916637_">
		<use xlink:href="#SVGID_00000060733533977013989690000005241073786572806785_"  style="overflow:visible;"/>
	</clipPath>
	
		<g transform="matrix(1 0 0 1 4.768372e-07 -7.629395e-06)" style="clip-path:url(#SVGID_00000068660460600309938990000001638573205848916637_);">
		
			<image style="overflow:visible;" width="600" height="600" xlink:href="../../background.jpg"  transform="matrix(3.911575e-02 0 0 3.911575e-02 6.2986 113.1414)">
		</image>
	</g>
</g>
<g>
	<defs>
		<path id="SVGID_00000024702921983624440150000003317500687033907343_" d="M64.6,112.6v2.6c11,0,22.1,0,33.1,0
			c0.1-0.3,0.2-0.7,0.3-1c0.2-0.6,0.4-1.1,0.6-1.6C87.2,112.6,75.9,112.6,64.6,112.6z"/>
	</defs>
	<clipPath id="SVGID_00000183955609495118988780000014736774173015566219_">
		<use xlink:href="#SVGID_00000024702921983624440150000003317500687033907343_"  style="overflow:visible;"/>
	</clipPath>
	
		<g transform="matrix(1 -9.313226e-10 4.656613e-10 1 0 7.629395e-06)" style="clip-path:url(#SVGID_00000183955609495118988780000014736774173015566219_);">
		
			<image style="overflow:visible;" width="600" height="600" xlink:href="../../background.jpg"  transform="matrix(-5.456847e-04 7.284883e-02 -6.484772e-02 -6.130129e-04 101.3686 93.7895)">
		</image>
	</g>
</g>
<g>
	<defs>
		<path id="SVGID_00000073691589123708228750000012602338662485670808_" d="M64.4,133.7v-2.3c11.4,0,22.8,0,34.2,0
			c-0.1,0.4-0.2,0.8-0.4,1.3c-0.2,0.4-0.3,0.7-0.5,1C86.6,133.7,75.5,133.7,64.4,133.7z"/>
	</defs>
	<clipPath id="SVGID_00000107568838779804526940000011497347465229022140_">
		<use xlink:href="#SVGID_00000073691589123708228750000012602338662485670808_"  style="overflow:visible;"/>
	</clipPath>
	
		<g transform="matrix(1 0 0 1 0 -7.629395e-06)" style="clip-path:url(#SVGID_00000107568838779804526940000011497347465229022140_);">
		
			<image style="overflow:visible;" width="600" height="600" xlink:href="../../background.jpg"  transform="matrix(-5.439269e-04 6.463884e-02 -6.463884e-02 -5.439269e-04 101.4473 96.6412)">
		</image>
	</g>
</g>
<path class="st26" d="M87.1,113c0.1,0,0.3,0,0.5-0.2c0,0,0.1-0.1,0.1-0.2c0.1-0.3-0.1-0.5-0.1-0.6c0,0-0.6-0.5-1-0.8
	c-0.3-0.3-0.8-0.7-1.4-1.2c-0.9,0-1.4,0-1.7,0c0,0-1.2,0-1.3,0h-0.1H82l0,0l0,0l0,0l0,0l0,0l0,0l0,0l0,0v0.1c0,0.1,0,0.1,0,0.3
	c0,0.2,0,0.3,0,0.3l0,0c0,0.2-0.1,0.3-0.1,0.3c0,0.1-0.1,0.1-0.2,0.1c-0.2,0.1-0.4,0.1-0.7,0.1c-0.1,0-0.3,0-0.4,0c0,0-0.3,0-1,0
	c-2.4,0-2.4,0-2.4,0s-2.9,0.6-4.8,0.9l0,0l0,0c0,0.5,0,0.6,0,0.8l0,0l0,0c0.3,0,0.7,0,1,0l0,0c0,0.4,0,0.7-0.1,1.1
	c0.4-0.4,0.8-0.7,1.2-1.1l0,0l0,0l0,0c0.2,0,0.4,0,0.6,0c0,0.4,0,0.7,0,1.1c0.4-0.4,0.8-0.7,1.2-1.1l0,0c0.9,0,1.5,0,1.8,0
	c0.1,0,0.4,0,0.9,0c0.2,0,0.4,0,0.7,0c0.4,0,0.8,0,1.1,0c0.4,0,0.7,0,1.1,0h2.2C83.9,113,86.3,113,87.1,113z"/>
<g>
	<defs>
		<path id="SVGID_00000103987102929052927280000002725146764187570339_" d="M87.1,112.7c0.1,0,0.3,0,0.5-0.2c0,0,0.1-0.1,0.1-0.2
			c0.1-0.3-0.1-0.5-0.1-0.6c0,0-0.6-0.5-1-0.8c-0.3-0.3-0.8-0.7-1.4-1.2c-0.9,0-1.4,0-1.7,0c0,0-1.2,0-1.3,0h-0.1H82l0,0l0,0l0,0
			l0,0l0,0l0,0l0,0l0,0v0.1c0,0.1,0,0.1,0,0.3c0,0.2,0,0.3,0,0.3l0,0c0,0.2-0.1,0.3-0.1,0.3c0,0.1-0.1,0.1-0.2,0.1
			c-0.2,0.1-0.4,0.1-0.7,0.1c-0.1,0-0.3,0-0.4,0c0,0-0.3,0-1,0c-2.4,0-2.4,0-2.4,0s-2.9,0.6-4.8,0.9l0,0l0,0c0,0.5,0,0.6,0,0.8l0,0
			l0,0c0.3,0,0.7,0,1,0l0,0c0,0.4,0,0.7-0.1,1.1c0.4-0.4,0.8-0.7,1.2-1.1l0,0l0,0l0,0c0.2,0,0.4,0,0.6,0c0,0.4,0,0.7,0,1.1
			c0.4-0.4,0.8-0.7,1.2-1.1l0,0c0.9,0,1.5,0,1.8,0c0.1,0,0.4,0,0.9,0c0.2,0,0.4,0,0.7,0c0.4,0,0.8,0,1.1,0c0.4,0,0.7,0,1.1,0h2.2
			C83.9,112.7,86.3,112.7,87.1,112.7z"/>
	</defs>
	<clipPath id="SVGID_00000110433158837087349230000013993391873559960995_">
		<use xlink:href="#SVGID_00000103987102929052927280000002725146764187570339_"  style="overflow:visible;"/>
	</clipPath>
	<g style="clip-path:url(#SVGID_00000110433158837087349230000013993391873559960995_);">
		
			<image style="overflow:visible;" width="600" height="600" xlink:href="../../background.jpg"  transform="matrix(3.911575e-02 0 0 3.911575e-02 64.7329 90.3255)">
		</image>
	</g>
</g>
<path class="st26" d="M87.1,133.7c0.1,0,0.3,0,0.5,0.2c0,0,0.1,0.1,0.1,0.2c0.1,0.3-0.1,0.5-0.1,0.6c0,0-0.6,0.5-1,0.8
	c-0.3,0.3-0.8,0.7-1.4,1.2c-0.9,0-1.4,0-1.7,0c0,0-1.2,0-1.3,0h-0.1H82l0,0l0,0l0,0l0,0l0,0l0,0l0,0l0,0v-0.1c0-0.1,0-0.1,0-0.3
	s0-0.3,0-0.3l0,0c0-0.2-0.1-0.3-0.1-0.3c0-0.1-0.1-0.1-0.2-0.1c-0.2-0.1-0.4-0.1-0.7-0.1c-0.1,0-0.3,0-0.4,0c0,0-0.3,0-1,0
	c-2.4,0-2.4,0-2.4,0s-2.9-0.6-4.8-0.9l0,0l0,0c0-0.5,0-0.6,0-0.8l0,0l0,0c0.3,0,0.7,0,1,0l0,0c0-0.4,0-0.7-0.1-1.1
	c0.4,0.4,0.8,0.7,1.2,1.1l0,0l0,0l0,0c0.2,0,0.4,0,0.6,0c0-0.4,0-0.7,0-1.1c0.4,0.4,0.8,0.7,1.2,1.1l0,0c0.9,0,1.5,0,1.8,0
	c0.1,0,0.4,0,0.9,0c0.2,0,0.4,0,0.7,0c0.4,0,0.8,0,1.1,0c0.4,0,0.7,0,1.1,0h2.2C84,133.7,86.3,133.7,87.1,133.7z"/>
<g>
	<defs>
		<path id="SVGID_00000061441425388012341830000002169746856675466134_" d="M87.1,133.7c0.1,0,0.3,0,0.5,0.2c0,0,0.1,0.1,0.1,0.2
			c0.1,0.3-0.1,0.5-0.1,0.6c0,0-0.6,0.5-1,0.8c-0.3,0.3-0.8,0.7-1.4,1.2c-0.9,0-1.4,0-1.7,0c0,0-1.2,0-1.3,0h-0.1H82l0,0l0,0l0,0
			l0,0l0,0l0,0l0,0l0,0v-0.1c0-0.1,0-0.1,0-0.3s0-0.3,0-0.3l0,0c0-0.2-0.1-0.3-0.1-0.3c0-0.1-0.1-0.1-0.2-0.1
			c-0.2-0.1-0.4-0.1-0.7-0.1c-0.1,0-0.3,0-0.4,0c0,0-0.3,0-1,0c-2.4,0-2.4,0-2.4,0s-2.9-0.6-4.8-0.9l0,0l0,0c0-0.5,0-0.6,0-0.8l0,0
			l0,0c0.3,0,0.7,0,1,0l0,0c0-0.4,0-0.7-0.1-1.1c0.4,0.4,0.8,0.7,1.2,1.1l0,0l0,0l0,0c0.2,0,0.4,0,0.6,0c0-0.4,0-0.7,0-1.1
			c0.4,0.4,0.8,0.7,1.2,1.1l0,0c0.9,0,1.5,0,1.8,0c0.1,0,0.4,0,0.9,0c0.2,0,0.4,0,0.7,0c0.4,0,0.8,0,1.1,0c0.4,0,0.7,0,1.1,0h2.2
			C84,133.7,86.3,133.7,87.1,133.7z"/>
	</defs>
	<clipPath id="SVGID_00000030475778261998272390000007158531517107787676_">
		<use xlink:href="#SVGID_00000061441425388012341830000002169746856675466134_"  style="overflow:visible;"/>
	</clipPath>
	<g style="clip-path:url(#SVGID_00000030475778261998272390000007158531517107787676_);">
		
			<image style="overflow:visible;" width="600" height="600" xlink:href="../../background.jpg"  transform="matrix(3.911575e-02 0 0 3.911575e-02 64.5841 113.9061)">
		</image>
	</g>
</g>
<image style="overflow:visible;" width="200" height="200" xlink:href="../../pepsi.png"  transform="matrix(7.146067e-02 0 0 7.146067e-02 10.9101 29.5705)">
</image>
</svg>
