<?xml version="1.0" encoding="utf-8"?>
<!-- Generator: Adobe Illustrator 25.4.1, SVG Export Plug-In . SVG Version: 6.00 Build 0)  -->
<svg version="1.1" id="Слой_1" xmlns="http://www.w3.org/2000/svg" xmlns:xlink="http://www.w3.org/1999/xlink" x="0px" y="0px"
	 viewBox="0 0 100 160" style="enable-background:new 0 0 100 160;" xml:space="preserve">
<style type="text/css">
	.st0{fill:none;}
	.st1{fill:url(#SVGID_00000042694511946263279630000007530848942064456627_);}
	.st2{opacity:0.28;fill:url(#SVGID_00000065070600390168294510000002745842947814745225_);enable-background:new    ;}
	.st3{fill:url(#SVGID_00000036954670904082666480000013452689424700183486_);}
	.st4{fill:url(#SVGID_00000147935398753692370660000017103787696504095399_);}
	.st5{fill:url(#SVGID_00000112628774761174179090000003310962806678913691_);}
	.st6{fill:url(#SVGID_00000123427324590384456220000012460823006065810056_);}
	.st7{fill:url(#SVGID_00000129919769540747192960000001444644312650592683_);}
	.st8{opacity:0.28;fill:url(#SVGID_00000059993913329416303840000015122281771462233476_);enable-background:new    ;}
	.st9{opacity:0.28;fill:url(#SVGID_00000075853795426147656860000008577201884269517454_);enable-background:new    ;}
	.st10{opacity:0.28;fill:url(#SVGID_00000106841961603209607650000010225389815443935415_);enable-background:new    ;}
	.st11{opacity:0.28;fill:url(#SVGID_00000143606615534987929370000014599752046390296972_);enable-background:new    ;}
	.st12{opacity:0.28;fill:url(#SVGID_00000090994300844128590130000006144077572663117738_);enable-background:new    ;}
	.st13{opacity:0.38;enable-background:new    ;}
	.st14{fill:url(#SVGID_00000057150456913910655680000001752449410683487638_);}
	.st15{fill:url(#SVGID_00000039836070542422643620000017012558388272512901_);}
	.st16{fill:#282828;}
	.st17{fill:url(#SVGID_00000003814618056970619750000009729564310168889777_);}
	.st18{fill:url(#SVGID_00000018957118905570680160000006916020066999576225_);}
	.st19{fill:url(#SVGID_00000083070097874635379570000014155042990476756870_);}
	.st20{fill:url(#SVGID_00000048494889838456437720000014384235342629999551_);}
	.st21{fill:url(#SVGID_00000124869041347890658680000013132467270987186589_);}
	.st22{fill:url(#SVGID_00000135651983184968302810000016426685416093591219_);}
	.st23{fill:url(#SVGID_00000106867535014978064750000000348327333530848693_);}
	.st24{fill:url(#SVGID_00000116941258660368316040000011347842847165158840_);}
	.st25{fill:url(#SVGID_00000119110949075931164660000018339108027871833233_);}
	.st26{fill:url(#SVGID_00000083062265680831799660000014194912022549684140_);}
	.st27{fill:url(#SVGID_00000172416148870546598330000013941525356546543498_);}
	.st28{fill:url(#SVGID_00000173149637431325824060000015285699161745400726_);}
	.st29{fill:#8C8C8C;}
	.st30{fill:url(#SVGID_00000178916563115176928210000002448137594008246170_);}
	.st31{fill:url(#SVGID_00000150091529054167589500000000696271958235812792_);}
	.st32{fill:url(#SVGID_00000043416638167163171430000013886257276375845263_);}
	.st33{fill:#282828;stroke:#282828;stroke-width:0.5;stroke-miterlimit:10;}
	.st34{fill:none;stroke:#ADADAD;stroke-width:0.5;stroke-miterlimit:10;}
	.st35{fill:none;stroke:#8C8C8C;stroke-width:0.2;}
	.st36{fill:url(#SVGID_00000124145662570064219630000005853620787040810640_);}
</style>
<g>
	<defs>
		<path id="SVGID_1_" d="M98.2,127.5c-0.3-2.5,0.7-2.9,0.8-6.2c0-2.5-0.6-3.3-0.1-5.6c0.2-1,0.5-1.9,0.8-2.4c-0.8,0-1.6,0-2.5,0
			c-0.5,0-1.1,0-1.6,0c0-2.3,0-4.5,0-6.8c0-0.4,0-0.8,0-1.2l0,0l0,0c-0.1-2.7-0.8-4.4-0.8-4.4H71.5c-0.7,2-0.9,3.9-0.8,5.7
			c0,0.8,0.1,1.7,0.1,2.5c-0.4-0.7-0.8-1.4-1.2-2.1c-0.6,0.9-1.2,1.9-1.8,2.8c-2.6,0.2-5.3,0.2-8-0.2c-0.2,0-0.3,0-0.5-0.1v-5.8
			c0-0.5,0-1,0-1.4l0,0l0,0c-0.1-3.2-0.4-5.2-0.4-5.2H47.3c-0.4,2.3-0.4,4.6-0.4,6.7c0,1.2,0,2.3,0,3.5c-3.5,0-10.5,0-10.5,0
			c-0.4-0.4-0.7-0.9-1.1-1.3c0-1,0-2.1,0-3.1c0-0.5,0-1,0-1.5l0,0l0,0c-0.1-3.4-1-5.5-1-5.5H5.2c-0.9,2.4-1.1,5-1,7.1
			c0,2.8,0,5.5,0,8.3c-0.5,0-0.9,0-1.4,0c-0.4,0-0.9,0-1.3,0c0.6,1.5,1.2,3.7,1.1,6.4c0,2.5-0.7,4.7-0.8,5.2c-0.1,0.4-0.4,1-0.6,2
			c-0.3,1.5-0.3,2.4-0.3,2.6c0,0.1,0,0.6,0,1.1c0,0.1,0,0.5,0,0.8c0,0.7,0.1,1.3,0.2,1.8c0.2,1,0.4,1.8,0.6,2.3c0.3,0,0.6,0,0.9,0
			c0.5,0,1,0,1.5,0v7.7c-0.3,4.4,1,8.1,1,8.1h29.1c0.6-2,1-5.6,1-5.6c0-1.8,0-3.6,0-5.4c0.3-0.4,0.7-0.7,1-1.1
			c2.3-0.4,4.6-0.5,6.4-0.4c0.1,0,0.1,0,0.2,0c0.8,0,1.6,0.1,2.2,0.2c0.2,0,0.3,0,0.5,0c0.1,0,0.2,0,0.2,0c0.3,0,0.7,0.1,1,0.1
			c0,0.9,0,1.8,0,2.7c0,0.7,0,1.4,0,2.2v0.1l0,0c0.1,3.1,0.4,5.3,0.4,5.3h11.5c0.2-1.9,0.4-3.7,0.4-5.3l0,0v-7
			c1.8-0.2,3.9-0.4,6.2-0.3c0.7,0,1.4,0.1,2.1,0.1c0.6,1,1.3,2,1.9,3.1c0.4-0.7,0.8-1.3,1.1-2v1.4c0,0.2,0,0.5,0,0.9
			c0,2.9,0.8,5.5,0.8,5.5h23.3c0.3-1,0.5-1.9,0.6-2.7c0.1-0.7,0.1-1.2,0.2-1.8c0.1-2.7,0-7.3,0-8c0.5,0,1.1,0,1.6,0
			c0.8,0,1.6,0,2.4,0C99,130.4,98.4,129.1,98.2,127.5z"/>
	</defs>
	<clipPath id="SVGID_00000001660293779486725000000017503091005906868120_">
		<use xlink:href="#SVGID_1_"  style="overflow:visible;"/>
	</clipPath>
	<g style="clip-path:url(#SVGID_00000001660293779486725000000017503091005906868120_);">
		
			<image style="overflow:visible;" width="600" height="600" xlink:href="../../background.jpg"  transform="matrix(0.1685 0 0 0.1685 -1.1573 90.085)">
		</image>
	</g>
	<use xlink:href="#SVGID_1_"  style="overflow:visible;fill:none;stroke:#939393;stroke-width:0.25;stroke-miterlimit:10;"/>
</g>
<path class="st0" d="M98.2,127.4c-0.3-2.5,0.7-2.9,0.8-6.2c0-2.4-0.6-3.3-0.1-5.6c0.2-1,0.5-1.8,0.8-2.3c-0.8,0-1.6,0-2.5,0l0,0
	h-1.6v-6.9c0-0.4,0-0.8,0-1.2l0,0l0,0c-0.1-2.7-0.8-4.4-0.8-4.4H71.5c-0.7,2-0.9,3.9-0.8,5.7c0,0.8,0.1,1.7,0.1,2.5
	c-0.4-0.7-0.8-1.4-1.2-2.1c-0.6,0.9-1.2,1.9-1.8,2.8c-2.6,0.2-5.3,0.2-8-0.2c-0.2,0-0.3,0-0.5-0.1v-5.8c0-0.5,0-1,0-1.4l0,0l0,0
	C59.2,99,58.8,97,58.8,97H47.3c-0.4,2.3-0.4,4.6-0.4,6.7c0,1.2,0,2.3,0,3.5c-3.5,0-10.5,0-10.5,0v0.1c0,0,0,0,0-0.1
	c-0.3-0.4-0.7-0.9-1-1.3l0,0v-3.1c0-0.5,0-1,0-1.5l0,0l0,0c-0.1-3.4-1-5.5-1-5.5H5.2c-0.9,2.4-1.1,5-1,7.1v9.3H2.7l0,0
	c-0.3,0-0.6,0-0.9,0c0.3,0.7,0.9,2.7,0.8,5.3c0,2.7-0.8,5-0.8,5.2c-0.1,0.4-0.4,1-0.6,2c-0.3,1.5-0.3,2.4-0.3,2.6c0,0.1,0,0.6,0,1.1
	c0,0.1,0,0.5,0,0.8c0,0.7,0.1,1.3,0.2,1.8c0.2,1,0.4,1.8,0.6,2.3c0.3,0,0.6,0,0.9,0c0.5,0,1,0,1.5,0v7.7c-0.3,4.4,1,8.1,1,8.1h29.1
	c0.6-2,0.9-3.9,1-5.6l0,0v-5.2l0,0c0.4-0.4,0.7-0.9,1.1-1.3c2.3-0.4,4.6-0.5,6.4-0.4c0.1,0,0.1,0,0.2,0c0.8,0,1.6,0.1,2.2,0.2
	c0.2,0,0.3,0,0.5,0c0.1,0,0.2,0,0.2,0c0.3,0,0.7,0.1,1,0.1l0,0c0,0.9,0,1.8,0,2.7c0,0.8,0,1.5,0,2.2v0.1l0,0
	c0.1,3.1,0.4,5.3,0.4,5.3h11.5c0.2-1.9,0.4-3.7,0.4-5.3l0,0v-7c1.8-0.2,3.9-0.4,6.2-0.3c0.7,0,1.4,0.1,2.1,0.1c0.6,1,1.3,2,1.9,3.1
	c0.4-0.7,0.8-1.3,1.1-2v1.4c0,0.2,0,0.5,0,0.9c0,2.9,0.8,5.5,0.8,5.5h23.3c0.5-1.6,0.7-3.2,0.8-4.5c0-2.6,0-5.3,0-7.9h1.6l0,0
	c0.8,0,1.6,0,2.4,0C99,130.3,98.4,129,98.2,127.4z"/>
<linearGradient id="SVGID_00000149351560711522984420000010418445105937438626_" gradientUnits="userSpaceOnUse" x1="-106.7874" y1="111.9364" x2="-107.5592" y2="133.0618" gradientTransform="matrix(1 0 0 -1 109.9476 161)">
	<stop  offset="0" style="stop-color:#999898"/>
	<stop  offset="0.1963" style="stop-color:#4F4F4F"/>
	<stop  offset="0.2507" style="stop-color:#5B5B5B"/>
	<stop  offset="0.3499" style="stop-color:#7C7C7C"/>
	<stop  offset="0.3704" style="stop-color:#848484"/>
	<stop  offset="0.433" style="stop-color:#878787"/>
	<stop  offset="0.5268" style="stop-color:#A0A0A0"/>
	<stop  offset="0.6843" style="stop-color:#C6C6C6"/>
	<stop  offset="0.9078" style="stop-color:#B7B7B7"/>
	<stop  offset="1" style="stop-color:#C6C6C6"/>
</linearGradient>
<path style="fill:url(#SVGID_00000149351560711522984420000010418445105937438626_);" d="M1.4,49c1.2,0,2.3,0,3.5,0V27.9
	c-1.1,0-2.3,0-3.4,0.1c0.3,0.7,0.9,2.7,0.8,5.3c0,2.7-0.8,5-0.8,5.2c-0.1,0.4-0.4,1-0.6,2C0.5,42,0.5,42.8,0.5,43c0,0.1,0,0.6,0,1.1
	c0,0.1,0,0.5,0,0.8c0,0.7,0.1,1.3,0.2,1.8C1,47.7,1.2,48.5,1.4,49z"/>
<linearGradient id="SVGID_00000015315693368003271250000002645610126954562994_" gradientUnits="userSpaceOnUse" x1="-437.6836" y1="549.2028" x2="-435.8299" y2="549.2028" gradientTransform="matrix(1 0 0 1 440.0504 -510.7528)">
	<stop  offset="0" style="stop-color:#000000;stop-opacity:0"/>
	<stop  offset="0.3429" style="stop-color:#0A0A0A;stop-opacity:0.3341"/>
	<stop  offset="0.9264" style="stop-color:#252525;stop-opacity:0.9026"/>
	<stop  offset="1" style="stop-color:#292929;stop-opacity:0.9744"/>
</linearGradient>
<rect x="2.4" y="27.9" style="opacity:0.28;fill:url(#SVGID_00000015315693368003271250000002645610126954562994_);enable-background:new    ;" width="1.9" height="21.1"/>
<linearGradient id="SVGID_00000131346209926511016140000008198450996404334251_" gradientUnits="userSpaceOnUse" x1="41.35" y1="108.2695" x2="41.35" y2="138.0695" gradientTransform="matrix(1 0 0 -1 0 161)">
	<stop  offset="0" style="stop-color:#999898"/>
	<stop  offset="0.1963" style="stop-color:#4F4F4F"/>
	<stop  offset="0.2507" style="stop-color:#5B5B5B"/>
	<stop  offset="0.3499" style="stop-color:#7C7C7C"/>
	<stop  offset="0.3704" style="stop-color:#848484"/>
	<stop  offset="0.433" style="stop-color:#878787"/>
	<stop  offset="0.5974" style="stop-color:#D9D9D9"/>
	<stop  offset="0.6843" style="stop-color:#FFFFFF"/>
	<stop  offset="0.9078" style="stop-color:#B7B7B7"/>
	<stop  offset="1" style="stop-color:#C6C6C6"/>
</linearGradient>
<path style="fill:url(#SVGID_00000131346209926511016140000008198450996404334251_);" d="M46.6,52.7c0,0-5.1-0.9-10.5,0V22.9
	c0,0,4.3,1,10.5,0V52.7z"/>
<linearGradient id="SVGID_00000102544468023361682400000015667843481824724904_" gradientUnits="userSpaceOnUse" x1="64.45" y1="110.3" x2="64.45" y2="135.835" gradientTransform="matrix(1 0 0 -1 0 161)">
	<stop  offset="0" style="stop-color:#999898"/>
	<stop  offset="0.1963" style="stop-color:#4F4F4F"/>
	<stop  offset="0.2507" style="stop-color:#5B5B5B"/>
	<stop  offset="0.3499" style="stop-color:#7C7C7C"/>
	<stop  offset="0.3704" style="stop-color:#848484"/>
	<stop  offset="0.433" style="stop-color:#878787"/>
	<stop  offset="0.5974" style="stop-color:#D9D9D9"/>
	<stop  offset="0.6843" style="stop-color:#FFFFFF"/>
	<stop  offset="0.9078" style="stop-color:#B7B7B7"/>
	<stop  offset="1" style="stop-color:#C6C6C6"/>
</linearGradient>
<path style="fill:url(#SVGID_00000102544468023361682400000015667843481824724904_);" d="M70.4,50.7c0,0-5.8-0.8-11.9,0V25.2
	c0,0,4.8,0.9,11.9,0V50.7z"/>
<linearGradient id="SVGID_00000107559312147439115660000001572899470662306952_" gradientUnits="userSpaceOnUse" x1="-40.7472" y1="107" x2="-40.7472" y2="139.3439" gradientTransform="matrix(1 0 0 -1 76.2472 161)">
	<stop  offset="0" style="stop-color:#636363"/>
	<stop  offset="0.1983" style="stop-color:#444444"/>
	<stop  offset="0.2933" style="stop-color:#383838"/>
	<stop  offset="0.433" style="stop-color:#565656"/>
	<stop  offset="0.6732" style="stop-color:#E5E5E5"/>
	<stop  offset="0.9078" style="stop-color:#7F7E7E"/>
	<stop  offset="1" style="stop-color:#939292"/>
</linearGradient>
<path style="fill:url(#SVGID_00000107559312147439115660000001572899470662306952_);" d="M35,54c0.3-0.4,0.7-0.9,1-1.3
	c0-9.9,0-19.8,0-29.7c-0.3-0.4-0.7-0.9-1-1.3V54z"/>
<linearGradient id="SVGID_00000138544112872947008470000012359043617996392339_" gradientUnits="userSpaceOnUse" x1="-1041.4832" y1="109.2" x2="-1041.4832" y2="136.9287" gradientTransform="matrix(-1 0 0 -1 -971.4831 161)">
	<stop  offset="0" style="stop-color:#636363"/>
	<stop  offset="0.1983" style="stop-color:#444444"/>
	<stop  offset="0.2933" style="stop-color:#383838"/>
	<stop  offset="0.433" style="stop-color:#565656"/>
	<stop  offset="0.6732" style="stop-color:#E5E5E5"/>
	<stop  offset="0.9078" style="stop-color:#7F7E7E"/>
	<stop  offset="1" style="stop-color:#939292"/>
</linearGradient>
<path style="fill:url(#SVGID_00000138544112872947008470000012359043617996392339_);" d="M70.6,51.8c-0.4-0.4-0.8-0.8-1.2-1.2
	c0-8.5,0-16.9,0.1-25.4c0.4-0.4,0.8-0.8,1.1-1.2V51.8z"/>
<linearGradient id="SVGID_00000072974758368670523490000007382140799028509844_" gradientUnits="userSpaceOnUse" x1="-1101.9515" y1="113.9781" x2="-1102.604" y2="131.8333" gradientTransform="matrix(-1 0 0 -1 -1005.1812 161)">
	<stop  offset="0" style="stop-color:#999898"/>
	<stop  offset="0.1963" style="stop-color:#4F4F4F"/>
	<stop  offset="0.2507" style="stop-color:#5B5B5B"/>
	<stop  offset="0.3499" style="stop-color:#7C7C7C"/>
	<stop  offset="0.3704" style="stop-color:#848484"/>
	<stop  offset="0.433" style="stop-color:#878787"/>
	<stop  offset="0.5268" style="stop-color:#A0A0A0"/>
	<stop  offset="0.6843" style="stop-color:#C6C6C6"/>
	<stop  offset="0.9078" style="stop-color:#B7B7B7"/>
	<stop  offset="1" style="stop-color:#C6C6C6"/>
</linearGradient>
<path style="fill:url(#SVGID_00000072974758368670523490000007382140799028509844_);" d="M99.6,46.8c-1.7,0-3.3,0.1-5,0.1V29.2
	c1.6,0,3.3,0,4.9,0c-0.3,0.5-0.7,1.3-1,2.3c-0.5,2.1,0.2,3,0.2,5.5c0.1,3-1,3.5-0.7,5.9C98.3,44.7,99,46,99.6,46.8z"/>
<linearGradient id="SVGID_00000114061719399106298560000018015286228663110276_" gradientUnits="userSpaceOnUse" x1="-1432.1483" y1="548.8028" x2="-1430.5431" y2="548.8028" gradientTransform="matrix(-1 0 0 1 -1335.2839 -510.7528)">
	<stop  offset="0" style="stop-color:#000000;stop-opacity:0"/>
	<stop  offset="0.3429" style="stop-color:#0A0A0A;stop-opacity:0.3341"/>
	<stop  offset="0.9264" style="stop-color:#252525;stop-opacity:0.9026"/>
	<stop  offset="1" style="stop-color:#292929;stop-opacity:0.9744"/>
</linearGradient>
<polygon style="opacity:0.28;fill:url(#SVGID_00000114061719399106298560000018015286228663110276_);enable-background:new    ;" points="
	95.3,29.2 96.9,29.2 96.9,46.9 95.3,46.9 "/>
<linearGradient id="SVGID_00000155838011505356759310000006534751716442065584_" gradientUnits="userSpaceOnUse" x1="-183.2122" y1="548.5528" x2="-178.9987" y2="548.5528" gradientTransform="matrix(1 0 0 1 225.5993 -510.7528)">
	<stop  offset="0" style="stop-color:#000000;stop-opacity:0"/>
	<stop  offset="0.3429" style="stop-color:#0A0A0A;stop-opacity:0.3341"/>
	<stop  offset="0.9264" style="stop-color:#252525;stop-opacity:0.9026"/>
	<stop  offset="1" style="stop-color:#292929;stop-opacity:0.9744"/>
</linearGradient>
<path style="opacity:0.28;fill:url(#SVGID_00000155838011505356759310000006534751716442065584_);enable-background:new    ;" d="
	M46.6,22.9c-0.7,0.1-1.5,0.2-2.3,0.3c-0.7,0.1-1.3,0.1-1.9,0.1c0,9.7,0,19.3,0,29c0.6,0,1.3,0.1,2,0.1c0.8,0.1,1.5,0.2,2.2,0.3
	C46.6,42.8,46.6,32.9,46.6,22.9z"/>
<linearGradient id="SVGID_00000058569950271932166590000011967969868393538201_" gradientUnits="userSpaceOnUse" x1="-160.9778" y1="548.7528" x2="-156.1681" y2="548.7528" gradientTransform="matrix(1 0 0 1 225.5993 -510.7528)">
	<stop  offset="0" style="stop-color:#000000;stop-opacity:0"/>
	<stop  offset="0.3429" style="stop-color:#0A0A0A;stop-opacity:0.3341"/>
	<stop  offset="0.9264" style="stop-color:#252525;stop-opacity:0.9026"/>
	<stop  offset="1" style="stop-color:#292929;stop-opacity:0.9744"/>
</linearGradient>
<path style="opacity:0.28;fill:url(#SVGID_00000058569950271932166590000011967969868393538201_);enable-background:new    ;" d="
	M69.4,25.3c-0.7,0.1-1.5,0.1-2.3,0.2c-0.9,0-1.7,0.1-2.5,0.1c0,8.3,0,16.5,0,24.8c0.7,0,1.5,0,2.4,0.1c0.8,0,1.6,0.1,2.4,0.2
	C69.4,42.2,69.4,33.7,69.4,25.3z"/>
<linearGradient id="SVGID_00000070117284391396247340000009344225468170065846_" gradientUnits="userSpaceOnUse" x1="-1141.5828" y1="548.7528" x2="-1136.8262" y2="548.7528" gradientTransform="matrix(-1 0 0 1 -1078.296 -510.7528)">
	<stop  offset="0" style="stop-color:#000000;stop-opacity:0"/>
	<stop  offset="0.3429" style="stop-color:#0A0A0A;stop-opacity:0.3341"/>
	<stop  offset="0.9264" style="stop-color:#252525;stop-opacity:0.9026"/>
	<stop  offset="1" style="stop-color:#292929;stop-opacity:0.9744"/>
</linearGradient>
<path style="opacity:0.28;fill:url(#SVGID_00000070117284391396247340000009344225468170065846_);enable-background:new    ;" d="
	M58.5,25.2c0.7,0.1,1.4,0.2,2.2,0.3c0.9,0.1,1.8,0.1,2.5,0.1c0,8.3,0,16.5,0,24.8c-0.7,0-1.5,0-2.4,0.1s-1.7,0.2-2.4,0.3
	C58.5,42.2,58.5,33.7,58.5,25.2z"/>
<linearGradient id="SVGID_00000091726389419584803700000012735772514908780686_" gradientUnits="userSpaceOnUse" x1="-1118.6473" y1="548.6028" x2="-1114.3867" y2="548.6028" gradientTransform="matrix(-1 0 0 1 -1078.296 -510.7528)">
	<stop  offset="0" style="stop-color:#000000;stop-opacity:0"/>
	<stop  offset="0.3429" style="stop-color:#0A0A0A;stop-opacity:0.3341"/>
	<stop  offset="0.9264" style="stop-color:#252525;stop-opacity:0.9026"/>
	<stop  offset="1" style="stop-color:#292929;stop-opacity:0.9744"/>
</linearGradient>
<path style="opacity:0.28;fill:url(#SVGID_00000091726389419584803700000012735772514908780686_);enable-background:new    ;" d="
	M36.1,23c0.7,0.1,1.4,0.2,2.2,0.3c0.8,0.1,1.5,0.1,2.1,0.1c0,9.6,0,19.3,0,28.9c-0.7,0-1.5,0-2.3,0.1c-0.7,0.1-1.3,0.2-1.9,0.3
	C36.1,42.8,36.1,32.9,36.1,23z"/>
<path class="st0" d="M60.6,134.5L60.6,134.5L60.6,134.5C60.7,134.5,60.7,134.5,60.6,134.5c3.5-0.6,6.8-0.3,8.2-0.1c0,0,0,0,0,0.1
	c0.3,0.4,0.6,0.8,0.9,1.1c0.3-0.3,0.7-0.7,1-1l0,0v1.5c0,0.6,0,1.3,0,1.8v0.1l0,0c0.1,2.6,0.8,4.5,0.8,4.5h23
	c0.5-1.6,0.7-3.2,0.8-4.5l0,0c0-2.3,0-4.5,0-6.8c0.5,0,1,0,1.5,0c0.3,0,0.5,0,0.8,0c0.3-0.7,0.5-1.3,0.6-1.7c0,0,0.1-0.7,0.2-1.5
	c0-0.2,0-0.6,0-0.7c0-0.4,0-0.8,0-0.9c0-0.2,0-0.9-0.3-2.2c-0.2-0.8-0.4-1.3-0.5-1.7c0-0.1-0.7-2.1-0.7-4.4c0-2.2,0.5-3.8,0.7-4.4
	c-0.3,0-0.5,0-0.8,0l0,0h-1.5v-8.3c0-0.4,0-0.8,0-1.2l0,0l0,0c-0.1-2.7-0.8-4.4-0.8-4.4h-23c-0.7,2-0.9,4-0.8,5.7v4l0,0
	c-0.3-0.3-0.7-0.6-1-1c-0.3,0.4-0.6,0.8-0.9,1.1l0,0c-0.1,0-0.1,0-0.2,0h-0.1c-3.5,0.4-6.1,0.2-7.3,0c-0.2,0-0.5-0.1-0.7-0.1l0,0
	l0,0"/>
<path class="st13" d="M95.5,113.6c0-1.5,0-3,0-4.5c0-0.5,0-1.1,0-1.6c0-0.3,0-0.5,0-0.8c0-0.4,0-0.9,0-1.3c-0.1-0.8-0.2-1.6-0.3-2.5
	c-0.1-0.7-0.3-1.3-0.5-1.8c-7.8,0-15.5,0-23.3,0c-0.5,1.4-0.7,2.6-0.8,3.4c-0.1,0.9-0.1,1.8-0.1,2.7c0,0.8,0,1.5,0.1,2
	c0.2-0.2,0.4-0.5,0.6-0.7c0.4-0.5,0.7-1,0.9-1.4c0.4,0.8,0.9,1.6,1.3,2.3c0.1-0.2,0.2-0.3,0.3-0.5c0.4-0.6,0.7-1.2,1.1-1.8
	c0.4,0.8,0.8,1.5,1.2,2.3c0.5-0.8,1-1.5,1.6-2.3c0.3,0.6,0.5,1.1,0.6,1.4c0.2,0.6,0.3,0.8,0.5,1.1c0.3,0.4,0.8,0.6,1.1,0.7
	c0.5,0.3,1,0.6,1.5,0.8c-0.2,8.3-0.4,16.5-0.6,24.8c-0.2,0.2-0.3,0.5-0.5,0.7c-0.5-0.4-0.9-0.9-1.4-1.3c-0.4,0.8-0.8,1.7-1.2,2.5
	c-0.5-0.7-1.1-1.4-1.6-2.2c-0.4,0.7-0.8,1.4-1.2,2.2c-0.5-0.7-1-1.5-1.5-2.2c-0.4,0.7-0.8,1.5-1.2,2.2c-0.5-0.8-0.9-1.6-1.4-2.3
	c-0.1,0.1-0.1,0.2-0.2,0.3c0,0.1,0,0.2-0.1,0.3c0,1.2,0.1,2.4,0.1,3.7c0.1,0.9,0.2,1.8,0.5,2.7c0.1,0.4,0.2,0.7,0.3,1.1
	c7.8,0,15.5,0,23.3,0.1c0.2-0.7,0.5-1.9,0.7-3.3c0.2-1.3,0.1-2.3,0.1-3.1c0-1.4-0.1-3.4,0.1-6c1.3,0,2.6,0,3.9,0
	c-0.4-0.5-0.9-1.4-1.2-2.7c-0.2-1.1-0.2-2.2,0-2.8c0-0.1,0.1-0.4,0.2-0.9c0-0.1,0.1-0.3,0.1-0.5c0.1-0.5,0.2-1.1,0.2-2
	c0.1-1.6-0.2-1.9-0.2-4c0-0.9-0.1-1.5,0-2.4c0.1-0.5,0.2-0.9,0.3-1.1c0.2-0.6,0.4-1.2,0.6-1.5C99.6,113.6,99.6,113.6,95.5,113.6z"/>
<linearGradient id="SVGID_00000032611892962936918990000003775006131665876383_" gradientUnits="userSpaceOnUse" x1="79.9" y1="31.8553" x2="79.9" y2="45.7199" gradientTransform="matrix(1 0 0 -1 0 161)">
	<stop  offset="0" style="stop-color:#424242"/>
	<stop  offset="0.1068" style="stop-color:#333333"/>
	<stop  offset="0.2055" style="stop-color:#2D2D2D"/>
	<stop  offset="0.3492" style="stop-color:#424244"/>
	<stop  offset="0.6732" style="stop-color:#7F7F7F"/>
	<stop  offset="0.9078" style="stop-color:#414042"/>
</linearGradient>
<path style="fill:url(#SVGID_00000032611892962936918990000003775006131665876383_);" d="M60.8,115.3c12.7,0,25.5,0,38.2,0
	c-0.4,1.8-0.4,2.9-0.3,3.5c0,0.1,0.1,0.7,0.2,1.5c0,0.2,0.1,0.6,0.1,1c0,1.1-0.2,1.3-0.4,2.8c0,0.4-0.1,0.7-0.1,1.1
	c0,0.1-0.1,0.4-0.1,0.7c0,0-0.1,0.2-0.1,0.4c-0.1,0.8,0,1.8,0.5,2.9c-12.6,0-25.3,0-37.9,0"/>
<linearGradient id="SVGID_00000183210860666571001030000003431839866215844752_" gradientUnits="userSpaceOnUse" x1="59.7865" y1="30.2" x2="59.7865" y2="47.4194" gradientTransform="matrix(1 0 0 -1 0 161)">
	<stop  offset="1.322495e-02" style="stop-color:#353535"/>
	<stop  offset="0.1453" style="stop-color:#2D2D2D"/>
	<stop  offset="0.2278" style="stop-color:#232323"/>
	<stop  offset="0.3708" style="stop-color:#383838"/>
	<stop  offset="0.6569" style="stop-color:#707070"/>
	<stop  offset="0.9347" style="stop-color:#333333"/>
</linearGradient>
<polygon style="fill:url(#SVGID_00000183210860666571001030000003431839866215844752_);" points="58.7,113.6 58.7,122.2 58.7,130.8 
	60.9,129.2 60.9,122.2 60.9,115.2 "/>
<polygon class="st16" points="74.9,131.6 71.4,130.8 74.9,130.8 "/>
<polygon class="st16" points="74.9,112.9 71.4,113.7 74.9,113.7 "/>
<polygon class="st16" points="80,109.7 80.2,109.7 80.2,109.3 79,109.3 79,109.7 "/>
<polygon class="st16" points="80,135.1 80.1,135.1 80.1,134.8 79,134.8 79,135.1 "/>
<g>
	
		<linearGradient id="SVGID_00000050629502110520338510000012829042336175081089_" gradientUnits="userSpaceOnUse" x1="-1014.0458" y1="103.3" x2="-1014.0458" y2="142.9593" gradientTransform="matrix(-1 0 0 -1 -961.2958 161)">
		<stop  offset="2.234637e-02" style="stop-color:#1A1A1A"/>
		<stop  offset="0.9832" style="stop-color:#CCCCCC"/>
	</linearGradient>
	<polygon style="fill:url(#SVGID_00000050629502110520338510000012829042336175081089_);" points="46.6,57.7 58.9,57.7 58.9,18 
		46.6,18 	"/>
	
		<linearGradient id="SVGID_00000061446826419612721020000012121148084306170761_" gradientUnits="userSpaceOnUse" x1="-1014.0458" y1="98.0375" x2="-1014.0458" y2="110.3375" gradientTransform="matrix(-1 0 0 -1 -961.2958 161)">
		<stop  offset="0" style="stop-color:#727272"/>
		<stop  offset="1" style="stop-color:#4C4C4C"/>
	</linearGradient>
	<path style="fill:url(#SVGID_00000061446826419612721020000012121148084306170761_);" d="M47,50.7h11.5c0,0,0.9,5.3,0,12.3H47
		C47,63,46.1,56.6,47,50.7z"/>
	
		<linearGradient id="SVGID_00000036939133755146270220000014932330151296690354_" gradientUnits="userSpaceOnUse" x1="-1014.0458" y1="110.3475" x2="-1014.0458" y2="135.874" gradientTransform="matrix(-1 0 0 -1 -961.2958 161)">
		<stop  offset="0" style="stop-color:#A0A0A0"/>
		<stop  offset="1" style="stop-color:#777777"/>
	</linearGradient>
	<path style="fill:url(#SVGID_00000036939133755146270220000014932330151296690354_);" d="M47,25.1h11.5c0,0,0.9,10.9,0,25.5H47
		C47,50.7,46.1,37.5,47,25.1z"/>
	
		<linearGradient id="SVGID_00000024684272481310971390000014321097091396747450_" gradientUnits="userSpaceOnUse" x1="-1014.0458" y1="135.874" x2="-1014.0458" y2="148.174" gradientTransform="matrix(-1 0 0 -1 -961.2958 161)">
		<stop  offset="0" style="stop-color:#F4F4F4"/>
		<stop  offset="1" style="stop-color:#BABABA"/>
	</linearGradient>
	<path style="fill:url(#SVGID_00000024684272481310971390000014321097091396747450_);" d="M47,12.8h11.5c0,0,0.9,5.3,0,12.3H47
		C47,25.1,46.1,18.8,47,12.8z"/>
</g>
<g>
	
		<linearGradient id="SVGID_00000167358638108245472660000014610925756620806824_" gradientUnits="userSpaceOnUse" x1="-980.6958" y1="101.8" x2="-980.6958" y2="143.925" gradientTransform="matrix(-1 0 0 -1 -961.2958 161)">
		<stop  offset="2.234637e-02" style="stop-color:#1A1A1A"/>
		<stop  offset="0.9832" style="stop-color:#CCCCCC"/>
	</linearGradient>
	<polygon style="fill:url(#SVGID_00000167358638108245472660000014610925756620806824_);" points="3.8,59.2 35,59.2 35,17 3.8,17 	
		"/>
	
		<linearGradient id="SVGID_00000022546246062904548520000001328895158859369910_" gradientUnits="userSpaceOnUse" x1="-980.7236" y1="96.2" x2="-980.7236" y2="109.2753" gradientTransform="matrix(-1 0 0 -1 -961.2958 161)">
		<stop  offset="0" style="stop-color:#727272"/>
		<stop  offset="1" style="stop-color:#4C4C4C"/>
	</linearGradient>
	<path style="fill:url(#SVGID_00000022546246062904548520000001328895158859369910_);" d="M4.9,51.7H34c0,0,2.3,5.6,0,13.1H4.9
		C4.9,64.8,2.5,58.1,4.9,51.7z"/>
	
		<linearGradient id="SVGID_00000060023035393024948820000017533543477394079162_" gradientUnits="userSpaceOnUse" x1="-980.7236" y1="109.3" x2="-980.7236" y2="136.4" gradientTransform="matrix(-1 0 0 -1 -961.2958 161)">
		<stop  offset="0" style="stop-color:#A0A0A0"/>
		<stop  offset="1" style="stop-color:#777777"/>
	</linearGradient>
	<path style="fill:url(#SVGID_00000060023035393024948820000017533543477394079162_);" d="M4.9,24.6H34c0,0,2.3,11.6,0,27.1H4.9
		C4.9,51.7,2.5,37.8,4.9,24.6z"/>
	
		<linearGradient id="SVGID_00000004540267474961096730000000753959142916329394_" gradientUnits="userSpaceOnUse" x1="-980.7236" y1="136.4" x2="-980.7236" y2="149.4753" gradientTransform="matrix(-1 0 0 -1 -961.2958 161)">
		<stop  offset="0" style="stop-color:#F4F4F4"/>
		<stop  offset="1" style="stop-color:#BABABA"/>
	</linearGradient>
	<path style="fill:url(#SVGID_00000004540267474961096730000000753959142916329394_);" d="M4.9,11.5H34c0,0,2.3,5.6,0,13.1H4.9
		C4.9,24.6,2.5,17.9,4.9,11.5z"/>
</g>
<g>
	
		<linearGradient id="SVGID_00000041270289598809982470000004700645137311990664_" gradientUnits="userSpaceOnUse" x1="-1044.1458" y1="106.1493" x2="-1044.1458" y2="139.9493" gradientTransform="matrix(-1 0 0 -1 -961.2958 161)">
		<stop  offset="2.234637e-02" style="stop-color:#1A1A1A"/>
		<stop  offset="0.9832" style="stop-color:#CCCCCC"/>
	</linearGradient>
	<polygon style="fill:url(#SVGID_00000041270289598809982470000004700645137311990664_);" points="70.4,54.9 95.3,54.9 95.3,21.1 
		70.4,21.1 	"/>
	
		<linearGradient id="SVGID_00000115514729824116176810000011248748429066997163_" gradientUnits="userSpaceOnUse" x1="-1044.1235" y1="101.6338" x2="-1044.1235" y2="112.1338" gradientTransform="matrix(-1 0 0 -1 -961.2958 161)">
		<stop  offset="0" style="stop-color:#727272"/>
		<stop  offset="1" style="stop-color:#4C4C4C"/>
	</linearGradient>
	<path style="fill:url(#SVGID_00000115514729824116176810000011248748429066997163_);" d="M71.2,48.9h23.3c0,0,1.8,4.5,0,10.5H71.2
		C71.2,59.4,69.3,54,71.2,48.9z"/>
	
		<linearGradient id="SVGID_00000007427921024961478270000012579581354474900891_" gradientUnits="userSpaceOnUse" x1="-1044.1235" y1="112.1247" x2="-1044.1235" y2="133.8791" gradientTransform="matrix(-1 0 0 -1 -961.2958 161)">
		<stop  offset="0" style="stop-color:#A0A0A0"/>
		<stop  offset="1" style="stop-color:#777777"/>
	</linearGradient>
	<path style="fill:url(#SVGID_00000007427921024961478270000012579581354474900891_);" d="M71.2,27.1h23.3c0,0,1.8,9.3,0,21.8H71.2
		C71.2,48.9,69.3,37.7,71.2,27.1z"/>
	
		<linearGradient id="SVGID_00000170980629688045071850000011955178379004385931_" gradientUnits="userSpaceOnUse" x1="-1044.1235" y1="133.8791" x2="-1044.1235" y2="144.3791" gradientTransform="matrix(-1 0 0 -1 -961.2958 161)">
		<stop  offset="0" style="stop-color:#F4F4F4"/>
		<stop  offset="1" style="stop-color:#BABABA"/>
	</linearGradient>
	<path style="fill:url(#SVGID_00000170980629688045071850000011955178379004385931_);" d="M71.2,16.6h23.3c0,0,1.8,4.5,0,10.5H71.2
		C71.2,27.1,69.3,21.7,71.2,16.6z"/>
</g>
<path class="st29" d="M6.3,136.9"/>
<path class="st0" d="M59.3,106.3c0-0.3,0-0.5,0-0.8l0,0l0,0c-0.1-2.7-0.4-4.4-0.4-4.4H47.5c-0.3,1.8-0.4,5.2-0.4,5.2
	c-0.9,0.1-2,0.3-3.4,0.4c-1.1,0.1-2,0.1-2.9,0.1l0,0c-1.5,0-2.7-0.1-3.5-0.3c-0.3,0-0.5-0.1-0.8-0.1l0,0c-0.3-0.5-0.7-0.9-1-1.4
	c-0.4,0.4-0.8,0.8-1.2,1.2v-4.9c0-0.5,0-1,0-1.5l0,0l0,0c-0.1-3.4-1-5.5-1-5.5h-28c-0.4,2.1-0.8,4.5-1,7.1c-0.3,3.7-0.2,7,0,9.8
	c-0.5,0-0.9,0-1.4,0c-0.4,0-0.9,0-1.3,0c0.6,1.5,1.1,3.6,1.1,6c0,2.7-0.7,5-0.9,5.4c-0.2,0.5-0.4,1.1-0.6,2.1
	c-0.3,1.5-0.3,2.5-0.3,2.7c0,0.1,0,0.6,0,1.1c0,0.1,0,0.5,0,0.8s0.1,1,0.2,1.8c0.1,0.6,0.3,1.3,0.6,2.1h1.1h1.4c0,2.1,0,4.1,0,6.2
	c0,0.8,0,1.6,0,2.3v0.1l0,0c0.2,3.2,1,5.6,1,5.6h28c0.6-2,0.9-3.9,0.9-5.6v-4.3l0,0c0.4,0.4,0.8,0.9,1.2,1.3
	c0.4-0.5,0.7-0.9,1.1-1.4c2.3-0.4,4.5-0.4,6.3-0.3c0.1,0,0.1,0,0.2,0c0.9,0,1.7,0.1,2.3,0.2c0.2,0,0.3,0,0.5,0.1c0.1,0,0.2,0,0.3,0
	c0.4,0,0.7,0.1,1,0.2l0,0l0,0l0,0c0,0.5,0,1,0,1.5v0.1l0,0c0.1,2.6,0.4,4.5,0.4,4.5h11.4c0.2-1.6,0.4-3.1,0.4-4.5l0,0v-1.6l0,0l0,0
	h0.1"/>
<linearGradient id="SVGID_00000158711673101253532660000010755174609139005344_" gradientUnits="userSpaceOnUse" x1="17.3" y1="24.1" x2="17.3" y2="24.1" gradientTransform="matrix(1 0 0 -1 0 161)">
	<stop  offset="0" style="stop-color:#808285"/>
	<stop  offset="0.2039" style="stop-color:#424244"/>
	<stop  offset="0.3035" style="stop-color:#464648"/>
	<stop  offset="0.4018" style="stop-color:#525253"/>
	<stop  offset="0.4888" style="stop-color:#636363"/>
	<stop  offset="0.6229" style="stop-color:#666666"/>
	<stop  offset="0.7905" style="stop-color:#959696"/>
	<stop  offset="0.8351" style="stop-color:#747575"/>
	<stop  offset="0.919" style="stop-color:#919191"/>
	<stop  offset="1" style="stop-color:#676868"/>
</linearGradient>
<path style="fill:url(#SVGID_00000158711673101253532660000010755174609139005344_);" d="M17.3,136.9"/>
<linearGradient id="SVGID_00000053525011474399745300000000104021482501206697_" gradientUnits="userSpaceOnUse" x1="25.9" y1="52.7" x2="25.9" y2="52.7" gradientTransform="matrix(1 0 0 -1 0 161)">
	<stop  offset="0" style="stop-color:#444444"/>
	<stop  offset="8.097430e-02" style="stop-color:#5B5B5B"/>
	<stop  offset="0.2486" style="stop-color:#3A3A3A"/>
	<stop  offset="0.3205" style="stop-color:#3E3E3E"/>
	<stop  offset="0.3898" style="stop-color:#494949"/>
	<stop  offset="0.458" style="stop-color:#5D5D5D"/>
	<stop  offset="0.4832" style="stop-color:#666666"/>
	<stop  offset="0.6844" style="stop-color:#474747"/>
	<stop  offset="0.8352" style="stop-color:#636363"/>
</linearGradient>
<path style="fill:url(#SVGID_00000053525011474399745300000000104021482501206697_);" d="M25.9,108.3"/>
<linearGradient id="SVGID_00000000207476652032006280000000618915173512306619_" gradientUnits="userSpaceOnUse" x1="26" y1="667.9502" x2="26" y2="667.9502" gradientTransform="matrix(1 0 0 1 0 -529.0502)">
	<stop  offset="0" style="stop-color:#444444"/>
	<stop  offset="8.097430e-02" style="stop-color:#5B5B5B"/>
	<stop  offset="0.2486" style="stop-color:#3A3A3A"/>
	<stop  offset="0.3205" style="stop-color:#3E3E3E"/>
	<stop  offset="0.3898" style="stop-color:#494949"/>
	<stop  offset="0.458" style="stop-color:#5D5D5D"/>
	<stop  offset="0.4832" style="stop-color:#666666"/>
	<stop  offset="0.6844" style="stop-color:#474747"/>
	<stop  offset="0.8352" style="stop-color:#636363"/>
</linearGradient>
<path style="fill:url(#SVGID_00000000207476652032006280000000618915173512306619_);" d="M26,138.9"/>
<path class="st13" d="M2.2,121c0.5-2.1,0.5-4,0.4-5c-0.1-1.1-0.4-2.7-1.2-4.5c0.5,0,0.9,0,1.4,0c0.4,0,0.8,0,1.3,0
	c0-3.1,0-5.7,0-8.1c0-0.4,0-3.7,0.5-5.7c0-0.1,0.5-1.8,0.5-1.8s21.1,0,29.1,0c0.6,1.7,0.8,3.1,0.9,4c0,0.4,0,0.8,0,3.4
	c0,1.1,0,2,0,2.6c-0.4-0.7-0.9-1.4-1.3-2c-0.4,0.8-0.9,1.6-1.3,2.3c-0.5-0.8-0.9-1.6-1.4-2.3c-0.4,0.8-0.9,1.6-1.3,2.3
	c-0.5-0.8-0.9-1.6-1.4-2.3c-0.4,0.8-0.8,1.5-1.2,2.3c-0.5-0.8-1-1.5-1.6-2.3c-0.4,0.8-0.7,1.7-1.1,2.5c-1.1,0.6-2.1,1.2-3.2,1.8
	c0.1,10,0.2,19.9,0.3,29.9c0.9,0,1.8,0.1,2.7,0.1c0.4,0.8,0.7,1.7,1.1,2.5c0.5-0.8,1-1.5,1.6-2.3c0.4,0.8,0.8,1.5,1.2,2.3
	c0.5-0.8,1-1.6,1.4-2.3c0.4,0.8,0.8,1.6,1.3,2.3c0.5-0.8,0.9-1.6,1.4-2.3c0.4,0.8,0.9,1.6,1.3,2.3c0.5-0.9,1-1.7,1.6-2.6
	c0,1.1-0.1,2.2-0.1,3.3c0,0.8,0,1.5,0,2.3v0.1l0,0c-0.2,3.2-1,5.6-1,5.6h-29c-0.6-2-0.9-3.9-1-5.6l0,0c0.1-3.5,0.1-6.9,0.2-10.4
	c-0.5,0-1.1,0-1.6,0c-0.4,0-0.7,0-1.1,0c-0.1-0.3-0.1-0.5-0.2-0.7c-0.2-0.7-0.3-0.9-0.3-1.3c0-0.2-0.1-0.3-0.1-0.7
	c-0.1-0.4-0.1-0.8-0.1-0.8c0-0.4-0.1-1.4,0-2.6c0-0.7,0.2-1.8,0.5-3.2C1.6,122.5,1.8,122.3,2.2,121z"/>
<path class="st33" d="M16,135.7c-0.5-0.7-1.7-2-3.5-2.5c-0.4-0.1-0.7-0.2-1.1-0.2c1.2,1,2.4,2,3.6,3c0,0.3,0,0.7,0,1l0,0
	c0,0.3,0,1.1,0,1.1l0,0l0,0c0.2,0,0.4,0,0.6,0c0.6,0,1.1,0,1.7,0c0.4,0,0.8,0,1.2,0c0.2,0,0.2,0,0.2,0s1.1,1.4,1.6,2
	c0.4-0.7,0.8-1.4,1.3-2.1l1.3,2.5l1.2-2.5c-0.4-0.3-0.7-0.5-1.1-0.8c0-1.1,0-2.1,0-3.2c-0.3-0.1-0.6-0.1-1-0.2
	C19.9,134.5,17.9,135.1,16,135.7z"/>
<g>
	<defs>
		<path id="SVGID_00000002366434879581060150000000549917415293903782_" d="M36.6,133.2v-2.4c-11.9,0-23.7,0-35.6,0
			c0,0.3,0.1,0.6,0.2,0.9c0.1,0.5,0.2,1,0.4,1.5C13.4,133.2,24.9,133.2,36.6,133.2z"/>
	</defs>
	<clipPath id="SVGID_00000091003922872480366710000016721078081737496985_">
		<use xlink:href="#SVGID_00000002366434879581060150000000549917415293903782_"  style="overflow:visible;"/>
	</clipPath>
	<g style="clip-path:url(#SVGID_00000091003922872480366710000016721078081737496985_);">
		
			<image style="overflow:visible;" width="600" height="600" xlink:href="../../background.jpg"  transform="matrix(1.005451e-17 0.1642 -0.1642 1.005451e-17 79.9438 39.6254)">
		</image>
	</g>
</g>
<path class="st34" d="M35.3,105.9l-1.4-2.1l-1.3,2.3l-1.4-2.3l-1.3,2.3l-1.4-2.3l-1.2,2.3l-1.6-2.3c-0.4,0.8-0.7,1.7-1.1,2.5h-0.1
	l-1.7,1"/>
<rect x="23.6" y="106.2" class="st16" width="0.2" height="0.4"/>
<path d="M36.5,145.8"/>
<path class="st0" d="M18,108"/>
<path class="st33" d="M19.9,105.7"/>
<path class="st33" d="M19.6,107.7"/>
<path class="st35" d="M11.9,110.7"/>
<path class="st0" d="M23.9,109.3"/>
<path class="st33" d="M15.7,109.1c-0.5,0.7-1.7,2-3.5,2.5c-0.4,0.1-0.7,0.2-1.1,0.2c1.2-1,2.4-2,3.6-3c0-0.3,0-0.7,0-1l0,0
	c0-0.3,0-1.1,0-1.1l0,0l0,0c0.2,0,0.4,0,0.6,0c0.6,0,1.1,0,1.7,0c0.4,0,0.8,0,1.2,0c0.2,0,0.2,0,0.2,0s1.1-1.4,1.6-2
	c0.4,0.7,0.8,1.4,1.3,2.1l1.3-2.5l1.2,2.5c-0.4,0.3-0.7,0.5-1.1,0.8c0,1.1,0,2.1,0,3.2c-0.3,0.1-0.6,0.1-1,0.2
	C19.6,110.2,17.6,109.7,15.7,109.1z"/>
<polygon class="st16" points="28.4,110.5 32.6,111.4 28.4,111.4 "/>
<path class="st0" d="M27.9,111.1c-0.4,0-0.9,0-1.3,0c0.4,0.2,0.9,0.5,1.3,0.7C27.9,111.6,27.9,111.4,27.9,111.1z"/>
<path class="st0" d="M26.1,111.1c-0.4,0-0.9,0-1.3,0c0.4,0.2,0.9,0.5,1.3,0.7C26.1,111.6,26.1,111.4,26.1,111.1z"/>
<path class="st0" d="M13,133.2c-0.1,0-0.3,0-0.5,0.2c0,0-0.1,0.1-0.1,0.2c-0.1,0.3,0.1,0.6,0.1,0.6l0,0c0,0,0.7,0.6,1,0.8
	c0.4,0.3,0.9,0.7,1.5,1.3c0.9,0,1.5,0,1.8,0h1.3h0.1h0.1l0,0l0,0l0,0l0,0l0,0l0,0l0,0c0,0,0,0,0-0.1v-0.1c0-0.1,0-0.2,0-0.3
	c0-0.3,0-0.3,0-0.3l0,0c0-0.2,0.1-0.3,0.1-0.3c0-0.1,0.1-0.1,0.2-0.1c0.2-0.1,0.4-0.1,0.7-0.1c0.1,0,0.3,0,0.4,0c0,0,0.4,0,1.1,0
	c2.5,0,2.5,0,2.5,0s3.1-0.6,5.1-1l0,0l0,0c0-0.6,0-0.7,0-0.8l0,0l0,0c-0.7,0-1.1,0-1.1,0c0-0.3,0-0.5,0-0.5l-0.9,0.5
	c0,0-0.3,0-0.6,0c-0.1,0-0.2,0-0.4,0c0-0.3,0-0.5,0-0.5s-0.3,0.2-0.8,0.5c-1.7,0-3.4,0-5.1,0C17.7,133.2,15.3,133.2,13,133.2z"/>
<g>
	<path id="SVGID_00000055666878941846501800000010739701841889854143_" class="st35" d="M13,133.2c-0.1,0-0.3,0-0.5,0.2
		c0,0-0.1,0.1-0.1,0.2c-0.1,0.3,0.1,0.6,0.1,0.6l0,0c0,0,0.7,0.6,1,0.8c0.4,0.3,0.9,0.7,1.5,1.3c0.9,0,1.5,0,1.8,0h1.3h0.1h0.1l0,0
		l0,0l0,0l0,0l0,0l0,0l0,0c0,0,0,0,0-0.1v-0.1c0-0.1,0-0.2,0-0.3c0-0.3,0-0.3,0-0.3l0,0c0-0.2,0.1-0.3,0.1-0.3
		c0-0.1,0.1-0.1,0.2-0.1c0.2-0.1,0.4-0.1,0.7-0.1c0.1,0,0.3,0,0.4,0c0,0,0.4,0,1.1,0c2.5,0,2.5,0,2.5,0s3.1-0.6,5.1-1l0,0l0,0
		c0-0.6,0-0.7,0-0.8l0,0l0,0c-0.7,0-1.1,0-1.1,0c0-0.3,0-0.5,0-0.5l-0.9,0.5c0,0-0.3,0-0.6,0c-0.1,0-0.2,0-0.4,0c0-0.3,0-0.5,0-0.5
		s-0.3,0.2-0.8,0.5c-1.7,0-3.4,0-5.1,0C17.7,133.2,15.3,133.2,13,133.2z"/>
</g>
<polygon class="st16" points="28.5,134.1 32.7,133.2 28.5,133.2 "/>
<path class="st34" d="M35.4,137.9c-0.6,0.9-1.1,1.7-1.7,2.6l-1.3-2.3l-1.4,2.3l-1.3-2.3l-1.4,2.3l-1.2-2.3l-1.6,2.3
	c-0.3-0.8-0.6-1.7-1-2.5c-0.2,0-0.3,0-0.5,0h-0.3"/>
<polygon class="st16" points="23.5,138.3 23.7,138.3 23.7,137.9 22.4,137.9 22.4,138.3 "/>
<g>
	<defs>
		<path id="SVGID_00000153689774312135370190000011494320764714793146_" d="M36.9,111.2v2.4c-11.5,0-23,0-34.5,0
			c-0.1-0.3-0.2-0.6-0.3-0.9c-0.2-0.5-0.4-1-0.6-1.5C13.2,111.2,25.1,111.2,36.9,111.2z"/>
	</defs>
	<clipPath id="SVGID_00000068656550436144514660000013288063418591448738_">
		<use xlink:href="#SVGID_00000153689774312135370190000011494320764714793146_"  style="overflow:visible;"/>
	</clipPath>
	<g style="clip-path:url(#SVGID_00000068656550436144514660000013288063418591448738_);">
		
			<image style="overflow:visible;" width="600" height="600" xlink:href="../../background.jpg"  transform="matrix(8.984593e-18 0.1467 -0.1467 8.984593e-18 87.0225 56.8468)">
		</image>
	</g>
</g>
<path class="st0" d="M36.9,133.2v-2.4c-11.9,0-23.9,0-35.8,0c0.1,0.3,0.1,0.6,0.2,0.9c0.1,0.5,0.2,1,0.4,1.5
	C13.4,133.2,25.1,133.2,36.9,133.2z"/>
<path class="st0" d="M13,111.2c-0.1,0-0.4,0-0.5-0.2c0,0-0.1-0.1-0.1-0.2c-0.1-0.3,0.1-0.6,0.1-0.6s0.7-0.6,1-0.8
	c0.4-0.3,0.9-0.7,1.5-1.3c0.9,0,1.5,0,1.8,0h1.3h0.1h0.1l0,0l0,0l0,0l0,0l0,0l0,0l0,0c0,0,0,0,0,0.1v0.1c0,0.1,0,0.2,0,0.3
	c0,0.3,0,0.3,0,0.3l0,0c0,0.2,0.1,0.3,0.1,0.3c0,0.1,0.1,0.1,0.2,0.1c0.2,0.1,0.4,0.1,0.7,0.1c0.1,0,0.3,0,0.4,0c0,0,0.4,0,1.1,0
	c2.5,0,2.5,0,2.5,0s3.1,0.6,5.1,1l0,0l0,0c0,0.6,0,0.7,0,0.8l0,0l0,0c-0.4,0-0.7,0-1.1,0l0,0c0,0.4,0.1,0.8,0.1,1.1
	c-0.4-0.4-0.8-0.8-1.2-1.1l0,0l0,0l0,0c-0.2,0-0.4,0-0.6,0c0,0.4,0,0.8,0,1.1c-0.4-0.4-0.8-0.8-1.2-1.2l0,0c-0.9,0-1.6,0-2,0
	c-0.1,0-0.5,0-0.9,0c-0.2,0-0.4,0-0.7,0c-0.5,0-0.9,0-1.1,0c-0.4,0-0.8,0-1.2,0h-2.4C16.4,111.2,13.9,111.2,13,111.2z"/>
<g>
	<defs>
		<path id="SVGID_00000016755865317745680540000006616972372274273428_" d="M13,111.3c-0.1,0-0.4,0-0.5-0.2c0,0-0.1-0.1-0.1-0.2
			c-0.1-0.3,0.1-0.6,0.1-0.6s0.7-0.6,1-0.8c0.4-0.3,0.9-0.7,1.5-1.3c0.9,0,1.5,0,1.8,0h1.3h0.1h0.1l0,0l0,0l0,0l0,0l0,0l0,0l0,0
			c0,0,0,0,0,0.1v0.1c0,0.1,0,0.2,0,0.3c0,0.3,0,0.3,0,0.3l0,0c0,0.2,0.1,0.3,0.1,0.3c0,0.1,0.1,0.1,0.2,0.1
			c0.2,0.1,0.4,0.1,0.7,0.1c0.1,0,0.3,0,0.4,0c0,0,0.4,0,1.1,0c2.5,0,2.5,0,2.5,0s3.1,0.6,5.1,1l0,0l0,0c0,0.6,0,0.7,0,0.8l0,0l0,0
			c-0.4,0-0.7,0-1.1,0l0,0c0,0.4,0.1,0.8,0.1,1.1c-0.4-0.4-0.8-0.8-1.2-1.1l0,0l0,0l0,0c-0.2,0-0.4,0-0.6,0c0,0.4,0,0.8,0,1.1
			c-0.4-0.4-0.8-0.8-1.2-1.2l0,0c-0.9,0-1.6,0-2,0c-0.1,0-0.5,0-0.9,0c-0.2,0-0.4,0-0.7,0c-0.5,0-0.9,0-1.1,0c-0.4,0-0.8,0-1.2,0
			h-2.4C16.4,111.3,13.9,111.3,13,111.3z"/>
	</defs>
	<clipPath id="SVGID_00000181053474132252024840000010063913962204912808_">
		<use xlink:href="#SVGID_00000016755865317745680540000006616972372274273428_"  style="overflow:visible;"/>
	</clipPath>
	<g style="clip-path:url(#SVGID_00000181053474132252024840000010063913962204912808_);">
		
			<image style="overflow:visible;" width="600" height="600" xlink:href="../../background.jpg"  transform="matrix(6.048788e-02 0 0 6.048788e-02 0.1275 87.7303)">
		</image>
	</g>
</g>
<path class="st0" d="M13,133.2c-0.1,0-0.4,0-0.5,0.2c0,0-0.1,0.1-0.1,0.2c-0.1,0.3,0.1,0.6,0.1,0.6s0.7,0.6,1,0.8
	c0.4,0.3,0.9,0.7,1.5,1.3c0.9,0,1.5,0,1.8,0h1.3h0.1h0.1l0,0l0,0l0,0l0,0l0,0l0,0l0,0c0,0,0,0,0-0.1v-0.1c0-0.1,0-0.2,0-0.3
	c0-0.3,0-0.3,0-0.3l0,0c0-0.2,0.1-0.3,0.1-0.3c0-0.1,0.1-0.1,0.2-0.1c0.2-0.1,0.4-0.1,0.7-0.1c0.1,0,0.3,0,0.4,0c0,0,0.4,0,1.1,0
	c2.5,0,2.5,0,2.5,0s3.1-0.6,5.1-1l0,0l0,0c0-0.6,0-0.7,0-0.8l0,0l0,0c-0.4,0-0.7,0-1.1,0l0,0c0-0.4,0.1-0.8,0.1-1.1
	c-0.4,0.4-0.8,0.8-1.2,1.1l0,0l0,0l0,0c-0.2,0-0.4,0-0.6,0c0-0.4,0-0.8,0-1.1c-0.4,0.4-0.8,0.8-1.2,1.2l0,0c-0.9,0-1.6,0-2,0
	c-0.1,0-0.5,0-0.9,0c-0.2,0-0.4,0-0.7,0c-0.5,0-0.9,0-1.1,0c-0.4,0-0.8,0-1.2,0h-2.4C16.4,133.2,13.9,133.2,13,133.2z"/>
<g>
	<defs>
		<path id="SVGID_00000121979548200653889280000012917246330036076171_" d="M13,133.2c-0.1,0-0.4,0-0.5,0.2c0,0-0.1,0.1-0.1,0.2
			c-0.1,0.3,0.1,0.6,0.1,0.6s0.7,0.6,1,0.8c0.4,0.3,0.9,0.7,1.5,1.3c0.9,0,1.5,0,1.8,0h1.3h0.1h0.1l0,0l0,0l0,0l0,0l0,0l0,0l0,0
			c0,0,0,0,0-0.1v-0.1c0-0.1,0-0.2,0-0.3c0-0.3,0-0.3,0-0.3l0,0c0-0.2,0.1-0.3,0.1-0.3c0-0.1,0.1-0.1,0.2-0.1
			c0.2-0.1,0.4-0.1,0.7-0.1c0.1,0,0.3,0,0.4,0c0,0,0.4,0,1.1,0c2.5,0,2.5,0,2.5,0s3.1-0.6,5.1-1l0,0l0,0c0-0.6,0-0.7,0-0.8l0,0l0,0
			c-0.4,0-0.7,0-1.1,0l0,0c0-0.4,0.1-0.8,0.1-1.1c-0.4,0.4-0.8,0.8-1.2,1.1l0,0l0,0l0,0c-0.2,0-0.4,0-0.6,0c0-0.4,0-0.8,0-1.1
			c-0.4,0.4-0.8,0.8-1.2,1.2l0,0c-0.9,0-1.6,0-2,0c-0.1,0-0.5,0-0.9,0c-0.2,0-0.4,0-0.7,0c-0.5,0-0.9,0-1.1,0c-0.4,0-0.8,0-1.2,0
			h-2.4C16.4,133.2,13.9,133.2,13,133.2z"/>
	</defs>
	<clipPath id="SVGID_00000139258250932476375820000003182200893958386592_">
		<use xlink:href="#SVGID_00000121979548200653889280000012917246330036076171_"  style="overflow:visible;"/>
	</clipPath>
	<g style="clip-path:url(#SVGID_00000139258250932476375820000003182200893958386592_);">
		
			<image style="overflow:visible;" width="600" height="600" xlink:href="../../background.jpg"  transform="matrix(6.048788e-02 0 0 6.048788e-02 -1.123596e-02 109.6092)">
		</image>
	</g>
</g>
<linearGradient id="SVGID_00000159434832187975232570000016844565326744594079_" gradientUnits="userSpaceOnUse" x1="29.7" y1="30.1676" x2="29.7" y2="47.3878" gradientTransform="matrix(1 0 0 -1 0 161)">
	<stop  offset="0" style="stop-color:#424242"/>
	<stop  offset="0.1068" style="stop-color:#333333"/>
	<stop  offset="0.2055" style="stop-color:#2D2D2D"/>
	<stop  offset="0.3492" style="stop-color:#424244"/>
	<stop  offset="0.6732" style="stop-color:#7F7F7F"/>
	<stop  offset="0.9078" style="stop-color:#414042"/>
</linearGradient>
<path style="fill:url(#SVGID_00000159434832187975232570000016844565326744594079_);" d="M58.7,113.6c-0.1,0-0.2,0-0.4,0
	c-18.7,0-37.4,0-56.1,0c0.2,0.8,0.3,2,0.3,3.4c0,1.7-0.3,2.9-0.8,5.4c-0.6,3-0.9,3.5-1,5.1c0,1.4,0.1,2.5,0.3,3.3
	c19.2,0,38.5,0,57.7,0V113.6L58.7,113.6z"/>
<path d="M24.5,138"/>
<path class="st34" d="M80.6,110.4l-1.7-1h-0.1c-0.4-0.8-0.7-1.7-1.1-2.5l-1.6,2.3l-1.2-2.3l-1.4,2.3l-1.3-2.3l-1.4,2.3l-1.3-2.3
	c-0.6,0.9-1.2,1.9-1.8,2.8"/>
<path class="st33" d="M85.6,112c0.4,0.6,1.4,1.6,2.9,2c0.3,0.1,0.6,0.1,0.9,0.1c-1-0.8-1.9-1.6-2.9-2.4c0-0.3,0-0.5,0-0.8l0,0
	c0-0.2,0-0.9,0-0.9l0,0l0,0c-0.2,0-0.3,0-0.5,0c-0.5,0-0.9,0-1.4,0c-0.3,0-0.6,0-1,0c-0.2,0-0.2,0-0.2,0s-0.9-1.1-1.3-1.6
	c-0.3,0.6-0.7,1.1-1,1.7l-1.1-2l-1,2c0.3,0.2,0.6,0.4,0.9,0.6c0,0.8,0,1.7,0,2.5c0.3,0,0.5,0.1,0.8,0.1C82.4,113,84,112.5,85.6,112z
	"/>
<g>
	<defs>
		<path id="SVGID_00000077318015027223042140000005668562038680781717_" d="M68.1,113.3v2c10.2,0,20.5,0,30.7,0
			c0.1-0.2,0.2-0.5,0.3-0.7c0.2-0.4,0.4-0.8,0.5-1.2C89.1,113.3,78.6,113.3,68.1,113.3z"/>
	</defs>
	<clipPath id="SVGID_00000098924632995666552250000008875809322370193319_">
		<use xlink:href="#SVGID_00000077318015027223042140000005668562038680781717_"  style="overflow:visible;"/>
	</clipPath>
	
		<g transform="matrix(1 6.617445e-24 -6.617445e-24 1 -7.629395e-06 0)" style="clip-path:url(#SVGID_00000098924632995666552250000008875809322370193319_);">
		
			<image style="overflow:visible;" width="600" height="600" xlink:href="../../background.jpg"  transform="matrix(4.617375e-18 7.540745e-02 -7.540745e-02 4.617375e-18 108.282 78.5751)">
		</image>
	</g>
</g>
<path class="st0" d="M87.8,113.3c0.1,0,0.3,0,0.4-0.2c0,0,0.1-0.1,0.1-0.2c0.1-0.2-0.1-0.5-0.1-0.5s-0.6-0.5-0.8-0.7
	c-0.3-0.2-0.7-0.6-1.2-1c-0.8,0-1.2,0-1.5,0c0,0-1,0-1.1,0h-0.1h-0.1l0,0l0,0l0,0l0,0l0,0l0,0l0,0l0,0v0.1c0,0.1,0,0.1,0,0.2
	c0,0.2,0,0.2,0,0.3l0,0c0,0.1-0.1,0.2-0.1,0.2l-0.1,0.1c-0.2,0.1-0.4,0.1-0.6,0.1c-0.1,0-0.2,0-0.4,0c0,0-0.3,0-0.9,0
	c-2.1,0-2.1,0-2.1,0s-2.5,0.5-4.2,0.8l0,0l0,0c0,0.5,0,0.5,0,0.7l0,0l0,0c0.3,0,0.6,0,0.9,0l0,0c0,0.3,0,0.6-0.1,0.9
	c0.3-0.3,0.7-0.6,1-0.9l0,0l0,0l0,0c0.2,0,0.4,0,0.5,0c0,0.3,0,0.6,0,0.9c0.3-0.3,0.7-0.6,1-0.9l0,0c0.8,0,1.3,0,1.6,0
	c0.1,0,0.4,0,0.8,0c0.2,0,0.4,0,0.6,0c0.4,0,0.7,0,0.9,0c0.3,0,0.7,0,1,0h2C85,113.4,87.1,113.4,87.8,113.3z"/>
<g>
	<defs>
		<path id="SVGID_00000160872672667910916630000012071869807065355945_" d="M87.8,113.6c0.1,0,0.3,0,0.4-0.2c0,0,0.1-0.1,0.1-0.2
			c0.1-0.2-0.1-0.5-0.1-0.5s-0.6-0.5-0.8-0.7c-0.3-0.2-0.7-0.6-1.2-1c-0.8,0-1.2,0-1.5,0c0,0-1,0-1.1,0h-0.1h-0.1l0,0l0,0l0,0l0,0
			l0,0l0,0l0,0l0,0v0.1c0,0.1,0,0.1,0,0.2c0,0.2,0,0.2,0,0.3l0,0c0,0.1-0.1,0.2-0.1,0.2l-0.1,0.1c-0.2,0.1-0.4,0.1-0.6,0.1
			c-0.1,0-0.2,0-0.4,0c0,0-0.3,0-0.9,0c-2.1,0-2.1,0-2.1,0s-2.5,0.5-4.2,0.8l0,0l0,0c0,0.5,0,0.5,0,0.7l0,0l0,0c0.3,0,0.6,0,0.9,0
			l0,0c0,0.3,0,0.6-0.1,0.9c0.3-0.3,0.7-0.6,1-0.9l0,0l0,0l0,0c0.2,0,0.4,0,0.5,0c0,0.3,0,0.6,0,0.9c0.3-0.3,0.7-0.6,1-0.9l0,0
			c0.8,0,1.3,0,1.6,0c0.1,0,0.4,0,0.8,0c0.2,0,0.4,0,0.6,0c0.4,0,0.7,0,0.9,0c0.3,0,0.7,0,1,0h2C85,113.7,87.1,113.7,87.8,113.6z"/>
	</defs>
	<clipPath id="SVGID_00000122718874949204369860000002424537750593987979_">
		<use xlink:href="#SVGID_00000160872672667910916630000012071869807065355945_"  style="overflow:visible;"/>
	</clipPath>
	<g style="clip-path:url(#SVGID_00000122718874949204369860000002424537750593987979_);">
		
			<image style="overflow:visible;" width="600" height="600" xlink:href="../../background.jpg"  transform="matrix(6.048788e-02 0 0 6.048788e-02 60.2732 82.7599)">
		</image>
	</g>
</g>
<path class="st34" d="M80.6,134.1l-1.7,1h-0.1c-0.4,0.8-0.7,1.7-1.1,2.5l-1.6-2.3l-1.2,2.3l-1.4-2.3l-1.3,2.3l-1.4-2.3l-1.3,2.3
	c-0.6-0.9-1.2-1.9-1.8-2.8"/>
<path class="st33" d="M85.6,132.5c0.4-0.6,1.4-1.6,2.9-2c0.3-0.1,0.6-0.1,0.9-0.1c-1,0.8-1.9,1.6-2.9,2.4c0,0.3,0,0.5,0,0.8l0,0
	c0,0.2,0,0.9,0,0.9l0,0l0,0c-0.2,0-0.3,0-0.5,0c-0.5,0-0.9,0-1.4,0c-0.3,0-0.6,0-1,0c-0.2,0-0.2,0-0.2,0s-0.9,1.1-1.3,1.6
	c-0.3-0.6-0.7-1.1-1-1.7l-1.1,2l-1-2c0.3-0.2,0.6-0.4,0.9-0.6c0-0.8,0-1.7,0-2.5c0.3,0,0.5-0.1,0.8-0.1
	C82.4,131.5,84,132,85.6,132.5z"/>
<g>
	<defs>
		<path id="SVGID_00000122681281864344601910000001849488494516195738_" d="M68.1,131.2v-2c10,0,20.2,0,30.2,0
			c0.1,0.2,0.2,0.5,0.3,0.8c0.2,0.5,0.5,1,0.8,1.2C89,131.2,78.5,131.2,68.1,131.2z"/>
	</defs>
	<clipPath id="SVGID_00000123443337705782101640000005291434840715916212_">
		<use xlink:href="#SVGID_00000122681281864344601910000001849488494516195738_"  style="overflow:visible;"/>
	</clipPath>
	
		<g transform="matrix(1 6.617445e-24 -6.617445e-24 1 0 0)" style="clip-path:url(#SVGID_00000123443337705782101640000005291434840715916212_);">
		
			<image style="overflow:visible;" width="600" height="600" xlink:href="../../background.jpg"  transform="matrix(4.617375e-18 7.540745e-02 -7.540745e-02 4.617375e-18 109.7797 104.7593)">
		</image>
	</g>
</g>
<path class="st0" d="M87.8,131.2c0.1,0,0.3,0,0.4,0.2c0,0,0.1,0.1,0.1,0.2c0.1,0.2-0.1,0.5-0.1,0.5s-0.6,0.5-0.8,0.7
	c-0.3,0.2-0.7,0.6-1.2,1c-0.8,0-1.2,0-1.5,0c0,0-1,0-1.1,0h-0.1h-0.1l0,0l0,0l0,0l0,0l0,0l0,0l0,0l0,0v-0.1c0-0.1,0-0.1,0-0.2
	c0-0.2,0-0.2,0-0.3l0,0c0-0.1-0.1-0.2-0.1-0.2l-0.1-0.1c-0.2-0.1-0.4-0.1-0.6-0.1c-0.1,0-0.2,0-0.4,0c0,0-0.3,0-0.9,0
	c-2.1,0-2.1,0-2.1,0s-2.5-0.5-4.2-0.8l0,0l0,0c0-0.5,0-0.5,0-0.7l0,0l0,0c0.3,0,0.6,0,0.9,0l0,0c0-0.3,0-0.6-0.1-0.9
	c0.3,0.3,0.7,0.6,1,0.9l0,0l0,0l0,0c0.2,0,0.4,0,0.5,0c0-0.3,0-0.6,0-0.9c0.3,0.3,0.7,0.6,1,0.9l0,0c0.8,0,1.3,0,1.6,0
	c0.1,0,0.4,0,0.8,0c0.2,0,0.4,0,0.6,0c0.4,0,0.7,0,0.9,0c0.3,0,0.7,0,1,0h2C85.1,131.2,87.1,131.2,87.8,131.2z"/>
<g>
	<defs>
		<path id="SVGID_00000026869533751952871750000016310331704464977319_" d="M87.8,130.9c0.1,0,0.3,0,0.4,0.2c0,0,0.1,0.1,0.1,0.2
			c0.1,0.2-0.1,0.5-0.1,0.5s-0.6,0.5-0.8,0.7c-0.3,0.2-0.7,0.6-1.2,1c-0.8,0-1.2,0-1.5,0c0,0-1,0-1.1,0h-0.1h-0.1l0,0l0,0l0,0l0,0
			l0,0l0,0l0,0l0,0v-0.1c0-0.1,0-0.1,0-0.2c0-0.2,0-0.2,0-0.3l0,0c0-0.1-0.1-0.2-0.1-0.2l-0.1-0.1c-0.2-0.1-0.4-0.1-0.6-0.1
			c-0.1,0-0.2,0-0.4,0c0,0-0.3,0-0.9,0c-2.1,0-2.1,0-2.1,0s-2.5-0.5-4.2-0.8l0,0l0,0c0-0.5,0-0.5,0-0.7l0,0l0,0c0.3,0,0.6,0,0.9,0
			l0,0c0-0.3,0-0.6-0.1-0.9c0.3,0.3,0.7,0.6,1,0.9l0,0l0,0l0,0c0.2,0,0.4,0,0.5,0c0-0.3,0-0.6,0-0.9c0.3,0.3,0.7,0.6,1,0.9l0,0
			c0.8,0,1.3,0,1.6,0c0.1,0,0.4,0,0.8,0c0.2,0,0.4,0,0.6,0c0.4,0,0.7,0,0.9,0c0.3,0,0.7,0,1,0h2C85.1,130.9,87.1,130.9,87.8,130.9z"
			/>
	</defs>
	<clipPath id="SVGID_00000076604824924805960820000016119977909104381326_">
		<use xlink:href="#SVGID_00000026869533751952871750000016310331704464977319_"  style="overflow:visible;"/>
	</clipPath>
	<g style="clip-path:url(#SVGID_00000076604824924805960820000016119977909104381326_);">
		
			<image style="overflow:visible;" width="600" height="600" xlink:href="../../background.jpg"  transform="matrix(6.048788e-02 0 0 6.048788e-02 60.8421 96.7877)">
		</image>
	</g>
</g>
<image style="overflow:visible;" width="200" height="200" xlink:href="../../pepsi.png"  transform="matrix(6.387641e-02 0 0 6.387641e-02 13.0254 31.9438)">
</image>
</svg>
