<?xml version="1.0" encoding="utf-8"?>
<!-- Generator: Adobe Illustrator 25.4.1, SVG Export Plug-In . SVG Version: 6.00 Build 0)  -->
<svg version="1.1" id="Слой_1" xmlns="http://www.w3.org/2000/svg" xmlns:xlink="http://www.w3.org/1999/xlink" x="0px" y="0px"
	 viewBox="0 0 150 150" style="enable-background:new 0 0 150 150;" xml:space="preserve">
<style type="text/css">
	.st0{clip-path:url(#SVGID_00000062873903374903605850000011045665025473199770_);}
	.st1{clip-path:url(#SVGID_00000076599446838292380430000007676630908130413454_);enable-background:new    ;}
	.st2{fill:url(#SVGID_00000015330391597694517250000003471282296536303754_);}
	.st3{fill:url(#SVGID_00000088834566659291471660000015800402869507284122_);}
	.st4{opacity:0.38;enable-background:new    ;}
	.st5{clip-path:url(#SVGID_00000160156820243473041050000018291614104922526096_);}
	.st6{clip-path:url(#SVGID_00000111190551822633278170000011964674979879781532_);enable-background:new    ;}
	.st7{clip-path:url(#SVGID_00000133505465972758897400000014318573832481181349_);}
	.st8{clip-path:url(#SVGID_00000109002407037850310940000009430410759227235461_);enable-background:new    ;}
</style>
<g>
	<g>
		<defs>
			<path id="SVGID_1_" d="M105.2,35.3c0,0,1.2-0.2,3.3-0.5l2.2-4.6l3.1,4.8l3.4-5.8l3.4,5.9l3.1-6.1c0,0,1.1,2.2,3.2,6.3
				c1.1-2,2.2-3.9,3.2-5.9c1.2,2,2.4,3.9,3.6,5.9c1-1.9,2-3.8,3-5.8c1.2,1.9,2.5,3.9,3.7,5.8c1-2,2-4,3-5.9c1.3,2,2.6,4,3.9,6
				c1.1-1.3,1.6-2,1.6-2s0-2.4,0.1-6.9c0.2-4,0.1-7.4-0.1-9.9c-0.1-1.8-0.3-4.2-1-7.3c-0.4-1.9-0.9-3.5-1.2-4.7
				c-23.3,0-46.5,0-69.8-0.1c-0.1,0.4-0.4,1-0.6,1.8c-0.1,0.4-0.5,1.9-1.1,5.1c0,0.2-0.3,1.8-0.5,3.1c-0.4,3.7-0.3,7.3-0.3,10
				c0,1.4,0,5.4,0,13.5c0,3.2,0,5.7,0,7.4v1.8c-14.6,0-37.3,0-67.6,0l-5.2,5.6v21.4v0.4V96l5.2,5.6c30.3,0,53,0,67.6,0v2.5
				c-0.1,7.5-0.1,14.6,0,21.4c0,2.9,0.1,6.7,0.9,11.6c0.5,3,1.1,5.5,1.6,7.2c23.2,0,46.4,0,69.5,0c0.3-1.1,0.8-2.8,1.2-4.9
				c0.3-1.3,1.1-5.5,1.2-11c0.1-2.5,0.1-6.2,0.1-6.2c0-4.1-0.1-6.7-0.1-6.7l-1.6-2.1l-4.1,5.9c0,0-1-2-2.9-5.8
				c-1.1,2-2.3,3.9-3.4,5.9c-1-2-2.1-4-3.1-5.9c-1.1,2-2.2,3.9-3.3,5.9c-1.1-1.9-2.2-3.8-3.3-5.8c-1.1,1.9-2.1,3.9-3.2,5.8
				c-1.1-2-2.2-4-3.3-5.9c-1.1,2-2.2,4-3.4,6.1c-2.1-3.8-3.1-5.7-3.1-5.7l-3,4.3l-2.8-4.3c0,0-3.4,0-5.6-1c-0.2-0.1-1.4-0.6-1.4-0.6
				s0-1,0-2.9c1.4,0.4,2.6,0.3,3.6,0.2c5.8-0.7,10.1-2.2,16.4-3.8c0,0,0.1,0,5.3-1.3c0.1-0.1,0.1-0.1,0.2-0.2c0.4,1.2,1.6,2,2.9,2
				c1.7,0,3.1-1.4,3.1-3.1V103c0,0,0,0.1,0.1,0.1c2.6-0.5,5.3-0.9,7.9-1.4v-27v-0.4V47.2c-2.6-0.5-5.3-0.9-7.9-1.4c0,0,0,0-0.1,0
				v-0.1c0-1.7-1.4-3.1-3.1-3.1c-1.4,0-2.6,1-3,2.3c0-0.1-0.1-0.3-0.1-0.4c-5.2-1.3-5.3-1.3-5.3-1.3c-6.3-1.6-10.6-3.1-16.4-3.8
				c-1-0.1-2.3-0.2-3.6,0.2c0-1.4,0-2.4,0-2.9C102.7,35.9,104.1,35.5,105.2,35.3z"/>
		</defs>
		<clipPath id="SVGID_00000090982478656515601980000011192780034503721138_">
			<use xlink:href="#SVGID_1_"  style="overflow:visible;"/>
		</clipPath>
		<g style="clip-path:url(#SVGID_00000090982478656515601980000011192780034503721138_);">
			<g>
				<defs>
					<rect id="SVGID_00000178170498964172739580000010228861526207476158_" x="-62.9" y="-10" width="247.6" height="185.7"/>
				</defs>
				<clipPath id="SVGID_00000099644021962448869710000007357758431063989682_">
					<use xlink:href="#SVGID_00000178170498964172739580000010228861526207476158_"  style="overflow:visible;"/>
				</clipPath>
				<g style="clip-path:url(#SVGID_00000099644021962448869710000007357758431063989682_);enable-background:new    ;">
					
						<image style="overflow:visible;enable-background:new    ;" width="1200" height="900" xlink:href="F7A66DF3.jpeg"  transform="matrix(-0.2063 0 0 0.2063 184.613 -9.9565)">
					</image>
				</g>
			</g>
		</g>
	</g>
</g>
<image style="display:none;overflow:visible;enable-background:new    ;" width="403" height="814" xlink:href="F7A66DF1.png"  transform="matrix(0.2846 0 0 0.2846 -11.9696 -81.3979)">
</image>
<radialGradient id="SVGID_00000129192140416677140560000016122976252823376317_" cx="129.412" cy="77.55" r="22.5945" gradientTransform="matrix(1 0 0 -1 0 152)" gradientUnits="userSpaceOnUse">
	<stop  offset="0" style="stop-color:#353535"/>
	<stop  offset="1" style="stop-color:#282828"/>
</radialGradient>
<path style="fill:url(#SVGID_00000129192140416677140560000016122976252823376317_);" d="M129.4,42.6c-1.7,0-3.1,1.4-3.1,3.1v27.9
	v1.7v27.9c0,1.7,1.4,3.1,3.1,3.1s3.1-1.4,3.1-3.1V75.3v-1.7V45.8C132.5,44,131.1,42.6,129.4,42.6z"/>
<radialGradient id="SVGID_00000039828635287018797800000012119150228250199446_" cx="3.9142" cy="77.55" r="19.3241" gradientTransform="matrix(1 0 0 -1 0 152)" gradientUnits="userSpaceOnUse">
	<stop  offset="0" style="stop-color:#353535"/>
	<stop  offset="1" style="stop-color:#282828"/>
</radialGradient>
<polygon style="fill:url(#SVGID_00000039828635287018797800000012119150228250199446_);" points="1.3,52.9 1.3,74.3 1.3,74.7 
	1.3,96.1 6.5,101.7 6.5,74.7 6.5,74.3 6.5,47.2 "/>
<path class="st4" d="M74.1,45.4c0-1.6,0-4.2,0-7.4c0-8,0-12,0-13.5c-0.1-2.7-0.2-6.3,0.3-10c0.2-1.3,0.4-2.9,0.5-3.1
	c0.5-3.2,0.9-4.7,1.1-5.1c0.2-0.8,0.4-1.4,0.6-1.8c23.3,0,46.5,0,69.8,0.1c0.4,1.2,0.8,2.8,1.2,4.7c0.7,3.1,0.9,5.5,1,7.3
	c0.2,2.5,0.3,5.9,0.1,9.9c-0.1,4.5-0.1,6.9-0.1,6.9s-0.5,0.7-1.6,2c-1.3-2-2.6-4-3.9-6c-1,2-2,4-3,5.9c-1.2-1.9-2.5-3.9-3.7-5.8
	c-1,1.9-2,3.8-3,5.8c-1.2-2-2.4-3.9-3.6-5.9c-1.1,2-2.2,3.9-3.2,5.9c-2.1-4.1-3.2-6.3-3.2-6.3l-3.1,6.1l-3.4-5.9l-3.4,5.8l-3.1-4.8
	l-2.2,4.6c-2.1,0.3-3.3,0.5-3.3,0.5c-1,0.2-2.5,0.6-4.2,1.4c0,6.7,0,75.5,0,75.5l0,0c0,0,1.2,0.5,1.4,0.6c2.2,1,5.6,1,5.6,1l0,0
	l2.8,4.3l0,0l3-4.3l0,0c0,0,1.1,2,3.1,5.7c1.1-2,2.2-4,3.4-6.1c1.1,2,2.2,4,3.3,5.9c1.1-1.9,2.1-3.9,3.2-5.8
	c1.1,1.9,2.2,3.8,3.3,5.8c1.1-2,2.2-3.9,3.3-5.9c1,2,2.1,4,3.1,5.9c1.1-2,2.3-3.9,3.4-5.9c1.9,3.8,2.9,5.8,2.9,5.8l0,0l4.1-5.9l0,0
	l1.6,2.1l0,0c0,0,0,2.6,0.1,6.7l0,0c0,0,0,3.7-0.1,6.2c-0.2,5.6-1,9.8-1.2,11c-0.4,2-0.9,3.7-1.2,4.9c-23.2,0-46.4,0-69.5,0
	c-0.5-1.7-1.1-4.2-1.6-7.2c-0.8-4.9-0.9-8.7-0.9-11.6c0-6.8,0-13.9,0-21.4"/>
<g>
	<g>
		<defs>
			<path id="SVGID_00000109727966197067853040000001517716019432535719_" d="M126.3,74.5c0-0.1,0-0.1,0-0.2l0,0c0-9.9,0-19.9,0-29.8
				c-5.2-1.3-5.3-1.3-5.3-1.3c-6.3-1.6-10.6-3.1-16.4-3.8c-1.2-0.1-2.8-0.3-4.4,0.5c-1.1,0.5-1.9,1.5-3.6,3.4
				c-0.8,0.9-2.6,3.2-3.3,4c-0.2,0-30.3,0-86.8,0c0,9,0,18,0,27.1c0,0.1,0,0.3,0,0.4c0,9,0,18,0,27.1c56.4,0,86.6,0,86.8,0
				c0.6,0.8,2.4,3,3.3,4c1.7,1.9,2.5,2.9,3.6,3.4c1.6,0.8,3.2,0.6,4.4,0.5c5.8-0.7,10.1-2.2,16.4-3.8c0,0,0.1,0,5.3-1.3
				c0-9.9,0-19.9,0-29.8l0,0C126.3,74.6,126.3,74.6,126.3,74.5z"/>
		</defs>
		<clipPath id="SVGID_00000052105759251628255330000001120736290349154967_">
			<use xlink:href="#SVGID_00000109727966197067853040000001517716019432535719_"  style="overflow:visible;"/>
		</clipPath>
		<g style="clip-path:url(#SVGID_00000052105759251628255330000001120736290349154967_);">
			<g>
				<defs>
					<rect id="SVGID_00000042002879528803065680000015181080688620793744_" x="-39.9" y="13" width="191.3" height="143.5"/>
				</defs>
				<clipPath id="SVGID_00000087395755774308525080000007692699943991253181_">
					<use xlink:href="#SVGID_00000042002879528803065680000015181080688620793744_"  style="overflow:visible;"/>
				</clipPath>
				
					<g transform="matrix(1 0 0 1 0 9.536743e-07)" style="clip-path:url(#SVGID_00000087395755774308525080000007692699943991253181_);enable-background:new    ;">
					
						<image style="overflow:visible;enable-background:new    ;" width="1200" height="900" xlink:href="F7A66DF7.jpeg"  transform="matrix(-0.1594 0 0 0.1594 151.3602 13.0349)">
					</image>
				</g>
			</g>
		</g>
	</g>
</g>
<g>
	<g>
		<defs>
			<path id="SVGID_00000096026545397302052030000013293374593069307280_" d="M132.6,45.9c0,9.5,0,18.9,0,28.4c0,0.1,0,0.3,0,0.4
				c0,9.5,0,18.9,0,28.4c2.6-0.5,5.3-0.9,7.9-1.4v-27v-0.4V47.2C137.9,46.8,135.2,46.3,132.6,45.9z"/>
		</defs>
		<clipPath id="SVGID_00000048497118490776200430000002438918411727077285_">
			<use xlink:href="#SVGID_00000096026545397302052030000013293374593069307280_"  style="overflow:visible;"/>
		</clipPath>
		<g style="clip-path:url(#SVGID_00000048497118490776200430000002438918411727077285_);">
			<g>
				<defs>
					<rect id="SVGID_00000083771798587348955510000013752592084371359927_" x="-4.9" y="27" width="191.3" height="143.5"/>
				</defs>
				<clipPath id="SVGID_00000003063134253879203300000014915105295718802366_">
					<use xlink:href="#SVGID_00000083771798587348955510000013752592084371359927_"  style="overflow:visible;"/>
				</clipPath>
				<g style="clip-path:url(#SVGID_00000003063134253879203300000014915105295718802366_);enable-background:new    ;">
					
						<image style="overflow:visible;enable-background:new    ;" width="1200" height="900" xlink:href="F7A66DF1.jpeg"  transform="matrix(-0.1594 0 0 0.1594 186.3795 26.9742)">
					</image>
				</g>
			</g>
		</g>
	</g>
</g>
<image style="overflow:visible;" width="200" height="200" xlink:href="../../pepsi.png"  transform="matrix(0.13 0 0 0.13 17.3118 61.4185)">
</image>
</svg>
