<?xml version="1.0" encoding="utf-8"?>
<!-- Generator: Adobe Illustrator 25.4.1, SVG Export Plug-In . SVG Version: 6.00 Build 0)  -->
<svg version="1.1" id="Слой_1" xmlns="http://www.w3.org/2000/svg" xmlns:xlink="http://www.w3.org/1999/xlink" x="0px" y="0px"
	 viewBox="0 0 160 320" style="enable-background:new 0 0 160 320;" xml:space="preserve">
<style type="text/css">
	.st0{clip-path:url(#SVGID_00000048476826901698019320000006653213074379300753_);enable-background:new    ;}
	.st1{fill:none;stroke:#ADADAD;stroke-width:0.5;stroke-miterlimit:10;}
	.st2{fill:url(#SVGID_00000117648288337430193640000014048558660018088634_);}
	.st3{fill:url(#SVGID_00000161630570957080731160000012005600438946212247_);}
	.st4{fill:url(#SVGID_00000177483919136377933700000017447110062084294307_);}
	.st5{fill:url(#SVGID_00000159445906521031782400000003107680784322780854_);}
	.st6{fill:url(#SVGID_00000183939378770301211290000008492201377392528532_);}
	.st7{fill:url(#SVGID_00000055707753355440549440000007481180078732019891_);}
	.st8{fill:url(#SVGID_00000137823712855806049340000013708770839331521931_);}
	.st9{fill:url(#SVGID_00000129164901937157342130000015851856341008440759_);}
	.st10{fill:url(#SVGID_00000071539785595421000940000001535454970647545514_);}
	.st11{fill:url(#SVGID_00000070084936346521522180000001828314695246624444_);}
	.st12{fill:url(#SVGID_00000073692732932047194300000017705909661944454289_);}
	.st13{fill:url(#SVGID_00000055682323349719674360000011990678425216111506_);}
	.st14{opacity:0.28;fill:url(#SVGID_00000076570539606685977030000006586630451852002730_);enable-background:new    ;}
	.st15{fill:url(#SVGID_00000143597956081338839520000016064203880259174059_);}
	.st16{fill:url(#SVGID_00000037694766067374435310000018152556450650057898_);}
	.st17{fill:url(#SVGID_00000047027705385770270610000007163242329511702438_);}
	.st18{fill:url(#SVGID_00000137112852718325222490000013474605563142898324_);}
	.st19{fill:url(#SVGID_00000152257746208263212690000013149677916261014672_);}
	.st20{fill:url(#SVGID_00000051342301005911160750000005476167357479946116_);}
	.st21{fill:url(#SVGID_00000059290117879530177480000014422631204242763137_);}
	.st22{fill:url(#SVGID_00000095299954777064506470000003182988184869286795_);}
	.st23{fill:url(#SVGID_00000137850775381901673720000006724821019132933565_);}
	.st24{fill:url(#SVGID_00000164492888173538056360000009450212094932032386_);}
	.st25{fill:url(#SVGID_00000084530484122263196720000009488090795716192663_);}
	.st26{fill:url(#SVGID_00000033363595361949767820000007501185797057343894_);}
	.st27{fill:url(#SVGID_00000152950570828688946690000008615001352724006070_);}
	.st28{fill:url(#SVGID_00000178182143905526007550000003735299244466135729_);}
	.st29{fill:url(#SVGID_00000088829819859002131890000011730115689234604442_);}
	.st30{opacity:0.28;fill:url(#SVGID_00000053512196502022156450000009028946506466772136_);enable-background:new    ;}
	.st31{fill:url(#SVGID_00000039108172951809339760000006593001605700962697_);}
	.st32{fill:url(#SVGID_00000160893290781387694940000017673631386379316624_);}
	.st33{fill:url(#SVGID_00000067203466846786146440000003681402378124867240_);}
	.st34{fill:url(#SVGID_00000139989569673213654060000011227898900343762334_);}
	.st35{opacity:0.4;fill:url(#SVGID_00000043437625182775961310000012292767355170002865_);enable-background:new    ;}
	.st36{fill:url(#SVGID_00000024700090473928544470000009937362544040790703_);}
	.st37{fill:url(#SVGID_00000076590881898688583420000012984112917584604801_);}
	.st38{fill:url(#SVGID_00000072248593004390978410000012043454342494502043_);}
	.st39{fill:url(#SVGID_00000122700704953890707880000015039502704104337289_);}
	.st40{fill:url(#SVGID_00000156562095515303286690000007633420300042455429_);}
	.st41{opacity:0.5;fill:url(#SVGID_00000052817725955267515120000001877051216882685612_);enable-background:new    ;}
	.st42{opacity:0.5;fill:url(#SVGID_00000036952036661638884180000001047619027756857479_);enable-background:new    ;}
	.st43{fill:url(#SVGID_00000087379437982523625650000010058989837237463711_);}
	.st44{fill:url(#SVGID_00000037676230905704546110000001366392425285337777_);}
	.st45{fill:url(#SVGID_00000031167088301267869340000000561356450116311217_);}
	.st46{fill:url(#SVGID_00000108310018798039058090000012032269668403627945_);}
</style>
<g>
	<g>
		<defs>
			<path id="SVGID_1_" d="M136.1,185.7c-1.3,2.7-2.6,5.4-4,8l-4.2-8.1c-1.2,2.8-2.4,5.5-3.6,8.3v0l-4.2-8.2
				c-1.3,2.7-2.6,5.4-3.9,8.2v0l-4.2-8.2c-1.2,2.8-2.4,5.6-3.6,8.3l-4.2-8.1c-1.1,2.3-2.2,4.5-3.4,6.8c-0.4-0.1-0.7-0.1-1.1-0.1
				c-1.2-2.3-2.4-4.6-3.6-7c-1.1,2.1-2.2,4.3-3.3,6.4c-0.8,0-1.6-0.1-2.4-0.1c-0.3-0.3-0.5-0.5-0.8-0.8H78.4H59.8v-4.3
				c0-3.8-3.1-6.8-6.8-6.8c-3.5,0-6.3,2.6-6.8,5.9v-11.8H18.6v137.9h27.6v-11.5c0.4,3.3,3.3,5.9,6.8,5.9c3.8,0,6.8-3.1,6.8-6.8v-4.4
				h29.8v-0.1c1.5-1,3-2.1,4.6-3.1c1.6,2.8,3.1,5.5,4.7,8.3l0,0l0,0l0,0l3.6-8.2l0,0l3.1,6c0.3,1,0.8,1.7,1,2l0,0.1v0l0,0
				c1.3-2.7,2.6-5.5,3.9-8.2v-0.1l0,0c1.4,2.7,2.8,5.5,4.2,8.2l3.9-8.1v-0.1c0,0,0,0,0,0l4.2,8.2l3.9-8.4c1.3,2.8,2.6,5.5,3.9,8.3
				l3.9-8.1v0c1.4,2.6,2.9,5.1,4.4,7.7c0.8-2.5,1.6-4.9,2.4-7.4c0-32.6,0-65.1,0-97.7C139.6,191.6,137.8,188.6,136.1,185.7z
				 M106.5,292L106.5,292L106.5,292L106.5,292z"/>
		</defs>
		<clipPath id="SVGID_00000044883349644742728200000012482488652888344728_">
			<use xlink:href="#SVGID_1_"  style="overflow:visible;"/>
		</clipPath>
		
			<g transform="matrix(1 0 0 1 0 1.525879e-05)" style="clip-path:url(#SVGID_00000044883349644742728200000012482488652888344728_);enable-background:new    ;">
			
				<image style="overflow:visible;enable-background:new    ;" width="1203" height="905" xlink:href="FAA11BE8.jpg"  transform="matrix(0.2575 0 0 0.2575 -29.4932 139.5986)">
			</image>
		</g>
	</g>
</g>
<path class="st1" d="M136.1,185.7c-1.3,2.7-2.6,5.4-4,8l-4.2-8.1c-1.2,2.8-2.4,5.5-3.6,8.3v0l-4.2-8.2c-1.3,2.7-2.6,5.4-3.9,8.2v0
	l-4.2-8.2c-1.2,2.8-2.4,5.6-3.6,8.3l-4.2-8.1c-1.1,2.3-2.2,4.5-3.4,6.8c-0.4-0.1-0.7-0.1-1.1-0.1c-1.2-2.3-2.4-4.6-3.6-7
	c-1.1,2.1-2.2,4.3-3.3,6.4c-0.8,0-1.6-0.1-2.4-0.1c-0.3-0.3-0.5-0.5-0.8-0.8H78.4H59.8v-4.3c0-3.8-3.1-6.8-6.8-6.8
	c-3.5,0-6.3,2.6-6.8,5.9v-11.8H18.6v137.9h27.6v-11.5c0.4,3.3,3.3,5.9,6.8,5.9c3.8,0,6.8-3.1,6.8-6.8v-4.4h29.8v-0.1
	c1.5-1,3-2.1,4.6-3.1c1.6,2.8,3.1,5.5,4.7,8.3l0,0l0,0l0,0l3.6-8.2l0,0l3.1,6c0.3,1,0.8,1.7,1,2l0,0.1v0l0,0
	c1.3-2.7,2.6-5.5,3.9-8.2v-0.1l0,0c1.4,2.7,2.8,5.5,4.2,8.2l3.9-8.1v-0.1c0,0,0,0,0,0l4.2,8.2l3.9-8.4c1.3,2.8,2.6,5.5,3.9,8.3
	l3.9-8.1v0c1.4,2.6,2.9,5.1,4.4,7.7c0.8-2.5,1.6-4.9,2.4-7.4c0-32.6,0-65.1,0-97.7C139.6,191.6,137.8,188.6,136.1,185.7z M106.5,292
	L106.5,292L106.5,292L106.5,292z"/>
<linearGradient id="SVGID_00000089558271148253353700000016253868997457511067_" gradientUnits="userSpaceOnUse" x1="117.1618" y1="1287.8124" x2="117.1618" y2="1173.514" gradientTransform="matrix(0.9993 3.650000e-02 -3.640000e-02 0.9977 35.0155 -1154.7074)">
	<stop  offset="0" style="stop-color:#808285"/>
	<stop  offset="0.1313" style="stop-color:#4D4E50"/>
	<stop  offset="0.2039" style="stop-color:#424244"/>
	<stop  offset="0.338" style="stop-color:#808285"/>
	<stop  offset="0.4162" style="stop-color:#D1D3D4"/>
	<stop  offset="0.5168" style="stop-color:#A7A9AC"/>
	<stop  offset="0.662" style="stop-color:#F1F2F2"/>
	<stop  offset="0.8519" style="stop-color:#838587"/>
	<stop  offset="0.919" style="stop-color:#E6E7E8"/>
	<stop  offset="1" style="stop-color:#919396"/>
</linearGradient>
<polygon style="fill:url(#SVGID_00000089558271148253353700000016253868997457511067_);" points="104.2,20.2 108.4,28.3 
	110.7,126.3 106.8,134.5 "/>
<linearGradient id="SVGID_00000183955995053886793590000016837022739511446441_" gradientUnits="userSpaceOnUse" x1="109.0527" y1="1289.5802" x2="109.0527" y2="1174.3655" gradientTransform="matrix(0.9993 3.650000e-02 -3.620000e-02 0.993 34.8314 -1150.0126)">
	<stop  offset="0" style="stop-color:#808285"/>
	<stop  offset="0.1313" style="stop-color:#4D4E50"/>
	<stop  offset="0.2039" style="stop-color:#424244"/>
	<stop  offset="0.338" style="stop-color:#808285"/>
	<stop  offset="0.4162" style="stop-color:#D1D3D4"/>
	<stop  offset="0.5168" style="stop-color:#A7A9AC"/>
	<stop  offset="0.662" style="stop-color:#F1F2F2"/>
	<stop  offset="0.8519" style="stop-color:#838587"/>
	<stop  offset="0.919" style="stop-color:#E6E7E8"/>
	<stop  offset="1" style="stop-color:#919396"/>
</linearGradient>
<polygon style="fill:url(#SVGID_00000183955995053886793590000016837022739511446441_);" points="96.1,19.9 100.3,28 102.6,126.4 
	98.9,134.6 "/>
<linearGradient id="SVGID_00000169524737160457239180000015355179985292253595_" gradientUnits="userSpaceOnUse" x1="-11955.6318" y1="423.7636" x2="-11955.6318" y2="530.7278" gradientTransform="matrix(-0.9993 -3.650000e-02 -3.900000e-02 1.0686 -11817.4248 -852.9019)">
	<stop  offset="6.980000e-02" style="stop-color:#6D6E71"/>
	<stop  offset="0.1536" style="stop-color:#939598"/>
	<stop  offset="0.2151" style="stop-color:#6D6E71"/>
	<stop  offset="0.3883" style="stop-color:#6D6E71"/>
	<stop  offset="0.4832" style="stop-color:#939598"/>
	<stop  offset="0.6844" style="stop-color:#BCBEC0"/>
	<stop  offset="0.7458" style="stop-color:#808285"/>
	<stop  offset="0.8073" style="stop-color:#B4B4B4"/>
	<stop  offset="0.9134" style="stop-color:#6D6E71"/>
	<stop  offset="1" style="stop-color:#939598"/>
</linearGradient>
<path style="fill:url(#SVGID_00000169524737160457239180000015355179985292253595_);" d="M112.1,19.9l2.8,114.4l-4.2-8.2
	c-0.7-32.6-1.5-65.3-2.2-97.9C109.7,25.5,110.9,22.7,112.1,19.9z"/>
<linearGradient id="SVGID_00000163042356597906806260000002686076436173660594_" gradientUnits="userSpaceOnUse" x1="-11947.5371" y1="425.931" x2="-11947.5371" y2="533.7797" gradientTransform="matrix(-0.9993 -3.650000e-02 -3.860000e-02 1.0576 -11817.5234 -850.1604)">
	<stop  offset="6.980000e-02" style="stop-color:#6D6E71"/>
	<stop  offset="0.1536" style="stop-color:#939598"/>
	<stop  offset="0.2151" style="stop-color:#6D6E71"/>
	<stop  offset="0.3883" style="stop-color:#6D6E71"/>
	<stop  offset="0.4832" style="stop-color:#939598"/>
	<stop  offset="0.6844" style="stop-color:#BCBEC0"/>
	<stop  offset="0.7458" style="stop-color:#808285"/>
	<stop  offset="0.8073" style="stop-color:#B4B4B4"/>
	<stop  offset="0.9134" style="stop-color:#6D6E71"/>
	<stop  offset="1" style="stop-color:#939598"/>
</linearGradient>
<path style="fill:url(#SVGID_00000163042356597906806260000002686076436173660594_);" d="M104.2,20.2l2.6,114.3l-4.2-8.1
	c-0.7-32.8-1.5-65.6-2.2-98.4C101.6,25.4,102.9,22.8,104.2,20.2z"/>
<linearGradient id="SVGID_00000156546365295124120930000018398018974632649889_" gradientUnits="userSpaceOnUse" x1="-11939.4463" y1="426.6424" x2="-11939.4463" y2="535.325" gradientTransform="matrix(-0.9993 -3.650000e-02 -3.840000e-02 1.0526 -11817.5762 -848.8991)">
	<stop  offset="6.980000e-02" style="stop-color:#6D6E71"/>
	<stop  offset="0.1536" style="stop-color:#939598"/>
	<stop  offset="0.2151" style="stop-color:#6D6E71"/>
	<stop  offset="0.3883" style="stop-color:#6D6E71"/>
	<stop  offset="0.4832" style="stop-color:#939598"/>
	<stop  offset="0.6844" style="stop-color:#BCBEC0"/>
	<stop  offset="0.7458" style="stop-color:#808285"/>
	<stop  offset="0.8073" style="stop-color:#B4B4B4"/>
	<stop  offset="0.9134" style="stop-color:#6D6E71"/>
	<stop  offset="1" style="stop-color:#939598"/>
</linearGradient>
<path style="fill:url(#SVGID_00000156546365295124120930000018398018974632649889_);" d="M96.1,19.9l2.8,114.7
	c-1.6-2.8-3.1-5.5-4.7-8.3c-0.4-16.4-0.7-32.8-1.1-49.2c-0.4-16.4-0.8-32.8-1.2-49.2C93.4,25.3,94.8,22.6,96.1,19.9z"/>
<linearGradient id="SVGID_00000021115481260785375030000016315704774858860427_" gradientUnits="userSpaceOnUse" x1="133.2371" y1="1282.0192" x2="133.2371" y2="1169.6299" gradientTransform="matrix(0.9993 3.650000e-02 -3.710000e-02 1.0163 35.7069 -1173.3899)">
	<stop  offset="0" style="stop-color:#808285"/>
	<stop  offset="0.1313" style="stop-color:#4D4E50"/>
	<stop  offset="0.2039" style="stop-color:#424244"/>
	<stop  offset="0.338" style="stop-color:#808285"/>
	<stop  offset="0.4162" style="stop-color:#D1D3D4"/>
	<stop  offset="0.5168" style="stop-color:#A7A9AC"/>
	<stop  offset="0.662" style="stop-color:#F1F2F2"/>
	<stop  offset="0.8519" style="stop-color:#838587"/>
	<stop  offset="0.919" style="stop-color:#E6E7E8"/>
	<stop  offset="1" style="stop-color:#919396"/>
</linearGradient>
<polygon style="fill:url(#SVGID_00000021115481260785375030000016315704774858860427_);" points="120.2,20 124.4,28.2 126.9,126.1 
	123,134.5 "/>
<linearGradient id="SVGID_00000075136555839450684060000018205846168949455003_" gradientUnits="userSpaceOnUse" x1="125.1468" y1="1284.499" x2="125.1468" y2="1171.1171" gradientTransform="matrix(0.9993 3.650000e-02 -3.680000e-02 1.0081 35.4058 -1165.1497)">
	<stop  offset="0" style="stop-color:#808285"/>
	<stop  offset="0.1313" style="stop-color:#4D4E50"/>
	<stop  offset="0.2039" style="stop-color:#424244"/>
	<stop  offset="0.338" style="stop-color:#808285"/>
	<stop  offset="0.4162" style="stop-color:#D1D3D4"/>
	<stop  offset="0.5168" style="stop-color:#A7A9AC"/>
	<stop  offset="0.662" style="stop-color:#F1F2F2"/>
	<stop  offset="0.8519" style="stop-color:#838587"/>
	<stop  offset="0.919" style="stop-color:#E6E7E8"/>
	<stop  offset="1" style="stop-color:#919396"/>
</linearGradient>
<polygon style="fill:url(#SVGID_00000075136555839450684060000018205846168949455003_);" points="112.1,19.9 116.3,28.1 
	118.8,126.3 114.9,134.4 "/>
<linearGradient id="SVGID_00000159472091218228328640000009459868357039751853_" gradientUnits="userSpaceOnUse" x1="-11963.624" y1="422.2086" x2="-11963.624" y2="528.242" gradientTransform="matrix(-0.9993 -3.650000e-02 -3.930000e-02 1.0773 -11817.3799 -855.0745)">
	<stop  offset="6.980000e-02" style="stop-color:#6D6E71"/>
	<stop  offset="0.1536" style="stop-color:#939598"/>
	<stop  offset="0.2151" style="stop-color:#6D6E71"/>
	<stop  offset="0.3883" style="stop-color:#6D6E71"/>
	<stop  offset="0.4832" style="stop-color:#939598"/>
	<stop  offset="0.6844" style="stop-color:#BCBEC0"/>
	<stop  offset="0.7458" style="stop-color:#808285"/>
	<stop  offset="0.8073" style="stop-color:#B4B4B4"/>
	<stop  offset="0.9134" style="stop-color:#6D6E71"/>
	<stop  offset="1" style="stop-color:#939598"/>
</linearGradient>
<path style="fill:url(#SVGID_00000159472091218228328640000009459868357039751853_);" d="M120.2,20l2.8,114.5l-4.2-8.2
	c-0.8-32.7-1.7-65.4-2.5-98.1C117.6,25.4,118.9,22.7,120.2,20z"/>
<linearGradient id="SVGID_00000099629838171611664750000009300598350530494638_" gradientUnits="userSpaceOnUse" x1="101.8229" y1="1286.9685" x2="101.8229" y2="1181.6061" gradientTransform="matrix(0.9993 3.650000e-02 -3.600000e-02 0.9851 34.5818 -1142.0853)">
	<stop  offset="0" style="stop-color:#808285"/>
	<stop  offset="0.1313" style="stop-color:#4D4E50"/>
	<stop  offset="0.2039" style="stop-color:#424244"/>
	<stop  offset="0.338" style="stop-color:#808285"/>
	<stop  offset="0.4162" style="stop-color:#D1D3D4"/>
	<stop  offset="0.5168" style="stop-color:#A7A9AC"/>
	<stop  offset="0.662" style="stop-color:#F1F2F2"/>
	<stop  offset="0.8519" style="stop-color:#838587"/>
	<stop  offset="0.919" style="stop-color:#E6E7E8"/>
	<stop  offset="1" style="stop-color:#919396"/>
</linearGradient>
<path style="fill:url(#SVGID_00000099629838171611664750000009300598350530494638_);" d="M89.7,25.5c0.8,0.8,1.6,1.6,2.4,2.4
	c0.7,32.8,1.5,65.7,2.2,98.5c-1.5,1-3,2.1-4.6,3.1C89.7,94.8,89.7,60.1,89.7,25.5z"/>
<linearGradient id="SVGID_00000039823059050884283630000007678664913778268552_" gradientUnits="userSpaceOnUse" x1="148.5285" y1="1280.9431" x2="148.5285" y2="1169.0571" gradientTransform="matrix(0.9993 3.650000e-02 -3.710000e-02 1.0163 35.7069 -1173.3899)">
	<stop  offset="0" style="stop-color:#808285"/>
	<stop  offset="0.1313" style="stop-color:#4D4E50"/>
	<stop  offset="0.2039" style="stop-color:#424244"/>
	<stop  offset="0.338" style="stop-color:#808285"/>
	<stop  offset="0.4162" style="stop-color:#D1D3D4"/>
	<stop  offset="0.5168" style="stop-color:#A7A9AC"/>
	<stop  offset="0.662" style="stop-color:#F1F2F2"/>
	<stop  offset="0.8519" style="stop-color:#838587"/>
	<stop  offset="0.919" style="stop-color:#E6E7E8"/>
	<stop  offset="1" style="stop-color:#919396"/>
</linearGradient>
<path style="fill:url(#SVGID_00000039823059050884283630000007678664913778268552_);" d="M136.1,20c1.8,2.9,3.6,5.9,5.4,8.8
	c0,32.6,0,65.1,0,97.7c-0.8,2.5-1.6,4.9-2.4,7.4C138.1,96,137.1,58,136.1,20z"/>
<linearGradient id="SVGID_00000111891475534081904160000004222999450956587706_" gradientUnits="userSpaceOnUse" x1="-11979.5498" y1="421.5992" x2="-11979.5498" y2="527.1499" gradientTransform="matrix(-0.9993 -3.650000e-02 -3.930000e-02 1.0773 -11817.3799 -855.0745)">
	<stop  offset="6.980000e-02" style="stop-color:#6D6E71"/>
	<stop  offset="0.1536" style="stop-color:#939598"/>
	<stop  offset="0.2151" style="stop-color:#6D6E71"/>
	<stop  offset="0.3883" style="stop-color:#6D6E71"/>
	<stop  offset="0.4832" style="stop-color:#939598"/>
	<stop  offset="0.6844" style="stop-color:#BCBEC0"/>
	<stop  offset="0.7458" style="stop-color:#808285"/>
	<stop  offset="0.8073" style="stop-color:#B4B4B4"/>
	<stop  offset="0.9134" style="stop-color:#6D6E71"/>
	<stop  offset="1" style="stop-color:#939598"/>
</linearGradient>
<path style="fill:url(#SVGID_00000111891475534081904160000004222999450956587706_);" d="M136.1,20c1,38,2,76,2.9,114
	c-1.5-2.6-2.9-5.1-4.4-7.7c-0.9-32.7-1.7-65.4-2.6-98.1C133.5,25.4,134.8,22.7,136.1,20z"/>
<linearGradient id="SVGID_00000037680732556001182380000004757668372347681451_" gradientUnits="userSpaceOnUse" x1="67.979" y1="192.4357" x2="67.979" y2="296.5192" gradientTransform="matrix(1 0 0 -1 0 322)">
	<stop  offset="0" style="stop-color:#999898"/>
	<stop  offset="0.1963" style="stop-color:#4F4F4F"/>
	<stop  offset="0.2507" style="stop-color:#5B5B5B"/>
	<stop  offset="0.3499" style="stop-color:#7C7C7C"/>
	<stop  offset="0.3704" style="stop-color:#848484"/>
	<stop  offset="0.433" style="stop-color:#878787"/>
	<stop  offset="0.5974" style="stop-color:#D9D9D9"/>
	<stop  offset="0.6843" style="stop-color:#FFFFFF"/>
	<stop  offset="0.9078" style="stop-color:#B7B7B7"/>
	<stop  offset="1" style="stop-color:#C6C6C6"/>
</linearGradient>
<rect x="46.3" y="25.5" style="fill:url(#SVGID_00000037680732556001182380000004757668372347681451_);" width="43.4" height="104.1"/>
<linearGradient id="SVGID_00000023238758541808098460000000489762495534365576_" gradientUnits="userSpaceOnUse" x1="-2129.333" y1="649.778" x2="-2097.1458" y2="649.778" gradientTransform="matrix(-1 0 0 -1 -2050.8594 727.0337)">
	<stop  offset="0" style="stop-color:#000000;stop-opacity:0"/>
	<stop  offset="0.3429" style="stop-color:#0A0A0A;stop-opacity:0.3341"/>
	<stop  offset="0.9264" style="stop-color:#252525;stop-opacity:0.9026"/>
	<stop  offset="1" style="stop-color:#292929;stop-opacity:0.9744"/>
</linearGradient>
<polygon style="opacity:0.28;fill:url(#SVGID_00000023238758541808098460000000489762495534365576_);enable-background:new    ;" points="
	46.3,129 78.5,129 78.5,25.5 46.3,25.5 "/>
<linearGradient id="SVGID_00000168797969325614916130000006620754373166188675_" gradientUnits="userSpaceOnUse" x1="-11971.5459" y1="423.2008" x2="-11971.5459" y2="530.1651" gradientTransform="matrix(-0.9993 -3.650000e-02 -3.900000e-02 1.0686 -11817.4248 -852.9019)">
	<stop  offset="6.980000e-02" style="stop-color:#6D6E71"/>
	<stop  offset="0.1536" style="stop-color:#939598"/>
	<stop  offset="0.2151" style="stop-color:#6D6E71"/>
	<stop  offset="0.3883" style="stop-color:#6D6E71"/>
	<stop  offset="0.4832" style="stop-color:#939598"/>
	<stop  offset="0.6844" style="stop-color:#BCBEC0"/>
	<stop  offset="0.7458" style="stop-color:#808285"/>
	<stop  offset="0.8073" style="stop-color:#B4B4B4"/>
	<stop  offset="0.9134" style="stop-color:#6D6E71"/>
	<stop  offset="1" style="stop-color:#939598"/>
</linearGradient>
<path style="fill:url(#SVGID_00000168797969325614916130000006620754373166188675_);" d="M128,19.9l2.8,114.4
	c-1.3-2.8-2.6-5.5-3.9-8.3c-0.8-32.6-1.7-65.2-2.5-97.8C125.6,25.5,126.8,22.7,128,19.9z"/>
<linearGradient id="SVGID_00000157293528173223329750000013373517530351448203_" gradientUnits="userSpaceOnUse" x1="141.0602" y1="1283.9058" x2="141.0602" y2="1170.5238" gradientTransform="matrix(0.9993 3.650000e-02 -3.680000e-02 1.0081 35.4058 -1165.1497)">
	<stop  offset="0" style="stop-color:#808285"/>
	<stop  offset="0.1313" style="stop-color:#4D4E50"/>
	<stop  offset="0.2039" style="stop-color:#424244"/>
	<stop  offset="0.338" style="stop-color:#808285"/>
	<stop  offset="0.4162" style="stop-color:#D1D3D4"/>
	<stop  offset="0.5168" style="stop-color:#A7A9AC"/>
	<stop  offset="0.662" style="stop-color:#F1F2F2"/>
	<stop  offset="0.8519" style="stop-color:#838587"/>
	<stop  offset="0.919" style="stop-color:#E6E7E8"/>
	<stop  offset="1" style="stop-color:#919396"/>
</linearGradient>
<polygon style="fill:url(#SVGID_00000157293528173223329750000013373517530351448203_);" points="128,19.9 132.2,28.1 134.7,126.3 
	130.8,134.4 "/>
<linearGradient id="SVGID_00000050662978723812503200000002419797053552241047_" gradientUnits="userSpaceOnUse" x1="118.7417" y1="298.1794" x2="118.7417" y2="298.1794" gradientTransform="matrix(1 0 0 -1 0 322)">
	<stop  offset="6.980000e-02" style="stop-color:#6D6E71"/>
	<stop  offset="0.1536" style="stop-color:#939598"/>
	<stop  offset="0.2151" style="stop-color:#6D6E71"/>
	<stop  offset="0.3883" style="stop-color:#6D6E71"/>
	<stop  offset="0.4832" style="stop-color:#939598"/>
	<stop  offset="0.6844" style="stop-color:#BCBEC0"/>
	<stop  offset="0.7458" style="stop-color:#808285"/>
	<stop  offset="0.8073" style="stop-color:#B4B4B4"/>
	<stop  offset="0.9134" style="stop-color:#6D6E71"/>
	<stop  offset="1" style="stop-color:#939598"/>
</linearGradient>
<path style="fill:url(#SVGID_00000050662978723812503200000002419797053552241047_);" d="M118.7,23.8"/>
<linearGradient id="SVGID_00000168830040505531048930000010616633169801339277_" gradientUnits="userSpaceOnUse" x1="117.1618" y1="1287.8124" x2="117.1618" y2="1173.514" gradientTransform="matrix(0.9993 3.650000e-02 -3.640000e-02 0.9977 35.0155 -1154.7074)">
	<stop  offset="0" style="stop-color:#808285"/>
	<stop  offset="0.1313" style="stop-color:#4D4E50"/>
	<stop  offset="0.2039" style="stop-color:#424244"/>
	<stop  offset="0.338" style="stop-color:#808285"/>
	<stop  offset="0.4162" style="stop-color:#D1D3D4"/>
	<stop  offset="0.5168" style="stop-color:#A7A9AC"/>
	<stop  offset="0.662" style="stop-color:#F1F2F2"/>
	<stop  offset="0.8519" style="stop-color:#838587"/>
	<stop  offset="0.919" style="stop-color:#E6E7E8"/>
	<stop  offset="1" style="stop-color:#919396"/>
</linearGradient>
<polygon style="fill:url(#SVGID_00000168830040505531048930000010616633169801339277_);" points="104.2,20.2 108.4,28.3 
	110.7,126.3 106.8,134.5 "/>
<linearGradient id="SVGID_00000019670259183033407930000003445885365127680953_" gradientUnits="userSpaceOnUse" x1="109.0527" y1="1289.5802" x2="109.0527" y2="1174.3655" gradientTransform="matrix(0.9993 3.650000e-02 -3.620000e-02 0.993 34.8314 -1150.0126)">
	<stop  offset="0" style="stop-color:#808285"/>
	<stop  offset="0.1313" style="stop-color:#4D4E50"/>
	<stop  offset="0.2039" style="stop-color:#424244"/>
	<stop  offset="0.338" style="stop-color:#808285"/>
	<stop  offset="0.4162" style="stop-color:#D1D3D4"/>
	<stop  offset="0.5168" style="stop-color:#A7A9AC"/>
	<stop  offset="0.662" style="stop-color:#F1F2F2"/>
	<stop  offset="0.8519" style="stop-color:#838587"/>
	<stop  offset="0.919" style="stop-color:#E6E7E8"/>
	<stop  offset="1" style="stop-color:#919396"/>
</linearGradient>
<polygon style="fill:url(#SVGID_00000019670259183033407930000003445885365127680953_);" points="96.1,19.9 100.3,28 102.6,126.4 
	98.9,134.6 "/>
<linearGradient id="SVGID_00000134210348986415246290000002579695574818072497_" gradientUnits="userSpaceOnUse" x1="-11955.6318" y1="423.7636" x2="-11955.6318" y2="530.7278" gradientTransform="matrix(-0.9993 -3.650000e-02 -3.900000e-02 1.0686 -11817.4248 -852.9019)">
	<stop  offset="6.980000e-02" style="stop-color:#6D6E71"/>
	<stop  offset="0.1536" style="stop-color:#939598"/>
	<stop  offset="0.2151" style="stop-color:#6D6E71"/>
	<stop  offset="0.3883" style="stop-color:#6D6E71"/>
	<stop  offset="0.4832" style="stop-color:#939598"/>
	<stop  offset="0.6844" style="stop-color:#BCBEC0"/>
	<stop  offset="0.7458" style="stop-color:#808285"/>
	<stop  offset="0.8073" style="stop-color:#B4B4B4"/>
	<stop  offset="0.9134" style="stop-color:#6D6E71"/>
	<stop  offset="1" style="stop-color:#939598"/>
</linearGradient>
<path style="fill:url(#SVGID_00000134210348986415246290000002579695574818072497_);" d="M112.1,19.9l2.8,114.4l-4.2-8.2
	c-0.7-32.6-1.5-65.3-2.2-97.9C109.7,25.5,110.9,22.7,112.1,19.9z"/>
<linearGradient id="SVGID_00000051345856000989775470000014627912951876935576_" gradientUnits="userSpaceOnUse" x1="-11947.5371" y1="425.931" x2="-11947.5371" y2="533.7797" gradientTransform="matrix(-0.9993 -3.650000e-02 -3.860000e-02 1.0576 -11817.5234 -850.1604)">
	<stop  offset="6.980000e-02" style="stop-color:#6D6E71"/>
	<stop  offset="0.1536" style="stop-color:#939598"/>
	<stop  offset="0.2151" style="stop-color:#6D6E71"/>
	<stop  offset="0.3883" style="stop-color:#6D6E71"/>
	<stop  offset="0.4832" style="stop-color:#939598"/>
	<stop  offset="0.6844" style="stop-color:#BCBEC0"/>
	<stop  offset="0.7458" style="stop-color:#808285"/>
	<stop  offset="0.8073" style="stop-color:#B4B4B4"/>
	<stop  offset="0.9134" style="stop-color:#6D6E71"/>
	<stop  offset="1" style="stop-color:#939598"/>
</linearGradient>
<path style="fill:url(#SVGID_00000051345856000989775470000014627912951876935576_);" d="M104.2,20.2l2.6,114.3l-4.2-8.1
	c-0.7-32.8-1.5-65.6-2.2-98.4C101.6,25.4,102.9,22.8,104.2,20.2z"/>
<linearGradient id="SVGID_00000081611030525328263680000014504215059596020669_" gradientUnits="userSpaceOnUse" x1="-11939.4463" y1="426.6424" x2="-11939.4463" y2="535.325" gradientTransform="matrix(-0.9993 -3.650000e-02 -3.840000e-02 1.0526 -11817.5762 -848.8991)">
	<stop  offset="6.980000e-02" style="stop-color:#6D6E71"/>
	<stop  offset="0.1536" style="stop-color:#939598"/>
	<stop  offset="0.2151" style="stop-color:#6D6E71"/>
	<stop  offset="0.3883" style="stop-color:#6D6E71"/>
	<stop  offset="0.4832" style="stop-color:#939598"/>
	<stop  offset="0.6844" style="stop-color:#BCBEC0"/>
	<stop  offset="0.7458" style="stop-color:#808285"/>
	<stop  offset="0.8073" style="stop-color:#B4B4B4"/>
	<stop  offset="0.9134" style="stop-color:#6D6E71"/>
	<stop  offset="1" style="stop-color:#939598"/>
</linearGradient>
<path style="fill:url(#SVGID_00000081611030525328263680000014504215059596020669_);" d="M96.1,19.9l2.8,114.7
	c-1.6-2.8-3.1-5.5-4.7-8.3c-0.4-16.4-0.7-32.8-1.1-49.2c-0.4-16.4-0.8-32.8-1.2-49.2C93.4,25.3,94.8,22.6,96.1,19.9z"/>
<linearGradient id="SVGID_00000096767728259394904600000007031846171981676971_" gradientUnits="userSpaceOnUse" x1="133.2371" y1="1282.0192" x2="133.2371" y2="1169.6299" gradientTransform="matrix(0.9993 3.650000e-02 -3.710000e-02 1.0163 35.7069 -1173.3899)">
	<stop  offset="0" style="stop-color:#808285"/>
	<stop  offset="0.1313" style="stop-color:#4D4E50"/>
	<stop  offset="0.2039" style="stop-color:#424244"/>
	<stop  offset="0.338" style="stop-color:#808285"/>
	<stop  offset="0.4162" style="stop-color:#D1D3D4"/>
	<stop  offset="0.5168" style="stop-color:#A7A9AC"/>
	<stop  offset="0.662" style="stop-color:#F1F2F2"/>
	<stop  offset="0.8519" style="stop-color:#838587"/>
	<stop  offset="0.919" style="stop-color:#E6E7E8"/>
	<stop  offset="1" style="stop-color:#919396"/>
</linearGradient>
<polygon style="fill:url(#SVGID_00000096767728259394904600000007031846171981676971_);" points="120.2,20 124.4,28.2 126.9,126.1 
	123,134.5 "/>
<linearGradient id="SVGID_00000017511252904774429700000006384297353571891593_" gradientUnits="userSpaceOnUse" x1="125.1468" y1="1284.499" x2="125.1468" y2="1171.1171" gradientTransform="matrix(0.9993 3.650000e-02 -3.680000e-02 1.0081 35.4058 -1165.1497)">
	<stop  offset="0" style="stop-color:#808285"/>
	<stop  offset="0.1313" style="stop-color:#4D4E50"/>
	<stop  offset="0.2039" style="stop-color:#424244"/>
	<stop  offset="0.338" style="stop-color:#808285"/>
	<stop  offset="0.4162" style="stop-color:#D1D3D4"/>
	<stop  offset="0.5168" style="stop-color:#A7A9AC"/>
	<stop  offset="0.662" style="stop-color:#F1F2F2"/>
	<stop  offset="0.8519" style="stop-color:#838587"/>
	<stop  offset="0.919" style="stop-color:#E6E7E8"/>
	<stop  offset="1" style="stop-color:#919396"/>
</linearGradient>
<polygon style="fill:url(#SVGID_00000017511252904774429700000006384297353571891593_);" points="112.1,19.9 116.3,28.1 
	118.8,126.3 114.9,134.4 "/>
<linearGradient id="SVGID_00000065037992855503730630000007726627439305050788_" gradientUnits="userSpaceOnUse" x1="-11963.624" y1="422.2086" x2="-11963.624" y2="528.242" gradientTransform="matrix(-0.9993 -3.650000e-02 -3.930000e-02 1.0773 -11817.3799 -855.0745)">
	<stop  offset="6.980000e-02" style="stop-color:#6D6E71"/>
	<stop  offset="0.1536" style="stop-color:#939598"/>
	<stop  offset="0.2151" style="stop-color:#6D6E71"/>
	<stop  offset="0.3883" style="stop-color:#6D6E71"/>
	<stop  offset="0.4832" style="stop-color:#939598"/>
	<stop  offset="0.6844" style="stop-color:#BCBEC0"/>
	<stop  offset="0.7458" style="stop-color:#808285"/>
	<stop  offset="0.8073" style="stop-color:#B4B4B4"/>
	<stop  offset="0.9134" style="stop-color:#6D6E71"/>
	<stop  offset="1" style="stop-color:#939598"/>
</linearGradient>
<path style="fill:url(#SVGID_00000065037992855503730630000007726627439305050788_);" d="M120.2,20l2.8,114.5l-4.2-8.2
	c-0.8-32.7-1.7-65.4-2.5-98.1C117.6,25.4,118.9,22.7,120.2,20z"/>
<linearGradient id="SVGID_00000029767567638500558780000003781179546072118665_" gradientUnits="userSpaceOnUse" x1="101.8229" y1="1286.9685" x2="101.8229" y2="1181.6061" gradientTransform="matrix(0.9993 3.650000e-02 -3.600000e-02 0.9851 34.5818 -1142.0853)">
	<stop  offset="0" style="stop-color:#808285"/>
	<stop  offset="0.1313" style="stop-color:#4D4E50"/>
	<stop  offset="0.2039" style="stop-color:#424244"/>
	<stop  offset="0.338" style="stop-color:#808285"/>
	<stop  offset="0.4162" style="stop-color:#D1D3D4"/>
	<stop  offset="0.5168" style="stop-color:#A7A9AC"/>
	<stop  offset="0.662" style="stop-color:#F1F2F2"/>
	<stop  offset="0.8519" style="stop-color:#838587"/>
	<stop  offset="0.919" style="stop-color:#E6E7E8"/>
	<stop  offset="1" style="stop-color:#919396"/>
</linearGradient>
<path style="fill:url(#SVGID_00000029767567638500558780000003781179546072118665_);" d="M89.7,25.5c0.8,0.8,1.6,1.6,2.4,2.4
	c0.7,32.8,1.5,65.7,2.2,98.5c-1.5,1-3,2.1-4.6,3.1C89.7,94.8,89.7,60.1,89.7,25.5z"/>
<linearGradient id="SVGID_00000023280427526903722660000005682320691278421908_" gradientUnits="userSpaceOnUse" x1="148.5285" y1="1280.9431" x2="148.5285" y2="1169.0571" gradientTransform="matrix(0.9993 3.650000e-02 -3.710000e-02 1.0163 35.7069 -1173.3899)">
	<stop  offset="0" style="stop-color:#808285"/>
	<stop  offset="0.1313" style="stop-color:#4D4E50"/>
	<stop  offset="0.2039" style="stop-color:#424244"/>
	<stop  offset="0.338" style="stop-color:#808285"/>
	<stop  offset="0.4162" style="stop-color:#D1D3D4"/>
	<stop  offset="0.5168" style="stop-color:#A7A9AC"/>
	<stop  offset="0.662" style="stop-color:#F1F2F2"/>
	<stop  offset="0.8519" style="stop-color:#838587"/>
	<stop  offset="0.919" style="stop-color:#E6E7E8"/>
	<stop  offset="1" style="stop-color:#919396"/>
</linearGradient>
<path style="fill:url(#SVGID_00000023280427526903722660000005682320691278421908_);" d="M136.1,20c1.8,2.9,3.6,5.9,5.4,8.8
	c0,32.6,0,65.1,0,97.7c-0.8,2.5-1.6,4.9-2.4,7.4C138.1,96,137.1,58,136.1,20z"/>
<linearGradient id="SVGID_00000072965847335729185120000016873010258312513961_" gradientUnits="userSpaceOnUse" x1="-11979.5498" y1="421.5992" x2="-11979.5498" y2="527.1499" gradientTransform="matrix(-0.9993 -3.650000e-02 -3.930000e-02 1.0773 -11817.3799 -855.0745)">
	<stop  offset="6.980000e-02" style="stop-color:#6D6E71"/>
	<stop  offset="0.1536" style="stop-color:#939598"/>
	<stop  offset="0.2151" style="stop-color:#6D6E71"/>
	<stop  offset="0.3883" style="stop-color:#6D6E71"/>
	<stop  offset="0.4832" style="stop-color:#939598"/>
	<stop  offset="0.6844" style="stop-color:#BCBEC0"/>
	<stop  offset="0.7458" style="stop-color:#808285"/>
	<stop  offset="0.8073" style="stop-color:#B4B4B4"/>
	<stop  offset="0.9134" style="stop-color:#6D6E71"/>
	<stop  offset="1" style="stop-color:#939598"/>
</linearGradient>
<path style="fill:url(#SVGID_00000072965847335729185120000016873010258312513961_);" d="M136.1,20c1,38,2,76,2.9,114
	c-1.5-2.6-2.9-5.1-4.4-7.7c-0.9-32.7-1.7-65.4-2.6-98.1C133.5,25.4,134.8,22.7,136.1,20z"/>
<linearGradient id="SVGID_00000088091814452315005110000004077174601363636640_" gradientUnits="userSpaceOnUse" x1="67.979" y1="192.4357" x2="67.979" y2="296.5192" gradientTransform="matrix(1 0 0 -1 0 322)">
	<stop  offset="0" style="stop-color:#999898"/>
	<stop  offset="0.1963" style="stop-color:#4F4F4F"/>
	<stop  offset="0.2507" style="stop-color:#5B5B5B"/>
	<stop  offset="0.3499" style="stop-color:#7C7C7C"/>
	<stop  offset="0.3704" style="stop-color:#848484"/>
	<stop  offset="0.433" style="stop-color:#878787"/>
	<stop  offset="0.5974" style="stop-color:#D9D9D9"/>
	<stop  offset="0.6843" style="stop-color:#FFFFFF"/>
	<stop  offset="0.9078" style="stop-color:#B7B7B7"/>
	<stop  offset="1" style="stop-color:#C6C6C6"/>
</linearGradient>
<rect x="46.3" y="25.5" style="fill:url(#SVGID_00000088091814452315005110000004077174601363636640_);" width="43.4" height="104.1"/>
<linearGradient id="SVGID_00000119811814327985794150000011901006948966257550_" gradientUnits="userSpaceOnUse" x1="-2129.333" y1="649.5832" x2="-2097.1458" y2="649.5832" gradientTransform="matrix(-1 0 0 -1 -2050.8594 727.0337)">
	<stop  offset="0" style="stop-color:#000000;stop-opacity:0"/>
	<stop  offset="0.3429" style="stop-color:#0A0A0A;stop-opacity:0.3341"/>
	<stop  offset="0.9264" style="stop-color:#252525;stop-opacity:0.9026"/>
	<stop  offset="1" style="stop-color:#292929;stop-opacity:0.9744"/>
</linearGradient>
<polygon style="opacity:0.28;fill:url(#SVGID_00000119811814327985794150000011901006948966257550_);enable-background:new    ;" points="
	46.3,129.4 78.5,129.4 78.5,25.5 46.3,25.5 "/>
<linearGradient id="SVGID_00000107548400983407089300000003324637865643228041_" gradientUnits="userSpaceOnUse" x1="-11971.5459" y1="423.2008" x2="-11971.5459" y2="530.1651" gradientTransform="matrix(-0.9993 -3.650000e-02 -3.900000e-02 1.0686 -11817.4248 -852.9019)">
	<stop  offset="6.980000e-02" style="stop-color:#6D6E71"/>
	<stop  offset="0.1536" style="stop-color:#939598"/>
	<stop  offset="0.2151" style="stop-color:#6D6E71"/>
	<stop  offset="0.3883" style="stop-color:#6D6E71"/>
	<stop  offset="0.4832" style="stop-color:#939598"/>
	<stop  offset="0.6844" style="stop-color:#BCBEC0"/>
	<stop  offset="0.7458" style="stop-color:#808285"/>
	<stop  offset="0.8073" style="stop-color:#B4B4B4"/>
	<stop  offset="0.9134" style="stop-color:#6D6E71"/>
	<stop  offset="1" style="stop-color:#939598"/>
</linearGradient>
<path style="fill:url(#SVGID_00000107548400983407089300000003324637865643228041_);" d="M128,19.9l2.8,114.4
	c-1.3-2.8-2.6-5.5-3.9-8.3c-0.8-32.6-1.7-65.2-2.5-97.8C125.6,25.5,126.8,22.7,128,19.9z"/>
<linearGradient id="SVGID_00000031921468549206506490000017264697798760975285_" gradientUnits="userSpaceOnUse" x1="141.0602" y1="1283.9058" x2="141.0602" y2="1170.5238" gradientTransform="matrix(0.9993 3.650000e-02 -3.680000e-02 1.0081 35.4058 -1165.1497)">
	<stop  offset="0" style="stop-color:#808285"/>
	<stop  offset="0.1313" style="stop-color:#4D4E50"/>
	<stop  offset="0.2039" style="stop-color:#424244"/>
	<stop  offset="0.338" style="stop-color:#808285"/>
	<stop  offset="0.4162" style="stop-color:#D1D3D4"/>
	<stop  offset="0.5168" style="stop-color:#A7A9AC"/>
	<stop  offset="0.662" style="stop-color:#F1F2F2"/>
	<stop  offset="0.8519" style="stop-color:#838587"/>
	<stop  offset="0.919" style="stop-color:#E6E7E8"/>
	<stop  offset="1" style="stop-color:#919396"/>
</linearGradient>
<polygon style="fill:url(#SVGID_00000031921468549206506490000017264697798760975285_);" points="128,19.9 132.2,28.1 134.7,126.3 
	130.8,134.4 "/>
<linearGradient id="SVGID_00000133501807799195325330000005357039084455118219_" gradientUnits="userSpaceOnUse" x1="118.7417" y1="298.1794" x2="118.7417" y2="298.1794" gradientTransform="matrix(1 0 0 -1 0 322)">
	<stop  offset="6.980000e-02" style="stop-color:#6D6E71"/>
	<stop  offset="0.1536" style="stop-color:#939598"/>
	<stop  offset="0.2151" style="stop-color:#6D6E71"/>
	<stop  offset="0.3883" style="stop-color:#6D6E71"/>
	<stop  offset="0.4832" style="stop-color:#939598"/>
	<stop  offset="0.6844" style="stop-color:#BCBEC0"/>
	<stop  offset="0.7458" style="stop-color:#808285"/>
	<stop  offset="0.8073" style="stop-color:#B4B4B4"/>
	<stop  offset="0.9134" style="stop-color:#6D6E71"/>
	<stop  offset="1" style="stop-color:#939598"/>
</linearGradient>
<path style="fill:url(#SVGID_00000133501807799195325330000005357039084455118219_);" d="M118.7,23.8"/>
<linearGradient id="SVGID_00000044153384836158273670000010510642597616258697_" gradientUnits="userSpaceOnUse" x1="19.9141" y1="44.9926" x2="19.9141" y2="112.7637" gradientTransform="matrix(1 0 0 -1 0 322)">
	<stop  offset="0" style="stop-color:#424242"/>
	<stop  offset="0.1068" style="stop-color:#333333"/>
	<stop  offset="0.2055" style="stop-color:#2D2D2D"/>
	<stop  offset="0.3492" style="stop-color:#424244"/>
	<stop  offset="0.6732" style="stop-color:#7F7F7F"/>
	<stop  offset="0.9078" style="stop-color:#414042"/>
</linearGradient>
<path style="fill:url(#SVGID_00000044153384836158273670000010510642597616258697_);" d="M18.7,209.2c0,5.1,0,10.2,0,15.2
	c0,6.1,0,12.1,0,18.2c0,0.3,0,0.7,0,1c0,4.8,0,9.5,0,14.3c0,6.4,0,12.8,0,19.1c0.8-0.8,1.7-1.6,2.5-2.4c0-6.4,0-12.8,0-19.1
	c0-3.4,0-6.7,0-10.1c0-1.7,0-3.4,0-5.2c0-4.7,0-9.3,0-14c0-5.1,0-10.2,0-15.2C20.3,210.5,19.5,209.8,18.7,209.2z"/>
<linearGradient id="SVGID_00000024694388741103389440000000595529400204131972_" gradientUnits="userSpaceOnUse" x1="18.6562" y1="78.8782" x2="21.1682" y2="78.8782" gradientTransform="matrix(1 0 0 -1 0 322)">
	<stop  offset="0" style="stop-color:#000000;stop-opacity:0"/>
	<stop  offset="0.3429" style="stop-color:#0A0A0A;stop-opacity:0.3341"/>
	<stop  offset="0.9264" style="stop-color:#252525;stop-opacity:0.9026"/>
	<stop  offset="1" style="stop-color:#292929;stop-opacity:0.9744"/>
</linearGradient>
<path style="opacity:0.4;fill:url(#SVGID_00000024694388741103389440000000595529400204131972_);enable-background:new    ;" d="
	M18.7,209.2c0,5.1,0,10.2,0,15.2c0,6.1,0,12.1,0,18.2c0,0.3,0,0.7,0,1c0,4.8,0,9.5,0,14.3c0,6.4,0,12.8,0,19.1
	c0.8-0.8,1.7-1.6,2.5-2.4c0-6.4,0-12.8,0-19.1c0-3.4,0-6.7,0-10.1c0-1.7,0-3.4,0-5.2c0-4.7,0-9.3,0-14c0-5.1,0-10.2,0-15.2
	C20.3,210.5,19.5,209.8,18.7,209.2z"/>
<linearGradient id="SVGID_00000111163478255272853510000003208186458863169954_" gradientUnits="userSpaceOnUse" x1="46.2907" y1="47.288" x2="46.2907" y2="68.4724" gradientTransform="matrix(1 0 0 -1 0 322)">
	<stop  offset="4.382693e-03" style="stop-color:#2D2D2D"/>
	<stop  offset="1" style="stop-color:#414042"/>
</linearGradient>
<rect x="21.2" y="253.5" style="fill:url(#SVGID_00000111163478255272853510000003208186458863169954_);" width="50.2" height="21.2"/>
<linearGradient id="SVGID_00000110469889000929248300000007913815801681505196_" gradientUnits="userSpaceOnUse" x1="46.2907" y1="68.4724" x2="46.2907" y2="89.6567" gradientTransform="matrix(1 0 0 -1 0 322)">
	<stop  offset="0" style="stop-color:#383838"/>
	<stop  offset="1" style="stop-color:#5E5E5E"/>
</linearGradient>
<rect x="21.2" y="232.3" style="fill:url(#SVGID_00000110469889000929248300000007913815801681505196_);" width="50.2" height="21.2"/>
<linearGradient id="SVGID_00000126296633797286672440000014177539916416530834_" gradientUnits="userSpaceOnUse" x1="46.2907" y1="89.6567" x2="46.2907" y2="110.841" gradientTransform="matrix(1 0 0 -1 0 322)">
	<stop  offset="0" style="stop-color:#545454"/>
	<stop  offset="1" style="stop-color:#777777"/>
</linearGradient>
<rect x="21.2" y="211.2" style="fill:url(#SVGID_00000126296633797286672440000014177539916416530834_);" width="50.2" height="21.2"/>
<linearGradient id="SVGID_00000089548104398823906080000014389294890300729479_" gradientUnits="userSpaceOnUse" x1="86.2199" y1="54.5048" x2="86.2199" y2="103.8276" gradientTransform="matrix(1 0 0 -1 0 322)">
	<stop  offset="0" style="stop-color:#424242"/>
	<stop  offset="0.2055" style="stop-color:#2D2D2D"/>
	<stop  offset="0.648" style="stop-color:#6B6B6B"/>
	<stop  offset="1" style="stop-color:#484749"/>
</linearGradient>
<path style="fill:url(#SVGID_00000089548104398823906080000014389294890300729479_);" d="M94.7,242.9
	C94.7,242.9,94.7,242.8,94.7,242.9C94.7,242.8,94.7,242.8,94.7,242.9l-17-24.7v24.6v0.1v24.7C83.3,259.3,89,251.1,94.7,242.9
	L94.7,242.9L94.7,242.9z"/>
<linearGradient id="SVGID_00000116197272280373540320000005013833828292734362_" gradientUnits="userSpaceOnUse" x1="74.5393" y1="54.5641" x2="74.5393" y2="103.8275" gradientTransform="matrix(1 0 0 -1 0 322)">
	<stop  offset="0" style="stop-color:#303030"/>
	<stop  offset="0.2055" style="stop-color:#191919"/>
	<stop  offset="0.3492" style="stop-color:#333333"/>
	<stop  offset="0.6732" style="stop-color:#3A3A3A"/>
	<stop  offset="0.9078" style="stop-color:#2D2D2D"/>
</linearGradient>
<polygon style="fill:url(#SVGID_00000116197272280373540320000005013833828292734362_);" points="71.4,218.2 71.4,230.5 71.4,242.8 
	71.4,242.8 71.4,255.1 71.4,267.4 77.7,267.4 77.7,255.1 77.7,242.8 77.7,242.8 77.7,230.5 77.7,218.2 "/>
<linearGradient id="SVGID_00000144328661475243779410000000908104298345110660_" gradientUnits="userSpaceOnUse" x1="-2127.4187" y1="484.2295" x2="-2122.1672" y2="484.2295" gradientTransform="matrix(-1 0 0 -1 -2050.8594 727.0337)">
	<stop  offset="0" style="stop-color:#000000;stop-opacity:0"/>
	<stop  offset="0.3429" style="stop-color:#0A0A0A;stop-opacity:0.3341"/>
	<stop  offset="0.9264" style="stop-color:#252525;stop-opacity:0.9026"/>
	<stop  offset="1" style="stop-color:#292929;stop-opacity:0.9744"/>
</linearGradient>
<polygon style="opacity:0.5;fill:url(#SVGID_00000144328661475243779410000000908104298345110660_);enable-background:new    ;" points="
	71.3,267.4 76.6,267.4 76.6,218.2 71.3,218.2 "/>
<linearGradient id="SVGID_00000161609715899647345520000017379332866874622101_" gradientUnits="userSpaceOnUse" x1="-444.8232" y1="1402.748" x2="-441.2572" y2="1402.748" gradientTransform="matrix(1 0 0 1 519.0279 -1159.9438)">
	<stop  offset="0" style="stop-color:#000000;stop-opacity:0"/>
	<stop  offset="0.3429" style="stop-color:#0A0A0A;stop-opacity:0.3341"/>
	<stop  offset="0.9264" style="stop-color:#252525;stop-opacity:0.9026"/>
	<stop  offset="1" style="stop-color:#292929;stop-opacity:0.9744"/>
</linearGradient>
<rect x="74.2" y="218.2" style="opacity:0.5;fill:url(#SVGID_00000161609715899647345520000017379332866874622101_);enable-background:new    ;" width="3.6" height="49.3"/>
<radialGradient id="SVGID_00000018228290714945047250000014166030949369143471_" cx="53.0627" cy="244.4436" r="44.9723" gradientTransform="matrix(1 0 0 -1 0 322)" gradientUnits="userSpaceOnUse">
	<stop  offset="0" style="stop-color:#3D3D3D"/>
	<stop  offset="1" style="stop-color:#2B2B2B"/>
</radialGradient>
<path style="fill:url(#SVGID_00000018228290714945047250000014166030949369143471_);" d="M53.1,14.3c-3.8,0-6.8,3.1-6.8,6.8v112.8
	c0,3.8,3.1,6.8,6.8,6.8c3.8,0,6.8-3.1,6.8-6.8V21.2C59.9,17.4,56.8,14.3,53.1,14.3z"/>
<radialGradient id="SVGID_00000027592052040611154230000013155582646725265828_" cx="53.0627" cy="135.4388" r="6.844" gradientTransform="matrix(1 0 0 -1 0 322)" gradientUnits="userSpaceOnUse">
	<stop  offset="0" style="stop-color:#3D3D3D;stop-opacity:0.9744"/>
	<stop  offset="1" style="stop-color:#2B2B2B;stop-opacity:0.9744"/>
</radialGradient>
<circle style="fill:url(#SVGID_00000027592052040611154230000013155582646725265828_);" cx="53.1" cy="186.6" r="6.8"/>
<linearGradient id="SVGID_00000068672748593079777080000004242988520198892191_" gradientUnits="userSpaceOnUse" x1="32.4714" y1="175.656" x2="32.4714" y2="313.5446" gradientTransform="matrix(1 0 0 -1 0 322)">
	<stop  offset="0" style="stop-color:#848383"/>
	<stop  offset="0.1424" style="stop-color:#707070"/>
	<stop  offset="0.2023" style="stop-color:#646464"/>
	<stop  offset="0.269" style="stop-color:#5B5B5B"/>
	<stop  offset="0.3079" style="stop-color:#676767"/>
	<stop  offset="0.3704" style="stop-color:#848484"/>
	<stop  offset="0.433" style="stop-color:#878787"/>
	<stop  offset="0.5974" style="stop-color:#D9D9D9"/>
	<stop  offset="0.6843" style="stop-color:#FFFFFF"/>
	<stop  offset="0.9078" style="stop-color:#B7B7B7"/>
	<stop  offset="1" style="stop-color:#C6C6C6"/>
</linearGradient>
<rect x="18.7" y="8.5" style="fill:url(#SVGID_00000068672748593079777080000004242988520198892191_);" width="27.6" height="137.9"/>
<radialGradient id="SVGID_00000164480394178680204470000009781861489699751051_" cx="53.0627" cy="22.2497" r="6.844" gradientTransform="matrix(1 0 0 -1 0 322)" gradientUnits="userSpaceOnUse">
	<stop  offset="0" style="stop-color:#3D3D3D;stop-opacity:0.9744"/>
	<stop  offset="1" style="stop-color:#2B2B2B;stop-opacity:0.9744"/>
</radialGradient>
<circle style="fill:url(#SVGID_00000164480394178680204470000009781861489699751051_);" cx="53.1" cy="299.8" r="6.8"/>
<image style="overflow:visible;" width="200" height="200" xlink:href="../../pepsi.png"  transform="matrix(9.707366e-02 0 0 9.707366e-02 22.764 67.2519)">
</image>
</svg>
