<?xml version="1.0" encoding="utf-8"?>
<!-- Generator: Adobe Illustrator 25.4.1, SVG Export Plug-In . SVG Version: 6.00 Build 0)  -->
<svg version="1.1" id="Слой_1" xmlns="http://www.w3.org/2000/svg" xmlns:xlink="http://www.w3.org/1999/xlink" x="0px" y="0px"
	 viewBox="0 0 100 160" style="enable-background:new 0 0 100 160;" xml:space="preserve">
<style type="text/css">
	.st0{clip-path:url(#SVGID_00000177450982544806609470000013890201693774197175_);enable-background:new    ;}
	.st1{fill:url(#SVGID_00000172413800155768004560000005623239770765636797_);}
	.st2{fill:url(#SVGID_00000153682924098325126870000008959518318188371866_);}
	.st3{fill:url(#SVGID_00000101801581834882752360000009880445926151084165_);}
	.st4{fill:url(#SVGID_00000179617427034754082580000012139265364236620161_);}
	.st5{fill:url(#SVGID_00000097490401693432247580000018250117619735649196_);}
	.st6{fill:url(#SVGID_00000041994636651397277560000010943404919044452757_);}
	.st7{fill:url(#SVGID_00000080200354139135687900000005765540879360884117_);}
	.st8{fill:url(#SVGID_00000116211666546081315450000016144788734136837519_);}
	.st9{fill:url(#SVGID_00000124142623189019010180000016928153009089085335_);}
	.st10{fill:url(#SVGID_00000168083916923862740360000016123736931182626953_);}
	.st11{fill:url(#SVGID_00000041982880224450690810000001571022964225046461_);}
	.st12{fill:url(#SVGID_00000120519352522697789770000016243600716771638659_);}
	.st13{opacity:0.28;fill:url(#SVGID_00000003795084924370395570000011519937949888341690_);enable-background:new    ;}
	.st14{fill:url(#SVGID_00000005953371087955590020000003191526667654515895_);}
	.st15{fill:url(#SVGID_00000072274675558303033110000005869735292631176363_);}
	.st16{fill:url(#SVGID_00000011030395980359123960000006107505936024351666_);}
	.st17{fill:url(#SVGID_00000113351762109836267540000007065594619589750703_);}
	.st18{fill:url(#SVGID_00000109002446604462742880000006243823219862321812_);}
	.st19{fill:url(#SVGID_00000182487260707064133080000012275937962459879047_);}
	.st20{fill:url(#SVGID_00000009584629563469802130000016316776291340290702_);}
	.st21{fill:url(#SVGID_00000142174545864771012200000005538665538895176329_);}
	.st22{opacity:0.4;fill:url(#SVGID_00000076588113443577034740000003711415239496442508_);enable-background:new    ;}
	.st23{fill:url(#SVGID_00000139974531972934089380000010353870056109637815_);}
	.st24{fill:url(#SVGID_00000020379012386222739310000015132657709077011118_);}
	.st25{fill:url(#SVGID_00000171707557579743468270000007698011918125058193_);}
	.st26{fill:url(#SVGID_00000003807798295608643410000002071423082902759837_);}
	.st27{fill:url(#SVGID_00000163754063014675165000000007532134593089685901_);}
	.st28{opacity:0.5;fill:url(#SVGID_00000016781196735917889980000017135528603938337968_);enable-background:new    ;}
	.st29{opacity:0.5;fill:url(#SVGID_00000125567989812066489350000010683017385352280205_);enable-background:new    ;}
	.st30{fill:url(#SVGID_00000182497071250087710430000003748461317585150621_);}
	.st31{fill:url(#SVGID_00000131352094365099074870000009193198406524628384_);}
	.st32{fill:none;stroke:#ADADAD;stroke-width:0.5;stroke-miterlimit:10;}
</style>
<g>
	<g>
		<defs>
			<path id="SVGID_1_" d="M79.5,92.1c-0.6,1.4-1.2,2.8-1.8,4.2L75.8,92c-0.6,1.4-1.2,2.8-1.8,4.2l0,0L72.1,92
				c-0.5,1.4-1.1,2.9-1.6,4.3l0,0L68.6,92c-0.6,1.4-1.2,2.8-1.8,4.2l0,0L64.9,92c-0.5,1.4-1.1,2.9-1.6,4.3l-1.9-4.2
				c-0.6,1.4-1.2,2.7-1.7,4.1c-0.6-1.4-1.3-2.8-1.9-4.2c-0.6,1.4-1.2,2.7-1.8,4.1c-0.4-0.4-0.7-0.8-1.1-1.2h-1.2h-2.4v-5.1h-1.5V86
				H18.1v72.9h31.7v-3.8h1.5V150h2.1l1.4-1.2H55v0.2l0.2-0.2l0,0c0.6-0.5,1.2-1,1.8-1.4c0.7,1.4,1.4,2.9,2.1,4.3l0,0l0,0l0,0
				l1.6-4.2l0,0l1.9,4.2l0,0l0,0c0.6-1.4,1.2-2.8,1.8-4.2v-0.1l0,0c0.6,1.4,1.3,2.8,1.9,4.3l1.8-4.2l0,0l0,0l1.9,4.3l1.8-4.3
				c0.6,1.4,1.2,2.9,1.8,4.3l1.8-4.2l0,0l0,0l1.9,4.3l1.7-4.3l0,0c0.6,1.3,1.3,2.7,1.9,4c0.4-1.3,0.7-2.6,1.1-3.8
				c0-16.9,0-33.8,0-50.7C81.1,95.2,80.3,93.7,79.5,92.1z M62.6,147.3L62.6,147.3L62.6,147.3L62.6,147.3z"/>
		</defs>
		<clipPath id="SVGID_00000137127234233057409600000016809084599770337957_">
			<use xlink:href="#SVGID_1_"  style="overflow:visible;"/>
		</clipPath>
		
			<g transform="matrix(1 0 0 1 0 0)" style="clip-path:url(#SVGID_00000137127234233057409600000016809084599770337957_);enable-background:new    ;">
			
				<image style="overflow:visible;enable-background:new    ;" width="1213" height="908" xlink:href="EDF6D49D.jpeg"  transform="matrix(0.133 0 0 0.133 -18.0284 69.5307)">
			</image>
		</g>
	</g>
</g>
<linearGradient id="SVGID_00000038403203999702218640000009561948952324239006_" gradientUnits="userSpaceOnUse" x1="67.0176" y1="826.0167" x2="67.0176" y2="766.6716" gradientTransform="matrix(0.9993 3.650000e-02 -3.640000e-02 0.9977 24.9355 -760.1944)">
	<stop  offset="0" style="stop-color:#808285"/>
	<stop  offset="0.1313" style="stop-color:#4D4E50"/>
	<stop  offset="0.2039" style="stop-color:#424244"/>
	<stop  offset="0.338" style="stop-color:#808285"/>
	<stop  offset="0.4162" style="stop-color:#D1D3D4"/>
	<stop  offset="0.5168" style="stop-color:#A7A9AC"/>
	<stop  offset="0.662" style="stop-color:#F1F2F2"/>
	<stop  offset="0.8519" style="stop-color:#838587"/>
	<stop  offset="0.919" style="stop-color:#E6E7E8"/>
	<stop  offset="1" style="stop-color:#919396"/>
</linearGradient>
<polygon style="fill:url(#SVGID_00000038403203999702218640000009561948952324239006_);" points="61.5,7 63.4,11.2 64.5,62.1 
	62.7,66.4 "/>
<linearGradient id="SVGID_00000175323736509478847840000008792116430816512136_" gradientUnits="userSpaceOnUse" x1="63.3517" y1="826.7003" x2="63.3517" y2="766.9083" gradientTransform="matrix(0.9993 3.650000e-02 -3.620000e-02 0.993 24.8094 -756.8626)">
	<stop  offset="0" style="stop-color:#808285"/>
	<stop  offset="0.1313" style="stop-color:#4D4E50"/>
	<stop  offset="0.2039" style="stop-color:#424244"/>
	<stop  offset="0.338" style="stop-color:#808285"/>
	<stop  offset="0.4162" style="stop-color:#D1D3D4"/>
	<stop  offset="0.5168" style="stop-color:#A7A9AC"/>
	<stop  offset="0.662" style="stop-color:#F1F2F2"/>
	<stop  offset="0.8519" style="stop-color:#838587"/>
	<stop  offset="0.919" style="stop-color:#E6E7E8"/>
	<stop  offset="1" style="stop-color:#919396"/>
</linearGradient>
<polygon style="fill:url(#SVGID_00000175323736509478847840000008792116430816512136_);" points="57.9,6.9 59.8,11.1 60.8,62.2 
	59.2,66.4 "/>
<linearGradient id="SVGID_00000029738641195983411390000016893976296978584736_" gradientUnits="userSpaceOnUse" x1="-10543.0771" y1="17.5575" x2="-10543.0771" y2="73.0948" gradientTransform="matrix(-0.9993 -3.650000e-02 -3.900000e-02 1.0686 -10469.21 -388.1878)">
	<stop  offset="6.980000e-02" style="stop-color:#6D6E71"/>
	<stop  offset="0.1536" style="stop-color:#939598"/>
	<stop  offset="0.2151" style="stop-color:#6D6E71"/>
	<stop  offset="0.3883" style="stop-color:#6D6E71"/>
	<stop  offset="0.4832" style="stop-color:#939598"/>
	<stop  offset="0.6844" style="stop-color:#BCBEC0"/>
	<stop  offset="0.7458" style="stop-color:#808285"/>
	<stop  offset="0.8073" style="stop-color:#B4B4B4"/>
	<stop  offset="0.9134" style="stop-color:#6D6E71"/>
	<stop  offset="1" style="stop-color:#939598"/>
</linearGradient>
<path style="fill:url(#SVGID_00000029738641195983411390000016893976296978584736_);" d="M65.1,6.9l1.3,59.4L64.5,62
	c-0.3-16.9-0.7-33.9-1-50.8C64,9.8,64.5,8.3,65.1,6.9z"/>
<linearGradient id="SVGID_00000080198681967789705760000006006461596560962720_" gradientUnits="userSpaceOnUse" x1="-10539.376" y1="18.3285" x2="-10539.376" y2="74.2828" gradientTransform="matrix(-0.9993 -3.650000e-02 -3.860000e-02 1.0576 -10469.1934 -388.6364)">
	<stop  offset="6.980000e-02" style="stop-color:#6D6E71"/>
	<stop  offset="0.1536" style="stop-color:#939598"/>
	<stop  offset="0.2151" style="stop-color:#6D6E71"/>
	<stop  offset="0.3883" style="stop-color:#6D6E71"/>
	<stop  offset="0.4832" style="stop-color:#939598"/>
	<stop  offset="0.6844" style="stop-color:#BCBEC0"/>
	<stop  offset="0.7458" style="stop-color:#808285"/>
	<stop  offset="0.8073" style="stop-color:#B4B4B4"/>
	<stop  offset="0.9134" style="stop-color:#6D6E71"/>
	<stop  offset="1" style="stop-color:#939598"/>
</linearGradient>
<path style="fill:url(#SVGID_00000080198681967789705760000006006461596560962720_);" d="M61.5,7l1.2,59.3l-1.9-4.2
	c-0.3-17-0.7-34-1-51.1C60.4,9.7,61,8.4,61.5,7z"/>
<linearGradient id="SVGID_00000005239587903489523440000012100806803744133814_" gradientUnits="userSpaceOnUse" x1="-10535.7822" y1="18.5166" x2="-10535.7822" y2="74.9231" gradientTransform="matrix(-0.9993 -3.650000e-02 -3.840000e-02 1.0526 -10469.1895 -388.8251)">
	<stop  offset="6.980000e-02" style="stop-color:#6D6E71"/>
	<stop  offset="0.1536" style="stop-color:#939598"/>
	<stop  offset="0.2151" style="stop-color:#6D6E71"/>
	<stop  offset="0.3883" style="stop-color:#6D6E71"/>
	<stop  offset="0.4832" style="stop-color:#939598"/>
	<stop  offset="0.6844" style="stop-color:#BCBEC0"/>
	<stop  offset="0.7458" style="stop-color:#808285"/>
	<stop  offset="0.8073" style="stop-color:#B4B4B4"/>
	<stop  offset="0.9134" style="stop-color:#6D6E71"/>
	<stop  offset="1" style="stop-color:#939598"/>
</linearGradient>
<path style="fill:url(#SVGID_00000005239587903489523440000012100806803744133814_);" d="M57.9,6.9l1.3,59.5
	c-0.7-1.4-1.4-2.9-2.1-4.3c-0.2-8.5-0.3-17-0.5-25.5s-0.3-17-0.5-25.6C56.7,9.7,57.3,8.3,57.9,6.9z"/>
<linearGradient id="SVGID_00000070800001630568223370000017392825001640314243_" gradientUnits="userSpaceOnUse" x1="74.2727" y1="823.6138" x2="74.2727" y2="765.291" gradientTransform="matrix(0.9993 3.650000e-02 -3.710000e-02 1.0163 25.4239 -773.4829)">
	<stop  offset="0" style="stop-color:#808285"/>
	<stop  offset="0.1313" style="stop-color:#4D4E50"/>
	<stop  offset="0.2039" style="stop-color:#424244"/>
	<stop  offset="0.338" style="stop-color:#808285"/>
	<stop  offset="0.4162" style="stop-color:#D1D3D4"/>
	<stop  offset="0.5168" style="stop-color:#A7A9AC"/>
	<stop  offset="0.662" style="stop-color:#F1F2F2"/>
	<stop  offset="0.8519" style="stop-color:#838587"/>
	<stop  offset="0.919" style="stop-color:#E6E7E8"/>
	<stop  offset="1" style="stop-color:#919396"/>
</linearGradient>
<polygon style="fill:url(#SVGID_00000070800001630568223370000017392825001640314243_);" points="68.7,6.9 70.6,11.2 71.8,62 
	70,66.3 "/>
<linearGradient id="SVGID_00000173843840892597360130000014933193961144084383_" gradientUnits="userSpaceOnUse" x1="70.6264" y1="824.6282" x2="70.6264" y2="765.7587" gradientTransform="matrix(0.9993 3.650000e-02 -3.680000e-02 1.0081 25.2098 -767.6206)">
	<stop  offset="0" style="stop-color:#808285"/>
	<stop  offset="0.1313" style="stop-color:#4D4E50"/>
	<stop  offset="0.2039" style="stop-color:#424244"/>
	<stop  offset="0.338" style="stop-color:#808285"/>
	<stop  offset="0.4162" style="stop-color:#D1D3D4"/>
	<stop  offset="0.5168" style="stop-color:#A7A9AC"/>
	<stop  offset="0.662" style="stop-color:#F1F2F2"/>
	<stop  offset="0.8519" style="stop-color:#838587"/>
	<stop  offset="0.919" style="stop-color:#E6E7E8"/>
	<stop  offset="1" style="stop-color:#919396"/>
</linearGradient>
<polygon style="fill:url(#SVGID_00000173843840892597360130000014933193961144084383_);" points="65.1,6.9 67,11.1 68.1,62.1 
	66.4,66.3 "/>
<linearGradient id="SVGID_00000176017206412840101200000011176953900359413661_" gradientUnits="userSpaceOnUse" x1="-10546.6523" y1="17.0311" x2="-10546.6523" y2="72.0515" gradientTransform="matrix(-0.9993 -3.650000e-02 -3.930000e-02 1.0773 -10469.2529 -387.8375)">
	<stop  offset="6.980000e-02" style="stop-color:#6D6E71"/>
	<stop  offset="0.1536" style="stop-color:#939598"/>
	<stop  offset="0.2151" style="stop-color:#6D6E71"/>
	<stop  offset="0.3883" style="stop-color:#6D6E71"/>
	<stop  offset="0.4832" style="stop-color:#939598"/>
	<stop  offset="0.6844" style="stop-color:#BCBEC0"/>
	<stop  offset="0.7458" style="stop-color:#808285"/>
	<stop  offset="0.8073" style="stop-color:#B4B4B4"/>
	<stop  offset="0.9134" style="stop-color:#6D6E71"/>
	<stop  offset="1" style="stop-color:#939598"/>
</linearGradient>
<path style="fill:url(#SVGID_00000176017206412840101200000011176953900359413661_);" d="M68.7,6.9L70,66.3L68.1,62
	c-0.4-17-0.7-33.9-1.1-50.9C67.6,9.7,68.1,8.3,68.7,6.9z"/>
<linearGradient id="SVGID_00000152954820222369577850000012135163516532906926_" gradientUnits="userSpaceOnUse" x1="60.161" y1="825.0246" x2="60.161" y2="770.3231" gradientTransform="matrix(0.9993 3.650000e-02 -3.600000e-02 0.9851 24.6178 -751.2263)">
	<stop  offset="0" style="stop-color:#808285"/>
	<stop  offset="0.1313" style="stop-color:#4D4E50"/>
	<stop  offset="0.2039" style="stop-color:#424244"/>
	<stop  offset="0.338" style="stop-color:#808285"/>
	<stop  offset="0.4162" style="stop-color:#D1D3D4"/>
	<stop  offset="0.5168" style="stop-color:#A7A9AC"/>
	<stop  offset="0.662" style="stop-color:#F1F2F2"/>
	<stop  offset="0.8519" style="stop-color:#838587"/>
	<stop  offset="0.919" style="stop-color:#E6E7E8"/>
	<stop  offset="1" style="stop-color:#919396"/>
</linearGradient>
<path style="fill:url(#SVGID_00000152954820222369577850000012135163516532906926_);" d="M55,9.8c0.4,0.4,0.7,0.8,1.1,1.2
	c0.3,17,0.7,34.1,1,51.1c-0.7,0.5-1.4,1.1-2.1,1.6C55,45.7,55,27.8,55,9.8z"/>
<linearGradient id="SVGID_00000008835309620222280860000005010235679704032170_" gradientUnits="userSpaceOnUse" x1="84.6698" y1="823.0047" x2="84.6698" y2="764.9109" gradientTransform="matrix(0.9993 3.650000e-02 -3.710000e-02 1.0163 25.4239 -773.4829)">
	<stop  offset="0" style="stop-color:#808285"/>
	<stop  offset="0.1313" style="stop-color:#4D4E50"/>
	<stop  offset="0.2039" style="stop-color:#424244"/>
	<stop  offset="0.338" style="stop-color:#808285"/>
	<stop  offset="0.4162" style="stop-color:#D1D3D4"/>
	<stop  offset="0.5168" style="stop-color:#A7A9AC"/>
	<stop  offset="0.662" style="stop-color:#F1F2F2"/>
	<stop  offset="0.8519" style="stop-color:#838587"/>
	<stop  offset="0.919" style="stop-color:#E6E7E8"/>
	<stop  offset="1" style="stop-color:#919396"/>
</linearGradient>
<path style="fill:url(#SVGID_00000008835309620222280860000005010235679704032170_);" d="M79.5,6.9c0.8,1.5,1.6,3.1,2.3,4.6
	c0,16.9,0,33.8,0,50.7c-0.4,1.3-0.7,2.6-1.1,3.8C80.4,46.4,80,26.6,79.5,6.9z"/>
<linearGradient id="SVGID_00000051358917783195560260000017403458859700591272_" gradientUnits="userSpaceOnUse" x1="-10557.4434" y1="16.6292" x2="-10557.4434" y2="71.4642" gradientTransform="matrix(-0.9993 -3.650000e-02 -3.930000e-02 1.0773 -10469.2529 -387.8375)">
	<stop  offset="6.980000e-02" style="stop-color:#6D6E71"/>
	<stop  offset="0.1536" style="stop-color:#939598"/>
	<stop  offset="0.2151" style="stop-color:#6D6E71"/>
	<stop  offset="0.3883" style="stop-color:#6D6E71"/>
	<stop  offset="0.4832" style="stop-color:#939598"/>
	<stop  offset="0.6844" style="stop-color:#BCBEC0"/>
	<stop  offset="0.7458" style="stop-color:#808285"/>
	<stop  offset="0.8073" style="stop-color:#B4B4B4"/>
	<stop  offset="0.9134" style="stop-color:#6D6E71"/>
	<stop  offset="1" style="stop-color:#939598"/>
</linearGradient>
<path style="fill:url(#SVGID_00000051358917783195560260000017403458859700591272_);" d="M79.5,6.9c0.4,19.7,0.9,39.4,1.3,59.2
	c-0.6-1.3-1.3-2.7-1.9-4c-0.4-17-0.7-33.9-1.1-50.9C78.4,9.7,79,8.3,79.5,6.9z"/>
<linearGradient id="SVGID_00000159457670160288709290000011272190171049909146_" gradientUnits="userSpaceOnUse" x1="52.6" y1="98.2" x2="52.6" y2="152.2" gradientTransform="matrix(1 0 0 -1 0 162)">
	<stop  offset="0" style="stop-color:#999898"/>
	<stop  offset="0.1963" style="stop-color:#4F4F4F"/>
	<stop  offset="0.2507" style="stop-color:#5B5B5B"/>
	<stop  offset="0.3499" style="stop-color:#7C7C7C"/>
	<stop  offset="0.3704" style="stop-color:#848484"/>
	<stop  offset="0.433" style="stop-color:#878787"/>
	<stop  offset="0.5974" style="stop-color:#D9D9D9"/>
	<stop  offset="0.6843" style="stop-color:#FFFFFF"/>
	<stop  offset="0.9078" style="stop-color:#B7B7B7"/>
	<stop  offset="1" style="stop-color:#C6C6C6"/>
</linearGradient>
<rect x="50.3" y="9.8" style="fill:url(#SVGID_00000159457670160288709290000011272190171049909146_);" width="4.6" height="54"/>
<linearGradient id="SVGID_00000020396373172096344550000015469699098968659096_" gradientUnits="userSpaceOnUse" x1="-744.6424" y1="530.3837" x2="-741.2039" y2="530.3837" gradientTransform="matrix(-1 0 0 -1 -690.8593 567.0337)">
	<stop  offset="0" style="stop-color:#000000;stop-opacity:0"/>
	<stop  offset="0.3429" style="stop-color:#0A0A0A;stop-opacity:0.3341"/>
	<stop  offset="0.9264" style="stop-color:#252525;stop-opacity:0.9026"/>
	<stop  offset="1" style="stop-color:#292929;stop-opacity:0.9744"/>
</linearGradient>
<polygon style="opacity:0.28;fill:url(#SVGID_00000020396373172096344550000015469699098968659096_);enable-background:new    ;" points="
	50.3,63.5 53.8,63.5 53.8,9.8 50.3,9.8 "/>
<linearGradient id="SVGID_00000075873439724756748410000005733542670938193318_" gradientUnits="userSpaceOnUse" x1="49.0654" y1="124.6" x2="51.3583" y2="124.6" gradientTransform="matrix(1 0 0 -1 0 162)">
	<stop  offset="0" style="stop-color:#282828"/>
	<stop  offset="0.4022" style="stop-color:#3D3D3D;stop-opacity:0.9744"/>
	<stop  offset="0.7211" style="stop-color:#363636;stop-opacity:0.9744"/>
	<stop  offset="1" style="stop-color:#2B2B2B;stop-opacity:0.9744"/>
</linearGradient>
<rect x="49.1" y="4.7" style="fill:url(#SVGID_00000075873439724756748410000005733542670938193318_);" width="2.3" height="65.4"/>
<linearGradient id="SVGID_00000170260862026296286820000015334662554641538994_" gradientUnits="userSpaceOnUse" x1="-10550.2725" y1="17.3025" x2="-10550.2725" y2="72.8398" gradientTransform="matrix(-0.9993 -3.650000e-02 -3.900000e-02 1.0686 -10469.21 -388.1878)">
	<stop  offset="6.980000e-02" style="stop-color:#6D6E71"/>
	<stop  offset="0.1536" style="stop-color:#939598"/>
	<stop  offset="0.2151" style="stop-color:#6D6E71"/>
	<stop  offset="0.3883" style="stop-color:#6D6E71"/>
	<stop  offset="0.4832" style="stop-color:#939598"/>
	<stop  offset="0.6844" style="stop-color:#BCBEC0"/>
	<stop  offset="0.7458" style="stop-color:#808285"/>
	<stop  offset="0.8073" style="stop-color:#B4B4B4"/>
	<stop  offset="0.9134" style="stop-color:#6D6E71"/>
	<stop  offset="1" style="stop-color:#939598"/>
</linearGradient>
<path style="fill:url(#SVGID_00000170260862026296286820000015334662554641538994_);" d="M72.3,6.9l1.3,59.4
	c-0.6-1.4-1.2-2.9-1.8-4.3c-0.4-16.9-0.8-33.9-1.1-50.8C71.2,9.8,71.7,8.3,72.3,6.9z"/>
<linearGradient id="SVGID_00000021099033598230039900000003397650082435127981_" gradientUnits="userSpaceOnUse" x1="81.4182" y1="823.3553" x2="81.4182" y2="765.0325" gradientTransform="matrix(0.9993 3.650000e-02 -3.710000e-02 1.0163 25.4239 -773.4829)">
	<stop  offset="0" style="stop-color:#808285"/>
	<stop  offset="0.1313" style="stop-color:#4D4E50"/>
	<stop  offset="0.2039" style="stop-color:#424244"/>
	<stop  offset="0.338" style="stop-color:#808285"/>
	<stop  offset="0.4162" style="stop-color:#D1D3D4"/>
	<stop  offset="0.5168" style="stop-color:#A7A9AC"/>
	<stop  offset="0.662" style="stop-color:#F1F2F2"/>
	<stop  offset="0.8519" style="stop-color:#838587"/>
	<stop  offset="0.919" style="stop-color:#E6E7E8"/>
	<stop  offset="1" style="stop-color:#919396"/>
</linearGradient>
<polygon style="fill:url(#SVGID_00000021099033598230039900000003397650082435127981_);" points="75.9,6.9 77.8,11.2 78.9,62 
	77.2,66.3 "/>
<linearGradient id="SVGID_00000094597593849096021410000007150536267854343552_" gradientUnits="userSpaceOnUse" x1="77.8219" y1="824.3713" x2="77.8219" y2="765.5018" gradientTransform="matrix(0.9993 3.650000e-02 -3.680000e-02 1.0081 25.2098 -767.6206)">
	<stop  offset="0" style="stop-color:#808285"/>
	<stop  offset="0.1313" style="stop-color:#4D4E50"/>
	<stop  offset="0.2039" style="stop-color:#424244"/>
	<stop  offset="0.338" style="stop-color:#808285"/>
	<stop  offset="0.4162" style="stop-color:#D1D3D4"/>
	<stop  offset="0.5168" style="stop-color:#A7A9AC"/>
	<stop  offset="0.662" style="stop-color:#F1F2F2"/>
	<stop  offset="0.8519" style="stop-color:#838587"/>
	<stop  offset="0.919" style="stop-color:#E6E7E8"/>
	<stop  offset="1" style="stop-color:#919396"/>
</linearGradient>
<polygon style="fill:url(#SVGID_00000094597593849096021410000007150536267854343552_);" points="72.3,6.9 74.2,11.1 75.3,62.1 
	73.5,66.3 "/>
<linearGradient id="SVGID_00000081609371367576538030000002237005671544717716_" gradientUnits="userSpaceOnUse" x1="-10553.8477" y1="16.7782" x2="-10553.8477" y2="71.7986" gradientTransform="matrix(-0.9993 -3.650000e-02 -3.930000e-02 1.0773 -10469.2529 -387.8375)">
	<stop  offset="6.980000e-02" style="stop-color:#6D6E71"/>
	<stop  offset="0.1536" style="stop-color:#939598"/>
	<stop  offset="0.2151" style="stop-color:#6D6E71"/>
	<stop  offset="0.3883" style="stop-color:#6D6E71"/>
	<stop  offset="0.4832" style="stop-color:#939598"/>
	<stop  offset="0.6844" style="stop-color:#BCBEC0"/>
	<stop  offset="0.7458" style="stop-color:#808285"/>
	<stop  offset="0.8073" style="stop-color:#B4B4B4"/>
	<stop  offset="0.9134" style="stop-color:#6D6E71"/>
	<stop  offset="1" style="stop-color:#939598"/>
</linearGradient>
<path style="fill:url(#SVGID_00000081609371367576538030000002237005671544717716_);" d="M75.9,6.9l1.3,59.4L75.3,62
	c-0.4-17-0.7-33.9-1.1-50.9C74.7,9.7,75.3,8.3,75.9,6.9z"/>
<linearGradient id="SVGID_00000116922689546972523640000002324064862551651743_" gradientUnits="userSpaceOnUse" x1="68.1" y1="153.1" x2="68.1" y2="153.1" gradientTransform="matrix(1 0 0 -1 0 162)">
	<stop  offset="6.980000e-02" style="stop-color:#6D6E71"/>
	<stop  offset="0.1536" style="stop-color:#939598"/>
	<stop  offset="0.2151" style="stop-color:#6D6E71"/>
	<stop  offset="0.3883" style="stop-color:#6D6E71"/>
	<stop  offset="0.4832" style="stop-color:#939598"/>
	<stop  offset="0.6844" style="stop-color:#BCBEC0"/>
	<stop  offset="0.7458" style="stop-color:#808285"/>
	<stop  offset="0.8073" style="stop-color:#B4B4B4"/>
	<stop  offset="0.9134" style="stop-color:#6D6E71"/>
	<stop  offset="1" style="stop-color:#939598"/>
</linearGradient>
<path style="fill:url(#SVGID_00000116922689546972523640000002324064862551651743_);" d="M68.1,8.9"/>
<linearGradient id="SVGID_00000119797050731009955140000001382694071464251019_" gradientUnits="userSpaceOnUse" x1="33.95" y1="88.2" x2="33.95" y2="161.1" gradientTransform="matrix(1 0 0 -1 0 162)">
	<stop  offset="0" style="stop-color:#848383"/>
	<stop  offset="0.1424" style="stop-color:#707070"/>
	<stop  offset="0.2023" style="stop-color:#646464"/>
	<stop  offset="0.269" style="stop-color:#5B5B5B"/>
	<stop  offset="0.3079" style="stop-color:#676767"/>
	<stop  offset="0.3704" style="stop-color:#848484"/>
	<stop  offset="0.433" style="stop-color:#878787"/>
	<stop  offset="0.5974" style="stop-color:#D9D9D9"/>
	<stop  offset="0.6843" style="stop-color:#FFFFFF"/>
	<stop  offset="0.9078" style="stop-color:#B7B7B7"/>
	<stop  offset="1" style="stop-color:#C6C6C6"/>
</linearGradient>
<rect x="18.1" y="0.9" style="fill:url(#SVGID_00000119797050731009955140000001382694071464251019_);" width="31.7" height="72.9"/>
<linearGradient id="SVGID_00000084514641864277347410000014384810799254724029_" gradientUnits="userSpaceOnUse" x1="18.75" y1="21.6497" x2="18.75" y2="56.8318" gradientTransform="matrix(1 0 0 -1 0 162)">
	<stop  offset="0" style="stop-color:#424242"/>
	<stop  offset="0.1068" style="stop-color:#333333"/>
	<stop  offset="0.2055" style="stop-color:#2D2D2D"/>
	<stop  offset="0.3492" style="stop-color:#424244"/>
	<stop  offset="0.6732" style="stop-color:#7F7F7F"/>
	<stop  offset="0.9078" style="stop-color:#414042"/>
</linearGradient>
<path style="fill:url(#SVGID_00000084514641864277347410000014384810799254724029_);" d="M18.1,105.2c0,2.6,0,5.3,0,7.9
	c0,3.1,0,6.3,0,9.4c0,0.2,0,0.3,0,0.5c0,2.5,0,4.9,0,7.4c0,3.3,0,6.6,0,9.9c0.4-0.4,0.9-0.8,1.3-1.2c0-3.3,0-6.6,0-9.9
	c0-1.7,0-3.5,0-5.2c0-0.9,0-1.8,0-2.7c0-2.4,0-4.8,0-7.3c0-2.6,0-5.3,0-7.9C19,105.8,18.5,105.5,18.1,105.2z"/>
<linearGradient id="SVGID_00000103973457777983363160000018041590939190411139_" gradientUnits="userSpaceOnUse" x1="18.1103" y1="39.25" x2="19.4144" y2="39.25" gradientTransform="matrix(1 0 0 -1 0 162)">
	<stop  offset="0" style="stop-color:#000000;stop-opacity:0"/>
	<stop  offset="0.3429" style="stop-color:#0A0A0A;stop-opacity:0.3341"/>
	<stop  offset="0.9264" style="stop-color:#252525;stop-opacity:0.9026"/>
	<stop  offset="1" style="stop-color:#292929;stop-opacity:0.9744"/>
</linearGradient>
<path style="opacity:0.4;fill:url(#SVGID_00000103973457777983363160000018041590939190411139_);enable-background:new    ;" d="
	M18.1,105.2c0,2.6,0,5.3,0,7.9c0,3.1,0,6.3,0,9.4c0,0.2,0,0.3,0,0.5c0,2.5,0,4.9,0,7.4c0,3.3,0,6.6,0,9.9c0.4-0.4,0.9-0.8,1.3-1.2
	c0-3.3,0-6.6,0-9.9c0-1.7,0-3.5,0-5.2c0-0.9,0-1.8,0-2.7c0-2.4,0-4.8,0-7.3c0-2.6,0-5.3,0-7.9C19,105.8,18.5,105.5,18.1,105.2z"/>
<linearGradient id="SVGID_00000023251005594557858510000012384092677868448655_" gradientUnits="userSpaceOnUse" x1="32.45" y1="22.8416" x2="32.45" y2="33.8416" gradientTransform="matrix(1 0 0 -1 0 162)">
	<stop  offset="4.382693e-03" style="stop-color:#2D2D2D"/>
	<stop  offset="1" style="stop-color:#414042"/>
</linearGradient>
<rect x="19.4" y="128.2" style="fill:url(#SVGID_00000023251005594557858510000012384092677868448655_);" width="26.1" height="11"/>
<linearGradient id="SVGID_00000003783460159615435310000013354012002013984925_" gradientUnits="userSpaceOnUse" x1="32.45" y1="33.8391" x2="32.45" y2="44.8391" gradientTransform="matrix(1 0 0 -1 0 162)">
	<stop  offset="0" style="stop-color:#383838"/>
	<stop  offset="1" style="stop-color:#5E5E5E"/>
</linearGradient>
<rect x="19.4" y="117.2" style="fill:url(#SVGID_00000003783460159615435310000013354012002013984925_);" width="26.1" height="11"/>
<linearGradient id="SVGID_00000116927359603413234060000014383455987185096110_" gradientUnits="userSpaceOnUse" x1="32.45" y1="44.8367" x2="32.45" y2="55.8367" gradientTransform="matrix(1 0 0 -1 0 162)">
	<stop  offset="0" style="stop-color:#545454"/>
	<stop  offset="1" style="stop-color:#777777"/>
</linearGradient>
<rect x="19.4" y="106.2" style="fill:url(#SVGID_00000116927359603413234060000014383455987185096110_);" width="26.1" height="11"/>
<linearGradient id="SVGID_00000019663974299452574050000000158927380262248637_" gradientUnits="userSpaceOnUse" x1="53.15" y1="26.5905" x2="53.15" y2="52.1928" gradientTransform="matrix(1 0 0 -1 0 162)">
	<stop  offset="0" style="stop-color:#424242"/>
	<stop  offset="0.2055" style="stop-color:#2D2D2D"/>
	<stop  offset="0.648" style="stop-color:#6B6B6B"/>
	<stop  offset="1" style="stop-color:#484749"/>
</linearGradient>
<path style="fill:url(#SVGID_00000019663974299452574050000000158927380262248637_);" d="M57.6,122.6L57.6,122.6L57.6,122.6
	l-8.9-12.8v12.7l0,0v12.8C51.7,131.2,54.6,126.9,57.6,122.6L57.6,122.6L57.6,122.6z"/>
<linearGradient id="SVGID_00000059278808452752552930000013944228376863245449_" gradientUnits="userSpaceOnUse" x1="47.1" y1="26.6" x2="47.1" y2="52.1738" gradientTransform="matrix(1 0 0 -1 0 162)">
	<stop  offset="0" style="stop-color:#303030"/>
	<stop  offset="0.2055" style="stop-color:#191919"/>
	<stop  offset="0.3492" style="stop-color:#333333"/>
	<stop  offset="0.6732" style="stop-color:#3A3A3A"/>
	<stop  offset="0.9078" style="stop-color:#2D2D2D"/>
</linearGradient>
<polygon style="fill:url(#SVGID_00000059278808452752552930000013944228376863245449_);" points="45.5,109.8 45.5,116.2 45.5,122.6 
	45.5,122.6 45.5,129 45.5,135.4 48.7,135.4 48.7,129 48.7,122.6 48.7,122.6 48.7,116.2 48.7,109.8 "/>
<linearGradient id="SVGID_00000047035384461006247680000015031978953070110089_" gradientUnits="userSpaceOnUse" x1="-739.0298" y1="444.4337" x2="-736.3051" y2="444.4337" gradientTransform="matrix(-1 0 0 -1 -690.8593 567.0337)">
	<stop  offset="0" style="stop-color:#000000;stop-opacity:0"/>
	<stop  offset="0.3429" style="stop-color:#0A0A0A;stop-opacity:0.3341"/>
	<stop  offset="0.9264" style="stop-color:#252525;stop-opacity:0.9026"/>
	<stop  offset="1" style="stop-color:#292929;stop-opacity:0.9744"/>
</linearGradient>
<polygon style="opacity:0.5;fill:url(#SVGID_00000047035384461006247680000015031978953070110089_);enable-background:new    ;" points="
	45.4,135.4 48.2,135.4 48.2,109.8 45.4,109.8 "/>
<linearGradient id="SVGID_00000081642447189004762400000009952201601718891920_" gradientUnits="userSpaceOnUse" x1="-472.0787" y1="862.5438" x2="-470.2287" y2="862.5438" gradientTransform="matrix(1 0 0 1 519.0279 -739.9438)">
	<stop  offset="0" style="stop-color:#000000;stop-opacity:0"/>
	<stop  offset="0.3429" style="stop-color:#0A0A0A;stop-opacity:0.3341"/>
	<stop  offset="0.9264" style="stop-color:#252525;stop-opacity:0.9026"/>
	<stop  offset="1" style="stop-color:#292929;stop-opacity:0.9744"/>
</linearGradient>
<rect x="46.9" y="109.8" style="opacity:0.5;fill:url(#SVGID_00000081642447189004762400000009952201601718891920_);enable-background:new    ;" width="1.8" height="25.6"/>
<linearGradient id="SVGID_00000074434807058846881540000000308672631330751619_" gradientUnits="userSpaceOnUse" x1="48.654" y1="69.45" x2="51.2368" y2="69.45" gradientTransform="matrix(1 0 0 -1 0 162)">
	<stop  offset="0" style="stop-color:#282828"/>
	<stop  offset="0.4022" style="stop-color:#3D3D3D;stop-opacity:0.9744"/>
	<stop  offset="0.7211" style="stop-color:#363636;stop-opacity:0.9744"/>
	<stop  offset="1" style="stop-color:#2B2B2B;stop-opacity:0.9744"/>
</linearGradient>
<rect x="48.7" y="90" style="fill:url(#SVGID_00000074434807058846881540000000308672631330751619_);" width="2.6" height="5.1"/>
<linearGradient id="SVGID_00000004540104200898372730000017538144195160171694_" gradientUnits="userSpaceOnUse" x1="48.63" y1="9.45" x2="51.2128" y2="9.45" gradientTransform="matrix(1 0 0 -1 0 162)">
	<stop  offset="0" style="stop-color:#282828"/>
	<stop  offset="0.4022" style="stop-color:#3D3D3D;stop-opacity:0.9744"/>
	<stop  offset="0.7211" style="stop-color:#363636;stop-opacity:0.9744"/>
	<stop  offset="1" style="stop-color:#2B2B2B;stop-opacity:0.9744"/>
</linearGradient>
<rect x="48.6" y="150" style="fill:url(#SVGID_00000004540104200898372730000017538144195160171694_);" width="2.6" height="5.1"/>
<path class="st32" d="M79.5,92.1c-0.6,1.4-1.2,2.8-1.8,4.2L75.8,92c-0.6,1.4-1.2,2.8-1.8,4.2l0,0L72.1,92c-0.5,1.4-1.1,2.9-1.6,4.3
	l0,0L68.6,92c-0.6,1.4-1.2,2.8-1.8,4.2l0,0L64.9,92c-0.5,1.4-1.1,2.9-1.6,4.3l-1.9-4.2c-0.6,1.4-1.2,2.7-1.7,4.1
	c-0.6-1.4-1.3-2.8-1.9-4.2c-0.6,1.4-1.2,2.7-1.8,4.1c-0.4-0.4-0.7-0.8-1.1-1.2h-1.2h-2.4v-5.1h-1.5V86H18.1v72.9h31.7v-3.8h1.5V150
	h2.1l1.4-1.2H55v-0.1l0.2-0.2l0,0c0.6-0.5,1.2-1,1.8-1.4c0.7,1.4,1.4,2.9,2.1,4.3l0,0l0,0l0,0l1.6-4.2l0,0l1.9,4.2l0,0l0,0
	c0.6-1.4,1.2-2.8,1.8-4.2v-0.1l0,0c0.6,1.4,1.3,2.8,1.9,4.3l1.8-4.2l0,0l0,0l1.9,4.3l1.8-4.3c0.6,1.4,1.2,2.9,1.8,4.3l1.8-4.2l0,0
	l0,0l1.9,4.3l1.7-4.3l0,0c0.6,1.3,1.3,2.7,1.9,4c0.4-1.3,0.7-2.6,1.1-3.8c0-16.9,0-33.8,0-50.7C81.1,95.2,80.3,93.6,79.5,92.1z
	 M62.6,147.3L62.6,147.3L62.6,147.3L62.6,147.3z"/>
<image style="overflow:visible;" width="200" height="200" xlink:href="../../pepsi.png"  transform="matrix(0.1145 0 0 0.1145 22.5 25.95)">
</image>
</svg>
