<?xml version="1.0" encoding="utf-8"?>
<!-- Generator: Adobe Illustrator 25.4.1, SVG Export Plug-In . SVG Version: 6.00 Build 0)  -->
<svg version="1.1" id="Слой_1" xmlns="http://www.w3.org/2000/svg" xmlns:xlink="http://www.w3.org/1999/xlink" x="0px" y="0px"
	 viewBox="0 0 100 160" style="enable-background:new 0 0 100 160;" xml:space="preserve">
<style type="text/css">
	.st0{fill:url(#SVGID_1_);}
	.st1{fill:url(#SVGID_00000163787053918227872750000000668831836585411221_);}
	.st2{fill:url(#SVGID_00000164500185163007528110000013271853128245782444_);}
	.st3{fill:url(#SVGID_00000076561860698691448460000010253926439662532009_);}
	.st4{fill:url(#SVGID_00000106119628953715552940000005652074095110729137_);}
	.st5{fill:url(#SVGID_00000085216286782684844130000010684869707218628250_);}
	.st6{fill:url(#SVGID_00000177466676057572846330000000473974075908237498_);}
	.st7{fill:url(#SVGID_00000010306472383510951490000008154481213221312428_);}
	.st8{fill:url(#SVGID_00000134955651850533047410000016125044497478059163_);}
	.st9{fill:url(#SVGID_00000021084362202486659990000011629794892881032844_);}
	.st10{fill:url(#SVGID_00000075855523297934002620000001274354513281436801_);}
	.st11{fill:url(#SVGID_00000047764751044659205000000011706454898922221452_);}
	.st12{fill:url(#SVGID_00000106117575944065889920000004019213806100610713_);}
	.st13{fill:url(#SVGID_00000125589210032245075440000009024530979245022120_);}
	.st14{fill:url(#SVGID_00000058578345531480682910000017990861348534320260_);}
	.st15{fill:url(#SVGID_00000108310526028733619870000008214246331039021464_);}
	.st16{fill:url(#SVGID_00000016781061211917283690000001327135369865421745_);}
	.st17{fill:url(#SVGID_00000127753514244547109000000000876741284016402307_);}
	.st18{opacity:0.35;fill:url(#SVGID_00000139286171773943261330000001516774199260826275_);enable-background:new    ;}
	.st19{opacity:0.67;fill:url(#SVGID_00000023242974537997377530000013525821453809282192_);enable-background:new    ;}
	.st20{fill:url(#SVGID_00000170958279723669918570000012764893578153502613_);}
	.st21{fill:url(#SVGID_00000004522474393415222670000016962641590308154248_);}
	.st22{fill:url(#SVGID_00000078750607977764861340000003561906187267444397_);}
	.st23{fill:url(#SVGID_00000116209993251151603840000011648892561277158061_);}
	.st24{opacity:0.67;fill:url(#SVGID_00000034783926384168298860000001810687148687139741_);enable-background:new    ;}
	.st25{fill:url(#SVGID_00000008135395980809163960000010029073262819480508_);}
	.st26{fill:url(#SVGID_00000180366535028105760120000012813715134011935669_);}
	.st27{fill:none;}
	.st28{fill:url(#SVGID_00000095313131408875302110000004671458190230489997_);}
	.st29{fill:url(#SVGID_00000072991083241362794550000018351465580182290863_);}
	.st30{fill:url(#SVGID_00000008833356181625241490000002359192533325756801_);}
	.st31{fill:url(#SVGID_00000087386159052283392310000012593859903227033785_);}
	.st32{opacity:0.24;fill:url(#SVGID_00000021087513645305212850000002871772679236753324_);enable-background:new    ;}
	.st33{fill:url(#SVGID_00000150786240039685067800000015432525351954965679_);}
	.st34{fill:url(#SVGID_00000041995450014451073460000013255009423976922032_);}
	.st35{fill:url(#SVGID_00000139993887060709340360000004397648183427210133_);}
	.st36{fill:url(#SVGID_00000011019948301299263660000005154165543050517943_);}
	.st37{fill:url(#SVGID_00000060731012641577113320000008625155917220743298_);}
	.st38{fill:url(#SVGID_00000034800211965812805770000001608831576911257494_);}
	.st39{fill:url(#SVGID_00000072266157504868640930000012636896228975102341_);}
	.st40{fill:url(#SVGID_00000178904795825307828480000004266777148991162805_);}
	.st41{fill:url(#SVGID_00000056386902212530520720000018105550097319578765_);}
	.st42{fill:url(#SVGID_00000044877246427863494160000001853758521252005016_);}
	.st43{fill:url(#SVGID_00000002357285991637579390000006477919302884190341_);}
	.st44{fill:url(#SVGID_00000026157207222169763760000015049679028705356180_);}
	.st45{fill:url(#SVGID_00000073714867576835429230000008832551408545049012_);}
	.st46{fill:url(#SVGID_00000180366579154231541160000006454784219546939826_);}
	.st47{fill:url(#SVGID_00000028302070063901855520000010584123894085755325_);}
</style>
<linearGradient id="SVGID_1_" gradientUnits="userSpaceOnUse" x1="34.15" y1="1311.5859" x2="34.15" y2="1284.986" gradientTransform="matrix(1 0 0 1 0 -1257.3229)">
	<stop  offset="0" style="stop-color:#6D6D6D"/>
	<stop  offset="0.1983" style="stop-color:#3D3D3D"/>
	<stop  offset="0.2933" style="stop-color:#474747"/>
	<stop  offset="0.433" style="stop-color:#5E5E5E"/>
	<stop  offset="0.6732" style="stop-color:#999999"/>
	<stop  offset="0.9078" style="stop-color:#878787"/>
	<stop  offset="1" style="stop-color:#919191"/>
</linearGradient>
<rect x="31.3" y="27.6" class="st0" width="5.7" height="26.6"/>
<linearGradient id="SVGID_00000055664912721413949180000017567697961423866263_" gradientUnits="userSpaceOnUse" x1="36.2563" y1="1298.3229" x2="53.4784" y2="1298.3229" gradientTransform="matrix(1 0 0 1 0 -1257.3229)">
	<stop  offset="0" style="stop-color:#6D6D6D"/>
	<stop  offset="0.5308" style="stop-color:#3A3A3A"/>
	<stop  offset="1" style="stop-color:#6D6D6D"/>
</linearGradient>
<path style="fill:url(#SVGID_00000055664912721413949180000017567697961423866263_);" d="M37.4,60c-0.4-0.4-0.8-0.7-1.2-1.1
	c0-11.9,0-23.9,0-35.8c0.3-0.4,0.7-0.7,1-1.1h15.1c0.4,0.4,0.7,0.7,1.1,1.1c0,11.9,0,23.9,0,35.8c-0.4,0.4-0.8,0.7-1.2,1.1
	C47.3,60,42.4,60,37.4,60z"/>
<linearGradient id="SVGID_00000088830014779764579560000005134967922902985389_" gradientUnits="userSpaceOnUse" x1="55" y1="1306.4873" x2="55" y2="1290.0465" gradientTransform="matrix(1 0 0 1 0 -1257.3229)">
	<stop  offset="0" style="stop-color:#6D6D6D"/>
	<stop  offset="0.1983" style="stop-color:#3D3D3D"/>
	<stop  offset="0.2933" style="stop-color:#474747"/>
	<stop  offset="0.433" style="stop-color:#5E5E5E"/>
	<stop  offset="0.6732" style="stop-color:#999999"/>
	<stop  offset="0.9078" style="stop-color:#878787"/>
	<stop  offset="1" style="stop-color:#919191"/>
</linearGradient>
<rect x="53.5" y="32.7" style="fill:url(#SVGID_00000088830014779764579560000005134967922902985389_);" width="3" height="16.4"/>
<linearGradient id="SVGID_00000114764577781725308580000010227612907029036716_" gradientUnits="userSpaceOnUse" x1="61.45" y1="1308.1228" x2="61.45" y2="1288.3817" gradientTransform="matrix(1 0 0 1 0 -1257.3229)">
	<stop  offset="0" style="stop-color:#A3A5A8"/>
	<stop  offset="0.1983" style="stop-color:#4D4E50"/>
	<stop  offset="0.2933" style="stop-color:#424244"/>
	<stop  offset="0.433" style="stop-color:#666769"/>
	<stop  offset="0.6732" style="stop-color:#BFBFBF"/>
	<stop  offset="0.9078" style="stop-color:#838587"/>
	<stop  offset="1" style="stop-color:#919396"/>
</linearGradient>
<polygon style="fill:url(#SVGID_00000114764577781725308580000010227612907029036716_);" points="65.1,49.2 57.8,50.8 57.8,31 
	65.1,32.6 "/>
<linearGradient id="SVGID_00000008143342002636009530000010492045053716335232_" gradientUnits="userSpaceOnUse" x1="34.1063" y1="1792.1577" x2="34.1063" y2="1757.3678" gradientTransform="matrix(0.9993 3.650000e-02 -3.640000e-02 0.9977 42.6223 -1731.3964)">
	<stop  offset="0" style="stop-color:#808285"/>
	<stop  offset="0.1313" style="stop-color:#4D4E50"/>
	<stop  offset="0.2039" style="stop-color:#424244"/>
	<stop  offset="0.338" style="stop-color:#808285"/>
	<stop  offset="0.4162" style="stop-color:#D1D3D4"/>
	<stop  offset="0.5168" style="stop-color:#A7A9AC"/>
	<stop  offset="0.662" style="stop-color:#F1F2F2"/>
	<stop  offset="0.8519" style="stop-color:#838587"/>
	<stop  offset="0.919" style="stop-color:#E6E7E8"/>
	<stop  offset="1" style="stop-color:#919396"/>
</linearGradient>
<polygon style="fill:url(#SVGID_00000008143342002636009530000010492045053716335232_);" points="10.7,23.1 12.6,25.6 13.6,55.4 
	11.9,57.9 "/>
<linearGradient id="SVGID_00000078012033587804231140000003700720698563962002_" gradientUnits="userSpaceOnUse" x1="30.4763" y1="1795.1721" x2="30.4763" y2="1760.0765" gradientTransform="matrix(0.9993 3.650000e-02 -3.620000e-02 0.993 42.3993 -1725.7882)">
	<stop  offset="0" style="stop-color:#808285"/>
	<stop  offset="0.1313" style="stop-color:#4D4E50"/>
	<stop  offset="0.2039" style="stop-color:#424244"/>
	<stop  offset="0.338" style="stop-color:#808285"/>
	<stop  offset="0.4162" style="stop-color:#D1D3D4"/>
	<stop  offset="0.5168" style="stop-color:#A7A9AC"/>
	<stop  offset="0.662" style="stop-color:#F1F2F2"/>
	<stop  offset="0.8519" style="stop-color:#838587"/>
	<stop  offset="0.919" style="stop-color:#E6E7E8"/>
	<stop  offset="1" style="stop-color:#919396"/>
</linearGradient>
<polygon style="fill:url(#SVGID_00000078012033587804231140000003700720698563962002_);" points="7.1,23 9,25.5 10,55.5 8.3,57.9 
	"/>
<linearGradient id="SVGID_00000148637120663713882960000015568238337004654472_" gradientUnits="userSpaceOnUse" x1="26.8788" y1="1800.0497" x2="26.8788" y2="1764.7172" gradientTransform="matrix(0.9993 3.650000e-02 -3.600000e-02 0.9851 42.1108 -1716.3257)">
	<stop  offset="0" style="stop-color:#808285"/>
	<stop  offset="0.1313" style="stop-color:#4D4E50"/>
	<stop  offset="0.2039" style="stop-color:#424244"/>
	<stop  offset="0.338" style="stop-color:#808285"/>
	<stop  offset="0.4162" style="stop-color:#D1D3D4"/>
	<stop  offset="0.5168" style="stop-color:#A7A9AC"/>
	<stop  offset="0.662" style="stop-color:#F1F2F2"/>
	<stop  offset="0.8519" style="stop-color:#838587"/>
	<stop  offset="0.919" style="stop-color:#E6E7E8"/>
	<stop  offset="1" style="stop-color:#919396"/>
</linearGradient>
<polygon style="fill:url(#SVGID_00000148637120663713882960000015568238337004654472_);" points="3.3,23 5.2,25.4 6.4,55.5 
	4.6,57.9 "/>
<linearGradient id="SVGID_00000044868250797580973610000013530667451682355603_" gradientUnits="userSpaceOnUse" x1="23.8361" y1="1798.387" x2="23.8361" y2="1767.7286" gradientTransform="matrix(0.9993 3.650000e-02 -3.590000e-02 0.9839 42.0216 -1714.8721)">
	<stop  offset="0" style="stop-color:#808285"/>
	<stop  offset="0.1313" style="stop-color:#4D4E50"/>
	<stop  offset="0.2039" style="stop-color:#424244"/>
	<stop  offset="0.338" style="stop-color:#808285"/>
	<stop  offset="0.4162" style="stop-color:#D1D3D4"/>
	<stop  offset="0.5168" style="stop-color:#A7A9AC"/>
	<stop  offset="0.662" style="stop-color:#F1F2F2"/>
	<stop  offset="0.8519" style="stop-color:#838587"/>
	<stop  offset="0.919" style="stop-color:#E6E7E8"/>
	<stop  offset="1" style="stop-color:#919396"/>
</linearGradient>
<path style="fill:url(#SVGID_00000044868250797580973610000013530667451682355603_);" d="M0.9,26.9c0.3-0.6,0.5-1.1,0.8-1.7l1,30.2
	c-0.6-0.6-1.1-1.2-1.7-1.8C1,44.8,0.9,35.9,0.9,26.9z"/>
<linearGradient id="SVGID_00000061450175926576685970000000489427312371181983_" gradientUnits="userSpaceOnUse" x1="-10346.1602" y1="971.4614" x2="-10346.1602" y2="1004.0331" gradientTransform="matrix(-0.9993 -3.650000e-02 -3.900000e-02 1.0686 -10286.3789 -1387.7423)">
	<stop  offset="6.980000e-02" style="stop-color:#6D6E71"/>
	<stop  offset="0.1536" style="stop-color:#939598"/>
	<stop  offset="0.2151" style="stop-color:#6D6E71"/>
	<stop  offset="0.3883" style="stop-color:#6D6E71"/>
	<stop  offset="0.4832" style="stop-color:#939598"/>
	<stop  offset="0.6844" style="stop-color:#BCBEC0"/>
	<stop  offset="0.7458" style="stop-color:#808285"/>
	<stop  offset="0.8073" style="stop-color:#B4B4B4"/>
	<stop  offset="0.9134" style="stop-color:#6D6E71"/>
	<stop  offset="1" style="stop-color:#939598"/>
</linearGradient>
<path style="fill:url(#SVGID_00000061450175926576685970000000489427312371181983_);" d="M14.3,23l1.3,34.9l-1.9-2.5
	c-0.3-9.9-0.7-19.9-1-29.8C13.2,24.7,13.7,23.9,14.3,23z"/>
<linearGradient id="SVGID_00000062875090447081480300000006689045660956796605_" gradientUnits="userSpaceOnUse" x1="-10342.459" y1="977.0992" x2="-10342.459" y2="1009.9528" gradientTransform="matrix(-0.9993 -3.650000e-02 -3.860000e-02 1.0576 -10286.5557 -1382.8633)">
	<stop  offset="6.980000e-02" style="stop-color:#6D6E71"/>
	<stop  offset="0.1536" style="stop-color:#939598"/>
	<stop  offset="0.2151" style="stop-color:#6D6E71"/>
	<stop  offset="0.3883" style="stop-color:#6D6E71"/>
	<stop  offset="0.4832" style="stop-color:#939598"/>
	<stop  offset="0.6844" style="stop-color:#BCBEC0"/>
	<stop  offset="0.7458" style="stop-color:#808285"/>
	<stop  offset="0.8073" style="stop-color:#B4B4B4"/>
	<stop  offset="0.9134" style="stop-color:#6D6E71"/>
	<stop  offset="1" style="stop-color:#939598"/>
</linearGradient>
<path style="fill:url(#SVGID_00000062875090447081480300000006689045660956796605_);" d="M10.7,23.1l1.2,34.8L10,55.4
	c-0.3-10-0.7-20-1-30C9.6,24.7,10.1,23.9,10.7,23.1z"/>
<linearGradient id="SVGID_00000033357670484790069480000015925463982669587342_" gradientUnits="userSpaceOnUse" x1="-10338.8535" y1="979.6257" x2="-10338.8535" y2="1012.7341" gradientTransform="matrix(-0.9993 -3.650000e-02 -3.840000e-02 1.0526 -10286.6484 -1380.6304)">
	<stop  offset="6.980000e-02" style="stop-color:#6D6E71"/>
	<stop  offset="0.1536" style="stop-color:#939598"/>
	<stop  offset="0.2151" style="stop-color:#6D6E71"/>
	<stop  offset="0.3883" style="stop-color:#6D6E71"/>
	<stop  offset="0.4832" style="stop-color:#939598"/>
	<stop  offset="0.6844" style="stop-color:#BCBEC0"/>
	<stop  offset="0.7458" style="stop-color:#808285"/>
	<stop  offset="0.8073" style="stop-color:#B4B4B4"/>
	<stop  offset="0.9134" style="stop-color:#6D6E71"/>
	<stop  offset="1" style="stop-color:#939598"/>
</linearGradient>
<path style="fill:url(#SVGID_00000033357670484790069480000015925463982669587342_);" d="M7.1,23l1.3,34.9l-1.9-2.5
	c-0.4-10-0.8-20-1.2-30.1C5.8,24.6,6.5,23.8,7.1,23z"/>
<linearGradient id="SVGID_00000062158651338505198840000002937582215436803490_" gradientUnits="userSpaceOnUse" x1="45.1069" y1="1776.7284" x2="45.1069" y2="1742.7612" gradientTransform="matrix(0.9993 3.650000e-02 -3.740000e-02 1.0236 43.7898 -1762.4197)">
	<stop  offset="0" style="stop-color:#808285"/>
	<stop  offset="0.1313" style="stop-color:#4D4E50"/>
	<stop  offset="0.2039" style="stop-color:#424244"/>
	<stop  offset="0.338" style="stop-color:#808285"/>
	<stop  offset="0.4162" style="stop-color:#D1D3D4"/>
	<stop  offset="0.5168" style="stop-color:#A7A9AC"/>
	<stop  offset="0.662" style="stop-color:#F1F2F2"/>
	<stop  offset="0.8519" style="stop-color:#838587"/>
	<stop  offset="0.919" style="stop-color:#E6E7E8"/>
	<stop  offset="1" style="stop-color:#919396"/>
</linearGradient>
<polygon style="fill:url(#SVGID_00000062158651338505198840000002937582215436803490_);" points="21.6,23 23.4,25.5 24.6,55.3 
	22.8,57.9 "/>
<linearGradient id="SVGID_00000083804028753138990400000009483891974476268468_" gradientUnits="userSpaceOnUse" x1="41.3737" y1="1781.0347" x2="41.3737" y2="1746.7867" gradientTransform="matrix(0.9993 3.650000e-02 -3.710000e-02 1.0163 43.4497 -1753.6932)">
	<stop  offset="0" style="stop-color:#808285"/>
	<stop  offset="0.1313" style="stop-color:#4D4E50"/>
	<stop  offset="0.2039" style="stop-color:#424244"/>
	<stop  offset="0.338" style="stop-color:#808285"/>
	<stop  offset="0.4162" style="stop-color:#D1D3D4"/>
	<stop  offset="0.5168" style="stop-color:#A7A9AC"/>
	<stop  offset="0.662" style="stop-color:#F1F2F2"/>
	<stop  offset="0.8519" style="stop-color:#838587"/>
	<stop  offset="0.919" style="stop-color:#E6E7E8"/>
	<stop  offset="1" style="stop-color:#919396"/>
</linearGradient>
<polygon style="fill:url(#SVGID_00000083804028753138990400000009483891974476268468_);" points="17.9,23 19.8,25.5 20.9,55.4 
	19.2,57.9 "/>
<linearGradient id="SVGID_00000107577532351805739000000002993726446290866623_" gradientUnits="userSpaceOnUse" x1="37.7752" y1="1785.9009" x2="37.7752" y2="1751.3708" gradientTransform="matrix(0.9993 3.650000e-02 -3.680000e-02 1.0081 43.0903 -1743.8595)">
	<stop  offset="0" style="stop-color:#808285"/>
	<stop  offset="0.1313" style="stop-color:#4D4E50"/>
	<stop  offset="0.2039" style="stop-color:#424244"/>
	<stop  offset="0.338" style="stop-color:#808285"/>
	<stop  offset="0.4162" style="stop-color:#D1D3D4"/>
	<stop  offset="0.5168" style="stop-color:#A7A9AC"/>
	<stop  offset="0.662" style="stop-color:#F1F2F2"/>
	<stop  offset="0.8519" style="stop-color:#838587"/>
	<stop  offset="0.919" style="stop-color:#E6E7E8"/>
	<stop  offset="1" style="stop-color:#919396"/>
</linearGradient>
<polygon style="fill:url(#SVGID_00000107577532351805739000000002993726446290866623_);" points="14.3,23 16.2,25.5 17.3,55.4 
	15.5,57.9 "/>
<linearGradient id="SVGID_00000096765512017850265350000008223723678607590297_" gradientUnits="userSpaceOnUse" x1="-10356.9492" y1="959.1838" x2="-10356.9492" y2="990.9769" gradientTransform="matrix(-0.9993 -3.650000e-02 -3.990000e-02 1.0936 -10285.9814 -1398.8424)">
	<stop  offset="6.980000e-02" style="stop-color:#6D6E71"/>
	<stop  offset="0.1536" style="stop-color:#939598"/>
	<stop  offset="0.2151" style="stop-color:#6D6E71"/>
	<stop  offset="0.3883" style="stop-color:#6D6E71"/>
	<stop  offset="0.4832" style="stop-color:#939598"/>
	<stop  offset="0.6844" style="stop-color:#BCBEC0"/>
	<stop  offset="0.7458" style="stop-color:#808285"/>
	<stop  offset="0.8073" style="stop-color:#B4B4B4"/>
	<stop  offset="0.9134" style="stop-color:#6D6E71"/>
	<stop  offset="1" style="stop-color:#939598"/>
</linearGradient>
<path style="fill:url(#SVGID_00000096765512017850265350000008223723678607590297_);" d="M25.2,23l1.3,34.9l-1.9-2.6
	c-0.4-9.9-0.8-19.8-1.2-29.7C24,24.7,24.6,23.9,25.2,23z"/>
<linearGradient id="SVGID_00000155117926751413024600000013220347225451857586_" gradientUnits="userSpaceOnUse" x1="-10353.4053" y1="963.2983" x2="-10353.4053" y2="995.3747" gradientTransform="matrix(-0.9993 -3.650000e-02 -3.960000e-02 1.0851 -10286.1123 -1395.0817)">
	<stop  offset="6.980000e-02" style="stop-color:#6D6E71"/>
	<stop  offset="0.1536" style="stop-color:#939598"/>
	<stop  offset="0.2151" style="stop-color:#6D6E71"/>
	<stop  offset="0.3883" style="stop-color:#6D6E71"/>
	<stop  offset="0.4832" style="stop-color:#939598"/>
	<stop  offset="0.6844" style="stop-color:#BCBEC0"/>
	<stop  offset="0.7458" style="stop-color:#808285"/>
	<stop  offset="0.8073" style="stop-color:#B4B4B4"/>
	<stop  offset="0.9134" style="stop-color:#6D6E71"/>
	<stop  offset="1" style="stop-color:#939598"/>
</linearGradient>
<path style="fill:url(#SVGID_00000155117926751413024600000013220347225451857586_);" d="M21.6,23l1.3,34.9L21,55.4
	c-0.4-9.9-0.7-19.9-1.1-29.8C20.4,24.7,21,23.9,21.6,23z"/>
<linearGradient id="SVGID_00000113335916770967758920000005191203855548784531_" gradientUnits="userSpaceOnUse" x1="-10349.7275" y1="967.1161" x2="-10349.7275" y2="999.4248" gradientTransform="matrix(-0.9993 -3.650000e-02 -3.930000e-02 1.0773 -10286.2764 -1391.6055)">
	<stop  offset="6.980000e-02" style="stop-color:#6D6E71"/>
	<stop  offset="0.1536" style="stop-color:#939598"/>
	<stop  offset="0.2151" style="stop-color:#6D6E71"/>
	<stop  offset="0.3883" style="stop-color:#6D6E71"/>
	<stop  offset="0.4832" style="stop-color:#939598"/>
	<stop  offset="0.6844" style="stop-color:#BCBEC0"/>
	<stop  offset="0.7458" style="stop-color:#808285"/>
	<stop  offset="0.8073" style="stop-color:#B4B4B4"/>
	<stop  offset="0.9134" style="stop-color:#6D6E71"/>
	<stop  offset="1" style="stop-color:#939598"/>
</linearGradient>
<path style="fill:url(#SVGID_00000113335916770967758920000005191203855548784531_);" d="M17.9,23l1.3,34.9l-1.9-2.5
	c-0.4-10-0.7-19.9-1.1-29.9C16.7,24.7,17.3,23.8,17.9,23z"/>
<linearGradient id="SVGID_00000092413990046383382860000009935603686485325197_" gradientUnits="userSpaceOnUse" x1="-10335.1416" y1="984.889" x2="-10335.1416" y2="1018.2731" gradientTransform="matrix(-0.9993 -3.650000e-02 -3.800000e-02 1.0426 -10286.834 -1376.1815)">
	<stop  offset="6.980000e-02" style="stop-color:#6D6E71"/>
	<stop  offset="0.1536" style="stop-color:#939598"/>
	<stop  offset="0.2151" style="stop-color:#6D6E71"/>
	<stop  offset="0.3883" style="stop-color:#6D6E71"/>
	<stop  offset="0.4832" style="stop-color:#939598"/>
	<stop  offset="0.6844" style="stop-color:#BCBEC0"/>
	<stop  offset="0.7458" style="stop-color:#808285"/>
	<stop  offset="0.8073" style="stop-color:#B4B4B4"/>
	<stop  offset="0.9134" style="stop-color:#6D6E71"/>
	<stop  offset="1" style="stop-color:#939598"/>
</linearGradient>
<polygon style="fill:url(#SVGID_00000092413990046383382860000009935603686485325197_);" points="3.3,23 4.6,57.9 2.7,55.5 
	1.7,25.2 "/>
<linearGradient id="SVGID_00000009573622318087707090000001174287902577277858_" gradientUnits="userSpaceOnUse" x1="-702.1138" y1="-140.2403" x2="-700.825" y2="-140.2403" gradientTransform="matrix(-0.9997 2.380000e-02 2.380000e-02 0.9997 -665.8368 197.7947)">
	<stop  offset="0" style="stop-color:#FFFFFF"/>
	<stop  offset="3.640000e-02" style="stop-color:#FFFFFF;stop-opacity:0.9636"/>
	<stop  offset="1" style="stop-color:#FFFFFF;stop-opacity:0"/>
</linearGradient>
<polygon style="opacity:0.35;fill:url(#SVGID_00000009573622318087707090000001174287902577277858_);enable-background:new    ;" points="
	31.9,57 33.2,57 32.4,24.8 31.1,24.8 "/>
<linearGradient id="SVGID_00000168113953535519759540000009121306429774451599_" gradientUnits="userSpaceOnUse" x1="-524.0601" y1="-1350.4846" x2="-521.0824" y2="-1350.4846" gradientTransform="matrix(1 0 0 -1 556.3339 -1309.5347)">
	<stop  offset="0" style="stop-color:#3F3B3C"/>
	<stop  offset="0.1413" style="stop-color:#3F3B3C;stop-opacity:0.8587"/>
	<stop  offset="1" style="stop-color:#3F3B3C;stop-opacity:0"/>
</linearGradient>
<polygon style="opacity:0.67;fill:url(#SVGID_00000168113953535519759540000009121306429774451599_);enable-background:new    ;" points="
	35.3,27.6 32.3,27.6 32.3,54.3 35.3,54.3 "/>
<linearGradient id="SVGID_00000047039483005600449940000001233559216511618213_" gradientUnits="userSpaceOnUse" x1="48.7093" y1="1772.0189" x2="48.7093" y2="1738.3184" gradientTransform="matrix(0.9993 3.650000e-02 -3.770000e-02 1.0317 44.1454 -1772.0875)">
	<stop  offset="0" style="stop-color:#808285"/>
	<stop  offset="0.1313" style="stop-color:#4D4E50"/>
	<stop  offset="0.2039" style="stop-color:#424244"/>
	<stop  offset="0.338" style="stop-color:#808285"/>
	<stop  offset="0.4162" style="stop-color:#D1D3D4"/>
	<stop  offset="0.5168" style="stop-color:#A7A9AC"/>
	<stop  offset="0.662" style="stop-color:#F1F2F2"/>
	<stop  offset="0.8519" style="stop-color:#838587"/>
	<stop  offset="0.919" style="stop-color:#E6E7E8"/>
	<stop  offset="1" style="stop-color:#919396"/>
</linearGradient>
<polygon style="fill:url(#SVGID_00000047039483005600449940000001233559216511618213_);" points="25.2,23 27.1,25.6 28.2,55.3 
	26.5,57.9 "/>
<linearGradient id="SVGID_00000065055736871437763990000009217808750065694641_" gradientUnits="userSpaceOnUse" x1="-10360.6992" y1="955.5251" x2="-10360.6992" y2="987.0714" gradientTransform="matrix(-0.9993 -3.650000e-02 -4.020000e-02 1.1013 -10285.8447 -1402.2429)">
	<stop  offset="6.980000e-02" style="stop-color:#6D6E71"/>
	<stop  offset="0.1536" style="stop-color:#939598"/>
	<stop  offset="0.2151" style="stop-color:#6D6E71"/>
	<stop  offset="0.3883" style="stop-color:#6D6E71"/>
	<stop  offset="0.4832" style="stop-color:#939598"/>
	<stop  offset="0.6844" style="stop-color:#BCBEC0"/>
	<stop  offset="0.7458" style="stop-color:#808285"/>
	<stop  offset="0.8073" style="stop-color:#B4B4B4"/>
	<stop  offset="0.9134" style="stop-color:#6D6E71"/>
	<stop  offset="1" style="stop-color:#939598"/>
</linearGradient>
<path style="fill:url(#SVGID_00000065055736871437763990000009217808750065694641_);" d="M28.9,23l1.3,34.8l-1.9-2.6
	c-0.4-9.9-0.8-19.8-1.1-29.7C27.7,24.7,28.3,23.9,28.9,23z"/>
<linearGradient id="SVGID_00000140697464634820003330000000200101989213230753_" gradientUnits="userSpaceOnUse" x1="52.2834" y1="1767.8544" x2="52.2834" y2="1734.423" gradientTransform="matrix(0.9993 3.650000e-02 -3.790000e-02 1.039 44.4215 -1780.825)">
	<stop  offset="0" style="stop-color:#808285"/>
	<stop  offset="0.1313" style="stop-color:#4D4E50"/>
	<stop  offset="0.2039" style="stop-color:#424244"/>
	<stop  offset="0.338" style="stop-color:#808285"/>
	<stop  offset="0.4162" style="stop-color:#D1D3D4"/>
	<stop  offset="0.5168" style="stop-color:#A7A9AC"/>
	<stop  offset="0.662" style="stop-color:#F1F2F2"/>
	<stop  offset="0.8519" style="stop-color:#838587"/>
	<stop  offset="0.919" style="stop-color:#E6E7E8"/>
	<stop  offset="1" style="stop-color:#919396"/>
</linearGradient>
<polygon style="fill:url(#SVGID_00000140697464634820003330000000200101989213230753_);" points="28.9,23 30.8,25.7 31.8,55.3 
	30.1,57.9 "/>
<linearGradient id="SVGID_00000109734501766496464510000008526236762705175429_" gradientUnits="userSpaceOnUse" x1="-1416.269" y1="1322.4045" x2="-1416.269" y2="1292.4082" gradientTransform="matrix(0.9993 3.650000e-02 3.940000e-02 -1.0796 1395.5985 1506.5853)">
	<stop  offset="6.980000e-02" style="stop-color:#6D6E71"/>
	<stop  offset="0.1536" style="stop-color:#939598"/>
	<stop  offset="0.2151" style="stop-color:#6D6E71"/>
	<stop  offset="0.3883" style="stop-color:#6D6E71"/>
	<stop  offset="0.4832" style="stop-color:#939598"/>
	<stop  offset="0.6844" style="stop-color:#BCBEC0"/>
	<stop  offset="0.7458" style="stop-color:#808285"/>
	<stop  offset="0.8073" style="stop-color:#B4B4B4"/>
	<stop  offset="0.9134" style="stop-color:#6D6E71"/>
	<stop  offset="1" style="stop-color:#939598"/>
</linearGradient>
<path style="fill:url(#SVGID_00000109734501766496464510000008526236762705175429_);" d="M33.1,54.8c-0.4,0.2-0.9,0.3-1.3,0.5
	c-0.3-9.9-0.7-19.8-1-29.7c0.5,0.3,1.1,0.6,1.6,0.9C32.6,35.9,32.9,45.4,33.1,54.8z"/>
<linearGradient id="SVGID_00000171706396594017676430000013206298781856830386_" gradientUnits="userSpaceOnUse" x1="-732.7973" y1="-140.3993" x2="-730.9973" y2="-140.3993" gradientTransform="matrix(-1 0 0 1 -676.3339 181.3492)">
	<stop  offset="0" style="stop-color:#3F3B3C"/>
	<stop  offset="0.1413" style="stop-color:#3F3B3C;stop-opacity:0.8587"/>
	<stop  offset="1" style="stop-color:#3F3B3C;stop-opacity:0"/>
</linearGradient>
<polygon style="opacity:0.67;fill:url(#SVGID_00000171706396594017676430000013206298781856830386_);enable-background:new    ;" points="
	54.7,49.2 56.5,49.2 56.5,32.7 54.7,32.7 "/>
<linearGradient id="SVGID_00000071521515233213482020000015632690854422490260_" gradientUnits="userSpaceOnUse" x1="33.5" y1="1313.2228" x2="33.5" y2="1313.2228" gradientTransform="matrix(1 0 0 1 0 -1257.3229)">
	<stop  offset="6.980000e-02" style="stop-color:#6D6E71"/>
	<stop  offset="0.1536" style="stop-color:#939598"/>
	<stop  offset="0.2151" style="stop-color:#6D6E71"/>
	<stop  offset="0.3883" style="stop-color:#6D6E71"/>
	<stop  offset="0.4832" style="stop-color:#939598"/>
	<stop  offset="0.6844" style="stop-color:#BCBEC0"/>
	<stop  offset="0.7458" style="stop-color:#808285"/>
	<stop  offset="0.8073" style="stop-color:#B4B4B4"/>
	<stop  offset="0.9134" style="stop-color:#6D6E71"/>
	<stop  offset="1" style="stop-color:#939598"/>
</linearGradient>
<path style="fill:url(#SVGID_00000071521515233213482020000015632690854422490260_);" d="M33.5,55.9"/>
<linearGradient id="SVGID_00000124159674739841864110000002708129456097375882_" gradientUnits="userSpaceOnUse" x1="57.15" y1="1308.1228" x2="57.15" y2="1288.3683" gradientTransform="matrix(1 0 0 1 0 -1257.3229)">
	<stop  offset="0" style="stop-color:#7F7F7F"/>
	<stop  offset="0.1983" style="stop-color:#606060"/>
	<stop  offset="0.2933" style="stop-color:#545454"/>
	<stop  offset="0.433" style="stop-color:#757575"/>
	<stop  offset="0.6732" style="stop-color:#FFFFFF"/>
	<stop  offset="0.9078" style="stop-color:#9B9B9B"/>
	<stop  offset="1" style="stop-color:#B2B2B2"/>
</linearGradient>
<rect x="56.5" y="31" style="fill:url(#SVGID_00000124159674739841864110000002708129456097375882_);" width="1.3" height="19.8"/>
<path class="st27" d="M92.2,109.2h-1.3v1.6l-7.3-1.6l0,0h-1.3v1.6l-7.3-1.6h-1.3v1.6l-7.3-1.6h-1.3v1.6l-7.3-1.6h-1.3v1.7h-1.8l0,0
	h-1.2c0-2.7,0-5.5,0-8.2c0-0.5,0-1,0-1.5c-0.3-0.3-0.6-0.6-0.8-0.8c-0.1-0.1-0.2-0.2-0.2-0.2l0,0l0,0c-0.5-0.4-1.2-0.7-2.1-0.7
	c-3.3,0-10.8,0-10.8,0s-1.3-0.1-2.2,0.7c-0.1,0.1-0.8,0.9-1,1.1c0,0.5,0,1,0,1.4l0,0c0,1.9,0,2.8,0,3.1h-3.8c0-0.4,0-0.7,0-1.1
	c-0.5-0.3-1.1-0.6-1.6-0.9l-1.9-2.6c-0.6,0.8-1.2,1.7-1.8,2.6c-0.6-0.8-1.3-1.7-1.9-2.6c-0.6,0.8-1.2,1.7-1.9,2.5
	c-0.6-0.8-1.2-1.7-1.8-2.5c-0.6,0.8-1.2,1.7-1.8,2.5c-0.6-0.8-1.3-1.7-1.9-2.5c-0.6,0.8-1.2,1.7-1.8,2.5c-0.6-0.8-1.3-1.7-1.9-2.5
	c-0.5,0.8-1.1,1.7-1.6,2.5c-0.6-0.8-1.3-1.7-1.9-2.5c-0.6,0.8-1.2,1.6-1.7,2.4c-0.6-0.8-1.3-1.6-1.9-2.5c-0.6,0.8-1.2,1.6-1.9,2.4
	l-1.9-2.4l0,0c-0.5,0.7-1.6,2.2-1.6,2.2c-0.2,0.6-0.5,1.1-0.8,1.7c0,8.9,0,17.8,0,26.7c0.6,0.6,3.6,4.2,3.6,4.2l1.9-2.4
	c0,0,1.3,1.6,1.9,2.4l1.6-2.5c0.6,0.8,1.3,1.6,1.9,2.5l1.8-2.5c0.6,0.8,1.3,1.7,1.9,2.5l1.8-2.5l0,0c0.6,0.8,1.3,1.7,1.9,2.5
	l1.8-2.5l0,0c0.6,0.8,1.3,1.7,1.9,2.5l1.8-2.6l0,0c0.6,0.9,1.3,1.7,1.9,2.6l1.8-2.6l0,0l1.9,2.6l1.6-2.6c0.4-0.2,0.9-0.3,1.3-0.5
	c0-0.2,0-0.4,0-0.6h2.2h1c0,3,0,3,0,3l0,0c0,0.5,0,1,0,1.5c0.3,0.3,0.6,0.6,0.9,0.9c0.1,0.1,0.1,0.1,0.2,0.2c0,0,0,0,0.1,0.1l0,0
	c0.5,0.4,1.1,0.7,2.1,0.7c3.3,0,10.7,0,10.7,0s1.2,0,2.1-0.7l0,0c0,0,0.1,0,0.1-0.1c0.1-0.1,0.2-0.2,0.3-0.2
	c0.3-0.3,0.6-0.5,0.8-0.8c0-1.7,0-3.4,0-5c0-1.5,0-3.1,0-4.6H55h1.8v1.6h1.3l0,0l7.3-1.6v1.6h1.3l0,0l7.3-1.6v1.6h1l0,0l7.3-1.6v1.6
	h1.3l7.3-1.6v1.6h1.3l7.3-1.6v-16.5L92.2,109.2z"/>
<g>
	<defs>
		<path id="SVGID_00000058571365020222045180000006217344866717170315_" d="M92.2,109.2h-1.3v1.6l-7.3-1.6l0,0h-1.3v1.6l-7.3-1.6
			h-1.3v1.6l-7.3-1.6h-1.3v1.6l-7.3-1.6h-1.3v1.7h-1.8l0,0h-1.2c0-2.7,0-5.5,0-8.2c0-0.5,0-1,0-1.5c-0.3-0.3-0.6-0.6-0.8-0.8
			c-0.1-0.1-0.2-0.2-0.2-0.2l0,0l0,0c-0.5-0.4-1.2-0.7-2.1-0.7c-3.3,0-10.8,0-10.8,0s-1.3-0.1-2.2,0.7c-0.1,0.1-0.8,0.9-1,1.1
			c0,0.5,0,1,0,1.4l0,0c0,1.9,0,2.8,0,3.1h-3.8c0-0.4,0-0.7,0-1.1c-0.5-0.3-1.1-0.6-1.6-0.9l-1.9-2.6c-0.6,0.8-1.2,1.7-1.8,2.6
			c-0.6-0.8-1.3-1.7-1.9-2.6c-0.6,0.8-1.2,1.7-1.9,2.5c-0.6-0.8-1.2-1.7-1.8-2.5c-0.6,0.8-1.2,1.7-1.8,2.5c-0.6-0.8-1.3-1.7-1.9-2.5
			c-0.6,0.8-1.2,1.7-1.8,2.5c-0.6-0.8-1.3-1.7-1.9-2.5c-0.5,0.8-1.1,1.7-1.6,2.5c-0.6-0.8-1.3-1.7-1.9-2.5c-0.6,0.8-1.2,1.6-1.7,2.4
			c-0.6-0.8-1.3-1.6-1.9-2.5c-0.6,0.8-1.2,1.6-1.9,2.4l-1.9-2.4l0,0c-0.5,0.7-1.6,2.2-1.6,2.2c-0.2,0.6-0.5,1.1-0.8,1.7
			c0,8.9,0,17.8,0,26.7c0.6,0.6,3.6,4.2,3.6,4.2l1.9-2.4c0,0,1.3,1.6,1.9,2.4l1.6-2.5c0.6,0.8,1.3,1.6,1.9,2.5l1.8-2.5
			c0.6,0.8,1.3,1.7,1.9,2.5l1.8-2.5l0,0c0.6,0.8,1.3,1.7,1.9,2.5l1.8-2.5l0,0c0.6,0.8,1.3,1.7,1.9,2.5l1.8-2.6l0,0
			c0.6,0.9,1.3,1.7,1.9,2.6l1.8-2.6l0,0l1.9,2.6l1.6-2.6c0.4-0.2,0.9-0.3,1.3-0.5c0-0.2,0-0.4,0-0.6h2.2h1c0,3,0,3,0,3l0,0
			c0,0.5,0,1,0,1.5c0.3,0.3,0.6,0.6,0.9,0.9c0.1,0.1,0.1,0.1,0.2,0.2c0,0,0,0,0.1,0.1l0,0c0.5,0.4,1.1,0.7,2.1,0.7
			c3.3,0,10.7,0,10.7,0s1.2,0,2.1-0.7l0,0c0,0,0.1,0,0.1-0.1c0.1-0.1,0.2-0.2,0.3-0.2c0.3-0.3,0.6-0.5,0.8-0.8c0-1.7,0-3.4,0-5
			c0-1.5,0-3.1,0-4.6H55h1.8v1.6h1.3l0,0l7.3-1.6v1.6h1.3l0,0l7.3-1.6v1.6h1l0,0l7.3-1.6v1.6h1.3l7.3-1.6v1.6h1.3l7.3-1.6v-16.5
			L92.2,109.2z"/>
	</defs>
	<clipPath id="SVGID_00000124149537830439035710000009593892851845271685_">
		<use xlink:href="#SVGID_00000058571365020222045180000006217344866717170315_"  style="overflow:visible;"/>
	</clipPath>
	<g style="clip-path:url(#SVGID_00000124149537830439035710000009593892851845271685_);">
		
			<image style="overflow:visible;" width="600" height="600" xlink:href="../../background.jpg"  transform="matrix(0.1726 0 0 0.1726 -1.764 37.8622)">
		</image>
	</g>
	
		<use xlink:href="#SVGID_00000058571365020222045180000006217344866717170315_"  style="overflow:visible;fill:none;stroke:#999999;stroke-width:0.75;stroke-miterlimit:10;"/>
</g>
<linearGradient id="SVGID_00000155132350718184739410000017021514545459911078_" gradientUnits="userSpaceOnUse" x1="39.1" y1="1385.0703" x2="39.1" y2="1367.6731" gradientTransform="matrix(1 0 0 1 0 -1257.3229)">
	<stop  offset="0" style="stop-color:#262626"/>
	<stop  offset="0.3541" style="stop-color:#383838"/>
	<stop  offset="0.433" style="stop-color:#595959"/>
	<stop  offset="0.5" style="stop-color:#777777"/>
	<stop  offset="0.6362" style="stop-color:#AAAAAA"/>
	<stop  offset="0.7094" style="stop-color:#656666"/>
	<stop  offset="0.7987" style="stop-color:#3A3A3A"/>
	<stop  offset="1" style="stop-color:#1A1A1A"/>
</linearGradient>
<polygon style="fill:url(#SVGID_00000155132350718184739410000017021514545459911078_);" points="37.7,110.4 37.7,119 37.7,127.7 
	40.5,123.4 40.5,119 40.5,114.7 "/>
<linearGradient id="SVGID_00000015327941042132718240000013137008534021831819_" gradientUnits="userSpaceOnUse" x1="19.25" y1="1385.0703" x2="19.25" y2="1367.6703" gradientTransform="matrix(1 0 0 1 0 -1257.3229)">
	<stop  offset="0" style="stop-color:#4D4E50"/>
	<stop  offset="2.940000e-02" style="stop-color:#454647"/>
	<stop  offset="0.1068" style="stop-color:#333333"/>
	<stop  offset="0.2055" style="stop-color:#363637"/>
	<stop  offset="0.3013" style="stop-color:#414143"/>
	<stop  offset="0.3101" style="stop-color:#424244"/>
	<stop  offset="0.433" style="stop-color:#565656"/>
	<stop  offset="0.5" style="stop-color:#686868"/>
	<stop  offset="0.6732" style="stop-color:#7F7F7F"/>
	<stop  offset="0.7682" style="stop-color:#626363"/>
	<stop  offset="0.8799" style="stop-color:#414042"/>
</linearGradient>
<rect x="0.9" y="110.4" style="fill:url(#SVGID_00000015327941042132718240000013137008534021831819_);" width="36.7" height="17.4"/>
<linearGradient id="SVGID_00000147216882466773148700000002820621045118520501_" gradientUnits="userSpaceOnUse" x1="69.4" y1="1380.7228" x2="69.4" y2="1372.0228" gradientTransform="matrix(1 0 0 1 0 -1257.3229)">
	<stop  offset="0" style="stop-color:#4D4E50"/>
	<stop  offset="2.940000e-02" style="stop-color:#454647"/>
	<stop  offset="0.1068" style="stop-color:#333333"/>
	<stop  offset="0.2055" style="stop-color:#363637"/>
	<stop  offset="0.3013" style="stop-color:#414143"/>
	<stop  offset="0.3101" style="stop-color:#424244"/>
	<stop  offset="0.433" style="stop-color:#565656"/>
	<stop  offset="0.5" style="stop-color:#686868"/>
	<stop  offset="0.6732" style="stop-color:#7F7F7F"/>
	<stop  offset="0.7682" style="stop-color:#626363"/>
	<stop  offset="0.8799" style="stop-color:#414042"/>
</linearGradient>
<rect x="40.5" y="114.7" style="fill:url(#SVGID_00000147216882466773148700000002820621045118520501_);" width="57.8" height="8.7"/>
<linearGradient id="SVGID_00000118383303115850786650000018020796697702917798_" gradientUnits="userSpaceOnUse" x1="98.85" y1="1381.9229" x2="98.85" y2="1370.7894" gradientTransform="matrix(1 0 0 1 0 -1257.3229)">
	<stop  offset="0" style="stop-color:#262626"/>
	<stop  offset="0.2604" style="stop-color:#383838"/>
	<stop  offset="0.5215" style="stop-color:#595959"/>
	<stop  offset="0.6354" style="stop-color:#777777"/>
	<stop  offset="0.7094" style="stop-color:#656666"/>
	<stop  offset="0.7987" style="stop-color:#3A3A3A"/>
	<stop  offset="1" style="stop-color:#1A1A1A"/>
</linearGradient>
<polygon style="fill:url(#SVGID_00000118383303115850786650000018020796697702917798_);" points="98.3,114.7 98.3,123.4 99.4,124.6 
	99.4,113.5 "/>
<linearGradient id="SVGID_00000173122535384008011340000005722505259950485655_" gradientUnits="userSpaceOnUse" x1="98.216" y1="1376.3728" x2="99.4081" y2="1376.3728" gradientTransform="matrix(1 0 0 1 0 -1257.3229)">
	<stop  offset="0" style="stop-color:#000000"/>
	<stop  offset="1" style="stop-color:#1A1A1A;stop-opacity:0"/>
</linearGradient>
<rect x="98.2" y="114.7" style="opacity:0.24;fill:url(#SVGID_00000173122535384008011340000005722505259950485655_);enable-background:new    ;" width="1.2" height="8.7"/>
<linearGradient id="SVGID_00000094601143064237828390000002656546952996888737_" gradientUnits="userSpaceOnUse" x1="36.2578" y1="1281.1729" x2="37.283" y2="1281.1729" gradientTransform="matrix(1 0 0 1 0 -1257.3229)">
	<stop  offset="0" style="stop-color:#DBDBDB"/>
	<stop  offset="0.5483" style="stop-color:#D7D7D7"/>
	<stop  offset="0.974" style="stop-color:#CECECE"/>
</linearGradient>
<polygon style="fill:url(#SVGID_00000094601143064237828390000002656546952996888737_);" points="37.3,21.9 36.3,23 36.3,25.8 "/>
<linearGradient id="SVGID_00000044871779087301577570000006925333328160985781_" gradientUnits="userSpaceOnUse" x1="52.394" y1="1280.9728" x2="53.4784" y2="1280.9728" gradientTransform="matrix(1 0 0 1 0 -1257.3229)">
	<stop  offset="0" style="stop-color:#F4F4F4"/>
	<stop  offset="3.990000e-02" style="stop-color:#EFEFEF"/>
	<stop  offset="0.192" style="stop-color:#E4E4E4"/>
	<stop  offset="0.4058" style="stop-color:#DDDDDD"/>
	<stop  offset="1" style="stop-color:#DBDBDB"/>
</linearGradient>
<polygon style="fill:url(#SVGID_00000044871779087301577570000006925333328160985781_);" points="53.5,23 52.4,21.9 53.5,25.4 "/>
<linearGradient id="SVGID_00000113349162339114171620000016435299052434678169_" gradientUnits="userSpaceOnUse" x1="44.9" y1="1288.6232" x2="44.9" y2="1278.5375" gradientTransform="matrix(1 0 0 1 0 -1257.3229)">
	<stop  offset="0" style="stop-color:#F4F4F4"/>
	<stop  offset="1" style="stop-color:#BABABA"/>
</linearGradient>
<path style="fill:url(#SVGID_00000113349162339114171620000016435299052434678169_);" d="M39.5,21.2c0,0-3.2-0.2-3.2,3.3
	s0,3.5,0,3.5s-0.1,3.3,3.2,3.3s10.7,0,10.7,0s3.3,0.1,3.3-3.3c0-3.5,0-3.5,0-3.5s0.1-3.3-3.2-3.3S39.5,21.2,39.5,21.2z"/>
<linearGradient id="SVGID_00000078766054373677200910000014253620864980295825_" gradientUnits="userSpaceOnUse" x1="52.9" y1="1313.8354" x2="52.9" y2="1317.2772" gradientTransform="matrix(1 0 0 1 0 -1257.3229)">
	<stop  offset="0" style="stop-color:#4D4D4D"/>
	<stop  offset="1.080000e-02" style="stop-color:#4E4E4E"/>
	<stop  offset="0.1725" style="stop-color:#5A5A5A"/>
	<stop  offset="0.3957" style="stop-color:#616161"/>
	<stop  offset="0.974" style="stop-color:#636363"/>
</linearGradient>
<polygon style="fill:url(#SVGID_00000078766054373677200910000014253620864980295825_);" points="53.5,58.9 53.5,56.5 52.3,60 "/>
<linearGradient id="SVGID_00000011724622640912173420000001480669079209616826_" gradientUnits="userSpaceOnUse" x1="-142.541" y1="1313.8354" x2="-142.541" y2="1317.2772" gradientTransform="matrix(-1 0 0 1 -105.691 -1257.3229)">
	<stop  offset="0" style="stop-color:#4D4D4D"/>
	<stop  offset="1.080000e-02" style="stop-color:#4E4E4E"/>
	<stop  offset="0.1725" style="stop-color:#5A5A5A"/>
	<stop  offset="0.3957" style="stop-color:#616161"/>
	<stop  offset="0.974" style="stop-color:#636363"/>
</linearGradient>
<polygon style="fill:url(#SVGID_00000011724622640912173420000001480669079209616826_);" points="36.3,58.9 36.3,56.5 37.4,60 "/>
<linearGradient id="SVGID_00000091004490491714615910000004178070963485246655_" gradientUnits="userSpaceOnUse" x1="44.9" y1="1307.868" x2="44.9" y2="1288.6321" gradientTransform="matrix(1 0 0 1 0 -1257.3229)">
	<stop  offset="0" style="stop-color:#A0A0A0"/>
	<stop  offset="1" style="stop-color:#777777"/>
</linearGradient>
<path style="fill:url(#SVGID_00000091004490491714615910000004178070963485246655_);" d="M39.5,31.3c0,0-3.2,0.3-3.2,4.9
	s0,9.5,0,9.5s-0.1,4.9,3.2,4.9s10.8,0,10.8,0s3.2,0.1,3.2-4.9s0-9.5,0-9.5s0.1-4.9-3.2-4.9C47,31.3,39.5,31.3,39.5,31.3z"/>
<linearGradient id="SVGID_00000102518919318808633340000004141606085487242640_" gradientUnits="userSpaceOnUse" x1="44.9" y1="1317.9448" x2="44.9" y2="1307.8591" gradientTransform="matrix(1 0 0 1 0 -1257.3229)">
	<stop  offset="0" style="stop-color:#727272"/>
	<stop  offset="1" style="stop-color:#4C4C4C"/>
</linearGradient>
<path style="fill:url(#SVGID_00000102518919318808633340000004141606085487242640_);" d="M39.5,50.5c0,0-3.2-0.2-3.2,3.3
	s0,3.5,0,3.5s-0.1,3.3,3.2,3.3s10.7,0,10.7,0s3.3,0.1,3.3-3.3c0-3.5,0-3.5,0-3.5s0.1-3.3-3.2-3.3S39.5,50.5,39.5,50.5z"/>
<linearGradient id="SVGID_00000153674136829495715230000009590160057569829262_" gradientUnits="userSpaceOnUse" x1="70" y1="1308.1509" x2="70" y2="1288.4032" gradientTransform="matrix(1 0 0 1 0 -1257.3229)">
	<stop  offset="0" style="stop-color:#A3A5A8"/>
	<stop  offset="0.1983" style="stop-color:#4D4E50"/>
	<stop  offset="0.2933" style="stop-color:#424244"/>
	<stop  offset="0.433" style="stop-color:#666769"/>
	<stop  offset="0.6732" style="stop-color:#BFBFBF"/>
	<stop  offset="0.9078" style="stop-color:#838587"/>
	<stop  offset="1" style="stop-color:#919396"/>
</linearGradient>
<polygon style="fill:url(#SVGID_00000153674136829495715230000009590160057569829262_);" points="73.6,49.2 66.4,50.8 66.4,31.1 
	73.6,32.7 "/>
<linearGradient id="SVGID_00000156562685641325795660000008911480274558539705_" gradientUnits="userSpaceOnUse" x1="78.55" y1="1308.1228" x2="78.55" y2="1288.375" gradientTransform="matrix(1 0 0 1 0 -1257.3229)">
	<stop  offset="0" style="stop-color:#A3A5A8"/>
	<stop  offset="0.1983" style="stop-color:#4D4E50"/>
	<stop  offset="0.2933" style="stop-color:#424244"/>
	<stop  offset="0.433" style="stop-color:#666769"/>
	<stop  offset="0.6732" style="stop-color:#BFBFBF"/>
	<stop  offset="0.9078" style="stop-color:#838587"/>
	<stop  offset="1" style="stop-color:#919396"/>
</linearGradient>
<polygon style="fill:url(#SVGID_00000156562685641325795660000008911480274558539705_);" points="82.2,49.2 74.9,50.8 74.9,31 
	82.2,32.6 "/>
<linearGradient id="SVGID_00000123433565124419725450000016686649077570921613_" gradientUnits="userSpaceOnUse" x1="87.15" y1="1308.1509" x2="87.15" y2="1288.4032" gradientTransform="matrix(1 0 0 1 0 -1257.3229)">
	<stop  offset="0" style="stop-color:#A3A5A8"/>
	<stop  offset="0.1983" style="stop-color:#4D4E50"/>
	<stop  offset="0.2933" style="stop-color:#424244"/>
	<stop  offset="0.433" style="stop-color:#666769"/>
	<stop  offset="0.6732" style="stop-color:#BFBFBF"/>
	<stop  offset="0.9078" style="stop-color:#838587"/>
	<stop  offset="1" style="stop-color:#919396"/>
</linearGradient>
<polygon style="fill:url(#SVGID_00000123433565124419725450000016686649077570921613_);" points="90.8,49.2 83.5,50.8 83.5,31.1 
	90.8,32.7 "/>
<linearGradient id="SVGID_00000051380159638788301500000011659685933496148120_" gradientUnits="userSpaceOnUse" x1="95.75" y1="1308.1509" x2="95.75" y2="1288.4032" gradientTransform="matrix(1 0 0 1 0 -1257.3229)">
	<stop  offset="0" style="stop-color:#A3A5A8"/>
	<stop  offset="0.1983" style="stop-color:#4D4E50"/>
	<stop  offset="0.2933" style="stop-color:#424244"/>
	<stop  offset="0.433" style="stop-color:#666769"/>
	<stop  offset="0.6732" style="stop-color:#BFBFBF"/>
	<stop  offset="0.9078" style="stop-color:#838587"/>
	<stop  offset="1" style="stop-color:#919396"/>
</linearGradient>
<polygon style="fill:url(#SVGID_00000051380159638788301500000011659685933496148120_);" points="99.4,49.2 92.1,50.8 92.1,31.1 
	99.4,32.7 "/>
<linearGradient id="SVGID_00000147932779617250335350000014243753814918729873_" gradientUnits="userSpaceOnUse" x1="65.75" y1="1308.1509" x2="65.75" y2="1288.3964" gradientTransform="matrix(1 0 0 1 0 -1257.3229)">
	<stop  offset="0" style="stop-color:#7F7F7F"/>
	<stop  offset="0.1983" style="stop-color:#606060"/>
	<stop  offset="0.2933" style="stop-color:#545454"/>
	<stop  offset="0.433" style="stop-color:#757575"/>
	<stop  offset="0.6732" style="stop-color:#FFFFFF"/>
	<stop  offset="0.9078" style="stop-color:#9B9B9B"/>
	<stop  offset="1" style="stop-color:#B2B2B2"/>
</linearGradient>
<rect x="65.1" y="31.1" style="fill:url(#SVGID_00000147932779617250335350000014243753814918729873_);" width="1.3" height="19.8"/>
<linearGradient id="SVGID_00000158017310933288030550000014623344949033447555_" gradientUnits="userSpaceOnUse" x1="74.25" y1="1308.1509" x2="74.25" y2="1288.3964" gradientTransform="matrix(1 0 0 1 0 -1257.3229)">
	<stop  offset="0" style="stop-color:#7F7F7F"/>
	<stop  offset="0.1983" style="stop-color:#606060"/>
	<stop  offset="0.2933" style="stop-color:#545454"/>
	<stop  offset="0.433" style="stop-color:#757575"/>
	<stop  offset="0.6732" style="stop-color:#FFFFFF"/>
	<stop  offset="0.9078" style="stop-color:#9B9B9B"/>
	<stop  offset="1" style="stop-color:#B2B2B2"/>
</linearGradient>
<rect x="73.6" y="31.1" style="fill:url(#SVGID_00000158017310933288030550000014623344949033447555_);" width="1.3" height="19.8"/>
<linearGradient id="SVGID_00000036953672081179267720000013910522623971790775_" gradientUnits="userSpaceOnUse" x1="82.85" y1="1308.1509" x2="82.85" y2="1288.3964" gradientTransform="matrix(1 0 0 1 0 -1257.3229)">
	<stop  offset="0" style="stop-color:#7F7F7F"/>
	<stop  offset="0.1983" style="stop-color:#606060"/>
	<stop  offset="0.2933" style="stop-color:#545454"/>
	<stop  offset="0.433" style="stop-color:#757575"/>
	<stop  offset="0.6732" style="stop-color:#FFFFFF"/>
	<stop  offset="0.9078" style="stop-color:#9B9B9B"/>
	<stop  offset="1" style="stop-color:#B2B2B2"/>
</linearGradient>
<rect x="82.2" y="31.1" style="fill:url(#SVGID_00000036953672081179267720000013910522623971790775_);" width="1.3" height="19.8"/>
<linearGradient id="SVGID_00000000914914656062461290000011585543533019686020_" gradientUnits="userSpaceOnUse" x1="91.45" y1="1308.1509" x2="91.45" y2="1288.3964" gradientTransform="matrix(1 0 0 1 0 -1257.3229)">
	<stop  offset="0" style="stop-color:#7F7F7F"/>
	<stop  offset="0.1983" style="stop-color:#606060"/>
	<stop  offset="0.2933" style="stop-color:#545454"/>
	<stop  offset="0.433" style="stop-color:#757575"/>
	<stop  offset="0.6732" style="stop-color:#FFFFFF"/>
	<stop  offset="0.9078" style="stop-color:#9B9B9B"/>
	<stop  offset="1" style="stop-color:#B2B2B2"/>
</linearGradient>
<rect x="90.8" y="31.1" style="fill:url(#SVGID_00000000914914656062461290000011585543533019686020_);" width="1.3" height="19.8"/>
<image style="overflow:visible;" width="200" height="200" xlink:href="../../pepsi.png"  transform="matrix(5.089888e-02 0 0 5.089888e-02 39.8315 35.57)">
</image>
</svg>
