<?xml version="1.0" encoding="utf-8"?>
<!-- Generator: Adobe Illustrator 25.4.1, SVG Export Plug-In . SVG Version: 6.00 Build 0)  -->
<svg version="1.1" id="Слой_1" xmlns="http://www.w3.org/2000/svg" xmlns:xlink="http://www.w3.org/1999/xlink" x="0px" y="0px"
	 viewBox="0 0 100 160" style="enable-background:new 0 0 100 160;" xml:space="preserve">
<style type="text/css">
	.st0{fill:url(#SVGID_1_);}
	.st1{fill:url(#SVGID_00000143613315397256978750000009019703928101013390_);}
	.st2{fill:url(#SVGID_00000080916037233283282910000006197806475106723226_);}
	.st3{fill:url(#SVGID_00000071555307252910487530000017283045800937021332_);}
	.st4{fill:url(#SVGID_00000013172137609071701720000017050046652981705641_);}
	.st5{fill:url(#SVGID_00000111176022339272255190000009738578427421144234_);}
	.st6{fill:url(#SVGID_00000157996589583128988490000010647223207915656620_);}
	.st7{fill:url(#SVGID_00000110470788009913355970000013463813441099027091_);}
	.st8{fill:url(#SVGID_00000174589471059363867370000002694125337097284247_);}
	.st9{fill:url(#SVGID_00000028324438322424219740000010809279765999426693_);}
	.st10{fill:url(#SVGID_00000060030421377566407670000005810110148711176883_);}
	.st11{fill:url(#SVGID_00000052782272479979890350000014612981477387795626_);}
	.st12{opacity:0.33;fill:url(#SVGID_00000160886825718744520500000003694610854208639111_);enable-background:new    ;}
	.st13{opacity:0.33;fill:url(#SVGID_00000139283313105290098760000005700159809655591051_);enable-background:new    ;}
	.st14{fill:none;}
	.st15{fill:url(#SVGID_00000003090751430947787590000003691384880080055958_);}
	.st16{opacity:0.27;fill:url(#SVGID_00000178922622018619227500000017980391357659170999_);enable-background:new    ;}
	.st17{opacity:0.33;fill:url(#SVGID_00000115507592100528825610000001497081831574294147_);enable-background:new    ;}
	.st18{opacity:0.29;fill:url(#SVGID_00000041292479229179478060000008092446757828422302_);enable-background:new    ;}
	.st19{fill:url(#SVGID_00000072278683794370074090000006812344280459699602_);}
	.st20{fill:url(#SVGID_00000093881514849191758460000001877451790800215433_);}
	.st21{fill:url(#SVGID_00000106112715297216558070000009729116438436877746_);}
	.st22{fill:url(#SVGID_00000057130688069823060190000014045530223554435204_);}
	
		.st23{clip-path:url(#SVGID_00000117646448008578151930000012807899316803540656_);fill:none;stroke:#8E8E8E;stroke-width:0.5;stroke-miterlimit:10;}
	.st24{fill:url(#SVGID_00000052825343228519698010000014954113598425186432_);}
	.st25{opacity:0.24;fill:url(#SVGID_00000181779167064188091880000010990638862687604136_);enable-background:new    ;}
	.st26{fill:url(#SVGID_00000023277356851140109860000012866122430084803510_);}
	.st27{fill:url(#SVGID_00000038374192898609141690000006439919757251150756_);}
	.st28{fill:url(#SVGID_00000070101743779899027880000002815096183526504082_);}
	.st29{fill:url(#SVGID_00000082338038813739428790000001396541778108476862_);}
</style>
<linearGradient id="SVGID_1_" gradientUnits="userSpaceOnUse" x1="53.55" y1="1303.9397" x2="53.55" y2="1287.4722" gradientTransform="matrix(1 0 0 1 0 -1255.3229)">
	<stop  offset="9.217878e-02" style="stop-color:#4D4D4D"/>
	<stop  offset="0.2623" style="stop-color:#666666"/>
	<stop  offset="0.3578" style="stop-color:#4D4E50"/>
	<stop  offset="0.3985" style="stop-color:#424244"/>
	<stop  offset="0.4697" style="stop-color:#666769"/>
	<stop  offset="0.5782" style="stop-color:#BFBFBF"/>
	<stop  offset="0.6852" style="stop-color:#808080"/>
	<stop  offset="0.8315" style="stop-color:#808080"/>
	<stop  offset="0.8662" style="stop-color:#777777"/>
	<stop  offset="0.9344" style="stop-color:#6A6A6A"/>
	<stop  offset="1" style="stop-color:#666666"/>
</linearGradient>
<path class="st0" d="M54.8,33.2l-1.3-0.5c-0.1-0.1-0.4-0.3-0.7-0.4c-0.9-0.3-1.8,0.3-2.1,0.5c-2.4,1.6-2.4,5.9-2.4,7.4
	c0,0,0,0,0,0.1c0,4.5,0,7.2,1.5,8.1c0.8,0.5,2,0.4,2.9,0c0.4-0.2,0.7-0.5,0.9-0.7c0.4-0.2,0.8-0.4,1.3-0.5h3.9v-6.9v-0.1v-6.9
	L54.8,33.2L54.8,33.2z"/>
<linearGradient id="SVGID_00000137123385902278205270000004783500488573409960_" gradientUnits="userSpaceOnUse" x1="78.9" y1="-324.8094" x2="78.9" y2="-308.8094" gradientTransform="matrix(1 0 0 -1 0 -276.6772)">
	<stop  offset="0" style="stop-color:#A3A5A8"/>
	<stop  offset="0.1983" style="stop-color:#4D4E50"/>
	<stop  offset="0.2933" style="stop-color:#424244"/>
	<stop  offset="0.433" style="stop-color:#666769"/>
	<stop  offset="0.6732" style="stop-color:#BFBFBF"/>
	<stop  offset="0.9078" style="stop-color:#838587"/>
	<stop  offset="1" style="stop-color:#919396"/>
</linearGradient>
<polygon style="fill:url(#SVGID_00000137123385902278205270000004783500488573409960_);" points="82.5,46.8 75.3,48.1 75.3,32.1 
	82.5,33.4 "/>
<linearGradient id="SVGID_00000006666302980795119100000004493892009454305681_" gradientUnits="userSpaceOnUse" x1="87.4" y1="-324.842" x2="87.4" y2="-308.842" gradientTransform="matrix(1 0 0 -1 0 -276.6772)">
	<stop  offset="0" style="stop-color:#A3A5A8"/>
	<stop  offset="0.1983" style="stop-color:#4D4E50"/>
	<stop  offset="0.2933" style="stop-color:#424244"/>
	<stop  offset="0.433" style="stop-color:#666769"/>
	<stop  offset="0.6732" style="stop-color:#BFBFBF"/>
	<stop  offset="0.9078" style="stop-color:#838587"/>
	<stop  offset="1" style="stop-color:#919396"/>
</linearGradient>
<polygon style="fill:url(#SVGID_00000006666302980795119100000004493892009454305681_);" points="91,46.9 83.8,48.2 83.8,32.2 
	91,33.5 "/>
<linearGradient id="SVGID_00000147925545816741504660000009326227097516277169_" gradientUnits="userSpaceOnUse" x1="95.9" y1="-324.842" x2="95.9" y2="-308.842" gradientTransform="matrix(1 0 0 -1 0 -276.6772)">
	<stop  offset="0" style="stop-color:#A3A5A8"/>
	<stop  offset="0.1983" style="stop-color:#4D4E50"/>
	<stop  offset="0.2933" style="stop-color:#424244"/>
	<stop  offset="0.433" style="stop-color:#666769"/>
	<stop  offset="0.6732" style="stop-color:#BFBFBF"/>
	<stop  offset="0.9078" style="stop-color:#838587"/>
	<stop  offset="1" style="stop-color:#919396"/>
</linearGradient>
<polygon style="fill:url(#SVGID_00000147925545816741504660000009326227097516277169_);" points="99.5,46.9 92.3,48.2 92.3,32.2 
	99.5,33.5 "/>
<linearGradient id="SVGID_00000124871108283562669100000002847218459479976352_" gradientUnits="userSpaceOnUse" x1="74.65" y1="-324.842" x2="74.65" y2="-308.842" gradientTransform="matrix(1 0 0 -1 0 -276.6772)">
	<stop  offset="0" style="stop-color:#7F7F7F"/>
	<stop  offset="0.1983" style="stop-color:#606060"/>
	<stop  offset="0.2933" style="stop-color:#545454"/>
	<stop  offset="0.433" style="stop-color:#757575"/>
	<stop  offset="0.6732" style="stop-color:#FFFFFF"/>
	<stop  offset="0.9078" style="stop-color:#9B9B9B"/>
	<stop  offset="1" style="stop-color:#B2B2B2"/>
</linearGradient>
<rect x="74" y="32.2" style="fill:url(#SVGID_00000124871108283562669100000002847218459479976352_);" width="1.3" height="16"/>
<linearGradient id="SVGID_00000072963765963230414690000012010764151144953505_" gradientUnits="userSpaceOnUse" x1="83.15" y1="-324.842" x2="83.15" y2="-308.842" gradientTransform="matrix(1 0 0 -1 0 -276.6772)">
	<stop  offset="0" style="stop-color:#7F7F7F"/>
	<stop  offset="0.1983" style="stop-color:#606060"/>
	<stop  offset="0.2933" style="stop-color:#545454"/>
	<stop  offset="0.433" style="stop-color:#757575"/>
	<stop  offset="0.6732" style="stop-color:#FFFFFF"/>
	<stop  offset="0.9078" style="stop-color:#9B9B9B"/>
	<stop  offset="1" style="stop-color:#B2B2B2"/>
</linearGradient>
<rect x="82.5" y="32.2" style="fill:url(#SVGID_00000072963765963230414690000012010764151144953505_);" width="1.3" height="16"/>
<linearGradient id="SVGID_00000158028887265902216860000007975526498958282156_" gradientUnits="userSpaceOnUse" x1="91.65" y1="-324.842" x2="91.65" y2="-308.842" gradientTransform="matrix(1 0 0 -1 0 -276.6772)">
	<stop  offset="0" style="stop-color:#7F7F7F"/>
	<stop  offset="0.1983" style="stop-color:#606060"/>
	<stop  offset="0.2933" style="stop-color:#545454"/>
	<stop  offset="0.433" style="stop-color:#757575"/>
	<stop  offset="0.6732" style="stop-color:#FFFFFF"/>
	<stop  offset="0.9078" style="stop-color:#9B9B9B"/>
	<stop  offset="1" style="stop-color:#B2B2B2"/>
</linearGradient>
<rect x="91" y="32.2" style="fill:url(#SVGID_00000158028887265902216860000007975526498958282156_);" width="1.3" height="16"/>
<linearGradient id="SVGID_00000111169623991561534040000014901063137737839256_" gradientUnits="userSpaceOnUse" x1="61.9" y1="-324.8094" x2="61.9" y2="-308.8094" gradientTransform="matrix(1 0 0 -1 0 -276.6772)">
	<stop  offset="0" style="stop-color:#A3A5A8"/>
	<stop  offset="0.1983" style="stop-color:#4D4E50"/>
	<stop  offset="0.2933" style="stop-color:#424244"/>
	<stop  offset="0.433" style="stop-color:#666769"/>
	<stop  offset="0.6732" style="stop-color:#BFBFBF"/>
	<stop  offset="0.9078" style="stop-color:#838587"/>
	<stop  offset="1" style="stop-color:#919396"/>
</linearGradient>
<polygon style="fill:url(#SVGID_00000111169623991561534040000014901063137737839256_);" points="65.5,46.8 58.3,48.1 58.3,32.1 
	65.5,33.4 "/>
<linearGradient id="SVGID_00000136394604942283194720000000802186346656895672_" gradientUnits="userSpaceOnUse" x1="57.65" y1="-324.8203" x2="57.65" y2="-308.8203" gradientTransform="matrix(1 0 0 -1 0 -276.6772)">
	<stop  offset="0" style="stop-color:#7F7F7F"/>
	<stop  offset="0.1983" style="stop-color:#606060"/>
	<stop  offset="0.2933" style="stop-color:#545454"/>
	<stop  offset="0.433" style="stop-color:#757575"/>
	<stop  offset="0.6732" style="stop-color:#FFFFFF"/>
	<stop  offset="0.9078" style="stop-color:#9B9B9B"/>
	<stop  offset="1" style="stop-color:#B2B2B2"/>
</linearGradient>
<rect x="57" y="32.1" style="fill:url(#SVGID_00000136394604942283194720000000802186346656895672_);" width="1.3" height="16"/>
<linearGradient id="SVGID_00000121958397492886329700000014971746465051440529_" gradientUnits="userSpaceOnUse" x1="70.4" y1="-324.842" x2="70.4" y2="-308.842" gradientTransform="matrix(1 0 0 -1 0 -276.6772)">
	<stop  offset="0" style="stop-color:#A3A5A8"/>
	<stop  offset="0.1983" style="stop-color:#4D4E50"/>
	<stop  offset="0.2933" style="stop-color:#424244"/>
	<stop  offset="0.433" style="stop-color:#666769"/>
	<stop  offset="0.6732" style="stop-color:#BFBFBF"/>
	<stop  offset="0.9078" style="stop-color:#838587"/>
	<stop  offset="1" style="stop-color:#919396"/>
</linearGradient>
<polygon style="fill:url(#SVGID_00000121958397492886329700000014971746465051440529_);" points="74,46.9 66.8,48.2 66.8,32.2 
	74,33.5 "/>
<linearGradient id="SVGID_00000157304355130353296340000002171256264289480361_" gradientUnits="userSpaceOnUse" x1="66.15" y1="-324.842" x2="66.15" y2="-308.842" gradientTransform="matrix(1 0 0 -1 0 -276.6772)">
	<stop  offset="0" style="stop-color:#7F7F7F"/>
	<stop  offset="0.1983" style="stop-color:#606060"/>
	<stop  offset="0.2933" style="stop-color:#545454"/>
	<stop  offset="0.433" style="stop-color:#757575"/>
	<stop  offset="0.6732" style="stop-color:#FFFFFF"/>
	<stop  offset="0.9078" style="stop-color:#9B9B9B"/>
	<stop  offset="1" style="stop-color:#B2B2B2"/>
</linearGradient>
<rect x="65.5" y="32.2" style="fill:url(#SVGID_00000157304355130353296340000002171256264289480361_);" width="1.3" height="16"/>
<linearGradient id="SVGID_00000085225108071035449220000005612014615676589703_" gradientUnits="userSpaceOnUse" x1="50.55" y1="1307.2639" x2="50.55" y2="1283.9226" gradientTransform="matrix(1 0 0 1 0 -1255.3229)">
	<stop  offset="0" style="stop-color:#7F7F7F"/>
	<stop  offset="0.1983" style="stop-color:#606060"/>
	<stop  offset="0.2933" style="stop-color:#545454"/>
	<stop  offset="0.433" style="stop-color:#757575"/>
	<stop  offset="0.6732" style="stop-color:#FFFFFF"/>
	<stop  offset="0.9078" style="stop-color:#9B9B9B"/>
	<stop  offset="1" style="stop-color:#B2B2B2"/>
</linearGradient>
<rect x="47.6" y="28.6" style="fill:url(#SVGID_00000085225108071035449220000005612014615676589703_);" width="5.9" height="23.3"/>
<linearGradient id="SVGID_00000177456059542825463960000014807984592789019568_" gradientUnits="userSpaceOnUse" x1="-758.1257" y1="-382.68" x2="-752.8115" y2="-382.68" gradientTransform="matrix(-1 0 0 -1 -704.5618 -342.43)">
	<stop  offset="0" style="stop-color:#1A1A1A"/>
	<stop  offset="0" style="stop-color:#353535;stop-opacity:0.8537"/>
	<stop  offset="0" style="stop-color:#7C7C7C;stop-opacity:0.5379"/>
	<stop  offset="0" style="stop-color:#EBEBEB;stop-opacity:8.011568e-02"/>
	<stop  offset="0" style="stop-color:#FFFFFF;stop-opacity:0"/>
	<stop  offset="2.899647e-03" style="stop-color:#FEFEFE;stop-opacity:2.825349e-03"/>
	<stop  offset="0.1526" style="stop-color:#C6C6C6;stop-opacity:0.1487"/>
	<stop  offset="0.3031" style="stop-color:#969696;stop-opacity:0.2954"/>
	<stop  offset="0.4512" style="stop-color:#6F6F6F;stop-opacity:0.4397"/>
	<stop  offset="0.5965" style="stop-color:#505050;stop-opacity:0.5812"/>
	<stop  offset="0.7382" style="stop-color:#3B3B3B;stop-opacity:0.7193"/>
	<stop  offset="0.8746" style="stop-color:#2D2D2D;stop-opacity:0.8522"/>
	<stop  offset="1" style="stop-color:#292929;stop-opacity:0.9744"/>
</linearGradient>
<polygon style="opacity:0.33;fill:url(#SVGID_00000177456059542825463960000014807984592789019568_);enable-background:new    ;" points="
	48.2,28.6 53.6,28.6 53.6,51.9 48.2,51.9 "/>
<linearGradient id="SVGID_00000108998839420981354190000005671994256573667234_" gradientUnits="userSpaceOnUse" x1="57.0166" y1="1295.4229" x2="53.5639" y2="1295.4229" gradientTransform="matrix(1 0 0 1 0 -1255.3229)">
	<stop  offset="0" style="stop-color:#1A1A1A"/>
	<stop  offset="0" style="stop-color:#353535;stop-opacity:0.8537"/>
	<stop  offset="0" style="stop-color:#7C7C7C;stop-opacity:0.5379"/>
	<stop  offset="0" style="stop-color:#EBEBEB;stop-opacity:8.011568e-02"/>
	<stop  offset="0" style="stop-color:#FFFFFF;stop-opacity:0"/>
	<stop  offset="0.1563" style="stop-color:#E3E3E3;stop-opacity:0.1523"/>
	<stop  offset="0.494" style="stop-color:#9D9D9D;stop-opacity:0.4813"/>
	<stop  offset="0.9841" style="stop-color:#2D2D2D;stop-opacity:0.9589"/>
	<stop  offset="1" style="stop-color:#292929;stop-opacity:0.9744"/>
</linearGradient>
<polygon style="opacity:0.33;fill:url(#SVGID_00000108998839420981354190000005671994256573667234_);enable-background:new    ;" points="
	53.6,32.6 54.8,33.2 57,33.2 57,47.1 54.8,47.1 53.6,47.6 "/>
<path class="st14" d="M3.6,50"/>
<g>
	
		<linearGradient id="SVGID_00000042011593322127842970000011782893703163819944_" gradientUnits="userSpaceOnUse" x1="16.75" y1="1306.8628" x2="16.75" y2="1284.0382" gradientTransform="matrix(1 0 0 1 0 -1255.3229)">
		<stop  offset="0" style="stop-color:#7F7F7F"/>
		<stop  offset="0.1983" style="stop-color:#606060"/>
		<stop  offset="0.2933" style="stop-color:#545454"/>
		<stop  offset="0.433" style="stop-color:#757575"/>
		<stop  offset="0.6732" style="stop-color:#FFFFFF"/>
		<stop  offset="0.9078" style="stop-color:#9B9B9B"/>
		<stop  offset="1" style="stop-color:#B2B2B2"/>
	</linearGradient>
	<polygon style="fill:url(#SVGID_00000042011593322127842970000011782893703163819944_);" points="32.9,28.7 31.8,30.8 17.4,30.8 
		12.2,32 12.2,30.8 3.6,30.8 0.6,32 0.6,40 0.6,40.2 0.6,48.3 3.6,49.5 12.2,49.5 12.2,48.3 17.4,49.4 31.8,49.4 32.9,51.5 
		32.8,40.1 	"/>
	
		<linearGradient id="SVGID_00000183946729500377785940000006516760575031645344_" gradientUnits="userSpaceOnUse" x1="29.0572" y1="1295.5228" x2="32.8993" y2="1295.5228" gradientTransform="matrix(1 0 0 1 0 -1255.3229)">
		<stop  offset="0" style="stop-color:#1A1A1A"/>
		<stop  offset="0" style="stop-color:#141414;stop-opacity:0.9525"/>
		<stop  offset="0" style="stop-color:#090909;stop-opacity:0.8016"/>
		<stop  offset="0" style="stop-color:#020202;stop-opacity:0.5895"/>
		<stop  offset="0" style="stop-color:#000000;stop-opacity:0"/>
		<stop  offset="1" style="stop-color:#000000;stop-opacity:0.97"/>
	</linearGradient>
	<path style="opacity:0.27;fill:url(#SVGID_00000183946729500377785940000006516760575031645344_);enable-background:new    ;" d="
		M32.9,28.8c-0.4,0.7-0.7,1.4-1.1,2.1c-0.9,0-1.8,0-2.7,0c0,6.2,0,12.4,0,18.6c0.9,0,1.8,0,2.8,0c0.4,0.7,0.7,1.4,1.1,2.1
		C32.9,43.9,32.9,36.3,32.9,28.8z"/>
</g>
<linearGradient id="SVGID_00000156558834542202749970000018153842589614371743_" gradientUnits="userSpaceOnUse" x1="12.1691" y1="1295.4229" x2="19.151" y2="1295.4229" gradientTransform="matrix(1 0 0 1 0 -1255.3229)">
	<stop  offset="0" style="stop-color:#000000"/>
	<stop  offset="1" style="stop-color:#000000;stop-opacity:0"/>
</linearGradient>
<polygon style="opacity:0.33;fill:url(#SVGID_00000156558834542202749970000018153842589614371743_);enable-background:new    ;" points="
	17.4,30.8 12.2,32 12.2,48.3 17.4,49.4 19.2,49.4 19.2,30.8 "/>
<linearGradient id="SVGID_00000021103575280241475060000001889235563820666505_" gradientUnits="userSpaceOnUse" x1="0.5669" y1="1295.4728" x2="4.9135" y2="1295.4728" gradientTransform="matrix(1 0 0 1 0 -1255.3229)">
	<stop  offset="0" style="stop-color:#000000"/>
	<stop  offset="1" style="stop-color:#000000;stop-opacity:0"/>
</linearGradient>
<polygon style="opacity:0.29;fill:url(#SVGID_00000021103575280241475060000001889235563820666505_);enable-background:new    ;" points="
	0.6,32 0.6,48.3 3.6,49.5 4.9,49.4 4.9,30.8 3.6,30.8 "/>
<g>
	
		<linearGradient id="SVGID_00000121958162006870154020000014816057978688324235_" gradientUnits="userSpaceOnUse" x1="40.6" y1="1306.3676" x2="40.6" y2="1284.6675" gradientTransform="matrix(1 0 0 1 0 -1255.3229)">
		<stop  offset="2.234637e-02" style="stop-color:#1A1A1A"/>
		<stop  offset="0.9832" style="stop-color:#CCCCCC"/>
	</linearGradient>
	
		<rect x="32.8" y="29.3" style="fill:url(#SVGID_00000121958162006870154020000014816057978688324235_);" width="15.6" height="21.7"/>
	
		<linearGradient id="SVGID_00000051372466006076440360000014373263556009651086_" gradientUnits="userSpaceOnUse" x1="40.6741" y1="1309.2666" x2="40.6741" y2="1302.5312" gradientTransform="matrix(1 0 0 1 0 -1255.3229)">
		<stop  offset="0" style="stop-color:#727272"/>
		<stop  offset="1" style="stop-color:#4C4C4C"/>
	</linearGradient>
	<path style="fill:url(#SVGID_00000051372466006076440360000014373263556009651086_);" d="M47.9,47.2H33.4c0,0-1.1,2.9,0,6.7H48
		C47.9,53.9,49.1,50.5,47.9,47.2z"/>
	
		<linearGradient id="SVGID_00000111902816856878193760000000702220753360885424_" gradientUnits="userSpaceOnUse" x1="40.6741" y1="1302.5228" x2="40.6741" y2="1288.556" gradientTransform="matrix(1 0 0 1 0 -1255.3229)">
		<stop  offset="0" style="stop-color:#A0A0A0"/>
		<stop  offset="1" style="stop-color:#777777"/>
	</linearGradient>
	<path style="fill:url(#SVGID_00000111902816856878193760000000702220753360885424_);" d="M47.9,33.2H33.4c0,0-1.1,6,0,14H48
		C47.9,47.2,49.1,40,47.9,33.2z"/>
	
		<linearGradient id="SVGID_00000178175761316686079520000016026506478929463717_" gradientUnits="userSpaceOnUse" x1="40.6741" y1="1288.5645" x2="40.6741" y2="1281.829" gradientTransform="matrix(1 0 0 1 0 -1255.3229)">
		<stop  offset="0" style="stop-color:#F4F4F4"/>
		<stop  offset="1" style="stop-color:#BABABA"/>
	</linearGradient>
	<path style="fill:url(#SVGID_00000178175761316686079520000016026506478929463717_);" d="M47.9,26.5H33.4c0,0-1.1,2.9,0,6.7H48
		C47.9,33.2,49.1,29.8,47.9,26.5z"/>
</g>
<g>
	<defs>
		<path id="SVGID_00000040575136302140913230000016446383265289632443_" d="M99.5,112.1l-7.2-1.3l0,0H91v1.3l-7.2-1.3l0,0h-1.3v1.3
			l-7.2-1.3l0,0H74v1.3l-7.2-1.3l0,0h-1.3v1.3l-7.2-1.3l0,0H57v1h-2.2l-1.3-0.5v-4h-5.2c-0.1-0.7-0.2-1.4-0.5-2.1H33.4
			c0,0-0.3,0.8-0.5,2.2l-1.1,2.1H19.2h-1.8l-5.2,1.2v-1.2H4.9H3.6l-3,1.2v8v0.2v8l3,1.2h8.6v-1.2l5.2,1.2h1.8h9.9h2.8l1.1,2.1l0,0
			c0.1,0.7,0.2,1.6,0.5,2.4H48c0,0,0.3-0.8,0.4-2h4.9h0.3v-4.3c0.4-0.2,0.8-0.4,1.3-0.5h2.2v1.1h1.3l0,0l7.2-1.3v1.3h1.3l0,0
			l7.2-1.3v1.3h1.3l0,0l7.2-1.3v1.3h1.3l0,0l7.2-1.3v1.3h1.3l0,0l7.2-1.3L99.5,112.1L99.5,112.1z"/>
	</defs>
	<clipPath id="SVGID_00000139985962513373709680000014168759293092673929_">
		<use xlink:href="#SVGID_00000040575136302140913230000016446383265289632443_"  style="overflow:visible;"/>
	</clipPath>
	<g style="clip-path:url(#SVGID_00000139985962513373709680000014168759293092673929_);">
		
			<image style="overflow:visible;" width="600" height="600" xlink:href="../../background.jpg"  transform="matrix(0.171 0 0 0.171 0.6067 60.0113)">
		</image>
	</g>
	
		<path style="clip-path:url(#SVGID_00000139985962513373709680000014168759293092673929_);fill:none;stroke:#8E8E8E;stroke-width:0.5;stroke-miterlimit:10;" d="
		M99.5,112.1l-7.2-1.3l0,0H91v1.3l-7.2-1.3l0,0h-1.3v1.3l-7.2-1.3l0,0H74v1.3l-7.2-1.3l0,0h-1.3v1.3l-7.2-1.3l0,0H57v1h-2.2
		l-1.3-0.5v-4h-5.2c-0.1-0.7-0.2-1.4-0.5-2.1H33.4c0,0-0.3,0.8-0.5,2.2l-1.1,2.1H19.2h-1.8l-5.2,1.2v-1.2H4.9H3.6l-3,1.2v8v0.2v8
		l3,1.2h8.6v-1.2l5.2,1.2h1.8h9.9h2.8l1.1,2.1l0,0c0.1,0.7,0.2,1.6,0.5,2.4H48c0,0,0.3-0.8,0.4-2h4.9h0.3v-4.3
		c0.4-0.2,0.8-0.4,1.3-0.5h2.2v1.1h1.3l0,0l7.2-1.3v1.3h1.3l0,0l7.2-1.3v1.3h1.3l0,0l7.2-1.3v1.3h1.3l0,0l7.2-1.3v1.3h1.3l0,0
		l7.2-1.3L99.5,112.1L99.5,112.1z"/>
	
		<use xlink:href="#SVGID_00000040575136302140913230000016446383265289632443_"  style="overflow:visible;fill:none;stroke:#8E8E8E;stroke-width:0.5;stroke-miterlimit:10;"/>
</g>
<linearGradient id="SVGID_00000079468161898556650680000007686318904859901604_" gradientUnits="userSpaceOnUse" x1="99.1" y1="-399.9356" x2="99.1" y2="-391.0356" gradientTransform="matrix(1 0 0 -1 0 -276.6772)">
	<stop  offset="0" style="stop-color:#262626"/>
	<stop  offset="0.2604" style="stop-color:#383838"/>
	<stop  offset="0.5215" style="stop-color:#595959"/>
	<stop  offset="0.6354" style="stop-color:#777777"/>
	<stop  offset="0.7094" style="stop-color:#656666"/>
	<stop  offset="0.7987" style="stop-color:#3A3A3A"/>
	<stop  offset="1" style="stop-color:#1A1A1A"/>
</linearGradient>
<path style="fill:url(#SVGID_00000079468161898556650680000007686318904859901604_);" d="M98.7,114.7c0,2.8,0,5.5,0,8.3
	c0.3,0.1,0.5,0.2,0.8,0.3c0-3,0-5.9,0-8.9C99.2,114.5,99,114.6,98.7,114.7z"/>
<linearGradient id="SVGID_00000001645146109561611980000004737938887373193353_" gradientUnits="userSpaceOnUse" x1="98.6114" y1="-395.5272" x2="99.6323" y2="-395.5272" gradientTransform="matrix(1 0 0 -1 0 -276.6772)">
	<stop  offset="0" style="stop-color:#000000"/>
	<stop  offset="1" style="stop-color:#1A1A1A;stop-opacity:0"/>
</linearGradient>
<rect x="98.6" y="114.7" style="opacity:0.24;fill:url(#SVGID_00000001645146109561611980000004737938887373193353_);enable-background:new    ;" width="1" height="8.3"/>
<linearGradient id="SVGID_00000008841934714910619860000018050419991420961209_" gradientUnits="userSpaceOnUse" x1="36.8" y1="-400.9054" x2="36.8" y2="-390.25" gradientTransform="matrix(1 0 0 -1 0 -276.6772)">
	<stop  offset="0" style="stop-color:#262626"/>
	<stop  offset="0.3541" style="stop-color:#383838"/>
	<stop  offset="0.433" style="stop-color:#595959"/>
	<stop  offset="0.5" style="stop-color:#777777"/>
	<stop  offset="0.6362" style="stop-color:#AAAAAA"/>
	<stop  offset="0.7094" style="stop-color:#656666"/>
	<stop  offset="0.7987" style="stop-color:#3A3A3A"/>
	<stop  offset="1" style="stop-color:#1A1A1A"/>
</linearGradient>
<path style="fill:url(#SVGID_00000008841934714910619860000018050419991420961209_);" d="M35.9,113.6c0,1.8,0,3.6,0,5.3
	c0,1.8,0,3.5,0,5.3c0.6-0.4,1.2-0.8,1.8-1.3c0-1.4,0-2.7,0-4.1s0-2.8,0-4.2C37,114.3,36.5,113.9,35.9,113.6z"/>
<linearGradient id="SVGID_00000037676437934583431470000006540671721206438024_" gradientUnits="userSpaceOnUse" x1="18.35" y1="-400.9054" x2="18.35" y2="-390.25" gradientTransform="matrix(1 0 0 -1 0 -276.6772)">
	<stop  offset="0" style="stop-color:#4D4E50"/>
	<stop  offset="2.940000e-02" style="stop-color:#454647"/>
	<stop  offset="0.1068" style="stop-color:#333333"/>
	<stop  offset="0.2055" style="stop-color:#363637"/>
	<stop  offset="0.3013" style="stop-color:#414143"/>
	<stop  offset="0.3101" style="stop-color:#424244"/>
	<stop  offset="0.433" style="stop-color:#565656"/>
	<stop  offset="0.5" style="stop-color:#686868"/>
	<stop  offset="0.6732" style="stop-color:#7F7F7F"/>
	<stop  offset="0.7682" style="stop-color:#626363"/>
	<stop  offset="0.8799" style="stop-color:#414042"/>
</linearGradient>
<rect x="0.8" y="113.6" style="fill:url(#SVGID_00000037676437934583431470000006540671721206438024_);" width="35.1" height="10.7"/>
<linearGradient id="SVGID_00000003070874127778465010000001182852353283237300_" gradientUnits="userSpaceOnUse" x1="68.15" y1="-399.6505" x2="68.15" y2="-391.3505" gradientTransform="matrix(1 0 0 -1 0 -276.6772)">
	<stop  offset="0" style="stop-color:#4D4E50"/>
	<stop  offset="2.940000e-02" style="stop-color:#454647"/>
	<stop  offset="0.1068" style="stop-color:#333333"/>
	<stop  offset="0.2055" style="stop-color:#363637"/>
	<stop  offset="0.3013" style="stop-color:#414143"/>
	<stop  offset="0.3101" style="stop-color:#424244"/>
	<stop  offset="0.433" style="stop-color:#565656"/>
	<stop  offset="0.5" style="stop-color:#686868"/>
	<stop  offset="0.6732" style="stop-color:#7F7F7F"/>
	<stop  offset="0.7682" style="stop-color:#626363"/>
	<stop  offset="0.8799" style="stop-color:#414042"/>
</linearGradient>
<rect x="37.6" y="114.7" style="fill:url(#SVGID_00000003070874127778465010000001182852353283237300_);" width="61.1" height="8.3"/>
<linearGradient id="SVGID_00000083068479013415768040000017770432409260474295_" gradientUnits="userSpaceOnUse" x1="100.7" y1="1374.4229" x2="100.7" y2="1374.4229" gradientTransform="matrix(1 0 0 1 0 -1255.3229)">
	<stop  offset="0" style="stop-color:#000000"/>
	<stop  offset="1" style="stop-color:#1A1A1A;stop-opacity:0"/>
</linearGradient>
<path style="fill:url(#SVGID_00000083068479013415768040000017770432409260474295_);" d="M100.7,119.1"/>
<image style="overflow:visible;" width="200" height="200" xlink:href="../../pepsi.png"  transform="matrix(5.346348e-02 0 0 5.346348e-02 18.0826 35.0195)">
</image>
</svg>
