<?xml version="1.0" encoding="utf-8"?>
<!-- Generator: Adobe Illustrator 25.4.1, SVG Export Plug-In . SVG Version: 6.00 Build 0)  -->
<svg version="1.1" id="Слой_1" xmlns="http://www.w3.org/2000/svg" xmlns:xlink="http://www.w3.org/1999/xlink" x="0px" y="0px"
	 viewBox="0 0 100 160" style="enable-background:new 0 0 100 160;" xml:space="preserve">
<style type="text/css">
	.st0{fill:url(#SVGID_00000109725467135254744150000008283724787297301694_);}
	.st1{clip-path:url(#SVGID_00000113337441670206064650000008633393776119359132_);}
	.st2{fill:none;stroke:#B3B3B3;stroke-width:0.5;stroke-miterlimit:10;}
	.st3{fill:url(#SVGID_00000072277462549470477280000017590256665304811703_);}
	.st4{fill:url(#SVGID_00000116917604390875866610000012132079227782913167_);}
	.st5{fill:#555555;}
	.st6{fill:url(#SVGID_00000142889054737019779760000016325907324451859614_);}
	.st7{fill:url(#SVGID_00000031182706689874561510000015754398202950888087_);}
	.st8{fill:url(#SVGID_00000036226493684049081930000001216797697332106885_);}
	.st9{opacity:0.5;fill:url(#SVGID_00000167397075251823977660000014116798664774452128_);enable-background:new    ;}
	.st10{opacity:0.5;fill:url(#SVGID_00000028296364987730899260000008106364130076768182_);enable-background:new    ;}
	.st11{fill:url(#SVGID_00000149373262909807301040000008637108760417811350_);}
</style>
<g>
	<g>
		
			<linearGradient id="SVGID_00000088819353654802402800000008877862888454588072_" gradientUnits="userSpaceOnUse" x1="54.8177" y1="1434.1401" x2="53.3923" y2="1439.8418" gradientTransform="matrix(1 0 0 1 0 -1320.6614)">
			<stop  offset="0.1816" style="stop-color:#FFFFFF;stop-opacity:0"/>
			<stop  offset="1" style="stop-color:#262626"/>
		</linearGradient>
		<polygon id="SVGID_1_" style="fill:url(#SVGID_00000088819353654802402800000008877862888454588072_);" points="58.6,114.5 
			58.6,111 49.2,111 49.2,81.8 21.6,81.8 21.6,111 12.4,111 12.4,157.2 58.6,157.2 58.6,153.7 87.8,153.7 87.8,114.5 		"/>
	</g>
	<g>
		<g>
			<g>
				<g>
					<defs>
						<polygon id="SVGID_00000173157802889602987390000005177200440049905578_" points="58.6,114.5 58.6,111 49.2,111 49.2,81.8 
							21.6,81.8 21.6,111 12.4,111 12.4,157.2 58.6,157.2 58.6,153.7 87.8,153.7 87.8,114.5 						"/>
					</defs>
					<clipPath id="SVGID_00000179634180529791884300000011551268153449557404_">
						<use xlink:href="#SVGID_00000173157802889602987390000005177200440049905578_"  style="overflow:visible;"/>
					</clipPath>
					<g style="clip-path:url(#SVGID_00000179634180529791884300000011551268153449557404_);">
						
							<image style="overflow:visible;enable-background:new    ;" width="1200" height="900" xlink:href="../../Фитинги/Резьбовые/Металл.jpg"  transform="matrix(9.308238e-02 0 0 9.308238e-02 9.0818 76.1673)">
						</image>
					</g>
				</g>
			</g>
		</g>
	</g>
	<g>
		<polygon id="SVGID_2_" class="st2" points="58.6,114.5 58.6,111 49.2,111 49.2,81.8 21.6,81.8 21.6,111 12.4,111 12.4,157.2 
			58.6,157.2 58.6,153.7 87.8,153.7 87.8,114.5 		"/>
	</g>
</g>
<linearGradient id="SVGID_00000026135267993423374660000013825938223336727959_" gradientUnits="userSpaceOnUse" x1="21.5503" y1="1337.5613" x2="49.1096" y2="1337.5613" gradientTransform="matrix(1 0 0 1 0 -1320.6614)">
	<stop  offset="0" style="stop-color:#9F9D9D"/>
	<stop  offset="0.1816" style="stop-color:#808080"/>
	<stop  offset="0.2933" style="stop-color:#9F9D9D"/>
	<stop  offset="0.5447" style="stop-color:#CCCCCC"/>
	<stop  offset="0.6732" style="stop-color:#FFFFFF"/>
	<stop  offset="0.8687" style="stop-color:#E4E3E3"/>
	<stop  offset="1" style="stop-color:#B3B3B3"/>
</linearGradient>
<rect x="21.6" y="2.3" style="fill:url(#SVGID_00000026135267993423374660000013825938223336727959_);" width="27.6" height="29.2"/>
<linearGradient id="SVGID_00000064336377072352135270000004308391970357499551_" gradientUnits="userSpaceOnUse" x1="73.3" y1="1394.8181" x2="73.3" y2="1355.6182" gradientTransform="matrix(1 0 0 1 0 -1320.6614)">
	<stop  offset="0" style="stop-color:#9F9D9D"/>
	<stop  offset="0.1816" style="stop-color:#808080"/>
	<stop  offset="0.2933" style="stop-color:#9F9D9D"/>
	<stop  offset="0.5447" style="stop-color:#CCCCCC"/>
	<stop  offset="0.6732" style="stop-color:#FFFFFF"/>
	<stop  offset="0.8687" style="stop-color:#E4E3E3"/>
	<stop  offset="1" style="stop-color:#B3B3B3"/>
</linearGradient>
<polygon style="fill:url(#SVGID_00000064336377072352135270000004308391970357499551_);" points="58.7,74.2 58.7,35 87.9,35 
	87.9,74.2 "/>
<polygon class="st2" points="58.8,114.5 58.8,111 49.3,111 49.3,81.8 21.8,81.8 21.8,111 12.5,111 12.5,157.2 58.8,157.2 
	58.8,153.7 87.9,153.7 87.9,114.5 "/>
<path class="st5" d="M44.8,118.7v-37H26.5V134l0,0c0,0.2,0,0.4,0,0.6c0,7.5,4,13.7,9.2,14.6v0.2h52.2v-30.5L44.8,118.7L44.8,118.7z"
	/>
<linearGradient id="SVGID_00000133502224850229880040000003665505565252010139_" gradientUnits="userSpaceOnUse" x1="25.075" y1="1436.2113" x2="44.5601" y2="1436.2113" gradientTransform="matrix(1 0 0 1 0 -1320.6614)">
	<stop  offset="8.379889e-03" style="stop-color:#333333;stop-opacity:0"/>
	<stop  offset="0.5754" style="stop-color:#808080"/>
	<stop  offset="0.6781" style="stop-color:#C7C7C7;stop-opacity:0.76"/>
	<stop  offset="0.8698" style="stop-color:#4F4F4F;stop-opacity:0.3067"/>
	<stop  offset="1" style="stop-color:#333333;stop-opacity:0"/>
</linearGradient>
<path style="fill:url(#SVGID_00000133502224850229880040000003665505565252010139_);" d="M44.8,118.7v-37H26.5V134l0,0
	c0,0.2,0,0.4,0,0.6c0,7.5,4,13.7,9.2,14.6v0.2h52.2v-30.5L44.8,118.7L44.8,118.7z"/>
<linearGradient id="SVGID_00000134216134334021774620000015519975481327316872_" gradientUnits="userSpaceOnUse" x1="57.2" y1="1438.7396" x2="57.2" y2="1468.4849" gradientTransform="matrix(1 0 0 1 0 -1320.6614)">
	<stop  offset="8.379889e-03" style="stop-color:#333333;stop-opacity:0"/>
	<stop  offset="0.5754" style="stop-color:#808080"/>
	<stop  offset="0.6781" style="stop-color:#C7C7C7;stop-opacity:0.76"/>
	<stop  offset="0.8698" style="stop-color:#4F4F4F;stop-opacity:0.3067"/>
	<stop  offset="1" style="stop-color:#333333;stop-opacity:0"/>
</linearGradient>
<path style="fill:url(#SVGID_00000134216134334021774620000015519975481327316872_);" d="M44.8,118.7v-37H26.5V134l0,0
	c0,0.2,0,0.4,0,0.6c0,7.5,4,13.7,9.2,14.6v0.2h52.2v-30.5L44.8,118.7L44.8,118.7z"/>
<linearGradient id="SVGID_00000010280654615179674870000000939157547952642189_" gradientUnits="userSpaceOnUse" x1="35.1579" y1="-521.0003" x2="53.4292" y2="-491.0664" gradientTransform="matrix(1 0 0 -1 0 -369.3386)">
	<stop  offset="0.1397" style="stop-color:#555555"/>
	<stop  offset="0.3986" style="stop-color:#515151;stop-opacity:0.8462"/>
	<stop  offset="0.5112" style="stop-color:#4D4D4D;stop-opacity:0.7793"/>
	<stop  offset="1" style="stop-color:#333333;stop-opacity:0"/>
</linearGradient>
<path style="fill:url(#SVGID_00000010280654615179674870000000939157547952642189_);" d="M44.8,118.7v-37H26.5V134l0,0
	c0,0.2,0,0.4,0,0.6c0,7.5,4,13.7,9.2,14.6v0.2h52.2v-30.5L44.8,118.7L44.8,118.7z"/>
<linearGradient id="SVGID_00000181063054492528006100000003691372637810662567_" gradientUnits="userSpaceOnUse" x1="-487.0381" y1="3402.6111" x2="-477.493" y2="3402.6111" gradientTransform="matrix(1 0 0 1 543.2952 -3348.011)">
	<stop  offset="0" style="stop-color:#3F3B3C"/>
	<stop  offset="1" style="stop-color:#3F3B3C;stop-opacity:0"/>
</linearGradient>
<polygon style="opacity:0.5;fill:url(#SVGID_00000181063054492528006100000003691372637810662567_);enable-background:new    ;" points="
	65.7,35 56.1,35 56.1,74.2 65.9,74.2 "/>
<linearGradient id="SVGID_00000066517738042120009740000008705744966529911940_" gradientUnits="userSpaceOnUse" x1="-2308.3015" y1="3274.6431" x2="-2297.9385" y2="3274.6431" gradientTransform="matrix(6.123234e-17 -1 1 6.123234e-17 -3239.293 -2273.4834)">
	<stop  offset="0" style="stop-color:#3F3B3C"/>
	<stop  offset="1" style="stop-color:#3F3B3C;stop-opacity:0"/>
</linearGradient>
<polygon style="opacity:0.5;fill:url(#SVGID_00000066517738042120009740000008705744966529911940_);enable-background:new    ;" points="
	21.6,24.6 21.6,35 49.1,35 49.1,24.4 "/>
<linearGradient id="SVGID_00000026881350699182751340000011653273886116593333_" gradientUnits="userSpaceOnUse" x1="9.5778" y1="-437.688" x2="64.3918" y2="-408.7259" gradientTransform="matrix(1 0 0 -1 0 -369.3386)">
	<stop  offset="0" style="stop-color:#919396"/>
	<stop  offset="2.573574e-03" style="stop-color:#929497"/>
	<stop  offset="0.1659" style="stop-color:#B4B6B8"/>
	<stop  offset="0.3003" style="stop-color:#C9CBCD"/>
	<stop  offset="0.3883" style="stop-color:#D1D3D4"/>
	<stop  offset="0.5177" style="stop-color:#CBCDCF"/>
	<stop  offset="0.6788" style="stop-color:#BCBEC0"/>
	<stop  offset="1" style="stop-color:#919396"/>
</linearGradient>
<rect x="12.5" y="31.5" style="fill:url(#SVGID_00000026881350699182751340000011653273886116593333_);" width="46.2" height="46.2"/>
<image style="overflow:visible;" width="200" height="200" xlink:href="../../pepsi.png"  transform="matrix(0.1021 0 0 0.1021 25.3915 44.3915)">
</image>
</svg>
