<?xml version="1.0" encoding="utf-8"?>
<!-- Generator: Adobe Illustrator 25.4.1, SVG Export Plug-In . SVG Version: 6.00 Build 0)  -->
<svg version="1.1" id="Слой_1" xmlns="http://www.w3.org/2000/svg" xmlns:xlink="http://www.w3.org/1999/xlink" x="0px" y="0px"
	 viewBox="0 0 100 160" style="enable-background:new 0 0 100 160;" xml:space="preserve">
<style type="text/css">
	.st0{clip-path:url(#SVGID_00000114766717067447918400000016238075423781079456_);}
	.st1{fill:none;stroke:#B3B3B3;stroke-width:0.5;stroke-miterlimit:10;}
	.st2{fill:#555555;}
	.st3{fill:url(#SVGID_00000012433664771164986720000006869110753597102487_);}
	.st4{fill:url(#SVGID_00000007401556332097547100000009635547688792899508_);}
	.st5{fill:url(#SVGID_00000181771464337976307750000004731213110902099111_);}
	.st6{fill:url(#SVGID_00000041996217272489238790000011414878256774540172_);}
	.st7{fill:url(#SVGID_00000056404051968462660900000009290850515652281485_);}
	.st8{opacity:0.5;fill:url(#SVGID_00000105416677859410770830000010961993123623113101_);enable-background:new    ;}
	.st9{opacity:0.5;fill:url(#SVGID_00000068636372897468462390000016119874902491336106_);enable-background:new    ;}
	.st10{fill:url(#SVGID_00000031181395044741617570000000145077652413193135_);}
</style>
<g>
	<g>
		<g>
			<g>
				<g>
					<defs>
						<polygon id="SVGID_1_" points="58.9,115 58.9,111.5 55.3,111.5 55.3,81.7 15.4,81.7 15.4,111.5 11.8,111.5 11.8,158.5 
							58.9,158.5 58.9,154.9 88.6,154.9 88.6,115 						"/>
					</defs>
					<clipPath id="SVGID_00000180361248766817519200000002833193276277996974_">
						<use xlink:href="#SVGID_1_"  style="overflow:visible;"/>
					</clipPath>
					<g style="clip-path:url(#SVGID_00000180361248766817519200000002833193276277996974_);">
						
							<image style="overflow:visible;enable-background:new    ;" width="1200" height="900" xlink:href="../../Фитинги/Резьбовые/Металл.jpg"  transform="matrix(9.609355e-02 0 0 9.609355e-02 -3.3783 80.1205)">
						</image>
					</g>
				</g>
			</g>
		</g>
	</g>
</g>
<polygon class="st1" points="58.8,115 58.8,111.5 55.2,111.5 55.2,81.7 15.2,81.7 15.2,111.5 11.7,111.5 11.7,158.5 58.8,158.5 
	58.8,154.9 88.5,154.9 88.5,115 "/>
<path class="st2" d="M50.6,120.1V81.7H19.9v53.9l0,0c0,0.1,0,0.3,0,0.4c0,8.4,6.8,15.1,15.1,15.1c0.1,0,0.3,0,0.4,0l0,0h53.1v-31
	L50.6,120.1L50.6,120.1z"/>
<linearGradient id="SVGID_00000117662933765485528630000010939067395746686103_" gradientUnits="userSpaceOnUse" x1="13.4415" y1="1437.0613" x2="52.4257" y2="1437.0613" gradientTransform="matrix(1 0 0 1 0 -1320.6614)">
	<stop  offset="8.379889e-03" style="stop-color:#333333;stop-opacity:0"/>
	<stop  offset="0.5754" style="stop-color:#808080"/>
	<stop  offset="0.6781" style="stop-color:#C7C7C7;stop-opacity:0.76"/>
	<stop  offset="0.8698" style="stop-color:#4F4F4F;stop-opacity:0.3067"/>
	<stop  offset="1" style="stop-color:#333333;stop-opacity:0"/>
</linearGradient>
<path style="fill:url(#SVGID_00000117662933765485528630000010939067395746686103_);" d="M50.6,120.1V81.7H19.9v53.9l0,0
	c0,0.1,0,0.3,0,0.4c0,8.4,6.8,15.1,15.1,15.1c0.1,0,0.3,0,0.4,0l0,0h53.1v-31L50.6,120.1L50.6,120.1z"/>
<linearGradient id="SVGID_00000023973653951531065440000018252415529629440171_" gradientUnits="userSpaceOnUse" x1="54.2" y1="1439.738" x2="54.2" y2="1473.3585" gradientTransform="matrix(1 0 0 1 0 -1320.6614)">
	<stop  offset="8.379889e-03" style="stop-color:#333333;stop-opacity:0"/>
	<stop  offset="0.5754" style="stop-color:#808080"/>
	<stop  offset="0.6781" style="stop-color:#C7C7C7;stop-opacity:0.76"/>
	<stop  offset="0.8698" style="stop-color:#4F4F4F;stop-opacity:0.3067"/>
	<stop  offset="1" style="stop-color:#333333;stop-opacity:0"/>
</linearGradient>
<path style="fill:url(#SVGID_00000023973653951531065440000018252415529629440171_);" d="M50.6,120.1V81.7H19.9v53.9l0,0
	c0,0.1,0,0.3,0,0.4c0,8.4,6.8,15.1,15.1,15.1c0.1,0,0.3,0,0.4,0l0,0h53.1v-31L50.6,120.1L50.6,120.1z"/>
<linearGradient id="SVGID_00000043421002915844279420000000711317505587905945_" gradientUnits="userSpaceOnUse" x1="11.571" y1="-544.6072" x2="50.4559" y2="-490.909" gradientTransform="matrix(1 0 0 -1 0 -369.3386)">
	<stop  offset="0" style="stop-color:#333333"/>
	<stop  offset="0.1099" style="stop-color:#454545"/>
	<stop  offset="0.2463" style="stop-color:#545454"/>
	<stop  offset="0.4068" style="stop-color:#5D5D5D"/>
	<stop  offset="0.6491" style="stop-color:#606060"/>
	<stop  offset="1" style="stop-color:#333333;stop-opacity:0"/>
</linearGradient>
<path style="fill:url(#SVGID_00000043421002915844279420000000711317505587905945_);" d="M50.6,120.1V81.7H19.9v53.9l0,0
	c0,0.1,0,0.3,0,0.4c0,8.4,6.8,15.1,15.1,15.1c0.1,0,0.3,0,0.4,0l0,0h53.1v-31L50.6,120.1L50.6,120.1z"/>
<linearGradient id="SVGID_00000148632916133179533760000009409563160475869830_" gradientUnits="userSpaceOnUse" x1="15.3" y1="1337.5613" x2="55.3" y2="1337.5613" gradientTransform="matrix(1 0 0 1 0 -1320.6614)">
	<stop  offset="0" style="stop-color:#9F9D9D"/>
	<stop  offset="0.1816" style="stop-color:#808080"/>
	<stop  offset="0.2933" style="stop-color:#9F9D9D"/>
	<stop  offset="0.5447" style="stop-color:#CCCCCC"/>
	<stop  offset="0.6732" style="stop-color:#FFFFFF"/>
	<stop  offset="0.8687" style="stop-color:#E4E3E3"/>
	<stop  offset="1" style="stop-color:#B3B3B3"/>
</linearGradient>
<rect x="15.3" y="2" style="fill:url(#SVGID_00000148632916133179533760000009409563160475869830_);" width="40" height="29.8"/>
<linearGradient id="SVGID_00000109724082603171500110000006014463099219978147_" gradientUnits="userSpaceOnUse" x1="73.8" y1="1396.0173" x2="73.8" y2="1356.0173" gradientTransform="matrix(1 0 0 1 0 -1320.6614)">
	<stop  offset="0" style="stop-color:#9F9D9D"/>
	<stop  offset="0.1816" style="stop-color:#808080"/>
	<stop  offset="0.2933" style="stop-color:#9F9D9D"/>
	<stop  offset="0.5447" style="stop-color:#CCCCCC"/>
	<stop  offset="0.6732" style="stop-color:#FFFFFF"/>
	<stop  offset="0.8687" style="stop-color:#E4E3E3"/>
	<stop  offset="1" style="stop-color:#B3B3B3"/>
</linearGradient>
<polygon style="fill:url(#SVGID_00000109724082603171500110000006014463099219978147_);" points="58.9,75.4 58.9,35.4 88.7,35.4 
	88.7,75.4 "/>
<linearGradient id="SVGID_00000013176815012632155150000009784183079560679310_" gradientUnits="userSpaceOnUse" x1="-484.9062" y1="3403.4109" x2="-475.1638" y2="3403.4109" gradientTransform="matrix(1 0 0 1 543.2952 -3348.011)">
	<stop  offset="0" style="stop-color:#3F3B3C"/>
	<stop  offset="1" style="stop-color:#3F3B3C;stop-opacity:0"/>
</linearGradient>
<polygon style="opacity:0.5;fill:url(#SVGID_00000013176815012632155150000009784183079560679310_);enable-background:new    ;" points="
	68,35.4 58.2,35.4 58.2,75.4 68.2,75.4 "/>
<linearGradient id="SVGID_00000008831770298661177040000013351884024723926182_" gradientUnits="userSpaceOnUse" x1="-2306.7007" y1="3274.593" x2="-2296.1235" y2="3274.593" gradientTransform="matrix(6.123234e-17 -1 1 6.123234e-17 -3239.293 -2273.4834)">
	<stop  offset="0" style="stop-color:#3F3B3C"/>
	<stop  offset="1" style="stop-color:#3F3B3C;stop-opacity:0"/>
</linearGradient>
<polygon style="opacity:0.5;fill:url(#SVGID_00000008831770298661177040000013351884024723926182_);enable-background:new    ;" points="
	15.3,22.8 15.3,33.4 55.3,33.4 55.3,22.6 "/>
<linearGradient id="SVGID_00000021836921628529557720000002493445170703118011_" gradientUnits="userSpaceOnUse" x1="3.0184" y1="-429.482" x2="67.8266" y2="-419.9592" gradientTransform="matrix(1 0 0 -1 0 -369.3386)">
	<stop  offset="6.699173e-02" style="stop-color:#919396"/>
	<stop  offset="0.3883" style="stop-color:#D1D3D4"/>
	<stop  offset="0.5154" style="stop-color:#CDCFD0"/>
	<stop  offset="0.6398" style="stop-color:#C1C3C5"/>
	<stop  offset="0.6788" style="stop-color:#BCBEC0"/>
	<stop  offset="0.7667" style="stop-color:#B5B7B9"/>
	<stop  offset="0.8967" style="stop-color:#A1A3A5"/>
	<stop  offset="0.9766" style="stop-color:#919396"/>
</linearGradient>
<rect x="11.7" y="31.8" style="fill:url(#SVGID_00000021836921628529557720000002493445170703118011_);" width="47.2" height="47.2"/>
<image style="overflow:visible;" width="200" height="200" xlink:href="../../pepsi.png"  transform="matrix(0.1011 0 0 0.1011 25.1879 45.2879)">
</image>
</svg>
