<?xml version="1.0" encoding="utf-8"?>
<!-- Generator: Adobe Illustrator 25.4.1, SVG Export Plug-In . SVG Version: 6.00 Build 0)  -->
<svg version="1.1" id="Слой_1" xmlns="http://www.w3.org/2000/svg" xmlns:xlink="http://www.w3.org/1999/xlink" x="0px" y="0px"
	 viewBox="0 0 100 160" style="enable-background:new 0 0 100 160;" xml:space="preserve">
<style type="text/css">
	.st0{clip-path:url(#SVGID_00000108271777081757866190000008980979480478452404_);}
	.st1{clip-path:url(#SVGID_00000044139020975172369540000006694767521122503042_);}
	.st2{fill:none;stroke:#BFBFBF;stroke-miterlimit:10;}
	.st3{fill:url(#SVGID_00000130629437848918194730000017149491179272964774_);}
	.st4{opacity:0.5;fill:url(#SVGID_00000053505866274298107430000007028837623940405632_);enable-background:new    ;}
	.st5{fill:url(#SVGID_00000160883193262009062870000001855312588628529024_);}
	.st6{opacity:0.5;fill:url(#SVGID_00000118390315384247724350000009609413481023627394_);enable-background:new    ;}
	.st7{opacity:0.5;fill:url(#SVGID_00000096044215005317759470000001682538594338827186_);enable-background:new    ;}
	.st8{opacity:0.5;fill:url(#SVGID_00000070120630184906651150000005531394664717271691_);enable-background:new    ;}
	.st9{fill:url(#SVGID_00000091735340340608718770000012813296568938077062_);}
	.st10{fill:url(#SVGID_00000176752821161419567290000008417495696783719084_);}
	.st11{fill:url(#SVGID_00000116232955758699943840000005161202485524958858_);}
	.st12{fill:url(#SVGID_00000072261068120125953710000003913467731135416982_);}
	.st13{fill:url(#SVGID_00000041991052836027211130000004400672822718714259_);}
	.st14{fill:url(#SVGID_00000035519815484847591020000009555605739665740185_);}
	.st15{fill:none;stroke:url(#SVGID_00000074424061237131097070000016616897431498822591_);stroke-width:0.75;stroke-miterlimit:10;}
	.st16{fill:none;stroke:url(#SVGID_00000178205394507626651670000012008095028745335210_);stroke-width:0.75;stroke-miterlimit:10;}
	.st17{fill:#666666;}
	.st18{fill:url(#SVGID_00000078014327453890977960000008906937384752842157_);}
	.st19{fill:url(#SVGID_00000083775794849364420170000015470428928971925913_);}
	.st20{fill:url(#SVGID_00000105395947365516964460000018187604814296426122_);}
	.st21{fill:url(#SVGID_00000102504071815901634860000005666488099298807450_);}
	.st22{fill:url(#SVGID_00000167360655632076206020000005330882320438148485_);}
</style>
<g>
	<g>
		<defs>
			<path id="SVGID_00000042709260833960500500000012972913527118422717_" d="M85.6,83.7v2.5h-1.4H61.3v-0.1h-8v-3.9v-0.1
				c-6.2-0.2-13.1-0.2-20.4,0h-3c0,0-0.9,0.1-2.3,0.2c-2,0.2-4.3,0.5-6.5,1.6c-0.8,0.3-1.5,0.7-2.1,1.1c-4.3,2.9-6.1,7.3-6.8,9.8
				c0,0.1,0,0.1,0,0.1l0,0V95c0,4.9,0.1,9.8,0.2,14.6c0.1,3.6,0.1,7.3,0.2,10.9c0,1.3,0.1,2.6,0.1,3.8c1.2,0,2.4,0,3.6,0v0.1h-0.1
				v31.7h-2.4v2.6h2.4H38h2.4v-2.6H38v-23.4H38v-8.6h4.7l0,0l0,0c0-1.3,0-2.6-0.1-4c0-1.1,0-2.3,0-3.5c0-0.3,0.1-1.5,1.1-2.4
				c0.8-0.7,1.7-0.8,2-0.9h0.1c0,0,0,0,0.1,0c2.4,0,4.9,0,7.3,0v-0.1v-5.4h31h1.3v2.5h2.6v-2.5V86.2v-2.5H85.6z"/>
		</defs>
		<clipPath id="SVGID_00000029730924105841724150000000308295124751326090_">
			<use xlink:href="#SVGID_00000042709260833960500500000012972913527118422717_"  style="overflow:visible;"/>
		</clipPath>
	</g>
	<g>
		<defs>
			<path id="SVGID_00000037671439066051609570000011960444198852449931_" d="M85.6,83.7v2.5h-1.4H61.3v-0.1h-8v-3.9v-0.1
				c-6.2-0.2-13.1-0.2-20.4,0h-3c0,0-0.9,0.1-2.3,0.2c-2,0.2-4.3,0.5-6.5,1.6c-0.8,0.3-1.5,0.7-2.1,1.1c-4.3,2.9-6.1,7.3-6.8,9.8
				c0,0.1,0,0.1,0,0.1l0,0V95c0,4.9,0.1,9.8,0.2,14.6c0.1,3.6,0.1,7.3,0.2,10.9c0,1.3,0.1,2.6,0.1,3.8c1.2,0,2.4,0,3.6,0v0.1h-0.1
				v31.7h-2.4v2.6h2.4H38h2.4v-2.6H38v-23.4H38v-8.6h4.7l0,0l0,0c0-1.3,0-2.6-0.1-4c0-1.1,0-2.3,0-3.5c0-0.3,0.1-1.5,1.1-2.4
				c0.8-0.7,1.7-0.8,2-0.9h0.1c0,0,0,0,0.1,0c2.4,0,4.9,0,7.3,0v-0.1v-5.4h31h1.3v2.5h2.6v-2.5V86.2v-2.5H85.6z"/>
		</defs>
		<defs>
			<path id="SVGID_00000075158855950421473440000006804089269519061925_" d="M85.6,83.7v2.5h-1.4l-22.9-0.1h-8v-3.9v-0.1
				c-6.2-0.2-13.1-0.2-20.4,0h-3c0,0-0.9,0.1-2.3,0.2c-2,0.2-4.3,0.5-6.5,1.6c-0.8,0.3-1.5,0.7-2.1,1.1c-4.3,2.9-6.1,7.3-6.8,9.8
				c0,0.1,0,0.1,0,0.1l0,0V95c0,4.9,0.1,9.8,0.2,14.6c0.1,3.6,0.1,7.3,0.2,10.9c0,1.3,0.1,2.6,0.1,3.8c1.2,0,2.4,0,3.6,0v0.1h-0.1
				v31.7h-2.4v2.6h2.4H38h2.4v-2.6H38v-23.4H38v-8.6h4.7l0,0l0,0c0-1.3,0-2.6-0.1-4c0-1.1,0-2.3,0-3.5c0-0.3,0.1-1.5,1.1-2.4
				c0.8-0.7,1.7-0.8,2-0.9h0.1c0,0,0,0,0.1,0c2.4,0,4.9,0,7.3,0v-0.1v-5.4h31h1.3v2.5h2.6v-2.5V86.2v-2.5H85.6z"/>
		</defs>
		<clipPath id="SVGID_00000022547962929811318560000017580187350796842645_">
			<use xlink:href="#SVGID_00000037671439066051609570000011960444198852449931_"  style="overflow:visible;"/>
		</clipPath>
		
			<clipPath id="SVGID_00000124150336414363383820000013092815676318912919_" style="clip-path:url(#SVGID_00000022547962929811318560000017580187350796842645_);">
			<use xlink:href="#SVGID_00000075158855950421473440000006804089269519061925_"  style="overflow:visible;"/>
		</clipPath>
		<g style="clip-path:url(#SVGID_00000124150336414363383820000013092815676318912919_);">
			
				<image style="overflow:visible;enable-background:new    ;" width="600" height="600" xlink:href="../../background.jpg"  transform="matrix(0.1825 0 0 0.1825 -2.9862 63.4588)">
			</image>
		</g>
	</g>
	<g>
		<path id="SVGID_00000150095572982955410010000005754116477663026591_" class="st2" d="M85.6,83.7v2.5h-1.4H61.3v-0.1h-8v-3.9v-0.1
			c-6.2-0.2-13.1-0.2-20.4,0h-3c0,0-0.9,0.1-2.3,0.2c-2,0.2-4.3,0.5-6.5,1.6c-0.8,0.3-1.5,0.7-2.1,1.1c-4.3,2.9-6.1,7.3-6.8,9.8
			c0,0.1,0,0.1,0,0.1l0,0V95c0,4.9,0.1,9.8,0.2,14.6c0.1,3.6,0.1,7.3,0.2,10.9c0,1.3,0.1,2.6,0.1,3.8c1.2,0,2.4,0,3.6,0v0.1h-0.1
			v31.7h-2.4v2.6h2.4H38h2.4v-2.6H38v-23.4H38v-8.6h4.7l0,0l0,0c0-1.3,0-2.6-0.1-4c0-1.1,0-2.3,0-3.5c0-0.3,0.1-1.5,1.1-2.4
			c0.8-0.7,1.7-0.8,2-0.9h0.1c0,0,0,0,0.1,0c2.4,0,4.9,0,7.3,0v-0.1v-5.4h31h1.3v2.5h2.6v-2.5V86.2v-2.5H85.6z"/>
	</g>
	<g>
		<path id="SVGID_1_" class="st2" d="M85.6,83.7v2.5h-1.4l-22.9-0.1h-8v-3.9v-0.1c-6.2-0.2-13.1-0.2-20.4,0h-3c0,0-0.9,0.1-2.3,0.2
			c-2,0.2-4.3,0.5-6.5,1.6c-0.8,0.3-1.5,0.7-2.1,1.1c-4.3,2.9-6.1,7.3-6.8,9.8c0,0.1,0,0.1,0,0.1l0,0V95c0,4.9,0.1,9.8,0.2,14.6
			c0.1,3.6,0.1,7.3,0.2,10.9c0,1.3,0.1,2.6,0.1,3.8c1.2,0,2.4,0,3.6,0v0.1h-0.1v31.7h-2.4v2.6h2.4H38h2.4v-2.6H38v-23.4H38v-8.6h4.7
			l0,0l0,0c0-1.3,0-2.6-0.1-4c0-1.1,0-2.3,0-3.5c0-0.3,0.1-1.5,1.1-2.4c0.8-0.7,1.7-0.8,2-0.9h0.1c0,0,0,0,0.1,0c2.4,0,4.9,0,7.3,0
			v-0.1v-5.4h31h1.3v2.5h2.6v-2.5V86.2v-2.5H85.6z"/>
	</g>
</g>
<linearGradient id="SVGID_00000137098155038769394120000011476699504812417173_" gradientUnits="userSpaceOnUse" x1="-1367.8115" y1="549.3857" x2="-1389.7096" y2="549.3857" gradientTransform="matrix(-1 0 0 -1 -1351.9635 610.0942)">
	<stop  offset="0" style="stop-color:#9D9B9B"/>
	<stop  offset="0.1816" style="stop-color:#808080"/>
	<stop  offset="0.2933" style="stop-color:#9D9B9B"/>
	<stop  offset="0.5447" style="stop-color:#CBCBCA"/>
	<stop  offset="0.6732" style="stop-color:#FFFFFF"/>
	<stop  offset="0.8687" style="stop-color:#E3E2E2"/>
	<stop  offset="1" style="stop-color:#B3B2B3"/>
</linearGradient>
<rect x="15.8" y="43.5" style="fill:url(#SVGID_00000137098155038769394120000011476699504812417173_);" width="21.9" height="34.4"/>
<linearGradient id="SVGID_00000182488334106713325600000006282267908033573020_" gradientUnits="userSpaceOnUse" x1="-2411.2993" y1="1365.3781" x2="-2398.0212" y2="1365.3781" gradientTransform="matrix(-6.123234e-17 1 -1 -6.123234e-17 1392.2271 2450.0188)">
	<stop  offset="0" style="stop-color:#3F3B3C"/>
	<stop  offset="1" style="stop-color:#3F3B3C;stop-opacity:0"/>
</linearGradient>
<polygon style="opacity:0.5;fill:url(#SVGID_00000182488334106713325600000006282267908033573020_);enable-background:new    ;" points="
	37.8,51.9 37.8,38.5 15.9,38.5 15.9,52 "/>
<linearGradient id="SVGID_00000163035102921022572050000014587016716854196867_" gradientUnits="userSpaceOnUse" x1="-2151.9895" y1="645.223" x2="-2173.7319" y2="645.223" gradientTransform="matrix(0 1 -1 0 715.6346 2179.0725)">
	<stop  offset="0" style="stop-color:#9D9B9B"/>
	<stop  offset="0.1816" style="stop-color:#808080"/>
	<stop  offset="0.2933" style="stop-color:#9D9B9B"/>
	<stop  offset="0.5447" style="stop-color:#CBCBCA"/>
	<stop  offset="0.6732" style="stop-color:#FFFFFF"/>
	<stop  offset="0.8687" style="stop-color:#E3E2E2"/>
	<stop  offset="1" style="stop-color:#B3B2B3"/>
</linearGradient>
<rect x="52.7" y="5.3" style="fill:url(#SVGID_00000163035102921022572050000014587016716854196867_);" width="35.3" height="21.7"/>
<linearGradient id="SVGID_00000176017261200475738040000011302628098237931176_" gradientUnits="userSpaceOnUse" x1="-2507.5798" y1="581.2782" x2="-2494.344" y2="581.2782" gradientTransform="matrix(1 0 0 1 2555.5591 -565.1182)">
	<stop  offset="0" style="stop-color:#3F3B3C"/>
	<stop  offset="1" style="stop-color:#3F3B3C;stop-opacity:0"/>
</linearGradient>
<polygon style="opacity:0.5;fill:url(#SVGID_00000176017261200475738040000011302628098237931176_);enable-background:new    ;" points="
	61.1,5.3 47.8,5.3 47.8,27 61.3,27 "/>
<linearGradient id="SVGID_00000095304941094154306340000004476975115035691448_" gradientUnits="userSpaceOnUse" x1="-3045.4678" y1="-357.0655" x2="-3041.9868" y2="-357.0655" gradientTransform="matrix(-1 0 0 -1 -2957.9177 -340.8796)">
	<stop  offset="0" style="stop-color:#3F3B3C"/>
	<stop  offset="1" style="stop-color:#3F3B3C;stop-opacity:0"/>
</linearGradient>
<polygon style="opacity:0.5;fill:url(#SVGID_00000095304941094154306340000004476975115035691448_);enable-background:new    ;" points="
	84.1,27 87.6,27 87.6,5.3 84,5.3 "/>
<linearGradient id="SVGID_00000101791645300376507970000017348387311388063160_" gradientUnits="userSpaceOnUse" x1="-3185.2773" y1="282.014" x2="-3181.7964" y2="282.014" gradientTransform="matrix(-6.123234e-17 -1 1 -6.123234e-17 -255.165 -3108.1687)">
	<stop  offset="0" style="stop-color:#3F3B3C"/>
	<stop  offset="5.850828e-02" style="stop-color:#3F3B3C;stop-opacity:0.9415"/>
	<stop  offset="1" style="stop-color:#3F3B3C;stop-opacity:0"/>
</linearGradient>
<polygon style="opacity:0.5;fill:url(#SVGID_00000101791645300376507970000017348387311388063160_);enable-background:new    ;" points="
	16,73.7 16,77.2 37.7,77.2 37.7,73.6 "/>
<linearGradient id="SVGID_00000120546168030884504800000012398394437673500297_" gradientUnits="userSpaceOnUse" x1="3.9703" y1="331.9751" x2="36.6847" y2="295.2917" gradientTransform="matrix(1 0 0 1 0 -290.1102)">
	<stop  offset="0" style="stop-color:#9D9B9B"/>
	<stop  offset="0.1816" style="stop-color:#808080"/>
	<stop  offset="0.2933" style="stop-color:#9D9B9B"/>
	<stop  offset="0.5447" style="stop-color:#CBCBCA"/>
	<stop  offset="0.6732" style="stop-color:#FFFFFF"/>
	<stop  offset="0.8687" style="stop-color:#E3E2E2"/>
	<stop  offset="1" style="stop-color:#B3B2B3"/>
</linearGradient>
<path style="fill:url(#SVGID_00000120546168030884504800000012398394437673500297_);" d="M53.1,1.3L29.7,1.3c0,0-7.1,0.3-10.9,2.9
	c-4.3,2.9-6.1,7.3-6.8,9.8c0,4.9,0.1,9.8,0.2,14.7c0.1,4.9,0.2,9.8,0.3,14.6h7.2c-0.2-15.9-0.2-27.5,0.1-30.1
	c0.1-0.5,0.2-1.7,0.9-2.7c1.2-1.7,3.1-1.9,3.5-1.9h29.3V1.3H53.1z"/>
<linearGradient id="SVGID_00000116234911862620145570000001961873619087810442_" gradientUnits="userSpaceOnUse" x1="17.0929" y1="301.2568" x2="50.7459" y2="327.2585" gradientTransform="matrix(1 0 0 1 0 -290.1102)">
	<stop  offset="0" style="stop-color:#59595C;stop-opacity:0"/>
	<stop  offset="1" style="stop-color:#FFFFFF"/>
</linearGradient>
<path style="fill:url(#SVGID_00000116234911862620145570000001961873619087810442_);" d="M53.1,8.6H23.9c-2.4,0-4.5,2-4.5,4.5v0.1
	c0,5,0,10.1,0,15.2c0,5-0.1,10.1-0.1,15h16.1c-0.1-2.3-0.1-4.7-0.1-7.1c0-2.4-0.1-4.9-0.1-7.3c0.2-0.7,0.6-1.7,1.5-2.6
	c1.1-1,2.2-1.5,2.7-1.6h13.6V8.6z"/>
<linearGradient id="SVGID_00000146478206689754590100000017336789510026367655_" gradientUnits="userSpaceOnUse" x1="17.789" y1="335.1941" x2="54.7263" y2="317.5186" gradientTransform="matrix(1 0 0 1 0 -290.1102)">
	<stop  offset="0" style="stop-color:#9D9B9B"/>
	<stop  offset="0.1816" style="stop-color:#808080"/>
	<stop  offset="0.2933" style="stop-color:#9D9B9B"/>
	<stop  offset="0.5447" style="stop-color:#CBCBCA"/>
	<stop  offset="0.6732" style="stop-color:#FFFFFF"/>
	<stop  offset="0.8687" style="stop-color:#E3E2E2"/>
	<stop  offset="1" style="stop-color:#B3B2B3"/>
</linearGradient>
<path style="fill:url(#SVGID_00000146478206689754590100000017336789510026367655_);" d="M53.1,24.7H39.5C39,24.9,38,25.2,37.1,26
	c-1.2,1.1-1.6,2.4-1.8,2.9c0,2.4,0,4.8,0,7.2c0.1,2.4,0.1,4.8,0.1,7.2h7.2c0-1.3,0-2.6-0.1-3.9c0-1.3,0-2.6,0-3.9c0,0,0.2-1.8,1-2.3
	c1-0.8,2.1-0.6,2.2-0.5c2.4,0,4.9,0,7.3,0L53.1,24.7L53.1,24.7z"/>
<linearGradient id="SVGID_00000049179830166025292940000015550266699792444836_" gradientUnits="userSpaceOnUse" x1="43.3014" y1="310.0761" x2="43.9812" y2="320.3302" gradientTransform="matrix(1 0 0 1 0 -290.1102)">
	<stop  offset="0" style="stop-color:#404041"/>
	<stop  offset="0.5848" style="stop-color:#525254;stop-opacity:0.4152"/>
	<stop  offset="1" style="stop-color:#59595C;stop-opacity:0"/>
</linearGradient>
<path style="fill:url(#SVGID_00000049179830166025292940000015550266699792444836_);" d="M53.1,24.7H39.5C39,24.9,38,25.2,37.1,26
	c-1.2,1.1-1.6,2.4-1.8,2.9c0.1,4.8,0.1,9.6,0.1,14.4h7.1c0-1.3,0-2.6-0.1-4c0-1.3,0-2.8,0-4c0,0,0.1-1.2,0.6-1.9
	c0.9-1,2.2-0.9,2.4-0.9c2.5,0,5.1,0,7.6,0L53.1,24.7L53.1,24.7z"/>
<linearGradient id="SVGID_00000165226828485650727740000004355435750860642723_" gradientUnits="userSpaceOnUse" x1="8.1701" y1="286.8502" x2="33.9281" y2="313.7411" gradientTransform="matrix(1 0 0 1 0 -290.1102)">
	<stop  offset="0" style="stop-color:#808184;stop-opacity:0"/>
	<stop  offset="1" style="stop-color:#A6A8AB;stop-opacity:0.86"/>
</linearGradient>
<path style="fill:url(#SVGID_00000165226828485650727740000004355435750860642723_);" d="M53.1,1.3c-7-0.2-14.9-0.2-23.5,0.1
	c-3.1,0.1-7.1,0.3-10.9,2.9c-4.3,2.9-6.1,7.3-6.8,9.8c0.1,4.9,0.1,9.8,0.2,14.7c0.1,4.9,0.2,9.8,0.2,14.6c2.4,0,4.8,0,7.2,0
	c-0.2-15.8-0.2-27.3,0-30.1c0-0.5,0.2-1.7,0.9-2.7c1.2-1.7,3.1-1.9,3.5-1.9h29.3V1.3z"/>
<linearGradient id="SVGID_00000155837834303757418530000003855259411819504810_" gradientUnits="userSpaceOnUse" x1="14.8838" y1="321.3409" x2="55.9008" y2="306.2798" gradientTransform="matrix(1 0 0 1 0 -290.1102)">
	<stop  offset="0" style="stop-color:#909295"/>
	<stop  offset="0.3883" style="stop-color:#D1D2D3"/>
	<stop  offset="0.6788" style="stop-color:#BCBDBF"/>
	<stop  offset="1" style="stop-color:#909295"/>
</linearGradient>
<path style="fill:url(#SVGID_00000155837834303757418530000003855259411819504810_);" d="M53.1,8.6H23.9c-2.4,0-4.5,2-4.5,4.5v0.1
	c0,5,0,10.1,0,15.2c0,5-0.1,10.1-0.1,15h16.1c-0.1-4.8-0.1-9.6-0.1-14.4c0.2-0.7,0.6-1.7,1.5-2.6c1.1-1,2.2-1.5,2.7-1.6h13.6
	L53.1,8.6L53.1,8.6z"/>
<linearGradient id="SVGID_00000157310621218619632070000009135171447627967120_" gradientUnits="userSpaceOnUse" x1="31.324" y1="329.6278" x2="49.8113" y2="311.1407" gradientTransform="matrix(1 0 0 1 0 -290.1102)">
	<stop  offset="0" style="stop-color:#9D9B9B"/>
	<stop  offset="0.1816" style="stop-color:#808080"/>
	<stop  offset="0.2933" style="stop-color:#9D9B9B"/>
	<stop  offset="0.5447" style="stop-color:#CBCBCA"/>
	<stop  offset="0.6732" style="stop-color:#FFFFFF"/>
	<stop  offset="0.8687" style="stop-color:#E3E2E2"/>
	<stop  offset="1" style="stop-color:#B3B2B3"/>
</linearGradient>
<path style="fill:none;stroke:url(#SVGID_00000157310621218619632070000009135171447627967120_);stroke-width:0.75;stroke-miterlimit:10;" d="
	M35.5,43.3c-0.1-2.3-0.1-4.6-0.1-7c0-2.5,0-4.9,0-7.4c0.2-0.6,0.6-2.1,2-3.2c0.8-0.6,1.6-0.9,2.1-1c4.5,0,9.1,0,13.6,0"/>
<linearGradient id="SVGID_00000128456105630511571290000014585232370323821455_" gradientUnits="userSpaceOnUse" x1="17.6635" y1="332.6052" x2="41.4059" y2="291.4821" gradientTransform="matrix(1 0 0 1 0 -290.1102)">
	<stop  offset="0" style="stop-color:#9D9B9B"/>
	<stop  offset="0.1816" style="stop-color:#808080"/>
	<stop  offset="0.2933" style="stop-color:#9D9B9B"/>
	<stop  offset="0.5447" style="stop-color:#CBCBCA"/>
	<stop  offset="0.6732" style="stop-color:#FFFFFF"/>
	<stop  offset="0.8687" style="stop-color:#E3E2E2"/>
	<stop  offset="1" style="stop-color:#B3B2B3"/>
</linearGradient>
<path style="fill:none;stroke:url(#SVGID_00000128456105630511571290000014585232370323821455_);stroke-width:0.75;stroke-miterlimit:10;" d="
	M19.5,43.3c-0.1-7.7-0.1-15.4-0.1-23.1c0-2.5,0-4.9,0-7.4c0.2-0.6,0.6-2.1,2-3.2c0.8-0.6,1.6-0.9,2.1-1c9.9,0,19.7-0.1,29.5-0.1"/>
<path class="st17" d="M88.5,88.1H34.2c-1.6,0-3.1,0-4.7,0c-1.3,0.1-3.7,0.5-6,2.1c-5,3.4-5.4,9.4-5.4,10.3c0,19.5,0,38.9,0,58.4
	h17.6v-53.1h52.8V88.1z"/>
<linearGradient id="SVGID_00000132772913950552354540000009052029243422133632_" gradientUnits="userSpaceOnUse" x1="61.3307" y1="395.8602" x2="61.3307" y2="378.2173" gradientTransform="matrix(1 0 0 1 0 -290.1102)">
	<stop  offset="8.379889e-03" style="stop-color:#333333;stop-opacity:0"/>
	<stop  offset="0.5754" style="stop-color:#808080"/>
	<stop  offset="0.6781" style="stop-color:#C7C6C5;stop-opacity:0.76"/>
	<stop  offset="0.8698" style="stop-color:#4F4F4F;stop-opacity:0.3067"/>
	<stop  offset="1" style="stop-color:#333333;stop-opacity:0"/>
</linearGradient>
<rect x="34.2" y="88.1" style="fill:url(#SVGID_00000132772913950552354540000009052029243422133632_);" width="54.3" height="17.6"/>
<linearGradient id="SVGID_00000119104296001699690620000006850991020888095151_" gradientUnits="userSpaceOnUse" x1="35.6705" y1="419.9118" x2="18.015" y2="419.9118" gradientTransform="matrix(1 0 0 1 0 -290.1102)">
	<stop  offset="8.379889e-03" style="stop-color:#333333;stop-opacity:0"/>
	<stop  offset="0.5754" style="stop-color:#808080"/>
	<stop  offset="0.6781" style="stop-color:#C7C6C5;stop-opacity:0.76"/>
	<stop  offset="0.8698" style="stop-color:#4F4F4F;stop-opacity:0.3067"/>
	<stop  offset="1" style="stop-color:#333333;stop-opacity:0"/>
</linearGradient>
<polygon style="fill:url(#SVGID_00000119104296001699690620000006850991020888095151_);" points="18,158.9 18,100.7 35.7,100.7 
	35.7,158.9 "/>
<linearGradient id="SVGID_00000170975135117546800060000011865218746177290389_" gradientUnits="userSpaceOnUse" x1="28.7866" y1="390.4925" x2="66.5456" y2="426.2643" gradientTransform="matrix(1 0 0 1 0 -290.1102)">
	<stop  offset="0" style="stop-color:#666666"/>
	<stop  offset="3.519654e-03" style="stop-color:#666666;stop-opacity:0.9965"/>
	<stop  offset="0.2031" style="stop-color:#4F4F4F;stop-opacity:0.7969"/>
	<stop  offset="0.4196" style="stop-color:#3F3F3F;stop-opacity:0.5804"/>
	<stop  offset="0.6652" style="stop-color:#363636;stop-opacity:0.3348"/>
	<stop  offset="1" style="stop-color:#333333;stop-opacity:0"/>
</linearGradient>
<path style="fill:url(#SVGID_00000170975135117546800060000011865218746177290389_);" d="M88.4,88.1H34c-1.6,0-3.1,0-4.7,0
	c-1.3,0.1-3.7,0.5-6,2.1c-5,3.4-5.4,9.4-5.4,10.3c0,19.5,0,38.9,0,58.4h17.6v-53.1h52.8V88.1z"/>
<linearGradient id="SVGID_00000024690255927695639440000009876755060770548870_" gradientUnits="userSpaceOnUse" x1="229.2267" y1="-339.1716" x2="229.2267" y2="-363.612" gradientTransform="matrix(6.123234e-17 1 -1 6.123234e-17 -325.0253 -152.6654)">
	<stop  offset="0" style="stop-color:#9D9B9B"/>
	<stop  offset="0.1816" style="stop-color:#808080"/>
	<stop  offset="0.2933" style="stop-color:#9D9B9B"/>
	<stop  offset="0.5447" style="stop-color:#CBCBCA"/>
	<stop  offset="0.6732" style="stop-color:#FFFFFF"/>
	<stop  offset="0.8687" style="stop-color:#E3E2E2"/>
	<stop  offset="1" style="stop-color:#B3B2B3"/>
</linearGradient>
<polygon style="fill:url(#SVGID_00000024690255927695639440000009876755060770548870_);" points="13.5,77.9 13.5,75.2 40.1,75.2 
	40.1,77.9 "/>
<linearGradient id="SVGID_00000003794640336714595840000006877538815518656430_" gradientUnits="userSpaceOnUse" x1="86.7573" y1="318.9623" x2="86.7573" y2="294.5218" gradientTransform="matrix(1 0 0 1 0 -290.1102)">
	<stop  offset="0" style="stop-color:#9D9B9B"/>
	<stop  offset="0.1816" style="stop-color:#808080"/>
	<stop  offset="0.2933" style="stop-color:#9D9B9B"/>
	<stop  offset="0.5447" style="stop-color:#CBCBCA"/>
	<stop  offset="0.6732" style="stop-color:#FFFFFF"/>
	<stop  offset="0.8687" style="stop-color:#E3E2E2"/>
	<stop  offset="1" style="stop-color:#B3B2B3"/>
</linearGradient>
<rect x="85.4" y="2.8" style="fill:url(#SVGID_00000003794640336714595840000006877538815518656430_);" width="2.6" height="26.7"/>
<image style="overflow:visible;enable-background:new    ;" width="200" height="200" xlink:href="../../pepsi.png"  transform="matrix(5.084780e-02 0 0 5.084780e-02 23.9961 14.5265)">
</image>
</svg>
