<?xml version="1.0" encoding="utf-8"?>
<!-- Generator: Adobe Illustrator 25.4.1, SVG Export Plug-In . SVG Version: 6.00 Build 0)  -->
<svg version="1.1" id="Слой_1" xmlns="http://www.w3.org/2000/svg" xmlns:xlink="http://www.w3.org/1999/xlink" x="0px" y="0px"
	 viewBox="0 0 100 160" style="enable-background:new 0 0 100 160;" xml:space="preserve">
<style type="text/css">
	.st0{clip-path:url(#SVGID_00000072262245157997459890000010544764275834999950_);}
	.st1{fill:none;stroke:#CCCCCC;stroke-width:0.5;stroke-miterlimit:10;}
	.st2{fill:url(#SVGID_00000003076662352414302450000000808321571163481508_);}
	.st3{opacity:0.5;fill:url(#SVGID_00000087404561232911786500000002943823604310380433_);enable-background:new    ;}
	.st4{fill:url(#SVGID_00000029042649788045436680000016584429900617618086_);}
	.st5{opacity:0.5;fill:url(#SVGID_00000077285961076183509800000016031406121515287991_);enable-background:new    ;}
	.st6{fill:url(#SVGID_00000055704126344226212950000014739934740911239599_);}
	.st7{fill:url(#SVGID_00000093150378024709768020000008892291229114784154_);}
	.st8{fill:url(#SVGID_00000158736398431736777570000010545094625314826420_);}
	.st9{fill:url(#SVGID_00000057868727840798877380000001162208357832501677_);}
	.st10{fill:url(#SVGID_00000033357422419198922200000012653149279599632266_);}
	.st11{fill:url(#SVGID_00000047752305950779899820000012951030974400660101_);}
	.st12{fill:none;stroke:url(#SVGID_00000176752893728354515330000017303250407135663266_);stroke-width:0.75;stroke-miterlimit:10;}
	.st13{fill:none;stroke:url(#SVGID_00000136380923518667818830000005168790222725289392_);stroke-width:0.75;stroke-miterlimit:10;}
	.st14{fill:#666666;}
	.st15{fill:url(#SVGID_00000141414279213272011950000000296869923009537413_);}
	.st16{fill:url(#SVGID_00000158742208500906104520000001339464744826083227_);}
	.st17{fill:url(#SVGID_00000013911290974282293290000012334542380903303839_);}
</style>
<g>
	<g>
		<g>
			<defs>
				<path id="SVGID_00000051362800566600966830000003681416329301118887_" d="M88.8,86.2H61.6v-0.1h-8.1v-4v-0.1
					c-6.2-0.2-13.2-0.2-20.7,0h-3c0,0-0.9,0.1-2.3,0.2c-1.9,0.2-4.1,0.5-6.2,1.5c-0.9,0.4-1.8,0.8-2.5,1.3c-4.3,2.9-6.1,7.3-6.9,9.8
					c0,0.1,0,0.1,0,0.1l0,0c0,0.1,0,0.1,0,0.2c0,4.9,0.1,9.8,0.2,14.7c0.1,4.2,0.2,8.5,0.3,12.8c0,0.7,0,1.4,0.1,2.1
					c1.2,0,2.5,0,3.7,0v0.1h-0.1v34.7H38v-26.3H38v-8.6h4.8l0,0l0,0c0-1.4,0-2.7-0.1-4c0-1.2,0-2.4,0-3.5c0.1-0.3,0.2-1.6,1.4-2.6
					c0.7-0.6,1.5-0.7,1.8-0.8H46c0,0,0,0,0.1,0c2.5,0,4.9,0,7.4,0v-0.1v-5.4h35.4V86.2z"/>
			</defs>
			<clipPath id="SVGID_00000126302443226373397210000014689103210658323609_">
				<use xlink:href="#SVGID_00000051362800566600966830000003681416329301118887_"  style="overflow:visible;"/>
			</clipPath>
			<g style="clip-path:url(#SVGID_00000126302443226373397210000014689103210658323609_);">
				
					<image style="overflow:visible;enable-background:new    ;" width="1200" height="900" xlink:href="../../Фитинги/Резьбовые/Металл.jpg"  transform="matrix(0.1178 0 0 0.1178 -8.0955 67.8073)">
				</image>
			</g>
		</g>
	</g>
	<g>
		<path id="SVGID_1_" class="st1" d="M88.8,86.2H61.6v-0.1h-8.1v-4v-0.1c-6.2-0.2-13.2-0.2-20.7,0h-3c0,0-0.9,0.1-2.3,0.2
			c-1.9,0.2-4.1,0.5-6.2,1.5c-0.9,0.4-1.8,0.8-2.5,1.3c-4.3,2.9-6.1,7.3-6.9,9.8c0,0.1,0,0.1,0,0.1l0,0c0,0.1,0,0.1,0,0.2
			c0,4.9,0.1,9.8,0.2,14.7c0.1,4.2,0.2,8.5,0.3,12.8c0,0.7,0,1.4,0.1,2.1c1.2,0,2.5,0,3.7,0v0.1h-0.1v34.7H38v-26.3H38v-8.6h4.8l0,0
			l0,0c0-1.4,0-2.7-0.1-4c0-1.2,0-2.4,0-3.5c0.1-0.3,0.2-1.6,1.4-2.6c0.7-0.6,1.5-0.7,1.8-0.8H46c0,0,0,0,0.1,0c2.5,0,4.9,0,7.4,0
			v-0.1v-5.4h35.4V86.2z"/>
	</g>
</g>
<linearGradient id="SVGID_00000072986540617771212170000018291667659846461579_" gradientUnits="userSpaceOnUse" x1="-1367.5118" y1="549.5542" x2="-1389.601" y2="549.5542" gradientTransform="matrix(-1 0 0 -1 -1351.9635 610.0942)">
	<stop  offset="0" style="stop-color:#9D9B9B"/>
	<stop  offset="0.1816" style="stop-color:#808080"/>
	<stop  offset="0.2933" style="stop-color:#9D9B9B"/>
	<stop  offset="0.5447" style="stop-color:#CBCBCA"/>
	<stop  offset="0.6732" style="stop-color:#FFFFFF"/>
	<stop  offset="0.8687" style="stop-color:#E3E2E2"/>
	<stop  offset="1" style="stop-color:#B3B2B3"/>
</linearGradient>
<rect x="15.5" y="43.2" style="fill:url(#SVGID_00000072986540617771212170000018291667659846461579_);" width="22.1" height="34.7"/>
<linearGradient id="SVGID_00000168087180533865175440000000078021265334281900_" gradientUnits="userSpaceOnUse" x1="-2411.6597" y1="1365.5818" x2="-2398.2659" y2="1365.5818" gradientTransform="matrix(-6.123234e-17 1 -1 -6.123234e-17 1392.2271 2450.0188)">
	<stop  offset="0" style="stop-color:#3F3B3C"/>
	<stop  offset="1" style="stop-color:#3F3B3C;stop-opacity:0"/>
</linearGradient>
<polygon style="opacity:0.5;fill:url(#SVGID_00000168087180533865175440000000078021265334281900_);enable-background:new    ;" points="
	37.7,51.6 37.7,38.1 15.6,38.1 15.6,51.8 "/>
<linearGradient id="SVGID_00000010268783308271663140000014525244422807625873_" gradientUnits="userSpaceOnUse" x1="-2152.4514" y1="645.0467" x2="-2174.3835" y2="645.0467" gradientTransform="matrix(0 1 -1 0 715.6346 2179.0725)">
	<stop  offset="0" style="stop-color:#9D9B9B"/>
	<stop  offset="0.1816" style="stop-color:#808080"/>
	<stop  offset="0.2933" style="stop-color:#9D9B9B"/>
	<stop  offset="0.5447" style="stop-color:#CBCBCA"/>
	<stop  offset="0.6732" style="stop-color:#FFFFFF"/>
	<stop  offset="0.8687" style="stop-color:#E3E2E2"/>
	<stop  offset="1" style="stop-color:#B3B2B3"/>
</linearGradient>
<rect x="52.8" y="4.7" style="fill:url(#SVGID_00000010268783308271663140000014525244422807625873_);" width="35.6" height="21.9"/>
<linearGradient id="SVGID_00000167391542059044268010000008885473353927140516_" gradientUnits="userSpaceOnUse" x1="-2507.5994" y1="580.7209" x2="-2494.2478" y2="580.7209" gradientTransform="matrix(1 0 0 1 2555.5591 -565.1182)">
	<stop  offset="0" style="stop-color:#3F3B3C"/>
	<stop  offset="1" style="stop-color:#3F3B3C;stop-opacity:0"/>
</linearGradient>
<polygon style="opacity:0.5;fill:url(#SVGID_00000167391542059044268010000008885473353927140516_);enable-background:new    ;" points="
	61.2,4.6 47.7,4.6 47.7,26.6 61.3,26.6 "/>
<linearGradient id="SVGID_00000109740309858875057480000013451824897355853225_" gradientUnits="userSpaceOnUse" x1="3.567" y1="331.6422" x2="36.5668" y2="294.6386" gradientTransform="matrix(1 0 0 1 0 -290.1102)">
	<stop  offset="0" style="stop-color:#9D9B9B"/>
	<stop  offset="0.1816" style="stop-color:#808080"/>
	<stop  offset="0.2933" style="stop-color:#9D9B9B"/>
	<stop  offset="0.5447" style="stop-color:#CBCBCA"/>
	<stop  offset="0.6732" style="stop-color:#FFFFFF"/>
	<stop  offset="0.8687" style="stop-color:#E3E2E2"/>
	<stop  offset="1" style="stop-color:#B3B2B3"/>
</linearGradient>
<path style="fill:url(#SVGID_00000109740309858875057480000013451824897355853225_);" d="M53.1,0.7L29.5,0.6c0,0-7.2,0.3-11,2.9
	c-4.3,2.9-6.1,7.3-6.9,9.8c0,5,0.1,9.9,0.2,14.9C11.8,33.1,11.9,38,12,43h7.2c-0.2-16.1-0.2-27.7,0.1-30.4c0.1-0.5,0.2-1.7,0.9-2.7
	c1.3-1.7,3.1-1.9,3.5-1.9h29.5V0.7H53.1z"/>
<linearGradient id="SVGID_00000152967628528817325070000017754197594257863071_" gradientUnits="userSpaceOnUse" x1="16.804" y1="300.6559" x2="50.7506" y2="326.8844" gradientTransform="matrix(1 0 0 1 0 -290.1102)">
	<stop  offset="0" style="stop-color:#59595C;stop-opacity:0"/>
	<stop  offset="1" style="stop-color:#FFFFFF"/>
</linearGradient>
<path style="fill:url(#SVGID_00000152967628528817325070000017754197594257863071_);" d="M53.1,7.9H23.7c-2.5,0-4.5,2-4.5,4.6v0.1
	c0,5.1,0,10.2,0,15.3c0,5.1-0.1,10.2-0.1,15.2h16.2c-0.1-2.4-0.1-4.8-0.1-7.2c0-2.5-0.1-4.9-0.1-7.4c0.2-0.7,0.6-1.7,1.5-2.6
	c1.1-1,2.3-1.5,2.7-1.6h13.7V7.9z"/>
<linearGradient id="SVGID_00000168107595904949436000000007732762323934551726_" gradientUnits="userSpaceOnUse" x1="17.5062" y1="334.8893" x2="54.7658" y2="317.0595" gradientTransform="matrix(1 0 0 1 0 -290.1102)">
	<stop  offset="0" style="stop-color:#9D9B9B"/>
	<stop  offset="0.1816" style="stop-color:#808080"/>
	<stop  offset="0.2933" style="stop-color:#9D9B9B"/>
	<stop  offset="0.5447" style="stop-color:#CBCBCA"/>
	<stop  offset="0.6732" style="stop-color:#FFFFFF"/>
	<stop  offset="0.8687" style="stop-color:#E3E2E2"/>
	<stop  offset="1" style="stop-color:#B3B2B3"/>
</linearGradient>
<path style="fill:url(#SVGID_00000168107595904949436000000007732762323934551726_);" d="M53.1,24.2H39.4c-0.5,0.2-1.5,0.5-2.5,1.4
	c-1.2,1.1-1.6,2.4-1.8,2.9c0,2.4,0,4.8,0,7.3c0.1,2.5,0.1,4.9,0.1,7.2h7.2c0-1.3,0-2.6-0.1-4c0-1.3,0-2.7,0-4c0,0,0.2-1.8,1-2.4
	c1-0.8,2.1-0.6,2.3-0.5c2.5,0,4.9,0,7.4,0L53.1,24.2L53.1,24.2z"/>
<linearGradient id="SVGID_00000127731154909795919060000005614102609218814875_" gradientUnits="userSpaceOnUse" x1="43.2412" y1="309.5521" x2="43.927" y2="319.8956" gradientTransform="matrix(1 0 0 1 0 -290.1102)">
	<stop  offset="0" style="stop-color:#404041"/>
	<stop  offset="0.5848" style="stop-color:#525254;stop-opacity:0.4152"/>
	<stop  offset="1" style="stop-color:#59595C;stop-opacity:0"/>
</linearGradient>
<path style="fill:url(#SVGID_00000127731154909795919060000005614102609218814875_);" d="M53.1,24.2H39.4c-0.5,0.2-1.5,0.5-2.5,1.4
	c-1.2,1.1-1.6,2.4-1.8,2.9c0.1,4.8,0.1,9.7,0.1,14.5h7.2c0-1.4,0-2.7-0.1-4c0-1.3,0-2.8,0-4.1c0,0,0.1-1.2,0.6-1.9
	c0.9-1,2.3-0.9,2.4-0.9c2.6,0,5.1,0,7.7,0L53.1,24.2L53.1,24.2z"/>
<linearGradient id="SVGID_00000122716928123169541660000014978394515899664310_" gradientUnits="userSpaceOnUse" x1="7.8034" y1="286.1235" x2="33.7861" y2="313.2491" gradientTransform="matrix(1 0 0 1 0 -290.1102)">
	<stop  offset="0" style="stop-color:#808184;stop-opacity:0"/>
	<stop  offset="1" style="stop-color:#A6A8AB;stop-opacity:0.86"/>
</linearGradient>
<path style="fill:url(#SVGID_00000122716928123169541660000014978394515899664310_);" d="M53.1,0.6c-7.1-0.2-15.1-0.2-23.7,0.1
	c-3.1,0.1-7.1,0.3-11,2.9c-4.3,2.9-6.1,7.3-6.9,9.8c0.1,4.9,0.1,9.9,0.2,14.9c0.1,4.9,0.2,9.8,0.2,14.8c2.4,0,4.8,0,7.2,0
	c-0.2-15.9-0.2-27.6,0-30.4c0-0.5,0.2-1.7,0.9-2.7C21.4,8.2,23.2,8,23.6,8h29.5V0.6z"/>
<linearGradient id="SVGID_00000166638672874842097890000002950217146509339550_" gradientUnits="userSpaceOnUse" x1="14.5757" y1="320.9152" x2="55.9506" y2="305.7226" gradientTransform="matrix(1 0 0 1 0 -290.1102)">
	<stop  offset="0" style="stop-color:#909295"/>
	<stop  offset="0.3883" style="stop-color:#D1D2D3"/>
	<stop  offset="0.6788" style="stop-color:#BCBDBF"/>
	<stop  offset="1" style="stop-color:#909295"/>
</linearGradient>
<path style="fill:url(#SVGID_00000166638672874842097890000002950217146509339550_);" d="M53.1,7.9H23.7c-2.5,0-4.5,2-4.5,4.6v0.1
	c0,5,0,10.2,0,15.3c0,5.1-0.1,10.2-0.1,15.2h16.3c-0.1-4.9-0.1-9.7-0.1-14.5c0.2-0.7,0.6-1.7,1.5-2.6c1.1-1,2.3-1.5,2.7-1.6h13.7
	L53.1,7.9L53.1,7.9z"/>
<linearGradient id="SVGID_00000128485200366130258190000013490740292445535383_" gradientUnits="userSpaceOnUse" x1="31.1614" y1="329.2731" x2="49.8066" y2="310.6279" gradientTransform="matrix(1 0 0 1 0 -290.1102)">
	<stop  offset="0" style="stop-color:#9D9B9B"/>
	<stop  offset="0.1816" style="stop-color:#808080"/>
	<stop  offset="0.2933" style="stop-color:#9D9B9B"/>
	<stop  offset="0.5447" style="stop-color:#CBCBCA"/>
	<stop  offset="0.6732" style="stop-color:#FFFFFF"/>
	<stop  offset="0.8687" style="stop-color:#E3E2E2"/>
	<stop  offset="1" style="stop-color:#B3B2B3"/>
</linearGradient>
<path style="fill:none;stroke:url(#SVGID_00000128485200366130258190000013490740292445535383_);stroke-width:0.75;stroke-miterlimit:10;" d="
	M35.3,43c-0.1-2.3-0.1-4.6-0.1-7c0-2.5,0-5,0-7.4c0.2-0.6,0.6-2.1,2-3.2c0.8-0.6,1.6-0.9,2.1-1c4.6,0,9.2,0,13.7,0"/>
<linearGradient id="SVGID_00000061436777839228089810000016628965036121621137_" gradientUnits="userSpaceOnUse" x1="17.3811" y1="332.2767" x2="41.3284" y2="290.7988" gradientTransform="matrix(1 0 0 1 0 -290.1102)">
	<stop  offset="0" style="stop-color:#9D9B9B"/>
	<stop  offset="0.1816" style="stop-color:#808080"/>
	<stop  offset="0.2933" style="stop-color:#9D9B9B"/>
	<stop  offset="0.5447" style="stop-color:#CBCBCA"/>
	<stop  offset="0.6732" style="stop-color:#FFFFFF"/>
	<stop  offset="0.8687" style="stop-color:#E3E2E2"/>
	<stop  offset="1" style="stop-color:#B3B2B3"/>
</linearGradient>
<path style="fill:none;stroke:url(#SVGID_00000061436777839228089810000016628965036121621137_);stroke-width:0.75;stroke-miterlimit:10;" d="
	M19.2,43c-0.1-7.7-0.1-15.5-0.1-23.3c0-2.5,0-5,0-7.4c0.2-0.6,0.6-2.1,2-3.2c0.8-0.6,1.6-0.9,2.1-1c9.9,0,19.8-0.1,29.8-0.1"/>
<path class="st14" d="M88.8,88.2H34c-1.6,0-3.1,0-4.7,0c-1.4,0.1-3.7,0.5-6,2.1c-5,3.5-5.5,9.5-5.5,10.4c0,19.6,0,39.3,0,58.9h17.8
	V106h53.2V88.2z"/>
<linearGradient id="SVGID_00000116925586847964667930000008525990111964753804_" gradientUnits="userSpaceOnUse" x1="61.4278" y1="396.0847" x2="61.4278" y2="378.2878" gradientTransform="matrix(1 0 0 1 0 -290.1102)">
	<stop  offset="8.379889e-03" style="stop-color:#333333;stop-opacity:0"/>
	<stop  offset="0.5754" style="stop-color:#808080"/>
	<stop  offset="0.6781" style="stop-color:#C7C6C5;stop-opacity:0.76"/>
	<stop  offset="0.8698" style="stop-color:#4F4F4F;stop-opacity:0.3067"/>
	<stop  offset="1" style="stop-color:#333333;stop-opacity:0"/>
</linearGradient>
<rect x="34" y="88.2" style="fill:url(#SVGID_00000116925586847964667930000008525990111964753804_);" width="54.8" height="17.8"/>
<linearGradient id="SVGID_00000162327184228219509010000006511999124616407709_" gradientUnits="userSpaceOnUse" x1="35.5437" y1="420.3461" x2="17.7342" y2="420.3461" gradientTransform="matrix(1 0 0 1 0 -290.1102)">
	<stop  offset="8.379889e-03" style="stop-color:#333333;stop-opacity:0"/>
	<stop  offset="0.5754" style="stop-color:#808080"/>
	<stop  offset="0.6781" style="stop-color:#C7C6C5;stop-opacity:0.76"/>
	<stop  offset="0.8698" style="stop-color:#4F4F4F;stop-opacity:0.3067"/>
	<stop  offset="1" style="stop-color:#333333;stop-opacity:0"/>
</linearGradient>
<polygon style="fill:url(#SVGID_00000162327184228219509010000006511999124616407709_);" points="17.7,159.6 17.7,100.9 35.5,100.9 
	35.5,159.6 "/>
<linearGradient id="SVGID_00000123427086539411967670000009879074977640696462_" gradientUnits="userSpaceOnUse" x1="28.5998" y1="390.6701" x2="66.6883" y2="426.754" gradientTransform="matrix(1 0 0 1 0 -290.1102)">
	<stop  offset="0" style="stop-color:#666666"/>
	<stop  offset="3.519654e-03" style="stop-color:#666666;stop-opacity:0.9965"/>
	<stop  offset="0.2031" style="stop-color:#4F4F4F;stop-opacity:0.7969"/>
	<stop  offset="0.4196" style="stop-color:#3F3F3F;stop-opacity:0.5804"/>
	<stop  offset="0.6652" style="stop-color:#363636;stop-opacity:0.3348"/>
	<stop  offset="1" style="stop-color:#333333;stop-opacity:0"/>
</linearGradient>
<path style="fill:url(#SVGID_00000123427086539411967670000009879074977640696462_);" d="M88.7,88.2H33.9c-1.6,0-3.1,0-4.7,0
	c-1.4,0.1-3.7,0.5-6,2.1c-5,3.5-5.5,9.5-5.5,10.4c0,19.6,0,39.3,0,58.9h17.8V106h53.3V88.2z"/>
<image style="overflow:visible;enable-background:new    ;" width="200" height="200" xlink:href="../../pepsi.png"  transform="matrix(5.129144e-02 0 0 5.129144e-02 23.7674 13.955)">
</image>
</svg>
