<?xml version="1.0" encoding="utf-8"?>
<!-- Generator: Adobe Illustrator 25.4.1, SVG Export Plug-In . SVG Version: 6.00 Build 0)  -->
<svg version="1.1" id="Слой_1" xmlns="http://www.w3.org/2000/svg" xmlns:xlink="http://www.w3.org/1999/xlink" x="0px" y="0px"
	 viewBox="0 0 100 160" style="enable-background:new 0 0 100 160;" xml:space="preserve">
<style type="text/css">
	.st0{clip-path:url(#SVGID_00000085226602311449000810000018217793366145330362_);}
	.st1{clip-path:url(#SVGID_00000178184420823908446730000002838779024150829229_);}
	.st2{fill:none;stroke:#CCCCCC;stroke-miterlimit:10;}
	.st3{fill:url(#SVGID_00000064334106878410625790000004396519036465100449_);}
	.st4{opacity:0.5;fill:url(#SVGID_00000036210377418247768340000016423963228194271627_);enable-background:new    ;}
	.st5{fill:url(#SVGID_00000145029079786726424550000017469605960263923900_);}
	.st6{opacity:0.5;fill:url(#SVGID_00000140013005528459714970000009693001513955956914_);enable-background:new    ;}
	.st7{fill:url(#SVGID_00000163055539705352188700000003656251771499015099_);}
	.st8{opacity:0.5;fill:url(#SVGID_00000003821165117133154540000010068119045844491425_);enable-background:new    ;}
	.st9{opacity:0.5;fill:url(#SVGID_00000112615231641790521750000017051482041618893715_);enable-background:new    ;}
	.st10{opacity:0.5;fill:url(#SVGID_00000040544945740481130300000013134439568877318277_);enable-background:new    ;}
	.st11{opacity:0.5;fill:url(#SVGID_00000011716283803009412180000004228522033353814168_);enable-background:new    ;}
	.st12{fill:url(#SVGID_00000091736389013423191210000013159290685786204843_);}
	.st13{fill:url(#SVGID_00000064325736195418385780000009347324818895828920_);}
	.st14{fill:url(#SVGID_00000082343840546945957710000002703979557814990730_);}
	.st15{fill:url(#SVGID_00000157292114219701879840000002683179468323206553_);}
	.st16{fill:url(#SVGID_00000055706227386858601980000008226635045961045433_);}
	.st17{fill:url(#SVGID_00000103239929147422895010000014626646877067971750_);}
	.st18{opacity:0.49;fill:url(#SVGID_00000037686444925543872630000012359331236975619493_);enable-background:new    ;}
	.st19{fill:none;stroke:url(#SVGID_00000072270185307751577140000001644924176370443175_);stroke-miterlimit:10;}
	.st20{fill:none;stroke:url(#SVGID_00000062169701686747488690000015367845050867535529_);stroke-miterlimit:10;}
	.st21{fill:none;stroke:url(#SVGID_00000017492703152922715470000006297851830319025804_);stroke-miterlimit:10;}
	.st22{fill:#676767;}
	.st23{fill:url(#SVGID_00000083773519184417141990000005247340252458868921_);}
	.st24{fill:url(#SVGID_00000031207887489044293750000002000771474200346281_);}
	.st25{fill:url(#SVGID_00000155109293103036132390000002822710457793040294_);}
	.st26{fill:url(#SVGID_00000138534802993944876560000002693722054588162961_);}
	.st27{fill:url(#SVGID_00000139270919972664412820000005810353198395414185_);}
	.st28{fill:url(#SVGID_00000131328490867747375380000001581929729551414171_);}
</style>
<g>
	<g>
		<defs>
			<path id="SVGID_00000069367072438399114880000004188595947788651185_" d="M96.7,91.9v1.3h-2.2H77.3h-6.2v-3.4v-0.1H28.8v0.1v3.4
				h-6H5.6h-2v-1.3H1.3v1.3v17.9v1.3h2.2v-1.3h2.2H23h5.8c0,1.3,0,3,0,3h4.1c0.6,0.1,1.8,0.5,3,1.6c1.4,1.4,1.7,3,1.8,3.5
				c0,1.5,0,3,0,4.5h3.4v22.7v2.1h-1.3v2.2h1.3H59h1.3v-2.2H59v-2.2V129h0.1v-5.4h3.2c0-1.4,0-2.9,0-4.4c0-0.5,0.2-2.2,1.6-3.6
				c1.3-1.4,2.8-1.6,3.3-1.7c1.4,0,2.7,0,4.1,0l0.1-3h6.3h17.1h2.1v1.3h2.2v-1.3V93.2v-1.3C99.1,91.9,96.7,91.9,96.7,91.9z"/>
		</defs>
		<clipPath id="SVGID_00000069374106701820178370000013188622449482803625_">
			<use xlink:href="#SVGID_00000069367072438399114880000004188595947788651185_"  style="overflow:visible;"/>
		</clipPath>
	</g>
	<g>
		<defs>
			<path id="SVGID_00000029724660957334014430000000543931586392891568_" d="M96.7,91.9v1.3h-2.2H77.3h-6.2v-3.4v-0.1H28.8v0.1v3.4
				h-6H5.6h-2v-1.3H1.3v1.3v17.9v1.3h2.2v-1.3h2.2H23h5.8c0,1.3,0,3,0,3h4.1c0.6,0.1,1.8,0.5,3,1.6c1.4,1.4,1.7,3,1.8,3.5
				c0,1.5,0,3,0,4.5h3.4v22.7v2.1h-1.3v2.2h1.3H59h1.3v-2.2H59v-2.2V129h0.1v-5.4h3.2c0-1.4,0-2.9,0-4.4c0-0.5,0.2-2.2,1.6-3.6
				c1.3-1.4,2.8-1.6,3.3-1.7c1.4,0,2.7,0,4.1,0l0.1-3h6.3h17.1h2.1v1.3h2.2v-1.3V93.2v-1.3C99.1,91.9,96.7,91.9,96.7,91.9z"/>
		</defs>
		<defs>
			<path id="SVGID_00000145745825607410339700000008834541795016673411_" d="M96.7,91.9v1.3h-2.2H77.3h-6.2v-3.4v-0.1H28.8v0.1v3.4
				h-6H5.6h-2v-1.3H1.3v1.3v17.9v1.3h2.2v-1.3h2.2H23h5.8c0,1.3,0,3,0,3h4.1c0.6,0.1,1.8,0.5,3,1.6c1.4,1.4,1.7,3,1.8,3.5
				c0,1.5,0,3,0,4.5h3.4v22.7v2.1h-1.3v2.2h1.3H59h1.3v-2.2H59v-2.2V129h0.1v-5.4h3.2c0-1.4,0-2.9,0-4.4c0-0.5,0.2-2.2,1.6-3.6
				c1.3-1.4,2.8-1.6,3.3-1.7c1.4,0,2.7,0,4.1,0l0.1-3h6.3h17.1h2.1v1.3h2.2v-1.3V93.2v-1.3C99.1,91.9,96.7,91.9,96.7,91.9z"/>
		</defs>
		<clipPath id="SVGID_00000167371731378104135950000015111100422792815242_">
			<use xlink:href="#SVGID_00000029724660957334014430000000543931586392891568_"  style="overflow:visible;"/>
		</clipPath>
		
			<clipPath id="SVGID_00000124148002870643520140000002723271740229487551_" style="clip-path:url(#SVGID_00000167371731378104135950000015111100422792815242_);">
			<use xlink:href="#SVGID_00000145745825607410339700000008834541795016673411_"  style="overflow:visible;"/>
		</clipPath>
		<g style="clip-path:url(#SVGID_00000124148002870643520140000002723271740229487551_);">
			
				<image style="overflow:visible;enable-background:new    ;" width="600" height="600" xlink:href="../../background.jpg"  transform="matrix(0.19 0 0 0.19 -7.35 75.3743)">
			</image>
		</g>
	</g>
	<g>
		<path id="SVGID_00000098208239095806382090000011355058334531337874_" class="st2" d="M96.7,91.9v1.3h-2.2H77.3h-6.2v-3.4v-0.1
			H28.8v0.1v3.4h-6H5.6h-2v-1.3H1.3v1.3v17.9v1.3h2.2v-1.3h2.2H23h5.8c0,1.3,0,3,0,3h4.1c0.6,0.1,1.8,0.5,3,1.6
			c1.4,1.4,1.7,3,1.8,3.5c0,1.5,0,3,0,4.5h3.4v22.7v2.1h-1.3v2.2h1.3H59h1.3v-2.2H59v-2.2V129h0.1v-5.4h3.2c0-1.4,0-2.9,0-4.4
			c0-0.5,0.2-2.2,1.6-3.6c1.3-1.4,2.8-1.6,3.3-1.7c1.4,0,2.7,0,4.1,0l0.1-3h6.3h17.1h2.1v1.3h2.2v-1.3V93.2v-1.3
			C99.1,91.9,96.7,91.9,96.7,91.9z"/>
	</g>
	<g>
		<path id="SVGID_1_" class="st2" d="M96.7,91.9v1.3h-2.2H77.3h-6.2v-3.4v-0.1H28.8v0.1v3.4h-6H5.6h-2v-1.3H1.3v1.3v17.9v1.3h2.2
			v-1.3h2.2H23h5.8c0,1.3,0,3,0,3h4.1c0.6,0.1,1.8,0.5,3,1.6c1.4,1.4,1.7,3,1.8,3.5c0,1.5,0,3,0,4.5h3.4v22.7v2.1h-1.3v2.2h1.3H59
			h1.3v-2.2H59v-2.2V129h0.1v-5.4h3.2c0-1.4,0-2.9,0-4.4c0-0.5,0.2-2.2,1.6-3.6c1.3-1.4,2.8-1.6,3.3-1.7c1.4,0,2.7,0,4.1,0l0.1-3
			h6.3h17.1h2.1v1.3h2.2v-1.3V93.2v-1.3C99.1,91.9,96.7,91.9,96.7,91.9z"/>
	</g>
</g>
<linearGradient id="SVGID_00000016054499438775395060000016365002384569442475_" gradientUnits="userSpaceOnUse" x1="-2042.635" y1="-668.0143" x2="-2060.5002" y2="-668.0143" gradientTransform="matrix(0 1 1 0 750.4143 2074.0725)">
	<stop  offset="0" style="stop-color:#9D9B9B"/>
	<stop  offset="0.1816" style="stop-color:#808080"/>
	<stop  offset="0.2933" style="stop-color:#9D9B9B"/>
	<stop  offset="0.5447" style="stop-color:#CBCBCA"/>
	<stop  offset="0.6732" style="stop-color:#FFFFFF"/>
	<stop  offset="0.8687" style="stop-color:#E3E2E2"/>
	<stop  offset="1" style="stop-color:#B3B2B3"/>
</linearGradient>
<rect x="65.8" y="13.5" style="fill:url(#SVGID_00000016054499438775395060000016365002384569442475_);" width="33.2" height="17.9"/>
<linearGradient id="SVGID_00000023984383262880969150000002736983508336246659_" gradientUnits="userSpaceOnUse" x1="-2490.4785" y1="-777.3478" x2="-2478.0662" y2="-777.3478" gradientTransform="matrix(1 0 0 -1 2555.5591 -754.8978)">
	<stop  offset="0" style="stop-color:#3F3B3C"/>
	<stop  offset="1" style="stop-color:#3F3B3C;stop-opacity:0"/>
</linearGradient>
<polygon style="opacity:0.5;fill:url(#SVGID_00000023984383262880969150000002736983508336246659_);enable-background:new    ;" points="
	77.4,13.5 64.9,13.5 64.9,31.4 77.5,31.4 "/>
<linearGradient id="SVGID_00000044153524341910117510000008579803725314195123_" gradientUnits="userSpaceOnUse" x1="-1074.2368" y1="-167.1964" x2="-1092.1023" y2="-167.1964" gradientTransform="matrix(-1 0 0 1 -1033.1367 221.6964)">
	<stop  offset="0" style="stop-color:#9D9B9B"/>
	<stop  offset="0.1816" style="stop-color:#808080"/>
	<stop  offset="0.2933" style="stop-color:#9D9B9B"/>
	<stop  offset="0.5447" style="stop-color:#CBCBCA"/>
	<stop  offset="0.6732" style="stop-color:#FFFFFF"/>
	<stop  offset="0.8687" style="stop-color:#E3E2E2"/>
	<stop  offset="1" style="stop-color:#B3B2B3"/>
</linearGradient>
<rect x="41.1" y="37.9" style="fill:url(#SVGID_00000044153524341910117510000008579803725314195123_);" width="17.9" height="33.2"/>
<linearGradient id="SVGID_00000067914807220643976900000006188324794142161300_" gradientUnits="userSpaceOnUse" x1="-1989.6555" y1="-1745.7335" x2="-1977.2432" y2="-1745.7335" gradientTransform="matrix(6.123234e-17 1 1 -6.123234e-17 1795.8335 2026.8413)">
	<stop  offset="0" style="stop-color:#3F3B3C"/>
	<stop  offset="1" style="stop-color:#3F3B3C;stop-opacity:0"/>
</linearGradient>
<polygon style="opacity:0.5;fill:url(#SVGID_00000067914807220643976900000006188324794142161300_);enable-background:new    ;" points="
	59,49.5 59,37 41.2,37 41.2,49.7 "/>
<linearGradient id="SVGID_00000176741272985423654730000001310332288248566971_" gradientUnits="userSpaceOnUse" x1="-1544.4783" y1="755.1851" x2="-1526.6128" y2="755.1851" gradientTransform="matrix(-6.123234e-17 -1 -1 6.123234e-17 773.0851 -1513.0449)">
	<stop  offset="0" style="stop-color:#9D9B9B"/>
	<stop  offset="0.1816" style="stop-color:#808080"/>
	<stop  offset="0.2933" style="stop-color:#9D9B9B"/>
	<stop  offset="0.5447" style="stop-color:#CBCBCA"/>
	<stop  offset="0.6732" style="stop-color:#FFFFFF"/>
	<stop  offset="0.8687" style="stop-color:#E3E2E2"/>
	<stop  offset="1" style="stop-color:#B3B2B3"/>
</linearGradient>
<rect x="1.3" y="13.5" style="fill:url(#SVGID_00000176741272985423654730000001310332288248566971_);" width="33.2" height="17.9"/>
<linearGradient id="SVGID_00000018223043772699402310000011187193927145538488_" gradientUnits="userSpaceOnUse" x1="-1067.2878" y1="-1293.4753" x2="-1054.8755" y2="-1293.4753" gradientTransform="matrix(-1 0 0 1 -1032.0597 1315.9253)">
	<stop  offset="0" style="stop-color:#3F3B3C"/>
	<stop  offset="1" style="stop-color:#3F3B3C;stop-opacity:0"/>
</linearGradient>
<polygon style="opacity:0.5;fill:url(#SVGID_00000018223043772699402310000011187193927145538488_);enable-background:new    ;" points="
	23,31.4 35.4,31.4 35.4,13.5 22.8,13.5 "/>
<linearGradient id="SVGID_00000181770426025728999200000018038388931626788486_" gradientUnits="userSpaceOnUse" x1="-390.6623" y1="-2415.1753" x2="-386.4655" y2="-2415.1753" gradientTransform="matrix(1 0 0 -1 392.1597 -2392.7253)">
	<stop  offset="0" style="stop-color:#3F3B3C"/>
	<stop  offset="8.166289e-02" style="stop-color:#3F3B3C;stop-opacity:0.9183"/>
	<stop  offset="1" style="stop-color:#3F3B3C;stop-opacity:0"/>
</linearGradient>
<polygon style="opacity:0.5;fill:url(#SVGID_00000181770426025728999200000018038388931626788486_);enable-background:new    ;" points="
	5.6,13.5 1.4,13.5 1.4,31.4 5.7,31.4 "/>
<linearGradient id="SVGID_00000169556285906004519900000004842717006058763444_" gradientUnits="userSpaceOnUse" x1="-1294.9402" y1="-2245.9275" x2="-1290.7433" y2="-2245.9275" gradientTransform="matrix(6.123234e-17 -1 -1 -6.123234e-17 -2195.8774 -1224.0118)">
	<stop  offset="0" style="stop-color:#3F3B3C"/>
	<stop  offset="8.166289e-02" style="stop-color:#3F3B3C;stop-opacity:0.9183"/>
	<stop  offset="1" style="stop-color:#3F3B3C;stop-opacity:0"/>
</linearGradient>
<polygon style="opacity:0.5;fill:url(#SVGID_00000169556285906004519900000004842717006058763444_);enable-background:new    ;" points="
	41.1,66.8 41.1,71 59,71 59,66.7 "/>
<linearGradient id="SVGID_00000111157846959316807310000012950597454002560919_" gradientUnits="userSpaceOnUse" x1="-1000.8089" y1="-1426.6018" x2="-996.6121" y2="-1426.6018" gradientTransform="matrix(-1 0 0 1 -902.0033 1449.0518)">
	<stop  offset="0" style="stop-color:#3F3B3C"/>
	<stop  offset="8.166289e-02" style="stop-color:#3F3B3C;stop-opacity:0.9183"/>
	<stop  offset="1" style="stop-color:#3F3B3C;stop-opacity:0"/>
</linearGradient>
<polygon style="opacity:0.5;fill:url(#SVGID_00000111157846959316807310000012950597454002560919_);enable-background:new    ;" points="
	94.7,31.4 98.9,31.4 98.9,13.5 94.6,13.5 "/>
<linearGradient id="SVGID_00000049944667159571757790000013853364993728367248_" gradientUnits="userSpaceOnUse" x1="28.9" y1="-1580.1899" x2="71.3" y2="-1580.1899" gradientTransform="matrix(1 0 0 -1 0 -1550.8899)">
	<stop  offset="0" style="stop-color:#909295"/>
	<stop  offset="0.3883" style="stop-color:#D1D2D3"/>
	<stop  offset="0.6788" style="stop-color:#BCBDBF"/>
	<stop  offset="1" style="stop-color:#909295"/>
</linearGradient>
<path style="fill:url(#SVGID_00000049944667159571757790000013853364993728367248_);" d="M41.7,43.9V32.7c-0.1-0.3-0.3-1-0.7-1.6
	c-0.7-0.9-1.6-1.1-2-1.2c-3.3,0-6.8,0-10.1,0V14.7h42.4c0,5.1,0,10,0,15.1c-3.3,0-6.7,0-10,0c-0.5,0.1-1.3,0.5-2,1.2
	c-0.5,0.6-0.7,1.6-0.7,1.6v11.2C58.4,43.9,47.3,43.9,41.7,43.9z"/>
<linearGradient id="SVGID_00000079444425973901560800000014415202210534884491_" gradientUnits="userSpaceOnUse" x1="-3.7389" y1="-509.7241" x2="85.3024" y2="-508.6615" gradientTransform="matrix(1 0 0 -1 0 -479.8898)">
	<stop  offset="0" style="stop-color:#9D9B9B"/>
	<stop  offset="0.1816" style="stop-color:#808080"/>
	<stop  offset="0.2933" style="stop-color:#9D9B9B"/>
	<stop  offset="0.5447" style="stop-color:#BBBDBF"/>
	<stop  offset="0.6732" style="stop-color:#E6E7E8"/>
	<stop  offset="0.8687" style="stop-color:#E3E2E2"/>
	<stop  offset="1" style="stop-color:#B3B2B3"/>
</linearGradient>
<path style="fill:url(#SVGID_00000079444425973901560800000014415202210534884491_);" d="M41.7,43.9V32.7c-0.1-0.3-0.3-1-0.7-1.6
	c-0.7-0.9-1.6-1.1-2-1.2c-3.3,0-6.8,0-10.1,0V14.7h42.4c0,5.1,0,10,0,15.1c-3.3,0-6.7,0-10,0c-0.5,0.1-1.3,0.5-2,1.2
	c-0.5,0.6-0.7,1.6-0.7,1.6v11.2C58.5,43.9,47.3,43.9,41.7,43.9z"/>
<linearGradient id="SVGID_00000155137364409474077530000009343854655881116034_" gradientUnits="userSpaceOnUse" x1="24.4554" y1="-504.812" x2="40.5255" y2="-518.5438" gradientTransform="matrix(1 0 0 -1 0 -479.8898)">
	<stop  offset="0.1816" style="stop-color:#808080"/>
	<stop  offset="0.2933" style="stop-color:#9D9B9B"/>
	<stop  offset="0.5447" style="stop-color:#CBCBCA"/>
	<stop  offset="0.6732" style="stop-color:#E8E5E5"/>
	<stop  offset="0.8687" style="stop-color:#E3E2E2"/>
	<stop  offset="1" style="stop-color:#B3B2B3"/>
</linearGradient>
<path style="fill:url(#SVGID_00000155137364409474077530000009343854655881116034_);" d="M28.8,34.4H36c0.2,0.1,0.8,0.2,1.2,0.8
	c0.3,0.4,0.4,0.8,0.5,1.1c0,2.6,0,5.3,0,7.9h3.9V32.7c-0.1-0.3-0.3-1-0.7-1.6c-0.7-0.9-1.6-1.1-2-1.2c-3.3,0-6.8,0-10.1,0
	C28.8,30,28.8,34.4,28.8,34.4z"/>
<linearGradient id="SVGID_00000080170973859204223190000011856735258638882453_" gradientUnits="userSpaceOnUse" x1="54.4542" y1="-522.3155" x2="67.6497" y2="-512.1033" gradientTransform="matrix(1 0 0 -1 0 -479.8898)">
	<stop  offset="0" style="stop-color:#9D9B9B"/>
	<stop  offset="0.1816" style="stop-color:#808080"/>
	<stop  offset="0.2933" style="stop-color:#9D9B9B"/>
	<stop  offset="0.5447" style="stop-color:#CBCBCA"/>
	<stop  offset="0.6732" style="stop-color:#E8E5E5"/>
	<stop  offset="0.8687" style="stop-color:#E3E2E2"/>
	<stop  offset="1" style="stop-color:#B3B2B3"/>
</linearGradient>
<path style="fill:url(#SVGID_00000080170973859204223190000011856735258638882453_);" d="M71.2,34.4H64c-0.2,0.1-0.8,0.2-1.2,0.8
	c-0.3,0.4-0.5,0.8-0.5,1.1c0,2.6,0,5.3,0,7.9h-3.9V32.7c0.1-0.3,0.3-1,0.7-1.6c0.7-0.9,1.7-1.1,2-1.2c3.4,0,6.8,0,10.2,0L71.2,34.4
	L71.2,34.4z"/>
<linearGradient id="SVGID_00000112604711332775084300000009100782855695714946_" gradientUnits="userSpaceOnUse" x1="28.8" y1="-1563.2899" x2="71.2" y2="-1563.2899" gradientTransform="matrix(1 0 0 -1 0 -1550.8899)">
	<stop  offset="0" style="stop-color:#909295"/>
	<stop  offset="0.3883" style="stop-color:#D1D2D3"/>
	<stop  offset="0.6788" style="stop-color:#BCBDBF"/>
	<stop  offset="1" style="stop-color:#909295"/>
</linearGradient>
<rect x="28.8" y="10" style="fill:url(#SVGID_00000112604711332775084300000009100782855695714946_);" width="42.4" height="4.8"/>
<linearGradient id="SVGID_00000096758666748239450930000011700845303377876381_" gradientUnits="userSpaceOnUse" x1="28.8" y1="-1563.3899" x2="71.2" y2="-1563.3899" gradientTransform="matrix(1 0 0 -1 0 -1550.8899)">
	<stop  offset="0" style="stop-color:#59595C;stop-opacity:0"/>
	<stop  offset="0.4749" style="stop-color:#FFFFFF"/>
	<stop  offset="0.5701" style="stop-color:#FCFDFF;stop-opacity:0.8187"/>
	<stop  offset="0.6515" style="stop-color:#F1F1F1;stop-opacity:0.6636"/>
	<stop  offset="0.728" style="stop-color:#DFDFDF;stop-opacity:0.518"/>
	<stop  offset="0.8014" style="stop-color:#C6C6C6;stop-opacity:0.3783"/>
	<stop  offset="0.8726" style="stop-color:#A5A6A7;stop-opacity:0.2426"/>
	<stop  offset="0.9412" style="stop-color:#808081;stop-opacity:0.112"/>
	<stop  offset="1" style="stop-color:#59595C;stop-opacity:0"/>
</linearGradient>
<rect x="28.8" y="10.1" style="fill:url(#SVGID_00000096758666748239450930000011700845303377876381_);" width="42.4" height="4.8"/>
<linearGradient id="SVGID_00000093167516305995984410000018313331858112511403_" gradientUnits="userSpaceOnUse" x1="49.7854" y1="-1537.4073" x2="50.1701" y2="-1583.8135" gradientTransform="matrix(1 0 0 -1 0 -1550.8899)">
	<stop  offset="0.4342" style="stop-color:#59595C;stop-opacity:0"/>
	<stop  offset="0.4564" style="stop-color:#5E5E61;stop-opacity:0.1036"/>
	<stop  offset="0.4836" style="stop-color:#6D6D70;stop-opacity:0.2311"/>
	<stop  offset="0.5136" style="stop-color:#868689;stop-opacity:0.3712"/>
	<stop  offset="0.5455" style="stop-color:#A9A9AB;stop-opacity:0.5204"/>
	<stop  offset="0.5785" style="stop-color:#D6D6D6;stop-opacity:0.6749"/>
	<stop  offset="0.6053" style="stop-color:#FFFFFF;stop-opacity:0.8"/>
</linearGradient>
<rect x="28.8" y="10" style="opacity:0.49;fill:url(#SVGID_00000093167516305995984410000018313331858112511403_);enable-background:new    ;" width="42.4" height="4.8"/>
<linearGradient id="SVGID_00000023996279020591963650000014177133933013163923_" gradientUnits="userSpaceOnUse" x1="28.8" y1="-1565.5898" x2="71.2" y2="-1565.5898" gradientTransform="matrix(1 0 0 -1 0 -1550.8899)">
	<stop  offset="2.513967e-02" style="stop-color:#676767"/>
	<stop  offset="0.3212" style="stop-color:#9D9B9B"/>
	<stop  offset="0.6732" style="stop-color:#FFFFFF"/>
	<stop  offset="0.7793" style="stop-color:#E3E2E2"/>
	<stop  offset="1" style="stop-color:#909295"/>
</linearGradient>
<line style="fill:none;stroke:url(#SVGID_00000023996279020591963650000014177133933013163923_);stroke-miterlimit:10;" x1="28.8" y1="14.7" x2="71.2" y2="14.7"/>
<linearGradient id="SVGID_00000013182509484416046270000002359107847068707512_" gradientUnits="userSpaceOnUse" x1="57.3215" y1="-1594.5677" x2="66.9851" y2="-1577.8298" gradientTransform="matrix(1 0 0 -1 0 -1550.8899)">
	<stop  offset="2.513967e-02" style="stop-color:#676767"/>
	<stop  offset="0.3212" style="stop-color:#9D9B9B"/>
	<stop  offset="0.5168" style="stop-color:#FFFFFF"/>
	<stop  offset="0.7793" style="stop-color:#E3E2E2"/>
	<stop  offset="1" style="stop-color:#909295"/>
</linearGradient>
<path style="fill:none;stroke:url(#SVGID_00000013182509484416046270000002359107847068707512_);stroke-miterlimit:10;" d="
	M71.2,29.9H61.1c-0.2,0-1.2,0.1-1.9,0.9s-0.8,1.6-0.8,1.9c0,3.7,0,7.5,0,11.2"/>
<linearGradient id="SVGID_00000121986974940361165660000014910811846937896378_" gradientUnits="userSpaceOnUse" x1="42.6341" y1="-1594.576" x2="32.9768" y2="-1577.849" gradientTransform="matrix(1 0 0 -1 0 -1550.8899)">
	<stop  offset="2.513967e-02" style="stop-color:#676767"/>
	<stop  offset="0.3212" style="stop-color:#9D9B9B"/>
	<stop  offset="0.5168" style="stop-color:#FFFFFF"/>
	<stop  offset="0.7793" style="stop-color:#E3E2E2"/>
	<stop  offset="1" style="stop-color:#909295"/>
</linearGradient>
<path style="fill:none;stroke:url(#SVGID_00000121986974940361165660000014910811846937896378_);stroke-miterlimit:10;" d="
	M41.7,43.9V32.7c-0.1-0.4-0.3-1-0.7-1.6C40,30,38.6,30,38.3,30c-3.2,0-6.3,0-9.5,0"/>
<rect x="1.3" y="94.7" class="st22" width="97.5" height="14"/>
<linearGradient id="SVGID_00000183233601845265528650000001064476312458135936_" gradientUnits="userSpaceOnUse" x1="50.05" y1="-588.5616" x2="50.05" y2="-574.5616" gradientTransform="matrix(1 0 0 -1 0 -479.8898)">
	<stop  offset="8.379889e-03" style="stop-color:#333333;stop-opacity:0"/>
	<stop  offset="0.5754" style="stop-color:#808080"/>
	<stop  offset="0.6781" style="stop-color:#C7C6C5;stop-opacity:0.76"/>
	<stop  offset="0.8698" style="stop-color:#4F4F4F;stop-opacity:0.3067"/>
	<stop  offset="1" style="stop-color:#333333;stop-opacity:0"/>
</linearGradient>
<rect x="1.3" y="94.7" style="fill:url(#SVGID_00000183233601845265528650000001064476312458135936_);" width="97.5" height="14"/>
<rect x="43.1" y="108" class="st22" width="14" height="42.7"/>
<linearGradient id="SVGID_00000144298568406848935030000007765968043143004807_" gradientUnits="userSpaceOnUse" x1="43.0579" y1="-608.3328" x2="57.0579" y2="-608.3328" gradientTransform="matrix(1 0 0 -1 0 -479.8898)">
	<stop  offset="8.379889e-03" style="stop-color:#333333;stop-opacity:0"/>
	<stop  offset="0.4087" style="stop-color:#808080"/>
	<stop  offset="0.5427" style="stop-color:#C7C6C5;stop-opacity:0.76"/>
	<stop  offset="0.8698" style="stop-color:#4F4F4F;stop-opacity:0.3067"/>
	<stop  offset="1" style="stop-color:#333333;stop-opacity:0"/>
</linearGradient>
<path style="fill:url(#SVGID_00000144298568406848935030000007765968043143004807_);" d="M43.1,150.7v-42.1c0.7-0.6,3.4-2.6,7.3-2.4
	c3.5,0.1,5.9,1.8,6.7,2.4c0,14.1,0,28,0,42.1H43.1z"/>
<linearGradient id="SVGID_00000078036816837284056310000007591619244156029114_" gradientUnits="userSpaceOnUse" x1="50.1" y1="-586.0757" x2="50.1" y2="-630.5898" gradientTransform="matrix(1 0 0 -1 0 -479.8898)">
	<stop  offset="0" style="stop-color:#676767"/>
	<stop  offset="0.1026" style="stop-color:#5E5E5E;stop-opacity:0.8974"/>
	<stop  offset="0.433" style="stop-color:#464646;stop-opacity:0.567"/>
	<stop  offset="0.7403" style="stop-color:#383838;stop-opacity:0.2597"/>
	<stop  offset="1" style="stop-color:#333333;stop-opacity:0"/>
</linearGradient>
<path style="fill:url(#SVGID_00000078036816837284056310000007591619244156029114_);" d="M43.1,150.7v-42.1c0.7-0.6,3.4-2.6,7.3-2.4
	c3.5,0.1,5.9,1.8,6.7,2.4c0,14.1,0,28,0,42.1H43.1z"/>
<linearGradient id="SVGID_00000038395001200053638990000007680137510091494790_" gradientUnits="userSpaceOnUse" x1="97.8" y1="472.8588" x2="97.8" y2="452.3004" gradientTransform="matrix(1 0 0 1 0 -440.1102)">
	<stop  offset="0" style="stop-color:#9D9B9B"/>
	<stop  offset="0.1816" style="stop-color:#808080"/>
	<stop  offset="0.2933" style="stop-color:#9D9B9B"/>
	<stop  offset="0.5447" style="stop-color:#CBCBCA"/>
	<stop  offset="0.6732" style="stop-color:#FFFFFF"/>
	<stop  offset="0.8687" style="stop-color:#E3E2E2"/>
	<stop  offset="1" style="stop-color:#B3B2B3"/>
</linearGradient>
<rect x="96.7" y="12.2" style="fill:url(#SVGID_00000038395001200053638990000007680137510091494790_);" width="2.2" height="20.6"/>
<linearGradient id="SVGID_00000008146396152498384850000014723917854371693999_" gradientUnits="userSpaceOnUse" x1="2.4" y1="472.8588" x2="2.4" y2="452.3004" gradientTransform="matrix(1 0 0 1 0 -440.1102)">
	<stop  offset="0" style="stop-color:#9D9B9B"/>
	<stop  offset="0.1816" style="stop-color:#808080"/>
	<stop  offset="0.2933" style="stop-color:#9D9B9B"/>
	<stop  offset="0.5447" style="stop-color:#CBCBCA"/>
	<stop  offset="0.6732" style="stop-color:#FFFFFF"/>
	<stop  offset="0.8687" style="stop-color:#E3E2E2"/>
	<stop  offset="1" style="stop-color:#B3B2B3"/>
</linearGradient>
<rect x="1.3" y="12.2" style="fill:url(#SVGID_00000008146396152498384850000014723917854371693999_);" width="2.2" height="20.6"/>
<linearGradient id="SVGID_00000126295564451768125410000007925307214666771596_" gradientUnits="userSpaceOnUse" x1="288.8479" y1="-321.9601" x2="288.8479" y2="-342.5151" gradientTransform="matrix(6.123234e-17 1 -1 6.123234e-17 -282.2175 -218.8979)">
	<stop  offset="0" style="stop-color:#9D9B9B"/>
	<stop  offset="0.1816" style="stop-color:#808080"/>
	<stop  offset="0.2933" style="stop-color:#9D9B9B"/>
	<stop  offset="0.5447" style="stop-color:#CBCBCA"/>
	<stop  offset="0.6732" style="stop-color:#FFFFFF"/>
	<stop  offset="0.8687" style="stop-color:#E3E2E2"/>
	<stop  offset="1" style="stop-color:#B3B2B3"/>
</linearGradient>
<polygon style="fill:url(#SVGID_00000126295564451768125410000007925307214666771596_);" points="39.8,71.1 39.8,68.8 60.3,68.8 
	60.3,71.1 "/>
<image style="overflow:visible;" width="200" height="200" xlink:href="../../pepsi.png"  transform="matrix(5.122340e-02 0 0 5.122340e-02 45.5053 19.0553)">
</image>
</svg>
