<?xml version="1.0" encoding="utf-8"?>
<!-- Generator: Adobe Illustrator 25.4.1, SVG Export Plug-In . SVG Version: 6.00 Build 0)  -->
<svg version="1.1" id="Слой_1" xmlns="http://www.w3.org/2000/svg" xmlns:xlink="http://www.w3.org/1999/xlink" x="0px" y="0px"
	 viewBox="0 0 100 160" style="enable-background:new 0 0 100 160;" xml:space="preserve">
<style type="text/css">
	.st0{clip-path:url(#SVGID_00000061434001792678702720000012241709240454733731_);}
	.st1{fill:none;stroke:#B3B3B3;stroke-width:0.5;stroke-miterlimit:10;}
	.st2{fill:url(#SVGID_00000014606599930604184180000014865975748456011658_);}
	.st3{fill:url(#SVGID_00000005969337035085312550000006715290253242360732_);}
	.st4{opacity:0.5;fill:url(#SVGID_00000121962869070110731530000003736587929711986067_);enable-background:new    ;}
	.st5{opacity:0.5;fill:url(#SVGID_00000119099277157183621710000005877250320299625660_);enable-background:new    ;}
	.st6{fill:url(#SVGID_00000116213906939221857090000000871483968138015143_);}
	.st7{opacity:0.5;fill:url(#SVGID_00000022527590676393117480000002044730932429848750_);enable-background:new    ;}
	.st8{fill:url(#SVGID_00000106853281013564091330000009121722382531105947_);}
	.st9{fill:#666666;}
	.st10{fill:url(#SVGID_00000016785155282356569740000014264501385184699045_);}
	.st11{fill:url(#SVGID_00000122687649122696067170000009732887636975282069_);}
	.st12{fill:url(#SVGID_00000013879253884793832080000004079345659533979790_);}
	.st13{fill:url(#SVGID_00000082357421856429312900000016874531192793607359_);}
</style>
<g>
	<g>
		<g>
			<g>
				<g>
					<defs>
						<polygon id="SVGID_1_" points="75.4,114.6 71.4,114.6 71.4,111.6 68.2,111.6 68.2,84.6 31.4,84.6 31.4,105.1 31.4,111.6 
							28,111.6 28,114.8 28,114.8 28,114.8 1,114.8 1,151.7 21.4,151.7 21.4,151.7 28,151.7 28,155 71.4,155 71.4,151.9 75.5,151.9 
							98.9,151.9 98.9,114.6 						"/>
					</defs>
					<clipPath id="SVGID_00000128477620209769548950000007552973555929580434_">
						<use xlink:href="#SVGID_1_"  style="overflow:visible;"/>
					</clipPath>
					<g style="clip-path:url(#SVGID_00000128477620209769548950000007552973555929580434_);">
						
							<image style="overflow:visible;enable-background:new    ;" width="1200" height="900" xlink:href="../../Фитинги/Резьбовые/Металл.jpg"  transform="matrix(9.260694e-02 0 0 9.260694e-02 -5.412 80.8943)">
						</image>
					</g>
				</g>
			</g>
		</g>
	</g>
</g>
<polygon class="st1" points="75.2,114.6 71.2,114.6 71.2,111.5 68.1,111.5 68.1,84.5 31.2,84.5 31.2,105 31.2,111.5 27.8,111.5 
	27.8,114.7 27.8,114.7 27.8,114.7 0.8,114.7 0.8,151.5 21.2,151.5 21.2,151.5 27.8,151.5 27.8,154.9 71.2,154.9 71.2,151.8 
	75.4,151.8 98.7,151.8 98.7,114.6 "/>
<linearGradient id="SVGID_00000156548090618454602750000011169268827136770488_" gradientUnits="userSpaceOnUse" x1="31.4" y1="-465.0886" x2="68.2" y2="-465.0886" gradientTransform="matrix(1 0 0 -1 0 -447.3386)">
	<stop  offset="0" style="stop-color:#9F9D9D"/>
	<stop  offset="0.1816" style="stop-color:#808080"/>
	<stop  offset="0.2933" style="stop-color:#9F9D9D"/>
	<stop  offset="0.5447" style="stop-color:#CCCCCC"/>
	<stop  offset="0.6732" style="stop-color:#FFFFFF"/>
	<stop  offset="0.8687" style="stop-color:#E4E3E3"/>
	<stop  offset="1" style="stop-color:#B3B3B3"/>
</linearGradient>
<rect x="31.4" y="4.3" style="fill:url(#SVGID_00000156548090618454602750000011169268827136770488_);" width="36.8" height="26.9"/>
<linearGradient id="SVGID_00000145044812750251297300000009847554751116578709_" gradientUnits="userSpaceOnUse" x1="85.05" y1="-518.6884" x2="85.05" y2="-481.5276" gradientTransform="matrix(1 0 0 -1 0 -447.3386)">
	<stop  offset="0" style="stop-color:#9F9D9D"/>
	<stop  offset="0.1816" style="stop-color:#808080"/>
	<stop  offset="0.2933" style="stop-color:#9F9D9D"/>
	<stop  offset="0.5447" style="stop-color:#CCCCCC"/>
	<stop  offset="0.6732" style="stop-color:#FFFFFF"/>
	<stop  offset="0.8687" style="stop-color:#E4E3E3"/>
	<stop  offset="1" style="stop-color:#B3B3B3"/>
</linearGradient>
<polygon style="fill:url(#SVGID_00000145044812750251297300000009847554751116578709_);" points="71.3,71.3 71.3,34.2 98.8,34.2 
	98.8,71.3 "/>
<linearGradient id="SVGID_00000143614984095204141860000005593679209007498173_" gradientUnits="userSpaceOnUse" x1="-477.4576" y1="-2527.4382" x2="-467.8734" y2="-2527.4382" gradientTransform="matrix(1 0 0 -1 543.2952 -2474.6882)">
	<stop  offset="0" style="stop-color:#3F3B3C"/>
	<stop  offset="1" style="stop-color:#3F3B3C;stop-opacity:0"/>
</linearGradient>
<polygon style="opacity:0.5;fill:url(#SVGID_00000143614984095204141860000005593679209007498173_);enable-background:new    ;" points="
	75.3,34.2 65.7,34.2 65.7,71.3 75.5,71.3 "/>
<linearGradient id="SVGID_00000129190569071690847010000016214778603960068537_" gradientUnits="userSpaceOnUse" x1="-2386.4832" y1="-2335.7703" x2="-2376.0776" y2="-2335.7703" gradientTransform="matrix(6.123234e-17 -1 -1 -6.123234e-17 -2285.9702 -2351.4834)">
	<stop  offset="0" style="stop-color:#3F3B3C"/>
	<stop  offset="1" style="stop-color:#3F3B3C;stop-opacity:0"/>
</linearGradient>
<polygon style="opacity:0.5;fill:url(#SVGID_00000129190569071690847010000016214778603960068537_);enable-background:new    ;" points="
	31.4,24.7 31.4,35.2 68.2,35.2 68.2,24.6 "/>
<linearGradient id="SVGID_00000136398271252457420070000000088755359928684208_" gradientUnits="userSpaceOnUse" x1="-1094.2462" y1="701.4073" x2="-1057.4462" y2="701.4073" gradientTransform="matrix(6.123234e-17 -1 -1 -6.123234e-17 715.9573 -1023.106)">
	<stop  offset="0" style="stop-color:#9F9D9D"/>
	<stop  offset="0.1816" style="stop-color:#808080"/>
	<stop  offset="0.2933" style="stop-color:#9F9D9D"/>
	<stop  offset="0.5447" style="stop-color:#CCCCCC"/>
	<stop  offset="0.6732" style="stop-color:#FFFFFF"/>
	<stop  offset="0.8687" style="stop-color:#E4E3E3"/>
	<stop  offset="1" style="stop-color:#B3B3B3"/>
</linearGradient>
<rect x="1.1" y="34.3" style="fill:url(#SVGID_00000136398271252457420070000000088755359928684208_);" width="26.9" height="36.8"/>
<linearGradient id="SVGID_00000177465734955443056180000006254268946459002530_" gradientUnits="userSpaceOnUse" x1="-1219.9841" y1="-1210.0643" x2="-1209.5786" y2="-1210.0643" gradientTransform="matrix(-1 0 0 1 -1188.1875 1262.8644)">
	<stop  offset="0" style="stop-color:#3F3B3C"/>
	<stop  offset="1" style="stop-color:#3F3B3C;stop-opacity:0"/>
</linearGradient>
<polygon style="opacity:0.5;fill:url(#SVGID_00000177465734955443056180000006254268946459002530_);enable-background:new    ;" points="
	21.5,71.2 32,71.2 32,34.4 21.4,34.4 "/>
<linearGradient id="SVGID_00000109712141184787168010000002928768485907213223_" gradientUnits="userSpaceOnUse" x1="20.0546" y1="1457.8601" x2="79.5083" y2="1449.1239" gradientTransform="matrix(1 0 0 1 0 -1400.6614)">
	<stop  offset="6.699173e-02" style="stop-color:#919396"/>
	<stop  offset="0.3883" style="stop-color:#D1D3D4"/>
	<stop  offset="0.5154" style="stop-color:#CDCFD0"/>
	<stop  offset="0.6398" style="stop-color:#C1C3C5"/>
	<stop  offset="0.6788" style="stop-color:#BCBEC0"/>
	<stop  offset="0.7667" style="stop-color:#B5B7B9"/>
	<stop  offset="0.8967" style="stop-color:#A1A3A5"/>
	<stop  offset="0.9766" style="stop-color:#919396"/>
</linearGradient>
<rect x="28" y="31.2" style="fill:url(#SVGID_00000109712141184787168010000002928768485907213223_);" width="43.3" height="43.3"/>
<rect x="1" y="119.1" class="st9" width="97.9" height="28.1"/>
<linearGradient id="SVGID_00000090277913727339185670000014817922743523592590_" gradientUnits="userSpaceOnUse" x1="49.65" y1="1519.942" x2="49.65" y2="1546.9341" gradientTransform="matrix(1 0 0 1 0 -1400.6614)">
	<stop  offset="8.379889e-03" style="stop-color:#333333;stop-opacity:0"/>
	<stop  offset="0.5754" style="stop-color:#808080"/>
	<stop  offset="0.6781" style="stop-color:#C7C7C7;stop-opacity:0.76"/>
	<stop  offset="0.8698" style="stop-color:#4F4F4F;stop-opacity:0.3067"/>
	<stop  offset="1" style="stop-color:#333333;stop-opacity:0"/>
</linearGradient>
<polygon style="fill:url(#SVGID_00000090277913727339185670000014817922743523592590_);" points="98.6,119 98.6,147.1 0.7,147.1 
	0.7,119 "/>
<linearGradient id="SVGID_00000175297724171477323430000016661767738652037253_" gradientUnits="userSpaceOnUse" x1="-1631.2113" y1="-284.6824" x2="-1630.9506" y2="-313.2392" gradientTransform="matrix(-1 0 0 -1 -1581.3535 -174.3888)">
	<stop  offset="0" style="stop-color:#333333;stop-opacity:0.5"/>
	<stop  offset="1" style="stop-color:#333333;stop-opacity:0"/>
</linearGradient>
<polygon style="fill:url(#SVGID_00000175297724171477323430000016661767738652037253_);" points="0.7,147.1 0.7,119 98.6,119 
	98.6,147.1 "/>
<path class="st9" d="M64.2,119.1c-0.7,0.9-5.7,6.5-14.1,6.4c-8.3,0-13.3-5.6-14-6.4c0-11.5,0-23,0-34.5h28.1V119.1z"/>
<linearGradient id="SVGID_00000013185207993289339320000015049397165116042911_" gradientUnits="userSpaceOnUse" x1="36.1" y1="1505.712" x2="64.2" y2="1505.712" gradientTransform="matrix(1 0 0 1 0 -1400.6614)">
	<stop  offset="8.379889e-03" style="stop-color:#333333;stop-opacity:0"/>
	<stop  offset="0.5754" style="stop-color:#808080"/>
	<stop  offset="0.6781" style="stop-color:#C7C7C7;stop-opacity:0.76"/>
	<stop  offset="0.8698" style="stop-color:#4F4F4F;stop-opacity:0.3067"/>
	<stop  offset="1" style="stop-color:#333333;stop-opacity:0"/>
</linearGradient>
<path style="fill:url(#SVGID_00000013185207993289339320000015049397165116042911_);" d="M64.2,119.1c-0.7,0.9-5.7,6.5-14.1,6.4
	c-8.3,0-13.3-5.6-14-6.4c0-11.5,0-23,0-34.5h28.1V119.1z"/>
<linearGradient id="SVGID_00000135673762649312546540000014943623847028201092_" gradientUnits="userSpaceOnUse" x1="50.15" y1="1532.1001" x2="50.15" y2="1496.4968" gradientTransform="matrix(1 0 0 1 0 -1400.6614)">
	<stop  offset="0.1034" style="stop-color:#666666"/>
	<stop  offset="1" style="stop-color:#333333;stop-opacity:0"/>
</linearGradient>
<path style="fill:url(#SVGID_00000135673762649312546540000014943623847028201092_);" d="M64.2,119.1c-0.7,0.9-5.7,6.5-14.1,6.4
	c-8.3,0-13.3-5.6-14-6.4c0-11.5,0-23,0-34.5h28.1V119.1z"/>
<image style="overflow:visible;" width="200" height="200" xlink:href="../../pepsi.png"  transform="matrix(9.935109e-02 0 0 9.935109e-02 40.7149 43.1723)">
</image>
</svg>
