<?xml version="1.0" encoding="utf-8"?>
<!-- Generator: Adobe Illustrator 25.4.1, SVG Export Plug-In . SVG Version: 6.00 Build 0)  -->
<svg version="1.1" id="Слой_1" xmlns="http://www.w3.org/2000/svg" xmlns:xlink="http://www.w3.org/1999/xlink" x="0px" y="0px"
	 viewBox="0 0 100 160" style="enable-background:new 0 0 100 160;" xml:space="preserve">
<style type="text/css">
	.st0{clip-path:url(#SVGID_00000030481922897236255290000004712141434315995536_);}
	.st1{fill:none;stroke:#CCCCCC;stroke-miterlimit:10;}
	.st2{fill:url(#SVGID_00000018926282128481129150000004591060671040765318_);}
	.st3{fill:url(#SVGID_00000066516242121364698530000017274986437364303530_);}
	.st4{fill:url(#SVGID_00000131358443661705265090000010639148727915789979_);}
	.st5{opacity:0.53;fill:url(#SVGID_00000178887843355062803790000009397794475191926146_);enable-background:new    ;}
	.st6{fill:url(#SVGID_00000152952632673644233270000012287362378140758162_);}
	.st7{fill:url(#SVGID_00000181785195237245975990000015510305588322626458_);}
	.st8{fill:url(#SVGID_00000023255029035029543970000001074805113065553326_);}
	.st9{fill:url(#SVGID_00000136393072752520838600000009468237945329724085_);}
	.st10{fill:url(#SVGID_00000018200773381011139070000006089403544825284492_);}
	.st11{fill:url(#SVGID_00000000902319694191344850000011687699940699606970_);}
	.st12{fill:url(#SVGID_00000049202777235367634940000003788100794072018599_);}
	.st13{fill:url(#SVGID_00000083057937029020626930000003909050460068260763_);}
	.st14{fill:url(#SVGID_00000036944051646170116880000001309104902160350127_);}
	.st15{fill:url(#SVGID_00000054240143035706720110000003352239157320661400_);}
	.st16{fill:url(#SVGID_00000173150066925597143120000007408846858099764869_);}
	.st17{fill:url(#SVGID_00000043458109537869020290000016074177340804318109_);}
	.st18{fill:url(#SVGID_00000005238008433890346590000007220130235617356439_);}
	.st19{fill:url(#SVGID_00000122705538535068112120000011053036621620772535_);}
	.st20{fill:url(#SVGID_00000139279903410201271010000000118751175613963924_);}
	.st21{fill:url(#SVGID_00000085949807040697537940000009387335989006165925_);}
	.st22{opacity:0.5;fill:url(#SVGID_00000049941364300469510260000009267870564309914768_);enable-background:new    ;}
	.st23{fill:#FFFFFF;}
	.st24{fill:#6B6B6B;}
	.st25{fill:url(#SVGID_00000152258107471808999430000000947099940800238779_);}
	.st26{fill:url(#SVGID_00000096740512396860229510000012560963962148563085_);}
	.st27{fill:url(#SVGID_00000163042075352931526910000013444784837646020745_);}
	.st28{fill:url(#SVGID_00000039105891316793919040000000369953813603701149_);}
	.st29{fill:url(#SVGID_00000060029213566541854730000000215413241795757440_);}
	.st30{fill:url(#SVGID_00000101790044754091148280000007051863061426157210_);}
	.st31{fill:url(#SVGID_00000008835598354746052690000014799028416059541394_);}
	.st32{fill:url(#SVGID_00000065795042709304026000000007202924152692290717_);}
</style>
<g>
	<g>
		<defs>
			<path id="SVGID_00000010301117165063941960000002072579358129506185_" d="M80.4,94.3c0-2.1,0-4.3,0-6.4l-1.7-5.2H66l-1.9,5.2v5.8
				h-3.7h-1.2h-1.6l-2.6-4.1c-0.7,1.3-1.4,2.7-2.1,4.1l-2.6-4.1c-0.7,1.3-1.4,2.7-2.1,4.1l-2.6-4.1c-0.7,1.3-1.4,2.7-2.1,4.1
				l-2.6-4.1c-0.7,1.3-1.4,2.7-2.1,4.1l-2.6-4.1c-0.7,1.3-1.4,2.7-2.1,4.1l-2.6-4.1c-0.7,1.3-1.4,2.7-2.1,4.1l0,0l-2.6-4.1l-2.4,4.1
				c0,0.1,0,0.2,0,0.2h-2.3c0,0.5,0,1.1,0,1.6c-0.6,2-1.2,4-1.8,6v38.3c0.6,2,1.2,4,1.8,6c0,0.6,0,1.3,0.1,1.9c0.8,0,1.6,0,2.4,0h3
				v0l0,0c0.9,1.3,1.7,2.7,2.6,4.1l2.1-4.3c0.9,1.5,1.7,2.9,2.6,4.3c0.7-1.5,1.4-2.9,2.1-4.3c0.9,1.5,1.7,2.9,2.6,4.3l2.1-4.3
				c0.9,1.5,1.7,2.9,2.6,4.3c0.7-1.5,1.4-2.9,2.1-4.3c0.9,1.5,1.7,2.9,2.6,4.3l2.1-4.3c0.9,1.5,1.7,2.9,2.6,4.3
				c0.7-1.5,1.4-2.9,2.1-4.3c0.9,1.5,1.7,2.9,2.6,4.3l2.1-4.3h3.7c0,1.9,0,3.9,0,5.8c0.6,1.7,1.3,3.5,1.9,5.2h12.7l1.7-5.3v-6.8
				v-2.4v-15.1v-0.4c0-5.4,0-11,0-16.4v-0.1L80.4,94.3L80.4,94.3z"/>
		</defs>
		<clipPath id="SVGID_00000159464961340223232710000011320851254284936331_">
			<use xlink:href="#SVGID_00000010301117165063941960000002072579358129506185_"  style="overflow:visible;"/>
		</clipPath>
		<g style="clip-path:url(#SVGID_00000159464961340223232710000011320851254284936331_);">
			
				<image style="overflow:visible;enable-background:new    ;" width="1200" height="900" xlink:href="../../Фитинги/Резьбовые/Металл.jpg"  transform="matrix(8.972033e-02 0 0 8.972033e-02 6.2908 79.1994)">
			</image>
		</g>
	</g>
	<g>
		<path id="SVGID_1_" class="st1" d="M80.4,94.3c0-2.1,0-4.3,0-6.4l-1.7-5.2H66l-1.9,5.2v5.8h-3.7h-1.2h-1.6l-2.6-4.1
			c-0.7,1.3-1.4,2.7-2.1,4.1l-2.6-4.1c-0.7,1.3-1.4,2.7-2.1,4.1l-2.6-4.1c-0.7,1.3-1.4,2.7-2.1,4.1l-2.6-4.1
			c-0.7,1.3-1.4,2.7-2.1,4.1l-2.6-4.1c-0.7,1.3-1.4,2.7-2.1,4.1l-2.6-4.1c-0.7,1.3-1.4,2.7-2.1,4.1l0,0l-2.6-4.1l-2.4,4.1
			c0,0.1,0,0.2,0,0.2h-2.3c0,0.5,0,1.1,0,1.6c-0.6,2-1.2,4-1.8,6v38.3c0.6,2,1.2,4,1.8,6c0,0.6,0,1.3,0.1,1.9c0.8,0,1.6,0,2.4,0h3v0
			l0,0c0.9,1.3,1.7,2.7,2.6,4.1l2.1-4.3c0.9,1.5,1.7,2.9,2.6,4.3c0.7-1.5,1.4-2.9,2.1-4.3c0.9,1.5,1.7,2.9,2.6,4.3l2.1-4.3
			c0.9,1.5,1.7,2.9,2.6,4.3c0.7-1.5,1.4-2.9,2.1-4.3c0.9,1.5,1.7,2.9,2.6,4.3l2.1-4.3c0.9,1.5,1.7,2.9,2.6,4.3
			c0.7-1.5,1.4-2.9,2.1-4.3c0.9,1.5,1.7,2.9,2.6,4.3l2.1-4.3h3.7c0,1.9,0,3.9,0,5.8c0.6,1.7,1.3,3.5,1.9,5.2h12.7l1.7-5.3v-6.8v-2.4
			v-15.1v-0.4c0-5.4,0-11,0-16.4v-0.1L80.4,94.3L80.4,94.3z"/>
	</g>
</g>
<linearGradient id="SVGID_00000000200688957731726430000000388170031640215193_" gradientUnits="userSpaceOnUse" x1="63.2783" y1="95.4625" x2="63.2783" y2="149.8139" gradientTransform="matrix(1 0 0 -1 0 162)">
	<stop  offset="0" style="stop-color:#9F9D9D"/>
	<stop  offset="0.1816" style="stop-color:#808080"/>
	<stop  offset="0.2933" style="stop-color:#9F9D9D"/>
	<stop  offset="0.5447" style="stop-color:#CCCCCC"/>
	<stop  offset="0.6732" style="stop-color:#FFFFFF"/>
	<stop  offset="0.8687" style="stop-color:#E4E3E3"/>
	<stop  offset="1" style="stop-color:#B3B3B3"/>
</linearGradient>
<rect x="56" y="12.2" style="fill:url(#SVGID_00000000200688957731726430000000388170031640215193_);" width="14.5" height="54.4"/>
<linearGradient id="SVGID_00000035503912150668565200000002337050059900739205_" gradientUnits="userSpaceOnUse" x1="5640.7583" y1="95.2192" x2="5640.7583" y2="149.5705" gradientTransform="matrix(-1 0 0 -1 5664.0439 162)">
	<stop  offset="0" style="stop-color:#9F9D9D"/>
	<stop  offset="0.1816" style="stop-color:#808080"/>
	<stop  offset="0.2933" style="stop-color:#9F9D9D"/>
	<stop  offset="0.5447" style="stop-color:#CCCCCC"/>
	<stop  offset="0.6732" style="stop-color:#FFFFFF"/>
	<stop  offset="0.8687" style="stop-color:#E4E3E3"/>
	<stop  offset="1" style="stop-color:#B3B3B3"/>
</linearGradient>
<polygon style="fill:url(#SVGID_00000035503912150668565200000002337050059900739205_);" points="22.1,66.8 24.5,66.8 24.5,12.4 
	22.1,12.4 "/>
<linearGradient id="SVGID_00000068650631573974061810000014456866556851034811_" gradientUnits="userSpaceOnUse" x1="5642.8877" y1="103.5402" x2="5642.8877" y2="154.7684" gradientTransform="matrix(-1 0 0 -1 5664.0439 162)">
	<stop  offset="0" style="stop-color:#9F9D9D"/>
	<stop  offset="0.1816" style="stop-color:#808080"/>
	<stop  offset="0.2933" style="stop-color:#9F9D9D"/>
	<stop  offset="0.5447" style="stop-color:#CCCCCC"/>
	<stop  offset="0.6732" style="stop-color:#FFFFFF"/>
	<stop  offset="0.8687" style="stop-color:#E4E3E3"/>
	<stop  offset="1" style="stop-color:#B3B3B3"/>
</linearGradient>
<path style="fill:url(#SVGID_00000068650631573974061810000014456866556851034811_);" d="M20.2,58.8c0.6,2.1,1.3,4.2,1.9,6.2
	c0-17.1,0-34.2,0-51.2c-0.6,2.1-1.3,4.2-1.9,6.2V58.8z"/>
<linearGradient id="SVGID_00000083074114138721222720000017456055186170221215_" gradientUnits="userSpaceOnUse" x1="5642.2007" y1="122.5368" x2="5644.0664" y2="122.5368" gradientTransform="matrix(-1 0 0 -1 5664.0439 162)">
	<stop  offset="0" style="stop-color:#B3B3B3;stop-opacity:0.5"/>
	<stop  offset="1" style="stop-color:#B3B3B3;stop-opacity:0"/>
</linearGradient>
<path style="opacity:0.53;fill:url(#SVGID_00000083074114138721222720000017456055186170221215_);enable-background:new    ;" d="
	M20.2,58.8c0.6,2.1,1.3,4.2,1.9,6.2c0-17.1,0-34.2,0-51.2c-0.6,2.1-1.3,4.2-1.9,6.2C20.2,20.1,20.2,58.8,20.2,58.8z"/>
<linearGradient id="SVGID_00000029746506085139984630000000384033087544435134_" gradientUnits="userSpaceOnUse" x1="29.5521" y1="259.9105" x2="29.5521" y2="197.1225" gradientTransform="matrix(1 0 0 -1 0 268)">
	<stop  offset="0" style="stop-color:#939598"/>
	<stop  offset="0.1927" style="stop-color:#6D6E71"/>
	<stop  offset="0.3045" style="stop-color:#808080"/>
	<stop  offset="0.6844" style="stop-color:#CCCCCC"/>
	<stop  offset="0.8966" style="stop-color:#808285"/>
	<stop  offset="1" style="stop-color:#B3B3B3"/>
</linearGradient>
<polygon style="fill:url(#SVGID_00000029746506085139984630000000384033087544435134_);" points="26.9,8.1 29.4,12.2 32.2,66.5 
	30.1,70.9 "/>
<linearGradient id="SVGID_00000069392893392764217450000002278856408560055697_" gradientUnits="userSpaceOnUse" x1="-6364.9106" y1="903.7352" x2="-6364.9106" y2="962.9692" gradientTransform="matrix(-1 0 0 -1.06 -6337.6299 1020.7)">
	<stop  offset="0" style="stop-color:#B3B3B3"/>
	<stop  offset="0.1201" style="stop-color:#808285"/>
	<stop  offset="0.2877" style="stop-color:#939597"/>
	<stop  offset="0.4162" style="stop-color:#D1D3D4"/>
	<stop  offset="0.5168" style="stop-color:#A7A9AC"/>
	<stop  offset="0.662" style="stop-color:#F1F2F2"/>
	<stop  offset="0.8519" style="stop-color:#B3B3B3"/>
	<stop  offset="0.919" style="stop-color:#E6E7E8"/>
	<stop  offset="1" style="stop-color:#919396"/>
</linearGradient>
<polygon style="fill:url(#SVGID_00000069392893392764217450000002278856408560055697_);" points="26.9,8.1 30.1,70.9 27.5,66.8 
	24.5,12.2 "/>
<linearGradient id="SVGID_00000013871405014035623960000001309430346440959622_" gradientUnits="userSpaceOnUse" x1="34.2571" y1="259.9105" x2="34.2571" y2="197.1225" gradientTransform="matrix(1 0 0 -1 0 268)">
	<stop  offset="0" style="stop-color:#939598"/>
	<stop  offset="0.1927" style="stop-color:#6D6E71"/>
	<stop  offset="0.3045" style="stop-color:#808080"/>
	<stop  offset="0.6844" style="stop-color:#CCCCCC"/>
	<stop  offset="0.8966" style="stop-color:#808285"/>
	<stop  offset="1" style="stop-color:#B3B3B3"/>
</linearGradient>
<polygon style="fill:url(#SVGID_00000013871405014035623960000001309430346440959622_);" points="31.6,8.1 34.1,12.2 36.9,66.5 
	34.8,70.9 "/>
<linearGradient id="SVGID_00000021119883106884074450000011193207951434752693_" gradientUnits="userSpaceOnUse" x1="-6369.7168" y1="903.7352" x2="-6369.7168" y2="962.9692" gradientTransform="matrix(-1 0 0 -1.06 -6337.6299 1020.7)">
	<stop  offset="0" style="stop-color:#B3B3B3"/>
	<stop  offset="0.1201" style="stop-color:#808285"/>
	<stop  offset="0.2877" style="stop-color:#939597"/>
	<stop  offset="0.4162" style="stop-color:#D1D3D4"/>
	<stop  offset="0.5168" style="stop-color:#A7A9AC"/>
	<stop  offset="0.662" style="stop-color:#F1F2F2"/>
	<stop  offset="0.8519" style="stop-color:#B3B3B3"/>
	<stop  offset="0.919" style="stop-color:#E6E7E8"/>
	<stop  offset="1" style="stop-color:#919396"/>
</linearGradient>
<path style="fill:url(#SVGID_00000021119883106884074450000011193207951434752693_);" d="M31.6,8.1l3.2,62.8
	c-0.9-1.5-1.7-2.9-2.6-4.4c-0.9-18.1-1.9-36.2-2.8-54.3C30.2,10.8,30.9,9.4,31.6,8.1z"/>
<linearGradient id="SVGID_00000020385640770767630940000006258533875335639486_" gradientUnits="userSpaceOnUse" x1="38.9622" y1="259.9105" x2="38.9622" y2="197.1225" gradientTransform="matrix(1 0 0 -1 0 268)">
	<stop  offset="0" style="stop-color:#939598"/>
	<stop  offset="0.1927" style="stop-color:#6D6E71"/>
	<stop  offset="0.3045" style="stop-color:#808080"/>
	<stop  offset="0.6844" style="stop-color:#CCCCCC"/>
	<stop  offset="0.8966" style="stop-color:#808285"/>
	<stop  offset="1" style="stop-color:#B3B3B3"/>
</linearGradient>
<polygon style="fill:url(#SVGID_00000020385640770767630940000006258533875335639486_);" points="36.3,8.1 38.9,12.2 41.6,66.5 
	39.5,70.9 "/>
<linearGradient id="SVGID_00000157266460195596589780000012528653038008010413_" gradientUnits="userSpaceOnUse" x1="-6374.4624" y1="903.7352" x2="-6374.4624" y2="962.9692" gradientTransform="matrix(-1 0 0 -1.06 -6337.6299 1020.7)">
	<stop  offset="0" style="stop-color:#B3B3B3"/>
	<stop  offset="0.1201" style="stop-color:#808285"/>
	<stop  offset="0.2877" style="stop-color:#939597"/>
	<stop  offset="0.4162" style="stop-color:#D1D3D4"/>
	<stop  offset="0.5168" style="stop-color:#A7A9AC"/>
	<stop  offset="0.662" style="stop-color:#F1F2F2"/>
	<stop  offset="0.8519" style="stop-color:#B3B3B3"/>
	<stop  offset="0.919" style="stop-color:#E6E7E8"/>
	<stop  offset="1" style="stop-color:#919396"/>
</linearGradient>
<path style="fill:url(#SVGID_00000157266460195596589780000012528653038008010413_);" d="M36.3,8.1l3.2,62.8
	c-0.9-1.5-1.7-2.9-2.6-4.4c-0.9-18.1-1.9-36.2-2.8-54.3C34.9,10.8,35.6,9.4,36.3,8.1z"/>
<linearGradient id="SVGID_00000181060748139524204430000007732002548302859914_" gradientUnits="userSpaceOnUse" x1="43.6875" y1="259.9105" x2="43.6875" y2="197.1225" gradientTransform="matrix(1 0 0 -1 0 268)">
	<stop  offset="0" style="stop-color:#939598"/>
	<stop  offset="0.1927" style="stop-color:#6D6E71"/>
	<stop  offset="0.3045" style="stop-color:#808080"/>
	<stop  offset="0.6844" style="stop-color:#CCCCCC"/>
	<stop  offset="0.8966" style="stop-color:#808285"/>
	<stop  offset="1" style="stop-color:#B3B3B3"/>
</linearGradient>
<polygon style="fill:url(#SVGID_00000181060748139524204430000007732002548302859914_);" points="41,8.1 43.6,12.2 46.4,66.5 
	44.2,70.9 "/>
<linearGradient id="SVGID_00000176750716198393060100000007724767606942758813_" gradientUnits="userSpaceOnUse" x1="-6379.1675" y1="903.7352" x2="-6379.1675" y2="962.9692" gradientTransform="matrix(-1 0 0 -1.06 -6337.6299 1020.7)">
	<stop  offset="0" style="stop-color:#B3B3B3"/>
	<stop  offset="0.1201" style="stop-color:#808285"/>
	<stop  offset="0.2877" style="stop-color:#939597"/>
	<stop  offset="0.4162" style="stop-color:#D1D3D4"/>
	<stop  offset="0.5168" style="stop-color:#A7A9AC"/>
	<stop  offset="0.662" style="stop-color:#F1F2F2"/>
	<stop  offset="0.8519" style="stop-color:#B3B3B3"/>
	<stop  offset="0.919" style="stop-color:#E6E7E8"/>
	<stop  offset="1" style="stop-color:#919396"/>
</linearGradient>
<path style="fill:url(#SVGID_00000176750716198393060100000007724767606942758813_);" d="M41,8.1l3.2,62.8c-0.9-1.5-1.7-2.9-2.6-4.4
	c-0.9-18.1-1.9-36.2-2.8-54.3C39.6,10.8,40.3,9.4,41,8.1z"/>
<linearGradient id="SVGID_00000138548466491250125530000018147508309507893924_" gradientUnits="userSpaceOnUse" x1="48.4128" y1="259.9105" x2="48.4128" y2="197.1225" gradientTransform="matrix(1 0 0 -1 0 268)">
	<stop  offset="0" style="stop-color:#939598"/>
	<stop  offset="0.1927" style="stop-color:#6D6E71"/>
	<stop  offset="0.3045" style="stop-color:#808080"/>
	<stop  offset="0.6844" style="stop-color:#CCCCCC"/>
	<stop  offset="0.8966" style="stop-color:#808285"/>
	<stop  offset="1" style="stop-color:#B3B3B3"/>
</linearGradient>
<polygon style="fill:url(#SVGID_00000138548466491250125530000018147508309507893924_);" points="45.7,8.1 48.3,12.2 51.1,66.5 
	48.9,70.9 "/>
<linearGradient id="SVGID_00000072980696921904536970000006763979179818050720_" gradientUnits="userSpaceOnUse" x1="-6383.8726" y1="903.7352" x2="-6383.8726" y2="962.9692" gradientTransform="matrix(-1 0 0 -1.06 -6337.6299 1020.7)">
	<stop  offset="0" style="stop-color:#B3B3B3"/>
	<stop  offset="0.1201" style="stop-color:#808285"/>
	<stop  offset="0.2877" style="stop-color:#939597"/>
	<stop  offset="0.4162" style="stop-color:#D1D3D4"/>
	<stop  offset="0.5168" style="stop-color:#A7A9AC"/>
	<stop  offset="0.662" style="stop-color:#F1F2F2"/>
	<stop  offset="0.8519" style="stop-color:#B3B3B3"/>
	<stop  offset="0.919" style="stop-color:#E6E7E8"/>
	<stop  offset="1" style="stop-color:#919396"/>
</linearGradient>
<path style="fill:url(#SVGID_00000072980696921904536970000006763979179818050720_);" d="M45.7,8.1l3.2,62.8
	c-0.9-1.5-1.7-2.9-2.6-4.4c-0.9-18.1-1.9-36.2-2.8-54.3C44.3,10.8,45,9.4,45.7,8.1z"/>
<linearGradient id="SVGID_00000064344036364043193300000000438998809935257263_" gradientUnits="userSpaceOnUse" x1="53.1179" y1="259.9105" x2="53.1179" y2="197.1225" gradientTransform="matrix(1 0 0 -1 0 268)">
	<stop  offset="0" style="stop-color:#939598"/>
	<stop  offset="0.1927" style="stop-color:#6D6E71"/>
	<stop  offset="0.3045" style="stop-color:#808080"/>
	<stop  offset="0.6844" style="stop-color:#CCCCCC"/>
	<stop  offset="0.8966" style="stop-color:#808285"/>
	<stop  offset="1" style="stop-color:#B3B3B3"/>
</linearGradient>
<polygon style="fill:url(#SVGID_00000064344036364043193300000000438998809935257263_);" points="50.4,8.1 53,12.2 55.8,66.5 
	53.6,70.9 "/>
<linearGradient id="SVGID_00000041976740242416271100000000871388677237736864_" gradientUnits="userSpaceOnUse" x1="-6388.5776" y1="903.7352" x2="-6388.5776" y2="962.9692" gradientTransform="matrix(-1 0 0 -1.06 -6337.6299 1020.7)">
	<stop  offset="0" style="stop-color:#B3B3B3"/>
	<stop  offset="0.1201" style="stop-color:#808285"/>
	<stop  offset="0.2877" style="stop-color:#939597"/>
	<stop  offset="0.4162" style="stop-color:#D1D3D4"/>
	<stop  offset="0.5168" style="stop-color:#A7A9AC"/>
	<stop  offset="0.662" style="stop-color:#F1F2F2"/>
	<stop  offset="0.8519" style="stop-color:#B3B3B3"/>
	<stop  offset="0.919" style="stop-color:#E6E7E8"/>
	<stop  offset="1" style="stop-color:#919396"/>
</linearGradient>
<path style="fill:url(#SVGID_00000041976740242416271100000000871388677237736864_);" d="M50.4,8.1l3.2,62.8
	c-0.9-1.5-1.7-2.9-2.6-4.4c-0.9-18.1-1.9-36.2-2.8-54.3C49,10.8,49.7,9.4,50.4,8.1z"/>
<linearGradient id="SVGID_00000005234506053882413360000010421655947560509070_" gradientUnits="userSpaceOnUse" x1="57.8229" y1="259.9105" x2="57.8229" y2="197.1225" gradientTransform="matrix(1 0 0 -1 0 268)">
	<stop  offset="0" style="stop-color:#939598"/>
	<stop  offset="0.1927" style="stop-color:#6D6E71"/>
	<stop  offset="0.3045" style="stop-color:#808080"/>
	<stop  offset="0.6844" style="stop-color:#CCCCCC"/>
	<stop  offset="0.8966" style="stop-color:#808285"/>
	<stop  offset="1" style="stop-color:#B3B3B3"/>
</linearGradient>
<polygon style="fill:url(#SVGID_00000005234506053882413360000010421655947560509070_);" points="55.1,8.1 57.7,12.2 60.5,66.5 
	58.4,70.9 "/>
<linearGradient id="SVGID_00000144323187540973286330000016980973500742733755_" gradientUnits="userSpaceOnUse" x1="-6393.2827" y1="903.7352" x2="-6393.2827" y2="962.9692" gradientTransform="matrix(-1 0 0 -1.06 -6337.6299 1020.7)">
	<stop  offset="0" style="stop-color:#B3B3B3"/>
	<stop  offset="0.1201" style="stop-color:#808285"/>
	<stop  offset="0.2877" style="stop-color:#939597"/>
	<stop  offset="0.4162" style="stop-color:#D1D3D4"/>
	<stop  offset="0.5168" style="stop-color:#A7A9AC"/>
	<stop  offset="0.662" style="stop-color:#F1F2F2"/>
	<stop  offset="0.8519" style="stop-color:#B3B3B3"/>
	<stop  offset="0.919" style="stop-color:#E6E7E8"/>
	<stop  offset="1" style="stop-color:#919396"/>
</linearGradient>
<path style="fill:url(#SVGID_00000144323187540973286330000016980973500742733755_);" d="M55.1,8.1l3.2,62.8
	c-0.9-1.5-1.7-2.9-2.6-4.4c-0.9-18.1-1.9-36.2-2.8-54.3C53.7,10.8,54.4,9.4,55.1,8.1z"/>
<linearGradient id="SVGID_00000147185754998547856860000001178679487172759939_" gradientUnits="userSpaceOnUse" x1="59.1006" y1="95.5031" x2="59.1006" y2="149.8139" gradientTransform="matrix(1 0 0 -1 0 162)">
	<stop  offset="0" style="stop-color:#B3B3B3"/>
	<stop  offset="0.1201" style="stop-color:#808285"/>
	<stop  offset="0.2877" style="stop-color:#939597"/>
	<stop  offset="0.4162" style="stop-color:#D1D3D4"/>
	<stop  offset="0.5168" style="stop-color:#A7A9AC"/>
	<stop  offset="0.662" style="stop-color:#F1F2F2"/>
	<stop  offset="0.8519" style="stop-color:#B3B3B3"/>
	<stop  offset="0.919" style="stop-color:#E6E7E8"/>
	<stop  offset="1" style="stop-color:#919396"/>
</linearGradient>
<path style="fill:url(#SVGID_00000147185754998547856860000001178679487172759939_);" d="M57.7,12.2c0.9,0,1.9,0,2.8,0v54.3
	C59.6,48.4,58.6,30.3,57.7,12.2z"/>
<linearGradient id="SVGID_00000033332117457325164380000003741414703766770327_" gradientUnits="userSpaceOnUse" x1="25.9828" y1="149.8139" x2="25.9828" y2="95.2192" gradientTransform="matrix(1 0 0 -1 0 162)">
	<stop  offset="0" style="stop-color:#939598"/>
	<stop  offset="0.1927" style="stop-color:#6D6E71"/>
	<stop  offset="0.3045" style="stop-color:#808080"/>
	<stop  offset="0.6844" style="stop-color:#CCCCCC"/>
	<stop  offset="0.8966" style="stop-color:#808285"/>
	<stop  offset="1" style="stop-color:#B3B3B3"/>
</linearGradient>
<polygon style="fill:url(#SVGID_00000033332117457325164380000003741414703766770327_);" points="24.5,12.2 24.5,66.8 27.5,66.8 "/>
<linearGradient id="SVGID_00000087380607036198919940000006165225823911781782_" gradientUnits="userSpaceOnUse" x1="8662.1768" y1="-2713.3977" x2="8669.5605" y2="-2713.3977" gradientTransform="matrix(-1 0 0 1 8728.8564 2752.7393)">
	<stop  offset="0" style="stop-color:#3F3B3C"/>
	<stop  offset="1" style="stop-color:#3F3B3C;stop-opacity:0"/>
</linearGradient>
<polygon style="opacity:0.5;fill:url(#SVGID_00000087380607036198919940000006165225823911781782_);enable-background:new    ;" points="
	59.4,66.5 66.8,66.5 66.8,12.2 59.3,12.2 "/>
<g>
	<rect x="79.3" y="12.8" class="st23" width="1.3" height="18"/>
	<rect x="79.3" y="47.4" class="st24" width="1.3" height="18"/>
	<rect x="64.2" y="47.4" class="st24" width="1.3" height="18"/>
	<rect x="64.2" y="12.8" class="st23" width="1.3" height="18"/>
	
		<linearGradient id="SVGID_00000139284361884364522530000009470652340954623383_" gradientUnits="userSpaceOnUse" x1="-256.2492" y1="681.9603" x2="-256.2492" y2="701.9161" gradientTransform="matrix(1 0 0 1 328.5929 -624.2667)">
		<stop  offset="6.983240e-02" style="stop-color:#58595B"/>
		<stop  offset="0.3715" style="stop-color:#808285"/>
		<stop  offset="0.4888" style="stop-color:#6D6E71"/>
		<stop  offset="0.6397" style="stop-color:#838587"/>
		<stop  offset="0.824" style="stop-color:#BCBEC0"/>
		<stop  offset="1" style="stop-color:#BAB9B9"/>
	</linearGradient>
	<path style="fill:url(#SVGID_00000139284361884364522530000009470652340954623383_);" d="M65.2,57.7l-1.1,5.5v9.1l1.9,5.3h12.7
		l1.7-5.3v-9.2c-0.3-1.8-0.6-3.7-0.9-5.5C74.9,57.7,70,57.7,65.2,57.7z"/>
	
		<linearGradient id="SVGID_00000160911379198515673490000012255806767030987915_" gradientUnits="userSpaceOnUse" x1="-256.2289" y1="-2494.1118" x2="-256.2289" y2="-2474.156" gradientTransform="matrix(1 0 0 -1 328.5929 -2473.0693)">
		<stop  offset="0" style="stop-color:#F2F2F2"/>
		<stop  offset="1" style="stop-color:#CCCCCC"/>
	</linearGradient>
	<path style="fill:url(#SVGID_00000160911379198515673490000012255806767030987915_);" d="M65.2,20.9l-1.1-5.5V6.3L66.1,1h12.7
		l1.7,5.3c0,3,0,6,0,9.1c-0.2,0.9-0.3,1.9-0.5,2.8c-0.2,0.9-0.3,1.8-0.4,2.8C74.9,20.9,70,20.9,65.2,20.9z"/>
	
		<linearGradient id="SVGID_00000073718065000760198560000012299856919796214410_" gradientUnits="userSpaceOnUse" x1="-256.2087" y1="681.961" x2="-256.2087" y2="645.1724" gradientTransform="matrix(1 0 0 1 328.5929 -624.2667)">
		<stop  offset="0" style="stop-color:#E6E6E6"/>
		<stop  offset="0.263" style="stop-color:#E1E1E1"/>
		<stop  offset="0.5724" style="stop-color:#D3D3D3"/>
		<stop  offset="0.904" style="stop-color:#BBBBBB"/>
		<stop  offset="1" style="stop-color:#B3B3B3"/>
	</linearGradient>
	<path style="fill:url(#SVGID_00000073718065000760198560000012299856919796214410_);" d="M79.7,57.7c0.3-3.3,0.6-6.6,0.9-9.9
		c0-5.7,0-11.4,0-17.1c-0.1-1.6-0.3-3.3-0.4-4.9c-0.1-1.7-0.3-3.3-0.5-4.9c-4.8,0-9.6,0-14.5,0c-0.3,3.2-0.7,6.5-1.1,9.8
		c0,5.7,0,11.3,0,17.2l1.1,9.9c0.5,0,1.3,0,1.9,0C71.2,57.6,75.5,57.6,79.7,57.7C79.7,57.6,79.7,57.7,79.7,57.7z"/>
	
		<linearGradient id="SVGID_00000180348705047165898040000013876262813696669343_" gradientUnits="userSpaceOnUse" x1="-256.1681" y1="239.505" x2="-256.1681" y2="219.4273" gradientTransform="matrix(1 0 0 -1 328.5929 297.1191)">
		<stop  offset="0" style="stop-color:#808080"/>
		<stop  offset="1" style="stop-color:#ABABAB"/>
	</linearGradient>
	<path style="fill:url(#SVGID_00000180348705047165898040000013876262813696669343_);" d="M65.2,57.6c0,0-0.3,1.8-0.5,2.8
		c-0.2,0.9-0.4,1.9-0.5,2.8c0,3,0,6.1,0,9.2c0.6,1.7,1.3,3.5,1.9,5.3h12.8l1.8-5.4v-9.2c-0.1-0.8-0.3-1.9-0.4-2.8
		c-0.1-0.8-0.4-2.7-0.4-2.7H65.2z"/>
</g>
<linearGradient id="SVGID_00000119800940099609713950000009302044512453152387_" gradientUnits="userSpaceOnUse" x1="42.9371" y1="41.6244" x2="42.9371" y2="41.6244" gradientTransform="matrix(1 0 0 -1 0 162)">
	<stop  offset="0" style="stop-color:#808080"/>
	<stop  offset="1" style="stop-color:#ABABAB"/>
</linearGradient>
<path style="fill:url(#SVGID_00000119800940099609713950000009302044512453152387_);" d="M42.9,120.4"/>
<linearGradient id="SVGID_00000024719964825554189670000004325956285733932164_" gradientUnits="userSpaceOnUse" x1="22.4945" y1="36.311" x2="22.4945" y2="36.311" gradientTransform="matrix(1 0 0 -1 0 162)">
	<stop  offset="0" style="stop-color:#808080"/>
	<stop  offset="1" style="stop-color:#ABABAB"/>
</linearGradient>
<path style="fill:url(#SVGID_00000024719964825554189670000004325956285733932164_);" d="M22.5,125.7"/>
<linearGradient id="SVGID_00000113333817304940990030000011950518140122220476_" gradientUnits="userSpaceOnUse" x1="51.8199" y1="75.8529" x2="51.8199" y2="37.7664" gradientTransform="matrix(1 0 0 -1 0 177.4489)">
	<stop  offset="0.2849" style="stop-color:#606060"/>
	<stop  offset="0.5139" style="stop-color:#999999"/>
	<stop  offset="0.6613" style="stop-color:#ACACAC"/>
	<stop  offset="0.8464" style="stop-color:#6E6E6F;stop-opacity:0.9913"/>
	<stop  offset="1" style="stop-color:#606060"/>
</linearGradient>
<rect x="23" y="101.6" style="fill:url(#SVGID_00000113333817304940990030000011950518140122220476_);" width="57.6" height="38.1"/>
<linearGradient id="SVGID_00000171685359664914751590000017235753494019922855_" gradientUnits="userSpaceOnUse" x1="21.7442" y1="76.0963" x2="21.7442" y2="37.523" gradientTransform="matrix(1 0 0 -1 0 177.4489)">
	<stop  offset="0.2849" style="stop-color:#4D4D4D"/>
	<stop  offset="0.6613" style="stop-color:#ACACAC"/>
	<stop  offset="0.8464" style="stop-color:#6E6E6F;stop-opacity:0.9913"/>
	<stop  offset="1" style="stop-color:#606060"/>
</linearGradient>
<path style="fill:url(#SVGID_00000171685359664914751590000017235753494019922855_);" d="M20.5,101.4c0.9,0.1,1.7,0.2,2.6,0.2
	c0,12.7,0,25.4,0,38.1c-0.9,0.1-1.7,0.2-2.6,0.2C20.5,139.9,20.5,101.4,20.5,101.4z"/>
<image style="overflow:visible;" width="200" height="200" xlink:href="../../pepsi.png"  transform="matrix(4.720581e-02 0 0 4.720581e-02 67.7042 34.6209)">
</image>
</svg>
