<?xml version="1.0" encoding="utf-8"?>
<!-- Generator: Adobe Illustrator 25.4.1, SVG Export Plug-In . SVG Version: 6.00 Build 0)  -->
<svg version="1.1" id="Слой_1" xmlns="http://www.w3.org/2000/svg" xmlns:xlink="http://www.w3.org/1999/xlink" x="0px" y="0px"
	 viewBox="0 0 100 160" style="enable-background:new 0 0 100 160;" xml:space="preserve">
<style type="text/css">
	.st0{clip-path:url(#SVGID_00000144338220172379401490000006453178026222314138_);}
	.st1{clip-path:url(#SVGID_00000051371238175955740030000007873274196516473516_);}
	.st2{fill:none;stroke:#CCCCCC;stroke-width:0.75;stroke-miterlimit:10;}
	.st3{fill:url(#SVGID_00000109027688482908562450000018343091795742715033_);}
	.st4{opacity:0.5;fill:url(#SVGID_00000050645634299367459320000018379851225562579125_);enable-background:new    ;}
	.st5{fill:url(#SVGID_00000037666380216825756220000018093233324329077688_);}
	.st6{opacity:0.5;fill:url(#SVGID_00000148648321853672464470000014370906716757838724_);enable-background:new    ;}
	.st7{fill:url(#SVGID_00000064324886863658827660000003052955468451529377_);}
	.st8{opacity:0.5;fill:url(#SVGID_00000022537919460102405210000017291947046522505119_);enable-background:new    ;}
	.st9{fill:url(#SVGID_00000057139890098800647590000003259113869736456346_);}
	.st10{fill:url(#SVGID_00000169517130578179052480000011882551177512661400_);}
	.st11{fill:url(#SVGID_00000052063869537249273270000007531379539839333275_);}
	.st12{fill:url(#SVGID_00000167360478296769205070000001369870358127181232_);}
	.st13{fill:url(#SVGID_00000036959897831938275970000001782181229753858476_);}
	.st14{fill:url(#SVGID_00000003106689056427225550000004790352067865354163_);}
	.st15{opacity:0.49;fill:url(#SVGID_00000172411474137986856520000008912160267758343813_);enable-background:new    ;}
	.st16{fill:none;stroke:url(#SVGID_00000049220152121136572000000000135188876083852476_);stroke-width:0.75;stroke-miterlimit:10;}
	.st17{fill:none;stroke:url(#SVGID_00000060014064330947296910000014059764886137229204_);stroke-width:0.75;stroke-miterlimit:10;}
	.st18{fill:none;stroke:url(#SVGID_00000034058462201184525990000005290961145345761712_);stroke-width:0.75;stroke-miterlimit:10;}
	.st19{fill:#676767;}
	.st20{fill:url(#SVGID_00000097491685050859937670000014921168847807693494_);}
	.st21{fill:url(#SVGID_00000141454683384869102620000007534274690929442494_);}
	.st22{fill:url(#SVGID_00000154424449743414785720000014781764968058611075_);}
</style>
<g>
	<g>
		<defs>
			<path id="SVGID_00000043427178495366038210000013194210776839721348_" d="M99.1,91.3H77.5l0,0h-6.2v-3.4v-0.1H28.6v0.1v3.4H1v18
				h21.7l0,0h5.9v2.9h4c0.1,0,2.6-0.2,4.1,1.8c1.2,1.5,0.9,3.3,0.8,3.6c0,1.5,0,2.9,0,4.4h3.4v27h18v-21.7l0,0v-5.4h3.3
				c0-1.5,0-2.9,0-4.4c0-0.3-0.1-2.6,1.8-4.1c1.3-1.1,2.6-1.2,3.2-1.3c1.4,0,2.7,0,4.1,0l0.1-3h27.9V91.3H99.1z"/>
		</defs>
		<clipPath id="SVGID_00000020361151480791020770000006301159720057366176_">
			<use xlink:href="#SVGID_00000043427178495366038210000013194210776839721348_"  style="overflow:visible;"/>
		</clipPath>
	</g>
	<g>
		<defs>
			<path id="SVGID_00000010303588970527501280000013897774348669430974_" d="M99.1,91.3H77.5l0,0h-6.2v-3.4v-0.1H28.6v0.1v3.4H1v18
				h21.7l0,0h5.9v2.9h4c0.1,0,2.6-0.2,4.1,1.8c1.2,1.5,0.9,3.3,0.8,3.6c0,1.5,0,2.9,0,4.4h3.4v27h18v-21.7l0,0v-5.4h3.3
				c0-1.5,0-2.9,0-4.4c0-0.3-0.1-2.6,1.8-4.1c1.3-1.1,2.6-1.2,3.2-1.3c1.4,0,2.7,0,4.1,0l0.1-3h27.9V91.3H99.1z"/>
		</defs>
		<defs>
			<path id="SVGID_00000012472231822483061790000008462576758559638711_" d="M99.1,91.3H77.5l0,0h-6.2v-3.4v-0.1H28.6v0.1v3.4H1v18
				h21.7l0,0h5.9v2.9h4c0.1,0,2.6-0.2,4.1,1.8c1.2,1.5,0.9,3.3,0.8,3.6c0,1.5,0,2.9,0,4.4h3.4v27h18v-21.7l0,0v-5.4h3.3
				c0-1.5,0-2.9,0-4.4c0-0.3-0.1-2.6,1.8-4.1c1.3-1.1,2.6-1.2,3.2-1.3c1.4,0,2.7,0,4.1,0l0.1-3h27.9V91.3H99.1z"/>
		</defs>
		<clipPath id="SVGID_00000033370899354634688370000013555741695047141527_">
			<use xlink:href="#SVGID_00000010303588970527501280000013897774348669430974_"  style="overflow:visible;"/>
		</clipPath>
		
			<clipPath id="SVGID_00000109721906120738617630000013784241253167818924_" style="clip-path:url(#SVGID_00000033370899354634688370000013555741695047141527_);">
			<use xlink:href="#SVGID_00000012472231822483061790000008462576758559638711_"  style="overflow:visible;"/>
		</clipPath>
		<g transform="matrix(1 0 0 1 0 0)" style="clip-path:url(#SVGID_00000109721906120738617630000013784241253167818924_);">
			
				<image style="overflow:visible;enable-background:new    ;" width="600" height="600" xlink:href="../../background.jpg"  transform="matrix(0.1817 0 0 0.1817 -4.4641 61.3774)">
			</image>
		</g>
	</g>
	<g>
		<path id="SVGID_00000098180286741975289550000009705106738471488408_" class="st2" d="M99.1,91.3H77.5l0,0h-6.2v-3.4v-0.1H28.6
			v0.1v3.4H1v18h21.7l0,0h5.9v2.9h4c0.1,0,2.6-0.2,4.1,1.8c1.2,1.5,0.9,3.3,0.8,3.6c0,1.5,0,2.9,0,4.4h3.4v27h18v-21.7l0,0v-5.4h3.3
			c0-1.5,0-2.9,0-4.4c0-0.3-0.1-2.6,1.8-4.1c1.3-1.1,2.6-1.2,3.2-1.3c1.4,0,2.7,0,4.1,0l0.1-3h27.9V91.3H99.1z"/>
	</g>
	<g>
		<path id="SVGID_1_" class="st2" d="M99.1,91.3H77.5l0,0h-6.2v-3.4v-0.1H28.6v0.1v3.4H1v18h21.7l0,0h5.9v2.9h4
			c0.1,0,2.6-0.2,4.1,1.8c1.2,1.5,0.9,3.3,0.8,3.6c0,1.5,0,2.9,0,4.4h3.4v27h18v-21.7l0,0v-5.4h3.3c0-1.5,0-2.9,0-4.4
			c0-0.3-0.1-2.6,1.8-4.1c1.3-1.1,2.6-1.2,3.2-1.3c1.4,0,2.7,0,4.1,0l0.1-3h27.9V91.3H99.1z"/>
	</g>
</g>
<linearGradient id="SVGID_00000096055199072250754320000005871483403498665659_" gradientUnits="userSpaceOnUse" x1="-2042.8726" y1="-667.9643" x2="-2060.8289" y2="-667.9643" gradientTransform="matrix(0 1 1 0 750.4143 2074.0725)">
	<stop  offset="0" style="stop-color:#9D9B9B"/>
	<stop  offset="0.1816" style="stop-color:#808080"/>
	<stop  offset="0.2933" style="stop-color:#9D9B9B"/>
	<stop  offset="0.5447" style="stop-color:#CBCBCA"/>
	<stop  offset="0.6732" style="stop-color:#FFFFFF"/>
	<stop  offset="0.8687" style="stop-color:#E3E2E2"/>
	<stop  offset="1" style="stop-color:#B3B2B3"/>
</linearGradient>
<rect x="65.8" y="13.2" style="fill:url(#SVGID_00000096055199072250754320000005871483403498665659_);" width="33.3" height="18"/>
<linearGradient id="SVGID_00000155830236517924116790000009475512048359056262_" gradientUnits="userSpaceOnUse" x1="-2490.4541" y1="-777.0978" x2="-2477.9785" y2="-777.0978" gradientTransform="matrix(1 0 0 -1 2555.5591 -754.8978)">
	<stop  offset="0" style="stop-color:#3F3B3C"/>
	<stop  offset="1" style="stop-color:#3F3B3C;stop-opacity:0"/>
</linearGradient>
<polygon style="opacity:0.5;fill:url(#SVGID_00000155830236517924116790000009475512048359056262_);enable-background:new    ;" points="
	77.5,13.2 64.9,13.2 64.9,31.2 77.6,31.2 "/>
<linearGradient id="SVGID_00000096026534101788370400000015745771059031946118_" gradientUnits="userSpaceOnUse" x1="-1074.1367" y1="-167.3464" x2="-1092.093" y2="-167.3464" gradientTransform="matrix(-1 0 0 1 -1033.1367 221.6964)">
	<stop  offset="0" style="stop-color:#9D9B9B"/>
	<stop  offset="0.1816" style="stop-color:#808080"/>
	<stop  offset="0.2933" style="stop-color:#9D9B9B"/>
	<stop  offset="0.5447" style="stop-color:#CBCBCA"/>
	<stop  offset="0.6732" style="stop-color:#FFFFFF"/>
	<stop  offset="0.8687" style="stop-color:#E3E2E2"/>
	<stop  offset="1" style="stop-color:#B3B2B3"/>
</linearGradient>
<rect x="41" y="37.7" style="fill:url(#SVGID_00000096026534101788370400000015745771059031946118_);" width="18" height="33.3"/>
<linearGradient id="SVGID_00000147925050328471208260000000100086403806201776_" gradientUnits="userSpaceOnUse" x1="-1989.8596" y1="-1745.7834" x2="-1977.3838" y2="-1745.7834" gradientTransform="matrix(6.123234e-17 1 1 -6.123234e-17 1795.8335 2026.8413)">
	<stop  offset="0" style="stop-color:#3F3B3C"/>
	<stop  offset="1" style="stop-color:#3F3B3C;stop-opacity:0"/>
</linearGradient>
<polygon style="opacity:0.5;fill:url(#SVGID_00000147925050328471208260000000100086403806201776_);enable-background:new    ;" points="
	59,49.3 59,36.8 41.1,36.8 41.1,49.5 "/>
<linearGradient id="SVGID_00000078012131871279746740000015980666494524440737_" gradientUnits="userSpaceOnUse" x1="-1544.2449" y1="755.4351" x2="-1526.2885" y2="755.4351" gradientTransform="matrix(-6.123234e-17 -1 -1 6.123234e-17 773.0851 -1513.0449)">
	<stop  offset="0" style="stop-color:#9D9B9B"/>
	<stop  offset="0.1816" style="stop-color:#808080"/>
	<stop  offset="0.2933" style="stop-color:#9D9B9B"/>
	<stop  offset="0.5447" style="stop-color:#CBCBCA"/>
	<stop  offset="0.6732" style="stop-color:#FFFFFF"/>
	<stop  offset="0.8687" style="stop-color:#E3E2E2"/>
	<stop  offset="1" style="stop-color:#B3B2B3"/>
</linearGradient>
<rect x="1" y="13.2" style="fill:url(#SVGID_00000078012131871279746740000015980666494524440737_);" width="33.3" height="18"/>
<linearGradient id="SVGID_00000023272118847019184090000006739687304076138679_" gradientUnits="userSpaceOnUse" x1="-1067.1603" y1="-1293.7253" x2="-1054.6847" y2="-1293.7253" gradientTransform="matrix(-1 0 0 1 -1032.0597 1315.9253)">
	<stop  offset="0" style="stop-color:#3F3B3C"/>
	<stop  offset="1" style="stop-color:#3F3B3C;stop-opacity:0"/>
</linearGradient>
<polygon style="opacity:0.5;fill:url(#SVGID_00000023272118847019184090000006739687304076138679_);enable-background:new    ;" points="
	22.8,31.2 35.3,31.2 35.3,13.2 22.6,13.2 "/>
<linearGradient id="SVGID_00000177484114837899432080000011056347118089783207_" gradientUnits="userSpaceOnUse" x1="28.7" y1="-1579.9899" x2="71.3464" y2="-1579.9899" gradientTransform="matrix(1 0 0 -1 0 -1550.8899)">
	<stop  offset="0" style="stop-color:#909295"/>
	<stop  offset="0.3883" style="stop-color:#D1D2D3"/>
	<stop  offset="0.6788" style="stop-color:#BCBDBF"/>
	<stop  offset="1" style="stop-color:#909295"/>
</linearGradient>
<path style="fill:url(#SVGID_00000177484114837899432080000011056347118089783207_);" d="M41.6,43.8V32.5c-0.1-0.3-0.3-1-0.7-1.6
	c-0.7-0.9-1.7-1.1-2-1.2c-3.4,0-6.8,0-10.2,0V14.4h42.6c0,5.1,0,10.1,0,15.2c-3.4,0-6.7,0-10.1,0c-0.5,0.1-1.3,0.5-2,1.2
	c-0.5,0.6-0.7,1.6-0.7,1.6v11.3C58.4,43.8,47.2,43.8,41.6,43.8z"/>
<linearGradient id="SVGID_00000175292452116618529580000002703699092676317375_" gradientUnits="userSpaceOnUse" x1="-4.0643" y1="-509.5265" x2="85.4305" y2="-508.4585" gradientTransform="matrix(1 0 0 -1 0 -479.8898)">
	<stop  offset="0" style="stop-color:#9D9B9B"/>
	<stop  offset="0.1816" style="stop-color:#808080"/>
	<stop  offset="0.2933" style="stop-color:#9D9B9B"/>
	<stop  offset="0.5447" style="stop-color:#BBBDBF"/>
	<stop  offset="0.6732" style="stop-color:#E6E7E8"/>
	<stop  offset="0.8687" style="stop-color:#E3E2E2"/>
	<stop  offset="1" style="stop-color:#B3B2B3"/>
</linearGradient>
<path style="fill:url(#SVGID_00000175292452116618529580000002703699092676317375_);" d="M41.6,43.8V32.5c-0.1-0.3-0.3-1-0.7-1.6
	c-0.7-0.9-1.7-1.1-2-1.2c-3.4,0-6.8,0-10.2,0V14.4h42.6c0,5.1,0,10.1,0,15.2c-3.4,0-6.7,0-10.1,0c-0.5,0.1-1.3,0.5-2,1.2
	c-0.5,0.6-0.7,1.6-0.7,1.6v11.3C58.5,43.8,47.3,43.8,41.6,43.8z"/>
<linearGradient id="SVGID_00000122687225468416745300000001667271609514032830_" gradientUnits="userSpaceOnUse" x1="24.3189" y1="-504.492" x2="40.4709" y2="-518.2938" gradientTransform="matrix(1 0 0 -1 0 -479.8898)">
	<stop  offset="0.1816" style="stop-color:#808080"/>
	<stop  offset="0.2933" style="stop-color:#9D9B9B"/>
	<stop  offset="0.5447" style="stop-color:#CBCBCA"/>
	<stop  offset="0.6732" style="stop-color:#E8E5E5"/>
	<stop  offset="0.8687" style="stop-color:#E3E2E2"/>
	<stop  offset="1" style="stop-color:#B3B2B3"/>
</linearGradient>
<path style="fill:url(#SVGID_00000122687225468416745300000001667271609514032830_);" d="M28.6,34.1h7.2c0.2,0.1,0.8,0.2,1.3,0.8
	c0.3,0.4,0.4,0.8,0.5,1.1c0,2.6,0,5.3,0,7.9h4V32.5c-0.1-0.3-0.3-1-0.7-1.6c-0.7-0.9-1.7-1.1-2-1.2c-3.4,0-6.8,0-10.2,0
	C28.6,29.7,28.6,34.1,28.6,34.1z"/>
<linearGradient id="SVGID_00000182518794090877121030000001988656134054210461_" gradientUnits="userSpaceOnUse" x1="54.3443" y1="-522.0345" x2="67.607" y2="-511.7702" gradientTransform="matrix(1 0 0 -1 0 -479.8898)">
	<stop  offset="0" style="stop-color:#9D9B9B"/>
	<stop  offset="0.1816" style="stop-color:#808080"/>
	<stop  offset="0.2933" style="stop-color:#9D9B9B"/>
	<stop  offset="0.5447" style="stop-color:#CBCBCA"/>
	<stop  offset="0.6732" style="stop-color:#E8E5E5"/>
	<stop  offset="0.8687" style="stop-color:#E3E2E2"/>
	<stop  offset="1" style="stop-color:#B3B2B3"/>
</linearGradient>
<path style="fill:url(#SVGID_00000182518794090877121030000001988656134054210461_);" d="M71.2,34.1H64c-0.2,0.1-0.8,0.2-1.3,0.8
	c-0.3,0.4-0.5,0.8-0.5,1.1c0,2.6,0,5.3,0,7.9h-4V32.5c0.1-0.3,0.3-1,0.7-1.6c0.7-0.9,1.7-1.1,2-1.2c3.4,0,6.8,0,10.2,0L71.2,34.1
	L71.2,34.1z"/>
<linearGradient id="SVGID_00000116228738768453991850000015489283263068712370_" gradientUnits="userSpaceOnUse" x1="28.6447" y1="-1562.8899" x2="71.2447" y2="-1562.8899" gradientTransform="matrix(1 0 0 -1 0 -1550.8899)">
	<stop  offset="0" style="stop-color:#909295"/>
	<stop  offset="0.3883" style="stop-color:#D1D2D3"/>
	<stop  offset="0.6788" style="stop-color:#BCBDBF"/>
	<stop  offset="1" style="stop-color:#909295"/>
</linearGradient>
<rect x="28.6" y="9.6" style="fill:url(#SVGID_00000116228738768453991850000015489283263068712370_);" width="42.6" height="4.8"/>
<linearGradient id="SVGID_00000173150143388221279370000000711271190625591941_" gradientUnits="userSpaceOnUse" x1="28.6447" y1="-1563.0898" x2="71.2447" y2="-1563.0898" gradientTransform="matrix(1 0 0 -1 0 -1550.8899)">
	<stop  offset="0" style="stop-color:#59595C;stop-opacity:0"/>
	<stop  offset="0.4749" style="stop-color:#FFFFFF"/>
	<stop  offset="0.5701" style="stop-color:#FCFDFF;stop-opacity:0.8187"/>
	<stop  offset="0.6515" style="stop-color:#F1F1F1;stop-opacity:0.6636"/>
	<stop  offset="0.728" style="stop-color:#DFDFDF;stop-opacity:0.518"/>
	<stop  offset="0.8014" style="stop-color:#C6C6C6;stop-opacity:0.3783"/>
	<stop  offset="0.8726" style="stop-color:#A5A6A7;stop-opacity:0.2426"/>
	<stop  offset="0.9412" style="stop-color:#808081;stop-opacity:0.112"/>
	<stop  offset="1" style="stop-color:#59595C;stop-opacity:0"/>
</linearGradient>
<rect x="28.6" y="9.8" style="fill:url(#SVGID_00000173150143388221279370000000711271190625591941_);" width="42.6" height="4.8"/>
<linearGradient id="SVGID_00000069382118435745918450000012251493446331755446_" gradientUnits="userSpaceOnUse" x1="49.685" y1="-1536.9457" x2="50.0716" y2="-1583.5883" gradientTransform="matrix(1 0 0 -1 0 -1550.8899)">
	<stop  offset="0.4342" style="stop-color:#59595C;stop-opacity:0"/>
	<stop  offset="0.4564" style="stop-color:#5E5E61;stop-opacity:0.1036"/>
	<stop  offset="0.4836" style="stop-color:#6D6D70;stop-opacity:0.2311"/>
	<stop  offset="0.5136" style="stop-color:#868689;stop-opacity:0.3712"/>
	<stop  offset="0.5455" style="stop-color:#A9A9AB;stop-opacity:0.5204"/>
	<stop  offset="0.5785" style="stop-color:#D6D6D6;stop-opacity:0.6749"/>
	<stop  offset="0.6053" style="stop-color:#FFFFFF;stop-opacity:0.8"/>
</linearGradient>
<rect x="28.6" y="9.6" style="opacity:0.49;fill:url(#SVGID_00000069382118435745918450000012251493446331755446_);enable-background:new    ;" width="42.6" height="4.8"/>
<linearGradient id="SVGID_00000017500330421788534690000003200723479008169898_" gradientUnits="userSpaceOnUse" x1="28.6447" y1="-1565.2899" x2="71.2912" y2="-1565.2899" gradientTransform="matrix(1 0 0 -1 0 -1550.8899)">
	<stop  offset="2.513967e-02" style="stop-color:#676767"/>
	<stop  offset="0.3212" style="stop-color:#9D9B9B"/>
	<stop  offset="0.6732" style="stop-color:#FFFFFF"/>
	<stop  offset="0.7793" style="stop-color:#E3E2E2"/>
	<stop  offset="1" style="stop-color:#909295"/>
</linearGradient>
<line style="fill:none;stroke:url(#SVGID_00000017500330421788534690000003200723479008169898_);stroke-width:0.75;stroke-miterlimit:10;" x1="28.6" y1="14.4" x2="71.3" y2="14.4"/>
<linearGradient id="SVGID_00000095338011017625185970000009767431567408767903_" gradientUnits="userSpaceOnUse" x1="57.3668" y1="-1594.3575" x2="66.9923" y2="-1577.6858" gradientTransform="matrix(1 0 0 -1 0 -1550.8899)">
	<stop  offset="2.513967e-02" style="stop-color:#676767"/>
	<stop  offset="0.3212" style="stop-color:#9D9B9B"/>
	<stop  offset="0.5168" style="stop-color:#FFFFFF"/>
	<stop  offset="0.7793" style="stop-color:#E3E2E2"/>
	<stop  offset="1" style="stop-color:#909295"/>
</linearGradient>
<path style="fill:none;stroke:url(#SVGID_00000095338011017625185970000009767431567408767903_);stroke-width:0.75;stroke-miterlimit:10;" d="
	M71.2,29.7H61.1c-0.2,0-1.2,0.1-1.9,0.9s-0.8,1.7-0.8,1.9c0,3.8,0,7.5,0,11.3"/>
<linearGradient id="SVGID_00000175321371352281778480000004788417401417317800_" gradientUnits="userSpaceOnUse" x1="42.5494" y1="-1594.3286" x2="32.9306" y2="-1577.6681" gradientTransform="matrix(1 0 0 -1 0 -1550.8899)">
	<stop  offset="2.513967e-02" style="stop-color:#676767"/>
	<stop  offset="0.3212" style="stop-color:#9D9B9B"/>
	<stop  offset="0.5168" style="stop-color:#FFFFFF"/>
	<stop  offset="0.7793" style="stop-color:#E3E2E2"/>
	<stop  offset="1" style="stop-color:#909295"/>
</linearGradient>
<path style="fill:none;stroke:url(#SVGID_00000175321371352281778480000004788417401417317800_);stroke-width:0.75;stroke-miterlimit:10;" d="
	M41.6,43.8V32.5c-0.1-0.4-0.3-1-0.7-1.6c-1-1.1-2.4-1.2-2.6-1.2c-3.2,0-6.3,0-9.5,0"/>
<rect x="1" y="92.7" class="st19" width="98" height="14.1"/>
<linearGradient id="SVGID_00000031197327497743432290000006881795744366143116_" gradientUnits="userSpaceOnUse" x1="50" y1="-586.6555" x2="50" y2="-572.5797" gradientTransform="matrix(1 0 0 -1 0 -479.8898)">
	<stop  offset="8.379889e-03" style="stop-color:#333333;stop-opacity:0"/>
	<stop  offset="0.5754" style="stop-color:#808080"/>
	<stop  offset="0.6781" style="stop-color:#C7C6C5;stop-opacity:0.76"/>
	<stop  offset="0.8698" style="stop-color:#4F4F4F;stop-opacity:0.3067"/>
	<stop  offset="1" style="stop-color:#333333;stop-opacity:0"/>
</linearGradient>
<rect x="1" y="92.7" style="fill:url(#SVGID_00000031197327497743432290000006881795744366143116_);" width="98" height="14.1"/>
<rect x="43" y="106.1" class="st19" width="14.1" height="42.9"/>
<linearGradient id="SVGID_00000126296883039302820070000001059627040902823040_" gradientUnits="userSpaceOnUse" x1="42.9703" y1="-606.6328" x2="57.0461" y2="-606.6328" gradientTransform="matrix(1 0 0 -1 0 -479.8898)">
	<stop  offset="8.379889e-03" style="stop-color:#333333;stop-opacity:0"/>
	<stop  offset="0.4087" style="stop-color:#808080"/>
	<stop  offset="0.5427" style="stop-color:#C7C6C5;stop-opacity:0.76"/>
	<stop  offset="0.8698" style="stop-color:#4F4F4F;stop-opacity:0.3067"/>
	<stop  offset="1" style="stop-color:#333333;stop-opacity:0"/>
</linearGradient>
<path style="fill:url(#SVGID_00000126296883039302820070000001059627040902823040_);" d="M43,149.1v-42.3c0.7-0.6,3.4-2.6,7.3-2.4
	c3.6,0.1,5.9,1.8,6.7,2.4c0,14.1,0,28.2,0,42.3H43z"/>
<linearGradient id="SVGID_00000114761303788111060420000016045233428970821003_" gradientUnits="userSpaceOnUse" x1="50" y1="-584.1753" x2="50" y2="-628.9406" gradientTransform="matrix(1 0 0 -1 0 -479.8898)">
	<stop  offset="0" style="stop-color:#676767"/>
	<stop  offset="0.1026" style="stop-color:#5E5E5E;stop-opacity:0.8974"/>
	<stop  offset="0.433" style="stop-color:#464646;stop-opacity:0.567"/>
	<stop  offset="0.7403" style="stop-color:#383838;stop-opacity:0.2597"/>
	<stop  offset="1" style="stop-color:#333333;stop-opacity:0"/>
</linearGradient>
<path style="fill:url(#SVGID_00000114761303788111060420000016045233428970821003_);" d="M43,149.1v-42.3c0.7-0.6,3.4-2.6,7.3-2.4
	c3.6,0.1,5.9,1.8,6.7,2.4c0,14.1,0,28.2,0,42.3H43z"/>
<image style="overflow:visible;" width="200" height="200" xlink:href="../../pepsi.png"  transform="matrix(5.248936e-02 0 0 5.248936e-02 45.2404 18.6021)">
</image>
</svg>
