<?xml version="1.0" encoding="utf-8"?>
<!-- Generator: Adobe Illustrator 25.4.1, SVG Export Plug-In . SVG Version: 6.00 Build 0)  -->
<svg version="1.1" id="Слой_1" xmlns="http://www.w3.org/2000/svg" xmlns:xlink="http://www.w3.org/1999/xlink" x="0px" y="0px"
	 viewBox="0 0 100 160" style="enable-background:new 0 0 100 160;" xml:space="preserve">
<style type="text/css">
	.st0{clip-path:url(#SVGID_00000140702726164551828910000004355309094087690431_);}
	.st1{fill:none;stroke:#CCCCCC;stroke-width:0.5;stroke-miterlimit:10;}
	.st2{fill:url(#SVGID_00000027600898785601455960000012315749451842847162_);}
	.st3{opacity:0.5;fill:url(#SVGID_00000144296886001799455560000013272767462225767087_);enable-background:new    ;}
	.st4{fill:url(#SVGID_00000095324499207277398860000007007704535184979611_);}
	.st5{opacity:0.5;fill:url(#SVGID_00000044900560915775836390000007163243280705122737_);enable-background:new    ;}
	.st6{fill:url(#SVGID_00000182494166130627040210000008473704557609533884_);}
	.st7{opacity:0.5;fill:url(#SVGID_00000167386304922687400460000008433414819912881323_);enable-background:new    ;}
	.st8{opacity:0.5;fill:url(#SVGID_00000170993312737137737680000008508340459647424910_);enable-background:new    ;}
	.st9{opacity:0.5;fill:url(#SVGID_00000042008050417573423540000008062828937655365564_);enable-background:new    ;}
	.st10{opacity:0.5;fill:url(#SVGID_00000141452410815816431140000014196389402754255505_);enable-background:new    ;}
	.st11{fill:url(#SVGID_00000093162253176441207940000009325138451786739618_);}
	.st12{fill:url(#SVGID_00000070105818265340776840000005220790730602644142_);}
	.st13{fill:url(#SVGID_00000018195014773993338750000007669749907655049918_);}
	.st14{fill:url(#SVGID_00000034788404992123707070000005640814972560779961_);}
	.st15{fill:url(#SVGID_00000154397955852826616990000012738049359601485487_);}
	.st16{fill:url(#SVGID_00000065791838890877236760000008825139000946954642_);}
	.st17{opacity:0.49;fill:url(#SVGID_00000137854347867932697510000012742299370717652365_);enable-background:new    ;}
	.st18{fill:none;stroke:url(#SVGID_00000082338932569176794280000008843938692982813626_);stroke-width:0.5;stroke-miterlimit:10;}
	.st19{fill:none;stroke:url(#SVGID_00000127020182140244080020000002661954615929983373_);stroke-width:0.5;stroke-miterlimit:10;}
	.st20{fill:none;stroke:url(#SVGID_00000003784717155280736830000014268461728947063430_);stroke-width:0.5;stroke-miterlimit:10;}
	.st21{fill:#676767;}
	.st22{fill:url(#SVGID_00000079451445286219653620000006680747096072875676_);}
	.st23{fill:url(#SVGID_00000090999734665436412050000018145162599419650694_);}
	.st24{fill:url(#SVGID_00000003091073574019558800000015694161976402764196_);}
	.st25{fill:url(#SVGID_00000038380734201990605130000004967550100704937603_);}
	.st26{fill:url(#SVGID_00000046332455771279881440000001019936436597004211_);}
	.st27{fill:url(#SVGID_00000155864946252855493370000012480930507176089497_);}
</style>
<g>
	<g>
		<g>
			<defs>
				<path id="SVGID_00000131346858755072004540000017566828697823637128_" d="M96.7,91.9v1.3h-2.2H77.3h-6.2v-3.4v-0.1H28.8v0.1v3.4
					h-6H5.6h-2v-1.3H1.3v1.3v17.9v1.3h2.2v-1.3h2.2H23h5.8c0,1.3,0,3,0,3h4.1c0.6,0.1,1.8,0.5,3,1.6c1.4,1.4,1.7,3,1.8,3.5
					c0,1.5,0,3,0,4.5h3.4v22.7v2.1h-1.3v2.2h1.3H59h1.3v-2.2H59v-2.2V129h0.1v-5.4h3.2c0-1.4,0-2.9,0-4.4c0-0.5,0.2-2.2,1.6-3.6
					c1.3-1.4,2.8-1.6,3.3-1.7c1.4,0,2.7,0,4.1,0l0.1-3h6.3h17.1h2.1v1.3h2.2v-1.3V93.2v-1.3C99.1,91.9,96.7,91.9,96.7,91.9z"/>
			</defs>
			<clipPath id="SVGID_00000098210698644182872160000016745098815683184803_">
				<use xlink:href="#SVGID_00000131346858755072004540000017566828697823637128_"  style="overflow:visible;"/>
			</clipPath>
			
				<g transform="matrix(1 0 0 1 0 3.814697e-06)" style="clip-path:url(#SVGID_00000098210698644182872160000016745098815683184803_);">
				
					<image style="overflow:visible;enable-background:new    ;" width="1200" height="900" xlink:href="../../Фитинги/Резьбовые/Металл.jpg"  transform="matrix(0.1127 0 0 0.1127 -4.3042 60.9166)">
				</image>
			</g>
		</g>
	</g>
	<g>
		<path id="SVGID_1_" class="st1" d="M96.7,91.9v1.3h-2.2H77.3h-6.2v-3.4v-0.1H28.8v0.1v3.4h-6H5.6h-2v-1.3H1.3v1.3v17.9v1.3h2.2
			v-1.3h2.2H23h5.8c0,1.3,0,3,0,3h4.1c0.6,0.1,1.8,0.5,3,1.6c1.4,1.4,1.7,3,1.8,3.5c0,1.5,0,3,0,4.5h3.4v22.7v2.1h-1.3v2.2h1.3H59
			h1.3v-2.2H59v-2.2V129h0.1v-5.4h3.2c0-1.4,0-2.9,0-4.4c0-0.5,0.2-2.2,1.6-3.6c1.3-1.4,2.8-1.6,3.3-1.7c1.4,0,2.7,0,4.1,0l0.1-3
			h6.3h17.1h2.1v1.3h2.2v-1.3V93.2v-1.3C99.1,91.9,96.7,91.9,96.7,91.9z"/>
	</g>
</g>
<linearGradient id="SVGID_00000011729323497038840540000005342470355314044070_" gradientUnits="userSpaceOnUse" x1="-2041.635" y1="-668.0143" x2="-2059.5002" y2="-668.0143" gradientTransform="matrix(0 1 1 0 750.4143 2074.0725)">
	<stop  offset="0" style="stop-color:#9D9B9B"/>
	<stop  offset="0.1816" style="stop-color:#808080"/>
	<stop  offset="0.2933" style="stop-color:#9D9B9B"/>
	<stop  offset="0.5447" style="stop-color:#CBCBCA"/>
	<stop  offset="0.6732" style="stop-color:#FFFFFF"/>
	<stop  offset="0.8687" style="stop-color:#E3E2E2"/>
	<stop  offset="1" style="stop-color:#B3B2B3"/>
</linearGradient>
<rect x="65.8" y="14.5" style="fill:url(#SVGID_00000011729323497038840540000005342470355314044070_);" width="33.2" height="17.9"/>
<linearGradient id="SVGID_00000138564732035078552860000017455453834884009913_" gradientUnits="userSpaceOnUse" x1="-2490.4785" y1="-778.3478" x2="-2478.0662" y2="-778.3478" gradientTransform="matrix(1 0 0 -1 2555.5591 -754.8978)">
	<stop  offset="0" style="stop-color:#3F3B3C"/>
	<stop  offset="1" style="stop-color:#3F3B3C;stop-opacity:0"/>
</linearGradient>
<polygon style="opacity:0.5;fill:url(#SVGID_00000138564732035078552860000017455453834884009913_);enable-background:new    ;" points="
	77.4,14.5 64.9,14.5 64.9,32.4 77.5,32.4 "/>
<linearGradient id="SVGID_00000152225403095636019070000015060550764107076234_" gradientUnits="userSpaceOnUse" x1="-1074.2368" y1="-166.1964" x2="-1092.1023" y2="-166.1964" gradientTransform="matrix(-1 0 0 1 -1033.1367 221.6964)">
	<stop  offset="0" style="stop-color:#9D9B9B"/>
	<stop  offset="0.1816" style="stop-color:#808080"/>
	<stop  offset="0.2933" style="stop-color:#9D9B9B"/>
	<stop  offset="0.5447" style="stop-color:#CBCBCA"/>
	<stop  offset="0.6732" style="stop-color:#FFFFFF"/>
	<stop  offset="0.8687" style="stop-color:#E3E2E2"/>
	<stop  offset="1" style="stop-color:#B3B2B3"/>
</linearGradient>
<rect x="41.1" y="38.9" style="fill:url(#SVGID_00000152225403095636019070000015060550764107076234_);" width="17.9" height="33.2"/>
<linearGradient id="SVGID_00000131348225940221261990000016955429829926465677_" gradientUnits="userSpaceOnUse" x1="-1988.6555" y1="-1745.7335" x2="-1976.2432" y2="-1745.7335" gradientTransform="matrix(6.123234e-17 1 1 -6.123234e-17 1795.8335 2026.8413)">
	<stop  offset="0" style="stop-color:#3F3B3C"/>
	<stop  offset="1" style="stop-color:#3F3B3C;stop-opacity:0"/>
</linearGradient>
<polygon style="opacity:0.5;fill:url(#SVGID_00000131348225940221261990000016955429829926465677_);enable-background:new    ;" points="
	59,50.5 59,38 41.2,38 41.2,50.7 "/>
<linearGradient id="SVGID_00000119835280752733846950000014089187102663391384_" gradientUnits="userSpaceOnUse" x1="-1545.4783" y1="755.1851" x2="-1527.6128" y2="755.1851" gradientTransform="matrix(-6.123234e-17 -1 -1 6.123234e-17 773.0851 -1513.0449)">
	<stop  offset="0" style="stop-color:#9D9B9B"/>
	<stop  offset="0.1816" style="stop-color:#808080"/>
	<stop  offset="0.2933" style="stop-color:#9D9B9B"/>
	<stop  offset="0.5447" style="stop-color:#CBCBCA"/>
	<stop  offset="0.6732" style="stop-color:#FFFFFF"/>
	<stop  offset="0.8687" style="stop-color:#E3E2E2"/>
	<stop  offset="1" style="stop-color:#B3B2B3"/>
</linearGradient>
<rect x="1.3" y="14.5" style="fill:url(#SVGID_00000119835280752733846950000014089187102663391384_);" width="33.2" height="17.9"/>
<linearGradient id="SVGID_00000055704472178488931620000009919469361443531155_" gradientUnits="userSpaceOnUse" x1="-1067.2878" y1="-1292.4753" x2="-1054.8755" y2="-1292.4753" gradientTransform="matrix(-1 0 0 1 -1032.0597 1315.9253)">
	<stop  offset="0" style="stop-color:#3F3B3C"/>
	<stop  offset="1" style="stop-color:#3F3B3C;stop-opacity:0"/>
</linearGradient>
<polygon style="opacity:0.5;fill:url(#SVGID_00000055704472178488931620000009919469361443531155_);enable-background:new    ;" points="
	23,32.4 35.4,32.4 35.4,14.5 22.8,14.5 "/>
<linearGradient id="SVGID_00000140010035831770663660000010907932811418527133_" gradientUnits="userSpaceOnUse" x1="-390.6623" y1="-2416.1753" x2="-386.4655" y2="-2416.1753" gradientTransform="matrix(1 0 0 -1 392.1597 -2392.7253)">
	<stop  offset="0" style="stop-color:#3F3B3C"/>
	<stop  offset="8.166289e-02" style="stop-color:#3F3B3C;stop-opacity:0.9183"/>
	<stop  offset="1" style="stop-color:#3F3B3C;stop-opacity:0"/>
</linearGradient>
<polygon style="opacity:0.5;fill:url(#SVGID_00000140010035831770663660000010907932811418527133_);enable-background:new    ;" points="
	5.6,14.5 1.4,14.5 1.4,32.4 5.7,32.4 "/>
<linearGradient id="SVGID_00000116237122010291310680000003618313649849311143_" gradientUnits="userSpaceOnUse" x1="-1295.9402" y1="-2245.9275" x2="-1291.7433" y2="-2245.9275" gradientTransform="matrix(6.123234e-17 -1 -1 -6.123234e-17 -2195.8774 -1224.0118)">
	<stop  offset="0" style="stop-color:#3F3B3C"/>
	<stop  offset="8.166289e-02" style="stop-color:#3F3B3C;stop-opacity:0.9183"/>
	<stop  offset="1" style="stop-color:#3F3B3C;stop-opacity:0"/>
</linearGradient>
<polygon style="opacity:0.5;fill:url(#SVGID_00000116237122010291310680000003618313649849311143_);enable-background:new    ;" points="
	41.1,67.8 41.1,72 59,72 59,67.7 "/>
<linearGradient id="SVGID_00000096025186341679500130000000668423144139855489_" gradientUnits="userSpaceOnUse" x1="-1000.8089" y1="-1425.6018" x2="-996.6121" y2="-1425.6018" gradientTransform="matrix(-1 0 0 1 -902.0033 1449.0518)">
	<stop  offset="0" style="stop-color:#3F3B3C"/>
	<stop  offset="8.166289e-02" style="stop-color:#3F3B3C;stop-opacity:0.9183"/>
	<stop  offset="1" style="stop-color:#3F3B3C;stop-opacity:0"/>
</linearGradient>
<polygon style="opacity:0.5;fill:url(#SVGID_00000096025186341679500130000000668423144139855489_);enable-background:new    ;" points="
	94.7,32.4 98.9,32.4 98.9,14.5 94.6,14.5 "/>
<linearGradient id="SVGID_00000070802379376515508340000013123038292504856466_" gradientUnits="userSpaceOnUse" x1="28.9" y1="-1581.1899" x2="71.3" y2="-1581.1899" gradientTransform="matrix(1 0 0 -1 0 -1550.8899)">
	<stop  offset="0" style="stop-color:#909295"/>
	<stop  offset="0.3883" style="stop-color:#D1D2D3"/>
	<stop  offset="0.6788" style="stop-color:#BCBDBF"/>
	<stop  offset="1" style="stop-color:#909295"/>
</linearGradient>
<path style="fill:url(#SVGID_00000070802379376515508340000013123038292504856466_);" d="M41.7,44.9V33.7c-0.1-0.3-0.3-1-0.7-1.6
	c-0.7-0.9-1.6-1.1-2-1.2c-3.3,0-6.8,0-10.1,0V15.7h42.4c0,5.1,0,10,0,15.1c-3.3,0-6.7,0-10,0c-0.5,0.1-1.3,0.5-2,1.2
	c-0.5,0.6-0.7,1.6-0.7,1.6v11.2C58.4,44.9,47.3,44.9,41.7,44.9z"/>
<linearGradient id="SVGID_00000000201789492995218950000009319176501895057814_" gradientUnits="userSpaceOnUse" x1="-3.7389" y1="-510.7241" x2="85.3024" y2="-509.6615" gradientTransform="matrix(1 0 0 -1 0 -479.8898)">
	<stop  offset="0" style="stop-color:#9D9B9B"/>
	<stop  offset="0.1816" style="stop-color:#808080"/>
	<stop  offset="0.2933" style="stop-color:#9D9B9B"/>
	<stop  offset="0.5447" style="stop-color:#BBBDBF"/>
	<stop  offset="0.6732" style="stop-color:#E6E7E8"/>
	<stop  offset="0.8687" style="stop-color:#E3E2E2"/>
	<stop  offset="1" style="stop-color:#B3B2B3"/>
</linearGradient>
<path style="fill:url(#SVGID_00000000201789492995218950000009319176501895057814_);" d="M41.7,44.9V33.7c-0.1-0.3-0.3-1-0.7-1.6
	c-0.7-0.9-1.6-1.1-2-1.2c-3.3,0-6.8,0-10.1,0V15.7h42.4c0,5.1,0,10,0,15.1c-3.3,0-6.7,0-10,0c-0.5,0.1-1.3,0.5-2,1.2
	c-0.5,0.6-0.7,1.6-0.7,1.6v11.2C58.5,44.9,47.3,44.9,41.7,44.9z"/>
<linearGradient id="SVGID_00000085968846473402394550000002496475611576460439_" gradientUnits="userSpaceOnUse" x1="24.4554" y1="-505.812" x2="40.5255" y2="-519.5438" gradientTransform="matrix(1 0 0 -1 0 -479.8898)">
	<stop  offset="0.1816" style="stop-color:#808080"/>
	<stop  offset="0.2933" style="stop-color:#9D9B9B"/>
	<stop  offset="0.5447" style="stop-color:#CBCBCA"/>
	<stop  offset="0.6732" style="stop-color:#E8E5E5"/>
	<stop  offset="0.8687" style="stop-color:#E3E2E2"/>
	<stop  offset="1" style="stop-color:#B3B2B3"/>
</linearGradient>
<path style="fill:url(#SVGID_00000085968846473402394550000002496475611576460439_);" d="M28.8,35.4H36c0.2,0.1,0.8,0.2,1.2,0.8
	c0.3,0.4,0.4,0.8,0.5,1.1c0,2.6,0,5.3,0,7.9h3.9V33.7c-0.1-0.3-0.3-1-0.7-1.6c-0.7-0.9-1.6-1.1-2-1.2c-3.3,0-6.8,0-10.1,0
	C28.8,31,28.8,35.4,28.8,35.4z"/>
<linearGradient id="SVGID_00000049921917548530558850000016105946382486908566_" gradientUnits="userSpaceOnUse" x1="54.4542" y1="-523.3155" x2="67.6497" y2="-513.1033" gradientTransform="matrix(1 0 0 -1 0 -479.8898)">
	<stop  offset="0" style="stop-color:#9D9B9B"/>
	<stop  offset="0.1816" style="stop-color:#808080"/>
	<stop  offset="0.2933" style="stop-color:#9D9B9B"/>
	<stop  offset="0.5447" style="stop-color:#CBCBCA"/>
	<stop  offset="0.6732" style="stop-color:#E8E5E5"/>
	<stop  offset="0.8687" style="stop-color:#E3E2E2"/>
	<stop  offset="1" style="stop-color:#B3B2B3"/>
</linearGradient>
<path style="fill:url(#SVGID_00000049921917548530558850000016105946382486908566_);" d="M71.2,35.4H64c-0.2,0.1-0.8,0.2-1.2,0.8
	c-0.3,0.4-0.5,0.8-0.5,1.1c0,2.6,0,5.3,0,7.9h-3.9V33.7c0.1-0.3,0.3-1,0.7-1.6c0.7-0.9,1.7-1.1,2-1.2c3.4,0,6.8,0,10.2,0L71.2,35.4
	L71.2,35.4z"/>
<linearGradient id="SVGID_00000137838235234544513430000006283739314302985640_" gradientUnits="userSpaceOnUse" x1="28.8" y1="-1564.2899" x2="71.2" y2="-1564.2899" gradientTransform="matrix(1 0 0 -1 0 -1550.8899)">
	<stop  offset="0" style="stop-color:#909295"/>
	<stop  offset="0.3883" style="stop-color:#D1D2D3"/>
	<stop  offset="0.6788" style="stop-color:#BCBDBF"/>
	<stop  offset="1" style="stop-color:#909295"/>
</linearGradient>
<rect x="28.8" y="11" style="fill:url(#SVGID_00000137838235234544513430000006283739314302985640_);" width="42.4" height="4.8"/>
<linearGradient id="SVGID_00000148652131396066549170000018210765333276046776_" gradientUnits="userSpaceOnUse" x1="28.8" y1="-1564.3899" x2="71.2" y2="-1564.3899" gradientTransform="matrix(1 0 0 -1 0 -1550.8899)">
	<stop  offset="0" style="stop-color:#59595C;stop-opacity:0"/>
	<stop  offset="0.4749" style="stop-color:#FFFFFF"/>
	<stop  offset="0.5701" style="stop-color:#FCFDFF;stop-opacity:0.8187"/>
	<stop  offset="0.6515" style="stop-color:#F1F1F1;stop-opacity:0.6636"/>
	<stop  offset="0.728" style="stop-color:#DFDFDF;stop-opacity:0.518"/>
	<stop  offset="0.8014" style="stop-color:#C6C6C6;stop-opacity:0.3783"/>
	<stop  offset="0.8726" style="stop-color:#A5A6A7;stop-opacity:0.2426"/>
	<stop  offset="0.9412" style="stop-color:#808081;stop-opacity:0.112"/>
	<stop  offset="1" style="stop-color:#59595C;stop-opacity:0"/>
</linearGradient>
<rect x="28.8" y="11.1" style="fill:url(#SVGID_00000148652131396066549170000018210765333276046776_);" width="42.4" height="4.8"/>
<linearGradient id="SVGID_00000135682426235390761540000010573904866503638687_" gradientUnits="userSpaceOnUse" x1="49.7854" y1="-1538.4073" x2="50.1701" y2="-1584.8135" gradientTransform="matrix(1 0 0 -1 0 -1550.8899)">
	<stop  offset="0.4342" style="stop-color:#59595C;stop-opacity:0"/>
	<stop  offset="0.4564" style="stop-color:#5E5E61;stop-opacity:0.1036"/>
	<stop  offset="0.4836" style="stop-color:#6D6D70;stop-opacity:0.2311"/>
	<stop  offset="0.5136" style="stop-color:#868689;stop-opacity:0.3712"/>
	<stop  offset="0.5455" style="stop-color:#A9A9AB;stop-opacity:0.5204"/>
	<stop  offset="0.5785" style="stop-color:#D6D6D6;stop-opacity:0.6749"/>
	<stop  offset="0.6053" style="stop-color:#FFFFFF;stop-opacity:0.8"/>
</linearGradient>
<rect x="28.8" y="11" style="opacity:0.49;fill:url(#SVGID_00000135682426235390761540000010573904866503638687_);enable-background:new    ;" width="42.4" height="4.8"/>
<linearGradient id="SVGID_00000117665316452768162980000016964155673033961907_" gradientUnits="userSpaceOnUse" x1="28.8" y1="-1566.5898" x2="71.2" y2="-1566.5898" gradientTransform="matrix(1 0 0 -1 0 -1550.8899)">
	<stop  offset="2.513967e-02" style="stop-color:#676767"/>
	<stop  offset="0.3212" style="stop-color:#9D9B9B"/>
	<stop  offset="0.6732" style="stop-color:#FFFFFF"/>
	<stop  offset="0.7793" style="stop-color:#E3E2E2"/>
	<stop  offset="1" style="stop-color:#909295"/>
</linearGradient>
<line style="fill:none;stroke:url(#SVGID_00000117665316452768162980000016964155673033961907_);stroke-width:0.5;stroke-miterlimit:10;" x1="28.8" y1="15.7" x2="71.2" y2="15.7"/>
<linearGradient id="SVGID_00000145038159098220653150000016641411748278325411_" gradientUnits="userSpaceOnUse" x1="57.4384" y1="-1595.4902" x2="66.9307" y2="-1579.0491" gradientTransform="matrix(1 0 0 -1 0 -1550.8899)">
	<stop  offset="2.513967e-02" style="stop-color:#676767"/>
	<stop  offset="0.3212" style="stop-color:#9D9B9B"/>
	<stop  offset="0.5168" style="stop-color:#FFFFFF"/>
	<stop  offset="0.7793" style="stop-color:#E3E2E2"/>
	<stop  offset="1" style="stop-color:#909295"/>
</linearGradient>
<path style="fill:none;stroke:url(#SVGID_00000145038159098220653150000016641411748278325411_);stroke-width:0.5;stroke-miterlimit:10;" d="
	M71.2,30.9H61.1c-0.2,0-1.2,0.1-1.9,0.9s-0.8,1.6-0.8,1.9c0,3.7,0,7.5,0,11.2"/>
<linearGradient id="SVGID_00000111177066585556412090000005789923727355368595_" gradientUnits="userSpaceOnUse" x1="42.5174" y1="-1595.4991" x2="33.032" y2="-1579.0695" gradientTransform="matrix(1 0 0 -1 0 -1550.8899)">
	<stop  offset="2.513967e-02" style="stop-color:#676767"/>
	<stop  offset="0.3212" style="stop-color:#9D9B9B"/>
	<stop  offset="0.5168" style="stop-color:#FFFFFF"/>
	<stop  offset="0.7793" style="stop-color:#E3E2E2"/>
	<stop  offset="1" style="stop-color:#909295"/>
</linearGradient>
<path style="fill:none;stroke:url(#SVGID_00000111177066585556412090000005789923727355368595_);stroke-width:0.5;stroke-miterlimit:10;" d="
	M41.7,44.9V33.7c-0.1-0.4-0.3-1-0.7-1.6C40,31,38.6,31,38.3,31c-3.2,0-6.3,0-9.5,0"/>
<rect x="1.3" y="94.7" class="st21" width="97.5" height="14"/>
<linearGradient id="SVGID_00000060718165925155536240000010007700763460948124_" gradientUnits="userSpaceOnUse" x1="50.05" y1="-588.5616" x2="50.05" y2="-574.5616" gradientTransform="matrix(1 0 0 -1 0 -479.8898)">
	<stop  offset="8.379889e-03" style="stop-color:#333333;stop-opacity:0"/>
	<stop  offset="0.5754" style="stop-color:#808080"/>
	<stop  offset="0.6781" style="stop-color:#C7C6C5;stop-opacity:0.76"/>
	<stop  offset="0.8698" style="stop-color:#4F4F4F;stop-opacity:0.3067"/>
	<stop  offset="1" style="stop-color:#333333;stop-opacity:0"/>
</linearGradient>
<rect x="1.3" y="94.7" style="fill:url(#SVGID_00000060718165925155536240000010007700763460948124_);" width="97.5" height="14"/>
<linearGradient id="SVGID_00000106130172385407640300000002267224873180803257_" gradientUnits="userSpaceOnUse" x1="97.8" y1="473.8588" x2="97.8" y2="453.3004" gradientTransform="matrix(1 0 0 1 0 -440.1102)">
	<stop  offset="0" style="stop-color:#9D9B9B"/>
	<stop  offset="0.1816" style="stop-color:#808080"/>
	<stop  offset="0.2933" style="stop-color:#9D9B9B"/>
	<stop  offset="0.5447" style="stop-color:#CBCBCA"/>
	<stop  offset="0.6732" style="stop-color:#FFFFFF"/>
	<stop  offset="0.8687" style="stop-color:#E3E2E2"/>
	<stop  offset="1" style="stop-color:#B3B2B3"/>
</linearGradient>
<rect x="96.7" y="13.2" style="fill:url(#SVGID_00000106130172385407640300000002267224873180803257_);" width="2.2" height="20.6"/>
<linearGradient id="SVGID_00000178178908613677038630000016868733427525647012_" gradientUnits="userSpaceOnUse" x1="2.4" y1="473.8588" x2="2.4" y2="453.3004" gradientTransform="matrix(1 0 0 1 0 -440.1102)">
	<stop  offset="0" style="stop-color:#9D9B9B"/>
	<stop  offset="0.1816" style="stop-color:#808080"/>
	<stop  offset="0.2933" style="stop-color:#9D9B9B"/>
	<stop  offset="0.5447" style="stop-color:#CBCBCA"/>
	<stop  offset="0.6732" style="stop-color:#FFFFFF"/>
	<stop  offset="0.8687" style="stop-color:#E3E2E2"/>
	<stop  offset="1" style="stop-color:#B3B2B3"/>
</linearGradient>
<rect x="1.3" y="13.2" style="fill:url(#SVGID_00000178178908613677038630000016868733427525647012_);" width="2.2" height="20.6"/>
<linearGradient id="SVGID_00000129886379205339839540000010943786069854032019_" gradientUnits="userSpaceOnUse" x1="289.8479" y1="-321.9601" x2="289.8479" y2="-342.5151" gradientTransform="matrix(6.123234e-17 1 -1 6.123234e-17 -282.2175 -218.8979)">
	<stop  offset="0" style="stop-color:#9D9B9B"/>
	<stop  offset="0.1816" style="stop-color:#808080"/>
	<stop  offset="0.2933" style="stop-color:#9D9B9B"/>
	<stop  offset="0.5447" style="stop-color:#CBCBCA"/>
	<stop  offset="0.6732" style="stop-color:#FFFFFF"/>
	<stop  offset="0.8687" style="stop-color:#E3E2E2"/>
	<stop  offset="1" style="stop-color:#B3B2B3"/>
</linearGradient>
<polygon style="fill:url(#SVGID_00000129886379205339839540000010943786069854032019_);" points="39.8,72.1 39.8,69.8 60.3,69.8 
	60.3,72.1 "/>
<rect x="45.1" y="108" class="st21" width="9.9" height="42.7"/>
<linearGradient id="SVGID_00000035509404247325024660000006324315077777803177_" gradientUnits="userSpaceOnUse" x1="45.1" y1="568.5532" x2="54.9522" y2="568.5532" gradientTransform="matrix(1 0 0 1 0 -440.1102)">
	<stop  offset="8.379889e-03" style="stop-color:#333333;stop-opacity:0"/>
	<stop  offset="0.4087" style="stop-color:#808080"/>
	<stop  offset="0.5427" style="stop-color:#C7C6C5;stop-opacity:0.76"/>
	<stop  offset="0.8698" style="stop-color:#4F4F4F;stop-opacity:0.3067"/>
	<stop  offset="1" style="stop-color:#333333;stop-opacity:0"/>
</linearGradient>
<path style="fill:url(#SVGID_00000035509404247325024660000006324315077777803177_);" d="M45.1,150.7v-42.1c0.5-0.6,2.4-2.6,5.1-2.4
	c2.5,0.1,4.1,1.8,4.7,2.4c0,14.1,0,28,0,42.1H45.1z"/>
<linearGradient id="SVGID_00000044879371910613632400000017404458712134949816_" gradientUnits="userSpaceOnUse" x1="50" y1="546.2962" x2="50" y2="590.8102" gradientTransform="matrix(1 0 0 1 0 -440.1102)">
	<stop  offset="0" style="stop-color:#676767"/>
	<stop  offset="0.1026" style="stop-color:#5E5E5E;stop-opacity:0.8974"/>
	<stop  offset="0.433" style="stop-color:#464646;stop-opacity:0.567"/>
	<stop  offset="0.7403" style="stop-color:#383838;stop-opacity:0.2597"/>
	<stop  offset="1" style="stop-color:#333333;stop-opacity:0"/>
</linearGradient>
<path style="fill:url(#SVGID_00000044879371910613632400000017404458712134949816_);" d="M45.1,150.7v-42.1c0.5-0.6,2.4-2.6,5.1-2.4
	c2.5,0.1,4.1,1.8,4.7,2.4c0,14.1,0,28,0,42.1H45.1z"/>
<image style="overflow:visible;" width="200" height="200" xlink:href="../../pepsi.png"  transform="matrix(5.077660e-02 0 0 5.077660e-02 44.9723 20.433)">
</image>
</svg>
