<?xml version="1.0" encoding="utf-8"?>
<!-- Generator: Adobe Illustrator 25.4.1, SVG Export Plug-In . SVG Version: 6.00 Build 0)  -->
<svg version="1.1" id="Слой_1" xmlns="http://www.w3.org/2000/svg" xmlns:xlink="http://www.w3.org/1999/xlink" x="0px" y="0px"
	 viewBox="0 0 100 160" style="enable-background:new 0 0 100 160;" xml:space="preserve">
<style type="text/css">
	.st0{fill:url(#SVGID_1_);}
	.st1{fill:url(#SVGID_00000159431924970551593110000012685257112543497092_);}
	.st2{opacity:0.5;fill:url(#SVGID_00000029726632012844713590000003652588867498102173_);enable-background:new    ;}
	.st3{opacity:0.5;fill:url(#SVGID_00000033370614998723705520000016226747801869525169_);enable-background:new    ;}
	.st4{fill:url(#SVGID_00000176760901637099576570000014167410100483018897_);}
	.st5{opacity:0.5;fill:url(#SVGID_00000124854242201243219230000003493673908318525857_);enable-background:new    ;}
	.st6{fill:url(#SVGID_00000113317276630546551390000000377265348844993681_);}
	.st7{clip-path:url(#SVGID_00000145044378028380476980000003116487728580854401_);}
	.st8{fill:none;stroke:#B3B3B3;stroke-width:0.5;stroke-miterlimit:10;}
	.st9{fill:#666666;}
	.st10{fill:url(#SVGID_00000136376242922033448770000014664719449482002821_);}
	.st11{fill:url(#SVGID_00000162329215321360673060000009270470587747729579_);}
	.st12{fill:url(#SVGID_00000087397462474359844110000010118214820774794418_);}
	.st13{fill:url(#SVGID_00000183955139508493416470000013058258671846933153_);}
</style>
<linearGradient id="SVGID_1_" gradientUnits="userSpaceOnUse" x1="37.3" y1="1416.7113" x2="61.9355" y2="1416.7113" gradientTransform="matrix(1 0 0 1 0 -1398.6614)">
	<stop  offset="0" style="stop-color:#9F9D9D"/>
	<stop  offset="0.1816" style="stop-color:#808080"/>
	<stop  offset="0.2933" style="stop-color:#9F9D9D"/>
	<stop  offset="0.5447" style="stop-color:#CCCCCC"/>
	<stop  offset="0.6732" style="stop-color:#FFFFFF"/>
	<stop  offset="0.8687" style="stop-color:#E4E3E3"/>
	<stop  offset="1" style="stop-color:#B3B3B3"/>
</linearGradient>
<rect x="37.3" y="4.7" class="st0" width="24.6" height="26.7"/>
<linearGradient id="SVGID_00000174603824674831002160000007876615251657898941_" gradientUnits="userSpaceOnUse" x1="84.8" y1="1469.8613" x2="84.8" y2="1433.0613" gradientTransform="matrix(1 0 0 1 0 -1398.6614)">
	<stop  offset="0" style="stop-color:#9F9D9D"/>
	<stop  offset="0.1816" style="stop-color:#808080"/>
	<stop  offset="0.2933" style="stop-color:#9F9D9D"/>
	<stop  offset="0.5447" style="stop-color:#CCCCCC"/>
	<stop  offset="0.6732" style="stop-color:#FFFFFF"/>
	<stop  offset="0.8687" style="stop-color:#E4E3E3"/>
	<stop  offset="1" style="stop-color:#B3B3B3"/>
</linearGradient>
<polygon style="fill:url(#SVGID_00000174603824674831002160000007876615251657898941_);" points="71.2,71.2 71.2,34.4 98.4,34.4 
	98.4,71.2 "/>
<linearGradient id="SVGID_00000116219308811288425320000017964377962944370578_" gradientUnits="userSpaceOnUse" x1="-477.5432" y1="3478.811" x2="-468.052" y2="3478.811" gradientTransform="matrix(1 0 0 1 543.2952 -3426.011)">
	<stop  offset="0" style="stop-color:#3F3B3C"/>
	<stop  offset="1" style="stop-color:#3F3B3C;stop-opacity:0"/>
</linearGradient>
<polygon style="opacity:0.5;fill:url(#SVGID_00000116219308811288425320000017964377962944370578_);enable-background:new    ;" points="
	75.1,34.4 65.6,34.4 65.6,71.2 75.3,71.2 "/>
<linearGradient id="SVGID_00000034054070047937360520000007354379927144934026_" gradientUnits="userSpaceOnUse" x1="-2386.6599" y1="3286.8931" x2="-2376.3555" y2="3286.8931" gradientTransform="matrix(6.123234e-17 -1 1 6.123234e-17 -3237.293 -2351.4834)">
	<stop  offset="0" style="stop-color:#3F3B3C"/>
	<stop  offset="1" style="stop-color:#3F3B3C;stop-opacity:0"/>
</linearGradient>
<polygon style="opacity:0.5;fill:url(#SVGID_00000034054070047937360520000007354379927144934026_);enable-background:new    ;" points="
	37.3,25 37.3,35.3 61.9,35.3 61.9,24.8 "/>
<linearGradient id="SVGID_00000123420036663231915360000015556806215621597612_" gradientUnits="userSpaceOnUse" x1="-1094.106" y1="250.3154" x2="-1057.6428" y2="250.3154" gradientTransform="matrix(6.123234e-17 -1 1 6.123234e-17 -235.3654 -1023.106)">
	<stop  offset="0" style="stop-color:#9F9D9D"/>
	<stop  offset="0.1816" style="stop-color:#808080"/>
	<stop  offset="0.2933" style="stop-color:#9F9D9D"/>
	<stop  offset="0.5447" style="stop-color:#CCCCCC"/>
	<stop  offset="0.6732" style="stop-color:#FFFFFF"/>
	<stop  offset="0.8687" style="stop-color:#E4E3E3"/>
	<stop  offset="1" style="stop-color:#B3B3B3"/>
</linearGradient>
<rect x="1.6" y="34.5" style="fill:url(#SVGID_00000123420036663231915360000015556806215621597612_);" width="26.7" height="36.5"/>
<linearGradient id="SVGID_00000176004481982417899390000003593093528482950019_" gradientUnits="userSpaceOnUse" x1="-1220.2289" y1="2161.387" x2="-1209.9246" y2="2161.387" gradientTransform="matrix(-1 0 0 -1 -1188.1875 2214.187)">
	<stop  offset="0" style="stop-color:#3F3B3C"/>
	<stop  offset="1" style="stop-color:#3F3B3C;stop-opacity:0"/>
</linearGradient>
<polygon style="opacity:0.5;fill:url(#SVGID_00000176004481982417899390000003593093528482950019_);enable-background:new    ;" points="
	21.8,71 32.2,71 32.2,34.6 21.7,34.6 "/>
<linearGradient id="SVGID_00000119825711966319919690000005666280847028784271_" gradientUnits="userSpaceOnUse" x1="20.4134" y1="-506.4993" x2="79.29" y2="-497.8481" gradientTransform="matrix(1 0 0 -1 0 -449.3386)">
	<stop  offset="6.699173e-02" style="stop-color:#919396"/>
	<stop  offset="0.3883" style="stop-color:#D1D3D4"/>
	<stop  offset="0.5154" style="stop-color:#CDCFD0"/>
	<stop  offset="0.6398" style="stop-color:#C1C3C5"/>
	<stop  offset="0.6788" style="stop-color:#BCBEC0"/>
	<stop  offset="0.7667" style="stop-color:#B5B7B9"/>
	<stop  offset="0.8967" style="stop-color:#A1A3A5"/>
	<stop  offset="0.9766" style="stop-color:#919396"/>
</linearGradient>
<rect x="28.3" y="31.4" style="fill:url(#SVGID_00000119825711966319919690000005666280847028784271_);" width="42.9" height="42.9"/>
<g>
	<g>
		<g>
			<g>
				<defs>
					<polygon id="SVGID_00000181802272002067781000000011421725711583184266_" points="75.1,114 71.2,114 71.2,111.1 61.9,111.1 
						61.9,84.4 37.3,84.4 37.3,104.6 37.3,111.1 28.3,111.1 28.3,114.2 28.3,114.2 28.3,114.2 1.6,114.2 1.6,150.6 21.8,150.6 
						21.8,150.6 28.3,150.6 28.3,154 71.2,154 71.2,150.8 75.3,150.8 98.4,150.8 98.4,114 					"/>
				</defs>
				<clipPath id="SVGID_00000132077296156444373290000002780578479025201854_">
					<use xlink:href="#SVGID_00000181802272002067781000000011421725711583184266_"  style="overflow:visible;"/>
				</clipPath>
				<g style="clip-path:url(#SVGID_00000132077296156444373290000002780578479025201854_);">
					
						<image style="overflow:visible;enable-background:new    ;" width="1200" height="900" xlink:href="../../Фитинги/Резьбовые/Металл.jpg"  transform="matrix(9.409861e-02 0 0 9.409861e-02 -6.9798 82.6015)">
					</image>
				</g>
			</g>
		</g>
	</g>
</g>
<polygon class="st8" points="75,114 71.1,114 71.1,111.1 61.8,111.1 61.8,84.4 37.2,84.4 37.2,104.6 37.2,111.1 28.2,111.1 
	28.2,114.2 28.2,114.2 28.2,114.2 1.5,114.2 1.5,150.6 21.8,150.6 21.8,150.6 28.2,150.6 28.2,154 71.1,154 71.1,150.8 75.1,150.8 
	98.3,150.8 98.3,114 "/>
<rect x="1.9" y="117.8" class="st9" width="95.8" height="28.5"/>
<linearGradient id="SVGID_00000049920302280112242280000005400584504012849047_" gradientUnits="userSpaceOnUse" x1="49.5" y1="-567.3042" x2="49.5" y2="-594.6813" gradientTransform="matrix(1 0 0 -1 0 -449.3386)">
	<stop  offset="8.379889e-03" style="stop-color:#333333;stop-opacity:0"/>
	<stop  offset="0.5754" style="stop-color:#808080"/>
	<stop  offset="0.6781" style="stop-color:#C7C7C7;stop-opacity:0.76"/>
	<stop  offset="0.8698" style="stop-color:#4F4F4F;stop-opacity:0.3067"/>
	<stop  offset="1" style="stop-color:#333333;stop-opacity:0"/>
</linearGradient>
<polygon style="fill:url(#SVGID_00000049920302280112242280000005400584504012849047_);" points="97.4,117.6 97.4,146.1 1.6,146.1 
	1.6,117.6 "/>
<linearGradient id="SVGID_00000177480953533057292300000007870136509305873037_" gradientUnits="userSpaceOnUse" x1="-1631.0632" y1="1234.5873" x2="-1630.7991" y2="1263.5195" gradientTransform="matrix(-1 0 0 1 -1581.3535 -1125.7114)">
	<stop  offset="0" style="stop-color:#333333;stop-opacity:0.5"/>
	<stop  offset="1" style="stop-color:#333333;stop-opacity:0"/>
</linearGradient>
<polygon style="fill:url(#SVGID_00000177480953533057292300000007870136509305873037_);" points="1.6,146.1 1.6,117.6 97.4,117.6 
	97.4,146.1 "/>
<path class="st9" d="M58.2,117.9c-0.3,0.4-2.9,4.3-8,4.4c-5.4,0.1-8.4-4.2-8.6-4.4c0-11.2,0-22.3,0-33.5h16.6L58.2,117.9L58.2,117.9
	z"/>
<linearGradient id="SVGID_00000029007289408361945060000004767996007821655485_" gradientUnits="userSpaceOnUse" x1="41.6" y1="-552.6895" x2="58.1796" y2="-552.6895" gradientTransform="matrix(1 0 0 -1 0 -449.3386)">
	<stop  offset="8.379889e-03" style="stop-color:#333333;stop-opacity:0"/>
	<stop  offset="0.4357" style="stop-color:#808080"/>
	<stop  offset="0.5664" style="stop-color:#C7C7C7;stop-opacity:0.76"/>
	<stop  offset="0.8698" style="stop-color:#4F4F4F;stop-opacity:0.3067"/>
	<stop  offset="1" style="stop-color:#333333;stop-opacity:0"/>
</linearGradient>
<path style="fill:url(#SVGID_00000029007289408361945060000004767996007821655485_);" d="M58.2,117.9c-0.3,0.4-2.9,4.3-8,4.4
	c-5.4,0.1-8.4-4.2-8.6-4.4c0-11.2,0-22.3,0-33.5h16.6L58.2,117.9L58.2,117.9z"/>
<linearGradient id="SVGID_00000078039366064063703260000015801582454417393808_" gradientUnits="userSpaceOnUse" x1="49.9" y1="-571.7921" x2="49.9" y2="-533.8229" gradientTransform="matrix(1 0 0 -1 0 -449.3386)">
	<stop  offset="0.1034" style="stop-color:#666666"/>
	<stop  offset="1" style="stop-color:#333333;stop-opacity:0"/>
</linearGradient>
<path style="fill:url(#SVGID_00000078039366064063703260000015801582454417393808_);" d="M58.2,118c-0.3,0.4-2.9,4.3-8,4.4
	c-5.4,0.1-8.4-4.2-8.6-4.4c0-11.2,0-22.3,0-33.5h16.6L58.2,118L58.2,118z"/>
<image style="overflow:visible;" width="200" height="200" xlink:href="../../pepsi.png"  transform="matrix(0.1036 0 0 0.1036 39.6383 41.5106)">
</image>
</svg>
