<?xml version="1.0" encoding="utf-8"?>
<!-- Generator: Adobe Illustrator 25.4.1, SVG Export Plug-In . SVG Version: 6.00 Build 0)  -->
<svg version="1.1" id="Слой_1" xmlns="http://www.w3.org/2000/svg" xmlns:xlink="http://www.w3.org/1999/xlink" x="0px" y="0px"
	 viewBox="0 0 100 160" style="enable-background:new 0 0 100 160;" xml:space="preserve">
<style type="text/css">
	.st0{clip-path:url(#SVGID_00000050636546645278848390000014671685528808422577_);}
	.st1{fill:none;stroke:#B3B3B3;stroke-width:0.5;stroke-miterlimit:10;}
	.st2{fill:url(#SVGID_00000018956889677068957150000009387754657523038092_);}
	.st3{fill:url(#SVGID_00000164472065279092952510000004369570422220222653_);}
	.st4{fill:url(#SVGID_00000145750279849788623500000013857109288519458207_);}
	.st5{fill:url(#SVGID_00000067204581893851992610000010261789693620553107_);}
	.st6{opacity:0.53;fill:url(#SVGID_00000082370517745956815890000003164679562775874234_);enable-background:new    ;}
	.st7{fill:url(#SVGID_00000072265512188936760000000003359857459558123663_);}
	.st8{opacity:0.53;fill:url(#SVGID_00000017505498419010650890000002324727315423203459_);enable-background:new    ;}
	.st9{fill:url(#SVGID_00000182498368770951318570000009200966387782004873_);}
	.st10{fill:url(#SVGID_00000034772671711089072920000006855997930783448761_);}
	.st11{fill:url(#SVGID_00000135666158316830304550000000690518712453621937_);}
</style>
<g>
	<g>
		<g>
			<g>
				<defs>
					<path id="SVGID_1_" d="M92.2,99.4c-0.5,0.7-1,1.4-1.4,2.2H9.3c-0.5-0.7-1-1.4-1.4-2.2H1.7V145h6.1c0.5-0.7,1-1.4,1.4-2.2h81.5
						c0.5,0.7,1,1.4,1.4,2.2h6.1V99.4H92.2z"/>
				</defs>
				<clipPath id="SVGID_00000044160759434782468600000016727065486725505719_">
					<use xlink:href="#SVGID_1_"  style="overflow:visible;"/>
				</clipPath>
				<g style="clip-path:url(#SVGID_00000044160759434782468600000016727065486725505719_);">
					
						<image style="overflow:visible;enable-background:new    ;" width="1200" height="900" xlink:href="../../Фитинги/Резьбовые/Металл.jpg"  transform="matrix(8.475094e-02 0 0 8.475094e-02 -8.805412e-03 86.4911)">
					</image>
				</g>
			</g>
		</g>
	</g>
</g>
<path class="st1" d="M92.2,99.4c-0.5,0.7-1,1.4-1.4,2.2H9.3c-0.5-0.7-1-1.4-1.4-2.2H1.7V145h6.1c0.5-0.7,1-1.4,1.4-2.2h81.5
	c0.5,0.7,1,1.4,1.4,2.2h6.1V99.4H92.2z"/>
<linearGradient id="SVGID_00000139251983742540189870000006053482038531444883_" gradientUnits="userSpaceOnUse" x1="50.25" y1="-581.5386" x2="50.25" y2="-539.7386" gradientTransform="matrix(1 0 0 -1 0 -519.3386)">
	<stop  offset="0" style="stop-color:#9F9D9D"/>
	<stop  offset="0.1816" style="stop-color:#808080"/>
	<stop  offset="0.2933" style="stop-color:#9F9D9D"/>
	<stop  offset="0.5447" style="stop-color:#CCCCCC"/>
	<stop  offset="0.6732" style="stop-color:#FFFFFF"/>
	<stop  offset="0.8687" style="stop-color:#E4E3E3"/>
	<stop  offset="1" style="stop-color:#B3B3B3"/>
</linearGradient>
<rect x="8.7" y="20.4" style="fill:url(#SVGID_00000139251983742540189870000006053482038531444883_);" width="83.1" height="41.8"/>
<linearGradient id="SVGID_00000087399037503415680560000000549747304146554281_" gradientUnits="userSpaceOnUse" x1="4.2" y1="-583.8036" x2="4.2" y2="-537.6036" gradientTransform="matrix(1 0 0 -1 0 -519.3386)">
	<stop  offset="0" style="stop-color:#9F9D9D"/>
	<stop  offset="0.1816" style="stop-color:#808080"/>
	<stop  offset="0.2933" style="stop-color:#9F9D9D"/>
	<stop  offset="0.5447" style="stop-color:#CCCCCC"/>
	<stop  offset="0.6732" style="stop-color:#FFFFFF"/>
	<stop  offset="0.8687" style="stop-color:#E4E3E3"/>
	<stop  offset="1" style="stop-color:#B3B3B3"/>
</linearGradient>
<rect x="1.1" y="18.2" style="fill:url(#SVGID_00000087399037503415680560000000549747304146554281_);" width="6.2" height="46.2"/>
<linearGradient id="SVGID_00000056412283220227173280000009826732543682700167_" gradientUnits="userSpaceOnUse" x1="95.8" y1="-583.8036" x2="95.8" y2="-537.6036" gradientTransform="matrix(1 0 0 -1 0 -519.3386)">
	<stop  offset="0" style="stop-color:#9F9D9D"/>
	<stop  offset="0.1816" style="stop-color:#808080"/>
	<stop  offset="0.2933" style="stop-color:#9F9D9D"/>
	<stop  offset="0.5447" style="stop-color:#CCCCCC"/>
	<stop  offset="0.6732" style="stop-color:#FFFFFF"/>
	<stop  offset="0.8687" style="stop-color:#E4E3E3"/>
	<stop  offset="1" style="stop-color:#B3B3B3"/>
</linearGradient>
<rect x="92.7" y="18.2" style="fill:url(#SVGID_00000056412283220227173280000009826732543682700167_);" width="6.2" height="46.2"/>
<linearGradient id="SVGID_00000000198091686353061880000005265098170803135913_" gradientUnits="userSpaceOnUse" x1="8" y1="-583.8036" x2="8" y2="-537.6036" gradientTransform="matrix(1 0 0 -1 0 -519.3386)">
	<stop  offset="0" style="stop-color:#9F9D9D"/>
	<stop  offset="0.1816" style="stop-color:#808080"/>
	<stop  offset="0.2933" style="stop-color:#9F9D9D"/>
	<stop  offset="0.5447" style="stop-color:#CCCCCC"/>
	<stop  offset="0.6732" style="stop-color:#FFFFFF"/>
	<stop  offset="0.8687" style="stop-color:#E4E3E3"/>
	<stop  offset="1" style="stop-color:#B3B3B3"/>
</linearGradient>
<path style="fill:url(#SVGID_00000000198091686353061880000005265098170803135913_);" d="M7.3,18.2c0.5,0.7,1,1.5,1.4,2.2
	c0,13.9,0,27.9,0,41.8c-0.5,0.7-1,1.5-1.4,2.2C7.3,64.4,7.3,18.2,7.3,18.2z"/>
<linearGradient id="SVGID_00000043428688366953921060000013463333660974213301_" gradientUnits="userSpaceOnUse" x1="7.284" y1="-560.6386" x2="8.7285" y2="-560.6386" gradientTransform="matrix(1 0 0 -1 0 -519.3386)">
	<stop  offset="0" style="stop-color:#B3B3B3;stop-opacity:0.5"/>
	<stop  offset="1" style="stop-color:#B3B3B3;stop-opacity:0"/>
</linearGradient>
<path style="opacity:0.53;fill:url(#SVGID_00000043428688366953921060000013463333660974213301_);enable-background:new    ;" d="
	M7.3,18.2c0.5,0.7,1,1.5,1.4,2.2c0,13.9,0,27.9,0,41.8c-0.5,0.7-1,1.5-1.4,2.2C7.3,64.4,7.3,18.2,7.3,18.2z"/>
<linearGradient id="SVGID_00000129911628268094052070000012740790362857098666_" gradientUnits="userSpaceOnUse" x1="92" y1="-583.8036" x2="92" y2="-537.6036" gradientTransform="matrix(1 0 0 -1 0 -519.3386)">
	<stop  offset="0" style="stop-color:#9F9D9D"/>
	<stop  offset="0.1816" style="stop-color:#808080"/>
	<stop  offset="0.2933" style="stop-color:#9F9D9D"/>
	<stop  offset="0.5447" style="stop-color:#CCCCCC"/>
	<stop  offset="0.6732" style="stop-color:#FFFFFF"/>
	<stop  offset="0.8687" style="stop-color:#E4E3E3"/>
	<stop  offset="1" style="stop-color:#B3B3B3"/>
</linearGradient>
<path style="fill:url(#SVGID_00000129911628268094052070000012740790362857098666_);" d="M92.7,18.2c-0.5,0.7-1,1.5-1.4,2.2
	c0,13.9,0,27.9,0,41.8c0.5,0.7,1,1.5,1.4,2.2V18.2z"/>
<linearGradient id="SVGID_00000077286331265717374410000017166096169957029274_" gradientUnits="userSpaceOnUse" x1="92.727" y1="-560.6386" x2="91.2824" y2="-560.6386" gradientTransform="matrix(1 0 0 -1 0 -519.3386)">
	<stop  offset="0" style="stop-color:#B3B3B3;stop-opacity:0.5"/>
	<stop  offset="1" style="stop-color:#B3B3B3;stop-opacity:0"/>
</linearGradient>
<path style="opacity:0.53;fill:url(#SVGID_00000077286331265717374410000017166096169957029274_);enable-background:new    ;" d="
	M92.7,18.2c-0.5,0.7-1,1.5-1.4,2.2c0,13.9,0,27.9,0,41.8c0.5,0.7,1,1.5,1.4,2.2V18.2z"/>
<linearGradient id="SVGID_00000038410276752090767400000002624550044751267719_" gradientUnits="userSpaceOnUse" x1="50" y1="-624.8386" x2="50" y2="-657.9386" gradientTransform="matrix(1 0 0 -1 0 -519.3386)">
	<stop  offset="0.2849" style="stop-color:#606060"/>
	<stop  offset="0.5139" style="stop-color:#999999"/>
	<stop  offset="0.6613" style="stop-color:#ACACAC"/>
	<stop  offset="0.8464" style="stop-color:#6E6E6F;stop-opacity:0.9913"/>
	<stop  offset="1" style="stop-color:#606060"/>
</linearGradient>
<rect x="6" y="105.5" style="fill:url(#SVGID_00000038410276752090767400000002624550044751267719_);" width="88" height="33.1"/>
<linearGradient id="SVGID_00000135678801470830623210000011009705243623816617_" gradientUnits="userSpaceOnUse" x1="96.15" y1="-620.7386" x2="96.15" y2="-662.7872" gradientTransform="matrix(1 0 0 -1 0 -519.3386)">
	<stop  offset="0.2849" style="stop-color:#606060"/>
	<stop  offset="0.5139" style="stop-color:#999999"/>
	<stop  offset="0.6613" style="stop-color:#ACACAC"/>
	<stop  offset="0.8464" style="stop-color:#6E6E6F;stop-opacity:0.9913"/>
	<stop  offset="1" style="stop-color:#606060"/>
</linearGradient>
<rect x="94" y="101.4" style="fill:url(#SVGID_00000135678801470830623210000011009705243623816617_);" width="4.3" height="42"/>
<linearGradient id="SVGID_00000016789855105903522340000003124307430698415285_" gradientUnits="userSpaceOnUse" x1="3.85" y1="-620.7386" x2="3.85" y2="-662.7872" gradientTransform="matrix(1 0 0 -1 0 -519.3386)">
	<stop  offset="0.2849" style="stop-color:#606060"/>
	<stop  offset="0.5139" style="stop-color:#999999"/>
	<stop  offset="0.6613" style="stop-color:#ACACAC"/>
	<stop  offset="0.8464" style="stop-color:#6E6E6F;stop-opacity:0.9913"/>
	<stop  offset="1" style="stop-color:#606060"/>
</linearGradient>
<rect x="1.7" y="101.4" style="fill:url(#SVGID_00000016789855105903522340000003124307430698415285_);" width="4.3" height="42"/>
<image style="overflow:visible;" width="200" height="200" xlink:href="../../pepsi.png"  transform="matrix(0.1085 0 0 0.1085 39.3989 29.0851)">
</image>
</svg>
