<?xml version="1.0" encoding="utf-8"?>
<!-- Generator: Adobe Illustrator 25.4.1, SVG Export Plug-In . SVG Version: 6.00 Build 0)  -->
<svg version="1.1" id="Слой_1" xmlns="http://www.w3.org/2000/svg" xmlns:xlink="http://www.w3.org/1999/xlink" x="0px" y="0px"
	 viewBox="0 0 100 160" style="enable-background:new 0 0 100 160;" xml:space="preserve">
<style type="text/css">
	.st0{clip-path:url(#SVGID_00000115481651018293455560000014783384998197153683_);}
	
		.st1{fill:url(#SVGID_00000104686706455202786830000002382026171395977871_);stroke:#B3B3B3;stroke-width:0.5;stroke-miterlimit:10;}
	.st2{fill:url(#SVGID_00000156560304778589813710000004655822972150687668_);}
	.st3{fill:url(#SVGID_00000146498794534962660990000010384051997884134285_);}
	.st4{fill:#606060;}
	.st5{opacity:0.58;fill:url(#SVGID_00000003068765248659109590000017921429994431034285_);enable-background:new    ;}
	.st6{fill:url(#SVGID_00000011713129756631816560000017160251963898100107_);}
	.st7{fill:url(#SVGID_00000132803093416789606620000014937448585558362509_);}
	.st8{fill:url(#SVGID_00000129905842234500242250000010827880614417351073_);}
	.st9{opacity:0.53;fill:url(#SVGID_00000091713721612091184610000003995803504550485675_);enable-background:new    ;}
	.st10{opacity:0.5;fill:url(#SVGID_00000098914694453009862490000006537001322538029493_);enable-background:new    ;}
	.st11{opacity:0.5;fill:url(#SVGID_00000151532373584925121730000015344423526431764403_);enable-background:new    ;}
	.st12{fill:url(#SVGID_00000085232918705609861530000008065471588465954749_);}
	.st13{fill:url(#SVGID_00000058551083787650696630000012604448415826599337_);}
</style>
<g>
	<g>
		<defs>
			<path id="SVGID_1_" d="M96.1,101.8v2.9H49.7c-3.4,1.9-6.7,3.8-10.1,5.7H5.6H4v-2.9H1.4v2.9v23.2v2.9H4v-2.9h1.6h34
				c3.4,1.9,6.7,3.8,10.1,5.7H94l0,0h2v2.9h2.6v-2.9v-34.6v-2.9L96.1,101.8L96.1,101.8z"/>
		</defs>
		<clipPath id="SVGID_00000065044175245489102270000003928865328627739529_">
			<use xlink:href="#SVGID_1_"  style="overflow:visible;"/>
		</clipPath>
		
			<g transform="matrix(1 0 0 1 -2.384186e-07 0)" style="clip-path:url(#SVGID_00000065044175245489102270000003928865328627739529_);">
			
				<image style="overflow:visible;enable-background:new    ;" width="1200" height="900" xlink:href="../../Фитинги/Резьбовые/Металл.jpg"  transform="matrix(8.872065e-02 0 0 8.872065e-02 -1.4606 85.9105)">
			</image>
		</g>
	</g>
</g>
<linearGradient id="SVGID_00000008106675766637567720000013704360102997562022_" gradientUnits="userSpaceOnUse" x1="49.5672" y1="2.3921" x2="49.8999" y2="27.3393" gradientTransform="matrix(1 0 0 -1 0 162)">
	<stop  offset="0" style="stop-color:#3F3B3C"/>
	<stop  offset="1" style="stop-color:#3F3B3C;stop-opacity:0"/>
</linearGradient>
<path style="fill:url(#SVGID_00000008106675766637567720000013704360102997562022_);stroke:#B3B3B3;stroke-width:0.5;stroke-miterlimit:10;" d="
	M96.1,101.8v2.9H49.7c-3.4,1.9-6.7,3.8-10.1,5.7H5.6H4v-2.9H1.4v2.9v23.2v2.9H4v-2.9h1.6h34c3.4,1.9,6.7,3.8,10.1,5.7H94l0,0h2v2.9
	h2.6v-2.9v-34.6v-2.9L96.1,101.8L96.1,101.8z"/>
<linearGradient id="SVGID_00000070811843638284133990000017460762941603433660_" gradientUnits="userSpaceOnUse" x1="-1127.0192" y1="-177.3715" x2="-1127.0192" y2="-204.4046" gradientTransform="matrix(1 0 0 -1 1206.723 -69.0113)">
	<stop  offset="0.2849" style="stop-color:#606060"/>
	<stop  offset="0.5139" style="stop-color:#999999"/>
	<stop  offset="0.6613" style="stop-color:#ACACAC"/>
	<stop  offset="0.8464" style="stop-color:#6E6E6F;stop-opacity:0.9913"/>
	<stop  offset="1" style="stop-color:#606060"/>
</linearGradient>
<rect x="60.9" y="108.4" style="fill:url(#SVGID_00000070811843638284133990000017460762941603433660_);" width="37.7" height="27"/>
<linearGradient id="SVGID_00000159441606957396098040000000998545773828145593_" gradientUnits="userSpaceOnUse" x1="-1181.0853" y1="-182.7781" x2="-1181.0853" y2="-199.0631" gradientTransform="matrix(1 0 0 -1 1206.723 -69.0113)">
	<stop  offset="0.2849" style="stop-color:#606060"/>
	<stop  offset="0.5139" style="stop-color:#999999"/>
	<stop  offset="0.6613" style="stop-color:#ACACAC"/>
	<stop  offset="0.8464" style="stop-color:#6E6E6F;stop-opacity:0.9913"/>
	<stop  offset="1" style="stop-color:#606060"/>
</linearGradient>
<rect x="1.3" y="113.8" style="fill:url(#SVGID_00000159441606957396098040000000998545773828145593_);" width="48.6" height="16.3"/>
<path class="st4" d="M49.9,113.8c3.6-1.8,7.3-3.6,10.9-5.3c0,9,0,18,0,27c-3.6-1.8-7.3-3.6-10.9-5.3
	C49.9,124.6,49.9,119.2,49.9,113.8z"/>
<linearGradient id="SVGID_00000117646039549096698740000014794079930231846551_" gradientUnits="userSpaceOnUse" x1="-1151.3164" y1="-206.0595" x2="-1151.3164" y2="-186.0026" gradientTransform="matrix(1 0 0 -1 1206.723 -69.0113)">
	<stop  offset="0.2849" style="stop-color:#606060"/>
	<stop  offset="0.5139" style="stop-color:#999999"/>
	<stop  offset="0.6613" style="stop-color:#ACACAC;stop-opacity:0.76"/>
	<stop  offset="0.8464" style="stop-color:#6E6E6F;stop-opacity:0.9913"/>
	<stop  offset="1" style="stop-color:#606060"/>
</linearGradient>
<path style="opacity:0.58;fill:url(#SVGID_00000117646039549096698740000014794079930231846551_);enable-background:new    ;" d="
	M49.9,113.8c3.6-1.8,7.3-3.6,10.9-5.5c0,9,0,18,0,27c-3.6-1.8-7.3-3.6-10.9-5.3C49.9,124.6,49.9,119.2,49.9,113.8z"/>
<linearGradient id="SVGID_00000029743898210237645320000012587976477241328783_" gradientUnits="userSpaceOnUse" x1="21.827" y1="509.2192" x2="21.827" y2="485.9642" gradientTransform="matrix(1 0 0 1 0 -456)">
	<stop  offset="0" style="stop-color:#9F9D9D"/>
	<stop  offset="0.1816" style="stop-color:#808080"/>
	<stop  offset="0.2933" style="stop-color:#9F9D9D"/>
	<stop  offset="0.5447" style="stop-color:#CCCCCC"/>
	<stop  offset="0.6732" style="stop-color:#FFFFFF"/>
	<stop  offset="0.8687" style="stop-color:#E4E3E3"/>
	<stop  offset="1" style="stop-color:#B3B3B3"/>
</linearGradient>
<polygon style="fill:url(#SVGID_00000029743898210237645320000012587976477241328783_);" points="4,53.2 4,30 39.6,30 39.6,53.2 "/>
<linearGradient id="SVGID_00000048469848399913717130000016645559135114162825_" gradientUnits="userSpaceOnUse" x1="72.8967" y1="514.8864" x2="72.8967" y2="480.2971" gradientTransform="matrix(1 0 0 1 0 -456)">
	<stop  offset="0" style="stop-color:#9F9D9D"/>
	<stop  offset="0.1816" style="stop-color:#808080"/>
	<stop  offset="0.2933" style="stop-color:#9F9D9D"/>
	<stop  offset="0.5447" style="stop-color:#CCCCCC"/>
	<stop  offset="0.6732" style="stop-color:#FFFFFF"/>
	<stop  offset="0.8687" style="stop-color:#E4E3E3"/>
	<stop  offset="1" style="stop-color:#B3B3B3"/>
</linearGradient>
<polygon style="fill:url(#SVGID_00000048469848399913717130000016645559135114162825_);" points="49.7,58.9 49.7,24.3 96.1,24.3 
	96.1,58.9 "/>
<linearGradient id="SVGID_00000035502633220893793860000017117971958662463647_" gradientUnits="userSpaceOnUse" x1="44.6911" y1="63.1136" x2="44.6911" y2="97.7029" gradientTransform="matrix(1 0 0 -1 0 122)">
	<stop  offset="0" style="stop-color:#9F9D9D"/>
	<stop  offset="0.1816" style="stop-color:#808080"/>
	<stop  offset="0.2933" style="stop-color:#9F9D9D"/>
	<stop  offset="0.5447" style="stop-color:#CCCCCC"/>
	<stop  offset="0.6732" style="stop-color:#FFFFFF"/>
	<stop  offset="0.8687" style="stop-color:#E4E3E3"/>
	<stop  offset="1" style="stop-color:#B3B3B3"/>
</linearGradient>
<path style="fill:url(#SVGID_00000035502633220893793860000017117971958662463647_);" d="M39.6,30c3.4-1.9,6.7-3.8,10.1-5.7v34.6
	c-3.4-1.9-6.7-3.8-10.1-5.7C39.6,45.5,39.6,37.7,39.6,30z"/>
<linearGradient id="SVGID_00000098220875655668376480000000997556245931427968_" gradientUnits="userSpaceOnUse" x1="49.7394" y1="80.4083" x2="39.6728" y2="80.4083" gradientTransform="matrix(1 0 0 -1 0 122)">
	<stop  offset="0" style="stop-color:#B3B3B3;stop-opacity:0.5"/>
	<stop  offset="1" style="stop-color:#B3B3B3;stop-opacity:0"/>
</linearGradient>
<path style="opacity:0.53;fill:url(#SVGID_00000098220875655668376480000000997556245931427968_);enable-background:new    ;" d="
	M39.6,30c3.4-1.9,6.7-3.8,10.1-5.7v34.6c-3.4-1.9-6.7-3.8-10.1-5.7C39.6,45.5,39.6,37.7,39.6,30z"/>
<linearGradient id="SVGID_00000000181798828193922060000013311137332874747317_" gradientUnits="userSpaceOnUse" x1="-1250.5854" y1="3163.3032" x2="-1246.4326" y2="3163.3032" gradientTransform="matrix(1 0 0 1 1252.042 -3121.7114)">
	<stop  offset="0" style="stop-color:#3F3B3C"/>
	<stop  offset="1" style="stop-color:#3F3B3C;stop-opacity:0"/>
</linearGradient>
<polygon style="opacity:0.5;fill:url(#SVGID_00000000181798828193922060000013311137332874747317_);enable-background:new    ;" points="
	5.6,30 1.4,30 1.4,53.2 5.6,53.2 "/>
<linearGradient id="SVGID_00000130627000215950959050000007090163022594898317_" gradientUnits="userSpaceOnUse" x1="98.9012" y1="2713.8218" x2="103.5331" y2="2713.8218" gradientTransform="matrix(-1 0 0 -1 197.4735 2755.4136)">
	<stop  offset="0" style="stop-color:#3F3B3C"/>
	<stop  offset="1" style="stop-color:#3F3B3C;stop-opacity:0"/>
</linearGradient>
<polygon style="opacity:0.5;fill:url(#SVGID_00000130627000215950959050000007090163022594898317_);enable-background:new    ;" points="
	94,58.9 98.7,58.9 98.7,24.3 93.9,24.3 "/>
<linearGradient id="SVGID_00000048482498334105303430000011919422977032079234_" gradientUnits="userSpaceOnUse" x1="97.3568" y1="100.2475" x2="97.3568" y2="140.504" gradientTransform="matrix(1 0 0 -1 0 162)">
	<stop  offset="0" style="stop-color:#9F9D9D"/>
	<stop  offset="0.1816" style="stop-color:#808080"/>
	<stop  offset="0.2933" style="stop-color:#9F9D9D"/>
	<stop  offset="0.5447" style="stop-color:#CCCCCC"/>
	<stop  offset="0.6732" style="stop-color:#FFFFFF"/>
	<stop  offset="0.8687" style="stop-color:#E4E3E3"/>
	<stop  offset="1" style="stop-color:#B3B3B3"/>
</linearGradient>
<rect x="96.1" y="21.5" style="fill:url(#SVGID_00000048482498334105303430000011919422977032079234_);" width="2.6" height="40.3"/>
<linearGradient id="SVGID_00000120522334643569882900000011069623707548959921_" gradientUnits="userSpaceOnUse" x1="2.7084" y1="105.7844" x2="2.7084" y2="134.9671" gradientTransform="matrix(1 0 0 -1 0 162)">
	<stop  offset="0" style="stop-color:#9F9D9D"/>
	<stop  offset="0.1816" style="stop-color:#808080"/>
	<stop  offset="0.2933" style="stop-color:#9F9D9D"/>
	<stop  offset="0.5447" style="stop-color:#CCCCCC"/>
	<stop  offset="0.6732" style="stop-color:#FFFFFF"/>
	<stop  offset="0.8687" style="stop-color:#E4E3E3"/>
	<stop  offset="1" style="stop-color:#B3B3B3"/>
</linearGradient>
<rect x="1.4" y="27" style="fill:url(#SVGID_00000120522334643569882900000011069623707548959921_);" width="2.6" height="29.2"/>
<image style="overflow:visible;" width="200" height="200" xlink:href="../../pepsi.png"  transform="matrix(7.885404e-02 0 0 7.885404e-02 65.0113 33.1776)">
</image>
</svg>
