<?xml version="1.0" encoding="utf-8"?>
<!-- Generator: Adobe Illustrator 25.4.1, SVG Export Plug-In . SVG Version: 6.00 Build 0)  -->
<svg version="1.1" id="Слой_1" xmlns="http://www.w3.org/2000/svg" xmlns:xlink="http://www.w3.org/1999/xlink" x="0px" y="0px"
	 viewBox="0 0 100 160" style="enable-background:new 0 0 100 160;" xml:space="preserve">
<style type="text/css">
	.st0{fill:url(#SVGID_1_);}
	.st1{fill:url(#SVGID_00000113320986344622780630000000010099401561957023_);}
	.st2{opacity:0.5;fill:url(#SVGID_00000173870796416032405930000005815060472937786243_);enable-background:new    ;}
	.st3{opacity:0.5;fill:url(#SVGID_00000181075528498456983720000004090447856835774123_);enable-background:new    ;}
	.st4{fill:url(#SVGID_00000165193376317958391580000006533928593637894537_);}
	.st5{opacity:0.5;fill:url(#SVGID_00000142889730809838500740000017004533575950957475_);enable-background:new    ;}
	.st6{fill:url(#SVGID_00000145018849128374723670000009434091112330580612_);}
	.st7{opacity:0.5;fill:url(#SVGID_00000069383861027683060050000006794354699314123402_);enable-background:new    ;}
	.st8{fill:url(#SVGID_00000057862096342058715080000013423074129162941859_);}
	.st9{clip-path:url(#SVGID_00000123438175006747680510000001643580944617085851_);}
	.st10{fill:none;stroke:#CCCCCC;stroke-width:0.4992;stroke-miterlimit:10;}
	.st11{fill:url(#SVGID_00000094613308943120576960000010991283741732476830_);}
	.st12{fill:url(#SVGID_00000040562481054989944000000018013097627162866878_);}
	.st13{fill:url(#SVGID_00000039121942733176865210000013349352383432298634_);}
	.st14{fill:url(#SVGID_00000048479044420893544680000003516652445661622433_);}
</style>
<linearGradient id="SVGID_1_" gradientUnits="userSpaceOnUse" x1="43.1282" y1="334.9621" x2="57.4226" y2="334.9621" gradientTransform="matrix(1 0 0 -1 0 349.5512)">
	<stop  offset="0" style="stop-color:#9F9D9D"/>
	<stop  offset="0.1816" style="stop-color:#808080"/>
	<stop  offset="0.2933" style="stop-color:#9F9D9D"/>
	<stop  offset="0.5447" style="stop-color:#CCCCCC"/>
	<stop  offset="0.6732" style="stop-color:#FFFFFF"/>
	<stop  offset="0.8687" style="stop-color:#E4E3E3"/>
	<stop  offset="1" style="stop-color:#B3B3B3"/>
</linearGradient>
<rect x="43.1" y="0.6" class="st0" width="14.3" height="27.9"/>
<linearGradient id="SVGID_00000108271579791249862430000000919176312905843629_" gradientUnits="userSpaceOnUse" x1="75.3295" y1="303.1246" x2="75.3295" y2="316.8992" gradientTransform="matrix(1 0 0 -1 0 349.5512)">
	<stop  offset="0" style="stop-color:#9F9D9D"/>
	<stop  offset="0.1816" style="stop-color:#808080"/>
	<stop  offset="0.2933" style="stop-color:#9F9D9D"/>
	<stop  offset="0.5447" style="stop-color:#CCCCCC"/>
	<stop  offset="0.6732" style="stop-color:#FFFFFF"/>
	<stop  offset="0.8687" style="stop-color:#E4E3E3"/>
	<stop  offset="1" style="stop-color:#B3B3B3"/>
</linearGradient>
<polygon style="fill:url(#SVGID_00000108271579791249862430000000919176312905843629_);" points="61.5,46.4 61.5,32.7 89.2,32.7 
	89.2,46.4 "/>
<linearGradient id="SVGID_00000071518995922705839380000001585309882827459749_" gradientUnits="userSpaceOnUse" x1="-484.9279" y1="-1717.3378" x2="-479.4005" y2="-1717.3378" gradientTransform="matrix(1 0 0 -1 543.2952 -1677.7985)">
	<stop  offset="0" style="stop-color:#3F3B3C"/>
	<stop  offset="1" style="stop-color:#3F3B3C;stop-opacity:0"/>
</linearGradient>
<polygon style="opacity:0.5;fill:url(#SVGID_00000071518995922705839380000001585309882827459749_);enable-background:new    ;" points="
	63.8,32.7 58.3,32.7 58.3,46.4 63.9,46.4 "/>
<linearGradient id="SVGID_00000163784655764301630490000002305643931919187340_" gradientUnits="userSpaceOnUse" x1="-1619.983" y1="-1805.3298" x2="-1609.1981" y2="-1805.3298" gradientTransform="matrix(6.123234e-17 -1 -1 -6.123234e-17 -1755.0804 -1587.4834)">
	<stop  offset="0" style="stop-color:#3F3B3C"/>
	<stop  offset="1" style="stop-color:#3F3B3C;stop-opacity:0"/>
</linearGradient>
<polygon style="opacity:0.5;fill:url(#SVGID_00000163784655764301630490000002305643931919187340_);enable-background:new    ;" points="
	43.1,21.8 43.1,32.7 57.4,32.7 57.4,21.7 "/>
<linearGradient id="SVGID_00000096774037442046773920000014423800189399372690_" gradientUnits="userSpaceOnUse" x1="43.1802" y1="284.8538" x2="57.4083" y2="284.8538" gradientTransform="matrix(1 0 0 -1 0 349.5512)">
	<stop  offset="0" style="stop-color:#9F9D9D"/>
	<stop  offset="0.1816" style="stop-color:#808080"/>
	<stop  offset="0.2933" style="stop-color:#9F9D9D"/>
	<stop  offset="0.5447" style="stop-color:#CCCCCC"/>
	<stop  offset="0.6732" style="stop-color:#FFFFFF"/>
	<stop  offset="0.8687" style="stop-color:#E4E3E3"/>
	<stop  offset="1" style="stop-color:#B3B3B3"/>
</linearGradient>
<rect x="43.2" y="50.8" style="fill:url(#SVGID_00000096774037442046773920000014423800189399372690_);" width="14.2" height="27.8"/>
<linearGradient id="SVGID_00000177473501098487069260000013769627542346880129_" gradientUnits="userSpaceOnUse" x1="-1731.6882" y1="-2415.8535" x2="-1721.5382" y2="-2415.8535" gradientTransform="matrix(-6.123234e-17 1 1 6.123234e-17 2466.103 1780.7174)">
	<stop  offset="0" style="stop-color:#3F3B3C"/>
	<stop  offset="1" style="stop-color:#3F3B3C;stop-opacity:0"/>
</linearGradient>
<polygon style="opacity:0.5;fill:url(#SVGID_00000177473501098487069260000013769627542346880129_);enable-background:new    ;" points="
	57.4,59.1 57.4,48.9 43.1,48.9 43.1,59.2 "/>
<linearGradient id="SVGID_00000033331596375559419790000017657431290328982439_" gradientUnits="userSpaceOnUse" x1="-305.5326" y1="1221.8079" x2="-291.7736" y2="1221.8079" gradientTransform="matrix(6.123234e-17 -1 -1 -6.123234e-17 1246.8472 -259.106)">
	<stop  offset="0" style="stop-color:#9F9D9D"/>
	<stop  offset="0.1816" style="stop-color:#808080"/>
	<stop  offset="0.2933" style="stop-color:#9F9D9D"/>
	<stop  offset="0.5447" style="stop-color:#CCCCCC"/>
	<stop  offset="0.6732" style="stop-color:#FFFFFF"/>
	<stop  offset="0.8687" style="stop-color:#E4E3E3"/>
	<stop  offset="1" style="stop-color:#B3B3B3"/>
</linearGradient>
<rect x="11.2" y="32.7" style="fill:url(#SVGID_00000033331596375559419790000017657431290328982439_);" width="27.7" height="13.8"/>
<linearGradient id="SVGID_00000041974224152598255000000010416113223103936162_" gradientUnits="userSpaceOnUse" x1="-732.8868" y1="-1456.4353" x2="-722.2852" y2="-1456.4353" gradientTransform="matrix(-1 0 0 1 -690.1875 1495.9746)">
	<stop  offset="0" style="stop-color:#3F3B3C"/>
	<stop  offset="1" style="stop-color:#3F3B3C;stop-opacity:0"/>
</linearGradient>
<polygon style="opacity:0.5;fill:url(#SVGID_00000041974224152598255000000010416113223103936162_);enable-background:new    ;" points="
	32.2,46.4 42.9,46.4 42.9,32.7 32.1,32.7 "/>
<linearGradient id="SVGID_00000155856556265657501090000013284033324400012198_" gradientUnits="userSpaceOnUse" x1="34.5622" y1="1209.4879" x2="65.9303" y2="1204.8788" gradientTransform="matrix(1 0 0 1 0 -1167.551)">
	<stop  offset="6.699173e-02" style="stop-color:#919396"/>
	<stop  offset="0.3883" style="stop-color:#D1D3D4"/>
	<stop  offset="0.5154" style="stop-color:#CDCFD0"/>
	<stop  offset="0.6398" style="stop-color:#C1C3C5"/>
	<stop  offset="0.6788" style="stop-color:#BCBEC0"/>
	<stop  offset="0.7667" style="stop-color:#B5B7B9"/>
	<stop  offset="0.8967" style="stop-color:#A1A3A5"/>
	<stop  offset="0.9766" style="stop-color:#919396"/>
</linearGradient>
<rect x="38.8" y="28.2" style="fill:url(#SVGID_00000155856556265657501090000013284033324400012198_);" width="22.8" height="22.8"/>
<g>
	<g>
		<defs>
			<polygon id="SVGID_00000125581679621994248340000017956722289897942443_" points="63.8,113.3 61.6,113.3 61.6,108.9 57.4,108.9 
				57.4,81.5 43.2,81.5 43.2,102.5 43.2,108.9 38.9,108.9 38.9,113.3 11.4,113.3 11.4,127 32.3,127 32.3,127 38.9,127 38.9,131.6 
				43.2,131.6 43.2,139.7 43.2,139.7 43.2,159 57.4,159 57.4,131.6 61.6,131.6 61.6,127 63.9,127 89,127 89,113.3 			"/>
		</defs>
		<clipPath id="SVGID_00000106128931366396886790000010551448494678035618_">
			<use xlink:href="#SVGID_00000125581679621994248340000017956722289897942443_"  style="overflow:visible;"/>
		</clipPath>
		<g transform="matrix(1 0 0 1 0 0)" style="clip-path:url(#SVGID_00000106128931366396886790000010551448494678035618_);">
			
				<image style="overflow:visible;enable-background:new    ;" width="1200" height="900" xlink:href="../../Фитинги/Резьбовые/Металл.jpg"  transform="matrix(9.907299e-02 0 0 9.907299e-02 -0.5141 75.4421)">
			</image>
		</g>
	</g>
	<g>
		<polygon id="SVGID_10_" class="st10" points="63.8,113.3 61.6,113.3 61.6,108.9 57.4,108.9 57.4,81.5 43.2,81.5 43.2,102.5 
			43.2,108.9 38.9,108.9 38.9,113.3 11.4,113.3 11.4,127 32.3,127 32.3,127 38.9,127 38.9,131.6 43.2,131.6 43.2,139.7 43.2,139.7 
			43.2,159 57.4,159 57.4,131.6 61.6,131.6 61.6,127 63.9,127 89,127 89,113.3 		"/>
	</g>
</g>
<linearGradient id="SVGID_00000055692690042232607030000009037681273692657577_" gradientUnits="userSpaceOnUse" x1="237.0184" y1="1553.0569" x2="237.0184" y2="1563.3977" gradientTransform="matrix(6.123234e-17 1 -1 6.123234e-17 1608.4922 -116.7549)">
	<stop  offset="8.379889e-03" style="stop-color:#666666"/>
	<stop  offset="0.3195" style="stop-color:#808080"/>
	<stop  offset="0.4985" style="stop-color:#999999"/>
	<stop  offset="0.6568" style="stop-color:#828282"/>
	<stop  offset="1" style="stop-color:#666666"/>
</linearGradient>
<polygon style="fill:url(#SVGID_00000055692690042232607030000009037681273692657577_);" points="55.6,159.2 44.8,159.2 44.8,81.4 
	55.6,81.4 "/>
<linearGradient id="SVGID_00000005988483035244296110000000436244350375973008_" gradientUnits="userSpaceOnUse" x1="274.7496" y1="1558.3208" x2="200.2243" y2="1558.3208" gradientTransform="matrix(6.123234e-17 1 -1 6.123234e-17 1608.4922 -116.7549)">
	<stop  offset="0.2458" style="stop-color:#333333;stop-opacity:0"/>
	<stop  offset="0.5447" style="stop-color:#424242;stop-opacity:0.7"/>
	<stop  offset="0.8073" style="stop-color:#333333;stop-opacity:0"/>
</linearGradient>
<polygon style="fill:url(#SVGID_00000005988483035244296110000000436244350375973008_);" points="55.6,159 44.8,159 44.8,81.4 
	55.6,81.4 "/>
<linearGradient id="SVGID_00000096025515475102319930000017029679568632430762_" gradientUnits="userSpaceOnUse" x1="6158.4316" y1="-4419.3242" x2="6158.4316" y2="-4408.9556" gradientTransform="matrix(-1 0 0 -1 6187.6074 -4293.9121)">
	<stop  offset="8.379889e-03" style="stop-color:#666666"/>
	<stop  offset="0.3195" style="stop-color:#808080"/>
	<stop  offset="0.4985" style="stop-color:#999999"/>
	<stop  offset="0.6568" style="stop-color:#828282"/>
	<stop  offset="1" style="stop-color:#666666"/>
</linearGradient>
<path style="fill:url(#SVGID_00000096025515475102319930000017029679568632430762_);" d="M11.3,125.5v-10.8h33.5
	c0.4,0.4,2.1,2.2,2.2,5c0.2,3.3-1.9,5.4-2.2,5.8C33.6,125.5,22.5,125.5,11.3,125.5z"/>
<linearGradient id="SVGID_00000126322445821058645380000001459968572811441800_" gradientUnits="userSpaceOnUse" x1="6116.3628" y1="-4419.3242" x2="6116.3628" y2="-4408.9556" gradientTransform="matrix(-1 0 0 -1 6187.6074 -4293.9121)">
	<stop  offset="8.379889e-03" style="stop-color:#666666"/>
	<stop  offset="0.3195" style="stop-color:#808080"/>
	<stop  offset="0.4985" style="stop-color:#999999"/>
	<stop  offset="0.6568" style="stop-color:#828282"/>
	<stop  offset="1" style="stop-color:#666666"/>
</linearGradient>
<path style="fill:url(#SVGID_00000126322445821058645380000001459968572811441800_);" d="M55.6,125.5c-0.4-0.4-2.4-2.5-2.2-5.8
	c0.2-2.8,1.8-4.5,2.2-5c11.2,0,22.4,0,33.5,0v10.8H55.6z"/>
<image style="overflow:visible;" width="200" height="200" xlink:href="../../pepsi.png"  transform="matrix(4.877229e-02 0 0 4.877229e-02 45.4241 34.1423)">
</image>
</svg>
