<?xml version="1.0" encoding="utf-8"?>
<!-- Generator: Adobe Illustrator 25.4.1, SVG Export Plug-In . SVG Version: 6.00 Build 0)  -->
<svg version="1.1" id="Слой_1" xmlns="http://www.w3.org/2000/svg" xmlns:xlink="http://www.w3.org/1999/xlink" x="0px" y="0px"
	 viewBox="0 0 100 160" style="enable-background:new 0 0 100 160;" xml:space="preserve">
<style type="text/css">
	.st0{fill:url(#SVGID_1_);}
	.st1{fill:url(#SVGID_00000015337649630812421520000011620497104823215005_);}
	.st2{opacity:0.5;fill:url(#SVGID_00000075882745428908139030000007831042725086610600_);enable-background:new    ;}
	.st3{opacity:0.5;fill:url(#SVGID_00000163775422323733340790000014166475682914849422_);enable-background:new    ;}
	.st4{fill:url(#SVGID_00000016042619026585873170000006032183280751706030_);}
	.st5{opacity:0.5;fill:url(#SVGID_00000125566708957418960120000007567731627993381538_);enable-background:new    ;}
	.st6{fill:url(#SVGID_00000035493889508342016480000013359538150518367160_);}
	.st7{opacity:0.5;fill:url(#SVGID_00000173844492236598145070000016811058824325100172_);enable-background:new    ;}
	.st8{fill:url(#SVGID_00000066478181010067007730000017497666851215263895_);}
	.st9{clip-path:url(#SVGID_00000124147154738216557070000007019667161434535095_);}
	.st10{fill:none;stroke:#B3B3B3;stroke-width:0.5;stroke-miterlimit:10;}
	.st11{fill:#666666;}
	.st12{fill:url(#SVGID_00000106848047833906146020000009631797070564460452_);}
	.st13{fill:url(#SVGID_00000109729386518766591840000005237343509193163677_);}
	.st14{fill:url(#SVGID_00000065060089213697497350000007587722097067965826_);}
	.st15{fill:url(#SVGID_00000145755727043185291960000010251990014843240341_);}
</style>
<linearGradient id="SVGID_1_" gradientUnits="userSpaceOnUse" x1="35.5326" y1="300.1027" x2="64.2674" y2="300.1027" gradientTransform="matrix(1 0 0 1 0 -287.4488)">
	<stop  offset="0" style="stop-color:#9F9D9D"/>
	<stop  offset="0.1816" style="stop-color:#808080"/>
	<stop  offset="0.2933" style="stop-color:#9F9D9D"/>
	<stop  offset="0.5447" style="stop-color:#CCCCCC"/>
	<stop  offset="0.6732" style="stop-color:#FFFFFF"/>
	<stop  offset="0.8687" style="stop-color:#E4E3E3"/>
	<stop  offset="1" style="stop-color:#B3B3B3"/>
</linearGradient>
<rect x="35.5" y="2.1" class="st0" width="28.7" height="21"/>
<linearGradient id="SVGID_00000155831883705091387500000012081930280346485435_" gradientUnits="userSpaceOnUse" x1="77.4034" y1="341.9735" x2="77.4034" y2="312.9308" gradientTransform="matrix(1 0 0 1 0 -287.4488)">
	<stop  offset="0" style="stop-color:#9F9D9D"/>
	<stop  offset="0.1816" style="stop-color:#808080"/>
	<stop  offset="0.2933" style="stop-color:#9F9D9D"/>
	<stop  offset="0.5447" style="stop-color:#CCCCCC"/>
	<stop  offset="0.6732" style="stop-color:#FFFFFF"/>
	<stop  offset="0.8687" style="stop-color:#E4E3E3"/>
	<stop  offset="1" style="stop-color:#B3B3B3"/>
</linearGradient>
<polygon style="fill:url(#SVGID_00000155831883705091387500000012081930280346485435_);" points="66.7,54.5 66.7,25.5 88.1,25.5 
	88.1,54.5 "/>
<linearGradient id="SVGID_00000004529581118257289970000007981319502438750374_" gradientUnits="userSpaceOnUse" x1="-480.8629" y1="2354.8018" x2="-473.3763" y2="2354.8018" gradientTransform="matrix(1 0 0 1 543.2952 -2314.7983)">
	<stop  offset="0" style="stop-color:#3F3B3C"/>
	<stop  offset="1" style="stop-color:#3F3B3C;stop-opacity:0"/>
</linearGradient>
<polygon style="opacity:0.5;fill:url(#SVGID_00000004529581118257289970000007981319502438750374_);enable-background:new    ;" points="
	69.8,25.5 62.3,25.5 62.3,54.5 70,54.5 "/>
<linearGradient id="SVGID_00000125565036326077102410000001663182692973035410_" gradientUnits="userSpaceOnUse" x1="-1707.6202" y1="2349.9548" x2="-1699.4922" y2="2349.9548" gradientTransform="matrix(6.123234e-17 -1 1 6.123234e-17 -2300.0806 -1681.4834)">
	<stop  offset="0" style="stop-color:#3F3B3C"/>
	<stop  offset="1" style="stop-color:#3F3B3C;stop-opacity:0"/>
</linearGradient>
<polygon style="opacity:0.5;fill:url(#SVGID_00000125565036326077102410000001663182692973035410_);enable-background:new    ;" points="
	35.5,18.1 35.5,26.3 64.2,26.3 64.2,18 "/>
<linearGradient id="SVGID_00000132800214914460090770000012482319778610395029_" gradientUnits="userSpaceOnUse" x1="35.4812" y1="354.9042" x2="64.2161" y2="354.9042" gradientTransform="matrix(1 0 0 1 0 -287.4488)">
	<stop  offset="0" style="stop-color:#9F9D9D"/>
	<stop  offset="0.1816" style="stop-color:#808080"/>
	<stop  offset="0.2933" style="stop-color:#9F9D9D"/>
	<stop  offset="0.5447" style="stop-color:#CCCCCC"/>
	<stop  offset="0.6732" style="stop-color:#FFFFFF"/>
	<stop  offset="0.8687" style="stop-color:#E4E3E3"/>
	<stop  offset="1" style="stop-color:#B3B3B3"/>
</linearGradient>
<rect x="35.5" y="56.9" style="fill:url(#SVGID_00000132800214914460090770000012482319778610395029_);" width="28.7" height="21"/>
<linearGradient id="SVGID_00000103244091279732731220000013685062860241567641_" gradientUnits="userSpaceOnUse" x1="-1634.2562" y1="2959.3057" x2="-1626.1282" y2="2959.3057" gradientTransform="matrix(-6.123234e-17 1 -1 -6.123234e-17 3009.103 1688.7174)">
	<stop  offset="0" style="stop-color:#3F3B3C"/>
	<stop  offset="1" style="stop-color:#3F3B3C;stop-opacity:0"/>
</linearGradient>
<polygon style="opacity:0.5;fill:url(#SVGID_00000103244091279732731220000013685062860241567641_);enable-background:new    ;" points="
	64.2,62.5 64.2,54.3 35.4,54.3 35.4,62.6 "/>
<linearGradient id="SVGID_00000012473440826272263460000014584065564655316648_" gradientUnits="userSpaceOnUse" x1="-407.4734" y1="-679.4506" x2="-378.7386" y2="-679.4506" gradientTransform="matrix(6.123234e-17 -1 1 6.123234e-17 701.8472 -353.106)">
	<stop  offset="0" style="stop-color:#9F9D9D"/>
	<stop  offset="0.1816" style="stop-color:#808080"/>
	<stop  offset="0.2933" style="stop-color:#9F9D9D"/>
	<stop  offset="0.5447" style="stop-color:#CCCCCC"/>
	<stop  offset="0.6732" style="stop-color:#FFFFFF"/>
	<stop  offset="0.8687" style="stop-color:#E4E3E3"/>
	<stop  offset="1" style="stop-color:#B3B3B3"/>
</linearGradient>
<rect x="11.9" y="25.6" style="fill:url(#SVGID_00000012473440826272263460000014584065564655316648_);" width="21" height="28.7"/>
<linearGradient id="SVGID_00000113333080314399094630000007224216212932686741_" gradientUnits="userSpaceOnUse" x1="-728.0293" y1="1906.9711" x2="-719.9013" y2="1906.9711" gradientTransform="matrix(-1 0 0 -1 -692.1875 1946.9745)">
	<stop  offset="0" style="stop-color:#3F3B3C"/>
	<stop  offset="1" style="stop-color:#3F3B3C;stop-opacity:0"/>
</linearGradient>
<polygon style="opacity:0.5;fill:url(#SVGID_00000113333080314399094630000007224216212932686741_);enable-background:new    ;" points="
	27.8,54.4 36,54.4 36,25.6 27.7,25.6 "/>
<linearGradient id="SVGID_00000148649035022733895410000000700287669655275190_" gradientUnits="userSpaceOnUse" x1="26.6741" y1="-760.0586" x2="73.1154" y2="-753.2345" gradientTransform="matrix(1 0 0 -1 0 -716.5511)">
	<stop  offset="6.699173e-02" style="stop-color:#919396"/>
	<stop  offset="0.3883" style="stop-color:#D1D3D4"/>
	<stop  offset="0.5154" style="stop-color:#CDCFD0"/>
	<stop  offset="0.6398" style="stop-color:#C1C3C5"/>
	<stop  offset="0.6788" style="stop-color:#BCBEC0"/>
	<stop  offset="0.7667" style="stop-color:#B5B7B9"/>
	<stop  offset="0.8967" style="stop-color:#A1A3A5"/>
	<stop  offset="0.9766" style="stop-color:#919396"/>
</linearGradient>
<rect x="32.9" y="23.2" style="fill:url(#SVGID_00000148649035022733895410000000700287669655275190_);" width="33.8" height="33.8"/>
<g>
	<g>
		<g>
			<defs>
				<polygon id="SVGID_00000004536325971808313030000016632526892673866678_" points="69.8,105.3 66.7,105.3 66.7,103 64.2,103 
					64.2,97.8 64.2,82 35.5,82 35.5,97.9 35.5,103 32.9,103 32.9,105.4 11.8,105.4 11.8,134.1 27.7,134.1 27.7,134.2 32.9,134.2 
					32.9,136.8 35.4,136.8 35.4,142.4 35.4,142.4 35.4,157.8 64.2,157.8 64.2,136.8 66.7,136.8 66.7,134.3 69.9,134.3 88.1,134.3 
					88.1,105.3 				"/>
			</defs>
			<clipPath id="SVGID_00000052825587611223167790000015127618503146000021_">
				<use xlink:href="#SVGID_00000004536325971808313030000016632526892673866678_"  style="overflow:visible;"/>
			</clipPath>
			<g style="clip-path:url(#SVGID_00000052825587611223167790000015127618503146000021_);">
				
					<image style="overflow:visible;enable-background:new    ;" width="1200" height="900" xlink:href="../../Фитинги/Резьбовые/Металл.jpg"  transform="matrix(9.061752e-02 0 0 9.061752e-02 -1.814690e-02 80.6538)">
				</image>
			</g>
		</g>
	</g>
</g>
<polygon class="st10" points="69.6,105.2 66.5,105.2 66.5,102.9 64.1,102.9 64.1,97.7 64.1,81.9 35.3,81.9 35.3,97.8 35.3,102.9 
	32.7,102.9 32.7,105.3 11.7,105.3 11.7,134 27.6,134 27.6,134.1 32.7,134.1 32.7,136.7 35.2,136.7 35.2,142.3 35.3,142.3 
	35.3,157.7 64,157.7 64,136.7 66.5,136.7 66.5,134.2 69.8,134.2 88,134.2 88,105.2 "/>
<rect x="38.9" y="81.7" class="st11" width="22" height="76.1"/>
<linearGradient id="SVGID_00000145758912944360948330000007718472848138454149_" gradientUnits="userSpaceOnUse" x1="328.629" y1="-1002.8376" x2="328.629" y2="-1023.9269" gradientTransform="matrix(6.123234e-17 1 1 -6.123234e-17 1063.4922 -208.7549)">
	<stop  offset="8.379889e-03" style="stop-color:#333333;stop-opacity:0"/>
	<stop  offset="0.405" style="stop-color:#808080"/>
	<stop  offset="0.4937" style="stop-color:#C7C7C7;stop-opacity:0.76"/>
	<stop  offset="0.8698" style="stop-color:#4F4F4F;stop-opacity:0.3067"/>
	<stop  offset="1" style="stop-color:#333333;stop-opacity:0"/>
</linearGradient>
<polygon style="fill:url(#SVGID_00000145758912944360948330000007718472848138454149_);" points="60.9,158 39,158 39,81.7 
	60.9,81.7 "/>
<linearGradient id="SVGID_00000058580452367923850260000014427760418311174547_" gradientUnits="userSpaceOnUse" x1="365.6644" y1="-1013.5922" x2="292.6335" y2="-1013.5922" gradientTransform="matrix(6.123234e-17 1 1 -6.123234e-17 1063.4922 -208.7549)">
	<stop  offset="0.2458" style="stop-color:#333333;stop-opacity:0"/>
	<stop  offset="0.5447" style="stop-color:#424242;stop-opacity:0.7"/>
	<stop  offset="0.8073" style="stop-color:#333333;stop-opacity:0"/>
</linearGradient>
<polygon style="fill:url(#SVGID_00000058580452367923850260000014427760418311174547_);" points="60.9,157.8 38.9,157.8 38.9,81.7 
	60.9,81.7 "/>
<path class="st11" d="M38.8,108.8c0.7,0.6,5.1,4.5,5,11c0,6.5-4.4,10.4-5,11c-9,0-18,0-26.9,0v-22L38.8,108.8L38.8,108.8z"/>
<linearGradient id="SVGID_00000119826770485267746400000005471510822925333139_" gradientUnits="userSpaceOnUse" x1="158.0714" y1="-563.165" x2="180.0391" y2="-563.165" gradientTransform="matrix(6.123234e-17 -1 -1 -6.123234e-17 -535.3547 288.8256)">
	<stop  offset="8.379889e-03" style="stop-color:#333333;stop-opacity:0"/>
	<stop  offset="0.486" style="stop-color:#808080"/>
	<stop  offset="0.544" style="stop-color:#C7C7C7;stop-opacity:0.76"/>
	<stop  offset="0.8698" style="stop-color:#4F4F4F;stop-opacity:0.3067"/>
	<stop  offset="1" style="stop-color:#333333;stop-opacity:0"/>
</linearGradient>
<path style="fill:url(#SVGID_00000119826770485267746400000005471510822925333139_);" d="M38.8,108.8c0.7,0.6,5.1,4.5,5,11
	c0,6.5-4.4,10.4-5,11c-9,0-18,0-26.9,0v-22L38.8,108.8L38.8,108.8z"/>
<path class="st11" d="M61.2,130.8c-0.7-0.6-5.1-4.5-5-11c0-6.5,4.4-10.4,5-11c9,0,18,0,26.9,0v22L61.2,130.8L61.2,130.8z"/>
<linearGradient id="SVGID_00000084498639809271531410000003256234452537617834_" gradientUnits="userSpaceOnUse" x1="504.7167" y1="-1117.4418" x2="482.7491" y2="-1117.4418" gradientTransform="matrix(-6.123234e-17 1 1 6.123234e-17 1189.5854 -373.9644)">
	<stop  offset="8.379889e-03" style="stop-color:#333333;stop-opacity:0"/>
	<stop  offset="0.486" style="stop-color:#808080"/>
	<stop  offset="0.544" style="stop-color:#C7C7C7;stop-opacity:0.76"/>
	<stop  offset="0.8698" style="stop-color:#4F4F4F;stop-opacity:0.3067"/>
	<stop  offset="1" style="stop-color:#333333;stop-opacity:0"/>
</linearGradient>
<path style="fill:url(#SVGID_00000084498639809271531410000003256234452537617834_);" d="M61.2,130.8c-0.7-0.6-5.1-4.5-5-11
	c0-6.5,4.4-10.4,5-11c9,0,18,0,26.9,0v22L61.2,130.8L61.2,130.8z"/>
<image style="overflow:visible;" width="200" height="200" xlink:href="../../pepsi.png"  transform="matrix(7.554918e-02 0 0 7.554918e-02 42.422 31.1913)">
</image>
</svg>
