<?xml version="1.0" encoding="utf-8"?>
<!-- Generator: Adobe Illustrator 25.4.1, SVG Export Plug-In . SVG Version: 6.00 Build 0)  -->
<svg version="1.1" id="Слой_1" xmlns="http://www.w3.org/2000/svg" xmlns:xlink="http://www.w3.org/1999/xlink" x="0px" y="0px"
	 viewBox="0 0 100 160" style="enable-background:new 0 0 100 160;" xml:space="preserve">
<style type="text/css">
	.st0{clip-path:url(#SVGID_00000037678937651541737340000010573975774977162672_);}
	.st1{fill:none;stroke:#CCCCCC;stroke-width:0.496;stroke-miterlimit:10;}
	.st2{fill:url(#SVGID_00000018208207155364692200000001564000626857806773_);}
	.st3{fill:url(#SVGID_00000052069687198266150090000003674562998787076226_);}
	.st4{fill:url(#SVGID_00000056404911170008522830000005213912447490693548_);}
	.st5{opacity:0.5;fill:url(#SVGID_00000094594127618540361150000006340429901856663452_);enable-background:new    ;}
	.st6{opacity:0.5;fill:url(#SVGID_00000046308312500994120260000000350633726934854546_);enable-background:new    ;}
	.st7{fill:url(#SVGID_00000138535073319826532480000011444241535148996009_);}
	.st8{opacity:0.5;fill:url(#SVGID_00000127005771270417135570000002479494365792319652_);enable-background:new    ;}
	.st9{opacity:0.5;fill:url(#SVGID_00000103966225987661898080000013053636280014190464_);enable-background:new    ;}
	.st10{fill:url(#SVGID_00000139291157771131114290000016621052863147946648_);}
	.st11{fill:url(#SVGID_00000023250101225173125290000008980255473360255127_);}
	.st12{fill:url(#SVGID_00000129921975451265139320000013204195010104100497_);}
	.st13{fill:url(#SVGID_00000040545253421087480140000001822988744976159363_);}
	.st14{fill:url(#SVGID_00000068659984561861426610000002553553218482050466_);}
	.st15{fill:url(#SVGID_00000180336368145560126320000008988253421639437993_);}
	.st16{fill:url(#SVGID_00000101807151219856414500000013092333853650056859_);}
	.st17{fill:url(#SVGID_00000145760277058063087320000010502168671371762615_);}
	.st18{fill:url(#SVGID_00000095317992912250420910000010066926416120599941_);}
</style>
<g>
	<g>
		<defs>
			<polygon id="SVGID_00000090278805437342365250000014574237857836269470_" points="87.6,112.3 87.6,113.5 64.2,113.5 62,113.5 
				62,109.1 57.7,109.1 57.7,83.4 58.6,83.4 58.6,81.5 57.7,81.5 43.5,81.5 42.6,81.5 42.6,83.4 43.5,83.4 43.5,102.6 43.5,109.1 
				39.2,109.1 39.2,113.5 13.5,113.5 13.5,112.3 11.7,112.3 11.7,113.5 11.7,127.2 11.7,128.3 13.5,128.3 13.5,127.2 32.6,127.2 
				32.6,127.2 39.2,127.2 39.2,131.8 43.6,131.8 43.6,139.9 43.6,157.4 42.7,157.4 42.7,159.3 43.6,159.3 57.8,159.3 58.7,159.3 
				58.7,157.4 57.8,157.4 57.8,139.8 57.8,131.8 62,131.8 62,127.2 64.3,127.2 87.6,127.2 87.6,128.3 89.4,128.3 89.4,127.2 
				89.4,113.5 89.4,112.3 			"/>
		</defs>
		<clipPath id="SVGID_00000033346028563681716120000014731311562434636172_">
			<use xlink:href="#SVGID_00000090278805437342365250000014574237857836269470_"  style="overflow:visible;"/>
		</clipPath>
		<g style="clip-path:url(#SVGID_00000033346028563681716120000014731311562434636172_);">
			
				<image style="overflow:visible;enable-background:new    ;" width="1200" height="900" xlink:href="../../Фитинги/Резьбовые/Металл.jpg"  transform="matrix(0.1346 0 0 0.1346 -9.2189 65.6257)">
			</image>
		</g>
	</g>
	<g>
		<polygon id="SVGID_1_" class="st1" points="87.6,112.3 87.6,113.5 64.2,113.5 62,113.5 62,109.1 57.7,109.1 57.7,83.4 58.6,83.4 
			58.6,81.5 57.7,81.5 43.5,81.5 42.6,81.5 42.6,83.4 43.5,83.4 43.5,102.6 43.5,109.1 39.2,109.1 39.2,113.5 13.5,113.5 
			13.5,112.3 11.7,112.3 11.7,113.5 11.7,127.2 11.7,128.3 13.5,128.3 13.5,127.2 32.6,127.2 32.6,127.2 39.2,127.2 39.2,131.8 
			43.6,131.8 43.6,139.9 43.6,157.4 42.7,157.4 42.7,159.3 43.6,159.3 57.8,159.3 58.7,159.3 58.7,157.4 57.8,157.4 57.8,139.8 
			57.8,131.8 62,131.8 62,127.2 64.3,127.2 87.6,127.2 87.6,128.3 89.4,128.3 89.4,127.2 89.4,113.5 89.4,112.3 		"/>
	</g>
</g>
<linearGradient id="SVGID_00000079463584865399396810000008178374389232668822_" gradientUnits="userSpaceOnUse" x1="-305.6858" y1="1221.4045" x2="-291.9099" y2="1221.4045" gradientTransform="matrix(6.123234e-17 -1 -1 -6.123234e-17 1246.8472 -259.106)">
	<stop  offset="0" style="stop-color:#9F9D9D"/>
	<stop  offset="0.1816" style="stop-color:#808080"/>
	<stop  offset="0.2933" style="stop-color:#9F9D9D"/>
	<stop  offset="0.5447" style="stop-color:#CCCCCC"/>
	<stop  offset="0.6732" style="stop-color:#FFFFFF"/>
	<stop  offset="0.8687" style="stop-color:#E4E3E3"/>
	<stop  offset="1" style="stop-color:#B3B3B3"/>
</linearGradient>
<rect x="11.6" y="32.8" style="fill:url(#SVGID_00000079463584865399396810000008178374389232668822_);" width="27.7" height="13.8"/>
<linearGradient id="SVGID_00000145762911135386605570000012480845985567805357_" gradientUnits="userSpaceOnUse" x1="43.5405" y1="334.8661" x2="57.8552" y2="334.8661" gradientTransform="matrix(1 0 0 -1 0 349.5512)">
	<stop  offset="0" style="stop-color:#9F9D9D"/>
	<stop  offset="0.1816" style="stop-color:#808080"/>
	<stop  offset="0.2933" style="stop-color:#9F9D9D"/>
	<stop  offset="0.5447" style="stop-color:#CCCCCC"/>
	<stop  offset="0.6732" style="stop-color:#FFFFFF"/>
	<stop  offset="0.8687" style="stop-color:#E4E3E3"/>
	<stop  offset="1" style="stop-color:#B3B3B3"/>
</linearGradient>
<rect x="43.5" y="0.7" style="fill:url(#SVGID_00000145762911135386605570000012480845985567805357_);" width="14.3" height="28"/>
<linearGradient id="SVGID_00000085245504907102402340000013011746052514196627_" gradientUnits="userSpaceOnUse" x1="75.8054" y1="302.9714" x2="75.8054" y2="316.7637" gradientTransform="matrix(1 0 0 -1 0 349.5512)">
	<stop  offset="0" style="stop-color:#9F9D9D"/>
	<stop  offset="0.1816" style="stop-color:#808080"/>
	<stop  offset="0.2933" style="stop-color:#9F9D9D"/>
	<stop  offset="0.5447" style="stop-color:#CCCCCC"/>
	<stop  offset="0.6732" style="stop-color:#FFFFFF"/>
	<stop  offset="0.8687" style="stop-color:#E4E3E3"/>
	<stop  offset="1" style="stop-color:#B3B3B3"/>
</linearGradient>
<polygon style="fill:url(#SVGID_00000085245504907102402340000013011746052514196627_);" points="62,46.6 62,32.8 89.6,32.8 
	89.6,46.6 "/>
<linearGradient id="SVGID_00000161605632590045385780000013750993403321472442_" gradientUnits="userSpaceOnUse" x1="-484.4845" y1="-1717.4821" x2="-478.9504" y2="-1717.4821" gradientTransform="matrix(1 0 0 -1 543.2952 -1677.7985)">
	<stop  offset="0" style="stop-color:#3F3B3C"/>
	<stop  offset="1" style="stop-color:#3F3B3C;stop-opacity:0"/>
</linearGradient>
<polygon style="opacity:0.5;fill:url(#SVGID_00000161605632590045385780000013750993403321472442_);enable-background:new    ;" points="
	64.3,32.8 58.7,32.8 58.7,46.6 64.4,46.6 "/>
<linearGradient id="SVGID_00000154402258415063234440000013799088669693531542_" gradientUnits="userSpaceOnUse" x1="-1620.0996" y1="-1805.7567" x2="-1609.3014" y2="-1805.7567" gradientTransform="matrix(6.123234e-17 -1 -1 -6.123234e-17 -1755.0804 -1587.4834)">
	<stop  offset="0" style="stop-color:#3F3B3C"/>
	<stop  offset="1" style="stop-color:#3F3B3C;stop-opacity:0"/>
</linearGradient>
<polygon style="opacity:0.5;fill:url(#SVGID_00000154402258415063234440000013799088669693531542_);enable-background:new    ;" points="
	43.5,21.9 43.5,32.8 57.8,32.8 57.8,21.8 "/>
<linearGradient id="SVGID_00000052081765599731580310000005047334270974186140_" gradientUnits="userSpaceOnUse" x1="43.6757" y1="284.7124" x2="57.9213" y2="284.7124" gradientTransform="matrix(1 0 0 -1 0 349.5512)">
	<stop  offset="0" style="stop-color:#9F9D9D"/>
	<stop  offset="0.1816" style="stop-color:#808080"/>
	<stop  offset="0.2933" style="stop-color:#9F9D9D"/>
	<stop  offset="0.5447" style="stop-color:#CCCCCC"/>
	<stop  offset="0.6732" style="stop-color:#FFFFFF"/>
	<stop  offset="0.8687" style="stop-color:#E4E3E3"/>
	<stop  offset="1" style="stop-color:#B3B3B3"/>
</linearGradient>
<rect x="43.7" y="50.9" style="fill:url(#SVGID_00000052081765599731580310000005047334270974186140_);" width="14.3" height="27.8"/>
<linearGradient id="SVGID_00000101066237390255285590000007014189599346287034_" gradientUnits="userSpaceOnUse" x1="-1731.5514" y1="-2415.3223" x2="-1721.3889" y2="-2415.3223" gradientTransform="matrix(-6.123234e-17 1 1 6.123234e-17 2466.103 1780.7174)">
	<stop  offset="0" style="stop-color:#3F3B3C"/>
	<stop  offset="1" style="stop-color:#3F3B3C;stop-opacity:0"/>
</linearGradient>
<polygon style="opacity:0.5;fill:url(#SVGID_00000101066237390255285590000007014189599346287034_);enable-background:new    ;" points="
	57.9,59.3 57.9,49 43.7,49 43.7,59.4 "/>
<linearGradient id="SVGID_00000003815819547596640180000010078543210243906440_" gradientUnits="userSpaceOnUse" x1="-733.3109" y1="-1456.291" x2="-722.6962" y2="-1456.291" gradientTransform="matrix(-1 0 0 1 -690.1875 1495.9746)">
	<stop  offset="0" style="stop-color:#3F3B3C"/>
	<stop  offset="1" style="stop-color:#3F3B3C;stop-opacity:0"/>
</linearGradient>
<polygon style="opacity:0.5;fill:url(#SVGID_00000003815819547596640180000010078543210243906440_);enable-background:new    ;" points="
	32.6,46.6 43.3,46.6 43.3,32.8 32.4,32.8 "/>
<linearGradient id="SVGID_00000147209530110391033640000013554069639044929971_" gradientUnits="userSpaceOnUse" x1="34.9758" y1="1209.6124" x2="66.3823" y2="1204.9976" gradientTransform="matrix(1 0 0 1 0 -1167.551)">
	<stop  offset="6.699173e-02" style="stop-color:#919396"/>
	<stop  offset="0.3883" style="stop-color:#D1D3D4"/>
	<stop  offset="0.5154" style="stop-color:#CDCFD0"/>
	<stop  offset="0.6398" style="stop-color:#C1C3C5"/>
	<stop  offset="0.6788" style="stop-color:#BCBEC0"/>
	<stop  offset="0.7667" style="stop-color:#B5B7B9"/>
	<stop  offset="0.8967" style="stop-color:#A1A3A5"/>
	<stop  offset="0.9766" style="stop-color:#919396"/>
</linearGradient>
<rect x="39.2" y="28.3" style="fill:url(#SVGID_00000147209530110391033640000013554069639044929971_);" width="22.9" height="22.8"/>
<linearGradient id="SVGID_00000080918262229566855520000007317812809858847872_" gradientUnits="userSpaceOnUse" x1="237.1546" y1="1552.6947" x2="237.1546" y2="1563.0056" gradientTransform="matrix(6.123234e-17 1 -1 6.123234e-17 1608.4922 -116.7549)">
	<stop  offset="8.379889e-03" style="stop-color:#666666"/>
	<stop  offset="0.3195" style="stop-color:#808080"/>
	<stop  offset="0.4985" style="stop-color:#999999"/>
	<stop  offset="0.6568" style="stop-color:#828282"/>
	<stop  offset="1" style="stop-color:#666666"/>
</linearGradient>
<polygon style="fill:url(#SVGID_00000080918262229566855520000007317812809858847872_);" points="56,159.4 45.2,159.4 45.2,81.4 
	56,81.4 "/>
<linearGradient id="SVGID_00000046303594147552102640000000660110364536143509_" gradientUnits="userSpaceOnUse" x1="274.9051" y1="1557.9204" x2="200.2598" y2="1557.9204" gradientTransform="matrix(6.123234e-17 1 -1 6.123234e-17 1608.4922 -116.7549)">
	<stop  offset="0.2458" style="stop-color:#333333;stop-opacity:0"/>
	<stop  offset="0.5447" style="stop-color:#424242;stop-opacity:0.7"/>
	<stop  offset="0.8073" style="stop-color:#333333;stop-opacity:0"/>
</linearGradient>
<polygon style="fill:url(#SVGID_00000046303594147552102640000000660110364536143509_);" points="56,159.1 45.2,159.1 45.2,81.4 
	56,81.4 "/>
<linearGradient id="SVGID_00000064327754194498090630000016254092910270882729_" gradientUnits="userSpaceOnUse" x1="6158.1113" y1="-4419.5781" x2="6158.1113" y2="-4409.2393" gradientTransform="matrix(-1 0 0 -1 6187.6074 -4293.9121)">
	<stop  offset="8.379889e-03" style="stop-color:#666666"/>
	<stop  offset="0.3195" style="stop-color:#808080"/>
	<stop  offset="0.4985" style="stop-color:#999999"/>
	<stop  offset="0.6568" style="stop-color:#828282"/>
	<stop  offset="1" style="stop-color:#666666"/>
</linearGradient>
<path style="fill:url(#SVGID_00000064327754194498090630000016254092910270882729_);" d="M11.6,125.8V115h33.6
	c0.4,0.4,2.1,2.2,2.2,5c0.2,3.2-1.9,5.4-2.2,5.7C34,125.8,22.8,125.8,11.6,125.8z"/>
<linearGradient id="SVGID_00000039849401158334572560000008854259900875243952_" gradientUnits="userSpaceOnUse" x1="6115.9858" y1="-4419.5781" x2="6115.9858" y2="-4409.2393" gradientTransform="matrix(-1 0 0 -1 6187.6074 -4293.9121)">
	<stop  offset="8.379889e-03" style="stop-color:#666666"/>
	<stop  offset="0.3195" style="stop-color:#808080"/>
	<stop  offset="0.4985" style="stop-color:#999999"/>
	<stop  offset="0.6568" style="stop-color:#828282"/>
	<stop  offset="1" style="stop-color:#666666"/>
</linearGradient>
<path style="fill:url(#SVGID_00000039849401158334572560000008854259900875243952_);" d="M56,125.8c-0.4-0.4-2.4-2.5-2.2-5.8
	c0.2-2.8,1.8-4.5,2.2-5c11.2,0,22.4,0,33.6,0v10.8H56z"/>
<linearGradient id="SVGID_00000130607989413130814630000006281092606177341864_" gradientUnits="userSpaceOnUse" x1="42.9434" y1="84.1264" x2="58.3941" y2="84.1264" gradientTransform="matrix(1 0 0 -1 0 162)">
	<stop  offset="0" style="stop-color:#9F9D9D"/>
	<stop  offset="0.1816" style="stop-color:#808080"/>
	<stop  offset="0.2933" style="stop-color:#9F9D9D"/>
	<stop  offset="0.5447" style="stop-color:#CCCCCC"/>
	<stop  offset="0.6732" style="stop-color:#FFFFFF"/>
	<stop  offset="0.8687" style="stop-color:#E4E3E3"/>
	<stop  offset="1" style="stop-color:#B3B3B3"/>
</linearGradient>
<rect x="42.7" y="76.9" style="fill:url(#SVGID_00000130607989413130814630000006281092606177341864_);" width="16.1" height="1.9"/>
<linearGradient id="SVGID_00000031184298795519450830000011359808707593462161_" gradientUnits="userSpaceOnUse" x1="-263.4118" y1="194.5157" x2="-247.9611" y2="194.5157" gradientTransform="matrix(6.123234e-17 -1 -1 -6.123234e-17 207.0543 -215.9136)">
	<stop  offset="0" style="stop-color:#9F9D9D"/>
	<stop  offset="0.1816" style="stop-color:#808080"/>
	<stop  offset="0.2933" style="stop-color:#9F9D9D"/>
	<stop  offset="0.5447" style="stop-color:#CCCCCC"/>
	<stop  offset="0.6732" style="stop-color:#FFFFFF"/>
	<stop  offset="0.8687" style="stop-color:#E4E3E3"/>
	<stop  offset="1" style="stop-color:#B3B3B3"/>
</linearGradient>
<polygon style="fill:url(#SVGID_00000031184298795519450830000011359808707593462161_);" points="13.5,31.6 13.5,47.7 11.6,47.7 
	11.6,31.6 "/>
<linearGradient id="SVGID_00000019670194792201079430000001004752789252097173_" gradientUnits="userSpaceOnUse" x1="-263.4118" y1="118.3448" x2="-247.9611" y2="118.3448" gradientTransform="matrix(6.123234e-17 -1 -1 -6.123234e-17 207.0543 -215.9136)">
	<stop  offset="0" style="stop-color:#9F9D9D"/>
	<stop  offset="0.1816" style="stop-color:#808080"/>
	<stop  offset="0.2933" style="stop-color:#9F9D9D"/>
	<stop  offset="0.5447" style="stop-color:#CCCCCC"/>
	<stop  offset="0.6732" style="stop-color:#FFFFFF"/>
	<stop  offset="0.8687" style="stop-color:#E4E3E3"/>
	<stop  offset="1" style="stop-color:#B3B3B3"/>
</linearGradient>
<polygon style="fill:url(#SVGID_00000019670194792201079430000001004752789252097173_);" points="89.6,31.6 89.6,47.7 87.8,47.7 
	87.8,31.6 "/>
<linearGradient id="SVGID_00000036242182028877152980000002211423490681174927_" gradientUnits="userSpaceOnUse" x1="42.8534" y1="160.3496" x2="58.3041" y2="160.3496" gradientTransform="matrix(1 0 0 -1 0 162)">
	<stop  offset="0" style="stop-color:#9F9D9D"/>
	<stop  offset="0.1816" style="stop-color:#808080"/>
	<stop  offset="0.2933" style="stop-color:#9F9D9D"/>
	<stop  offset="0.5447" style="stop-color:#CCCCCC"/>
	<stop  offset="0.6732" style="stop-color:#FFFFFF"/>
	<stop  offset="0.8687" style="stop-color:#E4E3E3"/>
	<stop  offset="1" style="stop-color:#B3B3B3"/>
</linearGradient>
<rect x="42.6" y="0.7" style="fill:url(#SVGID_00000036242182028877152980000002211423490681174927_);" width="16.1" height="1.9"/>
<image style="overflow:visible;" width="200" height="200" xlink:href="../../pepsi.png"  transform="matrix(4.479595e-02 0 0 4.479595e-02 46.0922 34.342)">
</image>
</svg>
