<?xml version="1.0" encoding="utf-8"?>
<!-- Generator: Adobe Illustrator 25.4.1, SVG Export Plug-In . SVG Version: 6.00 Build 0)  -->
<svg version="1.1" id="Слой_1" xmlns="http://www.w3.org/2000/svg" xmlns:xlink="http://www.w3.org/1999/xlink" x="0px" y="0px"
	 viewBox="0 0 150 270" style="enable-background:new 0 0 150 270;" xml:space="preserve">
<style type="text/css">
	.st0{fill:url(#SVGID_1_);}
	.st1{fill:url(#SVGID_00000060731704684192462690000011107434656527191936_);}
	.st2{fill:url(#SVGID_00000179603583595629083240000004988298901442155175_);}
	.st3{opacity:0.5;fill:url(#SVGID_00000067916023838580060150000004531928245228873378_);enable-background:new    ;}
	.st4{fill:url(#SVGID_00000054954684360059621030000003558106612247567037_);}
	.st5{fill:url(#SVGID_00000161632413044099724150000009883113732972616095_);}
	.st6{fill:url(#SVGID_00000145045946717343347290000005008484314504621976_);}
	.st7{fill:url(#SVGID_00000097496953048829447310000004454540504325760933_);}
	.st8{fill:url(#SVGID_00000159439879798690329720000001397972109759696564_);}
	.st9{fill:url(#SVGID_00000078018504330412036820000003215779888145310863_);}
	.st10{fill:url(#SVGID_00000141414393731524958830000010195206328794807687_);}
	.st11{fill:url(#SVGID_00000168076746410157785320000005360043858835534727_);}
	.st12{fill:url(#SVGID_00000099622625857783866070000002753720551141177242_);}
	.st13{fill:url(#SVGID_00000030470144381588184780000013089706072400288923_);}
	.st14{fill:url(#SVGID_00000108282312202756747030000008041637368501353874_);}
	.st15{fill:url(#SVGID_00000016039931299047177660000010326049131155647120_);}
	.st16{fill:url(#SVGID_00000032615318495953885080000017068017924019417008_);}
	.st17{fill:url(#SVGID_00000016054824374183397060000016963551350003790523_);}
	.st18{fill:url(#SVGID_00000113319885976187913200000013182241014928599973_);}
	.st19{fill:url(#SVGID_00000021820701126277966070000005991518119392620222_);}
	.st20{fill:url(#SVGID_00000030447558801258976880000007998879271792691095_);}
	.st21{fill:url(#SVGID_00000016066462963112953510000006741057571452035977_);}
	.st22{fill:url(#SVGID_00000008861961957866317900000009019796754699905464_);}
	.st23{fill:url(#SVGID_00000106857452020566681560000014638184327973029052_);}
	.st24{clip-path:url(#SVGID_00000135663278959035049910000004323024811227569046_);}
	.st25{clip-path:url(#SVGID_00000078748349599245178580000007445835800870525374_);}
	.st26{fill:none;}
	.st27{fill:#515051;}
	.st28{fill:url(#SVGID_00000036231911738415561130000012566887552311249555_);}
	.st29{opacity:0.5;fill:url(#SVGID_00000169555955332712041090000007009892909144716720_);enable-background:new    ;}
	.st30{fill:url(#SVGID_00000044141671964816709360000008359463305015785629_);}
	.st31{fill:url(#SVGID_00000112609704611352790260000014349945490306560940_);}
	.st32{fill:url(#SVGID_00000132801618712854040380000012710269696674920595_);}
	.st33{fill:#414042;}
	.st34{fill:#58595B;stroke:#6D6E71;stroke-miterlimit:10;}
	.st35{fill:#6D6E71;}
	.st36{fill:none;stroke:#58595B;stroke-miterlimit:10;}
	.st37{fill:none;stroke:#6D6E71;stroke-miterlimit:10;}
	.st38{fill:#D2D3D4;}
	.st39{fill:#D6D7D7;}
	.st40{fill:#AAAAAA;}
	.st41{fill:url(#SVGID_00000069364141800407691590000012826178801524901566_);}
	.st42{fill:url(#SVGID_00000103981878354008765100000009083777054990820537_);}
</style>
<g>
	
		<linearGradient id="SVGID_1_" gradientUnits="userSpaceOnUse" x1="-3738.5718" y1="2589.1182" x2="-3738.5718" y2="2589.1182" gradientTransform="matrix(6.123234e-17 -1 1 6.123234e-17 -2522.3181 -3724.3718)">
		<stop  offset="0" style="stop-color:#58595B"/>
		<stop  offset="1" style="stop-color:#FFFFFF;stop-opacity:0"/>
	</linearGradient>
	<path class="st0" d="M66.8,14.2"/>
	
		<linearGradient id="SVGID_00000149356415046565643180000017503309510935729577_" gradientUnits="userSpaceOnUse" x1="-4486.9717" y1="-1745.7631" x2="-4486.9717" y2="-1745.7631" gradientTransform="matrix(6.123234e-17 -1 -1 -6.123234e-17 -1677.2631 -4474.3716)">
		<stop  offset="0" style="stop-color:#58595B"/>
		<stop  offset="1" style="stop-color:#FFFFFF;stop-opacity:0"/>
	</linearGradient>
	<path style="fill:url(#SVGID_00000149356415046565643180000017503309510935729577_);" d="M68.5,12.6"/>
	
		<linearGradient id="SVGID_00000150086656320469425260000013655687052675746738_" gradientUnits="userSpaceOnUse" x1="-487.6452" y1="2631.96" x2="-487.6452" y2="2535.26" gradientTransform="matrix(1 0 0 1 543.2952 -2517.46)">
		<stop  offset="0" style="stop-color:#999898"/>
		<stop  offset="0.1963" style="stop-color:#4F4F4F"/>
		<stop  offset="0.2507" style="stop-color:#5B5B5B"/>
		<stop  offset="0.3499" style="stop-color:#7C7C7C"/>
		<stop  offset="0.3704" style="stop-color:#848484"/>
		<stop  offset="0.433" style="stop-color:#878787"/>
		<stop  offset="0.5974" style="stop-color:#D9D9D9"/>
		<stop  offset="0.6843" style="stop-color:#FFFFFF"/>
		<stop  offset="0.9078" style="stop-color:#B7B7B7"/>
		<stop  offset="1" style="stop-color:#C6C6C6"/>
	</linearGradient>
	<path style="fill:url(#SVGID_00000150086656320469425260000013655687052675746738_);" d="M66.5,17.8H44v96.7h23.3
		c0-0.3-0.5-67.1-0.5-67.4v-0.3C67,46.8,66.5,17.8,66.5,17.8z"/>
	
		<linearGradient id="SVGID_00000035508966118565103430000018180267335064306108_" gradientUnits="userSpaceOnUse" x1="-499.0738" y1="2583.6099" x2="-482.4224" y2="2583.6099" gradientTransform="matrix(1 0 0 1 543.2952 -2517.46)">
		<stop  offset="0" style="stop-color:#3F3B3C"/>
		<stop  offset="0.1413" style="stop-color:#3F3B3C;stop-opacity:0.8587"/>
		<stop  offset="1" style="stop-color:#3F3B3C;stop-opacity:0"/>
	</linearGradient>
	
		<polygon style="opacity:0.5;fill:url(#SVGID_00000035508966118565103430000018180267335064306108_);enable-background:new    ;" points="
		60.7,17.8 44,17.8 44,114.5 60.9,114.5 	"/>
	
		<linearGradient id="SVGID_00000105399612014481222190000009928535022742345602_" gradientUnits="userSpaceOnUse" x1="96.9" y1="-706.9897" x2="96.9" y2="-597.1898" gradientTransform="matrix(1 0 0 -1 0 -585.8898)">
		<stop  offset="0" style="stop-color:#808285"/>
		<stop  offset="0.1313" style="stop-color:#4D4E50"/>
		<stop  offset="0.2039" style="stop-color:#424244"/>
		<stop  offset="0.338" style="stop-color:#808285"/>
		<stop  offset="0.4162" style="stop-color:#D1D3D4"/>
		<stop  offset="0.5168" style="stop-color:#A7A9AC"/>
		<stop  offset="0.662" style="stop-color:#F1F2F2"/>
		<stop  offset="0.8519" style="stop-color:#838587"/>
		<stop  offset="0.919" style="stop-color:#E6E7E8"/>
		<stop  offset="1" style="stop-color:#919396"/>
	</linearGradient>
	<polygon style="fill:url(#SVGID_00000105399612014481222190000009928535022742345602_);" points="92.2,11.3 96.7,18.9 101.6,113 
		97.8,121.1 	"/>
	
		<linearGradient id="SVGID_00000151517400671928679540000002601159153314545836_" gradientUnits="userSpaceOnUse" x1="88.5" y1="-707.4897" x2="88.5" y2="-596.7898" gradientTransform="matrix(1 0 0 -1 0 -585.8898)">
		<stop  offset="0" style="stop-color:#808285"/>
		<stop  offset="0.1313" style="stop-color:#4D4E50"/>
		<stop  offset="0.2039" style="stop-color:#424244"/>
		<stop  offset="0.338" style="stop-color:#808285"/>
		<stop  offset="0.4162" style="stop-color:#D1D3D4"/>
		<stop  offset="0.5168" style="stop-color:#A7A9AC"/>
		<stop  offset="0.662" style="stop-color:#F1F2F2"/>
		<stop  offset="0.8519" style="stop-color:#838587"/>
		<stop  offset="0.919" style="stop-color:#E6E7E8"/>
		<stop  offset="1" style="stop-color:#919396"/>
	</linearGradient>
	<polygon style="fill:url(#SVGID_00000151517400671928679540000002601159153314545836_);" points="83.8,10.9 88.4,18.5 93.2,113.6 
		89.7,121.6 	"/>
	
		<linearGradient id="SVGID_00000106115653086612563470000003342741877253503397_" gradientUnits="userSpaceOnUse" x1="80.15" y1="-707.8898" x2="80.15" y2="-596.2898" gradientTransform="matrix(1 0 0 -1 0 -585.8898)">
		<stop  offset="0" style="stop-color:#808285"/>
		<stop  offset="0.1313" style="stop-color:#4D4E50"/>
		<stop  offset="0.2039" style="stop-color:#424244"/>
		<stop  offset="0.338" style="stop-color:#808285"/>
		<stop  offset="0.4162" style="stop-color:#D1D3D4"/>
		<stop  offset="0.5168" style="stop-color:#A7A9AC"/>
		<stop  offset="0.662" style="stop-color:#F1F2F2"/>
		<stop  offset="0.8519" style="stop-color:#838587"/>
		<stop  offset="0.919" style="stop-color:#E6E7E8"/>
		<stop  offset="1" style="stop-color:#919396"/>
	</linearGradient>
	<polygon style="fill:url(#SVGID_00000106115653086612563470000003342741877253503397_);" points="75.2,10.4 79.8,18 85.1,114.1 
		81,122 	"/>
	
		<linearGradient id="SVGID_00000099662695315098674640000004496214180654892961_" gradientUnits="userSpaceOnUse" x1="72.45" y1="-704.0898" x2="72.45" y2="-599.4897" gradientTransform="matrix(1 0 0 -1 0 -585.8898)">
		<stop  offset="0" style="stop-color:#808285"/>
		<stop  offset="0.1313" style="stop-color:#4D4E50"/>
		<stop  offset="0.2039" style="stop-color:#424244"/>
		<stop  offset="0.338" style="stop-color:#808285"/>
		<stop  offset="0.4162" style="stop-color:#D1D3D4"/>
		<stop  offset="0.5168" style="stop-color:#A7A9AC"/>
		<stop  offset="0.662" style="stop-color:#F1F2F2"/>
		<stop  offset="0.8519" style="stop-color:#838587"/>
		<stop  offset="0.919" style="stop-color:#E6E7E8"/>
		<stop  offset="1" style="stop-color:#919396"/>
	</linearGradient>
	<polygon style="fill:url(#SVGID_00000099662695315098674640000004496214180654892961_);" points="68.3,13.6 71.6,17.7 76.6,114.4 
		72.8,118.2 	"/>
	
		<linearGradient id="SVGID_00000152260184205119653990000014410530138175096754_" gradientUnits="userSpaceOnUse" x1="-11357.0303" y1="158.8372" x2="-11357.0303" y2="56.0598" gradientTransform="matrix(-1 0 0 -1.06 -11255.6299 195.0169)">
		<stop  offset="6.983240e-02" style="stop-color:#6D6E71"/>
		<stop  offset="0.1536" style="stop-color:#939598"/>
		<stop  offset="0.2151" style="stop-color:#6D6E71"/>
		<stop  offset="0.3883" style="stop-color:#6D6E71"/>
		<stop  offset="0.4832" style="stop-color:#939598"/>
		<stop  offset="0.6844" style="stop-color:#BCBEC0"/>
		<stop  offset="0.7458" style="stop-color:#808285"/>
		<stop  offset="0.8073" style="stop-color:#B4B4B4"/>
		<stop  offset="0.9134" style="stop-color:#6D6E71"/>
		<stop  offset="1" style="stop-color:#939598"/>
	</linearGradient>
	<polygon style="fill:url(#SVGID_00000152260184205119653990000014410530138175096754_);" points="100.3,11.8 106.1,120.6 
		101.6,113 96.7,18.9 	"/>
	
		<linearGradient id="SVGID_00000111157820606825376210000012108086266505955737_" gradientUnits="userSpaceOnUse" x1="-11348.7295" y1="159.2855" x2="-11348.7295" y2="55.7006" gradientTransform="matrix(-1 0 0 -1.06 -11255.6299 195.0169)">
		<stop  offset="6.983240e-02" style="stop-color:#6D6E71"/>
		<stop  offset="0.1536" style="stop-color:#939598"/>
		<stop  offset="0.2151" style="stop-color:#6D6E71"/>
		<stop  offset="0.3883" style="stop-color:#6D6E71"/>
		<stop  offset="0.4832" style="stop-color:#939598"/>
		<stop  offset="0.6844" style="stop-color:#BCBEC0"/>
		<stop  offset="0.7458" style="stop-color:#808285"/>
		<stop  offset="0.8073" style="stop-color:#B4B4B4"/>
		<stop  offset="0.9134" style="stop-color:#6D6E71"/>
		<stop  offset="1" style="stop-color:#939598"/>
	</linearGradient>
	<polygon style="fill:url(#SVGID_00000111157820606825376210000012108086266505955737_);" points="92.2,11.3 97.8,121.1 93.2,113.6 
		88.4,18.5 	"/>
	
		<linearGradient id="SVGID_00000180325525369297998040000018038230664726706868_" gradientUnits="userSpaceOnUse" x1="-11340.3799" y1="159.718" x2="-11340.3799" y2="55.2841" gradientTransform="matrix(-1 0 0 -1.06 -11255.6299 195.0169)">
		<stop  offset="6.983240e-02" style="stop-color:#6D6E71"/>
		<stop  offset="0.1536" style="stop-color:#939598"/>
		<stop  offset="0.2151" style="stop-color:#6D6E71"/>
		<stop  offset="0.3883" style="stop-color:#6D6E71"/>
		<stop  offset="0.4832" style="stop-color:#939598"/>
		<stop  offset="0.6844" style="stop-color:#BCBEC0"/>
		<stop  offset="0.7458" style="stop-color:#808285"/>
		<stop  offset="0.8073" style="stop-color:#B4B4B4"/>
		<stop  offset="0.9134" style="stop-color:#6D6E71"/>
		<stop  offset="1" style="stop-color:#939598"/>
	</linearGradient>
	<polygon style="fill:url(#SVGID_00000180325525369297998040000018038230664726706868_);" points="83.8,10.9 89.7,121.6 85.1,114.1 
		79.8,18 	"/>
	
		<linearGradient id="SVGID_00000162326570056920608240000018277611281048105888_" gradientUnits="userSpaceOnUse" x1="121.8" y1="-705.6898" x2="121.8" y2="-598.4897" gradientTransform="matrix(1 0 0 -1 0 -585.8898)">
		<stop  offset="0" style="stop-color:#808285"/>
		<stop  offset="0.1313" style="stop-color:#4D4E50"/>
		<stop  offset="0.2039" style="stop-color:#424244"/>
		<stop  offset="0.338" style="stop-color:#808285"/>
		<stop  offset="0.4162" style="stop-color:#D1D3D4"/>
		<stop  offset="0.5168" style="stop-color:#A7A9AC"/>
		<stop  offset="0.662" style="stop-color:#F1F2F2"/>
		<stop  offset="0.8519" style="stop-color:#838587"/>
		<stop  offset="0.919" style="stop-color:#E6E7E8"/>
		<stop  offset="1" style="stop-color:#919396"/>
	</linearGradient>
	<polygon style="fill:url(#SVGID_00000162326570056920608240000018277611281048105888_);" points="117,12.6 121.3,20.2 126.6,111.7 
		122.8,119.8 	"/>
	
		<linearGradient id="SVGID_00000081609099902645743850000011866498110568529575_" gradientUnits="userSpaceOnUse" x1="113.5" y1="-706.1898" x2="113.5" y2="-598.1898" gradientTransform="matrix(1 0 0 -1 0 -585.8898)">
		<stop  offset="0" style="stop-color:#808285"/>
		<stop  offset="0.1313" style="stop-color:#4D4E50"/>
		<stop  offset="0.2039" style="stop-color:#424244"/>
		<stop  offset="0.338" style="stop-color:#808285"/>
		<stop  offset="0.4162" style="stop-color:#D1D3D4"/>
		<stop  offset="0.5168" style="stop-color:#A7A9AC"/>
		<stop  offset="0.662" style="stop-color:#F1F2F2"/>
		<stop  offset="0.8519" style="stop-color:#838587"/>
		<stop  offset="0.919" style="stop-color:#E6E7E8"/>
		<stop  offset="1" style="stop-color:#919396"/>
	</linearGradient>
	<polygon style="fill:url(#SVGID_00000081609099902645743850000011866498110568529575_);" points="108.7,12.3 113.2,19.9 
		118.3,112.2 114.5,120.3 	"/>
	
		<linearGradient id="SVGID_00000178203073798173894420000010097525589890642102_" gradientUnits="userSpaceOnUse" x1="105.1" y1="-706.4897" x2="105.1" y2="-597.5457" gradientTransform="matrix(1 0 0 -1 0 -585.8898)">
		<stop  offset="0" style="stop-color:#808285"/>
		<stop  offset="0.1313" style="stop-color:#4D4E50"/>
		<stop  offset="0.2039" style="stop-color:#424244"/>
		<stop  offset="0.338" style="stop-color:#808285"/>
		<stop  offset="0.4162" style="stop-color:#D1D3D4"/>
		<stop  offset="0.5168" style="stop-color:#A7A9AC"/>
		<stop  offset="0.662" style="stop-color:#F1F2F2"/>
		<stop  offset="0.8519" style="stop-color:#838587"/>
		<stop  offset="0.919" style="stop-color:#E6E7E8"/>
		<stop  offset="1" style="stop-color:#919396"/>
	</linearGradient>
	<polygon style="fill:url(#SVGID_00000178203073798173894420000010097525589890642102_);" points="100.3,11.8 104.9,19.4 
		109.9,112.7 106.1,120.6 	"/>
	
		<linearGradient id="SVGID_00000105423541010478865590000011291906628793113221_" gradientUnits="userSpaceOnUse" x1="-11381.8799" y1="157.5019" x2="-11381.8799" y2="57.2189" gradientTransform="matrix(-1 0 0 -1.06 -11255.6299 195.0169)">
		<stop  offset="6.983240e-02" style="stop-color:#6D6E71"/>
		<stop  offset="0.1536" style="stop-color:#939598"/>
		<stop  offset="0.2151" style="stop-color:#6D6E71"/>
		<stop  offset="0.3883" style="stop-color:#6D6E71"/>
		<stop  offset="0.4832" style="stop-color:#939598"/>
		<stop  offset="0.6844" style="stop-color:#BCBEC0"/>
		<stop  offset="0.7458" style="stop-color:#808285"/>
		<stop  offset="0.8073" style="stop-color:#B4B4B4"/>
		<stop  offset="0.9134" style="stop-color:#6D6E71"/>
		<stop  offset="1" style="stop-color:#939598"/>
	</linearGradient>
	<polygon style="fill:url(#SVGID_00000105423541010478865590000011291906628793113221_);" points="125.4,13.1 131.2,119.4 
		126.6,111.7 121.3,20.2 	"/>
	
		<linearGradient id="SVGID_00000167365491120717801560000012811381624014658440_" gradientUnits="userSpaceOnUse" x1="-11373.6299" y1="157.9482" x2="-11373.6299" y2="56.8161" gradientTransform="matrix(-1 0 0 -1.06 -11255.6299 195.0169)">
		<stop  offset="6.983240e-02" style="stop-color:#6D6E71"/>
		<stop  offset="0.1536" style="stop-color:#939598"/>
		<stop  offset="0.2151" style="stop-color:#6D6E71"/>
		<stop  offset="0.3883" style="stop-color:#6D6E71"/>
		<stop  offset="0.4832" style="stop-color:#939598"/>
		<stop  offset="0.6844" style="stop-color:#BCBEC0"/>
		<stop  offset="0.7458" style="stop-color:#808285"/>
		<stop  offset="0.8073" style="stop-color:#B4B4B4"/>
		<stop  offset="0.9134" style="stop-color:#6D6E71"/>
		<stop  offset="1" style="stop-color:#939598"/>
	</linearGradient>
	<polygon style="fill:url(#SVGID_00000167365491120717801560000012811381624014658440_);" points="117,12.6 122.8,119.8 
		118.3,112.2 113.2,19.9 	"/>
	
		<linearGradient id="SVGID_00000029046026143745681210000017058648256218430641_" gradientUnits="userSpaceOnUse" x1="-11365.3301" y1="158.3911" x2="-11365.3301" y2="56.5043" gradientTransform="matrix(-1 0 0 -1.06 -11255.6299 195.0169)">
		<stop  offset="6.983240e-02" style="stop-color:#6D6E71"/>
		<stop  offset="0.1536" style="stop-color:#939598"/>
		<stop  offset="0.2151" style="stop-color:#6D6E71"/>
		<stop  offset="0.3883" style="stop-color:#6D6E71"/>
		<stop  offset="0.4832" style="stop-color:#939598"/>
		<stop  offset="0.6844" style="stop-color:#BCBEC0"/>
		<stop  offset="0.7458" style="stop-color:#808285"/>
		<stop  offset="0.8073" style="stop-color:#B4B4B4"/>
		<stop  offset="0.9134" style="stop-color:#6D6E71"/>
		<stop  offset="1" style="stop-color:#939598"/>
	</linearGradient>
	<polygon style="fill:url(#SVGID_00000029046026143745681210000017058648256218430641_);" points="108.7,12.3 114.5,120.3 
		109.9,112.7 104.9,19.4 	"/>
	
		<linearGradient id="SVGID_00000140707333663126071770000000074761098272387210_" gradientUnits="userSpaceOnUse" x1="130.2" y1="-705.2898" x2="130.2" y2="-598.9897" gradientTransform="matrix(1 0 0 -1 0 -585.8898)">
		<stop  offset="0" style="stop-color:#808285"/>
		<stop  offset="0.1313" style="stop-color:#4D4E50"/>
		<stop  offset="0.2039" style="stop-color:#424244"/>
		<stop  offset="0.338" style="stop-color:#808285"/>
		<stop  offset="0.4162" style="stop-color:#D1D3D4"/>
		<stop  offset="0.5168" style="stop-color:#A7A9AC"/>
		<stop  offset="0.662" style="stop-color:#F1F2F2"/>
		<stop  offset="0.8519" style="stop-color:#838587"/>
		<stop  offset="0.919" style="stop-color:#E6E7E8"/>
		<stop  offset="1" style="stop-color:#919396"/>
	</linearGradient>
	<polygon style="fill:url(#SVGID_00000140707333663126071770000000074761098272387210_);" points="125.4,13.1 129.9,20.7 135,111.4 
		131.2,119.4 	"/>
	
		<linearGradient id="SVGID_00000103984533765189050620000005197173608675406515_" gradientUnits="userSpaceOnUse" x1="-11390.3799" y1="157.0538" x2="-11390.3799" y2="57.6199" gradientTransform="matrix(-1 0 0 -1.06 -11255.6299 195.0169)">
		<stop  offset="6.983240e-02" style="stop-color:#6D6E71"/>
		<stop  offset="0.1536" style="stop-color:#939598"/>
		<stop  offset="0.2151" style="stop-color:#6D6E71"/>
		<stop  offset="0.3883" style="stop-color:#6D6E71"/>
		<stop  offset="0.4832" style="stop-color:#939598"/>
		<stop  offset="0.6844" style="stop-color:#BCBEC0"/>
		<stop  offset="0.7458" style="stop-color:#808285"/>
		<stop  offset="0.8073" style="stop-color:#B4B4B4"/>
		<stop  offset="0.9134" style="stop-color:#6D6E71"/>
		<stop  offset="1" style="stop-color:#939598"/>
	</linearGradient>
	<polygon style="fill:url(#SVGID_00000103984533765189050620000005197173608675406515_);" points="133.7,13.5 139.6,118.9 
		135,111.4 129.9,20.7 	"/>
	
		<linearGradient id="SVGID_00000000912107104519144440000015468508057695068835_" gradientUnits="userSpaceOnUse" x1="138.4" y1="-704.7898" x2="138.4" y2="-599.3898" gradientTransform="matrix(1 0 0 -1 0 -585.8898)">
		<stop  offset="0" style="stop-color:#808285"/>
		<stop  offset="0.1313" style="stop-color:#4D4E50"/>
		<stop  offset="0.2039" style="stop-color:#424244"/>
		<stop  offset="0.338" style="stop-color:#808285"/>
		<stop  offset="0.4162" style="stop-color:#D1D3D4"/>
		<stop  offset="0.5168" style="stop-color:#A7A9AC"/>
		<stop  offset="0.662" style="stop-color:#F1F2F2"/>
		<stop  offset="0.8519" style="stop-color:#838587"/>
		<stop  offset="0.919" style="stop-color:#E6E7E8"/>
		<stop  offset="1" style="stop-color:#919396"/>
	</linearGradient>
	<polygon style="fill:url(#SVGID_00000000912107104519144440000015468508057695068835_);" points="133.7,13.5 138.3,21.2 
		143.1,110.9 139.6,118.9 	"/>
	
		<linearGradient id="SVGID_00000036249279820090735470000013301546593203521171_" gradientUnits="userSpaceOnUse" x1="-11331.9795" y1="160.1746" x2="-11331.9795" y2="54.8916" gradientTransform="matrix(-1 0 0 -1.06 -11255.6299 195.0169)">
		<stop  offset="6.983240e-02" style="stop-color:#6D6E71"/>
		<stop  offset="0.1536" style="stop-color:#939598"/>
		<stop  offset="0.2151" style="stop-color:#6D6E71"/>
		<stop  offset="0.3883" style="stop-color:#6D6E71"/>
		<stop  offset="0.4832" style="stop-color:#939598"/>
		<stop  offset="0.6844" style="stop-color:#BCBEC0"/>
		<stop  offset="0.7458" style="stop-color:#808285"/>
		<stop  offset="0.8073" style="stop-color:#B4B4B4"/>
		<stop  offset="0.9134" style="stop-color:#6D6E71"/>
		<stop  offset="1" style="stop-color:#939598"/>
	</linearGradient>
	<polygon style="fill:url(#SVGID_00000036249279820090735470000013301546593203521171_);" points="75.2,10.4 81,122 76.5,114.4 
		71.7,17.7 	"/>
	
		<linearGradient id="SVGID_00000106127649508613396120000014167302794710666646_" gradientUnits="userSpaceOnUse" x1="-11325.2803" y1="157.5354" x2="-11325.2803" y2="58.8562" gradientTransform="matrix(-1 0 0 -1.06 -11255.6299 195.0169)">
		<stop  offset="6.983240e-02" style="stop-color:#6D6E71"/>
		<stop  offset="0.1536" style="stop-color:#939598"/>
		<stop  offset="0.2151" style="stop-color:#6D6E71"/>
		<stop  offset="0.3883" style="stop-color:#6D6E71"/>
		<stop  offset="0.4832" style="stop-color:#939598"/>
		<stop  offset="0.6844" style="stop-color:#BCBEC0"/>
		<stop  offset="0.7458" style="stop-color:#808285"/>
		<stop  offset="0.8073" style="stop-color:#B4B4B4"/>
		<stop  offset="0.9134" style="stop-color:#6D6E71"/>
		<stop  offset="1" style="stop-color:#939598"/>
	</linearGradient>
	<polygon style="fill:url(#SVGID_00000106127649508613396120000014167302794710666646_);" points="66.5,17.7 68.3,13.6 72.8,118.2 
		66.5,114.4 	"/>
	
		<linearGradient id="SVGID_00000151523490676101844570000013002706353247136657_" gradientUnits="userSpaceOnUse" x1="-1327.8101" y1="-628.6121" x2="-1327.8101" y2="-525.7705" gradientTransform="matrix(1 0 0 1.06 1470.16 687.6031)">
		<stop  offset="6.983240e-02" style="stop-color:#6D6E71"/>
		<stop  offset="0.1536" style="stop-color:#939598"/>
		<stop  offset="0.2151" style="stop-color:#6D6E71"/>
		<stop  offset="0.3883" style="stop-color:#6D6E71"/>
		<stop  offset="0.4832" style="stop-color:#939598"/>
		<stop  offset="0.6844" style="stop-color:#BCBEC0"/>
		<stop  offset="0.7458" style="stop-color:#808285"/>
		<stop  offset="0.8073" style="stop-color:#B4B4B4"/>
		<stop  offset="0.9134" style="stop-color:#6D6E71"/>
		<stop  offset="1" style="stop-color:#939598"/>
	</linearGradient>
	<polygon style="fill:url(#SVGID_00000151523490676101844570000013002706353247136657_);" points="146.4,115.6 143.1,110.9 
		138.3,21.2 141.8,16 	"/>
	
		<linearGradient id="SVGID_00000017503869475873181710000012022460984453990329_" gradientUnits="userSpaceOnUse" x1="145" y1="-701.4897" x2="145" y2="-601.8898" gradientTransform="matrix(1 0 0 -1 0 -585.8898)">
		<stop  offset="0" style="stop-color:#808285"/>
		<stop  offset="0.1313" style="stop-color:#4D4E50"/>
		<stop  offset="0.2039" style="stop-color:#424244"/>
		<stop  offset="0.338" style="stop-color:#808285"/>
		<stop  offset="0.4162" style="stop-color:#D1D3D4"/>
		<stop  offset="0.5168" style="stop-color:#A7A9AC"/>
		<stop  offset="0.662" style="stop-color:#F1F2F2"/>
		<stop  offset="0.8519" style="stop-color:#838587"/>
		<stop  offset="0.919" style="stop-color:#E6E7E8"/>
		<stop  offset="1" style="stop-color:#919396"/>
	</linearGradient>
	<polygon style="fill:url(#SVGID_00000017503869475873181710000012022460984453990329_);" points="148.2,109.8 146.4,115.6 
		141.8,16 148.2,20.9 	"/>
</g>
<g>
	<g>
		<g>
			<defs>
				<polygon id="SVGID_00000095320011107375002340000014128271113060159894_" points="141.4,150.9 137.9,156.1 133.4,148.4 
					129.7,155.6 125.2,148.1 121.2,155.1 116.9,147.6 113.1,154.7 108.6,147.2 104.9,154.2 100.3,146.7 96.8,153.7 92.3,146.2 
					88.5,153.4 84,145.9 80,152.9 75.5,145.4 72,152.6 71.9,152.6 68.6,148.5 66.9,152.6 66.9,152.6 61,152.6 53,152.6 53,152.6 
					44.8,152.6 44.8,138.4 7.3,138.4 2.7,142.9 2.7,157.4 2.7,161.1 2.7,176.6 2.7,184.5 2.7,215.6 2.7,221.6 2.7,237.2 2.7,242.7 
					2.7,256.9 7.5,262.7 44.8,262.7 44.8,248.5 61.3,248.5 67,248.5 73.1,252.1 76.8,248.5 81.3,255.9 85.3,248 89.8,255.6 
					93.3,247.5 97.8,255.1 101.6,247 106.1,254.6 109.9,246.7 114.4,254.2 118.2,246.2 122.7,253.7 126.4,245.7 130.9,253.4 
					134.7,245.4 139.2,252.9 142.8,244.9 145.9,249.5 147.8,243.9 147.8,155.7 				"/>
			</defs>
			<clipPath id="SVGID_00000053545573258939201070000000322939588078439605_">
				<use xlink:href="#SVGID_00000095320011107375002340000014128271113060159894_"  style="overflow:visible;"/>
			</clipPath>
			<g style="clip-path:url(#SVGID_00000053545573258939201070000000322939588078439605_);">
				
					<image style="overflow:visible;enable-background:new    ;" width="1200" height="900" xlink:href="../../Фитинги/Резьбовые/Металл.jpg"  transform="matrix(0.18 0 0 0.18 -23.1915 118.6424)">
				</image>
			</g>
			
				<use xlink:href="#SVGID_00000095320011107375002340000014128271113060159894_"  style="overflow:visible;fill:none;stroke:#CCCCCC;stroke-miterlimit:10;"/>
		</g>
	</g>
</g>
<g>
	<g>
		<g>
			<g>
				<defs>
					<polygon id="SVGID_00000125562231677389713960000005956787278212090809_" points="141.8,151.3 138.3,156.5 133.8,148.8 
						130,156 125.4,148.4 121.4,155.5 117.1,147.9 113.3,155.2 108.7,147.6 104.9,154.7 100.4,147.1 96.8,154.2 92.3,146.6 
						88.5,153.8 83.9,146.3 79.9,153.3 75.3,145.8 71.8,153 71.7,153 68.4,148.9 66.6,153 66.6,153.1 60.8,153.1 52.8,153.1 
						52.8,153 44.4,153 44.4,138.7 6.6,138.7 2,143.3 2,157.8 2,161.6 2,177.2 2,185.2 2,216.5 2,222.6 2,238.3 2,243.9 2,258.1 
						6.8,264 44.4,264 44.4,249.7 61.1,249.7 66.8,249.7 73,253.3 76.7,249.7 81.1,257.1 85.2,249.2 89.7,256.8 93.3,248.7 
						97.8,256.3 101.6,248.2 106.2,255.8 110,247.9 114.5,255.4 118.3,247.4 122.9,254.9 126.7,246.9 131.2,254.6 135,246.5 
						139.6,254.1 143.1,246 146.4,250.7 148.2,245 148.2,156.2 					"/>
				</defs>
				<clipPath id="SVGID_00000166653312322875668300000007291888785277982863_">
					<use xlink:href="#SVGID_00000125562231677389713960000005956787278212090809_"  style="overflow:visible;"/>
				</clipPath>
				
					<g transform="matrix(1 0 0 1 -9.536743e-07 0)" style="clip-path:url(#SVGID_00000166653312322875668300000007291888785277982863_);">
					
						<image style="overflow:visible;enable-background:new    ;" width="1200" height="900" xlink:href="../../Фитинги/Резьбовые/Металл.jpg"  transform="matrix(0.144 0 0 0.144 -229.567 298.6585)">
					</image>
				</g>
			</g>
		</g>
	</g>
</g>
<polygon class="st26" points="141.4,151.2 137.9,156.4 133.4,148.7 129.6,155.9 125.1,148.4 121.1,155.4 116.8,147.9 113.1,155.1 
	108.6,147.6 104.8,154.6 100.3,147.1 96.8,154.1 92.3,146.6 88.5,153.7 84,146.2 80,153.2 75.4,145.7 71.9,152.9 71.8,152.9 
	68.6,148.9 66.8,152.9 66.8,153 61,153 53.1,153 53.1,153 44.8,153 44.8,138.7 7.2,138.7 2.7,143.3 2.7,157.7 2.7,161.4 2.7,177 
	2.7,184.8 2.7,215.9 2.7,222 2.7,237.5 2.7,243.1 2.7,257.2 7.4,263.1 44.8,263.1 44.8,248.8 61.3,248.8 67,248.8 73.1,252.5 
	76.8,248.8 81.2,256.2 85.2,248.4 89.7,255.9 93.3,247.9 97.8,255.4 101.5,247.4 106.1,254.9 109.8,247 114.3,254.6 118.1,246.5 
	122.6,254.1 126.4,246 130.9,253.7 134.7,245.7 139.2,253.2 142.7,245.2 146,249.9 147.7,244.2 147.7,156.1 "/>
<rect x="1.8" y="81.3" class="st27" width="6.2" height="27.4"/>
<linearGradient id="SVGID_00000071554285382362171380000011503169113820647594_" gradientUnits="userSpaceOnUse" x1="23.05" y1="2162.645" x2="23.05" y2="2100.145" gradientTransform="matrix(1 0 0 1 0 -2064.9448)">
	<stop  offset="0" style="stop-color:#909294"/>
	<stop  offset="0.1983" style="stop-color:#6E7072"/>
	<stop  offset="0.433" style="stop-color:#919396"/>
	<stop  offset="0.6732" style="stop-color:#E3E4E5"/>
	<stop  offset="1" style="stop-color:#919396"/>
</linearGradient>
<polygon style="fill:url(#SVGID_00000071554285382362171380000011503169113820647594_);" points="6.6,35.2 1.8,42 1.8,87.4 
	6.6,97.7 39.4,97.7 44.3,87.4 44.3,42 39.1,35.2 "/>
<rect x="38.1" y="81.3" class="st27" width="6.2" height="27.4"/>
<linearGradient id="SVGID_00000013909875043607854830000001606935473468925325_" gradientUnits="userSpaceOnUse" x1="44" y1="2130.9451" x2="52.754" y2="2130.9451" gradientTransform="matrix(1 0 0 1 0 -2064.9448)">
	<stop  offset="0" style="stop-color:#3F3B3C"/>
	<stop  offset="0.1413" style="stop-color:#3F3B3C;stop-opacity:0.8587"/>
	<stop  offset="1" style="stop-color:#3F3B3C;stop-opacity:0"/>
</linearGradient>
<polygon style="opacity:0.5;fill:url(#SVGID_00000013909875043607854830000001606935473468925325_);enable-background:new    ;" points="
	52.6,17.7 44,17.7 44,114.3 52.8,114.3 "/>
<g>
	
		<linearGradient id="SVGID_00000111174352721712681490000017545909314742521216_" gradientUnits="userSpaceOnUse" x1="81.3" y1="-1663.5552" x2="81.3" y2="-1697.6552" gradientTransform="matrix(1 0 0 -1 0 -1479.0552)">
		<stop  offset="0" style="stop-color:#4D4E50"/>
		<stop  offset="0.3101" style="stop-color:#424244"/>
		<stop  offset="0.433" style="stop-color:#666769"/>
		<stop  offset="0.5" style="stop-color:#808285"/>
		<stop  offset="0.6732" style="stop-color:#BCBEC0"/>
		<stop  offset="0.7682" style="stop-color:#6D6E71"/>
		<stop  offset="0.8799" style="stop-color:#414042"/>
	</linearGradient>
	
		<rect x="17.8" y="184.5" style="fill:url(#SVGID_00000111174352721712681490000017545909314742521216_);" width="127" height="34.1"/>
	
		<linearGradient id="SVGID_00000124122333820136120220000013905316195356295568_" gradientUnits="userSpaceOnUse" x1="146.4" y1="-1613.0552" x2="146.4" y2="-1651.7026" gradientTransform="matrix(1 0 0 -1 0 -1431.0552)">
		<stop  offset="0" style="stop-color:#4D4E50"/>
		<stop  offset="0.3101" style="stop-color:#424244"/>
		<stop  offset="0.433" style="stop-color:#666769"/>
		<stop  offset="0.5" style="stop-color:#808285"/>
		<stop  offset="0.6732" style="stop-color:#BCBEC0"/>
		<stop  offset="0.7682" style="stop-color:#6D6E71"/>
		<stop  offset="0.8799" style="stop-color:#414042"/>
	</linearGradient>
	<polygon style="fill:url(#SVGID_00000124122333820136120220000013905316195356295568_);" points="147.9,182 144.9,184.5 
		144.9,218.6 147.9,220.6 	"/>
	
		<linearGradient id="SVGID_00000144338920431491682310000004014461488535078796_" gradientUnits="userSpaceOnUse" x1="16.9" y1="-1614.2012" x2="16.9" y2="-1650.5516" gradientTransform="matrix(1 0 0 -1 0 -1431.0552)">
		<stop  offset="0" style="stop-color:#4D4E50"/>
		<stop  offset="0.3101" style="stop-color:#424244"/>
		<stop  offset="0.433" style="stop-color:#666769"/>
		<stop  offset="0.5" style="stop-color:#808285"/>
		<stop  offset="0.6732" style="stop-color:#BCBEC0"/>
		<stop  offset="0.7682" style="stop-color:#6D6E71"/>
		<stop  offset="0.8799" style="stop-color:#414042"/>
	</linearGradient>
	<polygon style="fill:url(#SVGID_00000144338920431491682310000004014461488535078796_);" points="17.8,184.5 16,183.2 16,219.5 
		17.8,218.6 	"/>
	<path class="st33" d="M11.6,173.6H6.7L2,175.9V227l5.1,2.1c1.3,0.1,2.6,0.3,3.9,0.4C11.2,210.9,11.4,192.2,11.6,173.6z"/>
	<path id="XMLID_1_" class="st34" d="M11.6,229.5h-0.5c-2.4,0-4.3-1.3-4.3-2.8v-50.2c0-1.5,2-2.8,4.3-2.8h0.5c2.4,0,4.3,1.3,4.3,2.8
		v50.2C16,228.3,14,229.5,11.6,229.5z"/>
	<path class="st35" d="M11.8,229.5h-0.7c-1.1,0-2-0.6-2-1.3V175c0-0.7,0.9-1.3,2-1.3h0.7c1.1,0,2,0.6,2,1.3v53.2
		C13.9,229,12.9,229.5,11.8,229.5z"/>
	<path class="st35" d="M2,171.3c1.6,0.8,3.2,1.6,4.8,2.3c-1.6,0.8-3.2,1.5-4.8,2.2V171.3z"/>
	<polygon class="st35" points="2,231.4 7.3,229.1 2,226.9 	"/>
	<path class="st36" d="M9.6,174.1l4.3,2.6l-4.7,3.2l4.7,3.3l-4.7,3.7l4.7,4.2l-4.7,3.4c1.6,1.1,3.2,2.3,4.7,3.5
		c-1.7,0.9-3.4,1.8-5,2.6c1.7,1.4,3.4,2.8,5,4.2l-4.7,2.6l4.7,4.5l-4.7,2.6l4.7,3.1l-4.7,3.7l4.7,2.4l-4.7,4.6c1.3,0.3,2.7,0.7,4,1"
		/>
	<path class="st36" d="M13.2,174.1l-4.3,2.5l4.7,3.2l-4.7,3.4l4.7,3.7L8.9,191l4.7,3.4c-1.8,1.1-3.6,2.2-5.3,3.4
		c1.8,0.8,3.5,1.6,5.2,2.4c-1.6,1.4-3.1,2.9-4.6,4.5l4.7,2.6l-4.7,4.5l4.7,2.6l-4.7,3.1l4.7,3.7l-4.7,2.5l4.7,4.6l-4,1"/>
	<line class="st37" x1="7.7" y1="174.7" x2="16" y2="179.4"/>
	<line class="st37" x1="6.6" y1="177.5" x2="16" y2="182.6"/>
	<line class="st37" x1="6.6" y1="180.8" x2="16" y2="185.8"/>
	<line class="st37" x1="6.6" y1="184.2" x2="16" y2="189.3"/>
	<line class="st37" x1="6.6" y1="187.5" x2="16" y2="192.6"/>
	<line class="st37" x1="6.6" y1="190.8" x2="16" y2="195.9"/>
	<line class="st37" x1="6.6" y1="194.2" x2="16" y2="199.3"/>
	<line class="st37" x1="6.6" y1="197.4" x2="16" y2="202.5"/>
	<line class="st37" x1="6.6" y1="200.9" x2="16" y2="206"/>
	<line class="st37" x1="6.6" y1="204.1" x2="16" y2="209.2"/>
	<line class="st37" x1="6.6" y1="207.5" x2="16" y2="212.6"/>
	<line class="st37" x1="6.6" y1="210.9" x2="16" y2="215.9"/>
	<line class="st37" x1="6.6" y1="214.1" x2="16" y2="219.2"/>
	<line class="st37" x1="6.6" y1="217.5" x2="16" y2="222.6"/>
	<line class="st37" x1="6.6" y1="221.1" x2="16" y2="226.2"/>
	<line class="st37" x1="6.6" y1="224.4" x2="14.6" y2="228.8"/>
</g>
<rect x="1.8" y="22.5" class="st38" width="6.2" height="27.4"/>
<rect x="38.1" y="22.5" class="st39" width="6.2" height="27.4"/>
<polygon class="st40" points="6.6,34.8 1.8,41.7 1.8,87.3 6.6,97.7 39.4,97.7 44.3,87.3 44.3,41.7 39.1,34.8 "/>
<linearGradient id="SVGID_00000163048218230479320690000006541066655873488059_" gradientUnits="userSpaceOnUse" x1="23.05" y1="2100.1055" x2="23.05" y2="2068.3057" gradientTransform="matrix(1 0 0 1 0 -2064.9448)">
	<stop  offset="0" style="stop-color:#F4F4F4"/>
	<stop  offset="1" style="stop-color:#BABABA"/>
</linearGradient>
<polygon style="fill:url(#SVGID_00000163048218230479320690000006541066655873488059_);" points="6.4,3.4 1.8,8 1.8,26.3 6.6,35.2 
	39.1,35.2 44.3,26.3 44.3,3.4 "/>
<linearGradient id="SVGID_00000083055244510941882070000016134746668563757757_" gradientUnits="userSpaceOnUse" x1="23.05" y1="2162.645" x2="23.05" y2="2193.8135" gradientTransform="matrix(1 0 0 1 0 -2064.9448)">
	<stop  offset="0" style="stop-color:#5A5758"/>
	<stop  offset="1" style="stop-color:#838587"/>
</linearGradient>
<polygon style="fill:url(#SVGID_00000083055244510941882070000016134746668563757757_);" points="44.3,128.9 44.3,102.8 39.4,97.7 
	6.6,97.7 1.8,103.1 1.8,123 6.6,128.9 "/>
<image style="overflow:visible;" width="200" height="200" xlink:href="../../pepsi.png"  transform="matrix(0.1176 0 0 0.1176 11.1608 54.5608)">
</image>
</svg>
