<?xml version="1.0" encoding="utf-8"?>
<!-- Generator: Adobe Illustrator 25.4.1, SVG Export Plug-In . SVG Version: 6.00 Build 0)  -->
<svg version="1.1" id="Слой_1" xmlns="http://www.w3.org/2000/svg" xmlns:xlink="http://www.w3.org/1999/xlink" x="0px" y="0px"
	 viewBox="0 0 200 320" style="enable-background:new 0 0 200 320;" xml:space="preserve">
<style type="text/css">
	.st0{fill:url(#SVGID_1_);}
	.st1{fill:url(#SVGID_00000119820667834838108660000001718055672173740199_);}
	.st2{fill:url(#SVGID_00000065071124815636856150000014295128595499008703_);}
	.st3{fill:url(#SVGID_00000065781093056136713300000003618712835129809308_);}
	.st4{fill:url(#SVGID_00000039817112421812464010000017875143200812841403_);}
	.st5{fill:url(#SVGID_00000103985783819123928150000009137544449244441778_);}
	.st6{fill:url(#SVGID_00000095310125377272361690000013877315464475584667_);}
	.st7{fill:url(#SVGID_00000063602556500446903980000008700013903041568696_);}
	.st8{fill:url(#SVGID_00000110433918189795494060000013005642158495541909_);}
	.st9{fill:url(#SVGID_00000015355794231838648980000013041549097597695926_);}
	.st10{fill:url(#SVGID_00000074442960119297745780000011900680578364692619_);}
	.st11{fill:url(#SVGID_00000081633293660600965580000017924581335000172939_);}
	.st12{fill:url(#SVGID_00000039827539151404260010000017063794487299102379_);}
	.st13{fill:none;stroke:url(#SVGID_00000106830018603343288640000005934130069224205477_);stroke-miterlimit:10;}
	.st14{fill:url(#SVGID_00000071556941521172033450000004888997384752621239_);}
	.st15{fill:url(#SVGID_00000015326452142952849090000016740236662748309379_);}
	.st16{fill:none;stroke:url(#SVGID_00000097476371845484472070000012640776348600708249_);stroke-miterlimit:10;}
	.st17{fill:url(#SVGID_00000114794827664898881010000002308652993016171664_);}
	.st18{fill:url(#SVGID_00000150816675926956165950000014508350772325527446_);}
	.st19{fill:url(#SVGID_00000009578215599320635930000011548556472529794994_);}
	.st20{fill:url(#SVGID_00000033364467334685708460000018121608818086775978_);}
	.st21{fill:url(#SVGID_00000013900522996776440790000009021787019351786881_);}
	.st22{fill:url(#SVGID_00000100345995250126462450000008208864485911114384_);}
	.st23{fill:url(#SVGID_00000158734923068413297290000012783630953124042369_);}
	.st24{fill:url(#SVGID_00000111912226719271694870000000138418950627539587_);}
	.st25{fill:url(#SVGID_00000133491067167021354510000004233670981979552184_);}
	.st26{fill:url(#SVGID_00000163771036120881379770000000506785714073580189_);}
	.st27{fill:url(#SVGID_00000097493070540765782470000008097171670942847931_);}
	.st28{fill:url(#SVGID_00000122685909054620417700000000524741067650012090_);}
	.st29{fill:url(#SVGID_00000103963793965659832170000004063014029138120103_);}
	.st30{fill:url(#SVGID_00000013890822516684798930000013732461996842698887_);}
	.st31{fill:url(#SVGID_00000039117310268573737320000011925590962068959365_);}
	.st32{fill:url(#SVGID_00000158729374915846680340000011981639397587883450_);}
	.st33{fill:url(#SVGID_00000104694553291617737950000006028224999110321323_);}
	.st34{fill:url(#SVGID_00000111187339232562258460000009118775312043273632_);}
	.st35{fill:url(#SVGID_00000178193105022659168580000015463076526442427574_);}
	.st36{clip-path:url(#SVGID_00000103231423899948635500000017001194735832139148_);}
	.st37{fill:url(#SVGID_00000026861840137522073910000006682966725436561307_);}
	.st38{fill:none;stroke:#D5D5D5;stroke-miterlimit:10;}
	.st39{fill:#383838;}
	.st40{fill:url(#SVGID_00000043422294672904754260000005180905244478048921_);}
	.st41{fill:url(#SVGID_00000081609716886504638470000004917253853439473061_);}
	.st42{fill:url(#SVGID_00000015346751086513930170000016677580301310710957_);}
	.st43{fill:url(#SVGID_00000045603859390678546490000014531658441523897781_);}
	.st44{fill:url(#SVGID_00000008864625232483658230000004386192159161774466_);}
	.st45{fill:url(#SVGID_00000175292842714169739870000002181908139490612624_);}
	.st46{fill:url(#SVGID_00000168823401391200115820000015341066088606909586_);}
</style>
<linearGradient id="SVGID_1_" gradientUnits="userSpaceOnUse" x1="35.9443" y1="-44.9224" x2="138.3809" y2="-7.3082" gradientTransform="matrix(1 0 0 -1 0 36.7244)">
	<stop  offset="0" style="stop-color:#919396"/>
	<stop  offset="0.3883" style="stop-color:#D1D3D4"/>
	<stop  offset="0.6788" style="stop-color:#BCBEC0"/>
	<stop  offset="1" style="stop-color:#919396"/>
</linearGradient>
<path class="st0" d="M132.2,27.2H56.8l0,0c-5.3,0-9.6,4.3-9.6,9.6v0.1l0,0v75.4h34.4V70.4c0.4-1.4,1.2-3.7,3.2-5.6
	c2.3-2.3,4.8-3.1,5.9-3.4h41.5V27.2z"/>
<linearGradient id="SVGID_00000067228621086987247320000007124210709634229922_" gradientUnits="userSpaceOnUse" x1="41.6087" y1="4.1316" x2="123.3722" y2="-59.0421" gradientTransform="matrix(1 0 0 -1 0 36.7244)">
	<stop  offset="0" style="stop-color:#58595B;stop-opacity:0"/>
	<stop  offset="1" style="stop-color:#FFFFFF"/>
</linearGradient>
<path style="fill:url(#SVGID_00000067228621086987247320000007124210709634229922_);" d="M132.2,27.2H56.8l0,0
	c-5.3,0-9.6,4.3-9.6,9.6v0.1l0,0v75.4h34.4V70.4c0.4-1.4,1.2-3.7,3.2-5.6c2.3-2.3,4.8-3.1,5.9-3.4h41.5V27.2z"/>
<linearGradient id="SVGID_00000113323335745374117560000003020480083381438093_" gradientUnits="userSpaceOnUse" x1="79.8516" y1="-59.2009" x2="110.0993" y2="-36.7252" gradientTransform="matrix(1 0 0 -1 0 36.7244)">
	<stop  offset="0.1201" style="stop-color:#686566"/>
	<stop  offset="0.1983" style="stop-color:#6E7072"/>
	<stop  offset="0.433" style="stop-color:#919396"/>
	<stop  offset="0.6732" style="stop-color:#E6E7E8"/>
	<stop  offset="0.8966" style="stop-color:#9F9D9D"/>
	<stop  offset="1" style="stop-color:#919396"/>
</linearGradient>
<path style="fill:url(#SVGID_00000113323335745374117560000003020480083381438093_);" d="M97.2,110.6V89.4c0.2-1.2,0.9-4.9,4.2-8
	c2.4-2.1,4.9-3,6.2-3.3c8.2,0,16.4,0,24.5,0V61.5H90.7c-1.1,0.3-3.3,1-5.3,2.8c-2.6,2.4-3.5,5.1-3.8,6.2c0,13.4,0,26.8,0,40.2
	L97.2,110.6L97.2,110.6z"/>
<linearGradient id="SVGID_00000065065741833507415990000016346757211267594894_" gradientUnits="userSpaceOnUse" x1="100.276" y1="-14.04" x2="107.8379" y2="-54.6855" gradientTransform="matrix(1 0 0 -1 0 36.7244)">
	<stop  offset="0" style="stop-color:#58595B"/>
	<stop  offset="1" style="stop-color:#FFFFFF;stop-opacity:0"/>
</linearGradient>
<path style="fill:url(#SVGID_00000065065741833507415990000016346757211267594894_);" d="M97.2,110.6V89.4c0.2-1.2,0.9-4.9,4.2-8
	c2.4-2.1,4.9-3,6.2-3.3c8.2,0,16.4,0,24.5,0V61.5H90.7c-1.1,0.3-3.3,1-5.3,2.8c-2.6,2.4-3.5,5.1-3.8,6.2c0,13.4,0,26.8,0,40.2
	L97.2,110.6L97.2,110.6z"/>
<linearGradient id="SVGID_00000008847712562297908960000001430620497362055297_" gradientUnits="userSpaceOnUse" x1="11.547" y1="-71.7419" x2="91.4771" y2="17.8862" gradientTransform="matrix(1 0 0 -1 0 36.7244)">
	<stop  offset="0.1201" style="stop-color:#686566"/>
	<stop  offset="0.2877" style="stop-color:#9F9D9D"/>
	<stop  offset="0.433" style="stop-color:#919396"/>
	<stop  offset="0.7793" style="stop-color:#E4E3E3"/>
	<stop  offset="1" style="stop-color:#919396"/>
</linearGradient>
<path style="fill:url(#SVGID_00000008847712562297908960000001430620497362055297_);" d="M132.2,10v17H56.8c-0.7,0-4.8,0.4-7.6,3.9
	c-1.7,2.4-1.9,4.7-2,5.7c0,24.9,0,49.5,0,74.4H30.9V38.1C32,34.7,35.7,25,45.8,17.6c10.8-7.9,22.1-8.2,25.7-8.1
	C91.7,9.7,112,9.8,132.2,10z"/>
<radialGradient id="SVGID_00000082326775593693239880000005610772804147641020_" cx="169.2462" cy="561.4587" r="58.5809" gradientTransform="matrix(0.8906 0.4487 0.5398 -1.0427 -372.2708 569.6879)" gradientUnits="userSpaceOnUse">
	<stop  offset="0" style="stop-color:#FFFFFF"/>
	<stop  offset="0.1813" style="stop-color:#FCFCFC;stop-opacity:0.8187"/>
	<stop  offset="0.3364" style="stop-color:#F1F1F1;stop-opacity:0.6636"/>
	<stop  offset="0.482" style="stop-color:#DFE0E0;stop-opacity:0.518"/>
	<stop  offset="0.6217" style="stop-color:#C7C7C8;stop-opacity:0.3783"/>
	<stop  offset="0.7574" style="stop-color:#A6A7A8;stop-opacity:0.2426"/>
	<stop  offset="0.888" style="stop-color:#808082;stop-opacity:0.112"/>
	<stop  offset="1" style="stop-color:#58595B;stop-opacity:0"/>
</radialGradient>
<path style="fill:url(#SVGID_00000082326775593693239880000005610772804147641020_);" d="M132.2,10v17H56.8c-0.7,0-4.8,0.4-7.6,3.9
	c-1.7,2.4-1.9,4.7-2,5.7c0,24.9,0,49.5,0,74.4H30.9V38.1C32,34.7,35.7,25,45.8,17.6c10.8-7.9,22.1-8.2,25.7-8.1
	C91.7,9.7,112,9.8,132.2,10z"/>
<linearGradient id="SVGID_00000142877119378730477330000012062081925349754763_" gradientUnits="userSpaceOnUse" x1="38.2064" y1="-35.4033" x2="98.716" y2="23.8543" gradientTransform="matrix(1 0 0 -1 0 36.7244)">
	<stop  offset="0" style="stop-color:#58595B;stop-opacity:0"/>
	<stop  offset="0.4749" style="stop-color:#FFFFFF"/>
	<stop  offset="0.5701" style="stop-color:#FCFCFC;stop-opacity:0.8187"/>
	<stop  offset="0.6515" style="stop-color:#F1F1F1;stop-opacity:0.6636"/>
	<stop  offset="0.728" style="stop-color:#DFE0E0;stop-opacity:0.518"/>
	<stop  offset="0.8014" style="stop-color:#C7C7C8;stop-opacity:0.3783"/>
	<stop  offset="0.8726" style="stop-color:#A6A7A8;stop-opacity:0.2426"/>
	<stop  offset="0.9412" style="stop-color:#808082;stop-opacity:0.112"/>
	<stop  offset="1" style="stop-color:#58595B;stop-opacity:0"/>
</linearGradient>
<path style="fill:url(#SVGID_00000142877119378730477330000012062081925349754763_);" d="M132.2,10v17H56.8c-0.7,0-4.8,0.4-7.6,3.9
	c-1.7,2.4-1.9,4.7-2,5.7c0,24.9,0,49.5,0,74.4H30.9V38.1C32,34.7,35.7,25,45.8,17.6c10.8-7.9,22.1-8.2,25.7-8.1
	C91.7,9.7,112,9.8,132.2,10z"/>
<linearGradient id="SVGID_00000008131260117686455500000008774841995223234742_" gradientUnits="userSpaceOnUse" x1="77.3316" y1="-19.963" x2="-3.231" y2="51.998" gradientTransform="matrix(1 0 0 -1 0 36.7244)">
	<stop  offset="0" style="stop-color:#808285;stop-opacity:0"/>
	<stop  offset="0.6088" style="stop-color:#808285;stop-opacity:0.8587"/>
	<stop  offset="0.7091" style="stop-color:#808285"/>
</linearGradient>
<path style="fill:url(#SVGID_00000008131260117686455500000008774841995223234742_);" d="M132.2,10v17H56.9c-0.7,0-4.8,0.4-7.6,3.9
	c-1.7,2.4-1.9,4.7-2,5.7c0,24.9,0,49.5,0,74.4H31V38.1c1.1-3.5,4.8-13.1,14.9-20.5C56.7,9.7,68,9.4,71.6,9.5
	C91.7,9.7,112,9.8,132.2,10z"/>
<linearGradient id="SVGID_00000176730753463857636920000012252722428604362420_" gradientUnits="userSpaceOnUse" x1="100.2453" y1="-77.0904" x2="77.1069" y2="-47.7731" gradientTransform="matrix(1 0 0 -1 0 36.7244)">
	<stop  offset="0" style="stop-color:#414042"/>
	<stop  offset="0.1573" style="stop-color:#4E4D50;stop-opacity:0.7291"/>
	<stop  offset="0.4509" style="stop-color:#6F7073;stop-opacity:0.2231"/>
	<stop  offset="0.5804" style="stop-color:#808285;stop-opacity:0"/>
</linearGradient>
<rect x="81.7" y="89.7" style="fill:url(#SVGID_00000176730753463857636920000012252722428604362420_);" width="15.6" height="21"/>
<linearGradient id="SVGID_00000166677315965974627940000015760159105791093141_" gradientUnits="userSpaceOnUse" x1="1905.5996" y1="3694.6526" x2="1891.2336" y2="3730.0393" gradientTransform="matrix(6.123234e-17 -1 -1 -6.123234e-17 3832.4797 1968.8728)">
	<stop  offset="0" style="stop-color:#414042"/>
	<stop  offset="0.1513" style="stop-color:#444446;stop-opacity:0.7394"/>
	<stop  offset="0.288" style="stop-color:#4F4E51;stop-opacity:0.5038"/>
	<stop  offset="0.4191" style="stop-color:#606063;stop-opacity:0.2779"/>
	<stop  offset="0.5461" style="stop-color:#787A7D;stop-opacity:5.918652e-02"/>
	<stop  offset="0.5804" style="stop-color:#808285;stop-opacity:0"/>
</linearGradient>
<polygon style="fill:url(#SVGID_00000166677315965974627940000015760159105791093141_);" points="132.2,61.5 132.2,78.1 111.3,78.1 
	111.3,61.5 "/>
<linearGradient id="SVGID_00000045614600359439429440000002079323293906935170_" gradientUnits="userSpaceOnUse" x1="149.2403" y1="25.9502" x2="106.3893" y2="14.4496" gradientTransform="matrix(1 0 0 -1 0 36.7244)">
	<stop  offset="0" style="stop-color:#414042"/>
	<stop  offset="0.1513" style="stop-color:#444446;stop-opacity:0.7394"/>
	<stop  offset="0.288" style="stop-color:#4F4E51;stop-opacity:0.5038"/>
	<stop  offset="0.4191" style="stop-color:#606063;stop-opacity:0.2779"/>
	<stop  offset="0.5461" style="stop-color:#787A7D;stop-opacity:5.918652e-02"/>
	<stop  offset="0.5804" style="stop-color:#808285;stop-opacity:0"/>
</linearGradient>
<polygon style="fill:url(#SVGID_00000045614600359439429440000002079323293906935170_);" points="132.2,10.5 132.2,27.2 106.1,27.2 
	106.1,10.5 "/>
<linearGradient id="SVGID_00000031207932869851563030000000128383686897175958_" gradientUnits="userSpaceOnUse" x1="3835.999" y1="-1834.4286" x2="3743.4775" y2="-1859.26" gradientTransform="matrix(6.123234e-17 1 1 -6.123234e-17 1890.9883 -3691.1807)">
	<stop  offset="0" style="stop-color:#414042"/>
	<stop  offset="0.1513" style="stop-color:#444446;stop-opacity:0.7394"/>
	<stop  offset="0.288" style="stop-color:#4F4E51;stop-opacity:0.5038"/>
	<stop  offset="0.4191" style="stop-color:#606063;stop-opacity:0.2779"/>
	<stop  offset="0.5461" style="stop-color:#787A7D;stop-opacity:5.918652e-02"/>
	<stop  offset="0.5804" style="stop-color:#808285;stop-opacity:0"/>
</linearGradient>
<rect x="30.9" y="49.2" style="fill:url(#SVGID_00000031207932869851563030000000128383686897175958_);" width="16.5" height="61.5"/>
<linearGradient id="SVGID_00000157276835017027473170000017150959191944019855_" gradientUnits="userSpaceOnUse" x1="152.35" y1="-43.2756" x2="152.35" y2="28.8254" gradientTransform="matrix(1 0 0 -1 0 36.7244)">
	<stop  offset="0" style="stop-color:#999898"/>
	<stop  offset="0.1963" style="stop-color:#4F4F4F"/>
	<stop  offset="0.2507" style="stop-color:#5B5B5B"/>
	<stop  offset="0.3499" style="stop-color:#7C7C7C"/>
	<stop  offset="0.3704" style="stop-color:#848484"/>
	<stop  offset="0.433" style="stop-color:#878787"/>
	<stop  offset="0.5974" style="stop-color:#D9D9D9"/>
	<stop  offset="0.6843" style="stop-color:#FFFFFF"/>
	<stop  offset="0.9078" style="stop-color:#B7B7B7"/>
	<stop  offset="1" style="stop-color:#C6C6C6"/>
</linearGradient>
<path style="fill:url(#SVGID_00000157276835017027473170000017150959191944019855_);" d="M170.3,80h-36.7l-1.5-1.8V10l2.3-2.1
	c0,0,23.9,0,35.9-0.1c0.7,0.7,1.4,1.4,2.3,2.1v68L170.3,80z"/>
<linearGradient id="SVGID_00000016033902715498693010000014600189805834388634_" gradientUnits="userSpaceOnUse" x1="121.5539" y1="-13.3767" x2="70.7447" y2="-63.3706" gradientTransform="matrix(1 0 0 -1 0 36.7244)">
	<stop  offset="0.1201" style="stop-color:#686566"/>
	<stop  offset="0.2877" style="stop-color:#9F9D9D"/>
	<stop  offset="0.433" style="stop-color:#919396"/>
	<stop  offset="0.6732" style="stop-color:#FFFFFF"/>
	<stop  offset="0.7793" style="stop-color:#E4E3E3"/>
	<stop  offset="1" style="stop-color:#919396"/>
</linearGradient>
<path style="fill:none;stroke:url(#SVGID_00000016033902715498693010000014600189805834388634_);stroke-miterlimit:10;" d="
	M81.7,110.6V70.5c0.3-1.2,1.3-4.4,4.4-6.9c1.7-1.3,3.5-1.9,4.6-2.3c13.8,0,27.7,0,41.5,0"/>
<linearGradient id="SVGID_00000088826222056558981280000018060656744820349602_" gradientUnits="userSpaceOnUse" x1="39.5" y1="1012.4244" x2="87.0631" y2="1012.4244" gradientTransform="matrix(1 0 0 1 0 -698.7244)">
	<stop  offset="0" style="stop-color:#4D4E50"/>
	<stop  offset="0" style="stop-color:#414042"/>
	<stop  offset="0.6676" style="stop-color:#808285"/>
	<stop  offset="0.9078" style="stop-color:#414042"/>
</linearGradient>
<polygon style="fill:url(#SVGID_00000088826222056558981280000018060656744820349602_);" points="39.5,315 41,312.4 85.2,312.4 
	87,315 "/>
<linearGradient id="SVGID_00000091012738058545303260000008336211779187621550_" gradientUnits="userSpaceOnUse" x1="-1683.2341" y1="1720.5583" x2="-1635.6711" y2="1720.5583" gradientTransform="matrix(6.123234e-17 -1 1 6.123234e-17 -1550.6584 -1456.5341)">
	<stop  offset="0" style="stop-color:#4D4E50"/>
	<stop  offset="0" style="stop-color:#414042"/>
	<stop  offset="0.6676" style="stop-color:#808285"/>
	<stop  offset="0.9078" style="stop-color:#414042"/>
</linearGradient>
<polygon style="fill:url(#SVGID_00000091012738058545303260000008336211779187621550_);" points="171.2,226.7 168.6,225.2 
	168.6,181 171.2,179.2 "/>
<linearGradient id="SVGID_00000133494880268071071590000007985401978728599170_" gradientUnits="userSpaceOnUse" x1="44.8249" y1="-71.593" x2="102.01" y2="27.4546" gradientTransform="matrix(1 0 0 -1 0 36.7244)">
	<stop  offset="0.1201" style="stop-color:#686566"/>
	<stop  offset="0.2877" style="stop-color:#9F9D9D"/>
	<stop  offset="0.433" style="stop-color:#919396"/>
	<stop  offset="0.6732" style="stop-color:#FFFFFF"/>
	<stop  offset="0.7793" style="stop-color:#E4E3E3"/>
	<stop  offset="1" style="stop-color:#919396"/>
</linearGradient>
<path style="fill:none;stroke:url(#SVGID_00000133494880268071071590000007985401978728599170_);stroke-miterlimit:10;" d="
	M132.2,27.2H56.8c-0.7,0-4.9,0.4-7.6,4c-1.8,2.3-2,4.8-2,5.8c0,24.1,0,48.3,0,72.4"/>
<linearGradient id="SVGID_00000023281785207724879120000014371181211495002539_" gradientUnits="userSpaceOnUse" x1="283.3" y1="-1607.4104" x2="283.3" y2="-1607.4104" gradientTransform="matrix(1 0 0 -1 0 -1472.1104)">
	<stop  offset="0" style="stop-color:#58595B"/>
	<stop  offset="1" style="stop-color:#FFFFFF;stop-opacity:0"/>
</linearGradient>
<path style="fill:url(#SVGID_00000023281785207724879120000014371181211495002539_);" d="M283.3,135.3"/>
<g>
	<g>
		
			<linearGradient id="SVGID_00000051342849047515074430000016995498331806877331_" gradientUnits="userSpaceOnUse" x1="-2335.5886" y1="-1957.7324" x2="-2335.5886" y2="-1957.7324" gradientTransform="matrix(1 0 0 -1 2431.3887 -1846.5325)">
			<stop  offset="0" style="stop-color:#58595B"/>
			<stop  offset="1" style="stop-color:#FFFFFF;stop-opacity:0"/>
		</linearGradient>
		<path style="fill:url(#SVGID_00000051342849047515074430000016995498331806877331_);" d="M95.8,111.2"/>
		
			<linearGradient id="SVGID_00000161589931436618789480000018108729343959582121_" gradientUnits="userSpaceOnUse" x1="-3085.4888" y1="1769.5465" x2="-3085.4888" y2="1769.5465" gradientTransform="matrix(1 0 0 1 3181.3887 -1657.1465)">
			<stop  offset="0" style="stop-color:#58595B"/>
			<stop  offset="1" style="stop-color:#FFFFFF;stop-opacity:0"/>
		</linearGradient>
		<path style="fill:url(#SVGID_00000161589931436618789480000018108729343959582121_);" d="M95.9,112.4"/>
		
			<linearGradient id="SVGID_00000027572947107851208940000008542076635899199397_" gradientUnits="userSpaceOnUse" x1="-590.9011" y1="-796.1588" x2="-590.9011" y2="-860.4588" gradientTransform="matrix(6.123234e-17 1 -1 6.123234e-17 -764.2588 732.9511)">
			<stop  offset="0" style="stop-color:#808285"/>
			<stop  offset="0.1313" style="stop-color:#4D4E50"/>
			<stop  offset="0.2039" style="stop-color:#424244"/>
			<stop  offset="0.338" style="stop-color:#808285"/>
			<stop  offset="0.4162" style="stop-color:#D1D3D4"/>
			<stop  offset="0.5168" style="stop-color:#A7A9AC"/>
			<stop  offset="0.662" style="stop-color:#F1F2F2"/>
			<stop  offset="0.8519" style="stop-color:#838587"/>
			<stop  offset="0.919" style="stop-color:#E6E7E8"/>
			<stop  offset="1" style="stop-color:#919396"/>
		</linearGradient>
		<polygon style="fill:url(#SVGID_00000027572947107851208940000008542076635899199397_);" points="96.2,138.9 91.8,141.9 
			36.6,145.2 31.9,142.7 		"/>
		
			<linearGradient id="SVGID_00000134218185888064156930000005482185972270593433_" gradientUnits="userSpaceOnUse" x1="-596.4011" y1="-795.8588" x2="-596.4011" y2="-860.7588" gradientTransform="matrix(6.123234e-17 1 -1 6.123234e-17 -764.2588 732.9511)">
			<stop  offset="0" style="stop-color:#808285"/>
			<stop  offset="0.1313" style="stop-color:#4D4E50"/>
			<stop  offset="0.2039" style="stop-color:#424244"/>
			<stop  offset="0.338" style="stop-color:#808285"/>
			<stop  offset="0.4162" style="stop-color:#D1D3D4"/>
			<stop  offset="0.5168" style="stop-color:#A7A9AC"/>
			<stop  offset="0.662" style="stop-color:#F1F2F2"/>
			<stop  offset="0.8519" style="stop-color:#838587"/>
			<stop  offset="0.919" style="stop-color:#E6E7E8"/>
			<stop  offset="1" style="stop-color:#919396"/>
		</linearGradient>
		<polygon style="fill:url(#SVGID_00000134218185888064156930000005482185972270593433_);" points="96.5,133.4 92.1,136.4 
			36.3,139.7 31.6,137 		"/>
		
			<linearGradient id="SVGID_00000083080909686543307140000012782453599584509845_" gradientUnits="userSpaceOnUse" x1="-601.9011" y1="-795.6588" x2="-601.9011" y2="-861.0588" gradientTransform="matrix(6.123234e-17 1 -1 6.123234e-17 -764.2588 732.9511)">
			<stop  offset="0" style="stop-color:#808285"/>
			<stop  offset="0.1313" style="stop-color:#4D4E50"/>
			<stop  offset="0.2039" style="stop-color:#424244"/>
			<stop  offset="0.338" style="stop-color:#808285"/>
			<stop  offset="0.4162" style="stop-color:#D1D3D4"/>
			<stop  offset="0.5168" style="stop-color:#A7A9AC"/>
			<stop  offset="0.662" style="stop-color:#F1F2F2"/>
			<stop  offset="0.8519" style="stop-color:#838587"/>
			<stop  offset="0.919" style="stop-color:#E6E7E8"/>
			<stop  offset="1" style="stop-color:#919396"/>
		</linearGradient>
		<polygon style="fill:url(#SVGID_00000083080909686543307140000012782453599584509845_);" points="96.8,127.9 92.3,130.9 36,134.2 
			31.4,131.7 		"/>
		
			<linearGradient id="SVGID_00000108268221200614425450000017046289795663470503_" gradientUnits="userSpaceOnUse" x1="-607.4011" y1="-795.3588" x2="-607.4011" y2="-861.2588" gradientTransform="matrix(6.123234e-17 1 -1 6.123234e-17 -764.2588 732.9511)">
			<stop  offset="0" style="stop-color:#808285"/>
			<stop  offset="0.1313" style="stop-color:#4D4E50"/>
			<stop  offset="0.2039" style="stop-color:#424244"/>
			<stop  offset="0.338" style="stop-color:#808285"/>
			<stop  offset="0.4162" style="stop-color:#D1D3D4"/>
			<stop  offset="0.5168" style="stop-color:#A7A9AC"/>
			<stop  offset="0.662" style="stop-color:#F1F2F2"/>
			<stop  offset="0.8519" style="stop-color:#838587"/>
			<stop  offset="0.919" style="stop-color:#E6E7E8"/>
			<stop  offset="1" style="stop-color:#919396"/>
		</linearGradient>
		<polygon style="fill:url(#SVGID_00000108268221200614425450000017046289795663470503_);" points="97,122.4 92.6,125.4 35.8,128.7 
			31.1,126.2 		"/>
		
			<linearGradient id="SVGID_00000083051558171675404410000013129922973097391489_" gradientUnits="userSpaceOnUse" x1="-612.8511" y1="-795.1588" x2="-612.8511" y2="-861.5588" gradientTransform="matrix(6.123234e-17 1 -1 6.123234e-17 -764.2588 732.9511)">
			<stop  offset="0" style="stop-color:#808285"/>
			<stop  offset="0.1313" style="stop-color:#4D4E50"/>
			<stop  offset="0.2039" style="stop-color:#424244"/>
			<stop  offset="0.338" style="stop-color:#808285"/>
			<stop  offset="0.4162" style="stop-color:#D1D3D4"/>
			<stop  offset="0.5168" style="stop-color:#A7A9AC"/>
			<stop  offset="0.662" style="stop-color:#F1F2F2"/>
			<stop  offset="0.8519" style="stop-color:#838587"/>
			<stop  offset="0.919" style="stop-color:#E6E7E8"/>
			<stop  offset="1" style="stop-color:#919396"/>
		</linearGradient>
		<polygon style="fill:url(#SVGID_00000083051558171675404410000013129922973097391489_);" points="97.3,117 92.9,120 35.5,123.2 
			30.9,120.9 		"/>
		
			<linearGradient id="SVGID_00000149361810966453917310000003550041868648887956_" gradientUnits="userSpaceOnUse" x1="-617.9011" y1="-797.1588" x2="-617.9011" y2="-859.5435" gradientTransform="matrix(6.123234e-17 1 -1 6.123234e-17 -764.2588 732.9511)">
			<stop  offset="0" style="stop-color:#808285"/>
			<stop  offset="0.1313" style="stop-color:#4D4E50"/>
			<stop  offset="0.2039" style="stop-color:#424244"/>
			<stop  offset="0.338" style="stop-color:#808285"/>
			<stop  offset="0.4162" style="stop-color:#D1D3D4"/>
			<stop  offset="0.5168" style="stop-color:#A7A9AC"/>
			<stop  offset="0.662" style="stop-color:#F1F2F2"/>
			<stop  offset="0.8519" style="stop-color:#838587"/>
			<stop  offset="0.919" style="stop-color:#E6E7E8"/>
			<stop  offset="1" style="stop-color:#919396"/>
		</linearGradient>
		<polygon style="fill:url(#SVGID_00000149361810966453917310000003550041868648887956_);" points="95.2,112.2 92.9,114.4 
			35.2,117.9 32.9,115.2 		"/>
		
			<linearGradient id="SVGID_00000054967392693334795030000016937662889010685850_" gradientUnits="userSpaceOnUse" x1="-11432.2285" y1="-1521.7954" x2="-11432.2285" y2="-1461.135" gradientTransform="matrix(-6.123234e-17 -1 -1.06 6.490628e-17 -1525.4952 -11292.6787)">
			<stop  offset="6.983240e-02" style="stop-color:#6D6E71"/>
			<stop  offset="0.1536" style="stop-color:#939598"/>
			<stop  offset="0.2151" style="stop-color:#6D6E71"/>
			<stop  offset="0.3883" style="stop-color:#6D6E71"/>
			<stop  offset="0.4832" style="stop-color:#939598"/>
			<stop  offset="0.6844" style="stop-color:#BCBEC0"/>
			<stop  offset="0.7458" style="stop-color:#808285"/>
			<stop  offset="0.8073" style="stop-color:#B4B4B4"/>
			<stop  offset="0.9134" style="stop-color:#6D6E71"/>
			<stop  offset="1" style="stop-color:#939598"/>
		</linearGradient>
		<polygon style="fill:url(#SVGID_00000054967392693334795030000016937662889010685850_);" points="96.2,138.9 31.9,142.7 
			36.3,139.7 92.1,136.4 		"/>
		
			<linearGradient id="SVGID_00000152962468196705225550000010737146612713117100_" gradientUnits="userSpaceOnUse" x1="-11426.6289" y1="-1522.0607" x2="-11426.6289" y2="-1460.8342" gradientTransform="matrix(-6.123234e-17 -1 -1.06 6.490628e-17 -1525.4952 -11292.6787)">
			<stop  offset="6.983240e-02" style="stop-color:#6D6E71"/>
			<stop  offset="0.1536" style="stop-color:#939598"/>
			<stop  offset="0.2151" style="stop-color:#6D6E71"/>
			<stop  offset="0.3883" style="stop-color:#6D6E71"/>
			<stop  offset="0.4832" style="stop-color:#939598"/>
			<stop  offset="0.6844" style="stop-color:#BCBEC0"/>
			<stop  offset="0.7458" style="stop-color:#808285"/>
			<stop  offset="0.8073" style="stop-color:#B4B4B4"/>
			<stop  offset="0.9134" style="stop-color:#6D6E71"/>
			<stop  offset="1" style="stop-color:#939598"/>
		</linearGradient>
		<polygon style="fill:url(#SVGID_00000152962468196705225550000010737146612713117100_);" points="96.5,133.4 31.6,137 36,134.2 
			92.3,130.9 		"/>
		
			<linearGradient id="SVGID_00000156570355447899774840000012394837907340784797_" gradientUnits="userSpaceOnUse" x1="-11421.2285" y1="-1522.3214" x2="-11421.2285" y2="-1460.6233" gradientTransform="matrix(-6.123234e-17 -1 -1.06 6.490628e-17 -1525.4952 -11292.6787)">
			<stop  offset="6.983240e-02" style="stop-color:#6D6E71"/>
			<stop  offset="0.1536" style="stop-color:#939598"/>
			<stop  offset="0.2151" style="stop-color:#6D6E71"/>
			<stop  offset="0.3883" style="stop-color:#6D6E71"/>
			<stop  offset="0.4832" style="stop-color:#939598"/>
			<stop  offset="0.6844" style="stop-color:#BCBEC0"/>
			<stop  offset="0.7458" style="stop-color:#808285"/>
			<stop  offset="0.8073" style="stop-color:#B4B4B4"/>
			<stop  offset="0.9134" style="stop-color:#6D6E71"/>
			<stop  offset="1" style="stop-color:#939598"/>
		</linearGradient>
		<polygon style="fill:url(#SVGID_00000156570355447899774840000012394837907340784797_);" points="96.8,127.9 31.4,131.7 
			35.8,128.7 92.6,125.4 		"/>
		
			<linearGradient id="SVGID_00000114776944264866779920000010973605029264685246_" gradientUnits="userSpaceOnUse" x1="-11415.7783" y1="-1522.5725" x2="-11415.7783" y2="-1460.4027" gradientTransform="matrix(-6.123234e-17 -1 -1.06 6.490628e-17 -1525.4952 -11292.6787)">
			<stop  offset="6.983240e-02" style="stop-color:#6D6E71"/>
			<stop  offset="0.1536" style="stop-color:#939598"/>
			<stop  offset="0.2151" style="stop-color:#6D6E71"/>
			<stop  offset="0.3883" style="stop-color:#6D6E71"/>
			<stop  offset="0.4832" style="stop-color:#939598"/>
			<stop  offset="0.6844" style="stop-color:#BCBEC0"/>
			<stop  offset="0.7458" style="stop-color:#808285"/>
			<stop  offset="0.8073" style="stop-color:#B4B4B4"/>
			<stop  offset="0.9134" style="stop-color:#6D6E71"/>
			<stop  offset="1" style="stop-color:#939598"/>
		</linearGradient>
		<polygon style="fill:url(#SVGID_00000114776944264866779920000010973605029264685246_);" points="97,122.4 31.1,126.2 35.5,123.2 
			92.9,120 		"/>
		
			<linearGradient id="SVGID_00000116229050224661888680000002269602574317699207_" gradientUnits="userSpaceOnUse" x1="-11410.3291" y1="-1522.829" x2="-11410.3291" y2="-1460.1875" gradientTransform="matrix(-6.123234e-17 -1 -1.06 6.490628e-17 -1525.4952 -11292.6787)">
			<stop  offset="6.983240e-02" style="stop-color:#6D6E71"/>
			<stop  offset="0.1536" style="stop-color:#939598"/>
			<stop  offset="0.2151" style="stop-color:#6D6E71"/>
			<stop  offset="0.3883" style="stop-color:#6D6E71"/>
			<stop  offset="0.4832" style="stop-color:#939598"/>
			<stop  offset="0.6844" style="stop-color:#BCBEC0"/>
			<stop  offset="0.7458" style="stop-color:#808285"/>
			<stop  offset="0.8073" style="stop-color:#B4B4B4"/>
			<stop  offset="0.9134" style="stop-color:#6D6E71"/>
			<stop  offset="1" style="stop-color:#939598"/>
		</linearGradient>
		<polygon style="fill:url(#SVGID_00000116229050224661888680000002269602574317699207_);" points="97.3,117 30.9,120.9 35.2,117.9 
			92.9,114.4 		"/>
		
			<linearGradient id="SVGID_00000080906102046999578070000003628778864760281017_" gradientUnits="userSpaceOnUse" x1="-11405.8789" y1="-1520.9514" x2="-11405.8789" y2="-1462.0979" gradientTransform="matrix(-6.123234e-17 -1 -1.06 6.490628e-17 -1525.4952 -11292.6787)">
			<stop  offset="6.983240e-02" style="stop-color:#6D6E71"/>
			<stop  offset="0.1536" style="stop-color:#939598"/>
			<stop  offset="0.2151" style="stop-color:#6D6E71"/>
			<stop  offset="0.3883" style="stop-color:#6D6E71"/>
			<stop  offset="0.4832" style="stop-color:#939598"/>
			<stop  offset="0.6844" style="stop-color:#BCBEC0"/>
			<stop  offset="0.7458" style="stop-color:#808285"/>
			<stop  offset="0.8073" style="stop-color:#B4B4B4"/>
			<stop  offset="0.9134" style="stop-color:#6D6E71"/>
			<stop  offset="1" style="stop-color:#939598"/>
		</linearGradient>
		<polygon style="fill:url(#SVGID_00000080906102046999578070000003628778864760281017_);" points="92.9,111.2 95.2,112.2 
			32.9,115.2 35.2,111.2 		"/>
		
			<linearGradient id="SVGID_00000140012704423001878310000006006341981144585136_" gradientUnits="userSpaceOnUse" x1="-2058.511" y1="2646.1763" x2="-2058.511" y2="2582.6189" gradientTransform="matrix(6.123234e-17 1 1.06 -6.490628e-17 -2713.0911 2203.1111)">
			<stop  offset="6.983240e-02" style="stop-color:#6D6E71"/>
			<stop  offset="0.1536" style="stop-color:#939598"/>
			<stop  offset="0.2151" style="stop-color:#6D6E71"/>
			<stop  offset="0.3883" style="stop-color:#6D6E71"/>
			<stop  offset="0.4832" style="stop-color:#939598"/>
			<stop  offset="0.6844" style="stop-color:#BCBEC0"/>
			<stop  offset="0.7458" style="stop-color:#808285"/>
			<stop  offset="0.8073" style="stop-color:#B4B4B4"/>
			<stop  offset="0.9134" style="stop-color:#6D6E71"/>
			<stop  offset="1" style="stop-color:#939598"/>
		</linearGradient>
		<polygon style="fill:url(#SVGID_00000140012704423001878310000006006341981144585136_);" points="33.6,147.3 36.4,145.1 
			91.9,141.9 95.1,144.4 		"/>
		
			<linearGradient id="SVGID_00000111907353660786509530000004341940629065164473_" gradientUnits="userSpaceOnUse" x1="-586.5011" y1="-797.8588" x2="-586.5011" y2="-859.3588" gradientTransform="matrix(6.123234e-17 1 -1 6.123234e-17 -764.2588 732.9511)">
			<stop  offset="0" style="stop-color:#808285"/>
			<stop  offset="0.1313" style="stop-color:#4D4E50"/>
			<stop  offset="0.2039" style="stop-color:#424244"/>
			<stop  offset="0.338" style="stop-color:#808285"/>
			<stop  offset="0.4162" style="stop-color:#D1D3D4"/>
			<stop  offset="0.5168" style="stop-color:#A7A9AC"/>
			<stop  offset="0.662" style="stop-color:#F1F2F2"/>
			<stop  offset="0.8519" style="stop-color:#838587"/>
			<stop  offset="0.919" style="stop-color:#E6E7E8"/>
			<stop  offset="1" style="stop-color:#919396"/>
		</linearGradient>
		<polygon style="fill:url(#SVGID_00000111907353660786509530000004341940629065164473_);" points="37,148.5 33.6,147.3 95.1,144.4 
			92,148.5 		"/>
	</g>
	
		<linearGradient id="SVGID_00000126305807282054359340000002171913130616903862_" gradientUnits="userSpaceOnUse" x1="-1410.5" y1="-784.2948" x2="-1410.5" y2="-839.3948" gradientTransform="matrix(6.123234e-17 -1 -1 -6.123234e-17 -747.2756 -1259)">
		<stop  offset="0.1201" style="stop-color:#686566"/>
		<stop  offset="0.1983" style="stop-color:#6E7072"/>
		<stop  offset="0.3659" style="stop-color:#9F9D9D"/>
		<stop  offset="0.433" style="stop-color:#919396"/>
		<stop  offset="0.6732" style="stop-color:#FFFFFF"/>
		<stop  offset="0.7793" style="stop-color:#E4E3E3"/>
		<stop  offset="1" style="stop-color:#919396"/>
	</linearGradient>
	
		<rect x="37.1" y="148.5" style="fill:url(#SVGID_00000126305807282054359340000002171913130616903862_);" width="55.1" height="6"/>
	
		<linearGradient id="SVGID_00000056398428028052059240000013513435501419195322_" gradientUnits="userSpaceOnUse" x1="-1369.05" y1="-778.107" x2="-1369.05" y2="-844.407" gradientTransform="matrix(6.123234e-17 -1 -1 -6.123234e-17 -747.2756 -1259)">
		<stop  offset="1.395475e-02" style="stop-color:#686566"/>
		<stop  offset="0.1704" style="stop-color:#505354"/>
		<stop  offset="0.3659" style="stop-color:#9F9D9D"/>
		<stop  offset="0.433" style="stop-color:#919396"/>
		<stop  offset="0.6732" style="stop-color:#FFFFFF"/>
		<stop  offset="0.7793" style="stop-color:#E4E3E3"/>
		<stop  offset="1" style="stop-color:#919396"/>
	</linearGradient>
	
		<rect x="30.9" y="108.9" style="fill:url(#SVGID_00000056398428028052059240000013513435501419195322_);" width="66.3" height="2.3"/>
</g>
<g>
	<g>
		<g>
			<defs>
				<path id="SVGID_00000035493560599770111860000003632190595549875328_" d="M168.9,168.2c-12,0.1-35.9,0.1-35.9,0.1l-2.4,2.1
					c-20.2-0.2-40.5-0.3-60.7-0.5c-0.2,0-0.5,0-0.8,0c-4.2,0-14.8,0.7-25,8.1c-10,7.3-13.7,17-14.9,20.5v11.1v59.7v1.8v0.3v0.2h4.3
					l-2.4,4l2.4,2.7l-4.3,3l4.6,2.3l-4.4,3l4.7,2.5l-4.4,3l4.6,2.5l-4.4,2.8l4.7,2.7l-4.4,3l4.5,2.4l-2.7,2.2l3.4,1.2l0,0v6h55.1
					v-6.2l3-3.9l-3.2-2.5h-0.1l4.4-3l-4.1-2.5l4.4-3l-4.2-2.5l4.5-3l-4.2-2.5l4.4-3l-4.1-2.3l4.4-3l-4.4-2.7l2.4-2.2
					c0,0-2.4-0.9-2.4-1s4.3,0,4.3,0v-0.5h0.1c0-7.1,0-14.3,0.1-21.4c0.2-1.2,0.8-4.4,3.6-7.3c2.6-2.7,5.6-3.6,6.8-3.8
					c8.1,0,16.2,0,24.3,0c0,0,1.2,1.3,1.7,1.9h36.7l2.3-2.1v-68C170.3,169.6,169.6,168.9,168.9,168.2z"/>
			</defs>
			<clipPath id="SVGID_00000095334202389928650980000015946436566493553300_">
				<use xlink:href="#SVGID_00000035493560599770111860000003632190595549875328_"  style="overflow:visible;"/>
			</clipPath>
			<g transform="matrix(1 0 0 1 0 0)" style="clip-path:url(#SVGID_00000095334202389928650980000015946436566493553300_);">
				
					<image style="overflow:visible;enable-background:new    ;" width="1200" height="900" xlink:href="../../Фитинги/Резьбовые/Металл.jpg"  transform="matrix(0.2013 0 0 0.2013 -14.653 150.9352)">
				</image>
			</g>
		</g>
	</g>
</g>
<linearGradient id="SVGID_00000177443671171330581110000001923996911766087851_" gradientUnits="userSpaceOnUse" x1="121.3" y1="104.7375" x2="121.3" y2="107.6598" gradientTransform="matrix(1 0 0 -1 0 322)">
	<stop  offset="0" style="stop-color:#333333"/>
	<stop  offset="0.7116" style="stop-color:#333333;stop-opacity:0.9"/>
	<stop  offset="1" style="stop-color:#333333;stop-opacity:0"/>
</linearGradient>
<rect x="75.6" y="214" style="fill:url(#SVGID_00000177443671171330581110000001923996911766087851_);" width="91.4" height="2.9"/>
<path class="st38" d="M168.7,168.2c-12,0.1-35.9,0.1-35.9,0.1l-2.4,2.1c-20.2-0.2-40.5-0.3-60.7-0.5c-0.2,0-0.5,0-0.8,0
	c-4.2,0-14.8,0.7-25,8.1c-10,7.3-13.7,17-14.9,20.5v11.1v59.7v1.8v0.3v0.2h4.3l-2.4,4l2.4,2.7l-4.3,3l4.6,2.3l-4.4,3l4.7,2.5l-4.4,3
	l4.6,2.5l-4.4,2.8l4.7,2.7l-4.4,3l4.5,2.4l-2.8,2.2l3.4,1.2l0,0v6h55.1v-6.2l3-3.9l-3.2-2.5l4.3-3l-4.1-2.5l4.4-3l-4.2-2.5l4.5-3
	l-4.2-2.5l4.4-3l-4.1-2.3l4.4-3l-4.4-2.7l2.4-2.2c0,0-2.4-0.9-2.4-1s4.3,0,4.3,0v-0.5h0.1c0-7.1,0-14.3,0.1-21.4
	c0.2-1.2,0.8-4.4,3.6-7.3c2.6-2.7,5.6-3.6,6.8-3.8c8.1,0,16.2,0,24.3,0c0,0,1.2,1.3,1.7,1.9h36.7l2.3-2.1v-68
	C170.1,169.6,169.4,168.9,168.7,168.2z"/>
<g>
	<path class="st39" d="M75.9,309.8c0.6,1.6,1,3.3,1.5,5.1c-9.5-0.1-18.9-0.2-28.3-0.3c0.6-1.5,1-3.2,1.6-4.7
		c-0.5-33.2-1-66.2-1.5-99.4c0.6-2.3,3.2-12.1,12.5-18.1c6-3.8,11.8-4.1,14.5-4c29.4-0.1,58.9-0.1,88.3-0.2c1.6-0.6,3.1-1.1,4.7-1.5
		c-0.1,10-0.2,20.2-0.3,30.1c-1.5-0.6-2.9-1.1-4.4-1.7c-29.6,0.6-59.1,1.2-88.9,1.8C75.9,247.9,75.9,278.9,75.9,309.8z"/>
	
		<linearGradient id="SVGID_00000003083120715325532990000012847047572020789175_" gradientUnits="userSpaceOnUse" x1="49.1" y1="947.5244" x2="74.3189" y2="947.5244" gradientTransform="matrix(1 0 0 1 0 -696.7244)">
		<stop  offset="8.379889e-03" style="stop-color:#333333;stop-opacity:0"/>
		<stop  offset="0.5754" style="stop-color:#808080"/>
		<stop  offset="0.6781" style="stop-color:#C7C7C7;stop-opacity:0.76"/>
		<stop  offset="0.8698" style="stop-color:#4F4F4F;stop-opacity:0.3067"/>
		<stop  offset="1" style="stop-color:#333333;stop-opacity:0"/>
	</linearGradient>
	<path style="fill:url(#SVGID_00000003083120715325532990000012847047572020789175_);" d="M75.9,309.8c0.6,1.6,1,3.3,1.5,5.1
		c-9.5-0.1-18.9-0.2-28.3-0.3c0.6-1.5,1-3.2,1.6-4.7c-0.5-33.2-1-66.2-1.5-99.4c0.6-2.3,3.2-12.1,12.5-18.1c6-3.8,11.8-4.1,14.5-4
		c29.4-0.1,58.9-0.1,88.3-0.2c1.6-0.6,3.1-1.1,4.7-1.5c-0.1,10-0.2,20.2-0.3,30.1c-1.5-0.6-2.9-1.1-4.4-1.7
		c-29.6,0.6-59.1,1.2-88.9,1.8C75.9,247.9,75.9,278.9,75.9,309.8z"/>
	
		<linearGradient id="SVGID_00000078015842559259658900000012701290899435252879_" gradientUnits="userSpaceOnUse" x1="109.15" y1="881.9575" x2="109.15" y2="911.5203" gradientTransform="matrix(1 0 0 1 0 -696.7244)">
		<stop  offset="8.379889e-03" style="stop-color:#333333;stop-opacity:0"/>
		<stop  offset="0.5754" style="stop-color:#808080"/>
		<stop  offset="0.6781" style="stop-color:#C7C7C7;stop-opacity:0.76"/>
		<stop  offset="0.8698" style="stop-color:#4F4F4F;stop-opacity:0.3067"/>
		<stop  offset="1" style="stop-color:#333333;stop-opacity:0"/>
	</linearGradient>
	<path style="fill:url(#SVGID_00000078015842559259658900000012701290899435252879_);" d="M75.9,309.8c0.6,1.6,1,3.3,1.5,5.1
		c-9.5-0.1-18.9-0.2-28.3-0.3c0.6-1.5,1-3.2,1.6-4.7c-0.5-33.2-1-66.2-1.5-99.4c0.6-2.3,3.2-12.1,12.5-18.1c6-3.8,11.8-4.1,14.5-4
		c29.4-0.1,58.9-0.1,88.3-0.2c1.6-0.6,3.1-1.1,4.7-1.5c-0.1,10-0.2,20.2-0.3,30.1c-1.5-0.6-2.9-1.1-4.4-1.7
		c-29.6,0.6-59.1,1.2-88.9,1.8C75.9,247.9,75.9,278.9,75.9,309.8z"/>
	
		<linearGradient id="SVGID_00000083064119990875367030000007447153822036157612_" gradientUnits="userSpaceOnUse" x1="55.6751" y1="889.4432" x2="86.8477" y2="923.2136" gradientTransform="matrix(1 0 0 1 0 -696.7244)">
		<stop  offset="0" style="stop-color:#333333"/>
		<stop  offset="0.4099" style="stop-color:#333333;stop-opacity:0.9"/>
		<stop  offset="1" style="stop-color:#333333;stop-opacity:0"/>
	</linearGradient>
	<path style="fill:url(#SVGID_00000083064119990875367030000007447153822036157612_);" d="M75.9,309.8c0.6,1.6,1,3.3,1.5,5.1
		c-9.5-0.1-18.9-0.2-28.3-0.3c0.6-1.5,1-3.2,1.6-4.7c-0.5-33.2-1-66.2-1.5-99.4c0.6-2.3,3.2-12.1,12.5-18.1c6-3.8,11.8-4.1,14.5-4
		c29.4-0.1,58.9-0.1,88.3-0.2c1.6-0.6,3.1-1.1,4.7-1.5c-0.1,10-0.2,20.2-0.3,30.1c-1.5-0.6-2.9-1.1-4.4-1.7
		c-29.6,0.6-59.1,1.2-88.9,1.8C75.9,247.9,75.9,278.9,75.9,309.8z"/>
</g>
<linearGradient id="SVGID_00000013902256625175709830000010349906684876077223_" gradientUnits="userSpaceOnUse" x1="151.15" y1="872.418" x2="151.15" y2="917.618" gradientTransform="matrix(1 0 0 1 0 -698.7244)">
	<stop  offset="0" style="stop-color:#4D4E50"/>
	<stop  offset="0.3101" style="stop-color:#424244"/>
	<stop  offset="0.433" style="stop-color:#666769"/>
	<stop  offset="0.5" style="stop-color:#808285"/>
	<stop  offset="0.6732" style="stop-color:#BCBEC0"/>
	<stop  offset="0.7682" style="stop-color:#6D6E71"/>
	<stop  offset="0.8799" style="stop-color:#414042"/>
</linearGradient>
<rect x="133.8" y="179.3" style="fill:url(#SVGID_00000013902256625175709830000010349906684876077223_);" width="34.7" height="45.2"/>
<linearGradient id="SVGID_00000121978807042739323470000007544752137461248423_" gradientUnits="userSpaceOnUse" x1="169.7" y1="873.3371" x2="169.7" y2="916.1926" gradientTransform="matrix(1 0 0 1 0 -698.7244)">
	<stop  offset="0" style="stop-color:#4D4E50"/>
	<stop  offset="0.3101" style="stop-color:#424244"/>
	<stop  offset="0.433" style="stop-color:#666769"/>
	<stop  offset="0.5" style="stop-color:#808285"/>
	<stop  offset="0.6732" style="stop-color:#BCBEC0"/>
	<stop  offset="0.7682" style="stop-color:#6D6E71"/>
	<stop  offset="0.8799" style="stop-color:#414042"/>
</linearGradient>
<polygon style="fill:url(#SVGID_00000121978807042739323470000007544752137461248423_);" points="168.5,179.3 170.9,176.9 
	170.9,226.3 168.5,224.6 "/>
<linearGradient id="SVGID_00000001642899794011698690000001996492885079856829_" gradientUnits="userSpaceOnUse" x1="-566.85" y1="-686.6256" x2="-566.85" y2="-731.8256" gradientTransform="matrix(6.123234e-17 1 -1 6.123234e-17 -646.0756 862.2)">
	<stop  offset="0" style="stop-color:#4D4E50"/>
	<stop  offset="0.3101" style="stop-color:#424244"/>
	<stop  offset="0.433" style="stop-color:#666769"/>
	<stop  offset="0.5" style="stop-color:#808285"/>
	<stop  offset="0.6732" style="stop-color:#BCBEC0"/>
	<stop  offset="0.7682" style="stop-color:#6D6E71"/>
	<stop  offset="0.8799" style="stop-color:#414042"/>
</linearGradient>
<rect x="40.5" y="278" style="fill:url(#SVGID_00000001642899794011698690000001996492885079856829_);" width="45.2" height="34.7"/>
<linearGradient id="SVGID_00000172413023153729569710000008628581238807452071_" gradientUnits="userSpaceOnUse" x1="-548.3" y1="-684.8256" x2="-548.3" y2="-734.2256" gradientTransform="matrix(6.123234e-17 1 -1 6.123234e-17 -646.0756 862.2)">
	<stop  offset="0" style="stop-color:#4D4E50"/>
	<stop  offset="0.3101" style="stop-color:#424244"/>
	<stop  offset="0.433" style="stop-color:#666769"/>
	<stop  offset="0.5" style="stop-color:#808285"/>
	<stop  offset="0.6732" style="stop-color:#BCBEC0"/>
	<stop  offset="0.7682" style="stop-color:#6D6E71"/>
	<stop  offset="0.8799" style="stop-color:#414042"/>
</linearGradient>
<polygon style="fill:url(#SVGID_00000172413023153729569710000008628581238807452071_);" points="85.7,312.7 88.2,315.1 38.7,315.1 
	40.4,312.7 "/>
<image style="overflow:visible;" width="200" height="200" xlink:href="../../pepsi.png"  transform="matrix(0.1092 0 0 0.1092 55.3242 38.277)">
</image>
</svg>
