<?xml version="1.0" encoding="utf-8"?>
<!-- Generator: Adobe Illustrator 25.4.1, SVG Export Plug-In . SVG Version: 6.00 Build 0)  -->
<svg version="1.1" id="Слой_1" xmlns="http://www.w3.org/2000/svg" xmlns:xlink="http://www.w3.org/1999/xlink" x="0px" y="0px"
	 viewBox="0 0 200 320" style="enable-background:new 0 0 200 320;" xml:space="preserve">
<style type="text/css">
	.st0{fill:url(#SVGID_1_);}
	.st1{fill:url(#SVGID_00000142889674088778723090000008412013117282919056_);}
	.st2{fill:url(#SVGID_00000090285761686621975970000007109785525822816695_);}
	.st3{fill:url(#SVGID_00000062914712945978646550000013542050034544551347_);}
	.st4{fill:url(#SVGID_00000046327544860515637760000010956089697569795232_);}
	.st5{fill:url(#SVGID_00000043435718617941882460000006411416315090956206_);}
	.st6{fill:url(#SVGID_00000152264281165090016490000010528628765435559552_);}
	.st7{fill:url(#SVGID_00000161631654285678062470000000834623371375381681_);}
	.st8{fill:url(#SVGID_00000181064096122830520980000010362298715525805206_);}
	.st9{fill:url(#SVGID_00000048480828122198799000000016306916849886787501_);}
	.st10{fill:url(#SVGID_00000059268074630090523080000004282542346663021236_);}
	.st11{fill:url(#SVGID_00000160175989549046467720000016797148018705652103_);}
	.st12{fill:url(#SVGID_00000065769921613612632080000001257815669336823432_);}
	.st13{fill:url(#SVGID_00000123398813843663003490000010406990756884828090_);}
	.st14{clip-path:url(#SVGID_00000003096320431191440250000013856882561076326836_);}
	.st15{fill:none;stroke:#BEBEBE;stroke-width:2;stroke-miterlimit:10;}
	.st16{fill:url(#SVGID_00000052786564137857215830000009876183859719189690_);}
	.st17{fill:url(#SVGID_00000103983135948108967230000012795732990945532815_);}
	.st18{fill:url(#SVGID_00000112615349186360901330000014662222302307621770_);}
	.st19{fill:url(#SVGID_00000162344997097492043480000002652605774486352041_);}
	.st20{fill:url(#SVGID_00000157272516911199554390000012957861400105413262_);}
	.st21{fill:url(#SVGID_00000034788119073547082210000013013347067487314879_);}
	.st22{fill:url(#SVGID_00000015337272602710313670000011265591818265495987_);}
	.st23{fill:url(#SVGID_00000134961458941539676900000015686477000053366923_);}
	.st24{fill:url(#SVGID_00000085245950060871926750000015579555708160002691_);}
	.st25{fill:#414042;}
	.st26{fill:url(#SVGID_00000058581042060375427950000003676258983132171150_);}
	.st27{fill:url(#SVGID_00000128455739182489299990000008655622146954934936_);}
	.st28{fill:url(#SVGID_00000140718919363068893650000018164937787676072594_);}
	.st29{fill:url(#SVGID_00000072999283735882288950000012386881265690397843_);}
</style>
<linearGradient id="SVGID_1_" gradientUnits="userSpaceOnUse" x1="54.4" y1="-955.5347" x2="54.4" y2="-1100.3347" gradientTransform="matrix(1 0 0 -1 0 -946.8347)">
	<stop  offset="0.1983" style="stop-color:#4D4E50"/>
	<stop  offset="0.2933" style="stop-color:#424244"/>
	<stop  offset="0.433" style="stop-color:#666769"/>
	<stop  offset="0.8743" style="stop-color:#838587"/>
	<stop  offset="1" style="stop-color:#BCBEC0"/>
</linearGradient>
<polygon class="st0" points="54.1,8.7 57.3,153.5 51.5,146.7 51.5,8.7 "/>
<linearGradient id="SVGID_00000098187304166650100290000003159581464355649703_" gradientUnits="userSpaceOnUse" x1="64.4" y1="-950.2347" x2="64.4" y2="-1100.3347" gradientTransform="matrix(1 0 0 -1 0 -946.8347)">
	<stop  offset="0.1983" style="stop-color:#4D4E50"/>
	<stop  offset="0.2933" style="stop-color:#424244"/>
	<stop  offset="0.433" style="stop-color:#666769"/>
	<stop  offset="0.8743" style="stop-color:#838587"/>
	<stop  offset="1" style="stop-color:#BCBEC0"/>
</linearGradient>
<polygon style="fill:url(#SVGID_00000098187304166650100290000003159581464355649703_);" points="57.3,3.4 65.1,143.2 71.5,153.5 
	64.4,15.1 "/>
<linearGradient id="SVGID_00000042015725654425870450000018256260570268684176_" gradientUnits="userSpaceOnUse" x1="72.1" y1="-1100.3347" x2="72.1" y2="-951.2347" gradientTransform="matrix(1 0 0 -1 0 -946.8347)">
	<stop  offset="0" style="stop-color:#999898"/>
	<stop  offset="0.1963" style="stop-color:#4F4F4F"/>
	<stop  offset="0.2507" style="stop-color:#5B5B5B"/>
	<stop  offset="0.3499" style="stop-color:#7C7C7C"/>
	<stop  offset="0.3704" style="stop-color:#848484"/>
	<stop  offset="0.433" style="stop-color:#878787"/>
	<stop  offset="0.5974" style="stop-color:#D9D9D9"/>
	<stop  offset="0.6843" style="stop-color:#FFFFFF"/>
	<stop  offset="0.9078" style="stop-color:#B7B7B7"/>
	<stop  offset="1" style="stop-color:#C6C6C6"/>
</linearGradient>
<polygon style="fill:url(#SVGID_00000042015725654425870450000018256260570268684176_);" points="72.3,4.4 64.4,15.1 71.5,153.5 
	79.8,141.2 "/>
<linearGradient id="SVGID_00000076588274178289403320000008237689738772850345_" gradientUnits="userSpaceOnUse" x1="42.2812" y1="-1003.2288" x2="117.8189" y2="-1046.8406" gradientTransform="matrix(1 0 0 -1 0 -946.8347)">
	<stop  offset="0.1983" style="stop-color:#4D4E50"/>
	<stop  offset="0.2933" style="stop-color:#424244"/>
	<stop  offset="0.433" style="stop-color:#666769"/>
	<stop  offset="0.8743" style="stop-color:#838587"/>
	<stop  offset="1" style="stop-color:#BCBEC0"/>
</linearGradient>
<polygon style="fill:url(#SVGID_00000076588274178289403320000008237689738772850345_);" points="79.8,15.4 72.3,4.4 79.8,141.2 
	87.8,152 "/>
<linearGradient id="SVGID_00000180325821906016744830000013660174000174406794_" gradientUnits="userSpaceOnUse" x1="87.2" y1="-1098.7347" x2="87.2" y2="-951.3347" gradientTransform="matrix(1 0 0 -1 0 -946.8347)">
	<stop  offset="0" style="stop-color:#999898"/>
	<stop  offset="0.1963" style="stop-color:#4F4F4F"/>
	<stop  offset="0.2507" style="stop-color:#5B5B5B"/>
	<stop  offset="0.3499" style="stop-color:#7C7C7C"/>
	<stop  offset="0.3704" style="stop-color:#848484"/>
	<stop  offset="0.433" style="stop-color:#878787"/>
	<stop  offset="0.5974" style="stop-color:#D9D9D9"/>
	<stop  offset="0.6843" style="stop-color:#FFFFFF"/>
	<stop  offset="0.9078" style="stop-color:#B7B7B7"/>
	<stop  offset="1" style="stop-color:#C6C6C6"/>
</linearGradient>
<path style="fill:url(#SVGID_00000180325821906016744830000013660174000174406794_);" d="M86.8,4.5c-1.2,1.8-2.3,3.6-3.5,5.4
	s-2.4,3.7-3.6,5.4c2.7,45.5,5.4,91.1,8.1,136.6l6.9-12C92.1,94.8,89.4,49.7,86.8,4.5z"/>
<linearGradient id="SVGID_00000182505023490811756440000009295584841836752008_" gradientUnits="userSpaceOnUse" x1="94.4" y1="-951.3347" x2="94.4" y2="-1098.0347" gradientTransform="matrix(1 0 0 -1 0 -946.8347)">
	<stop  offset="0.1983" style="stop-color:#4D4E50"/>
	<stop  offset="0.2933" style="stop-color:#424244"/>
	<stop  offset="0.433" style="stop-color:#666769"/>
	<stop  offset="0.8743" style="stop-color:#838587"/>
	<stop  offset="1" style="stop-color:#BCBEC0"/>
</linearGradient>
<polygon style="fill:url(#SVGID_00000182505023490811756440000009295584841836752008_);" points="94.7,15.9 86.8,4.5 94.7,140 
	102,151.2 "/>
<linearGradient id="SVGID_00000090278040951704380850000000152568665437377965_" gradientUnits="userSpaceOnUse" x1="102.45" y1="-1098.0347" x2="102.45" y2="-952.2347" gradientTransform="matrix(1 0 0 -1 0 -946.8347)">
	<stop  offset="0" style="stop-color:#999898"/>
	<stop  offset="0.1963" style="stop-color:#4F4F4F"/>
	<stop  offset="0.2507" style="stop-color:#5B5B5B"/>
	<stop  offset="0.3499" style="stop-color:#7C7C7C"/>
	<stop  offset="0.3704" style="stop-color:#848484"/>
	<stop  offset="0.433" style="stop-color:#878787"/>
	<stop  offset="0.5974" style="stop-color:#D9D9D9"/>
	<stop  offset="0.6843" style="stop-color:#FFFFFF"/>
	<stop  offset="0.9078" style="stop-color:#B7B7B7"/>
	<stop  offset="1" style="stop-color:#C6C6C6"/>
</linearGradient>
<polygon style="fill:url(#SVGID_00000090278040951704380850000000152568665437377965_);" points="102,5.4 94.7,15.9 102,151.2 
	110.2,140 "/>
<linearGradient id="SVGID_00000144338702738783209730000014591308047256604058_" gradientUnits="userSpaceOnUse" x1="109.4" y1="-952.2347" x2="109.4" y2="-1096.8347" gradientTransform="matrix(1 0 0 -1 0 -946.8347)">
	<stop  offset="0.1983" style="stop-color:#4D4E50"/>
	<stop  offset="0.2933" style="stop-color:#424244"/>
	<stop  offset="0.433" style="stop-color:#666769"/>
	<stop  offset="0.8743" style="stop-color:#838587"/>
	<stop  offset="1" style="stop-color:#BCBEC0"/>
</linearGradient>
<polygon style="fill:url(#SVGID_00000144338702738783209730000014591308047256604058_);" points="110.2,16.6 102,5.4 110.2,140 
	116.8,150 "/>
<linearGradient id="SVGID_00000003788285313370662620000001114565281179758726_" gradientUnits="userSpaceOnUse" x1="117.15" y1="-1096.8347" x2="117.15" y2="-952.2347" gradientTransform="matrix(1 0 0 -1 0 -946.8347)">
	<stop  offset="0" style="stop-color:#999898"/>
	<stop  offset="0.1963" style="stop-color:#4F4F4F"/>
	<stop  offset="0.2507" style="stop-color:#5B5B5B"/>
	<stop  offset="0.3499" style="stop-color:#7C7C7C"/>
	<stop  offset="0.3704" style="stop-color:#848484"/>
	<stop  offset="0.433" style="stop-color:#878787"/>
	<stop  offset="0.5974" style="stop-color:#D9D9D9"/>
	<stop  offset="0.6843" style="stop-color:#FFFFFF"/>
	<stop  offset="0.9078" style="stop-color:#B7B7B7"/>
	<stop  offset="1" style="stop-color:#C6C6C6"/>
</linearGradient>
<polygon style="fill:url(#SVGID_00000003788285313370662620000001114565281179758726_);" points="116.8,5.4 110.2,16.6 116.8,150 
	124.1,139.9 "/>
<linearGradient id="SVGID_00000079445920270059235970000000264954873544713393_" gradientUnits="userSpaceOnUse" x1="124.15" y1="-952.2347" x2="124.15" y2="-1096.8347" gradientTransform="matrix(1 0 0 -1 0 -946.8347)">
	<stop  offset="0.1983" style="stop-color:#4D4E50"/>
	<stop  offset="0.2933" style="stop-color:#424244"/>
	<stop  offset="0.433" style="stop-color:#666769"/>
	<stop  offset="0.8743" style="stop-color:#838587"/>
	<stop  offset="1" style="stop-color:#BCBEC0"/>
</linearGradient>
<polygon style="fill:url(#SVGID_00000079445920270059235970000000264954873544713393_);" points="124.1,16.9 116.8,5.4 124.1,139.9 
	131.5,150 "/>
<linearGradient id="SVGID_00000124120525758571613240000016993503612219890582_" gradientUnits="userSpaceOnUse" x1="131.8" y1="-1098.0347" x2="131.8" y2="-952.2347" gradientTransform="matrix(1 0 0 -1 0 -946.8347)">
	<stop  offset="0" style="stop-color:#999898"/>
	<stop  offset="0.1963" style="stop-color:#4F4F4F"/>
	<stop  offset="0.2507" style="stop-color:#5B5B5B"/>
	<stop  offset="0.3499" style="stop-color:#7C7C7C"/>
	<stop  offset="0.3704" style="stop-color:#848484"/>
	<stop  offset="0.433" style="stop-color:#878787"/>
	<stop  offset="0.5974" style="stop-color:#D9D9D9"/>
	<stop  offset="0.6843" style="stop-color:#FFFFFF"/>
	<stop  offset="0.9078" style="stop-color:#B7B7B7"/>
	<stop  offset="1" style="stop-color:#C6C6C6"/>
</linearGradient>
<polygon style="fill:url(#SVGID_00000124120525758571613240000016993503612219890582_);" points="131.5,5.4 124.1,16.9 131.5,151.2 
	139.5,139 "/>
<linearGradient id="SVGID_00000051382862826815716070000011280723226243208631_" gradientUnits="userSpaceOnUse" x1="136.7" y1="-952.2347" x2="136.7" y2="-1089.3347" gradientTransform="matrix(1 0 0 -1 0 -946.8347)">
	<stop  offset="0.1983" style="stop-color:#4D4E50"/>
	<stop  offset="0.2933" style="stop-color:#424244"/>
	<stop  offset="0.433" style="stop-color:#666769"/>
	<stop  offset="0.8743" style="stop-color:#838587"/>
	<stop  offset="1" style="stop-color:#BCBEC0"/>
</linearGradient>
<polygon style="fill:url(#SVGID_00000051382862826815716070000011280723226243208631_);" points="139.5,17.7 131.5,5.4 139.5,139 
	141.9,142.5 "/>
<linearGradient id="SVGID_00000147220483856852644720000002573357797943226789_" gradientUnits="userSpaceOnUse" x1="144" y1="-1089.3347" x2="144" y2="-959.4347" gradientTransform="matrix(1 0 0 -1 0 -946.8347)">
	<stop  offset="0" style="stop-color:#999898"/>
	<stop  offset="0.1963" style="stop-color:#4F4F4F"/>
	<stop  offset="0.2507" style="stop-color:#5B5B5B"/>
	<stop  offset="0.3499" style="stop-color:#7C7C7C"/>
	<stop  offset="0.3704" style="stop-color:#848484"/>
	<stop  offset="0.433" style="stop-color:#878787"/>
	<stop  offset="0.5974" style="stop-color:#D9D9D9"/>
	<stop  offset="0.6843" style="stop-color:#FFFFFF"/>
	<stop  offset="0.9078" style="stop-color:#B7B7B7"/>
	<stop  offset="1" style="stop-color:#C6C6C6"/>
</linearGradient>
<polygon style="fill:url(#SVGID_00000147220483856852644720000002573357797943226789_);" points="141.9,12.6 147.2,18.7 148.5,18.7 
	148.5,137.7 147.3,137.7 141.9,142.5 139.5,17.7 "/>
<linearGradient id="SVGID_00000117652826999756887340000009479869086808252326_" gradientUnits="userSpaceOnUse" x1="59.6" y1="-1100.3347" x2="59.6" y2="-950.2347" gradientTransform="matrix(1 0 0 -1 0 -946.8347)">
	<stop  offset="0" style="stop-color:#999898"/>
	<stop  offset="0.1963" style="stop-color:#4F4F4F"/>
	<stop  offset="0.2507" style="stop-color:#5B5B5B"/>
	<stop  offset="0.3499" style="stop-color:#7C7C7C"/>
	<stop  offset="0.3704" style="stop-color:#848484"/>
	<stop  offset="0.433" style="stop-color:#878787"/>
	<stop  offset="0.5974" style="stop-color:#D9D9D9"/>
	<stop  offset="0.6843" style="stop-color:#FFFFFF"/>
	<stop  offset="0.9078" style="stop-color:#B7B7B7"/>
	<stop  offset="1" style="stop-color:#C6C6C6"/>
</linearGradient>
<polygon style="fill:url(#SVGID_00000117652826999756887340000009479869086808252326_);" points="65.1,143.2 57.3,153.5 54.1,8.7 
	57.3,3.4 "/>
<g>
	<g>
		<g>
			<g>
				<g>
					<g>
						<g>
							<g>
								<defs>
									<path id="SVGID_00000118395523258290637300000015215184350417182647_" d="M147.3,181.3l-5.4-6.1l-2.4,5.2l-8-12.3
										l-7.3,11.5l-7.3-11.5l-6.7,11.2l-8.2-11.2l-7.3,10.5l-7.8-11.4c-2.4,3.6-4.6,7.3-7,10.8l-7.5-11l-7.9,10.7L57.4,166
										l-3.2,5.4h-2.5v137.9l5.8,6.9l7.8-10.3l6.3,10.3l8.4-12.3l8,10.8l6.9-12l7.3,11.2l8.2-11.2l6.7,10l7.3-10.2l7.3,10.1
										l0.1,1.2l8-12.2l2.4,3.5l5.5-4.8h1.2v-119L147.3,181.3L147.3,181.3z"/>
								</defs>
								<clipPath id="SVGID_00000142888750384798532680000000286179661676495015_">
									<use xlink:href="#SVGID_00000118395523258290637300000015215184350417182647_"  style="overflow:visible;"/>
								</clipPath>
								
									<g transform="matrix(1 0 0 1 3.814697e-06 0)" style="clip-path:url(#SVGID_00000142888750384798532680000000286179661676495015_);">
									
										<image style="overflow:visible;enable-background:new    ;" width="1200" height="900" xlink:href="../../Фитинги/Резьбовые/Металл.jpg"  transform="matrix(0.1749 0 0 0.1749 28.2864 161.4827)">
									</image>
								</g>
							</g>
						</g>
					</g>
				</g>
			</g>
		</g>
	</g>
</g>
<path class="st15" d="M147.3,181.1l-5.4-6.1l-2.4,5.2l-8-12.3l-7.3,11.5l-7.3-11.5l-6.7,11.2l-8.2-11.2l-7.3,10.5L86.9,167
	c-2.4,3.6-4.6,7.3-7,10.8l-7.5-11l-7.9,10.7l-7.1-11.6l-3.2,5.4h-2.5V309l5.8,6.9l7.8-10.3l6.3,10.3l8.4-12.3l8,10.8l6.9-12
	l7.3,11.2l8.2-11.2l6.7,10l7.3-10.2l7.3,10.1l8.1-10.9l2.4,3.5l5.5-4.8h1.2v-119H147.3L147.3,181.1z"/>
<linearGradient id="SVGID_00000065034521147849308000000018007297895218421903_" gradientUnits="userSpaceOnUse" x1="68.4" y1="221.8" x2="68.4" y2="203.4">
	<stop  offset="0" style="stop-color:#434444"/>
	<stop  offset="1" style="stop-color:#383838"/>
</linearGradient>
<rect x="52.7" y="203.4" style="fill:url(#SVGID_00000065034521147849308000000018007297895218421903_);" width="31.4" height="18.4"/>
<linearGradient id="SVGID_00000047041979263125963250000010503301116245244315_" gradientUnits="userSpaceOnUse" x1="68.4" y1="-1168.6876" x2="68.4" y2="-1206.5876" gradientTransform="matrix(1 0 0 -1 0 -946.8347)">
	<stop  offset="0" style="stop-color:#262626"/>
	<stop  offset="1" style="stop-color:#353535"/>
</linearGradient>
<rect x="52.7" y="221.9" style="fill:url(#SVGID_00000047041979263125963250000010503301116245244315_);" width="31.4" height="37.9"/>
<linearGradient id="SVGID_00000114755285552535782360000002915186380782879373_" gradientUnits="userSpaceOnUse" x1="68.4" y1="-1206.7012" x2="68.4" y2="-1225.9011" gradientTransform="matrix(1 0 0 -1 0 -946.8347)">
	<stop  offset="0" style="stop-color:#191919"/>
	<stop  offset="1" style="stop-color:#282828"/>
</linearGradient>
<rect x="52.7" y="259.8" style="fill:url(#SVGID_00000114755285552535782360000002915186380782879373_);" width="31.4" height="19.2"/>
<linearGradient id="SVGID_00000062893718805951817860000005391164338424912772_" gradientUnits="userSpaceOnUse" x1="87.0678" y1="-1145.0372" x2="87.147" y2="-1244.3662" gradientTransform="matrix(1 0 0 -1 0 -946.8347)">
	<stop  offset="0" style="stop-color:#4D4E50"/>
	<stop  offset="0.3101" style="stop-color:#424244"/>
	<stop  offset="0.433" style="stop-color:#666769"/>
	<stop  offset="0.5" style="stop-color:#BCBEC0"/>
	<stop  offset="0.5615" style="stop-color:#808285"/>
	<stop  offset="0.6732" style="stop-color:#E3E4E5"/>
	<stop  offset="0.7682" style="stop-color:#6D6E71"/>
	<stop  offset="0.8799" style="stop-color:#414042"/>
</linearGradient>
<polygon style="fill:url(#SVGID_00000062893718805951817860000005391164338424912772_);" points="90.2,198.2 90.2,283.9 84,279 
	84,203.4 "/>
<linearGradient id="SVGID_00000153697813953052419210000010476938529187605660_" gradientUnits="userSpaceOnUse" x1="87.1" y1="-1230.9347" x2="87.1" y2="-1131.6058" gradientTransform="matrix(1 0 0 -1 0 -946.8347)">
	<stop  offset="0" style="stop-color:#303030"/>
	<stop  offset="0.1068" style="stop-color:#232323"/>
	<stop  offset="0.2055" style="stop-color:#1C1C1C"/>
	<stop  offset="0.3492" style="stop-color:#333333"/>
	<stop  offset="0.6732" style="stop-color:#686868"/>
	<stop  offset="0.9078" style="stop-color:#303030"/>
</linearGradient>
<polygon style="fill:url(#SVGID_00000153697813953052419210000010476938529187605660_);" points="90.2,198.3 90.2,284.1 84,279.1 
	84,203.6 "/>
<linearGradient id="SVGID_00000083801319530231347180000002368587522472726946_" gradientUnits="userSpaceOnUse" x1="100.2" y1="-1145.0347" x2="100.2" y2="-1244.8734" gradientTransform="matrix(1 0 0 -1 0 -946.8347)">
	<stop  offset="0" style="stop-color:#4D4E50"/>
	<stop  offset="0.3101" style="stop-color:#424244"/>
	<stop  offset="0.433" style="stop-color:#666769"/>
	<stop  offset="0.5" style="stop-color:#BCBEC0"/>
	<stop  offset="0.5615" style="stop-color:#808285"/>
	<stop  offset="0.6732" style="stop-color:#E3E4E5"/>
	<stop  offset="0.7682" style="stop-color:#6D6E71"/>
	<stop  offset="0.8799" style="stop-color:#414042"/>
</linearGradient>
<path style="fill:url(#SVGID_00000083801319530231347180000002368587522472726946_);" d="M110.2,205.8v69.6
	c-0.3,1.2-1.2,3.9-3.7,6.1c-1.4,1.3-2.9,2-4,2.4c-4.1,0-8.2,0-12.3,0v-85.7H105c0.9,0.5,2.7,1.8,3.9,4
	C109.8,203.6,110.1,204.9,110.2,205.8z"/>
<linearGradient id="SVGID_00000131340570702085377400000006319072101563004318_" gradientUnits="userSpaceOnUse" x1="100.1" y1="-1231.0348" x2="100.1" y2="-1131.1962" gradientTransform="matrix(1 0 0 -1 0 -946.8347)">
	<stop  offset="0" style="stop-color:#424242"/>
	<stop  offset="0.1068" style="stop-color:#333333"/>
	<stop  offset="0.2055" style="stop-color:#2D2D2D"/>
	<stop  offset="0.3492" style="stop-color:#424244"/>
	<stop  offset="0.6732" style="stop-color:#7F7F7F"/>
	<stop  offset="0.9078" style="stop-color:#414042"/>
</linearGradient>
<path style="fill:url(#SVGID_00000131340570702085377400000006319072101563004318_);" d="M110.1,206.1v69.6
	c-0.3,1.2-1.2,3.9-3.7,6.1c-1.4,1.3-2.9,2-4,2.4c-4.1,0-8.2,0-12.3,0v-85.8h14.8c0.9,0.5,2.7,1.8,3.9,4
	C109.6,203.8,110,205.2,110.1,206.1z"/>
<linearGradient id="SVGID_00000108999522622364550670000001194814061906408837_" gradientUnits="userSpaceOnUse" x1="115.95" y1="-1168.6876" x2="115.95" y2="-1206.5876" gradientTransform="matrix(1 0 0 -1 0 -946.8347)">
	<stop  offset="0" style="stop-color:#4D4E50"/>
	<stop  offset="0.2095" style="stop-color:#424244"/>
	<stop  offset="0.3715" style="stop-color:#666769"/>
	<stop  offset="0.5168" style="stop-color:#939598"/>
	<stop  offset="0.595" style="stop-color:#BCBEC0"/>
	<stop  offset="0.6732" style="stop-color:#808285"/>
	<stop  offset="1" style="stop-color:#424244"/>
</linearGradient>
<polygon style="fill:url(#SVGID_00000108999522622364550670000001194814061906408837_);" points="121.7,240.3 110.2,259.8 
	110.2,221.9 "/>
<linearGradient id="SVGID_00000061459673718229327650000002458026787219548035_" gradientUnits="userSpaceOnUse" x1="115.95" y1="-1206.5867" x2="115.95" y2="-1168.6866" gradientTransform="matrix(1 0 0 -1 0 -946.8347)">
	<stop  offset="0" style="stop-color:#303030"/>
	<stop  offset="0.1068" style="stop-color:#232323"/>
	<stop  offset="0.2055" style="stop-color:#1C1C1C"/>
	<stop  offset="0.3492" style="stop-color:#333333"/>
	<stop  offset="0.6732" style="stop-color:#686868"/>
	<stop  offset="0.9078" style="stop-color:#303030"/>
</linearGradient>
<polygon style="fill:url(#SVGID_00000061459673718229327650000002458026787219548035_);" points="121.7,240.3 110.2,259.8 
	110.2,221.9 "/>
<rect x="51.6" y="203.4" class="st25" width="1" height="75.5"/>
<linearGradient id="SVGID_00000103970612620601647520000012213592369995456931_" gradientUnits="userSpaceOnUse" x1="52.7" y1="-1150.2833" x2="52.7" y2="-1168.7102" gradientTransform="matrix(1 0 0 -1 0 -946.8347)">
	<stop  offset="0" style="stop-color:#262626"/>
	<stop  offset="1" style="stop-color:#353535"/>
</linearGradient>
<path style="fill:url(#SVGID_00000103970612620601647520000012213592369995456931_);" d="M53.4,221.9h-1.8v-18.4h1.8
	c0.3,2.7,0.4,5.5,0.4,8.6C53.8,215.5,53.6,218.8,53.4,221.9z"/>
<linearGradient id="SVGID_00000093157619910122531580000006682931955878959749_" gradientUnits="userSpaceOnUse" x1="52.7" y1="-1206.5867" x2="52.7" y2="-1168.6866" gradientTransform="matrix(1 0 0 -1 0 -946.8347)">
	<stop  offset="0" style="stop-color:#191919"/>
	<stop  offset="1" style="stop-color:#282828"/>
</linearGradient>
<path style="fill:url(#SVGID_00000093157619910122531580000006682931955878959749_);" d="M53.4,259.8h-1.8v-37.9h1.8
	c0.3,5.5,0.4,11.3,0.4,17.6C53.8,246.7,53.6,253.5,53.4,259.8z"/>
<linearGradient id="SVGID_00000038384245677636064070000002840406829487922863_" gradientUnits="userSpaceOnUse" x1="52.7" y1="-1225.7683" x2="52.7" y2="-1206.5684" gradientTransform="matrix(1 0 0 -1 0 -946.8347)">
	<stop  offset="0" style="stop-color:#262626"/>
	<stop  offset="1" style="stop-color:#353535"/>
</linearGradient>
<path style="fill:url(#SVGID_00000038384245677636064070000002840406829487922863_);" d="M53.4,279h-1.8v-19.2h1.8
	c0.3,2.7,0.4,5.8,0.4,8.9C53.8,272.3,53.6,275.8,53.4,279z"/>
<linearGradient id="SVGID_00000126292790033968469380000006861349382712532396_" gradientUnits="userSpaceOnUse" x1="-617.2998" y1="-190.2618" x2="-617.2998" y2="-190.2618" gradientTransform="matrix(0 -1 -1 0 103.8382 -636.8998)">
	<stop  offset="0" style="stop-color:#58595B"/>
	<stop  offset="1" style="stop-color:#FFFFFF;stop-opacity:0"/>
</linearGradient>
<path style="fill:url(#SVGID_00000126292790033968469380000006861349382712532396_);" d="M294.1-19.6"/>
<image style="overflow:visible;" width="200" height="200" xlink:href="../../pepsi.png"  transform="matrix(3.101124e-02 0 0 3.101124e-02 98.8764 71.7753)">
</image>
</svg>
