<?xml version="1.0" encoding="utf-8"?>
<!-- Generator: Adobe Illustrator 25.4.1, SVG Export Plug-In . SVG Version: 6.00 Build 0)  -->
<svg version="1.1" id="Слой_1" xmlns="http://www.w3.org/2000/svg" xmlns:xlink="http://www.w3.org/1999/xlink" x="0px" y="0px"
	 viewBox="0 0 100 160" style="enable-background:new 0 0 100 160;" xml:space="preserve">
<style type="text/css">
	.st0{fill:#D2D3D4;}
	.st1{fill:#515051;}
	.st2{fill:#D6D7D7;}
	.st3{fill:url(#SVGID_1_);}
	.st4{fill:#AAAAAA;}
	.st5{fill:url(#SVGID_00000008854220176191428210000011969033307243716533_);}
	.st6{fill:url(#SVGID_00000147933250254053288840000006209675156989859458_);}
	.st7{fill:url(#SVGID_00000098935977661304836180000003911389107290630324_);}
	.st8{fill:#4B4B4D;}
	.st9{fill:url(#SVGID_00000036971470383105036180000006837675042870425733_);}
	.st10{fill:url(#SVGID_00000098196894310107615200000009868466752218742667_);}
	.st11{fill:url(#SVGID_00000170239212113447602370000005409654330624439720_);}
	.st12{fill:url(#SVGID_00000063635019690719248050000006075931839685713079_);}
	.st13{fill:url(#SVGID_00000067935205283953974660000004080806936858710691_);}
	.st14{fill:url(#SVGID_00000056427796534984246600000012461955133586027197_);}
	.st15{fill:url(#SVGID_00000079472452670635949270000017083974126954169754_);}
	.st16{fill:url(#SVGID_00000131369877058872159280000015844037080782569346_);}
	.st17{fill:url(#SVGID_00000151512020518107660360000001936000031006261419_);}
	.st18{fill:url(#SVGID_00000142859571831744364400000015780353416256581041_);}
	.st19{fill:url(#SVGID_00000081606274472825983560000013967785605168760464_);}
	.st20{fill:url(#SVGID_00000155138195818694378480000000480212300800860594_);}
	.st21{opacity:0.66;fill:url(#SVGID_00000173133590489233289700000004544503929174246811_);enable-background:new    ;}
	.st22{fill:url(#SVGID_00000148630038704841735550000016799700200553152951_);}
</style>
<rect x="13.6" y="49.1" class="st0" width="4.9" height="22"/>
<rect x="13.6" y="91.2" class="st1" width="4.9" height="22"/>
<rect x="37.7" y="91.2" class="st1" width="4.9" height="22"/>
<rect x="37.7" y="46.2" class="st2" width="4.9" height="22"/>
<linearGradient id="SVGID_1_" gradientUnits="userSpaceOnUse" x1="28.1433" y1="-2649.6545" x2="28.1433" y2="-2624.6479" gradientTransform="matrix(1 0 0 -1 0 -2593.8896)">
	<stop  offset="0" style="stop-color:#F4F4F4"/>
	<stop  offset="1" style="stop-color:#BABABA"/>
</linearGradient>
<path class="st3" d="M15.4,30.8c8.4,0,16.8,0,25.2,0c0.7,2.2,1.4,4.4,2.1,6.7c0,4.6,0,9.1,0,13.6c-0.8,1.5-1.7,3.1-2.5,4.7H15.5
	c-0.6-1.5-1.3-3.1-1.9-4.7c0-4.6,0-9.1,0-13.6C14.2,35.3,14.8,33,15.4,30.8z"/>
<path class="st4" d="M15.5,55.8c-0.6,3.6-1.3,7.2-1.9,10.7c0,9.2,0,18.4,0,27.7c0.6,3.3,1.2,6.6,1.9,10h24.7
	c0.8-3.3,1.7-6.7,2.5-10.1c0-9.2,0-18.3,0-27.6c-0.8-3.6-1.7-7.2-2.5-10.7H15.5z"/>
<linearGradient id="SVGID_00000151533438013990236320000009541276748978928048_" gradientUnits="userSpaceOnUse" x1="28.1112" y1="-2723.1313" x2="28.1112" y2="-2692.5601" gradientTransform="matrix(1 0 0 -1 0 -2593.8896)">
	<stop  offset="0" style="stop-color:#727272"/>
	<stop  offset="0.3359" style="stop-color:#6E6E6E"/>
	<stop  offset="0.6441" style="stop-color:#636363"/>
	<stop  offset="0.9406" style="stop-color:#515151"/>
	<stop  offset="1" style="stop-color:#4C4C4C"/>
</linearGradient>
<polygon style="fill:url(#SVGID_00000151533438013990236320000009541276748978928048_);" points="15.4,104.2 13.6,109.9 13.6,122.6 
	15.4,129.2 40.6,129.2 42.7,122.6 42.7,109.9 40.2,104.2 "/>
<linearGradient id="SVGID_00000109030925599625724540000013912390302766840710_" gradientUnits="userSpaceOnUse" x1="46.9465" y1="-2716.5103" x2="46.9465" y2="-2631.3335" gradientTransform="matrix(1 0 0 -1 0 -2593.8896)">
	<stop  offset="0" style="stop-color:#999898"/>
	<stop  offset="0.1963" style="stop-color:#4F4F4F"/>
	<stop  offset="0.2507" style="stop-color:#5B5B5B"/>
	<stop  offset="0.3499" style="stop-color:#7C7C7C"/>
	<stop  offset="0.3704" style="stop-color:#848484"/>
	<stop  offset="0.433" style="stop-color:#878787"/>
	<stop  offset="0.5974" style="stop-color:#D9D9D9"/>
	<stop  offset="0.6843" style="stop-color:#FFFFFF"/>
	<stop  offset="0.9078" style="stop-color:#B7B7B7"/>
	<stop  offset="1" style="stop-color:#C6C6C6"/>
</linearGradient>
<rect x="42.7" y="37.4" style="fill:url(#SVGID_00000109030925599625724540000013912390302766840710_);" width="8.5" height="85.2"/>
<linearGradient id="SVGID_00000104687583659028567320000011338161665364052129_" gradientUnits="userSpaceOnUse" x1="7.7009" y1="-2716.5103" x2="7.7009" y2="-2631.3335" gradientTransform="matrix(1 0 0 -1 0 -2593.8896)">
	<stop  offset="0" style="stop-color:#999898"/>
	<stop  offset="0.1963" style="stop-color:#4F4F4F"/>
	<stop  offset="0.2507" style="stop-color:#5B5B5B"/>
	<stop  offset="0.3499" style="stop-color:#7C7C7C"/>
	<stop  offset="0.3704" style="stop-color:#848484"/>
	<stop  offset="0.433" style="stop-color:#878787"/>
	<stop  offset="0.5974" style="stop-color:#D9D9D9"/>
	<stop  offset="0.6843" style="stop-color:#FFFFFF"/>
	<stop  offset="0.9078" style="stop-color:#B7B7B7"/>
	<stop  offset="1" style="stop-color:#C6C6C6"/>
</linearGradient>
<polygon style="fill:url(#SVGID_00000104687583659028567320000011338161665364052129_);" points="13.6,37.4 3.1,37.4 1.9,38.5 
	1.9,120.8 3.3,122.6 13.6,122.6 "/>
<polygon class="st8" points="51.2,120.2 52.5,119.4 52.5,40.9 51.2,39.1 "/>
<linearGradient id="SVGID_00000042014212121955332640000007543055751059714690_" gradientUnits="userSpaceOnUse" x1="51.8642" y1="-2714.0674" x2="51.8642" y2="-2633.0049" gradientTransform="matrix(1 0 0 -1 0 -2593.8896)">
	<stop  offset="0" style="stop-color:#E0E0E0;stop-opacity:0.4"/>
	<stop  offset="1.207501e-02" style="stop-color:#D7D6D6;stop-opacity:0.3952"/>
	<stop  offset="6.361371e-02" style="stop-color:#B3B2B2;stop-opacity:0.3746"/>
	<stop  offset="0.1215" style="stop-color:#939292;stop-opacity:0.3514"/>
	<stop  offset="0.1856" style="stop-color:#797677;stop-opacity:0.3258"/>
	<stop  offset="0.2579" style="stop-color:#636061;stop-opacity:0.2968"/>
	<stop  offset="0.3424" style="stop-color:#534F50;stop-opacity:0.263"/>
	<stop  offset="0.4468" style="stop-color:#474445;stop-opacity:0.2213"/>
	<stop  offset="0.5933" style="stop-color:#413D3E;stop-opacity:0.1627"/>
	<stop  offset="1" style="stop-color:#3F3B3C;stop-opacity:0"/>
</linearGradient>
<polygon style="fill:url(#SVGID_00000042014212121955332640000007543055751059714690_);" points="51.2,120.2 52.5,119.4 52.5,40.9 
	51.2,39.1 "/>
<linearGradient id="SVGID_00000180344233563039787950000007761207875945113767_" gradientUnits="userSpaceOnUse" x1="96.349" y1="-2704.8748" x2="96.349" y2="-2642.7117" gradientTransform="matrix(1 0 0 -1 0 -2593.8896)">
	<stop  offset="0" style="stop-color:#999898"/>
	<stop  offset="0.1963" style="stop-color:#4F4F4F"/>
	<stop  offset="0.2507" style="stop-color:#5B5B5B"/>
	<stop  offset="0.3499" style="stop-color:#7C7C7C"/>
	<stop  offset="0.3704" style="stop-color:#848484"/>
	<stop  offset="0.433" style="stop-color:#878787"/>
	<stop  offset="0.5974" style="stop-color:#D9D9D9"/>
	<stop  offset="0.6843" style="stop-color:#FFFFFF"/>
	<stop  offset="0.9078" style="stop-color:#B7B7B7"/>
	<stop  offset="1" style="stop-color:#C6C6C6"/>
</linearGradient>
<polygon style="fill:url(#SVGID_00000180344233563039787950000007761207875945113767_);" points="98.1,107.4 94.5,111 94.5,48.8 
	98.1,51.8 "/>
<path class="st8" d="M92.3,52.1c0.1-0.1,0.3-0.2,0.3-0.3c1-0.9,0.8-2,1.7-2.9c0.1-0.1,0.1-0.1,0.2-0.1c0,20.7,0,41.5,0,62.2
	L92.3,52.1z"/>
<linearGradient id="SVGID_00000065066707576006092780000017543023988002261688_" gradientUnits="userSpaceOnUse" x1="89.1685" y1="3677.1594" x2="89.1685" y2="3613.6467" gradientTransform="matrix(1 0 0 1 0 -3566.1104)">
	<stop  offset="0" style="stop-color:#999898"/>
	<stop  offset="0.1963" style="stop-color:#4F4F4F"/>
	<stop  offset="0.2507" style="stop-color:#5B5B5B"/>
	<stop  offset="0.3499" style="stop-color:#7C7C7C"/>
	<stop  offset="0.3704" style="stop-color:#848484"/>
	<stop  offset="0.433" style="stop-color:#878787"/>
	<stop  offset="0.5974" style="stop-color:#D9D9D9"/>
	<stop  offset="0.6843" style="stop-color:#FFFFFF"/>
	<stop  offset="0.9078" style="stop-color:#B7B7B7"/>
	<stop  offset="1" style="stop-color:#C6C6C6"/>
</linearGradient>
<path style="fill:url(#SVGID_00000065066707576006092780000017543023988002261688_);" d="M89.3,47.5c0,0,0.1,0.1,0.2,0.1
	c1.5,1.2,1,3.3,2.5,4.2c0.1,0,0.1,0,0.1,0.1c0.1,0.1,0.2,0.1,0.2,0.1c0.3,8.2,0.6,16.5,1,24.7c0.1,1.6,0.1,3.2,0.2,4.8
	c0.4,9.8,0.8,19.6,1.1,29.4c-0.1-0.1-0.3-0.2-0.4-0.4c-0.4-0.4-0.6-0.8-1-2.1c-0.2-0.5-0.3-1-0.4-1.3c-0.1-0.1-0.1-0.1-0.1-0.1
	C84.3,98.8,79.4,82.2,89.3,47.5z"/>
<path class="st8" d="M85.6,52.2c0.1-0.1,0.2-0.1,0.3-0.3c1.7-1.4,1.5-3.5,3.1-4.3c0.1,0,0.1-0.1,0.1-0.1c1.2,19.9,2.2,39.7,3.4,59.6
	c-0.1,0-0.2,0-0.2,0c-0.1,0-0.2,0.1-0.3,0.1c-1.2,0.5-1.2,2-2.3,3.9c-0.1,0.2-0.4,0.6-0.7,1c-0.6-10-1.2-19.9-1.8-29.8
	C86.7,72.2,86.2,62.2,85.6,52.2z"/>
<path class="st8" d="M82.2,112.2c0,0,0.1-0.1,0.2-0.2c1.6-1.5,1.3-3.3,2.9-4.4c0.1,0,0.1,0,0.1-0.1c0.1-0.1,0.2-0.1,0.2-0.1
	c-0.6-10-1.2-19.9-1.7-30c-0.6-10-1.1-20-1.6-30c-0.1,0-0.1,0-0.2,0.1c-0.1,0-0.1,0-0.1,0.1c-1.6,0.6-1.3,3.1-3,4.4
	c-0.1,0.1-0.3,0.2-0.3,0.2C79.8,72.2,81,92.2,82.2,112.2z"/>
<linearGradient id="SVGID_00000091710693308737325670000009735132110852769977_" gradientUnits="userSpaceOnUse" x1="78.7672" y1="3678.3169" x2="78.7672" y2="3613.6467" gradientTransform="matrix(1 0 0 1 0 -3566.1104)">
	<stop  offset="0" style="stop-color:#999898"/>
	<stop  offset="0.1963" style="stop-color:#4F4F4F"/>
	<stop  offset="0.2507" style="stop-color:#5B5B5B"/>
	<stop  offset="0.3499" style="stop-color:#7C7C7C"/>
	<stop  offset="0.3704" style="stop-color:#848484"/>
	<stop  offset="0.433" style="stop-color:#878787"/>
	<stop  offset="0.5974" style="stop-color:#D9D9D9"/>
	<stop  offset="0.6843" style="stop-color:#FFFFFF"/>
	<stop  offset="0.9078" style="stop-color:#B7B7B7"/>
	<stop  offset="1" style="stop-color:#C6C6C6"/>
</linearGradient>
<path style="fill:url(#SVGID_00000091710693308737325670000009735132110852769977_);" d="M75.3,47.5c0.1,0,0.1,0.1,0.3,0.1
	c1.6,1,1.2,3.3,2.8,4.3c0.1,0.1,0.2,0.1,0.3,0.2c1.2,20,2.4,40,3.5,60c-0.1-0.1-0.2-0.1-0.3-0.1c-1.8-1-1.5-3.1-3.3-4.5
	c-0.1-0.1-0.1-0.1-0.1-0.1C77.4,87.5,76.4,67.5,75.3,47.5z"/>
<path class="st8" d="M71.6,52c0.1,0,0.2-0.1,0.4-0.2c1.7-1,1.5-3.7,3.1-4.2c0.1,0,0.1-0.1,0.3-0.1c1,20,2.1,39.9,3.1,59.9
	c-0.1,0.1-0.1,0.1-0.1,0.1c-1.7,1.2-1.4,3.2-3.1,4.6c-0.1,0.1-0.1,0.1-0.1,0.1C73.8,92.1,72.8,72.1,71.6,52z"/>
<linearGradient id="SVGID_00000178904716618055899270000014964912536576417452_" gradientUnits="userSpaceOnUse" x1="71.6638" y1="3678.3811" x2="71.6638" y2="3613.9038" gradientTransform="matrix(1 0 0 1 0 -3566.1104)">
	<stop  offset="0" style="stop-color:#999898"/>
	<stop  offset="0.1963" style="stop-color:#4F4F4F"/>
	<stop  offset="0.2507" style="stop-color:#5B5B5B"/>
	<stop  offset="0.3499" style="stop-color:#7C7C7C"/>
	<stop  offset="0.3704" style="stop-color:#848484"/>
	<stop  offset="0.433" style="stop-color:#878787"/>
	<stop  offset="0.5974" style="stop-color:#D9D9D9"/>
	<stop  offset="0.6843" style="stop-color:#FFFFFF"/>
	<stop  offset="0.9078" style="stop-color:#B7B7B7"/>
	<stop  offset="1" style="stop-color:#C6C6C6"/>
</linearGradient>
<path style="fill:url(#SVGID_00000178904716618055899270000014964912536576417452_);" d="M68.3,47.8c0.1,0,0.1,0.1,0.2,0.1
	c1.7,1,1.5,3.7,2.9,4.1h0.3c0.3,5,0.6,10,0.9,15.1c0.3,4.9,0.5,9.7,0.8,14.5c0,0.1,0,0.3,0,0.4c0.2,3,0.4,5.4,0.4,7.1
	c0.1,2.1,0.1,3.3,0.3,5.8c0.1,2.3,0.3,4,0.3,4.8c0.2,2.5,0.4,6.4,0.7,12.5c-0.1,0-0.3-0.1-0.4-0.1c-1.8-1.2-1.4-3.6-3.3-4.8
	c-0.1-0.1-0.1-0.1-0.2-0.1C70.3,87.3,69.3,67.6,68.3,47.8z"/>
<path class="st8" d="M68.3,112.3c0.1-0.1,0.1-0.1,0.2-0.2c1.5-1.7,1.2-3.5,2.7-4.9c0.1-0.1,0.1-0.1,0.2-0.1
	c-1-19.8-2.1-39.5-3.1-59.3c-0.3,0.1-0.4,0.2-0.6,0.3c-1.2,0.7-1.1,2-2.4,3.6C65.2,51.8,65,51.9,65,52
	C66.1,72.1,67.2,92.2,68.3,112.3z"/>
<linearGradient id="SVGID_00000181053440021895757650000000635333521893217667_" gradientUnits="userSpaceOnUse" x1="93.424" y1="3677.0955" x2="93.424" y2="3614.9324" gradientTransform="matrix(1 0 0 1 0 -3566.1104)">
	<stop  offset="0" style="stop-color:#E0E0E0;stop-opacity:0.4"/>
	<stop  offset="1" style="stop-color:#3F3B3C;stop-opacity:0"/>
</linearGradient>
<path style="fill:url(#SVGID_00000181053440021895757650000000635333521893217667_);" d="M92.3,52.1c0.1-0.1,0.3-0.2,0.3-0.3
	c1-0.9,0.8-2,1.7-2.9c0.1-0.1,0.1-0.1,0.2-0.1c0,20.7,0,41.5,0,62.2L92.3,52.1z"/>
<linearGradient id="SVGID_00000093865619509616166650000009155482882666564522_" gradientUnits="userSpaceOnUse" x1="89.117" y1="3678.124" x2="89.117" y2="3613.6467" gradientTransform="matrix(1 0 0 1 0 -3566.1104)">
	<stop  offset="0" style="stop-color:#E0E0E0;stop-opacity:0.4"/>
	<stop  offset="1" style="stop-color:#3F3B3C;stop-opacity:0"/>
</linearGradient>
<path style="fill:url(#SVGID_00000093865619509616166650000009155482882666564522_);" d="M85.6,52.2c0.1-0.1,0.2-0.1,0.3-0.3
	c1.7-1.4,1.5-3.5,3.1-4.3c0.1,0,0.1-0.1,0.1-0.1c1.2,19.9,2.2,39.7,3.4,59.6c-0.1,0-0.2,0-0.2,0c-1.4,0.3-1.3,2.7-3.3,4.9
	C89,112.1,86.8,72.2,85.6,52.2z"/>
<linearGradient id="SVGID_00000054232444816166822290000007530057694251240837_" gradientUnits="userSpaceOnUse" x1="82.0779" y1="3678.3169" x2="82.0779" y2="3613.6467" gradientTransform="matrix(1 0 0 1 0 -3566.1104)">
	<stop  offset="0" style="stop-color:#E0E0E0;stop-opacity:0.4"/>
	<stop  offset="1" style="stop-color:#3F3B3C;stop-opacity:0"/>
</linearGradient>
<path style="fill:url(#SVGID_00000054232444816166822290000007530057694251240837_);" d="M82.2,112.2c0,0,0.1-0.1,0.2-0.2
	c1.6-1.5,1.3-3.3,2.9-4.4c0.1,0,0.1-0.1,0.3-0.1c-1.2-20-2.2-40-3.4-60c-0.1,0-0.1,0.1-0.2,0.1c-1.6,0.6-1.3,3.1-3,4.4
	c-0.1,0.1-0.3,0.2-0.3,0.2C79.8,72.2,81,92.2,82.2,112.2z"/>
<linearGradient id="SVGID_00000054967933159212289670000015493080540713992104_" gradientUnits="userSpaceOnUse" x1="75.0387" y1="3678.3811" x2="75.0387" y2="3613.6467" gradientTransform="matrix(1 0 0 1 0 -3566.1104)">
	<stop  offset="0" style="stop-color:#E0E0E0;stop-opacity:0.4"/>
	<stop  offset="1" style="stop-color:#3F3B3C;stop-opacity:0"/>
</linearGradient>
<path style="fill:url(#SVGID_00000054967933159212289670000015493080540713992104_);" d="M71.6,52c0.1,0,0.2-0.1,0.4-0.2
	c1.7-1,1.5-3.7,3.1-4.2c0.1,0,0.1-0.1,0.3-0.1c1,20,2.1,39.9,3.1,59.9c-0.1,0.1-0.1,0.1-0.1,0.1c-1.7,1.2-1.4,3.2-3.1,4.6
	c-0.1,0.1-0.1,0.1-0.1,0.1C73.8,92.1,72.8,72.1,71.6,52z"/>
<linearGradient id="SVGID_00000067940112806649591430000015496354632978429102_" gradientUnits="userSpaceOnUse" x1="68.1603" y1="3678.4453" x2="68.1603" y2="3613.9038" gradientTransform="matrix(1 0 0 1 0 -3566.1104)">
	<stop  offset="0" style="stop-color:#E0E0E0;stop-opacity:0.4"/>
	<stop  offset="1" style="stop-color:#3F3B3C;stop-opacity:0"/>
</linearGradient>
<path style="fill:url(#SVGID_00000067940112806649591430000015496354632978429102_);" d="M68.3,112.3c0.1-0.1,0.1-0.1,0.2-0.2
	c1.5-1.7,1.2-3.5,2.7-4.9c0.1-0.1,0.1-0.1,0.2-0.1c-1-19.8-2.1-39.5-3.1-59.3c-0.3,0.1-0.4,0.2-0.6,0.3c-1.2,0.7-1.1,2-2.4,3.6
	C65.2,51.8,65,51.9,65,52C66.1,72.1,67.2,92.2,68.3,112.3z"/>
<linearGradient id="SVGID_00000142891839114198484930000005462533764524369855_" gradientUnits="userSpaceOnUse" x1="66.1675" y1="3678.4453" x2="66.1675" y2="3618.0823" gradientTransform="matrix(1 0 0 1 0 -3566.1104)">
	<stop  offset="0" style="stop-color:#999898"/>
	<stop  offset="0.1963" style="stop-color:#4F4F4F"/>
	<stop  offset="0.2507" style="stop-color:#5B5B5B"/>
	<stop  offset="0.3499" style="stop-color:#7C7C7C"/>
	<stop  offset="0.3704" style="stop-color:#848484"/>
	<stop  offset="0.433" style="stop-color:#878787"/>
	<stop  offset="0.5974" style="stop-color:#D9D9D9"/>
	<stop  offset="0.6843" style="stop-color:#FFFFFF"/>
	<stop  offset="0.9078" style="stop-color:#B7B7B7"/>
	<stop  offset="1" style="stop-color:#C6C6C6"/>
</linearGradient>
<path style="fill:url(#SVGID_00000142891839114198484930000005462533764524369855_);" d="M64.1,107.6c0.8,0.9,1.4,1.7,1.9,2.2
	c0.4,0.6,1,1.4,1.9,2.2c0.1,0.1,0.3,0.2,0.3,0.3C67.2,92.2,66.1,72.1,65,52h-1C64.1,70.5,64.1,89.1,64.1,107.6z"/>
<linearGradient id="SVGID_00000020362108440052600460000005266723619878319236_" gradientUnits="userSpaceOnUse" x1="58.2927" y1="-2701.4675" x2="58.2927" y2="-2645.8618" gradientTransform="matrix(1 0 0 -1 0 -2593.8896)">
	<stop  offset="0" style="stop-color:#999898"/>
	<stop  offset="0.1963" style="stop-color:#4F4F4F"/>
	<stop  offset="0.2507" style="stop-color:#5B5B5B"/>
	<stop  offset="0.3499" style="stop-color:#7C7C7C"/>
	<stop  offset="0.3704" style="stop-color:#848484"/>
	<stop  offset="0.433" style="stop-color:#878787"/>
	<stop  offset="0.5974" style="stop-color:#D9D9D9"/>
	<stop  offset="0.6843" style="stop-color:#FFFFFF"/>
	<stop  offset="0.9078" style="stop-color:#B7B7B7"/>
	<stop  offset="1" style="stop-color:#C6C6C6"/>
</linearGradient>
<path style="fill:url(#SVGID_00000020362108440052600460000005266723619878319236_);" d="M52.4,52c1.4,0.4,3.3,0.8,5.6,0.8
	c2.5,0,4.6-0.4,6.1-0.8c0,18.5,0,37,0,55.6c-1.6-0.4-3.7-0.7-6.2-0.6c-2.1,0.1-4,0.3-5.4,0.6C52.4,89,52.4,70.5,52.4,52z"/>
<linearGradient id="SVGID_00000057867874571577497020000010564247163746651791_" gradientUnits="userSpaceOnUse" x1="52.4115" y1="-2673.6003" x2="64.1112" y2="-2673.6003" gradientTransform="matrix(1 0 0 -1 0 -2593.8896)">
	<stop  offset="0" style="stop-color:#3F3B3C"/>
	<stop  offset="0.7317" style="stop-color:#3F3B3C;stop-opacity:0"/>
</linearGradient>
<path style="opacity:0.66;fill:url(#SVGID_00000057867874571577497020000010564247163746651791_);enable-background:new    ;" d="
	M52.4,51.8c1.4,0.4,3.3,0.8,5.6,0.8c2.5,0,4.6-0.4,6.1-0.8c0,18.5,0,37,0,55.6c-0.8-0.2-1.7-0.4-2.8-0.5c-0.8-0.1-2.1-0.2-3.5-0.1
	c-1.3,0.1-3.3,0.2-5.5,0.8c0-9.3,0.1-18.6,0.1-28C52.4,70.4,52.4,61.1,52.4,51.8z"/>
<linearGradient id="SVGID_00000094588551142740541180000016667193289579695248_" gradientUnits="userSpaceOnUse" x1="85.6456" y1="3678.124" x2="85.6456" y2="3613.6467" gradientTransform="matrix(1 0 0 1 0 -3566.1104)">
	<stop  offset="0" style="stop-color:#999898"/>
	<stop  offset="0.1963" style="stop-color:#4F4F4F"/>
	<stop  offset="0.2507" style="stop-color:#5B5B5B"/>
	<stop  offset="0.3499" style="stop-color:#7C7C7C"/>
	<stop  offset="0.3704" style="stop-color:#848484"/>
	<stop  offset="0.433" style="stop-color:#878787"/>
	<stop  offset="0.5974" style="stop-color:#D9D9D9"/>
	<stop  offset="0.6843" style="stop-color:#FFFFFF"/>
	<stop  offset="0.9078" style="stop-color:#B7B7B7"/>
	<stop  offset="1" style="stop-color:#C6C6C6"/>
</linearGradient>
<path style="fill:url(#SVGID_00000094588551142740541180000016667193289579695248_);" d="M82.2,47.5c0.1,0,0.1,0.1,0.3,0.2
	c1.7,1.2,1.3,3.5,2.9,4.3c0.1,0,0.1,0.1,0.3,0.1c0.6,10,1.1,20,1.7,30c0.6,10,1.2,19.9,1.8,29.8c-0.5-0.4-1-1-1.6-1.7
	c-0.8-1-1.3-1.9-1.7-2.7c0,0-0.1-0.1-0.1-0.1c-0.1,0-0.1,0-0.1,0c-0.7-12.8-1.3-22.7-1.7-29.5c-0.1-2.4-0.3-5.1-0.5-8.9
	C82.9,59.9,82.5,52.6,82.2,47.5z"/>
<image style="overflow:visible;" width="200" height="200" xlink:href="../../pepsi.png"  transform="matrix(0.105 0 0 0.105 17.6477 68.733)">
</image>
</svg>
