<?xml version="1.0" encoding="utf-8"?>
<!-- Generator: Adobe Illustrator 25.4.1, SVG Export Plug-In . SVG Version: 6.00 Build 0)  -->
<svg version="1.1" id="Слой_1" xmlns="http://www.w3.org/2000/svg" xmlns:xlink="http://www.w3.org/1999/xlink" x="0px" y="0px"
	 viewBox="0 0 200 320" style="enable-background:new 0 0 200 320;" xml:space="preserve">
<style type="text/css">
	.st0{clip-path:url(#SVGID_00000085244646664345437590000012132499569366174649_);}
	.st1{fill:none;stroke:#C3C3C4;stroke-miterlimit:10;}
	.st2{fill:url(#SVGID_00000137096691249016590790000000321301225683450529_);}
	.st3{fill:url(#SVGID_00000180345915141605304800000009503872006221974956_);}
	.st4{fill:url(#SVGID_00000126301988116240651390000009952716402627006337_);}
	.st5{fill:#D6D7D7;}
	.st6{fill:#515051;}
	.st7{fill:url(#SVGID_00000083768718212974777410000001262922595595720120_);}
	.st8{fill:url(#SVGID_00000106852244960444897840000000660382817761715607_);}
	.st9{fill:#AAAAAA;}
	.st10{fill:url(#SVGID_00000025408669159270448950000000655129143524573364_);}
	.st11{fill:url(#SVGID_00000178912470344728706220000007064196135064274823_);}
	.st12{fill:url(#SVGID_00000178201124386552152310000008880598286142201510_);}
	.st13{fill:url(#SVGID_00000019638175325847338750000000427828191786510212_);}
	.st14{fill:url(#SVGID_00000183956909186029158160000006479116435231297434_);}
	.st15{opacity:0.5;fill:url(#SVGID_00000031915883463253660460000006593382808236146105_);enable-background:new    ;}
	.st16{fill:url(#SVGID_00000013902304326409903870000007555155284509181086_);}
	.st17{fill:url(#SVGID_00000108991195399854208330000010894950459955588998_);}
	.st18{fill:url(#SVGID_00000037681692017370510960000010887259622940943755_);}
	.st19{fill:url(#SVGID_00000109719361761530734460000001596488019738180798_);}
	.st20{fill:url(#SVGID_00000122703235421021445770000003481660725843410061_);}
	.st21{fill:url(#SVGID_00000047774231406192398720000015574527098614064559_);}
	.st22{fill:url(#SVGID_00000107590901731198549720000013898728649159309978_);}
	.st23{fill:url(#SVGID_00000008114769680357854070000011519682839747147656_);}
	.st24{fill:url(#SVGID_00000003076961146121828530000016304073952560742030_);}
	.st25{fill:url(#SVGID_00000149356277613121097740000008576095658152381341_);}
	.st26{fill:url(#SVGID_00000145759002745381466050000002436678147941668525_);}
	.st27{fill:url(#SVGID_00000127741272252394582750000008162253936279597957_);}
	.st28{fill:url(#SVGID_00000108275229078799686940000003273190618242025355_);}
	.st29{fill:url(#SVGID_00000145056188702793066380000003302325076924062867_);}
	.st30{fill:url(#SVGID_00000098196697458719536060000006890646934091563662_);}
	.st31{fill:url(#SVGID_00000180337908767347565410000011423187957826173327_);}
	.st32{fill:url(#SVGID_00000020380636357874713070000009162540221700206237_);}
	.st33{fill:url(#SVGID_00000017499546989420438450000004371002758290773650_);}
</style>
<g>
	<g>
		<g>
			<defs>
				<path id="SVGID_1_" d="M190.8,192.6h-65.3c0-2.3,0-4.6,0-6.9c0-2.3,0-4.6,0-6.9c-0.3-0.5-0.5-1-0.8-1.5c0,0-27.5-0.1-41.2-0.1
					c-0.5,0.5-1,1.1-1.4,1.6c0,6-0.1,11.8-0.1,17.7c0,0.4,0,1.4,0,1.4H67.7h-4.2l-5.2-3.5l-3.1,3.5c0,0,0,0,0,0.1l-3.7-6.8l-3.1,7.3
					l-3.8-6.9l-3.1,7.2l-3.8-6.8l-3.1,7.3l-3.7-6.9l-3.1,7.2l-3.8-6.8l-3.1,7.2l-3.8-6.8l-3.1,7.2l-3.8-6.8l-3.1,7.2l-2.7-4.2
					l-1.4,5v80.2l5.2,4.5l3.1-4.8l3.8,6.9l3.1-6.5l3.7,6.9l3.1-6.5l3.8,6.9l3.1-6.5l3.8,6.9l3.1-6.5l3.8,6.9l3.1-6.5l3.7,6.8
					l3.1-6.4l3.8,6.8l3.1-6.4c1,1.2,1.8,2.4,2.7,3.7l1.1-3l18.6,0.1c0,0,0,12.5,0,18.8c0,0.1,0,0.1,0,0.1l1.6,1.6
					c13.7,0,40.9-0.1,40.9-0.1l1.2-1.4c0,0,0.1-6.9,0-7.3c0-3.3,0-6.7,0-9.9h65.2l5.6-5.4v-83.8L190.8,192.6z"/>
			</defs>
			<clipPath id="SVGID_00000084518308752017709390000004662829863660214700_">
				<use xlink:href="#SVGID_1_"  style="overflow:visible;"/>
			</clipPath>
			<g style="clip-path:url(#SVGID_00000084518308752017709390000004662829863660214700_);">
				
					<image style="overflow:visible;enable-background:new    ;" width="1200" height="900" xlink:href="../../Фитинги/Резьбовые/Металл.jpg"  transform="matrix(0.2025 0 0 0.2025 -17.3297 150.3299)">
				</image>
			</g>
		</g>
	</g>
</g>
<path class="st1" d="M190.8,192.6h-65.3c0-2.3,0-4.6,0-6.9c0-2.3,0-4.6,0-6.9c-0.3-0.5-0.5-1-0.8-1.5c0,0-27.5-0.1-41.2-0.1
	c-0.5,0.5-1,1.1-1.4,1.6c0,6-0.1,11.8-0.1,17.7c0,0.4,0,1.4,0,1.4H67.7h-4.2l-5.2-3.5l-3.1,3.5c0,0,0,0,0,0.1l-3.7-6.8l-3.1,7.3
	l-3.8-6.9l-3.1,7.2l-3.8-6.8l-3.1,7.3l-3.7-6.9l-3.1,7.2l-3.8-6.8l-3.1,7.2l-3.8-6.8l-3.1,7.2l-3.8-6.8l-3.1,7.2l-2.7-4.2l-1.4,5
	v80.2l5.2,4.5l3.1-4.8l3.8,6.9l3.1-6.5l3.7,6.9l3.1-6.5l3.8,6.9l3.1-6.5l3.8,6.9l3.1-6.5l3.8,6.9l3.1-6.5l3.7,6.8l3.1-6.4l3.8,6.8
	l3.1-6.4c1,1.2,1.8,2.4,2.7,3.7l1.1-3l18.6,0.1c0,0,0,12.5,0,18.8c0,0.1,0,0.1,0,0.1l1.6,1.6c13.7,0,40.9-0.1,40.9-0.1l1.2-1.4
	c0,0,0.1-6.9,0-7.3c0-3.3,0-6.7,0-9.9h65.2l5.6-5.4v-83.8L190.8,192.6z"/>
<linearGradient id="SVGID_00000097476479496352424300000001102097514854773926_" gradientUnits="userSpaceOnUse" x1="158.4904" y1="1030.0613" x2="158.4904" y2="935.667" gradientTransform="matrix(1 0 0 1 0 -906.1102)">
	<stop  offset="0" style="stop-color:#999898"/>
	<stop  offset="0.1963" style="stop-color:#4F4F4F"/>
	<stop  offset="0.2507" style="stop-color:#5B5B5B"/>
	<stop  offset="0.3499" style="stop-color:#7C7C7C"/>
	<stop  offset="0.3704" style="stop-color:#848484"/>
	<stop  offset="0.433" style="stop-color:#878787"/>
	<stop  offset="0.5974" style="stop-color:#D9D9D9"/>
	<stop  offset="0.6843" style="stop-color:#FFFFFF"/>
	<stop  offset="0.9078" style="stop-color:#B7B7B7"/>
	<stop  offset="1" style="stop-color:#C6C6C6"/>
</linearGradient>
<rect x="125.8" y="29.6" style="fill:url(#SVGID_00000097476479496352424300000001102097514854773926_);" width="65.4" height="94.4"/>
<linearGradient id="SVGID_00000011003171706507516530000017018693194004457658_" gradientUnits="userSpaceOnUse" x1="193.9902" y1="1030.0613" x2="193.9902" y2="935.667" gradientTransform="matrix(1 0 0 1 0 -906.1102)">
	<stop  offset="0" style="stop-color:#909294"/>
	<stop  offset="0.1201" style="stop-color:#686566"/>
	<stop  offset="0.1983" style="stop-color:#6E7072"/>
	<stop  offset="0.3659" style="stop-color:#9F9D9D"/>
	<stop  offset="0.433" style="stop-color:#919396"/>
	<stop  offset="0.6732" style="stop-color:#FFFFFF"/>
	<stop  offset="0.7793" style="stop-color:#E4E3E3"/>
	<stop  offset="1" style="stop-color:#919396"/>
</linearGradient>
<polygon style="fill:url(#SVGID_00000011003171706507516530000017018693194004457658_);" points="191.2,29.6 196.8,34.7 
	196.8,118.5 191.2,124 "/>
<linearGradient id="SVGID_00000085941500583671624750000009617560694537147298_" gradientUnits="userSpaceOnUse" x1="191.2528" y1="982.8641" x2="196.7471" y2="982.8641" gradientTransform="matrix(1 0 0 1 0 -906.1102)">
	<stop  offset="0" style="stop-color:#FFFFFF;stop-opacity:0.5"/>
	<stop  offset="1" style="stop-color:#FFFFFF;stop-opacity:0"/>
</linearGradient>
<polygon style="fill:url(#SVGID_00000085941500583671624750000009617560694537147298_);" points="191.2,29.6 196.8,34.7 
	196.8,118.5 191.2,124 "/>
<rect x="122.2" y="33.5" class="st5" width="3.5" height="30.3"/>
<rect x="122.2" y="91.6" class="st6" width="3.5" height="30.3"/>
<rect x="82.1" y="91.6" class="st6" width="3.5" height="30.3"/>
<rect x="82.3" y="33.4" class="st5" width="3.4" height="30.3"/>
<linearGradient id="SVGID_00000158025653964337895750000010726248073492264613_" gradientUnits="userSpaceOnUse" x1="104.1525" y1="-386.9079" x2="104.1525" y2="-420.4952" gradientTransform="matrix(1 0 0 -1 0 -278)">
	<stop  offset="6.983240e-02" style="stop-color:#58595B"/>
	<stop  offset="0.3715" style="stop-color:#808285"/>
	<stop  offset="0.4888" style="stop-color:#6D6E71"/>
	<stop  offset="0.6397" style="stop-color:#838587"/>
	<stop  offset="0.824" style="stop-color:#BCBEC0"/>
	<stop  offset="1" style="stop-color:#BAB9B9"/>
</linearGradient>
<path style="fill:url(#SVGID_00000158025653964337895750000010726248073492264613_);" d="M85,108.9l-2.7,9.2c0,7.6,0,22.9,0,22.9
	c0.5,0.5,1.1,1.1,1.6,1.6c13.7,0,27.2-0.1,40.9-0.1c0.4-0.4,0.8-0.8,1.2-1.4c0-7.6,0-15.2,0-23c-0.8-3.1-1.6-6.1-2.4-9.2
	C110.7,108.9,97.9,108.9,85,108.9z"/>
<linearGradient id="SVGID_00000097469322903565356310000013190455496212992676_" gradientUnits="userSpaceOnUse" x1="104.1525" y1="1546.8909" x2="104.1525" y2="1513.7195" gradientTransform="matrix(1 0 0 1 0 -1499.5745)">
	<stop  offset="0" style="stop-color:#F4F4F4"/>
	<stop  offset="1" style="stop-color:#BABABA"/>
</linearGradient>
<path style="fill:url(#SVGID_00000097469322903565356310000013190455496212992676_);" d="M85.1,47.2L82.4,38l0,0
	c0-7.5,0.1-14.8,0.1-22.3c0.4-0.5,0.8-1.1,1.4-1.6c13.7,0,41.2,0.1,41.2,0.1c0.3,0.5,0.5,1,0.8,1.5c0,2.3,0,4.6,0,6.9
	c0,5.2,0,10.3,0,15.5c-0.8,3.1-1.6,6.1-2.4,9.2C110.8,47.2,98,47.2,85.1,47.2z"/>
<path class="st9" d="M123.6,109.3c0.8-5.6,1.6-11.3,2.4-16.9c0-9.5,0-19,0-28.7c-0.8-5.6-1.6-11-2.4-16.6c-12.8,0-25.6,0.1-38.5,0.1
	c0,1-0.1,2.3-0.4,3.9c-0.1,1-0.1,1.2-0.8,4.2c-0.5,2.7-1,5.6-1.6,8.3c0,9.5,0,19,0,28.6c0.5,2.6,1.1,5.4,1.5,8.3
	c0.4,3,0.8,5.7,1.1,8.4C97.8,109,110.7,109.1,123.6,109.3z"/>
<linearGradient id="SVGID_00000104695007393542973750000016237996307809153977_" gradientUnits="userSpaceOnUse" x1="104.1827" y1="179.2789" x2="104.1827" y2="213.0106" gradientTransform="matrix(1 0 0 -1 0 322)">
	<stop  offset="0" style="stop-color:#727272"/>
	<stop  offset="1" style="stop-color:#4C4C4C"/>
</linearGradient>
<path style="fill:url(#SVGID_00000104695007393542973750000016237996307809153977_);" d="M85,109l-2.7,9.2c0,7.6,0,22.9,0,22.9
	l1.6,1.6c13.7,0,40.9-0.1,40.9-0.1l1.2-1.4c0,0,0.1-6.9,0-7.3c0-5.2,0-15.5,0-15.5s-1.6-6.1-2.4-9.2C110.7,109,97.9,109,85,109z"/>
<g>
	
		<linearGradient id="SVGID_00000010297617132898801220000014825750084481603238_" gradientUnits="userSpaceOnUse" x1="73.7532" y1="1129.4724" x2="73.7532" y2="1165.578" gradientTransform="matrix(1 0 0 1 0 -906.1102)">
		<stop  offset="0" style="stop-color:#4D4E50"/>
		<stop  offset="0.3101" style="stop-color:#424244"/>
		<stop  offset="0.433" style="stop-color:#666769"/>
		<stop  offset="0.5" style="stop-color:#808285"/>
		<stop  offset="0.6732" style="stop-color:#BCBEC0"/>
		<stop  offset="0.7682" style="stop-color:#6D6E71"/>
		<stop  offset="0.8799" style="stop-color:#414042"/>
	</linearGradient>
	
		<rect x="3.2" y="223.4" style="fill:url(#SVGID_00000010297617132898801220000014825750084481603238_);" width="141" height="36.2"/>
	
		<linearGradient id="SVGID_00000099653164119772117450000002045633028614717616_" gradientUnits="userSpaceOnUse" x1="170.3917" y1="1120.6315" x2="170.3917" y2="1174.6293" gradientTransform="matrix(1 0 0 1 0 -906.1102)">
		<stop  offset="0" style="stop-color:#4D4E50"/>
		<stop  offset="0.3101" style="stop-color:#424244"/>
		<stop  offset="0.433" style="stop-color:#666769"/>
		<stop  offset="0.5" style="stop-color:#808285"/>
		<stop  offset="0.6732" style="stop-color:#BCBEC0"/>
		<stop  offset="0.7682" style="stop-color:#6D6E71"/>
		<stop  offset="0.8799" style="stop-color:#414042"/>
	</linearGradient>
	
		<rect x="144.3" y="214.5" style="fill:url(#SVGID_00000099653164119772117450000002045633028614717616_);" width="52.2" height="54"/>
</g>
<g>
	
		<linearGradient id="SVGID_00000104684517665481394480000011346223851539360937_" gradientUnits="userSpaceOnUse" x1="-1419.5447" y1="870.2858" x2="-1419.5447" y2="870.2858" gradientTransform="matrix(0 -1 1 0 -808.1619 -1388.8998)">
		<stop  offset="0" style="stop-color:#58595B"/>
		<stop  offset="1" style="stop-color:#FFFFFF;stop-opacity:0"/>
	</linearGradient>
	<path style="fill:url(#SVGID_00000104684517665481394480000011346223851539360937_);" d="M62.1,30.6"/>
	
		<linearGradient id="SVGID_00000129884582341853825430000002334173053077680299_" gradientUnits="userSpaceOnUse" x1="-2085.1133" y1="-1009.459" x2="-2085.1133" y2="-922.1375" gradientTransform="matrix(-1 0 0 -1 -2012.7202 -887.4121)">
		<stop  offset="0" style="stop-color:#999898"/>
		<stop  offset="0.1963" style="stop-color:#4F4F4F"/>
		<stop  offset="0.2507" style="stop-color:#5B5B5B"/>
		<stop  offset="0.3499" style="stop-color:#7C7C7C"/>
		<stop  offset="0.3704" style="stop-color:#848484"/>
		<stop  offset="0.433" style="stop-color:#878787"/>
		<stop  offset="0.5974" style="stop-color:#D9D9D9"/>
		<stop  offset="0.6843" style="stop-color:#FFFFFF"/>
		<stop  offset="0.9078" style="stop-color:#B7B7B7"/>
		<stop  offset="1" style="stop-color:#C6C6C6"/>
	</linearGradient>
	<path style="fill:url(#SVGID_00000129884582341853825430000002334173053077680299_);" d="M63.3,122h18.8V34.7H62.7
		c0,0.4,0.3,60.5,0.3,60.7v0.3C63.1,95.8,63.3,121.8,63.3,122z"/>
	
		<linearGradient id="SVGID_00000126302037732149920420000007953134595235040159_" gradientUnits="userSpaceOnUse" x1="-2094.8792" y1="-965.7982" x2="-2081.0801" y2="-965.7982" gradientTransform="matrix(-1 0 0 -1 -2012.7202 -887.4121)">
		<stop  offset="0" style="stop-color:#3F3B3C"/>
		<stop  offset="0.1413" style="stop-color:#3F3B3C;stop-opacity:0.8587"/>
		<stop  offset="1" style="stop-color:#3F3B3C;stop-opacity:0"/>
	</linearGradient>
	
		<polygon style="opacity:0.5;fill:url(#SVGID_00000126302037732149920420000007953134595235040159_);enable-background:new    ;" points="
		68.8,122 82.3,122 82.3,34.7 68.1,34.7 	"/>
	
		<linearGradient id="SVGID_00000171721946078131773870000009432919805992273036_" gradientUnits="userSpaceOnUse" x1="-2207.802" y1="1098.8665" x2="-2207.802" y2="1002.2918" gradientTransform="matrix(-1 0 0 1.0239 -2162 -997.778)">
		<stop  offset="0" style="stop-color:#808285"/>
		<stop  offset="0.1313" style="stop-color:#4D4E50"/>
		<stop  offset="0.2039" style="stop-color:#424244"/>
		<stop  offset="0.338" style="stop-color:#808285"/>
		<stop  offset="0.4162" style="stop-color:#D1D3D4"/>
		<stop  offset="0.5168" style="stop-color:#A7A9AC"/>
		<stop  offset="0.662" style="stop-color:#F1F2F2"/>
		<stop  offset="0.8519" style="stop-color:#838587"/>
		<stop  offset="0.919" style="stop-color:#E6E7E8"/>
		<stop  offset="1" style="stop-color:#919396"/>
	</linearGradient>
	<polygon style="fill:url(#SVGID_00000171721946078131773870000009432919805992273036_);" points="45,28.5 41.9,35.7 46.1,120.6 
		49.7,127.4 	"/>
	
		<linearGradient id="SVGID_00000103233024992612350310000011436801007135872416_" gradientUnits="userSpaceOnUse" x1="-2214.7388" y1="1099.2649" x2="-2214.7388" y2="1001.8932" gradientTransform="matrix(-1 0 0 1.0239 -2162 -997.778)">
		<stop  offset="0" style="stop-color:#808285"/>
		<stop  offset="0.1313" style="stop-color:#4D4E50"/>
		<stop  offset="0.2039" style="stop-color:#424244"/>
		<stop  offset="0.338" style="stop-color:#808285"/>
		<stop  offset="0.4162" style="stop-color:#D1D3D4"/>
		<stop  offset="0.5168" style="stop-color:#A7A9AC"/>
		<stop  offset="0.662" style="stop-color:#F1F2F2"/>
		<stop  offset="0.8519" style="stop-color:#838587"/>
		<stop  offset="0.919" style="stop-color:#E6E7E8"/>
		<stop  offset="1" style="stop-color:#919396"/>
	</linearGradient>
	<polygon style="fill:url(#SVGID_00000103233024992612350310000011436801007135872416_);" points="51.9,28.1 48.8,35.4 52.9,121 
		56.7,127.8 	"/>
	
		<linearGradient id="SVGID_00000173869472913278841390000001620372098715098760_" gradientUnits="userSpaceOnUse" x1="-2221.0635" y1="1096.6082" x2="-2221.0635" y2="1005.0412" gradientTransform="matrix(-1 0 0 1.0239 -2162 -997.778)">
		<stop  offset="0" style="stop-color:#808285"/>
		<stop  offset="0.1313" style="stop-color:#4D4E50"/>
		<stop  offset="0.2039" style="stop-color:#424244"/>
		<stop  offset="0.338" style="stop-color:#808285"/>
		<stop  offset="0.4162" style="stop-color:#D1D3D4"/>
		<stop  offset="0.5168" style="stop-color:#A7A9AC"/>
		<stop  offset="0.662" style="stop-color:#F1F2F2"/>
		<stop  offset="0.8519" style="stop-color:#838587"/>
		<stop  offset="0.919" style="stop-color:#E6E7E8"/>
		<stop  offset="1" style="stop-color:#919396"/>
	</linearGradient>
	<polygon style="fill:url(#SVGID_00000173869472913278841390000001620372098715098760_);" points="58.7,31.2 55.6,34.7 59.8,121.4 
		62.5,125 	"/>
	
		<linearGradient id="SVGID_00000125567949929494226730000014224070078596297128_" gradientUnits="userSpaceOnUse" x1="-6099.5684" y1="1668.95" x2="-6099.5684" y2="1759.4259" gradientTransform="matrix(1 0 0 1.0854 6141.6299 -1769.1287)">
		<stop  offset="6.983240e-02" style="stop-color:#6D6E71"/>
		<stop  offset="0.1536" style="stop-color:#939598"/>
		<stop  offset="0.2151" style="stop-color:#6D6E71"/>
		<stop  offset="0.3883" style="stop-color:#6D6E71"/>
		<stop  offset="0.4832" style="stop-color:#939598"/>
		<stop  offset="0.6844" style="stop-color:#BCBEC0"/>
		<stop  offset="0.7458" style="stop-color:#808285"/>
		<stop  offset="0.8073" style="stop-color:#B4B4B4"/>
		<stop  offset="0.9134" style="stop-color:#6D6E71"/>
		<stop  offset="1" style="stop-color:#939598"/>
	</linearGradient>
	<polygon style="fill:url(#SVGID_00000125567949929494226730000014224070078596297128_);" points="46.1,120.6 41.9,35.7 38,28.9 
		42.9,127.1 	"/>
	
		<linearGradient id="SVGID_00000183949016592126934280000015972746740873070745_" gradientUnits="userSpaceOnUse" x1="-6092.6992" y1="1668.5216" x2="-6092.6992" y2="1759.6241" gradientTransform="matrix(1 0 0 1.0854 6141.6299 -1769.1287)">
		<stop  offset="6.983240e-02" style="stop-color:#6D6E71"/>
		<stop  offset="0.1536" style="stop-color:#939598"/>
		<stop  offset="0.2151" style="stop-color:#6D6E71"/>
		<stop  offset="0.3883" style="stop-color:#6D6E71"/>
		<stop  offset="0.4832" style="stop-color:#939598"/>
		<stop  offset="0.6844" style="stop-color:#BCBEC0"/>
		<stop  offset="0.7458" style="stop-color:#808285"/>
		<stop  offset="0.8073" style="stop-color:#B4B4B4"/>
		<stop  offset="0.9134" style="stop-color:#6D6E71"/>
		<stop  offset="1" style="stop-color:#939598"/>
	</linearGradient>
	<polygon style="fill:url(#SVGID_00000183949016592126934280000015972746740873070745_);" points="52.9,121 48.8,35.4 45,28.5 
		49.7,127.4 	"/>
	
		<linearGradient id="SVGID_00000101077499401422222790000009602828482882702013_" gradientUnits="userSpaceOnUse" x1="-6085.7627" y1="1668.1407" x2="-6085.7627" y2="1759.9952" gradientTransform="matrix(1 0 0 1.0854 6141.6299 -1769.1287)">
		<stop  offset="6.983240e-02" style="stop-color:#6D6E71"/>
		<stop  offset="0.1536" style="stop-color:#939598"/>
		<stop  offset="0.2151" style="stop-color:#6D6E71"/>
		<stop  offset="0.3883" style="stop-color:#6D6E71"/>
		<stop  offset="0.4832" style="stop-color:#939598"/>
		<stop  offset="0.6844" style="stop-color:#BCBEC0"/>
		<stop  offset="0.7458" style="stop-color:#808285"/>
		<stop  offset="0.8073" style="stop-color:#B4B4B4"/>
		<stop  offset="0.9134" style="stop-color:#6D6E71"/>
		<stop  offset="1" style="stop-color:#939598"/>
	</linearGradient>
	<polygon style="fill:url(#SVGID_00000101077499401422222790000009602828482882702013_);" points="59.8,121.4 55.6,34.9 51.9,28.1 
		56.7,127.8 	"/>
	
		<linearGradient id="SVGID_00000034808024580230200730000010451653281537640597_" gradientUnits="userSpaceOnUse" x1="-2187.1277" y1="1097.8037" x2="-2187.1277" y2="1003.4874" gradientTransform="matrix(-1 0 0 1.0239 -2162 -997.778)">
		<stop  offset="0" style="stop-color:#808285"/>
		<stop  offset="0.1313" style="stop-color:#4D4E50"/>
		<stop  offset="0.2039" style="stop-color:#424244"/>
		<stop  offset="0.338" style="stop-color:#808285"/>
		<stop  offset="0.4162" style="stop-color:#D1D3D4"/>
		<stop  offset="0.5168" style="stop-color:#A7A9AC"/>
		<stop  offset="0.662" style="stop-color:#F1F2F2"/>
		<stop  offset="0.8519" style="stop-color:#838587"/>
		<stop  offset="0.919" style="stop-color:#E6E7E8"/>
		<stop  offset="1" style="stop-color:#919396"/>
	</linearGradient>
	<polygon style="fill:url(#SVGID_00000034808024580230200730000010451653281537640597_);" points="24.3,29.7 21.2,36.9 25.3,119.3 
		29.1,126.3 	"/>
	
		<linearGradient id="SVGID_00000147182077503930471560000014504776836414596526_" gradientUnits="userSpaceOnUse" x1="-2194.0645" y1="1098.2021" x2="-2194.0645" y2="1003.0888" gradientTransform="matrix(-1 0 0 1.0239 -2162 -997.778)">
		<stop  offset="0" style="stop-color:#808285"/>
		<stop  offset="0.1313" style="stop-color:#4D4E50"/>
		<stop  offset="0.2039" style="stop-color:#424244"/>
		<stop  offset="0.338" style="stop-color:#808285"/>
		<stop  offset="0.4162" style="stop-color:#D1D3D4"/>
		<stop  offset="0.5168" style="stop-color:#A7A9AC"/>
		<stop  offset="0.662" style="stop-color:#F1F2F2"/>
		<stop  offset="0.8519" style="stop-color:#838587"/>
		<stop  offset="0.919" style="stop-color:#E6E7E8"/>
		<stop  offset="1" style="stop-color:#919396"/>
	</linearGradient>
	<polygon style="fill:url(#SVGID_00000147182077503930471560000014504776836414596526_);" points="31.2,29.3 28.1,36.5 32.2,119.7 
		36,126.7 	"/>
	
		<linearGradient id="SVGID_00000133516196350431991970000003203952282205698485_" gradientUnits="userSpaceOnUse" x1="-2200.9333" y1="1098.6007" x2="-2200.9333" y2="1002.787" gradientTransform="matrix(-1 0 0 1.0239 -2162 -997.778)">
		<stop  offset="0" style="stop-color:#808285"/>
		<stop  offset="0.1313" style="stop-color:#4D4E50"/>
		<stop  offset="0.2039" style="stop-color:#424244"/>
		<stop  offset="0.338" style="stop-color:#808285"/>
		<stop  offset="0.4162" style="stop-color:#D1D3D4"/>
		<stop  offset="0.5168" style="stop-color:#A7A9AC"/>
		<stop  offset="0.662" style="stop-color:#F1F2F2"/>
		<stop  offset="0.8519" style="stop-color:#838587"/>
		<stop  offset="0.919" style="stop-color:#E6E7E8"/>
		<stop  offset="1" style="stop-color:#919396"/>
	</linearGradient>
	<polygon style="fill:url(#SVGID_00000133516196350431991970000003203952282205698485_);" points="38,28.9 34.9,36.2 39.1,120.1 
		42.9,127.1 	"/>
	
		<linearGradient id="SVGID_00000084496888351931169100000012012727915964532619_" gradientUnits="userSpaceOnUse" x1="-6120.3105" y1="1670.0796" x2="-6120.3105" y2="1758.3" gradientTransform="matrix(1 0 0 1.0854 6141.6299 -1769.1287)">
		<stop  offset="6.983240e-02" style="stop-color:#6D6E71"/>
		<stop  offset="0.1536" style="stop-color:#939598"/>
		<stop  offset="0.2151" style="stop-color:#6D6E71"/>
		<stop  offset="0.3883" style="stop-color:#6D6E71"/>
		<stop  offset="0.4832" style="stop-color:#939598"/>
		<stop  offset="0.6844" style="stop-color:#BCBEC0"/>
		<stop  offset="0.7458" style="stop-color:#808285"/>
		<stop  offset="0.8073" style="stop-color:#B4B4B4"/>
		<stop  offset="0.9134" style="stop-color:#6D6E71"/>
		<stop  offset="1" style="stop-color:#939598"/>
	</linearGradient>
	<polygon style="fill:url(#SVGID_00000084496888351931169100000012012727915964532619_);" points="25.3,119.3 21.2,36.9 17.4,30.1 
		22.1,125.9 	"/>
	
		<linearGradient id="SVGID_00000008857125092991875840000004015159907303437232_" gradientUnits="userSpaceOnUse" x1="-6113.3735" y1="1669.6873" x2="-6113.3735" y2="1758.6594" gradientTransform="matrix(1 0 0 1.0854 6141.6299 -1769.1287)">
		<stop  offset="6.983240e-02" style="stop-color:#6D6E71"/>
		<stop  offset="0.1536" style="stop-color:#939598"/>
		<stop  offset="0.2151" style="stop-color:#6D6E71"/>
		<stop  offset="0.3883" style="stop-color:#6D6E71"/>
		<stop  offset="0.4832" style="stop-color:#939598"/>
		<stop  offset="0.6844" style="stop-color:#BCBEC0"/>
		<stop  offset="0.7458" style="stop-color:#808285"/>
		<stop  offset="0.8073" style="stop-color:#B4B4B4"/>
		<stop  offset="0.9134" style="stop-color:#6D6E71"/>
		<stop  offset="1" style="stop-color:#939598"/>
	</linearGradient>
	<polygon style="fill:url(#SVGID_00000008857125092991875840000004015159907303437232_);" points="32.2,119.7 28.1,36.5 24.3,29.7 
		29.1,126.3 	"/>
	
		<linearGradient id="SVGID_00000109725430361890227540000008601795337622721196_" gradientUnits="userSpaceOnUse" x1="-6106.437" y1="1669.3422" x2="-6106.437" y2="1759.0663" gradientTransform="matrix(1 0 0 1.0854 6141.6299 -1769.1287)">
		<stop  offset="6.983240e-02" style="stop-color:#6D6E71"/>
		<stop  offset="0.1536" style="stop-color:#939598"/>
		<stop  offset="0.2151" style="stop-color:#6D6E71"/>
		<stop  offset="0.3883" style="stop-color:#6D6E71"/>
		<stop  offset="0.4832" style="stop-color:#939598"/>
		<stop  offset="0.6844" style="stop-color:#BCBEC0"/>
		<stop  offset="0.7458" style="stop-color:#808285"/>
		<stop  offset="0.8073" style="stop-color:#B4B4B4"/>
		<stop  offset="0.9134" style="stop-color:#6D6E71"/>
		<stop  offset="1" style="stop-color:#939598"/>
	</linearGradient>
	<polygon style="fill:url(#SVGID_00000109725430361890227540000008601795337622721196_);" points="39.1,120.1 34.9,36.2 31.2,29.3 
		36,126.7 	"/>
	
		<linearGradient id="SVGID_00000080919656789677694420000015626284524205498789_" gradientUnits="userSpaceOnUse" x1="-2180.1909" y1="1097.4052" x2="-2180.1909" y2="1003.8859" gradientTransform="matrix(-1 0 0 1.0239 -2162 -997.778)">
		<stop  offset="0" style="stop-color:#808285"/>
		<stop  offset="0.1313" style="stop-color:#4D4E50"/>
		<stop  offset="0.2039" style="stop-color:#424244"/>
		<stop  offset="0.338" style="stop-color:#808285"/>
		<stop  offset="0.4162" style="stop-color:#D1D3D4"/>
		<stop  offset="0.5168" style="stop-color:#A7A9AC"/>
		<stop  offset="0.662" style="stop-color:#F1F2F2"/>
		<stop  offset="0.8519" style="stop-color:#838587"/>
		<stop  offset="0.919" style="stop-color:#E6E7E8"/>
		<stop  offset="1" style="stop-color:#919396"/>
	</linearGradient>
	<polygon style="fill:url(#SVGID_00000080919656789677694420000015626284524205498789_);" points="17.4,30.1 14.2,37.3 18.5,118.9 
		22.1,125.9 	"/>
	
		<linearGradient id="SVGID_00000120521635620694870060000003500653367884023170_" gradientUnits="userSpaceOnUse" x1="-6127.1792" y1="1670.5077" x2="-6127.1792" y2="1757.9762" gradientTransform="matrix(1 0 0 1.0854 6141.6299 -1769.1287)">
		<stop  offset="6.983240e-02" style="stop-color:#6D6E71"/>
		<stop  offset="0.1536" style="stop-color:#939598"/>
		<stop  offset="0.2151" style="stop-color:#6D6E71"/>
		<stop  offset="0.3883" style="stop-color:#6D6E71"/>
		<stop  offset="0.4832" style="stop-color:#939598"/>
		<stop  offset="0.6844" style="stop-color:#BCBEC0"/>
		<stop  offset="0.7458" style="stop-color:#808285"/>
		<stop  offset="0.8073" style="stop-color:#B4B4B4"/>
		<stop  offset="0.9134" style="stop-color:#6D6E71"/>
		<stop  offset="1" style="stop-color:#939598"/>
	</linearGradient>
	<polygon style="fill:url(#SVGID_00000120521635620694870060000003500653367884023170_);" points="18.5,118.9 14.2,37.3 10.4,30.5 
		15.3,125.4 	"/>
	
		<linearGradient id="SVGID_00000068648460563156077080000015562516762009554850_" gradientUnits="userSpaceOnUse" x1="-2173.3223" y1="1097.0066" x2="-2173.3223" y2="1004.2844" gradientTransform="matrix(-1 0 0 1.0239 -2162 -997.778)">
		<stop  offset="0" style="stop-color:#808285"/>
		<stop  offset="0.1313" style="stop-color:#4D4E50"/>
		<stop  offset="0.2039" style="stop-color:#424244"/>
		<stop  offset="0.338" style="stop-color:#808285"/>
		<stop  offset="0.4162" style="stop-color:#D1D3D4"/>
		<stop  offset="0.5168" style="stop-color:#A7A9AC"/>
		<stop  offset="0.662" style="stop-color:#F1F2F2"/>
		<stop  offset="0.8519" style="stop-color:#838587"/>
		<stop  offset="0.919" style="stop-color:#E6E7E8"/>
		<stop  offset="1" style="stop-color:#919396"/>
	</linearGradient>
	<polygon style="fill:url(#SVGID_00000068648460563156077080000015562516762009554850_);" points="10.4,30.5 7.3,37.7 11.5,118.5 
		15.3,125.4 	"/>
	
		<linearGradient id="SVGID_00000065061016250978330770000014525380847750473917_" gradientUnits="userSpaceOnUse" x1="-6080.3223" y1="1670.5775" x2="-6080.3223" y2="1757.0436" gradientTransform="matrix(1 0 0 1.0854 6141.6299 -1769.1287)">
		<stop  offset="6.983240e-02" style="stop-color:#6D6E71"/>
		<stop  offset="0.1536" style="stop-color:#939598"/>
		<stop  offset="0.2151" style="stop-color:#6D6E71"/>
		<stop  offset="0.3883" style="stop-color:#6D6E71"/>
		<stop  offset="0.4832" style="stop-color:#939598"/>
		<stop  offset="0.6844" style="stop-color:#BCBEC0"/>
		<stop  offset="0.7458" style="stop-color:#808285"/>
		<stop  offset="0.8073" style="stop-color:#B4B4B4"/>
		<stop  offset="0.9134" style="stop-color:#6D6E71"/>
		<stop  offset="1" style="stop-color:#939598"/>
	</linearGradient>
	<polygon style="fill:url(#SVGID_00000065061016250978330770000014525380847750473917_);" points="63.9,34.7 58.7,31.2 62.5,125 
		63.9,121.4 	"/>
	
		<linearGradient id="SVGID_00000163776063739560107810000002487126851530416313_" gradientUnits="userSpaceOnUse" x1="-3640.218" y1="-3049.9438" x2="-3640.218" y2="-3140.4368" gradientTransform="matrix(-1 0 0 -1.0854 -3632.1599 -3271.9856)">
		<stop  offset="6.983240e-02" style="stop-color:#6D6E71"/>
		<stop  offset="0.1536" style="stop-color:#939598"/>
		<stop  offset="0.2151" style="stop-color:#6D6E71"/>
		<stop  offset="0.3883" style="stop-color:#6D6E71"/>
		<stop  offset="0.4832" style="stop-color:#939598"/>
		<stop  offset="0.6844" style="stop-color:#BCBEC0"/>
		<stop  offset="0.7458" style="stop-color:#808285"/>
		<stop  offset="0.8073" style="stop-color:#B4B4B4"/>
		<stop  offset="0.9134" style="stop-color:#6D6E71"/>
		<stop  offset="1" style="stop-color:#939598"/>
	</linearGradient>
	<polygon style="fill:url(#SVGID_00000163776063739560107810000002487126851530416313_);" points="8.4,123.3 11.5,118.5 7.3,37.7 
		4.6,33.5 	"/>
	
		<linearGradient id="SVGID_00000068679645412777454970000010126251390104754329_" gradientUnits="userSpaceOnUse" x1="-2167.8137" y1="1094.8812" x2="-2167.8137" y2="1007.2068" gradientTransform="matrix(-1 0 0 1.0239 -2162 -997.778)">
		<stop  offset="0" style="stop-color:#808285"/>
		<stop  offset="0.1313" style="stop-color:#4D4E50"/>
		<stop  offset="0.2039" style="stop-color:#424244"/>
		<stop  offset="0.338" style="stop-color:#808285"/>
		<stop  offset="0.4162" style="stop-color:#D1D3D4"/>
		<stop  offset="0.5168" style="stop-color:#A7A9AC"/>
		<stop  offset="0.662" style="stop-color:#F1F2F2"/>
		<stop  offset="0.8519" style="stop-color:#838587"/>
		<stop  offset="0.919" style="stop-color:#E6E7E8"/>
		<stop  offset="1" style="stop-color:#919396"/>
	</linearGradient>
	<polygon style="fill:url(#SVGID_00000068679645412777454970000010126251390104754329_);" points="3.2,118.8 8.4,123.3 4.6,33.5 
		3.2,38.5 	"/>
</g>
<image style="overflow:visible;" width="200" height="200" xlink:href="../../pepsi.png"  transform="matrix(0.1304 0 0 0.1304 90.9055 63.711)">
</image>
</svg>
