<?xml version="1.0" encoding="utf-8"?>
<!-- Generator: Adobe Illustrator 25.4.1, SVG Export Plug-In . SVG Version: 6.00 Build 0)  -->
<svg version="1.1" id="Слой_1" xmlns="http://www.w3.org/2000/svg" xmlns:xlink="http://www.w3.org/1999/xlink" x="0px" y="0px"
	 viewBox="0 0 200 320" style="enable-background:new 0 0 200 320;" xml:space="preserve">
<style type="text/css">
	.st0{clip-path:url(#SVGID_00000147929090932581267230000004830540003697014168_);}
	.st1{fill:none;stroke:#BFBFBF;stroke-width:0.75;stroke-miterlimit:10;}
	.st2{fill:url(#SVGID_00000037664829622382940100000012473112343657439901_);}
	.st3{fill:url(#SVGID_00000047057557227437266050000013124155076959063940_);}
	.st4{fill:url(#SVGID_00000025406708817644557440000005131513144545067913_);}
	.st5{fill:url(#SVGID_00000183213592005166369880000016736198630053294259_);}
	.st6{fill:url(#SVGID_00000005250769419414329370000008111891989238904241_);}
	.st7{fill:url(#SVGID_00000169520850450366341300000011706799581320728982_);}
	.st8{fill:url(#SVGID_00000062873364061281878900000016464779746439469739_);}
	.st9{fill:url(#SVGID_00000123443379315078497890000017576462328143153536_);}
	.st10{fill:none;stroke:url(#SVGID_00000059285614031834411280000008652600593795601059_);stroke-miterlimit:10;}
	.st11{fill:none;stroke:url(#SVGID_00000114048845803116806700000012630707198042391178_);stroke-miterlimit:10;}
	.st12{fill:none;stroke:url(#SVGID_00000136396215227734852490000010693776269157865896_);stroke-miterlimit:10;}
	.st13{fill:url(#SVGID_00000036945283725240080690000000508072793017930135_);}
	.st14{fill:url(#SVGID_00000116192953771317460860000018346314557203698108_);}
	.st15{fill:url(#SVGID_00000003088490795895138070000013595756225273502909_);}
	.st16{fill:url(#SVGID_00000106827638047691529810000003555279864216325523_);}
	.st17{fill:url(#SVGID_00000049922219256549579400000007821861739200650677_);}
	.st18{fill:#4D4D4D;}
	.st19{fill:url(#SVGID_00000062889053287465426700000007515184965383406766_);}
	.st20{fill:url(#SVGID_00000181782003067451737470000008202615915605273534_);}
	.st21{fill:url(#SVGID_00000100365912008887551160000009002514064881028534_);}
	.st22{fill:url(#SVGID_00000042701009876514817410000015417998839623192719_);}
	.st23{fill:url(#SVGID_00000133521626881034698800000006196162660459646876_);}
	.st24{fill:url(#SVGID_00000096740696620545472430000003034851320086257296_);}
	.st25{fill:url(#SVGID_00000134956163055635716710000004256382090787270805_);}
	.st26{fill:url(#SVGID_00000039844352275233617800000009200064368046299535_);}
	.st27{fill:url(#SVGID_00000081632590145641554260000017499083251316855963_);}
	.st28{fill:url(#SVGID_00000090261834235431442430000016671056148333780631_);}
	.st29{fill:url(#SVGID_00000044859694777733063550000007980211937745052299_);}
	.st30{fill:url(#SVGID_00000090989938029336382120000004935638802158841233_);}
	.st31{fill:url(#SVGID_00000146499816818755217310000015725502826555411888_);}
</style>
<g>
	<g>
		<g>
			<g>
				<defs>
					<path id="SVGID_1_" d="M194.8,175.5c-11.2,0.1-33.7,0.1-33.7,0.1l-2.2,2v1.2H41.6v-1.2c-0.8-0.7-1.4-1.3-2.2-2.1
						c-11.2,0.1-33.7,0.1-33.7,0.1l-2.1,2v65.1l1.4,1.8h34.5l2.1-2v-2.9c8.7,0,17.3,0,26-0.1c0.4,0.1,2.6,0.5,3.9,2.5
						c0.7,1,0.8,2.1,0.9,2.6c0,8.5,0,17.1,0.1,25.5h-6.1l-1.8,1.4V306l2,2.1h65.2c0.7-0.8,1.3-1.4,2.1-2.2
						c-0.1-11.2-0.1-33.6-0.1-33.6l-2-2.2h-3c0-8.6,0.1-17.2,0.1-25.8c0.1-0.7,0.7-2.1,2-3.3c2.1-1.8,4.7-1.6,5.2-1.6
						c7.7,0,15.2,0,22.9,0.1v3l1.4,1.8H195l2.1-2v-65C196.3,176.9,195.6,176.2,194.8,175.5z"/>
				</defs>
				<clipPath id="SVGID_00000138545708704130759080000015458479984430014632_">
					<use xlink:href="#SVGID_1_"  style="overflow:visible;"/>
				</clipPath>
				<g style="clip-path:url(#SVGID_00000138545708704130759080000015458479984430014632_);">
					
						<image style="overflow:visible;enable-background:new    ;" width="1200" height="900" xlink:href="../../Фитинги/Резьбовые/Металл.jpg"  transform="matrix(0.1709 0 0 0.1704 -4.1679 165.0876)">
					</image>
				</g>
			</g>
		</g>
	</g>
</g>
<path class="st1" d="M194.6,175.5c-11.2,0.1-33.6,0.1-33.6,0.1l-2.2,2v1.2H41.5v-1.2c-0.8-0.7-1.4-1.3-2.2-2.1
	c-11.2,0.1-33.6,0.1-33.6,0.1l-2.2,2v65.1l1.4,1.8h34.5l2.1-2v-2.9c8.7,0,17.3,0,26-0.1c0.4,0.1,2.6,0.5,3.9,2.5
	c0.7,1,0.8,2.1,0.9,2.6c0,8.5,0,17.1,0.1,25.5h-6.1l-1.8,1.4V306l2,2.1h65.1c0.7-0.8,1.3-1.4,2.1-2.2c-0.1-11.2-0.1-33.6-0.1-33.6
	l-2-2.2h-3c0-8.6,0.1-17.2,0.1-25.8c0.1-0.7,0.7-2.1,2-3.3c2.1-1.8,4.7-1.6,5.2-1.6c7.7,0,15.2,0,22.9,0.1v3l1.4,1.8h34.5l2.1-2v-65
	C196,176.9,195.4,176.2,194.6,175.5z"/>
<linearGradient id="SVGID_00000121993847818625676780000003927871017880695459_" gradientUnits="userSpaceOnUse" x1="38.6074" y1="2520.8301" x2="159.5493" y2="2520.8301" gradientTransform="matrix(1 0 0 1 0 -2449.1655)">
	<stop  offset="0" style="stop-color:#919396"/>
	<stop  offset="0.3883" style="stop-color:#D1D3D4"/>
	<stop  offset="0.6788" style="stop-color:#BCBEC0"/>
	<stop  offset="1" style="stop-color:#919396"/>
</linearGradient>
<path style="fill:url(#SVGID_00000121993847818625676780000003927871017880695459_);" d="M82.2,113.1c0-12.6,0.1-25.3,0.1-37.9
	c-0.3-0.9-0.8-2-1.6-3.1c-2.2-2.9-5.3-3.6-6.4-3.8c-12,0.1-23.8,0.3-35.8,0.5c0-12.9,0-25.8,0-38.7c40.4,0,80.6,0,120.9,0
	c0,12.8,0,25.5,0,38.3c-11.2,0-22.5,0-33.7,0c-1.2,0.3-3.3,1-4.8,3c-1.3,1.6-1.8,4-1.8,4c-0.1,12.5-0.3,25.1-0.4,37.6
	C106.6,113.1,94.5,113.1,82.2,113.1z"/>
<linearGradient id="SVGID_00000181789704309705023570000006018128014132834945_" gradientUnits="userSpaceOnUse" x1="38.5992" y1="2521.0254" x2="159.5411" y2="2521.0254" gradientTransform="matrix(1 0 0 1 0 -2449.1655)">
	<stop  offset="0" style="stop-color:#58595B;stop-opacity:0"/>
	<stop  offset="0.5894" style="stop-color:#FFFFFF;stop-opacity:0.6"/>
	<stop  offset="1" style="stop-color:#58595B;stop-opacity:0"/>
</linearGradient>
<path style="fill:url(#SVGID_00000181789704309705023570000006018128014132834945_);" d="M82.2,113.3c0-12.6,0.1-25.3,0.1-37.9
	c-0.3-0.9-0.8-2.3-2-3.6c-2.2-2.5-4.9-3.1-5.9-3.3c-12,0.1-23.8,0.3-35.8,0.5c0,0,0-25.8,0-38.7c40.4,0,80.6,0,120.9,0
	c0,12.8,0,25.5,0,38.3c-11.5,0-22.8-0.1-34.2-0.1c-1.2,0.3-3.3,1-4.8,3c-1.3,1.6-1.8,4-1.8,4c0,12.6,0.1,25.3,0.1,37.9
	C106.6,113.3,94.5,113.3,82.2,113.3z"/>
<linearGradient id="SVGID_00000126310487582634732230000008186268506998705058_" gradientUnits="userSpaceOnUse" x1="93.486" y1="2562.2803" x2="152.9116" y2="2522.063" gradientTransform="matrix(1 0 0 1 0 -2449.1655)">
	<stop  offset="0.1201" style="stop-color:#686566"/>
	<stop  offset="0.1983" style="stop-color:#6E7072"/>
	<stop  offset="0.433" style="stop-color:#919396"/>
	<stop  offset="0.6732" style="stop-color:#E6E7E8"/>
	<stop  offset="0.8966" style="stop-color:#9F9D9D"/>
	<stop  offset="1" style="stop-color:#919396"/>
</linearGradient>
<path style="fill:url(#SVGID_00000126310487582634732230000008186268506998705058_);" d="M159.5,79.9c-9-0.1-18-0.1-26.9-0.3
	c-0.5,0.1-2,0.5-3,2l-1.2,2.6l0.3,28.8c0,0-6.5,0-9.9,0c0-12.5,0-25,0-37.5c0.1-0.8,0.7-2.5,1.8-4c1.8-2.2,4.2-2.9,4.9-3
	c11.3,0,22.7-0.1,34-0.1C159.5,72.3,159.5,76.2,159.5,79.9z"/>
<linearGradient id="SVGID_00000167392316349618221480000000530768695025154951_" gradientUnits="userSpaceOnUse" x1="-4140.5562" y1="2562.3384" x2="-4081.1301" y2="2522.1211" gradientTransform="matrix(-1 0 0 1 -4032.9973 -2449.1655)">
	<stop  offset="0.1201" style="stop-color:#686566"/>
	<stop  offset="0.1983" style="stop-color:#6E7072"/>
	<stop  offset="0.433" style="stop-color:#919396"/>
	<stop  offset="0.6732" style="stop-color:#E6E7E8"/>
	<stop  offset="0.8966" style="stop-color:#9F9D9D"/>
	<stop  offset="1" style="stop-color:#919396"/>
</linearGradient>
<path style="fill:url(#SVGID_00000167392316349618221480000000530768695025154951_);" d="M41.6,68.5c11.3,0,22.7,0.1,34,0.1
	c0.8,0.1,3.1,0.8,4.9,3c1.2,1.6,1.7,3.1,1.8,4c0,12.5,0,25,0,37.5c-3.3,0-9.9,0-9.9,0l0.3-28.8l-1.2-2.6c-1-1.4-2.5-1.8-3-2
	c-9,0-18,0.1-26.9,0.1C41.6,76.2,41.6,72.3,41.6,68.5z"/>
<linearGradient id="SVGID_00000182521806857627511550000003454849064155669387_" gradientUnits="userSpaceOnUse" x1="38.6074" y1="2473.6379" x2="159.5493" y2="2473.6379" gradientTransform="matrix(1 0 0 1 0 -2449.1655)">
	<stop  offset="0" style="stop-color:#919396"/>
	<stop  offset="0.3883" style="stop-color:#D1D3D4"/>
	<stop  offset="0.6788" style="stop-color:#BCBEC0"/>
	<stop  offset="1" style="stop-color:#919396"/>
</linearGradient>
<rect x="38.6" y="18.7" style="fill:url(#SVGID_00000182521806857627511550000003454849064155669387_);" width="120.9" height="11.5"/>
<linearGradient id="SVGID_00000170974387848713241650000010120601254801845929_" gradientUnits="userSpaceOnUse" x1="38.6074" y1="2473.6379" x2="161.1115" y2="2473.6379" gradientTransform="matrix(1 0 0 1 0 -2449.1655)">
	<stop  offset="0" style="stop-color:#58595B;stop-opacity:0"/>
	<stop  offset="0.4749" style="stop-color:#FFFFFF"/>
	<stop  offset="0.5701" style="stop-color:#FCFCFC;stop-opacity:0.8187"/>
	<stop  offset="0.6515" style="stop-color:#F1F1F1;stop-opacity:0.6636"/>
	<stop  offset="0.728" style="stop-color:#DFE0E0;stop-opacity:0.518"/>
	<stop  offset="0.8014" style="stop-color:#C7C7C8;stop-opacity:0.3783"/>
	<stop  offset="0.8726" style="stop-color:#A6A7A8;stop-opacity:0.2426"/>
	<stop  offset="0.9412" style="stop-color:#808082;stop-opacity:0.112"/>
	<stop  offset="1" style="stop-color:#58595B;stop-opacity:0"/>
</linearGradient>
<rect x="38.6" y="18.7" style="fill:url(#SVGID_00000170974387848713241650000010120601254801845929_);" width="122.5" height="11.5"/>
<linearGradient id="SVGID_00000104674964784638641100000013600825106177349029_" gradientUnits="userSpaceOnUse" x1="99.9043" y1="2416.2119" x2="100.8338" y2="2528.3699" gradientTransform="matrix(1 0 0 1 0 -2449.1655)">
	<stop  offset="0.4342" style="stop-color:#58595B;stop-opacity:0"/>
	<stop  offset="0.6053" style="stop-color:#FFFFFF;stop-opacity:0.8"/>
</linearGradient>
<rect x="38.6" y="18.7" style="fill:url(#SVGID_00000104674964784638641100000013600825106177349029_);" width="123.5" height="11.5"/>
<linearGradient id="SVGID_00000043426071363893245530000007095474929254231448_" gradientUnits="userSpaceOnUse" x1="-590.2657" y1="-588.7464" x2="-590.2657" y2="-588.7464" gradientTransform="matrix(1 0 0 -1 611.6887 -481.6063)">
	<stop  offset="0" style="stop-color:#58595B"/>
	<stop  offset="1" style="stop-color:#FFFFFF;stop-opacity:0"/>
</linearGradient>
<path style="fill:url(#SVGID_00000043426071363893245530000007095474929254231448_);" d="M21.4,107.1"/>
<linearGradient id="SVGID_00000052813640159145905490000013174319532989687439_" gradientUnits="userSpaceOnUse" x1="38.6074" y1="2479.3662" x2="159.6919" y2="2479.3662" gradientTransform="matrix(1 0 0 1 0 -2449.1655)">
	<stop  offset="2.513967e-02" style="stop-color:#666666"/>
	<stop  offset="0.3212" style="stop-color:#9F9D9D"/>
	<stop  offset="0.6732" style="stop-color:#FFFFFF"/>
	<stop  offset="0.7793" style="stop-color:#E4E3E3"/>
	<stop  offset="1" style="stop-color:#919396"/>
</linearGradient>
<path style="fill:none;stroke:url(#SVGID_00000052813640159145905490000013174319532989687439_);stroke-miterlimit:10;" d="
	M38.6,30.2c40.4,0,80.6,0,120.9,0"/>
<linearGradient id="SVGID_00000049929895385133304900000015188611702960369817_" gradientUnits="userSpaceOnUse" x1="115.7067" y1="2560.7959" x2="145.5707" y2="2509.0701" gradientTransform="matrix(1 0 0 1 0 -2449.1655)">
	<stop  offset="2.513967e-02" style="stop-color:#666666"/>
	<stop  offset="0.3212" style="stop-color:#9F9D9D"/>
	<stop  offset="0.5168" style="stop-color:#FFFFFF"/>
	<stop  offset="0.7793" style="stop-color:#E4E3E3"/>
	<stop  offset="1" style="stop-color:#919396"/>
</linearGradient>
<path style="fill:none;stroke:url(#SVGID_00000049929895385133304900000015188611702960369817_);stroke-miterlimit:10;" d="
	M159.5,68.5c0,0-22.8,0-34.1,0c-0.5,0-2.9,0.3-4.7,2.3c-1.4,1.6-2,4.8-2,4.8v37.5"/>
<linearGradient id="SVGID_00000106848985222679265530000013685470741809896107_" gradientUnits="userSpaceOnUse" x1="85.5777" y1="2560.6987" x2="55.9418" y2="2509.3677" gradientTransform="matrix(1 0 0 1 0 -2449.1655)">
	<stop  offset="2.513967e-02" style="stop-color:#666666"/>
	<stop  offset="0.3212" style="stop-color:#9F9D9D"/>
	<stop  offset="0.5168" style="stop-color:#FFFFFF"/>
	<stop  offset="0.7793" style="stop-color:#E4E3E3"/>
	<stop  offset="1" style="stop-color:#919396"/>
</linearGradient>
<path style="fill:none;stroke:url(#SVGID_00000106848985222679265530000013685470741809896107_);stroke-miterlimit:10;" d="
	M82.1,113.3c0-12.6,0.1-25.3,0.1-37.9c-0.1-0.9-0.7-2.5-1.8-4c-1.7-2.2-6.4-3-6.4-3c-10.5,0.1-21.1,0.1-31.6,0.3"/>
<linearGradient id="SVGID_00000026152065309691435290000015765287021502096295_" gradientUnits="userSpaceOnUse" x1="177.7752" y1="2533.9136" x2="177.7752" y2="2464.7854" gradientTransform="matrix(1 0 0 1 0 -2449.1655)">
	<stop  offset="0" style="stop-color:#999898"/>
	<stop  offset="0.1963" style="stop-color:#4F4F4F"/>
	<stop  offset="0.2507" style="stop-color:#5B5B5B"/>
	<stop  offset="0.3499" style="stop-color:#7C7C7C"/>
	<stop  offset="0.3704" style="stop-color:#848484"/>
	<stop  offset="0.433" style="stop-color:#878787"/>
	<stop  offset="0.5974" style="stop-color:#D9D9D9"/>
	<stop  offset="0.6843" style="stop-color:#FFFFFF"/>
	<stop  offset="0.9078" style="stop-color:#B7B7B7"/>
	<stop  offset="1" style="stop-color:#C6C6C6"/>
</linearGradient>
<path style="fill:url(#SVGID_00000026152065309691435290000015765287021502096295_);" d="M194.7,84.7h-34.5l-1.4-1.8V17.7l2.2-2
	c0,0,22.4,0,33.6-0.1c0.8,0.7,1.3,1.4,2.2,2.1v65.1L194.7,84.7z"/>
<linearGradient id="SVGID_00000109012271001892158750000014601968027496220803_" gradientUnits="userSpaceOnUse" x1="22.5946" y1="2533.9136" x2="22.5946" y2="2464.7854" gradientTransform="matrix(1 0 0 1 0 -2449.1655)">
	<stop  offset="0" style="stop-color:#999898"/>
	<stop  offset="0.1963" style="stop-color:#4F4F4F"/>
	<stop  offset="0.2507" style="stop-color:#5B5B5B"/>
	<stop  offset="0.3499" style="stop-color:#7C7C7C"/>
	<stop  offset="0.3704" style="stop-color:#848484"/>
	<stop  offset="0.433" style="stop-color:#878787"/>
	<stop  offset="0.5974" style="stop-color:#D9D9D9"/>
	<stop  offset="0.6843" style="stop-color:#FFFFFF"/>
	<stop  offset="0.9078" style="stop-color:#B7B7B7"/>
	<stop  offset="1" style="stop-color:#C6C6C6"/>
</linearGradient>
<path style="fill:url(#SVGID_00000109012271001892158750000014601968027496220803_);" d="M39.5,84.7H5l-1.4-1.8V17.7l2.2-2
	c0,0,22.4,0,33.6-0.1c0.8,0.7,1.3,1.4,2.2,2.1v65.1L39.5,84.7z"/>
<linearGradient id="SVGID_00000075160035870679086480000004959736894581207191_" gradientUnits="userSpaceOnUse" x1="-940.9179" y1="-779.6125" x2="-940.9179" y2="-848.7408" gradientTransform="matrix(6.123234e-17 1 -1 6.123234e-17 -715.0983 1070.4498)">
	<stop  offset="0" style="stop-color:#999898"/>
	<stop  offset="0.1963" style="stop-color:#4F4F4F"/>
	<stop  offset="0.2507" style="stop-color:#5B5B5B"/>
	<stop  offset="0.3499" style="stop-color:#7C7C7C"/>
	<stop  offset="0.3704" style="stop-color:#848484"/>
	<stop  offset="0.433" style="stop-color:#878787"/>
	<stop  offset="0.5974" style="stop-color:#D9D9D9"/>
	<stop  offset="0.6843" style="stop-color:#FFFFFF"/>
	<stop  offset="0.9078" style="stop-color:#B7B7B7"/>
	<stop  offset="1" style="stop-color:#C6C6C6"/>
</linearGradient>
<path style="fill:url(#SVGID_00000075160035870679086480000004959736894581207191_);" d="M64.5,146.5V112l1.8-1.4h65.2l2,2.2
	c0,0,0,22.4,0.1,33.6c-0.7,0.8-1.4,1.3-2.1,2.2H66.5L64.5,146.5z"/>
<linearGradient id="SVGID_00000103261981077480904020000010804750295322968733_" gradientUnits="userSpaceOnUse" x1="-1298.8083" y1="2716.4973" x2="-1298.8083" y2="2716.4973" gradientTransform="matrix(6.123234e-17 1 1 -6.123234e-17 -2598.998 1617.3428)">
	<stop  offset="0" style="stop-color:#58595B"/>
	<stop  offset="1" style="stop-color:#FFFFFF;stop-opacity:0"/>
</linearGradient>
<path style="fill:url(#SVGID_00000103261981077480904020000010804750295322968733_);" d="M117.5,318.5"/>
<linearGradient id="SVGID_00000007429380522728191150000011585537458643022736_" gradientUnits="userSpaceOnUse" x1="-1927.4473" y1="3867.8748" x2="-1927.4473" y2="3867.8748" gradientTransform="matrix(-6.123234e-17 1 1 6.123234e-17 -3671.7434 2160.5803)">
	<stop  offset="0" style="stop-color:#58595B"/>
	<stop  offset="1" style="stop-color:#FFFFFF;stop-opacity:0"/>
</linearGradient>
<path style="fill:url(#SVGID_00000007429380522728191150000011585537458643022736_);" d="M196.1,233.1"/>
<rect x="7.9" y="200.1" class="st18" width="183.7" height="20"/>
<linearGradient id="SVGID_00000179647943877339283800000005169288089553313926_" gradientUnits="userSpaceOnUse" x1="99.7293" y1="92.7184" x2="99.7293" y2="66.7525" gradientTransform="matrix(1 0 0 -1 0 282.1653)">
	<stop  offset="8.379889e-03" style="stop-color:#333333;stop-opacity:0"/>
	<stop  offset="0.5754" style="stop-color:#808080"/>
	<stop  offset="0.6781" style="stop-color:#C7C7C7;stop-opacity:0.76"/>
	<stop  offset="0.8698" style="stop-color:#4F4F4F;stop-opacity:0.3067"/>
	<stop  offset="1" style="stop-color:#333333;stop-opacity:0"/>
</linearGradient>
<rect x="7.9" y="200.1" style="fill:url(#SVGID_00000179647943877339283800000005169288089553313926_);" width="183.7" height="20"/>
<linearGradient id="SVGID_00000152968354170939086360000015163941535551039422_" gradientUnits="userSpaceOnUse" x1="99.7293" y1="92.7184" x2="99.7293" y2="66.7525" gradientTransform="matrix(1 0 0 -1 0 282.1653)">
	<stop  offset="0.4916" style="stop-color:#333333;stop-opacity:0.5"/>
	<stop  offset="1" style="stop-color:#333333;stop-opacity:0"/>
</linearGradient>
<rect x="7.9" y="200.1" style="fill:url(#SVGID_00000152968354170939086360000015163941535551039422_);" width="183.7" height="20"/>
<path class="st18" d="M89.1,220.4c2.5-4.3,7-6.8,11.8-6.4c6.4,0.5,9.6,6,9.9,6.4c0,27.2,0,54.7,0,81.9H89.1V220.4z"/>
<linearGradient id="SVGID_00000008129192052235876420000017573394398310961597_" gradientUnits="userSpaceOnUse" x1="72.1028" y1="24.1319" x2="115.2599" y2="24.0007" gradientTransform="matrix(1 0 0 -1 0 282.1653)">
	<stop  offset="8.379889e-03" style="stop-color:#333333;stop-opacity:0"/>
	<stop  offset="0.5754" style="stop-color:#808080"/>
	<stop  offset="0.6781" style="stop-color:#C7C7C7;stop-opacity:0.76"/>
	<stop  offset="0.8698" style="stop-color:#4F4F4F;stop-opacity:0.3067"/>
	<stop  offset="1" style="stop-color:#333333;stop-opacity:0"/>
</linearGradient>
<path style="fill:url(#SVGID_00000008129192052235876420000017573394398310961597_);" d="M88.9,220.4c2.2-4,6.4-6.5,10.9-6.5
	c4.4,0,8.6,2.6,10.7,6.5c0,27.2,0,54.7,0,81.9H88.9V220.4z"/>
<linearGradient id="SVGID_00000137845475094114876240000010208698468876693646_" gradientUnits="userSpaceOnUse" x1="99.534" y1="135.6057" x2="99.534" y2="-38.1827" gradientTransform="matrix(1 0 0 -1 0 282.1653)">
	<stop  offset="0.4916" style="stop-color:#333333;stop-opacity:0.8"/>
	<stop  offset="1" style="stop-color:#333333;stop-opacity:0"/>
</linearGradient>
<path style="fill:url(#SVGID_00000137845475094114876240000010208698468876693646_);" d="M88.7,220.2c2.2-4,6.5-6.4,11.1-6.4
	c6.9,0.1,10.4,6.1,10.5,6.4c0,27.2,0,54.7,0,81.9H88.7V220.2z"/>
<linearGradient id="SVGID_00000089531617989873941600000006623688671591314325_" gradientUnits="userSpaceOnUse" x1="87.6221" y1="-22.8299" x2="112.227" y2="-22.8299" gradientTransform="matrix(1 0 0 -1 0 282.1653)">
	<stop  offset="0" style="stop-color:#4D4E50"/>
	<stop  offset="0.3101" style="stop-color:#424244"/>
	<stop  offset="0.433" style="stop-color:#666769"/>
	<stop  offset="0.5" style="stop-color:#808285"/>
	<stop  offset="0.7682" style="stop-color:#6D6E71"/>
	<stop  offset="0.8799" style="stop-color:#414042"/>
</linearGradient>
<polygon style="fill:url(#SVGID_00000089531617989873941600000006623688671591314325_);" points="89.1,302.3 87.6,307.7 
	112.2,307.7 110.7,302.3 "/>
<linearGradient id="SVGID_00000127013237568444041170000009978371560978942648_" gradientUnits="userSpaceOnUse" x1="5.8659" y1="59.9315" x2="5.8659" y2="85.6983" gradientTransform="matrix(1 0 0 -1 0 282.1653)">
	<stop  offset="0" style="stop-color:#4D4E50"/>
	<stop  offset="0.3101" style="stop-color:#424244"/>
	<stop  offset="0.433" style="stop-color:#666769"/>
	<stop  offset="0.5" style="stop-color:#808285"/>
	<stop  offset="0.7682" style="stop-color:#6D6E71"/>
	<stop  offset="0.8799" style="stop-color:#414042"/>
</linearGradient>
<polygon style="fill:url(#SVGID_00000127013237568444041170000009978371560978942648_);" points="3.8,197.7 7.9,200.1 7.9,220.1 
	3.8,222.3 "/>
<linearGradient id="SVGID_00000083799614429340670970000002003273629044588222_" gradientUnits="userSpaceOnUse" x1="194.1134" y1="59.868" x2="194.1134" y2="86.1299" gradientTransform="matrix(1 0 0 -1 0 282.1653)">
	<stop  offset="0" style="stop-color:#4D4E50"/>
	<stop  offset="0.3101" style="stop-color:#424244"/>
	<stop  offset="0.433" style="stop-color:#666769"/>
	<stop  offset="0.5" style="stop-color:#808285"/>
	<stop  offset="0.7682" style="stop-color:#6D6E71"/>
	<stop  offset="0.8799" style="stop-color:#414042"/>
</linearGradient>
<polygon style="fill:url(#SVGID_00000083799614429340670970000002003273629044588222_);" points="196.7,197.9 196.7,222.3 
	191.6,220.1 191.6,200.1 "/>
<linearGradient id="SVGID_00000003824760187689932160000006847952876957363386_" gradientUnits="userSpaceOnUse" x1="-1246.6915" y1="-500.2006" x2="-1203.2941" y2="-500.2006" gradientTransform="matrix(6.123234e-17 -1 -1 -6.123234e-17 -318.9755 -1014.8159)">
	<stop  offset="0" style="stop-color:#4D4E50"/>
	<stop  offset="0.3101" style="stop-color:#424244"/>
	<stop  offset="0.433" style="stop-color:#666769"/>
	<stop  offset="0.5" style="stop-color:#808285"/>
	<stop  offset="0.7682" style="stop-color:#6D6E71"/>
	<stop  offset="0.8799" style="stop-color:#414042"/>
</linearGradient>
<polygon style="fill:url(#SVGID_00000003824760187689932160000006847952876957363386_);" points="197,188.5 197,231.7 165.4,231.7 
	165.4,188.5 "/>
<linearGradient id="SVGID_00000137095868699347809300000009440760560904787384_" gradientUnits="userSpaceOnUse" x1="-279.7587" y1="1511.7479" x2="-326.9534" y2="1511.7479" gradientTransform="matrix(6.123234e-17 1 1 -6.123234e-17 -1316.2676 513.5431)">
	<stop  offset="0" style="stop-color:#4D4E50"/>
	<stop  offset="0.3101" style="stop-color:#424244"/>
	<stop  offset="0.433" style="stop-color:#666769"/>
	<stop  offset="0.5" style="stop-color:#808285"/>
	<stop  offset="0.7682" style="stop-color:#6D6E71"/>
	<stop  offset="0.8799" style="stop-color:#414042"/>
</linearGradient>
<polygon style="fill:url(#SVGID_00000137095868699347809300000009440760560904787384_);" points="197,186.5 197,233.5 193.9,231.6 
	193.9,188.3 "/>
<linearGradient id="SVGID_00000081643940495684851550000014060622105591642544_" gradientUnits="userSpaceOnUse" x1="25.6806" y1="7.663" x2="69.0781" y2="7.663" gradientTransform="matrix(1 0 0 -1 52.5681 300.2255)">
	<stop  offset="0" style="stop-color:#4D4E50"/>
	<stop  offset="0.3101" style="stop-color:#424244"/>
	<stop  offset="0.433" style="stop-color:#666769"/>
	<stop  offset="0.5" style="stop-color:#808285"/>
	<stop  offset="0.7682" style="stop-color:#6D6E71"/>
	<stop  offset="0.8799" style="stop-color:#414042"/>
</linearGradient>
<rect x="78.4" y="276.7" style="fill:url(#SVGID_00000081643940495684851550000014060622105591642544_);" width="43.2" height="31.6"/>
<linearGradient id="SVGID_00000009551066307068944060000015846869224165157551_" gradientUnits="userSpaceOnUse" x1="-1552.1309" y1="1003.8843" x2="-1599.3254" y2="1003.8843" gradientTransform="matrix(-1 0 0 1 -1475.791 -697.0665)">
	<stop  offset="0" style="stop-color:#4D4E50"/>
	<stop  offset="0.3101" style="stop-color:#424244"/>
	<stop  offset="0.433" style="stop-color:#666769"/>
	<stop  offset="0.5" style="stop-color:#808285"/>
	<stop  offset="0.7682" style="stop-color:#6D6E71"/>
	<stop  offset="0.8799" style="stop-color:#414042"/>
</linearGradient>
<polygon style="fill:url(#SVGID_00000009551066307068944060000015846869224165157551_);" points="123.6,308.4 76.6,308.4 
	78.6,305.3 121.8,305.3 "/>
<linearGradient id="SVGID_00000042738166403484722900000006980292227719682737_" gradientUnits="userSpaceOnUse" x1="-460.0938" y1="1349.8944" x2="-503.4912" y2="1349.8944" gradientTransform="matrix(6.123234e-17 1 1 -6.123234e-17 -1330.1638 691.9042)">
	<stop  offset="0" style="stop-color:#4D4E50"/>
	<stop  offset="0.3101" style="stop-color:#424244"/>
	<stop  offset="0.433" style="stop-color:#666769"/>
	<stop  offset="0.5" style="stop-color:#808285"/>
	<stop  offset="0.7682" style="stop-color:#6D6E71"/>
	<stop  offset="0.8799" style="stop-color:#414042"/>
</linearGradient>
<polygon style="fill:url(#SVGID_00000042738166403484722900000006980292227719682737_);" points="4,231.6 4,188.3 35.5,188.3 
	35.5,231.6 "/>
<linearGradient id="SVGID_00000122705435265962737860000013068861195877024442_" gradientUnits="userSpaceOnUse" x1="-1070.1742" y1="-338.347" x2="-1022.9794" y2="-338.347" gradientTransform="matrix(-6.123234e-17 -1 -1 6.123234e-17 -332.8717 -836.4548)">
	<stop  offset="0" style="stop-color:#4D4E50"/>
	<stop  offset="0.3101" style="stop-color:#424244"/>
	<stop  offset="0.433" style="stop-color:#666769"/>
	<stop  offset="0.5" style="stop-color:#808285"/>
	<stop  offset="0.7682" style="stop-color:#6D6E71"/>
	<stop  offset="0.8799" style="stop-color:#414042"/>
</linearGradient>
<polygon style="fill:url(#SVGID_00000122705435265962737860000013068861195877024442_);" points="4,233.5 4,186.5 7,188.5 7,231.7 
	"/>
<image style="overflow:visible;" width="200" height="200" xlink:href="../../pepsi.png"  transform="matrix(0.1248 0 0 0.1248 88.7584 37.7002)">
</image>
</svg>
