<?xml version="1.0" encoding="utf-8"?>
<!-- Generator: Adobe Illustrator 25.4.1, SVG Export Plug-In . SVG Version: 6.00 Build 0)  -->
<svg version="1.1" id="Слой_1" xmlns="http://www.w3.org/2000/svg" xmlns:xlink="http://www.w3.org/1999/xlink" x="0px" y="0px"
	 viewBox="0 0 200 320" style="enable-background:new 0 0 200 320;" xml:space="preserve">
<style type="text/css">
	.st0{clip-path:url(#SVGID_00000084525257771900011610000016405833636719191994_);}
	.st1{fill:url(#SVGID_00000174592704810813769850000003542437948017772421_);}
	.st2{fill:url(#SVGID_00000041282494257116698570000005847922428587381181_);}
	.st3{fill:url(#SVGID_00000081637973428578253550000013173814851984122797_);}
	.st4{fill:url(#SVGID_00000134224593590447303240000012452893011705675691_);}
	.st5{fill:url(#SVGID_00000031196927354850165580000003135584028180548508_);}
	.st6{fill:none;stroke:url(#SVGID_00000032613273982895337860000008434821653974553225_);stroke-miterlimit:10;}
	.st7{fill:none;stroke:url(#SVGID_00000052789041426288372330000018408142900187309449_);stroke-miterlimit:10;}
	.st8{fill:url(#SVGID_00000169557192575334080250000005120713771189119137_);}
	.st9{fill:url(#SVGID_00000127758000868840727100000013074177069913625013_);}
	.st10{fill:#4D4D4D;}
	.st11{fill:url(#SVGID_00000084510792237573813180000009107365182419042183_);}
	.st12{fill:url(#SVGID_00000033352807025336958250000017720745651526443922_);}
	.st13{fill:none;stroke:url(#SVGID_00000109730068578234650540000015439736867390781348_);stroke-miterlimit:10;}
	.st14{fill:none;stroke:url(#SVGID_00000171720476166502716700000006126509766149747618_);stroke-miterlimit:10;}
	.st15{fill:url(#SVGID_00000038381628712934516480000002810389689164287672_);}
	.st16{fill:url(#SVGID_00000025420440542366575660000008479219833869629364_);}
	.st17{fill:url(#SVGID_00000160895922087775371100000016511640917285809814_);}
	.st18{fill:url(#SVGID_00000134935733933689514810000005079045065215639740_);}
	.st19{fill:url(#SVGID_00000173848656734384223400000008143022122104068525_);}
	.st20{fill:none;stroke:#ADADAD;stroke-width:0.5;stroke-miterlimit:10;}
	.st21{fill:url(#SVGID_00000109752256979495797790000007631417146380768391_);}
	.st22{fill:url(#SVGID_00000171684137127297894390000017571403722908533378_);}
	.st23{fill:url(#SVGID_00000067931468799753922820000007740356710249743497_);}
	.st24{fill:url(#SVGID_00000153706375032039080140000002023946384880436360_);}
	.st25{fill:url(#SVGID_00000168075711749974468380000016141961461805291400_);}
	.st26{fill:url(#SVGID_00000071525172041325419990000005325854341817896860_);}
	.st27{fill:url(#SVGID_00000173870886549521789640000006026848255045790892_);}
	.st28{fill:url(#SVGID_00000069378765926965931060000005802006377118141335_);}
</style>
<g>
	<g>
		<defs>
			<path id="SVGID_1_" d="M172.6,214.2c-8.6,0.1-25.8,0.1-25.8,0.1l-1.7,1.5v1.2c-0.3,0-2.5,0-2.8,0c-5.5,0-11,0-16.5,0.1
				c-0.4-0.1-1.1-0.4-1.8-1.1c-0.8-0.8-1.2-1.7-1.3-2.1c0-7.4,0-14.8,0-22.2h1.6l1.4-1.1v-26.5l-1.5-1.6h-50
				c-0.5,0.7-1.1,1.1-1.6,1.7c0.1,8.6,0.1,25.8,0.1,25.8l1.5,1.7h1.6c0,7.3,0,14.7,0.1,22c-0.1,0.4-0.4,1.6-1.6,2.6
				c-0.7,0.6-1.5,0.8-1.9,0.9c-4.4,0-10.9-0.1-15.3-0.1c-0.1,0-2,0-2.1,0v-1.2c-0.7-0.5-1.1-1.1-1.7-1.6c-8.6,0.1-25.8,0.1-25.8,0.1
				l-1.7,1.5V266l1.1,1.4h26.5l1.6-1.5c0-0.6,0-1.2,0-1.8c0.8,0,1.5,0,2.3,0c5.2,0,10.3,0,15.5,0c0.5,0.2,1.4,0.7,2.1,1.7
				c0.5,0.6,0.8,1.3,0.9,1.7c0,6.5,0,13,0,19.6c-0.5,0-1,0.1-1.5,0.1l-1.4,1.1v26.5l1.5,1.6h50c0.5-0.7,1.1-1.1,1.6-1.7
				c-0.1-8.6-0.1-25.8-0.1-25.8c-0.5-0.6-1-1.1-1.5-1.7c-0.6,0-1.2,0-1.8,0c0-6.6,0-13.1-0.1-19.7c0.2-0.7,0.5-1.8,1.5-2.6
				c0.9-0.7,2.3-0.8,2.3-0.8h16.1c0,0,2,0,2.5,0v1.8l1.1,1.4h26.5l1.6-1.5v-50C173.6,215.3,173.2,214.7,172.6,214.2z"/>
		</defs>
		<clipPath id="SVGID_00000132078815808770316400000011440537434878411657_">
			<use xlink:href="#SVGID_1_"  style="overflow:visible;"/>
		</clipPath>
		<g style="clip-path:url(#SVGID_00000132078815808770316400000011440537434878411657_);">
			
				<image style="overflow:visible;enable-background:new    ;" width="1200" height="900" xlink:href="../../Фитинги/Резьбовые/Металл.jpg"  transform="matrix(0.171 0 0 0.18 18.0213 158)">
			</image>
		</g>
	</g>
</g>
<linearGradient id="SVGID_00000110443344974110902610000009394259180411740315_" gradientUnits="userSpaceOnUse" x1="47.4143" y1="299.6794" x2="142.6104" y2="354.3899" gradientTransform="matrix(1 0 0 -1 0 412)">
	<stop  offset="0" style="stop-color:#919396"/>
	<stop  offset="0.3883" style="stop-color:#D1D3D4"/>
	<stop  offset="0.7961" style="stop-color:#BCBEC0"/>
	<stop  offset="1" style="stop-color:#919396"/>
</linearGradient>
<path style="fill:url(#SVGID_00000110443344974110902610000009394259180411740315_);" d="M151.1,67.4c-4.2,0.1-8.3,0.1-12.6,0.2
	c-6.1,0-12.1,0-18.2,0c-1.1-0.3-2.6-0.9-3.9-2.3c-1-1-1.4-2.1-1.6-2.8c0-9.7,0.1-19.4,0.1-29.1c-10.2,0-20.3,0-30.6-0.1
	c0,9.7,0.1,19.4,0.1,29.1c0,0-0.4,1.9-1.5,3.1c-1,1.2-2.3,1.8-3.3,2.1c-10.5,0-20.9,0-31.4,0c0,9.9,0,19.8,0,29.7
	c4.2-0.1,8.3-0.1,12.6-0.2c6.1,0,12.1,0,18.2,0c1.2,0.3,2.9,1.1,4.3,2.7c0.7,0.9,1.1,1.7,1.3,2.4c0,9.7-0.1,19.4-0.1,29.1
	c10.2,0,20.3,0,30.5,0c0.1-9.6,0.2-19.3,0.3-28.9c0,0,0.4-1.9,1.5-3.1c1.1-1.3,2.6-1.9,3.6-2.2c10.2,0,20.5,0,30.7,0
	C151.1,87.2,151.1,67.4,151.1,67.4z"/>
<linearGradient id="SVGID_00000072255320359633243390000004379981674722403471_" gradientUnits="userSpaceOnUse" x1="95.0166" y1="-1305.0922" x2="142.8742" y2="-1272.7036" gradientTransform="matrix(1 0 0 -1 0 -1173.1654)">
	<stop  offset="0.1201" style="stop-color:#686566"/>
	<stop  offset="0.1983" style="stop-color:#6E7072"/>
	<stop  offset="0.433" style="stop-color:#919396"/>
	<stop  offset="0.6732" style="stop-color:#E6E7E8"/>
	<stop  offset="0.8966" style="stop-color:#9F9D9D"/>
	<stop  offset="1" style="stop-color:#919396"/>
</linearGradient>
<path style="fill:url(#SVGID_00000072255320359633243390000004379981674722403471_);" d="M148.9,105.8c-7.5-0.1-15-0.1-22.4-0.2
	c-0.4,0.1-1.6,0.4-2.5,1.5l-1,2l0.2,22.1c0,0-5.4,0-8.2,0c0-9.6,0-19.2,0-28.8c0.1-0.6,0.5-1.9,1.5-3.1c1.5-1.7,3.5-2.2,4.1-2.3
	c9.4,0,18.9-0.1,28.3-0.1C148.9,99.9,148.9,102.9,148.9,105.8z"/>
<linearGradient id="SVGID_00000178896756511989400680000009224829205959391635_" gradientUnits="userSpaceOnUse" x1="-4137.4453" y1="-1305.0947" x2="-4089.5874" y2="-1272.7062" gradientTransform="matrix(-1 0 0 -1 -4032.9973 -1173.1654)">
	<stop  offset="0.1201" style="stop-color:#686566"/>
	<stop  offset="0.1983" style="stop-color:#6E7072"/>
	<stop  offset="0.433" style="stop-color:#919396"/>
	<stop  offset="0.6732" style="stop-color:#E6E7E8"/>
	<stop  offset="0.8966" style="stop-color:#9F9D9D"/>
	<stop  offset="1" style="stop-color:#919396"/>
</linearGradient>
<path style="fill:url(#SVGID_00000178896756511989400680000009224829205959391635_);" d="M50.7,97c9.4,0,18.9,0.1,28.3,0.1
	c0.7,0.1,2.6,0.6,4.1,2.3c1,1.2,1.4,2.4,1.5,3.1c0,9.6,0,19.2,0,28.8c-2.7,0-8.2,0-8.2,0l0.2-22.1l-1-2c-0.9-1.1-2.1-1.4-2.5-1.5
	c-7.5,0-15,0.1-22.4,0.1C50.7,102.9,50.7,99.9,50.7,97z"/>
<linearGradient id="SVGID_00000036221982314342104790000004776979906492508299_" gradientUnits="userSpaceOnUse" x1="-1667.7949" y1="-623.2191" x2="-1619.9373" y2="-590.8306" gradientTransform="matrix(-1 0 0 1 -1563.5 655.7845)">
	<stop  offset="0.1201" style="stop-color:#686566"/>
	<stop  offset="0.1983" style="stop-color:#6E7072"/>
	<stop  offset="0.433" style="stop-color:#919396"/>
	<stop  offset="0.6732" style="stop-color:#E6E7E8"/>
	<stop  offset="0.8966" style="stop-color:#9F9D9D"/>
	<stop  offset="1" style="stop-color:#919396"/>
</linearGradient>
<path style="fill:url(#SVGID_00000036221982314342104790000004776979906492508299_);" d="M50.4,58.7c7.5,0.1,15,0.1,22.4,0.2
	c0.4-0.1,1.6-0.4,2.5-1.5l1-2l-0.2-22.1c0,0,5.4,0,8.2,0c0,9.6,0,19.2,0,28.8c-0.1,0.6-0.5,1.9-1.5,3.1c-1.5,1.7-3.5,2.2-4.1,2.3
	c-9.4,0-18.9,0.1-28.3,0.1C50.4,64.6,50.4,61.6,50.4,58.7z"/>
<linearGradient id="SVGID_00000101821529605541319040000015049624597279843715_" gradientUnits="userSpaceOnUse" x1="-2374.7246" y1="-623.2677" x2="-2326.8672" y2="-590.8792" gradientTransform="matrix(1 0 0 1 2469.4973 655.7845)">
	<stop  offset="0.1201" style="stop-color:#686566"/>
	<stop  offset="0.1983" style="stop-color:#6E7072"/>
	<stop  offset="0.433" style="stop-color:#919396"/>
	<stop  offset="0.6732" style="stop-color:#E6E7E8"/>
	<stop  offset="0.8966" style="stop-color:#9F9D9D"/>
	<stop  offset="1" style="stop-color:#919396"/>
</linearGradient>
<path style="fill:url(#SVGID_00000101821529605541319040000015049624597279843715_);" d="M148.6,67.5c-9.4,0-18.9-0.1-28.3-0.1
	c-0.7-0.1-2.6-0.6-4.1-2.3c-1-1.2-1.4-2.4-1.5-3.1c0-9.6,0-19.2,0-28.8c2.7,0,8.2,0,8.2,0l-0.2,22.1l1,2c0.9,1.1,2.1,1.4,2.5,1.5
	c7.5,0,15-0.1,22.4-0.1C148.6,61.6,148.6,64.6,148.6,67.5z"/>
<linearGradient id="SVGID_00000165207195573249768650000003049139339839331508_" gradientUnits="userSpaceOnUse" x1="113.5644" y1="-1303.9253" x2="137.2333" y2="-1262.9297" gradientTransform="matrix(1 0 0 -1 0 -1173.1654)">
	<stop  offset="2.513967e-02" style="stop-color:#666666"/>
	<stop  offset="0.3212" style="stop-color:#9F9D9D"/>
	<stop  offset="0.5168" style="stop-color:#FFFFFF"/>
	<stop  offset="0.7793" style="stop-color:#E4E3E3"/>
	<stop  offset="1" style="stop-color:#919396"/>
</linearGradient>
<path style="fill:none;stroke:url(#SVGID_00000165207195573249768650000003049139339839331508_);stroke-miterlimit:10;" d="
	M148.9,97c0,0-19,0-28.4,0c-0.4,0-2.4,0.2-3.9,1.8c-1.2,1.2-1.6,3.7-1.6,3.7v28.8"/>
<linearGradient id="SVGID_00000052086140959435783550000014380902358021990806_" gradientUnits="userSpaceOnUse" x1="86.1148" y1="-1303.7955" x2="62.6446" y2="-1263.1439" gradientTransform="matrix(1 0 0 -1 0 -1173.1654)">
	<stop  offset="2.513967e-02" style="stop-color:#666666"/>
	<stop  offset="0.3212" style="stop-color:#9F9D9D"/>
	<stop  offset="0.5168" style="stop-color:#FFFFFF"/>
	<stop  offset="0.7793" style="stop-color:#E4E3E3"/>
	<stop  offset="1" style="stop-color:#919396"/>
</linearGradient>
<path style="fill:none;stroke:url(#SVGID_00000052086140959435783550000014380902358021990806_);stroke-miterlimit:10;" d="
	M84.4,131.4c0-9.7,0.1-19.4,0.1-29.1c-0.1-0.7-0.5-1.9-1.5-3.1c-1.4-1.7-5.3-2.3-5.3-2.3C68.9,97,60.1,97,51.3,97.1"/>
<linearGradient id="SVGID_00000170275412910930479590000016200656884115538837_" gradientUnits="userSpaceOnUse" x1="-1042.5498" y1="1948.7983" x2="-1042.5498" y2="2001.8983" gradientTransform="matrix(6.123234e-17 1 1 -6.123234e-17 -1875.5983 1185.9498)">
	<stop  offset="0" style="stop-color:#999898"/>
	<stop  offset="0.1963" style="stop-color:#4F4F4F"/>
	<stop  offset="0.2507" style="stop-color:#5B5B5B"/>
	<stop  offset="0.3499" style="stop-color:#7C7C7C"/>
	<stop  offset="0.3704" style="stop-color:#848484"/>
	<stop  offset="0.433" style="stop-color:#878787"/>
	<stop  offset="0.5974" style="stop-color:#D9D9D9"/>
	<stop  offset="0.6843" style="stop-color:#FFFFFF"/>
	<stop  offset="0.9078" style="stop-color:#B7B7B7"/>
	<stop  offset="1" style="stop-color:#C6C6C6"/>
</linearGradient>
<path style="fill:url(#SVGID_00000170275412910930479590000016200656884115538837_);" d="M73.2,156.4v-26.5l1.4-1.1h50.1l1.5,1.7
	c0,0,0,17.2,0.1,25.8c-0.5,0.6-1.1,1-1.6,1.7h-50L73.2,156.4z"/>
<linearGradient id="SVGID_00000147181246380709296620000003042943936601324939_" gradientUnits="userSpaceOnUse" x1="-1412.8428" y1="-1551.4979" x2="-1412.8428" y2="-1551.4979" gradientTransform="matrix(6.123234e-17 1 -1 6.123234e-17 -1438.4979 1732.8428)">
	<stop  offset="0" style="stop-color:#58595B"/>
	<stop  offset="1" style="stop-color:#FFFFFF;stop-opacity:0"/>
</linearGradient>
<path style="fill:url(#SVGID_00000147181246380709296620000003042943936601324939_);" d="M113,320"/>
<rect x="28.5" y="232.5" class="st10" width="141.1" height="15.4"/>
<linearGradient id="SVGID_00000107561038933021221580000014849304590079455633_" gradientUnits="userSpaceOnUse" x1="99.05" y1="987.0833" x2="99.05" y2="1007.0287" gradientTransform="matrix(1 0 0 1 0 -762.8347)">
	<stop  offset="8.379889e-03" style="stop-color:#333333;stop-opacity:0"/>
	<stop  offset="0.5754" style="stop-color:#808080"/>
	<stop  offset="0.6781" style="stop-color:#C7C7C7;stop-opacity:0.76"/>
	<stop  offset="0.8698" style="stop-color:#4F4F4F;stop-opacity:0.3067"/>
	<stop  offset="1" style="stop-color:#333333;stop-opacity:0"/>
</linearGradient>
<rect x="28.5" y="232.5" style="fill:url(#SVGID_00000107561038933021221580000014849304590079455633_);" width="141.1" height="15.4"/>
<linearGradient id="SVGID_00000037657789995145563320000011570198980414554802_" gradientUnits="userSpaceOnUse" x1="-1979.3364" y1="139.2021" x2="-1979.3364" y2="139.2021" gradientTransform="matrix(-6.123234e-17 -1 1 -6.123234e-17 -49.8021 -1826.6365)">
	<stop  offset="0" style="stop-color:#58595B"/>
	<stop  offset="1" style="stop-color:#FFFFFF;stop-opacity:0"/>
</linearGradient>
<path style="fill:url(#SVGID_00000037657789995145563320000011570198980414554802_);" d="M89.4,152.7"/>
<linearGradient id="SVGID_00000004542807496167747530000015642626806463218826_" gradientUnits="userSpaceOnUse" x1="-1655.8356" y1="-681.9997" x2="-1632.1666" y2="-641.004" gradientTransform="matrix(-1 0 0 1 -1569.8 715.9398)">
	<stop  offset="2.513967e-02" style="stop-color:#666666"/>
	<stop  offset="0.3212" style="stop-color:#9F9D9D"/>
	<stop  offset="0.5168" style="stop-color:#FFFFFF"/>
	<stop  offset="0.7793" style="stop-color:#E4E3E3"/>
	<stop  offset="1" style="stop-color:#919396"/>
</linearGradient>
<path style="fill:none;stroke:url(#SVGID_00000004542807496167747530000015642626806463218826_);stroke-miterlimit:10;" d="
	M50.7,67.7c0,0,19,0,28.4,0c0.4,0,2.4-0.2,3.9-1.8c1.2-1.2,1.6-3.7,1.6-3.7V33.4"/>
<linearGradient id="SVGID_00000119799466107548840150000011061837262859673274_" gradientUnits="userSpaceOnUse" x1="-1683.2181" y1="-681.8997" x2="-1706.7058" y2="-641.2176" gradientTransform="matrix(-1 0 0 1 -1569.8 715.9398)">
	<stop  offset="2.513967e-02" style="stop-color:#666666"/>
	<stop  offset="0.3212" style="stop-color:#9F9D9D"/>
	<stop  offset="0.5168" style="stop-color:#FFFFFF"/>
	<stop  offset="0.7793" style="stop-color:#E4E3E3"/>
	<stop  offset="1" style="stop-color:#919396"/>
</linearGradient>
<path style="fill:none;stroke:url(#SVGID_00000119799466107548840150000011061837262859673274_);stroke-miterlimit:10;" d="
	M115.2,33.3c0,9.7-0.1,19.4-0.1,29.1c0.1,0.7,0.5,1.9,1.5,3.1c1.4,1.7,5.3,2.3,5.3,2.3c8.8-0.1,17.6-0.1,26.3-0.2"/>
<path class="st10" d="M108.4,232.4c0-15.5,0-31,0-46.5c-0.2-0.6-2.7-9.1-7.6-9.9c-3.7-0.6-7.2,3.2-9.1,9.9v46.6h0.1
	c3.1,1.6,4.9,4.6,4.9,7.9c-0.1,4.9-4.7,7.4-4.9,7.5h-0.1v64.8h16.7c0-21.5,0-43.1,0-64.7c-3.1-1.6-4.9-4.7-4.9-8
	C103.6,235,108.2,232.5,108.4,232.4z"/>
<linearGradient id="SVGID_00000119825723233257313560000011035945422772971425_" gradientUnits="userSpaceOnUse" x1="91.6825" y1="167.6809" x2="108.3825" y2="167.6809" gradientTransform="matrix(1 0 0 -1 0 412)">
	<stop  offset="8.379889e-03" style="stop-color:#333333;stop-opacity:0"/>
	<stop  offset="0.5754" style="stop-color:#808080"/>
	<stop  offset="0.6781" style="stop-color:#C7C7C7;stop-opacity:0.76"/>
	<stop  offset="0.8698" style="stop-color:#4F4F4F;stop-opacity:0.3067"/>
	<stop  offset="1" style="stop-color:#333333;stop-opacity:0"/>
</linearGradient>
<path style="fill:url(#SVGID_00000119825723233257313560000011035945422772971425_);" d="M108.4,232.4c0-15.5,0-31,0-46.5
	c-0.2-0.6-2.7-9.1-7.6-9.9c-3.7-0.6-7.2,3.2-9.1,9.9v46.6h0.1c3.1,1.6,4.9,4.6,4.9,7.9c-0.1,4.9-4.7,7.4-4.9,7.5h-0.1v64.8h16.7
	c0-21.5,0-43.1,0-64.7c-3.1-1.6-4.9-4.7-4.9-8C103.6,235,108.2,232.5,108.4,232.4z"/>
<linearGradient id="SVGID_00000013879109855946910940000002014164284669414830_" gradientUnits="userSpaceOnUse" x1="91.6825" y1="167.6809" x2="108.3825" y2="167.6809" gradientTransform="matrix(1 0 0 -1 0 412)">
	<stop  offset="0.4916" style="stop-color:#333333;stop-opacity:0.8"/>
	<stop  offset="1" style="stop-color:#333333;stop-opacity:0"/>
</linearGradient>
<path style="fill:url(#SVGID_00000013879109855946910940000002014164284669414830_);" d="M108.4,232.4c0-15.5,0-31,0-46.5
	c-0.2-0.6-2.7-9.1-7.6-9.9c-3.7-0.6-7.2,3.2-9.1,9.9v46.6h0.1c3.1,1.6,4.9,4.6,4.9,7.9c-0.1,4.9-4.7,7.4-4.9,7.5h-0.1v64.8h16.7
	c0-21.5,0-43.1,0-64.7c-3.1-1.6-4.9-4.7-4.9-8C103.6,235,108.2,232.5,108.4,232.4z"/>
<linearGradient id="SVGID_00000131353186554623829090000001446828368597909903_" gradientUnits="userSpaceOnUse" x1="-1034.2947" y1="-1745.7261" x2="-1034.2947" y2="-1798.826" gradientTransform="matrix(6.123234e-17 -1 -1 -6.123234e-17 -1672.826 -1015.4947)">
	<stop  offset="0" style="stop-color:#999898"/>
	<stop  offset="0.1963" style="stop-color:#4F4F4F"/>
	<stop  offset="0.2507" style="stop-color:#5B5B5B"/>
	<stop  offset="0.3499" style="stop-color:#7C7C7C"/>
	<stop  offset="0.3704" style="stop-color:#848484"/>
	<stop  offset="0.433" style="stop-color:#878787"/>
	<stop  offset="0.5974" style="stop-color:#D9D9D9"/>
	<stop  offset="0.6843" style="stop-color:#FFFFFF"/>
	<stop  offset="0.9078" style="stop-color:#B7B7B7"/>
	<stop  offset="1" style="stop-color:#C6C6C6"/>
</linearGradient>
<path style="fill:url(#SVGID_00000131353186554623829090000001446828368597909903_);" d="M126,5.8v26.5l-1.4,1.1H74.5L73,31.7
	c0,0,0-17.2-0.1-25.8c0.5-0.6,1.1-1,1.6-1.7h50L126,5.8z"/>
<linearGradient id="SVGID_00000126293298224442933960000001794670626029226140_" gradientUnits="userSpaceOnUse" x1="159.9" y1="-1282.1654" x2="159.9" y2="-1229.0654" gradientTransform="matrix(1 0 0 -1 0 -1173.1654)">
	<stop  offset="0" style="stop-color:#999898"/>
	<stop  offset="0.1963" style="stop-color:#4F4F4F"/>
	<stop  offset="0.2507" style="stop-color:#5B5B5B"/>
	<stop  offset="0.3499" style="stop-color:#7C7C7C"/>
	<stop  offset="0.3704" style="stop-color:#848484"/>
	<stop  offset="0.433" style="stop-color:#878787"/>
	<stop  offset="0.5974" style="stop-color:#D9D9D9"/>
	<stop  offset="0.6843" style="stop-color:#FFFFFF"/>
	<stop  offset="0.9078" style="stop-color:#B7B7B7"/>
	<stop  offset="1" style="stop-color:#C6C6C6"/>
</linearGradient>
<path style="fill:url(#SVGID_00000126293298224442933960000001794670626029226140_);" d="M172.9,109h-26.5l-1.1-1.4V57.5L147,56
	c0,0,17.2,0,25.8-0.1c0.6,0.5,1,1.1,1.7,1.6v50L172.9,109z"/>
<linearGradient id="SVGID_00000137111528462052116890000009095226877550434747_" gradientUnits="userSpaceOnUse" x1="40.7" y1="-1282.1654" x2="40.7" y2="-1229.0654" gradientTransform="matrix(1 0 0 -1 0 -1173.1654)">
	<stop  offset="0" style="stop-color:#999898"/>
	<stop  offset="0.1963" style="stop-color:#4F4F4F"/>
	<stop  offset="0.2507" style="stop-color:#5B5B5B"/>
	<stop  offset="0.3499" style="stop-color:#7C7C7C"/>
	<stop  offset="0.3704" style="stop-color:#848484"/>
	<stop  offset="0.433" style="stop-color:#878787"/>
	<stop  offset="0.5974" style="stop-color:#D9D9D9"/>
	<stop  offset="0.6843" style="stop-color:#FFFFFF"/>
	<stop  offset="0.9078" style="stop-color:#B7B7B7"/>
	<stop  offset="1" style="stop-color:#C6C6C6"/>
</linearGradient>
<path style="fill:url(#SVGID_00000137111528462052116890000009095226877550434747_);" d="M53.7,109H27.2l-1.1-1.4V57.5l1.7-1.5
	c0,0,17.2,0,25.8-0.1c0.6,0.5,1,1.1,1.7,1.6v50L53.7,109z"/>
<path class="st20" d="M172.6,214.2c-8.6,0.1-25.8,0.1-25.8,0.1l-1.7,1.5v1.2c-0.3,0-2.5,0-2.8,0c-5.5,0-11,0-16.5,0.1
	c-0.4-0.1-1.1-0.4-1.8-1.1c-0.8-0.8-1.2-1.7-1.3-2.1c0-7.4,0-14.8,0-22.2h1.6l1.4-1.1v-26.5l-1.5-1.6h-50c-0.5,0.7-1.1,1.1-1.6,1.7
	c0.1,8.6,0.1,25.8,0.1,25.8l1.5,1.7h1.6c0,7.3,0,14.7,0.1,22c-0.1,0.4-0.4,1.6-1.6,2.6c-0.7,0.6-1.5,0.8-1.9,0.9
	c-4.4,0-10.9-0.1-15.3-0.1c-0.1,0-2,0-2.1,0v-1.2c-0.7-0.5-1.1-1.1-1.7-1.6c-8.6,0.1-25.8,0.1-25.8,0.1l-1.7,1.5V266l1.1,1.4h26.5
	l1.6-1.5c0-0.6,0-1.2,0-1.8c0.8,0,1.5,0,2.3,0c5.2,0,10.3,0,15.5,0c0.5,0.2,1.4,0.7,2.1,1.7c0.5,0.6,0.8,1.3,0.9,1.7
	c0,6.5,0,13,0,19.6c-0.5,0-1,0.1-1.5,0.1l-1.4,1.1v26.5l1.5,1.6h50c0.5-0.7,1.1-1.1,1.6-1.7c-0.1-8.6-0.1-25.8-0.1-25.8
	c-0.5-0.6-1-1.1-1.5-1.7c-0.6,0-1.2,0-1.8,0c0-6.6,0-13.1-0.1-19.7c0.2-0.7,0.5-1.8,1.5-2.6c0.9-0.7,2.3-0.8,2.3-0.8h16.1
	c0,0,2,0,2.5,0v1.8l1.1,1.4h26.5l1.6-1.5v-50C173.6,215.3,173.2,214.7,172.6,214.2z"/>
<linearGradient id="SVGID_00000016036579496249506160000010409018285365520515_" gradientUnits="userSpaceOnUse" x1="83.1574" y1="147.35" x2="116.4926" y2="147.35" gradientTransform="matrix(1 0 0 -1 0 322)">
	<stop  offset="0" style="stop-color:#4D4E50"/>
	<stop  offset="0.3101" style="stop-color:#424244"/>
	<stop  offset="0.433" style="stop-color:#666769"/>
	<stop  offset="0.5" style="stop-color:#808285"/>
	<stop  offset="0.7682" style="stop-color:#6D6E71"/>
	<stop  offset="0.8799" style="stop-color:#414042"/>
</linearGradient>
<rect x="83.3" y="162.5" style="fill:url(#SVGID_00000016036579496249506160000010409018285365520515_);" width="33.2" height="24.3"/>
<linearGradient id="SVGID_00000006678051188711158210000000000221835039352977_" gradientUnits="userSpaceOnUse" x1="83.1574" y1="17.85" x2="116.4926" y2="17.85" gradientTransform="matrix(1 0 0 -1 0 322)">
	<stop  offset="0" style="stop-color:#4D4E50"/>
	<stop  offset="0.3101" style="stop-color:#424244"/>
	<stop  offset="0.433" style="stop-color:#666769"/>
	<stop  offset="0.5" style="stop-color:#808285"/>
	<stop  offset="0.7682" style="stop-color:#6D6E71"/>
	<stop  offset="0.8799" style="stop-color:#414042"/>
</linearGradient>
<rect x="83.3" y="292" style="fill:url(#SVGID_00000006678051188711158210000000000221835039352977_);" width="33.2" height="24.3"/>
<linearGradient id="SVGID_00000009577568997909067740000004049003395891573408_" gradientUnits="userSpaceOnUse" x1="-1214.2734" y1="-413.4755" x2="-1180.9382" y2="-413.4755" gradientTransform="matrix(6.123234e-17 -1 -1 -6.123234e-17 -375.4755 -957.3159)">
	<stop  offset="0" style="stop-color:#4D4E50"/>
	<stop  offset="0.3101" style="stop-color:#424244"/>
	<stop  offset="0.433" style="stop-color:#666769"/>
	<stop  offset="0.5" style="stop-color:#808285"/>
	<stop  offset="0.7682" style="stop-color:#6D6E71"/>
	<stop  offset="0.8799" style="stop-color:#414042"/>
</linearGradient>
<polygon style="fill:url(#SVGID_00000009577568997909067740000004049003395891573408_);" points="50.1,223.6 50.1,256.8 25.9,256.8 
	25.9,223.6 "/>
<linearGradient id="SVGID_00000137132131832558999680000005042600495577573009_" gradientUnits="userSpaceOnUse" x1="-1214.2734" y1="-537.7255" x2="-1180.9382" y2="-537.7255" gradientTransform="matrix(6.123234e-17 -1 -1 -6.123234e-17 -375.4755 -957.3159)">
	<stop  offset="0" style="stop-color:#4D4E50"/>
	<stop  offset="0.3101" style="stop-color:#424244"/>
	<stop  offset="0.433" style="stop-color:#666769"/>
	<stop  offset="0.5" style="stop-color:#808285"/>
	<stop  offset="0.7682" style="stop-color:#6D6E71"/>
	<stop  offset="0.8799" style="stop-color:#414042"/>
</linearGradient>
<polygon style="fill:url(#SVGID_00000137132131832558999680000005042600495577573009_);" points="174.4,223.6 174.4,256.8 
	150.1,256.8 150.1,223.6 "/>
<linearGradient id="SVGID_00000177450024984743559060000014146184478565000844_" gradientUnits="userSpaceOnUse" x1="81.739" y1="156.3" x2="117.9911" y2="156.3" gradientTransform="matrix(1 0 0 -1 0 322)">
	<stop  offset="0" style="stop-color:#4D4E50"/>
	<stop  offset="0.3101" style="stop-color:#424244"/>
	<stop  offset="0.433" style="stop-color:#666769"/>
	<stop  offset="0.5" style="stop-color:#808285"/>
	<stop  offset="0.7682" style="stop-color:#6D6E71"/>
	<stop  offset="0.8799" style="stop-color:#414042"/>
</linearGradient>
<polygon style="fill:url(#SVGID_00000177450024984743559060000014146184478565000844_);" points="81.9,164.5 118,164.5 116.5,166.9 
	83.3,166.9 "/>
<linearGradient id="SVGID_00000048487303611216077760000015647332615916037025_" gradientUnits="userSpaceOnUse" x1="-1649.8135" y1="1041.201" x2="-1686.0656" y2="1041.201" gradientTransform="matrix(-1 0 0 1 -1568.0745 -726.1011)">
	<stop  offset="0" style="stop-color:#4D4E50"/>
	<stop  offset="0.3101" style="stop-color:#424244"/>
	<stop  offset="0.433" style="stop-color:#666769"/>
	<stop  offset="0.5" style="stop-color:#808285"/>
	<stop  offset="0.7682" style="stop-color:#6D6E71"/>
	<stop  offset="0.8799" style="stop-color:#414042"/>
</linearGradient>
<polygon style="fill:url(#SVGID_00000048487303611216077760000015647332615916037025_);" points="118,316.3 81.9,316.3 83.4,313.9 
	116.6,313.9 "/>
<linearGradient id="SVGID_00000062873960037602634680000012978756685200287412_" gradientUnits="userSpaceOnUse" x1="-1087.4498" y1="-217.6888" x2="-1051.1978" y2="-217.6888" gradientTransform="matrix(-6.123234e-17 -1 -1 6.123234e-17 -190.7888 -829.0261)">
	<stop  offset="0" style="stop-color:#4D4E50"/>
	<stop  offset="0.3101" style="stop-color:#424244"/>
	<stop  offset="0.433" style="stop-color:#666769"/>
	<stop  offset="0.5" style="stop-color:#808285"/>
	<stop  offset="0.7682" style="stop-color:#6D6E71"/>
	<stop  offset="0.8799" style="stop-color:#414042"/>
</linearGradient>
<polygon style="fill:url(#SVGID_00000062873960037602634680000012978756685200287412_);" points="25.7,258.2 25.7,222.2 28.1,223.7 
	28.1,256.8 "/>
<linearGradient id="SVGID_00000003787821056396616280000002317370006884049571_" gradientUnits="userSpaceOnUse" x1="-312.6194" y1="1432.9677" x2="-348.8714" y2="1432.9677" gradientTransform="matrix(6.123234e-17 1 1 -6.123234e-17 -1259.7676 571.0431)">
	<stop  offset="0" style="stop-color:#4D4E50"/>
	<stop  offset="0.3101" style="stop-color:#424244"/>
	<stop  offset="0.433" style="stop-color:#666769"/>
	<stop  offset="0.5" style="stop-color:#808285"/>
	<stop  offset="0.7682" style="stop-color:#6D6E71"/>
	<stop  offset="0.8799" style="stop-color:#414042"/>
</linearGradient>
<polygon style="fill:url(#SVGID_00000003787821056396616280000002317370006884049571_);" points="174.4,222.2 174.4,258.2 
	172,256.7 172,223.6 "/>
<image style="overflow:visible;" width="200" height="200" xlink:href="../../pepsi.png"  transform="matrix(9.589360e-02 0 0 9.589360e-02 89.8606 72.8606)">
</image>
</svg>
