<?xml version="1.0" encoding="utf-8"?>
<!-- Generator: Adobe Illustrator 25.4.1, SVG Export Plug-In . SVG Version: 6.00 Build 0)  -->
<svg version="1.1" id="Слой_1" xmlns="http://www.w3.org/2000/svg" xmlns:xlink="http://www.w3.org/1999/xlink" x="0px" y="0px"
	 viewBox="0 0 200 320" style="enable-background:new 0 0 200 320;" xml:space="preserve">
<style type="text/css">
	.st0{clip-path:url(#SVGID_00000007394894890805275780000004602444378962527136_);}
	.st1{fill:url(#SVGID_00000085235441379662183870000016335476858235640232_);}
	.st2{fill:url(#SVGID_00000039111735145583982190000013461291720229418415_);}
	.st3{fill:url(#SVGID_00000005259634824382437260000014733613969929927101_);}
	.st4{fill:url(#SVGID_00000088100751515905924980000017377821132297134523_);}
	.st5{fill:url(#SVGID_00000167373941120797905570000000376324533197891484_);}
	.st6{fill:url(#SVGID_00000126321522705126197250000011946228455605643931_);}
	.st7{fill:url(#SVGID_00000170244252145705818230000006841035006520818314_);}
	.st8{fill:url(#SVGID_00000060752958443323645950000012264120581212596113_);}
	.st9{fill:url(#SVGID_00000138555662065073039460000009696934359939618730_);}
	.st10{fill:url(#SVGID_00000031190202607221336930000008323842839499525285_);}
	.st11{fill:url(#SVGID_00000047047634658285440100000007324930854073097401_);}
	.st12{fill:url(#SVGID_00000165933434530082263050000010728775881139399092_);}
	.st13{fill:url(#SVGID_00000142856692745058528160000011913777867881550749_);}
	.st14{fill:#383838;}
	.st15{fill:url(#SVGID_00000110456839628152009110000015836123801661946557_);}
	.st16{fill:url(#SVGID_00000145031081175126089370000004289898987628846239_);}
	.st17{fill:url(#SVGID_00000053508286427389987390000000250456500651077306_);}
	.st18{fill:url(#SVGID_00000150820936664380283800000008415093993743972737_);}
	.st19{fill:none;stroke:url(#SVGID_00000049217877156277114740000008852265798941813671_);stroke-miterlimit:10;}
	.st20{fill:none;stroke:#ADADAD;stroke-miterlimit:10;}
	.st21{fill:url(#SVGID_00000143581584295550011000000009533259242297937824_);}
	.st22{fill:url(#SVGID_00000111898629229818606520000001494627445445407120_);}
	.st23{fill:url(#SVGID_00000161592448549122333090000007215653376148227741_);}
	.st24{fill:url(#SVGID_00000104684869944818838360000014733754734806616453_);}
	.st25{fill:none;stroke:url(#SVGID_00000138552091075545636370000009617028578891007657_);stroke-miterlimit:10;}
</style>
<g>
	<g>
		<g>
			<g>
				<defs>
					<path id="SVGID_1_" d="M171.6,169c-12.9,0-25.8,0-38.8,0.1v2.2c-20.6-0.2-41.2-0.3-61.8-0.5c-3.6-0.1-15.1,0.2-26.1,8.3
						c-10.3,7.6-14.1,17.6-15.2,21.1v10.9v62.6h-3.4v38.9l2,2.2h69.2c0.7-0.7,1.5-1.5,2.2-2.3c0-12.9,0-25.8-0.1-38.8h-2.2v-15.5
						c-0.9-6.1,1.6-12.1,6.2-15.3c5.1-3.5,10.7-2.5,11.8-2.2c5.8,0,11.7,0,17.4,0v1.8h38.9l2.2-2v-69.2
						C173.1,170.5,172.4,169.7,171.6,169z"/>
				</defs>
				<clipPath id="SVGID_00000154396383844425872050000006049061183748990143_">
					<use xlink:href="#SVGID_1_"  style="overflow:visible;"/>
				</clipPath>
				<g style="clip-path:url(#SVGID_00000154396383844425872050000006049061183748990143_);">
					
						<image style="overflow:visible;enable-background:new    ;" width="1200" height="900" xlink:href="../../Фитинги/Резьбовые/Металл.jpg"  transform="matrix(0.214 0 0 0.214 -16.9715 155.6147)">
					</image>
				</g>
			</g>
		</g>
	</g>
</g>
<linearGradient id="SVGID_00000127758135737988145730000017997398789083595179_" gradientUnits="userSpaceOnUse" x1="34.8139" y1="309.2588" x2="139.082" y2="347.5457" gradientTransform="matrix(1 0 0 -1 0 392)">
	<stop  offset="0" style="stop-color:#919396"/>
	<stop  offset="0.3883" style="stop-color:#D1D3D4"/>
	<stop  offset="0.6788" style="stop-color:#BCBEC0"/>
	<stop  offset="1" style="stop-color:#919396"/>
</linearGradient>
<path style="fill:url(#SVGID_00000127758135737988145730000017997398789083595179_);" d="M132.8,27.3H56.1l0,0
	c-5.4,0-9.8,4.4-9.8,9.8v0.1l0,0v76.7h35V71.4c0.4-1.5,1.2-3.7,3.2-5.7c2.3-2.3,4.9-3.1,6-3.4h42.3V27.3z"/>
<linearGradient id="SVGID_00000065761221791463859910000013058960135462325633_" gradientUnits="userSpaceOnUse" x1="40.5736" y1="359.1914" x2="123.801" y2="294.8867" gradientTransform="matrix(1 0 0 -1 0 392)">
	<stop  offset="0" style="stop-color:#58595B;stop-opacity:0"/>
	<stop  offset="1" style="stop-color:#FFFFFF"/>
</linearGradient>
<path style="fill:url(#SVGID_00000065761221791463859910000013058960135462325633_);" d="M132.8,27.3H56.1l0,0
	c-5.4,0-9.8,4.4-9.8,9.8v0.1l0,0v76.7h35V71.4c0.4-1.5,1.2-3.7,3.2-5.7c2.3-2.3,4.9-3.1,6-3.4h42.3V27.3z"/>
<linearGradient id="SVGID_00000157269760421507798960000006571021239925817248_" gradientUnits="userSpaceOnUse" x1="79.5055" y1="294.6679" x2="110.2948" y2="317.546" gradientTransform="matrix(1 0 0 -1 0 392)">
	<stop  offset="0.1201" style="stop-color:#686566"/>
	<stop  offset="0.1983" style="stop-color:#6E7072"/>
	<stop  offset="0.433" style="stop-color:#919396"/>
	<stop  offset="0.6732" style="stop-color:#E6E7E8"/>
	<stop  offset="0.8966" style="stop-color:#9F9D9D"/>
	<stop  offset="1" style="stop-color:#919396"/>
</linearGradient>
<path style="fill:url(#SVGID_00000157269760421507798960000006571021239925817248_);" d="M97.2,112.3V90.6c0.2-1.2,0.9-5,4.3-8.1
	c2.4-2.2,5-3,6.4-3.3c8.3,0,16.7,0,25,0V62.3H90.5c-1.1,0.3-3.3,1-5.4,2.8c-2.6,2.4-3.5,5.2-3.9,6.4c0,13.6,0,27.3,0,40.9
	L97.2,112.3L97.2,112.3z"/>
<linearGradient id="SVGID_00000001653161969962747530000013528738654477970322_" gradientUnits="userSpaceOnUse" x1="100.3213" y1="340.6786" x2="108.0186" y2="299.3054" gradientTransform="matrix(1 0 0 -1 0 392)">
	<stop  offset="0" style="stop-color:#58595B"/>
	<stop  offset="1" style="stop-color:#FFFFFF;stop-opacity:0"/>
</linearGradient>
<path style="fill:url(#SVGID_00000001653161969962747530000013528738654477970322_);" d="M97.2,112.3V90.6c0.2-1.2,0.9-5,4.3-8.1
	c2.4-2.2,5-3,6.4-3.3c8.3,0,16.7,0,25,0V62.3H90.5c-1.1,0.3-3.3,1-5.4,2.8c-2.6,2.4-3.5,5.2-3.9,6.4c0,13.6,0,27.3,0,40.9
	L97.2,112.3L97.2,112.3z"/>
<linearGradient id="SVGID_00000129173275144606792320000012323843273577615234_" gradientUnits="userSpaceOnUse" x1="9.3088" y1="280.9993" x2="91.2533" y2="372.8861" gradientTransform="matrix(1 0 0 -1 0 392)">
	<stop  offset="0.1201" style="stop-color:#686566"/>
	<stop  offset="0.2877" style="stop-color:#9F9D9D"/>
	<stop  offset="0.433" style="stop-color:#919396"/>
	<stop  offset="0.7793" style="stop-color:#E4E3E3"/>
	<stop  offset="1" style="stop-color:#919396"/>
</linearGradient>
<path style="fill:url(#SVGID_00000129173275144606792320000012323843273577615234_);" d="M132.8,9.8v17.5H56.1
	c-0.7,0-4.9,0.4-7.7,4.1c-1.8,2.4-2,4.9-2.1,5.9c0,25.6,0,51.1,0,76.7H29.6V38.9c1.1-3.5,4.9-13.5,15.2-21.1
	c11-8.1,22.5-8.4,26.1-8.3C91.6,9.5,112.2,9.6,132.8,9.8z"/>
<radialGradient id="SVGID_00000020363776743812723380000013790911441487878790_" cx="139.2178" cy="753.7278" r="59.6298" gradientTransform="matrix(0.8906 0.4548 0.5398 -1.0569 -449.654 794.9204)" gradientUnits="userSpaceOnUse">
	<stop  offset="0" style="stop-color:#FFFFFF"/>
	<stop  offset="0.1813" style="stop-color:#FCFCFC;stop-opacity:0.8187"/>
	<stop  offset="0.3364" style="stop-color:#F1F1F1;stop-opacity:0.6636"/>
	<stop  offset="0.482" style="stop-color:#DFE0E0;stop-opacity:0.518"/>
	<stop  offset="0.6217" style="stop-color:#C7C7C8;stop-opacity:0.3783"/>
	<stop  offset="0.7574" style="stop-color:#A6A7A8;stop-opacity:0.2426"/>
	<stop  offset="0.888" style="stop-color:#808082;stop-opacity:0.112"/>
	<stop  offset="1" style="stop-color:#58595B;stop-opacity:0"/>
</radialGradient>
<path style="fill:url(#SVGID_00000020363776743812723380000013790911441487878790_);" d="M132.8,9.8v17.5H56.1
	c-0.7,0-4.9,0.4-7.7,4.1c-1.8,2.4-2,4.9-2.1,5.9c0,25.6,0,51.1,0,76.7H29.6V38.9c1.1-3.5,4.9-13.5,15.2-21.1
	c11-8.1,22.5-8.4,26.1-8.3C91.6,9.5,112.2,9.6,132.8,9.8z"/>
<linearGradient id="SVGID_00000049199807151456479580000006654827919781413786_" gradientUnits="userSpaceOnUse" x1="36.9548" y1="317.9758" x2="98.9611" y2="378.6989" gradientTransform="matrix(1 0 0 -1 0 392)">
	<stop  offset="0" style="stop-color:#58595B;stop-opacity:0"/>
	<stop  offset="0.4749" style="stop-color:#FFFFFF"/>
	<stop  offset="0.5701" style="stop-color:#FCFCFC;stop-opacity:0.8187"/>
	<stop  offset="0.6515" style="stop-color:#F1F1F1;stop-opacity:0.6636"/>
	<stop  offset="0.728" style="stop-color:#DFE0E0;stop-opacity:0.518"/>
	<stop  offset="0.8014" style="stop-color:#C7C7C8;stop-opacity:0.3783"/>
	<stop  offset="0.8726" style="stop-color:#A6A7A8;stop-opacity:0.2426"/>
	<stop  offset="0.9412" style="stop-color:#808082;stop-opacity:0.112"/>
	<stop  offset="1" style="stop-color:#58595B;stop-opacity:0"/>
</linearGradient>
<path style="fill:url(#SVGID_00000049199807151456479580000006654827919781413786_);" d="M132.8,9.8v17.5H56.1
	c-0.7,0-4.9,0.4-7.7,4.1c-1.8,2.4-2,4.9-2.1,5.9c0,25.6,0,51.1,0,76.7H29.6V38.9c1.1-3.5,4.9-13.5,15.2-21.1
	c11-8.1,22.5-8.4,26.1-8.3C91.6,9.5,112.2,9.6,132.8,9.8z"/>
<linearGradient id="SVGID_00000124130637202190247130000008577859136706135974_" gradientUnits="userSpaceOnUse" x1="76.6427" y1="334.1312" x2="-5.4621" y2="407.4696" gradientTransform="matrix(1 0 0 -1 0 392)">
	<stop  offset="0" style="stop-color:#808285;stop-opacity:0"/>
	<stop  offset="0.6088" style="stop-color:#808285;stop-opacity:0.8587"/>
	<stop  offset="0.7091" style="stop-color:#808285"/>
</linearGradient>
<path style="fill:url(#SVGID_00000124130637202190247130000008577859136706135974_);" d="M132.8,9.8v17.5H56.1
	c-0.7,0-4.9,0.4-7.7,4.1c-1.8,2.4-2,4.9-2.1,5.9c0,25.6,0,51.1,0,76.7H29.6V38.9c1.1-3.5,4.9-13.5,15.2-21.1
	c11-8.1,22.5-8.4,26.1-8.3C91.6,9.5,112.2,9.6,132.8,9.8z"/>
<linearGradient id="SVGID_00000078763644191797329060000014050864578853669510_" gradientUnits="userSpaceOnUse" x1="99.5794" y1="259.1555" x2="26.1786" y2="259.1555" gradientTransform="matrix(1 0 0 -1 0 392)">
	<stop  offset="0" style="stop-color:#999898"/>
	<stop  offset="0.1963" style="stop-color:#4F4F4F"/>
	<stop  offset="0.2507" style="stop-color:#5B5B5B"/>
	<stop  offset="0.3499" style="stop-color:#7C7C7C"/>
	<stop  offset="0.3704" style="stop-color:#848484"/>
	<stop  offset="0.433" style="stop-color:#878787"/>
	<stop  offset="0.5974" style="stop-color:#D9D9D9"/>
	<stop  offset="0.6843" style="stop-color:#FFFFFF"/>
	<stop  offset="0.9078" style="stop-color:#B7B7B7"/>
	<stop  offset="1" style="stop-color:#C6C6C6"/>
</linearGradient>
<path style="fill:url(#SVGID_00000078763644191797329060000014050864578853669510_);" d="M26.2,151.2v-38.9h73.3
	c0,12.9,0,25.8,0.1,38.8c-0.7,0.7-1.5,1.5-2.2,2.3H28.2L26.2,151.2z"/>
<linearGradient id="SVGID_00000047058223420052751040000016735544348733440949_" gradientUnits="userSpaceOnUse" x1="100.2737" y1="276.5163" x2="76.7211" y2="306.3585" gradientTransform="matrix(1 0 0 -1 0 392)">
	<stop  offset="0" style="stop-color:#414042"/>
	<stop  offset="0.1573" style="stop-color:#4E4D50;stop-opacity:0.7291"/>
	<stop  offset="0.4509" style="stop-color:#6F7073;stop-opacity:0.2231"/>
	<stop  offset="0.5804" style="stop-color:#808285;stop-opacity:0"/>
</linearGradient>
<rect x="81.4" y="90.9" style="fill:url(#SVGID_00000047058223420052751040000016735544348733440949_);" width="15.9" height="21.3"/>
<linearGradient id="SVGID_00000101814517681468868590000011567075342297974964_" gradientUnits="userSpaceOnUse" x1="2391.7847" y1="4252.25" x2="2377.1614" y2="4288.27" gradientTransform="matrix(6.123234e-17 -1 -1 -6.123234e-17 4390.7554 2455.8728)">
	<stop  offset="0" style="stop-color:#414042"/>
	<stop  offset="0.1513" style="stop-color:#444446;stop-opacity:0.7394"/>
	<stop  offset="0.288" style="stop-color:#4F4E51;stop-opacity:0.5038"/>
	<stop  offset="0.4191" style="stop-color:#606063;stop-opacity:0.2779"/>
	<stop  offset="0.5461" style="stop-color:#787A7D;stop-opacity:5.918652e-02"/>
	<stop  offset="0.5804" style="stop-color:#808285;stop-opacity:0"/>
</linearGradient>
<polygon style="fill:url(#SVGID_00000101814517681468868590000011567075342297974964_);" points="132.8,62.3 132.8,79.2 111.4,79.2 
	111.4,62.3 "/>
<linearGradient id="SVGID_00000039819214479492052510000002293935807032562076_" gradientUnits="userSpaceOnUse" x1="150.1135" y1="381.3725" x2="106.4953" y2="369.6661" gradientTransform="matrix(1 0 0 -1 0 392)">
	<stop  offset="0" style="stop-color:#414042"/>
	<stop  offset="0.1513" style="stop-color:#444446;stop-opacity:0.7394"/>
	<stop  offset="0.288" style="stop-color:#4F4E51;stop-opacity:0.5038"/>
	<stop  offset="0.4191" style="stop-color:#606063;stop-opacity:0.2779"/>
	<stop  offset="0.5461" style="stop-color:#787A7D;stop-opacity:5.918652e-02"/>
	<stop  offset="0.5804" style="stop-color:#808285;stop-opacity:0"/>
</linearGradient>
<polygon style="fill:url(#SVGID_00000039819214479492052510000002293935807032562076_);" points="132.8,10.4 132.8,27.3 106.2,27.3 
	106.2,10.4 "/>
<linearGradient id="SVGID_00000142137137331326566610000005102143686758739627_" gradientUnits="userSpaceOnUse" x1="4041.2603" y1="-1966.9811" x2="3947.0823" y2="-1992.2568" gradientTransform="matrix(6.123234e-17 1 1 -6.123234e-17 2022.7126 -3894.1807)">
	<stop  offset="0" style="stop-color:#414042"/>
	<stop  offset="0.1513" style="stop-color:#444446;stop-opacity:0.7394"/>
	<stop  offset="0.288" style="stop-color:#4F4E51;stop-opacity:0.5038"/>
	<stop  offset="0.4191" style="stop-color:#606063;stop-opacity:0.2779"/>
	<stop  offset="0.5461" style="stop-color:#787A7D;stop-opacity:5.918652e-02"/>
	<stop  offset="0.5804" style="stop-color:#808285;stop-opacity:0"/>
</linearGradient>
<rect x="29.6" y="49.7" style="fill:url(#SVGID_00000142137137331326566610000005102143686758739627_);" width="16.8" height="62.6"/>
<g>
	<path class="st14" d="M76.8,309.1c0.6,1.6,1,3.1,1.6,4.8c-9.8-0.1-19.7-0.2-29.4-0.3c0.6-1.5,1-3,1.8-4.5
		c-0.5-31.5-1-63.1-1.6-94.5c0.6-2.2,3.3-11.6,13-17.2c6.2-3.6,12.3-4,15.1-3.9c30.5-0.1,61.2-0.1,91.7-0.2c1.7-0.5,3.2-1,5-1.5
		c-0.1,9.6-0.2,19.2-0.3,28.6c-1.6-0.5-3-1-4.6-1.7c-30.7,0.5-61.4,1.2-92.3,1.8C76.8,250.1,76.8,279.6,76.8,309.1z"/>
	
		<linearGradient id="SVGID_00000066516781099747529610000017366408844913058176_" gradientUnits="userSpaceOnUse" x1="48.9797" y1="1022.9241" x2="75.187" y2="1022.9241" gradientTransform="matrix(1 0 0 1 0 -770)">
		<stop  offset="8.379889e-03" style="stop-color:#333333;stop-opacity:0"/>
		<stop  offset="0.5754" style="stop-color:#808080"/>
		<stop  offset="0.6781" style="stop-color:#C7C7C7;stop-opacity:0.76"/>
		<stop  offset="0.8698" style="stop-color:#4F4F4F;stop-opacity:0.3067"/>
		<stop  offset="1" style="stop-color:#333333;stop-opacity:0"/>
	</linearGradient>
	<path style="fill:url(#SVGID_00000066516781099747529610000017366408844913058176_);" d="M76.8,309.1c0.6,1.6,1,3.1,1.6,4.8
		c-9.8-0.1-19.7-0.2-29.4-0.3c0.6-1.5,1-3,1.8-4.5c-0.5-31.5-1-63.1-1.6-94.5c0.6-2.2,3.3-11.6,13-17.2c6.2-3.6,12.3-4,15.1-3.9
		c30.5-0.1,61.2-0.1,91.7-0.2c1.7-0.5,3.2-1,5-1.5c-0.1,9.6-0.2,19.2-0.3,28.6c-1.6-0.5-3-1-4.6-1.7c-30.7,0.5-61.4,1.2-92.3,1.8
		C76.8,250.1,76.8,279.6,76.8,309.1z"/>
	
		<linearGradient id="SVGID_00000098210218998832159040000002637183962836230843_" gradientUnits="userSpaceOnUse" x1="111.5005" y1="960.525" x2="111.5005" y2="988.6618" gradientTransform="matrix(1 0 0 1 0 -770)">
		<stop  offset="8.379889e-03" style="stop-color:#333333;stop-opacity:0"/>
		<stop  offset="0.5754" style="stop-color:#808080"/>
		<stop  offset="0.6781" style="stop-color:#C7C7C7;stop-opacity:0.76"/>
		<stop  offset="0.8698" style="stop-color:#4F4F4F;stop-opacity:0.3067"/>
		<stop  offset="1" style="stop-color:#333333;stop-opacity:0"/>
	</linearGradient>
	<path style="fill:url(#SVGID_00000098210218998832159040000002637183962836230843_);" d="M76.8,309.1c0.6,1.6,1,3.1,1.6,4.8
		c-9.8-0.1-19.7-0.2-29.4-0.3c0.6-1.5,1-3,1.8-4.5c-0.5-31.5-1-63.1-1.6-94.5c0.6-2.2,3.3-11.6,13-17.2c6.2-3.6,12.3-4,15.1-3.9
		c30.5-0.1,61.2-0.1,91.7-0.2c1.7-0.5,3.2-1,5-1.5c-0.1,9.6-0.2,19.2-0.3,28.6c-1.6-0.5-3-1-4.6-1.7c-30.7,0.5-61.4,1.2-92.3,1.8
		C76.8,250.1,76.8,279.6,76.8,309.1z"/>
	
		<linearGradient id="SVGID_00000044898653463252836010000002004867478387023251_" gradientUnits="userSpaceOnUse" x1="58.3843" y1="965.2253" x2="88.414" y2="997.7575" gradientTransform="matrix(1 0 0 1 0 -770)">
		<stop  offset="0" style="stop-color:#333333"/>
		<stop  offset="0.4099" style="stop-color:#333333;stop-opacity:0.9"/>
		<stop  offset="1" style="stop-color:#333333;stop-opacity:0"/>
	</linearGradient>
	<path style="fill:url(#SVGID_00000044898653463252836010000002004867478387023251_);" d="M76.8,309.1c0.6,1.6,1,3.1,1.6,4.8
		c-9.8-0.1-19.7-0.2-29.4-0.3c0.6-1.5,1-3,1.8-4.5c-0.5-31.5-1-63.1-1.6-94.5c0.6-2.2,3.3-11.6,13-17.2c6.2-3.6,12.3-4,15.1-3.9
		c30.5-0.1,61.2-0.1,91.7-0.2c1.7-0.5,3.2-1,5-1.5c-0.1,9.6-0.2,19.2-0.3,28.6c-1.6-0.5-3-1-4.6-1.7c-30.7,0.5-61.4,1.2-92.3,1.8
		C76.8,250.1,76.8,279.6,76.8,309.1z"/>
</g>
<linearGradient id="SVGID_00000070817836292291664270000005517585157299288966_" gradientUnits="userSpaceOnUse" x1="153.3546" y1="310.9525" x2="153.3546" y2="384.3444" gradientTransform="matrix(1 0 0 -1 0 392)">
	<stop  offset="0" style="stop-color:#999898"/>
	<stop  offset="0.1963" style="stop-color:#4F4F4F"/>
	<stop  offset="0.2507" style="stop-color:#5B5B5B"/>
	<stop  offset="0.3499" style="stop-color:#7C7C7C"/>
	<stop  offset="0.3704" style="stop-color:#848484"/>
	<stop  offset="0.433" style="stop-color:#878787"/>
	<stop  offset="0.5974" style="stop-color:#D9D9D9"/>
	<stop  offset="0.6843" style="stop-color:#FFFFFF"/>
	<stop  offset="0.9078" style="stop-color:#B7B7B7"/>
	<stop  offset="1" style="stop-color:#C6C6C6"/>
</linearGradient>
<path style="fill:url(#SVGID_00000070817836292291664270000005517585157299288966_);" d="M171.7,81h-38.9V7.6
	c12.9,0,25.8,0,38.8-0.1c0.7,0.7,1.5,1.5,2.3,2.2V79L171.7,81z"/>
<linearGradient id="SVGID_00000052064370717084533100000011894802766790187410_" gradientUnits="userSpaceOnUse" x1="121.9915" y1="341.2738" x2="70.319" y2="290.4304" gradientTransform="matrix(1 0 0 -1 0 392)">
	<stop  offset="0.1201" style="stop-color:#686566"/>
	<stop  offset="0.2877" style="stop-color:#9F9D9D"/>
	<stop  offset="0.433" style="stop-color:#919396"/>
	<stop  offset="0.6732" style="stop-color:#FFFFFF"/>
	<stop  offset="0.7793" style="stop-color:#E4E3E3"/>
	<stop  offset="1" style="stop-color:#919396"/>
</linearGradient>
<path style="fill:none;stroke:url(#SVGID_00000052064370717084533100000011894802766790187410_);stroke-miterlimit:10;" d="
	M81.4,112.3V71.5c0.3-1.2,1.4-4.5,4.5-7c1.8-1.4,3.5-2,4.7-2.3c14.1,0,28.2,0,42.3,0"/>
<path class="st20" d="M171.6,169c-12.8,0-25.7,0-38.5,0.1v2.1c-20.5-0.2-40.9-0.3-61.4-0.5c-3.6-0.1-15,0.2-26,8.3
	c-10.2,7.6-14,17.5-15.1,21v10.8v62.3H27v38.7l2,2.1h68.9c0.7-0.7,1.5-1.5,2.1-2.2c0-12.9,0-25.7-0.1-38.6h-2.2v-15.4
	c-0.1-0.6-0.9-8.5,5.3-14c5.3-4.6,11.8-3.7,12.7-3.5c5.7,0,11.6,0,17.3,0v1.8h38.7l2.1-2v-68.9C173.1,170.5,172.4,169.7,171.6,169z"
	/>
<linearGradient id="SVGID_00000114755346696626168710000011412514179264013736_" gradientUnits="userSpaceOnUse" x1="153.2505" y1="213.2453" x2="153.2505" y2="166.1855" gradientTransform="matrix(1 0 0 -1 0 392)">
	<stop  offset="0" style="stop-color:#4D4E50"/>
	<stop  offset="0.3101" style="stop-color:#424244"/>
	<stop  offset="0.433" style="stop-color:#666769"/>
	<stop  offset="0.5" style="stop-color:#808285"/>
	<stop  offset="0.6732" style="stop-color:#BCBEC0"/>
	<stop  offset="0.7682" style="stop-color:#6D6E71"/>
	<stop  offset="0.8799" style="stop-color:#414042"/>
</linearGradient>
<rect x="135.2" y="182.5" style="fill:url(#SVGID_00000114755346696626168710000011412514179264013736_);" width="36.1" height="47.1"/>
<linearGradient id="SVGID_00000107570578879463997680000000529962036929647261_" gradientUnits="userSpaceOnUse" x1="-1469.1188" y1="-544.5145" x2="-1469.1188" y2="-591.5686" gradientTransform="matrix(6.123234e-17 -1 -1 -6.123234e-17 -504.5376 -1174.1844)">
	<stop  offset="0" style="stop-color:#4D4E50"/>
	<stop  offset="0.3101" style="stop-color:#424244"/>
	<stop  offset="0.433" style="stop-color:#666769"/>
	<stop  offset="0.5" style="stop-color:#808285"/>
	<stop  offset="0.6732" style="stop-color:#BCBEC0"/>
	<stop  offset="0.7682" style="stop-color:#6D6E71"/>
	<stop  offset="0.8799" style="stop-color:#414042"/>
</linearGradient>
<polygon style="fill:url(#SVGID_00000107570578879463997680000000529962036929647261_);" points="87,276.9 87,313 40,313 40,276.9 
	"/>
<linearGradient id="SVGID_00000017518669412637638120000012151650415746978749_" gradientUnits="userSpaceOnUse" x1="38.9847" y1="78.2209" x2="88.1268" y2="78.2209" gradientTransform="matrix(1 0 0 -1 0 392)">
	<stop  offset="0" style="stop-color:#4D4E50"/>
	<stop  offset="0.3101" style="stop-color:#424244"/>
	<stop  offset="0.433" style="stop-color:#666769"/>
	<stop  offset="0.5" style="stop-color:#808285"/>
	<stop  offset="0.6732" style="stop-color:#BCBEC0"/>
	<stop  offset="0.7682" style="stop-color:#6D6E71"/>
	<stop  offset="0.8799" style="stop-color:#414042"/>
</linearGradient>
<polygon style="fill:url(#SVGID_00000017518669412637638120000012151650415746978749_);" points="39,314.6 40,313 87,313 
	88.1,314.6 "/>
<linearGradient id="SVGID_00000041253719869934595150000013332130616536368008_" gradientUnits="userSpaceOnUse" x1="172.5638" y1="215.5447" x2="172.5638" y2="164.1121" gradientTransform="matrix(1 0 0 -1 0 392)">
	<stop  offset="0" style="stop-color:#4D4E50"/>
	<stop  offset="0.3101" style="stop-color:#424244"/>
	<stop  offset="0.433" style="stop-color:#666769"/>
	<stop  offset="0.5" style="stop-color:#808285"/>
	<stop  offset="0.6732" style="stop-color:#BCBEC0"/>
	<stop  offset="0.7682" style="stop-color:#6D6E71"/>
	<stop  offset="0.8799" style="stop-color:#414042"/>
</linearGradient>
<polygon style="fill:url(#SVGID_00000041253719869934595150000013332130616536368008_);" points="171.3,182.5 173.8,180 
	173.8,231.5 171.3,229.7 "/>
<linearGradient id="SVGID_00000037651098247380877730000001978886103467382928_" gradientUnits="userSpaceOnUse" x1="43.3819" y1="880.8414" x2="102.1148" y2="779.1129" gradientTransform="matrix(1 0 0 1 0 -770)">
	<stop  offset="0.1201" style="stop-color:#686566"/>
	<stop  offset="0.2877" style="stop-color:#9F9D9D"/>
	<stop  offset="0.433" style="stop-color:#919396"/>
	<stop  offset="0.6732" style="stop-color:#FFFFFF"/>
	<stop  offset="0.7793" style="stop-color:#E4E3E3"/>
	<stop  offset="1" style="stop-color:#919396"/>
</linearGradient>
<path style="fill:none;stroke:url(#SVGID_00000037651098247380877730000001978886103467382928_);stroke-miterlimit:10;" d="
	M132.8,27.3H56.1c-0.7,0-4.5,0.3-7.2,3.5c-2.3,2.6-2.5,5.6-2.6,6.5c0,25,0.1,50,0.1,75"/>
<image style="overflow:visible;" width="200" height="200" xlink:href="../../pepsi.png"  transform="matrix(0.1178 0 0 0.1178 54.7867 39.4108)">
</image>
</svg>
