<?xml version="1.0" encoding="utf-8"?>
<!-- Generator: Adobe Illustrator 25.4.1, SVG Export Plug-In . SVG Version: 6.00 Build 0)  -->
<svg version="1.1" id="Слой_1" xmlns="http://www.w3.org/2000/svg" xmlns:xlink="http://www.w3.org/1999/xlink" x="0px" y="0px"
	 viewBox="0 0 100 160" style="enable-background:new 0 0 100 160;" xml:space="preserve">
<style type="text/css">
	.st0{fill:url(#SVGID_1_);}
	.st1{fill:url(#SVGID_00000089568491871356517340000004592623106346845337_);}
	.st2{opacity:0.5;fill:url(#SVGID_00000125602847232599814010000007172155950393890453_);enable-background:new    ;}
	.st3{fill:url(#SVGID_00000090272268221505729440000005388515370366851994_);}
	.st4{fill:url(#SVGID_00000083085441640810447580000002397958007324054940_);}
	.st5{fill:url(#SVGID_00000014636238452241749790000008153522838808388543_);}
	.st6{opacity:0.53;fill:url(#SVGID_00000022533399996199929390000000777188232247163039_);enable-background:new    ;}
	.st7{opacity:0.53;fill:url(#SVGID_00000107564353582178753920000015357096520312915114_);enable-background:new    ;}
	.st8{clip-path:url(#SVGID_00000003075519807433892550000012563873359626292878_);}
	.st9{fill:none;stroke:#B3B3B3;stroke-width:0.5;stroke-miterlimit:10;}
	.st10{fill:#606060;}
	.st11{opacity:0.58;fill:url(#SVGID_00000050665194459928898270000016361914829868063125_);enable-background:new    ;}
</style>
<linearGradient id="SVGID_1_" gradientUnits="userSpaceOnUse" x1="64.7492" y1="498.8649" x2="64.7492" y2="462.6812" gradientTransform="matrix(1 0 0 1 0 -438.5511)">
	<stop  offset="0" style="stop-color:#9F9D9D"/>
	<stop  offset="0.1816" style="stop-color:#808080"/>
	<stop  offset="0.2933" style="stop-color:#9F9D9D"/>
	<stop  offset="0.5447" style="stop-color:#CCCCCC"/>
	<stop  offset="0.6732" style="stop-color:#FFFFFF"/>
	<stop  offset="0.8687" style="stop-color:#E4E3E3"/>
	<stop  offset="1" style="stop-color:#B3B3B3"/>
</linearGradient>
<rect x="30.3" y="24.1" class="st0" width="68.8" height="36.2"/>
<linearGradient id="SVGID_00000080885886521866870060000011578826554793067904_" gradientUnits="userSpaceOnUse" x1="14.2982" y1="503.7869" x2="14.2982" y2="457.7592" gradientTransform="matrix(1 0 0 1 0 -438.5511)">
	<stop  offset="0" style="stop-color:#9F9D9D"/>
	<stop  offset="0.1816" style="stop-color:#808080"/>
	<stop  offset="0.2933" style="stop-color:#9F9D9D"/>
	<stop  offset="0.5447" style="stop-color:#CCCCCC"/>
	<stop  offset="0.6732" style="stop-color:#FFFFFF"/>
	<stop  offset="0.8687" style="stop-color:#E4E3E3"/>
	<stop  offset="1" style="stop-color:#B3B3B3"/>
</linearGradient>
<rect x="6.8" y="19.2" style="fill:url(#SVGID_00000080885886521866870060000011578826554793067904_);" width="14.9" height="46"/>
<linearGradient id="SVGID_00000037655993811344349110000000374904516860934274_" gradientUnits="userSpaceOnUse" x1="-516.9135" y1="-2966.1228" x2="-510.1927" y2="-2966.1228" gradientTransform="matrix(1 0 0 -1 543.2952 -2923.9009)">
	<stop  offset="0" style="stop-color:#3F3B3C"/>
	<stop  offset="1" style="stop-color:#3F3B3C;stop-opacity:0"/>
</linearGradient>
<polygon style="opacity:0.5;fill:url(#SVGID_00000037655993811344349110000000374904516860934274_);enable-background:new    ;" points="
	33,24.1 26.3,24.1 26.3,60.3 33.1,60.3 "/>
<linearGradient id="SVGID_00000022529912527142782890000003646741618108777872_" gradientUnits="userSpaceOnUse" x1="27.8671" y1="505.7158" x2="27.8671" y2="455.8302" gradientTransform="matrix(1 0 0 1 0 -438.5511)">
	<stop  offset="0" style="stop-color:#9F9D9D"/>
	<stop  offset="0.1816" style="stop-color:#808080"/>
	<stop  offset="0.2933" style="stop-color:#9F9D9D"/>
	<stop  offset="0.5447" style="stop-color:#CCCCCC"/>
	<stop  offset="0.6732" style="stop-color:#FFFFFF"/>
	<stop  offset="0.8687" style="stop-color:#E4E3E3"/>
	<stop  offset="1" style="stop-color:#B3B3B3"/>
</linearGradient>
<rect x="25.4" y="17.3" style="fill:url(#SVGID_00000022529912527142782890000003646741618108777872_);" width="4.9" height="49.9"/>
<linearGradient id="SVGID_00000183929167716732199160000001927599716749782417_" gradientUnits="userSpaceOnUse" x1="3.7225" y1="502.9887" x2="3.7225" y2="458.6238" gradientTransform="matrix(1 0 0 1 0 -438.5511)">
	<stop  offset="0" style="stop-color:#9F9D9D"/>
	<stop  offset="0.1816" style="stop-color:#808080"/>
	<stop  offset="0.2933" style="stop-color:#9F9D9D"/>
	<stop  offset="0.5447" style="stop-color:#CCCCCC"/>
	<stop  offset="0.6732" style="stop-color:#FFFFFF"/>
	<stop  offset="0.8687" style="stop-color:#E4E3E3"/>
	<stop  offset="1" style="stop-color:#B3B3B3"/>
</linearGradient>
<path style="fill:url(#SVGID_00000183929167716732199160000001927599716749782417_);" d="M6.8,64.4c-2.1-2.1-4.2-4-6.3-6V26.1
	c2.1-2,4.3-4,6.3-6C6.8,34.9,6.8,49.6,6.8,64.4z"/>
<linearGradient id="SVGID_00000034063192378740975630000018091176027565624254_" gradientUnits="userSpaceOnUse" x1="23.6102" y1="505.7823" x2="23.6102" y2="455.9624" gradientTransform="matrix(1 0 0 1 0 -438.5511)">
	<stop  offset="0" style="stop-color:#9F9D9D"/>
	<stop  offset="0.1816" style="stop-color:#808080"/>
	<stop  offset="0.2933" style="stop-color:#9F9D9D"/>
	<stop  offset="0.5447" style="stop-color:#CCCCCC"/>
	<stop  offset="0.6732" style="stop-color:#FFFFFF"/>
	<stop  offset="0.8687" style="stop-color:#E4E3E3"/>
	<stop  offset="1" style="stop-color:#B3B3B3"/>
</linearGradient>
<path style="fill:url(#SVGID_00000034063192378740975630000018091176027565624254_);" d="M25.4,67.2c-1.2-0.6-2.4-1.3-3.6-1.9V19.2
	c1.2-0.6,2.4-1.3,3.6-1.9C25.4,34,25.4,50.6,25.4,67.2z"/>
<linearGradient id="SVGID_00000023960557921890046460000009164424025390873234_" gradientUnits="userSpaceOnUse" x1="6.893" y1="480.8063" x2="0.6407" y2="480.8063" gradientTransform="matrix(1 0 0 1 0 -438.5511)">
	<stop  offset="0" style="stop-color:#B3B3B3;stop-opacity:0.5"/>
	<stop  offset="1" style="stop-color:#B3B3B3;stop-opacity:0"/>
</linearGradient>
<path style="opacity:0.53;fill:url(#SVGID_00000023960557921890046460000009164424025390873234_);enable-background:new    ;" d="
	M6.8,64.4c-2.1-2.1-4.2-4-6.3-6V26.1c2.1-2,4.3-4,6.3-6C6.8,34.9,6.8,49.6,6.8,64.4z"/>
<linearGradient id="SVGID_00000173877738114920535210000016421540611472957863_" gradientUnits="userSpaceOnUse" x1="25.3895" y1="480.8063" x2="21.7723" y2="480.8063" gradientTransform="matrix(1 0 0 1 0 -438.5511)">
	<stop  offset="0" style="stop-color:#B3B3B3;stop-opacity:0.5"/>
	<stop  offset="1" style="stop-color:#B3B3B3;stop-opacity:0"/>
</linearGradient>
<path style="opacity:0.53;fill:url(#SVGID_00000173877738114920535210000016421540611472957863_);enable-background:new    ;" d="
	M25.4,67.2c-1.2-0.6-2.4-1.3-3.6-1.9V19.2c1.2-0.6,2.4-1.3,3.6-1.9C25.4,34,25.4,50.6,25.4,67.2z"/>
<g>
	<g>
		<defs>
			<path id="SVGID_00000037668662577836608470000017056792072728249268_" d="M33,101.9h-2.7V95h-4.9c-1.2,0.6-2.4,1.3-3.6,1.9H6.8
				v0.9c-2,2.1-4.1,4-6.3,6v32.3c2,2.1,4.1,4,6.3,6v0.9h14.9c1.2,0.6,2.4,1.3,3.6,1.9h4.9V138h2.8h66.1v-36.2H33z"/>
		</defs>
		<clipPath id="SVGID_00000164491956068569917260000000354244767423888819_">
			<use xlink:href="#SVGID_00000037668662577836608470000017056792072728249268_"  style="overflow:visible;"/>
		</clipPath>
		
			<g transform="matrix(1 0 0 1 0 -1.907349e-06)" style="clip-path:url(#SVGID_00000164491956068569917260000000354244767423888819_);">
			
				<image style="overflow:visible;enable-background:new    ;" width="1200" height="900" xlink:href="../../Фитинги/Резьбовые/Металл.jpg"  transform="matrix(0.1481 0 0 0.1481 -24.079 60.499)">
			</image>
		</g>
	</g>
	<g>
		<path id="SVGID_9_" class="st9" d="M33,101.9h-2.7V95h-4.9c-1.2,0.6-2.4,1.3-3.6,1.9H6.8v0.9c-2,2.1-4.1,4-6.3,6v32.3
			c2,2.1,4.1,4,6.3,6v0.9h14.9c1.2,0.6,2.4,1.3,3.6,1.9h4.9V138h2.8h66.1v-36.2H33z"/>
	</g>
</g>
<path class="st10" d="M6.9,132.8c-2.1,1.1-4.3,2.1-6.4,3.1v-32c2.1,1,4.2,2,6.3,2.9C6.8,115.6,6.9,124.2,6.9,132.8z"/>
<linearGradient id="SVGID_00000114789532045617891120000001471093245565021365_" gradientUnits="userSpaceOnUse" x1="3.7225" y1="542.475" x2="3.7225" y2="574.4683" gradientTransform="matrix(1 0 0 1 0 -438.5511)">
	<stop  offset="0.2849" style="stop-color:#606060"/>
	<stop  offset="0.5139" style="stop-color:#999999"/>
	<stop  offset="0.6613" style="stop-color:#ACACAC;stop-opacity:0.76"/>
	<stop  offset="0.8464" style="stop-color:#6E6E6F;stop-opacity:0.9913"/>
	<stop  offset="1" style="stop-color:#606060"/>
</linearGradient>
<path style="opacity:0.58;fill:url(#SVGID_00000114789532045617891120000001471093245565021365_);enable-background:new    ;" d="
	M6.9,132.8c-2.1,1.1-4.3,2.1-6.4,3.1v-32c2.1,1,4.2,2,6.3,2.9C6.8,115.6,6.9,124.2,6.9,132.8z"/>
<image style="overflow:visible;" width="200" height="200" xlink:href="../../pepsi.png"  transform="matrix(9.350894e-02 0 0 9.350894e-02 54.6128 31.833)">
</image>
</svg>
