<?xml version="1.0" encoding="utf-8"?>
<!-- Generator: Adobe Illustrator 25.4.1, SVG Export Plug-In . SVG Version: 6.00 Build 0)  -->
<svg version="1.1" id="Слой_1" xmlns="http://www.w3.org/2000/svg" xmlns:xlink="http://www.w3.org/1999/xlink" x="0px" y="0px"
	 viewBox="0 0 200 320" style="enable-background:new 0 0 200 320;" xml:space="preserve">
<style type="text/css">
	.st0{fill:url(#SVGID_1_);}
	.st1{opacity:0.5;fill:url(#SVGID_00000154398855537906345180000012309827626615851666_);enable-background:new    ;}
	.st2{fill:url(#SVGID_00000079447765338629277460000006463872711577271196_);}
	.st3{fill:url(#SVGID_00000026847028231609864450000009869708259714918816_);}
	.st4{fill:url(#SVGID_00000119113485194727856000000004506334819238336909_);}
	.st5{fill:url(#SVGID_00000150805516014188342580000005090911068747178377_);}
	.st6{fill:url(#SVGID_00000098196189963395209960000015825727269108179085_);}
	.st7{opacity:0.53;fill:url(#SVGID_00000088110501425044643790000010171838478262057145_);enable-background:new    ;}
	.st8{opacity:0.53;fill:url(#SVGID_00000090983404784466370290000011835693200042181522_);enable-background:new    ;}
	.st9{clip-path:url(#SVGID_00000034050154039859045050000009701842799872520606_);}
	.st10{fill:none;stroke:#BFBFBF;stroke-width:0.5;stroke-miterlimit:10;}
	.st11{fill:url(#SVGID_00000117664021529342701980000002627129189528820146_);}
	.st12{fill:#606060;}
	.st13{opacity:0.58;fill:url(#SVGID_00000016048850844169470110000003611166924789606791_);enable-background:new    ;}
</style>
<linearGradient id="SVGID_1_" gradientUnits="userSpaceOnUse" x1="130.9975" y1="-857.5905" x2="130.9975" y2="-827.7118" gradientTransform="matrix(1 0 0 -1 0 -767.5511)">
	<stop  offset="0" style="stop-color:#9F9D9D"/>
	<stop  offset="0.1816" style="stop-color:#808080"/>
	<stop  offset="0.2933" style="stop-color:#9F9D9D"/>
	<stop  offset="0.5447" style="stop-color:#CCCCCC"/>
	<stop  offset="0.6732" style="stop-color:#FFFFFF"/>
	<stop  offset="0.8687" style="stop-color:#E4E3E3"/>
	<stop  offset="1" style="stop-color:#B3B3B3"/>
</linearGradient>
<rect x="63.8" y="60.2" class="st0" width="134.4" height="29.9"/>
<linearGradient id="SVGID_00000054987409335285972390000000800388045919237762_" gradientUnits="userSpaceOnUse" x1="-490.4441" y1="2764.9641" x2="-471.3265" y2="2764.9641" gradientTransform="matrix(1 0 0 1 543.2952 -2689.7983)">
	<stop  offset="0" style="stop-color:#3F3B3C"/>
	<stop  offset="1" style="stop-color:#3F3B3C;stop-opacity:0"/>
</linearGradient>
<polygon style="opacity:0.5;fill:url(#SVGID_00000054987409335285972390000000800388045919237762_);enable-background:new    ;" points="
	71.7,60.4 52.6,60.4 52.6,89.9 72.1,89.9 "/>
<linearGradient id="SVGID_00000135674211260072119290000006691151986817397410_" gradientUnits="userSpaceOnUse" x1="50.5752" y1="-863.9084" x2="50.5752" y2="-821.6571" gradientTransform="matrix(1 0 0 -1 0 -767.5511)">
	<stop  offset="0" style="stop-color:#9F9D9D"/>
	<stop  offset="0.1816" style="stop-color:#808080"/>
	<stop  offset="0.2933" style="stop-color:#9F9D9D"/>
	<stop  offset="0.5447" style="stop-color:#CCCCCC"/>
	<stop  offset="0.6732" style="stop-color:#FFFFFF"/>
	<stop  offset="0.8687" style="stop-color:#E4E3E3"/>
	<stop  offset="1" style="stop-color:#B3B3B3"/>
</linearGradient>
<rect x="37.3" y="54.1" style="fill:url(#SVGID_00000135674211260072119290000006691151986817397410_);" width="26.5" height="42.3"/>
<linearGradient id="SVGID_00000044873672869182817370000015779623822418336929_" gradientUnits="userSpaceOnUse" x1="18.9196" y1="-869.9631" x2="18.9196" y2="-815.5336" gradientTransform="matrix(1 0 0 -1 0 -767.5511)">
	<stop  offset="0" style="stop-color:#9F9D9D"/>
	<stop  offset="0.1816" style="stop-color:#808080"/>
	<stop  offset="0.2933" style="stop-color:#9F9D9D"/>
	<stop  offset="0.5447" style="stop-color:#CCCCCC"/>
	<stop  offset="0.6732" style="stop-color:#FFFFFF"/>
	<stop  offset="0.8687" style="stop-color:#E4E3E3"/>
	<stop  offset="1" style="stop-color:#B3B3B3"/>
</linearGradient>
<rect x="9.6" y="47.9" style="fill:url(#SVGID_00000044873672869182817370000015779623822418336929_);" width="18.7" height="54.5"/>
<linearGradient id="SVGID_00000008847565194798631400000005486440861836120229_" gradientUnits="userSpaceOnUse" x1="33.6615" y1="-872.2007" x2="33.6615" y2="-813.2332" gradientTransform="matrix(1 0 0 -1 0 -767.5511)">
	<stop  offset="0" style="stop-color:#9F9D9D"/>
	<stop  offset="0.1816" style="stop-color:#808080"/>
	<stop  offset="0.2933" style="stop-color:#9F9D9D"/>
	<stop  offset="0.5447" style="stop-color:#CCCCCC"/>
	<stop  offset="0.6732" style="stop-color:#FFFFFF"/>
	<stop  offset="0.8687" style="stop-color:#E4E3E3"/>
	<stop  offset="1" style="stop-color:#B3B3B3"/>
</linearGradient>
<rect x="30" y="45.7" style="fill:url(#SVGID_00000008847565194798631400000005486440861836120229_);" width="7.4" height="59"/>
<linearGradient id="SVGID_00000174566592225405870780000016449260690387931065_" gradientUnits="userSpaceOnUse" x1="5.6914" y1="-869.0417" x2="5.6914" y2="-816.4821" gradientTransform="matrix(1 0 0 -1 0 -767.5511)">
	<stop  offset="0" style="stop-color:#9F9D9D"/>
	<stop  offset="0.1816" style="stop-color:#808080"/>
	<stop  offset="0.2933" style="stop-color:#9F9D9D"/>
	<stop  offset="0.5447" style="stop-color:#CCCCCC"/>
	<stop  offset="0.6732" style="stop-color:#FFFFFF"/>
	<stop  offset="0.8687" style="stop-color:#E4E3E3"/>
	<stop  offset="1" style="stop-color:#B3B3B3"/>
</linearGradient>
<path style="fill:url(#SVGID_00000174566592225405870780000016449260690387931065_);" d="M9.6,101.5c-2.6-2.4-5.1-4.7-7.8-7.1V55.9
	c2.6-2.4,5.1-4.7,7.8-7.1C9.6,66.3,9.6,84,9.6,101.5z"/>
<linearGradient id="SVGID_00000101823571249920367150000018359008461505468550_" gradientUnits="userSpaceOnUse" x1="29.1205" y1="-872.2007" x2="29.1205" y2="-813.2332" gradientTransform="matrix(1 0 0 -1 0 -767.5511)">
	<stop  offset="0" style="stop-color:#9F9D9D"/>
	<stop  offset="0.1816" style="stop-color:#808080"/>
	<stop  offset="0.2933" style="stop-color:#9F9D9D"/>
	<stop  offset="0.5447" style="stop-color:#CCCCCC"/>
	<stop  offset="0.6732" style="stop-color:#FFFFFF"/>
	<stop  offset="0.8687" style="stop-color:#E4E3E3"/>
	<stop  offset="1" style="stop-color:#B3B3B3"/>
</linearGradient>
<path style="fill:url(#SVGID_00000101823571249920367150000018359008461505468550_);" d="M30,104.6c-0.5-0.8-1.2-1.4-1.7-2.2V47.9
	c0.5-0.8,1.2-1.4,1.7-2.2C30,65.3,30,85,30,104.6z"/>
<linearGradient id="SVGID_00000094576767126711042830000016039208976633188268_" gradientUnits="userSpaceOnUse" x1="9.5268" y1="-842.7169" x2="1.8054" y2="-842.7169" gradientTransform="matrix(1 0 0 -1 0 -767.5511)">
	<stop  offset="0" style="stop-color:#B3B3B3;stop-opacity:0.5"/>
	<stop  offset="1" style="stop-color:#B3B3B3;stop-opacity:0"/>
</linearGradient>
<path style="opacity:0.53;fill:url(#SVGID_00000094576767126711042830000016039208976633188268_);enable-background:new    ;" d="
	M9.6,101.5c-2.6-2.4-5.1-4.7-7.8-7.1V55.9c2.6-2.4,5.1-4.7,7.8-7.1C9.6,66.3,9.6,84,9.6,101.5z"/>
<linearGradient id="SVGID_00000120546317624434366880000013800403141288092094_" gradientUnits="userSpaceOnUse" x1="29.9695" y1="-842.7169" x2="28.2607" y2="-842.7169" gradientTransform="matrix(1 0 0 -1 0 -767.5511)">
	<stop  offset="0" style="stop-color:#B3B3B3;stop-opacity:0.5"/>
	<stop  offset="1" style="stop-color:#B3B3B3;stop-opacity:0"/>
</linearGradient>
<path style="opacity:0.53;fill:url(#SVGID_00000120546317624434366880000013800403141288092094_);enable-background:new    ;" d="
	M30,104.6c-0.5-0.8-1.2-1.4-1.7-2.2V47.9c0.5-0.8,1.2-1.4,1.7-2.2C30,65.3,30,85,30,104.6z"/>
<g>
	<g>
		<g>
			<defs>
				<path id="SVGID_00000000930080923540321860000014832036386134155176_" d="M63.8,219v-6.2H37.3v-8.3H30c-0.5,0.8-1.2,1.4-1.7,2.2
					H9.6v0.9c-2.6,2.4-5.1,4.7-7.8,7.1v38.4c2.6,2.4,5.1,4.7,7.8,7.1v0.9h18.7c0.5,0.8,1.2,1.4,1.7,2.2h7.4v-8.4h26.5v-6.2h134.4
					V219H63.8z"/>
			</defs>
			<clipPath id="SVGID_00000031180335955872183990000010562170855102770305_">
				<use xlink:href="#SVGID_00000000930080923540321860000014832036386134155176_"  style="overflow:visible;"/>
			</clipPath>
			<g style="clip-path:url(#SVGID_00000031180335955872183990000010562170855102770305_);">
				
					<image style="overflow:visible;enable-background:new    ;" width="1200" height="900" xlink:href="../../Фитинги/Резьбовые/Металл.jpg"  transform="matrix(0.1909 0 0 0.1909 -16.5572 179.6318)">
				</image>
			</g>
		</g>
		<g>
			<path id="SVGID_10_" class="st10" d="M63.8,219v-6.2H37.3v-8.3H30c-0.5,0.8-1.2,1.4-1.7,2.2H9.6v0.9c-2.6,2.4-5.1,4.7-7.8,7.1
				v38.4c2.6,2.4,5.1,4.7,7.8,7.1v0.9h18.7c0.5,0.8,1.2,1.4,1.7,2.2h7.4v-8.4h26.5v-6.2h134.4V219H63.8z"/>
		</g>
	</g>
</g>
<linearGradient id="SVGID_00000072995924255068034500000017383115331546926490_" gradientUnits="userSpaceOnUse" x1="106.1863" y1="-990.8469" x2="106.1863" y2="-1012.3657" gradientTransform="matrix(1 0 0 -1 0 -767.5511)">
	<stop  offset="0.2849" style="stop-color:#606060"/>
	<stop  offset="0.5139" style="stop-color:#999999"/>
	<stop  offset="0.6613" style="stop-color:#ACACAC"/>
	<stop  offset="0.8464" style="stop-color:#6E6E6F;stop-opacity:0.9913"/>
	<stop  offset="1" style="stop-color:#606060"/>
</linearGradient>
<rect x="14.2" y="223.2" style="fill:url(#SVGID_00000072995924255068034500000017383115331546926490_);" width="184" height="21.5"/>
<path class="st12" d="M14.2,244.6c-4.1,2.8-8.3,5.4-12.4,8.2c0-12.5,0-25,0-37.5c4.1,2.6,8.3,5.3,12.4,7.9V244.6z"/>
<linearGradient id="SVGID_00000008113845281071650830000007015248021446298037_" gradientUnits="userSpaceOnUse" x1="7.9948" y1="-982.7093" x2="7.9948" y2="-1020.2221" gradientTransform="matrix(1 0 0 -1 0 -767.5511)">
	<stop  offset="0.2849" style="stop-color:#606060"/>
	<stop  offset="0.5139" style="stop-color:#999999"/>
	<stop  offset="0.6613" style="stop-color:#ACACAC;stop-opacity:0.76"/>
	<stop  offset="0.8464" style="stop-color:#6E6E6F;stop-opacity:0.9913"/>
	<stop  offset="1" style="stop-color:#606060"/>
</linearGradient>
<path style="opacity:0.58;fill:url(#SVGID_00000008113845281071650830000007015248021446298037_);enable-background:new    ;" d="
	M14.2,244.6c-4.1,2.8-8.3,5.4-12.4,8.2c0-12.5,0-25,0-37.5c4.1,2.6,8.3,5.3,12.4,7.9V244.6z"/>
<image style="overflow:visible;" width="200" height="200" xlink:href="../../pepsi.png"  transform="matrix(8.526804e-02 0 0 8.526804e-02 123.4788 66.1973)">
</image>
</svg>
