<?xml version="1.0" encoding="utf-8"?>
<!-- Generator: Adobe Illustrator 25.4.1, SVG Export Plug-In . SVG Version: 6.00 Build 0)  -->
<svg version="1.1" id="Слой_1" xmlns="http://www.w3.org/2000/svg" xmlns:xlink="http://www.w3.org/1999/xlink" x="0px" y="0px"
	 viewBox="0 0 200 320" style="enable-background:new 0 0 200 320;" xml:space="preserve">
<style type="text/css">
	.st0{fill:#676767;}
	.st1{fill:url(#SVGID_00000009569265437114216110000000703283377192407446_);}
	.st2{fill:url(#SVGID_00000040536232016568762990000013979521713651265930_);}
	.st3{fill:url(#SVGID_00000170989383373071584430000004256191362456103349_);}
	.st4{fill:url(#SVGID_00000109715839033204555330000015735991843359409056_);}
	.st5{fill:url(#SVGID_00000022556121008411215490000016703807753602730392_);}
	.st6{fill:url(#SVGID_00000008117820014004876630000001364022107495512506_);}
	.st7{fill:url(#SVGID_00000084500707628246666200000013267203603218408342_);}
	.st8{fill:url(#SVGID_00000124875937362107753030000001310985355643512980_);}
	.st9{fill:url(#SVGID_00000087406767987390619050000000651506596381730695_);}
	.st10{opacity:0.22;}
	.st11{fill:url(#SVGID_00000111878311219420869950000006345239245435981225_);}
	.st12{fill:url(#SVGID_00000021832439701877615680000003992701549579920559_);}
	.st13{fill:url(#SVGID_00000114763974776689357060000008301901890180766906_);}
	.st14{fill:url(#SVGID_00000178919504318252196470000005418882296115343510_);}
	.st15{fill:url(#SVGID_00000101070560761110883670000010456253741053444026_);}
	.st16{fill:url(#SVGID_00000036970725587062826420000014914504558539393964_);}
	.st17{fill:url(#SVGID_00000097478839509492309500000005295525963336171401_);}
	.st18{fill:url(#SVGID_00000076569821372232896740000010277388284568459683_);}
	.st19{fill:url(#SVGID_00000160152508187294272220000013838416931850226595_);}
	.st20{fill:url(#SVGID_00000057851798432412617840000016485406175639078308_);}
	.st21{fill:url(#SVGID_00000152233164119072929580000010468447133719677830_);}
	.st22{fill:url(#SVGID_00000141428849624552186310000010609397694242894492_);}
	.st23{fill:url(#SVGID_00000081644623624381532540000002876180873656076730_);}
	.st24{fill:url(#SVGID_00000010280628050823141970000009840290991037618833_);}
	.st25{fill:url(#SVGID_00000013915614395834651450000011322612939089814432_);}
	.st26{fill:url(#SVGID_00000043444158808093595030000008538776510555780282_);}
	.st27{fill:url(#SVGID_00000141456926647301667380000015731321660931728308_);}
	.st28{fill:url(#SVGID_00000090273074861159190280000014410797445355110787_);}
	.st29{fill:url(#SVGID_00000127024317136911580900000014002070268288460450_);}
	.st30{fill:#4D4E4E;}
	.st31{fill:url(#SVGID_00000026873429978962728190000006514072048802919607_);}
	.st32{opacity:0.37;fill:#333333;enable-background:new    ;}
	.st33{fill:url(#SVGID_00000006681451916005759080000003762980607088615607_);}
	.st34{fill:#787878;}
	.st35{fill:url(#SVGID_00000088121640973863748210000010173940826906797758_);}
	.st36{opacity:0.5;fill:url(#SVGID_00000005230844711392136690000008750034101477585294_);enable-background:new    ;}
	.st37{fill:#B2B2B2;}
	.st38{fill:#ECECEC;}
	.st39{fill:#AEAEAE;}
	.st40{fill:url(#SVGID_00000014599478202047018220000015789301133327177858_);}
	.st41{fill:url(#SVGID_00000050637822174757158370000006555844656027062914_);}
	.st42{fill:#6B6B6B;}
	.st43{opacity:0.5;fill:url(#SVGID_00000137099772789058342240000014063203724485677487_);enable-background:new    ;}
	.st44{fill:url(#SVGID_00000127760670602498576710000008131614907387055767_);}
</style>
<g>
	<defs>
		<rect id="SVGID_1_" x="169.2" y="202.5" width="26.9" height="77"/>
	</defs>
	<clipPath id="SVGID_00000084513229963413177720000006913713149224859818_">
		<use xlink:href="#SVGID_1_"  style="overflow:visible;"/>
	</clipPath>
	<g style="clip-path:url(#SVGID_00000084513229963413177720000006913713149224859818_);">
		
			<image style="overflow:visible;" width="600" height="600" xlink:href="../../background.jpg"  transform="matrix(0.2838 0 0 0.2838 42.1954 156.8254)">
		</image>
	</g>
	<use xlink:href="#SVGID_1_"  style="overflow:visible;fill:none;stroke:#CFCFCF;stroke-miterlimit:10;"/>
</g>
<g>
	<defs>
		<rect id="SVGID_00000178202818678194385510000014082607026777557423_" x="163.9" y="193.7" width="5.3" height="16.9"/>
	</defs>
	<clipPath id="SVGID_00000142173043571227142050000017358035151480739758_">
		<use xlink:href="#SVGID_00000178202818678194385510000014082607026777557423_"  style="overflow:visible;"/>
	</clipPath>
	<g style="clip-path:url(#SVGID_00000142173043571227142050000017358035151480739758_);">
		
			<image style="overflow:visible;" width="600" height="600" xlink:href="../../background.jpg"  transform="matrix(0.2838 0 0 0.2838 98.1638 158.8269)">
		</image>
	</g>
	
		<use xlink:href="#SVGID_00000178202818678194385510000014082607026777557423_"  style="overflow:visible;fill:none;stroke:#CFCFCF;stroke-miterlimit:10;"/>
</g>
<g>
	<defs>
		<rect id="SVGID_00000014599010712617175860000014304337978813937832_" x="163.9" y="271.4" width="5.3" height="16.7"/>
	</defs>
	<clipPath id="SVGID_00000084506446479154645140000000947998657358901641_">
		<use xlink:href="#SVGID_00000014599010712617175860000014304337978813937832_"  style="overflow:visible;"/>
	</clipPath>
	
		<g transform="matrix(1 0 0 1 7.629395e-06 1.525879e-05)" style="clip-path:url(#SVGID_00000084506446479154645140000000947998657358901641_);">
		
			<image style="overflow:visible;" width="600" height="600" xlink:href="../../background.jpg"  transform="matrix(0.2838 0 0 0.2838 90.7735 156.8883)">
		</image>
	</g>
	
		<use xlink:href="#SVGID_00000014599010712617175860000014304337978813937832_"  style="overflow:visible;fill:none;stroke:#CFCFCF;stroke-miterlimit:10;"/>
</g>
<g>
	<defs>
		<path id="SVGID_00000159459484774147054470000013691626228917943170_" d="M155.5,178h-5c0-0.1,0-0.1,0-0.3c-2.8-4-5.7-7.9-8.4-12
			c-42,0-84.1,0-126.1,0c-2.6,4-5.3,8.2-7.9,12.2c0,2.6,0,5.3,0,8.1l0,0c0,8.6,0,17.1,0,25.7v8.7v69.5l0,0c0,1.5,0,2.9,0,4.4l0,0
			c0,3.1,0,6.3,0,9.4c2.6,3.6,5.3,7.2,7.9,10.8c42,0,84.1,0,126.1,0l8.4-10.9h5.3h8.3V178L155.5,178L155.5,178z"/>
	</defs>
	<clipPath id="SVGID_00000130637537961388795760000001453315944240654508_">
		<use xlink:href="#SVGID_00000159459484774147054470000013691626228917943170_"  style="overflow:visible;"/>
	</clipPath>
	
		<g transform="matrix(1 0 0 1 9.536743e-07 0)" style="clip-path:url(#SVGID_00000130637537961388795760000001453315944240654508_);">
		
			<image style="overflow:visible;" width="600" height="600" xlink:href="../../background.jpg"  transform="matrix(0.4136 0 0 0.4136 -13.5605 91.5842)">
		</image>
	</g>
	
		<use xlink:href="#SVGID_00000159459484774147054470000013691626228917943170_"  style="overflow:visible;fill:none;stroke:#CFCFCF;stroke-miterlimit:10;"/>
</g>
<g>
	<g>
		<polygon class="st0" points="22.3,185.4 26.2,193.2 21.2,291.4 16.5,298.8 		"/>
		
			<linearGradient id="SVGID_00000050650318390267577780000013101814801357644446_" gradientUnits="userSpaceOnUse" x1="-6701.0464" y1="1404.7008" x2="-6701.0464" y2="1297.7283" gradientTransform="matrix(-1 0 0 1.06 -6681.6299 -1204.8602)">
			<stop  offset="0" style="stop-color:#676767"/>
			<stop  offset="0.1704" style="stop-color:#808080"/>
			<stop  offset="0.2431" style="stop-color:#66686A"/>
			<stop  offset="0.4162" style="stop-color:#BCBDBF"/>
			<stop  offset="0.4665" style="stop-color:#808184"/>
			<stop  offset="0.5726" style="stop-color:#E2E3E4"/>
			<stop  offset="0.6899" style="stop-color:#929497"/>
			<stop  offset="1" style="stop-color:#59595C"/>
		</linearGradient>
		<polygon style="fill:url(#SVGID_00000050650318390267577780000013101814801357644446_);" points="17.7,192.7 22.3,185.4 
			16.5,298.8 		"/>
		<path class="st0" d="M30.9,185.3c1.3,2.6,2.6,5.3,3.9,7.9l-5,98.2l-4.7,7.4C27,260.9,29,223.2,30.9,185.3z"/>
		
			<linearGradient id="SVGID_00000115512796400760819130000018107193933092791719_" gradientUnits="userSpaceOnUse" x1="-6707.6533" y1="1404.7008" x2="-6707.6533" y2="1297.6095" gradientTransform="matrix(-1 0 0 1.06 -6681.6299 -1204.8602)">
			<stop  offset="0" style="stop-color:#676767"/>
			<stop  offset="0.1704" style="stop-color:#808080"/>
			<stop  offset="0.2431" style="stop-color:#66686A"/>
			<stop  offset="0.4162" style="stop-color:#BCBDBF"/>
			<stop  offset="0.4665" style="stop-color:#808184"/>
			<stop  offset="0.5726" style="stop-color:#E2E3E4"/>
			<stop  offset="0.6899" style="stop-color:#929497"/>
			<stop  offset="1" style="stop-color:#59595C"/>
		</linearGradient>
		<path style="fill:url(#SVGID_00000115512796400760819130000018107193933092791719_);" d="M21.2,291.4c1.6-32.7,3.4-65.4,5-98.2
			c1.5-2.6,3.1-5.3,4.7-7.9l-5.8,113.5C23.7,296.3,22.4,293.9,21.2,291.4z"/>
		<path class="st0" d="M39.4,185.3c1.3,2.6,2.6,5.3,3.9,7.9l-5,98.2l-4.7,7.4C35.5,260.9,37.5,223,39.4,185.3z"/>
		
			<linearGradient id="SVGID_00000127760255940099335970000018308552874823689624_" gradientUnits="userSpaceOnUse" x1="-6716.2114" y1="1404.7008" x2="-6716.2114" y2="1297.6095" gradientTransform="matrix(-1 0 0 1.06 -6681.6299 -1204.8602)">
			<stop  offset="0" style="stop-color:#676767"/>
			<stop  offset="0.1704" style="stop-color:#808080"/>
			<stop  offset="0.2431" style="stop-color:#66686A"/>
			<stop  offset="0.4162" style="stop-color:#BCBDBF"/>
			<stop  offset="0.4665" style="stop-color:#808184"/>
			<stop  offset="0.5726" style="stop-color:#E2E3E4"/>
			<stop  offset="0.6899" style="stop-color:#929497"/>
			<stop  offset="1" style="stop-color:#59595C"/>
		</linearGradient>
		<path style="fill:url(#SVGID_00000127760255940099335970000018308552874823689624_);" d="M29.7,291.4c1.6-32.7,3.4-65.4,5-98.2
			c1.5-2.6,3.1-5.3,4.7-7.9l-5.8,113.5C32.3,296.3,31,293.9,29.7,291.4z"/>
		<path class="st0" d="M48,185.3c1.3,2.6,2.6,5.3,3.9,7.9l-5,98.2l-4.7,7.4C44.1,260.9,46.1,223.2,48,185.3z"/>
		
			<linearGradient id="SVGID_00000107572831833761568420000004306773334129135000_" gradientUnits="userSpaceOnUse" x1="-6724.769" y1="1404.7008" x2="-6724.769" y2="1297.6095" gradientTransform="matrix(-1 0 0 1.06 -6681.6299 -1204.8602)">
			<stop  offset="0" style="stop-color:#676767"/>
			<stop  offset="0.1704" style="stop-color:#808080"/>
			<stop  offset="0.2431" style="stop-color:#66686A"/>
			<stop  offset="0.4162" style="stop-color:#BCBDBF"/>
			<stop  offset="0.4665" style="stop-color:#808184"/>
			<stop  offset="0.5726" style="stop-color:#E2E3E4"/>
			<stop  offset="0.6899" style="stop-color:#929497"/>
			<stop  offset="1" style="stop-color:#59595C"/>
		</linearGradient>
		<path style="fill:url(#SVGID_00000107572831833761568420000004306773334129135000_);" d="M38.3,291.4c1.6-32.7,3.4-65.4,5-98.2
			c1.5-2.6,3.1-5.3,4.7-7.9l-5.8,113.5C40.8,296.3,39.7,293.9,38.3,291.4z"/>
		<path class="st0" d="M56.5,185.3c1.3,2.6,2.6,5.3,3.9,7.9l-5,98.2l-4.7,7.4C52.6,260.9,54.7,223.2,56.5,185.3z"/>
		
			<linearGradient id="SVGID_00000041261416443098574130000014500634480512460453_" gradientUnits="userSpaceOnUse" x1="-6733.3271" y1="1404.7008" x2="-6733.3271" y2="1297.6095" gradientTransform="matrix(-1 0 0 1.06 -6681.6299 -1204.8602)">
			<stop  offset="0" style="stop-color:#676767"/>
			<stop  offset="0.1704" style="stop-color:#808080"/>
			<stop  offset="0.2431" style="stop-color:#66686A"/>
			<stop  offset="0.4162" style="stop-color:#BCBDBF"/>
			<stop  offset="0.4665" style="stop-color:#808184"/>
			<stop  offset="0.5726" style="stop-color:#E2E3E4"/>
			<stop  offset="0.6899" style="stop-color:#929497"/>
			<stop  offset="1" style="stop-color:#59595C"/>
		</linearGradient>
		<path style="fill:url(#SVGID_00000041261416443098574130000014500634480512460453_);" d="M46.9,291.4c1.6-32.7,3.4-65.4,5-98.2
			c1.5-2.6,3.1-5.3,4.7-7.9l-5.8,113.5C49.4,296.3,48.2,293.9,46.9,291.4z"/>
		<path class="st0" d="M65.1,185.3c1.3,2.6,2.6,5.3,3.9,7.9l-5,98.2l-4.7,7.4C61.2,260.9,63.2,223.2,65.1,185.3z"/>
		
			<linearGradient id="SVGID_00000083055093385784147640000002613504107635702975_" gradientUnits="userSpaceOnUse" x1="-6741.8848" y1="1404.7008" x2="-6741.8848" y2="1297.6095" gradientTransform="matrix(-1 0 0 1.06 -6681.6299 -1204.8602)">
			<stop  offset="0" style="stop-color:#676767"/>
			<stop  offset="0.1704" style="stop-color:#808080"/>
			<stop  offset="0.2431" style="stop-color:#66686A"/>
			<stop  offset="0.4162" style="stop-color:#BCBDBF"/>
			<stop  offset="0.4665" style="stop-color:#808184"/>
			<stop  offset="0.5726" style="stop-color:#E2E3E4"/>
			<stop  offset="0.6899" style="stop-color:#929497"/>
			<stop  offset="1" style="stop-color:#59595C"/>
		</linearGradient>
		<path style="fill:url(#SVGID_00000083055093385784147640000002613504107635702975_);" d="M55.4,291.4c1.6-32.7,3.4-65.4,5-98.2
			c1.5-2.6,3.1-5.3,4.7-7.9l-5.8,113.5C57.9,296.3,56.8,293.9,55.4,291.4z"/>
		<path class="st0" d="M73.7,185.3c1.3,2.6,2.6,5.3,3.9,7.9l-5,98.2l-4.7,7.4C69.8,260.9,71.8,223.2,73.7,185.3z"/>
		
			<linearGradient id="SVGID_00000062159614749328264090000005171290840424715704_" gradientUnits="userSpaceOnUse" x1="-6750.4424" y1="1404.7008" x2="-6750.4424" y2="1297.6095" gradientTransform="matrix(-1 0 0 1.06 -6681.6299 -1204.8602)">
			<stop  offset="0" style="stop-color:#676767"/>
			<stop  offset="0.1704" style="stop-color:#808080"/>
			<stop  offset="0.2431" style="stop-color:#66686A"/>
			<stop  offset="0.4162" style="stop-color:#BCBDBF"/>
			<stop  offset="0.4665" style="stop-color:#808184"/>
			<stop  offset="0.5726" style="stop-color:#E2E3E4"/>
			<stop  offset="0.6899" style="stop-color:#929497"/>
			<stop  offset="1" style="stop-color:#59595C"/>
		</linearGradient>
		<path style="fill:url(#SVGID_00000062159614749328264090000005171290840424715704_);" d="M64,291.4c1.6-32.7,3.4-65.4,5-98.2
			c1.5-2.6,3.1-5.3,4.7-7.9l-5.8,113.5C66.5,296.3,65.4,293.9,64,291.4z"/>
		<path class="st0" d="M82.2,185.3c1.3,2.6,2.6,5.3,3.9,7.9l-5,98.2l-4.7,7.4C78.3,260.9,80.3,223.2,82.2,185.3z"/>
		
			<linearGradient id="SVGID_00000153691967401542072660000007192784802922963870_" gradientUnits="userSpaceOnUse" x1="-6759.0005" y1="1404.7008" x2="-6759.0005" y2="1297.6095" gradientTransform="matrix(-1 0 0 1.06 -6681.6299 -1204.8602)">
			<stop  offset="0" style="stop-color:#676767"/>
			<stop  offset="0.1704" style="stop-color:#808080"/>
			<stop  offset="0.2431" style="stop-color:#66686A"/>
			<stop  offset="0.4162" style="stop-color:#BCBDBF"/>
			<stop  offset="0.4665" style="stop-color:#808184"/>
			<stop  offset="0.5726" style="stop-color:#E2E3E4"/>
			<stop  offset="0.6899" style="stop-color:#929497"/>
			<stop  offset="1" style="stop-color:#59595C"/>
		</linearGradient>
		<path style="fill:url(#SVGID_00000153691967401542072660000007192784802922963870_);" d="M72.5,291.4c1.6-32.7,3.4-65.4,5-98.2
			c1.5-2.6,3.1-5.3,4.7-7.9l-5.8,113.5C75,296.3,73.9,293.9,72.5,291.4z"/>
		<path class="st0" d="M90.8,185.3c1.3,2.6,2.6,5.3,3.9,7.9l-5,98.2l-4.7,7.4C86.9,260.9,88.9,223.2,90.8,185.3z"/>
		
			<linearGradient id="SVGID_00000096037387412599938730000014325859194425911440_" gradientUnits="userSpaceOnUse" x1="-6767.5581" y1="1404.7008" x2="-6767.5581" y2="1297.6095" gradientTransform="matrix(-1 0 0 1.06 -6681.6299 -1204.8602)">
			<stop  offset="0" style="stop-color:#676767"/>
			<stop  offset="0.1704" style="stop-color:#808080"/>
			<stop  offset="0.2431" style="stop-color:#66686A"/>
			<stop  offset="0.4162" style="stop-color:#BCBDBF"/>
			<stop  offset="0.4665" style="stop-color:#808184"/>
			<stop  offset="0.5726" style="stop-color:#E2E3E4"/>
			<stop  offset="0.6899" style="stop-color:#929497"/>
			<stop  offset="1" style="stop-color:#59595C"/>
		</linearGradient>
		<path style="fill:url(#SVGID_00000096037387412599938730000014325859194425911440_);" d="M81.1,291.4c1.6-32.7,3.4-65.4,5-98.2
			c1.5-2.6,3.1-5.3,4.7-7.9L85,298.8C83.6,296.3,82.5,293.9,81.1,291.4z"/>
	</g>
	<g class="st10">
		
			<linearGradient id="SVGID_00000086673585485779007400000012250533389892766901_" gradientUnits="userSpaceOnUse" x1="26.2124" y1="78.8992" x2="16.522" y2="78.8992" gradientTransform="matrix(1 0 0 -1 0 321)">
			<stop  offset="0" style="stop-color:#D5D5D4"/>
			<stop  offset="0.5251" style="stop-color:#D6D6D5;stop-opacity:0"/>
			<stop  offset="1" style="stop-color:#F1F1F1;stop-opacity:0.8"/>
		</linearGradient>
		<polygon style="fill:url(#SVGID_00000086673585485779007400000012250533389892766901_);" points="22.3,185.4 26.2,193.2 
			21.2,291.4 16.5,298.8 		"/>
		
			<linearGradient id="SVGID_00000180354744846608373540000009819161138390756498_" gradientUnits="userSpaceOnUse" x1="-6703.1914" y1="1365.0576" x2="-6697.4023" y2="1365.0576" gradientTransform="matrix(-1 0 0 1.06 -6681.6299 -1204.8602)">
			<stop  offset="0" style="stop-color:#D5D5D4"/>
			<stop  offset="0.5251" style="stop-color:#D6D6D5;stop-opacity:0"/>
			<stop  offset="1" style="stop-color:#F1F1F1;stop-opacity:0.8"/>
		</linearGradient>
		<polygon style="fill:url(#SVGID_00000180354744846608373540000009819161138390756498_);" points="17.7,192.7 22.3,185.4 
			16.5,298.8 		"/>
		
			<linearGradient id="SVGID_00000128471200143436344790000001232306325094875050_" gradientUnits="userSpaceOnUse" x1="34.7702" y1="78.9621" x2="25.0798" y2="78.9621" gradientTransform="matrix(1 0 0 -1 0 321)">
			<stop  offset="0" style="stop-color:#D5D5D4"/>
			<stop  offset="0.5251" style="stop-color:#D6D6D5;stop-opacity:0"/>
			<stop  offset="1" style="stop-color:#F1F1F1;stop-opacity:0.8"/>
		</linearGradient>
		<path style="fill:url(#SVGID_00000128471200143436344790000001232306325094875050_);" d="M30.9,185.3c1.3,2.6,2.6,5.3,3.9,7.9
			l-5,98.2l-4.7,7.4C27,260.9,29,223.2,30.9,185.3z"/>
		
			<linearGradient id="SVGID_00000172439203001899004820000000183502269688635267_" gradientUnits="userSpaceOnUse" x1="-6711.2466" y1="1364.9983" x2="-6701.5562" y2="1364.9983" gradientTransform="matrix(-1 0 0 1.06 -6681.6299 -1204.8602)">
			<stop  offset="0" style="stop-color:#D5D5D4"/>
			<stop  offset="0.5251" style="stop-color:#D6D6D5;stop-opacity:0"/>
			<stop  offset="1" style="stop-color:#F1F1F1;stop-opacity:0.8"/>
		</linearGradient>
		<path style="fill:url(#SVGID_00000172439203001899004820000000183502269688635267_);" d="M21.2,291.4c1.6-32.7,3.4-65.4,5-98.2
			c1.5-2.6,3.1-5.3,4.7-7.9l-5.8,113.5C23.7,296.3,22.4,293.9,21.2,291.4z"/>
		
			<linearGradient id="SVGID_00000110459182322797029130000000327200978475025339_" gradientUnits="userSpaceOnUse" x1="43.328" y1="78.9621" x2="33.6376" y2="78.9621" gradientTransform="matrix(1 0 0 -1 0 321)">
			<stop  offset="0" style="stop-color:#D5D5D4"/>
			<stop  offset="0.5251" style="stop-color:#D6D6D5;stop-opacity:0"/>
			<stop  offset="1" style="stop-color:#F1F1F1;stop-opacity:0.8"/>
		</linearGradient>
		<path style="fill:url(#SVGID_00000110459182322797029130000000327200978475025339_);" d="M39.4,185.3c1.3,2.6,2.6,5.3,3.9,7.9
			l-5,98.2l-4.7,7.4C35.5,260.9,37.5,223,39.4,185.3z"/>
		
			<linearGradient id="SVGID_00000054945004615896551790000016148008474019616641_" gradientUnits="userSpaceOnUse" x1="-6719.8037" y1="1364.9983" x2="-6710.1133" y2="1364.9983" gradientTransform="matrix(-1 0 0 1.06 -6681.6299 -1204.8602)">
			<stop  offset="0" style="stop-color:#D5D5D4"/>
			<stop  offset="0.5251" style="stop-color:#D6D6D5;stop-opacity:0"/>
			<stop  offset="1" style="stop-color:#F1F1F1;stop-opacity:0.8"/>
		</linearGradient>
		<path style="fill:url(#SVGID_00000054945004615896551790000016148008474019616641_);" d="M29.7,291.4c1.6-32.7,3.4-65.4,5-98.2
			c1.5-2.6,3.1-5.3,4.7-7.9l-5.8,113.5C32.3,296.3,31,293.9,29.7,291.4z"/>
		
			<linearGradient id="SVGID_00000127723530921123609970000007404211083314624414_" gradientUnits="userSpaceOnUse" x1="51.8858" y1="78.9621" x2="42.1954" y2="78.9621" gradientTransform="matrix(1 0 0 -1 0 321)">
			<stop  offset="0" style="stop-color:#D5D5D4"/>
			<stop  offset="0.5251" style="stop-color:#D6D6D5;stop-opacity:0"/>
			<stop  offset="1" style="stop-color:#F1F1F1;stop-opacity:0.8"/>
		</linearGradient>
		<path style="fill:url(#SVGID_00000127723530921123609970000007404211083314624414_);" d="M48,185.3c1.3,2.6,2.6,5.3,3.9,7.9
			l-5,98.2l-4.7,7.4C44.1,260.9,46.1,223.2,48,185.3z"/>
		
			<linearGradient id="SVGID_00000127727193311909220550000008571637270241422270_" gradientUnits="userSpaceOnUse" x1="-6728.3613" y1="1364.9983" x2="-6718.6709" y2="1364.9983" gradientTransform="matrix(-1 0 0 1.06 -6681.6299 -1204.8602)">
			<stop  offset="0" style="stop-color:#D5D5D4"/>
			<stop  offset="0.5251" style="stop-color:#D6D6D5;stop-opacity:0"/>
			<stop  offset="1" style="stop-color:#F1F1F1;stop-opacity:0.8"/>
		</linearGradient>
		<path style="fill:url(#SVGID_00000127727193311909220550000008571637270241422270_);" d="M38.3,291.4c1.6-32.7,3.4-65.4,5-98.2
			c1.5-2.6,3.1-5.3,4.7-7.9l-5.8,113.5C40.8,296.3,39.7,293.9,38.3,291.4z"/>
		
			<linearGradient id="SVGID_00000132074077265158272730000001225480760793562549_" gradientUnits="userSpaceOnUse" x1="60.4436" y1="78.9621" x2="50.7532" y2="78.9621" gradientTransform="matrix(1 0 0 -1 0 321)">
			<stop  offset="0" style="stop-color:#D5D5D4"/>
			<stop  offset="0.5251" style="stop-color:#D6D6D5;stop-opacity:0"/>
			<stop  offset="1" style="stop-color:#F1F1F1;stop-opacity:0.8"/>
		</linearGradient>
		<path style="fill:url(#SVGID_00000132074077265158272730000001225480760793562549_);" d="M56.5,185.3c1.3,2.6,2.6,5.3,3.9,7.9
			l-5,98.2l-4.7,7.4C52.6,260.9,54.7,223.2,56.5,185.3z"/>
		
			<linearGradient id="SVGID_00000114034733630108749330000003694263523613349507_" gradientUnits="userSpaceOnUse" x1="-6736.9199" y1="1364.9983" x2="-6727.229" y2="1364.9983" gradientTransform="matrix(-1 0 0 1.06 -6681.6299 -1204.8602)">
			<stop  offset="0" style="stop-color:#D5D5D4"/>
			<stop  offset="0.5251" style="stop-color:#D6D6D5;stop-opacity:0"/>
			<stop  offset="1" style="stop-color:#F1F1F1;stop-opacity:0.8"/>
		</linearGradient>
		<path style="fill:url(#SVGID_00000114034733630108749330000003694263523613349507_);" d="M46.9,291.4c1.6-32.7,3.4-65.4,5-98.2
			c1.5-2.6,3.1-5.3,4.7-7.9l-5.8,113.5C49.4,296.3,48.2,293.9,46.9,291.4z"/>
		
			<linearGradient id="SVGID_00000049944916664346026070000008107134032580250006_" gradientUnits="userSpaceOnUse" x1="69.0014" y1="78.9621" x2="59.311" y2="78.9621" gradientTransform="matrix(1 0 0 -1 0 321)">
			<stop  offset="0" style="stop-color:#D5D5D4"/>
			<stop  offset="0.5251" style="stop-color:#D6D6D5;stop-opacity:0"/>
			<stop  offset="1" style="stop-color:#F1F1F1;stop-opacity:0.8"/>
		</linearGradient>
		<path style="fill:url(#SVGID_00000049944916664346026070000008107134032580250006_);" d="M65.1,185.3c1.3,2.6,2.6,5.3,3.9,7.9
			l-5,98.2l-4.7,7.4C61.2,260.9,63.2,223.2,65.1,185.3z"/>
		
			<linearGradient id="SVGID_00000053530678373636061640000003862810756922980276_" gradientUnits="userSpaceOnUse" x1="-6745.4771" y1="1364.9983" x2="-6735.7866" y2="1364.9983" gradientTransform="matrix(-1 0 0 1.06 -6681.6299 -1204.8602)">
			<stop  offset="0" style="stop-color:#D5D5D4"/>
			<stop  offset="0.5251" style="stop-color:#D6D6D5;stop-opacity:0"/>
			<stop  offset="1" style="stop-color:#F1F1F1;stop-opacity:0.8"/>
		</linearGradient>
		<path style="fill:url(#SVGID_00000053530678373636061640000003862810756922980276_);" d="M55.4,291.4c1.6-32.7,3.4-65.4,5-98.2
			c1.5-2.6,3.1-5.3,4.7-7.9l-5.8,113.5C57.9,296.3,56.8,293.9,55.4,291.4z"/>
		
			<linearGradient id="SVGID_00000127756206050063427880000017652865800124176302_" gradientUnits="userSpaceOnUse" x1="77.5592" y1="78.9621" x2="67.8688" y2="78.9621" gradientTransform="matrix(1 0 0 -1 0 321)">
			<stop  offset="0" style="stop-color:#D5D5D4"/>
			<stop  offset="0.5251" style="stop-color:#D6D6D5;stop-opacity:0"/>
			<stop  offset="1" style="stop-color:#F1F1F1;stop-opacity:0.8"/>
		</linearGradient>
		<path style="fill:url(#SVGID_00000127756206050063427880000017652865800124176302_);" d="M73.7,185.3c1.3,2.6,2.6,5.3,3.9,7.9
			l-5,98.2l-4.7,7.4C69.8,260.9,71.8,223.2,73.7,185.3z"/>
		
			<linearGradient id="SVGID_00000162312223557042876110000014752723295066363800_" gradientUnits="userSpaceOnUse" x1="-6754.0356" y1="1364.9983" x2="-6744.3447" y2="1364.9983" gradientTransform="matrix(-1 0 0 1.06 -6681.6299 -1204.8602)">
			<stop  offset="0" style="stop-color:#D5D5D4"/>
			<stop  offset="0.5251" style="stop-color:#D6D6D5;stop-opacity:0"/>
			<stop  offset="1" style="stop-color:#F1F1F1;stop-opacity:0.8"/>
		</linearGradient>
		<path style="fill:url(#SVGID_00000162312223557042876110000014752723295066363800_);" d="M64,291.4c1.6-32.7,3.4-65.4,5-98.2
			c1.5-2.6,3.1-5.3,4.7-7.9l-5.8,113.5C66.5,296.3,65.4,293.9,64,291.4z"/>
		
			<linearGradient id="SVGID_00000023985083090837839520000011028829165867168690_" gradientUnits="userSpaceOnUse" x1="86.117" y1="78.9621" x2="76.4266" y2="78.9621" gradientTransform="matrix(1 0 0 -1 0 321)">
			<stop  offset="0" style="stop-color:#D5D5D4"/>
			<stop  offset="0.5251" style="stop-color:#D6D6D5;stop-opacity:0"/>
			<stop  offset="1" style="stop-color:#F1F1F1;stop-opacity:0.8"/>
		</linearGradient>
		<path style="fill:url(#SVGID_00000023985083090837839520000011028829165867168690_);" d="M82.2,185.3c1.3,2.6,2.6,5.3,3.9,7.9
			l-5,98.2l-4.7,7.4C78.3,260.9,80.3,223.2,82.2,185.3z"/>
		
			<linearGradient id="SVGID_00000042699671567590627860000007303064868337691824_" gradientUnits="userSpaceOnUse" x1="-6762.5928" y1="1364.9983" x2="-6752.9023" y2="1364.9983" gradientTransform="matrix(-1 0 0 1.06 -6681.6299 -1204.8602)">
			<stop  offset="0" style="stop-color:#D5D5D4"/>
			<stop  offset="0.5251" style="stop-color:#D6D6D5;stop-opacity:0"/>
			<stop  offset="1" style="stop-color:#F1F1F1;stop-opacity:0.8"/>
		</linearGradient>
		<path style="fill:url(#SVGID_00000042699671567590627860000007303064868337691824_);" d="M72.5,291.4c1.6-32.7,3.4-65.4,5-98.2
			c1.5-2.6,3.1-5.3,4.7-7.9l-5.8,113.5C75,296.3,73.9,293.9,72.5,291.4z"/>
		
			<linearGradient id="SVGID_00000144333616379945029520000007166215174214370988_" gradientUnits="userSpaceOnUse" x1="94.6748" y1="78.9621" x2="84.9844" y2="78.9621" gradientTransform="matrix(1 0 0 -1 0 321)">
			<stop  offset="0" style="stop-color:#D5D5D4"/>
			<stop  offset="0.5251" style="stop-color:#D6D6D5;stop-opacity:0"/>
			<stop  offset="1" style="stop-color:#F1F1F1;stop-opacity:0.8"/>
		</linearGradient>
		<path style="fill:url(#SVGID_00000144333616379945029520000007166215174214370988_);" d="M90.8,185.3c1.3,2.6,2.6,5.3,3.9,7.9
			l-5,98.2l-4.7,7.4C86.9,260.9,88.9,223.2,90.8,185.3z"/>
		
			<linearGradient id="SVGID_00000165216735660329190170000000744620698692752552_" gradientUnits="userSpaceOnUse" x1="-6771.1504" y1="1364.9983" x2="-6761.46" y2="1364.9983" gradientTransform="matrix(-1 0 0 1.06 -6681.6299 -1204.8602)">
			<stop  offset="0" style="stop-color:#D5D5D4"/>
			<stop  offset="0.5251" style="stop-color:#D6D6D5;stop-opacity:0"/>
			<stop  offset="1" style="stop-color:#F1F1F1;stop-opacity:0.8"/>
		</linearGradient>
		<path style="fill:url(#SVGID_00000165216735660329190170000000744620698692752552_);" d="M81.1,291.4c1.6-32.7,3.4-65.4,5-98.2
			c1.5-2.6,3.1-5.3,4.7-7.9L85,298.8C83.6,296.3,82.5,293.9,81.1,291.4z"/>
	</g>
</g>
<linearGradient id="SVGID_00000149339401431783813580000018331303549170295203_" gradientUnits="userSpaceOnUse" x1="12.8094" y1="696.4976" x2="12.8094" y2="815.8034" gradientTransform="matrix(1 0 0 -1 0 998.0409)">
	<stop  offset="0.2849" style="stop-color:#4D4E4E"/>
	<stop  offset="0.6613" style="stop-color:#ACACAC"/>
	<stop  offset="0.8464" style="stop-color:#6E6F70;stop-opacity:0.9913"/>
	<stop  offset="1" style="stop-color:#606060"/>
</linearGradient>
<path style="fill:url(#SVGID_00000149339401431783813580000018331303549170295203_);" d="M7.8,182.4c3.3,3.4,6.7,6.9,9.9,10.3
	c-0.5,35.5-0.9,70.7-1.3,106.1c-2.9,0.9-5.8,1.9-8.7,2.9C7.8,301.7,7.8,182.5,7.8,182.4z"/>
<rect x="110.5" y="165.8" class="st30" width="6" height="148.8"/>
<linearGradient id="SVGID_00000075156838519078855820000011532163838244107196_" gradientUnits="userSpaceOnUse" x1="121.7326" y1="1078.142" x2="121.7326" y2="1176.9342" gradientTransform="matrix(1 0 0 1 0 -885.4409)">
	<stop  offset="0.2849" style="stop-color:#606060"/>
	<stop  offset="0.5139" style="stop-color:#979797"/>
	<stop  offset="0.6613" style="stop-color:#ACACAC"/>
	<stop  offset="0.8464" style="stop-color:#6E6F70;stop-opacity:0.9913"/>
	<stop  offset="1" style="stop-color:#606060"/>
</linearGradient>
<path style="fill:url(#SVGID_00000075156838519078855820000011532163838244107196_);" d="M94.7,193.2c0,0,39.4-0.4,59.1-0.6v97.9
	c-21.4,0.3-42.8,0.6-64.2,0.9C91.3,258.7,93,225.9,94.7,193.2z"/>
<g>
	<defs>
		<path id="SVGID_00000000941044594107548100000013109465224743869116_" d="M196.2,208.2h-32.3v-5h-10.3v-6.7H143
			c-1.8,1.1-3.5,2.4-5.4,3.5l0,0h-16.9v1.6c-2.9,3.5-6,7-9.2,10.7V270c2.9,3.5,6,7,9.2,10.7v1.6h17l0,0c1.8,1.1,3.5,2.4,5.4,3.5
			h10.6v-6.7H164v-5h32.3v-65.9H196.2z"/>
	</defs>
	<clipPath id="SVGID_00000149364116664142489340000008038355952990378880_">
		<use xlink:href="#SVGID_00000000941044594107548100000013109465224743869116_"  style="overflow:visible;"/>
	</clipPath>
	<g transform="matrix(1 0 0 1 0 0)" style="clip-path:url(#SVGID_00000149364116664142489340000008038355952990378880_);">
		
			<image style="overflow:visible;" width="600" height="600" xlink:href="../../background.jpg"  transform="matrix(0.341 0 0 0.341 -3.2574 143.854)">
		</image>
	</g>
	
		<use xlink:href="#SVGID_00000000941044594107548100000013109465224743869116_"  style="overflow:visible;fill:none;stroke:#CFCFCF;stroke-miterlimit:10;"/>
</g>
<path class="st32" d="M196.1,208.2h-32.3v-5h-10.3v-6.7h-10.6c-1.8,1.1-3.5,2.4-5.4,3.5l0,0h-16.9v1.6c-2.9,3.5-6,7-9.2,10.7V270
	c2.9,3.5,6,7,9.2,10.7v1.6h17l0,0c1.8,1.1,3.5,2.4,5.4,3.5h10.6v-6.7h10.3v-5h32.3v-65.9H196.1z"/>
<linearGradient id="SVGID_00000076594991307263188870000010631466388949166270_" gradientUnits="userSpaceOnUse" x1="182.644" y1="453.46" x2="182.644" y2="376.4397" gradientTransform="matrix(1 0 0 1 0 -335)">
	<stop  offset="0" style="stop-color:#9D9B9B"/>
	<stop  offset="0.1816" style="stop-color:#808080"/>
	<stop  offset="0.2933" style="stop-color:#9D9B9B"/>
	<stop  offset="0.5447" style="stop-color:#CBCBCA"/>
	<stop  offset="0.6732" style="stop-color:#FFFFFF"/>
	<stop  offset="0.8687" style="stop-color:#E3E2E2"/>
	<stop  offset="1" style="stop-color:#B3B2B3"/>
</linearGradient>
<rect x="169.2" y="41.4" style="fill:url(#SVGID_00000076594991307263188870000010631466388949166270_);" width="26.9" height="77"/>
<rect x="163.9" y="112.5" class="st34" width="5.3" height="14.5"/>
<g>
	
		<linearGradient id="SVGID_00000003803351196278445640000004309739103404343187_" gradientUnits="userSpaceOnUse" x1="156.0897" y1="286.7319" x2="156.0897" y2="412.3303" gradientTransform="matrix(1 0 0 -1 0 430.1102)">
		<stop  offset="0" style="stop-color:#9D9B9B"/>
		<stop  offset="0.1816" style="stop-color:#808080"/>
		<stop  offset="0.2933" style="stop-color:#9D9B9B"/>
		<stop  offset="0.5447" style="stop-color:#CBCBCA"/>
		<stop  offset="0.6732" style="stop-color:#FFFFFF"/>
		<stop  offset="0.8687" style="stop-color:#E3E2E2"/>
		<stop  offset="1" style="stop-color:#B3B2B3"/>
	</linearGradient>
	
		<rect x="148.3" y="17.8" style="fill:url(#SVGID_00000003803351196278445640000004309739103404343187_);" width="15.6" height="125.6"/>
	
		<linearGradient id="SVGID_00000083776524905648790770000016511000178274564285_" gradientUnits="userSpaceOnUse" x1="-402.1818" y1="-2736.3696" x2="-387.6111" y2="-2736.3696" gradientTransform="matrix(1 0 0 -1 543.2952 -2655.7905)">
		<stop  offset="0" style="stop-color:#3F3B3C"/>
		<stop  offset="1" style="stop-color:#3F3B3C;stop-opacity:0"/>
	</linearGradient>
	
		<polygon style="opacity:0.5;fill:url(#SVGID_00000083776524905648790770000016511000178274564285_);enable-background:new    ;" points="
		155.5,17.8 140.9,17.8 140.9,143.4 155.7,143.4 	"/>
	<path class="st37" d="M142.1,5.7c2.8,4,5.5,7.9,8.3,12c0,5.2,0,10.3,0,15.5h-11.6C140,23.9,141.1,14.8,142.1,5.7z"/>
	<rect x="138.8" y="51.5" class="st38" width="11.6" height="78.2"/>
	<rect x="9" y="51.5" class="st34" width="11.6" height="78.2"/>
	<path class="st39" d="M9,17.8c2.6-4,5.3-8.2,7.9-12.2c0,10.3,0,20.5,0,30.8c-2.6,5.2-5.3,10.3-7.8,15.5C9,40.6,9,29.2,9,17.8z"/>
	<path class="st34" d="M9,111.3c5.4-10.2,10.9-20.4,16.4-30.6c-2.9,24.5-5.7,49.1-8.6,73.6c-2.6-3.6-5.3-7.2-7.9-10.8
		C9,132.8,9,122.1,9,111.3z"/>
	
		<linearGradient id="SVGID_00000177457268908611819390000012940495109063453575_" gradientUnits="userSpaceOnUse" x1="79.7616" y1="-195.1708" x2="79.7616" y2="-120.9566" gradientTransform="matrix(1 0 0 -1 0 -115.2756)">
		<stop  offset="0" style="stop-color:#E5E5E4"/>
		<stop  offset="0.263" style="stop-color:#E0E1E0"/>
		<stop  offset="0.5724" style="stop-color:#D2D2D2"/>
		<stop  offset="0.904" style="stop-color:#BABABA"/>
		<stop  offset="1" style="stop-color:#B3B2B3"/>
	</linearGradient>
	<path style="fill:url(#SVGID_00000177457268908611819390000012940495109063453575_);" d="M142.5,79.9c1-2.4,1.9-4.9,2.9-7.3
		c1.6-4.2,3.4-8.3,5-12.5c0-11.5,0-22.9,0-34.4c-0.1-0.5-1.9-4.7-2.1-5.2c-1.5-3.8-1.8-4.4-2-5c-0.9-2.3-2.3-5.7-4.2-9.9
		c-41.8,0-83.6,0-125.2,0c-1,3.1-2.1,6.4-3.4,9.8c-1.5,3.8-3,7.3-4.4,10.4c0,11.5,0,22.9,0,34.4c2.6,6.5,5.3,13.2,7.9,19.8
		C58.7,79.9,100.6,79.9,142.5,79.9z"/>
	
		<linearGradient id="SVGID_00000150785513377720056270000015321966014133041312_" gradientUnits="userSpaceOnUse" x1="79.6358" y1="38.062" x2="79.6358" y2="112.2761" gradientTransform="matrix(1 0 0 1 0 42.056)">
		<stop  offset="0" style="stop-color:#808080"/>
		<stop  offset="1" style="stop-color:#AAABAB"/>
	</linearGradient>
	<path style="fill:url(#SVGID_00000150785513377720056270000015321966014133041312_);" d="M16.9,79.9c-2.6,6.5-5.3,13.2-7.9,19.8
		c0,11.5,0,22.9,0,34.4c1.5,3.1,3,6.7,4.4,10.4c1.3,3.4,2.4,6.7,3.4,9.8c41.8,0,83.6,0,125.2,0c1.9-4.4,3.3-7.7,4.2-9.9
		c0.3-0.6,0.5-1.3,2-5c0.3-0.5,1.9-4.7,2.1-5.2c0-11.5,0-22.9,0-34.4c-1.6-4.2-3.4-8.3-5-12.5c-1-2.4-2-4.9-2.9-7.3
		C100.6,79.9,58.7,79.9,16.9,79.9z"/>
	<path class="st42" d="M7.8,139.6"/>
	<polygon class="st42" points="150.4,134.2 150.4,143.4 142.1,154.3 	"/>
</g>
<path class="st30" d="M111.5,212.2l5.4,5.4v47.9c-1.8,1.4-3.6,2.9-5.4,4.3C111.5,250.6,111.5,231.5,111.5,212.2z"/>
<linearGradient id="SVGID_00000036955502312677966920000010927601197448814014_" gradientUnits="userSpaceOnUse" x1="-376.6263" y1="-2735.7405" x2="-368.2909" y2="-2735.7405" gradientTransform="matrix(1 0 0 -1 543.2952 -2655.7905)">
	<stop  offset="0" style="stop-color:#3F3B3C"/>
	<stop  offset="1" style="stop-color:#3F3B3C;stop-opacity:0"/>
</linearGradient>
<polygon style="opacity:0.5;fill:url(#SVGID_00000036955502312677966920000010927601197448814014_);enable-background:new    ;" points="
	174.8,41.4 166.5,41.4 166.5,118.5 175,118.5 "/>
<linearGradient id="SVGID_00000027573293319738657750000018172291413786985124_" gradientUnits="userSpaceOnUse" x1="166.5352" y1="462.0178" x2="166.5352" y2="367.6302" gradientTransform="matrix(1 0 0 1 0 -335)">
	<stop  offset="0" style="stop-color:#9D9B9B"/>
	<stop  offset="0.1816" style="stop-color:#808080"/>
	<stop  offset="0.2933" style="stop-color:#9D9B9B"/>
	<stop  offset="0.5447" style="stop-color:#CBCBCA"/>
	<stop  offset="0.6732" style="stop-color:#FFFFFF"/>
	<stop  offset="0.8687" style="stop-color:#E3E2E2"/>
	<stop  offset="1" style="stop-color:#B3B2B3"/>
</linearGradient>
<rect x="163.9" y="32.6" style="fill:url(#SVGID_00000027573293319738657750000018172291413786985124_);" width="5.3" height="94.4"/>
<image style="overflow:visible;" width="200" height="200" xlink:href="../../pepsi.png"  transform="matrix(9.968944e-02 0 0 9.968944e-02 173.3445 69.9809)">
</image>
</svg>
