<?xml version="1.0" encoding="utf-8"?>
<!-- Generator: Adobe Illustrator 25.4.1, SVG Export Plug-In . SVG Version: 6.00 Build 0)  -->
<svg version="1.1" id="Слой_1" xmlns="http://www.w3.org/2000/svg" xmlns:xlink="http://www.w3.org/1999/xlink" x="0px" y="0px"
	 viewBox="0 0 200 320" style="enable-background:new 0 0 200 320;" xml:space="preserve">
<style type="text/css">
	.st0{fill:#666666;}
	.st1{fill:url(#SVGID_00000152245758002542535240000008924743915291051917_);}
	.st2{fill:url(#SVGID_00000085938756186474129820000013897831236541734063_);}
	.st3{fill:url(#SVGID_00000114760096111294721390000018211502473352783292_);}
	.st4{fill:url(#SVGID_00000011002153089476483080000005828126027525280188_);}
	.st5{fill:url(#SVGID_00000158020967782707738360000000628643960964538543_);}
	.st6{fill:url(#SVGID_00000057125548385546361790000005799905779752667787_);}
	.st7{fill:url(#SVGID_00000129889780723003574600000010117852671860647323_);}
	.st8{fill:url(#SVGID_00000039848229836761047510000003194937355523793847_);}
	.st9{fill:url(#SVGID_00000121960353696498373160000008550038572823926459_);}
	.st10{fill:url(#SVGID_00000044879121149051380280000005058374939680001665_);}
	.st11{fill:url(#SVGID_00000031180514885957961400000009252661549409250728_);}
	.st12{opacity:0.21;}
	.st13{fill:url(#SVGID_00000047757212116414884330000012902438960695251384_);}
	.st14{fill:url(#SVGID_00000031171325623599020290000010830299697358036158_);}
	.st15{fill:url(#SVGID_00000066479155423177708870000003734934484319356841_);}
	.st16{fill:url(#SVGID_00000152236717839764987190000004193929096294804402_);}
	.st17{fill:url(#SVGID_00000020379304143731096310000000852894430862845118_);}
	.st18{fill:url(#SVGID_00000155104688904983657200000004277480381986862501_);}
	.st19{fill:url(#SVGID_00000069368592274604336380000002279026326503632009_);}
	.st20{fill:url(#SVGID_00000108295035007018397160000010528003566858545065_);}
	.st21{fill:url(#SVGID_00000065756312664271745150000013103739022374187648_);}
	.st22{fill:url(#SVGID_00000041984278222463386150000008564851837961312164_);}
	.st23{fill:url(#SVGID_00000072265877675727667020000017837964174963751072_);}
	.st24{fill:url(#SVGID_00000039838213898433935870000009931323409733951374_);}
	.st25{fill:url(#SVGID_00000126285667915449654770000009713125695622120836_);}
	.st26{fill:url(#SVGID_00000114059555773459371280000017188877535194026636_);}
	.st27{fill:url(#SVGID_00000111170649159253244210000003875763668450908572_);}
	.st28{fill:url(#SVGID_00000103955535138660819850000002735845581747676088_);}
	.st29{fill:url(#SVGID_00000137123480747187841480000014501725477877998768_);}
	.st30{fill:url(#SVGID_00000005977120484780054040000005657115909060950923_);}
	.st31{fill:url(#SVGID_00000065757443256330486200000015821930369753161658_);}
	.st32{fill:url(#SVGID_00000142138860690533901680000001165424573834283681_);}
	.st33{fill:url(#SVGID_00000182521534481960931660000005404739880808944031_);}
	.st34{fill:url(#SVGID_00000172434066730941832410000003343699934725530241_);}
	.st35{fill:url(#SVGID_00000109725334095359713880000015923070560890102405_);}
	.st36{fill:url(#SVGID_00000037686486622460537280000016529187732812154794_);}
	.st37{fill:#4D4D4D;}
	.st38{fill:url(#SVGID_00000044869865586118625990000016145192140098022589_);}
	.st39{fill:url(#SVGID_00000100371737246980862660000016089169951072106114_);}
	.st40{opacity:0.5;fill:url(#SVGID_00000089558087676139720110000009264027566048674212_);enable-background:new    ;}
	.st41{fill:#B2B2B2;}
	.st42{fill:#EDEDED;}
	.st43{fill:#777777;}
	.st44{fill:#AEAEAF;}
	.st45{fill:url(#SVGID_00000092436595045041843200000017197113925992035248_);}
	.st46{fill:url(#SVGID_00000014593416729308468470000010102508284307326395_);}
	.st47{fill:#6B6B6B;}
</style>
<g>
	<defs>
		<path id="SVGID_1_" d="M177.8,182.6h-5.6c0-0.1,0-0.1,0-0.2c-3.2-3.8-6.2-7.6-9.4-11.4c-46.6,0-93.3,0-140,0
			c-2.9,3.9-5.9,7.7-8.8,11.6c0,2.6,0,5,0,7.6l0,0c0,8.2,0,16.3,0,24.5v8.2v66.3l0,0c0,1.4,0,2.8,0,4.2l0,0c0,2.9,0,6,0,8.9
			c2.9,3.4,5.9,6.8,8.8,10.3c46.6,0,93.3,0,140,0l9.3-10.5h5.9h9.2V182.6L177.8,182.6L177.8,182.6z"/>
	</defs>
	<clipPath id="SVGID_00000164491474936445841690000016982916376708372904_">
		<use xlink:href="#SVGID_1_"  style="overflow:visible;"/>
	</clipPath>
	
		<g transform="matrix(1 0 0 1 0 -7.629395e-06)" style="clip-path:url(#SVGID_00000164491474936445841690000016982916376708372904_);">
		
			<image style="overflow:visible;" width="600" height="600" xlink:href="../../background.jpg"  transform="matrix(0.3542 0 0 0.3542 -9.8505 123.9276)">
		</image>
	</g>
	<use xlink:href="#SVGID_1_"  style="overflow:visible;fill:none;stroke:#BFBFBF;stroke-miterlimit:10;"/>
</g>
<g>
	<g>
		<polygon class="st0" points="26.9,189.2 30.8,196.7 25.8,290.3 21.3,297.3 		"/>
		
			<linearGradient id="SVGID_00000101805709740560434390000004163465086072276662_" gradientUnits="userSpaceOnUse" x1="-6705.7129" y1="1389.858" x2="-6705.7129" y2="1287.8378" gradientTransform="matrix(-1 0 0 1.06 -6681.6299 -1189.9232)">
			<stop  offset="0" style="stop-color:#666666"/>
			<stop  offset="0.1704" style="stop-color:#808080"/>
			<stop  offset="0.2431" style="stop-color:#666769"/>
			<stop  offset="0.4162" style="stop-color:#BCBEC0"/>
			<stop  offset="0.4665" style="stop-color:#808285"/>
			<stop  offset="0.5726" style="stop-color:#E3E4E5"/>
			<stop  offset="0.6899" style="stop-color:#939598"/>
			<stop  offset="1" style="stop-color:#58595B"/>
		</linearGradient>
		<polygon style="fill:url(#SVGID_00000101805709740560434390000004163465086072276662_);" points="22.4,196.1 26.9,189.2 
			21.3,297.3 		"/>
		<path class="st0" d="M35.2,189.1c1.3,2.6,2.6,5,3.9,7.6l-4.9,93.6l-4.6,7C31.5,261.3,33.4,225.1,35.2,189.1z"/>
		
			<linearGradient id="SVGID_00000008140351035086923170000016625997990976567223_" gradientUnits="userSpaceOnUse" x1="-6712.1123" y1="1389.858" x2="-6712.1123" y2="1287.7271" gradientTransform="matrix(-1 0 0 1.06 -6681.6299 -1189.9232)">
			<stop  offset="0" style="stop-color:#666666"/>
			<stop  offset="0.1704" style="stop-color:#808080"/>
			<stop  offset="0.2431" style="stop-color:#666769"/>
			<stop  offset="0.4162" style="stop-color:#BCBEC0"/>
			<stop  offset="0.4665" style="stop-color:#808285"/>
			<stop  offset="0.5726" style="stop-color:#E3E4E5"/>
			<stop  offset="0.6899" style="stop-color:#939598"/>
			<stop  offset="1" style="stop-color:#58595B"/>
		</linearGradient>
		<path style="fill:url(#SVGID_00000008140351035086923170000016625997990976567223_);" d="M25.7,290.3c1.6-31.2,3.3-62.5,4.9-93.7
			c1.5-2.5,3.1-4.9,4.6-7.5l-5.6,108.3C28.3,295,27,292.6,25.7,290.3z"/>
		<path class="st0" d="M43.6,189.1c1.3,2.6,2.7,5,4,7.6l-5,93.6l-4.6,7C39.8,261.3,41.7,225.1,43.6,189.1z"/>
		
			<linearGradient id="SVGID_00000090984992582037643280000011071117417760374437_" gradientUnits="userSpaceOnUse" x1="-6720.4487" y1="1389.858" x2="-6720.4487" y2="1287.7271" gradientTransform="matrix(-1 0 0 1.06 -6681.6299 -1189.9232)">
			<stop  offset="0" style="stop-color:#666666"/>
			<stop  offset="0.1704" style="stop-color:#808080"/>
			<stop  offset="0.2431" style="stop-color:#666769"/>
			<stop  offset="0.4162" style="stop-color:#BCBEC0"/>
			<stop  offset="0.4665" style="stop-color:#808285"/>
			<stop  offset="0.5726" style="stop-color:#E3E4E5"/>
			<stop  offset="0.6899" style="stop-color:#939598"/>
			<stop  offset="1" style="stop-color:#58595B"/>
		</linearGradient>
		<path style="fill:url(#SVGID_00000090984992582037643280000011071117417760374437_);" d="M34.1,290.3c1.6-31.2,3.3-62.5,4.9-93.7
			c1.5-2.5,3.1-4.9,4.6-7.5l-5.6,108.3C36.6,295,35.4,292.6,34.1,290.3z"/>
		<path class="st0" d="M51.9,189.1c1.3,2.6,2.7,5,4,7.6L51,290.3l-4.7,7C48.2,261.3,50,225.1,51.9,189.1z"/>
		
			<linearGradient id="SVGID_00000165220195523489566410000015507241203215680153_" gradientUnits="userSpaceOnUse" x1="-6728.7856" y1="1389.858" x2="-6728.7856" y2="1287.7271" gradientTransform="matrix(-1 0 0 1.06 -6681.6299 -1189.9232)">
			<stop  offset="0" style="stop-color:#666666"/>
			<stop  offset="0.1704" style="stop-color:#808080"/>
			<stop  offset="0.2431" style="stop-color:#666769"/>
			<stop  offset="0.4162" style="stop-color:#BCBEC0"/>
			<stop  offset="0.4665" style="stop-color:#808285"/>
			<stop  offset="0.5726" style="stop-color:#E3E4E5"/>
			<stop  offset="0.6899" style="stop-color:#939598"/>
			<stop  offset="1" style="stop-color:#58595B"/>
		</linearGradient>
		<path style="fill:url(#SVGID_00000165220195523489566410000015507241203215680153_);" d="M42.4,290.3c1.6-31.2,3.3-62.5,4.9-93.7
			c1.5-2.5,3.1-4.9,4.6-7.5l-5.6,108.3C45,295,43.8,292.6,42.4,290.3z"/>
		<path class="st0" d="M60.4,189.1c1.3,2.6,2.6,5,3.9,7.6l-4.9,93.6l-4.6,7C56.6,261.3,58.5,225.1,60.4,189.1z"/>
		
			<linearGradient id="SVGID_00000086671874525855457830000006341257880872877705_" gradientUnits="userSpaceOnUse" x1="-6737.2397" y1="1389.858" x2="-6737.2397" y2="1287.7271" gradientTransform="matrix(-1 0 0 1.06 -6681.6299 -1189.9232)">
			<stop  offset="0" style="stop-color:#666666"/>
			<stop  offset="0.1704" style="stop-color:#808080"/>
			<stop  offset="0.2431" style="stop-color:#666769"/>
			<stop  offset="0.4162" style="stop-color:#BCBEC0"/>
			<stop  offset="0.4665" style="stop-color:#808285"/>
			<stop  offset="0.5726" style="stop-color:#E3E4E5"/>
			<stop  offset="0.6899" style="stop-color:#939598"/>
			<stop  offset="1" style="stop-color:#58595B"/>
		</linearGradient>
		<path style="fill:url(#SVGID_00000086671874525855457830000006341257880872877705_);" d="M50.9,290.3c1.6-31.2,3.3-62.5,4.9-93.7
			c1.5-2.5,3.1-4.9,4.6-7.5l-5.6,108.3C53.4,295,52.3,292.6,50.9,290.3z"/>
		<path class="st0" d="M68.7,189.1c1.3,2.6,2.6,5,3.9,7.6l-4.9,93.6l-4.6,7C64.9,261.3,66.8,225.1,68.7,189.1z"/>
		
			<linearGradient id="SVGID_00000060015698751282170770000008079508896433779888_" gradientUnits="userSpaceOnUse" x1="-6745.5762" y1="1389.858" x2="-6745.5762" y2="1287.7271" gradientTransform="matrix(-1 0 0 1.06 -6681.6299 -1189.9232)">
			<stop  offset="0" style="stop-color:#666666"/>
			<stop  offset="0.1704" style="stop-color:#808080"/>
			<stop  offset="0.2431" style="stop-color:#666769"/>
			<stop  offset="0.4162" style="stop-color:#BCBEC0"/>
			<stop  offset="0.4665" style="stop-color:#808285"/>
			<stop  offset="0.5726" style="stop-color:#E3E4E5"/>
			<stop  offset="0.6899" style="stop-color:#939598"/>
			<stop  offset="1" style="stop-color:#58595B"/>
		</linearGradient>
		<path style="fill:url(#SVGID_00000060015698751282170770000008079508896433779888_);" d="M59.2,290.3c1.6-31.2,3.3-62.5,4.9-93.7
			c1.5-2.5,3.1-4.9,4.6-7.5l-5.6,108.3C61.8,295,60.6,292.6,59.2,290.3z"/>
		<path class="st0" d="M77,189.1c1.3,2.6,2.7,5,4,7.6l-5,93.6l-4.6,7C73.3,261.3,75.2,225.1,77,189.1z"/>
		
			<linearGradient id="SVGID_00000133527317747024194900000004469197856366734754_" gradientUnits="userSpaceOnUse" x1="-6753.9131" y1="1389.858" x2="-6753.9131" y2="1287.7271" gradientTransform="matrix(-1 0 0 1.06 -6681.6299 -1189.9232)">
			<stop  offset="0" style="stop-color:#666666"/>
			<stop  offset="0.1704" style="stop-color:#808080"/>
			<stop  offset="0.2431" style="stop-color:#666769"/>
			<stop  offset="0.4162" style="stop-color:#BCBEC0"/>
			<stop  offset="0.4665" style="stop-color:#808285"/>
			<stop  offset="0.5726" style="stop-color:#E3E4E5"/>
			<stop  offset="0.6899" style="stop-color:#939598"/>
			<stop  offset="1" style="stop-color:#58595B"/>
		</linearGradient>
		<path style="fill:url(#SVGID_00000133527317747024194900000004469197856366734754_);" d="M67.5,290.3c1.6-31.2,3.3-62.5,4.9-93.7
			c1.5-2.5,3.1-4.9,4.6-7.5l-5.6,108.3C70.1,295,68.9,292.6,67.5,290.3z"/>
		<path class="st0" d="M85.5,189.1c1.3,2.6,2.6,5,3.9,7.6l-4.9,93.6l-4.6,7C81.7,261.3,83.6,225.1,85.5,189.1z"/>
		
			<linearGradient id="SVGID_00000018212071928223065110000001546369115287541670_" gradientUnits="userSpaceOnUse" x1="-6762.3672" y1="1389.858" x2="-6762.3672" y2="1287.7271" gradientTransform="matrix(-1 0 0 1.06 -6681.6299 -1189.9232)">
			<stop  offset="0" style="stop-color:#666666"/>
			<stop  offset="0.1704" style="stop-color:#808080"/>
			<stop  offset="0.2431" style="stop-color:#666769"/>
			<stop  offset="0.4162" style="stop-color:#BCBEC0"/>
			<stop  offset="0.4665" style="stop-color:#808285"/>
			<stop  offset="0.5726" style="stop-color:#E3E4E5"/>
			<stop  offset="0.6899" style="stop-color:#939598"/>
			<stop  offset="1" style="stop-color:#58595B"/>
		</linearGradient>
		<path style="fill:url(#SVGID_00000018212071928223065110000001546369115287541670_);" d="M76,290.3c1.6-31.2,3.3-62.5,4.9-93.7
			c1.5-2.5,3.1-4.9,4.6-7.5l-5.6,108.3C78.6,295,77.3,292.6,76,290.3z"/>
		<path class="st0" d="M93.8,189.1c1.3,2.6,2.6,5,3.9,7.6l-4.9,93.6l-4.6,7C90.1,261.3,92,225.1,93.8,189.1z"/>
		
			<linearGradient id="SVGID_00000020367803098844677320000014976431367828943269_" gradientUnits="userSpaceOnUse" x1="-6770.7036" y1="1389.858" x2="-6770.7036" y2="1287.7271" gradientTransform="matrix(-1 0 0 1.06 -6681.6299 -1189.9232)">
			<stop  offset="0" style="stop-color:#666666"/>
			<stop  offset="0.1704" style="stop-color:#808080"/>
			<stop  offset="0.2431" style="stop-color:#666769"/>
			<stop  offset="0.4162" style="stop-color:#BCBEC0"/>
			<stop  offset="0.4665" style="stop-color:#808285"/>
			<stop  offset="0.5726" style="stop-color:#E3E4E5"/>
			<stop  offset="0.6899" style="stop-color:#939598"/>
			<stop  offset="1" style="stop-color:#58595B"/>
		</linearGradient>
		<path style="fill:url(#SVGID_00000020367803098844677320000014976431367828943269_);" d="M84.3,290.3c1.6-31.2,3.3-62.5,4.9-93.7
			c1.5-2.5,3.1-4.9,4.6-7.5l-5.6,108.3C86.9,295,85.7,292.6,84.3,290.3z"/>
		<path class="st0" d="M102.2,189.1c1.3,2.6,2.6,5,3.9,7.6l-4.9,93.6l-4.6,7C98.4,261.3,100.3,225.1,102.2,189.1z"/>
		
			<linearGradient id="SVGID_00000095323796460121683680000015058920526718347910_" gradientUnits="userSpaceOnUse" x1="-6779.04" y1="1389.858" x2="-6779.04" y2="1287.7271" gradientTransform="matrix(-1 0 0 1.06 -6681.6299 -1189.9232)">
			<stop  offset="0" style="stop-color:#666666"/>
			<stop  offset="0.1704" style="stop-color:#808080"/>
			<stop  offset="0.2431" style="stop-color:#666769"/>
			<stop  offset="0.4162" style="stop-color:#BCBEC0"/>
			<stop  offset="0.4665" style="stop-color:#808285"/>
			<stop  offset="0.5726" style="stop-color:#E3E4E5"/>
			<stop  offset="0.6899" style="stop-color:#939598"/>
			<stop  offset="1" style="stop-color:#58595B"/>
		</linearGradient>
		<path style="fill:url(#SVGID_00000095323796460121683680000015058920526718347910_);" d="M92.7,290.3c1.6-31.2,3.3-62.5,4.9-93.7
			c1.5-2.5,3.1-4.9,4.6-7.5l-5.6,108.3C95.2,295,94.1,292.6,92.7,290.3z"/>
		<path class="st0" d="M110.5,189.1c1.3,2.6,2.7,5,4,7.6l-4.9,93.6l-4.7,7C106.7,261.3,108.6,225.1,110.5,189.1z"/>
		
			<linearGradient id="SVGID_00000047024237175208133870000007084579984286440871_" gradientUnits="userSpaceOnUse" x1="-6787.377" y1="1389.858" x2="-6787.377" y2="1287.7271" gradientTransform="matrix(-1 0 0 1.06 -6681.6299 -1189.9232)">
			<stop  offset="0" style="stop-color:#666666"/>
			<stop  offset="0.1704" style="stop-color:#808080"/>
			<stop  offset="0.2431" style="stop-color:#666769"/>
			<stop  offset="0.4162" style="stop-color:#BCBEC0"/>
			<stop  offset="0.4665" style="stop-color:#808285"/>
			<stop  offset="0.5726" style="stop-color:#E3E4E5"/>
			<stop  offset="0.6899" style="stop-color:#939598"/>
			<stop  offset="1" style="stop-color:#58595B"/>
		</linearGradient>
		<path style="fill:url(#SVGID_00000047024237175208133870000007084579984286440871_);" d="M101,290.3c1.6-31.2,3.3-62.5,4.9-93.7
			c1.5-2.5,3.1-4.9,4.6-7.5l-5.6,108.3C103.6,295,102.4,292.6,101,290.3z"/>
	</g>
	<g class="st12">
		
			<linearGradient id="SVGID_00000087391574416333942910000005440645577020639153_" gradientUnits="userSpaceOnUse" x1="30.7172" y1="78.6227" x2="21.2064" y2="78.6227" gradientTransform="matrix(1 0 0 -1 0 322)">
			<stop  offset="0" style="stop-color:#D6D5D5"/>
			<stop  offset="0.5251" style="stop-color:#D7D6D6;stop-opacity:0"/>
			<stop  offset="1" style="stop-color:#F1F1F1;stop-opacity:0.8"/>
		</linearGradient>
		<polygon style="fill:url(#SVGID_00000087391574416333942910000005440645577020639153_);" points="26.8,189.3 30.7,196.8 
			25.7,290.4 21.1,297.4 		"/>
		
			<linearGradient id="SVGID_00000057830433847096633200000015990327186218902163_" gradientUnits="userSpaceOnUse" x1="-6707.7422" y1="1352.1704" x2="-6702.1064" y2="1352.1704" gradientTransform="matrix(-1 0 0 1.06 -6681.6299 -1189.9232)">
			<stop  offset="0" style="stop-color:#D6D5D5"/>
			<stop  offset="0.5251" style="stop-color:#D7D6D6;stop-opacity:0"/>
			<stop  offset="1" style="stop-color:#F1F1F1;stop-opacity:0.8"/>
		</linearGradient>
		<polygon style="fill:url(#SVGID_00000057830433847096633200000015990327186218902163_);" points="22.3,196.4 26.8,189.3 
			21.1,297.4 		"/>
		
			<linearGradient id="SVGID_00000075137638968174567540000018143594442308115643_" gradientUnits="userSpaceOnUse" x1="39.0539" y1="78.6227" x2="29.5431" y2="78.6227" gradientTransform="matrix(1 0 0 -1 0 322)">
			<stop  offset="0" style="stop-color:#D6D5D5"/>
			<stop  offset="0.5251" style="stop-color:#D7D6D6;stop-opacity:0"/>
			<stop  offset="1" style="stop-color:#F1F1F1;stop-opacity:0.8"/>
		</linearGradient>
		<path style="fill:url(#SVGID_00000075137638968174567540000018143594442308115643_);" d="M35.1,189.3c1.3,2.6,2.6,5,3.9,7.6
			l-4.9,93.5l-4.6,7C31.4,261.4,33.2,225.4,35.1,189.3z"/>
		
			<linearGradient id="SVGID_00000178184545202039108900000012186290671261574278_" gradientUnits="userSpaceOnUse" x1="-6715.5786" y1="1352.115" x2="-6706.0679" y2="1352.115" gradientTransform="matrix(-1 0 0 1.06 -6681.6299 -1189.9232)">
			<stop  offset="0" style="stop-color:#D6D5D5"/>
			<stop  offset="0.5251" style="stop-color:#D7D6D6;stop-opacity:0"/>
			<stop  offset="1" style="stop-color:#F1F1F1;stop-opacity:0.8"/>
		</linearGradient>
		<path style="fill:url(#SVGID_00000178184545202039108900000012186290671261574278_);" d="M25.6,290.4c1.6-31.2,3.3-62.5,4.9-93.7
			c1.5-2.5,3.1-4.9,4.6-7.5l-5.6,108.3C28.2,295.1,26.9,292.8,25.6,290.4z"/>
		
			<linearGradient id="SVGID_00000121976041815896256130000010863435928069617310_" gradientUnits="userSpaceOnUse" x1="47.5079" y1="78.6227" x2="37.8797" y2="78.6227" gradientTransform="matrix(1 0 0 -1 0 322)">
			<stop  offset="0" style="stop-color:#D6D5D5"/>
			<stop  offset="0.5251" style="stop-color:#D7D6D6;stop-opacity:0"/>
			<stop  offset="1" style="stop-color:#F1F1F1;stop-opacity:0.8"/>
		</linearGradient>
		<path style="fill:url(#SVGID_00000121976041815896256130000010863435928069617310_);" d="M43.5,189.3c1.3,2.6,2.7,5,4,7.6l-5,93.5
			l-4.6,7C39.7,261.4,41.6,225.4,43.5,189.3z"/>
		
			<linearGradient id="SVGID_00000131361185931562348950000017062003878918047678_" gradientUnits="userSpaceOnUse" x1="-6723.9155" y1="1352.115" x2="-6714.4048" y2="1352.115" gradientTransform="matrix(-1 0 0 1.06 -6681.6299 -1189.9232)">
			<stop  offset="0" style="stop-color:#D6D5D5"/>
			<stop  offset="0.5251" style="stop-color:#D7D6D6;stop-opacity:0"/>
			<stop  offset="1" style="stop-color:#F1F1F1;stop-opacity:0.8"/>
		</linearGradient>
		<path style="fill:url(#SVGID_00000131361185931562348950000017062003878918047678_);" d="M34.1,290.4c1.6-31.2,3.3-62.5,4.9-93.7
			c1.5-2.5,3.1-4.9,4.6-7.5l-5.8,108.3C36.5,295.1,35.2,292.8,34.1,290.4z"/>
		
			<linearGradient id="SVGID_00000139996048557057644730000005832787069989368742_" gradientUnits="userSpaceOnUse" x1="55.8446" y1="78.6227" x2="46.2163" y2="78.6227" gradientTransform="matrix(1 0 0 -1 0 322)">
			<stop  offset="0" style="stop-color:#D6D5D5"/>
			<stop  offset="0.5251" style="stop-color:#D7D6D6;stop-opacity:0"/>
			<stop  offset="1" style="stop-color:#F1F1F1;stop-opacity:0.8"/>
		</linearGradient>
		<path style="fill:url(#SVGID_00000139996048557057644730000005832787069989368742_);" d="M51.8,189.3c1.3,2.6,2.7,5,4,7.6
			l-4.9,93.5l-4.7,7C48,261.4,49.9,225.4,51.8,189.3z"/>
		
			<linearGradient id="SVGID_00000033335473359695791880000007190886161928702649_" gradientUnits="userSpaceOnUse" x1="-6732.252" y1="1352.115" x2="-6722.7412" y2="1352.115" gradientTransform="matrix(-1 0 0 1.06 -6681.6299 -1189.9232)">
			<stop  offset="0" style="stop-color:#D6D5D5"/>
			<stop  offset="0.5251" style="stop-color:#D7D6D6;stop-opacity:0"/>
			<stop  offset="1" style="stop-color:#F1F1F1;stop-opacity:0.8"/>
		</linearGradient>
		<path style="fill:url(#SVGID_00000033335473359695791880000007190886161928702649_);" d="M42.4,290.4c1.6-31.2,3.3-62.5,4.9-93.7
			c1.5-2.5,3.1-4.9,4.6-7.5l-5.8,108.3C44.9,295.1,43.7,292.8,42.4,290.4z"/>
		
			<linearGradient id="SVGID_00000041287437375111015310000015714096660408013445_" gradientUnits="userSpaceOnUse" x1="64.1812" y1="78.6227" x2="54.6704" y2="78.6227" gradientTransform="matrix(1 0 0 -1 0 322)">
			<stop  offset="0" style="stop-color:#D6D5D5"/>
			<stop  offset="0.5251" style="stop-color:#D7D6D6;stop-opacity:0"/>
			<stop  offset="1" style="stop-color:#F1F1F1;stop-opacity:0.8"/>
		</linearGradient>
		<path style="fill:url(#SVGID_00000041287437375111015310000015714096660408013445_);" d="M60.2,189.3c1.3,2.6,2.6,5,3.9,7.6
			l-4.9,93.5l-4.6,7C56.5,261.4,58.4,225.4,60.2,189.3z"/>
		
			<linearGradient id="SVGID_00000091699206637361743760000009238522398446301364_" gradientUnits="userSpaceOnUse" x1="-6740.7061" y1="1352.115" x2="-6731.1948" y2="1352.115" gradientTransform="matrix(-1 0 0 1.06 -6681.6299 -1189.9232)">
			<stop  offset="0" style="stop-color:#D6D5D5"/>
			<stop  offset="0.5251" style="stop-color:#D7D6D6;stop-opacity:0"/>
			<stop  offset="1" style="stop-color:#F1F1F1;stop-opacity:0.8"/>
		</linearGradient>
		<path style="fill:url(#SVGID_00000091699206637361743760000009238522398446301364_);" d="M50.7,290.4c1.6-31.2,3.3-62.5,4.9-93.7
			c1.5-2.5,3.1-4.9,4.6-7.5l-5.6,108.3C53.3,295.1,52.1,292.8,50.7,290.4z"/>
		
			<linearGradient id="SVGID_00000022530098848904507120000014833561938545943480_" gradientUnits="userSpaceOnUse" x1="72.5179" y1="78.6227" x2="63.007" y2="78.6227" gradientTransform="matrix(1 0 0 -1 0 322)">
			<stop  offset="0" style="stop-color:#D6D5D5"/>
			<stop  offset="0.5251" style="stop-color:#D7D6D6;stop-opacity:0"/>
			<stop  offset="1" style="stop-color:#F1F1F1;stop-opacity:0.8"/>
		</linearGradient>
		<path style="fill:url(#SVGID_00000022530098848904507120000014833561938545943480_);" d="M68.6,189.3c1.3,2.6,2.6,5,3.9,7.6
			l-4.9,93.5l-4.6,7C64.8,261.4,66.7,225.4,68.6,189.3z"/>
		
			<linearGradient id="SVGID_00000057116273172045759780000012417694750980591290_" gradientUnits="userSpaceOnUse" x1="-6749.0425" y1="1352.115" x2="-6739.5317" y2="1352.115" gradientTransform="matrix(-1 0 0 1.06 -6681.6299 -1189.9232)">
			<stop  offset="0" style="stop-color:#D6D5D5"/>
			<stop  offset="0.5251" style="stop-color:#D7D6D6;stop-opacity:0"/>
			<stop  offset="1" style="stop-color:#F1F1F1;stop-opacity:0.8"/>
		</linearGradient>
		<path style="fill:url(#SVGID_00000057116273172045759780000012417694750980591290_);" d="M59.1,290.4c1.6-31.2,3.3-62.5,4.9-93.7
			c1.5-2.5,3.1-4.9,4.6-7.5l-5.6,108.3C61.7,295.1,60.5,292.8,59.1,290.4z"/>
		
			<linearGradient id="SVGID_00000143575589481059770190000014700579154118700427_" gradientUnits="userSpaceOnUse" x1="80.9719" y1="78.6227" x2="71.3437" y2="78.6227" gradientTransform="matrix(1 0 0 -1 0 322)">
			<stop  offset="0" style="stop-color:#D6D5D5"/>
			<stop  offset="0.5251" style="stop-color:#D7D6D6;stop-opacity:0"/>
			<stop  offset="1" style="stop-color:#F1F1F1;stop-opacity:0.8"/>
		</linearGradient>
		<path style="fill:url(#SVGID_00000143575589481059770190000014700579154118700427_);" d="M76.9,189.3c1.3,2.6,2.7,5,4,7.6l-5,93.5
			l-4.6,7C73.2,261.4,75,225.4,76.9,189.3z"/>
		
			<linearGradient id="SVGID_00000082343120178946018220000017298615214564394913_" gradientUnits="userSpaceOnUse" x1="-6757.3794" y1="1352.115" x2="-6747.8687" y2="1352.115" gradientTransform="matrix(-1 0 0 1.06 -6681.6299 -1189.9232)">
			<stop  offset="0" style="stop-color:#D6D5D5"/>
			<stop  offset="0.5251" style="stop-color:#D7D6D6;stop-opacity:0"/>
			<stop  offset="1" style="stop-color:#F1F1F1;stop-opacity:0.8"/>
		</linearGradient>
		<path style="fill:url(#SVGID_00000082343120178946018220000017298615214564394913_);" d="M67.4,290.4c1.6-31.2,3.3-62.5,4.9-93.7
			c1.5-2.5,3.1-4.9,4.6-7.5l-5.6,108.3C70,295.1,68.8,292.8,67.4,290.4z"/>
		
			<linearGradient id="SVGID_00000118392765009634381970000018390113666530800040_" gradientUnits="userSpaceOnUse" x1="89.3086" y1="78.6227" x2="79.7977" y2="78.6227" gradientTransform="matrix(1 0 0 -1 0 322)">
			<stop  offset="0" style="stop-color:#D6D5D5"/>
			<stop  offset="0.5251" style="stop-color:#D7D6D6;stop-opacity:0"/>
			<stop  offset="1" style="stop-color:#F1F1F1;stop-opacity:0.8"/>
		</linearGradient>
		<path style="fill:url(#SVGID_00000118392765009634381970000018390113666530800040_);" d="M85.4,189.3c1.3,2.6,2.6,5,3.9,7.6
			l-4.9,93.5l-4.6,7C81.6,261.4,83.5,225.4,85.4,189.3z"/>
		
			<linearGradient id="SVGID_00000003805657737043489700000009314809518464903102_" gradientUnits="userSpaceOnUse" x1="-6765.833" y1="1352.115" x2="-6756.3223" y2="1352.115" gradientTransform="matrix(-1 0 0 1.06 -6681.6299 -1189.9232)">
			<stop  offset="0" style="stop-color:#D6D5D5"/>
			<stop  offset="0.5251" style="stop-color:#D7D6D6;stop-opacity:0"/>
			<stop  offset="1" style="stop-color:#F1F1F1;stop-opacity:0.8"/>
		</linearGradient>
		<path style="fill:url(#SVGID_00000003805657737043489700000009314809518464903102_);" d="M75.9,290.4c1.6-31.2,3.3-62.5,4.9-93.7
			c1.5-2.5,3.1-4.9,4.6-7.5l-5.6,108.3C78.4,295.1,77.2,292.8,75.9,290.4z"/>
		
			<linearGradient id="SVGID_00000061470996559655296620000007232795568683648422_" gradientUnits="userSpaceOnUse" x1="97.6452" y1="78.6227" x2="88.1344" y2="78.6227" gradientTransform="matrix(1 0 0 -1 0 322)">
			<stop  offset="0" style="stop-color:#D6D5D5"/>
			<stop  offset="0.5251" style="stop-color:#D7D6D6;stop-opacity:0"/>
			<stop  offset="1" style="stop-color:#F1F1F1;stop-opacity:0.8"/>
		</linearGradient>
		<path style="fill:url(#SVGID_00000061470996559655296620000007232795568683648422_);" d="M93.8,189.3c1.3,2.6,2.6,5,3.9,7.6
			l-4.9,93.5l-4.6,7C90,261.4,92,225.4,93.8,189.3z"/>
		
			<linearGradient id="SVGID_00000166643343618324972200000013258671427902977932_" gradientUnits="userSpaceOnUse" x1="-6774.1699" y1="1352.115" x2="-6764.6592" y2="1352.115" gradientTransform="matrix(-1 0 0 1.06 -6681.6299 -1189.9232)">
			<stop  offset="0" style="stop-color:#D6D5D5"/>
			<stop  offset="0.5251" style="stop-color:#D7D6D6;stop-opacity:0"/>
			<stop  offset="1" style="stop-color:#F1F1F1;stop-opacity:0.8"/>
		</linearGradient>
		<path style="fill:url(#SVGID_00000166643343618324972200000013258671427902977932_);" d="M84.2,290.4c1.6-31.2,3.3-62.5,4.9-93.7
			c1.5-2.5,3.1-4.9,4.6-7.5l-5.6,108.3C86.9,295.1,85.6,292.8,84.2,290.4z"/>
		
			<linearGradient id="SVGID_00000055696229342739673870000009471686800567617921_" gradientUnits="userSpaceOnUse" x1="105.9818" y1="78.6227" x2="96.471" y2="78.6227" gradientTransform="matrix(1 0 0 -1 0 322)">
			<stop  offset="0" style="stop-color:#D6D5D5"/>
			<stop  offset="0.5251" style="stop-color:#D7D6D6;stop-opacity:0"/>
			<stop  offset="1" style="stop-color:#F1F1F1;stop-opacity:0.8"/>
		</linearGradient>
		<path style="fill:url(#SVGID_00000055696229342739673870000009471686800567617921_);" d="M102.2,189.3c1.3,2.6,2.6,5,3.9,7.6
			l-5,93.5l-4.6,7C98.3,261.4,100.3,225.4,102.2,189.3z"/>
		
			<linearGradient id="SVGID_00000059991717932100083300000009066344566048552628_" gradientUnits="userSpaceOnUse" x1="-6782.5063" y1="1352.115" x2="-6772.9956" y2="1352.115" gradientTransform="matrix(-1 0 0 1.06 -6681.6299 -1189.9232)">
			<stop  offset="0" style="stop-color:#D6D5D5"/>
			<stop  offset="0.5251" style="stop-color:#D7D6D6;stop-opacity:0"/>
			<stop  offset="1" style="stop-color:#F1F1F1;stop-opacity:0.8"/>
		</linearGradient>
		<path style="fill:url(#SVGID_00000059991717932100083300000009066344566048552628_);" d="M92.7,290.4c1.6-31.2,3.3-62.5,4.9-93.7
			c1.5-2.5,3.1-4.9,4.6-7.5l-5.8,108.3C95.1,295.1,93.9,292.8,92.7,290.4z"/>
		
			<linearGradient id="SVGID_00000076588811116815636240000017270079650913448857_" gradientUnits="userSpaceOnUse" x1="114.4359" y1="78.6227" x2="104.8077" y2="78.6227" gradientTransform="matrix(1 0 0 -1 0 322)">
			<stop  offset="0" style="stop-color:#D6D5D5"/>
			<stop  offset="0.5251" style="stop-color:#D7D6D6;stop-opacity:0"/>
			<stop  offset="1" style="stop-color:#F1F1F1;stop-opacity:0.8"/>
		</linearGradient>
		<path style="fill:url(#SVGID_00000076588811116815636240000017270079650913448857_);" d="M110.4,189.3c1.3,2.6,2.7,5,4,7.6
			l-4.9,93.5l-4.7,7C106.6,261.4,108.6,225.4,110.4,189.3z"/>
		
			<linearGradient id="SVGID_00000122686506315472969640000010448746669964253596_" gradientUnits="userSpaceOnUse" x1="-6790.8433" y1="1352.115" x2="-6781.3325" y2="1352.115" gradientTransform="matrix(-1 0 0 1.06 -6681.6299 -1189.9232)">
			<stop  offset="0" style="stop-color:#D6D5D5"/>
			<stop  offset="0.5251" style="stop-color:#D7D6D6;stop-opacity:0"/>
			<stop  offset="1" style="stop-color:#F1F1F1;stop-opacity:0.8"/>
		</linearGradient>
		<path style="fill:url(#SVGID_00000122686506315472969640000010448746669964253596_);" d="M101,290.4c1.6-31.2,3.3-62.5,4.9-93.7
			c1.5-2.5,3.1-4.9,4.6-7.5l-5.8,108.3C103.5,295.1,102.3,292.8,101,290.4z"/>
	</g>
</g>
<linearGradient id="SVGID_00000026849821435121742380000017000098661036358289_" gradientUnits="userSpaceOnUse" x1="180.3071" y1="1142.2672" x2="180.3071" y2="1066.6504" gradientTransform="matrix(1 0 0 1 0 -861.4409)">
	<stop  offset="0.2849" style="stop-color:#606060"/>
	<stop  offset="0.5139" style="stop-color:#999999"/>
	<stop  offset="0.6613" style="stop-color:#ACACAC"/>
	<stop  offset="0.8464" style="stop-color:#6E6E6F;stop-opacity:0.9913"/>
	<stop  offset="1" style="stop-color:#606060"/>
</linearGradient>
<rect x="173.9" y="205.4" style="fill:url(#SVGID_00000026849821435121742380000017000098661036358289_);" width="12.8" height="75.6"/>
<linearGradient id="SVGID_00000119095126953987306840000010401077661924201662_" gradientUnits="userSpaceOnUse" x1="18.1536" y1="1161.3274" x2="18.1536" y2="1047.5499" gradientTransform="matrix(1 0 0 1 0 -861.4409)">
	<stop  offset="0.2849" style="stop-color:#4D4D4D"/>
	<stop  offset="0.6613" style="stop-color:#ACACAC"/>
	<stop  offset="0.8464" style="stop-color:#6E6E6F;stop-opacity:0.9913"/>
	<stop  offset="1" style="stop-color:#606060"/>
</linearGradient>
<path style="fill:url(#SVGID_00000119095126953987306840000010401077661924201662_);" d="M13.9,186.4c2.8,3.3,5.8,6.6,8.6,9.9
	c-0.4,33.7-0.8,67.5-1.2,101.2c-2.5,0.9-4.9,1.9-7.4,2.8V186.4z"/>
<rect x="131.4" y="171" class="st37" width="5.9" height="141.8"/>
<linearGradient id="SVGID_00000041983790668851451180000010758756273434805663_" gradientUnits="userSpaceOnUse" x1="141.7354" y1="1151.5686" x2="141.7354" y2="1057.7521" gradientTransform="matrix(1 0 0 1 0 -861.4409)">
	<stop  offset="0.2849" style="stop-color:#606060"/>
	<stop  offset="0.5139" style="stop-color:#999999"/>
	<stop  offset="0.6613" style="stop-color:#ACACAC"/>
	<stop  offset="0.8464" style="stop-color:#6E6E6F;stop-opacity:0.9913"/>
	<stop  offset="1" style="stop-color:#606060"/>
</linearGradient>
<path style="fill:url(#SVGID_00000041983790668851451180000010758756273434805663_);" d="M114.5,196.7c0,0,39.6-0.1,59.4-0.2v93.5
	c-21.5,0.1-42.9,0.2-64.3,0.4C111.2,259.1,112.9,227.9,114.5,196.7z"/>
<linearGradient id="SVGID_00000071532711534231075130000009521998891246481552_" gradientUnits="userSpaceOnUse" x1="177.9587" y1="319.012" x2="177.9587" y2="438.8953" gradientTransform="matrix(1 0 0 -1 0 456.8898)">
	<stop  offset="0" style="stop-color:#9F9D9D"/>
	<stop  offset="0.1816" style="stop-color:#808080"/>
	<stop  offset="0.2933" style="stop-color:#9F9D9D"/>
	<stop  offset="0.5447" style="stop-color:#CCCCCC"/>
	<stop  offset="0.6732" style="stop-color:#FFFFFF"/>
	<stop  offset="0.8687" style="stop-color:#E4E3E3"/>
	<stop  offset="1" style="stop-color:#B3B3B3"/>
</linearGradient>
<rect x="169.2" y="18" style="fill:url(#SVGID_00000071532711534231075130000009521998891246481552_);" width="17.5" height="119.9"/>
<linearGradient id="SVGID_00000109723770425062711100000009786791391036203182_" gradientUnits="userSpaceOnUse" x1="-382.0576" y1="-2706.9475" x2="-365.7795" y2="-2706.9475" gradientTransform="matrix(1 0 0 -1 543.2952 -2629.0112)">
	<stop  offset="0" style="stop-color:#3F3B3C"/>
	<stop  offset="1" style="stop-color:#3F3B3C;stop-opacity:0"/>
</linearGradient>
<polygon style="opacity:0.5;fill:url(#SVGID_00000109723770425062711100000009786791391036203182_);enable-background:new    ;" points="
	177.3,18 161,18 161,137.9 177.5,137.9 "/>
<path class="st41" d="M162.4,6.5c3.2,3.8,6.2,7.6,9.4,11.4c0,4.9,0,9.9,0,14.8h-12.9C159.9,23.9,161.2,15.2,162.4,6.5z"/>
<rect x="158.8" y="50.3" class="st42" width="12.9" height="74.6"/>
<rect x="13.6" y="50.3" class="st43" width="12.9" height="74.6"/>
<path class="st44" d="M13.6,18c2.9-3.9,5.9-7.7,8.8-11.6c0,9.9,0,19.6,0,29.5c-2.9,4.9-5.9,9.9-8.8,14.8
	C13.6,39.7,13.6,28.9,13.6,18z"/>
<path class="st43" d="M13.6,107.2C19.7,97.5,25.8,87.7,32,78c-3.2,23.5-6.3,46.8-9.5,70.3c-2.9-3.4-5.9-6.8-8.8-10.3
	C13.6,127.8,13.6,117.6,13.6,107.2z"/>
<linearGradient id="SVGID_00000126287213767629522210000011326415220687289734_" gradientUnits="userSpaceOnUse" x1="92.655" y1="-165.7683" x2="92.655" y2="-94.959" gradientTransform="matrix(1 0 0 -1 0 -88.496)">
	<stop  offset="0" style="stop-color:#E6E6E6"/>
	<stop  offset="0.263" style="stop-color:#E1E1E1"/>
	<stop  offset="0.5724" style="stop-color:#D3D3D3"/>
	<stop  offset="0.904" style="stop-color:#BBBBBB"/>
	<stop  offset="1" style="stop-color:#B3B3B3"/>
</linearGradient>
<path style="fill:url(#SVGID_00000126287213767629522210000011326415220687289734_);" d="M162.8,77.4c1.1-2.3,2.1-4.6,3.3-6.9
	c1.9-4,3.8-8,5.6-12c0-10.9,0-21.8,0-32.8c-0.2-0.5-2.1-4.5-2.3-4.9c-1.8-3.6-2-4.2-2.2-4.8c-1.1-2.1-2.6-5.4-4.7-9.5
	c-46.6,0-93.3,0-140,0c-1.1,2.9-2.3,6.1-3.9,9.4c-1.6,3.6-3.3,6.9-4.9,10c0,10.9,0,21.8,0,32.8c2.9,6.3,5.9,12.6,8.8,18.9
	C69.2,77.4,116,77.4,162.8,77.4z"/>
<linearGradient id="SVGID_00000063604453140512505620000005653048798790070943_" gradientUnits="userSpaceOnUse" x1="92.6549" y1="11.4287" x2="92.6549" y2="82.238" gradientTransform="matrix(1 0 0 1 0 66.056)">
	<stop  offset="0" style="stop-color:#808080"/>
	<stop  offset="1" style="stop-color:#ABABAB"/>
</linearGradient>
<path style="fill:url(#SVGID_00000063604453140512505620000005653048798790070943_);" d="M22.4,77.4c-2.9,6.3-5.9,12.6-8.8,18.9
	c0,10.9,0,21.8,0,32.8c1.6,3.1,3.4,6.3,4.9,10c1.5,3.3,2.7,6.3,3.9,9.4c46.6,0,93.3,0,140,0c2.1-4.2,3.6-7.4,4.7-9.5
	c0.2-0.6,0.6-1.2,2.2-4.8c0.2-0.5,2.1-4.5,2.3-4.9c0-10.9,0-21.8,0-32.8c-1.9-4-3.8-7.9-5.6-12c-1.1-2.3-2.2-4.7-3.3-6.9
	C116,77.4,69.2,77.4,22.4,77.4z"/>
<path class="st47" d="M12.3,134.2"/>
<polygon class="st47" points="171.7,129.1 171.7,137.9 162.4,148.3 "/>
<path class="st47" d="M-149.7,138"/>
<image style="overflow:visible;" width="200" height="200" xlink:href="../../pepsi.png"  transform="matrix(6.017019e-02 0 0 6.017019e-02 172.8448 80.9828)">
</image>
</svg>
