<?xml version="1.0" encoding="utf-8"?>
<!-- Generator: Adobe Illustrator 25.4.1, SVG Export Plug-In . SVG Version: 6.00 Build 0)  -->
<svg version="1.1" id="Слой_1" xmlns="http://www.w3.org/2000/svg" xmlns:xlink="http://www.w3.org/1999/xlink" x="0px" y="0px"
	 viewBox="0 0 200 320" style="enable-background:new 0 0 200 320;" xml:space="preserve">
<style type="text/css">
	.st0{fill:url(#SVGID_1_);}
	.st1{fill:url(#SVGID_00000176019428545929364860000018147077428683605171_);}
	.st2{opacity:0.5;fill:url(#SVGID_00000059288715307822547390000007912358205746783141_);enable-background:new    ;}
	.st3{fill:url(#SVGID_00000139273946197034146060000018129885489797898894_);}
	.st4{fill:url(#SVGID_00000066494500978181450170000014854963446839294355_);}
	.st5{fill:url(#SVGID_00000163753487188193790230000000525507377510201473_);}
	.st6{opacity:0.53;fill:url(#SVGID_00000127010088359072624000000008326026824659110807_);enable-background:new    ;}
	.st7{opacity:0.53;fill:url(#SVGID_00000128480713046260518050000008106002657856996245_);enable-background:new    ;}
	.st8{clip-path:url(#SVGID_00000162327653544074079450000000583857687745983386_);}
	.st9{fill:none;stroke:#B3B3B3;stroke-width:0.5;stroke-miterlimit:10;}
	.st10{fill:url(#SVGID_00000005230787029525368980000002102299067257618870_);}
	.st11{fill:url(#SVGID_00000032607799029645236110000002410367178172195764_);}
	.st12{fill:#606060;}
	.st13{opacity:0.58;fill:url(#SVGID_00000168812710343408492970000006154033211717360307_);enable-background:new    ;}
</style>
<linearGradient id="SVGID_1_" gradientUnits="userSpaceOnUse" x1="118.6171" y1="584.2855" x2="118.6171" y2="538.2673" gradientTransform="matrix(1 0 0 1 0 -488.5511)">
	<stop  offset="0" style="stop-color:#9F9D9D"/>
	<stop  offset="0.1816" style="stop-color:#808080"/>
	<stop  offset="0.2933" style="stop-color:#9F9D9D"/>
	<stop  offset="0.5447" style="stop-color:#CCCCCC"/>
	<stop  offset="0.6732" style="stop-color:#FFFFFF"/>
	<stop  offset="0.8687" style="stop-color:#E4E3E3"/>
	<stop  offset="1" style="stop-color:#B3B3B3"/>
</linearGradient>
<rect x="39.3" y="49.7" class="st0" width="158.6" height="46"/>
<linearGradient id="SVGID_00000139261473070165210310000001253213177400809600_" gradientUnits="userSpaceOnUse" x1="19.2387" y1="590.5786" x2="19.2387" y2="531.9742" gradientTransform="matrix(1 0 0 1 0 -488.5511)">
	<stop  offset="0" style="stop-color:#9F9D9D"/>
	<stop  offset="0.1816" style="stop-color:#808080"/>
	<stop  offset="0.2933" style="stop-color:#9F9D9D"/>
	<stop  offset="0.5447" style="stop-color:#CCCCCC"/>
	<stop  offset="0.6732" style="stop-color:#FFFFFF"/>
	<stop  offset="0.8687" style="stop-color:#E4E3E3"/>
	<stop  offset="1" style="stop-color:#B3B3B3"/>
</linearGradient>
<rect x="9.8" y="43.4" style="fill:url(#SVGID_00000139261473070165210310000001253213177400809600_);" width="18.9" height="58.6"/>
<linearGradient id="SVGID_00000012461032814712770280000000972257652624354447_" gradientUnits="userSpaceOnUse" x1="-508.8645" y1="-2836.6262" x2="-500.4274" y2="-2836.6262" gradientTransform="matrix(1 0 0 -1 543.2952 -2763.9009)">
	<stop  offset="0" style="stop-color:#3F3B3C"/>
	<stop  offset="1" style="stop-color:#3F3B3C;stop-opacity:0"/>
</linearGradient>
<polygon style="opacity:0.5;fill:url(#SVGID_00000012461032814712770280000000972257652624354447_);enable-background:new    ;" points="
	42.7,49.7 34.3,49.7 34.3,95.7 42.8,95.7 "/>
<linearGradient id="SVGID_00000111155800818886944760000017537355181866097056_" gradientUnits="userSpaceOnUse" x1="36.2169" y1="592.9385" x2="36.2169" y2="529.4832" gradientTransform="matrix(1 0 0 1 0 -488.5511)">
	<stop  offset="0" style="stop-color:#9F9D9D"/>
	<stop  offset="0.1816" style="stop-color:#808080"/>
	<stop  offset="0.2933" style="stop-color:#9F9D9D"/>
	<stop  offset="0.5447" style="stop-color:#CCCCCC"/>
	<stop  offset="0.6732" style="stop-color:#FFFFFF"/>
	<stop  offset="0.8687" style="stop-color:#E4E3E3"/>
	<stop  offset="1" style="stop-color:#B3B3B3"/>
</linearGradient>
<rect x="33.1" y="40.9" style="fill:url(#SVGID_00000111155800818886944760000017537355181866097056_);" width="6.2" height="63.5"/>
<linearGradient id="SVGID_00000139295737255132102130000002254065342052237969_" gradientUnits="userSpaceOnUse" x1="6.0626" y1="589.3987" x2="6.0626" y2="533.0097" gradientTransform="matrix(1 0 0 1 0 -488.5511)">
	<stop  offset="0" style="stop-color:#9F9D9D"/>
	<stop  offset="0.1816" style="stop-color:#808080"/>
	<stop  offset="0.2933" style="stop-color:#9F9D9D"/>
	<stop  offset="0.5447" style="stop-color:#CCCCCC"/>
	<stop  offset="0.6732" style="stop-color:#FFFFFF"/>
	<stop  offset="0.8687" style="stop-color:#E4E3E3"/>
	<stop  offset="1" style="stop-color:#B3B3B3"/>
</linearGradient>
<path style="fill:url(#SVGID_00000139295737255132102130000002254065342052237969_);" d="M9.8,100.8c-2.5-2.6-5.1-5.1-7.5-7.6v-41
	c2.5-2.6,5.1-5.1,7.5-7.6C9.8,63.4,9.8,82.1,9.8,100.8z"/>
<linearGradient id="SVGID_00000071528810902054542580000008036374314127939217_" gradientUnits="userSpaceOnUse" x1="30.9071" y1="592.9385" x2="30.9071" y2="529.4832" gradientTransform="matrix(1 0 0 1 0 -488.5511)">
	<stop  offset="0" style="stop-color:#9F9D9D"/>
	<stop  offset="0.1816" style="stop-color:#808080"/>
	<stop  offset="0.2933" style="stop-color:#9F9D9D"/>
	<stop  offset="0.5447" style="stop-color:#CCCCCC"/>
	<stop  offset="0.6732" style="stop-color:#FFFFFF"/>
	<stop  offset="0.8687" style="stop-color:#E4E3E3"/>
	<stop  offset="1" style="stop-color:#B3B3B3"/>
</linearGradient>
<path style="fill:url(#SVGID_00000071528810902054542580000008036374314127939217_);" d="M33.1,104.4c-1.6-0.8-3-1.7-4.5-2.5V43.4
	c1.6-0.8,3-1.7,4.5-2.5C33.1,62.2,33.1,83.3,33.1,104.4z"/>
<linearGradient id="SVGID_00000142883874901841865110000001903839363580998591_" gradientUnits="userSpaceOnUse" x1="9.8181" y1="561.2764" x2="2.2619" y2="561.2764" gradientTransform="matrix(1 0 0 1 0 -488.5511)">
	<stop  offset="0" style="stop-color:#B3B3B3;stop-opacity:0.5"/>
	<stop  offset="1" style="stop-color:#B3B3B3;stop-opacity:0"/>
</linearGradient>
<path style="opacity:0.53;fill:url(#SVGID_00000142883874901841865110000001903839363580998591_);enable-background:new    ;" d="
	M9.8,100.8c-2.5-2.6-5.1-5.1-7.5-7.6v-41c2.5-2.6,5.1-5.1,7.5-7.6C9.8,63.4,9.8,82.1,9.8,100.8z"/>
<linearGradient id="SVGID_00000035508334761498716150000004176231326818265728_" gradientUnits="userSpaceOnUse" x1="33.185" y1="561.2109" x2="28.644" y2="561.2109" gradientTransform="matrix(1 0 0 1 0 -488.5511)">
	<stop  offset="0" style="stop-color:#B3B3B3;stop-opacity:0.5"/>
	<stop  offset="1" style="stop-color:#B3B3B3;stop-opacity:0"/>
</linearGradient>
<path style="opacity:0.53;fill:url(#SVGID_00000035508334761498716150000004176231326818265728_);enable-background:new    ;" d="
	M33.1,104.4c-1.6-0.8-3-1.7-4.5-2.5V43.4c1.6-0.8,3-1.7,4.5-2.5C33.1,62.2,33.1,83.3,33.1,104.4z"/>
<g>
	<g>
		<defs>
			<path id="SVGID_00000180324668878130881520000005040465962566022806_" d="M42.7,217.6h-3.4v-8.8h-6.2c-1.6,0.8-3,1.7-4.5,2.5H9.8
				v1c-2.5,2.6-5,5.1-7.5,7.6v41.2c2.5,2.6,5,5.1,7.5,7.6v1h18.9c1.6,0.8,3,1.7,4.5,2.5h6.2v-8.8h3.5h155.1v-45.9H42.7z"/>
		</defs>
		<clipPath id="SVGID_00000170957084242708951820000013676470773451850132_">
			<use xlink:href="#SVGID_00000180324668878130881520000005040465962566022806_"  style="overflow:visible;"/>
		</clipPath>
		<g style="clip-path:url(#SVGID_00000170957084242708951820000013676470773451850132_);">
			
				<image style="overflow:visible;enable-background:new    ;" width="1200" height="900" xlink:href="../../Фитинги/Резьбовые/Металл.jpg"  transform="matrix(0.2064 0 0 0.2064 -5.9169 108.6993)">
			</image>
		</g>
	</g>
	<g>
		<path id="SVGID_9_" class="st9" d="M42.7,217.6h-3.4v-8.8h-6.2c-1.6,0.8-3,1.7-4.5,2.5H9.8v1c-2.5,2.6-5,5.1-7.5,7.6v41.2
			c2.5,2.6,5,5.1,7.5,7.6v1h18.9c1.6,0.8,3,1.7,4.5,2.5h6.2v-8.8h3.5h155.1v-45.9H42.7z"/>
	</g>
</g>
<linearGradient id="SVGID_00000050640953804250876220000003457834803643866508_" gradientUnits="userSpaceOnUse" x1="78.8919" y1="715.8484" x2="78.8919" y2="742.6687" gradientTransform="matrix(1 0 0 1 0 -488.5511)">
	<stop  offset="0.2849" style="stop-color:#606060"/>
	<stop  offset="0.5139" style="stop-color:#999999"/>
	<stop  offset="0.6613" style="stop-color:#ACACAC"/>
	<stop  offset="0.8464" style="stop-color:#6E6E6F;stop-opacity:0.9913"/>
	<stop  offset="1" style="stop-color:#606060"/>
</linearGradient>
<rect x="16.4" y="227.3" style="fill:url(#SVGID_00000050640953804250876220000003457834803643866508_);" width="125.1" height="26.9"/>
<linearGradient id="SVGID_00000062904823517969474710000005398447588032200341_" gradientUnits="userSpaceOnUse" x1="169.6828" y1="712.833" x2="169.6828" y2="745.7406" gradientTransform="matrix(1 0 0 1 0 -488.5511)">
	<stop  offset="0.2849" style="stop-color:#606060"/>
	<stop  offset="0.5139" style="stop-color:#999999"/>
	<stop  offset="0.6613" style="stop-color:#ACACAC"/>
	<stop  offset="0.8464" style="stop-color:#6E6E6F;stop-opacity:0.9913"/>
	<stop  offset="1" style="stop-color:#606060"/>
</linearGradient>
<rect x="141.4" y="224.3" style="fill:url(#SVGID_00000062904823517969474710000005398447588032200341_);" width="56.5" height="32.9"/>
<path class="st12" d="M16.4,254l-14.3,7.2v-41.2l14.3,7.2C16.4,227.3,16.4,245.1,16.4,254z"/>
<linearGradient id="SVGID_00000082333833304544585480000005116577233048217988_" gradientUnits="userSpaceOnUse" x1="9.2091" y1="708.5903" x2="9.2091" y2="749.8572" gradientTransform="matrix(1 0 0 1 0 -488.5511)">
	<stop  offset="0.2849" style="stop-color:#606060"/>
	<stop  offset="0.5139" style="stop-color:#999999"/>
	<stop  offset="0.6613" style="stop-color:#ACACAC;stop-opacity:0.76"/>
	<stop  offset="0.8464" style="stop-color:#6E6E6F;stop-opacity:0.9913"/>
	<stop  offset="1" style="stop-color:#606060"/>
</linearGradient>
<path style="opacity:0.58;fill:url(#SVGID_00000082333833304544585480000005116577233048217988_);enable-background:new    ;" d="
	M16.4,254l-14.3,7.2v-41.2l14.3,7.2C16.4,236.2,16.4,254,16.4,254z"/>
<image style="overflow:visible;" width="200" height="200" xlink:href="../../pepsi.png"  transform="matrix(0.1071 0 0 0.1071 101.869 61.9495)">
</image>
</svg>
