<?xml version="1.0" encoding="utf-8"?>
<!-- Generator: Adobe Illustrator 25.4.1, SVG Export Plug-In . SVG Version: 6.00 Build 0)  -->
<svg version="1.1" id="Слой_1" xmlns="http://www.w3.org/2000/svg" xmlns:xlink="http://www.w3.org/1999/xlink" x="0px" y="0px"
	 viewBox="0 0 200 320" style="enable-background:new 0 0 200 320;" xml:space="preserve">
<style type="text/css">
	.st0{fill:url(#SVGID_1_);}
	.st1{fill:url(#SVGID_00000083790911322706242560000003919305927440190352_);}
	.st2{opacity:0.5;fill:url(#SVGID_00000022525727679853450490000016202229870179411375_);enable-background:new    ;}
	.st3{fill:url(#SVGID_00000031170410058731342740000012206358448136508841_);}
	.st4{fill:url(#SVGID_00000077295047160083192070000006002422064023059854_);}
	.st5{fill:url(#SVGID_00000048478224634316086490000004065948388291183521_);}
	.st6{opacity:0.53;fill:url(#SVGID_00000103957987388208235030000005101064079179749267_);enable-background:new    ;}
	.st7{opacity:0.53;fill:url(#SVGID_00000075880237663992399190000003958020524800420490_);enable-background:new    ;}
	.st8{clip-path:url(#SVGID_00000090995469765089799760000012391943345705270451_);}
	.st9{fill:none;stroke:#B3B3B3;stroke-width:0.5;stroke-miterlimit:10;}
	.st10{fill:url(#SVGID_00000066502812803878882260000016901152820546611645_);}
	.st11{fill:url(#SVGID_00000044877522856091846750000003919441076050880903_);}
	.st12{fill:#606060;}
	.st13{opacity:0.58;fill:url(#SVGID_00000165944859611982806280000015993134498702004399_);enable-background:new    ;}
</style>
<linearGradient id="SVGID_1_" gradientUnits="userSpaceOnUse" x1="128.5957" y1="-820.9939" x2="128.5957" y2="-750.0189" gradientTransform="matrix(1 0 0 -1 0 -704.5511)">
	<stop  offset="0" style="stop-color:#9F9D9D"/>
	<stop  offset="0.1816" style="stop-color:#808080"/>
	<stop  offset="0.2933" style="stop-color:#9F9D9D"/>
	<stop  offset="0.5447" style="stop-color:#CCCCCC"/>
	<stop  offset="0.6732" style="stop-color:#FFFFFF"/>
	<stop  offset="0.8687" style="stop-color:#E4E3E3"/>
	<stop  offset="1" style="stop-color:#B3B3B3"/>
</linearGradient>
<rect x="60.3" y="45.5" class="st0" width="136.6" height="71"/>
<linearGradient id="SVGID_00000112622822066971597580000008632085853184767397_" gradientUnits="userSpaceOnUse" x1="29.4643" y1="-830.5956" x2="29.4643" y2="-740.4172" gradientTransform="matrix(1 0 0 -1 0 -704.5511)">
	<stop  offset="0" style="stop-color:#9F9D9D"/>
	<stop  offset="0.1816" style="stop-color:#808080"/>
	<stop  offset="0.2933" style="stop-color:#9F9D9D"/>
	<stop  offset="0.5447" style="stop-color:#CCCCCC"/>
	<stop  offset="0.6732" style="stop-color:#FFFFFF"/>
	<stop  offset="0.8687" style="stop-color:#E4E3E3"/>
	<stop  offset="1" style="stop-color:#B3B3B3"/>
</linearGradient>
<rect x="15.1" y="35.9" style="fill:url(#SVGID_00000112622822066971597580000008632085853184767397_);" width="28.7" height="90.2"/>
<linearGradient id="SVGID_00000056411895235169786930000009544129966185214392_" gradientUnits="userSpaceOnUse" x1="-490.601" y1="2640.7537" x2="-477.6352" y2="2640.7537" gradientTransform="matrix(1 0 0 1 543.2952 -2559.7983)">
	<stop  offset="0" style="stop-color:#3F3B3C"/>
	<stop  offset="1" style="stop-color:#3F3B3C;stop-opacity:0"/>
</linearGradient>
<polygon style="opacity:0.5;fill:url(#SVGID_00000056411895235169786930000009544129966185214392_);enable-background:new    ;" points="
	65.5,45.5 52.5,45.5 52.5,116.4 65.7,116.4 "/>
<linearGradient id="SVGID_00000083785685697057547490000013624369426711597206_" gradientUnits="userSpaceOnUse" x1="55.5447" y1="-834.3585" x2="55.5447" y2="-736.6544" gradientTransform="matrix(1 0 0 -1 0 -704.5511)">
	<stop  offset="0" style="stop-color:#9F9D9D"/>
	<stop  offset="0.1816" style="stop-color:#808080"/>
	<stop  offset="0.2933" style="stop-color:#9F9D9D"/>
	<stop  offset="0.5447" style="stop-color:#CCCCCC"/>
	<stop  offset="0.6732" style="stop-color:#FFFFFF"/>
	<stop  offset="0.8687" style="stop-color:#E4E3E3"/>
	<stop  offset="1" style="stop-color:#B3B3B3"/>
</linearGradient>
<rect x="50.8" y="32.1" style="fill:url(#SVGID_00000083785685697057547490000013624369426711597206_);" width="9.5" height="97.7"/>
<linearGradient id="SVGID_00000035531975043415299200000007949805646393199799_" gradientUnits="userSpaceOnUse" x1="9.0931" y1="-829.1683" x2="9.0931" y2="-741.8445" gradientTransform="matrix(1 0 0 -1 0 -704.5511)">
	<stop  offset="0" style="stop-color:#9F9D9D"/>
	<stop  offset="0.1816" style="stop-color:#808080"/>
	<stop  offset="0.2933" style="stop-color:#9F9D9D"/>
	<stop  offset="0.5447" style="stop-color:#CCCCCC"/>
	<stop  offset="0.6732" style="stop-color:#FFFFFF"/>
	<stop  offset="0.8687" style="stop-color:#E4E3E3"/>
	<stop  offset="1" style="stop-color:#B3B3B3"/>
</linearGradient>
<path style="fill:url(#SVGID_00000035531975043415299200000007949805646393199799_);" d="M15.1,124.6c-4-3.9-8-7.9-12.1-11.8V49.1
	c4-3.9,8-7.9,12.1-11.8C15.1,66.4,15.1,95.4,15.1,124.6z"/>
<linearGradient id="SVGID_00000016765817682248486940000004594583196735242942_" gradientUnits="userSpaceOnUse" x1="47.3054" y1="-834.3585" x2="47.3054" y2="-736.6544" gradientTransform="matrix(1 0 0 -1 0 -704.5511)">
	<stop  offset="0" style="stop-color:#9F9D9D"/>
	<stop  offset="0.1816" style="stop-color:#808080"/>
	<stop  offset="0.2933" style="stop-color:#9F9D9D"/>
	<stop  offset="0.5447" style="stop-color:#CCCCCC"/>
	<stop  offset="0.6732" style="stop-color:#FFFFFF"/>
	<stop  offset="0.8687" style="stop-color:#E4E3E3"/>
	<stop  offset="1" style="stop-color:#B3B3B3"/>
</linearGradient>
<path style="fill:url(#SVGID_00000016765817682248486940000004594583196735242942_);" d="M50.8,129.8c-2.3-1.3-4.7-2.5-7-3.8V35.9
	c2.3-1.3,4.7-2.5,7-3.8C50.8,64.7,50.8,97.2,50.8,129.8z"/>
<linearGradient id="SVGID_00000056410458293265029150000003776016684930209158_" gradientUnits="userSpaceOnUse" x1="15.0971" y1="-785.5064" x2="3.0301" y2="-785.5064" gradientTransform="matrix(1 0 0 -1 0 -704.5511)">
	<stop  offset="0" style="stop-color:#B3B3B3;stop-opacity:0.5"/>
	<stop  offset="1" style="stop-color:#B3B3B3;stop-opacity:0"/>
</linearGradient>
<path style="opacity:0.53;fill:url(#SVGID_00000056410458293265029150000003776016684930209158_);enable-background:new    ;" d="
	M15.1,124.6c-4-3.9-8-7.9-12.1-11.8V49.1c4-3.9,8-7.9,12.1-11.8C15.1,66.4,15.1,95.4,15.1,124.6z"/>
<linearGradient id="SVGID_00000129203818730646813380000017737271209895390120_" gradientUnits="userSpaceOnUse" x1="50.7756" y1="-785.5064" x2="43.7973" y2="-785.5064" gradientTransform="matrix(1 0 0 -1 0 -704.5511)">
	<stop  offset="0" style="stop-color:#B3B3B3;stop-opacity:0.5"/>
	<stop  offset="1" style="stop-color:#B3B3B3;stop-opacity:0"/>
</linearGradient>
<path style="opacity:0.53;fill:url(#SVGID_00000129203818730646813380000017737271209895390120_);enable-background:new    ;" d="
	M50.8,129.8c-2.3-1.3-4.7-2.5-7-3.8V35.9c2.3-1.3,4.7-2.5,7-3.8C50.8,64.7,50.8,97.2,50.8,129.8z"/>
<g>
	<g>
		<g>
			<defs>
				<path id="SVGID_00000085232121879409559270000007499581682693312919_" d="M65.5,203.6h-5.2v-13.4h-9.5l0,0
					c-2.3,1.3-4.7,2.5-7,3.8H15.1v1.4c-4,3.9-8,7.9-12.1,11.8v63.7c4,3.9,8,7.9,12.1,11.8v1.4h28.7c2.3,1.3,4.7,2.5,7,3.8h9.5v-13.4
					h5.4h131.2v-71H65.5z"/>
			</defs>
			<clipPath id="SVGID_00000017509741180073959180000008068882036110478480_">
				<use xlink:href="#SVGID_00000085232121879409559270000007499581682693312919_"  style="overflow:visible;"/>
			</clipPath>
			<g style="clip-path:url(#SVGID_00000017509741180073959180000008068882036110478480_);">
				
					<image style="overflow:visible;enable-background:new    ;" width="1200" height="900" xlink:href="../../Фитинги/Резьбовые/Металл.jpg"  transform="matrix(0.2088 0 0 0.2088 -23.8601 102.3498)">
				</image>
			</g>
		</g>
	</g>
	<g>
		<path id="SVGID_9_" class="st9" d="M65.5,203.6h-5.2v-13.4h-9.5l0,0c-2.3,1.3-4.7,2.5-7,3.8H15.1v1.4c-4,3.9-8,7.9-12.1,11.8v63.7
			c4,3.9,8,7.9,12.1,11.8v1.4h28.7c2.3,1.3,4.7,2.5,7,3.8h9.5v-13.4h5.4h131.2v-71H65.5z"/>
	</g>
</g>
<linearGradient id="SVGID_00000059290990617378102590000009033668827853351310_" gradientUnits="userSpaceOnUse" x1="64.4976" y1="-922.2552" x2="64.4976" y2="-964.8143" gradientTransform="matrix(1 0 0 -1 0 -704.5511)">
	<stop  offset="0.2849" style="stop-color:#606060"/>
	<stop  offset="0.5139" style="stop-color:#999999"/>
	<stop  offset="0.6613" style="stop-color:#ACACAC"/>
	<stop  offset="0.8464" style="stop-color:#6E6E6F;stop-opacity:0.9913"/>
	<stop  offset="1" style="stop-color:#606060"/>
</linearGradient>
<rect x="23.4" y="217.8" style="fill:url(#SVGID_00000059290990617378102590000009033668827853351310_);" width="82.1" height="42.6"/>
<linearGradient id="SVGID_00000103252475318367020080000009353340761502721427_" gradientUnits="userSpaceOnUse" x1="151.4322" y1="-917.8399" x2="151.4322" y2="-969.4816" gradientTransform="matrix(1 0 0 -1 0 -704.5511)">
	<stop  offset="0.2849" style="stop-color:#606060"/>
	<stop  offset="0.5139" style="stop-color:#999999"/>
	<stop  offset="0.6613" style="stop-color:#ACACAC"/>
	<stop  offset="0.8464" style="stop-color:#6E6E6F;stop-opacity:0.9913"/>
	<stop  offset="1" style="stop-color:#606060"/>
</linearGradient>
<rect x="105.7" y="213.3" style="fill:url(#SVGID_00000103252475318367020080000009353340761502721427_);" width="91.5" height="51.6"/>
<path class="st12" d="M23.4,260.3c-6.9,3.9-13.6,7.8-20.5,11.7c0-21.9,0-43.9,0-65.8c6.9,3.9,13.6,7.8,20.5,11.7
	C23.4,232,23.4,246.1,23.4,260.3z"/>
<linearGradient id="SVGID_00000036212856359280390830000003280294510114836402_" gradientUnits="userSpaceOnUse" x1="13.1803" y1="-910.7035" x2="13.1803" y2="-976.4883" gradientTransform="matrix(1 0 0 -1 0 -704.5511)">
	<stop  offset="0.2849" style="stop-color:#606060"/>
	<stop  offset="0.5139" style="stop-color:#999999"/>
	<stop  offset="0.6613" style="stop-color:#ACACAC;stop-opacity:0.76"/>
	<stop  offset="0.8464" style="stop-color:#6E6E6F;stop-opacity:0.9913"/>
	<stop  offset="1" style="stop-color:#606060"/>
</linearGradient>
<path style="opacity:0.58;fill:url(#SVGID_00000036212856359280390830000003280294510114836402_);enable-background:new    ;" d="
	M23.4,260.3c-6.9,3.9-13.6,7.8-20.5,11.7c0-21.9,0-43.9,0-65.8c6.9,3.9,13.6,7.8,20.5,11.7C23.4,232,23.4,246.1,23.4,260.3z"/>
<image style="overflow:visible;" width="200" height="200" xlink:href="../../pepsi.png"  transform="matrix(0.1432 0 0 0.1432 114.2773 63.5835)">
</image>
</svg>
