<?xml version="1.0" encoding="utf-8"?>
<!-- Generator: Adobe Illustrator 25.4.1, SVG Export Plug-In . SVG Version: 6.00 Build 0)  -->
<svg version="1.1" id="Слой_1" xmlns="http://www.w3.org/2000/svg" xmlns:xlink="http://www.w3.org/1999/xlink" x="0px" y="0px"
	 viewBox="0 0 100 160" style="enable-background:new 0 0 100 160;" xml:space="preserve">
<style type="text/css">
	.st0{fill:url(#SVGID_1_);}
	.st1{opacity:0.5;fill:url(#SVGID_00000173858726496587408270000017221291253516582556_);enable-background:new    ;}
	.st2{opacity:0.5;fill:url(#SVGID_00000172402920183087098510000000926185444749140353_);enable-background:new    ;}
	.st3{fill:url(#SVGID_00000165230198965486767790000001864812449503829123_);}
	.st4{fill:url(#SVGID_00000132053571597279450830000004671398494600821658_);}
	.st5{opacity:0.5;fill:url(#SVGID_00000141423938936106944000000014209748031801171087_);enable-background:new    ;}
	.st6{fill:url(#SVGID_00000073681478953685271320000017320814706442839426_);}
	.st7{fill:url(#SVGID_00000125569647879397439720000002092679325918205575_);}
	.st8{fill:url(#SVGID_00000083089465333516599800000003538184913152528303_);}
	.st9{opacity:0.53;fill:url(#SVGID_00000088131400012508547540000009511444472595490215_);enable-background:new    ;}
	.st10{opacity:0.53;fill:url(#SVGID_00000158711989870705369180000013055345804439197115_);enable-background:new    ;}
	.st11{clip-path:url(#SVGID_00000013187427446412762240000006802558918487884988_);}
	.st12{fill:none;stroke:#B3B3B3;stroke-width:0.5;stroke-miterlimit:10;}
	.st13{fill:url(#SVGID_00000163052997720095372570000001784048704839414957_);}
	.st14{fill:#606060;}
	.st15{opacity:0.58;fill:url(#SVGID_00000048464651577621035820000012612819541680539806_);enable-background:new    ;}
</style>
<linearGradient id="SVGID_1_" gradientUnits="userSpaceOnUse" x1="74.4755" y1="563.1769" x2="74.4755" y2="551.2438" gradientTransform="matrix(1 0 0 1 0 -518.5511)">
	<stop  offset="0" style="stop-color:#9F9D9D"/>
	<stop  offset="0.1816" style="stop-color:#808080"/>
	<stop  offset="0.2933" style="stop-color:#9F9D9D"/>
	<stop  offset="0.5447" style="stop-color:#CCCCCC"/>
	<stop  offset="0.6732" style="stop-color:#FFFFFF"/>
	<stop  offset="0.8687" style="stop-color:#E4E3E3"/>
	<stop  offset="1" style="stop-color:#B3B3B3"/>
</linearGradient>
<rect x="49.7" y="32.7" class="st0" width="49.5" height="11.9"/>
<linearGradient id="SVGID_00000174575670206054583850000014883702008635353759_" gradientUnits="userSpaceOnUse" x1="-495.4823" y1="-2962.5583" x2="-488.8787" y2="-2962.5583" gradientTransform="matrix(1 0 0 -1 543.2952 -2923.9009)">
	<stop  offset="0" style="stop-color:#3F3B3C"/>
	<stop  offset="1" style="stop-color:#3F3B3C;stop-opacity:0"/>
</linearGradient>
<polygon style="opacity:0.5;fill:url(#SVGID_00000174575670206054583850000014883702008635353759_);enable-background:new    ;" points="
	54.3,32.7 47.7,32.7 47.7,44.7 54.5,44.7 "/>
<linearGradient id="SVGID_00000090253344605458146060000017878566722072679051_" gradientUnits="userSpaceOnUse" x1="-497.7564" y1="-2962.5583" x2="-491.6169" y2="-2962.5583" gradientTransform="matrix(1 0 0 -1 543.2952 -2923.9009)">
	<stop  offset="0" style="stop-color:#3F3B3C"/>
	<stop  offset="1" style="stop-color:#3F3B3C;stop-opacity:0"/>
</linearGradient>
<polygon style="opacity:0.5;fill:url(#SVGID_00000090253344605458146060000017878566722072679051_);enable-background:new    ;" points="
	51.6,32.7 45.4,32.7 45.4,44.6 51.7,44.6 "/>
<linearGradient id="SVGID_00000162348803403379644230000006055652104918072506_" gradientUnits="userSpaceOnUse" x1="32.1822" y1="565.4739" x2="32.1822" y2="548.9258" gradientTransform="matrix(1 0 0 1 0 -518.5511)">
	<stop  offset="0" style="stop-color:#9F9D9D"/>
	<stop  offset="0.1816" style="stop-color:#808080"/>
	<stop  offset="0.2933" style="stop-color:#9F9D9D"/>
	<stop  offset="0.5447" style="stop-color:#CCCCCC"/>
	<stop  offset="0.6732" style="stop-color:#FFFFFF"/>
	<stop  offset="0.8687" style="stop-color:#E4E3E3"/>
	<stop  offset="1" style="stop-color:#B3B3B3"/>
</linearGradient>
<rect x="14.5" y="30.4" style="fill:url(#SVGID_00000162348803403379644230000006055652104918072506_);" width="35.3" height="16.5"/>
<linearGradient id="SVGID_00000049212090636765792060000000422990586750377614_" gradientUnits="userSpaceOnUse" x1="7.0633" y1="567.7213" x2="7.0633" y2="546.69" gradientTransform="matrix(1 0 0 1 0 -518.5511)">
	<stop  offset="0" style="stop-color:#9F9D9D"/>
	<stop  offset="0.1816" style="stop-color:#808080"/>
	<stop  offset="0.2933" style="stop-color:#9F9D9D"/>
	<stop  offset="0.5447" style="stop-color:#CCCCCC"/>
	<stop  offset="0.6732" style="stop-color:#FFFFFF"/>
	<stop  offset="0.8687" style="stop-color:#E4E3E3"/>
	<stop  offset="1" style="stop-color:#B3B3B3"/>
</linearGradient>
<rect x="3.6" y="28.1" style="fill:url(#SVGID_00000049212090636765792060000000422990586750377614_);" width="7" height="21"/>
<linearGradient id="SVGID_00000026154711689581241000000010362381435246416533_" gradientUnits="userSpaceOnUse" x1="-530.6011" y1="-2962.5583" x2="-527.4494" y2="-2962.5583" gradientTransform="matrix(1 0 0 -1 543.2952 -2923.9009)">
	<stop  offset="0" style="stop-color:#3F3B3C"/>
	<stop  offset="1" style="stop-color:#3F3B3C;stop-opacity:0"/>
</linearGradient>
<polygon style="opacity:0.5;fill:url(#SVGID_00000026154711689581241000000010362381435246416533_);enable-background:new    ;" points="
	15.8,30.4 12.7,30.4 12.7,46.9 15.8,46.9 "/>
<linearGradient id="SVGID_00000094576074390116406070000000010745504049078688_" gradientUnits="userSpaceOnUse" x1="13.3595" y1="568.5842" x2="13.3595" y2="545.8387" gradientTransform="matrix(1 0 0 1 0 -518.5511)">
	<stop  offset="0" style="stop-color:#9F9D9D"/>
	<stop  offset="0.1816" style="stop-color:#808080"/>
	<stop  offset="0.2933" style="stop-color:#9F9D9D"/>
	<stop  offset="0.5447" style="stop-color:#CCCCCC"/>
	<stop  offset="0.6732" style="stop-color:#FFFFFF"/>
	<stop  offset="0.8687" style="stop-color:#E4E3E3"/>
	<stop  offset="1" style="stop-color:#B3B3B3"/>
</linearGradient>
<rect x="12.2" y="27.3" style="fill:url(#SVGID_00000094576074390116406070000000010745504049078688_);" width="2.3" height="22.7"/>
<linearGradient id="SVGID_00000131335487930318216450000013190789708996937635_" gradientUnits="userSpaceOnUse" x1="2.1187" y1="567.0978" x2="2.1187" y2="547.3192" gradientTransform="matrix(1 0 0 1 0 -518.5511)">
	<stop  offset="0" style="stop-color:#9F9D9D"/>
	<stop  offset="0.1816" style="stop-color:#808080"/>
	<stop  offset="0.2933" style="stop-color:#9F9D9D"/>
	<stop  offset="0.5447" style="stop-color:#CCCCCC"/>
	<stop  offset="0.6732" style="stop-color:#FFFFFF"/>
	<stop  offset="0.8687" style="stop-color:#E4E3E3"/>
	<stop  offset="1" style="stop-color:#B3B3B3"/>
</linearGradient>
<path style="fill:url(#SVGID_00000131335487930318216450000013190789708996937635_);" d="M3.6,48.5c-1-0.9-2-1.8-2.9-2.7V31.5
	c1-0.9,2-1.8,2.9-2.7C3.6,35.4,3.6,42,3.6,48.5z"/>
<linearGradient id="SVGID_00000121969868382029647760000014154685991581706162_" gradientUnits="userSpaceOnUse" x1="11.3487" y1="568.6141" x2="11.3487" y2="545.8574" gradientTransform="matrix(1 0 0 1 0 -518.5511)">
	<stop  offset="0" style="stop-color:#9F9D9D"/>
	<stop  offset="0.1816" style="stop-color:#808080"/>
	<stop  offset="0.2933" style="stop-color:#9F9D9D"/>
	<stop  offset="0.5447" style="stop-color:#CCCCCC"/>
	<stop  offset="0.6732" style="stop-color:#FFFFFF"/>
	<stop  offset="0.8687" style="stop-color:#E4E3E3"/>
	<stop  offset="1" style="stop-color:#B3B3B3"/>
</linearGradient>
<path style="fill:url(#SVGID_00000121969868382029647760000014154685991581706162_);" d="M12.2,50.1c-0.6-0.3-1.1-0.6-1.7-0.9V28.1
	c0.6-0.3,1.1-0.6,1.7-0.9C12.2,34.9,12.2,42.5,12.2,50.1z"/>
<linearGradient id="SVGID_00000134948551464449097000000006229794299790270103_" gradientUnits="userSpaceOnUse" x1="3.5551" y1="557.2085" x2="0.6228" y2="557.2085" gradientTransform="matrix(1 0 0 1 0 -518.5511)">
	<stop  offset="0" style="stop-color:#B3B3B3;stop-opacity:0.5"/>
	<stop  offset="1" style="stop-color:#B3B3B3;stop-opacity:0"/>
</linearGradient>
<path style="opacity:0.53;fill:url(#SVGID_00000134948551464449097000000006229794299790270103_);enable-background:new    ;" d="
	M3.6,48.5c-1-0.9-2-1.8-2.9-2.7V31.5c1-0.9,2-1.8,2.9-2.7C3.6,35.4,3.6,42,3.6,48.5z"/>
<linearGradient id="SVGID_00000105398268801350807510000004974362360733029789_" gradientUnits="userSpaceOnUse" x1="12.2289" y1="557.2085" x2="10.5326" y2="557.2085" gradientTransform="matrix(1 0 0 1 0 -518.5511)">
	<stop  offset="0" style="stop-color:#B3B3B3;stop-opacity:0.5"/>
	<stop  offset="1" style="stop-color:#B3B3B3;stop-opacity:0"/>
</linearGradient>
<path style="opacity:0.53;fill:url(#SVGID_00000105398268801350807510000004974362360733029789_);enable-background:new    ;" d="
	M12.2,50.1c-0.6-0.3-1.1-0.6-1.7-0.9V28.1c0.6-0.3,1.1-0.6,1.7-0.9C12.2,34.9,12.2,42.5,12.2,50.1z"/>
<g>
	<g>
		<defs>
			<path id="SVGID_00000042723501145201766460000014968147029607341731_" d="M54.3,112.5h-4.5v-2.3h-34h-1.3v-3.1h-2.3l0,0
				c-0.6,0.3-1.1,0.6-1.7,0.9h-7v0.7c-0.9,0.9-1.9,1.8-2.9,2.7v14.4c0.9,0.9,1.9,1.8,2.9,2.7v0.6h7c0.6,0.3,1.1,0.6,1.7,0.9l0,0h2.3
				v-3.1h1.3h34v-2.3h4.6h44.8v-12H54.3z"/>
		</defs>
		<clipPath id="SVGID_00000119115499514992822890000010894846811938598043_">
			<use xlink:href="#SVGID_00000042723501145201766460000014968147029607341731_"  style="overflow:visible;"/>
		</clipPath>
		<g style="clip-path:url(#SVGID_00000119115499514992822890000010894846811938598043_);">
			
				<image style="overflow:visible;enable-background:new    ;" width="1200" height="900" xlink:href="../../Фитинги/Резьбовые/Металл.jpg"  transform="matrix(9.315734e-02 0 0 9.315734e-02 -10.1385 70.6234)">
			</image>
		</g>
	</g>
	<g>
		<path id="SVGID_12_" class="st12" d="M54.3,112.5h-4.5v-2.3h-34h-1.3v-3.1h-2.3l0,0c-0.6,0.3-1.1,0.6-1.7,0.9h-7v0.7
			c-0.9,0.9-1.9,1.8-2.9,2.7v14.4c0.9,0.9,1.9,1.8,2.9,2.7v0.6h7c0.6,0.3,1.1,0.6,1.7,0.9l0,0h2.3v-3.1h1.3h34v-2.3h4.6h44.8v-12
			H54.3z"/>
	</g>
</g>
<linearGradient id="SVGID_00000170238979309487407860000000161691522525757596_" gradientUnits="userSpaceOnUse" x1="52.6201" y1="632.8961" x2="52.6201" y2="641.2278" gradientTransform="matrix(1 0 0 1 0 -518.5511)">
	<stop  offset="0.2849" style="stop-color:#606060"/>
	<stop  offset="0.5139" style="stop-color:#999999"/>
	<stop  offset="0.6613" style="stop-color:#ACACAC"/>
	<stop  offset="0.8464" style="stop-color:#6E6E6F;stop-opacity:0.9913"/>
	<stop  offset="1" style="stop-color:#606060"/>
</linearGradient>
<rect x="5.9" y="114.3" style="fill:url(#SVGID_00000170238979309487407860000000161691522525757596_);" width="93.5" height="8.3"/>
<path class="st14" d="M5.9,122.7c-1.8,1.1-3.6,2.1-5.3,3.1c0-4.9,0-9.7,0-14.5c1.8,1,3.6,2,5.3,3.1V122.7z"/>
<linearGradient id="SVGID_00000126286929607634840910000009990355933860137398_" gradientUnits="userSpaceOnUse" x1="3.2065" y1="629.8105" x2="3.2065" y2="644.3303" gradientTransform="matrix(1 0 0 1 0 -518.5511)">
	<stop  offset="0.2849" style="stop-color:#606060"/>
	<stop  offset="0.5139" style="stop-color:#999999"/>
	<stop  offset="0.6613" style="stop-color:#ACACAC;stop-opacity:0.76"/>
	<stop  offset="0.8464" style="stop-color:#6E6E6F;stop-opacity:0.9913"/>
	<stop  offset="1" style="stop-color:#606060"/>
</linearGradient>
<path style="opacity:0.58;fill:url(#SVGID_00000126286929607634840910000009990355933860137398_);enable-background:new    ;" d="
	M5.9,122.7c-1.8,1.1-3.6,2.1-5.3,3.1c0-4.9,0-9.7,0-14.5c1.8,1,3.6,2,5.3,3.1V122.7z"/>
<image style="overflow:visible;" width="200" height="200" xlink:href="../../pepsi.png"  transform="matrix(4.178054e-02 0 0 4.178054e-02 26.4548 33.9133)">
</image>
</svg>
