<?xml version="1.0" encoding="utf-8"?>
<!-- Generator: Adobe Illustrator 25.4.1, SVG Export Plug-In . SVG Version: 6.00 Build 0)  -->
<svg version="1.1" id="Слой_1" xmlns="http://www.w3.org/2000/svg" xmlns:xlink="http://www.w3.org/1999/xlink" x="0px" y="0px"
	 viewBox="0 0 200 320" style="enable-background:new 0 0 200 320;" xml:space="preserve">
<style type="text/css">
	.st0{fill:url(#SVGID_1_);}
	.st1{opacity:0.5;fill:url(#SVGID_00000123440413920834053520000003217042313163156133_);enable-background:new    ;}
	.st2{opacity:0.5;fill:url(#SVGID_00000166640512249352444210000005839415948543643266_);enable-background:new    ;}
	.st3{fill:url(#SVGID_00000119817727214804742340000007068310592692988814_);}
	.st4{fill:url(#SVGID_00000165235379494860793950000000568693301026863777_);}
	.st5{opacity:0.5;fill:url(#SVGID_00000107565046117613365280000001292431928934616981_);enable-background:new    ;}
	.st6{fill:url(#SVGID_00000000930775344812083590000005910840791128150683_);}
	.st7{fill:url(#SVGID_00000060716602394456414630000003297962995208073110_);}
	.st8{fill:url(#SVGID_00000000215174051013695070000000917412932976070802_);}
	.st9{opacity:0.53;fill:url(#SVGID_00000038371550487996657240000003630324879597448849_);enable-background:new    ;}
	.st10{opacity:0.53;fill:url(#SVGID_00000070826116746822072070000011612014561603456667_);enable-background:new    ;}
	.st11{clip-path:url(#SVGID_00000176760062143539492420000014541528395944839821_);}
	.st12{fill:none;stroke:#C4C4C4;stroke-width:0.5;stroke-miterlimit:10;}
	.st13{fill:url(#SVGID_00000069367559825879687200000004880841652964176789_);}
	.st14{fill:#606060;}
	.st15{opacity:0.58;fill:url(#SVGID_00000141418421904540631440000001509752154920769447_);enable-background:new    ;}
</style>
<linearGradient id="SVGID_1_" gradientUnits="userSpaceOnUse" x1="158.1903" y1="88.9518" x2="158.1903" y2="126.7638" gradientTransform="matrix(1 0 0 -1 0 187.5512)">
	<stop  offset="0" style="stop-color:#9F9D9D"/>
	<stop  offset="0.1816" style="stop-color:#808080"/>
	<stop  offset="0.2933" style="stop-color:#9F9D9D"/>
	<stop  offset="0.5447" style="stop-color:#CCCCCC"/>
	<stop  offset="0.6732" style="stop-color:#FFFFFF"/>
	<stop  offset="0.8687" style="stop-color:#E4E3E3"/>
	<stop  offset="1" style="stop-color:#B3B3B3"/>
</linearGradient>
<rect x="117.7" y="60.7" class="st0" width="81" height="37.9"/>
<linearGradient id="SVGID_00000106839001412502982820000016306136960302427265_" gradientUnits="userSpaceOnUse" x1="-426.6414" y1="3634.5728" x2="-411.968" y2="3634.5728" gradientTransform="matrix(1 0 0 1 543.2952 -3554.9009)">
	<stop  offset="0" style="stop-color:#3F3B3C"/>
	<stop  offset="1" style="stop-color:#3F3B3C;stop-opacity:0"/>
</linearGradient>
<polygon style="opacity:0.5;fill:url(#SVGID_00000106839001412502982820000016306136960302427265_);enable-background:new    ;" points="
	131.2,60.7 116.5,60.7 116.5,98.6 131.5,98.6 "/>
<linearGradient id="SVGID_00000172430313076867890280000000245142343687778948_" gradientUnits="userSpaceOnUse" x1="-432.4712" y1="3634.5728" x2="-422.4225" y2="3634.5728" gradientTransform="matrix(1 0 0 1 543.2952 -3554.9009)">
	<stop  offset="0" style="stop-color:#3F3B3C"/>
	<stop  offset="1" style="stop-color:#3F3B3C;stop-opacity:0"/>
</linearGradient>
<polygon style="opacity:0.5;fill:url(#SVGID_00000172430313076867890280000000245142343687778948_);enable-background:new    ;" points="
	120.7,60.9 110.7,60.9 110.7,98.5 120.9,98.5 "/>
<linearGradient id="SVGID_00000139274824852493208030000010177211795695438749_" gradientUnits="userSpaceOnUse" x1="82.0165" y1="80.6131" x2="82.0165" y2="135.1458" gradientTransform="matrix(1 0 0 -1 0 187.5512)">
	<stop  offset="0" style="stop-color:#9F9D9D"/>
	<stop  offset="0.1816" style="stop-color:#808080"/>
	<stop  offset="0.2933" style="stop-color:#9F9D9D"/>
	<stop  offset="0.5447" style="stop-color:#CCCCCC"/>
	<stop  offset="0.6732" style="stop-color:#FFFFFF"/>
	<stop  offset="0.8687" style="stop-color:#E4E3E3"/>
	<stop  offset="1" style="stop-color:#B3B3B3"/>
</linearGradient>
<rect x="46.1" y="52.4" style="fill:url(#SVGID_00000139274824852493208030000010177211795695438749_);" width="71.9" height="54.5"/>
<linearGradient id="SVGID_00000124127082407927569310000002213420348071323782_" gradientUnits="userSpaceOnUse" x1="21.9909" y1="73.2009" x2="21.9909" y2="142.558" gradientTransform="matrix(1 0 0 -1 0 187.5512)">
	<stop  offset="0" style="stop-color:#9F9D9D"/>
	<stop  offset="0.1816" style="stop-color:#808080"/>
	<stop  offset="0.2933" style="stop-color:#9F9D9D"/>
	<stop  offset="0.5447" style="stop-color:#CCCCCC"/>
	<stop  offset="0.6732" style="stop-color:#FFFFFF"/>
	<stop  offset="0.8687" style="stop-color:#E4E3E3"/>
	<stop  offset="1" style="stop-color:#B3B3B3"/>
</linearGradient>
<rect x="10.7" y="45" style="fill:url(#SVGID_00000124127082407927569310000002213420348071323782_);" width="22.5" height="69.4"/>
<linearGradient id="SVGID_00000129204894350069839140000010834471319634801816_" gradientUnits="userSpaceOnUse" x1="-503.1297" y1="3634.5728" x2="-492.9887" y2="3634.5728" gradientTransform="matrix(1 0 0 1 543.2952 -3554.9009)">
	<stop  offset="0" style="stop-color:#3F3B3C"/>
	<stop  offset="1" style="stop-color:#3F3B3C;stop-opacity:0"/>
</linearGradient>
<polygon style="opacity:0.5;fill:url(#SVGID_00000129204894350069839140000010834471319634801816_);enable-background:new    ;" points="
	50.2,52.4 40,52.4 40,106.9 50.3,106.9 "/>
<linearGradient id="SVGID_00000023967315885543941550000000757549318609093821_" gradientUnits="userSpaceOnUse" x1="42.3744" y1="70.2889" x2="42.3744" y2="145.4699" gradientTransform="matrix(1 0 0 -1 0 187.5512)">
	<stop  offset="0" style="stop-color:#9F9D9D"/>
	<stop  offset="0.1816" style="stop-color:#808080"/>
	<stop  offset="0.2933" style="stop-color:#9F9D9D"/>
	<stop  offset="0.5447" style="stop-color:#CCCCCC"/>
	<stop  offset="0.6732" style="stop-color:#FFFFFF"/>
	<stop  offset="0.8687" style="stop-color:#E4E3E3"/>
	<stop  offset="1" style="stop-color:#B3B3B3"/>
</linearGradient>
<rect x="38.7" y="42.1" style="fill:url(#SVGID_00000023967315885543941550000000757549318609093821_);" width="7.4" height="75.2"/>
<linearGradient id="SVGID_00000011733435859902292230000003042431946251369604_" gradientUnits="userSpaceOnUse" x1="6.0414" y1="74.1274" x2="6.0414" y2="141.6315" gradientTransform="matrix(1 0 0 -1 0 187.5512)">
	<stop  offset="0" style="stop-color:#9F9D9D"/>
	<stop  offset="0.1816" style="stop-color:#808080"/>
	<stop  offset="0.2933" style="stop-color:#9F9D9D"/>
	<stop  offset="0.5447" style="stop-color:#CCCCCC"/>
	<stop  offset="0.6732" style="stop-color:#FFFFFF"/>
	<stop  offset="0.8687" style="stop-color:#E4E3E3"/>
	<stop  offset="1" style="stop-color:#B3B3B3"/>
</linearGradient>
<path style="fill:url(#SVGID_00000011733435859902292230000003042431946251369604_);" d="M10.7,113.4c-3.2-3-6.4-6.1-9.4-9.1V55.1
	c3.2-3,6.4-6.1,9.4-9.1C10.7,68.4,10.7,90.9,10.7,113.4z"/>
<linearGradient id="SVGID_00000063598082420809830450000001752869380536944818_" gradientUnits="userSpaceOnUse" x1="35.9549" y1="70.2889" x2="35.9549" y2="145.3459" gradientTransform="matrix(1 0 0 -1 0 187.5512)">
	<stop  offset="0" style="stop-color:#9F9D9D"/>
	<stop  offset="0.1816" style="stop-color:#808080"/>
	<stop  offset="0.2933" style="stop-color:#9F9D9D"/>
	<stop  offset="0.5447" style="stop-color:#CCCCCC"/>
	<stop  offset="0.6732" style="stop-color:#FFFFFF"/>
	<stop  offset="0.8687" style="stop-color:#E4E3E3"/>
	<stop  offset="1" style="stop-color:#B3B3B3"/>
</linearGradient>
<path style="fill:url(#SVGID_00000063598082420809830450000001752869380536944818_);" d="M38.7,117.3c-1.9-0.9-3.6-2-5.4-2.9V45
	c1.9-0.9,3.6-2,5.4-2.9C38.7,67.2,38.7,92.2,38.7,117.3z"/>
<linearGradient id="SVGID_00000145023913553331039590000006744198726674618501_" gradientUnits="userSpaceOnUse" x1="10.7592" y1="107.8794" x2="1.3243" y2="107.8794" gradientTransform="matrix(1 0 0 -1 0 187.5512)">
	<stop  offset="0" style="stop-color:#B3B3B3;stop-opacity:0.5"/>
	<stop  offset="1" style="stop-color:#B3B3B3;stop-opacity:0"/>
</linearGradient>
<path style="opacity:0.53;fill:url(#SVGID_00000145023913553331039590000006744198726674618501_);enable-background:new    ;" d="
	M10.7,113.4c-3.2-3-6.4-6.1-9.4-9.1V55.1c3.2-3,6.4-6.1,9.4-9.1C10.7,68.4,10.7,90.9,10.7,113.4z"/>
<linearGradient id="SVGID_00000070089375057641002420000004805904669986738612_" gradientUnits="userSpaceOnUse" x1="38.6683" y1="107.8794" x2="33.2103" y2="107.8794" gradientTransform="matrix(1 0 0 -1 0 187.5512)">
	<stop  offset="0" style="stop-color:#B3B3B3;stop-opacity:0.5"/>
	<stop  offset="1" style="stop-color:#B3B3B3;stop-opacity:0"/>
</linearGradient>
<path style="opacity:0.53;fill:url(#SVGID_00000070089375057641002420000004805904669986738612_);enable-background:new    ;" d="
	M38.7,117.3c-1.9-0.9-3.6-2-5.4-2.9V45c1.9-0.9,3.6-2,5.4-2.9C38.7,67.2,38.7,92.2,38.7,117.3z"/>
<g>
	<g>
		<defs>
			<path id="SVGID_00000044880123766499020370000012169453206223505561_" d="M131.2,215.9H118v-8.3H50.2h-4.1v-10.3h-7.4
				c-1.9,0.9-3.6,2-5.4,2.9H10.7v0.9c-3,3-6.2,6.1-9.4,9.1v49.2c3,3,6.2,6.1,9.4,9.1v0.9h22.5c1.9,0.9,3.6,2,5.4,2.9h7.4v-10.3h4.2
				H118v-8.3h13.5h67.2v-37.9H131.2z"/>
		</defs>
		<clipPath id="SVGID_00000139981709133088103650000009700698535096040884_">
			<use xlink:href="#SVGID_00000044880123766499020370000012169453206223505561_"  style="overflow:visible;"/>
		</clipPath>
		<g style="clip-path:url(#SVGID_00000139981709133088103650000009700698535096040884_);">
			
				<image style="overflow:visible;enable-background:new    ;" width="1200" height="900" xlink:href="../../Фитинги/Резьбовые/Металл.jpg"  transform="matrix(0.2266 0 0 0.2266 -38.3827 136.0789)">
			</image>
		</g>
	</g>
	<g>
		<path id="SVGID_12_" class="st12" d="M131.2,215.9H118v-8.3H50.2h-4.1v-10.3h-7.4c-1.9,0.9-3.6,2-5.4,2.9H10.7v0.9
			c-3,3-6.2,6.1-9.4,9.1v49.2c3,3,6.2,6.1,9.4,9.1v0.9h22.5c1.9,0.9,3.6,2,5.4,2.9h7.4v-10.3h4.2H118v-8.3h13.5h67.2v-37.9H131.2z"
			/>
	</g>
</g>
<linearGradient id="SVGID_00000040572976928368468380000001243815529000529027_" gradientUnits="userSpaceOnUse" x1="107.9593" y1="-33.7164" x2="107.9593" y2="-60.8504" gradientTransform="matrix(1 0 0 -1 0 187.5512)">
	<stop  offset="0.2849" style="stop-color:#606060"/>
	<stop  offset="0.5139" style="stop-color:#999999"/>
	<stop  offset="0.6613" style="stop-color:#ACACAC"/>
	<stop  offset="0.8464" style="stop-color:#6E6E6F;stop-opacity:0.9913"/>
	<stop  offset="1" style="stop-color:#606060"/>
</linearGradient>
<rect x="17" y="221.2" style="fill:url(#SVGID_00000040572976928368468380000001243815529000529027_);" width="182" height="27.1"/>
<path class="st14" d="M17.1,248.4c-5.3,3.4-10.5,6.9-15.8,10.2c0-15.9,0-31.6,0-47.5c5.3,3.3,10.5,6.6,15.8,10.1V248.4z"/>
<linearGradient id="SVGID_00000042725339784316845030000011373455102863867022_" gradientUnits="userSpaceOnUse" x1="9.218" y1="-23.4863" x2="9.218" y2="-71.0039" gradientTransform="matrix(1 0 0 -1 0 187.5512)">
	<stop  offset="0.2849" style="stop-color:#606060"/>
	<stop  offset="0.5139" style="stop-color:#999999"/>
	<stop  offset="0.6613" style="stop-color:#ACACAC;stop-opacity:0.76"/>
	<stop  offset="0.8464" style="stop-color:#6E6E6F;stop-opacity:0.9913"/>
	<stop  offset="1" style="stop-color:#606060"/>
</linearGradient>
<path style="opacity:0.58;fill:url(#SVGID_00000042725339784316845030000011373455102863867022_);enable-background:new    ;" d="
	M17.1,248.4c-5.3,3.4-10.5,6.9-15.8,10.2c0-15.9,0-31.6,0-47.5c5.3,3.3,10.5,6.6,15.8,10.1V248.4z"/>
<image style="overflow:visible;" width="200" height="200" xlink:href="../../pepsi.png"  transform="matrix(0.1081 0 0 0.1081 67.3146 67.3763)">
</image>
</svg>
