<?xml version="1.0" encoding="utf-8"?>
<!-- Generator: Adobe Illustrator 25.4.1, SVG Export Plug-In . SVG Version: 6.00 Build 0)  -->
<svg version="1.1" id="Слой_1" xmlns="http://www.w3.org/2000/svg" xmlns:xlink="http://www.w3.org/1999/xlink" x="0px" y="0px"
	 viewBox="0 0 100 160" style="enable-background:new 0 0 100 160;" xml:space="preserve">
<style type="text/css">
	.st0{fill:#B3B3B3;}
	.st1{fill:#58595B;}
	.st2{clip-path:url(#SVGID_00000121255149492752819340000005746161537257699735_);}
	.st3{clip-path:url(#SVGID_00000176044196677649627070000000493369397944843167_);}
</style>
<path class="st0" d="M42.7,43.4C22.5,43.4,6.1,59.8,6.1,80s16.4,36.6,36.6,36.6S79.3,100.2,79.3,80C79.3,59.8,62.9,43.4,42.7,43.4z
	 M42.7,98.1c-10,0-18.1-8.1-18.1-18.1s8.1-18.1,18.1-18.1S60.8,70,60.8,80S52.7,98.1,42.7,98.1z"/>
<rect x="90.8" y="61.7" class="st1" width="3.1" height="36.6"/>
<g>
	<g>
		<defs>
			<polygon id="SVGID_1_" points="90.8,43.2 82.5,43.2 82.5,44.1 90.8,44.1 90.8,61.7 93.9,61.7 93.9,43.2 			"/>
		</defs>
		<clipPath id="SVGID_00000078724140163083562250000014834311029775202440_">
			<use xlink:href="#SVGID_1_"  style="overflow:visible;"/>
		</clipPath>
		<g style="clip-path:url(#SVGID_00000078724140163083562250000014834311029775202440_);">
			
				<image style="overflow:visible;enable-background:new    ;" width="1200" height="900" xlink:href="../../Фитинги/Резьбовые/Металл.jpg"  transform="matrix(9.291100e-02 0 0 9.291100e-02 1.2402 32.3099)">
			</image>
		</g>
	</g>
</g>
<g>
	<g>
		<defs>
			<polygon id="SVGID_00000001665824592150905770000006047418607621549717_" points="90.8,98.3 90.8,116 82.5,116 82.5,116.9 
				90.8,116.9 93.9,116.9 93.9,98.3 			"/>
		</defs>
		<clipPath id="SVGID_00000101066873153667451690000002263534112316244654_">
			<use xlink:href="#SVGID_00000001665824592150905770000006047418607621549717_"  style="overflow:visible;"/>
		</clipPath>
		<g style="clip-path:url(#SVGID_00000101066873153667451690000002263534112316244654_);">
			
				<image style="overflow:visible;enable-background:new    ;" width="1200" height="900" xlink:href="../../Фитинги/Резьбовые/Металл.jpg"  transform="matrix(9.291100e-02 0 0 9.291100e-02 11.8159 43.4314)">
			</image>
		</g>
	</g>
</g>
<image style="overflow:visible;" width="200" height="200" xlink:href="../../pepsi.png"  transform="matrix(5.205789e-02 0 0 5.205789e-02 64.2066 73.9114)">
</image>
</svg>
