<?xml version="1.0" encoding="utf-8"?>
<!-- Generator: Adobe Illustrator 25.4.1, SVG Export Plug-In . SVG Version: 6.00 Build 0)  -->
<svg version="1.1" id="Слой_1" xmlns="http://www.w3.org/2000/svg" xmlns:xlink="http://www.w3.org/1999/xlink" x="0px" y="0px"
	 viewBox="0 0 200 320" style="enable-background:new 0 0 200 320;" xml:space="preserve">
<style type="text/css">
	.st0{clip-path:url(#SVGID_00000047746074187398340620000008683933268767596676_);}
	.st1{fill:none;stroke:#BFBFBF;stroke-width:0.5;stroke-miterlimit:10;}
	.st2{fill:url(#SVGID_00000040569319233747944110000000211711534422977420_);}
	.st3{fill:url(#SVGID_00000120539036753342061760000015843843466092951215_);}
	.st4{fill:url(#SVGID_00000073685846607314664230000006317337826405674687_);}
	.st5{fill:#606060;}
	.st6{opacity:0.58;fill:url(#SVGID_00000035527147179072343430000011889935016350128261_);enable-background:new    ;}
	.st7{opacity:0.58;fill:url(#SVGID_00000173120827643165238410000010156247109796028861_);enable-background:new    ;}
	.st8{fill:url(#SVGID_00000108285346788039165290000008271978950050869937_);}
	.st9{fill:url(#SVGID_00000062915055165639664830000003313587569658213289_);}
	.st10{opacity:0.5;fill:url(#SVGID_00000070836402103593065570000015847191501678547087_);enable-background:new    ;}
	.st11{fill:url(#SVGID_00000176762865085634159660000013207663207661479083_);}
	.st12{fill:url(#SVGID_00000159451845787460062150000017238792149182883480_);}
	.st13{fill:url(#SVGID_00000003095727478496581130000006630776531114848904_);}
	.st14{opacity:0.53;fill:url(#SVGID_00000126283542260111338150000003455004074649668999_);enable-background:new    ;}
	.st15{opacity:0.53;fill:url(#SVGID_00000074426750688981768590000002199378735453152425_);enable-background:new    ;}
</style>
<g>
	<g>
		<g>
			<defs>
				<path id="SVGID_00000009588589472130087240000004193148272276279183_" d="M43.6,209.5h-3.6v-8.9h-6.3c-1.6,0.8-3,1.7-4.6,2.5
					H9.7v1.1c-2.6,2.6-5.4,5.2-8.1,7.8v41.5c2.6,2.6,5.4,5.2,8.1,7.8v1.1h19.4c1.6,0.8,3,1.7,4.6,2.5h6.3V256h3.7h154.7v-46.5H43.6z
					"/>
			</defs>
			<clipPath id="SVGID_00000161613391624733428860000002669083644863166894_">
				<use xlink:href="#SVGID_00000009588589472130087240000004193148272276279183_"  style="overflow:visible;"/>
			</clipPath>
			<g style="clip-path:url(#SVGID_00000161613391624733428860000002669083644863166894_);">
				
					<image style="overflow:visible;enable-background:new    ;" width="1200" height="900" xlink:href="../../Фитинги/Резьбовые/Металл.jpg"  transform="matrix(0.1823 0 0 0.1823 -9.3944 182.7194)">
				</image>
			</g>
		</g>
		<g>
			<path id="SVGID_1_" class="st1" d="M43.6,209.5h-3.6v-8.9h-6.3c-1.6,0.8-3,1.7-4.6,2.5H9.7v1.1c-2.6,2.6-5.4,5.2-8.1,7.8v41.5
				c2.6,2.6,5.4,5.2,8.1,7.8v1.1h19.4c1.6,0.8,3,1.7,4.6,2.5h6.3V256h3.7h154.7v-46.5H43.6z"/>
		</g>
	</g>
</g>
<linearGradient id="SVGID_00000140014665784886719560000005160954699362407559_" gradientUnits="userSpaceOnUse" x1="62.5402" y1="-982.0257" x2="62.5402" y2="-997.6891" gradientTransform="matrix(1 0 0 -1 0 -757.1023)">
	<stop  offset="0.2849" style="stop-color:#606060"/>
	<stop  offset="0.5139" style="stop-color:#999999"/>
	<stop  offset="0.6613" style="stop-color:#ACACAC"/>
	<stop  offset="0.8464" style="stop-color:#6E6E6F;stop-opacity:0.9913"/>
	<stop  offset="1" style="stop-color:#606060"/>
</linearGradient>
<rect x="19.6" y="224.9" style="fill:url(#SVGID_00000140014665784886719560000005160954699362407559_);" width="85.9" height="15.6"/>
<linearGradient id="SVGID_00000039836336199813459350000011752003515183024807_" gradientUnits="userSpaceOnUse" x1="169.7512" y1="-975.905" x2="169.7512" y2="-1003.7511" gradientTransform="matrix(1 0 0 -1 0 -757.1023)">
	<stop  offset="0.2849" style="stop-color:#606060"/>
	<stop  offset="0.5139" style="stop-color:#999999"/>
	<stop  offset="0.6613" style="stop-color:#ACACAC"/>
	<stop  offset="0.8464" style="stop-color:#6E6E6F;stop-opacity:0.9913"/>
	<stop  offset="1" style="stop-color:#606060"/>
</linearGradient>
<rect x="140.8" y="218.7" style="fill:url(#SVGID_00000039836336199813459350000011752003515183024807_);" width="57.9" height="27.9"/>
<linearGradient id="SVGID_00000063631269444323721800000015770855329092038329_" gradientUnits="userSpaceOnUse" x1="124.6724" y1="-984.1752" x2="124.6724" y2="-995.5441" gradientTransform="matrix(1 0 0 -1 0 -757.1023)">
	<stop  offset="0.2849" style="stop-color:#606060"/>
	<stop  offset="0.5139" style="stop-color:#999999"/>
	<stop  offset="0.6613" style="stop-color:#ACACAC"/>
	<stop  offset="0.8464" style="stop-color:#6E6E6F;stop-opacity:0.9913"/>
	<stop  offset="1" style="stop-color:#606060"/>
</linearGradient>
<rect x="108.5" y="227" style="fill:url(#SVGID_00000063631269444323721800000015770855329092038329_);" width="32.3" height="11.4"/>
<path class="st5" d="M19.6,240.5l-18,12.7v-41l18,12.7C19.6,230.1,19.6,240.5,19.6,240.5z"/>
<linearGradient id="SVGID_00000037662849697231467300000002559764852420748444_" gradientUnits="userSpaceOnUse" x1="10.5872" y1="-969.3348" x2="10.5872" y2="-1010.3156" gradientTransform="matrix(1 0 0 -1 0 -757.1023)">
	<stop  offset="0.2849" style="stop-color:#606060"/>
	<stop  offset="0.5139" style="stop-color:#999999"/>
	<stop  offset="0.6613" style="stop-color:#ACACAC;stop-opacity:0.76"/>
	<stop  offset="0.8464" style="stop-color:#6E6E6F;stop-opacity:0.9913"/>
	<stop  offset="1" style="stop-color:#606060"/>
</linearGradient>
<path style="opacity:0.58;fill:url(#SVGID_00000037662849697231467300000002559764852420748444_);enable-background:new    ;" d="
	M19.6,240.5l-18,12.7v-41l18,12.7C19.6,224.9,19.6,235.4,19.6,240.5z"/>
<path class="st5" d="M108.5,238.4l-3,2.1v-15.6l3,2.1l0,0V238.4z"/>
<linearGradient id="SVGID_00000057148651083913041240000016349313094267568318_" gradientUnits="userSpaceOnUse" x1="107.0242" y1="-982.0101" x2="107.0242" y2="-997.6736" gradientTransform="matrix(1 0 0 -1 0 -757.1023)">
	<stop  offset="0.2849" style="stop-color:#606060"/>
	<stop  offset="0.5139" style="stop-color:#999999"/>
	<stop  offset="0.6613" style="stop-color:#ACACAC;stop-opacity:0.76"/>
	<stop  offset="0.8464" style="stop-color:#6E6E6F;stop-opacity:0.9913"/>
	<stop  offset="1" style="stop-color:#606060"/>
</linearGradient>
<path style="opacity:0.58;fill:url(#SVGID_00000057148651083913041240000016349313094267568318_);enable-background:new    ;" d="
	M108.5,238.4l-3,2.1v-15.6l3,2.1C108.5,230.9,108.5,238.4,108.5,238.4z"/>
<linearGradient id="SVGID_00000029757151165341440320000000710523285869975208_" gradientUnits="userSpaceOnUse" x1="119.1862" y1="-855.3149" x2="119.1862" y2="-808.782" gradientTransform="matrix(1 0 0 -1 0 -757.1023)">
	<stop  offset="0" style="stop-color:#9F9D9D"/>
	<stop  offset="0.1816" style="stop-color:#808080"/>
	<stop  offset="0.2933" style="stop-color:#9F9D9D"/>
	<stop  offset="0.5447" style="stop-color:#CCCCCC"/>
	<stop  offset="0.6732" style="stop-color:#FFFFFF"/>
	<stop  offset="0.8687" style="stop-color:#E4E3E3"/>
	<stop  offset="1" style="stop-color:#B3B3B3"/>
</linearGradient>
<rect x="40.1" y="51.6" style="fill:url(#SVGID_00000029757151165341440320000000710523285869975208_);" width="158.2" height="46.5"/>
<linearGradient id="SVGID_00000175323087692773694470000004816017787090657956_" gradientUnits="userSpaceOnUse" x1="19.3782" y1="-861.642" x2="19.3782" y2="-802.4182" gradientTransform="matrix(1 0 0 -1 0 -757.1023)">
	<stop  offset="0" style="stop-color:#9F9D9D"/>
	<stop  offset="0.1816" style="stop-color:#808080"/>
	<stop  offset="0.2933" style="stop-color:#9F9D9D"/>
	<stop  offset="0.5447" style="stop-color:#CCCCCC"/>
	<stop  offset="0.6732" style="stop-color:#FFFFFF"/>
	<stop  offset="0.8687" style="stop-color:#E4E3E3"/>
	<stop  offset="1" style="stop-color:#B3B3B3"/>
</linearGradient>
<rect x="9.7" y="45.4" style="fill:url(#SVGID_00000175323087692773694470000004816017787090657956_);" width="19.4" height="59.2"/>
<linearGradient id="SVGID_00000115476024736816479390000013626815759283124369_" gradientUnits="userSpaceOnUse" x1="-508.2592" y1="3650.2837" x2="-499.5226" y2="3650.2837" gradientTransform="matrix(1 0 0 1 543.2952 -3575.3496)">
	<stop  offset="0" style="stop-color:#3F3B3C"/>
	<stop  offset="1" style="stop-color:#3F3B3C;stop-opacity:0"/>
</linearGradient>
<polygon style="opacity:0.5;fill:url(#SVGID_00000115476024736816479390000013626815759283124369_);enable-background:new    ;" points="
	43.6,51.6 34.9,51.6 34.9,98.3 43.8,98.3 "/>
<linearGradient id="SVGID_00000061464978510635351050000015197408687845199285_" gradientUnits="userSpaceOnUse" x1="36.8942" y1="-864.094" x2="36.8942" y2="-799.9789" gradientTransform="matrix(1 0 0 -1 0 -757.1023)">
	<stop  offset="0" style="stop-color:#9F9D9D"/>
	<stop  offset="0.1816" style="stop-color:#808080"/>
	<stop  offset="0.2933" style="stop-color:#9F9D9D"/>
	<stop  offset="0.5447" style="stop-color:#CCCCCC"/>
	<stop  offset="0.6732" style="stop-color:#FFFFFF"/>
	<stop  offset="0.8687" style="stop-color:#E4E3E3"/>
	<stop  offset="1" style="stop-color:#B3B3B3"/>
</linearGradient>
<rect x="33.7" y="42.9" style="fill:url(#SVGID_00000061464978510635351050000015197408687845199285_);" width="6.3" height="64.1"/>
<linearGradient id="SVGID_00000085930665691511430770000002498797174827451278_" gradientUnits="userSpaceOnUse" x1="5.6298" y1="-860.6569" x2="5.6298" y2="-803.4899" gradientTransform="matrix(1 0 0 -1 0 -757.1023)">
	<stop  offset="0" style="stop-color:#9F9D9D"/>
	<stop  offset="0.1816" style="stop-color:#808080"/>
	<stop  offset="0.2933" style="stop-color:#9F9D9D"/>
	<stop  offset="0.5447" style="stop-color:#CCCCCC"/>
	<stop  offset="0.6732" style="stop-color:#FFFFFF"/>
	<stop  offset="0.8687" style="stop-color:#E4E3E3"/>
	<stop  offset="1" style="stop-color:#B3B3B3"/>
</linearGradient>
<path style="fill:url(#SVGID_00000085930665691511430770000002498797174827451278_);" d="M9.7,103.6c-2.8-2.6-5.4-5.2-8.1-7.8V54.1
	C4.4,51.5,7,49,9.7,46.3C9.7,65.5,9.7,84.4,9.7,103.6z"/>
<linearGradient id="SVGID_00000102502086762637545090000007055567450720545982_" gradientUnits="userSpaceOnUse" x1="31.4081" y1="-864.094" x2="31.4081" y2="-799.9789" gradientTransform="matrix(1 0 0 -1 0 -757.1023)">
	<stop  offset="0" style="stop-color:#9F9D9D"/>
	<stop  offset="0.1816" style="stop-color:#808080"/>
	<stop  offset="0.2933" style="stop-color:#9F9D9D"/>
	<stop  offset="0.5447" style="stop-color:#CCCCCC"/>
	<stop  offset="0.6732" style="stop-color:#FFFFFF"/>
	<stop  offset="0.8687" style="stop-color:#E4E3E3"/>
	<stop  offset="1" style="stop-color:#B3B3B3"/>
</linearGradient>
<path style="fill:url(#SVGID_00000102502086762637545090000007055567450720545982_);" d="M33.7,107c-1.6-0.8-3-1.7-4.6-2.5V45.4
	c1.6-0.8,3-1.7,4.6-2.5C33.7,64.3,33.7,85.7,33.7,107z"/>
<linearGradient id="SVGID_00000096750897334026913590000004513568336237978766_" gradientUnits="userSpaceOnUse" x1="9.702" y1="-832.0364" x2="1.5737" y2="-832.0364" gradientTransform="matrix(1 0 0 -1 0 -757.1023)">
	<stop  offset="0" style="stop-color:#B3B3B3;stop-opacity:0.5"/>
	<stop  offset="1" style="stop-color:#B3B3B3;stop-opacity:0"/>
</linearGradient>
<path style="opacity:0.53;fill:url(#SVGID_00000096750897334026913590000004513568336237978766_);enable-background:new    ;" d="
	M9.7,103.6c-2.8-2.6-5.4-5.2-8.1-7.8V54.1C4.4,51.5,7,49,9.7,46.3C9.7,65.5,9.7,84.4,9.7,103.6z"/>
<linearGradient id="SVGID_00000042733864015402379220000013615142084374246027_" gradientUnits="userSpaceOnUse" x1="33.7462" y1="-832.0364" x2="29.044" y2="-832.0364" gradientTransform="matrix(1 0 0 -1 0 -757.1023)">
	<stop  offset="0" style="stop-color:#B3B3B3;stop-opacity:0.5"/>
	<stop  offset="1" style="stop-color:#B3B3B3;stop-opacity:0"/>
</linearGradient>
<path style="opacity:0.53;fill:url(#SVGID_00000042733864015402379220000013615142084374246027_);enable-background:new    ;" d="
	M33.7,107c-1.6-0.8-3-1.7-4.6-2.5V45.4c1.6-0.8,3-1.7,4.6-2.5C33.7,64.3,33.7,85.7,33.7,107z"/>
<image style="overflow:visible;" width="200" height="200" xlink:href="../../pepsi.png"  transform="matrix(0.108 0 0 0.108 103.0738 62.4163)">
</image>
</svg>
