<?xml version="1.0" encoding="utf-8"?>
<!-- Generator: Adobe Illustrator 25.4.1, SVG Export Plug-In . SVG Version: 6.00 Build 0)  -->
<svg version="1.1" id="Слой_1" xmlns="http://www.w3.org/2000/svg" xmlns:xlink="http://www.w3.org/1999/xlink" x="0px" y="0px"
	 viewBox="0 0 100 160" style="enable-background:new 0 0 100 160;" xml:space="preserve">
<style type="text/css">
	.st0{fill:#B3B3B3;}
	.st1{clip-path:url(#SVGID_00000031183237135484987340000016579695845158045056_);}
	.st2{clip-path:url(#SVGID_00000138541379119789916140000001901759669041325982_);}
	.st3{fill:#58595B;}
</style>
<path class="st0" d="M41.4,42.7c-20.7,0-37.5,16.8-37.5,37.5s16.8,37.5,37.5,37.5s37.5-16.8,37.5-37.5S62.1,42.7,41.4,42.7z
	 M41.4,98.5C31.2,98.5,23,90.2,23,80.1s8.2-18.4,18.4-18.4s18.4,8.2,18.4,18.4S51.5,98.5,41.4,98.5z"/>
<g>
	<g>
		<defs>
			<rect id="SVGID_1_" x="86.5" y="42.7" width="5.7" height="19.1"/>
		</defs>
		<clipPath id="SVGID_00000083796152231384973460000006218758321931279785_">
			<use xlink:href="#SVGID_1_"  style="overflow:visible;"/>
		</clipPath>
		<g style="clip-path:url(#SVGID_00000083796152231384973460000006218758321931279785_);">
			
				<image style="overflow:visible;enable-background:new    ;" width="1200" height="900" xlink:href="../../Фитинги/Резьбовые/Металл.jpg"  transform="matrix(0.105 0 0 0.105 -8.5646 32.8027)">
			</image>
		</g>
	</g>
</g>
<g>
	<g>
		<defs>
			<rect id="SVGID_00000183245184457182099820000008407266995401753254_" x="86.5" y="98.5" width="5.7" height="19.1"/>
		</defs>
		<clipPath id="SVGID_00000008127406230720111680000008397768997414716810_">
			<use xlink:href="#SVGID_00000183245184457182099820000008407266995401753254_"  style="overflow:visible;"/>
		</clipPath>
		<g style="clip-path:url(#SVGID_00000008127406230720111680000008397768997414716810_);">
			
				<image style="overflow:visible;enable-background:new    ;" width="1200" height="900" xlink:href="../../Фитинги/Резьбовые/Металл.jpg"  transform="matrix(0.105 0 0 0.105 -7.5885 35.243)">
			</image>
		</g>
	</g>
</g>
<rect x="86.5" y="61.7" class="st3" width="5.7" height="36.8"/>
<image style="overflow:visible;" width="200" height="200" xlink:href="../../pepsi.png"  transform="matrix(5.205072e-02 0 0 5.205072e-02 7.6085 73.352)">
</image>
</svg>
