<?xml version="1.0" encoding="utf-8"?>
<!-- Generator: Adobe Illustrator 25.4.1, SVG Export Plug-In . SVG Version: 6.00 Build 0)  -->
<svg version="1.1" id="Слой_1" xmlns="http://www.w3.org/2000/svg" xmlns:xlink="http://www.w3.org/1999/xlink" x="0px" y="0px"
	 viewBox="0 0 300 480" style="enable-background:new 0 0 300 480;" xml:space="preserve">
<style type="text/css">
	.st0{clip-path:url(#SVGID_00000176027528234818113200000010864138534849865904_);}
	.st1{fill:none;stroke:#CCCCCC;stroke-miterlimit:10;}
	.st2{fill:url(#SVGID_00000003063245636998496330000009268505723632073887_);}
	.st3{fill:url(#SVGID_00000025441202237245979450000000055552056192707220_);}
	.st4{fill:url(#SVGID_00000070102736329392759260000009339338857002320016_);}
	.st5{opacity:0.53;fill:url(#SVGID_00000034770423907433780630000001982695436562599299_);enable-background:new    ;}
	.st6{fill:url(#SVGID_00000065040465524530846540000010549630998896147641_);}
	.st7{fill:url(#SVGID_00000041282495649379406110000005205681620217394090_);}
	.st8{fill:url(#SVGID_00000047020751276885036420000013850596026282587822_);}
	.st9{fill:url(#SVGID_00000027582500036509667690000007967734372644850315_);}
	.st10{fill:url(#SVGID_00000054224852115235730970000005167185318057202612_);}
	.st11{fill:url(#SVGID_00000150082724557330305950000010776201512093593502_);}
	.st12{fill:url(#SVGID_00000170276218292942009100000011006652799928805263_);}
	.st13{fill:url(#SVGID_00000089541184478669057230000009678267101082994085_);}
	.st14{fill:url(#SVGID_00000064353837715312473410000012785512881492439196_);}
	.st15{fill:url(#SVGID_00000078043724929559858840000003701142677585326477_);}
	.st16{fill:url(#SVGID_00000001630966520798828830000008275030475238666423_);}
	.st17{fill:url(#SVGID_00000052072824110050700200000001127960711367551420_);}
	.st18{fill:url(#SVGID_00000151520919041658782600000012923449411400818071_);}
	.st19{fill:url(#SVGID_00000153698835069518629990000004726674555356941236_);}
	.st20{fill:url(#SVGID_00000008116480409364893780000006949526007354844335_);}
	.st21{fill:url(#SVGID_00000136369729810663375610000011494934334856295080_);}
	.st22{opacity:0.5;fill:url(#SVGID_00000178205714178652582930000015005964727519022722_);enable-background:new    ;}
	.st23{fill:#FFFFFF;}
	.st24{fill:#6B6B6B;}
	.st25{fill:url(#SVGID_00000140726459996925985940000016583164013516557707_);}
	.st26{fill:url(#SVGID_00000139261280591986717400000004018471973562084767_);}
	.st27{fill:url(#SVGID_00000086677015992182242050000011954673867734462612_);}
	.st28{fill:url(#SVGID_00000141422265051189837140000008331550349899088028_);}
	.st29{fill:url(#SVGID_00000142177945610184735920000014351970750559087012_);}
	.st30{fill:url(#SVGID_00000085242151617771670040000011148798254242220190_);}
	.st31{fill:url(#SVGID_00000015343680808128470320000007511176477865298562_);}
	.st32{fill:url(#SVGID_00000070097356253216892770000009678306895240023179_);}
</style>
<g>
	<g>
		<defs>
			<path id="SVGID_00000019660444675414110300000012589507932435452573_" d="M237,282c0-6.3-0.1-12.4-0.1-18.7l-5.1-15.1h-36.7
				l-5.4,15.1v16.9h-10.6h-3.4h-4.6l-7.4-11.8c-2,3.9-4.1,7.8-6.1,11.8l-7.4-11.8c-2,3.9-4.1,7.8-6.1,11.8l-7.4-11.8
				c-2,3.9-4.1,7.8-6.1,11.8l-7.4-11.8c-2,3.9-4.1,7.8-6.1,11.8l-7.4-11.8c-2,3.9-4.1,7.9-6.1,11.8l-7.4-11.8
				c-2,3.9-4.1,7.9-6.1,11.8l0,0l-7.4-11.8l-6.8,11.8c0,0.2,0,0.5-0.1,0.7h-6.7c0,1.5-0.1,3.1-0.1,4.6c-1.8,5.9-3.5,11.7-5.2,17.6
				v111.6c1.8,5.8,3.4,11.6,5.2,17.5c0.1,1.9,0.1,3.7,0.2,5.5c2.4,0,4.6,0,7,0h8.6v-0.1l0,0c2.5,3.9,5,7.9,7.4,11.8l6.1-12.6
				c2.5,4.3,5,8.4,7.4,12.6c2-4.3,4.1-8.4,6.1-12.6c2.5,4.3,5,8.4,7.4,12.6l6.1-12.6c2.5,4.3,5,8.4,7.4,12.6c2-4.3,4.1-8.4,6.1-12.6
				c2.5,4.3,5,8.4,7.4,12.6l6.1-12.6c2.5,4.3,5,8.4,7.4,12.6c2-4.3,4.1-8.4,6.1-12.6c2.5,4.3,5,8.4,7.4,12.6l6.1-12.5h10.6
				c0,5.7,0,11.2,0,17c1.8,5.1,3.7,10.2,5.4,15.1h36.8l5.1-15.3v-19.7v-6.8v-44v-1.2c0-15.8,0-31.9,0-47.7v-0.4L237,282L237,282z"/>
		</defs>
		<clipPath id="SVGID_00000172402335337254867520000017263159395811945609_">
			<use xlink:href="#SVGID_00000019660444675414110300000012589507932435452573_"  style="overflow:visible;"/>
		</clipPath>
		<g style="clip-path:url(#SVGID_00000172402335337254867520000017263159395811945609_);">
			
				<image style="overflow:visible;enable-background:new    ;" width="1200" height="900" xlink:href="../../Фитинги/Резьбовые/Металл.jpg"  transform="matrix(0.2612 0 0 0.2612 21.2914 237.9344)">
			</image>
		</g>
	</g>
	<g>
		<path id="SVGID_1_" class="st1" d="M237,282c0-6.3-0.1-12.4-0.1-18.7l-5.1-15.1h-36.7l-5.4,15.1v16.9h-10.6h-3.4h-4.6l-7.4-11.8
			c-2,3.9-4.1,7.8-6.1,11.8l-7.4-11.8c-2,3.9-4.1,7.8-6.1,11.8l-7.4-11.8c-2,3.9-4.1,7.8-6.1,11.8l-7.4-11.8
			c-2,3.9-4.1,7.8-6.1,11.8l-7.4-11.8c-2,3.9-4.1,7.9-6.1,11.8l-7.4-11.8c-2,3.9-4.1,7.9-6.1,11.8l0,0l-7.4-11.8l-6.8,11.8
			c0,0.2,0,0.5-0.1,0.7h-6.7c0,1.5-0.1,3.1-0.1,4.6c-1.8,5.9-3.5,11.7-5.2,17.6v111.6c1.8,5.8,3.4,11.6,5.2,17.5
			c0.1,1.9,0.1,3.7,0.2,5.5c2.4,0,4.6,0,7,0h8.6v-0.1l0,0c2.5,3.9,5,7.9,7.4,11.8l6.1-12.6c2.5,4.3,5,8.4,7.4,12.6
			c2-4.3,4.1-8.4,6.1-12.6c2.5,4.3,5,8.4,7.4,12.6l6.1-12.6c2.5,4.3,5,8.4,7.4,12.6c2-4.3,4.1-8.4,6.1-12.6c2.5,4.3,5,8.4,7.4,12.6
			l6.1-12.6c2.5,4.3,5,8.4,7.4,12.6c2-4.3,4.1-8.4,6.1-12.6c2.5,4.3,5,8.4,7.4,12.6l6.1-12.5h10.6c0,5.7,0,11.2,0,17
			c1.8,5.1,3.7,10.2,5.4,15.1h36.8l5.1-15.3v-19.7v-6.8v-44v-1.2c0-15.8,0-31.9,0-47.7v-0.4L237,282L237,282z"/>
	</g>
</g>
<linearGradient id="SVGID_00000059996565986642133180000011994780878220717220_" gradientUnits="userSpaceOnUse" x1="187.1663" y1="283.8317" x2="187.1663" y2="442.0333" gradientTransform="matrix(1 0 0 -1 0 482)">
	<stop  offset="0" style="stop-color:#9F9D9D"/>
	<stop  offset="0.1816" style="stop-color:#808080"/>
	<stop  offset="0.2933" style="stop-color:#9F9D9D"/>
	<stop  offset="0.5447" style="stop-color:#CCCCCC"/>
	<stop  offset="0.6732" style="stop-color:#FFFFFF"/>
	<stop  offset="0.8687" style="stop-color:#E4E3E3"/>
	<stop  offset="1" style="stop-color:#B3B3B3"/>
</linearGradient>
<rect x="166.1" y="40" style="fill:url(#SVGID_00000059996565986642133180000011994780878220717220_);" width="42.1" height="158.2"/>
<linearGradient id="SVGID_00000073679203198873069480000010359527216667459217_" gradientUnits="userSpaceOnUse" x1="5643.2856" y1="283.1233" x2="5643.2856" y2="441.3249" gradientTransform="matrix(-1 0 0 -1 5714.0439 482)">
	<stop  offset="0" style="stop-color:#9F9D9D"/>
	<stop  offset="0.1816" style="stop-color:#808080"/>
	<stop  offset="0.2933" style="stop-color:#9F9D9D"/>
	<stop  offset="0.5447" style="stop-color:#CCCCCC"/>
	<stop  offset="0.6732" style="stop-color:#FFFFFF"/>
	<stop  offset="0.8687" style="stop-color:#E4E3E3"/>
	<stop  offset="1" style="stop-color:#B3B3B3"/>
</linearGradient>
<polygon style="fill:url(#SVGID_00000073679203198873069480000010359527216667459217_);" points="67.3,198.9 74.2,198.9 74.2,40.7 
	67.3,40.7 "/>
<linearGradient id="SVGID_00000091705029964473389920000001570295465641658757_" gradientUnits="userSpaceOnUse" x1="5649.4839" y1="307.3436" x2="5649.4839" y2="456.4545" gradientTransform="matrix(-1 0 0 -1 5714.0439 482)">
	<stop  offset="0" style="stop-color:#9F9D9D"/>
	<stop  offset="0.1816" style="stop-color:#808080"/>
	<stop  offset="0.2933" style="stop-color:#9F9D9D"/>
	<stop  offset="0.5447" style="stop-color:#CCCCCC"/>
	<stop  offset="0.6732" style="stop-color:#FFFFFF"/>
	<stop  offset="0.8687" style="stop-color:#E4E3E3"/>
	<stop  offset="1" style="stop-color:#B3B3B3"/>
</linearGradient>
<path style="fill:url(#SVGID_00000091705029964473389920000001570295465641658757_);" d="M61.8,175.7c1.8,6,3.7,12.2,5.4,18.2
	c0-49.7,0-99.4,0-149.1c-1.8,6-3.7,12.2-5.4,18.2V175.7z"/>
<linearGradient id="SVGID_00000011748328965268957890000017225787455058464424_" gradientUnits="userSpaceOnUse" x1="5647.4834" y1="362.6373" x2="5652.9141" y2="362.6373" gradientTransform="matrix(-1 0 0 -1 5714.0439 482)">
	<stop  offset="0" style="stop-color:#B3B3B3;stop-opacity:0.5"/>
	<stop  offset="1" style="stop-color:#B3B3B3;stop-opacity:0"/>
</linearGradient>
<path style="opacity:0.53;fill:url(#SVGID_00000011748328965268957890000017225787455058464424_);enable-background:new    ;" d="
	M61.8,175.7c1.8,6,3.7,12.2,5.4,18.2c0-49.7,0-99.4,0-149.1c-1.8,6-3.7,12.2-5.4,18.2C61.8,63,61.8,175.7,61.8,175.7z"/>
<linearGradient id="SVGID_00000032608260137478166910000015796673062188625028_" gradientUnits="userSpaceOnUse" x1="88.9986" y1="559.9574" x2="88.9986" y2="377.1992" gradientTransform="matrix(1 0 0 -1 0 588)">
	<stop  offset="0" style="stop-color:#939598"/>
	<stop  offset="0.1927" style="stop-color:#6D6E71"/>
	<stop  offset="0.3045" style="stop-color:#808080"/>
	<stop  offset="0.6844" style="stop-color:#CCCCCC"/>
	<stop  offset="0.8966" style="stop-color:#808285"/>
	<stop  offset="1" style="stop-color:#B3B3B3"/>
</linearGradient>
<polygon style="fill:url(#SVGID_00000032608260137478166910000015796673062188625028_);" points="81.2,28 88.6,40 96.8,198.1 
	90.5,210.8 "/>
<linearGradient id="SVGID_00000118377614737177044470000014201462385681911189_" gradientUnits="userSpaceOnUse" x1="-6370.0171" y1="1093.097" x2="-6370.0171" y2="1265.5105" gradientTransform="matrix(-1 0 0 -1.06 -6287.6299 1345.8)">
	<stop  offset="0" style="stop-color:#B3B3B3"/>
	<stop  offset="0.1201" style="stop-color:#808285"/>
	<stop  offset="0.2877" style="stop-color:#939597"/>
	<stop  offset="0.4162" style="stop-color:#D1D3D4"/>
	<stop  offset="0.5168" style="stop-color:#A7A9AC"/>
	<stop  offset="0.662" style="stop-color:#F1F2F2"/>
	<stop  offset="0.8519" style="stop-color:#B3B3B3"/>
	<stop  offset="0.919" style="stop-color:#E6E7E8"/>
	<stop  offset="1" style="stop-color:#919396"/>
</linearGradient>
<polygon style="fill:url(#SVGID_00000118377614737177044470000014201462385681911189_);" points="81.2,28 90.5,210.8 83,198.9 
	74.2,40 "/>
<linearGradient id="SVGID_00000107565256521356621300000000822715906886868097_" gradientUnits="userSpaceOnUse" x1="102.6937" y1="559.9574" x2="102.6937" y2="377.1992" gradientTransform="matrix(1 0 0 -1 0 588)">
	<stop  offset="0" style="stop-color:#939598"/>
	<stop  offset="0.1927" style="stop-color:#6D6E71"/>
	<stop  offset="0.3045" style="stop-color:#808080"/>
	<stop  offset="0.6844" style="stop-color:#CCCCCC"/>
	<stop  offset="0.8966" style="stop-color:#808285"/>
	<stop  offset="1" style="stop-color:#B3B3B3"/>
</linearGradient>
<polygon style="fill:url(#SVGID_00000107565256521356621300000000822715906886868097_);" points="94.9,28 102.3,40 110.5,198.1 
	104.2,210.8 "/>
<linearGradient id="SVGID_00000181788231159550651180000006600996815869655990_" gradientUnits="userSpaceOnUse" x1="-6384.0073" y1="1093.097" x2="-6384.0073" y2="1265.5105" gradientTransform="matrix(-1 0 0 -1.06 -6287.6299 1345.8)">
	<stop  offset="0" style="stop-color:#B3B3B3"/>
	<stop  offset="0.1201" style="stop-color:#808285"/>
	<stop  offset="0.2877" style="stop-color:#939597"/>
	<stop  offset="0.4162" style="stop-color:#D1D3D4"/>
	<stop  offset="0.5168" style="stop-color:#A7A9AC"/>
	<stop  offset="0.662" style="stop-color:#F1F2F2"/>
	<stop  offset="0.8519" style="stop-color:#B3B3B3"/>
	<stop  offset="0.919" style="stop-color:#E6E7E8"/>
	<stop  offset="1" style="stop-color:#919396"/>
</linearGradient>
<path style="fill:url(#SVGID_00000181788231159550651180000006600996815869655990_);" d="M94.9,28l9.3,182.8
	c-2.5-4.3-5-8.5-7.6-12.8C94,145.4,91.2,92.6,88.5,40C90.8,36,92.8,31.9,94.9,28z"/>
<linearGradient id="SVGID_00000078754651909638687940000007467915240885057416_" gradientUnits="userSpaceOnUse" x1="116.3888" y1="559.9574" x2="116.3888" y2="377.1992" gradientTransform="matrix(1 0 0 -1 0 588)">
	<stop  offset="0" style="stop-color:#939598"/>
	<stop  offset="0.1927" style="stop-color:#6D6E71"/>
	<stop  offset="0.3045" style="stop-color:#808080"/>
	<stop  offset="0.6844" style="stop-color:#CCCCCC"/>
	<stop  offset="0.8966" style="stop-color:#808285"/>
	<stop  offset="1" style="stop-color:#B3B3B3"/>
</linearGradient>
<polygon style="fill:url(#SVGID_00000078754651909638687940000007467915240885057416_);" points="108.6,28 116.2,40 124.2,198.1 
	118,210.8 "/>
<linearGradient id="SVGID_00000114790846596152157950000005402489587394770358_" gradientUnits="userSpaceOnUse" x1="-6397.8203" y1="1093.097" x2="-6397.8203" y2="1265.5105" gradientTransform="matrix(-1 0 0 -1.06 -6287.6299 1345.8)">
	<stop  offset="0" style="stop-color:#B3B3B3"/>
	<stop  offset="0.1201" style="stop-color:#808285"/>
	<stop  offset="0.2877" style="stop-color:#939597"/>
	<stop  offset="0.4162" style="stop-color:#D1D3D4"/>
	<stop  offset="0.5168" style="stop-color:#A7A9AC"/>
	<stop  offset="0.662" style="stop-color:#F1F2F2"/>
	<stop  offset="0.8519" style="stop-color:#B3B3B3"/>
	<stop  offset="0.919" style="stop-color:#E6E7E8"/>
	<stop  offset="1" style="stop-color:#919396"/>
</linearGradient>
<path style="fill:url(#SVGID_00000114790846596152157950000005402489587394770358_);" d="M108.6,28l9.4,182.8
	c-2.5-4.3-5-8.5-7.6-12.8c-2.7-52.7-5.4-105.4-8.1-158.1C104.5,36,106.6,31.9,108.6,28z"/>
<linearGradient id="SVGID_00000091700384170160100090000012329822659611147912_" gradientUnits="userSpaceOnUse" x1="130.1429" y1="559.9574" x2="130.1429" y2="377.1992" gradientTransform="matrix(1 0 0 -1 0 588)">
	<stop  offset="0" style="stop-color:#939598"/>
	<stop  offset="0.1927" style="stop-color:#6D6E71"/>
	<stop  offset="0.3045" style="stop-color:#808080"/>
	<stop  offset="0.6844" style="stop-color:#CCCCCC"/>
	<stop  offset="0.8966" style="stop-color:#808285"/>
	<stop  offset="1" style="stop-color:#B3B3B3"/>
</linearGradient>
<polygon style="fill:url(#SVGID_00000091700384170160100090000012329822659611147912_);" points="122.3,28 129.8,40 138,198.1 
	131.7,210.8 "/>
<linearGradient id="SVGID_00000176732542787450392990000012355519949948851073_" gradientUnits="userSpaceOnUse" x1="-6411.5156" y1="1093.097" x2="-6411.5156" y2="1265.5105" gradientTransform="matrix(-1 0 0 -1.06 -6287.6299 1345.8)">
	<stop  offset="0" style="stop-color:#B3B3B3"/>
	<stop  offset="0.1201" style="stop-color:#808285"/>
	<stop  offset="0.2877" style="stop-color:#939597"/>
	<stop  offset="0.4162" style="stop-color:#D1D3D4"/>
	<stop  offset="0.5168" style="stop-color:#A7A9AC"/>
	<stop  offset="0.662" style="stop-color:#F1F2F2"/>
	<stop  offset="0.8519" style="stop-color:#B3B3B3"/>
	<stop  offset="0.919" style="stop-color:#E6E7E8"/>
	<stop  offset="1" style="stop-color:#919396"/>
</linearGradient>
<path style="fill:url(#SVGID_00000176732542787450392990000012355519949948851073_);" d="M122.3,28l9.4,182.8
	c-2.5-4.3-5-8.5-7.6-12.8c-2.7-52.7-5.4-105.4-8.1-158.1C118.2,36,120.3,31.9,122.3,28z"/>
<linearGradient id="SVGID_00000085947597416709183070000015049529517252454788_" gradientUnits="userSpaceOnUse" x1="143.897" y1="559.9574" x2="143.897" y2="377.1992" gradientTransform="matrix(1 0 0 -1 0 588)">
	<stop  offset="0" style="stop-color:#939598"/>
	<stop  offset="0.1927" style="stop-color:#6D6E71"/>
	<stop  offset="0.3045" style="stop-color:#808080"/>
	<stop  offset="0.6844" style="stop-color:#CCCCCC"/>
	<stop  offset="0.8966" style="stop-color:#808285"/>
	<stop  offset="1" style="stop-color:#B3B3B3"/>
</linearGradient>
<polygon style="fill:url(#SVGID_00000085947597416709183070000015049529517252454788_);" points="136.1,28 143.5,40 151.7,198.1 
	145.4,210.8 "/>
<linearGradient id="SVGID_00000070093222172446094600000001430321441489953207_" gradientUnits="userSpaceOnUse" x1="-6425.2104" y1="1093.097" x2="-6425.2104" y2="1265.5105" gradientTransform="matrix(-1 0 0 -1.06 -6287.6299 1345.8)">
	<stop  offset="0" style="stop-color:#B3B3B3"/>
	<stop  offset="0.1201" style="stop-color:#808285"/>
	<stop  offset="0.2877" style="stop-color:#939597"/>
	<stop  offset="0.4162" style="stop-color:#D1D3D4"/>
	<stop  offset="0.5168" style="stop-color:#A7A9AC"/>
	<stop  offset="0.662" style="stop-color:#F1F2F2"/>
	<stop  offset="0.8519" style="stop-color:#B3B3B3"/>
	<stop  offset="0.919" style="stop-color:#E6E7E8"/>
	<stop  offset="1" style="stop-color:#919396"/>
</linearGradient>
<path style="fill:url(#SVGID_00000070093222172446094600000001430321441489953207_);" d="M136.1,28l9.3,182.8
	c-2.5-4.3-5-8.5-7.6-12.8c-2.7-52.7-5.4-105.4-8.1-158.1C131.9,36,134,31.9,136.1,28z"/>
<linearGradient id="SVGID_00000147188091024853991400000007791320034036071319_" gradientUnits="userSpaceOnUse" x1="157.592" y1="559.9574" x2="157.592" y2="377.1992" gradientTransform="matrix(1 0 0 -1 0 588)">
	<stop  offset="0" style="stop-color:#939598"/>
	<stop  offset="0.1927" style="stop-color:#6D6E71"/>
	<stop  offset="0.3045" style="stop-color:#808080"/>
	<stop  offset="0.6844" style="stop-color:#CCCCCC"/>
	<stop  offset="0.8966" style="stop-color:#808285"/>
	<stop  offset="1" style="stop-color:#B3B3B3"/>
</linearGradient>
<polygon style="fill:url(#SVGID_00000147188091024853991400000007791320034036071319_);" points="149.8,28 157.2,40 165.4,198.1 
	159.1,210.8 "/>
<linearGradient id="SVGID_00000059297766214166759570000004315908854983892657_" gradientUnits="userSpaceOnUse" x1="-6438.9058" y1="1093.097" x2="-6438.9058" y2="1265.5105" gradientTransform="matrix(-1 0 0 -1.06 -6287.6299 1345.8)">
	<stop  offset="0" style="stop-color:#B3B3B3"/>
	<stop  offset="0.1201" style="stop-color:#808285"/>
	<stop  offset="0.2877" style="stop-color:#939597"/>
	<stop  offset="0.4162" style="stop-color:#D1D3D4"/>
	<stop  offset="0.5168" style="stop-color:#A7A9AC"/>
	<stop  offset="0.662" style="stop-color:#F1F2F2"/>
	<stop  offset="0.8519" style="stop-color:#B3B3B3"/>
	<stop  offset="0.919" style="stop-color:#E6E7E8"/>
	<stop  offset="1" style="stop-color:#919396"/>
</linearGradient>
<path style="fill:url(#SVGID_00000059297766214166759570000004315908854983892657_);" d="M149.8,28l9.3,182.8
	c-2.5-4.3-5-8.5-7.6-12.8c-2.7-52.7-5.4-105.4-8.1-158.1C145.5,36,147.7,31.9,149.8,28z"/>
<linearGradient id="SVGID_00000031185275072222695360000009544349658618299036_" gradientUnits="userSpaceOnUse" x1="171.2871" y1="559.9574" x2="171.2871" y2="377.1992" gradientTransform="matrix(1 0 0 -1 0 588)">
	<stop  offset="0" style="stop-color:#939598"/>
	<stop  offset="0.1927" style="stop-color:#6D6E71"/>
	<stop  offset="0.3045" style="stop-color:#808080"/>
	<stop  offset="0.6844" style="stop-color:#CCCCCC"/>
	<stop  offset="0.8966" style="stop-color:#808285"/>
	<stop  offset="1" style="stop-color:#B3B3B3"/>
</linearGradient>
<polygon style="fill:url(#SVGID_00000031185275072222695360000009544349658618299036_);" points="163.5,28 170.9,40 179.1,198.1 
	172.8,210.8 "/>
<linearGradient id="SVGID_00000088103712346796432090000003355320646918941585_" gradientUnits="userSpaceOnUse" x1="-6452.6006" y1="1093.097" x2="-6452.6006" y2="1265.5105" gradientTransform="matrix(-1 0 0 -1.06 -6287.6299 1345.8)">
	<stop  offset="0" style="stop-color:#B3B3B3"/>
	<stop  offset="0.1201" style="stop-color:#808285"/>
	<stop  offset="0.2877" style="stop-color:#939597"/>
	<stop  offset="0.4162" style="stop-color:#D1D3D4"/>
	<stop  offset="0.5168" style="stop-color:#A7A9AC"/>
	<stop  offset="0.662" style="stop-color:#F1F2F2"/>
	<stop  offset="0.8519" style="stop-color:#B3B3B3"/>
	<stop  offset="0.919" style="stop-color:#E6E7E8"/>
	<stop  offset="1" style="stop-color:#919396"/>
</linearGradient>
<path style="fill:url(#SVGID_00000088103712346796432090000003355320646918941585_);" d="M163.5,28l9.3,182.8
	c-2.5-4.3-5-8.5-7.6-12.8c-2.7-52.7-5.4-105.4-8.1-158.1C159.4,36,161.4,31.9,163.5,28z"/>
<linearGradient id="SVGID_00000180326391429228856870000002107868803761424817_" gradientUnits="userSpaceOnUse" x1="175.006" y1="283.9497" x2="175.006" y2="442.0333" gradientTransform="matrix(1 0 0 -1 0 482)">
	<stop  offset="0" style="stop-color:#B3B3B3"/>
	<stop  offset="0.1201" style="stop-color:#808285"/>
	<stop  offset="0.2877" style="stop-color:#939597"/>
	<stop  offset="0.4162" style="stop-color:#D1D3D4"/>
	<stop  offset="0.5168" style="stop-color:#A7A9AC"/>
	<stop  offset="0.662" style="stop-color:#F1F2F2"/>
	<stop  offset="0.8519" style="stop-color:#B3B3B3"/>
	<stop  offset="0.919" style="stop-color:#E6E7E8"/>
	<stop  offset="1" style="stop-color:#919396"/>
</linearGradient>
<path style="fill:url(#SVGID_00000180326391429228856870000002107868803761424817_);" d="M170.9,40c2.7,0,5.4,0,8.1,0v158.1
	C176.4,145.3,173.6,92.6,170.9,40z"/>
<linearGradient id="SVGID_00000016789535187240377780000018436130772808235400_" gradientUnits="userSpaceOnUse" x1="78.6093" y1="442.0333" x2="78.6093" y2="283.1233" gradientTransform="matrix(1 0 0 -1 0 482)">
	<stop  offset="0" style="stop-color:#939598"/>
	<stop  offset="0.1927" style="stop-color:#6D6E71"/>
	<stop  offset="0.3045" style="stop-color:#808080"/>
	<stop  offset="0.6844" style="stop-color:#CCCCCC"/>
	<stop  offset="0.8966" style="stop-color:#808285"/>
	<stop  offset="1" style="stop-color:#B3B3B3"/>
</linearGradient>
<polygon style="fill:url(#SVGID_00000016789535187240377780000018436130772808235400_);" points="74.2,40 74.2,198.9 83,198.9 "/>
<linearGradient id="SVGID_00000109741841740810574600000013380298692715148717_" gradientUnits="userSpaceOnUse" x1="8581.791" y1="-2783.7307" x2="8603.2812" y2="-2783.7307" gradientTransform="matrix(-1 0 0 1 8778.8564 2902.7393)">
	<stop  offset="0" style="stop-color:#3F3B3C"/>
	<stop  offset="1" style="stop-color:#3F3B3C;stop-opacity:0"/>
</linearGradient>
<polygon style="opacity:0.5;fill:url(#SVGID_00000109741841740810574600000013380298692715148717_);enable-background:new    ;" points="
	175.9,198.1 197.4,198.1 197.4,40 175.5,40 "/>
<g>
	<rect x="233.7" y="41.7" class="st23" width="3.9" height="52.5"/>
	<rect x="233.7" y="142.4" class="st24" width="3.9" height="52.5"/>
	<rect x="189.7" y="142.4" class="st24" width="3.9" height="52.5"/>
	<rect x="189.7" y="41.7" class="st23" width="3.8" height="52.5"/>
	
		<linearGradient id="SVGID_00000053521713383008114320000002512216626496768690_" gradientUnits="userSpaceOnUse" x1="-115.04" y1="646.6929" x2="-115.04" y2="704.7789" gradientTransform="matrix(1 0 0 1 328.5929 -474.2667)">
		<stop  offset="6.983240e-02" style="stop-color:#58595B"/>
		<stop  offset="0.3715" style="stop-color:#808285"/>
		<stop  offset="0.4888" style="stop-color:#6D6E71"/>
		<stop  offset="0.6397" style="stop-color:#838587"/>
		<stop  offset="0.824" style="stop-color:#BCBEC0"/>
		<stop  offset="1" style="stop-color:#BAB9B9"/>
	</linearGradient>
	<path style="fill:url(#SVGID_00000053521713383008114320000002512216626496768690_);" d="M192.8,172.4l-3.1,15.9v26.6l5.5,15.3
		h37.1l5.1-15.3v-26.8c-0.9-5.3-1.7-10.6-2.6-15.9C221,172.4,206.8,172.4,192.8,172.4z"/>
	
		<linearGradient id="SVGID_00000044174615938313193340000005360562444151182237_" gradientUnits="userSpaceOnUse" x1="-114.981" y1="-2218.8147" x2="-114.981" y2="-2160.7288" gradientTransform="matrix(1 0 0 -1 328.5929 -2153.0693)">
		<stop  offset="0" style="stop-color:#F2F2F2"/>
		<stop  offset="1" style="stop-color:#CCCCCC"/>
	</linearGradient>
	<path style="fill:url(#SVGID_00000044174615938313193340000005360562444151182237_);" d="M192.8,65.5l-3.1-15.9V22.8l5.5-15.3h37.1
		l5.1,15.3c0,8.9,0.1,17.5,0.1,26.4c-0.5,2.7-0.9,5.5-1.4,8.3c-0.5,2.7-0.9,5.3-1.3,8C221,65.5,206.8,65.5,192.8,65.5z"/>
	
		<linearGradient id="SVGID_00000036249206820411814190000009636443305955574402_" gradientUnits="userSpaceOnUse" x1="-114.922" y1="646.6951" x2="-114.922" y2="539.6138" gradientTransform="matrix(1 0 0 1 328.5929 -474.2667)">
		<stop  offset="0" style="stop-color:#E6E6E6"/>
		<stop  offset="0.263" style="stop-color:#E1E1E1"/>
		<stop  offset="0.5724" style="stop-color:#D3D3D3"/>
		<stop  offset="0.904" style="stop-color:#BBBBBB"/>
		<stop  offset="1" style="stop-color:#B3B3B3"/>
	</linearGradient>
	<path style="fill:url(#SVGID_00000036249206820411814190000009636443305955574402_);" d="M234.9,172.4c0.9-9.6,1.9-19.1,2.7-28.7
		c0-16.5,0-33.2,0-49.7c-0.4-4.7-0.9-9.6-1.3-14.3c-0.4-5-0.9-9.6-1.4-14.3c-14,0-28,0-42.1,0c-0.9,9.3-2,18.9-3.1,28.5
		c0,16.5,0,32.9,0,49.9l3.1,28.7c1.5,0,3.7,0,5.4,0C210.4,172.2,222.6,172.2,234.9,172.4C234.9,172.2,234.9,172.4,234.9,172.4z"/>
	
		<linearGradient id="SVGID_00000116930688742648676870000001207241120086246786_" gradientUnits="userSpaceOnUse" x1="-114.8039" y1="444.9242" x2="-114.8039" y2="386.4838" gradientTransform="matrix(1 0 0 -1 328.5929 617.1191)">
		<stop  offset="0" style="stop-color:#808080"/>
		<stop  offset="1" style="stop-color:#ABABAB"/>
	</linearGradient>
	<path style="fill:url(#SVGID_00000116930688742648676870000001207241120086246786_);" d="M192.8,172.2c0,0-0.9,5.3-1.4,8
		c-0.5,2.7-1.1,5.4-1.5,8.1c0,8.9,0,17.7,0,26.8c1.9,5.1,3.7,10.2,5.5,15.3h37.2l5.2-15.6v-26.8c-0.4-2.2-0.9-5.7-1.3-8
		c-0.4-2.2-1.3-7.9-1.3-7.9H192.8z"/>
</g>
<linearGradient id="SVGID_00000000923345058414196070000003023236572561000894_" gradientUnits="userSpaceOnUse" x1="127.9587" y1="124.2133" x2="127.9587" y2="124.2133" gradientTransform="matrix(1 0 0 -1 0 482)">
	<stop  offset="0" style="stop-color:#808080"/>
	<stop  offset="1" style="stop-color:#ABABAB"/>
</linearGradient>
<path style="fill:url(#SVGID_00000000923345058414196070000003023236572561000894_);" d="M128,357.8"/>
<linearGradient id="SVGID_00000159464579323367719790000014321427475197513611_" gradientUnits="userSpaceOnUse" x1="68.456" y1="108.7474" x2="68.456" y2="108.7474" gradientTransform="matrix(1 0 0 -1 0 482)">
	<stop  offset="0" style="stop-color:#808080"/>
	<stop  offset="1" style="stop-color:#ABABAB"/>
</linearGradient>
<path style="fill:url(#SVGID_00000159464579323367719790000014321427475197513611_);" d="M68.5,373.3"/>
<linearGradient id="SVGID_00000014628605127584065790000015432294719114373760_" gradientUnits="userSpaceOnUse" x1="153.8141" y1="194.3244" x2="153.8141" y2="83.4652" gradientTransform="matrix(1 0 0 -1 0 497.4489)">
	<stop  offset="0.2849" style="stop-color:#606060"/>
	<stop  offset="0.5139" style="stop-color:#999999"/>
	<stop  offset="0.6613" style="stop-color:#ACACAC"/>
	<stop  offset="0.8464" style="stop-color:#6E6E6F;stop-opacity:0.9913"/>
	<stop  offset="1" style="stop-color:#606060"/>
</linearGradient>
<rect x="70" y="303.1" style="fill:url(#SVGID_00000014628605127584065790000015432294719114373760_);" width="167.6" height="110.9"/>
<linearGradient id="SVGID_00000085247289336035302530000007013742328833961387_" gradientUnits="userSpaceOnUse" x1="66.2719" y1="195.0328" x2="66.2719" y2="82.7569" gradientTransform="matrix(1 0 0 -1 0 497.4489)">
	<stop  offset="0.2849" style="stop-color:#4D4D4D"/>
	<stop  offset="0.6613" style="stop-color:#ACACAC"/>
	<stop  offset="0.8464" style="stop-color:#6E6E6F;stop-opacity:0.9913"/>
	<stop  offset="1" style="stop-color:#606060"/>
</linearGradient>
<path style="fill:url(#SVGID_00000085247289336035302530000007013742328833961387_);" d="M62.6,302.4c2.5,0.2,5,0.5,7.4,0.7
	c0,37,0,73.9,0,110.9c-2.5,0.2-5,0.5-7.4,0.7C62.6,414.7,62.6,302.4,62.6,302.4z"/>
<image style="overflow:visible;" width="200" height="200" xlink:href="../../pepsi.png"  transform="matrix(0.1956 0 0 0.1956 193.9905 97.8752)">
</image>
</svg>
