<?xml version="1.0" encoding="utf-8"?>
<!-- Generator: Adobe Illustrator 25.4.1, SVG Export Plug-In . SVG Version: 6.00 Build 0)  -->
<svg version="1.1" id="Слой_1" xmlns="http://www.w3.org/2000/svg" xmlns:xlink="http://www.w3.org/1999/xlink" x="0px" y="0px"
	 viewBox="0 0 200 320" style="enable-background:new 0 0 200 320;" xml:space="preserve">
<style type="text/css">
	.st0{clip-path:url(#SVGID_00000130614242760942462500000009559092052356652416_);}
	.st1{fill:none;stroke:#BFBFBF;stroke-width:0.5;stroke-miterlimit:10;}
	.st2{fill:url(#SVGID_00000162331594699385247050000014896792292910134417_);}
	.st3{fill:url(#SVGID_00000125568952568892831390000000897223668614039983_);}
	.st4{opacity:0.5;fill:url(#SVGID_00000146463349972910194860000001238294547252006031_);enable-background:new    ;}
	.st5{fill:url(#SVGID_00000018232327165328085490000010166659427397412796_);}
	.st6{fill:url(#SVGID_00000023242591162612114310000002203000928611002015_);}
	.st7{fill:url(#SVGID_00000178927718326967856440000017441847639526591407_);}
	.st8{opacity:0.53;fill:url(#SVGID_00000029757169782973927240000005345065524124938400_);enable-background:new    ;}
	.st9{opacity:0.53;fill:url(#SVGID_00000083788994308895919460000009662542664344969655_);enable-background:new    ;}
	.st10{fill:url(#SVGID_00000134215076282984681290000012454769948630712752_);}
	.st11{fill:url(#SVGID_00000178183566263421784480000012747258064438072489_);}
	.st12{fill:url(#SVGID_00000119817561716450762970000016869353405414399403_);}
	.st13{fill:url(#SVGID_00000048469349090520197180000010633197469647443596_);}
</style>
<g>
	<g>
		<defs>
			<path id="SVGID_00000083791367439768381340000008043076614486850700_" d="M42.8,213.6h-3.4v-8.9h-6.2c-1.4,0.8-2.9,1.7-4.5,2.5
				H9.9v1.2c-2.4,2.5-5,5.1-7.5,7.7v41.5c2.4,2.5,5,5,7.5,7.7v1.2h18.9v-0.1c1.4,0.8,2.9,1.7,4.5,2.5h6.2v-8.8H43h154.8v-46.5H42.8z
				"/>
		</defs>
		<clipPath id="SVGID_00000138560647811076495720000005984269569425786522_">
			<use xlink:href="#SVGID_00000083791367439768381340000008043076614486850700_"  style="overflow:visible;"/>
		</clipPath>
		<g style="clip-path:url(#SVGID_00000138560647811076495720000005984269569425786522_);">
			
				<image style="overflow:visible;enable-background:new    ;" width="1200" height="900" xlink:href="../../Фитинги/Резьбовые/Металл.jpg"  transform="matrix(0.1881 0 0 0.1881 -7.5416 119.9913)">
			</image>
		</g>
	</g>
	<g>
		<path id="SVGID_1_" class="st1" d="M42.8,213.6h-3.4v-8.9h-6.2c-1.4,0.8-2.9,1.7-4.5,2.5H9.9v1.2c-2.4,2.5-5,5.1-7.5,7.7v41.5
			c2.4,2.5,5,5,7.5,7.7v1.2h18.9v-0.1c1.4,0.8,2.9,1.7,4.5,2.5h6.2v-8.8H43h154.8v-46.5H42.8z"/>
	</g>
</g>
<linearGradient id="SVGID_00000022554195486829506670000015711334869272463027_" gradientUnits="userSpaceOnUse" x1="118.6062" y1="62.2214" x2="118.6062" y2="108.7281" gradientTransform="matrix(1 0 0 -1 0 163.4489)">
	<stop  offset="0" style="stop-color:#9F9D9D"/>
	<stop  offset="0.1816" style="stop-color:#808080"/>
	<stop  offset="0.2933" style="stop-color:#9F9D9D"/>
	<stop  offset="0.5447" style="stop-color:#CCCCCC"/>
	<stop  offset="0.6732" style="stop-color:#FFFFFF"/>
	<stop  offset="0.8687" style="stop-color:#E4E3E3"/>
	<stop  offset="1" style="stop-color:#B3B3B3"/>
</linearGradient>
<rect x="39.4" y="54.7" style="fill:url(#SVGID_00000022554195486829506670000015711334869272463027_);" width="158.4" height="46.5"/>
<linearGradient id="SVGID_00000175301791923136756380000005496843950584333955_" gradientUnits="userSpaceOnUse" x1="19.3701" y1="55.8613" x2="19.3701" y2="115.0754" gradientTransform="matrix(1 0 0 -1 0 163.4489)">
	<stop  offset="0" style="stop-color:#9F9D9D"/>
	<stop  offset="0.1816" style="stop-color:#808080"/>
	<stop  offset="0.2933" style="stop-color:#9F9D9D"/>
	<stop  offset="0.5447" style="stop-color:#CCCCCC"/>
	<stop  offset="0.6732" style="stop-color:#FFFFFF"/>
	<stop  offset="0.8687" style="stop-color:#E4E3E3"/>
	<stop  offset="1" style="stop-color:#B3B3B3"/>
</linearGradient>
<rect x="9.9" y="48.4" style="fill:url(#SVGID_00000175301791923136756380000005496843950584333955_);" width="18.9" height="59.2"/>
<linearGradient id="SVGID_00000133526602271772320040000002574483250465466300_" gradientUnits="userSpaceOnUse" x1="-508.7635" y1="3651.8159" x2="-500.3378" y2="3651.8159" gradientTransform="matrix(1 0 0 1 543.2952 -3573.9009)">
	<stop  offset="0" style="stop-color:#3F3B3C"/>
	<stop  offset="1" style="stop-color:#3F3B3C;stop-opacity:0"/>
</linearGradient>
<polygon style="opacity:0.5;fill:url(#SVGID_00000133526602271772320040000002574483250465466300_);enable-background:new    ;" points="
	42.8,54.7 34.4,54.7 34.4,101.2 43,101.2 "/>
<linearGradient id="SVGID_00000069369032191816357340000001006224922849667979_" gradientUnits="userSpaceOnUse" x1="36.3352" y1="53.5032" x2="36.3352" y2="117.6955" gradientTransform="matrix(1 0 0 -1 0 163.4489)">
	<stop  offset="0" style="stop-color:#9F9D9D"/>
	<stop  offset="0.1816" style="stop-color:#808080"/>
	<stop  offset="0.2933" style="stop-color:#9F9D9D"/>
	<stop  offset="0.5447" style="stop-color:#CCCCCC"/>
	<stop  offset="0.6732" style="stop-color:#FFFFFF"/>
	<stop  offset="0.8687" style="stop-color:#E4E3E3"/>
	<stop  offset="1" style="stop-color:#B3B3B3"/>
</linearGradient>
<rect x="33.3" y="45.8" style="fill:url(#SVGID_00000069369032191816357340000001006224922849667979_);" width="6.2" height="64.2"/>
<linearGradient id="SVGID_00000067950339777449192750000013207479657496370304_" gradientUnits="userSpaceOnUse" x1="6.2042" y1="57.0403" x2="6.2042" y2="114.0273" gradientTransform="matrix(1 0 0 -1 0 163.4489)">
	<stop  offset="0" style="stop-color:#9F9D9D"/>
	<stop  offset="0.1816" style="stop-color:#808080"/>
	<stop  offset="0.2933" style="stop-color:#9F9D9D"/>
	<stop  offset="0.5447" style="stop-color:#CCCCCC"/>
	<stop  offset="0.6732" style="stop-color:#FFFFFF"/>
	<stop  offset="0.8687" style="stop-color:#E4E3E3"/>
	<stop  offset="1" style="stop-color:#B3B3B3"/>
</linearGradient>
<path style="fill:url(#SVGID_00000067950339777449192750000013207479657496370304_);" d="M9.9,106.4c-2.5-2.6-5.1-5.1-7.5-7.7V57.2
	C5,54.5,7.6,52,9.9,49.4C9.9,68.4,9.9,87.4,9.9,106.4z"/>
<linearGradient id="SVGID_00000160908137696250000910000002615134527457966758_" gradientUnits="userSpaceOnUse" x1="31.0295" y1="53.5032" x2="31.0295" y2="117.671" gradientTransform="matrix(1 0 0 -1 0 163.4489)">
	<stop  offset="0" style="stop-color:#9F9D9D"/>
	<stop  offset="0.1816" style="stop-color:#808080"/>
	<stop  offset="0.2933" style="stop-color:#9F9D9D"/>
	<stop  offset="0.5447" style="stop-color:#CCCCCC"/>
	<stop  offset="0.6732" style="stop-color:#FFFFFF"/>
	<stop  offset="0.8687" style="stop-color:#E4E3E3"/>
	<stop  offset="1" style="stop-color:#B3B3B3"/>
</linearGradient>
<path style="fill:url(#SVGID_00000160908137696250000910000002615134527457966758_);" d="M33.3,109.9c-1.6-0.8-3-1.7-4.5-2.5V48.4
	c1.6-0.8,3-1.7,4.5-2.5C33.3,67.2,33.3,88.6,33.3,109.9z"/>
<linearGradient id="SVGID_00000109006676610918434780000012668742426870663817_" gradientUnits="userSpaceOnUse" x1="9.9525" y1="85.5338" x2="2.4066" y2="85.5338" gradientTransform="matrix(1 0 0 -1 0 163.4489)">
	<stop  offset="0" style="stop-color:#B3B3B3;stop-opacity:0.5"/>
	<stop  offset="1" style="stop-color:#B3B3B3;stop-opacity:0"/>
</linearGradient>
<path style="opacity:0.53;fill:url(#SVGID_00000109006676610918434780000012668742426870663817_);enable-background:new    ;" d="
	M9.9,106.4c-2.5-2.6-5.1-5.1-7.5-7.7V57.2C5,54.5,7.6,52,9.9,49.4C9.9,68.4,9.9,87.4,9.9,106.4z"/>
<linearGradient id="SVGID_00000100353476972867690550000000424051288013064638_" gradientUnits="userSpaceOnUse" x1="33.2877" y1="85.5338" x2="28.7528" y2="85.5338" gradientTransform="matrix(1 0 0 -1 0 163.4489)">
	<stop  offset="0" style="stop-color:#B3B3B3;stop-opacity:0.5"/>
	<stop  offset="1" style="stop-color:#B3B3B3;stop-opacity:0"/>
</linearGradient>
<path style="opacity:0.53;fill:url(#SVGID_00000100353476972867690550000000424051288013064638_);enable-background:new    ;" d="
	M33.3,109.9c-1.6-0.8-3-1.7-4.5-2.5V48.4c1.6-0.8,3-1.7,4.5-2.5C33.3,67.2,33.3,88.6,33.3,109.9z"/>
<linearGradient id="SVGID_00000181768707044012827370000016639089902690821773_" gradientUnits="userSpaceOnUse" x1="71.9685" y1="-59.9696" x2="71.9685" y2="-86.5636" gradientTransform="matrix(1 0 0 -1 0 163.4489)">
	<stop  offset="0.2849" style="stop-color:#606060"/>
	<stop  offset="0.5139" style="stop-color:#999999"/>
	<stop  offset="0.6613" style="stop-color:#ACACAC"/>
	<stop  offset="0.8464" style="stop-color:#6E6E6F;stop-opacity:0.9913"/>
	<stop  offset="1" style="stop-color:#606060"/>
</linearGradient>
<rect x="14.9" y="223.4" style="fill:url(#SVGID_00000181768707044012827370000016639089902690821773_);" width="114.1" height="26.6"/>
<linearGradient id="SVGID_00000013904497259950064870000006732740604652984241_" gradientUnits="userSpaceOnUse" x1="8.6277" y1="-54.0341" x2="8.6277" y2="-94.2525" gradientTransform="matrix(1 0 0 -1 0 163.4489)">
	<stop  offset="0.2849" style="stop-color:#4D4D4D"/>
	<stop  offset="0.6613" style="stop-color:#ACACAC"/>
	<stop  offset="0.8464" style="stop-color:#6E6E6F;stop-opacity:0.9913"/>
	<stop  offset="1" style="stop-color:#606060"/>
</linearGradient>
<path style="fill:url(#SVGID_00000013904497259950064870000006732740604652984241_);" d="M2.2,217.5c4.3,2,8.5,3.9,12.8,5.9
	c0,8.9,0,17.7,0,26.6c-4.3,2.6-8.5,5.1-12.8,7.7L2.2,217.5z"/>
<linearGradient id="SVGID_00000096039057771010924260000009903379479482181788_" gradientUnits="userSpaceOnUse" x1="134.5887" y1="-55.033" x2="134.5887" y2="-91.4732" gradientTransform="matrix(1 0 0 -1 0 163.4489)">
	<stop  offset="0.2849" style="stop-color:#4D4D4D"/>
	<stop  offset="0.6613" style="stop-color:#ACACAC"/>
	<stop  offset="0.8464" style="stop-color:#6E6E6F;stop-opacity:0.9913"/>
	<stop  offset="1" style="stop-color:#606060"/>
</linearGradient>
<path style="fill:url(#SVGID_00000096039057771010924260000009903379479482181788_);" d="M129,223.4c3.7-1.7,7.5-3.3,11.1-5V255
	c-3.7-1.7-7.5-3.3-11.1-5C129,241.2,129,232.3,129,223.4z"/>
<linearGradient id="SVGID_00000109030426521442377190000004132032206012619434_" gradientUnits="userSpaceOnUse" x1="169.2395" y1="-55.033" x2="169.2395" y2="-91.5833" gradientTransform="matrix(1 0 0 -1 0 163.4489)">
	<stop  offset="0.2849" style="stop-color:#606060"/>
	<stop  offset="0.5139" style="stop-color:#999999"/>
	<stop  offset="0.6613" style="stop-color:#ACACAC"/>
	<stop  offset="0.8464" style="stop-color:#6E6E6F;stop-opacity:0.9913"/>
	<stop  offset="1" style="stop-color:#606060"/>
</linearGradient>
<rect x="140.3" y="218.4" style="fill:url(#SVGID_00000109030426521442377190000004132032206012619434_);" width="57.9" height="36.6"/>
<image style="overflow:visible;" width="200" height="200" xlink:href="../../pepsi.png"  transform="matrix(0.107 0 0 0.107 102.3351 65.2146)">
</image>
</svg>
