<?xml version="1.0" encoding="utf-8"?>
<!-- Generator: Adobe Illustrator 25.4.1, SVG Export Plug-In . SVG Version: 6.00 Build 0)  -->
<svg version="1.1" id="Слой_1" xmlns="http://www.w3.org/2000/svg" xmlns:xlink="http://www.w3.org/1999/xlink" x="0px" y="0px"
	 viewBox="0 0 100 160" style="enable-background:new 0 0 100 160;" xml:space="preserve">
<style type="text/css">
	.st0{fill:url(#SVGID_1_);}
	.st1{fill:url(#SVGID_00000098210562723064353170000006130823700168470927_);}
	.st2{opacity:0.5;fill:url(#SVGID_00000077284285508255453680000016287385924362319783_);enable-background:new    ;}
	.st3{fill:url(#SVGID_00000101799348220555368270000009184127025425860517_);}
	.st4{fill:url(#SVGID_00000075873963829244158850000016383442355626772894_);}
	.st5{fill:url(#SVGID_00000069358784992127314510000007495184052420403121_);}
	.st6{fill:url(#SVGID_00000144332768906981298340000012954402653483352511_);}
	.st7{fill:url(#SVGID_00000133501252269637398400000012693337143977009547_);}
	.st8{opacity:0.53;fill:url(#SVGID_00000123401647968760754090000014567198948173242755_);enable-background:new    ;}
	.st9{opacity:0.53;fill:url(#SVGID_00000178194190640128012440000012909442965218531764_);enable-background:new    ;}
	.st10{clip-path:url(#SVGID_00000005251904519784728310000002952414259298831534_);}
	.st11{fill:none;stroke:#B3B3B3;stroke-width:0.5;stroke-miterlimit:10;}
	.st12{fill:url(#SVGID_00000123430203563843940820000008575019612242277289_);}
	.st13{fill:#606060;}
	.st14{opacity:0.58;fill:url(#SVGID_00000086690225270845501960000001114311569849329041_);enable-background:new    ;}
</style>
<linearGradient id="SVGID_1_" gradientUnits="userSpaceOnUse" x1="72.8287" y1="-993.3095" x2="72.8287" y2="-982.0854" gradientTransform="matrix(1 0 0 -1 0 -947.5511)">
	<stop  offset="0" style="stop-color:#9F9D9D"/>
	<stop  offset="0.1816" style="stop-color:#808080"/>
	<stop  offset="0.2933" style="stop-color:#9F9D9D"/>
	<stop  offset="0.5447" style="stop-color:#CCCCCC"/>
	<stop  offset="0.6732" style="stop-color:#FFFFFF"/>
	<stop  offset="0.8687" style="stop-color:#E4E3E3"/>
	<stop  offset="1" style="stop-color:#B3B3B3"/>
</linearGradient>
<rect x="48.8" y="34.6" class="st0" width="48" height="11.2"/>
<linearGradient id="SVGID_00000084513793078120249930000010704605655169329551_" gradientUnits="userSpaceOnUse" x1="97.8518" y1="-995.1796" x2="97.8518" y2="-980.2291" gradientTransform="matrix(1 0 0 -1 0 -947.5511)">
	<stop  offset="0" style="stop-color:#9F9D9D"/>
	<stop  offset="0.1816" style="stop-color:#808080"/>
	<stop  offset="0.2933" style="stop-color:#9F9D9D"/>
	<stop  offset="0.5447" style="stop-color:#CCCCCC"/>
	<stop  offset="0.6732" style="stop-color:#FFFFFF"/>
	<stop  offset="0.8687" style="stop-color:#E4E3E3"/>
	<stop  offset="1" style="stop-color:#B3B3B3"/>
</linearGradient>
<rect x="96.8" y="32.7" style="fill:url(#SVGID_00000084513793078120249930000010704605655169329551_);" width="2" height="14.9"/>
<linearGradient id="SVGID_00000013889599068697976170000002056738820979806873_" gradientUnits="userSpaceOnUse" x1="-497.7141" y1="2769.9561" x2="-492.0686" y2="2769.9561" gradientTransform="matrix(1 0 0 1 543.2952 -2729.7983)">
	<stop  offset="0" style="stop-color:#3F3B3C"/>
	<stop  offset="1" style="stop-color:#3F3B3C;stop-opacity:0"/>
</linearGradient>
<polygon style="opacity:0.5;fill:url(#SVGID_00000013889599068697976170000002056738820979806873_);enable-background:new    ;" points="
	51.2,34.6 45.5,34.6 45.5,45.8 51.2,45.8 "/>
<linearGradient id="SVGID_00000077304878489314767150000016710335156566178961_" gradientUnits="userSpaceOnUse" x1="31.3637" y1="-995.8642" x2="31.3637" y2="-979.6188" gradientTransform="matrix(1 0 0 -1 0 -947.5511)">
	<stop  offset="0" style="stop-color:#9F9D9D"/>
	<stop  offset="0.1816" style="stop-color:#808080"/>
	<stop  offset="0.2933" style="stop-color:#9F9D9D"/>
	<stop  offset="0.5447" style="stop-color:#CCCCCC"/>
	<stop  offset="0.6732" style="stop-color:#FFFFFF"/>
	<stop  offset="0.8687" style="stop-color:#E4E3E3"/>
	<stop  offset="1" style="stop-color:#B3B3B3"/>
</linearGradient>
<rect x="14" y="32.1" style="fill:url(#SVGID_00000077304878489314767150000016710335156566178961_);" width="34.8" height="16.2"/>
<linearGradient id="SVGID_00000132788388110941558360000004378336782489386113_" gradientUnits="userSpaceOnUse" x1="7.0938" y1="-998.0914" x2="7.0938" y2="-977.3536" gradientTransform="matrix(1 0 0 -1 0 -947.5511)">
	<stop  offset="0" style="stop-color:#9F9D9D"/>
	<stop  offset="0.1816" style="stop-color:#808080"/>
	<stop  offset="0.2933" style="stop-color:#9F9D9D"/>
	<stop  offset="0.5447" style="stop-color:#CCCCCC"/>
	<stop  offset="0.6732" style="stop-color:#FFFFFF"/>
	<stop  offset="0.8687" style="stop-color:#E4E3E3"/>
	<stop  offset="1" style="stop-color:#B3B3B3"/>
</linearGradient>
<rect x="3.8" y="29.8" style="fill:url(#SVGID_00000132788388110941558360000004378336782489386113_);" width="6.6" height="20.8"/>
<linearGradient id="SVGID_00000067918737238033320930000008328796933079680909_" gradientUnits="userSpaceOnUse" x1="13.0221" y1="-998.943" x2="13.0221" y2="-976.4745" gradientTransform="matrix(1 0 0 -1 0 -947.5511)">
	<stop  offset="0" style="stop-color:#9F9D9D"/>
	<stop  offset="0.1816" style="stop-color:#808080"/>
	<stop  offset="0.2933" style="stop-color:#9F9D9D"/>
	<stop  offset="0.5447" style="stop-color:#CCCCCC"/>
	<stop  offset="0.6732" style="stop-color:#FFFFFF"/>
	<stop  offset="0.8687" style="stop-color:#E4E3E3"/>
	<stop  offset="1" style="stop-color:#B3B3B3"/>
</linearGradient>
<rect x="11.9" y="28.9" style="fill:url(#SVGID_00000067918737238033320930000008328796933079680909_);" width="2.2" height="22.5"/>
<linearGradient id="SVGID_00000084518097151044611870000013942948020148602526_" gradientUnits="userSpaceOnUse" x1="2.4429" y1="-997.7423" x2="2.4429" y2="-977.7019" gradientTransform="matrix(1 0 0 -1 0 -947.5511)">
	<stop  offset="0" style="stop-color:#9F9D9D"/>
	<stop  offset="0.1816" style="stop-color:#808080"/>
	<stop  offset="0.2933" style="stop-color:#9F9D9D"/>
	<stop  offset="0.5447" style="stop-color:#CCCCCC"/>
	<stop  offset="0.6732" style="stop-color:#FFFFFF"/>
	<stop  offset="0.8687" style="stop-color:#E4E3E3"/>
	<stop  offset="1" style="stop-color:#B3B3B3"/>
</linearGradient>
<path style="fill:url(#SVGID_00000084518097151044611870000013942948020148602526_);" d="M3.8,50.2c-0.9-0.9-1.8-1.8-2.8-2.8V32.9
	C2,31.9,2.9,31,3.8,30.1C3.8,36.8,3.8,43.5,3.8,50.2z"/>
<linearGradient id="SVGID_00000105385101518547618740000009695292846872678316_" gradientUnits="userSpaceOnUse" x1="11.1552" y1="-998.943" x2="11.1552" y2="-976.4745" gradientTransform="matrix(1 0 0 -1 0 -947.5511)">
	<stop  offset="0" style="stop-color:#9F9D9D"/>
	<stop  offset="0.1816" style="stop-color:#808080"/>
	<stop  offset="0.2933" style="stop-color:#9F9D9D"/>
	<stop  offset="0.5447" style="stop-color:#CCCCCC"/>
	<stop  offset="0.6732" style="stop-color:#FFFFFF"/>
	<stop  offset="0.8687" style="stop-color:#E4E3E3"/>
	<stop  offset="1" style="stop-color:#B3B3B3"/>
</linearGradient>
<path style="fill:url(#SVGID_00000105385101518547618740000009695292846872678316_);" d="M11.9,51.4c-0.5-0.3-1-0.6-1.6-0.9V29.8
	c0.5-0.3,1-0.6,1.6-0.9C11.9,36.4,11.9,43.9,11.9,51.4z"/>
<linearGradient id="SVGID_00000048474922273158629600000010911252076814579627_" gradientUnits="userSpaceOnUse" x1="3.8186" y1="-987.7087" x2="1.0673" y2="-987.7087" gradientTransform="matrix(1 0 0 -1 0 -947.5511)">
	<stop  offset="0" style="stop-color:#B3B3B3;stop-opacity:0.5"/>
	<stop  offset="1" style="stop-color:#B3B3B3;stop-opacity:0"/>
</linearGradient>
<path style="opacity:0.53;fill:url(#SVGID_00000048474922273158629600000010911252076814579627_);enable-background:new    ;" d="
	M3.8,50.2c-0.9-0.9-1.8-1.8-2.8-2.8V32.9C2,31.9,2.9,31,3.8,30.1C3.8,36.8,3.8,43.5,3.8,50.2z"/>
<linearGradient id="SVGID_00000181088749106221989310000015240999015284658073_" gradientUnits="userSpaceOnUse" x1="11.956" y1="-987.7087" x2="10.3645" y2="-987.7087" gradientTransform="matrix(1 0 0 -1 0 -947.5511)">
	<stop  offset="0" style="stop-color:#B3B3B3;stop-opacity:0.5"/>
	<stop  offset="1" style="stop-color:#B3B3B3;stop-opacity:0"/>
</linearGradient>
<path style="opacity:0.53;fill:url(#SVGID_00000181088749106221989310000015240999015284658073_);enable-background:new    ;" d="
	M11.9,51.4c-0.5-0.3-1-0.6-1.6-0.9V29.8c0.5-0.3,1-0.6,1.6-0.9C11.9,36.4,11.9,43.9,11.9,51.4z"/>
<g>
	<g>
		<g>
			<defs>
				<path id="SVGID_00000028297205476037632140000003150404462616127375_" d="M96.8,110.3v1.9H51.2h-2.4h-0.1v-2.6H14.1v-3.1h-2.2
					c-0.5,0.3-1,0.6-1.6,0.9H3.8v0.3c-0.9,0.9-1.8,1.8-2.8,2.8v14.6c0.9,0.9,1.8,1.8,2.8,2.8v0.3h6.6c0.5,0.3,1,0.6,1.6,0.9h2.2
					v-3.1h34.7v-2.5h0.1h2.4h45.6v1.8h2v-14.9H96.8z"/>
			</defs>
			<clipPath id="SVGID_00000097465771933873052480000001678065130170421654_">
				<use xlink:href="#SVGID_00000028297205476037632140000003150404462616127375_"  style="overflow:visible;"/>
			</clipPath>
			<g style="clip-path:url(#SVGID_00000097465771933873052480000001678065130170421654_);">
				
					<image style="overflow:visible;enable-background:new    ;" width="1200" height="900" xlink:href="../../Фитинги/Резьбовые/Металл.jpg"  transform="matrix(0.1054 0 0 0.1054 -13.9102 104.1632)">
				</image>
			</g>
		</g>
	</g>
	<g>
		<path id="SVGID_11_" class="st11" d="M96.8,110.3v1.9H51.2h-2.4h-0.1v-2.6H14.1v-3.1h-2.2c-0.5,0.3-1,0.6-1.6,0.9H3.8v0.3
			c-0.9,0.9-1.8,1.8-2.8,2.8v14.6c0.9,0.9,1.8,1.8,2.8,2.8v0.3h6.6c0.5,0.3,1,0.6,1.6,0.9h2.2v-3.1h34.7v-2.5h0.1h2.4h45.6v1.8h2
			v-14.9H96.8z"/>
	</g>
</g>
<linearGradient id="SVGID_00000078042308097196257770000010969851407791077294_" gradientUnits="userSpaceOnUse" x1="52.3254" y1="-1061.6176" x2="52.3254" y2="-1069.01" gradientTransform="matrix(1 0 0 -1 0 -947.5511)">
	<stop  offset="0.2849" style="stop-color:#606060"/>
	<stop  offset="0.5139" style="stop-color:#999999"/>
	<stop  offset="0.6613" style="stop-color:#ACACAC"/>
	<stop  offset="0.8464" style="stop-color:#6E6E6F;stop-opacity:0.9913"/>
	<stop  offset="1" style="stop-color:#606060"/>
</linearGradient>
<rect x="5.6" y="114.1" style="fill:url(#SVGID_00000078042308097196257770000010969851407791077294_);" width="93.5" height="7.4"/>
<path class="st13" d="M5.6,121.5c-1.6,1.2-3.1,2.4-4.7,3.7c0-4.9,0-9.8,0-14.7c1.6,1.2,3.1,2.4,4.7,3.7C5.6,116.6,5.6,119,5.6,121.5
	z"/>
<linearGradient id="SVGID_00000151534137627642037760000017234071293919255463_" gradientUnits="userSpaceOnUse" x1="3.2618" y1="-1058.0148" x2="3.2618" y2="-1072.7139" gradientTransform="matrix(1 0 0 -1 0 -947.5511)">
	<stop  offset="0.2849" style="stop-color:#606060"/>
	<stop  offset="0.5139" style="stop-color:#999999"/>
	<stop  offset="0.6613" style="stop-color:#ACACAC;stop-opacity:0.76"/>
	<stop  offset="0.8464" style="stop-color:#6E6E6F;stop-opacity:0.9913"/>
	<stop  offset="1" style="stop-color:#606060"/>
</linearGradient>
<path style="opacity:0.58;fill:url(#SVGID_00000151534137627642037760000017234071293919255463_);enable-background:new    ;" d="
	M5.6,121.5c-1.6,1.2-3.1,2.4-4.7,3.7c0-4.9,0-9.8,0-14.7c1.6,1.2,3.1,2.4,4.7,3.7C5.6,116.6,5.6,119,5.6,121.5z"/>
<image style="overflow:visible;" width="200" height="200" xlink:href="../../pepsi.png"  transform="matrix(4.411175e-02 0 0 4.411175e-02 26.3065 35.7137)">
</image>
</svg>
