<?xml version="1.0" encoding="utf-8"?>
<!-- Generator: Adobe Illustrator 25.4.1, SVG Export Plug-In . SVG Version: 6.00 Build 0)  -->
<svg version="1.1" id="Слой_1" xmlns="http://www.w3.org/2000/svg" xmlns:xlink="http://www.w3.org/1999/xlink" x="0px" y="0px"
	 viewBox="0 0 100 160" style="enable-background:new 0 0 100 160;" xml:space="preserve">
<style type="text/css">
	.st0{fill:url(#SVGID_1_);}
	.st1{opacity:0.5;fill:url(#SVGID_00000006669521108495345920000004043312102904855470_);enable-background:new    ;}
	.st2{fill:url(#SVGID_00000059281562108012630950000004549436912216362373_);}
	.st3{fill:url(#SVGID_00000106120322162568539760000006882815306368489898_);}
	.st4{fill:url(#SVGID_00000010997070145595355750000006984116913724434089_);}
	.st5{fill:url(#SVGID_00000019654571682498810860000013679665029591840908_);}
	.st6{fill:url(#SVGID_00000148654157460456743520000007499414652032887687_);}
	.st7{opacity:0.53;fill:url(#SVGID_00000057149612067311552280000015709831537462874272_);enable-background:new    ;}
	.st8{opacity:0.53;fill:url(#SVGID_00000022551193589953904540000013423655878007524747_);enable-background:new    ;}
	.st9{clip-path:url(#SVGID_00000124155109140417265080000012444396854584050836_);}
	.st10{fill:none;stroke:#B3B3B3;stroke-width:0.5;stroke-miterlimit:10;}
	.st11{fill:url(#SVGID_00000065059461668960993820000016419407040550881412_);}
	.st12{fill:#606060;}
	.st13{opacity:0.58;fill:url(#SVGID_00000004518973937801459500000016451512800453930403_);enable-background:new    ;}
</style>
<linearGradient id="SVGID_1_" gradientUnits="userSpaceOnUse" x1="73.986" y1="574.9968" x2="73.986" y2="562.6912" gradientTransform="matrix(1 0 0 1 0 -529)">
	<stop  offset="0" style="stop-color:#9F9D9D"/>
	<stop  offset="0.1816" style="stop-color:#808080"/>
	<stop  offset="0.2933" style="stop-color:#9F9D9D"/>
	<stop  offset="0.5447" style="stop-color:#CCCCCC"/>
	<stop  offset="0.6732" style="stop-color:#FFFFFF"/>
	<stop  offset="0.8687" style="stop-color:#E4E3E3"/>
	<stop  offset="1" style="stop-color:#B3B3B3"/>
</linearGradient>
<rect x="48.7" y="33.6" class="st0" width="50.6" height="12.3"/>
<linearGradient id="SVGID_00000016767719917808146890000015815356549095543947_" gradientUnits="userSpaceOnUse" x1="-497.9954" y1="-2098.1746" x2="-492.0463" y2="-2098.1746" gradientTransform="matrix(1 0 0 -1 543.2952 -2058.3496)">
	<stop  offset="0" style="stop-color:#3F3B3C"/>
	<stop  offset="1" style="stop-color:#3F3B3C;stop-opacity:0"/>
</linearGradient>
<polygon style="opacity:0.5;fill:url(#SVGID_00000016767719917808146890000015815356549095543947_);enable-background:new    ;" points="
	51.2,33.7 45.2,33.7 45.2,45.9 51.2,45.9 "/>
<linearGradient id="SVGID_00000045612854641940714760000016803061118766367398_" gradientUnits="userSpaceOnUse" x1="31.5669" y1="576.908" x2="31.5669" y2="560.8077" gradientTransform="matrix(1 0 0 1 0 -529)">
	<stop  offset="0" style="stop-color:#9F9D9D"/>
	<stop  offset="0.1816" style="stop-color:#808080"/>
	<stop  offset="0.2933" style="stop-color:#9F9D9D"/>
	<stop  offset="0.5447" style="stop-color:#CCCCCC"/>
	<stop  offset="0.6732" style="stop-color:#FFFFFF"/>
	<stop  offset="0.8687" style="stop-color:#E4E3E3"/>
	<stop  offset="1" style="stop-color:#B3B3B3"/>
</linearGradient>
<rect x="14.1" y="31.8" style="fill:url(#SVGID_00000045612854641940714760000016803061118766367398_);" width="34.9" height="16.1"/>
<linearGradient id="SVGID_00000049925048594801856040000011035068042272006041_" gradientUnits="userSpaceOnUse" x1="6.9894" y1="579.0527" x2="6.9894" y2="558.5496" gradientTransform="matrix(1 0 0 1 0 -529)">
	<stop  offset="0" style="stop-color:#9F9D9D"/>
	<stop  offset="0.1816" style="stop-color:#808080"/>
	<stop  offset="0.2933" style="stop-color:#9F9D9D"/>
	<stop  offset="0.5447" style="stop-color:#CCCCCC"/>
	<stop  offset="0.6732" style="stop-color:#FFFFFF"/>
	<stop  offset="0.8687" style="stop-color:#E4E3E3"/>
	<stop  offset="1" style="stop-color:#B3B3B3"/>
</linearGradient>
<rect x="3.7" y="29.6" style="fill:url(#SVGID_00000049925048594801856040000011035068042272006041_);" width="6.6" height="20.5"/>
<linearGradient id="SVGID_00000088832418629074811420000005010383156828021406_" gradientUnits="userSpaceOnUse" x1="13.0352" y1="579.903" x2="13.0352" y2="557.7194" gradientTransform="matrix(1 0 0 1 0 -529)">
	<stop  offset="0" style="stop-color:#9F9D9D"/>
	<stop  offset="0.1816" style="stop-color:#808080"/>
	<stop  offset="0.2933" style="stop-color:#9F9D9D"/>
	<stop  offset="0.5447" style="stop-color:#CCCCCC"/>
	<stop  offset="0.6732" style="stop-color:#FFFFFF"/>
	<stop  offset="0.8687" style="stop-color:#E4E3E3"/>
	<stop  offset="1" style="stop-color:#B3B3B3"/>
</linearGradient>
<rect x="12" y="28.7" style="fill:url(#SVGID_00000088832418629074811420000005010383156828021406_);" width="2.2" height="22.2"/>
<linearGradient id="SVGID_00000137823930992865313790000017592043092642325167_" gradientUnits="userSpaceOnUse" x1="2.2908" y1="578.748" x2="2.2908" y2="558.8566" gradientTransform="matrix(1 0 0 1 0 -529)">
	<stop  offset="0" style="stop-color:#9F9D9D"/>
	<stop  offset="0.1816" style="stop-color:#808080"/>
	<stop  offset="0.2933" style="stop-color:#9F9D9D"/>
	<stop  offset="0.5447" style="stop-color:#CCCCCC"/>
	<stop  offset="0.6732" style="stop-color:#FFFFFF"/>
	<stop  offset="0.8687" style="stop-color:#E4E3E3"/>
	<stop  offset="1" style="stop-color:#B3B3B3"/>
</linearGradient>
<path style="fill:url(#SVGID_00000137823930992865313790000017592043092642325167_);" d="M3.7,49.7c-0.9-0.9-1.8-1.8-2.8-2.7V32.5
	c0.9-0.9,1.8-1.8,2.8-2.7C3.7,36.5,3.7,43.1,3.7,49.7z"/>
<linearGradient id="SVGID_00000018932237708330058310000003047428236455288231_" gradientUnits="userSpaceOnUse" x1="11.1295" y1="579.903" x2="11.1295" y2="557.7194" gradientTransform="matrix(1 0 0 1 0 -529)">
	<stop  offset="0" style="stop-color:#9F9D9D"/>
	<stop  offset="0.1816" style="stop-color:#808080"/>
	<stop  offset="0.2933" style="stop-color:#9F9D9D"/>
	<stop  offset="0.5447" style="stop-color:#CCCCCC"/>
	<stop  offset="0.6732" style="stop-color:#FFFFFF"/>
	<stop  offset="0.8687" style="stop-color:#E4E3E3"/>
	<stop  offset="1" style="stop-color:#B3B3B3"/>
</linearGradient>
<path style="fill:url(#SVGID_00000018932237708330058310000003047428236455288231_);" d="M12,50.9c-0.5-0.3-1.1-0.6-1.6-0.9V29.6
	c0.5-0.3,1.1-0.6,1.6-0.9C12,36.1,12,43.5,12,50.9z"/>
<linearGradient id="SVGID_00000110462383991000915220000008067598241628308621_" gradientUnits="userSpaceOnUse" x1="3.7032" y1="568.7922" x2="0.9164" y2="568.7922" gradientTransform="matrix(1 0 0 1 0 -529)">
	<stop  offset="0" style="stop-color:#B3B3B3;stop-opacity:0.5"/>
	<stop  offset="1" style="stop-color:#B3B3B3;stop-opacity:0"/>
</linearGradient>
<path style="opacity:0.53;fill:url(#SVGID_00000110462383991000915220000008067598241628308621_);enable-background:new    ;" d="
	M3.7,49.7c-0.9-0.9-1.8-1.8-2.8-2.7V32.5c0.9-0.9,1.8-1.8,2.8-2.7C3.7,36.5,3.7,43.1,3.7,49.7z"/>
<linearGradient id="SVGID_00000181074670721002515870000017683318211871160709_" gradientUnits="userSpaceOnUse" x1="11.9456" y1="568.825" x2="10.3335" y2="568.825" gradientTransform="matrix(1 0 0 1 0 -529)">
	<stop  offset="0" style="stop-color:#B3B3B3;stop-opacity:0.5"/>
	<stop  offset="1" style="stop-color:#B3B3B3;stop-opacity:0"/>
</linearGradient>
<path style="opacity:0.53;fill:url(#SVGID_00000181074670721002515870000017683318211871160709_);enable-background:new    ;" d="
	M12,50.9c-0.5-0.3-1.1-0.6-1.6-0.9V29.6c0.5-0.3,1.1-0.6,1.6-0.9C12,36.1,12,43.5,12,50.9z"/>
<g>
	<g>
		<defs>
			<path id="SVGID_00000034796171701139868920000013548827890380452518_" d="M99.3,112.4H49v-1.9H14.1v-3.1H12
				c-0.6,0.3-1.1,0.6-1.6,0.9H3.7v0.3c-0.9,0.9-1.8,1.8-2.8,2.7v14.5c0.9,0.9,1.8,1.8,2.8,2.7v0.3h6.6c0.6,0.3,1.1,0.6,1.6,0.9h2.2
				v-3H49v-1.9h50.3V112.4z"/>
		</defs>
		<clipPath id="SVGID_00000015315722167622593000000010021817462514922386_">
			<use xlink:href="#SVGID_00000034796171701139868920000013548827890380452518_"  style="overflow:visible;"/>
		</clipPath>
		<g style="clip-path:url(#SVGID_00000015315722167622593000000010021817462514922386_);">
			
				<image style="overflow:visible;enable-background:new    ;" width="1200" height="900" xlink:href="../../Фитинги/Резьбовые/Металл.jpg"  transform="matrix(0.1057 0 0 0.1057 -16.219 102.9357)">
			</image>
		</g>
	</g>
	<g>
		<path id="SVGID_10_" class="st10" d="M99.3,112.4H49v-1.9H14.1v-3.1H12c-0.6,0.3-1.1,0.6-1.6,0.9H3.7v0.3
			c-0.9,0.9-1.8,1.8-2.8,2.7v14.5c0.9,0.9,1.8,1.8,2.8,2.7v0.3h6.6c0.6,0.3,1.1,0.6,1.6,0.9h2.2v-3H49v-1.9h50.3V112.4z"/>
	</g>
</g>
<linearGradient id="SVGID_00000046325928916089311990000013487396283197562295_" gradientUnits="userSpaceOnUse" x1="52.4315" y1="643.4688" x2="52.4315" y2="651.5032" gradientTransform="matrix(1 0 0 1 0 -529)">
	<stop  offset="0.2849" style="stop-color:#606060"/>
	<stop  offset="0.5139" style="stop-color:#999999"/>
	<stop  offset="0.6613" style="stop-color:#ACACAC"/>
	<stop  offset="0.8464" style="stop-color:#6E6E6F;stop-opacity:0.9913"/>
	<stop  offset="1" style="stop-color:#606060"/>
</linearGradient>
<rect x="5.6" y="114.5" style="fill:url(#SVGID_00000046325928916089311990000013487396283197562295_);" width="93.7" height="8"/>
<path class="st12" d="M5.6,122.5c-1.6,1.1-3.2,2-4.9,3c0-4.7,0-9.3,0-14c1.6,1,3.2,2,4.9,3V122.5z"/>
<linearGradient id="SVGID_00000048493295284432665570000004872746157734088627_" gradientUnits="userSpaceOnUse" x1="3.1451" y1="640.5115" x2="3.1451" y2="654.5248" gradientTransform="matrix(1 0 0 1 0 -529)">
	<stop  offset="0.2849" style="stop-color:#606060"/>
	<stop  offset="0.5139" style="stop-color:#999999"/>
	<stop  offset="0.6613" style="stop-color:#ACACAC;stop-opacity:0.76"/>
	<stop  offset="0.8464" style="stop-color:#6E6E6F;stop-opacity:0.9913"/>
	<stop  offset="1" style="stop-color:#606060"/>
</linearGradient>
<path style="opacity:0.58;fill:url(#SVGID_00000048493295284432665570000004872746157734088627_);enable-background:new    ;" d="
	M5.6,122.5c-1.6,1.1-3.2,2-4.9,3c0-4.7,0-9.3,0-14c1.6,1,3.2,2,4.9,3V122.5z"/>
<image style="overflow:visible;" width="200" height="200" xlink:href="../../pepsi.png"  transform="matrix(5.320133e-02 0 0 5.320133e-02 25.8042 34.472)">
</image>
</svg>
