<?xml version="1.0" encoding="utf-8"?>
<!-- Generator: Adobe Illustrator 25.4.1, SVG Export Plug-In . SVG Version: 6.00 Build 0)  -->
<svg version="1.1" id="Слой_1" xmlns="http://www.w3.org/2000/svg" xmlns:xlink="http://www.w3.org/1999/xlink" x="0px" y="0px"
	 viewBox="0 0 100 160" style="enable-background:new 0 0 100 160;" xml:space="preserve">
<style type="text/css">
	.st0{clip-path:url(#SVGID_00000070076448171651515350000014912760279604460696_);}
	.st1{fill:none;stroke:#B3B3B3;stroke-width:0.4974;stroke-miterlimit:10;}
	.st2{fill:url(#SVGID_00000100383098254357063170000016191160746087212165_);}
	.st3{fill:url(#SVGID_00000005242026867245647940000017512177909240280732_);}
	.st4{fill:url(#SVGID_00000147195887778943900990000012581479865969974145_);}
	.st5{fill:url(#SVGID_00000050656206078522912030000016808875412038930843_);}
	.st6{fill:url(#SVGID_00000072961040362731918750000014183085712176956343_);}
	.st7{fill:url(#SVGID_00000075150160312226819860000015729376720056803235_);}
	.st8{fill:url(#SVGID_00000033352397417353765900000012791187998801410688_);}
	.st9{fill:url(#SVGID_00000132089892619941682910000016331298380213431478_);}
	.st10{fill:url(#SVGID_00000114036698188636671950000007933596967920758429_);}
	.st11{fill:url(#SVGID_00000059292797790933175080000013136762500182052534_);}
	.st12{fill:url(#SVGID_00000173129747997441958390000002006567704243341974_);}
	.st13{fill:url(#SVGID_00000145021153439289618860000017279722059980639630_);}
	.st14{opacity:0.5;fill:url(#SVGID_00000157307785076316321570000013648373312974119299_);enable-background:new    ;}
	.st15{opacity:0.5;fill:url(#SVGID_00000129202911342666480040000008669819130011978886_);enable-background:new    ;}
	.st16{fill:url(#SVGID_00000169522858455216222520000007191924561520227465_);}
	.st17{fill:url(#SVGID_00000096737626674544068280000000235245690379855028_);}
	.st18{fill:url(#SVGID_00000103973729045153095060000015223851861221545876_);}
	.st19{fill:url(#SVGID_00000010988856430594410030000011843462864898700695_);}
	.st20{fill:url(#SVGID_00000006667720857283083620000009955260161710782877_);}
	.st21{fill:#FFFFFF;}
	.st22{fill:#6B6B6B;}
	.st23{fill:url(#SVGID_00000146495635031967074530000013766988435642001343_);}
	.st24{fill:url(#SVGID_00000179626776903163579660000004875651032558906036_);}
	.st25{fill:url(#SVGID_00000068675024323808168140000000577642580429138056_);}
	.st26{fill:url(#SVGID_00000037658811358820184580000017769776309232856214_);}
	.st27{opacity:0.5;fill:url(#SVGID_00000020358765454980157590000016861970856014924454_);enable-background:new    ;}
	.st28{fill:url(#SVGID_00000093893122408851106000000014196434936403891074_);}
	.st29{fill:url(#SVGID_00000106868645831793393270000011773640447529878204_);}
	.st30{fill:url(#SVGID_00000070084792245586138680000003945406193552015503_);}
	.st31{fill:url(#SVGID_00000065770410602195845390000002719494659986403236_);}
	.st32{fill:url(#SVGID_00000011724802387181805900000001114307735367906740_);}
	.st33{fill:url(#SVGID_00000145024506871783092630000003803266688503455667_);}
	.st34{fill:url(#SVGID_00000173156826247213625580000005935155575285379505_);}
	.st35{fill:url(#SVGID_00000136403991475872080030000009415677738322394501_);}
	.st36{fill:url(#SVGID_00000049939939373697104270000016796653013866065538_);}
	.st37{fill:url(#SVGID_00000119090222543494214280000015281426158379303077_);}
	.st38{fill:url(#SVGID_00000167363789614253401580000013450223597200507031_);}
	.st39{fill:url(#SVGID_00000065068352037261712760000009728581779024444039_);}
	.st40{fill:url(#SVGID_00000080925978092400825870000003746509879454985105_);}
	.st41{fill:url(#SVGID_00000061445566139843977770000001875404287146271654_);}
	.st42{fill:url(#SVGID_00000166652218498631046120000001679414515912839563_);}
	.st43{fill:url(#SVGID_00000090973189409644340620000002133531398708119178_);}
	.st44{fill:url(#SVGID_00000123441268924960603740000004883926526270716291_);}
	.st45{fill:url(#SVGID_00000005268048829931794250000014575025620164542853_);}
	.st46{fill:url(#SVGID_00000025419558996590619130000005079699450031970960_);}
	.st47{fill:url(#SVGID_00000106114771084203858850000000521012516742316981_);}
	.st48{opacity:0.53;fill:url(#SVGID_00000057126469120121397970000017133238277221645468_);enable-background:new    ;}
	.st49{fill:none;stroke:#6E6E6F;stroke-width:1.1098;stroke-miterlimit:10;}
	.st50{fill:url(#SVGID_00000072968412127453744460000010639590539608323995_);}
	.st51{fill:url(#SVGID_00000003087565750042168140000008839066444794597760_);}
</style>
<g>
	<g>
		<defs>
			<path id="SVGID_00000104682131911161478750000008269018056351623856_" d="M97,100.4l-2.2-3.2c-0.6,1.1-1.2,2.1-1.8,3.2
				c0,0-2.2-3.1-2.2-3.2c-0.6,1.1-1.2,2.1-1.8,3.2l-2.2-3.2c-0.6,1.1-1.2,2.1-1.8,3.2l-2.2-3.2c-0.6,1.1-1.2,2.1-1.8,3.2L79,97.2
				c-0.6,1.1-1.2,2.1-1.8,3.2l-2.2-3.2c-0.6,1.1-1.2,2.1-1.8,3.2l-2.2-3.2l-2,3.2v0.2h-3c0-1,0-2,0-2.9l-2.3-3.8H46.5L44,97.7v4.6
				v0.3h-5.4c-0.3,0-0.7-0.1-1-0.1v-0.1l-2-2.9l0,0c-0.5,1-1.1,1.9-1.7,2.9l-2-2.9c-0.5,1-1.1,1.9-1.7,2.9l-2-2.9
				c-0.5,1-1.1,1.9-1.7,2.9l-2-2.9c-0.1,0.1-0.8,1.4-0.8,1.5c-0.3,0.5-0.5,1-0.8,1.5l-2-2.9c-0.5,1-1.1,1.9-1.7,2.9l-2-2.9
				c-0.5,1-1.1,1.9-1.7,2.9l0,0l-2-2.9l-1.8,2.9v0.2H7.7v0.7H5.8h-2v0.3c-1,1.5-2,2.9-3,4.4v27.2c1,1.5,2,2.9,3,4.4v0.3H6h2v0.7h4.5
				c0.7,0.1,1.5,0.1,2.2,0.2l2,2.9l1.7-3.1c0.7,1.1,1.3,2,2,3.1c0.5-1.1,1.1-2,1.7-3.1c0.7,1.1,1.3,2,2,3.1l1.7-3c0.7,1,1.3,2,2,3
				l1.7-3c0.7,1,1.3,2,2,3l1.7-3c0.7,1,1.3,2,2,3l1.7-3l0,0l0,0l0,0c0.7,1,1.3,2,2,3l1.7-3l0,0v0.1v-0.1h4.2c0,1.5,0,3,0,4.4
				l2.5,3.8l0,0h17H64l2.3-3.8v-2.8h2.9c0.9,0.1,1.7,0.1,2.5,0.2l2.2,3.2l1.8-3.4c0.7,1.1,1.5,2.2,2.2,3.4l0,0l0,0
				c0.6-1.1,1.2-2.2,1.8-3.4c0.7,1.1,1.5,2.2,2.2,3.4l0,0l1.8-3.4c0.7,1.1,1.5,2.2,2.2,3.4l0,0l0,0c0.6-1.1,1.2-2.2,1.8-3.4
				c0.7,1.1,1.5,2.2,2.2,3.4l0,0c0.6-1.1,1.2-2.2,1.8-3.4c0.7,1.1,1.5,2.2,2.2,3.4l0,0l1.8-3.4c0.7,1.1,1.5,2.2,2.2,3.4l0,0l0,0
				c0.6-1.1,1.2-2.2,1.8-3.4c0-13.9,0-27.7,0-41.6C98.6,100.5,97.8,100.5,97,100.4z"/>
		</defs>
		<clipPath id="SVGID_00000155142927127537583090000004572664859281943730_">
			<use xlink:href="#SVGID_00000104682131911161478750000008269018056351623856_"  style="overflow:visible;"/>
		</clipPath>
		<g style="clip-path:url(#SVGID_00000155142927127537583090000004572664859281943730_);">
			
				<image style="overflow:visible;enable-background:new    ;" width="1200" height="900" xlink:href="../../Фитинги/Резьбовые/Металл.jpg"  transform="matrix(9.104111e-02 0 0 9.104111e-02 -1.8988 83.5709)">
			</image>
		</g>
	</g>
	<g>
		<path id="SVGID_1_" class="st1" d="M97,100.4l-2.2-3.2c-0.6,1.1-1.2,2.1-1.8,3.2c0,0-2.2-3.1-2.2-3.2c-0.6,1.1-1.2,2.1-1.8,3.2
			l-2.2-3.2c-0.6,1.1-1.2,2.1-1.8,3.2l-2.2-3.2c-0.6,1.1-1.2,2.1-1.8,3.2L79,97.2c-0.6,1.1-1.2,2.1-1.8,3.2l-2.2-3.2
			c-0.6,1.1-1.2,2.1-1.8,3.2l-2.2-3.2l-2,3.2v0.2h-3c0-1,0-2,0-2.9l-2.3-3.8H46.5L44,97.7v4.6v0.3h-5.4c-0.3,0-0.7-0.1-1-0.1v-0.1
			l-2-2.9l0,0c-0.5,1-1.1,1.9-1.7,2.9l-2-2.9c-0.5,1-1.1,1.9-1.7,2.9l-2-2.9c-0.5,1-1.1,1.9-1.7,2.9l-2-2.9
			c-0.1,0.1-0.8,1.4-0.8,1.5c-0.3,0.5-0.5,1-0.8,1.5l-2-2.9c-0.5,1-1.1,1.9-1.7,2.9l-2-2.9c-0.5,1-1.1,1.9-1.7,2.9l0,0l-2-2.9
			l-1.8,2.9v0.2H7.7v0.7H5.8h-2v0.3c-1,1.5-2,2.9-3,4.4v27.2c1,1.5,2,2.9,3,4.4v0.3H6h2v0.7h4.5c0.7,0.1,1.5,0.1,2.2,0.2l2,2.9
			l1.7-3.1c0.7,1.1,1.3,2,2,3.1c0.5-1.1,1.1-2,1.7-3.1c0.7,1.1,1.3,2,2,3.1l1.7-3c0.7,1,1.3,2,2,3l1.7-3c0.7,1,1.3,2,2,3l1.7-3
			c0.7,1,1.3,2,2,3l1.7-3l0,0l0,0l0,0c0.7,1,1.3,2,2,3l1.7-3l0,0v0.1v-0.1h4.2c0,1.5,0,3,0,4.4l2.5,3.8l0,0h17H64l2.3-3.8v-2.8h2.9
			c0.9,0.1,1.7,0.1,2.5,0.2l2.2,3.2l1.8-3.4c0.7,1.1,1.5,2.2,2.2,3.4l0,0l0,0c0.6-1.1,1.2-2.2,1.8-3.4c0.7,1.1,1.5,2.2,2.2,3.4l0,0
			l1.8-3.4c0.7,1.1,1.5,2.2,2.2,3.4l0,0l0,0c0.6-1.1,1.2-2.2,1.8-3.4c0.7,1.1,1.5,2.2,2.2,3.4l0,0c0.6-1.1,1.2-2.2,1.8-3.4
			c0.7,1.1,1.5,2.2,2.2,3.4l0,0l1.8-3.4c0.7,1.1,1.5,2.2,2.2,3.4l0,0l0,0c0.6-1.1,1.2-2.2,1.8-3.4c0-13.9,0-27.7,0-41.6
			C98.6,100.5,97.8,100.5,97,100.4z"/>
	</g>
</g>
<linearGradient id="SVGID_00000034774031764487090480000005858143129273184186_" gradientUnits="userSpaceOnUse" x1="68.3507" y1="101.1838" x2="68.3507" y2="142.8063" gradientTransform="matrix(1 0 0 -1 0 162)">
	<stop  offset="0" style="stop-color:#9F9D9D"/>
	<stop  offset="0.1816" style="stop-color:#808080"/>
	<stop  offset="0.2933" style="stop-color:#9F9D9D"/>
	<stop  offset="0.5447" style="stop-color:#CCCCCC"/>
	<stop  offset="0.6732" style="stop-color:#FFFFFF"/>
	<stop  offset="0.8687" style="stop-color:#E4E3E3"/>
	<stop  offset="1" style="stop-color:#B3B3B3"/>
</linearGradient>
<rect x="61.8" y="19.2" style="fill:url(#SVGID_00000034774031764487090480000005858143129273184186_);" width="13" height="41.6"/>
<linearGradient id="SVGID_00000114064206772353752920000001520641141650809234_" gradientUnits="userSpaceOnUse" x1="41.9237" y1="102.6372" x2="41.9237" y2="140.7582" gradientTransform="matrix(1 0 0 -1 0 162)">
	<stop  offset="0" style="stop-color:#9F9D9D"/>
	<stop  offset="0.1816" style="stop-color:#808080"/>
	<stop  offset="0.2933" style="stop-color:#9F9D9D"/>
	<stop  offset="0.5447" style="stop-color:#CCCCCC"/>
	<stop  offset="0.6732" style="stop-color:#FFFFFF"/>
	<stop  offset="0.8687" style="stop-color:#E4E3E3"/>
	<stop  offset="1" style="stop-color:#B3B3B3"/>
</linearGradient>
<rect x="36.1" y="21.2" style="fill:url(#SVGID_00000114064206772353752920000001520641141650809234_);" width="11.7" height="38.1"/>
<linearGradient id="SVGID_00000118359621762185571950000011980309350956070539_" gradientUnits="userSpaceOnUse" x1="73.1736" y1="203.8143" x2="73.1736" y2="252.1758" gradientTransform="matrix(1 0 0 -1 0 268)">
	<stop  offset="0" style="stop-color:#B3B3B3"/>
	<stop  offset="0.25" style="stop-color:#666666"/>
	<stop  offset="0.4162" style="stop-color:#D1D3D4"/>
	<stop  offset="0.5168" style="stop-color:#CCCCCC"/>
	<stop  offset="0.662" style="stop-color:#F1F2F2"/>
	<stop  offset="0.8519" style="stop-color:#CCCCCC"/>
	<stop  offset="0.919" style="stop-color:#E6E7E8"/>
	<stop  offset="1" style="stop-color:#919396"/>
</linearGradient>
<polygon style="fill:url(#SVGID_00000118359621762185571950000011980309350956070539_);" points="70.9,15.8 73.1,19 75.5,60.8 
	73.6,64.2 "/>
<linearGradient id="SVGID_00000150801726852747923570000013835306634602938509_" gradientUnits="userSpaceOnUse" x1="-6408.8545" y1="948.3108" x2="-6408.8545" y2="902.6868" gradientTransform="matrix(-1 0 0 -1.06 -6337.6299 1027.2999)">
	<stop  offset="0" style="stop-color:#939598"/>
	<stop  offset="0.1927" style="stop-color:#6D6E71"/>
	<stop  offset="0.39" style="stop-color:#808080"/>
	<stop  offset="0.6606" style="stop-color:#CCCCCC"/>
	<stop  offset="0.8658" style="stop-color:#808285"/>
	<stop  offset="0.9715" style="stop-color:#B3B3B3"/>
</linearGradient>
<polygon style="fill:url(#SVGID_00000150801726852747923570000013835306634602938509_);" points="70.9,15.8 73.6,64.2 71.4,61 
	68.8,19 "/>
<linearGradient id="SVGID_00000159431267158701846250000018127600842064306617_" gradientUnits="userSpaceOnUse" x1="77.1377" y1="203.8143" x2="77.1377" y2="252.1758" gradientTransform="matrix(1 0 0 -1 0 268)">
	<stop  offset="0" style="stop-color:#B3B3B3"/>
	<stop  offset="0.25" style="stop-color:#666666"/>
	<stop  offset="0.4162" style="stop-color:#D1D3D4"/>
	<stop  offset="0.5168" style="stop-color:#CCCCCC"/>
	<stop  offset="0.662" style="stop-color:#F1F2F2"/>
	<stop  offset="0.8519" style="stop-color:#CCCCCC"/>
	<stop  offset="0.919" style="stop-color:#E6E7E8"/>
	<stop  offset="1" style="stop-color:#919396"/>
</linearGradient>
<polygon style="fill:url(#SVGID_00000159431267158701846250000018127600842064306617_);" points="74.9,15.8 77,19 79.4,60.8 
	77.6,64.2 "/>
<linearGradient id="SVGID_00000034053980916916753510000002527375541728186021_" gradientUnits="userSpaceOnUse" x1="-6412.9175" y1="948.3108" x2="-6412.9175" y2="902.6868" gradientTransform="matrix(-1 0 0 -1.06 -6337.6299 1027.2999)">
	<stop  offset="0" style="stop-color:#939598"/>
	<stop  offset="0.1927" style="stop-color:#6D6E71"/>
	<stop  offset="0.39" style="stop-color:#808080"/>
	<stop  offset="0.6606" style="stop-color:#CCCCCC"/>
	<stop  offset="0.8658" style="stop-color:#808285"/>
	<stop  offset="0.9715" style="stop-color:#B3B3B3"/>
</linearGradient>
<path style="fill:url(#SVGID_00000034053980916916753510000002527375541728186021_);" d="M74.9,15.8l2.7,48.4
	c-0.7-1.1-1.5-2.2-2.2-3.4C74.6,46.9,73.8,32.9,73,19C73.7,17.9,74.3,16.9,74.9,15.8z"/>
<linearGradient id="SVGID_00000168836051372254879750000001423808315168797620_" gradientUnits="userSpaceOnUse" x1="81.1678" y1="203.8143" x2="81.1678" y2="252.1758" gradientTransform="matrix(1 0 0 -1 0 268)">
	<stop  offset="0" style="stop-color:#B3B3B3"/>
	<stop  offset="0.25" style="stop-color:#666666"/>
	<stop  offset="0.4162" style="stop-color:#D1D3D4"/>
	<stop  offset="0.5168" style="stop-color:#CCCCCC"/>
	<stop  offset="0.662" style="stop-color:#F1F2F2"/>
	<stop  offset="0.8519" style="stop-color:#CCCCCC"/>
	<stop  offset="0.919" style="stop-color:#E6E7E8"/>
	<stop  offset="1" style="stop-color:#919396"/>
</linearGradient>
<polygon style="fill:url(#SVGID_00000168836051372254879750000001423808315168797620_);" points="78.9,15.8 81.1,19 83.4,60.8 
	81.6,64.2 "/>
<linearGradient id="SVGID_00000140713977061375631000000018201102443973719214_" gradientUnits="userSpaceOnUse" x1="-6416.9478" y1="948.3108" x2="-6416.9478" y2="902.6868" gradientTransform="matrix(-1 0 0 -1.06 -6337.6299 1027.2999)">
	<stop  offset="0" style="stop-color:#939598"/>
	<stop  offset="0.1927" style="stop-color:#6D6E71"/>
	<stop  offset="0.39" style="stop-color:#808080"/>
	<stop  offset="0.6606" style="stop-color:#CCCCCC"/>
	<stop  offset="0.8658" style="stop-color:#808285"/>
	<stop  offset="0.9715" style="stop-color:#B3B3B3"/>
</linearGradient>
<path style="fill:url(#SVGID_00000140713977061375631000000018201102443973719214_);" d="M78.9,15.8l2.7,48.4
	c-0.7-1.1-1.5-2.2-2.2-3.4C78.6,46.9,77.8,32.9,77,19C77.7,17.9,78.3,16.9,78.9,15.8z"/>
<linearGradient id="SVGID_00000153692441981258047330000017971982679860577687_" gradientUnits="userSpaceOnUse" x1="85.1319" y1="203.8143" x2="85.1319" y2="252.1758" gradientTransform="matrix(1 0 0 -1 0 268)">
	<stop  offset="0" style="stop-color:#B3B3B3"/>
	<stop  offset="0.25" style="stop-color:#666666"/>
	<stop  offset="0.4162" style="stop-color:#D1D3D4"/>
	<stop  offset="0.5168" style="stop-color:#CCCCCC"/>
	<stop  offset="0.662" style="stop-color:#F1F2F2"/>
	<stop  offset="0.8519" style="stop-color:#CCCCCC"/>
	<stop  offset="0.919" style="stop-color:#E6E7E8"/>
	<stop  offset="1" style="stop-color:#919396"/>
</linearGradient>
<polygon style="fill:url(#SVGID_00000153692441981258047330000017971982679860577687_);" points="82.9,15.8 85.1,19 87.4,60.8 
	85.6,64.2 "/>
<linearGradient id="SVGID_00000166659078373323691830000018096302757663747725_" gradientUnits="userSpaceOnUse" x1="-6420.9121" y1="948.3108" x2="-6420.9121" y2="902.6868" gradientTransform="matrix(-1 0 0 -1.06 -6337.6299 1027.2999)">
	<stop  offset="0" style="stop-color:#939598"/>
	<stop  offset="0.1927" style="stop-color:#6D6E71"/>
	<stop  offset="0.39" style="stop-color:#808080"/>
	<stop  offset="0.6606" style="stop-color:#CCCCCC"/>
	<stop  offset="0.8658" style="stop-color:#808285"/>
	<stop  offset="0.9715" style="stop-color:#B3B3B3"/>
</linearGradient>
<path style="fill:url(#SVGID_00000166659078373323691830000018096302757663747725_);" d="M82.9,15.8l2.7,48.4
	c-0.7-1.1-1.5-2.2-2.2-3.4C82.6,46.9,81.8,32.9,81,19C81.7,17.9,82.3,16.9,82.9,15.8z"/>
<linearGradient id="SVGID_00000165224840438852066380000007496854621344883840_" gradientUnits="userSpaceOnUse" x1="89.162" y1="203.8143" x2="89.162" y2="252.1758" gradientTransform="matrix(1 0 0 -1 0 268)">
	<stop  offset="0" style="stop-color:#B3B3B3"/>
	<stop  offset="0.25" style="stop-color:#666666"/>
	<stop  offset="0.4162" style="stop-color:#D1D3D4"/>
	<stop  offset="0.5168" style="stop-color:#CCCCCC"/>
	<stop  offset="0.662" style="stop-color:#F1F2F2"/>
	<stop  offset="0.8519" style="stop-color:#CCCCCC"/>
	<stop  offset="0.919" style="stop-color:#E6E7E8"/>
	<stop  offset="1" style="stop-color:#919396"/>
</linearGradient>
<polygon style="fill:url(#SVGID_00000165224840438852066380000007496854621344883840_);" points="86.9,15.8 89.1,19 91.4,60.8 
	89.6,64.2 "/>
<linearGradient id="SVGID_00000044160755519685511960000009252377519884008883_" gradientUnits="userSpaceOnUse" x1="-6424.9419" y1="948.3108" x2="-6424.9419" y2="902.6868" gradientTransform="matrix(-1 0 0 -1.06 -6337.6299 1027.2999)">
	<stop  offset="0" style="stop-color:#939598"/>
	<stop  offset="0.1927" style="stop-color:#6D6E71"/>
	<stop  offset="0.39" style="stop-color:#808080"/>
	<stop  offset="0.6606" style="stop-color:#CCCCCC"/>
	<stop  offset="0.8658" style="stop-color:#808285"/>
	<stop  offset="0.9715" style="stop-color:#B3B3B3"/>
</linearGradient>
<path style="fill:url(#SVGID_00000044160755519685511960000009252377519884008883_);" d="M86.9,15.8l2.7,48.4
	c-0.7-1.1-1.5-2.2-2.2-3.4C86.6,46.9,85.8,32.9,85,19C85.7,17.9,86.3,16.9,86.9,15.8z"/>
<linearGradient id="SVGID_00000124162167348873224020000008077184767916159890_" gradientUnits="userSpaceOnUse" x1="-484.9946" y1="-2964.0049" x2="-476.9929" y2="-2964.0049" gradientTransform="matrix(1 0 0 -1 543.2952 -2923.9009)">
	<stop  offset="0" style="stop-color:#3F3B3C"/>
	<stop  offset="1" style="stop-color:#3F3B3C;stop-opacity:0"/>
</linearGradient>
<polygon style="opacity:0.5;fill:url(#SVGID_00000124162167348873224020000008077184767916159890_);enable-background:new    ;" points="
	66.2,19.4 58.2,19.4 58.2,60.8 66.3,60.8 "/>
<linearGradient id="SVGID_00000001658509603437194350000014685124721239173506_" gradientUnits="userSpaceOnUse" x1="-671.2591" y1="-2529.3557" x2="-661.6134" y2="-2529.3557" gradientTransform="matrix(-1 0 0 1 -621.2305 2569.625)">
	<stop  offset="0" style="stop-color:#3F3B3C"/>
	<stop  offset="1" style="stop-color:#3F3B3C;stop-opacity:0"/>
</linearGradient>
<polygon style="opacity:0.5;fill:url(#SVGID_00000001658509603437194350000014685124721239173506_);enable-background:new    ;" points="
	40.5,59.2 50.1,59.2 50.1,21.3 40.4,21.3 "/>
<linearGradient id="SVGID_00000077285178231744885090000009254897238408633740_" gradientUnits="userSpaceOnUse" x1="93.1591" y1="203.8143" x2="93.1591" y2="252.1758" gradientTransform="matrix(1 0 0 -1 0 268)">
	<stop  offset="0" style="stop-color:#B3B3B3"/>
	<stop  offset="0.25" style="stop-color:#666666"/>
	<stop  offset="0.4162" style="stop-color:#D1D3D4"/>
	<stop  offset="0.5168" style="stop-color:#CCCCCC"/>
	<stop  offset="0.662" style="stop-color:#F1F2F2"/>
	<stop  offset="0.8519" style="stop-color:#CCCCCC"/>
	<stop  offset="0.919" style="stop-color:#E6E7E8"/>
	<stop  offset="1" style="stop-color:#919396"/>
</linearGradient>
<polygon style="fill:url(#SVGID_00000077285178231744885090000009254897238408633740_);" points="90.9,15.8 93.1,19 95.4,60.8 
	93.6,64.2 "/>
<linearGradient id="SVGID_00000155840115970776290850000015400462083494843535_" gradientUnits="userSpaceOnUse" x1="5.7187" y1="103.364" x2="5.7187" y2="140.0975" gradientTransform="matrix(1 0 0 -1 0 162)">
	<stop  offset="0" style="stop-color:#9F9D9D"/>
	<stop  offset="0.1816" style="stop-color:#808080"/>
	<stop  offset="0.2933" style="stop-color:#9F9D9D"/>
	<stop  offset="0.5447" style="stop-color:#CCCCCC"/>
	<stop  offset="0.6732" style="stop-color:#FFFFFF"/>
	<stop  offset="0.8687" style="stop-color:#E4E3E3"/>
	<stop  offset="1" style="stop-color:#B3B3B3"/>
</linearGradient>
<rect x="3.6" y="21.9" style="fill:url(#SVGID_00000155840115970776290850000015400462083494843535_);" width="4.2" height="36.7"/>
<linearGradient id="SVGID_00000147213422616428821010000007797396162054400896_" gradientUnits="userSpaceOnUse" x1="-6428.9722" y1="948.3108" x2="-6428.9722" y2="902.6868" gradientTransform="matrix(-1 0 0 -1.06 -6337.6299 1027.2999)">
	<stop  offset="0" style="stop-color:#939598"/>
	<stop  offset="0.1927" style="stop-color:#6D6E71"/>
	<stop  offset="0.39" style="stop-color:#808080"/>
	<stop  offset="0.6606" style="stop-color:#CCCCCC"/>
	<stop  offset="0.8658" style="stop-color:#808285"/>
	<stop  offset="0.9715" style="stop-color:#B3B3B3"/>
</linearGradient>
<path style="fill:url(#SVGID_00000147213422616428821010000007797396162054400896_);" d="M90.9,15.8l2.7,48.4
	c-0.7-1.1-1.5-2.2-2.2-3.4c-0.8-13.9-1.6-27.9-2.4-41.8C89.7,17.9,90.3,16.9,90.9,15.8z"/>
<linearGradient id="SVGID_00000016035674604780893160000007031962570075481762_" gradientUnits="userSpaceOnUse" x1="97.1562" y1="203.8143" x2="97.1562" y2="252.1758" gradientTransform="matrix(1 0 0 -1 0 268)">
	<stop  offset="0" style="stop-color:#B3B3B3"/>
	<stop  offset="0.25" style="stop-color:#666666"/>
	<stop  offset="0.4162" style="stop-color:#D1D3D4"/>
	<stop  offset="0.5168" style="stop-color:#CCCCCC"/>
	<stop  offset="0.662" style="stop-color:#F1F2F2"/>
	<stop  offset="0.8519" style="stop-color:#CCCCCC"/>
	<stop  offset="0.919" style="stop-color:#E6E7E8"/>
	<stop  offset="1" style="stop-color:#919396"/>
</linearGradient>
<polygon style="fill:url(#SVGID_00000016035674604780893160000007031962570075481762_);" points="94.9,15.8 97.1,19 99.4,60.8 
	97.6,64.2 "/>
<linearGradient id="SVGID_00000098200095345599761670000000983577516506863282_" gradientUnits="userSpaceOnUse" x1="-6432.936" y1="948.3108" x2="-6432.936" y2="902.6868" gradientTransform="matrix(-1 0 0 -1.06 -6337.6299 1027.2999)">
	<stop  offset="0" style="stop-color:#939598"/>
	<stop  offset="0.1927" style="stop-color:#6D6E71"/>
	<stop  offset="0.39" style="stop-color:#808080"/>
	<stop  offset="0.6606" style="stop-color:#CCCCCC"/>
	<stop  offset="0.8658" style="stop-color:#808285"/>
	<stop  offset="0.9715" style="stop-color:#B3B3B3"/>
</linearGradient>
<path style="fill:url(#SVGID_00000098200095345599761670000000983577516506863282_);" d="M94.9,15.8l2.7,48.4
	c-0.7-1.1-1.5-2.2-2.2-3.4C94.6,46.9,93.8,32.9,93,19C93.7,17.9,94.3,16.9,94.9,15.8z"/>
<g>
	<rect x="64.2" y="20.9" class="st21" width="1.8" height="13"/>
	<rect x="64.2" y="45.8" class="st22" width="1.8" height="13"/>
	<rect x="43.9" y="45.8" class="st22" width="1.8" height="13"/>
	<rect x="43.9" y="20.9" class="st21" width="1.8" height="13"/>
	
		<linearGradient id="SVGID_00000160898056384164597200000002720872953816061084_" gradientUnits="userSpaceOnUse" x1="54.906" y1="-436.5926" x2="54.906" y2="-450.9335" gradientTransform="matrix(1 0 0 -1 0 -383.3858)">
		<stop  offset="6.983240e-02" style="stop-color:#58595B"/>
		<stop  offset="0.3715" style="stop-color:#808285"/>
		<stop  offset="0.4888" style="stop-color:#6D6E71"/>
		<stop  offset="0.6397" style="stop-color:#838587"/>
		<stop  offset="0.824" style="stop-color:#BCBEC0"/>
		<stop  offset="1" style="stop-color:#BAB9B9"/>
	</linearGradient>
	<path style="fill:url(#SVGID_00000160898056384164597200000002720872953816061084_);" d="M45.3,53.2l-1.4,4v6.6l2.5,3.8h17.1
		l2.3-3.8v-6.7c-0.4-1.3-0.8-2.6-1.3-4C58.2,53.2,51.8,53.2,45.3,53.2z"/>
	
		<linearGradient id="SVGID_00000009579925649395236080000013183055131594873258_" gradientUnits="userSpaceOnUse" x1="54.939" y1="3215.0459" x2="54.939" y2="3200.6941" gradientTransform="matrix(1 0 0 1 0 -3188.1885)">
		<stop  offset="0" style="stop-color:#F2F2F2"/>
		<stop  offset="1" style="stop-color:#CCCCCC"/>
	</linearGradient>
	<path style="fill:url(#SVGID_00000009579925649395236080000013183055131594873258_);" d="M45.3,26.8l-1.4-4v-6.5l2.5-3.8h17.1
		l2.3,3.8c0,2.2,0,4.4,0.1,6.5c-0.2,0.7-0.5,1.3-0.7,2c-0.2,0.7-0.4,1.3-0.6,2C58.2,26.8,51.8,26.8,45.3,26.8z"/>
	
		<linearGradient id="SVGID_00000152258957598523165370000002908306840456881037_" gradientUnits="userSpaceOnUse" x1="54.939" y1="-436.5933" x2="54.939" y2="-410.2324" gradientTransform="matrix(1 0 0 -1 0 -383.3858)">
		<stop  offset="0" style="stop-color:#E6E6E6"/>
		<stop  offset="0.263" style="stop-color:#E1E1E1"/>
		<stop  offset="0.5724" style="stop-color:#D3D3D3"/>
		<stop  offset="0.904" style="stop-color:#BBBBBB"/>
		<stop  offset="1" style="stop-color:#B3B3B3"/>
	</linearGradient>
	<path style="fill:url(#SVGID_00000152258957598523165370000002908306840456881037_);" d="M64.7,53.2c0.4-2.4,0.9-4.7,1.3-7.1
		c0-4.1,0-8.2,0-12.2c-0.2-1.2-0.4-2.4-0.6-3.5c-0.2-1.2-0.4-2.4-0.7-3.5c-6.5,0-12.9,0-19.4,0c-0.5,2.3-0.9,4.7-1.4,7
		c0,4.1,0,8.1,0,12.3l1.4,7.1L64.7,53.2L64.7,53.2z"/>
	
		<linearGradient id="SVGID_00000046317863336440746670000000499663699737908392_" gradientUnits="userSpaceOnUse" x1="54.939" y1="471.1325" x2="54.939" y2="485.579" gradientTransform="matrix(1 0 0 1 0 -418)">
		<stop  offset="0" style="stop-color:#808080"/>
		<stop  offset="1" style="stop-color:#ABABAB"/>
	</linearGradient>
	<path style="fill:url(#SVGID_00000046317863336440746670000000499663699737908392_);" d="M45.3,53.2c-0.5,1.3-0.9,2.6-1.4,4
		c0,2.2,0,4.4,0,6.6c0.9,1.3,1.7,2.5,2.6,3.8h17.1l2.3-3.8v-6.6c-0.4-1.3-0.8-2.6-1.3-4c-3.2,0-6.5,0.1-9.7,0.1
		C51.7,53.2,48.5,53.2,45.3,53.2z"/>
</g>
<linearGradient id="SVGID_00000012441106073693574920000004217871554031809664_" gradientUnits="userSpaceOnUse" x1="-636.6016" y1="-2529.3557" x2="-626.9559" y2="-2529.3557" gradientTransform="matrix(-1 0 0 1 -621.2305 2569.625)">
	<stop  offset="0" style="stop-color:#3F3B3C"/>
	<stop  offset="1" style="stop-color:#3F3B3C;stop-opacity:0"/>
</linearGradient>
<polygon style="opacity:0.5;fill:url(#SVGID_00000012441106073693574920000004217871554031809664_);enable-background:new    ;" points="
	5.9,58.6 15.5,58.6 15.5,21.9 5.8,21.9 "/>
<linearGradient id="SVGID_00000076571982393275568720000015549198095745127093_" gradientUnits="userSpaceOnUse" x1="5652.4785" y1="102.6372" x2="5652.4785" y2="140.7582" gradientTransform="matrix(-1 0 0 -1 5664.0439 162)">
	<stop  offset="0" style="stop-color:#9F9D9D"/>
	<stop  offset="0.1816" style="stop-color:#808080"/>
	<stop  offset="0.2933" style="stop-color:#9F9D9D"/>
	<stop  offset="0.5447" style="stop-color:#CCCCCC"/>
	<stop  offset="0.6732" style="stop-color:#FFFFFF"/>
	<stop  offset="0.8687" style="stop-color:#E4E3E3"/>
	<stop  offset="1" style="stop-color:#B3B3B3"/>
</linearGradient>
<polygon style="fill:url(#SVGID_00000076571982393275568720000015549198095745127093_);" points="7.8,59.4 15.3,59.4 15.3,21.2 
	7.8,21.2 "/>
<linearGradient id="SVGID_00000034779387978719114070000006959021051829057203_" gradientUnits="userSpaceOnUse" x1="16.0582" y1="205.5981" x2="16.0582" y2="249.8634" gradientTransform="matrix(1 0 0 -1 0 268)">
	<stop  offset="0" style="stop-color:#B3B3B3"/>
	<stop  offset="0.25" style="stop-color:#666666"/>
	<stop  offset="0.4162" style="stop-color:#D1D3D4"/>
	<stop  offset="0.5168" style="stop-color:#CCCCCC"/>
	<stop  offset="0.662" style="stop-color:#F1F2F2"/>
	<stop  offset="0.8519" style="stop-color:#CCCCCC"/>
	<stop  offset="0.919" style="stop-color:#E6E7E8"/>
	<stop  offset="1" style="stop-color:#919396"/>
</linearGradient>
<polygon style="fill:url(#SVGID_00000034779387978719114070000006959021051829057203_);" points="14,18.1 16,21 18.1,59.3 
	16.5,62.4 "/>
<linearGradient id="SVGID_00000028325612499049825180000002528121508702334099_" gradientUnits="userSpaceOnUse" x1="-6351.9702" y1="946.6334" x2="-6351.9702" y2="904.8737" gradientTransform="matrix(-1 0 0 -1.06 -6337.6299 1027.2999)">
	<stop  offset="0" style="stop-color:#939598"/>
	<stop  offset="0.1927" style="stop-color:#6D6E71"/>
	<stop  offset="0.39" style="stop-color:#808080"/>
	<stop  offset="0.6606" style="stop-color:#CCCCCC"/>
	<stop  offset="0.8658" style="stop-color:#808285"/>
	<stop  offset="0.9715" style="stop-color:#B3B3B3"/>
</linearGradient>
<polygon style="fill:url(#SVGID_00000028325612499049825180000002528121508702334099_);" points="14,18.1 16.5,62.4 14.5,59.5 
	12.2,21 "/>
<linearGradient id="SVGID_00000018941227853922933580000011114721821329932189_" gradientUnits="userSpaceOnUse" x1="19.6919" y1="205.5981" x2="19.6919" y2="249.8634" gradientTransform="matrix(1 0 0 -1 0 268)">
	<stop  offset="0" style="stop-color:#B3B3B3"/>
	<stop  offset="0.25" style="stop-color:#666666"/>
	<stop  offset="0.4162" style="stop-color:#D1D3D4"/>
	<stop  offset="0.5168" style="stop-color:#CCCCCC"/>
	<stop  offset="0.662" style="stop-color:#F1F2F2"/>
	<stop  offset="0.8519" style="stop-color:#CCCCCC"/>
	<stop  offset="0.919" style="stop-color:#E6E7E8"/>
	<stop  offset="1" style="stop-color:#919396"/>
</linearGradient>
<polygon style="fill:url(#SVGID_00000018941227853922933580000011114721821329932189_);" points="17.6,18.1 19.6,21 21.7,59.3 
	20.1,62.4 "/>
<linearGradient id="SVGID_00000020390847941034189620000002036766971085847961_" gradientUnits="userSpaceOnUse" x1="-6355.6699" y1="946.6334" x2="-6355.6699" y2="904.8737" gradientTransform="matrix(-1 0 0 -1.06 -6337.6299 1027.2999)">
	<stop  offset="0" style="stop-color:#939598"/>
	<stop  offset="0.1927" style="stop-color:#6D6E71"/>
	<stop  offset="0.39" style="stop-color:#808080"/>
	<stop  offset="0.6606" style="stop-color:#CCCCCC"/>
	<stop  offset="0.8658" style="stop-color:#808285"/>
	<stop  offset="0.9715" style="stop-color:#B3B3B3"/>
</linearGradient>
<path style="fill:url(#SVGID_00000020390847941034189620000002036766971085847961_);" d="M17.6,18.1l2.4,44.3c-0.7-1.1-1.3-2-2-3.1
	C17.4,46.5,16.7,33.8,16,21C16.5,20.1,17.1,19.1,17.6,18.1z"/>
<linearGradient id="SVGID_00000126298941964508624630000006638875467890503098_" gradientUnits="userSpaceOnUse" x1="23.2596" y1="205.5981" x2="23.2596" y2="249.8634" gradientTransform="matrix(1 0 0 -1 0 268)">
	<stop  offset="0" style="stop-color:#B3B3B3"/>
	<stop  offset="0.25" style="stop-color:#666666"/>
	<stop  offset="0.4162" style="stop-color:#D1D3D4"/>
	<stop  offset="0.5168" style="stop-color:#CCCCCC"/>
	<stop  offset="0.662" style="stop-color:#F1F2F2"/>
	<stop  offset="0.8519" style="stop-color:#CCCCCC"/>
	<stop  offset="0.919" style="stop-color:#E6E7E8"/>
	<stop  offset="1" style="stop-color:#919396"/>
</linearGradient>
<polygon style="fill:url(#SVGID_00000126298941964508624630000006638875467890503098_);" points="21.2,18.1 23.2,21 25.3,59.3 
	23.7,62.4 "/>
<linearGradient id="SVGID_00000168829039869862524480000011125914728178458501_" gradientUnits="userSpaceOnUse" x1="-6359.2378" y1="946.6334" x2="-6359.2378" y2="904.8737" gradientTransform="matrix(-1 0 0 -1.06 -6337.6299 1027.2999)">
	<stop  offset="0" style="stop-color:#939598"/>
	<stop  offset="0.1927" style="stop-color:#6D6E71"/>
	<stop  offset="0.39" style="stop-color:#808080"/>
	<stop  offset="0.6606" style="stop-color:#CCCCCC"/>
	<stop  offset="0.8658" style="stop-color:#808285"/>
	<stop  offset="0.9715" style="stop-color:#B3B3B3"/>
</linearGradient>
<path style="fill:url(#SVGID_00000168829039869862524480000011125914728178458501_);" d="M21.2,18.1l2.4,44.3c-0.7-1.1-1.3-2-2-3.1
	c-0.7-12.8-1.4-25.5-2.1-38.3C20.2,20.1,20.7,19.1,21.2,18.1z"/>
<linearGradient id="SVGID_00000134962212052604039910000017267834615486890624_" gradientUnits="userSpaceOnUse" x1="26.8933" y1="205.5981" x2="26.8933" y2="249.8634" gradientTransform="matrix(1 0 0 -1 0 268)">
	<stop  offset="0" style="stop-color:#B3B3B3"/>
	<stop  offset="0.25" style="stop-color:#666666"/>
	<stop  offset="0.4162" style="stop-color:#D1D3D4"/>
	<stop  offset="0.5168" style="stop-color:#CCCCCC"/>
	<stop  offset="0.662" style="stop-color:#F1F2F2"/>
	<stop  offset="0.8519" style="stop-color:#CCCCCC"/>
	<stop  offset="0.919" style="stop-color:#E6E7E8"/>
	<stop  offset="1" style="stop-color:#919396"/>
</linearGradient>
<polygon style="fill:url(#SVGID_00000134962212052604039910000017267834615486890624_);" points="24.8,18.1 26.8,21 28.9,59.3 
	27.3,62.4 "/>
<linearGradient id="SVGID_00000166648594310206074810000017124141838565417861_" gradientUnits="userSpaceOnUse" x1="-6362.8716" y1="946.6334" x2="-6362.8716" y2="904.8737" gradientTransform="matrix(-1 0 0 -1.06 -6337.6299 1027.2999)">
	<stop  offset="0" style="stop-color:#939598"/>
	<stop  offset="0.1927" style="stop-color:#6D6E71"/>
	<stop  offset="0.39" style="stop-color:#808080"/>
	<stop  offset="0.6606" style="stop-color:#CCCCCC"/>
	<stop  offset="0.8658" style="stop-color:#808285"/>
	<stop  offset="0.9715" style="stop-color:#B3B3B3"/>
</linearGradient>
<path style="fill:url(#SVGID_00000166648594310206074810000017124141838565417861_);" d="M24.8,18.1l2.4,44.3c-0.7-1.1-1.3-2-2-3.1
	c-0.7-12.8-1.4-25.5-2.1-38.3C23.7,20.1,24.3,19.1,24.8,18.1z"/>
<linearGradient id="SVGID_00000150101256363466399650000011186860041413159076_" gradientUnits="userSpaceOnUse" x1="30.461" y1="205.5981" x2="30.461" y2="249.8634" gradientTransform="matrix(1 0 0 -1 0 268)">
	<stop  offset="0" style="stop-color:#B3B3B3"/>
	<stop  offset="0.25" style="stop-color:#666666"/>
	<stop  offset="0.4162" style="stop-color:#D1D3D4"/>
	<stop  offset="0.5168" style="stop-color:#CCCCCC"/>
	<stop  offset="0.662" style="stop-color:#F1F2F2"/>
	<stop  offset="0.8519" style="stop-color:#CCCCCC"/>
	<stop  offset="0.919" style="stop-color:#E6E7E8"/>
	<stop  offset="1" style="stop-color:#919396"/>
</linearGradient>
<polygon style="fill:url(#SVGID_00000150101256363466399650000011186860041413159076_);" points="28.4,18.1 30.4,21 32.5,59.3 
	30.9,62.4 "/>
<linearGradient id="SVGID_00000085958019521165147930000006406007424701396406_" gradientUnits="userSpaceOnUse" x1="-6366.439" y1="946.6334" x2="-6366.439" y2="904.8737" gradientTransform="matrix(-1 0 0 -1.06 -6337.6299 1027.2999)">
	<stop  offset="0" style="stop-color:#939598"/>
	<stop  offset="0.1927" style="stop-color:#6D6E71"/>
	<stop  offset="0.39" style="stop-color:#808080"/>
	<stop  offset="0.6606" style="stop-color:#CCCCCC"/>
	<stop  offset="0.8658" style="stop-color:#808285"/>
	<stop  offset="0.9715" style="stop-color:#B3B3B3"/>
</linearGradient>
<path style="fill:url(#SVGID_00000085958019521165147930000006406007424701396406_);" d="M28.4,18.1l2.4,44.3c-0.7-1.1-1.3-2-2-3.1
	c-0.7-12.8-1.4-25.5-2.1-38.3C27.4,20.1,27.9,19.1,28.4,18.1z"/>
<linearGradient id="SVGID_00000183948410088395444160000015606155157745225919_" gradientUnits="userSpaceOnUse" x1="34.0286" y1="205.5981" x2="34.0286" y2="249.8634" gradientTransform="matrix(1 0 0 -1 0 268)">
	<stop  offset="0" style="stop-color:#B3B3B3"/>
	<stop  offset="0.25" style="stop-color:#666666"/>
	<stop  offset="0.4162" style="stop-color:#D1D3D4"/>
	<stop  offset="0.5168" style="stop-color:#CCCCCC"/>
	<stop  offset="0.662" style="stop-color:#F1F2F2"/>
	<stop  offset="0.8519" style="stop-color:#CCCCCC"/>
	<stop  offset="0.919" style="stop-color:#E6E7E8"/>
	<stop  offset="1" style="stop-color:#919396"/>
</linearGradient>
<polygon style="fill:url(#SVGID_00000183948410088395444160000015606155157745225919_);" points="32,18.1 34,21 36.1,59.3 
	34.5,62.4 "/>
<linearGradient id="SVGID_00000062162430678240928320000018297165265355459739_" gradientUnits="userSpaceOnUse" x1="-6370.0068" y1="946.6334" x2="-6370.0068" y2="904.8737" gradientTransform="matrix(-1 0 0 -1.06 -6337.6299 1027.2999)">
	<stop  offset="0" style="stop-color:#939598"/>
	<stop  offset="0.1927" style="stop-color:#6D6E71"/>
	<stop  offset="0.39" style="stop-color:#808080"/>
	<stop  offset="0.6606" style="stop-color:#CCCCCC"/>
	<stop  offset="0.8658" style="stop-color:#808285"/>
	<stop  offset="0.9715" style="stop-color:#B3B3B3"/>
</linearGradient>
<path style="fill:url(#SVGID_00000062162430678240928320000018297165265355459739_);" d="M32,18.1l2.4,44.3c-0.7-1.1-1.3-2-2-3.1
	c-0.7-12.8-1.4-25.5-2.1-38.3C30.9,20.1,31.5,19.1,32,18.1z"/>
<linearGradient id="SVGID_00000149342397094606673170000012049618995600808122_" gradientUnits="userSpaceOnUse" x1="37.6623" y1="205.5981" x2="37.6623" y2="249.8634" gradientTransform="matrix(1 0 0 -1 0 268)">
	<stop  offset="0" style="stop-color:#B3B3B3"/>
	<stop  offset="0.25" style="stop-color:#666666"/>
	<stop  offset="0.4162" style="stop-color:#D1D3D4"/>
	<stop  offset="0.5168" style="stop-color:#CCCCCC"/>
	<stop  offset="0.662" style="stop-color:#F1F2F2"/>
	<stop  offset="0.8519" style="stop-color:#CCCCCC"/>
	<stop  offset="0.919" style="stop-color:#E6E7E8"/>
	<stop  offset="1" style="stop-color:#919396"/>
</linearGradient>
<polygon style="fill:url(#SVGID_00000149342397094606673170000012049618995600808122_);" points="35.6,18.1 37.6,21 39.7,59.3 
	38.1,62.4 "/>
<linearGradient id="SVGID_00000027564527632584382800000007719792739084701835_" gradientUnits="userSpaceOnUse" x1="-6373.6406" y1="946.6334" x2="-6373.6406" y2="904.8737" gradientTransform="matrix(-1 0 0 -1.06 -6337.6299 1027.2999)">
	<stop  offset="0" style="stop-color:#939598"/>
	<stop  offset="0.1927" style="stop-color:#6D6E71"/>
	<stop  offset="0.39" style="stop-color:#808080"/>
	<stop  offset="0.6606" style="stop-color:#CCCCCC"/>
	<stop  offset="0.8658" style="stop-color:#808285"/>
	<stop  offset="0.9715" style="stop-color:#B3B3B3"/>
</linearGradient>
<path style="fill:url(#SVGID_00000027564527632584382800000007719792739084701835_);" d="M35.6,18.1l2.4,44.3c-0.7-1.1-1.3-2-2-3.1
	C35.3,46.5,34.7,33.8,34,21C34.5,20.1,35.1,19.1,35.6,18.1z"/>
<linearGradient id="SVGID_00000078029682307687457750000016389043067615379865_" gradientUnits="userSpaceOnUse" x1="70.1345" y1="100.9855" x2="70.1345" y2="143.0045" gradientTransform="matrix(1 0 0 -1 0 162)">
	<stop  offset="0" style="stop-color:#B3B3B3"/>
	<stop  offset="0.2263" style="stop-color:#666666"/>
	<stop  offset="0.4162" style="stop-color:#D1D3D4"/>
	<stop  offset="0.5168" style="stop-color:#CCCCCC"/>
	<stop  offset="0.662" style="stop-color:#F1F2F2"/>
	<stop  offset="0.8519" style="stop-color:#CCCCCC"/>
	<stop  offset="0.919" style="stop-color:#E6E7E8"/>
	<stop  offset="1" style="stop-color:#919396"/>
</linearGradient>
<path style="fill:url(#SVGID_00000078029682307687457750000016389043067615379865_);" d="M68.8,19v41.8c0.9,0.1,1.7,0.1,2.6,0.2
	C70.6,47,69.7,33,68.8,19z"/>
<linearGradient id="SVGID_00000091694888395209078370000011801100272383033502_" gradientUnits="userSpaceOnUse" x1="98.2463" y1="137.6023" x2="98.2463" y2="95.7815" gradientTransform="matrix(1 0 0 -1 0 162)">
	<stop  offset="0" style="stop-color:#939598"/>
	<stop  offset="0.1927" style="stop-color:#6D6E71"/>
	<stop  offset="0.3045" style="stop-color:#808080"/>
	<stop  offset="0.8966" style="stop-color:#808285"/>
	<stop  offset="1" style="stop-color:#B3B3B3"/>
</linearGradient>
<path style="fill:url(#SVGID_00000091694888395209078370000011801100272383033502_);" d="M97.1,19l2.4,41.8c0-13.9,0-27.7,0-41.6
	C98.6,19.1,97.8,19.1,97.1,19z"/>
<linearGradient id="SVGID_00000094598590924250001660000002213886884020720028_" gradientUnits="userSpaceOnUse" x1="38.6533" y1="102.5712" x2="38.6533" y2="140.8904" gradientTransform="matrix(1 0 0 -1 0 162)">
	<stop  offset="0" style="stop-color:#939598"/>
	<stop  offset="0.1927" style="stop-color:#6D6E71"/>
	<stop  offset="0.39" style="stop-color:#808080"/>
	<stop  offset="0.7842" style="stop-color:#CCCCCC"/>
	<stop  offset="0.8966" style="stop-color:#808285"/>
	<stop  offset="1" style="stop-color:#B3B3B3"/>
</linearGradient>
<path style="fill:url(#SVGID_00000094598590924250001660000002213886884020720028_);" d="M37.6,21.1c0.7,0.1,1.4,0.1,2.1,0.2
	c0,12.7,0,25.4,0,38.1L37.6,21.1z"/>
<linearGradient id="SVGID_00000083075077624464944520000015829416342451473282_" gradientUnits="userSpaceOnUse" x1="13.3825" y1="102.4817" x2="13.3825" y2="140.9991" gradientTransform="matrix(1 0 0 -1 0 162)">
	<stop  offset="0" style="stop-color:#B3B3B3"/>
	<stop  offset="0.25" style="stop-color:#666666"/>
	<stop  offset="0.4162" style="stop-color:#D1D3D4"/>
	<stop  offset="0.5168" style="stop-color:#CCCCCC"/>
	<stop  offset="0.662" style="stop-color:#F1F2F2"/>
	<stop  offset="0.8519" style="stop-color:#CCCCCC"/>
	<stop  offset="0.919" style="stop-color:#E6E7E8"/>
	<stop  offset="1" style="stop-color:#919396"/>
</linearGradient>
<path style="fill:url(#SVGID_00000083075077624464944520000015829416342451473282_);" d="M12.2,21v38.3c0.8,0.1,1.5,0.1,2.3,0.2
	C13.7,46.7,13,33.9,12.2,21z"/>
<linearGradient id="SVGID_00000053523367537486615920000017399690038697250437_" gradientUnits="userSpaceOnUse" x1="5661.8599" y1="108.337" x2="5661.8599" y2="144.4759" gradientTransform="matrix(-1 0 0 -1 5664.0439 162)">
	<stop  offset="0" style="stop-color:#9F9D9D"/>
	<stop  offset="0.1816" style="stop-color:#808080"/>
	<stop  offset="0.2933" style="stop-color:#9F9D9D"/>
	<stop  offset="0.5447" style="stop-color:#CCCCCC"/>
	<stop  offset="0.6732" style="stop-color:#FFFFFF"/>
	<stop  offset="0.8687" style="stop-color:#E4E3E3"/>
	<stop  offset="1" style="stop-color:#B3B3B3"/>
</linearGradient>
<path style="fill:url(#SVGID_00000053523367537486615920000017399690038697250437_);" d="M0.7,53.9c1,1.5,2,3,3,4.4
	c0-12,0-24,0-36.1c-1,1.5-2,3-3,4.4C0.7,26.7,0.7,53.9,0.7,53.9z"/>
<linearGradient id="SVGID_00000116226238519022657660000004715453522341272969_" gradientUnits="userSpaceOnUse" x1="5660.7568" y1="121.6977" x2="5663.769" y2="121.6977" gradientTransform="matrix(-1 0 0 -1 5664.0439 162)">
	<stop  offset="0" style="stop-color:#B3B3B3;stop-opacity:0.5"/>
	<stop  offset="1" style="stop-color:#B3B3B3;stop-opacity:0"/>
</linearGradient>
<path style="opacity:0.53;fill:url(#SVGID_00000116226238519022657660000004715453522341272969_);enable-background:new    ;" d="
	M0.7,53.9c1,1.5,2,3,3,4.4c0-12,0-24,0-36.1c-1,1.5-2,3-3,4.4C0.7,26.7,0.7,53.9,0.7,53.9z"/>
<path class="st49" d="M92.1,120.3"/>
<linearGradient id="SVGID_00000013165559424855186110000007043369605274380186_" gradientUnits="userSpaceOnUse" x1="52.7918" y1="529.5654" x2="52.7918" y2="550.3458" gradientTransform="matrix(1 0 0 1 0 -418.5511)">
	<stop  offset="0.2849" style="stop-color:#606060"/>
	<stop  offset="0.5139" style="stop-color:#999999"/>
	<stop  offset="0.6613" style="stop-color:#ACACAC"/>
	<stop  offset="0.8464" style="stop-color:#6E6E6F;stop-opacity:0.9913"/>
	<stop  offset="1" style="stop-color:#606060"/>
</linearGradient>
<rect x="6.1" y="111" style="fill:url(#SVGID_00000013165559424855186110000007043369605274380186_);" width="93.4" height="20.8"/>
<linearGradient id="SVGID_00000034774515501144782520000009065458391717045902_" gradientUnits="userSpaceOnUse" x1="3.3402" y1="53.3007" x2="3.3402" y2="27.8647" gradientTransform="matrix(1 0 0 -1 0 162)">
	<stop  offset="0.2849" style="stop-color:#606060"/>
	<stop  offset="0.5139" style="stop-color:#999999"/>
	<stop  offset="0.6613" style="stop-color:#ACACAC"/>
	<stop  offset="0.8464" style="stop-color:#6E6E6F;stop-opacity:0.9913"/>
	<stop  offset="1" style="stop-color:#606060"/>
</linearGradient>
<path style="fill:url(#SVGID_00000034774515501144782520000009065458391717045902_);" d="M6.1,131.8c-1.8,0.8-3.6,1.5-5.5,2.3
	c0-8.5,0-17,0-25.4c1.8,0.8,3.6,1.5,5.5,2.3V131.8z"/>
<image style="overflow:visible;" width="200" height="200" xlink:href="../../pepsi.png"  transform="matrix(6.199106e-02 0 0 6.199106e-02 48.7399 33.4207)">
</image>
</svg>
