<?xml version="1.0" encoding="utf-8"?>
<!-- Generator: Adobe Illustrator 25.4.1, SVG Export Plug-In . SVG Version: 6.00 Build 0)  -->
<svg version="1.1" id="Слой_1" xmlns="http://www.w3.org/2000/svg" xmlns:xlink="http://www.w3.org/1999/xlink" x="0px" y="0px"
	 viewBox="0 0 100 160" style="enable-background:new 0 0 100 160;" xml:space="preserve">
<style type="text/css">
	.st0{fill:url(#SVGID_1_);}
	.st1{fill:url(#SVGID_00000142164793204339078360000005406741733309137295_);}
	.st2{opacity:0.5;fill:url(#SVGID_00000111893154893138160810000014757750415411609735_);enable-background:new    ;}
	.st3{opacity:0.5;fill:url(#SVGID_00000170236163370984881490000009217835906856432814_);enable-background:new    ;}
	.st4{fill:url(#SVGID_00000077314630914760341390000004629018045076940456_);}
	.st5{fill:url(#SVGID_00000054254170924174577570000012247652285995948438_);}
	.st6{opacity:0.5;fill:url(#SVGID_00000032608422941235146530000014997866670901527985_);enable-background:new    ;}
	.st7{fill:url(#SVGID_00000135649460124708282570000010765141994907674757_);}
	.st8{fill:url(#SVGID_00000094577561269336487530000008438385589019634367_);}
	.st9{fill:url(#SVGID_00000098905652880085303120000011966090855428242568_);}
	.st10{opacity:0.85;fill:url(#SVGID_00000155837076704523561570000008260277420357534370_);enable-background:new    ;}
	.st11{opacity:0.53;fill:url(#SVGID_00000114757236432116965200000008066568286580226435_);enable-background:new    ;}
	.st12{clip-path:url(#SVGID_00000110441321691554082770000013072668090326658203_);}
	.st13{fill:none;stroke:#C7C8CA;stroke-width:0.5;stroke-miterlimit:10;}
	.st14{fill:url(#SVGID_00000114776239742357251120000003526837561152089749_);}
	.st15{fill:#606060;}
	.st16{opacity:0.58;fill:url(#SVGID_00000147190064409114031910000000437996460523817126_);enable-background:new    ;}
</style>
<linearGradient id="SVGID_1_" gradientUnits="userSpaceOnUse" x1="73.5298" y1="-902.7001" x2="73.5298" y2="-873.7206" gradientTransform="matrix(1 0 0 -1 0 -847.5511)">
	<stop  offset="0" style="stop-color:#9F9D9D"/>
	<stop  offset="0.1816" style="stop-color:#808080"/>
	<stop  offset="0.2933" style="stop-color:#9F9D9D"/>
	<stop  offset="0.5447" style="stop-color:#CCCCCC"/>
	<stop  offset="0.6732" style="stop-color:#FFFFFF"/>
	<stop  offset="0.8687" style="stop-color:#E4E3E3"/>
	<stop  offset="1" style="stop-color:#B3B3B3"/>
</linearGradient>
<rect x="54.1" y="26.1" class="st0" width="38.9" height="29"/>
<linearGradient id="SVGID_00000072963145175533896210000008746956033537316262_" gradientUnits="userSpaceOnUse" x1="95.4247" y1="-906.4507" x2="95.4247" y2="-869.9699" gradientTransform="matrix(1 0 0 -1 0 -847.5511)">
	<stop  offset="0" style="stop-color:#9F9D9D"/>
	<stop  offset="0.1816" style="stop-color:#808080"/>
	<stop  offset="0.2933" style="stop-color:#9F9D9D"/>
	<stop  offset="0.5447" style="stop-color:#CCCCCC"/>
	<stop  offset="0.6732" style="stop-color:#FFFFFF"/>
	<stop  offset="0.8687" style="stop-color:#E4E3E3"/>
	<stop  offset="1" style="stop-color:#B3B3B3"/>
</linearGradient>
<rect x="93" y="22.4" style="fill:url(#SVGID_00000072963145175533896210000008746956033537316262_);" width="4.9" height="36.5"/>
<linearGradient id="SVGID_00000109735465230410135430000002829380044109470342_" gradientUnits="userSpaceOnUse" x1="-488.4622" y1="2570.4575" x2="-481.3923" y2="2570.4575" gradientTransform="matrix(1 0 0 1 543.2952 -2529.7983)">
	<stop  offset="0" style="stop-color:#3F3B3C"/>
	<stop  offset="1" style="stop-color:#3F3B3C;stop-opacity:0"/>
</linearGradient>
<polygon style="opacity:0.5;fill:url(#SVGID_00000109735465230410135430000002829380044109470342_);enable-background:new    ;" points="
	61.8,26.1 54.7,26.1 54.7,55.2 61.9,55.2 "/>
<linearGradient id="SVGID_00000085948783696707166190000018415177677391673003_" gradientUnits="userSpaceOnUse" x1="-491.934" y1="2570.4255" x2="-487.0924" y2="2570.4255" gradientTransform="matrix(1 0 0 1 543.2952 -2529.7983)">
	<stop  offset="0" style="stop-color:#3F3B3C"/>
	<stop  offset="1" style="stop-color:#3F3B3C;stop-opacity:0"/>
</linearGradient>
<polygon style="opacity:0.5;fill:url(#SVGID_00000085948783696707166190000018415177677391673003_);enable-background:new    ;" points="
	56.2,26.2 51.3,26.2 51.3,55.1 56.2,55.1 "/>
<linearGradient id="SVGID_00000100381643475023751160000013489969641148293018_" gradientUnits="userSpaceOnUse" x1="45.7685" y1="-907.5406" x2="45.7685" y2="-868.8799" gradientTransform="matrix(1 0 0 -1 0 -847.5511)">
	<stop  offset="0" style="stop-color:#9F9D9D"/>
	<stop  offset="0.1816" style="stop-color:#808080"/>
	<stop  offset="0.2933" style="stop-color:#9F9D9D"/>
	<stop  offset="0.5447" style="stop-color:#CCCCCC"/>
	<stop  offset="0.6732" style="stop-color:#FFFFFF"/>
	<stop  offset="0.8687" style="stop-color:#E4E3E3"/>
	<stop  offset="1" style="stop-color:#B3B3B3"/>
</linearGradient>
<rect x="33.4" y="21.3" style="fill:url(#SVGID_00000100381643475023751160000013489969641148293018_);" width="24.7" height="38.7"/>
<linearGradient id="SVGID_00000165934565070368529270000002345493527139406991_" gradientUnits="userSpaceOnUse" x1="16.5967" y1="-912.7979" x2="16.5967" y2="-863.6226" gradientTransform="matrix(1 0 0 -1 0 -847.5511)">
	<stop  offset="0" style="stop-color:#9F9D9D"/>
	<stop  offset="0.1816" style="stop-color:#808080"/>
	<stop  offset="0.2933" style="stop-color:#9F9D9D"/>
	<stop  offset="0.5447" style="stop-color:#CCCCCC"/>
	<stop  offset="0.6732" style="stop-color:#FFFFFF"/>
	<stop  offset="0.8687" style="stop-color:#E4E3E3"/>
	<stop  offset="1" style="stop-color:#B3B3B3"/>
</linearGradient>
<rect x="8.8" y="16.1" style="fill:url(#SVGID_00000165934565070368529270000002345493527139406991_);" width="15.6" height="49.2"/>
<linearGradient id="SVGID_00000063599099038341758980000013322445955992468397_" gradientUnits="userSpaceOnUse" x1="-514.0281" y1="2570.4575" x2="-506.9582" y2="2570.4575" gradientTransform="matrix(1 0 0 1 543.2952 -2529.7983)">
	<stop  offset="0" style="stop-color:#3F3B3C"/>
	<stop  offset="1" style="stop-color:#3F3B3C;stop-opacity:0"/>
</linearGradient>
<polygon style="opacity:0.5;fill:url(#SVGID_00000063599099038341758980000013322445955992468397_);enable-background:new    ;" points="
	36.3,21.3 29.2,21.3 29.2,60 36.3,60 "/>
<linearGradient id="SVGID_00000134941589332130716890000008106056460715911849_" gradientUnits="userSpaceOnUse" x1="30.7979" y1="-914.8496" x2="30.7979" y2="-861.571" gradientTransform="matrix(1 0 0 -1 0 -847.5511)">
	<stop  offset="0" style="stop-color:#9F9D9D"/>
	<stop  offset="0.1816" style="stop-color:#808080"/>
	<stop  offset="0.2933" style="stop-color:#9F9D9D"/>
	<stop  offset="0.5447" style="stop-color:#CCCCCC"/>
	<stop  offset="0.6732" style="stop-color:#FFFFFF"/>
	<stop  offset="0.8687" style="stop-color:#E4E3E3"/>
	<stop  offset="1" style="stop-color:#B3B3B3"/>
</linearGradient>
<rect x="28.2" y="14" style="fill:url(#SVGID_00000134941589332130716890000008106056460715911849_);" width="5.2" height="53.3"/>
<linearGradient id="SVGID_00000093860879070056246850000017855076768586753713_" gradientUnits="userSpaceOnUse" x1="5.4729" y1="-912.2209" x2="5.4729" y2="-864.1355" gradientTransform="matrix(1 0 0 -1 0 -847.5511)">
	<stop  offset="0" style="stop-color:#9F9D9D"/>
	<stop  offset="0.1816" style="stop-color:#808080"/>
	<stop  offset="0.2933" style="stop-color:#9F9D9D"/>
	<stop  offset="0.5447" style="stop-color:#CCCCCC"/>
	<stop  offset="0.6732" style="stop-color:#FFFFFF"/>
	<stop  offset="0.8687" style="stop-color:#E4E3E3"/>
	<stop  offset="1" style="stop-color:#B3B3B3"/>
</linearGradient>
<path style="fill:url(#SVGID_00000093860879070056246850000017855076768586753713_);" d="M8.8,64.7c-2.2-2.2-4.4-4.3-6.6-6.5v-35
	c2.2-2.2,4.4-4.3,6.6-6.5C8.8,32.6,8.8,48.6,8.8,64.7z"/>
<linearGradient id="SVGID_00000039116068985899317410000012093175905159207339_" gradientUnits="userSpaceOnUse" x1="26.3099" y1="-914.8496" x2="26.3099" y2="-861.571" gradientTransform="matrix(1 0 0 -1 0 -847.5511)">
	<stop  offset="0" style="stop-color:#9F9D9D"/>
	<stop  offset="0.1816" style="stop-color:#808080"/>
	<stop  offset="0.2933" style="stop-color:#9F9D9D"/>
	<stop  offset="0.5447" style="stop-color:#CCCCCC"/>
	<stop  offset="0.6732" style="stop-color:#FFFFFF"/>
	<stop  offset="0.8687" style="stop-color:#E4E3E3"/>
	<stop  offset="1" style="stop-color:#B3B3B3"/>
</linearGradient>
<path style="fill:url(#SVGID_00000039116068985899317410000012093175905159207339_);" d="M28.2,67.3c-1.3-0.7-2.6-1.3-3.8-2.1V16.1
	c1.3-0.7,2.6-1.3,3.8-2.1C28.2,31.8,28.2,49.5,28.2,67.3z"/>
<linearGradient id="SVGID_00000108270913370726366680000004154009076961245314_" gradientUnits="userSpaceOnUse" x1="8.7663" y1="-888.1782" x2="2.1886" y2="-888.1782" gradientTransform="matrix(1 0 0 -1 0 -847.5511)">
	<stop  offset="0" style="stop-color:#B3B3B3;stop-opacity:0.5"/>
	<stop  offset="9.169108e-02" style="stop-color:#B3B3B3;stop-opacity:0.4542"/>
	<stop  offset="1" style="stop-color:#B3B3B3;stop-opacity:0"/>
</linearGradient>
<path style="opacity:0.85;fill:url(#SVGID_00000108270913370726366680000004154009076961245314_);enable-background:new    ;" d="
	M8.8,64.7c-2.2-2.2-4.4-4.3-6.6-6.5v-35c2.2-2.2,4.4-4.3,6.6-6.5C8.8,32.6,8.8,48.6,8.8,64.7z"/>
<linearGradient id="SVGID_00000165194972120024569300000010974929589187881915_" gradientUnits="userSpaceOnUse" x1="28.2208" y1="-888.2103" x2="24.4158" y2="-888.2103" gradientTransform="matrix(1 0 0 -1 0 -847.5511)">
	<stop  offset="0" style="stop-color:#B3B3B3;stop-opacity:0.5"/>
	<stop  offset="1" style="stop-color:#B3B3B3;stop-opacity:0"/>
</linearGradient>
<path style="opacity:0.53;fill:url(#SVGID_00000165194972120024569300000010974929589187881915_);enable-background:new    ;" d="
	M28.2,67.3c-1.3-0.7-2.6-1.3-3.8-2.1V16.1c1.3-0.7,2.6-1.3,3.8-2.1C28.2,31.8,28.2,49.5,28.2,67.3z"/>
<g>
	<g>
		<g>
			<defs>
				<path id="SVGID_00000081623481872531496130000008086214500378576788_" d="M93,102.2v3.8H61.8h-3.7v-4.8H36.3h-2.9v-7.4h-5.2
					c-1.2,0.7-2.5,1.3-3.8,2.1H8.8v0.6c-2.2,2.2-4.4,4.3-6.6,6.5v35c2.2,2.2,4.4,4.3,6.6,6.5v0.6h15.6c1.2,0.7,2.5,1.3,3.8,2.1h5.2
					v-7.3h2.9h21.8V135h3.8h31v3.7h4.9v-36.5L93,102.2L93,102.2z"/>
			</defs>
			<clipPath id="SVGID_00000150095700043003957660000000774917889241607311_">
				<use xlink:href="#SVGID_00000081623481872531496130000008086214500378576788_"  style="overflow:visible;"/>
			</clipPath>
			<g style="clip-path:url(#SVGID_00000150095700043003957660000000774917889241607311_);">
				<path class="st13" d="M93,104.3v3.7H61.8h-3.7v-4.9H36.3h-2.9v-7.2h-5.2c-1.3,0.7-2.6,1.3-3.8,2.1l0,0H8.8
					c-2.2,2.2-4.4,4.4-6.6,6.7v35.8c2.2,2.2,4.4,4.4,6.6,6.7h15.6l0,0c1.3,0.7,2.6,1.3,3.8,2.1h5.2v-7.3h2.9h21.7V137h3.8H93v3.7
					h4.9v-36.4H93z"/>
				<g>
					
						<image style="overflow:visible;enable-background:new    ;" width="1200" height="900" xlink:href="../../Фитинги/Резьбовые/Металл.jpg"  transform="matrix(8.559200e-02 0 0 8.559200e-02 -0.3095 81.9301)">
					</image>
				</g>
			</g>
		</g>
		<g>
			<path id="SVGID_13_" class="st13" d="M93,102.2v3.8H61.8h-3.7v-4.8H36.3h-2.9v-7.4h-5.2c-1.2,0.7-2.5,1.3-3.8,2.1H8.8v0.6
				c-2.2,2.2-4.4,4.3-6.6,6.5v35c2.2,2.2,4.4,4.3,6.6,6.5v0.6h15.6c1.2,0.7,2.5,1.3,3.8,2.1h5.2v-7.3h2.9h21.8V135h3.8h31v3.7h4.9
				v-36.5L93,102.2L93,102.2z"/>
		</g>
	</g>
</g>
<linearGradient id="SVGID_00000083774758969442335290000018076963038395798660_" gradientUnits="userSpaceOnUse" x1="55.5458" y1="-957.9638" x2="55.5458" y2="-978.0073" gradientTransform="matrix(1 0 0 -1 0 -847.5511)">
	<stop  offset="0.2849" style="stop-color:#606060"/>
	<stop  offset="0.5139" style="stop-color:#999999"/>
	<stop  offset="0.6613" style="stop-color:#ACACAC"/>
	<stop  offset="0.8464" style="stop-color:#6E6E6F;stop-opacity:0.9913"/>
	<stop  offset="1" style="stop-color:#606060"/>
</linearGradient>
<rect x="13.1" y="110.4" style="fill:url(#SVGID_00000083774758969442335290000018076963038395798660_);" width="85" height="20.1"/>
<path class="st15" d="M13.1,130.4c-3.7,2.5-7.4,5-11.1,7.6c0-11.7,0-23.3,0-34.9c3.7,2.4,7.4,4.9,11.1,7.4V130.4z"/>
<linearGradient id="SVGID_00000106116555083951187190000010900873838635178425_" gradientUnits="userSpaceOnUse" x1="7.5246" y1="-950.5266" x2="7.5246" y2="-985.4686" gradientTransform="matrix(1 0 0 -1 0 -847.5511)">
	<stop  offset="0.2849" style="stop-color:#606060"/>
	<stop  offset="0.5139" style="stop-color:#999999"/>
	<stop  offset="0.6613" style="stop-color:#ACACAC;stop-opacity:0.76"/>
	<stop  offset="0.8464" style="stop-color:#6E6E6F;stop-opacity:0.9913"/>
	<stop  offset="1" style="stop-color:#606060"/>
</linearGradient>
<path style="opacity:0.58;fill:url(#SVGID_00000106116555083951187190000010900873838635178425_);enable-background:new    ;" d="
	M13.1,130.4c-3.7,2.5-7.4,5-11.1,7.6c0-11.7,0-23.3,0-34.9c3.7,2.4,7.4,4.9,11.1,7.4V130.4z"/>
<image style="overflow:visible;" width="200" height="200" xlink:href="../../pepsi.png"  transform="matrix(7.761189e-02 0 0 7.761189e-02 38.0073 32.8659)">
</image>
</svg>
