<?xml version="1.0" encoding="utf-8"?>
<!-- Generator: Adobe Illustrator 25.4.1, SVG Export Plug-In . SVG Version: 6.00 Build 0)  -->
<svg version="1.1" id="Слой_1" xmlns="http://www.w3.org/2000/svg" xmlns:xlink="http://www.w3.org/1999/xlink" x="0px" y="0px"
	 viewBox="0 0 100 160" style="enable-background:new 0 0 100 160;" xml:space="preserve">
<style type="text/css">
	.st0{fill:url(#SVGID_1_);}
	.st1{opacity:0.5;fill:url(#SVGID_00000046308123490941160240000012032850080776625837_);enable-background:new    ;}
	.st2{fill:url(#SVGID_00000075882371341119129560000012084470683570771635_);}
	.st3{opacity:0.5;fill:url(#SVGID_00000156569722362576938420000012104003718674171298_);enable-background:new    ;}
	.st4{fill:url(#SVGID_00000065789763128823314070000017636215825640699016_);}
	.st5{fill:url(#SVGID_00000167355686864581651850000013652667786006353827_);}
	.st6{fill:url(#SVGID_00000064320165152016584280000012144131526694497176_);}
	.st7{fill:url(#SVGID_00000119834432826276319720000017167047436295096493_);}
	.st8{opacity:0.53;fill:url(#SVGID_00000153702593463341254400000000030371556079831443_);enable-background:new    ;}
	.st9{opacity:0.53;fill:url(#SVGID_00000072255625437999990530000012959483854515962775_);enable-background:new    ;}
	.st10{clip-path:url(#SVGID_00000052104439981993573680000004275212669642383254_);}
	.st11{fill:none;stroke:#B3B3B3;stroke-width:0.5;stroke-miterlimit:10;}
	.st12{fill:url(#SVGID_00000110429384037524454820000010755362806220432527_);}
	.st13{fill:#606060;}
	.st14{opacity:0.58;fill:url(#SVGID_00000132068686109604217330000010247490323026185348_);enable-background:new    ;}
</style>
<linearGradient id="SVGID_1_" gradientUnits="userSpaceOnUse" x1="84.6003" y1="-965.3541" x2="84.6003" y2="-949.2029" gradientTransform="matrix(1 0 0 -1 0 -917.5511)">
	<stop  offset="0" style="stop-color:#9F9D9D"/>
	<stop  offset="0.1816" style="stop-color:#808080"/>
	<stop  offset="0.2933" style="stop-color:#9F9D9D"/>
	<stop  offset="0.5447" style="stop-color:#CCCCCC"/>
	<stop  offset="0.6732" style="stop-color:#FFFFFF"/>
	<stop  offset="0.8687" style="stop-color:#E4E3E3"/>
	<stop  offset="1" style="stop-color:#B3B3B3"/>
</linearGradient>
<rect x="70.4" y="31.7" class="st0" width="28.5" height="16.2"/>
<linearGradient id="SVGID_00000094607220712617457340000015633143075869185197_" gradientUnits="userSpaceOnUse" x1="-478.143" y1="2709.5256" x2="-470.0386" y2="2709.5256" gradientTransform="matrix(1 0 0 1 543.2952 -2669.7983)">
	<stop  offset="0" style="stop-color:#3F3B3C"/>
	<stop  offset="1" style="stop-color:#3F3B3C;stop-opacity:0"/>
</linearGradient>
<polygon style="opacity:0.5;fill:url(#SVGID_00000094607220712617457340000015633143075869185197_);enable-background:new    ;" points="
	73.2,31.7 65,31.7 65,47.8 73.3,47.8 "/>
<linearGradient id="SVGID_00000038404524615249027210000002874541722998365099_" gradientUnits="userSpaceOnUse" x1="45.043" y1="-969.2277" x2="45.043" y2="-945.3293" gradientTransform="matrix(1 0 0 -1 0 -917.5511)">
	<stop  offset="0" style="stop-color:#9F9D9D"/>
	<stop  offset="0.1816" style="stop-color:#808080"/>
	<stop  offset="0.2933" style="stop-color:#9F9D9D"/>
	<stop  offset="0.5447" style="stop-color:#CCCCCC"/>
	<stop  offset="0.6732" style="stop-color:#FFFFFF"/>
	<stop  offset="0.8687" style="stop-color:#E4E3E3"/>
	<stop  offset="1" style="stop-color:#B3B3B3"/>
</linearGradient>
<rect x="19.7" y="27.8" style="fill:url(#SVGID_00000038404524615249027210000002874541722998365099_);" width="50.6" height="23.9"/>
<linearGradient id="SVGID_00000152255182783081411850000013385847802997527961_" gradientUnits="userSpaceOnUse" x1="-528.0481" y1="2709.5256" x2="-519.9437" y2="2709.5256" gradientTransform="matrix(1 0 0 1 543.2952 -2669.7983)">
	<stop  offset="0" style="stop-color:#3F3B3C"/>
	<stop  offset="1" style="stop-color:#3F3B3C;stop-opacity:0"/>
</linearGradient>
<polygon style="opacity:0.5;fill:url(#SVGID_00000152255182783081411850000013385847802997527961_);enable-background:new    ;" points="
	23.3,27.8 15.1,27.8 15.1,51.7 23.4,51.7 "/>
<linearGradient id="SVGID_00000080167631665952273290000012452416517011412923_" gradientUnits="userSpaceOnUse" x1="9.7206" y1="-971.9852" x2="9.7206" y2="-942.5717" gradientTransform="matrix(1 0 0 -1 0 -917.5511)">
	<stop  offset="0" style="stop-color:#9F9D9D"/>
	<stop  offset="0.1816" style="stop-color:#808080"/>
	<stop  offset="0.2933" style="stop-color:#9F9D9D"/>
	<stop  offset="0.5447" style="stop-color:#CCCCCC"/>
	<stop  offset="0.6732" style="stop-color:#FFFFFF"/>
	<stop  offset="0.8687" style="stop-color:#E4E3E3"/>
	<stop  offset="1" style="stop-color:#B3B3B3"/>
</linearGradient>
<rect x="5" y="25" style="fill:url(#SVGID_00000080167631665952273290000012452416517011412923_);" width="9.4" height="29.4"/>
<linearGradient id="SVGID_00000103240427495675537370000017932236343032746123_" gradientUnits="userSpaceOnUse" x1="17.9275" y1="-973.4296" x2="17.9275" y2="-941.1273" gradientTransform="matrix(1 0 0 -1 0 -917.5511)">
	<stop  offset="0" style="stop-color:#9F9D9D"/>
	<stop  offset="0.1816" style="stop-color:#808080"/>
	<stop  offset="0.2933" style="stop-color:#9F9D9D"/>
	<stop  offset="0.5447" style="stop-color:#CCCCCC"/>
	<stop  offset="0.6732" style="stop-color:#FFFFFF"/>
	<stop  offset="0.8687" style="stop-color:#E4E3E3"/>
	<stop  offset="1" style="stop-color:#B3B3B3"/>
</linearGradient>
<rect x="15.8" y="23.6" style="fill:url(#SVGID_00000103240427495675537370000017932236343032746123_);" width="4.3" height="32.3"/>
<linearGradient id="SVGID_00000032649104902247929640000008044331611664905368_" gradientUnits="userSpaceOnUse" x1="3.0894" y1="-971.5913" x2="3.0894" y2="-942.9175" gradientTransform="matrix(1 0 0 -1 0 -917.5511)">
	<stop  offset="0" style="stop-color:#9F9D9D"/>
	<stop  offset="0.1816" style="stop-color:#808080"/>
	<stop  offset="0.2933" style="stop-color:#9F9D9D"/>
	<stop  offset="0.5447" style="stop-color:#CCCCCC"/>
	<stop  offset="0.6732" style="stop-color:#FFFFFF"/>
	<stop  offset="0.8687" style="stop-color:#E4E3E3"/>
	<stop  offset="1" style="stop-color:#B3B3B3"/>
</linearGradient>
<path style="fill:url(#SVGID_00000032649104902247929640000008044331611664905368_);" d="M5,54c-1.3-1.2-2.6-2.6-3.9-3.9V29.3
	C2.5,28,3.7,26.7,5,25.4C5,34.9,5,44.5,5,54z"/>
<linearGradient id="SVGID_00000183231540145040046050000003689360524813748367_" gradientUnits="userSpaceOnUse" x1="15.1043" y1="-973.4296" x2="15.1043" y2="-941.1273" gradientTransform="matrix(1 0 0 -1 0 -917.5511)">
	<stop  offset="0" style="stop-color:#9F9D9D"/>
	<stop  offset="0.1816" style="stop-color:#808080"/>
	<stop  offset="0.2933" style="stop-color:#9F9D9D"/>
	<stop  offset="0.5447" style="stop-color:#CCCCCC"/>
	<stop  offset="0.6732" style="stop-color:#FFFFFF"/>
	<stop  offset="0.8687" style="stop-color:#E4E3E3"/>
	<stop  offset="1" style="stop-color:#B3B3B3"/>
</linearGradient>
<path style="fill:url(#SVGID_00000183231540145040046050000003689360524813748367_);" d="M15.8,55.9c-0.5-0.5-0.9-1-1.4-1.4
	c0-9.8,0-19.6,0-29.4c0.5-0.5,0.9-1,1.4-1.4C15.8,34.3,15.8,45.1,15.8,55.9z"/>
<linearGradient id="SVGID_00000064349141090139150660000008257632322259381946_" gradientUnits="userSpaceOnUse" x1="5.0156" y1="-957.2785" x2="1.1336" y2="-957.2785" gradientTransform="matrix(1 0 0 -1 0 -917.5511)">
	<stop  offset="0" style="stop-color:#B3B3B3;stop-opacity:0.5"/>
	<stop  offset="1" style="stop-color:#B3B3B3;stop-opacity:0"/>
</linearGradient>
<path style="opacity:0.53;fill:url(#SVGID_00000064349141090139150660000008257632322259381946_);enable-background:new    ;" d="
	M5,54c-1.3-1.2-2.6-2.6-3.9-3.9V29.3C2.5,28,3.7,26.7,5,25.4C5,34.9,5,44.5,5,54z"/>
<linearGradient id="SVGID_00000132783567861430015680000012113010371362494871_" gradientUnits="userSpaceOnUse" x1="15.8143" y1="-957.2785" x2="14.4355" y2="-957.2785" gradientTransform="matrix(1 0 0 -1 0 -917.5511)">
	<stop  offset="0" style="stop-color:#B3B3B3;stop-opacity:0.5"/>
	<stop  offset="1" style="stop-color:#B3B3B3;stop-opacity:0"/>
</linearGradient>
<path style="opacity:0.53;fill:url(#SVGID_00000132783567861430015680000012113010371362494871_);enable-background:new    ;" d="
	M15.8,55.9c-0.5-0.5-0.9-1-1.4-1.4c0-9.8,0-19.6,0-29.4c0.5-0.5,0.9-1,1.4-1.4C15.8,34.3,15.8,45.1,15.8,55.9z"/>
<g>
	<g>
		<g>
			<defs>
				<path id="SVGID_00000018938224400866270580000000869866011365725078_" d="M73.2,114h-2.8v-3.9H23.3h-3.2V106h-4.3l0,0
					c-0.5,0.5-0.9,1-1.4,1.4H5v0.3c-1.3,1.3-2.6,2.6-3.9,3.9v20.9c1.3,1.3,2.6,2.6,3.9,3.9v0.4h9.4l0,0c0.5,0.5,0.9,1,1.4,1.4h4.3
					V134h3.3h46.9v-3.9h3h25.5V114H73.2z"/>
			</defs>
			<clipPath id="SVGID_00000000901323258462189720000011149292865492725919_">
				<use xlink:href="#SVGID_00000018938224400866270580000000869866011365725078_"  style="overflow:visible;"/>
			</clipPath>
			
				<g transform="matrix(1 0 0 1 9.536743e-07 0)" style="clip-path:url(#SVGID_00000000901323258462189720000011149292865492725919_);">
				
					<image style="overflow:visible;enable-background:new    ;" width="1200" height="900" xlink:href="../../Фитинги/Резьбовые/Металл.jpg"  transform="matrix(9.428075e-02 0 0 9.428075e-02 -8.2654 76.2181)">
				</image>
			</g>
		</g>
	</g>
	<g>
		<path id="SVGID_11_" class="st11" d="M73.2,114h-2.8v-3.9H23.3h-3.2V106h-4.3l0,0c-0.5,0.5-0.9,1-1.4,1.4H5v0.3
			c-1.3,1.3-2.6,2.6-3.9,3.9v20.9c1.3,1.3,2.6,2.6,3.9,3.9v0.4h9.4l0,0c0.5,0.5,0.9,1,1.4,1.4h4.3V134h3.3h46.9v-3.9h3h25.5V114
			H73.2z"/>
	</g>
</g>
<linearGradient id="SVGID_00000129897731748383769080000006852560406883778445_" gradientUnits="userSpaceOnUse" x1="53.3156" y1="-1033.6083" x2="53.3156" y2="-1045.5946" gradientTransform="matrix(1 0 0 -1 0 -917.5511)">
	<stop  offset="0.2849" style="stop-color:#606060"/>
	<stop  offset="0.5139" style="stop-color:#999999"/>
	<stop  offset="0.6613" style="stop-color:#ACACAC"/>
	<stop  offset="0.8464" style="stop-color:#6E6E6F;stop-opacity:0.9913"/>
	<stop  offset="1" style="stop-color:#606060"/>
</linearGradient>
<rect x="7.7" y="116" style="fill:url(#SVGID_00000129897731748383769080000006852560406883778445_);" width="91.3" height="12"/>
<path class="st13" d="M7.7,128c-2.2,1.5-4.4,3-6.6,4.5c0-7,0-13.9,0-20.9c2.2,1.4,4.4,3,6.6,4.4V128z"/>
<linearGradient id="SVGID_00000086663924888499800560000004354590128182281376_" gradientUnits="userSpaceOnUse" x1="4.3369" y1="-1029.1934" x2="4.3369" y2="-1050.0947" gradientTransform="matrix(1 0 0 -1 0 -917.5511)">
	<stop  offset="0.2849" style="stop-color:#606060"/>
	<stop  offset="0.5139" style="stop-color:#999999"/>
	<stop  offset="0.6613" style="stop-color:#ACACAC;stop-opacity:0.76"/>
	<stop  offset="0.8464" style="stop-color:#6E6E6F;stop-opacity:0.9913"/>
	<stop  offset="1" style="stop-color:#606060"/>
</linearGradient>
<path style="opacity:0.58;fill:url(#SVGID_00000086663924888499800560000004354590128182281376_);enable-background:new    ;" d="
	M7.7,128c-2.2,1.5-4.4,3-6.6,4.5c0-7,0-13.9,0-20.9c2.2,1.4,4.4,3,6.6,4.4V128z"/>
<image style="overflow:visible;" width="200" height="200" xlink:href="../../pepsi.png"  transform="matrix(6.160406e-02 0 0 6.160406e-02 38.8826 33.5669)">
</image>
</svg>
