<?xml version="1.0" encoding="utf-8"?>
<!-- Generator: Adobe Illustrator 25.4.1, SVG Export Plug-In . SVG Version: 6.00 Build 0)  -->
<svg version="1.1" id="Слой_1" xmlns="http://www.w3.org/2000/svg" xmlns:xlink="http://www.w3.org/1999/xlink" x="0px" y="0px"
	 viewBox="0 0 100 160" style="enable-background:new 0 0 100 160;" xml:space="preserve">
<style type="text/css">
	.st0{fill:url(#SVGID_1_);}
	.st1{opacity:0.5;fill:url(#SVGID_00000004529134844546506330000017052294564717855106_);enable-background:new    ;}
	.st2{opacity:0.5;fill:url(#SVGID_00000127738433532460781830000006396571680950594231_);enable-background:new    ;}
	.st3{fill:url(#SVGID_00000084514970186108024100000017270778443074043297_);}
	.st4{fill:url(#SVGID_00000003807379532924512040000003825292866561809792_);}
	.st5{opacity:0.5;fill:url(#SVGID_00000083792819288425197970000000808331703078924952_);enable-background:new    ;}
	.st6{fill:url(#SVGID_00000077296660725863464880000001434936761899323788_);}
	.st7{fill:url(#SVGID_00000103231496298853658190000012576933200013380281_);}
	.st8{fill:url(#SVGID_00000102533358935641738770000015262767871839228313_);}
	.st9{opacity:0.53;fill:url(#SVGID_00000144326703742994964750000015383205025216772523_);enable-background:new    ;}
	.st10{opacity:0.53;fill:url(#SVGID_00000124158108734286234870000017689711612735505562_);enable-background:new    ;}
	.st11{clip-path:url(#SVGID_00000149377855410734452180000013259260703958311589_);}
	.st12{fill:none;stroke:#B3B3B3;stroke-width:0.5;stroke-miterlimit:10;}
	.st13{fill:url(#SVGID_00000112619016742987490800000015357436288325147777_);}
	.st14{fill:#606060;}
	.st15{opacity:0.58;fill:url(#SVGID_00000118372775005465437000000003000384534495746719_);enable-background:new    ;}
	.st16{fill:url(#SVGID_00000024680922751085485340000002366467740339231396_);}
</style>
<linearGradient id="SVGID_1_" gradientUnits="userSpaceOnUse" x1="77.2169" y1="-911.5579" x2="77.2169" y2="-883.0758" gradientTransform="matrix(1 0 0 -1 0 -857.5511)">
	<stop  offset="0" style="stop-color:#9F9D9D"/>
	<stop  offset="0.1816" style="stop-color:#808080"/>
	<stop  offset="0.2933" style="stop-color:#9F9D9D"/>
	<stop  offset="0.5447" style="stop-color:#CCCCCC"/>
	<stop  offset="0.6732" style="stop-color:#FFFFFF"/>
	<stop  offset="0.8687" style="stop-color:#E4E3E3"/>
	<stop  offset="1" style="stop-color:#B3B3B3"/>
</linearGradient>
<rect x="55.8" y="25.5" class="st0" width="42.9" height="28.5"/>
<linearGradient id="SVGID_00000127759527174582902780000016613510318419751594_" gradientUnits="userSpaceOnUse" x1="-486.8072" y1="2589.5964" x2="-479.439" y2="2589.5964" gradientTransform="matrix(1 0 0 1 543.2952 -2549.7983)">
	<stop  offset="0" style="stop-color:#3F3B3C"/>
	<stop  offset="1" style="stop-color:#3F3B3C;stop-opacity:0"/>
</linearGradient>
<polygon style="opacity:0.5;fill:url(#SVGID_00000127759527174582902780000016613510318419751594_);enable-background:new    ;" points="
	63.8,25.6 56.4,25.6 56.4,54 63.9,54 "/>
<linearGradient id="SVGID_00000024001208385252638710000000761231022100007072_" gradientUnits="userSpaceOnUse" x1="-490.4254" y1="2589.5964" x2="-485.3795" y2="2589.5964" gradientTransform="matrix(1 0 0 1 543.2952 -2549.7983)">
	<stop  offset="0" style="stop-color:#3F3B3C"/>
	<stop  offset="1" style="stop-color:#3F3B3C;stop-opacity:0"/>
</linearGradient>
<polygon style="opacity:0.5;fill:url(#SVGID_00000024001208385252638710000000761231022100007072_);enable-background:new    ;" points="
	57.9,25.7 52.8,25.7 52.8,53.9 57.9,53.9 "/>
<linearGradient id="SVGID_00000150064048598064122730000012864135542889859970_" gradientUnits="userSpaceOnUse" x1="46.9831" y1="-916.3801" x2="46.9831" y2="-878.4257" gradientTransform="matrix(1 0 0 -1 0 -857.5511)">
	<stop  offset="0" style="stop-color:#9F9D9D"/>
	<stop  offset="0.1816" style="stop-color:#808080"/>
	<stop  offset="0.2933" style="stop-color:#9F9D9D"/>
	<stop  offset="0.5447" style="stop-color:#CCCCCC"/>
	<stop  offset="0.6732" style="stop-color:#FFFFFF"/>
	<stop  offset="0.8687" style="stop-color:#E4E3E3"/>
	<stop  offset="1" style="stop-color:#B3B3B3"/>
</linearGradient>
<rect x="34.1" y="20.8" style="fill:url(#SVGID_00000150064048598064122730000012864135542889859970_);" width="25.8" height="38"/>
<linearGradient id="SVGID_00000142145275468645532120000007680271673148181430_" gradientUnits="userSpaceOnUse" x1="16.652" y1="-921.4844" x2="16.652" y2="-873.2141" gradientTransform="matrix(1 0 0 -1 0 -857.5511)">
	<stop  offset="0" style="stop-color:#9F9D9D"/>
	<stop  offset="0.1816" style="stop-color:#808080"/>
	<stop  offset="0.2933" style="stop-color:#9F9D9D"/>
	<stop  offset="0.5447" style="stop-color:#CCCCCC"/>
	<stop  offset="0.6732" style="stop-color:#FFFFFF"/>
	<stop  offset="0.8687" style="stop-color:#E4E3E3"/>
	<stop  offset="1" style="stop-color:#B3B3B3"/>
</linearGradient>
<rect x="8.5" y="15.7" style="fill:url(#SVGID_00000142145275468645532120000007680271673148181430_);" width="16.3" height="48.3"/>
<linearGradient id="SVGID_00000129178744435544569150000017660247318873024655_" gradientUnits="userSpaceOnUse" x1="-513.4512" y1="2589.5964" x2="-506.0831" y2="2589.5964" gradientTransform="matrix(1 0 0 1 543.2952 -2549.7983)">
	<stop  offset="0" style="stop-color:#3F3B3C"/>
	<stop  offset="1" style="stop-color:#3F3B3C;stop-opacity:0"/>
</linearGradient>
<polygon style="opacity:0.5;fill:url(#SVGID_00000129178744435544569150000017660247318873024655_);enable-background:new    ;" points="
	37.2,20.8 29.8,20.8 29.8,58.8 37.2,58.8 "/>
<linearGradient id="SVGID_00000080888858515159356530000006075803868673307287_" gradientUnits="userSpaceOnUse" x1="31.4769" y1="-923.4957" x2="31.4769" y2="-871.2029" gradientTransform="matrix(1 0 0 -1 0 -857.5511)">
	<stop  offset="0" style="stop-color:#9F9D9D"/>
	<stop  offset="0.1816" style="stop-color:#808080"/>
	<stop  offset="0.2933" style="stop-color:#9F9D9D"/>
	<stop  offset="0.5447" style="stop-color:#CCCCCC"/>
	<stop  offset="0.6732" style="stop-color:#FFFFFF"/>
	<stop  offset="0.8687" style="stop-color:#E4E3E3"/>
	<stop  offset="1" style="stop-color:#B3B3B3"/>
</linearGradient>
<rect x="28.8" y="13.7" style="fill:url(#SVGID_00000080888858515159356530000006075803868673307287_);" width="5.4" height="52.3"/>
<linearGradient id="SVGID_00000181808724209824825370000009345083728469557402_" gradientUnits="userSpaceOnUse" x1="5.0386" y1="-920.5112" x2="5.0386" y2="-874.1873" gradientTransform="matrix(1 0 0 -1 0 -857.5511)">
	<stop  offset="0" style="stop-color:#9F9D9D"/>
	<stop  offset="0.1816" style="stop-color:#808080"/>
	<stop  offset="0.2933" style="stop-color:#9F9D9D"/>
	<stop  offset="0.5447" style="stop-color:#CCCCCC"/>
	<stop  offset="0.6732" style="stop-color:#FFFFFF"/>
	<stop  offset="0.8687" style="stop-color:#E4E3E3"/>
	<stop  offset="1" style="stop-color:#B3B3B3"/>
</linearGradient>
<path style="fill:url(#SVGID_00000181808724209824825370000009345083728469557402_);" d="M8.5,63c-2.3-2.1-4.5-4.2-6.9-6.3V22.9
	c2.3-2.1,4.6-4.3,6.9-6.3C8.5,32.1,8.5,47.5,8.5,63z"/>
<linearGradient id="SVGID_00000031916636681025520760000015134961074391085993_" gradientUnits="userSpaceOnUse" x1="26.8056" y1="-923.4957" x2="26.8056" y2="-871.2029" gradientTransform="matrix(1 0 0 -1 0 -857.5511)">
	<stop  offset="0" style="stop-color:#9F9D9D"/>
	<stop  offset="0.1816" style="stop-color:#808080"/>
	<stop  offset="0.2933" style="stop-color:#9F9D9D"/>
	<stop  offset="0.5447" style="stop-color:#CCCCCC"/>
	<stop  offset="0.6732" style="stop-color:#FFFFFF"/>
	<stop  offset="0.8687" style="stop-color:#E4E3E3"/>
	<stop  offset="1" style="stop-color:#B3B3B3"/>
</linearGradient>
<path style="fill:url(#SVGID_00000031916636681025520760000015134961074391085993_);" d="M28.8,65.9c-1.3-0.6-2.7-1.4-4-2V15.7
	c1.3-0.6,2.7-1.4,4-2C28.8,31.1,28.8,48.5,28.8,65.9z"/>
<linearGradient id="SVGID_00000145060315371069117170000014118938616467881902_" gradientUnits="userSpaceOnUse" x1="8.4772" y1="-897.3492" x2="1.6221" y2="-897.3492" gradientTransform="matrix(1 0 0 -1 0 -857.5511)">
	<stop  offset="0" style="stop-color:#B3B3B3;stop-opacity:0.5"/>
	<stop  offset="1" style="stop-color:#B3B3B3;stop-opacity:0"/>
</linearGradient>
<path style="opacity:0.53;fill:url(#SVGID_00000145060315371069117170000014118938616467881902_);enable-background:new    ;" d="
	M8.5,63c-2.3-2.1-4.5-4.2-6.9-6.3V22.9c2.3-2.1,4.6-4.3,6.9-6.3C8.5,32.1,8.5,47.5,8.5,63z"/>
<linearGradient id="SVGID_00000049933174296959130600000002307172237444315022_" gradientUnits="userSpaceOnUse" x1="28.7537" y1="-897.3492" x2="24.7882" y2="-897.3492" gradientTransform="matrix(1 0 0 -1 0 -857.5511)">
	<stop  offset="0" style="stop-color:#B3B3B3;stop-opacity:0.5"/>
	<stop  offset="1" style="stop-color:#B3B3B3;stop-opacity:0"/>
</linearGradient>
<path style="opacity:0.53;fill:url(#SVGID_00000049933174296959130600000002307172237444315022_);enable-background:new    ;" d="
	M28.8,65.9c-1.3-0.6-2.7-1.4-4-2V15.7c1.3-0.6,2.7-1.4,4-2C28.8,31.1,28.8,48.5,28.8,65.9z"/>
<g>
	<g>
		<g>
			<defs>
				<path id="SVGID_00000176017750769579376960000010795429842145219515_" d="M59.9,106.9v-4.7H37.2l0,0h-3V95h-5.4
					c-1.3,0.6-4,2-4,2s-10.8,0-16.3,0v0.9c-2.3,2.1-4.5,4.2-6.9,6.3V138c2.3,2.1,4.6,4.2,6.9,6.3v1h16.3c0,0,2.7,1.4,4,2h5.4v-7.1h3
					l0,0h22.6v-4.7h38.8v-28.5L59.9,106.9L59.9,106.9z"/>
			</defs>
			<clipPath id="SVGID_00000132797958566299428620000008153753496374802600_">
				<use xlink:href="#SVGID_00000176017750769579376960000010795429842145219515_"  style="overflow:visible;"/>
			</clipPath>
			<g style="clip-path:url(#SVGID_00000132797958566299428620000008153753496374802600_);">
				
					<image style="overflow:visible;enable-background:new    ;" width="1200" height="900" xlink:href="../../Фитинги/Резьбовые/Металл.jpg"  transform="matrix(0.1044 0 0 0.1044 -12.5207 74.2128)">
				</image>
			</g>
		</g>
	</g>
	<g>
		<path id="SVGID_12_" class="st12" d="M59.9,106.9v-4.7H37.2l0,0h-3V95h-5.4c-1.3,0.6-4,2-4,2s-10.8,0-16.3,0v0.9
			c-2.3,2.1-4.5,4.2-6.9,6.3V138c2.3,2.1,4.6,4.2,6.9,6.3v1h16.3c0,0,2.7,1.4,4,2h5.4v-7.1h3l0,0h22.6v-4.7h38.8v-28.5L59.9,106.9
			L59.9,106.9z"/>
	</g>
</g>
<linearGradient id="SVGID_00000110471081845104082800000017759902032600883102_" gradientUnits="userSpaceOnUse" x1="56.3906" y1="-968.7224" x2="56.3906" y2="-988.1862" gradientTransform="matrix(1 0 0 -1 0 -857.5511)">
	<stop  offset="0.2849" style="stop-color:#606060"/>
	<stop  offset="0.5139" style="stop-color:#999999"/>
	<stop  offset="0.6613" style="stop-color:#ACACAC"/>
	<stop  offset="0.8464" style="stop-color:#6E6E6F;stop-opacity:0.9913"/>
	<stop  offset="1" style="stop-color:#606060"/>
</linearGradient>
<rect x="14.1" y="111.1" style="fill:url(#SVGID_00000110471081845104082800000017759902032600883102_);" width="84.5" height="19.5"/>
<path class="st14" d="M14.1,130.6c-4.3,2.5-8.5,4.9-12.8,7.3c0-11.3,0-22.6,0-33.9c4.3,2.4,8.5,4.7,12.8,7.1V130.6z"/>
<linearGradient id="SVGID_00000170966699252522331990000014014952076469069481_" gradientUnits="userSpaceOnUse" x1="7.7311" y1="-961.5588" x2="7.7311" y2="-995.4907" gradientTransform="matrix(1 0 0 -1 0 -857.5511)">
	<stop  offset="0.2849" style="stop-color:#606060"/>
	<stop  offset="0.5139" style="stop-color:#999999"/>
	<stop  offset="0.6613" style="stop-color:#ACACAC;stop-opacity:0.76"/>
	<stop  offset="0.8464" style="stop-color:#6E6E6F;stop-opacity:0.9913"/>
	<stop  offset="1" style="stop-color:#606060"/>
</linearGradient>
<path style="opacity:0.58;fill:url(#SVGID_00000170966699252522331990000014014952076469069481_);enable-background:new    ;" d="
	M14.1,130.6c-4.3,2.5-8.5,4.9-12.8,7.3c0-11.3,0-22.6,0-33.9c4.3,2.4,8.5,4.7,12.8,7.1V130.6z"/>
<linearGradient id="SVGID_00000158723446979755716580000000771754236479071920_" gradientUnits="userSpaceOnUse" x1="12.1" y1="375.1488" x2="12.1" y2="375.1488" gradientTransform="matrix(1 0 0 1 0 -429.4488)">
	<stop  offset="0" style="stop-color:#B3B3B3;stop-opacity:0.5"/>
	<stop  offset="1" style="stop-color:#B3B3B3;stop-opacity:0"/>
</linearGradient>
<path style="fill:url(#SVGID_00000158723446979755716580000000771754236479071920_);" d="M12.1-54.3"/>
<image style="overflow:visible;" width="200" height="200" xlink:href="../../pepsi.png"  transform="matrix(6.757815e-02 0 0 6.757815e-02 40.2253 33.0404)">
</image>
</svg>
