<?xml version="1.0" encoding="utf-8"?>
<!-- Generator: Adobe Illustrator 25.4.1, SVG Export Plug-In . SVG Version: 6.00 Build 0)  -->
<svg version="1.1" id="Слой_1" xmlns="http://www.w3.org/2000/svg" xmlns:xlink="http://www.w3.org/1999/xlink" x="0px" y="0px"
	 viewBox="0 0 100 160" style="enable-background:new 0 0 100 160;" xml:space="preserve">
<style type="text/css">
	.st0{clip-path:url(#SVGID_00000147178440509952537670000009581501559788143803_);}
	.st1{fill:none;stroke:#CCCCCC;stroke-miterlimit:10;}
	.st2{fill:url(#SVGID_00000002347605130420888360000005596124476452339350_);}
	.st3{fill:url(#SVGID_00000117649813729597940320000007354640765297557922_);}
	.st4{fill:url(#SVGID_00000068639321758447214670000006663577162944696765_);}
	.st5{opacity:0.53;fill:url(#SVGID_00000054965576350298566680000013510621190529000332_);enable-background:new    ;}
	.st6{fill:url(#SVGID_00000166652310807620986430000001870921806326730627_);}
	.st7{fill:url(#SVGID_00000067217962924921218390000003363216794932619419_);}
	.st8{fill:url(#SVGID_00000013899434108140466130000009302194516148604550_);}
	.st9{fill:url(#SVGID_00000011013041002086416070000014166940867654561466_);}
	.st10{fill:url(#SVGID_00000068636092724541478950000006891984841845155972_);}
	.st11{fill:url(#SVGID_00000078030900187071040370000010821171371815658127_);}
	.st12{fill:url(#SVGID_00000004515700901086183180000016923092426541323653_);}
	.st13{fill:url(#SVGID_00000103967939842672315170000009627134911744474807_);}
	.st14{fill:url(#SVGID_00000152246174237227536960000009216399593103903116_);}
	.st15{fill:url(#SVGID_00000050646161692550693360000002577041584537562009_);}
	.st16{fill:url(#SVGID_00000159444027131739859390000001249952109114781833_);}
	.st17{fill:url(#SVGID_00000107552039460711189160000014711059967017571210_);}
	.st18{fill:url(#SVGID_00000029035263841318400130000015174371199131417490_);}
	.st19{fill:url(#SVGID_00000067226721502545371860000001997546564641446286_);}
	.st20{fill:url(#SVGID_00000164487501625283485240000010574355533685507762_);}
	.st21{fill:url(#SVGID_00000124846302503552628030000013276337732680218499_);}
	.st22{opacity:0.5;fill:url(#SVGID_00000052792465758736785730000008049160098076259505_);enable-background:new    ;}
	.st23{fill:#FFFFFF;}
	.st24{fill:#6B6B6B;}
	.st25{fill:url(#SVGID_00000143598706390345377870000017022573102361020575_);}
	.st26{fill:url(#SVGID_00000013156833127169030370000011351049411078204602_);}
	.st27{fill:url(#SVGID_00000183965380922939965690000009665175001234603705_);}
	.st28{fill:url(#SVGID_00000150783485010592381230000017990772686968583305_);}
	.st29{fill:url(#SVGID_00000075134175821858683780000015250533186256566456_);}
	.st30{fill:url(#SVGID_00000071554797388755199570000015249651111922672537_);}
	.st31{fill:url(#SVGID_00000178207237372241609330000013626458823535554977_);}
	.st32{fill:url(#SVGID_00000019645891423623555600000015385980448492020669_);}
</style>
<g>
	<g>
		<defs>
			<path id="SVGID_00000175284886133275169070000000165972192484564358_" d="M79.3,95c0-2.1,0-4.2,0-6.3l-1.7-5.1H65.1l-1.8,5.1v5.7
				h-3.6h-1.2H57l-2.5-4c-0.7,1.3-1.4,2.6-2.1,4l-2.5-4c-0.7,1.3-1.4,2.6-2.1,4l-2.5-4c-0.7,1.3-1.4,2.6-2.1,4l-2.5-4
				c-0.7,1.3-1.4,2.6-2.1,4l-2.5-4c-0.7,1.3-1.4,2.7-2.1,4l-2.5-4c-0.7,1.3-1.4,2.7-2.1,4l0,0l-2.5-4l-2.3,4c0,0.1,0,0.2,0,0.2h-2.3
				c0,0.5,0,1,0,1.6c-0.6,2-1.2,4-1.8,5.9v37.7c0.6,2,1.2,3.9,1.8,5.9c0,0.6,0,1.2,0.1,1.9c0.8,0,1.6,0,2.4,0h2.9v0l0,0
				c0.8,1.3,1.7,2.7,2.5,4l2.1-4.3c0.8,1.4,1.7,2.8,2.5,4.3c0.7-1.4,1.4-2.8,2.1-4.3c0.8,1.4,1.7,2.8,2.5,4.3l2.1-4.3
				c0.8,1.4,1.7,2.8,2.5,4.3c0.7-1.4,1.4-2.8,2.1-4.3c0.8,1.4,1.7,2.8,2.5,4.3l2.1-4.3c0.8,1.4,1.7,2.8,2.5,4.3
				c0.7-1.4,1.4-2.8,2.1-4.3c0.8,1.4,1.7,2.8,2.5,4.3l2.1-4.2h3.6c0,1.9,0,3.8,0,5.7c0.6,1.7,1.2,3.4,1.8,5.1h12.4l1.7-5.2v-6.7
				v-2.3v-14.9v-0.4c0-5.3,0-10.8,0-16.1v-0.1L79.3,95L79.3,95z"/>
		</defs>
		<clipPath id="SVGID_00000053533768759947414510000013406683793850427790_">
			<use xlink:href="#SVGID_00000175284886133275169070000000165972192484564358_"  style="overflow:visible;"/>
		</clipPath>
		<g style="clip-path:url(#SVGID_00000053533768759947414510000013406683793850427790_);">
			
				<image style="overflow:visible;enable-background:new    ;" width="1200" height="900" xlink:href="../../Фитинги/Резьбовые/Металл.jpg"  transform="matrix(8.825824e-02 0 0 8.825824e-02 6.3694 80.1433)">
			</image>
		</g>
	</g>
	<g>
		<path id="SVGID_1_" class="st1" d="M79.3,95c0-2.1,0-4.2,0-6.3l-1.7-5.1H65.1l-1.8,5.1v5.7h-3.6h-1.2H57l-2.5-4
			c-0.7,1.3-1.4,2.6-2.1,4l-2.5-4c-0.7,1.3-1.4,2.6-2.1,4l-2.5-4c-0.7,1.3-1.4,2.6-2.1,4l-2.5-4c-0.7,1.3-1.4,2.6-2.1,4l-2.5-4
			c-0.7,1.3-1.4,2.7-2.1,4l-2.5-4c-0.7,1.3-1.4,2.7-2.1,4l0,0l-2.5-4l-2.3,4c0,0.1,0,0.2,0,0.2h-2.3c0,0.5,0,1,0,1.6
			c-0.6,2-1.2,4-1.8,5.9v37.7c0.6,2,1.2,3.9,1.8,5.9c0,0.6,0,1.2,0.1,1.9c0.8,0,1.6,0,2.4,0h2.9v0l0,0c0.8,1.3,1.7,2.7,2.5,4
			l2.1-4.3c0.8,1.4,1.7,2.8,2.5,4.3c0.7-1.4,1.4-2.8,2.1-4.3c0.8,1.4,1.7,2.8,2.5,4.3l2.1-4.3c0.8,1.4,1.7,2.8,2.5,4.3
			c0.7-1.4,1.4-2.8,2.1-4.3c0.8,1.4,1.7,2.8,2.5,4.3l2.1-4.3c0.8,1.4,1.7,2.8,2.5,4.3c0.7-1.4,1.4-2.8,2.1-4.3
			c0.8,1.4,1.7,2.8,2.5,4.3l2.1-4.2h3.6c0,1.9,0,3.8,0,5.7c0.6,1.7,1.2,3.4,1.8,5.1h12.4l1.7-5.2v-6.7v-2.3v-14.9v-0.4
			c0-5.3,0-10.8,0-16.1v-0.1L79.3,95L79.3,95z"/>
	</g>
</g>
<linearGradient id="SVGID_00000067216686177207711430000017798109148985599621_" gradientUnits="userSpaceOnUse" x1="62.4283" y1="95.296" x2="62.4283" y2="148.7616" gradientTransform="matrix(1 0 0 -1 0 162)">
	<stop  offset="0" style="stop-color:#9F9D9D"/>
	<stop  offset="0.1816" style="stop-color:#808080"/>
	<stop  offset="0.2933" style="stop-color:#9F9D9D"/>
	<stop  offset="0.5447" style="stop-color:#CCCCCC"/>
	<stop  offset="0.6732" style="stop-color:#FFFFFF"/>
	<stop  offset="0.8687" style="stop-color:#E4E3E3"/>
	<stop  offset="1" style="stop-color:#B3B3B3"/>
</linearGradient>
<rect x="55.3" y="13.2" style="fill:url(#SVGID_00000067216686177207711430000017798109148985599621_);" width="14.2" height="53.5"/>
<linearGradient id="SVGID_00000008107295349631922130000018217059898254988164_" gradientUnits="userSpaceOnUse" x1="5640.957" y1="95.0566" x2="5640.957" y2="148.5222" gradientTransform="matrix(-1 0 0 -1 5664.0439 162)">
	<stop  offset="0" style="stop-color:#9F9D9D"/>
	<stop  offset="0.1816" style="stop-color:#808080"/>
	<stop  offset="0.2933" style="stop-color:#9F9D9D"/>
	<stop  offset="0.5447" style="stop-color:#CCCCCC"/>
	<stop  offset="0.6732" style="stop-color:#FFFFFF"/>
	<stop  offset="0.8687" style="stop-color:#E4E3E3"/>
	<stop  offset="1" style="stop-color:#B3B3B3"/>
</linearGradient>
<polygon style="fill:url(#SVGID_00000008107295349631922130000018217059898254988164_);" points="21.9,66.9 24.3,66.9 24.3,13.5 
	21.9,13.5 "/>
<linearGradient id="SVGID_00000085238138406870863350000005093292959460229014_" gradientUnits="userSpaceOnUse" x1="5643.0518" y1="103.242" x2="5643.0518" y2="153.6354" gradientTransform="matrix(-1 0 0 -1 5664.0439 162)">
	<stop  offset="0" style="stop-color:#9F9D9D"/>
	<stop  offset="0.1816" style="stop-color:#808080"/>
	<stop  offset="0.2933" style="stop-color:#9F9D9D"/>
	<stop  offset="0.5447" style="stop-color:#CCCCCC"/>
	<stop  offset="0.6732" style="stop-color:#FFFFFF"/>
	<stop  offset="0.8687" style="stop-color:#E4E3E3"/>
	<stop  offset="1" style="stop-color:#B3B3B3"/>
</linearGradient>
<path style="fill:url(#SVGID_00000085238138406870863350000005093292959460229014_);" d="M20.1,59.1c0.6,2,1.2,4.1,1.8,6.1
	c0-16.8,0-33.6,0-50.4c-0.6,2-1.2,4.1-1.8,6.1V59.1z"/>
<linearGradient id="SVGID_00000114073546824359957410000007738838136029705873_" gradientUnits="userSpaceOnUse" x1="5642.3755" y1="121.9291" x2="5644.2109" y2="121.9291" gradientTransform="matrix(-1 0 0 -1 5664.0439 162)">
	<stop  offset="0" style="stop-color:#B3B3B3;stop-opacity:0.5"/>
	<stop  offset="1" style="stop-color:#B3B3B3;stop-opacity:0"/>
</linearGradient>
<path style="opacity:0.53;fill:url(#SVGID_00000114073546824359957410000007738838136029705873_);enable-background:new    ;" d="
	M20.1,59.1c0.6,2,1.2,4.1,1.8,6.1c0-16.8,0-33.6,0-50.4c-0.6,2-1.2,4.1-1.8,6.1C20.1,21,20.1,59.1,20.1,59.1z"/>
<linearGradient id="SVGID_00000046335891700133877280000016954474253305450917_" gradientUnits="userSpaceOnUse" x1="29.2516" y1="258.7915" x2="29.2516" y2="197.0267" gradientTransform="matrix(1 0 0 -1 0 268)">
	<stop  offset="0" style="stop-color:#939598"/>
	<stop  offset="0.1927" style="stop-color:#6D6E71"/>
	<stop  offset="0.3045" style="stop-color:#808080"/>
	<stop  offset="0.6844" style="stop-color:#CCCCCC"/>
	<stop  offset="0.8966" style="stop-color:#808285"/>
	<stop  offset="1" style="stop-color:#B3B3B3"/>
</linearGradient>
<polygon style="fill:url(#SVGID_00000046335891700133877280000016954474253305450917_);" points="26.6,9.2 29.1,13.2 31.9,66.7 
	29.8,71 "/>
<linearGradient id="SVGID_00000040572285695214894970000008342177113342103484_" gradientUnits="userSpaceOnUse" x1="-6364.647" y1="903.5197" x2="-6364.647" y2="961.7884" gradientTransform="matrix(-1 0 0 -1.06 -6337.6299 1020.7)">
	<stop  offset="0" style="stop-color:#B3B3B3"/>
	<stop  offset="0.1201" style="stop-color:#808285"/>
	<stop  offset="0.2877" style="stop-color:#939597"/>
	<stop  offset="0.4162" style="stop-color:#D1D3D4"/>
	<stop  offset="0.5168" style="stop-color:#A7A9AC"/>
	<stop  offset="0.662" style="stop-color:#F1F2F2"/>
	<stop  offset="0.8519" style="stop-color:#B3B3B3"/>
	<stop  offset="0.919" style="stop-color:#E6E7E8"/>
	<stop  offset="1" style="stop-color:#919396"/>
</linearGradient>
<polygon style="fill:url(#SVGID_00000040572285695214894970000008342177113342103484_);" points="26.6,9.2 29.8,71 27.2,66.9 
	24.3,13.2 "/>
<linearGradient id="SVGID_00000027595232594846705040000007639055310986326661_" gradientUnits="userSpaceOnUse" x1="33.88" y1="258.7915" x2="33.88" y2="197.0267" gradientTransform="matrix(1 0 0 -1 0 268)">
	<stop  offset="0" style="stop-color:#939598"/>
	<stop  offset="0.1927" style="stop-color:#6D6E71"/>
	<stop  offset="0.3045" style="stop-color:#808080"/>
	<stop  offset="0.6844" style="stop-color:#CCCCCC"/>
	<stop  offset="0.8966" style="stop-color:#808285"/>
	<stop  offset="1" style="stop-color:#B3B3B3"/>
</linearGradient>
<polygon style="fill:url(#SVGID_00000027595232594846705040000007639055310986326661_);" points="31.2,9.2 33.8,13.2 36.5,66.7 
	34.4,71 "/>
<linearGradient id="SVGID_00000102507011684925923620000003586104802592193414_" gradientUnits="userSpaceOnUse" x1="-6369.375" y1="903.5197" x2="-6369.375" y2="961.7884" gradientTransform="matrix(-1 0 0 -1.06 -6337.6299 1020.7)">
	<stop  offset="0" style="stop-color:#B3B3B3"/>
	<stop  offset="0.1201" style="stop-color:#808285"/>
	<stop  offset="0.2877" style="stop-color:#939597"/>
	<stop  offset="0.4162" style="stop-color:#D1D3D4"/>
	<stop  offset="0.5168" style="stop-color:#A7A9AC"/>
	<stop  offset="0.662" style="stop-color:#F1F2F2"/>
	<stop  offset="0.8519" style="stop-color:#B3B3B3"/>
	<stop  offset="0.919" style="stop-color:#E6E7E8"/>
	<stop  offset="1" style="stop-color:#919396"/>
</linearGradient>
<path style="fill:url(#SVGID_00000102507011684925923620000003586104802592193414_);" d="M31.2,9.2L34.4,71
	c-0.8-1.4-1.7-2.9-2.6-4.3C30.9,48.9,30,31,29.1,13.2C29.9,11.9,30.5,10.5,31.2,9.2z"/>
<linearGradient id="SVGID_00000010989907413993081980000017520450594976987325_" gradientUnits="userSpaceOnUse" x1="38.5084" y1="258.7915" x2="38.5084" y2="197.0267" gradientTransform="matrix(1 0 0 -1 0 268)">
	<stop  offset="0" style="stop-color:#939598"/>
	<stop  offset="0.1927" style="stop-color:#6D6E71"/>
	<stop  offset="0.3045" style="stop-color:#808080"/>
	<stop  offset="0.6844" style="stop-color:#CCCCCC"/>
	<stop  offset="0.8966" style="stop-color:#808285"/>
	<stop  offset="1" style="stop-color:#B3B3B3"/>
</linearGradient>
<polygon style="fill:url(#SVGID_00000010989907413993081980000017520450594976987325_);" points="35.9,9.2 38.4,13.2 41.1,66.7 
	39.1,71 "/>
<linearGradient id="SVGID_00000009552859558520486620000006278616169036490395_" gradientUnits="userSpaceOnUse" x1="-6374.0435" y1="903.5197" x2="-6374.0435" y2="961.7884" gradientTransform="matrix(-1 0 0 -1.06 -6337.6299 1020.7)">
	<stop  offset="0" style="stop-color:#B3B3B3"/>
	<stop  offset="0.1201" style="stop-color:#808285"/>
	<stop  offset="0.2877" style="stop-color:#939597"/>
	<stop  offset="0.4162" style="stop-color:#D1D3D4"/>
	<stop  offset="0.5168" style="stop-color:#A7A9AC"/>
	<stop  offset="0.662" style="stop-color:#F1F2F2"/>
	<stop  offset="0.8519" style="stop-color:#B3B3B3"/>
	<stop  offset="0.919" style="stop-color:#E6E7E8"/>
	<stop  offset="1" style="stop-color:#919396"/>
</linearGradient>
<path style="fill:url(#SVGID_00000009552859558520486620000006278616169036490395_);" d="M35.9,9.2L39.1,71
	c-0.8-1.4-1.7-2.9-2.6-4.3c-0.9-17.8-1.8-35.6-2.8-53.4C34.5,11.9,35.2,10.5,35.9,9.2z"/>
<linearGradient id="SVGID_00000093163619052799009950000001393490356267973818_" gradientUnits="userSpaceOnUse" x1="43.1567" y1="258.7915" x2="43.1567" y2="197.0267" gradientTransform="matrix(1 0 0 -1 0 268)">
	<stop  offset="0" style="stop-color:#939598"/>
	<stop  offset="0.1927" style="stop-color:#6D6E71"/>
	<stop  offset="0.3045" style="stop-color:#808080"/>
	<stop  offset="0.6844" style="stop-color:#CCCCCC"/>
	<stop  offset="0.8966" style="stop-color:#808285"/>
	<stop  offset="1" style="stop-color:#B3B3B3"/>
</linearGradient>
<polygon style="fill:url(#SVGID_00000093163619052799009950000001393490356267973818_);" points="40.5,9.2 43.1,13.2 45.8,66.7 
	43.7,71 "/>
<linearGradient id="SVGID_00000031201835704427530650000001487573927849472664_" gradientUnits="userSpaceOnUse" x1="-6378.6719" y1="903.5197" x2="-6378.6719" y2="961.7884" gradientTransform="matrix(-1 0 0 -1.06 -6337.6299 1020.7)">
	<stop  offset="0" style="stop-color:#B3B3B3"/>
	<stop  offset="0.1201" style="stop-color:#808285"/>
	<stop  offset="0.2877" style="stop-color:#939597"/>
	<stop  offset="0.4162" style="stop-color:#D1D3D4"/>
	<stop  offset="0.5168" style="stop-color:#A7A9AC"/>
	<stop  offset="0.662" style="stop-color:#F1F2F2"/>
	<stop  offset="0.8519" style="stop-color:#B3B3B3"/>
	<stop  offset="0.919" style="stop-color:#E6E7E8"/>
	<stop  offset="1" style="stop-color:#919396"/>
</linearGradient>
<path style="fill:url(#SVGID_00000031201835704427530650000001487573927849472664_);" d="M40.5,9.2L43.7,71
	c-0.8-1.4-1.7-2.9-2.6-4.3c-0.9-17.8-1.8-35.6-2.8-53.4C39.1,11.9,39.8,10.5,40.5,9.2z"/>
<linearGradient id="SVGID_00000003101202735531953360000009421219161180246959_" gradientUnits="userSpaceOnUse" x1="47.805" y1="258.7915" x2="47.805" y2="197.0267" gradientTransform="matrix(1 0 0 -1 0 268)">
	<stop  offset="0" style="stop-color:#939598"/>
	<stop  offset="0.1927" style="stop-color:#6D6E71"/>
	<stop  offset="0.3045" style="stop-color:#808080"/>
	<stop  offset="0.6844" style="stop-color:#CCCCCC"/>
	<stop  offset="0.8966" style="stop-color:#808285"/>
	<stop  offset="1" style="stop-color:#B3B3B3"/>
</linearGradient>
<polygon style="fill:url(#SVGID_00000003101202735531953360000009421219161180246959_);" points="45.2,9.2 47.7,13.2 50.4,66.7 
	48.3,71 "/>
<linearGradient id="SVGID_00000091010065484738803930000011830849268797946249_" gradientUnits="userSpaceOnUse" x1="-6383.3003" y1="903.5197" x2="-6383.3003" y2="961.7884" gradientTransform="matrix(-1 0 0 -1.06 -6337.6299 1020.7)">
	<stop  offset="0" style="stop-color:#B3B3B3"/>
	<stop  offset="0.1201" style="stop-color:#808285"/>
	<stop  offset="0.2877" style="stop-color:#939597"/>
	<stop  offset="0.4162" style="stop-color:#D1D3D4"/>
	<stop  offset="0.5168" style="stop-color:#A7A9AC"/>
	<stop  offset="0.662" style="stop-color:#F1F2F2"/>
	<stop  offset="0.8519" style="stop-color:#B3B3B3"/>
	<stop  offset="0.919" style="stop-color:#E6E7E8"/>
	<stop  offset="1" style="stop-color:#919396"/>
</linearGradient>
<path style="fill:url(#SVGID_00000091010065484738803930000011830849268797946249_);" d="M45.2,9.2L48.3,71
	c-0.8-1.4-1.7-2.9-2.6-4.3C44.9,48.9,43.9,31,43,13.2C43.7,11.9,44.5,10.5,45.2,9.2z"/>
<linearGradient id="SVGID_00000074426720820684525970000011681218722398768558_" gradientUnits="userSpaceOnUse" x1="52.4334" y1="258.7915" x2="52.4334" y2="197.0267" gradientTransform="matrix(1 0 0 -1 0 268)">
	<stop  offset="0" style="stop-color:#939598"/>
	<stop  offset="0.1927" style="stop-color:#6D6E71"/>
	<stop  offset="0.3045" style="stop-color:#808080"/>
	<stop  offset="0.6844" style="stop-color:#CCCCCC"/>
	<stop  offset="0.8966" style="stop-color:#808285"/>
	<stop  offset="1" style="stop-color:#B3B3B3"/>
</linearGradient>
<polygon style="fill:url(#SVGID_00000074426720820684525970000011681218722398768558_);" points="49.8,9.2 52.3,13.2 55.1,66.7 
	53,71 "/>
<linearGradient id="SVGID_00000120555616167408925300000008784077404924764849_" gradientUnits="userSpaceOnUse" x1="-6387.9287" y1="903.5197" x2="-6387.9287" y2="961.7884" gradientTransform="matrix(-1 0 0 -1.06 -6337.6299 1020.7)">
	<stop  offset="0" style="stop-color:#B3B3B3"/>
	<stop  offset="0.1201" style="stop-color:#808285"/>
	<stop  offset="0.2877" style="stop-color:#939597"/>
	<stop  offset="0.4162" style="stop-color:#D1D3D4"/>
	<stop  offset="0.5168" style="stop-color:#A7A9AC"/>
	<stop  offset="0.662" style="stop-color:#F1F2F2"/>
	<stop  offset="0.8519" style="stop-color:#B3B3B3"/>
	<stop  offset="0.919" style="stop-color:#E6E7E8"/>
	<stop  offset="1" style="stop-color:#919396"/>
</linearGradient>
<path style="fill:url(#SVGID_00000120555616167408925300000008784077404924764849_);" d="M49.8,9.2L53,71c-0.8-1.4-1.7-2.9-2.6-4.3
	c-0.9-17.8-1.8-35.6-2.8-53.4C48.4,11.9,49.1,10.5,49.8,9.2z"/>
<linearGradient id="SVGID_00000137107344103354913870000006069837228578091407_" gradientUnits="userSpaceOnUse" x1="57.0617" y1="258.7915" x2="57.0617" y2="197.0267" gradientTransform="matrix(1 0 0 -1 0 268)">
	<stop  offset="0" style="stop-color:#939598"/>
	<stop  offset="0.1927" style="stop-color:#6D6E71"/>
	<stop  offset="0.3045" style="stop-color:#808080"/>
	<stop  offset="0.6844" style="stop-color:#CCCCCC"/>
	<stop  offset="0.8966" style="stop-color:#808285"/>
	<stop  offset="1" style="stop-color:#B3B3B3"/>
</linearGradient>
<polygon style="fill:url(#SVGID_00000137107344103354913870000006069837228578091407_);" points="54.4,9.2 56.9,13.2 59.7,66.7 
	57.6,71 "/>
<linearGradient id="SVGID_00000123422409158146218240000005975484849945783180_" gradientUnits="userSpaceOnUse" x1="-6392.5571" y1="903.5197" x2="-6392.5571" y2="961.7884" gradientTransform="matrix(-1 0 0 -1.06 -6337.6299 1020.7)">
	<stop  offset="0" style="stop-color:#B3B3B3"/>
	<stop  offset="0.1201" style="stop-color:#808285"/>
	<stop  offset="0.2877" style="stop-color:#939597"/>
	<stop  offset="0.4162" style="stop-color:#D1D3D4"/>
	<stop  offset="0.5168" style="stop-color:#A7A9AC"/>
	<stop  offset="0.662" style="stop-color:#F1F2F2"/>
	<stop  offset="0.8519" style="stop-color:#B3B3B3"/>
	<stop  offset="0.919" style="stop-color:#E6E7E8"/>
	<stop  offset="1" style="stop-color:#919396"/>
</linearGradient>
<path style="fill:url(#SVGID_00000123422409158146218240000005975484849945783180_);" d="M54.4,9.2L57.6,71
	c-0.8-1.4-1.7-2.9-2.6-4.3c-0.9-17.8-1.8-35.6-2.8-53.4C53,11.9,53.7,10.5,54.4,9.2z"/>
<linearGradient id="SVGID_00000148631341670138612060000005637733600287326595_" gradientUnits="userSpaceOnUse" x1="58.3186" y1="95.3359" x2="58.3186" y2="148.7616" gradientTransform="matrix(1 0 0 -1 0 162)">
	<stop  offset="0" style="stop-color:#B3B3B3"/>
	<stop  offset="0.1201" style="stop-color:#808285"/>
	<stop  offset="0.2877" style="stop-color:#939597"/>
	<stop  offset="0.4162" style="stop-color:#D1D3D4"/>
	<stop  offset="0.5168" style="stop-color:#A7A9AC"/>
	<stop  offset="0.662" style="stop-color:#F1F2F2"/>
	<stop  offset="0.8519" style="stop-color:#B3B3B3"/>
	<stop  offset="0.919" style="stop-color:#E6E7E8"/>
	<stop  offset="1" style="stop-color:#919396"/>
</linearGradient>
<path style="fill:url(#SVGID_00000148631341670138612060000005637733600287326595_);" d="M56.9,13.2c0.9,0,1.8,0,2.8,0v53.4
	C58.8,48.8,57.9,31,56.9,13.2z"/>
<linearGradient id="SVGID_00000049219001219100337450000010921448947465393053_" gradientUnits="userSpaceOnUse" x1="25.7404" y1="148.7616" x2="25.7404" y2="95.0566" gradientTransform="matrix(1 0 0 -1 0 162)">
	<stop  offset="0" style="stop-color:#939598"/>
	<stop  offset="0.1927" style="stop-color:#6D6E71"/>
	<stop  offset="0.3045" style="stop-color:#808080"/>
	<stop  offset="0.6844" style="stop-color:#CCCCCC"/>
	<stop  offset="0.8966" style="stop-color:#808285"/>
	<stop  offset="1" style="stop-color:#B3B3B3"/>
</linearGradient>
<polygon style="fill:url(#SVGID_00000049219001219100337450000010921448947465393053_);" points="24.3,13.2 24.3,66.9 27.2,66.9 "/>
<linearGradient id="SVGID_00000034800904320282872870000005687819309380789694_" gradientUnits="userSpaceOnUse" x1="8663.083" y1="-2712.7881" x2="8670.3457" y2="-2712.7881" gradientTransform="matrix(-1 0 0 1 8728.8564 2752.7393)">
	<stop  offset="0" style="stop-color:#3F3B3C"/>
	<stop  offset="1" style="stop-color:#3F3B3C;stop-opacity:0"/>
</linearGradient>
<polygon style="opacity:0.5;fill:url(#SVGID_00000034800904320282872870000005687819309380789694_);enable-background:new    ;" points="
	58.6,66.7 65.9,66.7 65.9,13.2 58.5,13.2 "/>
<g>
	<rect x="78.2" y="13.8" class="st23" width="1.3" height="17.8"/>
	<rect x="78.2" y="47.9" class="st24" width="1.3" height="17.8"/>
	<rect x="63.3" y="47.9" class="st24" width="1.3" height="17.8"/>
	<rect x="63.3" y="13.8" class="st23" width="1.3" height="17.8"/>
	
		<linearGradient id="SVGID_00000016061379953491243890000010119317748080375434_" gradientUnits="userSpaceOnUse" x1="-257.247" y1="682.2709" x2="-257.247" y2="701.9016" gradientTransform="matrix(1 0 0 1 328.5929 -624.2667)">
		<stop  offset="6.983240e-02" style="stop-color:#58595B"/>
		<stop  offset="0.3715" style="stop-color:#808285"/>
		<stop  offset="0.4888" style="stop-color:#6D6E71"/>
		<stop  offset="0.6397" style="stop-color:#838587"/>
		<stop  offset="0.824" style="stop-color:#BCBEC0"/>
		<stop  offset="1" style="stop-color:#BAB9B9"/>
	</linearGradient>
	<path style="fill:url(#SVGID_00000016061379953491243890000010119317748080375434_);" d="M64.3,58l-1,5.4v9l1.9,5.2h12.5l1.7-5.2
		v-9.1c-0.3-1.8-0.6-3.6-0.9-5.4C73.9,58,69.1,58,64.3,58z"/>
	
		<linearGradient id="SVGID_00000142163603746039561320000006944189287625994415_" gradientUnits="userSpaceOnUse" x1="-257.2271" y1="-2495.0198" x2="-257.2271" y2="-2475.3892" gradientTransform="matrix(1 0 0 -1 328.5929 -2473.0693)">
		<stop  offset="0" style="stop-color:#F2F2F2"/>
		<stop  offset="1" style="stop-color:#CCCCCC"/>
	</linearGradient>
	<path style="fill:url(#SVGID_00000142163603746039561320000006944189287625994415_);" d="M64.3,21.9l-1-5.4v-9l1.9-5.2h12.5
		l1.7,5.2c0,3,0,5.9,0,8.9c-0.2,0.9-0.3,1.9-0.5,2.8c-0.2,0.9-0.3,1.8-0.4,2.7C73.9,21.9,69.1,21.9,64.3,21.9z"/>
	
		<linearGradient id="SVGID_00000163033397164631001300000000784158350892610205_" gradientUnits="userSpaceOnUse" x1="-257.2071" y1="682.2717" x2="-257.2071" y2="646.0826" gradientTransform="matrix(1 0 0 1 328.5929 -624.2667)">
		<stop  offset="0" style="stop-color:#E6E6E6"/>
		<stop  offset="0.263" style="stop-color:#E1E1E1"/>
		<stop  offset="0.5724" style="stop-color:#D3D3D3"/>
		<stop  offset="0.904" style="stop-color:#BBBBBB"/>
		<stop  offset="1" style="stop-color:#B3B3B3"/>
	</linearGradient>
	<path style="fill:url(#SVGID_00000163033397164631001300000000784158350892610205_);" d="M78.6,58c0.3-3.2,0.6-6.5,0.9-9.7
		c0-5.6,0-11.2,0-16.8c-0.1-1.6-0.3-3.2-0.4-4.8c-0.1-1.7-0.3-3.2-0.5-4.8c-4.7,0-9.5,0-14.2,0c-0.3,3.2-0.7,6.4-1,9.6
		c0,5.6,0,11.1,0,16.9l1,9.7c0.5,0,1.2,0,1.8,0C70.3,57.9,74.4,57.9,78.6,58C78.6,57.9,78.6,58,78.6,58z"/>
	
		<linearGradient id="SVGID_00000150079393715887072910000005009808149853500606_" gradientUnits="userSpaceOnUse" x1="-257.1672" y1="239.193" x2="-257.1672" y2="219.4426" gradientTransform="matrix(1 0 0 -1 328.5929 297.1191)">
		<stop  offset="0" style="stop-color:#808080"/>
		<stop  offset="1" style="stop-color:#ABABAB"/>
	</linearGradient>
	<path style="fill:url(#SVGID_00000150079393715887072910000005009808149853500606_);" d="M64.3,57.9c0,0-0.3,1.8-0.5,2.7
		c-0.2,0.9-0.4,1.8-0.5,2.8c0,3,0,6,0,9.1c0.6,1.7,1.2,3.4,1.9,5.2h12.6l1.8-5.3v-9.1c-0.1-0.8-0.3-1.9-0.4-2.7
		c-0.1-0.8-0.4-2.7-0.4-2.7H64.3z"/>
</g>
<linearGradient id="SVGID_00000174584303651106326330000002478079323308416440_" gradientUnits="userSpaceOnUse" x1="42.4185" y1="41.3515" x2="42.4185" y2="41.3515" gradientTransform="matrix(1 0 0 -1 0 162)">
	<stop  offset="0" style="stop-color:#808080"/>
	<stop  offset="1" style="stop-color:#ABABAB"/>
</linearGradient>
<path style="fill:url(#SVGID_00000174584303651106326330000002478079323308416440_);" d="M42.4,120.6"/>
<linearGradient id="SVGID_00000000184312611206836180000014885499716628998784_" gradientUnits="userSpaceOnUse" x1="22.3091" y1="36.1246" x2="22.3091" y2="36.1246" gradientTransform="matrix(1 0 0 -1 0 162)">
	<stop  offset="0" style="stop-color:#808080"/>
	<stop  offset="1" style="stop-color:#ABABAB"/>
</linearGradient>
<path style="fill:url(#SVGID_00000000184312611206836180000014885499716628998784_);" d="M22.3,125.9"/>
<linearGradient id="SVGID_00000111890085982991125740000008992776848381488293_" gradientUnits="userSpaceOnUse" x1="51.1566" y1="75.274" x2="51.1566" y2="37.8081" gradientTransform="matrix(1 0 0 -1 0 177.4489)">
	<stop  offset="0.2849" style="stop-color:#606060"/>
	<stop  offset="0.5139" style="stop-color:#999999"/>
	<stop  offset="0.6613" style="stop-color:#ACACAC"/>
	<stop  offset="0.8464" style="stop-color:#6E6E6F;stop-opacity:0.9913"/>
	<stop  offset="1" style="stop-color:#606060"/>
</linearGradient>
<rect x="22.8" y="102.2" style="fill:url(#SVGID_00000111890085982991125740000008992776848381488293_);" width="56.7" height="37.5"/>
<linearGradient id="SVGID_00000173876754815256258880000006217350032588552585_" gradientUnits="userSpaceOnUse" x1="21.5709" y1="75.5134" x2="21.5709" y2="37.5687" gradientTransform="matrix(1 0 0 -1 0 177.4489)">
	<stop  offset="0.2849" style="stop-color:#4D4D4D"/>
	<stop  offset="0.6613" style="stop-color:#ACACAC"/>
	<stop  offset="0.8464" style="stop-color:#6E6E6F;stop-opacity:0.9913"/>
	<stop  offset="1" style="stop-color:#606060"/>
</linearGradient>
<path style="fill:url(#SVGID_00000173876754815256258880000006217350032588552585_);" d="M20.3,101.9c0.8,0.1,1.7,0.2,2.5,0.2
	c0,12.5,0,25,0,37.5c-0.8,0.1-1.7,0.2-2.5,0.2C20.3,139.9,20.3,101.9,20.3,101.9z"/>
<image style="overflow:visible;" width="200" height="200" xlink:href="../../pepsi.png"  transform="matrix(4.838905e-02 0 0 4.838905e-02 66.5868 35.3717)">
</image>
</svg>
