<?xml version="1.0" encoding="utf-8"?>
<!-- Generator: Adobe Illustrator 25.4.1, SVG Export Plug-In . SVG Version: 6.00 Build 0)  -->
<svg version="1.1" id="Слой_1" xmlns="http://www.w3.org/2000/svg" xmlns:xlink="http://www.w3.org/1999/xlink" x="0px" y="0px"
	 viewBox="0 0 200 320" style="enable-background:new 0 0 200 320;" xml:space="preserve">
<style type="text/css">
	.st0{clip-path:url(#SVGID_00000051350032829056707940000005694942059882971027_);}
	.st1{fill:url(#SVGID_00000098191375390654354320000010073531596374027400_);}
	.st2{opacity:0.5;fill:url(#SVGID_00000005955232757707622630000018298854259408473790_);enable-background:new    ;}
	.st3{fill:url(#SVGID_00000055680968016321300480000016368019874105381049_);}
	.st4{fill:url(#SVGID_00000168083023846031033280000005500526784001412008_);}
	.st5{fill:url(#SVGID_00000017482265601215184780000014547386568145889159_);}
	.st6{fill:url(#SVGID_00000102514286926249845000000010367345610812606641_);}
	.st7{fill:url(#SVGID_00000071534936796870493090000008424038565470669997_);}
	.st8{fill:url(#SVGID_00000177458353214522833610000004843275026134850980_);}
	.st9{fill:url(#SVGID_00000062179555745386555130000004766842245150247815_);}
	.st10{fill:url(#SVGID_00000073701730862807262080000001946872170862898607_);}
	.st11{fill:url(#SVGID_00000054223664194165843200000009799232942017764787_);}
	.st12{opacity:0.5;fill:url(#SVGID_00000055667674755475050720000015957038640717292199_);enable-background:new    ;}
	.st13{fill:url(#SVGID_00000108298723399930232960000004823859735302346430_);}
	.st14{fill:url(#SVGID_00000140010836254318803820000001691749690264101277_);}
	.st15{fill:url(#SVGID_00000170968326876149937970000005954214617102688662_);}
	.st16{fill:url(#SVGID_00000020380449439018610280000005894004074892603012_);}
	.st17{fill:url(#SVGID_00000115486974653515818330000016306066468660525237_);}
	.st18{fill:url(#SVGID_00000036949504802696422800000002956495450585496993_);}
	.st19{fill:url(#SVGID_00000152236983373202703540000005818531158915486603_);}
	.st20{fill:url(#SVGID_00000143583850406040846380000014018573898224876684_);}
	.st21{fill:url(#SVGID_00000106838135791105590080000017346766191416811171_);}
	.st22{fill:url(#SVGID_00000106124475860739805620000003049788474901456818_);}
	.st23{fill:#FFFFFF;}
	.st24{fill:#6B6B6B;}
	.st25{fill:url(#SVGID_00000073002192217761185490000016634236548222799018_);}
	.st26{fill:url(#SVGID_00000017502578713713125770000008373499273091971484_);}
	.st27{fill:url(#SVGID_00000101799301815499065760000002992772311472741020_);}
	.st28{fill:url(#SVGID_00000158006271178817320670000008489169032707148729_);}
	.st29{fill:url(#SVGID_00000003080295787086200540000004821651935078110091_);}
	.st30{fill:url(#SVGID_00000168081415755068830670000016921585158629304740_);}
</style>
<g>
	<defs>
		<path id="SVGID_00000110455384359599402400000017984624867360833939_" d="M180,194v-1.9h-15.4v-4H151c-1.9-0.1-3.7-0.4-5.6-0.5
			l0,0l-5.1-7.9c-1.4,2.6-2.8,5.3-4.3,7.9l-5.1-7.9c-1.4,2.6-2.8,5.3-4.3,7.9l-5.1-7.9c-0.2,0.4-2,3.7-2.1,3.9
			c-0.7,1.3-1.4,2.6-2.1,3.9l-5.1-7.9c-1.4,2.6-2.8,5.3-4.3,7.9l-5.1-7.9c0,0-2.1,3.9-2.1,4c-0.7,1.3-1.4,2.6-2.1,4l-5.1-7.9
			c-1.4,2.6-2.8,5.3-4.3,7.9l0,0l-5.1-7.9l-4.7,7.9v0.5l0,0v-0.2v0.2h-9.6c0-3.8-0.1-7.5-0.1-11.4l-6.2-10.2H19l-6.6,10.2v12.5v5.1
			v29.5v0.2c0,10.5,0,21.1,0,32v0.9v29.5l0,0c0,5.9,0,11.7,0,17.8c2.2,3.4,4.4,6.7,6.6,10.2h44.5l6.2-10.3v-11.1h9.6v0.2h5.9v0.2
			l5.1,7.9l4.3-8.5c1.7,2.8,3.4,5.7,5.1,8.5c1.4-2.8,2.8-5.7,4.3-8.5c1.7,2.8,3.4,5.7,5.1,8.5l4.3-8.5c1.7,2.8,3.4,5.7,5.1,8.5
			c1.4-2.8,2.8-5.7,4.3-8.5c1.7,2.8,3.4,5.7,5.1,8.5l4.3-8.5c1.7,2.8,3.4,5.7,5.1,8.5c1.4-2.8,2.8-5.7,4.3-8.5
			c1.7,2.8,3.4,5.7,5.1,8.5l4.3-8.4l0,0v0.2c0-0.1,0-0.1,0-0.2h13.6v-4h15.4V287c2.6-3.8,5.2-7.6,7.9-11.4v-70.3
			C185.2,201.5,182.6,197.7,180,194z"/>
	</defs>
	<defs>
		<path id="SVGID_1_" d="M180,194v-1.9h-15.4v-4H151c-1.9-0.1-3.7-0.4-5.6-0.5l0,0l-5.1-7.9c-1.4,2.6-2.8,5.3-4.3,7.9l-5.1-7.9
			c-1.4,2.6-2.8,5.3-4.3,7.9l-5.1-7.9c-0.2,0.4-2,3.7-2.1,3.9c-0.7,1.3-1.4,2.6-2.1,3.9l-5.1-7.9c-1.4,2.6-2.8,5.3-4.3,7.9l-5.1-7.9
			c0,0-2.1,3.9-2.1,4c-0.7,1.3-1.4,2.6-2.1,4l-5.1-7.9c-1.4,2.6-2.8,5.3-4.3,7.9l0,0l-5.1-7.9l-4.7,7.9v0.5l0,0v-0.2v0.2h-9.6
			c0-3.8-0.1-7.5-0.1-11.4l-6.2-10.2H19l-6.6,10.2v12.5v5.1v29.5v0.2c0,10.5,0,21.1,0,32v0.9v29.5l0,0c0,5.9,0,11.7,0,17.8
			c2.2,3.4,4.4,6.7,6.6,10.2h44.5l6.2-10.3v-11.1h9.6v0.2h5.9v0.2l5.1,7.9l4.3-8.5c1.7,2.8,3.4,5.7,5.1,8.5c1.4-2.8,2.8-5.7,4.3-8.5
			c1.7,2.8,3.4,5.7,5.1,8.5l4.3-8.5c1.7,2.8,3.4,5.7,5.1,8.5c1.4-2.8,2.8-5.7,4.3-8.5c1.7,2.8,3.4,5.7,5.1,8.5l4.3-8.5
			c1.7,2.8,3.4,5.7,5.1,8.5c1.4-2.8,2.8-5.7,4.3-8.5c1.7,2.8,3.4,5.7,5.1,8.5l4.3-8.4l0,0v0.2c0-0.1,0-0.1,0-0.2h13.6v-4h15.4V287
			c2.6-3.8,5.2-7.6,7.9-11.4v-70.3C185.2,201.5,182.6,197.7,180,194z"/>
	</defs>
	<clipPath id="SVGID_00000079449403902439696270000007421278974256236933_">
		<use xlink:href="#SVGID_00000110455384359599402400000017984624867360833939_"  style="overflow:visible;"/>
	</clipPath>
	
		<clipPath id="SVGID_00000130635324429098009600000014211330606672818057_" style="clip-path:url(#SVGID_00000079449403902439696270000007421278974256236933_);">
		<use xlink:href="#SVGID_1_"  style="overflow:visible;"/>
	</clipPath>
	<g transform="matrix(1 0 0 1 0 0)" style="clip-path:url(#SVGID_00000130635324429098009600000014211330606672818057_);">
		
			<image style="overflow:visible;" width="600" height="600" xlink:href="../../background.jpg"  transform="matrix(0.3571 0 0 0.3571 -7.1886 133.3439)">
		</image>
	</g>
	
		<use xlink:href="#SVGID_00000110455384359599402400000017984624867360833939_"  style="overflow:visible;fill:none;stroke:#BFBFBF;stroke-miterlimit:10;"/>
	<use xlink:href="#SVGID_1_"  style="overflow:visible;fill:none;stroke:#BFBFBF;stroke-miterlimit:10;"/>
</g>
<linearGradient id="SVGID_00000137106458060008804610000013939371414460812703_" gradientUnits="userSpaceOnUse" x1="172.2901" y1="193.8652" x2="172.2901" y2="290.5895" gradientTransform="matrix(1 0 0 -1 0 322)">
	<stop  offset="0" style="stop-color:#9F9D9D"/>
	<stop  offset="0.1816" style="stop-color:#808080"/>
	<stop  offset="0.2933" style="stop-color:#9F9D9D"/>
	<stop  offset="0.5447" style="stop-color:#CCCCCC"/>
	<stop  offset="0.6732" style="stop-color:#FFFFFF"/>
	<stop  offset="0.8687" style="stop-color:#E4E3E3"/>
	<stop  offset="1" style="stop-color:#B3B3B3"/>
</linearGradient>
<rect x="164.6" y="31.4" style="fill:url(#SVGID_00000137106458060008804610000013939371414460812703_);" width="15.4" height="96.7"/>
<linearGradient id="SVGID_00000179634025876629431100000001343821681488082560_" gradientUnits="userSpaceOnUse" x1="-386.947" y1="3494.6736" x2="-374.9591" y2="3494.6736" gradientTransform="matrix(1 0 0 1 543.2952 -3414.9009)">
	<stop  offset="0" style="stop-color:#3F3B3C"/>
	<stop  offset="1" style="stop-color:#3F3B3C;stop-opacity:0"/>
</linearGradient>
<polygon style="opacity:0.5;fill:url(#SVGID_00000179634025876629431100000001343821681488082560_);enable-background:new    ;" points="
	168.1,31.4 156.2,31.4 156.2,128.1 168.4,128.1 "/>
<linearGradient id="SVGID_00000139986948753310842150000000636200785325445010_" gradientUnits="userSpaceOnUse" x1="154.0581" y1="189.7216" x2="154.0581" y2="294.6148" gradientTransform="matrix(1 0 0 -1 0 322)">
	<stop  offset="0" style="stop-color:#9F9D9D"/>
	<stop  offset="0.1816" style="stop-color:#808080"/>
	<stop  offset="0.2933" style="stop-color:#9F9D9D"/>
	<stop  offset="0.5447" style="stop-color:#CCCCCC"/>
	<stop  offset="0.6732" style="stop-color:#FFFFFF"/>
	<stop  offset="0.8687" style="stop-color:#E4E3E3"/>
	<stop  offset="1" style="stop-color:#B3B3B3"/>
</linearGradient>
<rect x="143.5" y="27.4" style="fill:url(#SVGID_00000139986948753310842150000000636200785325445010_);" width="21.1" height="104.9"/>
<linearGradient id="SVGID_00000035532332638471012640000010035591275892138373_" gradientUnits="userSpaceOnUse" x1="78.0519" y1="189.7216" x2="78.0519" y2="294.6148" gradientTransform="matrix(1 0 0 -1 0 322)">
	<stop  offset="0" style="stop-color:#9F9D9D"/>
	<stop  offset="0.1816" style="stop-color:#808080"/>
	<stop  offset="0.2933" style="stop-color:#9F9D9D"/>
	<stop  offset="0.5447" style="stop-color:#CCCCCC"/>
	<stop  offset="0.6732" style="stop-color:#FFFFFF"/>
	<stop  offset="0.8687" style="stop-color:#E4E3E3"/>
	<stop  offset="1" style="stop-color:#B3B3B3"/>
</linearGradient>
<rect x="62.8" y="27.4" style="fill:url(#SVGID_00000035532332638471012640000010035591275892138373_);" width="30.5" height="104.9"/>
<linearGradient id="SVGID_00000181794630819681283500000009146549831942853554_" gradientUnits="userSpaceOnUse" x1="89.299" y1="287.3159" x2="89.299" y2="409.1389" gradientTransform="matrix(1 0 0 -1 0 428)">
	<stop  offset="0" style="stop-color:#B3B3B3"/>
	<stop  offset="0.2263" style="stop-color:#808285"/>
	<stop  offset="0.4162" style="stop-color:#D1D3D4"/>
	<stop  offset="0.5168" style="stop-color:#A7A9AC"/>
	<stop  offset="0.662" style="stop-color:#F1F2F2"/>
	<stop  offset="0.8519" style="stop-color:#B3B3B3"/>
	<stop  offset="0.919" style="stop-color:#E6E7E8"/>
	<stop  offset="1" style="stop-color:#919396"/>
</linearGradient>
<polygon style="fill:url(#SVGID_00000181794630819681283500000009146549831942853554_);" points="84,18.9 89.1,26.8 94.6,132.2 
	90.4,140.7 "/>
<linearGradient id="SVGID_00000010312682666973675620000010725213969315300997_" gradientUnits="userSpaceOnUse" x1="-6322.4302" y1="1089.3947" x2="-6322.4302" y2="974.4673" gradientTransform="matrix(-1 0 0 -1.06 -6237.6299 1189.4001)">
	<stop  offset="0" style="stop-color:#939598"/>
	<stop  offset="0.1927" style="stop-color:#6D6E71"/>
	<stop  offset="0.3045" style="stop-color:#808080"/>
	<stop  offset="0.6844" style="stop-color:#CCCCCC"/>
	<stop  offset="0.8966" style="stop-color:#808285"/>
	<stop  offset="1" style="stop-color:#B3B3B3"/>
</linearGradient>
<polygon style="fill:url(#SVGID_00000010312682666973675620000010725213969315300997_);" points="84,18.9 90.4,140.7 85.3,132.8 
	79.2,26.8 "/>
<linearGradient id="SVGID_00000013181385578458630700000001997053542389206169_" gradientUnits="userSpaceOnUse" x1="98.6517" y1="287.3159" x2="98.6517" y2="409.1389" gradientTransform="matrix(1 0 0 -1 0 428)">
	<stop  offset="0" style="stop-color:#B3B3B3"/>
	<stop  offset="0.2263" style="stop-color:#808285"/>
	<stop  offset="0.4162" style="stop-color:#D1D3D4"/>
	<stop  offset="0.5168" style="stop-color:#A7A9AC"/>
	<stop  offset="0.662" style="stop-color:#F1F2F2"/>
	<stop  offset="0.8519" style="stop-color:#B3B3B3"/>
	<stop  offset="0.919" style="stop-color:#E6E7E8"/>
	<stop  offset="1" style="stop-color:#919396"/>
</linearGradient>
<polygon style="fill:url(#SVGID_00000013181385578458630700000001997053542389206169_);" points="93.3,18.9 98.5,26.8 104,132.2 
	99.7,140.7 "/>
<linearGradient id="SVGID_00000041985523206668930630000006272860166969750160_" gradientUnits="userSpaceOnUse" x1="-6332.0195" y1="1089.3947" x2="-6332.0195" y2="974.4673" gradientTransform="matrix(-1 0 0 -1.06 -6237.6299 1189.4001)">
	<stop  offset="0" style="stop-color:#939598"/>
	<stop  offset="0.1927" style="stop-color:#6D6E71"/>
	<stop  offset="0.3045" style="stop-color:#808080"/>
	<stop  offset="0.6844" style="stop-color:#CCCCCC"/>
	<stop  offset="0.8966" style="stop-color:#808285"/>
	<stop  offset="1" style="stop-color:#B3B3B3"/>
</linearGradient>
<path style="fill:url(#SVGID_00000041985523206668930630000006272860166969750160_);" d="M93.3,18.9l6.4,121.8
	c-1.7-2.8-3.4-5.7-5.1-8.5C92.7,97,91,62,89.1,26.8C90.5,24.2,91.9,21.6,93.3,18.9z"/>
<linearGradient id="SVGID_00000067922344754848664320000012107793832690027424_" gradientUnits="userSpaceOnUse" x1="108.1229" y1="287.3159" x2="108.1229" y2="409.1389" gradientTransform="matrix(1 0 0 -1 0 428)">
	<stop  offset="0" style="stop-color:#B3B3B3"/>
	<stop  offset="0.2263" style="stop-color:#808285"/>
	<stop  offset="0.4162" style="stop-color:#D1D3D4"/>
	<stop  offset="0.5168" style="stop-color:#A7A9AC"/>
	<stop  offset="0.662" style="stop-color:#F1F2F2"/>
	<stop  offset="0.8519" style="stop-color:#B3B3B3"/>
	<stop  offset="0.919" style="stop-color:#E6E7E8"/>
	<stop  offset="1" style="stop-color:#919396"/>
</linearGradient>
<polygon style="fill:url(#SVGID_00000067922344754848664320000012107793832690027424_);" points="102.8,18.9 107.9,26.8 
	113.5,132.2 109.2,140.7 "/>
<linearGradient id="SVGID_00000034063118235712169360000005227745141917004201_" gradientUnits="userSpaceOnUse" x1="-6341.4907" y1="1089.3947" x2="-6341.4907" y2="974.4673" gradientTransform="matrix(-1 0 0 -1.06 -6237.6299 1189.4001)">
	<stop  offset="0" style="stop-color:#939598"/>
	<stop  offset="0.1927" style="stop-color:#6D6E71"/>
	<stop  offset="0.3045" style="stop-color:#808080"/>
	<stop  offset="0.6844" style="stop-color:#CCCCCC"/>
	<stop  offset="0.8966" style="stop-color:#808285"/>
	<stop  offset="1" style="stop-color:#B3B3B3"/>
</linearGradient>
<path style="fill:url(#SVGID_00000034063118235712169360000005227745141917004201_);" d="M102.8,18.9l6.4,121.8
	c-1.7-2.8-3.4-5.7-5.1-8.5C102.2,97,100.4,62,98.5,26.8C100,24.2,101.4,21.6,102.8,18.9z"/>
<linearGradient id="SVGID_00000164502079241897844060000017037688479886824378_" gradientUnits="userSpaceOnUse" x1="117.4757" y1="287.3159" x2="117.4757" y2="409.1389" gradientTransform="matrix(1 0 0 -1 0 428)">
	<stop  offset="0" style="stop-color:#B3B3B3"/>
	<stop  offset="0.2263" style="stop-color:#808285"/>
	<stop  offset="0.4162" style="stop-color:#D1D3D4"/>
	<stop  offset="0.5168" style="stop-color:#A7A9AC"/>
	<stop  offset="0.662" style="stop-color:#F1F2F2"/>
	<stop  offset="0.8519" style="stop-color:#B3B3B3"/>
	<stop  offset="0.919" style="stop-color:#E6E7E8"/>
	<stop  offset="1" style="stop-color:#919396"/>
</linearGradient>
<polygon style="fill:url(#SVGID_00000164502079241897844060000017037688479886824378_);" points="112.1,18.9 117.2,26.8 
	122.8,132.2 118.5,140.7 "/>
<linearGradient id="SVGID_00000147926382439460718130000012014992077632508083_" gradientUnits="userSpaceOnUse" x1="-479.7109" y1="3494.7327" x2="-467.7231" y2="3494.7327" gradientTransform="matrix(1 0 0 1 543.2952 -3414.9009)">
	<stop  offset="0" style="stop-color:#3F3B3C"/>
	<stop  offset="1" style="stop-color:#3F3B3C;stop-opacity:0"/>
</linearGradient>
<polygon style="opacity:0.5;fill:url(#SVGID_00000147926382439460718130000012014992077632508083_);enable-background:new    ;" points="
	75.4,27.4 63.4,27.4 63.4,132.3 75.6,132.3 "/>
<linearGradient id="SVGID_00000059994318620951872090000007392847713779687061_" gradientUnits="userSpaceOnUse" x1="-6350.8438" y1="1089.3947" x2="-6350.8438" y2="974.4673" gradientTransform="matrix(-1 0 0 -1.06 -6237.6299 1189.4001)">
	<stop  offset="0" style="stop-color:#939598"/>
	<stop  offset="0.1927" style="stop-color:#6D6E71"/>
	<stop  offset="0.3045" style="stop-color:#808080"/>
	<stop  offset="0.6844" style="stop-color:#CCCCCC"/>
	<stop  offset="0.8966" style="stop-color:#808285"/>
	<stop  offset="1" style="stop-color:#B3B3B3"/>
</linearGradient>
<path style="fill:url(#SVGID_00000059994318620951872090000007392847713779687061_);" d="M112.1,18.9l6.4,121.8
	c-1.7-2.8-3.4-5.7-5.1-8.5c-1.9-35.2-3.7-70.2-5.6-105.4C109.3,24.2,110.7,21.6,112.1,18.9z"/>
<linearGradient id="SVGID_00000177466638643561204460000013224224694870732981_" gradientUnits="userSpaceOnUse" x1="126.8877" y1="287.3159" x2="126.8877" y2="409.1389" gradientTransform="matrix(1 0 0 -1 0 428)">
	<stop  offset="0" style="stop-color:#B3B3B3"/>
	<stop  offset="0.2263" style="stop-color:#808285"/>
	<stop  offset="0.4162" style="stop-color:#D1D3D4"/>
	<stop  offset="0.5168" style="stop-color:#A7A9AC"/>
	<stop  offset="0.662" style="stop-color:#F1F2F2"/>
	<stop  offset="0.8519" style="stop-color:#B3B3B3"/>
	<stop  offset="0.919" style="stop-color:#E6E7E8"/>
	<stop  offset="1" style="stop-color:#919396"/>
</linearGradient>
<polygon style="fill:url(#SVGID_00000177466638643561204460000013224224694870732981_);" points="121.5,18.9 126.7,26.8 
	132.3,132.2 128,140.7 "/>
<linearGradient id="SVGID_00000076604876133895824900000010823878527668285606_" gradientUnits="userSpaceOnUse" x1="-6360.1963" y1="1089.3947" x2="-6360.1963" y2="974.4673" gradientTransform="matrix(-1 0 0 -1.06 -6237.6299 1189.4001)">
	<stop  offset="0" style="stop-color:#939598"/>
	<stop  offset="0.1927" style="stop-color:#6D6E71"/>
	<stop  offset="0.3045" style="stop-color:#808080"/>
	<stop  offset="0.6844" style="stop-color:#CCCCCC"/>
	<stop  offset="0.8966" style="stop-color:#808285"/>
	<stop  offset="1" style="stop-color:#B3B3B3"/>
</linearGradient>
<path style="fill:url(#SVGID_00000076604876133895824900000010823878527668285606_);" d="M121.5,18.9l6.4,121.8
	c-1.7-2.8-3.4-5.7-5.1-8.5c-1.9-35.2-3.7-70.2-5.6-105.4C118.7,24.2,120.1,21.6,121.5,18.9z"/>
<linearGradient id="SVGID_00000174601291708396442230000004745875203363148948_" gradientUnits="userSpaceOnUse" x1="136.2996" y1="287.3159" x2="136.2996" y2="409.1389" gradientTransform="matrix(1 0 0 -1 0 428)">
	<stop  offset="0" style="stop-color:#B3B3B3"/>
	<stop  offset="0.2263" style="stop-color:#808285"/>
	<stop  offset="0.4162" style="stop-color:#D1D3D4"/>
	<stop  offset="0.5168" style="stop-color:#A7A9AC"/>
	<stop  offset="0.662" style="stop-color:#F1F2F2"/>
	<stop  offset="0.8519" style="stop-color:#B3B3B3"/>
	<stop  offset="0.919" style="stop-color:#E6E7E8"/>
	<stop  offset="1" style="stop-color:#919396"/>
</linearGradient>
<polygon style="fill:url(#SVGID_00000174601291708396442230000004745875203363148948_);" points="131,18.9 136.1,26.8 141.6,132.2 
	137.4,140.7 "/>
<linearGradient id="SVGID_00000041280295656051754910000016991895443365261217_" gradientUnits="userSpaceOnUse" x1="-6369.6675" y1="1089.3947" x2="-6369.6675" y2="974.4673" gradientTransform="matrix(-1 0 0 -1.06 -6237.6299 1189.4001)">
	<stop  offset="0" style="stop-color:#939598"/>
	<stop  offset="0.1927" style="stop-color:#6D6E71"/>
	<stop  offset="0.3045" style="stop-color:#808080"/>
	<stop  offset="0.6844" style="stop-color:#CCCCCC"/>
	<stop  offset="0.8966" style="stop-color:#808285"/>
	<stop  offset="1" style="stop-color:#B3B3B3"/>
</linearGradient>
<path style="fill:url(#SVGID_00000041280295656051754910000016991895443365261217_);" d="M131,18.9l6.4,121.8
	c-1.7-2.8-3.4-5.7-5.1-8.5c-1.9-35.2-3.7-70.2-5.6-105.4C128.1,24.2,129.6,21.6,131,18.9z"/>
<linearGradient id="SVGID_00000005961032362876392870000013900453487678488714_" gradientUnits="userSpaceOnUse" x1="145.6524" y1="287.3159" x2="145.6524" y2="409.1389" gradientTransform="matrix(1 0 0 -1 0 428)">
	<stop  offset="0" style="stop-color:#B3B3B3"/>
	<stop  offset="0.2263" style="stop-color:#808285"/>
	<stop  offset="0.4162" style="stop-color:#D1D3D4"/>
	<stop  offset="0.5168" style="stop-color:#A7A9AC"/>
	<stop  offset="0.662" style="stop-color:#F1F2F2"/>
	<stop  offset="0.8519" style="stop-color:#B3B3B3"/>
	<stop  offset="0.919" style="stop-color:#E6E7E8"/>
	<stop  offset="1" style="stop-color:#919396"/>
</linearGradient>
<polygon style="fill:url(#SVGID_00000005961032362876392870000013900453487678488714_);" points="140.3,18.9 145.4,26.8 151,132.2 
	146.7,140.7 "/>
<linearGradient id="SVGID_00000165950184120092705360000016837403575337285523_" gradientUnits="userSpaceOnUse" x1="-6379.0205" y1="1089.3947" x2="-6379.0205" y2="974.4673" gradientTransform="matrix(-1 0 0 -1.06 -6237.6299 1189.4001)">
	<stop  offset="0" style="stop-color:#939598"/>
	<stop  offset="0.1927" style="stop-color:#6D6E71"/>
	<stop  offset="0.3045" style="stop-color:#808080"/>
	<stop  offset="0.6844" style="stop-color:#CCCCCC"/>
	<stop  offset="0.8966" style="stop-color:#808285"/>
	<stop  offset="1" style="stop-color:#B3B3B3"/>
</linearGradient>
<path style="fill:url(#SVGID_00000165950184120092705360000016837403575337285523_);" d="M140.3,18.9l6.4,121.8
	c-1.7-2.8-3.4-5.7-5.1-8.5C139.7,97,138,62,136.1,26.8C137.5,24.2,138.9,21.6,140.3,18.9z"/>
<g>
	
		<linearGradient id="SVGID_00000142886234536953953300000011875604368753733551_" gradientUnits="userSpaceOnUse" x1="183.8331" y1="207.7349" x2="183.8331" y2="300.7892" gradientTransform="matrix(1 0 0 -1 0 322)">
		<stop  offset="0" style="stop-color:#9F9D9D"/>
		<stop  offset="0.1816" style="stop-color:#808080"/>
		<stop  offset="0.2933" style="stop-color:#9F9D9D"/>
		<stop  offset="0.5447" style="stop-color:#CCCCCC"/>
		<stop  offset="0.6732" style="stop-color:#FFFFFF"/>
		<stop  offset="0.8687" style="stop-color:#E4E3E3"/>
		<stop  offset="1" style="stop-color:#B3B3B3"/>
	</linearGradient>
	<path style="fill:url(#SVGID_00000142886234536953953300000011875604368753733551_);" d="M187.8,114.9c-2.6,3.8-5.2,7.6-7.9,11.4
		c0-31,0-62,0-93.1c2.6,3.8,5.2,7.6,7.9,11.4V114.9z"/>
</g>
<linearGradient id="SVGID_00000111171195391102158780000000756680113907220154_" gradientUnits="userSpaceOnUse" x1="82.2548" y1="189.4848" x2="82.2548" y2="294.97" gradientTransform="matrix(1 0 0 -1 0 322)">
	<stop  offset="0" style="stop-color:#B3B3B3"/>
	<stop  offset="0.2263" style="stop-color:#808285"/>
	<stop  offset="0.4162" style="stop-color:#D1D3D4"/>
	<stop  offset="0.5168" style="stop-color:#A7A9AC"/>
	<stop  offset="0.662" style="stop-color:#F1F2F2"/>
	<stop  offset="0.8519" style="stop-color:#B3B3B3"/>
	<stop  offset="0.919" style="stop-color:#E6E7E8"/>
	<stop  offset="1" style="stop-color:#919396"/>
</linearGradient>
<polygon style="fill:url(#SVGID_00000111171195391102158780000000756680113907220154_);" points="79.2,27 79.2,132.5 85.3,132.5 "/>
<linearGradient id="SVGID_00000073703822524182101790000010199660129513524386_" gradientUnits="userSpaceOnUse" x1="148.1978" y1="281.4937" x2="148.1978" y2="175.8901" gradientTransform="matrix(1 0 0 -1 0 322)">
	<stop  offset="0" style="stop-color:#939598"/>
	<stop  offset="0.1927" style="stop-color:#6D6E71"/>
	<stop  offset="0.3045" style="stop-color:#808080"/>
	<stop  offset="0.6844" style="stop-color:#CCCCCC"/>
	<stop  offset="0.8966" style="stop-color:#808285"/>
	<stop  offset="1" style="stop-color:#B3B3B3"/>
</linearGradient>
<path style="fill:url(#SVGID_00000073703822524182101790000010199660129513524386_);" d="M145.4,26.8l5.6,105.6c0-35,0-70.1,0-105.1
	C149.2,27.1,147.3,27,145.4,26.8z"/>
<g>
	<rect x="64.9" y="28.6" class="st23" width="4.7" height="34.8"/>
	<rect x="64.9" y="95.3" class="st24" width="4.7" height="34.8"/>
	<rect x="12.5" y="95.3" class="st24" width="4.7" height="34.8"/>
	<rect x="12.5" y="28.6" class="st23" width="4.6" height="34.8"/>
	
		<linearGradient id="SVGID_00000121976533986729989480000013609109572619816374_" gradientUnits="userSpaceOnUse" x1="-287.6561" y1="869.434" x2="-287.6561" y2="907.9107" gradientTransform="matrix(1 0 0 1 328.5929 -754.2667)">
		<stop  offset="6.983240e-02" style="stop-color:#58595B"/>
		<stop  offset="0.3715" style="stop-color:#808285"/>
		<stop  offset="0.4888" style="stop-color:#6D6E71"/>
		<stop  offset="0.6397" style="stop-color:#838587"/>
		<stop  offset="0.824" style="stop-color:#BCBEC0"/>
		<stop  offset="1" style="stop-color:#BAB9B9"/>
	</linearGradient>
	<path style="fill:url(#SVGID_00000121976533986729989480000013609109572619816374_);" d="M16,115.1l-3.7,10.5v17.8l6.6,10.2h44.4
		l6.2-10.2v-17.8c-1.1-3.6-2-7.1-3.2-10.5C49.8,115.1,32.8,115.1,16,115.1z"/>
	
		<linearGradient id="SVGID_00000155126643410651152240000002527053406232212136_" gradientUnits="userSpaceOnUse" x1="-287.5969" y1="-2357.5032" x2="-287.5969" y2="-2319.0264" gradientTransform="matrix(1 0 0 -1 328.5929 -2313.0693)">
		<stop  offset="0" style="stop-color:#F2F2F2"/>
		<stop  offset="1" style="stop-color:#CCCCCC"/>
	</linearGradient>
	<path style="fill:url(#SVGID_00000155126643410651152240000002527053406232212136_);" d="M16,44.3l-3.7-10.5V16L19,5.8h44.4
		L69.5,16c0,5.9,0.1,11.6,0.1,17.5c-0.6,1.8-1.1,3.7-1.8,5.4c-0.6,1.8-1.1,3.6-1.5,5.3C49.8,44.3,32.8,44.3,16,44.3z"/>
	
		<linearGradient id="SVGID_00000043418063431558121570000013537117222947784592_" gradientUnits="userSpaceOnUse" x1="-287.5969" y1="869.497" x2="-287.5969" y2="798.4633" gradientTransform="matrix(1 0 0 1 328.5929 -754.2667)">
		<stop  offset="0" style="stop-color:#E6E6E6"/>
		<stop  offset="0.263" style="stop-color:#E1E1E1"/>
		<stop  offset="0.5724" style="stop-color:#D3D3D3"/>
		<stop  offset="0.904" style="stop-color:#BBBBBB"/>
		<stop  offset="1" style="stop-color:#B3B3B3"/>
	</linearGradient>
	<path style="fill:url(#SVGID_00000043418063431558121570000013537117222947784592_);" d="M66.3,115.1c1.1-6.4,2.2-12.7,3.3-19.1
		c0-10.9,0-22,0-32.9c-0.5-3.1-1.1-6.4-1.5-9.5c-0.5-3.2-1.1-6.4-1.8-9.5c-16.8,0-33.5,0-50.3,0c-1.1,6.2-2.4,12.5-3.7,18.9
		c0,10.9,0,21.9,0,33l3.7,19.1c1.9,0,4.4,0,6.4,0C37.1,115,51.8,115,66.3,115.1C66.3,115,66.3,115.1,66.3,115.1z"/>
	
		<linearGradient id="SVGID_00000147203489503325156300000018063411150208948870_" gradientUnits="userSpaceOnUse" x1="-287.4785" y1="342.1255" x2="-287.4785" y2="303.4121" gradientTransform="matrix(1 0 0 -1 328.5929 457.1191)">
		<stop  offset="0" style="stop-color:#808080"/>
		<stop  offset="1" style="stop-color:#ABABAB"/>
	</linearGradient>
	<path style="fill:url(#SVGID_00000147203489503325156300000018063411150208948870_);" d="M16,115c0,0-1.2,3.6-1.8,5.3
		c-0.6,1.8-1.2,3.7-1.8,5.4c0,5.9,0,11.7,0,17.8c2.2,3.4,4.4,6.7,6.6,10.2h44.5l6.2-10.3v-17.8c-0.5-1.5-1.2-3.8-1.5-5.3
		c-0.5-1.5-1.5-5.3-1.5-5.3H16z"/>
</g>
<g>
	
		<linearGradient id="SVGID_00000133497523208503406740000012009065016949664658_" gradientUnits="userSpaceOnUse" x1="179.5119" y1="116.6751" x2="179.5119" y2="46.3517" gradientTransform="matrix(1 0 0 -1 0 322)">
		<stop  offset="0.1733" style="stop-color:#4D4D4D"/>
		<stop  offset="0.4238" style="stop-color:#ACACAC"/>
		<stop  offset="0.6944" style="stop-color:#6E6E6F;stop-opacity:0.9913"/>
		<stop  offset="0.725" style="stop-color:#636364;stop-opacity:0.9922"/>
		<stop  offset="0.782" style="stop-color:#575757;stop-opacity:0.9938"/>
		<stop  offset="0.8552" style="stop-color:#4F4F4F;stop-opacity:0.9959"/>
		<stop  offset="1" style="stop-color:#4D4D4D"/>
	</linearGradient>
	<polygon style="fill:url(#SVGID_00000133497523208503406740000012009065016949664658_);" points="188.2,205.3 170.9,240.6 
		188.2,275.6 	"/>
	
		<linearGradient id="SVGID_00000158739791518038280540000013574439695377723053_" gradientUnits="userSpaceOnUse" x1="170.8694" y1="81.5134" x2="188.2169" y2="81.5134" gradientTransform="matrix(1 0 0 -1 0 322)">
		<stop  offset="0" style="stop-color:#4D4D4D"/>
		<stop  offset="1" style="stop-color:#4D4D4D;stop-opacity:0"/>
	</linearGradient>
	<polygon style="fill:url(#SVGID_00000158739791518038280540000013574439695377723053_);" points="188.2,205.3 170.9,240.6 
		188.2,275.6 	"/>
</g>
<image style="overflow:visible;" width="200" height="200" xlink:href="../../pepsi.png"  transform="matrix(0.1134 0 0 0.1134 29.7716 68.2523)">
</image>
</svg>
