<?xml version="1.0" encoding="utf-8"?>
<!-- Generator: Adobe Illustrator 25.4.1, SVG Export Plug-In . SVG Version: 6.00 Build 0)  -->
<svg version="1.1" id="Слой_1" xmlns="http://www.w3.org/2000/svg" xmlns:xlink="http://www.w3.org/1999/xlink" x="0px" y="0px"
	 viewBox="0 0 100 160" style="enable-background:new 0 0 100 160;" xml:space="preserve">
<style type="text/css">
	.st0{clip-path:url(#SVGID_00000005255756018078560880000009345567188844380296_);}
	.st1{fill:none;stroke:#CCCCCC;stroke-width:0.5;stroke-miterlimit:10;}
	.st2{fill:url(#SVGID_00000011716599636373833510000017030331686158707615_);}
	.st3{fill:url(#SVGID_00000010297726473224801100000002866523018562643348_);}
	.st4{fill:url(#SVGID_00000177446538505704385180000002362470921636360608_);}
	.st5{fill:url(#SVGID_00000085964297913648885040000017747940028812491161_);}
	.st6{opacity:0.53;fill:url(#SVGID_00000091719582149746535290000011193409747279597230_);enable-background:new    ;}
	.st7{fill:url(#SVGID_00000051375096757013148820000007706975878126603435_);}
	.st8{fill:url(#SVGID_00000100377788837809051370000016115390304355852469_);}
	.st9{fill:url(#SVGID_00000149377714186659143540000001705229458139467652_);}
	.st10{fill:url(#SVGID_00000012459685342143964940000007141195227006559878_);}
	.st11{fill:url(#SVGID_00000170973781273453231900000009827302521738871187_);}
	.st12{fill:url(#SVGID_00000151516983717730420050000003731397625825203072_);}
	.st13{fill:url(#SVGID_00000015331019300729510250000000365882536325501628_);}
	.st14{fill:url(#SVGID_00000129903889428884866420000007973852403552875184_);}
	.st15{fill:url(#SVGID_00000176041590769781225330000001775606241680216991_);}
	.st16{fill:url(#SVGID_00000173124720478304113860000017332077039426302344_);}
	.st17{fill:url(#SVGID_00000105388412995736938320000002714520500775627180_);}
	.st18{fill:url(#SVGID_00000177447876294118614320000006764317115229156742_);}
	.st19{fill:url(#SVGID_00000108291779199108403230000016110847226534570904_);}
	.st20{fill:url(#SVGID_00000108285623127814582650000010507221962117658780_);}
	.st21{opacity:0.5;fill:url(#SVGID_00000062160326883819062130000013083636281792000667_);enable-background:new    ;}
	.st22{opacity:0.5;fill:url(#SVGID_00000019640772755003554170000004990926839810672819_);enable-background:new    ;}
	.st23{fill:url(#SVGID_00000144318974322806175150000004988971786110315452_);}
	.st24{fill:url(#SVGID_00000124880782607216180690000014956555162874544300_);}
	.st25{fill:#FFFFFF;}
	.st26{fill:#6B6B6B;}
	.st27{fill:url(#SVGID_00000144300095211785565340000004262314726550419085_);}
	.st28{fill:url(#SVGID_00000169529791588006900220000018343952153697433774_);}
	.st29{fill:url(#SVGID_00000021110865519157205670000017400714257117902009_);}
	.st30{fill:url(#SVGID_00000060017489662086070680000017450275116097575849_);}
	.st31{fill:url(#SVGID_00000101082199138915783710000001294932248942326160_);}
	.st32{fill:url(#SVGID_00000136375901284123660440000011835446337873299595_);}
	.st33{fill:url(#SVGID_00000139983830602816126990000015262068751145925807_);}
	.st34{fill:url(#SVGID_00000003081910582261151270000000994148277316971681_);}
</style>
<g>
	<g>
		<defs>
			<path id="SVGID_00000070100079342764605720000012702332556612423351_" d="M46.4,106.7v-1.4l0,0c0-1.2,0-2.3,0-3.5L44.8,99H33.2
				l-1.8,2.9v3.5v1.4h-3.8l-1.4-0.1l-1.3-1.9c-0.4,0.6-0.7,1.3-1.1,1.9l-1.3-1.9c-0.1,0.1-0.5,0.9-0.5,1c-0.2,0.3-0.4,0.6-0.5,1
				l-1.3-1.9c-0.4,0.6-0.7,1.3-1.1,1.9l-1.3-1.9c-0.4,0.6-0.7,1.3-1.1,1.9l-1.3-1.9c-0.4,0.6-0.7,1.3-1.1,1.9l-1.3-1.9
				c-0.4,0.6-0.7,1.3-1.1,1.9l0,0l-1.3-1.9l-1.2,1.9v0.1H3.8v0.6c-0.6,1-1.3,2-2,3v18.5c0.6,1,1.3,2,2,3v0.8h5.7H11l0,0l1.3,1.9
				l1.1-2.1c0.5,0.7,1.3,2.1,1.3,2.1s0.7-1.4,1.1-2.1c0.5,0.7,1.3,2.1,1.3,2.1s0.7-1.4,1.1-2.1c0.5,0.7,1.3,2.1,1.3,2.1l0,0l1.1-2.1
				c0.5,0.7,1.3,2.1,1.3,2.1s0.7-1.4,1.1-2.1c0.5,0.7,1.3,2.1,1.3,2.1l0,0l1.1-2.1l0,0l0,0l0,0c0.5,0.7,1.3,2.1,1.3,2.1l0,0l1.1-2.1
				h3.8c0,1.6,0,3.2,0,4.7l1.8,2.9l0,0h11.4l0,0l1.6-2.9v-3.7v-1h51.8v-26H46.4V106.7z"/>
		</defs>
		<clipPath id="SVGID_00000181796711683654366360000017638331352338682768_">
			<use xlink:href="#SVGID_00000070100079342764605720000012702332556612423351_"  style="overflow:visible;"/>
		</clipPath>
		<g transform="matrix(1 0 0 1 0 0)" style="clip-path:url(#SVGID_00000181796711683654366360000017638331352338682768_);">
			
				<image style="overflow:visible;enable-background:new    ;" width="1200" height="900" xlink:href="../../Фитинги/Резьбовые/Металл.jpg"  transform="matrix(0.1285 0 0 0.1285 -16.2162 26.1854)">
			</image>
		</g>
	</g>
	<g>
		<path id="SVGID_1_" class="st1" d="M46.4,106.7v-1.4l0,0c0-1.2,0-2.3,0-3.5L44.8,99H33.2l-1.8,2.9v3.5v1.4h-3.8l-1.4-0.1l-1.3-1.9
			c-0.4,0.6-0.7,1.3-1.1,1.9l-1.3-1.9c-0.1,0.1-0.5,0.9-0.5,1c-0.2,0.3-0.4,0.6-0.5,1l-1.3-1.9c-0.4,0.6-0.7,1.3-1.1,1.9l-1.3-1.9
			c-0.4,0.6-0.7,1.3-1.1,1.9l-1.3-1.9c-0.4,0.6-0.7,1.3-1.1,1.9l-1.3-1.9c-0.4,0.6-0.7,1.3-1.1,1.9l0,0l-1.3-1.9l-1.2,1.9v0.1H3.8
			v0.6c-0.6,1-1.3,2-2,3v18.5c0.6,1,1.3,2,2,3v0.8h5.7H11l0,0l1.3,1.9l1.1-2.1c0.5,0.7,1.3,2.1,1.3,2.1s0.7-1.4,1.1-2.1
			c0.5,0.7,1.3,2.1,1.3,2.1s0.7-1.4,1.1-2.1c0.5,0.7,1.3,2.1,1.3,2.1l0,0l1.1-2.1c0.5,0.7,1.3,2.1,1.3,2.1s0.7-1.4,1.1-2.1
			c0.5,0.7,1.3,2.1,1.3,2.1l0,0l1.1-2.1l0,0l0,0l0,0c0.5,0.7,1.3,2.1,1.3,2.1l0,0l1.1-2.1h3.8c0,1.6,0,3.2,0,4.7l1.8,2.9l0,0h11.4
			l0,0l1.6-2.9v-3.7v-1h51.8v-26H46.4V106.7z"/>
	</g>
</g>
<linearGradient id="SVGID_00000004543389016326394180000017510164164440412550_" gradientUnits="userSpaceOnUse" x1="29.2015" y1="109.2197" x2="29.2015" y2="135.1991" gradientTransform="matrix(1 0 0 -1 0 162)">
	<stop  offset="0" style="stop-color:#9F9D9D"/>
	<stop  offset="0.1816" style="stop-color:#808080"/>
	<stop  offset="0.2933" style="stop-color:#9F9D9D"/>
	<stop  offset="0.5447" style="stop-color:#CCCCCC"/>
	<stop  offset="0.6732" style="stop-color:#FFFFFF"/>
	<stop  offset="0.8687" style="stop-color:#E4E3E3"/>
	<stop  offset="1" style="stop-color:#B3B3B3"/>
</linearGradient>
<rect x="25.3" y="26.8" style="fill:url(#SVGID_00000004543389016326394180000017510164164440412550_);" width="7.7" height="26"/>
<linearGradient id="SVGID_00000181789598644546176480000000456831437524159367_" gradientUnits="userSpaceOnUse" x1="5656.3403" y1="109.0898" x2="5656.3403" y2="135.0692" gradientTransform="matrix(-1 0 0 -1 5664.0439 162)">
	<stop  offset="0" style="stop-color:#9F9D9D"/>
	<stop  offset="0.1816" style="stop-color:#808080"/>
	<stop  offset="0.2933" style="stop-color:#9F9D9D"/>
	<stop  offset="0.5447" style="stop-color:#CCCCCC"/>
	<stop  offset="0.6732" style="stop-color:#FFFFFF"/>
	<stop  offset="0.8687" style="stop-color:#E4E3E3"/>
	<stop  offset="1" style="stop-color:#B3B3B3"/>
</linearGradient>
<polygon style="fill:url(#SVGID_00000181789598644546176480000000456831437524159367_);" points="3.8,52.9 11.6,52.9 11.6,26.9 
	3.8,26.9 "/>
<linearGradient id="SVGID_00000106832855840380525510000004061221200537593773_" gradientUnits="userSpaceOnUse" x1="5591.9766" y1="109.0898" x2="5591.9766" y2="135.0692" gradientTransform="matrix(-1 0 0 -1 5664.0439 162)">
	<stop  offset="0" style="stop-color:#9F9D9D"/>
	<stop  offset="0.1816" style="stop-color:#808080"/>
	<stop  offset="0.2933" style="stop-color:#9F9D9D"/>
	<stop  offset="0.5447" style="stop-color:#CCCCCC"/>
	<stop  offset="0.6732" style="stop-color:#FFFFFF"/>
	<stop  offset="0.8687" style="stop-color:#E4E3E3"/>
	<stop  offset="1" style="stop-color:#B3B3B3"/>
</linearGradient>
<polygon style="fill:url(#SVGID_00000106832855840380525510000004061221200537593773_);" points="45.9,52.9 98.3,52.9 98.3,26.9 
	45.9,26.9 "/>
<linearGradient id="SVGID_00000158729443664232570330000010803109626448011449_" gradientUnits="userSpaceOnUse" x1="5661.1465" y1="113.072" x2="5661.1465" y2="137.5576" gradientTransform="matrix(-1 0 0 -1 5664.0439 162)">
	<stop  offset="0" style="stop-color:#9F9D9D"/>
	<stop  offset="0.1816" style="stop-color:#808080"/>
	<stop  offset="0.2933" style="stop-color:#9F9D9D"/>
	<stop  offset="0.5447" style="stop-color:#CCCCCC"/>
	<stop  offset="0.6732" style="stop-color:#FFFFFF"/>
	<stop  offset="0.8687" style="stop-color:#E4E3E3"/>
	<stop  offset="1" style="stop-color:#B3B3B3"/>
</linearGradient>
<path style="fill:url(#SVGID_00000158729443664232570330000010803109626448011449_);" d="M1.9,49.1c0.6,1,1.3,2,2,3
	c0-8.2,0-16.4,0-24.5c-0.6,1-1.3,2-2,3C1.9,30.6,1.9,49.1,1.9,49.1z"/>
<linearGradient id="SVGID_00000080891133523081063140000004096302502405803697_" gradientUnits="userSpaceOnUse" x1="5660.4404" y1="122.1769" x2="5662.4321" y2="122.1769" gradientTransform="matrix(-1 0 0 -1 5664.0439 162)">
	<stop  offset="0" style="stop-color:#B3B3B3;stop-opacity:0.5"/>
	<stop  offset="1" style="stop-color:#B3B3B3;stop-opacity:0"/>
</linearGradient>
<path style="opacity:0.53;fill:url(#SVGID_00000080891133523081063140000004096302502405803697_);enable-background:new    ;" d="
	M1.9,49.1c0.6,1,1.3,2,2,3c0-8.2,0-16.4,0-24.5c-0.6,1-1.3,2-2,3C1.9,30.6,1.9,49.1,1.9,49.1z"/>
<linearGradient id="SVGID_00000090995568222322397380000009445498009840625811_" gradientUnits="userSpaceOnUse" x1="12.0875" y1="243.1476" x2="12.0875" y2="213.1413" gradientTransform="matrix(1 0 0 -1 0 268)">
	<stop  offset="0" style="stop-color:#939598"/>
	<stop  offset="0.1927" style="stop-color:#6D6E71"/>
	<stop  offset="0.3045" style="stop-color:#808080"/>
	<stop  offset="0.6844" style="stop-color:#CCCCCC"/>
	<stop  offset="0.8966" style="stop-color:#808285"/>
	<stop  offset="1" style="stop-color:#B3B3B3"/>
</linearGradient>
<polygon style="fill:url(#SVGID_00000090995568222322397380000009445498009840625811_);" points="10.7,24.9 12,26.8 13.5,52.8 
	12.3,54.9 "/>
<linearGradient id="SVGID_00000131326313113526721880000009809070953786538924_" gradientUnits="userSpaceOnUse" x1="-6348.5806" y1="922.1936" x2="-6348.5806" y2="950.5014" gradientTransform="matrix(-1 0 0 -1.06 -6337.6299 1028.5)">
	<stop  offset="0" style="stop-color:#B3B3B3"/>
	<stop  offset="0.1201" style="stop-color:#808285"/>
	<stop  offset="0.2877" style="stop-color:#939597"/>
	<stop  offset="0.4162" style="stop-color:#D1D3D4"/>
	<stop  offset="0.5168" style="stop-color:#A7A9AC"/>
	<stop  offset="0.662" style="stop-color:#F1F2F2"/>
	<stop  offset="0.8519" style="stop-color:#B3B3B3"/>
	<stop  offset="0.919" style="stop-color:#E6E7E8"/>
	<stop  offset="1" style="stop-color:#919396"/>
</linearGradient>
<polygon style="fill:url(#SVGID_00000131326313113526721880000009809070953786538924_);" points="10.7,24.9 12.3,54.9 11,52.9 
	9.6,26.8 "/>
<linearGradient id="SVGID_00000055672826063696814190000011199850558135047840_" gradientUnits="userSpaceOnUse" x1="14.4582" y1="243.1476" x2="14.4582" y2="213.1413" gradientTransform="matrix(1 0 0 -1 0 268)">
	<stop  offset="0" style="stop-color:#939598"/>
	<stop  offset="0.1927" style="stop-color:#6D6E71"/>
	<stop  offset="0.3045" style="stop-color:#808080"/>
	<stop  offset="0.6844" style="stop-color:#CCCCCC"/>
	<stop  offset="0.8966" style="stop-color:#808285"/>
	<stop  offset="1" style="stop-color:#B3B3B3"/>
</linearGradient>
<polygon style="fill:url(#SVGID_00000055672826063696814190000011199850558135047840_);" points="13.1,24.9 14.4,26.8 15.8,52.8 
	14.8,54.9 "/>
<linearGradient id="SVGID_00000046303073458603752390000009421031705505846937_" gradientUnits="userSpaceOnUse" x1="-6351.0166" y1="922.1936" x2="-6351.0166" y2="950.5014" gradientTransform="matrix(-1 0 0 -1.06 -6337.6299 1028.5)">
	<stop  offset="0" style="stop-color:#B3B3B3"/>
	<stop  offset="0.1201" style="stop-color:#808285"/>
	<stop  offset="0.2877" style="stop-color:#939597"/>
	<stop  offset="0.4162" style="stop-color:#D1D3D4"/>
	<stop  offset="0.5168" style="stop-color:#A7A9AC"/>
	<stop  offset="0.662" style="stop-color:#F1F2F2"/>
	<stop  offset="0.8519" style="stop-color:#B3B3B3"/>
	<stop  offset="0.919" style="stop-color:#E6E7E8"/>
	<stop  offset="1" style="stop-color:#919396"/>
</linearGradient>
<path style="fill:url(#SVGID_00000046303073458603752390000009421031705505846937_);" d="M13.1,24.9l1.6,30
	c-0.5-0.7-0.8-1.4-1.3-2.1c-0.5-8.6-0.9-17.3-1.4-26C12.4,26.2,12.7,25.5,13.1,24.9z"/>
<linearGradient id="SVGID_00000173159887451747759330000009514809306290118321_" gradientUnits="userSpaceOnUse" x1="16.8288" y1="243.1476" x2="16.8288" y2="213.1413" gradientTransform="matrix(1 0 0 -1 0 268)">
	<stop  offset="0" style="stop-color:#939598"/>
	<stop  offset="0.1927" style="stop-color:#6D6E71"/>
	<stop  offset="0.3045" style="stop-color:#808080"/>
	<stop  offset="0.6844" style="stop-color:#CCCCCC"/>
	<stop  offset="0.8966" style="stop-color:#808285"/>
	<stop  offset="1" style="stop-color:#B3B3B3"/>
</linearGradient>
<polygon style="fill:url(#SVGID_00000173159887451747759330000009514809306290118321_);" points="15.5,24.9 16.8,26.8 18.2,52.8 
	17.1,54.9 "/>
<linearGradient id="SVGID_00000016052689147087880140000001149864752972782768_" gradientUnits="userSpaceOnUse" x1="-6353.3545" y1="922.1936" x2="-6353.3545" y2="950.5014" gradientTransform="matrix(-1 0 0 -1.06 -6337.6299 1028.5)">
	<stop  offset="0" style="stop-color:#B3B3B3"/>
	<stop  offset="0.1201" style="stop-color:#808285"/>
	<stop  offset="0.2877" style="stop-color:#939597"/>
	<stop  offset="0.4162" style="stop-color:#D1D3D4"/>
	<stop  offset="0.5168" style="stop-color:#A7A9AC"/>
	<stop  offset="0.662" style="stop-color:#F1F2F2"/>
	<stop  offset="0.8519" style="stop-color:#B3B3B3"/>
	<stop  offset="0.919" style="stop-color:#E6E7E8"/>
	<stop  offset="1" style="stop-color:#919396"/>
</linearGradient>
<path style="fill:url(#SVGID_00000016052689147087880140000001149864752972782768_);" d="M15.5,24.9l1.6,30
	c-0.5-0.7-0.8-1.4-1.3-2.1c-0.5-8.6-0.9-17.3-1.4-26C14.8,26.2,15.1,25.5,15.5,24.9z"/>
<linearGradient id="SVGID_00000013901521739660971420000010365929574554315652_" gradientUnits="userSpaceOnUse" x1="19.2319" y1="243.1476" x2="19.2319" y2="213.1413" gradientTransform="matrix(1 0 0 -1 0 268)">
	<stop  offset="0" style="stop-color:#939598"/>
	<stop  offset="0.1927" style="stop-color:#6D6E71"/>
	<stop  offset="0.3045" style="stop-color:#808080"/>
	<stop  offset="0.6844" style="stop-color:#CCCCCC"/>
	<stop  offset="0.8966" style="stop-color:#808285"/>
	<stop  offset="1" style="stop-color:#B3B3B3"/>
</linearGradient>
<polygon style="fill:url(#SVGID_00000013901521739660971420000010365929574554315652_);" points="17.9,24.9 19.2,26.8 20.6,52.8 
	19.5,54.9 "/>
<linearGradient id="SVGID_00000093892798154812525720000009100487899688080552_" gradientUnits="userSpaceOnUse" x1="-6355.7578" y1="922.1936" x2="-6355.7578" y2="950.5014" gradientTransform="matrix(-1 0 0 -1.06 -6337.6299 1028.5)">
	<stop  offset="0" style="stop-color:#B3B3B3"/>
	<stop  offset="0.1201" style="stop-color:#808285"/>
	<stop  offset="0.2877" style="stop-color:#939597"/>
	<stop  offset="0.4162" style="stop-color:#D1D3D4"/>
	<stop  offset="0.5168" style="stop-color:#A7A9AC"/>
	<stop  offset="0.662" style="stop-color:#F1F2F2"/>
	<stop  offset="0.8519" style="stop-color:#B3B3B3"/>
	<stop  offset="0.919" style="stop-color:#E6E7E8"/>
	<stop  offset="1" style="stop-color:#919396"/>
</linearGradient>
<path style="fill:url(#SVGID_00000093892798154812525720000009100487899688080552_);" d="M17.9,24.9l1.6,30
	c-0.5-0.7-0.8-1.4-1.3-2.1c-0.5-8.6-0.9-17.3-1.4-26C17.2,26.2,17.5,25.5,17.9,24.9z"/>
<linearGradient id="SVGID_00000077285622975916598070000003943898345372461754_" gradientUnits="userSpaceOnUse" x1="21.6025" y1="243.1476" x2="21.6025" y2="213.1413" gradientTransform="matrix(1 0 0 -1 0 268)">
	<stop  offset="0" style="stop-color:#939598"/>
	<stop  offset="0.1927" style="stop-color:#6D6E71"/>
	<stop  offset="0.3045" style="stop-color:#808080"/>
	<stop  offset="0.6844" style="stop-color:#CCCCCC"/>
	<stop  offset="0.8966" style="stop-color:#808285"/>
	<stop  offset="1" style="stop-color:#B3B3B3"/>
</linearGradient>
<polygon style="fill:url(#SVGID_00000077285622975916598070000003943898345372461754_);" points="20.3,24.9 21.6,26.8 22.9,52.8 
	21.9,54.9 "/>
<linearGradient id="SVGID_00000052820080726597609530000014504842570211134109_" gradientUnits="userSpaceOnUse" x1="-6358.1606" y1="922.1936" x2="-6358.1606" y2="950.5014" gradientTransform="matrix(-1 0 0 -1.06 -6337.6299 1028.5)">
	<stop  offset="0" style="stop-color:#B3B3B3"/>
	<stop  offset="0.1201" style="stop-color:#808285"/>
	<stop  offset="0.2877" style="stop-color:#939597"/>
	<stop  offset="0.4162" style="stop-color:#D1D3D4"/>
	<stop  offset="0.5168" style="stop-color:#A7A9AC"/>
	<stop  offset="0.662" style="stop-color:#F1F2F2"/>
	<stop  offset="0.8519" style="stop-color:#B3B3B3"/>
	<stop  offset="0.919" style="stop-color:#E6E7E8"/>
	<stop  offset="1" style="stop-color:#919396"/>
</linearGradient>
<path style="fill:url(#SVGID_00000052820080726597609530000014504842570211134109_);" d="M20.3,24.9l1.6,30
	c-0.5-0.7-0.8-1.4-1.3-2.1c-0.5-8.6-0.9-17.3-1.4-26C19.5,26.2,19.9,25.5,20.3,24.9z"/>
<linearGradient id="SVGID_00000068647123418649255340000005674709666658523311_" gradientUnits="userSpaceOnUse" x1="23.9731" y1="243.1476" x2="23.9731" y2="213.1413" gradientTransform="matrix(1 0 0 -1 0 268)">
	<stop  offset="0" style="stop-color:#939598"/>
	<stop  offset="0.1927" style="stop-color:#6D6E71"/>
	<stop  offset="0.3045" style="stop-color:#808080"/>
	<stop  offset="0.6844" style="stop-color:#CCCCCC"/>
	<stop  offset="0.8966" style="stop-color:#808285"/>
	<stop  offset="1" style="stop-color:#B3B3B3"/>
</linearGradient>
<polygon style="fill:url(#SVGID_00000068647123418649255340000005674709666658523311_);" points="22.6,24.9 23.9,26.8 25.3,52.8 
	24.2,54.9 "/>
<linearGradient id="SVGID_00000049218797063814151320000016104715852664530602_" gradientUnits="userSpaceOnUse" x1="-6360.499" y1="922.1936" x2="-6360.499" y2="950.5014" gradientTransform="matrix(-1 0 0 -1.06 -6337.6299 1028.5)">
	<stop  offset="0" style="stop-color:#B3B3B3"/>
	<stop  offset="0.1201" style="stop-color:#808285"/>
	<stop  offset="0.2877" style="stop-color:#939597"/>
	<stop  offset="0.4162" style="stop-color:#D1D3D4"/>
	<stop  offset="0.5168" style="stop-color:#A7A9AC"/>
	<stop  offset="0.662" style="stop-color:#F1F2F2"/>
	<stop  offset="0.8519" style="stop-color:#B3B3B3"/>
	<stop  offset="0.919" style="stop-color:#E6E7E8"/>
	<stop  offset="1" style="stop-color:#919396"/>
</linearGradient>
<path style="fill:url(#SVGID_00000049218797063814151320000016104715852664530602_);" d="M22.6,24.9l1.6,30
	c-0.5-0.7-0.8-1.4-1.3-2.1c-0.5-8.6-0.9-17.3-1.4-26C21.9,26.2,22.3,25.5,22.6,24.9z"/>
<linearGradient id="SVGID_00000123424325114485698830000013947564986705197726_" gradientUnits="userSpaceOnUse" x1="26.3438" y1="243.1476" x2="26.3438" y2="213.1413" gradientTransform="matrix(1 0 0 -1 0 268)">
	<stop  offset="0" style="stop-color:#939598"/>
	<stop  offset="0.1927" style="stop-color:#6D6E71"/>
	<stop  offset="0.3045" style="stop-color:#808080"/>
	<stop  offset="0.6844" style="stop-color:#CCCCCC"/>
	<stop  offset="0.8966" style="stop-color:#808285"/>
	<stop  offset="1" style="stop-color:#B3B3B3"/>
</linearGradient>
<polygon style="fill:url(#SVGID_00000123424325114485698830000013947564986705197726_);" points="25,24.9 26.3,26.8 27.7,52.8 
	26.6,54.9 "/>
<linearGradient id="SVGID_00000021111510608739058050000002334472138193722303_" gradientUnits="userSpaceOnUse" x1="-6362.9019" y1="922.1936" x2="-6362.9019" y2="950.5014" gradientTransform="matrix(-1 0 0 -1.06 -6337.6299 1028.5)">
	<stop  offset="0" style="stop-color:#B3B3B3"/>
	<stop  offset="0.1201" style="stop-color:#808285"/>
	<stop  offset="0.2877" style="stop-color:#939597"/>
	<stop  offset="0.4162" style="stop-color:#D1D3D4"/>
	<stop  offset="0.5168" style="stop-color:#A7A9AC"/>
	<stop  offset="0.662" style="stop-color:#F1F2F2"/>
	<stop  offset="0.8519" style="stop-color:#B3B3B3"/>
	<stop  offset="0.919" style="stop-color:#E6E7E8"/>
	<stop  offset="1" style="stop-color:#919396"/>
</linearGradient>
<path style="fill:url(#SVGID_00000021111510608739058050000002334472138193722303_);" d="M25,24.9l1.6,30c-0.5-0.7-0.8-1.4-1.3-2.1
	c-0.5-8.6-0.9-17.3-1.4-26C24.3,26.2,24.6,25.5,25,24.9z"/>
<linearGradient id="SVGID_00000042009657337184534360000011707192637817639072_" gradientUnits="userSpaceOnUse" x1="-729.7014" y1="-1286.1838" x2="-719.4133" y2="-1286.1838" gradientTransform="matrix(-1 0 0 1 -690.1875 1325.9745)">
	<stop  offset="0" style="stop-color:#3F3B3C"/>
	<stop  offset="1" style="stop-color:#3F3B3C;stop-opacity:0"/>
</linearGradient>
<polygon style="opacity:0.5;fill:url(#SVGID_00000042009657337184534360000011707192637817639072_);enable-background:new    ;" points="
	29.3,52.8 39.7,52.8 39.7,26.8 29.2,26.8 "/>
<linearGradient id="SVGID_00000129884004972718966960000005209593750429224363_" gradientUnits="userSpaceOnUse" x1="-582.6697" y1="-1734.6466" x2="-572.3818" y2="-1734.6466" gradientTransform="matrix(1 0 0 -1 621.8122 -1694.7261)">
	<stop  offset="0" style="stop-color:#3F3B3C"/>
	<stop  offset="1" style="stop-color:#3F3B3C;stop-opacity:0"/>
</linearGradient>
<polygon style="opacity:0.5;fill:url(#SVGID_00000129884004972718966960000005209593750429224363_);enable-background:new    ;" points="
	49.4,26.9 39,26.9 39,52.9 49.5,52.9 "/>
<linearGradient id="SVGID_00000127008651436898860450000005680334977582200736_" gradientUnits="userSpaceOnUse" x1="26.9932" y1="109.2197" x2="26.9932" y2="135.1991" gradientTransform="matrix(1 0 0 -1 0 162)">
	<stop  offset="0" style="stop-color:#B3B3B3"/>
	<stop  offset="0.1201" style="stop-color:#808285"/>
	<stop  offset="0.2877" style="stop-color:#939597"/>
	<stop  offset="0.4162" style="stop-color:#D1D3D4"/>
	<stop  offset="0.5168" style="stop-color:#A7A9AC"/>
	<stop  offset="0.662" style="stop-color:#F1F2F2"/>
	<stop  offset="0.8519" style="stop-color:#B3B3B3"/>
	<stop  offset="0.919" style="stop-color:#E6E7E8"/>
	<stop  offset="1" style="stop-color:#919396"/>
</linearGradient>
<polygon style="fill:url(#SVGID_00000127008651436898860450000005680334977582200736_);" points="26.3,26.8 27.7,26.8 27.7,52.8 "/>
<linearGradient id="SVGID_00000000196260163699605800000006890786469019792798_" gradientUnits="userSpaceOnUse" x1="10.3014" y1="135.1991" x2="10.3014" y2="109.0898" gradientTransform="matrix(1 0 0 -1 0 162)">
	<stop  offset="0" style="stop-color:#939598"/>
	<stop  offset="0.1927" style="stop-color:#6D6E71"/>
	<stop  offset="0.3045" style="stop-color:#808080"/>
	<stop  offset="0.6844" style="stop-color:#CCCCCC"/>
	<stop  offset="0.8966" style="stop-color:#808285"/>
	<stop  offset="1" style="stop-color:#B3B3B3"/>
</linearGradient>
<polygon style="fill:url(#SVGID_00000000196260163699605800000006890786469019792798_);" points="9.6,26.8 9.6,52.9 11,52.9 "/>
<g>
	<rect x="45.3" y="25.6" class="st25" width="1.2" height="9.7"/>
	<rect x="45.3" y="44.1" class="st26" width="1.2" height="9.7"/>
	<rect x="31.4" y="44.1" class="st26" width="1.2" height="9.7"/>
	<rect x="31.4" y="25.6" class="st25" width="1.2" height="9.7"/>
	
		<linearGradient id="SVGID_00000074419983354885218600000012100448276600327064_" gradientUnits="userSpaceOnUse" x1="38.9763" y1="-433.0486" x2="38.9763" y2="-443.7607" gradientTransform="matrix(1 0 0 -1 0 -383.3858)">
		<stop  offset="6.983240e-02" style="stop-color:#58595B"/>
		<stop  offset="0.3715" style="stop-color:#808285"/>
		<stop  offset="0.4888" style="stop-color:#6D6E71"/>
		<stop  offset="0.6397" style="stop-color:#838587"/>
		<stop  offset="0.824" style="stop-color:#BCBEC0"/>
		<stop  offset="1" style="stop-color:#BAB9B9"/>
	</linearGradient>
	<path style="fill:url(#SVGID_00000074419983354885218600000012100448276600327064_);" d="M32.4,49.7l-0.9,3v4.9l1.8,2.9h11.6
		l1.6-2.9v-4.9c-0.3-1-0.6-1.9-0.8-3C41.2,49.7,36.8,49.7,32.4,49.7z"/>
	
		<linearGradient id="SVGID_00000063602002454793862580000015070482762881653646_" gradientUnits="userSpaceOnUse" x1="39.0087" y1="3258.1575" x2="39.0087" y2="3247.4409" gradientTransform="matrix(1 0 0 1 0 -3228.1885)">
		<stop  offset="0" style="stop-color:#F2F2F2"/>
		<stop  offset="1" style="stop-color:#CCCCCC"/>
	</linearGradient>
	<path style="fill:url(#SVGID_00000063602002454793862580000015070482762881653646_);" d="M32.4,29.9l-0.9-3v-4.9l1.8-2.9h11.6
		l1.6,2.9c0,1.6,0,3.2,0.1,4.9c-0.1,0.5-0.3,1-0.5,1.5c-0.1,0.5-0.3,1-0.4,1.5C41.2,29.9,36.8,29.9,32.4,29.9z"/>
	
		<linearGradient id="SVGID_00000168113678550369843370000015054449484906291622_" gradientUnits="userSpaceOnUse" x1="38.9763" y1="-433.0486" x2="38.9763" y2="-413.3523" gradientTransform="matrix(1 0 0 -1 0 -383.3858)">
		<stop  offset="0" style="stop-color:#E6E6E6"/>
		<stop  offset="0.263" style="stop-color:#E1E1E1"/>
		<stop  offset="0.5724" style="stop-color:#D3D3D3"/>
		<stop  offset="0.904" style="stop-color:#BBBBBB"/>
		<stop  offset="1" style="stop-color:#B3B3B3"/>
	</linearGradient>
	<path style="fill:url(#SVGID_00000168113678550369843370000015054449484906291622_);" d="M45.6,49.7c0.3-1.8,0.6-3.5,0.8-5.3
		c0-3.1,0-6.1,0-9.2c-0.1-0.8-0.3-1.8-0.4-2.7c-0.1-0.9-0.3-1.8-0.5-2.7c-4.4,0-8.8,0-13.2,0c-0.3,1.7-0.6,3.5-0.9,5.3
		c0,3.1,0,6.1,0,9.2l0.9,5.3L45.6,49.7L45.6,49.7z"/>
	
		<linearGradient id="SVGID_00000158748574137990459190000015826257542476726969_" gradientUnits="userSpaceOnUse" x1="38.9763" y1="507.6056" x2="38.9763" y2="518.3964" gradientTransform="matrix(1 0 0 1 0 -458)">
		<stop  offset="0" style="stop-color:#808080"/>
		<stop  offset="1" style="stop-color:#ABABAB"/>
	</linearGradient>
	<path style="fill:url(#SVGID_00000158748574137990459190000015826257542476726969_);" d="M32.4,49.6c-0.3,1-0.6,2-1,3
		c0,1.6,0,3.3,0,4.9c0.6,1,1.2,1.9,1.8,2.9h11.7l1.6-2.9v-5c-0.3-1-0.6-1.9-0.8-3c-2.2,0-4.4,0-6.6,0.1
		C36.8,49.7,34.6,49.6,32.4,49.6z"/>
</g>
<linearGradient id="SVGID_00000176745441659936596520000015380238715094410126_" gradientUnits="userSpaceOnUse" x1="19.0046" y1="-109.107" x2="19.0046" y2="-123.1616" gradientTransform="matrix(1 0 0 -1 0 3.4489)">
	<stop  offset="0.2849" style="stop-color:#606060"/>
	<stop  offset="0.5139" style="stop-color:#999999"/>
	<stop  offset="0.6613" style="stop-color:#ACACAC"/>
	<stop  offset="0.8464" style="stop-color:#6E6E6F;stop-opacity:0.9913"/>
	<stop  offset="1" style="stop-color:#606060"/>
</linearGradient>
<rect x="5.3" y="112.6" style="fill:url(#SVGID_00000176745441659936596520000015380238715094410126_);" width="27.3" height="14.1"/>
<linearGradient id="SVGID_00000102536972119199988920000011646300328931623612_" gradientUnits="userSpaceOnUse" x1="3.5143" y1="-107.3325" x2="3.5143" y2="-124.9335" gradientTransform="matrix(1 0 0 -1 0 3.4489)">
	<stop  offset="0.2849" style="stop-color:#4D4D4D"/>
	<stop  offset="0.6613" style="stop-color:#ACACAC"/>
	<stop  offset="0.8464" style="stop-color:#6E6E6F;stop-opacity:0.9913"/>
	<stop  offset="1" style="stop-color:#606060"/>
</linearGradient>
<path style="fill:url(#SVGID_00000102536972119199988920000011646300328931623612_);" d="M1.7,110.8c1.2,0.6,2.4,1.2,3.6,1.8
	c0,4.7,0,9.4,0,14.1c-1.2,0.6-2.4,1.2-3.6,1.8C1.7,128.4,1.7,110.8,1.7,110.8z"/>
<linearGradient id="SVGID_00000111910419615059470710000005586934136964622253_" gradientUnits="userSpaceOnUse" x1="68.333" y1="-105.0305" x2="68.333" y2="-127.1858" gradientTransform="matrix(1 0 0 -1 0 3.4489)">
	<stop  offset="0.2849" style="stop-color:#606060"/>
	<stop  offset="0.5139" style="stop-color:#999999"/>
	<stop  offset="0.6613" style="stop-color:#ACACAC"/>
	<stop  offset="0.8464" style="stop-color:#6E6E6F;stop-opacity:0.9913"/>
	<stop  offset="1" style="stop-color:#606060"/>
</linearGradient>
<rect x="38.3" y="108.5" style="fill:url(#SVGID_00000111910419615059470710000005586934136964622253_);" width="60.1" height="22.2"/>
<linearGradient id="SVGID_00000015345551932293199110000005914405062956970671_" gradientUnits="userSpaceOnUse" x1="35.469" y1="-105.0482" x2="35.469" y2="-127.2034" gradientTransform="matrix(1 0 0 -1 0 3.4489)">
	<stop  offset="0.2849" style="stop-color:#4D4D4D"/>
	<stop  offset="0.6613" style="stop-color:#ACACAC"/>
	<stop  offset="0.8464" style="stop-color:#6E6E6F;stop-opacity:0.9913"/>
	<stop  offset="1" style="stop-color:#606060"/>
</linearGradient>
<path style="fill:url(#SVGID_00000015345551932293199110000005914405062956970671_);" d="M32.7,112.6c1.9-1.4,3.7-2.7,5.6-4v22.2
	c-1.9-1.4-3.7-2.7-5.6-4C32.7,121.9,32.7,117.2,32.7,112.6z"/>
<image style="overflow:visible;" width="200" height="200" xlink:href="../../pepsi.png"  transform="matrix(6.900446e-02 0 0 6.900446e-02 65.1671 32.0707)">
</image>
</svg>
