<?xml version="1.0" encoding="utf-8"?>
<!-- Generator: Adobe Illustrator 25.4.1, SVG Export Plug-In . SVG Version: 6.00 Build 0)  -->
<svg version="1.1" id="Слой_1" xmlns="http://www.w3.org/2000/svg" xmlns:xlink="http://www.w3.org/1999/xlink" x="0px" y="0px"
	 viewBox="0 0 100 160" style="enable-background:new 0 0 100 160;" xml:space="preserve">
<style type="text/css">
	.st0{clip-path:url(#SVGID_00000095339949561628770400000017124353683950290059_);}
	.st1{fill:url(#SVGID_00000122713775156042926510000009293476679922141883_);}
	.st2{fill:url(#SVGID_00000165954996444330065070000016525194017353813414_);}
	.st3{fill:url(#SVGID_00000018922256012160211610000009193160594346637229_);}
	.st4{fill:url(#SVGID_00000018929309856772214580000009671757041461533093_);}
	.st5{opacity:0.53;fill:url(#SVGID_00000130606301785393246780000002608404308007274420_);enable-background:new    ;}
	.st6{fill:url(#SVGID_00000102544096943258144470000016508217171987154586_);}
	.st7{fill:url(#SVGID_00000099638011146784801140000017246187835805420460_);}
	.st8{fill:url(#SVGID_00000004538460777760963330000006341581133915995801_);}
	.st9{fill:url(#SVGID_00000045581479771599469820000002354422981362184093_);}
	.st10{fill:url(#SVGID_00000054953002959920571860000006412632564033879940_);}
	.st11{fill:url(#SVGID_00000145758582052258355130000018178669963758036917_);}
	.st12{fill:url(#SVGID_00000051361587801158525790000012257127611257230258_);}
	.st13{fill:url(#SVGID_00000133520443397463992010000015989472208842714529_);}
	.st14{fill:url(#SVGID_00000127034876195196152880000014432242781719805354_);}
	.st15{fill:url(#SVGID_00000016766203670906134880000008504104620580131472_);}
	.st16{fill:url(#SVGID_00000122694123102093745230000005306467091367449222_);}
	.st17{fill:url(#SVGID_00000123426608818164736180000000025759132099663265_);}
	.st18{fill:url(#SVGID_00000144316820034129905380000013656853932196445886_);}
	.st19{fill:url(#SVGID_00000016041149054830083420000016990259986873727372_);}
	.st20{opacity:0.5;fill:url(#SVGID_00000076587059853799068090000003353679068318622352_);enable-background:new    ;}
	.st21{opacity:0.5;fill:url(#SVGID_00000000208325588297888730000010928530910801838482_);enable-background:new    ;}
	.st22{opacity:0.5;fill:url(#SVGID_00000016762620018459482850000018078581739891585430_);enable-background:new    ;}
	.st23{fill:url(#SVGID_00000123411244761226774380000004227074393977652404_);}
	.st24{fill:url(#SVGID_00000165225600153815185210000014295298551990738098_);}
	.st25{fill:#FFFFFF;}
	.st26{fill:#6B6B6B;}
	.st27{fill:url(#SVGID_00000149375368578615552090000003134405246394340243_);}
	.st28{fill:url(#SVGID_00000139286527858178207730000003600262271269009568_);}
	.st29{fill:url(#SVGID_00000182495026375625506680000008702395273040294017_);}
	.st30{fill:url(#SVGID_00000090287409367291720510000017800418529928399522_);}
	.st31{fill:url(#SVGID_00000080187503363172687020000010610750225431139725_);}
	.st32{fill:url(#SVGID_00000150091551333614916840000014745301879018822315_);}
	.st33{fill:url(#SVGID_00000002385125412053014650000007831775288225505418_);}
	.st34{fill:url(#SVGID_00000173852899346594938640000009059335110561004972_);}
	.st35{fill:url(#SVGID_00000132074768231305753930000010103788638681824692_);}
</style>
<g>
	<g>
		<defs>
			<path id="SVGID_1_" d="M99.1,107.6v-1.7h-3.2v1.7H46.4v-1.4l0,0c0-1.2,0-2.4,0-3.6l-1.7-2.9H32.9l-1.8,2.9v3.6v1.3h-2.3h-1.5
				h-1.5l-1.3-2l0,0c-0.4,0.7-0.7,1.3-1.1,2l-1.3-2c-0.4,0.7-0.7,1.3-1.1,2l-1.3-2c-0.4,0.7-0.7,1.3-1.1,2l-1.3-2
				c-0.4,0.7-0.7,1.3-1.1,2l-1.3-2c-0.4,0.7-0.7,1.3-1.1,2l-1.3-2c-0.4,0.7-0.7,1.3-1.1,2l0,0l-1.3-2l-1.2,2v0.1H3.1
				c0,0.3-0.1,0.5-0.1,0.8c-0.7,1-1.3,2-1.9,2.9v18.8c0.7,1,1.3,1.9,1.9,2.9c0,0.3,0.1,0.7,0.1,1c1.9,0,3.8,0,5.8,0h1.5l0,0l1.3,2
				l1.1-2.1c0.5,0.7,0.9,1.4,1.3,2.1l1.1-2.1c0.5,0.7,0.9,1.4,1.3,2.1l1.1-2.1c0.5,0.7,0.9,1.4,1.3,2.1l1.1-2.1
				c0.5,0.7,0.9,1.4,1.3,2.1l1.1-2.1c0.5,0.7,1.3,2.1,1.3,2.1l1.1-2.1l0,0l0,0l0,0c0.5,0.7,0.9,1.4,1.3,2.1l0,0l1.1-2.1h1.7h2.2
				c0,1.6,0,3.2,0,4.8l1.8,2.9l0,0h11.6l0,0l1.7-2.9V135v-1h49.5v1.7H99V134l0,0L99.1,107.6L99.1,107.6z"/>
		</defs>
		<clipPath id="SVGID_00000036963884147499520730000017887769968519655860_">
			<use xlink:href="#SVGID_1_"  style="overflow:visible;"/>
		</clipPath>
		<g style="clip-path:url(#SVGID_00000036963884147499520730000017887769968519655860_);">
			
				<image style="overflow:visible;enable-background:new    ;" width="1200" height="900" xlink:href="../../Фитинги/Резьбовые/Металл.jpg"  transform="matrix(0.1065 0 0 0.1065 -16.1609 91.8145)">
			</image>
		</g>
	</g>
</g>
<linearGradient id="SVGID_00000091715870140006562160000017767041493640377271_" gradientUnits="userSpaceOnUse" x1="28.7555" y1="109.3051" x2="28.7555" y2="135.8613" gradientTransform="matrix(1 0 0 -1 0 162)">
	<stop  offset="0" style="stop-color:#9F9D9D"/>
	<stop  offset="0.1816" style="stop-color:#808080"/>
	<stop  offset="0.2933" style="stop-color:#9F9D9D"/>
	<stop  offset="0.5447" style="stop-color:#CCCCCC"/>
	<stop  offset="0.6732" style="stop-color:#FFFFFF"/>
	<stop  offset="0.8687" style="stop-color:#E4E3E3"/>
	<stop  offset="1" style="stop-color:#B3B3B3"/>
</linearGradient>
<rect x="24.8" y="26.1" style="fill:url(#SVGID_00000091715870140006562160000017767041493640377271_);" width="7.9" height="26.6"/>
<linearGradient id="SVGID_00000037661150369482637240000002436888642706885030_" gradientUnits="userSpaceOnUse" x1="5657.2637" y1="109.1723" x2="5657.2637" y2="135.7285" gradientTransform="matrix(-1 0 0 -1 5664.0439 162)">
	<stop  offset="0" style="stop-color:#9F9D9D"/>
	<stop  offset="0.1816" style="stop-color:#808080"/>
	<stop  offset="0.2933" style="stop-color:#9F9D9D"/>
	<stop  offset="0.5447" style="stop-color:#CCCCCC"/>
	<stop  offset="0.6732" style="stop-color:#FFFFFF"/>
	<stop  offset="0.8687" style="stop-color:#E4E3E3"/>
	<stop  offset="1" style="stop-color:#B3B3B3"/>
</linearGradient>
<polygon style="fill:url(#SVGID_00000037661150369482637240000002436888642706885030_);" points="2.8,52.8 10.7,52.8 10.7,26.3 
	2.8,26.3 "/>
<linearGradient id="SVGID_00000103949188356235405040000008898274568493503361_" gradientUnits="userSpaceOnUse" x1="5591.4707" y1="109.1723" x2="5591.4707" y2="135.7285" gradientTransform="matrix(-1 0 0 -1 5664.0439 162)">
	<stop  offset="0" style="stop-color:#9F9D9D"/>
	<stop  offset="0.1816" style="stop-color:#808080"/>
	<stop  offset="0.2933" style="stop-color:#9F9D9D"/>
	<stop  offset="0.5447" style="stop-color:#CCCCCC"/>
	<stop  offset="0.6732" style="stop-color:#FFFFFF"/>
	<stop  offset="0.8687" style="stop-color:#E4E3E3"/>
	<stop  offset="1" style="stop-color:#B3B3B3"/>
</linearGradient>
<polygon style="fill:url(#SVGID_00000103949188356235405040000008898274568493503361_);" points="45.8,52.8 99.4,52.8 99.4,26.3 
	45.8,26.3 "/>
<linearGradient id="SVGID_00000018235111258935075080000011977748807086320038_" gradientUnits="userSpaceOnUse" x1="5662.1768" y1="113.2429" x2="5662.1768" y2="138.2721" gradientTransform="matrix(-1 0 0 -1 5664.0439 162)">
	<stop  offset="0" style="stop-color:#9F9D9D"/>
	<stop  offset="0.1816" style="stop-color:#808080"/>
	<stop  offset="0.2933" style="stop-color:#9F9D9D"/>
	<stop  offset="0.5447" style="stop-color:#CCCCCC"/>
	<stop  offset="0.6732" style="stop-color:#FFFFFF"/>
	<stop  offset="0.8687" style="stop-color:#E4E3E3"/>
	<stop  offset="1" style="stop-color:#B3B3B3"/>
</linearGradient>
<path style="fill:url(#SVGID_00000018235111258935075080000011977748807086320038_);" d="M0.8,48.9c0.7,1,1.3,2.1,2.1,3.1
	c0-8.4,0-16.7,0-25c-0.7,1-1.3,2.1-2.1,3.1C0.8,30,0.8,48.9,0.8,48.9z"/>
<linearGradient id="SVGID_00000015326454400801098320000005848480526201078965_" gradientUnits="userSpaceOnUse" x1="5661.4551" y1="122.55" x2="5663.4907" y2="122.55" gradientTransform="matrix(-1 0 0 -1 5664.0439 162)">
	<stop  offset="0" style="stop-color:#B3B3B3;stop-opacity:0.5"/>
	<stop  offset="1" style="stop-color:#B3B3B3;stop-opacity:0"/>
</linearGradient>
<path style="opacity:0.53;fill:url(#SVGID_00000015326454400801098320000005848480526201078965_);enable-background:new    ;" d="
	M0.8,48.9c0.7,1,1.3,2.1,2.1,3.1c0-8.4,0-16.7,0-25c-0.7,1-1.3,2.1-2.1,3.1C0.8,30,0.8,48.9,0.8,48.9z"/>
<linearGradient id="SVGID_00000056418981821177282660000000029212679919616897_" gradientUnits="userSpaceOnUse" x1="11.2616" y1="243.853" x2="11.2616" y2="213.1806" gradientTransform="matrix(1 0 0 -1 0 268)">
	<stop  offset="0" style="stop-color:#939598"/>
	<stop  offset="0.1927" style="stop-color:#6D6E71"/>
	<stop  offset="0.3045" style="stop-color:#808080"/>
	<stop  offset="0.6844" style="stop-color:#CCCCCC"/>
	<stop  offset="0.8966" style="stop-color:#808285"/>
	<stop  offset="1" style="stop-color:#B3B3B3"/>
</linearGradient>
<polygon style="fill:url(#SVGID_00000056418981821177282660000000029212679919616897_);" points="9.9,24.1 11.2,26.1 12.7,52.7 
	11.5,54.8 "/>
<linearGradient id="SVGID_00000168797242409586816100000003687847370446860701_" gradientUnits="userSpaceOnUse" x1="-6347.7295" y1="922.312" x2="-6347.7295" y2="951.2482" gradientTransform="matrix(-1 0 0 -1.06 -6337.6299 1028.5)">
	<stop  offset="0" style="stop-color:#B3B3B3"/>
	<stop  offset="0.1201" style="stop-color:#808285"/>
	<stop  offset="0.2877" style="stop-color:#939597"/>
	<stop  offset="0.4162" style="stop-color:#D1D3D4"/>
	<stop  offset="0.5168" style="stop-color:#A7A9AC"/>
	<stop  offset="0.662" style="stop-color:#F1F2F2"/>
	<stop  offset="0.8519" style="stop-color:#B3B3B3"/>
	<stop  offset="0.919" style="stop-color:#E6E7E8"/>
	<stop  offset="1" style="stop-color:#919396"/>
</linearGradient>
<polygon style="fill:url(#SVGID_00000168797242409586816100000003687847370446860701_);" points="9.9,24.1 11.5,54.8 10.2,52.8 
	8.7,26.1 "/>
<linearGradient id="SVGID_00000148637291480752955010000000467637563887062404_" gradientUnits="userSpaceOnUse" x1="13.6848" y1="243.853" x2="13.6848" y2="213.1806" gradientTransform="matrix(1 0 0 -1 0 268)">
	<stop  offset="0" style="stop-color:#939598"/>
	<stop  offset="0.1927" style="stop-color:#6D6E71"/>
	<stop  offset="0.3045" style="stop-color:#808080"/>
	<stop  offset="0.6844" style="stop-color:#CCCCCC"/>
	<stop  offset="0.8966" style="stop-color:#808285"/>
	<stop  offset="1" style="stop-color:#B3B3B3"/>
</linearGradient>
<polygon style="fill:url(#SVGID_00000148637291480752955010000000467637563887062404_);" points="12.3,24.1 13.7,26.1 15,52.7 
	14,54.8 "/>
<linearGradient id="SVGID_00000153706800063953312590000014128755106565236155_" gradientUnits="userSpaceOnUse" x1="-6350.2192" y1="922.312" x2="-6350.2192" y2="951.2482" gradientTransform="matrix(-1 0 0 -1.06 -6337.6299 1028.5)">
	<stop  offset="0" style="stop-color:#B3B3B3"/>
	<stop  offset="0.1201" style="stop-color:#808285"/>
	<stop  offset="0.2877" style="stop-color:#939597"/>
	<stop  offset="0.4162" style="stop-color:#D1D3D4"/>
	<stop  offset="0.5168" style="stop-color:#A7A9AC"/>
	<stop  offset="0.662" style="stop-color:#F1F2F2"/>
	<stop  offset="0.8519" style="stop-color:#B3B3B3"/>
	<stop  offset="0.919" style="stop-color:#E6E7E8"/>
	<stop  offset="1" style="stop-color:#919396"/>
</linearGradient>
<path style="fill:url(#SVGID_00000153706800063953312590000014128755106565236155_);" d="M12.3,24.1L14,54.8
	c-0.5-0.7-0.9-1.4-1.3-2.1c-0.5-8.8-0.9-17.7-1.5-26.6C11.6,25.5,11.9,24.8,12.3,24.1z"/>
<linearGradient id="SVGID_00000016055462819928995040000003361683353490455175_" gradientUnits="userSpaceOnUse" x1="16.1081" y1="243.853" x2="16.1081" y2="213.1806" gradientTransform="matrix(1 0 0 -1 0 268)">
	<stop  offset="0" style="stop-color:#939598"/>
	<stop  offset="0.1927" style="stop-color:#6D6E71"/>
	<stop  offset="0.3045" style="stop-color:#808080"/>
	<stop  offset="0.6844" style="stop-color:#CCCCCC"/>
	<stop  offset="0.8966" style="stop-color:#808285"/>
	<stop  offset="1" style="stop-color:#B3B3B3"/>
</linearGradient>
<polygon style="fill:url(#SVGID_00000016055462819928995040000003361683353490455175_);" points="14.7,24.1 16,26.1 17.5,52.7 
	16.4,54.8 "/>
<linearGradient id="SVGID_00000170965491524201700400000004654831964838781073_" gradientUnits="userSpaceOnUse" x1="-6352.6094" y1="922.312" x2="-6352.6094" y2="951.2482" gradientTransform="matrix(-1 0 0 -1.06 -6337.6299 1028.5)">
	<stop  offset="0" style="stop-color:#B3B3B3"/>
	<stop  offset="0.1201" style="stop-color:#808285"/>
	<stop  offset="0.2877" style="stop-color:#939597"/>
	<stop  offset="0.4162" style="stop-color:#D1D3D4"/>
	<stop  offset="0.5168" style="stop-color:#A7A9AC"/>
	<stop  offset="0.662" style="stop-color:#F1F2F2"/>
	<stop  offset="0.8519" style="stop-color:#B3B3B3"/>
	<stop  offset="0.919" style="stop-color:#E6E7E8"/>
	<stop  offset="1" style="stop-color:#919396"/>
</linearGradient>
<path style="fill:url(#SVGID_00000170965491524201700400000004654831964838781073_);" d="M14.7,24.1l1.7,30.7
	c-0.5-0.7-0.9-1.4-1.3-2.1c-0.5-8.8-0.9-17.7-1.5-26.6C14,25.5,14.4,24.8,14.7,24.1z"/>
<linearGradient id="SVGID_00000134972065357353834350000013981409254314259600_" gradientUnits="userSpaceOnUse" x1="18.5645" y1="243.853" x2="18.5645" y2="213.1806" gradientTransform="matrix(1 0 0 -1 0 268)">
	<stop  offset="0" style="stop-color:#939598"/>
	<stop  offset="0.1927" style="stop-color:#6D6E71"/>
	<stop  offset="0.3045" style="stop-color:#808080"/>
	<stop  offset="0.6844" style="stop-color:#CCCCCC"/>
	<stop  offset="0.8966" style="stop-color:#808285"/>
	<stop  offset="1" style="stop-color:#B3B3B3"/>
</linearGradient>
<polygon style="fill:url(#SVGID_00000134972065357353834350000013981409254314259600_);" points="17.2,24.1 18.5,26.1 20,52.7 
	18.8,54.8 "/>
<linearGradient id="SVGID_00000054266674090008872380000007663217439657558658_" gradientUnits="userSpaceOnUse" x1="-6355.0659" y1="922.312" x2="-6355.0659" y2="951.2482" gradientTransform="matrix(-1 0 0 -1.06 -6337.6299 1028.5)">
	<stop  offset="0" style="stop-color:#B3B3B3"/>
	<stop  offset="0.1201" style="stop-color:#808285"/>
	<stop  offset="0.2877" style="stop-color:#939597"/>
	<stop  offset="0.4162" style="stop-color:#D1D3D4"/>
	<stop  offset="0.5168" style="stop-color:#A7A9AC"/>
	<stop  offset="0.662" style="stop-color:#F1F2F2"/>
	<stop  offset="0.8519" style="stop-color:#B3B3B3"/>
	<stop  offset="0.919" style="stop-color:#E6E7E8"/>
	<stop  offset="1" style="stop-color:#919396"/>
</linearGradient>
<path style="fill:url(#SVGID_00000054266674090008872380000007663217439657558658_);" d="M17.2,24.1l1.7,30.7
	c-0.5-0.7-0.9-1.4-1.3-2.1C17,43.9,16.6,35,16,26.1C16.4,25.5,16.8,24.8,17.2,24.1z"/>
<linearGradient id="SVGID_00000013154277789028053950000007132354495063903628_" gradientUnits="userSpaceOnUse" x1="20.9878" y1="243.853" x2="20.9878" y2="213.1806" gradientTransform="matrix(1 0 0 -1 0 268)">
	<stop  offset="0" style="stop-color:#939598"/>
	<stop  offset="0.1927" style="stop-color:#6D6E71"/>
	<stop  offset="0.3045" style="stop-color:#808080"/>
	<stop  offset="0.6844" style="stop-color:#CCCCCC"/>
	<stop  offset="0.8966" style="stop-color:#808285"/>
	<stop  offset="1" style="stop-color:#B3B3B3"/>
</linearGradient>
<polygon style="fill:url(#SVGID_00000013154277789028053950000007132354495063903628_);" points="19.6,24.1 21,26.1 22.3,52.7 
	21.3,54.8 "/>
<linearGradient id="SVGID_00000095328772031351119390000011169621787702922402_" gradientUnits="userSpaceOnUse" x1="-6357.5225" y1="922.312" x2="-6357.5225" y2="951.2482" gradientTransform="matrix(-1 0 0 -1.06 -6337.6299 1028.5)">
	<stop  offset="0" style="stop-color:#B3B3B3"/>
	<stop  offset="0.1201" style="stop-color:#808285"/>
	<stop  offset="0.2877" style="stop-color:#939597"/>
	<stop  offset="0.4162" style="stop-color:#D1D3D4"/>
	<stop  offset="0.5168" style="stop-color:#A7A9AC"/>
	<stop  offset="0.662" style="stop-color:#F1F2F2"/>
	<stop  offset="0.8519" style="stop-color:#B3B3B3"/>
	<stop  offset="0.919" style="stop-color:#E6E7E8"/>
	<stop  offset="1" style="stop-color:#919396"/>
</linearGradient>
<path style="fill:url(#SVGID_00000095328772031351119390000011169621787702922402_);" d="M19.6,24.1l1.7,30.7
	c-0.5-0.7-0.9-1.4-1.3-2.1C19.5,43.9,19,35,18.5,26.1C18.8,25.5,19.2,24.8,19.6,24.1z"/>
<linearGradient id="SVGID_00000157288941298982048660000009404060111407522954_" gradientUnits="userSpaceOnUse" x1="23.411" y1="243.853" x2="23.411" y2="213.1806" gradientTransform="matrix(1 0 0 -1 0 268)">
	<stop  offset="0" style="stop-color:#939598"/>
	<stop  offset="0.1927" style="stop-color:#6D6E71"/>
	<stop  offset="0.3045" style="stop-color:#808080"/>
	<stop  offset="0.6844" style="stop-color:#CCCCCC"/>
	<stop  offset="0.8966" style="stop-color:#808285"/>
	<stop  offset="1" style="stop-color:#B3B3B3"/>
</linearGradient>
<polygon style="fill:url(#SVGID_00000157288941298982048660000009404060111407522954_);" points="22,24.1 23.3,26.1 24.8,52.7 
	23.7,54.8 "/>
<linearGradient id="SVGID_00000152247452236724780490000013196954855256795524_" gradientUnits="userSpaceOnUse" x1="-6359.9121" y1="922.312" x2="-6359.9121" y2="951.2482" gradientTransform="matrix(-1 0 0 -1.06 -6337.6299 1028.5)">
	<stop  offset="0" style="stop-color:#B3B3B3"/>
	<stop  offset="0.1201" style="stop-color:#808285"/>
	<stop  offset="0.2877" style="stop-color:#939597"/>
	<stop  offset="0.4162" style="stop-color:#D1D3D4"/>
	<stop  offset="0.5168" style="stop-color:#A7A9AC"/>
	<stop  offset="0.662" style="stop-color:#F1F2F2"/>
	<stop  offset="0.8519" style="stop-color:#B3B3B3"/>
	<stop  offset="0.919" style="stop-color:#E6E7E8"/>
	<stop  offset="1" style="stop-color:#919396"/>
</linearGradient>
<path style="fill:url(#SVGID_00000152247452236724780490000013196954855256795524_);" d="M22,24.1l1.7,30.7
	c-0.5-0.7-0.9-1.4-1.3-2.1c-0.5-8.8-0.9-17.7-1.5-26.6C21.3,25.5,21.7,24.8,22,24.1z"/>
<linearGradient id="SVGID_00000156562945803719276950000016428701640685181072_" gradientUnits="userSpaceOnUse" x1="25.8343" y1="243.853" x2="25.8343" y2="213.1806" gradientTransform="matrix(1 0 0 -1 0 268)">
	<stop  offset="0" style="stop-color:#939598"/>
	<stop  offset="0.1927" style="stop-color:#6D6E71"/>
	<stop  offset="0.3045" style="stop-color:#808080"/>
	<stop  offset="0.6844" style="stop-color:#CCCCCC"/>
	<stop  offset="0.8966" style="stop-color:#808285"/>
	<stop  offset="1" style="stop-color:#B3B3B3"/>
</linearGradient>
<polygon style="fill:url(#SVGID_00000156562945803719276950000016428701640685181072_);" points="24.5,24.1 25.8,26.1 27.2,52.7 
	26.1,54.8 "/>
<linearGradient id="SVGID_00000056401553951037091440000002950163549415842748_" gradientUnits="userSpaceOnUse" x1="-6362.3687" y1="922.312" x2="-6362.3687" y2="951.2482" gradientTransform="matrix(-1 0 0 -1.06 -6337.6299 1028.5)">
	<stop  offset="0" style="stop-color:#B3B3B3"/>
	<stop  offset="0.1201" style="stop-color:#808285"/>
	<stop  offset="0.2877" style="stop-color:#939597"/>
	<stop  offset="0.4162" style="stop-color:#D1D3D4"/>
	<stop  offset="0.5168" style="stop-color:#A7A9AC"/>
	<stop  offset="0.662" style="stop-color:#F1F2F2"/>
	<stop  offset="0.8519" style="stop-color:#B3B3B3"/>
	<stop  offset="0.919" style="stop-color:#E6E7E8"/>
	<stop  offset="1" style="stop-color:#919396"/>
</linearGradient>
<path style="fill:url(#SVGID_00000056401553951037091440000002950163549415842748_);" d="M24.5,24.1l1.7,30.7
	c-0.5-0.7-0.9-1.4-1.3-2.1c-0.5-8.8-0.9-17.7-1.5-26.6C23.7,25.5,24.1,24.8,24.5,24.1z"/>
<linearGradient id="SVGID_00000138558732434883790840000013913702243411776703_" gradientUnits="userSpaceOnUse" x1="-729.4843" y1="-1286.5577" x2="-718.9679" y2="-1286.5577" gradientTransform="matrix(-1 0 0 1 -690.1875 1325.9745)">
	<stop  offset="0" style="stop-color:#3F3B3C"/>
	<stop  offset="1" style="stop-color:#3F3B3C;stop-opacity:0"/>
</linearGradient>
<polygon style="opacity:0.5;fill:url(#SVGID_00000138558732434883790840000013913702243411776703_);enable-background:new    ;" points="
	28.9,52.7 39.5,52.7 39.5,26.1 28.7,26.1 "/>
<linearGradient id="SVGID_00000031186203495887514550000010503395502205221785_" gradientUnits="userSpaceOnUse" x1="-789.4348" y1="-1286.4913" x2="-784.1447" y2="-1286.4913" gradientTransform="matrix(-1 0 0 1 -690.1875 1325.9745)">
	<stop  offset="0" style="stop-color:#3F3B3C"/>
	<stop  offset="6.046671e-02" style="stop-color:#3F3B3C;stop-opacity:0.9395"/>
	<stop  offset="1" style="stop-color:#3F3B3C;stop-opacity:0"/>
</linearGradient>
<polygon style="opacity:0.5;fill:url(#SVGID_00000031186203495887514550000010503395502205221785_);enable-background:new    ;" points="
	94,52.7 99.4,52.7 99.4,26.3 93.9,26.3 "/>
<linearGradient id="SVGID_00000164506090445486664600000001795894357805885363_" gradientUnits="userSpaceOnUse" x1="-582.8951" y1="-1734.2756" x2="-572.3787" y2="-1734.2756" gradientTransform="matrix(1 0 0 -1 621.8122 -1694.7261)">
	<stop  offset="0" style="stop-color:#3F3B3C"/>
	<stop  offset="1" style="stop-color:#3F3B3C;stop-opacity:0"/>
</linearGradient>
<polygon style="opacity:0.5;fill:url(#SVGID_00000164506090445486664600000001795894357805885363_);enable-background:new    ;" points="
	49.4,26.3 38.7,26.3 38.7,52.8 49.5,52.8 "/>
<linearGradient id="SVGID_00000180345393199733036120000000439811573691479943_" gradientUnits="userSpaceOnUse" x1="26.4982" y1="109.3051" x2="26.4982" y2="135.8613" gradientTransform="matrix(1 0 0 -1 0 162)">
	<stop  offset="0" style="stop-color:#B3B3B3"/>
	<stop  offset="0.1201" style="stop-color:#808285"/>
	<stop  offset="0.2877" style="stop-color:#939597"/>
	<stop  offset="0.4162" style="stop-color:#D1D3D4"/>
	<stop  offset="0.5168" style="stop-color:#A7A9AC"/>
	<stop  offset="0.662" style="stop-color:#F1F2F2"/>
	<stop  offset="0.8519" style="stop-color:#B3B3B3"/>
	<stop  offset="0.919" style="stop-color:#E6E7E8"/>
	<stop  offset="1" style="stop-color:#919396"/>
</linearGradient>
<polygon style="fill:url(#SVGID_00000180345393199733036120000000439811573691479943_);" points="25.8,26.1 27.2,26.1 27.2,52.7 "/>
<linearGradient id="SVGID_00000093147262116521357740000010226691935006906276_" gradientUnits="userSpaceOnUse" x1="9.4359" y1="135.8613" x2="9.4359" y2="109.1723" gradientTransform="matrix(1 0 0 -1 0 162)">
	<stop  offset="0" style="stop-color:#939598"/>
	<stop  offset="0.1927" style="stop-color:#6D6E71"/>
	<stop  offset="0.3045" style="stop-color:#808080"/>
	<stop  offset="0.6844" style="stop-color:#CCCCCC"/>
	<stop  offset="0.8966" style="stop-color:#808285"/>
	<stop  offset="1" style="stop-color:#B3B3B3"/>
</linearGradient>
<polygon style="fill:url(#SVGID_00000093147262116521357740000010226691935006906276_);" points="8.7,26.1 8.7,52.8 10.2,52.8 "/>
<g>
	<rect x="45.2" y="24.9" class="st25" width="1.3" height="10"/>
	<rect x="45.2" y="43.9" class="st26" width="1.3" height="10"/>
	<rect x="31" y="43.9" class="st26" width="1.3" height="10"/>
	<rect x="31" y="24.9" class="st25" width="1.3" height="10"/>
	
		<linearGradient id="SVGID_00000034060585673735111990000005310216936818559132_" gradientUnits="userSpaceOnUse" x1="38.7472" y1="-432.894" x2="38.7472" y2="-443.8439" gradientTransform="matrix(1 0 0 -1 0 -383.3858)">
		<stop  offset="6.983240e-02" style="stop-color:#58595B"/>
		<stop  offset="0.3715" style="stop-color:#808285"/>
		<stop  offset="0.4888" style="stop-color:#6D6E71"/>
		<stop  offset="0.6397" style="stop-color:#838587"/>
		<stop  offset="0.824" style="stop-color:#BCBEC0"/>
		<stop  offset="1" style="stop-color:#BAB9B9"/>
	</linearGradient>
	<path style="fill:url(#SVGID_00000034060585673735111990000005310216936818559132_);" d="M32,49.5l-0.9,3.1v5l1.8,2.9h11.8l1.7-2.9
		v-5c-0.3-1-0.6-2-0.9-3.1C41,49.5,36.6,49.5,32,49.5z"/>
	
		<linearGradient id="SVGID_00000060031899836022462080000015452603880529372557_" gradientUnits="userSpaceOnUse" x1="38.7804" y1="3257.5657" x2="38.7804" y2="3246.6111" gradientTransform="matrix(1 0 0 1 0 -3228.1885)">
		<stop  offset="0" style="stop-color:#F2F2F2"/>
		<stop  offset="1" style="stop-color:#CCCCCC"/>
	</linearGradient>
	<path style="fill:url(#SVGID_00000060031899836022462080000015452603880529372557_);" d="M32,29.3l-0.9-3.1v-5l1.8-2.9h11.8
		l1.7,2.9c0,1.7,0,3.3,0.1,5c-0.1,0.5-0.3,1.1-0.5,1.5c-0.1,0.5-0.3,1-0.4,1.5C41,29.3,36.6,29.3,32,29.3z"/>
	
		<linearGradient id="SVGID_00000074422579906665372260000008461019906350501049_" gradientUnits="userSpaceOnUse" x1="38.7472" y1="-432.894" x2="38.7472" y2="-412.7604" gradientTransform="matrix(1 0 0 -1 0 -383.3858)">
		<stop  offset="0" style="stop-color:#E6E6E6"/>
		<stop  offset="0.263" style="stop-color:#E1E1E1"/>
		<stop  offset="0.5724" style="stop-color:#D3D3D3"/>
		<stop  offset="0.904" style="stop-color:#BBBBBB"/>
		<stop  offset="1" style="stop-color:#B3B3B3"/>
	</linearGradient>
	<path style="fill:url(#SVGID_00000074422579906665372260000008461019906350501049_);" d="M45.5,49.5c0.3-1.8,0.6-3.6,0.9-5.4
		c0-3.1,0-6.2,0-9.4C46.2,33.9,46.1,33,46,32s-0.3-1.8-0.5-2.7c-4.5,0-9,0-13.5,0c-0.3,1.7-0.7,3.6-0.9,5.4c0,3.1,0,6.2,0,9.4
		l0.9,5.4L45.5,49.5L45.5,49.5z"/>
	
		<linearGradient id="SVGID_00000167388141434673867550000008778282457244722601_" gradientUnits="userSpaceOnUse" x1="38.7472" y1="507.4496" x2="38.7472" y2="518.48" gradientTransform="matrix(1 0 0 1 0 -458)">
		<stop  offset="0" style="stop-color:#808080"/>
		<stop  offset="1" style="stop-color:#ABABAB"/>
	</linearGradient>
	<path style="fill:url(#SVGID_00000167388141434673867550000008778282457244722601_);" d="M32,49.4c-0.3,1-0.7,2.1-1,3.1
		c0,1.7,0,3.4,0,5c0.6,1,1.2,1.9,1.8,2.9h12l1.7-2.9v-5.1c-0.3-1-0.6-2-0.9-3.1c-2.3,0-4.5,0-6.8,0.1S34.3,49.4,32,49.4z"/>
</g>
<linearGradient id="SVGID_00000114757587080107934030000005432039947280480951_" gradientUnits="userSpaceOnUse" x1="18.4774" y1="-110.102" x2="18.4774" y2="-124.3952" gradientTransform="matrix(1 0 0 -1 0 3.4489)">
	<stop  offset="0.2849" style="stop-color:#606060"/>
	<stop  offset="0.5139" style="stop-color:#999999"/>
	<stop  offset="0.6613" style="stop-color:#ACACAC"/>
	<stop  offset="0.8464" style="stop-color:#6E6E6F;stop-opacity:0.9913"/>
	<stop  offset="1" style="stop-color:#606060"/>
</linearGradient>
<rect x="4.6" y="113.6" style="fill:url(#SVGID_00000114757587080107934030000005432039947280480951_);" width="27.8" height="14.3"/>
<linearGradient id="SVGID_00000023981732790088168620000017266337988366753718_" gradientUnits="userSpaceOnUse" x1="2.7242" y1="-108.2973" x2="2.7242" y2="-126.1972" gradientTransform="matrix(1 0 0 -1 0 3.4489)">
	<stop  offset="0.2849" style="stop-color:#4D4D4D"/>
	<stop  offset="0.6613" style="stop-color:#ACACAC"/>
	<stop  offset="0.8464" style="stop-color:#6E6E6F;stop-opacity:0.9913"/>
	<stop  offset="1" style="stop-color:#606060"/>
</linearGradient>
<path style="fill:url(#SVGID_00000023981732790088168620000017266337988366753718_);" d="M0.9,111.7c1.3,0.6,2.4,1.2,3.7,1.8
	c0,4.8,0,9.6,0,14.3c-1.3,0.6-2.4,1.2-3.7,1.8C0.9,129.6,0.9,111.7,0.9,111.7z"/>
<linearGradient id="SVGID_00000148630876581974932000000008287949065754154643_" gradientUnits="userSpaceOnUse" x1="68.6435" y1="-105.9563" x2="68.6435" y2="-128.4878" gradientTransform="matrix(1 0 0 -1 0 3.4489)">
	<stop  offset="0.2849" style="stop-color:#606060"/>
	<stop  offset="0.5139" style="stop-color:#999999"/>
	<stop  offset="0.6613" style="stop-color:#ACACAC"/>
	<stop  offset="0.8464" style="stop-color:#6E6E6F;stop-opacity:0.9913"/>
	<stop  offset="1" style="stop-color:#606060"/>
</linearGradient>
<rect x="38.1" y="109.4" style="fill:url(#SVGID_00000148630876581974932000000008287949065754154643_);" width="61.2" height="22.6"/>
<linearGradient id="SVGID_00000060728890987836748820000017871679412322847928_" gradientUnits="userSpaceOnUse" x1="35.2215" y1="-105.9742" x2="35.2215" y2="-128.5057" gradientTransform="matrix(1 0 0 -1 0 3.4489)">
	<stop  offset="0.2849" style="stop-color:#4D4D4D"/>
	<stop  offset="0.6613" style="stop-color:#ACACAC"/>
	<stop  offset="0.8464" style="stop-color:#6E6E6F;stop-opacity:0.9913"/>
	<stop  offset="1" style="stop-color:#606060"/>
</linearGradient>
<path style="fill:url(#SVGID_00000060728890987836748820000017871679412322847928_);" d="M32.4,113.6c1.9-1.4,3.8-2.8,5.7-4.1v22.6
	c-1.9-1.4-3.8-2.8-5.7-4.1C32.4,123.1,32.4,118.3,32.4,113.6z"/>
<linearGradient id="SVGID_00000044892540002859380820000010441179136424914823_" gradientUnits="userSpaceOnUse" x1="5566.3086" y1="107.4766" x2="5566.3086" y2="137.4433" gradientTransform="matrix(-1 0 0 -1 5664.0439 162)">
	<stop  offset="0" style="stop-color:#9F9D9D"/>
	<stop  offset="0.1816" style="stop-color:#808080"/>
	<stop  offset="0.2933" style="stop-color:#9F9D9D"/>
	<stop  offset="0.5447" style="stop-color:#CCCCCC"/>
	<stop  offset="0.6732" style="stop-color:#FFFFFF"/>
	<stop  offset="0.8687" style="stop-color:#E4E3E3"/>
	<stop  offset="1" style="stop-color:#B3B3B3"/>
</linearGradient>
<polygon style="fill:url(#SVGID_00000044892540002859380820000010441179136424914823_);" points="96.1,54.6 99.4,54.6 99.4,24.5 
	96.1,24.5 "/>
<image style="overflow:visible;" width="200" height="200" xlink:href="../../pepsi.png"  transform="matrix(6.053532e-02 0 0 6.053532e-02 64.7935 33.4961)">
</image>
</svg>
