<?xml version="1.0" encoding="utf-8"?>
<!-- Generator: Adobe Illustrator 25.4.1, SVG Export Plug-In . SVG Version: 6.00 Build 0)  -->
<svg version="1.1" id="Слой_1" xmlns="http://www.w3.org/2000/svg" xmlns:xlink="http://www.w3.org/1999/xlink" x="0px" y="0px"
	 viewBox="0 0 100 160" style="enable-background:new 0 0 100 160;" xml:space="preserve">
<style type="text/css">
	.st0{clip-path:url(#SVGID_00000142140721326588734060000014093311313453150383_);}
	.st1{fill:url(#SVGID_00000147915139526062764350000003853759688119974846_);}
	.st2{fill:url(#SVGID_00000137132608946886796420000000915476932286585528_);}
	.st3{fill:url(#SVGID_00000181784842984310397600000004238327653302852023_);}
	.st4{fill:url(#SVGID_00000121985065387285634120000016651318565042583738_);}
	.st5{fill:url(#SVGID_00000015318577579515372700000012298698036284873619_);}
	.st6{fill:url(#SVGID_00000080172306155430584260000014249922561395431608_);}
	.st7{fill:url(#SVGID_00000161620453140086312810000009779377360930890677_);}
	.st8{fill:url(#SVGID_00000004547928160125674660000015623419003502367885_);}
	.st9{fill:url(#SVGID_00000159454210942456122400000010733151604797511864_);}
	.st10{fill:url(#SVGID_00000169542620765860488430000018044391977129450684_);}
	.st11{fill:url(#SVGID_00000134218407133650938080000009263287343856385425_);}
	.st12{fill:url(#SVGID_00000168112000953506236620000012007670298774460298_);}
	.st13{opacity:0.5;fill:url(#SVGID_00000066513061973094925880000017618580861991677349_);enable-background:new    ;}
	.st14{opacity:0.5;fill:url(#SVGID_00000103261373307942663930000016843233605470759857_);enable-background:new    ;}
	.st15{fill:url(#SVGID_00000001646423773858999320000003872982636778354349_);}
	.st16{fill:url(#SVGID_00000046299844141866336580000007916756853439769732_);}
	.st17{fill:url(#SVGID_00000015316548305101490420000009635023628814168225_);}
	.st18{fill:url(#SVGID_00000157268215361751906490000002042471651226228394_);}
	.st19{fill:url(#SVGID_00000121963010170509389190000004992411076205275274_);}
	.st20{fill:#FFFFFF;}
	.st21{fill:#6B6B6B;}
	.st22{fill:url(#SVGID_00000179647154168925518500000008941521407083397302_);}
	.st23{fill:url(#SVGID_00000063601234275305094320000009407056292289628805_);}
	.st24{fill:url(#SVGID_00000150785361533953374700000005568143853723358364_);}
	.st25{fill:url(#SVGID_00000114054027905498840670000006882959879748974746_);}
	.st26{opacity:0.5;fill:url(#SVGID_00000018220871315358927010000004298754871279478201_);enable-background:new    ;}
	.st27{fill:url(#SVGID_00000119817797328110514870000002376007277771897994_);}
	.st28{fill:url(#SVGID_00000160174549314681758090000014819269976653460619_);}
	.st29{fill:url(#SVGID_00000160184161299765505620000015758428687267022744_);}
	.st30{fill:url(#SVGID_00000003074025015580014990000017812347377674149008_);}
	.st31{fill:url(#SVGID_00000023999666610705719220000014773110093720247969_);}
	.st32{fill:url(#SVGID_00000178172758488860665580000001626169271610434236_);}
	.st33{fill:url(#SVGID_00000008855349403760790850000012979769188957485708_);}
	.st34{fill:url(#SVGID_00000058573457746991306780000013586231398118380974_);}
	.st35{fill:url(#SVGID_00000113315892555269637780000005001268979716041123_);}
	.st36{fill:url(#SVGID_00000160176566975514309270000013903142756864947384_);}
	.st37{fill:url(#SVGID_00000148654485337241253880000008215856765644224165_);}
	.st38{fill:url(#SVGID_00000178910723208025605570000016017248535488037293_);}
	.st39{fill:url(#SVGID_00000023281124303702994660000001333216351294275235_);}
	.st40{fill:url(#SVGID_00000103959330744964789620000015213239609638833809_);}
	.st41{fill:url(#SVGID_00000055694598507088794800000000759657818686789792_);}
	.st42{fill:url(#SVGID_00000122709826452803848610000016771126506388021635_);}
	.st43{fill:url(#SVGID_00000170275754270769141140000010708865469671128489_);}
	.st44{fill:url(#SVGID_00000172416163660743482290000004820377400491134633_);}
	.st45{fill:url(#SVGID_00000140702534964808943940000004001117126663887542_);}
	.st46{fill:url(#SVGID_00000086686926072741809900000001016155052014989982_);}
	.st47{opacity:0.53;fill:url(#SVGID_00000052079584693211973000000010898633603320108209_);enable-background:new    ;}
	.st48{fill:url(#SVGID_00000087381528879194887890000016959801808514641049_);}
	.st49{opacity:0.49;fill:url(#SVGID_00000163033204645848367840000005451904326777060532_);enable-background:new    ;}
	.st50{fill:url(#SVGID_00000147191999570522614470000013755876126343965321_);}
	.st51{fill:url(#SVGID_00000140718323544596617670000005191837365697895042_);}
</style>
<circle cx="66.5" cy="143.1" r="1.6"/>
<g>
	<defs>
		<path id="SVGID_00000056392321669995746500000002138610664461057202_" d="M95.8,99.4l-2.1-3.2c-0.6,1-1.1,2.1-1.8,3.1l-2.1-3.1
			c-0.7,1-1.2,2.2-1.8,3.2L86,96.2c-0.6,1-1.1,2.1-1.8,3.1l-2.2-3.1c-0.3,0.5-0.6,1-0.8,1.6c-0.3,0.5-0.6,1-0.9,1.6l-2.1-3.1
			c-0.6,1-1.2,2.2-1.8,3.2l-2.1-3.2c-0.6,1-1.1,2.1-1.8,3.1l-2.1-3.1l-2,3.2v0.2h-3.8c0-1.6,0-3.2,0-4.8l-2.3-4.1H45.4l-2.5,4.1v5
			v1.8h-4c-0.5-0.1-0.9-0.1-1.4-0.1v-0.1l-1.9-2.9c-0.5,1-1.1,2-1.6,2.9c0,0.1,0,0.1,0,0.1c0,0,0,0,0-0.1c-0.7-1-1.3-2-1.9-2.9
			c-0.5,1-1,1.9-1.6,2.9l-1.8-2.9c-0.5,1-1.6,2.9-1.6,2.9l-1.8-2.9c-0.6,1-1.6,2.9-1.6,2.9s-1.3-2-1.9-2.9c-0.5,1-1,1.9-1.6,2.9
			l-1.8-2.9c-0.5,1-1.1,2-1.6,2.9v0.1l-1.9-2.9l-1.7,2.9v0.2H9.1v0.7h-2H4.8v0.5c-0.9,1.4-1.9,2.9-2.9,4.4v27.5
			c0.9,1.4,1.9,2.9,2.9,4.4v0.4H7h1.8v0.7H13c0.8,0.1,1.4,0.1,2.2,0.2c0-0.1,0-0.1,0-0.2v0.1l1.8,2.9l1.6-3.1c0.7,1,1.3,2.1,1.9,3.1
			l1.6-3.1c0.7,1,1.2,2,1.9,3.1l1.6-3.1c0.7,1,1.3,2.1,1.9,3.1l1.6-3.1c0.7,1,1.2,2,1.9,3.1l1.6-3.1c0.7,1,1.8,2.7,1.8,2.7
			s1.1-1.8,1.6-2.8l0.1,0.1c0.7,1,1.2,2,1.9,3.1l1.6-3.1v0.1v-0.1h3.3v0.8v5.3v0.1l2.5,4.1h17.1l0.1-0.1l2.3-4.1v-4.6h0.3h3.4
			c0.8,0.1,1.6,0.1,2.5,0.2l2.1,3.2l1.8-3.3c0.7,1,1.3,2,2,3c0.1,0.1,0.1,0.2,0.2,0.3c0.2-0.4,0.4-0.8,0.6-1.2
			c0.4-0.7,0.7-1.4,1-2.1c0.7,1.1,1.4,2.3,2.1,3.4l1.8-3.3c0.7,1.1,2.2,3.3,2.2,3.3l1.7-3.4c0.7,1.1,1.4,2.3,2.1,3.4l1.8-3.4
			c0.7,1.1,1.4,2.3,2.1,3.4l1.7-3.4c0.7,1.1,1.4,2.3,2.1,3.4l1.8-3.4c0-14,0-28,0-41.9C97.3,99.6,96.6,99.5,95.8,99.4z"/>
	</defs>
	<defs>
		<path id="SVGID_1_" d="M95.8,99.4l-2.1-3.2c-0.6,1-1.1,2.1-1.8,3.1l-2.1-3.1c-0.7,1-1.2,2.2-1.8,3.2L86,96.2
			c-0.6,1-1.1,2.1-1.8,3.1l-2.2-3.1c-0.3,0.5-0.6,1-0.8,1.6c-0.3,0.5-0.6,1-0.9,1.6l-2.1-3.1c-0.6,1-1.2,2.2-1.8,3.2l-2.1-3.2
			c-0.6,1-1.1,2.1-1.8,3.1l-2.1-3.1l-2,3.2v0.2h-3.8c0-1.6,0-3.2,0-4.8l-2.3-4.1H45.4l-2.5,4.1v5v1.8h-4c-0.5-0.1-0.9-0.1-1.4-0.1
			v-0.1l-1.9-2.9c-0.5,1-1.1,2-1.6,2.9c0,0.1,0,0.1,0,0.1c0,0,0,0,0-0.1c-0.7-1-1.3-2-1.9-2.9c-0.5,1-1,1.9-1.6,2.9l-1.8-2.9
			c-0.5,1-1.6,2.9-1.6,2.9l-1.8-2.9c-0.6,1-1.6,2.9-1.6,2.9s-1.3-2-1.9-2.9c-0.5,1-1,1.9-1.6,2.9l-1.8-2.9c-0.5,1-1.1,2-1.6,2.9v0.1
			l-1.9-2.9l-1.7,2.9v0.2H9.1v0.7h-2H4.8v0.5c-0.9,1.4-1.9,2.9-2.9,4.4v27.5c0.9,1.4,1.9,2.9,2.9,4.4v0.4H7h1.8v0.7H13
			c0.8,0.1,1.4,0.1,2.2,0.2c0-0.1,0-0.1,0-0.2l0,0v0.1l1.8,2.9l1.6-3.1c0.7,1,1.3,2.1,1.9,3.1l1.6-3.1c0.7,1,1.2,2,1.9,3.1l1.6-3.1
			c0.7,1,1.3,2.1,1.9,3.1l1.6-3.1c0.7,1,1.2,2,1.9,3.1l1.6-3.1c0.7,1,1.8,2.7,1.8,2.7s1.1-1.8,1.6-2.8l0.1,0.1c0.7,1,1.2,2,1.9,3.1
			l1.6-3.1l0,0v0.1v-0.1h3.3v0.8v5.3v0.1l2.5,4.1h17.1l0.1-0.1l0,0l2.3-4.1v-4.6h0.3h3.4c0.8,0.1,1.6,0.1,2.5,0.2l2.1,3.2l1.8-3.3
			c0.7,1.1,2.2,3.3,2.2,3.3s1.2-2.3,1.7-3.4c0.7,1.1,1.4,2.3,2.1,3.4l1.8-3.3c0.7,1.1,2.2,3.3,2.2,3.3l1.7-3.4
			c0.7,1.1,1.4,2.3,2.1,3.4l1.8-3.4c0.7,1.1,1.4,2.3,2.1,3.4l1.7-3.4c0.7,1.1,1.4,2.3,2.1,3.4l1.8-3.4c0-14,0-28,0-41.9
			C97.3,99.6,96.6,99.5,95.8,99.4z"/>
	</defs>
	<clipPath id="SVGID_00000009580646110741435190000003874146418697756342_">
		<use xlink:href="#SVGID_00000056392321669995746500000002138610664461057202_"  style="overflow:visible;"/>
	</clipPath>
	
		<clipPath id="SVGID_00000065050267530829736840000005470748196122607511_" style="clip-path:url(#SVGID_00000009580646110741435190000003874146418697756342_);">
		<use xlink:href="#SVGID_1_"  style="overflow:visible;"/>
	</clipPath>
	<g transform="matrix(1 0 0 1 0 0)" style="clip-path:url(#SVGID_00000065050267530829736840000005470748196122607511_);">
		
			<image style="overflow:visible;" width="600" height="600" xlink:href="../../background.jpg"  transform="matrix(0.1895 0 0 0.1895 -5.2581 69.5054)">
		</image>
	</g>
	
		<use xlink:href="#SVGID_00000056392321669995746500000002138610664461057202_"  style="overflow:visible;fill:none;stroke:#BFBFBF;stroke-miterlimit:10;"/>
	<use xlink:href="#SVGID_1_"  style="overflow:visible;fill:none;stroke:#BFBFBF;stroke-miterlimit:10;"/>
</g>
<linearGradient id="SVGID_00000061437214667701283770000004566399749846034834_" gradientUnits="userSpaceOnUse" x1="68.4107" y1="458.2488" x2="68.4107" y2="415.6467" gradientTransform="matrix(1 0 0 1 0 -398)">
	<stop  offset="0" style="stop-color:#9F9D9D"/>
	<stop  offset="0.1816" style="stop-color:#808080"/>
	<stop  offset="0.2933" style="stop-color:#9F9D9D"/>
	<stop  offset="0.5447" style="stop-color:#CCCCCC"/>
	<stop  offset="0.6732" style="stop-color:#FFFFFF"/>
	<stop  offset="0.8687" style="stop-color:#E4E3E3"/>
	<stop  offset="1" style="stop-color:#B3B3B3"/>
</linearGradient>
<rect x="62" y="17.7" style="fill:url(#SVGID_00000061437214667701283770000004566399749846034834_);" width="12.7" height="42.6"/>
<linearGradient id="SVGID_00000120538583073025918580000004985200250479924406_" gradientUnits="userSpaceOnUse" x1="41.6211" y1="456.7896" x2="41.6211" y2="417.7812" gradientTransform="matrix(1 0 0 1 0 -398)">
	<stop  offset="0" style="stop-color:#9F9D9D"/>
	<stop  offset="0.1816" style="stop-color:#808080"/>
	<stop  offset="0.2933" style="stop-color:#9F9D9D"/>
	<stop  offset="0.5447" style="stop-color:#CCCCCC"/>
	<stop  offset="0.6732" style="stop-color:#FFFFFF"/>
	<stop  offset="0.8687" style="stop-color:#E4E3E3"/>
	<stop  offset="1" style="stop-color:#B3B3B3"/>
</linearGradient>
<rect x="35.9" y="19.8" style="fill:url(#SVGID_00000120538583073025918580000004985200250479924406_);" width="11.4" height="39"/>
<linearGradient id="SVGID_00000050664972134184028600000001135088473693164949_" gradientUnits="userSpaceOnUse" x1="73.1479" y1="355.6901" x2="73.1479" y2="306.2272" gradientTransform="matrix(1 0 0 1 0 -292)">
	<stop  offset="0" style="stop-color:#B3B3B3"/>
	<stop  offset="0.25" style="stop-color:#666666"/>
	<stop  offset="0.4162" style="stop-color:#D1D3D4"/>
	<stop  offset="0.5168" style="stop-color:#CCCCCC"/>
	<stop  offset="0.662" style="stop-color:#F1F2F2"/>
	<stop  offset="0.8519" style="stop-color:#CCCCCC"/>
	<stop  offset="0.919" style="stop-color:#E6E7E8"/>
	<stop  offset="1" style="stop-color:#919396"/>
</linearGradient>
<polygon style="fill:url(#SVGID_00000050664972134184028600000001135088473693164949_);" points="70.9,14.2 73,17.5 75.4,60.2 
	73.5,63.7 "/>
<linearGradient id="SVGID_00000049930859282912114330000000191058006537694853_" gradientUnits="userSpaceOnUse" x1="-6406.8501" y1="-387.6505" x2="-6406.8501" y2="-340.9874" gradientTransform="matrix(-1 0 0 1.06 -6335.6299 431.54)">
	<stop  offset="0" style="stop-color:#939598"/>
	<stop  offset="0.1927" style="stop-color:#6D6E71"/>
	<stop  offset="0.39" style="stop-color:#808080"/>
	<stop  offset="0.6606" style="stop-color:#CCCCCC"/>
	<stop  offset="0.8658" style="stop-color:#808285"/>
	<stop  offset="0.9715" style="stop-color:#B3B3B3"/>
</linearGradient>
<polygon style="fill:url(#SVGID_00000049930859282912114330000000191058006537694853_);" points="70.9,14.2 73.5,63.7 71.4,60.4 
	68.9,17.5 "/>
<linearGradient id="SVGID_00000143619447854198895520000005455987910783801500_" gradientUnits="userSpaceOnUse" x1="77.003" y1="355.6901" x2="77.003" y2="306.2272" gradientTransform="matrix(1 0 0 1 0 -292)">
	<stop  offset="0" style="stop-color:#B3B3B3"/>
	<stop  offset="0.25" style="stop-color:#666666"/>
	<stop  offset="0.4162" style="stop-color:#D1D3D4"/>
	<stop  offset="0.5168" style="stop-color:#CCCCCC"/>
	<stop  offset="0.662" style="stop-color:#F1F2F2"/>
	<stop  offset="0.8519" style="stop-color:#CCCCCC"/>
	<stop  offset="0.919" style="stop-color:#E6E7E8"/>
	<stop  offset="1" style="stop-color:#919396"/>
</linearGradient>
<polygon style="fill:url(#SVGID_00000143619447854198895520000005455987910783801500_);" points="74.8,14.2 76.9,17.5 79.2,60.2 
	77.5,63.7 "/>
<linearGradient id="SVGID_00000132054031036186804490000010506346205855040696_" gradientUnits="userSpaceOnUse" x1="-6410.8359" y1="-387.6505" x2="-6410.8359" y2="-340.9874" gradientTransform="matrix(-1 0 0 1.06 -6335.6299 431.54)">
	<stop  offset="0" style="stop-color:#939598"/>
	<stop  offset="0.1927" style="stop-color:#6D6E71"/>
	<stop  offset="0.39" style="stop-color:#808080"/>
	<stop  offset="0.6606" style="stop-color:#CCCCCC"/>
	<stop  offset="0.8658" style="stop-color:#808285"/>
	<stop  offset="0.9715" style="stop-color:#B3B3B3"/>
</linearGradient>
<path style="fill:url(#SVGID_00000132054031036186804490000010506346205855040696_);" d="M74.8,14.2l2.7,49.5
	c-0.7-1.2-1.4-2.3-2.2-3.5C74.5,46,73.7,31.7,73,17.4C73.6,16.4,74.2,15.3,74.8,14.2z"/>
<linearGradient id="SVGID_00000075851917528479073210000017823093913145561234_" gradientUnits="userSpaceOnUse" x1="80.9561" y1="355.6901" x2="80.9561" y2="306.2272" gradientTransform="matrix(1 0 0 1 0 -292)">
	<stop  offset="0" style="stop-color:#B3B3B3"/>
	<stop  offset="0.25" style="stop-color:#666666"/>
	<stop  offset="0.4162" style="stop-color:#D1D3D4"/>
	<stop  offset="0.5168" style="stop-color:#CCCCCC"/>
	<stop  offset="0.662" style="stop-color:#F1F2F2"/>
	<stop  offset="0.8519" style="stop-color:#CCCCCC"/>
	<stop  offset="0.919" style="stop-color:#E6E7E8"/>
	<stop  offset="1" style="stop-color:#919396"/>
</linearGradient>
<polygon style="fill:url(#SVGID_00000075851917528479073210000017823093913145561234_);" points="78.7,14.2 80.9,17.5 83.2,60.2 
	81.4,63.7 "/>
<linearGradient id="SVGID_00000138550502608655432600000013876085495413407141_" gradientUnits="userSpaceOnUse" x1="-6414.7563" y1="-387.6505" x2="-6414.7563" y2="-340.9874" gradientTransform="matrix(-1 0 0 1.06 -6335.6299 431.54)">
	<stop  offset="0" style="stop-color:#939598"/>
	<stop  offset="0.1927" style="stop-color:#6D6E71"/>
	<stop  offset="0.39" style="stop-color:#808080"/>
	<stop  offset="0.6606" style="stop-color:#CCCCCC"/>
	<stop  offset="0.8658" style="stop-color:#808285"/>
	<stop  offset="0.9715" style="stop-color:#B3B3B3"/>
</linearGradient>
<path style="fill:url(#SVGID_00000138550502608655432600000013876085495413407141_);" d="M78.7,14.2l2.7,49.5
	c-0.7-1.2-1.4-2.3-2.2-3.5c-0.8-14.2-1.6-28.6-2.4-42.8C77.6,16.4,78.2,15.3,78.7,14.2z"/>
<linearGradient id="SVGID_00000109030997030760600290000003305461340487553441_" gradientUnits="userSpaceOnUse" x1="84.8439" y1="355.6901" x2="84.8439" y2="306.2272" gradientTransform="matrix(1 0 0 1 0 -292)">
	<stop  offset="0" style="stop-color:#B3B3B3"/>
	<stop  offset="0.25" style="stop-color:#666666"/>
	<stop  offset="0.4162" style="stop-color:#D1D3D4"/>
	<stop  offset="0.5168" style="stop-color:#CCCCCC"/>
	<stop  offset="0.662" style="stop-color:#F1F2F2"/>
	<stop  offset="0.8519" style="stop-color:#CCCCCC"/>
	<stop  offset="0.919" style="stop-color:#E6E7E8"/>
	<stop  offset="1" style="stop-color:#919396"/>
</linearGradient>
<polygon style="fill:url(#SVGID_00000109030997030760600290000003305461340487553441_);" points="82.6,14.2 84.8,17.5 87.1,60.2 
	85.3,63.7 "/>
<linearGradient id="SVGID_00000041290458826466627590000014029765450997669505_" gradientUnits="userSpaceOnUse" x1="-6418.6768" y1="-387.6505" x2="-6418.6768" y2="-340.9874" gradientTransform="matrix(-1 0 0 1.06 -6335.6299 431.54)">
	<stop  offset="0" style="stop-color:#939598"/>
	<stop  offset="0.1927" style="stop-color:#6D6E71"/>
	<stop  offset="0.39" style="stop-color:#808080"/>
	<stop  offset="0.6606" style="stop-color:#CCCCCC"/>
	<stop  offset="0.8658" style="stop-color:#808285"/>
	<stop  offset="0.9715" style="stop-color:#B3B3B3"/>
</linearGradient>
<path style="fill:url(#SVGID_00000041290458826466627590000014029765450997669505_);" d="M82.6,14.2l2.7,49.5
	c-0.7-1.2-1.4-2.3-2.2-3.5c-0.8-14.2-1.6-28.6-2.4-42.8C81.4,16.4,82,15.3,82.6,14.2z"/>
<linearGradient id="SVGID_00000006675215346994254420000015326867125899608496_" gradientUnits="userSpaceOnUse" x1="88.797" y1="355.6901" x2="88.797" y2="306.2272" gradientTransform="matrix(1 0 0 1 0 -292)">
	<stop  offset="0" style="stop-color:#B3B3B3"/>
	<stop  offset="0.25" style="stop-color:#666666"/>
	<stop  offset="0.4162" style="stop-color:#D1D3D4"/>
	<stop  offset="0.5168" style="stop-color:#CCCCCC"/>
	<stop  offset="0.662" style="stop-color:#F1F2F2"/>
	<stop  offset="0.8519" style="stop-color:#CCCCCC"/>
	<stop  offset="0.919" style="stop-color:#E6E7E8"/>
	<stop  offset="1" style="stop-color:#919396"/>
</linearGradient>
<polygon style="fill:url(#SVGID_00000006675215346994254420000015326867125899608496_);" points="86.5,14.2 88.7,17.5 91.1,60.2 
	89.2,63.7 "/>
<linearGradient id="SVGID_00000104665302536346656190000005096688819761454245_" gradientUnits="userSpaceOnUse" x1="-6422.5972" y1="-387.6505" x2="-6422.5972" y2="-340.9874" gradientTransform="matrix(-1 0 0 1.06 -6335.6299 431.54)">
	<stop  offset="0" style="stop-color:#939598"/>
	<stop  offset="0.1927" style="stop-color:#6D6E71"/>
	<stop  offset="0.39" style="stop-color:#808080"/>
	<stop  offset="0.6606" style="stop-color:#CCCCCC"/>
	<stop  offset="0.8658" style="stop-color:#808285"/>
	<stop  offset="0.9715" style="stop-color:#B3B3B3"/>
</linearGradient>
<path style="fill:url(#SVGID_00000104665302536346656190000005096688819761454245_);" d="M86.5,14.2l2.7,49.5
	c-0.7-1.2-1.4-2.3-2.2-3.5c-0.8-14.2-1.6-28.6-2.4-42.8C85.4,16.4,86,15.3,86.5,14.2z"/>
<linearGradient id="SVGID_00000123411796690944187810000011100323004185504657_" gradientUnits="userSpaceOnUse" x1="-485.658" y1="3522.9575" x2="-477.8238" y2="3522.9575" gradientTransform="matrix(1 0 0 1 543.2952 -3483.9009)">
	<stop  offset="0" style="stop-color:#3F3B3C"/>
	<stop  offset="1" style="stop-color:#3F3B3C;stop-opacity:0"/>
</linearGradient>
<polygon style="opacity:0.5;fill:url(#SVGID_00000123411796690944187810000011100323004185504657_);enable-background:new    ;" points="
	65.4,17.9 57.5,17.9 57.5,60.2 65.4,60.2 "/>
<linearGradient id="SVGID_00000023976207904791041730000017059374741577456796_" gradientUnits="userSpaceOnUse" x1="-668.7689" y1="3162.3723" x2="-659.3252" y2="3162.3723" gradientTransform="matrix(-1 0 0 -1 -619.2305 3201.625)">
	<stop  offset="0" style="stop-color:#3F3B3C"/>
	<stop  offset="1" style="stop-color:#3F3B3C;stop-opacity:0"/>
</linearGradient>
<polygon style="opacity:0.5;fill:url(#SVGID_00000023976207904791041730000017059374741577456796_);enable-background:new    ;" points="
	40.2,58.7 49.6,58.7 49.6,19.8 40.1,19.8 "/>
<linearGradient id="SVGID_00000131333509642907955720000015480764308662176652_" gradientUnits="userSpaceOnUse" x1="92.7175" y1="355.6901" x2="92.7175" y2="306.2272" gradientTransform="matrix(1 0 0 1 0 -292)">
	<stop  offset="0" style="stop-color:#B3B3B3"/>
	<stop  offset="0.25" style="stop-color:#666666"/>
	<stop  offset="0.4162" style="stop-color:#D1D3D4"/>
	<stop  offset="0.5168" style="stop-color:#CCCCCC"/>
	<stop  offset="0.662" style="stop-color:#F1F2F2"/>
	<stop  offset="0.8519" style="stop-color:#CCCCCC"/>
	<stop  offset="0.919" style="stop-color:#E6E7E8"/>
	<stop  offset="1" style="stop-color:#919396"/>
</linearGradient>
<polygon style="fill:url(#SVGID_00000131333509642907955720000015480764308662176652_);" points="90.5,14.2 92.6,17.5 94.9,60.2 
	93.1,63.7 "/>
<linearGradient id="SVGID_00000046333198847860880050000007680954033574046608_" gradientUnits="userSpaceOnUse" x1="6.1737" y1="456.0055" x2="6.1737" y2="418.4346" gradientTransform="matrix(1 0 0 1 0 -398)">
	<stop  offset="0" style="stop-color:#9F9D9D"/>
	<stop  offset="0.1816" style="stop-color:#808080"/>
	<stop  offset="0.2933" style="stop-color:#9F9D9D"/>
	<stop  offset="0.5447" style="stop-color:#CCCCCC"/>
	<stop  offset="0.6732" style="stop-color:#FFFFFF"/>
	<stop  offset="0.8687" style="stop-color:#E4E3E3"/>
	<stop  offset="1" style="stop-color:#B3B3B3"/>
</linearGradient>
<rect x="4.1" y="20.4" style="fill:url(#SVGID_00000046333198847860880050000007680954033574046608_);" width="4.1" height="37.6"/>
<linearGradient id="SVGID_00000098202482121203281690000010827124160559938724_" gradientUnits="userSpaceOnUse" x1="-6426.583" y1="-387.6505" x2="-6426.583" y2="-340.9874" gradientTransform="matrix(-1 0 0 1.06 -6335.6299 431.54)">
	<stop  offset="0" style="stop-color:#939598"/>
	<stop  offset="0.1927" style="stop-color:#6D6E71"/>
	<stop  offset="0.39" style="stop-color:#808080"/>
	<stop  offset="0.6606" style="stop-color:#CCCCCC"/>
	<stop  offset="0.8658" style="stop-color:#808285"/>
	<stop  offset="0.9715" style="stop-color:#B3B3B3"/>
</linearGradient>
<path style="fill:url(#SVGID_00000098202482121203281690000010827124160559938724_);" d="M90.5,14.2l2.7,49.5
	c-0.7-1.2-1.4-2.3-2.2-3.5c-0.8-14.2-1.6-28.6-2.4-42.8C89.3,16.4,89.9,15.3,90.5,14.2z"/>
<linearGradient id="SVGID_00000018234712828706966850000016361724156748798609_" gradientUnits="userSpaceOnUse" x1="96.6052" y1="355.6901" x2="96.6052" y2="306.2272" gradientTransform="matrix(1 0 0 1 0 -292)">
	<stop  offset="0" style="stop-color:#B3B3B3"/>
	<stop  offset="0.25" style="stop-color:#666666"/>
	<stop  offset="0.4162" style="stop-color:#D1D3D4"/>
	<stop  offset="0.5168" style="stop-color:#CCCCCC"/>
	<stop  offset="0.662" style="stop-color:#F1F2F2"/>
	<stop  offset="0.8519" style="stop-color:#CCCCCC"/>
	<stop  offset="0.919" style="stop-color:#E6E7E8"/>
	<stop  offset="1" style="stop-color:#919396"/>
</linearGradient>
<polygon style="fill:url(#SVGID_00000018234712828706966850000016361724156748798609_);" points="94.4,14.2 96.5,17.5 98.8,60.2 
	97.1,63.7 "/>
<linearGradient id="SVGID_00000134216243539653150460000013635642246206018463_" gradientUnits="userSpaceOnUse" x1="-6430.4385" y1="-387.6505" x2="-6430.4385" y2="-340.9874" gradientTransform="matrix(-1 0 0 1.06 -6335.6299 431.54)">
	<stop  offset="0" style="stop-color:#939598"/>
	<stop  offset="0.1927" style="stop-color:#6D6E71"/>
	<stop  offset="0.39" style="stop-color:#808080"/>
	<stop  offset="0.6606" style="stop-color:#CCCCCC"/>
	<stop  offset="0.8658" style="stop-color:#808285"/>
	<stop  offset="0.9715" style="stop-color:#B3B3B3"/>
</linearGradient>
<path style="fill:url(#SVGID_00000134216243539653150460000013635642246206018463_);" d="M94.4,14.2l2.7,49.5
	c-0.7-1.2-1.4-2.3-2.2-3.5c-0.8-14.2-1.6-28.6-2.4-42.8C93.2,16.4,93.8,15.3,94.4,14.2z"/>
<g>
	<rect x="63.3" y="17.9" class="st20" width="1.8" height="14.3"/>
	<rect x="63.3" y="45.3" class="st21" width="1.8" height="14.3"/>
	<rect x="42.8" y="45.3" class="st21" width="1.8" height="14.3"/>
	<rect x="42.8" y="17.9" class="st20" width="1.8" height="14.3"/>
	
		<linearGradient id="SVGID_00000177446636554157939690000001885214781861752732_" gradientUnits="userSpaceOnUse" x1="53.9051" y1="996.7439" x2="53.9051" y2="1012.4866" gradientTransform="matrix(1 0 0 1 0 -943.3858)">
		<stop  offset="6.983240e-02" style="stop-color:#58595B"/>
		<stop  offset="0.3715" style="stop-color:#808285"/>
		<stop  offset="0.4888" style="stop-color:#6D6E71"/>
		<stop  offset="0.6397" style="stop-color:#838587"/>
		<stop  offset="0.824" style="stop-color:#BCBEC0"/>
		<stop  offset="1" style="stop-color:#BAB9B9"/>
	</linearGradient>
	<path style="fill:url(#SVGID_00000177446636554157939690000001885214781861752732_);" d="M44.2,53.4l-1.4,4.4V65l2.5,4.2h17.4
		L65,65v-7.3c-0.4-1.4-0.8-2.9-1.2-4.4C57.3,53.4,50.8,53.4,44.2,53.4z"/>
	
		<linearGradient id="SVGID_00000075868918729619628600000006858385651765361847_" gradientUnits="userSpaceOnUse" x1="53.9378" y1="-2580.6216" x2="53.9378" y2="-2564.8745" gradientTransform="matrix(1 0 0 -1 0 -2556.1885)">
		<stop  offset="0" style="stop-color:#F2F2F2"/>
		<stop  offset="1" style="stop-color:#CCCCCC"/>
	</linearGradient>
	<path style="fill:url(#SVGID_00000075868918729619628600000006858385651765361847_);" d="M44.2,24.4L42.8,20v-7.2l2.5-4.2h17.4
		l2.4,4.2c0,2.4,0,4.8,0.1,7.2c-0.2,0.7-0.5,1.4-0.7,2.2c-0.2,0.7-0.4,1.4-0.6,2.2C57.3,24.4,50.8,24.4,44.2,24.4z"/>
	
		<linearGradient id="SVGID_00000132774971261002659770000007108517115125514883_" gradientUnits="userSpaceOnUse" x1="53.9378" y1="996.7446" x2="53.9378" y2="967.7987" gradientTransform="matrix(1 0 0 1 0 -943.3858)">
		<stop  offset="0" style="stop-color:#E6E6E6"/>
		<stop  offset="0.263" style="stop-color:#E1E1E1"/>
		<stop  offset="0.5724" style="stop-color:#D3D3D3"/>
		<stop  offset="0.904" style="stop-color:#BBBBBB"/>
		<stop  offset="1" style="stop-color:#B3B3B3"/>
	</linearGradient>
	<path style="fill:url(#SVGID_00000132774971261002659770000007108517115125514883_);" d="M63.9,53.4c0.4-2.6,0.8-5.2,1.2-7.8
		c0-4.5,0-9,0-13.4c-0.2-1.3-0.4-2.6-0.6-3.9c-0.2-1.3-0.4-2.6-0.7-3.9c-6.6,0-13.1,0-19.7,0c-0.5,2.5-0.9,5.2-1.4,7.7
		c0,4.5,0,9,0,13.5l1.4,7.8L63.9,53.4L63.9,53.4z"/>
	
		<linearGradient id="SVGID_00000119088107793186684340000016649552425436648639_" gradientUnits="userSpaceOnUse" x1="53.9378" y1="160.7235" x2="53.9378" y2="144.8648" gradientTransform="matrix(1 0 0 -1 0 214)">
		<stop  offset="0" style="stop-color:#808080"/>
		<stop  offset="1" style="stop-color:#ABABAB"/>
	</linearGradient>
	<path style="fill:url(#SVGID_00000119088107793186684340000016649552425436648639_);" d="M44.2,53.3c-0.5,1.4-0.9,2.9-1.4,4.4
		c0,2.4,0,4.8,0,7.3c0.8,1.4,1.8,2.7,2.6,4.2h17.4l2.4-4.2v-7.3c-0.4-1.4-0.8-2.9-1.2-4.4c-3.3,0-6.6,0.1-9.9,0.1
		C50.7,53.3,47.4,53.3,44.2,53.3z"/>
</g>
<linearGradient id="SVGID_00000178172579985532483500000012184996861449567632_" gradientUnits="userSpaceOnUse" x1="-634.8371" y1="3162.405" x2="-625.3934" y2="3162.405" gradientTransform="matrix(-1 0 0 -1 -619.2305 3201.625)">
	<stop  offset="0" style="stop-color:#3F3B3C"/>
	<stop  offset="1" style="stop-color:#3F3B3C;stop-opacity:0"/>
</linearGradient>
<polygon style="opacity:0.5;fill:url(#SVGID_00000178172579985532483500000012184996861449567632_);enable-background:new    ;" points="
	6.3,58 15.8,58 15.8,20.4 6.2,20.4 "/>
<linearGradient id="SVGID_00000036251813736601759530000006351825581133914800_" gradientUnits="userSpaceOnUse" x1="5654.1528" y1="456.7896" x2="5654.1528" y2="417.7812" gradientTransform="matrix(-1 0 0 1 5666.0439 -398)">
	<stop  offset="0" style="stop-color:#9F9D9D"/>
	<stop  offset="0.1816" style="stop-color:#808080"/>
	<stop  offset="0.2933" style="stop-color:#9F9D9D"/>
	<stop  offset="0.5447" style="stop-color:#CCCCCC"/>
	<stop  offset="0.6732" style="stop-color:#FFFFFF"/>
	<stop  offset="0.8687" style="stop-color:#E4E3E3"/>
	<stop  offset="1" style="stop-color:#B3B3B3"/>
</linearGradient>
<polygon style="fill:url(#SVGID_00000036251813736601759530000006351825581133914800_);" points="8.2,58.8 15.6,58.8 15.6,19.8 
	8.2,19.8 "/>
<linearGradient id="SVGID_00000170999142727701338140000012595568263996645304_" gradientUnits="userSpaceOnUse" x1="16.2689" y1="353.8606" x2="16.2689" y2="308.5795" gradientTransform="matrix(1 0 0 1 0 -292)">
	<stop  offset="0" style="stop-color:#B3B3B3"/>
	<stop  offset="0.25" style="stop-color:#666666"/>
	<stop  offset="0.4162" style="stop-color:#D1D3D4"/>
	<stop  offset="0.5168" style="stop-color:#CCCCCC"/>
	<stop  offset="0.662" style="stop-color:#F1F2F2"/>
	<stop  offset="0.8519" style="stop-color:#CCCCCC"/>
	<stop  offset="0.919" style="stop-color:#E6E7E8"/>
	<stop  offset="1" style="stop-color:#919396"/>
</linearGradient>
<polygon style="fill:url(#SVGID_00000170999142727701338140000012595568263996645304_);" points="14.3,16.6 16.2,19.6 18.3,58.7 
	16.7,61.9 "/>
<linearGradient id="SVGID_00000134941698369510319950000000087963124876181422_" gradientUnits="userSpaceOnUse" x1="-6350.2324" y1="-385.9344" x2="-6350.2324" y2="-343.2164" gradientTransform="matrix(-1 0 0 1.06 -6335.6299 431.54)">
	<stop  offset="0" style="stop-color:#939598"/>
	<stop  offset="0.1927" style="stop-color:#6D6E71"/>
	<stop  offset="0.39" style="stop-color:#808080"/>
	<stop  offset="0.6606" style="stop-color:#CCCCCC"/>
	<stop  offset="0.8658" style="stop-color:#808285"/>
	<stop  offset="0.9715" style="stop-color:#B3B3B3"/>
</linearGradient>
<polygon style="fill:url(#SVGID_00000134941698369510319950000000087963124876181422_);" points="14.3,16.6 16.7,61.9 14.8,58.9 
	12.5,19.6 "/>
<linearGradient id="SVGID_00000003811204995703862490000005995552713743022239_" gradientUnits="userSpaceOnUse" x1="19.8299" y1="353.8606" x2="19.8299" y2="308.5795" gradientTransform="matrix(1 0 0 1 0 -292)">
	<stop  offset="0" style="stop-color:#B3B3B3"/>
	<stop  offset="0.25" style="stop-color:#666666"/>
	<stop  offset="0.4162" style="stop-color:#D1D3D4"/>
	<stop  offset="0.5168" style="stop-color:#CCCCCC"/>
	<stop  offset="0.662" style="stop-color:#F1F2F2"/>
	<stop  offset="0.8519" style="stop-color:#CCCCCC"/>
	<stop  offset="0.919" style="stop-color:#E6E7E8"/>
	<stop  offset="1" style="stop-color:#919396"/>
</linearGradient>
<polygon style="fill:url(#SVGID_00000003811204995703862490000005995552713743022239_);" points="17.8,16.6 19.8,19.6 21.9,58.7 
	20.2,61.9 "/>
<linearGradient id="SVGID_00000040562853228117100790000000966483530319905669_" gradientUnits="userSpaceOnUse" x1="-6353.8262" y1="-385.9344" x2="-6353.8262" y2="-343.2164" gradientTransform="matrix(-1 0 0 1.06 -6335.6299 431.54)">
	<stop  offset="0" style="stop-color:#939598"/>
	<stop  offset="0.1927" style="stop-color:#6D6E71"/>
	<stop  offset="0.39" style="stop-color:#808080"/>
	<stop  offset="0.6606" style="stop-color:#CCCCCC"/>
	<stop  offset="0.8658" style="stop-color:#808285"/>
	<stop  offset="0.9715" style="stop-color:#B3B3B3"/>
</linearGradient>
<path style="fill:url(#SVGID_00000040562853228117100790000000966483530319905669_);" d="M17.8,16.6l2.4,45.3
	c-0.7-1.1-1.3-2.1-2-3.2c-0.7-13.1-1.4-26.1-2.1-39.2C16.8,18.5,17.3,17.6,17.8,16.6z"/>
<linearGradient id="SVGID_00000062177114219015926380000008544974882025048764_" gradientUnits="userSpaceOnUse" x1="23.3257" y1="353.8606" x2="23.3257" y2="308.5795" gradientTransform="matrix(1 0 0 1 0 -292)">
	<stop  offset="0" style="stop-color:#B3B3B3"/>
	<stop  offset="0.25" style="stop-color:#666666"/>
	<stop  offset="0.4162" style="stop-color:#D1D3D4"/>
	<stop  offset="0.5168" style="stop-color:#CCCCCC"/>
	<stop  offset="0.662" style="stop-color:#F1F2F2"/>
	<stop  offset="0.8519" style="stop-color:#CCCCCC"/>
	<stop  offset="0.919" style="stop-color:#E6E7E8"/>
	<stop  offset="1" style="stop-color:#919396"/>
</linearGradient>
<polygon style="fill:url(#SVGID_00000062177114219015926380000008544974882025048764_);" points="21.3,16.6 23.3,19.6 25.3,58.7 
	23.8,61.9 "/>
<linearGradient id="SVGID_00000091720979927869479200000005066789653877190812_" gradientUnits="userSpaceOnUse" x1="-6357.3545" y1="-385.9344" x2="-6357.3545" y2="-343.2164" gradientTransform="matrix(-1 0 0 1.06 -6335.6299 431.54)">
	<stop  offset="0" style="stop-color:#939598"/>
	<stop  offset="0.1927" style="stop-color:#6D6E71"/>
	<stop  offset="0.39" style="stop-color:#808080"/>
	<stop  offset="0.6606" style="stop-color:#CCCCCC"/>
	<stop  offset="0.8658" style="stop-color:#808285"/>
	<stop  offset="0.9715" style="stop-color:#B3B3B3"/>
</linearGradient>
<path style="fill:url(#SVGID_00000091720979927869479200000005066789653877190812_);" d="M21.3,16.6l2.4,45.3
	c-0.7-1.1-1.3-2.1-2-3.2c-0.7-13.1-1.4-26.1-2.1-39.2C20.3,18.5,20.8,17.6,21.3,16.6z"/>
<linearGradient id="SVGID_00000168092037876911554480000001955747114144328592_" gradientUnits="userSpaceOnUse" x1="26.8867" y1="353.8606" x2="26.8867" y2="308.5795" gradientTransform="matrix(1 0 0 1 0 -292)">
	<stop  offset="0" style="stop-color:#B3B3B3"/>
	<stop  offset="0.25" style="stop-color:#666666"/>
	<stop  offset="0.4162" style="stop-color:#D1D3D4"/>
	<stop  offset="0.5168" style="stop-color:#CCCCCC"/>
	<stop  offset="0.662" style="stop-color:#F1F2F2"/>
	<stop  offset="0.8519" style="stop-color:#CCCCCC"/>
	<stop  offset="0.919" style="stop-color:#E6E7E8"/>
	<stop  offset="1" style="stop-color:#919396"/>
</linearGradient>
<polygon style="fill:url(#SVGID_00000168092037876911554480000001955747114144328592_);" points="24.9,16.6 26.8,19.6 28.9,58.7 
	27.3,61.9 "/>
<linearGradient id="SVGID_00000073689687877518101820000012973411944214393014_" gradientUnits="userSpaceOnUse" x1="-6360.8833" y1="-385.9344" x2="-6360.8833" y2="-343.2164" gradientTransform="matrix(-1 0 0 1.06 -6335.6299 431.54)">
	<stop  offset="0" style="stop-color:#939598"/>
	<stop  offset="0.1927" style="stop-color:#6D6E71"/>
	<stop  offset="0.39" style="stop-color:#808080"/>
	<stop  offset="0.6606" style="stop-color:#CCCCCC"/>
	<stop  offset="0.8658" style="stop-color:#808285"/>
	<stop  offset="0.9715" style="stop-color:#B3B3B3"/>
</linearGradient>
<path style="fill:url(#SVGID_00000073689687877518101820000012973411944214393014_);" d="M24.9,16.6l2.4,45.3
	c-0.7-1.1-1.3-2.1-2-3.2c-0.7-13.1-1.4-26.1-2.1-39.2C23.8,18.5,24.3,17.6,24.9,16.6z"/>
<linearGradient id="SVGID_00000003799583554203100170000000878887070761273766_" gradientUnits="userSpaceOnUse" x1="30.3825" y1="353.8606" x2="30.3825" y2="308.5795" gradientTransform="matrix(1 0 0 1 0 -292)">
	<stop  offset="0" style="stop-color:#B3B3B3"/>
	<stop  offset="0.25" style="stop-color:#666666"/>
	<stop  offset="0.4162" style="stop-color:#D1D3D4"/>
	<stop  offset="0.5168" style="stop-color:#CCCCCC"/>
	<stop  offset="0.662" style="stop-color:#F1F2F2"/>
	<stop  offset="0.8519" style="stop-color:#CCCCCC"/>
	<stop  offset="0.919" style="stop-color:#E6E7E8"/>
	<stop  offset="1" style="stop-color:#919396"/>
</linearGradient>
<polygon style="fill:url(#SVGID_00000003799583554203100170000000878887070761273766_);" points="28.4,16.6 30.3,19.6 32.4,58.7 
	30.7,61.9 "/>
<linearGradient id="SVGID_00000117643256052519511130000017867890597560353976_" gradientUnits="userSpaceOnUse" x1="-6364.4116" y1="-385.9344" x2="-6364.4116" y2="-343.2164" gradientTransform="matrix(-1 0 0 1.06 -6335.6299 431.54)">
	<stop  offset="0" style="stop-color:#939598"/>
	<stop  offset="0.1927" style="stop-color:#6D6E71"/>
	<stop  offset="0.39" style="stop-color:#808080"/>
	<stop  offset="0.6606" style="stop-color:#CCCCCC"/>
	<stop  offset="0.8658" style="stop-color:#808285"/>
	<stop  offset="0.9715" style="stop-color:#B3B3B3"/>
</linearGradient>
<path style="fill:url(#SVGID_00000117643256052519511130000017867890597560353976_);" d="M28.4,16.6l2.4,45.3
	c-0.7-1.1-1.3-2.1-2-3.2c-0.7-13.1-1.4-26.1-2.1-39.2C27.3,18.5,27.9,17.6,28.4,16.6z"/>
<linearGradient id="SVGID_00000065790856924892501830000014482498239234819226_" gradientUnits="userSpaceOnUse" x1="33.8782" y1="353.8606" x2="33.8782" y2="308.5795" gradientTransform="matrix(1 0 0 1 0 -292)">
	<stop  offset="0" style="stop-color:#B3B3B3"/>
	<stop  offset="0.25" style="stop-color:#666666"/>
	<stop  offset="0.4162" style="stop-color:#D1D3D4"/>
	<stop  offset="0.5168" style="stop-color:#CCCCCC"/>
	<stop  offset="0.662" style="stop-color:#F1F2F2"/>
	<stop  offset="0.8519" style="stop-color:#CCCCCC"/>
	<stop  offset="0.919" style="stop-color:#E6E7E8"/>
	<stop  offset="1" style="stop-color:#919396"/>
</linearGradient>
<polygon style="fill:url(#SVGID_00000065790856924892501830000014482498239234819226_);" points="31.9,16.6 33.8,19.6 35.9,58.7 
	34.3,61.9 "/>
<linearGradient id="SVGID_00000085236299643077608910000007245449153151024302_" gradientUnits="userSpaceOnUse" x1="-6367.8745" y1="-385.9344" x2="-6367.8745" y2="-343.2164" gradientTransform="matrix(-1 0 0 1.06 -6335.6299 431.54)">
	<stop  offset="0" style="stop-color:#939598"/>
	<stop  offset="0.1927" style="stop-color:#6D6E71"/>
	<stop  offset="0.39" style="stop-color:#808080"/>
	<stop  offset="0.6606" style="stop-color:#CCCCCC"/>
	<stop  offset="0.8658" style="stop-color:#808285"/>
	<stop  offset="0.9715" style="stop-color:#B3B3B3"/>
</linearGradient>
<path style="fill:url(#SVGID_00000085236299643077608910000007245449153151024302_);" d="M31.9,16.6l2.4,45.3
	c-0.7-1.1-1.3-2.1-2-3.2c-0.7-13.1-1.4-26.1-2.1-39.2C30.8,18.5,31.3,17.6,31.9,16.6z"/>
<linearGradient id="SVGID_00000004515167429319428910000011751975582125261721_" gradientUnits="userSpaceOnUse" x1="37.4393" y1="353.8606" x2="37.4393" y2="308.5795" gradientTransform="matrix(1 0 0 1 0 -292)">
	<stop  offset="0" style="stop-color:#B3B3B3"/>
	<stop  offset="0.25" style="stop-color:#666666"/>
	<stop  offset="0.4162" style="stop-color:#D1D3D4"/>
	<stop  offset="0.5168" style="stop-color:#CCCCCC"/>
	<stop  offset="0.662" style="stop-color:#F1F2F2"/>
	<stop  offset="0.8519" style="stop-color:#CCCCCC"/>
	<stop  offset="0.919" style="stop-color:#E6E7E8"/>
	<stop  offset="1" style="stop-color:#919396"/>
</linearGradient>
<polygon style="fill:url(#SVGID_00000004515167429319428910000011751975582125261721_);" points="35.4,16.6 37.3,19.6 39.4,58.7 
	37.8,61.9 "/>
<linearGradient id="SVGID_00000062155903658806388850000006641245032164903322_" gradientUnits="userSpaceOnUse" x1="-6371.4683" y1="-385.9344" x2="-6371.4683" y2="-343.2164" gradientTransform="matrix(-1 0 0 1.06 -6335.6299 431.54)">
	<stop  offset="0" style="stop-color:#939598"/>
	<stop  offset="0.1927" style="stop-color:#6D6E71"/>
	<stop  offset="0.39" style="stop-color:#808080"/>
	<stop  offset="0.6606" style="stop-color:#CCCCCC"/>
	<stop  offset="0.8658" style="stop-color:#808285"/>
	<stop  offset="0.9715" style="stop-color:#B3B3B3"/>
</linearGradient>
<path style="fill:url(#SVGID_00000062155903658806388850000006641245032164903322_);" d="M35.4,16.6l2.4,45.3
	c-0.7-1.1-1.3-2.1-2-3.2c-0.7-13.1-1.4-26.1-2.1-39.2C34.3,18.5,34.9,17.6,35.4,16.6z"/>
<linearGradient id="SVGID_00000157278330501601895740000002975950579487670448_" gradientUnits="userSpaceOnUse" x1="70.1749" y1="458.4884" x2="70.1749" y2="415.4943" gradientTransform="matrix(1 0 0 1 0 -398)">
	<stop  offset="0" style="stop-color:#B3B3B3"/>
	<stop  offset="0.2263" style="stop-color:#666666"/>
	<stop  offset="0.4162" style="stop-color:#D1D3D4"/>
	<stop  offset="0.5168" style="stop-color:#CCCCCC"/>
	<stop  offset="0.662" style="stop-color:#F1F2F2"/>
	<stop  offset="0.8519" style="stop-color:#CCCCCC"/>
	<stop  offset="0.919" style="stop-color:#E6E7E8"/>
	<stop  offset="1" style="stop-color:#919396"/>
</linearGradient>
<path style="fill:url(#SVGID_00000157278330501601895740000002975950579487670448_);" d="M68.9,17.5v42.8c0.8,0.1,1.7,0.1,2.5,0.2
	C70.6,46.1,69.8,31.8,68.9,17.5z"/>
<linearGradient id="SVGID_00000105410680078323151020000006575501839280908980_" gradientUnits="userSpaceOnUse" x1="97.716" y1="420.9907" x2="97.716" y2="463.7889" gradientTransform="matrix(1 0 0 1 0 -398)">
	<stop  offset="0" style="stop-color:#939598"/>
	<stop  offset="0.1927" style="stop-color:#6D6E71"/>
	<stop  offset="0.3045" style="stop-color:#808080"/>
	<stop  offset="0.8966" style="stop-color:#808285"/>
	<stop  offset="1" style="stop-color:#B3B3B3"/>
</linearGradient>
<path style="fill:url(#SVGID_00000105410680078323151020000006575501839280908980_);" d="M96.5,17.5l2.4,42.8c0-14.2,0-28.4,0-42.6
	C98,17.6,97.3,17.6,96.5,17.5z"/>
<linearGradient id="SVGID_00000068657292016932563080000002879804477327751097_" gradientUnits="userSpaceOnUse" x1="38.3867" y1="456.8549" x2="38.3867" y2="417.6505" gradientTransform="matrix(1 0 0 1 0 -398)">
	<stop  offset="0" style="stop-color:#939598"/>
	<stop  offset="0.1927" style="stop-color:#6D6E71"/>
	<stop  offset="0.39" style="stop-color:#808080"/>
	<stop  offset="0.7842" style="stop-color:#CCCCCC"/>
	<stop  offset="0.8966" style="stop-color:#808285"/>
	<stop  offset="1" style="stop-color:#B3B3B3"/>
</linearGradient>
<path style="fill:url(#SVGID_00000068657292016932563080000002879804477327751097_);" d="M37.3,19.7c0.7,0.1,1.4,0.1,2.1,0.2
	c0,13,0,25.9,0,39L37.3,19.7z"/>
<linearGradient id="SVGID_00000139279953067176987150000015997077044164849818_" gradientUnits="userSpaceOnUse" x1="13.6552" y1="456.9209" x2="13.6552" y2="417.5205" gradientTransform="matrix(1 0 0 1 0 -398)">
	<stop  offset="0" style="stop-color:#B3B3B3"/>
	<stop  offset="0.25" style="stop-color:#666666"/>
	<stop  offset="0.4162" style="stop-color:#D1D3D4"/>
	<stop  offset="0.5168" style="stop-color:#CCCCCC"/>
	<stop  offset="0.662" style="stop-color:#F1F2F2"/>
	<stop  offset="0.8519" style="stop-color:#CCCCCC"/>
	<stop  offset="0.919" style="stop-color:#E6E7E8"/>
	<stop  offset="1" style="stop-color:#919396"/>
</linearGradient>
<path style="fill:url(#SVGID_00000139279953067176987150000015997077044164849818_);" d="M12.5,19.6v39.2c0.8,0.1,1.5,0.1,2.3,0.2
	C14,45.8,13.3,32.7,12.5,19.6z"/>
<linearGradient id="SVGID_00000000189826149551308420000012536563874780596127_" gradientUnits="userSpaceOnUse" x1="5663.3335" y1="450.9307" x2="5663.3335" y2="413.9479" gradientTransform="matrix(-1 0 0 1 5666.0439 -398)">
	<stop  offset="0" style="stop-color:#9F9D9D"/>
	<stop  offset="0.1816" style="stop-color:#808080"/>
	<stop  offset="0.2933" style="stop-color:#9F9D9D"/>
	<stop  offset="0.5447" style="stop-color:#CCCCCC"/>
	<stop  offset="0.6732" style="stop-color:#FFFFFF"/>
	<stop  offset="0.8687" style="stop-color:#E4E3E3"/>
	<stop  offset="1" style="stop-color:#B3B3B3"/>
</linearGradient>
<path style="fill:url(#SVGID_00000000189826149551308420000012536563874780596127_);" d="M1.2,53.2c1,1.5,2,3.1,3,4.5
	c0-12.3,0-24.6,0-37c-1,1.5-2,3.1-3,4.5C1.2,25.3,1.2,53.2,1.2,53.2z"/>
<linearGradient id="SVGID_00000134219156225024341410000014315690235125303445_" gradientUnits="userSpaceOnUse" x1="5662.2686" y1="437.2527" x2="5665.2173" y2="437.2527" gradientTransform="matrix(-1 0 0 1 5666.0439 -398)">
	<stop  offset="0" style="stop-color:#B3B3B3;stop-opacity:0.5"/>
	<stop  offset="1" style="stop-color:#B3B3B3;stop-opacity:0"/>
</linearGradient>
<path style="opacity:0.53;fill:url(#SVGID_00000134219156225024341410000014315690235125303445_);enable-background:new    ;" d="
	M1.2,53.2c1,1.5,2,3.1,3,4.5c0-12.3,0-24.6,0-37c-1,1.5-2,3.1-3,4.5C1.2,25.3,1.2,53.2,1.2,53.2z"/>
<circle cx="66.7" cy="15.9" r="1.6"/>
<circle cx="66.7" cy="61.9" r="1.6"/>
<linearGradient id="SVGID_00000041262345097429630440000006718564050433613468_" gradientUnits="userSpaceOnUse" x1="66.7445" y1="147.7074" x2="66.7445" y2="98.5059" gradientTransform="matrix(1 0 0 -1 0 162)">
	<stop  offset="1.306413e-02" style="stop-color:#000000"/>
	<stop  offset="0.3088" style="stop-color:#4D4D4D"/>
	<stop  offset="1" style="stop-color:#000000"/>
</linearGradient>
<path style="fill:url(#SVGID_00000041262345097429630440000006718564050433613468_);" d="M66.7,63.5L66.7,63.5
	c-0.9,0-1.7-0.8-1.7-1.7V16c0-0.9,0.8-1.7,1.7-1.7l0,0c0.9,0,1.7,0.8,1.7,1.7v45.8C68.4,62.8,67.7,63.5,66.7,63.5z"/>
<linearGradient id="SVGID_00000029753405454798870630000003190988419302213014_" gradientUnits="userSpaceOnUse" x1="65.0538" y1="123.172" x2="68.4126" y2="123.172" gradientTransform="matrix(1 0 0 -1 0 162)">
	<stop  offset="1.306413e-02" style="stop-color:#000000"/>
	<stop  offset="0.4905" style="stop-color:#4D4D4D"/>
	<stop  offset="1" style="stop-color:#000000"/>
</linearGradient>
<path style="opacity:0.49;fill:url(#SVGID_00000029753405454798870630000003190988419302213014_);enable-background:new    ;" d="
	M66.7,63.4L66.7,63.4c-0.9,0-1.7-0.8-1.7-1.7V15.9c0-0.9,0.8-1.7,1.7-1.7l0,0c0.9,0,1.7,0.8,1.7,1.7v45.8
	C68.4,62.7,67.7,63.4,66.7,63.4z"/>
<linearGradient id="SVGID_00000002382068394973611070000016796654414383753375_" gradientUnits="userSpaceOnUse" x1="51.5855" y1="103.254" x2="51.5855" y2="82.4484" gradientTransform="matrix(1 0 0 -1 0 213.4489)">
	<stop  offset="0.2849" style="stop-color:#606060"/>
	<stop  offset="0.5139" style="stop-color:#999999"/>
	<stop  offset="0.6613" style="stop-color:#ACACAC"/>
	<stop  offset="0.8464" style="stop-color:#6E6E6F;stop-opacity:0.9913"/>
	<stop  offset="1" style="stop-color:#606060"/>
</linearGradient>
<rect x="4.9" y="110.1" style="fill:url(#SVGID_00000002382068394973611070000016796654414383753375_);" width="93.4" height="20.8"/>
<linearGradient id="SVGID_00000092456769783234414110000011269974068193751179_" gradientUnits="userSpaceOnUse" x1="3.2661" y1="105.3567" x2="3.2661" y2="80.3312" gradientTransform="matrix(1 0 0 -1 0 213.4489)">
	<stop  offset="0.2849" style="stop-color:#606060"/>
	<stop  offset="0.5139" style="stop-color:#999999"/>
	<stop  offset="0.6613" style="stop-color:#ACACAC"/>
	<stop  offset="0.8464" style="stop-color:#6E6E6F;stop-opacity:0.9913"/>
	<stop  offset="1" style="stop-color:#606060"/>
</linearGradient>
<path style="fill:url(#SVGID_00000092456769783234414110000011269974068193751179_);" d="M1.7,108.1c1,0.7,2,1.4,3.1,2.1V131
	c-1,0.7-2,1.4-3.1,2.1C1.7,124.8,1.7,116.4,1.7,108.1z"/>
<circle cx="66.5" cy="97.9" r="1.6"/>
<image style="overflow:visible;" width="200" height="200" xlink:href="../../pepsi.png"  transform="matrix(6.436057e-02 0 0 6.436057e-02 47.7304 32.3919)">
</image>
</svg>
