<?xml version="1.0" encoding="utf-8"?>
<!-- Generator: Adobe Illustrator 25.4.1, SVG Export Plug-In . SVG Version: 6.00 Build 0)  -->
<svg version="1.1" id="Слой_1" xmlns="http://www.w3.org/2000/svg" xmlns:xlink="http://www.w3.org/1999/xlink" x="0px" y="0px"
	 viewBox="0 0 100 160" style="enable-background:new 0 0 100 160;" xml:space="preserve">
<style type="text/css">
	.st0{fill:url(#SVGID_1_);}
	.st1{opacity:0.5;fill:url(#SVGID_00000167394193359594303140000009450726459502856604_);enable-background:new    ;}
	.st2{opacity:0.5;fill:url(#SVGID_00000077316035105210117450000001993563382777463713_);enable-background:new    ;}
	.st3{fill:url(#SVGID_00000178189531195192621820000005855082462596394155_);}
	.st4{fill:url(#SVGID_00000075868112658514639000000013867753061949669054_);}
	.st5{fill:url(#SVGID_00000002385508038706767100000001370849172654539685_);}
	.st6{fill:url(#SVGID_00000078004140645775585450000015889020056167366528_);}
	.st7{fill:url(#SVGID_00000074422520054140109400000013430690315047017603_);}
	.st8{fill:url(#SVGID_00000112614554398467254680000001888664335095596221_);}
	.st9{opacity:0.53;fill:url(#SVGID_00000046331867293665086160000013352647033517315764_);enable-background:new    ;}
	.st10{opacity:0.53;fill:url(#SVGID_00000168084011493107552660000002467993914343123085_);enable-background:new    ;}
	.st11{clip-path:url(#SVGID_00000142140563515280968830000014024532166025331604_);}
	
		.st12{fill:url(#SVGID_00000107575424854916470640000002128336883528071565_);stroke:#B3B3B3;stroke-width:0.5;stroke-miterlimit:10;}
	.st13{fill:url(#SVGID_00000140703731996120313970000007792551299325738423_);}
	.st14{fill:#606060;}
	.st15{opacity:0.58;fill:url(#SVGID_00000005233292515108691830000003603975711518164911_);enable-background:new    ;}
</style>
<linearGradient id="SVGID_1_" gradientUnits="userSpaceOnUse" x1="64.2814" y1="537.0787" x2="64.2814" y2="521.5416" gradientTransform="matrix(1 0 0 1 0 -489)">
	<stop  offset="0" style="stop-color:#9F9D9D"/>
	<stop  offset="0.1816" style="stop-color:#808080"/>
	<stop  offset="0.2933" style="stop-color:#9F9D9D"/>
	<stop  offset="0.5447" style="stop-color:#CCCCCC"/>
	<stop  offset="0.6732" style="stop-color:#FFFFFF"/>
	<stop  offset="0.8687" style="stop-color:#E4E3E3"/>
	<stop  offset="1" style="stop-color:#B3B3B3"/>
</linearGradient>
<rect x="32.2" y="32.5" class="st0" width="64.2" height="15.5"/>
<linearGradient id="SVGID_00000064345121169585900030000017944579584583259302_" gradientUnits="userSpaceOnUse" x1="-515.4019" y1="-2058.6599" x2="-507.8529" y2="-2058.6599" gradientTransform="matrix(1 0 0 -1 543.2952 -2018.3496)">
	<stop  offset="0" style="stop-color:#3F3B3C"/>
	<stop  offset="1" style="stop-color:#3F3B3C;stop-opacity:0"/>
</linearGradient>
<polygon style="opacity:0.5;fill:url(#SVGID_00000064345121169585900030000017944579584583259302_);enable-background:new    ;" points="
	35.3,32.6 27.8,32.6 27.8,48 35.5,48 "/>
<linearGradient id="SVGID_00000178923411168226517200000003289825126708421303_" gradientUnits="userSpaceOnUse" x1="1815.6687" y1="-2921.0098" x2="1820.1195" y2="-2921.0098" gradientTransform="matrix(-1 0 0 1 1914.5215 2961.3201)">
	<stop  offset="0" style="stop-color:#3F3B3C"/>
	<stop  offset="1" style="stop-color:#3F3B3C;stop-opacity:0"/>
</linearGradient>
<polygon style="opacity:0.5;fill:url(#SVGID_00000178923411168226517200000003289825126708421303_);enable-background:new    ;" points="
	94.5,48 98.9,48 98.9,32.6 94.4,32.6 "/>
<linearGradient id="SVGID_00000178179917094265534240000005294787272473241517_" gradientUnits="userSpaceOnUse" x1="25.6346" y1="540.0817" x2="25.6346" y2="518.5387" gradientTransform="matrix(1 0 0 1 0 -489)">
	<stop  offset="0" style="stop-color:#9F9D9D"/>
	<stop  offset="0.1816" style="stop-color:#808080"/>
	<stop  offset="0.2933" style="stop-color:#9F9D9D"/>
	<stop  offset="0.5447" style="stop-color:#CCCCCC"/>
	<stop  offset="0.6732" style="stop-color:#FFFFFF"/>
	<stop  offset="0.8687" style="stop-color:#E4E3E3"/>
	<stop  offset="1" style="stop-color:#B3B3B3"/>
</linearGradient>
<rect x="18.9" y="29.5" style="fill:url(#SVGID_00000178179917094265534240000005294787272473241517_);" width="13.5" height="21.5"/>
<linearGradient id="SVGID_00000150062678542985152910000017786685058970220189_" gradientUnits="userSpaceOnUse" x1="97.6404" y1="539.6247" x2="97.6404" y2="519.0609" gradientTransform="matrix(1 0 0 1 0 -489)">
	<stop  offset="0" style="stop-color:#9F9D9D"/>
	<stop  offset="0.1816" style="stop-color:#808080"/>
	<stop  offset="0.2933" style="stop-color:#9F9D9D"/>
	<stop  offset="0.5447" style="stop-color:#CCCCCC"/>
	<stop  offset="0.6732" style="stop-color:#FFFFFF"/>
	<stop  offset="0.8687" style="stop-color:#E4E3E3"/>
	<stop  offset="1" style="stop-color:#B3B3B3"/>
</linearGradient>
<rect x="96.4" y="30.1" style="fill:url(#SVGID_00000150062678542985152910000017786685058970220189_);" width="2.5" height="20.6"/>
<linearGradient id="SVGID_00000152252823448924822900000006730133509334464149_" gradientUnits="userSpaceOnUse" x1="9.3468" y1="543.0225" x2="9.3468" y2="515.6694" gradientTransform="matrix(1 0 0 1 0 -489)">
	<stop  offset="0" style="stop-color:#9F9D9D"/>
	<stop  offset="0.1816" style="stop-color:#808080"/>
	<stop  offset="0.2933" style="stop-color:#9F9D9D"/>
	<stop  offset="0.5447" style="stop-color:#CCCCCC"/>
	<stop  offset="0.6732" style="stop-color:#FFFFFF"/>
	<stop  offset="0.8687" style="stop-color:#E4E3E3"/>
	<stop  offset="1" style="stop-color:#B3B3B3"/>
</linearGradient>
<rect x="4.9" y="26.6" style="fill:url(#SVGID_00000152252823448924822900000006730133509334464149_);" width="8.9" height="27.4"/>
<linearGradient id="SVGID_00000171682990270201780990000002297206461202234244_" gradientUnits="userSpaceOnUse" x1="17.4091" y1="544.1292" x2="17.4091" y2="514.4912" gradientTransform="matrix(1 0 0 1 0 -489)">
	<stop  offset="0" style="stop-color:#9F9D9D"/>
	<stop  offset="0.1816" style="stop-color:#808080"/>
	<stop  offset="0.2933" style="stop-color:#9F9D9D"/>
	<stop  offset="0.5447" style="stop-color:#CCCCCC"/>
	<stop  offset="0.6732" style="stop-color:#FFFFFF"/>
	<stop  offset="0.8687" style="stop-color:#E4E3E3"/>
	<stop  offset="1" style="stop-color:#B3B3B3"/>
</linearGradient>
<rect x="15.9" y="25.5" style="fill:url(#SVGID_00000171682990270201780990000002297206461202234244_);" width="2.9" height="29.6"/>
<linearGradient id="SVGID_00000023986386156362634210000003628892637635211409_" gradientUnits="userSpaceOnUse" x1="3.0471" y1="542.0402" x2="3.0471" y2="516.5802" gradientTransform="matrix(1 0 0 1 0 -489)">
	<stop  offset="0" style="stop-color:#9F9D9D"/>
	<stop  offset="0.1816" style="stop-color:#808080"/>
	<stop  offset="0.2933" style="stop-color:#9F9D9D"/>
	<stop  offset="0.5447" style="stop-color:#CCCCCC"/>
	<stop  offset="0.6732" style="stop-color:#FFFFFF"/>
	<stop  offset="0.8687" style="stop-color:#E4E3E3"/>
	<stop  offset="1" style="stop-color:#B3B3B3"/>
</linearGradient>
<path style="fill:url(#SVGID_00000023986386156362634210000003628892637635211409_);" d="M4.9,53c-1.2-1.2-2.5-2.3-3.7-3.5V31
	c1.2-1.2,2.5-2.4,3.7-3.5C4.9,36.1,4.9,44.6,4.9,53z"/>
<linearGradient id="SVGID_00000099635670255581501520000012744641921294981521_" gradientUnits="userSpaceOnUse" x1="14.8631" y1="544.1292" x2="14.8631" y2="514.4912" gradientTransform="matrix(1 0 0 1 0 -489)">
	<stop  offset="0" style="stop-color:#9F9D9D"/>
	<stop  offset="0.1816" style="stop-color:#808080"/>
	<stop  offset="0.2933" style="stop-color:#9F9D9D"/>
	<stop  offset="0.5447" style="stop-color:#CCCCCC"/>
	<stop  offset="0.6732" style="stop-color:#FFFFFF"/>
	<stop  offset="0.8687" style="stop-color:#E4E3E3"/>
	<stop  offset="1" style="stop-color:#B3B3B3"/>
</linearGradient>
<path style="fill:url(#SVGID_00000099635670255581501520000012744641921294981521_);" d="M15.9,55.1c-0.7-0.4-1.4-0.8-2.2-1.1V26.6
	c0.7-0.4,1.4-0.8,2.2-1.1C15.9,35.3,15.9,45.3,15.9,55.1z"/>
<linearGradient id="SVGID_00000026122067414838413810000005172794754052420515_" gradientUnits="userSpaceOnUse" x1="4.9296" y1="529.3102" x2="1.2085" y2="529.3102" gradientTransform="matrix(1 0 0 1 0 -489)">
	<stop  offset="0" style="stop-color:#B3B3B3;stop-opacity:0.5"/>
	<stop  offset="1" style="stop-color:#B3B3B3;stop-opacity:0"/>
</linearGradient>
<path style="opacity:0.53;fill:url(#SVGID_00000026122067414838413810000005172794754052420515_);enable-background:new    ;" d="
	M4.9,53c-1.2-1.2-2.5-2.3-3.7-3.5V31c1.2-1.2,2.5-2.4,3.7-3.5C4.9,36.1,4.9,44.6,4.9,53z"/>
<linearGradient id="SVGID_00000058552186141153326970000000232659467575606450_" gradientUnits="userSpaceOnUse" x1="15.9431" y1="529.3102" x2="13.7888" y2="529.3102" gradientTransform="matrix(1 0 0 1 0 -489)">
	<stop  offset="0" style="stop-color:#B3B3B3;stop-opacity:0.5"/>
	<stop  offset="1" style="stop-color:#B3B3B3;stop-opacity:0"/>
</linearGradient>
<path style="opacity:0.53;fill:url(#SVGID_00000058552186141153326970000000232659467575606450_);enable-background:new    ;" d="
	M15.9,55.1c-0.7-0.4-1.4-0.8-2.2-1.1V26.6c0.7-0.4,1.4-0.8,2.2-1.1C15.9,35.3,15.9,45.3,15.9,55.1z"/>
<g>
	<g>
		<defs>
			<path id="SVGID_00000046316920047682752640000017387632032109188744_" d="M96.3,107.6v2.5h-64v-3H18.8v-4h-2.9
				c-0.7,0.3-1.4,0.7-2.2,1.1l0,0H4.9v0.9c-1.2,1.2-2.5,2.3-3.7,3.5v18.6c1.2,1.2,2.5,2.3,3.7,3.5v0.9h8.9l0,0
				c0.7,0.3,1.4,0.7,2.2,1.1h2.9v-4h13.5v-2.9h64v2.5h2.5v-2.6v-15.4v-2.6L96.3,107.6L96.3,107.6z"/>
		</defs>
		<clipPath id="SVGID_00000018926507472598019600000006822910891804224950_">
			<use xlink:href="#SVGID_00000046316920047682752640000017387632032109188744_"  style="overflow:visible;"/>
		</clipPath>
		<g style="clip-path:url(#SVGID_00000018926507472598019600000006822910891804224950_);">
			
				<image style="overflow:visible;enable-background:new    ;" width="1200" height="900" xlink:href="../../Фитинги/Резьбовые/Металл.jpg"  transform="matrix(0.1145 0 0 0.1145 -7.1876 88.0815)">
			</image>
		</g>
	</g>
</g>
<linearGradient id="SVGID_00000013877934206479706680000004356494956749410699_" gradientUnits="userSpaceOnUse" x1="49.6031" y1="18.1829" x2="49.9781" y2="39.5592" gradientTransform="matrix(1 0 0 -1 0 162)">
	<stop  offset="0" style="stop-color:#3F3B3C"/>
	<stop  offset="1" style="stop-color:#3F3B3C;stop-opacity:0"/>
</linearGradient>
<path style="fill:url(#SVGID_00000013877934206479706680000004356494956749410699_);stroke:#B3B3B3;stroke-width:0.5;stroke-miterlimit:10;" d="
	M96.3,107.6v2.5h-64v-3H18.8v-4h-2.9c-0.7,0.3-1.4,0.7-2.2,1.1l0,0H4.9v0.9c-1.2,1.2-2.5,2.3-3.7,3.5v18.6c1.2,1.2,2.5,2.3,3.7,3.5
	v0.9h8.9l0,0c0.7,0.3,1.4,0.7,2.2,1.1h2.9v-4h13.5v-2.9h64v2.5h2.5v-2.6v-15.4v-2.6H96.3z"/>
<linearGradient id="SVGID_00000046328519354204677370000014540890481410897047_" gradientUnits="userSpaceOnUse" x1="53.3141" y1="601.5624" x2="53.3141" y2="612.1381" gradientTransform="matrix(1 0 0 1 0 -489)">
	<stop  offset="0.2849" style="stop-color:#606060"/>
	<stop  offset="0.5139" style="stop-color:#999999"/>
	<stop  offset="0.6613" style="stop-color:#ACACAC"/>
	<stop  offset="0.8464" style="stop-color:#6E6E6F;stop-opacity:0.9913"/>
	<stop  offset="1" style="stop-color:#606060"/>
</linearGradient>
<rect x="7.6" y="112.6" style="fill:url(#SVGID_00000046328519354204677370000014540890481410897047_);" width="91.3" height="10.6"/>
<path class="st14" d="M7.7,123.1c-2.2,1.3-4.4,2.6-6.6,3.9c0-6.1,0-12.1,0-18.3c2.2,1.3,4.4,2.5,6.6,3.9V123.1z"/>
<linearGradient id="SVGID_00000157274072178472979750000009765073400934975372_" gradientUnits="userSpaceOnUse" x1="4.418" y1="597.7911" x2="4.418" y2="616.0284" gradientTransform="matrix(1 0 0 1 0 -489)">
	<stop  offset="0.2849" style="stop-color:#606060"/>
	<stop  offset="0.5139" style="stop-color:#999999"/>
	<stop  offset="0.6613" style="stop-color:#ACACAC;stop-opacity:0.76"/>
	<stop  offset="0.8464" style="stop-color:#6E6E6F;stop-opacity:0.9913"/>
	<stop  offset="1" style="stop-color:#606060"/>
</linearGradient>
<path style="opacity:0.58;fill:url(#SVGID_00000157274072178472979750000009765073400934975372_);enable-background:new    ;" d="
	M7.7,123.1c-2.2,1.3-4.4,2.6-6.6,3.9c0-6.1,0-12.1,0-18.3c2.2,1.3,4.4,2.5,6.6,3.9V123.1z"/>
<image style="overflow:visible;" width="200" height="200" xlink:href="../../pepsi.png"  transform="matrix(3.907877e-02 0 0 3.907877e-02 60.3736 35.7752)">
</image>
</svg>
