<?xml version="1.0" encoding="utf-8"?>
<!-- Generator: Adobe Illustrator 25.4.1, SVG Export Plug-In . SVG Version: 6.00 Build 0)  -->
<svg version="1.1" id="Слой_1" xmlns="http://www.w3.org/2000/svg" xmlns:xlink="http://www.w3.org/1999/xlink" x="0px" y="0px"
	 viewBox="0 0 200 320" style="enable-background:new 0 0 200 320;" xml:space="preserve">
<style type="text/css">
	.st0{fill:url(#SVGID_00000132771371561208036260000009463296201530180508_);}
	.st1{fill:url(#SVGID_00000094587040166866496940000001945560595488879263_);}
	.st2{opacity:0.5;fill:url(#SVGID_00000147183193234595945730000006803683391022243985_);enable-background:new    ;}
	.st3{fill:url(#SVGID_00000049924610918565096920000014630356577993260949_);}
	.st4{fill:url(#SVGID_00000103231216963170399660000010009878090999908007_);}
	.st5{fill:url(#SVGID_00000161613986687825596670000010150393551006409384_);}
	.st6{fill:url(#SVGID_00000172405865281082573050000015961510196008776106_);}
	.st7{fill:url(#SVGID_00000049199836865614922190000000431909879244405159_);}
	.st8{fill:url(#SVGID_00000075865717446947315080000000353567161409857435_);}
	.st9{fill:url(#SVGID_00000132046827917726123840000009348859840885585569_);}
	.st10{fill:url(#SVGID_00000160184564610992362180000012629046599478198427_);}
	.st11{fill:url(#SVGID_00000155113705590995384180000005673115719394014851_);}
	.st12{fill:url(#SVGID_00000055693528079918364630000014135834732279987594_);}
	.st13{fill:url(#SVGID_00000001661978968997084700000011679099347926617012_);}
	.st14{fill:url(#SVGID_00000182518371311585247070000015375429730911451528_);}
	.st15{fill:url(#SVGID_00000111891537798994550990000018010810738031872158_);}
	.st16{fill:url(#SVGID_00000076587914115694710730000000866641569706216615_);}
	.st17{fill:url(#SVGID_00000181796322904281079810000014273900335841037973_);}
	.st18{fill:url(#SVGID_00000000928008679884314240000011526675730046355367_);}
	.st19{fill:url(#SVGID_00000006687554282779019200000006908243336273765012_);}
	.st20{fill:url(#SVGID_00000015339133994329568690000017413345636652835500_);}
	.st21{opacity:0.5;fill:url(#SVGID_00000090979743395468262470000018375848092780811679_);enable-background:new    ;}
	.st22{opacity:0.5;fill:url(#SVGID_00000078013012342341760480000000076509929839218602_);enable-background:new    ;}
	.st23{opacity:0.5;fill:url(#SVGID_00000121241671439402437390000008431866382358057610_);enable-background:new    ;}
	.st24{fill:url(#SVGID_00000039848632216182395160000012067287749318426752_);}
	.st25{fill:#FFFFFF;}
	.st26{fill:#6B6B6B;}
	.st27{fill:#D3D3D3;}
	.st28{fill:url(#SVGID_00000123440085519152917880000008208949805929982907_);}
	.st29{fill:url(#SVGID_00000063622602003531663210000016356239973927734971_);}
	.st30{fill:url(#SVGID_00000021828332317711499330000002577424231882193045_);}
	.st31{fill:url(#SVGID_00000180342426403868368910000000261474818992820653_);}
	.st32{fill:url(#SVGID_00000080915663152488295180000016305889116444784033_);}
	.st33{fill:url(#SVGID_00000083086944554230600890000013745341159766737333_);}
	.st34{opacity:0.53;fill:url(#SVGID_00000020361679860030364350000004065546996039928712_);enable-background:new    ;}
	.st35{fill:url(#SVGID_00000047038336565753481150000013627241368355143044_);}
	.st36{fill:url(#SVGID_00000125571007889529120240000013792522307593222531_);}
	.st37{fill:url(#SVGID_00000140697434038527165610000015423640477601928087_);}
	.st38{fill:url(#SVGID_00000070812817337735380330000003103400899126287496_);}
	.st39{fill:url(#SVGID_00000028283026002465194050000008957508613421786519_);}
	.st40{fill:url(#SVGID_00000121969762274110594220000001910598514288531384_);}
	.st41{fill:url(#SVGID_00000173160470107332730880000013769563022524232073_);}
	.st42{fill:url(#SVGID_00000127025333445420740400000011502680189466454413_);}
	.st43{fill:url(#SVGID_00000067216365962406024310000006308204379930396563_);}
	.st44{fill:url(#SVGID_00000157280881852116590440000001347624500627179920_);}
	.st45{fill:url(#SVGID_00000068667022036726685570000003791959829823926974_);}
	.st46{fill:url(#SVGID_00000029750507155093761400000000236907832225482125_);}
	.st47{fill:url(#SVGID_00000011728455636309975030000012095022740515851648_);}
	.st48{fill:url(#SVGID_00000072244807524934057340000012163522884458656396_);}
	.st49{fill:url(#SVGID_00000076569441589212885740000009857208638857848733_);}
	.st50{fill:url(#SVGID_00000075142483606606213960000007184325230866514831_);}
	.st51{fill:url(#SVGID_00000132086624166860860840000015056084035255347364_);}
	.st52{fill:url(#SVGID_00000070103002676578631250000009791975218395497882_);}
	.st53{fill:url(#SVGID_00000174595463509904813490000010022335028652116919_);}
	.st54{fill:url(#SVGID_00000047749407893980327160000009828107500656619197_);}
	.st55{fill:url(#SVGID_00000008833086480729785420000015008192059510130846_);}
	.st56{fill:url(#SVGID_00000022555645109789179720000013617933127691775151_);}
</style>
<g>
	<defs>
		<path id="SVGID_1_" d="M190,199.8v-1.6h-8.8v-1.6c0,0-12.9-0.4-14.3-0.5l-4.2-6.4c-1.2,2.1-2.3,4.2-3.5,6.4l-4.2-6.4
			c-1.2,2.1-2.3,4.2-3.5,6.4l-4.2-6.4c-1.2,2.1-2.3,4.2-3.5,6.4l-4.2-6.4c-1.2,2.1-2.3,4.2-3.5,6.4l-4.2-6.4
			c-1.2,2.1-2.3,4.2-3.5,6.4l-4.2-6.4c-1.2,2.1-3.5,6.4-3.5,6.4l-4.2-6.4l-3.8,6.4l0,0h-7.7v-3.4l0,0c0-3.6,0-7.4-0.1-11.1l-5.1-9
			H63.6l-5.5,9v11.1v4.6v13.5c0,0-5.6-0.1-6.6-0.1l-2.5-3.9l0,0c-0.7,1.3-1.4,2.6-2.1,3.9l-2.5-3.9l0,0c-0.7,1.3-1.4,2.6-2.1,3.9
			l-2.5-3.9l0,0c-0.7,1.3-1.4,2.6-2.1,3.9l-2.5-3.9l0,0c-0.7,1.3-1.4,2.6-2.1,3.9l-2.5-3.9l0,0c-0.7,1.3-1.4,2.6-2.1,3.9l-2.5-3.9
			l0,0c-0.7,1.3-1.4,2.6-2.1,3.9l-2.5-3.9l0,0l-2.3,3.9v0.3h-6.1v0.9H7.7v0.4c-1.3,2.1-2.6,4-3.9,6.1V256c1.3,2.1,2.6,4,3.9,6.1v0.4
			h5.5v0.9c0,0,7.7,0.1,8.6,0.3l2.5,3.9l2.1-4.3c0.9,1.4,1.7,2.9,2.6,4.3l0,0l2.1-4.3c0.9,1.4,1.7,2.9,2.6,4.3l2.1-4.3
			c0.8,1.4,1.7,2.9,2.5,4.3l2.1-4.3c0.8,1.4,1.7,2.9,2.5,4.3l2.1-4.3c0.8,1.4,1.7,2.9,2.5,4.3l2.1-4.3c0.8,1.4,1.7,2.9,2.5,4.3
			l2.1-4.3l0,0h3.8v15.4l0,0c0,5.2,0,10.4,0,15.7l5.5,9l0,0h36.7h0.1l5.1-9.1v-11.7v-2.6h7.7l0,0c1.6,0.1,3.3,0.3,4.8,0.4l4.2,6.4
			l3.5-6.8c1.4,2.2,2.7,4.6,4.2,6.8l3.5-6.8c1.4,2.2,2.7,4.6,4.2,6.8l3.5-6.8c1.4,2.2,2.7,4.6,4.2,6.8l3.5-6.8
			c1.4,2.2,2.7,4.6,4.2,6.8l3.5-6.8c1.4,2.2,2.7,4.6,4.2,6.8c1.2-2.2,2.3-4.6,3.5-6.8c1.4,2.2,2.7,4.6,4.2,6.8l0,0l3.4-6.6h9.9v-1.6
			h8.8v-1.6c2.1-3.1,4.3-6.4,6.4-9.5v-58.7C194.2,206.1,192.1,203,190,199.8z"/>
	</defs>
	<clipPath id="SVGID_00000016790139279336844360000016266270265877860509_">
		<use xlink:href="#SVGID_1_"  style="overflow:visible;"/>
	</clipPath>
	<g style="clip-path:url(#SVGID_00000016790139279336844360000016266270265877860509_);">
		
			<image style="overflow:visible;" width="600" height="600" xlink:href="../../background.jpg"  transform="matrix(0.3925 0 0 0.3925 -22.4522 120.2556)">
		</image>
	</g>
	<use xlink:href="#SVGID_1_"  style="overflow:visible;fill:none;stroke:#C2C2C2;stroke-miterlimit:10;"/>
</g>
<linearGradient id="SVGID_00000149360912575059030420000013580195073591685015_" gradientUnits="userSpaceOnUse" x1="142.2069" y1="120.1693" x2="142.2069" y2="76.0607" gradientTransform="matrix(1 0 0 -1 0 336.4489)">
	<stop  offset="0.2849" style="stop-color:#606060"/>
	<stop  offset="0.5139" style="stop-color:#999999"/>
	<stop  offset="0.6613" style="stop-color:#ACACAC"/>
	<stop  offset="0.8464" style="stop-color:#6E6E6F;stop-opacity:0.9913"/>
	<stop  offset="1" style="stop-color:#606060"/>
</linearGradient>
<rect x="96.1" y="216.3" style="fill:url(#SVGID_00000149360912575059030420000013580195073591685015_);" width="92.3" height="44.1"/>
<linearGradient id="SVGID_00000168099486855334095590000000561238333445579952_" gradientUnits="userSpaceOnUse" x1="185.5999" y1="502.7355" x2="185.5999" y2="422.0649" gradientTransform="matrix(1 0 0 1 0 -384)">
	<stop  offset="0" style="stop-color:#9F9D9D"/>
	<stop  offset="0.1816" style="stop-color:#808080"/>
	<stop  offset="0.2933" style="stop-color:#9F9D9D"/>
	<stop  offset="0.5447" style="stop-color:#CCCCCC"/>
	<stop  offset="0.6732" style="stop-color:#FFFFFF"/>
	<stop  offset="0.8687" style="stop-color:#E4E3E3"/>
	<stop  offset="1" style="stop-color:#B3B3B3"/>
</linearGradient>
<rect x="181.2" y="38.1" style="fill:url(#SVGID_00000168099486855334095590000000561238333445579952_);" width="8.8" height="80.7"/>
<linearGradient id="SVGID_00000104706489154088507670000006031301201477693592_" gradientUnits="userSpaceOnUse" x1="-371.4688" y1="-2843.301" x2="-359.0307" y2="-2843.301" gradientTransform="matrix(1 0 0 -1 543.2952 -2764.9009)">
	<stop  offset="0" style="stop-color:#3F3B3C"/>
	<stop  offset="1" style="stop-color:#3F3B3C;stop-opacity:0"/>
</linearGradient>
<polygon style="opacity:0.5;fill:url(#SVGID_00000104706489154088507670000006031301201477693592_);enable-background:new    ;" points="
	184,38.1 171.7,38.1 171.7,118.7 184.3,118.7 "/>
<linearGradient id="SVGID_00000135648758852145127410000004057158787222055614_" gradientUnits="userSpaceOnUse" x1="99.7898" y1="504.1667" x2="99.7898" y2="420.1132" gradientTransform="matrix(1 0 0 1 0 -384)">
	<stop  offset="0" style="stop-color:#9F9D9D"/>
	<stop  offset="0.1816" style="stop-color:#808080"/>
	<stop  offset="0.2933" style="stop-color:#9F9D9D"/>
	<stop  offset="0.5447" style="stop-color:#CCCCCC"/>
	<stop  offset="0.6732" style="stop-color:#FFFFFF"/>
	<stop  offset="0.8687" style="stop-color:#E4E3E3"/>
	<stop  offset="1" style="stop-color:#B3B3B3"/>
</linearGradient>
<rect x="86.5" y="36.1" style="fill:url(#SVGID_00000135648758852145127410000004057158787222055614_);" width="26.7" height="84.1"/>
<linearGradient id="SVGID_00000019650567956823424060000007598346178543697840_" gradientUnits="userSpaceOnUse" x1="58.1533" y1="487.3411" x2="58.1533" y2="434.9052" gradientTransform="matrix(1 0 0 1 0 -384)">
	<stop  offset="0" style="stop-color:#9F9D9D"/>
	<stop  offset="0.1816" style="stop-color:#808080"/>
	<stop  offset="0.2933" style="stop-color:#9F9D9D"/>
	<stop  offset="0.5447" style="stop-color:#CCCCCC"/>
	<stop  offset="0.6732" style="stop-color:#FFFFFF"/>
	<stop  offset="0.8687" style="stop-color:#E4E3E3"/>
	<stop  offset="1" style="stop-color:#B3B3B3"/>
</linearGradient>
<rect x="54.3" y="50.8" style="fill:url(#SVGID_00000019650567956823424060000007598346178543697840_);" width="7.7" height="52.4"/>
<linearGradient id="SVGID_00000106139886566250463450000004136267912356790954_" gradientUnits="userSpaceOnUse" x1="121.2586" y1="404.9327" x2="121.2586" y2="307.7376" gradientTransform="matrix(1 0 0 1 0 -278)">
	<stop  offset="0" style="stop-color:#B3B3B3"/>
	<stop  offset="0.25" style="stop-color:#666666"/>
	<stop  offset="0.4162" style="stop-color:#D1D3D4"/>
	<stop  offset="0.5168" style="stop-color:#CCCCCC"/>
	<stop  offset="0.662" style="stop-color:#F1F2F2"/>
	<stop  offset="0.8519" style="stop-color:#CCCCCC"/>
	<stop  offset="0.919" style="stop-color:#E6E7E8"/>
	<stop  offset="1" style="stop-color:#919396"/>
</linearGradient>
<polygon style="fill:url(#SVGID_00000106139886566250463450000004136267912356790954_);" points="116.9,29.7 121.1,36 125.6,120.2 
	122.1,126.9 "/>
<linearGradient id="SVGID_00000001635562905321957680000011683521502296033456_" gradientUnits="userSpaceOnUse" x1="-6355.2451" y1="-377.3763" x2="-6355.2451" y2="-285.6828" gradientTransform="matrix(-1 0 0 1.06 -6237.6299 442.2701)">
	<stop  offset="0" style="stop-color:#939598"/>
	<stop  offset="0.1927" style="stop-color:#6D6E71"/>
	<stop  offset="0.39" style="stop-color:#808080"/>
	<stop  offset="0.6606" style="stop-color:#CCCCCC"/>
	<stop  offset="0.8658" style="stop-color:#808285"/>
	<stop  offset="0.9715" style="stop-color:#B3B3B3"/>
</linearGradient>
<polygon style="fill:url(#SVGID_00000001635562905321957680000011683521502296033456_);" points="116.9,29.7 122.1,126.9 
	117.9,120.6 113.1,36 "/>
<linearGradient id="SVGID_00000000221679411651916720000018223392948144206733_" gradientUnits="userSpaceOnUse" x1="128.8702" y1="404.9327" x2="128.8702" y2="307.7376" gradientTransform="matrix(1 0 0 1 0 -278)">
	<stop  offset="0" style="stop-color:#B3B3B3"/>
	<stop  offset="0.25" style="stop-color:#666666"/>
	<stop  offset="0.4162" style="stop-color:#D1D3D4"/>
	<stop  offset="0.5168" style="stop-color:#CCCCCC"/>
	<stop  offset="0.662" style="stop-color:#F1F2F2"/>
	<stop  offset="0.8519" style="stop-color:#CCCCCC"/>
	<stop  offset="0.919" style="stop-color:#E6E7E8"/>
	<stop  offset="1" style="stop-color:#919396"/>
</linearGradient>
<polygon style="fill:url(#SVGID_00000000221679411651916720000018223392948144206733_);" points="124.6,29.7 128.7,36 133.2,120.2 
	129.8,126.9 "/>
<linearGradient id="SVGID_00000083797827153077707040000017503681931760760971_" gradientUnits="userSpaceOnUse" x1="173.2391" y1="504.2517" x2="173.2391" y2="420.5885" gradientTransform="matrix(1 0 0 1 0 -384)">
	<stop  offset="0" style="stop-color:#9F9D9D"/>
	<stop  offset="0.1816" style="stop-color:#808080"/>
	<stop  offset="0.2933" style="stop-color:#9F9D9D"/>
	<stop  offset="0.5447" style="stop-color:#CCCCCC"/>
	<stop  offset="0.6732" style="stop-color:#FFFFFF"/>
	<stop  offset="0.8687" style="stop-color:#E4E3E3"/>
	<stop  offset="1" style="stop-color:#B3B3B3"/>
</linearGradient>
<rect x="165.2" y="36.5" style="fill:url(#SVGID_00000083797827153077707040000017503681931760760971_);" width="16.1" height="83.7"/>
<linearGradient id="SVGID_00000069378027340137733220000014673610438827037617_" gradientUnits="userSpaceOnUse" x1="-6363.0522" y1="-377.3763" x2="-6363.0522" y2="-285.6828" gradientTransform="matrix(-1 0 0 1.06 -6237.6299 442.2701)">
	<stop  offset="0" style="stop-color:#939598"/>
	<stop  offset="0.1927" style="stop-color:#6D6E71"/>
	<stop  offset="0.39" style="stop-color:#808080"/>
	<stop  offset="0.6606" style="stop-color:#CCCCCC"/>
	<stop  offset="0.8658" style="stop-color:#808285"/>
	<stop  offset="0.9715" style="stop-color:#B3B3B3"/>
</linearGradient>
<path style="fill:url(#SVGID_00000069378027340137733220000014673610438827037617_);" d="M124.6,29.7l5.2,97.2
	c-1.4-2.2-2.7-4.6-4.2-6.8c-1.6-28-3-56.1-4.6-84.1C122.2,33.9,123.4,31.8,124.6,29.7z"/>
<linearGradient id="SVGID_00000142154391357591264280000007624049442963953581_" gradientUnits="userSpaceOnUse" x1="10.4666" y1="486.4173" x2="10.4666" y2="435.8771" gradientTransform="matrix(1 0 0 1 0 -384)">
	<stop  offset="0" style="stop-color:#9F9D9D"/>
	<stop  offset="0.1816" style="stop-color:#808080"/>
	<stop  offset="0.2933" style="stop-color:#9F9D9D"/>
	<stop  offset="0.5447" style="stop-color:#CCCCCC"/>
	<stop  offset="0.6732" style="stop-color:#FFFFFF"/>
	<stop  offset="0.8687" style="stop-color:#E4E3E3"/>
	<stop  offset="1" style="stop-color:#B3B3B3"/>
</linearGradient>
<rect x="7.7" y="51.9" style="fill:url(#SVGID_00000142154391357591264280000007624049442963953581_);" width="5.5" height="50.5"/>
<linearGradient id="SVGID_00000051378341858378881810000004028642612966297479_" gradientUnits="userSpaceOnUse" x1="136.4819" y1="404.9327" x2="136.4819" y2="307.7376" gradientTransform="matrix(1 0 0 1 0 -278)">
	<stop  offset="0" style="stop-color:#B3B3B3"/>
	<stop  offset="0.25" style="stop-color:#666666"/>
	<stop  offset="0.4162" style="stop-color:#D1D3D4"/>
	<stop  offset="0.5168" style="stop-color:#CCCCCC"/>
	<stop  offset="0.662" style="stop-color:#F1F2F2"/>
	<stop  offset="0.8519" style="stop-color:#CCCCCC"/>
	<stop  offset="0.919" style="stop-color:#E6E7E8"/>
	<stop  offset="1" style="stop-color:#919396"/>
</linearGradient>
<polygon style="fill:url(#SVGID_00000051378341858378881810000004028642612966297479_);" points="132.1,29.7 136.3,36 140.8,120.2 
	137.3,126.9 "/>
<linearGradient id="SVGID_00000004523892169577300950000002864181207945789840_" gradientUnits="userSpaceOnUse" x1="-6370.5986" y1="-377.3763" x2="-6370.5986" y2="-285.6828" gradientTransform="matrix(-1 0 0 1.06 -6237.6299 442.2701)">
	<stop  offset="0" style="stop-color:#939598"/>
	<stop  offset="0.1927" style="stop-color:#6D6E71"/>
	<stop  offset="0.39" style="stop-color:#808080"/>
	<stop  offset="0.6606" style="stop-color:#CCCCCC"/>
	<stop  offset="0.8658" style="stop-color:#808285"/>
	<stop  offset="0.9715" style="stop-color:#B3B3B3"/>
</linearGradient>
<path style="fill:url(#SVGID_00000004523892169577300950000002864181207945789840_);" d="M132.1,29.7l5.2,97.2
	c-1.4-2.2-2.7-4.6-4.2-6.8c-1.6-28-3-56.1-4.6-84.1C129.8,33.9,131,31.8,132.1,29.7z"/>
<linearGradient id="SVGID_00000026160930621449811000000007185891983145858214_" gradientUnits="userSpaceOnUse" x1="144.0936" y1="404.9327" x2="144.0936" y2="307.7376" gradientTransform="matrix(1 0 0 1 0 -278)">
	<stop  offset="0" style="stop-color:#B3B3B3"/>
	<stop  offset="0.25" style="stop-color:#666666"/>
	<stop  offset="0.4162" style="stop-color:#D1D3D4"/>
	<stop  offset="0.5168" style="stop-color:#CCCCCC"/>
	<stop  offset="0.662" style="stop-color:#F1F2F2"/>
	<stop  offset="0.8519" style="stop-color:#CCCCCC"/>
	<stop  offset="0.919" style="stop-color:#E6E7E8"/>
	<stop  offset="1" style="stop-color:#919396"/>
</linearGradient>
<polygon style="fill:url(#SVGID_00000026160930621449811000000007185891983145858214_);" points="139.8,29.7 144,36 148.4,120.2 
	145,126.9 "/>
<linearGradient id="SVGID_00000064352001598911593960000016500146355476457114_" gradientUnits="userSpaceOnUse" x1="-6378.2754" y1="-377.3763" x2="-6378.2754" y2="-285.6828" gradientTransform="matrix(-1 0 0 1.06 -6237.6299 442.2701)">
	<stop  offset="0" style="stop-color:#939598"/>
	<stop  offset="0.1927" style="stop-color:#6D6E71"/>
	<stop  offset="0.39" style="stop-color:#808080"/>
	<stop  offset="0.6606" style="stop-color:#CCCCCC"/>
	<stop  offset="0.8658" style="stop-color:#808285"/>
	<stop  offset="0.9715" style="stop-color:#B3B3B3"/>
</linearGradient>
<path style="fill:url(#SVGID_00000064352001598911593960000016500146355476457114_);" d="M139.8,29.7l5.2,97.2
	c-1.4-2.2-2.7-4.6-4.2-6.8c-1.6-28-3-56.1-4.6-84.1C137.5,33.9,138.6,31.8,139.8,29.7z"/>
<linearGradient id="SVGID_00000127007635267397619140000012090507625550448516_" gradientUnits="userSpaceOnUse" x1="151.7052" y1="404.9327" x2="151.7052" y2="307.7376" gradientTransform="matrix(1 0 0 1 0 -278)">
	<stop  offset="0" style="stop-color:#B3B3B3"/>
	<stop  offset="0.25" style="stop-color:#666666"/>
	<stop  offset="0.4162" style="stop-color:#D1D3D4"/>
	<stop  offset="0.5168" style="stop-color:#CCCCCC"/>
	<stop  offset="0.662" style="stop-color:#F1F2F2"/>
	<stop  offset="0.8519" style="stop-color:#CCCCCC"/>
	<stop  offset="0.919" style="stop-color:#E6E7E8"/>
	<stop  offset="1" style="stop-color:#919396"/>
</linearGradient>
<polygon style="fill:url(#SVGID_00000127007635267397619140000012090507625550448516_);" points="147.3,29.7 151.5,36 156.1,120.2 
	152.6,126.9 "/>
<linearGradient id="SVGID_00000129895779260384557110000014786644069532675505_" gradientUnits="userSpaceOnUse" x1="-6385.8223" y1="-377.3763" x2="-6385.8223" y2="-285.6828" gradientTransform="matrix(-1 0 0 1.06 -6237.6299 442.2701)">
	<stop  offset="0" style="stop-color:#939598"/>
	<stop  offset="0.1927" style="stop-color:#6D6E71"/>
	<stop  offset="0.39" style="stop-color:#808080"/>
	<stop  offset="0.6606" style="stop-color:#CCCCCC"/>
	<stop  offset="0.8658" style="stop-color:#808285"/>
	<stop  offset="0.9715" style="stop-color:#B3B3B3"/>
</linearGradient>
<path style="fill:url(#SVGID_00000129895779260384557110000014786644069532675505_);" d="M147.3,29.7l5.2,97.2
	c-1.4-2.2-2.7-4.6-4.2-6.8c-1.6-28-3-56.1-4.6-84.1C145.1,33.9,146.2,31.8,147.3,29.7z"/>
<linearGradient id="SVGID_00000052062805592947632440000008403565815274211514_" gradientUnits="userSpaceOnUse" x1="159.3169" y1="404.9327" x2="159.3169" y2="307.7376" gradientTransform="matrix(1 0 0 1 0 -278)">
	<stop  offset="0" style="stop-color:#B3B3B3"/>
	<stop  offset="0.25" style="stop-color:#666666"/>
	<stop  offset="0.4162" style="stop-color:#D1D3D4"/>
	<stop  offset="0.5168" style="stop-color:#CCCCCC"/>
	<stop  offset="0.662" style="stop-color:#F1F2F2"/>
	<stop  offset="0.8519" style="stop-color:#CCCCCC"/>
	<stop  offset="0.919" style="stop-color:#E6E7E8"/>
	<stop  offset="1" style="stop-color:#919396"/>
</linearGradient>
<polygon style="fill:url(#SVGID_00000052062805592947632440000008403565815274211514_);" points="155,29.7 159.2,36 163.6,120.2 
	160.2,126.9 "/>
<linearGradient id="SVGID_00000021114118072983239950000013727384012737171107_" gradientUnits="userSpaceOnUse" x1="-6393.4985" y1="-377.3763" x2="-6393.4985" y2="-285.6828" gradientTransform="matrix(-1 0 0 1.06 -6237.6299 442.2701)">
	<stop  offset="0" style="stop-color:#939598"/>
	<stop  offset="0.1927" style="stop-color:#6D6E71"/>
	<stop  offset="0.39" style="stop-color:#808080"/>
	<stop  offset="0.6606" style="stop-color:#CCCCCC"/>
	<stop  offset="0.8658" style="stop-color:#808285"/>
	<stop  offset="0.9715" style="stop-color:#B3B3B3"/>
</linearGradient>
<path style="fill:url(#SVGID_00000021114118072983239950000013727384012737171107_);" d="M155,29.7l5.2,97.2
	c-1.4-2.2-2.7-4.6-4.2-6.8c-1.6-28-3-56.1-4.6-84.1C152.7,33.9,153.9,31.8,155,29.7z"/>
<linearGradient id="SVGID_00000117664861701445782460000011724426381417735813_" gradientUnits="userSpaceOnUse" x1="166.9285" y1="404.9327" x2="166.9285" y2="307.7376" gradientTransform="matrix(1 0 0 1 0 -278)">
	<stop  offset="0" style="stop-color:#B3B3B3"/>
	<stop  offset="0.25" style="stop-color:#666666"/>
	<stop  offset="0.4162" style="stop-color:#D1D3D4"/>
	<stop  offset="0.5168" style="stop-color:#CCCCCC"/>
	<stop  offset="0.662" style="stop-color:#F1F2F2"/>
	<stop  offset="0.8519" style="stop-color:#CCCCCC"/>
	<stop  offset="0.919" style="stop-color:#E6E7E8"/>
	<stop  offset="1" style="stop-color:#919396"/>
</linearGradient>
<polygon style="fill:url(#SVGID_00000117664861701445782460000011724426381417735813_);" points="162.6,29.7 166.7,36 171.3,120.2 
	167.8,126.9 "/>
<linearGradient id="SVGID_00000120561042102980646990000007096789008639618698_" gradientUnits="userSpaceOnUse" x1="-6401.0454" y1="-377.3763" x2="-6401.0454" y2="-285.6828" gradientTransform="matrix(-1 0 0 1.06 -6237.6299 442.2701)">
	<stop  offset="0" style="stop-color:#939598"/>
	<stop  offset="0.1927" style="stop-color:#6D6E71"/>
	<stop  offset="0.39" style="stop-color:#808080"/>
	<stop  offset="0.6606" style="stop-color:#CCCCCC"/>
	<stop  offset="0.8658" style="stop-color:#808285"/>
	<stop  offset="0.9715" style="stop-color:#B3B3B3"/>
</linearGradient>
<path style="fill:url(#SVGID_00000120561042102980646990000007096789008639618698_);" d="M162.6,29.7l5.2,97.2
	c-1.4-2.2-2.7-4.6-4.2-6.8c-1.6-28-3-56.1-4.6-84.1C160.4,33.9,161.4,31.8,162.6,29.7z"/>
<linearGradient id="SVGID_00000051356202546439214860000008306637717713417611_" gradientUnits="userSpaceOnUse" x1="-447.8195" y1="-2842.9758" x2="-432.0717" y2="-2842.9758" gradientTransform="matrix(1 0 0 -1 543.2952 -2764.9009)">
	<stop  offset="0" style="stop-color:#3F3B3C"/>
	<stop  offset="1" style="stop-color:#3F3B3C;stop-opacity:0"/>
</linearGradient>
<polygon style="opacity:0.5;fill:url(#SVGID_00000051356202546439214860000008306637717713417611_);enable-background:new    ;" points="
	111,36.1 95.3,36.1 95.3,120 111.2,120 "/>
<linearGradient id="SVGID_00000039103746191373453780000014341840020640644998_" gradientUnits="userSpaceOnUse" x1="-620.4841" y1="-2513.6318" x2="-604.7363" y2="-2513.6318" gradientTransform="matrix(-1 0 0 1 -552.6952 2590.6008)">
	<stop  offset="0" style="stop-color:#3F3B3C"/>
	<stop  offset="1" style="stop-color:#3F3B3C;stop-opacity:0"/>
</linearGradient>
<polygon style="opacity:0.5;fill:url(#SVGID_00000039103746191373453780000014341840020640644998_);enable-background:new    ;" points="
	52.2,103.3 68,103.3 68,50.7 52.1,50.7 "/>
<linearGradient id="SVGID_00000145033304423692973340000001088907996315972268_" gradientUnits="userSpaceOnUse" x1="-577.2213" y1="-2513.5017" x2="-561.4734" y2="-2513.5017" gradientTransform="matrix(-1 0 0 1 -552.6952 2590.6008)">
	<stop  offset="0" style="stop-color:#3F3B3C"/>
	<stop  offset="1" style="stop-color:#3F3B3C;stop-opacity:0"/>
</linearGradient>
<polygon style="opacity:0.5;fill:url(#SVGID_00000145033304423692973340000001088907996315972268_);enable-background:new    ;" points="
	9,102.3 24.8,102.3 24.8,51.9 8.8,51.9 "/>
<linearGradient id="SVGID_00000144322232135386716570000002296595965467550098_" gradientUnits="userSpaceOnUse" x1="5746.0308" y1="487.3821" x2="5746.0308" y2="434.9462" gradientTransform="matrix(-1 0 0 1 5764.0439 -384)">
	<stop  offset="0" style="stop-color:#9F9D9D"/>
	<stop  offset="0.1816" style="stop-color:#808080"/>
	<stop  offset="0.2933" style="stop-color:#9F9D9D"/>
	<stop  offset="0.5447" style="stop-color:#CCCCCC"/>
	<stop  offset="0.6732" style="stop-color:#FFFFFF"/>
	<stop  offset="0.8687" style="stop-color:#E4E3E3"/>
	<stop  offset="1" style="stop-color:#B3B3B3"/>
</linearGradient>
<polygon style="fill:url(#SVGID_00000144322232135386716570000002296595965467550098_);" points="13.2,103.4 22.8,103.4 22.8,50.9 
	13.2,50.9 "/>
<g>
	<rect x="101.5" y="32.7" class="st25" width="3.9" height="30.8"/>
	<rect x="101.5" y="91.8" class="st26" width="3.9" height="30.8"/>
	<rect x="58.1" y="91.8" class="st26" width="3.9" height="30.8"/>
	<rect x="58.1" y="32.7" class="st27" width="3.8" height="30.8"/>
	
		<linearGradient id="SVGID_00000047757412117243827990000012828392797221190576_" gradientUnits="userSpaceOnUse" x1="81.7039" y1="1038.7654" x2="81.7039" y2="1072.8054" gradientTransform="matrix(1 0 0 1 0 -929.3858)">
		<stop  offset="6.983240e-02" style="stop-color:#58595B"/>
		<stop  offset="0.3715" style="stop-color:#808285"/>
		<stop  offset="0.4888" style="stop-color:#6D6E71"/>
		<stop  offset="0.6397" style="stop-color:#838587"/>
		<stop  offset="0.824" style="stop-color:#BCBEC0"/>
		<stop  offset="1" style="stop-color:#BAB9B9"/>
	</linearGradient>
	<path style="fill:url(#SVGID_00000047757412117243827990000012828392797221190576_);" d="M61.1,109.4l-3,9.4v15.6l5.5,9h36.7l5.1-9
		v-15.7c-0.9-3.1-1.7-6.2-2.6-9.4C88.9,109.4,75,109.4,61.1,109.4z"/>
	
		<linearGradient id="SVGID_00000034790127716088306390000007936962701518303631_" gradientUnits="userSpaceOnUse" x1="81.769" y1="-2480.2534" x2="81.769" y2="-2445.9263" gradientTransform="matrix(1 0 0 -1 0 -2433.1885)">
		<stop  offset="0" style="stop-color:#F2F2F2"/>
		<stop  offset="1" style="stop-color:#CCCCCC"/>
	</linearGradient>
	<path style="fill:url(#SVGID_00000034790127716088306390000007936962701518303631_);" d="M61.1,46.9l-3-9.5V21.8l5.5-9.1h36.7
		l5.1,9.1c0,5.2,0.1,10.4,0.1,15.6c-0.5,1.6-0.9,3.3-1.4,4.8c-0.5,1.6-0.9,3.1-1.3,4.7C88.9,46.9,75,46.9,61.1,46.9z"/>
	
		<linearGradient id="SVGID_00000054980732073470394100000005732150151291544232_" gradientUnits="userSpaceOnUse" x1="81.769" y1="1038.7672" x2="81.769" y2="976.1824" gradientTransform="matrix(1 0 0 1 0 -929.3858)">
		<stop  offset="0" style="stop-color:#E6E6E6"/>
		<stop  offset="0.263" style="stop-color:#E1E1E1"/>
		<stop  offset="0.5724" style="stop-color:#D3D3D3"/>
		<stop  offset="0.904" style="stop-color:#BBBBBB"/>
		<stop  offset="1" style="stop-color:#B3B3B3"/>
	</linearGradient>
	<path style="fill:url(#SVGID_00000054980732073470394100000005732150151291544232_);" d="M102.7,109.4c0.9-5.6,1.8-11.2,2.7-16.8
		c0-9.6,0-19.4,0-29c-0.4-2.7-0.9-5.6-1.3-8.3c-0.4-2.9-0.9-5.6-1.4-8.3c-13.9,0-27.7,0-41.6,0c-0.9,5.5-2,11.1-3,16.7
		c0,9.6,0,19.3,0,29.1l3,16.8c1.6,0,3.6,0,5.3,0C78.5,109.2,90.6,109.2,102.7,109.4C102.7,109.2,102.7,109.4,102.7,109.4z"/>
	
		<linearGradient id="SVGID_00000119821000305478951520000016857015478536636086_" gradientUnits="userSpaceOnUse" x1="81.769" y1="227.7628" x2="81.769" y2="193.4723" gradientTransform="matrix(1 0 0 -1 0 337)">
		<stop  offset="0" style="stop-color:#808080"/>
		<stop  offset="1" style="stop-color:#ABABAB"/>
	</linearGradient>
	<path style="fill:url(#SVGID_00000119821000305478951520000016857015478536636086_);" d="M61.1,109.2c-1,3.1-2,6.2-3,9.5
		c0,5.2,0,10.4,0,15.7c1.8,3,3.6,6,5.5,9h36.8l5.1-9.1v-15.7c-0.5-1.6-0.9-3.3-1.4-4.8c-0.4-1.6-0.9-3-1.3-4.6
		c-6.9,0.1-13.8,0.1-20.7,0.1C74.9,109.4,68,109.4,61.1,109.2z"/>
</g>
<linearGradient id="SVGID_00000158024344155045152860000011026824783456377247_" gradientUnits="userSpaceOnUse" x1="193.2116" y1="491.1651" x2="193.2116" y2="413.4871" gradientTransform="matrix(1 0 0 1 0 -384)">
	<stop  offset="0" style="stop-color:#9F9D9D"/>
	<stop  offset="0.1816" style="stop-color:#808080"/>
	<stop  offset="0.2933" style="stop-color:#9F9D9D"/>
	<stop  offset="0.5447" style="stop-color:#CCCCCC"/>
	<stop  offset="0.6732" style="stop-color:#FFFFFF"/>
	<stop  offset="0.8687" style="stop-color:#E4E3E3"/>
	<stop  offset="1" style="stop-color:#B3B3B3"/>
</linearGradient>
<path style="fill:url(#SVGID_00000158024344155045152860000011026824783456377247_);" d="M196.4,107.7c-2.1,3.1-4.3,6.4-6.4,9.5
	c0-25.9,0-51.8,0-77.7c2.1,3.1,4.3,6.4,6.4,9.5V107.7z"/>
<linearGradient id="SVGID_00000021094671787169834200000004966147464712456321_" gradientUnits="userSpaceOnUse" x1="5758.2612" y1="479.5689" x2="5758.2612" y2="429.8654" gradientTransform="matrix(-1 0 0 1 5764.0439 -384)">
	<stop  offset="0" style="stop-color:#9F9D9D"/>
	<stop  offset="0.1816" style="stop-color:#808080"/>
	<stop  offset="0.2933" style="stop-color:#9F9D9D"/>
	<stop  offset="0.5447" style="stop-color:#CCCCCC"/>
	<stop  offset="0.6732" style="stop-color:#FFFFFF"/>
	<stop  offset="0.8687" style="stop-color:#E4E3E3"/>
	<stop  offset="1" style="stop-color:#B3B3B3"/>
</linearGradient>
<path style="fill:url(#SVGID_00000021094671787169834200000004966147464712456321_);" d="M3.8,96c1.3,2.1,2.6,4,3.9,6.1
	c0-16.5,0-33.2,0-49.7c-1.3,2.1-2.6,4-3.9,6.1L3.8,96z"/>
<linearGradient id="SVGID_00000127732090631012180540000009172433479823046846_" gradientUnits="userSpaceOnUse" x1="5756.8037" y1="461.2292" x2="5760.6948" y2="461.2292" gradientTransform="matrix(-1 0 0 1 5764.0439 -384)">
	<stop  offset="0" style="stop-color:#B3B3B3;stop-opacity:0.5"/>
	<stop  offset="1" style="stop-color:#B3B3B3;stop-opacity:0"/>
</linearGradient>
<path style="opacity:0.53;fill:url(#SVGID_00000127732090631012180540000009172433479823046846_);enable-background:new    ;" d="
	M3.8,96c1.3,2.1,2.6,4,3.9,6.1c0-16.5,0-33.2,0-49.7c-1.3,2.1-2.6,4-3.9,6.1L3.8,96z"/>
<linearGradient id="SVGID_00000176739338569093764740000017659846910597505161_" gradientUnits="userSpaceOnUse" x1="23.8033" y1="385.6078" x2="23.8033" y2="324.7145" gradientTransform="matrix(1 0 0 1 0 -278)">
	<stop  offset="0" style="stop-color:#B3B3B3"/>
	<stop  offset="0.25" style="stop-color:#666666"/>
	<stop  offset="0.4162" style="stop-color:#D1D3D4"/>
	<stop  offset="0.5168" style="stop-color:#CCCCCC"/>
	<stop  offset="0.662" style="stop-color:#F1F2F2"/>
	<stop  offset="0.8519" style="stop-color:#CCCCCC"/>
	<stop  offset="0.919" style="stop-color:#E6E7E8"/>
	<stop  offset="1" style="stop-color:#919396"/>
</linearGradient>
<polygon style="fill:url(#SVGID_00000176739338569093764740000017659846910597505161_);" points="21.1,46.7 23.7,50.7 26.5,103.4 
	24.4,107.5 "/>
<linearGradient id="SVGID_00000011733254484387737320000016920875724287374730_" gradientUnits="userSpaceOnUse" x1="-6259.2212" y1="-365.7371" x2="-6259.2212" y2="-308.2906" gradientTransform="matrix(-1 0 0 1.06 -6237.6299 442.2701)">
	<stop  offset="0" style="stop-color:#939598"/>
	<stop  offset="0.1927" style="stop-color:#6D6E71"/>
	<stop  offset="0.39" style="stop-color:#808080"/>
	<stop  offset="0.6606" style="stop-color:#CCCCCC"/>
	<stop  offset="0.8658" style="stop-color:#808285"/>
	<stop  offset="0.9715" style="stop-color:#B3B3B3"/>
</linearGradient>
<polygon style="fill:url(#SVGID_00000011733254484387737320000016920875724287374730_);" points="21.1,46.7 24.4,107.5 21.8,103.6 
	18.8,50.7 "/>
<linearGradient id="SVGID_00000132793445135962859030000013696667986415421369_" gradientUnits="userSpaceOnUse" x1="28.4874" y1="385.6078" x2="28.4874" y2="324.7145" gradientTransform="matrix(1 0 0 1 0 -278)">
	<stop  offset="0" style="stop-color:#B3B3B3"/>
	<stop  offset="0.25" style="stop-color:#666666"/>
	<stop  offset="0.4162" style="stop-color:#D1D3D4"/>
	<stop  offset="0.5168" style="stop-color:#CCCCCC"/>
	<stop  offset="0.662" style="stop-color:#F1F2F2"/>
	<stop  offset="0.8519" style="stop-color:#CCCCCC"/>
	<stop  offset="0.919" style="stop-color:#E6E7E8"/>
	<stop  offset="1" style="stop-color:#919396"/>
</linearGradient>
<polygon style="fill:url(#SVGID_00000132793445135962859030000013696667986415421369_);" points="25.8,46.7 28.3,50.7 31.2,103.4 
	28.9,107.5 "/>
<linearGradient id="SVGID_00000153679778306887509150000009316159913931195327_" gradientUnits="userSpaceOnUse" x1="-6263.9053" y1="-365.7371" x2="-6263.9053" y2="-308.2906" gradientTransform="matrix(-1 0 0 1.06 -6237.6299 442.2701)">
	<stop  offset="0" style="stop-color:#939598"/>
	<stop  offset="0.1927" style="stop-color:#6D6E71"/>
	<stop  offset="0.39" style="stop-color:#808080"/>
	<stop  offset="0.6606" style="stop-color:#CCCCCC"/>
	<stop  offset="0.8658" style="stop-color:#808285"/>
	<stop  offset="0.9715" style="stop-color:#B3B3B3"/>
</linearGradient>
<path style="fill:url(#SVGID_00000153679778306887509150000009316159913931195327_);" d="M25.8,46.7l3.1,60.9
	c-0.9-1.4-1.7-2.9-2.6-4.3c-0.9-17.6-1.8-35.1-2.7-52.7C24.4,49.4,25.2,48.1,25.8,46.7z"/>
<linearGradient id="SVGID_00000057850847862463225300000005594860343146456460_" gradientUnits="userSpaceOnUse" x1="33.1064" y1="385.6078" x2="33.1064" y2="324.7145" gradientTransform="matrix(1 0 0 1 0 -278)">
	<stop  offset="0" style="stop-color:#B3B3B3"/>
	<stop  offset="0.25" style="stop-color:#666666"/>
	<stop  offset="0.4162" style="stop-color:#D1D3D4"/>
	<stop  offset="0.5168" style="stop-color:#CCCCCC"/>
	<stop  offset="0.662" style="stop-color:#F1F2F2"/>
	<stop  offset="0.8519" style="stop-color:#CCCCCC"/>
	<stop  offset="0.919" style="stop-color:#E6E7E8"/>
	<stop  offset="1" style="stop-color:#919396"/>
</linearGradient>
<polygon style="fill:url(#SVGID_00000057850847862463225300000005594860343146456460_);" points="30.5,46.7 33,50.7 35.7,103.4 
	33.6,107.5 "/>
<linearGradient id="SVGID_00000016782110756690298420000007424065320872288655_" gradientUnits="userSpaceOnUse" x1="-6268.5894" y1="-365.7371" x2="-6268.5894" y2="-308.2906" gradientTransform="matrix(-1 0 0 1.06 -6237.6299 442.2701)">
	<stop  offset="0" style="stop-color:#939598"/>
	<stop  offset="0.1927" style="stop-color:#6D6E71"/>
	<stop  offset="0.39" style="stop-color:#808080"/>
	<stop  offset="0.6606" style="stop-color:#CCCCCC"/>
	<stop  offset="0.8658" style="stop-color:#808285"/>
	<stop  offset="0.9715" style="stop-color:#B3B3B3"/>
</linearGradient>
<path style="fill:url(#SVGID_00000016782110756690298420000007424065320872288655_);" d="M30.5,46.7l3.1,60.9
	c-0.9-1.4-1.7-2.9-2.6-4.3c-0.9-17.6-1.8-35.1-2.7-52.7C29.1,49.4,29.7,48.1,30.5,46.7z"/>
<linearGradient id="SVGID_00000039827449619932812390000015409358515281642175_" gradientUnits="userSpaceOnUse" x1="37.7254" y1="385.6078" x2="37.7254" y2="324.7145" gradientTransform="matrix(1 0 0 1 0 -278)">
	<stop  offset="0" style="stop-color:#B3B3B3"/>
	<stop  offset="0.25" style="stop-color:#666666"/>
	<stop  offset="0.4162" style="stop-color:#D1D3D4"/>
	<stop  offset="0.5168" style="stop-color:#CCCCCC"/>
	<stop  offset="0.662" style="stop-color:#F1F2F2"/>
	<stop  offset="0.8519" style="stop-color:#CCCCCC"/>
	<stop  offset="0.919" style="stop-color:#E6E7E8"/>
	<stop  offset="1" style="stop-color:#919396"/>
</linearGradient>
<polygon style="fill:url(#SVGID_00000039827449619932812390000015409358515281642175_);" points="35.1,46.7 37.7,50.7 40.4,103.4 
	38.3,107.5 "/>
<linearGradient id="SVGID_00000072257335380761258590000016526719561436148375_" gradientUnits="userSpaceOnUse" x1="-6273.2734" y1="-365.7371" x2="-6273.2734" y2="-308.2906" gradientTransform="matrix(-1 0 0 1.06 -6237.6299 442.2701)">
	<stop  offset="0" style="stop-color:#939598"/>
	<stop  offset="0.1927" style="stop-color:#6D6E71"/>
	<stop  offset="0.39" style="stop-color:#808080"/>
	<stop  offset="0.6606" style="stop-color:#CCCCCC"/>
	<stop  offset="0.8658" style="stop-color:#808285"/>
	<stop  offset="0.9715" style="stop-color:#B3B3B3"/>
</linearGradient>
<path style="fill:url(#SVGID_00000072257335380761258590000016526719561436148375_);" d="M35.1,46.7l3.3,60.9
	c-0.9-1.4-1.7-2.9-2.6-4.3c-0.9-17.6-1.8-35.1-2.7-52.7C33.8,49.4,34.4,48.1,35.1,46.7z"/>
<linearGradient id="SVGID_00000091725325211310528550000008038323714851059637_" gradientUnits="userSpaceOnUse" x1="42.4095" y1="385.6078" x2="42.4095" y2="324.7145" gradientTransform="matrix(1 0 0 1 0 -278)">
	<stop  offset="0" style="stop-color:#B3B3B3"/>
	<stop  offset="0.25" style="stop-color:#666666"/>
	<stop  offset="0.4162" style="stop-color:#D1D3D4"/>
	<stop  offset="0.5168" style="stop-color:#CCCCCC"/>
	<stop  offset="0.662" style="stop-color:#F1F2F2"/>
	<stop  offset="0.8519" style="stop-color:#CCCCCC"/>
	<stop  offset="0.919" style="stop-color:#E6E7E8"/>
	<stop  offset="1" style="stop-color:#919396"/>
</linearGradient>
<polygon style="fill:url(#SVGID_00000091725325211310528550000008038323714851059637_);" points="39.7,46.7 42.3,50.7 45.1,103.4 
	42.9,107.5 "/>
<linearGradient id="SVGID_00000091701608989693766930000003215512599438962828_" gradientUnits="userSpaceOnUse" x1="-6277.8276" y1="-365.7371" x2="-6277.8276" y2="-308.2906" gradientTransform="matrix(-1 0 0 1.06 -6237.6299 442.2701)">
	<stop  offset="0" style="stop-color:#939598"/>
	<stop  offset="0.1927" style="stop-color:#6D6E71"/>
	<stop  offset="0.39" style="stop-color:#808080"/>
	<stop  offset="0.6606" style="stop-color:#CCCCCC"/>
	<stop  offset="0.8658" style="stop-color:#808285"/>
	<stop  offset="0.9715" style="stop-color:#B3B3B3"/>
</linearGradient>
<path style="fill:url(#SVGID_00000091701608989693766930000003215512599438962828_);" d="M39.7,46.7l3.1,60.9
	c-0.9-1.4-1.7-2.9-2.6-4.3c-0.9-17.6-1.8-35.1-2.7-52.7C38.3,49.4,39.1,48.1,39.7,46.7z"/>
<linearGradient id="SVGID_00000026121748867841772680000010059722476830409132_" gradientUnits="userSpaceOnUse" x1="47.0286" y1="385.6078" x2="47.0286" y2="324.7145" gradientTransform="matrix(1 0 0 1 0 -278)">
	<stop  offset="0" style="stop-color:#B3B3B3"/>
	<stop  offset="0.25" style="stop-color:#666666"/>
	<stop  offset="0.4162" style="stop-color:#D1D3D4"/>
	<stop  offset="0.5168" style="stop-color:#CCCCCC"/>
	<stop  offset="0.662" style="stop-color:#F1F2F2"/>
	<stop  offset="0.8519" style="stop-color:#CCCCCC"/>
	<stop  offset="0.919" style="stop-color:#E6E7E8"/>
	<stop  offset="1" style="stop-color:#919396"/>
</linearGradient>
<polygon style="fill:url(#SVGID_00000026121748867841772680000010059722476830409132_);" points="44.4,46.7 46.9,50.7 49.6,103.4 
	47.5,107.5 "/>
<linearGradient id="SVGID_00000054233733854407074400000009084574239426338997_" gradientUnits="userSpaceOnUse" x1="-6282.5117" y1="-365.7371" x2="-6282.5117" y2="-308.2906" gradientTransform="matrix(-1 0 0 1.06 -6237.6299 442.2701)">
	<stop  offset="0" style="stop-color:#939598"/>
	<stop  offset="0.1927" style="stop-color:#6D6E71"/>
	<stop  offset="0.39" style="stop-color:#808080"/>
	<stop  offset="0.6606" style="stop-color:#CCCCCC"/>
	<stop  offset="0.8658" style="stop-color:#808285"/>
	<stop  offset="0.9715" style="stop-color:#B3B3B3"/>
</linearGradient>
<path style="fill:url(#SVGID_00000054233733854407074400000009084574239426338997_);" d="M44.4,46.7l3.1,60.9
	c-0.9-1.4-1.7-2.9-2.6-4.3c-0.9-17.6-1.8-35.1-2.7-52.7C43,49.4,43.6,48.1,44.4,46.7z"/>
<linearGradient id="SVGID_00000164505319181645288610000015975724495842304392_" gradientUnits="userSpaceOnUse" x1="51.6476" y1="385.6078" x2="51.6476" y2="324.7145" gradientTransform="matrix(1 0 0 1 0 -278)">
	<stop  offset="0" style="stop-color:#B3B3B3"/>
	<stop  offset="0.25" style="stop-color:#666666"/>
	<stop  offset="0.4162" style="stop-color:#D1D3D4"/>
	<stop  offset="0.5168" style="stop-color:#CCCCCC"/>
	<stop  offset="0.662" style="stop-color:#F1F2F2"/>
	<stop  offset="0.8519" style="stop-color:#CCCCCC"/>
	<stop  offset="0.919" style="stop-color:#E6E7E8"/>
	<stop  offset="1" style="stop-color:#919396"/>
</linearGradient>
<polygon style="fill:url(#SVGID_00000164505319181645288610000015975724495842304392_);" points="49,46.7 51.6,50.7 54.3,103.4 
	52.2,107.5 "/>
<linearGradient id="SVGID_00000057839743531737934590000000921176623437413557_" gradientUnits="userSpaceOnUse" x1="-6287.1958" y1="-365.7371" x2="-6287.1958" y2="-308.2906" gradientTransform="matrix(-1 0 0 1.06 -6237.6299 442.2701)">
	<stop  offset="0" style="stop-color:#939598"/>
	<stop  offset="0.1927" style="stop-color:#6D6E71"/>
	<stop  offset="0.39" style="stop-color:#808080"/>
	<stop  offset="0.6606" style="stop-color:#CCCCCC"/>
	<stop  offset="0.8658" style="stop-color:#808285"/>
	<stop  offset="0.9715" style="stop-color:#B3B3B3"/>
</linearGradient>
<path style="fill:url(#SVGID_00000057839743531737934590000000921176623437413557_);" d="M49,46.7l3.3,60.9
	c-0.9-1.4-1.7-2.9-2.6-4.3c-0.9-17.6-1.8-35.1-2.7-52.7C47.7,49.4,48.3,48.1,49,46.7z"/>
<linearGradient id="SVGID_00000107585840888164299300000007596881499746730415_" gradientUnits="userSpaceOnUse" x1="115.5335" y1="504.5571" x2="115.5335" y2="419.9831" gradientTransform="matrix(1 0 0 1 0 -384)">
	<stop  offset="0" style="stop-color:#B3B3B3"/>
	<stop  offset="0.2263" style="stop-color:#666666"/>
	<stop  offset="0.4162" style="stop-color:#D1D3D4"/>
	<stop  offset="0.5168" style="stop-color:#CCCCCC"/>
	<stop  offset="0.662" style="stop-color:#F1F2F2"/>
	<stop  offset="0.8519" style="stop-color:#CCCCCC"/>
	<stop  offset="0.919" style="stop-color:#E6E7E8"/>
	<stop  offset="1" style="stop-color:#919396"/>
</linearGradient>
<path style="fill:url(#SVGID_00000107585840888164299300000007596881499746730415_);" d="M113.1,36v84.2c1.6,0.1,3.3,0.3,4.8,0.4
	C116.4,92.3,114.7,64.2,113.1,36z"/>
<linearGradient id="SVGID_00000111179268064382966730000001865178956147790777_" gradientUnits="userSpaceOnUse" x1="169.0104" y1="430.8913" x2="169.0104" y2="514.9449" gradientTransform="matrix(1 0 0 1 0 -384)">
	<stop  offset="0" style="stop-color:#939598"/>
	<stop  offset="0.1927" style="stop-color:#6D6E71"/>
	<stop  offset="0.3045" style="stop-color:#808080"/>
	<stop  offset="0.8966" style="stop-color:#808285"/>
	<stop  offset="1" style="stop-color:#B3B3B3"/>
</linearGradient>
<path style="fill:url(#SVGID_00000111179268064382966730000001865178956147790777_);" d="M166.7,36l4.6,84.1c0-27.8,0-55.8,0-83.7
	C169.7,36.2,168.3,36.1,166.7,36z"/>
<linearGradient id="SVGID_00000049930886760317943280000007454674472953474696_" gradientUnits="userSpaceOnUse" x1="52.9488" y1="487.3821" x2="52.9488" y2="434.6859" gradientTransform="matrix(1 0 0 1 0 -384)">
	<stop  offset="0" style="stop-color:#939598"/>
	<stop  offset="0.1927" style="stop-color:#6D6E71"/>
	<stop  offset="0.39" style="stop-color:#808080"/>
	<stop  offset="0.7842" style="stop-color:#CCCCCC"/>
	<stop  offset="0.8966" style="stop-color:#808285"/>
	<stop  offset="1" style="stop-color:#B3B3B3"/>
</linearGradient>
<path style="fill:url(#SVGID_00000049930886760317943280000007454674472953474696_);" d="M51.6,50.7c0.9,0.1,1.8,0.1,2.7,0.3
	c0,17.4,0,35,0,52.4L51.6,50.7z"/>
<linearGradient id="SVGID_00000054949842524752117580000011508269377930009519_" gradientUnits="userSpaceOnUse" x1="20.2902" y1="487.6423" x2="20.2902" y2="434.6859" gradientTransform="matrix(1 0 0 1 0 -384)">
	<stop  offset="0" style="stop-color:#B3B3B3"/>
	<stop  offset="0.25" style="stop-color:#666666"/>
	<stop  offset="0.4162" style="stop-color:#D1D3D4"/>
	<stop  offset="0.5168" style="stop-color:#CCCCCC"/>
	<stop  offset="0.662" style="stop-color:#F1F2F2"/>
	<stop  offset="0.8519" style="stop-color:#CCCCCC"/>
	<stop  offset="0.919" style="stop-color:#E6E7E8"/>
	<stop  offset="1" style="stop-color:#919396"/>
</linearGradient>
<path style="fill:url(#SVGID_00000054949842524752117580000011508269377930009519_);" d="M18.8,50.7v52.7c1,0.1,2,0.1,3,0.3
	C20.9,85.9,19.8,68.4,18.8,50.7z"/>
<linearGradient id="SVGID_00000029738059076542730810000011182323408010981516_" gradientUnits="userSpaceOnUse" x1="192.4309" y1="594.7836" x2="192.4309" y2="649.8218" gradientTransform="matrix(1 0 0 1 0 -384)">
	<stop  offset="0.2849" style="stop-color:#606060"/>
	<stop  offset="0.5139" style="stop-color:#999999"/>
	<stop  offset="0.6613" style="stop-color:#ACACAC"/>
	<stop  offset="0.8464" style="stop-color:#6E6E6F;stop-opacity:0.9913"/>
	<stop  offset="1" style="stop-color:#606060"/>
</linearGradient>
<path style="fill:url(#SVGID_00000029738059076542730810000011182323408010981516_);" d="M196.7,265.7c-2.9-1.8-5.6-3.6-8.5-5.5
	v-44.1c2.9-1.8,5.6-3.6,8.5-5.5C196.7,229.2,196.7,247.5,196.7,265.7z"/>
<linearGradient id="SVGID_00000013169110451971912940000013404353609883296942_" gradientUnits="userSpaceOnUse" x1="45.9226" y1="608.8671" x2="45.9226" y2="635.7469" gradientTransform="matrix(1 0 0 1 0 -384)">
	<stop  offset="0.2849" style="stop-color:#606060"/>
	<stop  offset="0.5139" style="stop-color:#999999"/>
	<stop  offset="0.6613" style="stop-color:#ACACAC"/>
	<stop  offset="0.8464" style="stop-color:#6E6E6F;stop-opacity:0.9913"/>
	<stop  offset="1" style="stop-color:#606060"/>
</linearGradient>
<rect x="9.3" y="224.9" style="fill:url(#SVGID_00000013169110451971912940000013404353609883296942_);" width="73.3" height="26.9"/>
<linearGradient id="SVGID_00000145018518493244071000000007231414470930389131_" gradientUnits="userSpaceOnUse" x1="6.368" y1="604.8336" x2="6.368" y2="639.7463" gradientTransform="matrix(1 0 0 1 0 -384)">
	<stop  offset="0.2849" style="stop-color:#606060"/>
	<stop  offset="0.5139" style="stop-color:#999999"/>
	<stop  offset="0.6613" style="stop-color:#ACACAC"/>
	<stop  offset="0.8464" style="stop-color:#6E6E6F;stop-opacity:0.9913"/>
	<stop  offset="1" style="stop-color:#606060"/>
</linearGradient>
<path style="fill:url(#SVGID_00000145018518493244071000000007231414470930389131_);" d="M9.3,251.7c-2,1.3-3.9,2.7-5.9,4
	c0-11.6,0-23.3,0-34.9c2,1.3,3.9,2.7,5.9,4V251.7z"/>
<linearGradient id="SVGID_00000075876996075633298580000001728882768727685559_" gradientUnits="userSpaceOnUse" x1="89.3807" y1="600.215" x2="89.3807" y2="644.3236" gradientTransform="matrix(1 0 0 1 0 -384)">
	<stop  offset="0.2849" style="stop-color:#606060"/>
	<stop  offset="0.5139" style="stop-color:#999999"/>
	<stop  offset="0.6613" style="stop-color:#ACACAC"/>
	<stop  offset="0.8464" style="stop-color:#6E6E6F;stop-opacity:0.9913"/>
	<stop  offset="1" style="stop-color:#606060"/>
</linearGradient>
<path style="fill:url(#SVGID_00000075876996075633298580000001728882768727685559_);" d="M96.1,260.4c-4.4-2.9-9-5.7-13.4-8.6v-26.9
	c4.4-2.9,9-5.7,13.4-8.6C96.1,231,96.1,245.7,96.1,260.4z"/>
<image style="overflow:visible;" width="200" height="200" xlink:href="../../pepsi.png"  transform="matrix(0.1063 0 0 0.1063 71.1398 67.3807)">
</image>
</svg>
