<?xml version="1.0" encoding="utf-8"?>
<!-- Generator: Adobe Illustrator 25.4.1, SVG Export Plug-In . SVG Version: 6.00 Build 0)  -->
<svg version="1.1" id="Слой_1" xmlns="http://www.w3.org/2000/svg" xmlns:xlink="http://www.w3.org/1999/xlink" x="0px" y="0px"
	 viewBox="0 0 200 320" style="enable-background:new 0 0 200 320;" xml:space="preserve">
<style type="text/css">
	.st0{clip-path:url(#SVGID_00000116201621175913668260000005857347015038558398_);}
	.st1{fill:url(#SVGID_00000073723007269504753210000000462466565041584519_);}
	.st2{fill:#606060;}
	.st3{opacity:0.58;fill:url(#SVGID_00000061436735222344421780000006338602735133719716_);enable-background:new    ;}
	.st4{fill:url(#SVGID_00000150784191928984343050000000467131101870371002_);}
	.st5{opacity:0.58;fill:url(#SVGID_00000179613790838885978610000010499810304600584338_);enable-background:new    ;}
	.st6{opacity:0.5;fill:url(#SVGID_00000113322833858093458430000002380132185374181280_);enable-background:new    ;}
	.st7{fill:url(#SVGID_00000154391981778863377810000004857545015809880501_);}
	.st8{fill:url(#SVGID_00000004544802128981453860000014724586183574453144_);}
	.st9{fill:url(#SVGID_00000101063085353469995300000012347319259613393566_);}
	.st10{fill:url(#SVGID_00000021797460558479033350000004975678686505389722_);}
	.st11{fill:url(#SVGID_00000007399332274289020010000007996235198795091881_);}
	.st12{fill:url(#SVGID_00000021120936338359281050000003588141160507954570_);}
	.st13{fill:url(#SVGID_00000042730524342877539750000010673353392654567868_);}
	.st14{fill:url(#SVGID_00000035502157316104730480000018415100661196435631_);}
	.st15{fill:url(#SVGID_00000107579465720944621940000010882921054539652238_);}
	.st16{fill:url(#SVGID_00000003797285755754579010000014777822198382935983_);}
	.st17{fill:url(#SVGID_00000082368444846963616050000013397829151399789709_);}
	.st18{fill:url(#SVGID_00000107570526778688145920000003090781445459480501_);}
	.st19{fill:url(#SVGID_00000053531522312536494190000006071553743522702730_);}
	.st20{opacity:0.5;fill:url(#SVGID_00000122707834085848131610000012613646037938076602_);enable-background:new    ;}
	.st21{opacity:0.5;fill:url(#SVGID_00000091008680914956660010000018219247020234961044_);enable-background:new    ;}
	.st22{fill:url(#SVGID_00000183959946531897915660000002866681637203414683_);}
	.st23{fill:url(#SVGID_00000157998448292968876080000001965225606677584024_);}
	.st24{fill:url(#SVGID_00000126300195225972479730000007735397128030587820_);}
	.st25{fill:url(#SVGID_00000157283006863011949270000018117844757325525646_);}
	.st26{fill:url(#SVGID_00000057111589737852266030000002299817615790250645_);}
	.st27{fill:#FFFFFF;}
	.st28{fill:#6B6B6B;}
	.st29{fill:url(#SVGID_00000013187536162562193350000015609709592583366838_);}
	.st30{fill:url(#SVGID_00000015344116036805395860000012301054156469050274_);}
	.st31{fill:url(#SVGID_00000025435346247404736680000010096612608710219427_);}
	.st32{fill:url(#SVGID_00000034049500185232521520000001156041419193961111_);}
	.st33{fill:url(#SVGID_00000119083054297387081180000010104291909310552212_);}
	.st34{opacity:0.5;fill:url(#SVGID_00000147178440157158490560000012758482581754739614_);enable-background:new    ;}
	.st35{fill:url(#SVGID_00000096019104832520927550000016853485601029341619_);}
	.st36{fill:url(#SVGID_00000172415454711024484940000003163306902493349550_);}
	.st37{opacity:0.53;fill:url(#SVGID_00000003818937286156143190000000145698098511995830_);enable-background:new    ;}
	.st38{fill:url(#SVGID_00000181775909144222058290000009641207381688621957_);}
	.st39{fill:url(#SVGID_00000001657580761277956410000016225119201469201834_);}
	.st40{fill:url(#SVGID_00000109737083609384596880000001672140553867353510_);}
	.st41{fill:url(#SVGID_00000060032403936633579140000010786209623072054170_);}
	.st42{fill:url(#SVGID_00000008846379244914529250000010883265907027972487_);}
	.st43{fill:url(#SVGID_00000153700611574288475800000015138039262388456332_);}
	.st44{fill:url(#SVGID_00000047029757467057517980000004715897657211230861_);}
	.st45{fill:url(#SVGID_00000016039866069654806540000012805356341074691220_);}
	.st46{fill:url(#SVGID_00000060003838559002494980000004553052452142816406_);}
	.st47{fill:url(#SVGID_00000151522464776286696750000010308105074870246581_);}
	.st48{fill:url(#SVGID_00000172430695269035305310000000631847459660654766_);}
	.st49{fill:url(#SVGID_00000172420652634185700850000015959544626207502765_);}
	.st50{fill:url(#SVGID_00000115515088572154451400000003765421172820206497_);}
	.st51{fill:url(#SVGID_00000145057077467353642410000015633833551463466680_);}
	.st52{fill:url(#SVGID_00000183249499733200398260000017544045665009106343_);}
	.st53{fill:url(#SVGID_00000006666404702411845600000012866421162188367534_);}
	.st54{fill:url(#SVGID_00000065060835701049292480000009145706872105242298_);}
	.st55{fill:url(#SVGID_00000106120084615162586960000015898069501133041810_);}
</style>
<g>
	<defs>
		<path id="SVGID_00000127749558984577436130000007780386337089818262_" d="M199.5,212.1c-1.7-3-3.6-5.8-5.4-8.7
			c0-0.3,0-0.5-0.1-0.8c-2.5,0-5.1,0-7.6,0v-1.3H174l0,0v-0.4l-3.6-5.8l0,0l0,0c-0.9,1.9-2,3.9-3,5.8l-3.6-5.8c-0.9,1.9-2,3.9-3,5.8
			l-3.6-5.8c-0.9,1.9-2,3.9-3,5.8l-3.6-5.8c-0.9,1.9-2,3.9-3,5.8l-3.6-5.8c-0.9,1.9-2,3.9-3,5.8l-3.6-5.8c-0.9,1.9-2,3.9-3,5.8l0,0
			l-3.6-5.8l-3.2,5.8v0.4h-7.6v-3.4l0,0v-10.1l-4.3-8.2H84.5l-4.7,8.2v10.1v3.4h-7.5c-1.3-0.1-2.5-0.3-3.9-0.4l-3.6-5.8
			c-0.9,1.9-2,3.9-3,5.8l-3.6-5.8c-0.9,1.9-2,3.9-3,5.8l-3.6-5.8c-0.9,1.9-2,3.9-3,5.8l-3.6-5.8l0,0l0,0c-0.9,1.9-2,3.9-3,5.8
			l-3.6-5.8c-0.9,1.9-2,3.9-3,5.8l-3.6-5.8c-0.9,1.9-2,3.9-3,5.8l0,0l-3.6-5.8l-3.2,5.8v0.4h-8v1.3H6.4v0.7c-1.9,3-3.6,5.9-5.5,8.9
			v54.5c1.9,3,3.6,5.9,5.5,8.9v0.7h7.6v1.3h8c1.3,0.1,2.8,0.3,4.2,0.4l3.6,5.8l3-6.2c1.2,2,2.4,4.2,3.6,6.2l3.1-6.3
			c1.2,2,2.4,4.2,3.6,6.2l0,0l0,0l3-6.2c1.2,2,2.4,4.2,3.6,6.2c0.9-2,2-4.2,3-6.2c1.2,2,2.4,4.2,3.6,6.2l3-6.2
			c1.2,2,2.4,4.2,3.6,6.2l0,0l0,0l3-6.2l0,0l0,0l0,0c1.2,2,2.4,4,3.6,6.2l3-6.2h7.4v2.8v10.7l4.7,8.2l0,0h31.3l0,0l4.3-8.2v-10.7
			l0,0v-2.8h7.6c1.3,0.1,2.8,0.3,4.2,0.4l3.6,5.8l3-6.2c1.2,2,2.4,4.2,3.6,6.2l3-6.2c1.2,2,2.4,4.2,3.6,6.2l0,0l0,0
			c0.9-2,2-4.2,3-6.2c1.2,2,2.4,4.2,3.6,6.2l3-6.2c1.2,2,2.4,4.2,3.6,6.2l3-6.2c1.2,2,2.4,4.2,3.6,6.2l0,0l0,0l3-6.2
			c1.2,2,2.4,4.2,3.6,6.2l3-6.2h8.5V276h7.6c0-0.3,0-0.5,0.1-0.8c1.7-3,3.6-5.8,5.4-8.7L199.5,212.1L199.5,212.1z"/>
	</defs>
	<defs>
		<path id="SVGID_1_" d="M199.5,212.1c-1.7-3-3.6-5.8-5.4-8.7c0-0.3,0-0.5-0.1-0.8c-2.5,0-5.1,0-7.6,0v-1.3H174l0,0v-0.4l-3.6-5.8
			l0,0l0,0c-0.9,1.9-2,3.9-3,5.8l-3.6-5.8c-0.9,1.9-2,3.9-3,5.8l-3.6-5.8c-0.9,1.9-2,3.9-3,5.8l-3.6-5.8c-0.9,1.9-2,3.9-3,5.8
			l-3.6-5.8c-0.9,1.9-2,3.9-3,5.8l-3.6-5.8c-0.9,1.9-2,3.9-3,5.8l0,0l-3.6-5.8l-3.2,5.8v0.4h-7.6v-3.4l0,0v-10.1l-4.3-8.2H84.5
			l-4.7,8.2v10.1v3.4h-7.5c-1.3-0.1-2.5-0.3-3.9-0.4l-3.6-5.8c-0.9,1.9-2,3.9-3,5.8l-3.6-5.8c-0.9,1.9-2,3.9-3,5.8l-3.6-5.8
			c-0.9,1.9-2,3.9-3,5.8l-3.6-5.8l0,0l0,0c-0.9,1.9-2,3.9-3,5.8l-3.6-5.8c-0.9,1.9-2,3.9-3,5.8l-3.6-5.8c-0.9,1.9-2,3.9-3,5.8l0,0
			l-3.6-5.8l-3.2,5.8v0.4h-8v1.3H6.4v0.7c-1.9,3-3.6,5.9-5.5,8.9v54.5c1.9,3,3.6,5.9,5.5,8.9v0.7h7.6v1.3h8c1.3,0.1,2.8,0.3,4.2,0.4
			l3.6,5.8l3-6.2c1.2,2,2.4,4.2,3.6,6.2l3.1-6.3c1.2,2,2.4,4.2,3.6,6.2l0,0l0,0l3-6.2c1.2,2,2.4,4.2,3.6,6.2c0.9-2,2-4.2,3-6.2
			c1.2,2,2.4,4.2,3.6,6.2l3-6.2c1.2,2,2.4,4.2,3.6,6.2l0,0l0,0l3-6.2l0,0l0,0l0,0c1.2,2,2.4,4,3.6,6.2l3-6.2h7.4v2.8v10.7l4.7,8.2
			l0,0h31.3l0,0l4.3-8.2v-10.7l0,0v-2.8h7.6c1.3,0.1,2.8,0.3,4.2,0.4l3.6,5.8l3-6.2c1.2,2,2.4,4.2,3.6,6.2l3-6.2
			c1.2,2,2.4,4.2,3.6,6.2l0,0l0,0c0.9-2,2-4.2,3-6.2c1.2,2,2.4,4.2,3.6,6.2l3-6.2c1.2,2,2.4,4.2,3.6,6.2l3-6.2
			c1.2,2,2.4,4.2,3.6,6.2l0,0l0,0l3-6.2c1.2,2,2.4,4.2,3.6,6.2l3-6.2h8.5V276h7.6c0-0.3,0-0.5,0.1-0.8c1.7-3,3.6-5.8,5.4-8.7
			L199.5,212.1L199.5,212.1z"/>
	</defs>
	<clipPath id="SVGID_00000078043685770501104090000017634579545329234585_">
		<use xlink:href="#SVGID_00000127749558984577436130000007780386337089818262_"  style="overflow:visible;"/>
	</clipPath>
	
		<clipPath id="SVGID_00000045595494182769221650000012986257867208457641_" style="clip-path:url(#SVGID_00000078043685770501104090000017634579545329234585_);">
		<use xlink:href="#SVGID_1_"  style="overflow:visible;"/>
	</clipPath>
	<g style="clip-path:url(#SVGID_00000045595494182769221650000012986257867208457641_);">
		
			<image style="overflow:visible;" width="600" height="600" xlink:href="../../background.jpg"  transform="matrix(0.4047 0 0 0.4047 -10.1035 128.9994)">
		</image>
	</g>
	
		<use xlink:href="#SVGID_00000127749558984577436130000007780386337089818262_"  style="overflow:visible;fill:none;stroke:#BFBFBF;stroke-miterlimit:10;"/>
	<use xlink:href="#SVGID_1_"  style="overflow:visible;fill:none;stroke:#BFBFBF;stroke-miterlimit:10;"/>
</g>
<linearGradient id="SVGID_00000014599671956677966750000014530717540208698241_" gradientUnits="userSpaceOnUse" x1="100.3341" y1="622.9455" x2="100.3341" y2="665.0651" gradientTransform="matrix(1 0 0 1 0 -404.5511)">
	<stop  offset="0.2849" style="stop-color:#606060"/>
	<stop  offset="0.5139" style="stop-color:#999999"/>
	<stop  offset="0.6613" style="stop-color:#ACACAC"/>
	<stop  offset="0.8464" style="stop-color:#6E6E6F;stop-opacity:0.9913"/>
	<stop  offset="1" style="stop-color:#606060"/>
</linearGradient>
<rect x="8.9" y="218.3" style="fill:url(#SVGID_00000014599671956677966750000014530717540208698241_);" width="183" height="42.1"/>
<polygon class="st2" points="9,218.2 9,260.2 0.7,265.3 0.7,213.6 "/>
<linearGradient id="SVGID_00000014628578883717309800000001330138021499221171_" gradientUnits="userSpaceOnUse" x1="4.8273" y1="107.3761" x2="4.8273" y2="55.7327" gradientTransform="matrix(1 0 0 -1 0 321)">
	<stop  offset="0.2849" style="stop-color:#606060"/>
	<stop  offset="0.5139" style="stop-color:#999999"/>
	<stop  offset="0.6613" style="stop-color:#ACACAC;stop-opacity:0.76"/>
	<stop  offset="0.8464" style="stop-color:#6E6E6F;stop-opacity:0.9913"/>
	<stop  offset="1" style="stop-color:#606060"/>
</linearGradient>
<polygon style="opacity:0.58;fill:url(#SVGID_00000014628578883717309800000001330138021499221171_);enable-background:new    ;" points="
	9,218.2 9,260.2 0.7,265.3 0.7,213.6 "/>
<linearGradient id="SVGID_00000152945095087491148840000011995010582095294087_" gradientUnits="userSpaceOnUse" x1="190.1401" y1="205.5784" x2="190.1401" y2="278.8182" gradientTransform="matrix(1 0 0 -1 0 321)">
	<stop  offset="0" style="stop-color:#9F9D9D"/>
	<stop  offset="0.1816" style="stop-color:#808080"/>
	<stop  offset="0.2933" style="stop-color:#9F9D9D"/>
	<stop  offset="0.5447" style="stop-color:#CCCCCC"/>
	<stop  offset="0.6732" style="stop-color:#FFFFFF"/>
	<stop  offset="0.8687" style="stop-color:#E4E3E3"/>
	<stop  offset="1" style="stop-color:#B3B3B3"/>
</linearGradient>
<rect x="186.3" y="42.2" style="fill:url(#SVGID_00000152945095087491148840000011995010582095294087_);" width="7.6" height="73.2"/>
<g>
	<polygon class="st2" points="191.4,260.7 191.4,218.6 199.7,213.6 199.7,265.3 	"/>
	
		<linearGradient id="SVGID_00000173160794030561468130000013842025671775904131_" gradientUnits="userSpaceOnUse" x1="5499.0454" y1="642.975" x2="5499.0454" y2="694.6185" gradientTransform="matrix(-1 0 0 1 5694.6182 -429.3511)">
		<stop  offset="0.2849" style="stop-color:#606060"/>
		<stop  offset="0.5139" style="stop-color:#999999"/>
		<stop  offset="0.6613" style="stop-color:#ACACAC;stop-opacity:0.76"/>
		<stop  offset="0.8464" style="stop-color:#6E6E6F;stop-opacity:0.9913"/>
		<stop  offset="1" style="stop-color:#606060"/>
	</linearGradient>
	
		<polygon style="opacity:0.58;fill:url(#SVGID_00000173160794030561468130000013842025671775904131_);enable-background:new    ;" points="
		191.4,260.7 191.4,218.6 199.7,213.6 199.7,265.3 	"/>
</g>
<linearGradient id="SVGID_00000075858056342733107280000011057438877277728909_" gradientUnits="userSpaceOnUse" x1="-372.5016" y1="-2843.9038" x2="-354.8855" y2="-2843.9038" gradientTransform="matrix(1 0 0 -1 543.2952 -2764.9009)">
	<stop  offset="0" style="stop-color:#3F3B3C"/>
	<stop  offset="1" style="stop-color:#3F3B3C;stop-opacity:0"/>
</linearGradient>
<polygon style="opacity:0.5;fill:url(#SVGID_00000075858056342733107280000011057438877277728909_);enable-background:new    ;" points="
	188.2,41.1 170.5,41.1 170.5,116.9 188.3,116.9 "/>
<linearGradient id="SVGID_00000038371131549871793370000000471355860896888246_" gradientUnits="userSpaceOnUse" x1="179.476" y1="204.1028" x2="179.476" y2="280.1595" gradientTransform="matrix(1 0 0 -1 0 321)">
	<stop  offset="0" style="stop-color:#9F9D9D"/>
	<stop  offset="0.1816" style="stop-color:#808080"/>
	<stop  offset="0.2933" style="stop-color:#9F9D9D"/>
	<stop  offset="0.5447" style="stop-color:#CCCCCC"/>
	<stop  offset="0.6732" style="stop-color:#FFFFFF"/>
	<stop  offset="0.8687" style="stop-color:#E4E3E3"/>
	<stop  offset="1" style="stop-color:#B3B3B3"/>
</linearGradient>
<rect x="172.6" y="40.8" style="fill:url(#SVGID_00000038371131549871793370000000471355860896888246_);" width="13.7" height="76.1"/>
<linearGradient id="SVGID_00000142881492382611483190000010163258587480913030_" gradientUnits="userSpaceOnUse" x1="126.8266" y1="204.1028" x2="126.8266" y2="280.1595" gradientTransform="matrix(1 0 0 -1 0 321)">
	<stop  offset="0" style="stop-color:#9F9D9D"/>
	<stop  offset="0.1816" style="stop-color:#808080"/>
	<stop  offset="0.2933" style="stop-color:#9F9D9D"/>
	<stop  offset="0.5447" style="stop-color:#CCCCCC"/>
	<stop  offset="0.6732" style="stop-color:#FFFFFF"/>
	<stop  offset="0.8687" style="stop-color:#E4E3E3"/>
	<stop  offset="1" style="stop-color:#B3B3B3"/>
</linearGradient>
<rect x="116.2" y="40.8" style="fill:url(#SVGID_00000142881492382611483190000010163258587480913030_);" width="21.3" height="76.1"/>
<linearGradient id="SVGID_00000155861564193693845910000010744207761330787005_" gradientUnits="userSpaceOnUse" x1="76.3904" y1="204.1028" x2="76.3904" y2="280.1595" gradientTransform="matrix(1 0 0 -1 0 321)">
	<stop  offset="0" style="stop-color:#9F9D9D"/>
	<stop  offset="0.1816" style="stop-color:#808080"/>
	<stop  offset="0.2933" style="stop-color:#9F9D9D"/>
	<stop  offset="0.5447" style="stop-color:#CCCCCC"/>
	<stop  offset="0.6732" style="stop-color:#FFFFFF"/>
	<stop  offset="0.8687" style="stop-color:#E4E3E3"/>
	<stop  offset="1" style="stop-color:#B3B3B3"/>
</linearGradient>
<rect x="65.7" y="40.8" style="fill:url(#SVGID_00000155861564193693845910000010744207761330787005_);" width="21.3" height="76.1"/>
<linearGradient id="SVGID_00000149345092806891284460000014531010581255346328_" gradientUnits="userSpaceOnUse" x1="134.7407" y1="303.9325" x2="134.7407" y2="392.1958" gradientTransform="matrix(1 0 0 -1 0 427)">
	<stop  offset="0" style="stop-color:#B3B3B3"/>
	<stop  offset="0.25" style="stop-color:#666666"/>
	<stop  offset="0.4162" style="stop-color:#D1D3D4"/>
	<stop  offset="0.5168" style="stop-color:#CCCCCC"/>
	<stop  offset="0.662" style="stop-color:#F1F2F2"/>
	<stop  offset="0.8519" style="stop-color:#CCCCCC"/>
	<stop  offset="0.919" style="stop-color:#E6E7E8"/>
	<stop  offset="1" style="stop-color:#919396"/>
</linearGradient>
<polygon style="fill:url(#SVGID_00000149345092806891284460000014531010581255346328_);" points="131.1,34.8 134.5,40.4 
	138.4,116.9 135.5,123.1 "/>
<linearGradient id="SVGID_00000181783774398051744990000004058308353865635463_" gradientUnits="userSpaceOnUse" x1="-6369.2183" y1="1079.71" x2="-6369.2183" y2="996.4426" gradientTransform="matrix(-1 0 0 -1.06 -6237.6299 1190.65)">
	<stop  offset="0" style="stop-color:#939598"/>
	<stop  offset="0.1927" style="stop-color:#6D6E71"/>
	<stop  offset="0.39" style="stop-color:#808080"/>
	<stop  offset="0.6606" style="stop-color:#CCCCCC"/>
	<stop  offset="0.8658" style="stop-color:#808285"/>
	<stop  offset="0.9715" style="stop-color:#B3B3B3"/>
</linearGradient>
<polygon style="fill:url(#SVGID_00000181783774398051744990000004058308353865635463_);" points="131.1,34.8 135.5,123.1 
	131.9,117.3 127.7,40.4 "/>
<linearGradient id="SVGID_00000008130845543985453100000001744614082297906357_" gradientUnits="userSpaceOnUse" x1="141.3136" y1="303.9325" x2="141.3136" y2="392.1958" gradientTransform="matrix(1 0 0 -1 0 427)">
	<stop  offset="0" style="stop-color:#B3B3B3"/>
	<stop  offset="0.25" style="stop-color:#666666"/>
	<stop  offset="0.4162" style="stop-color:#D1D3D4"/>
	<stop  offset="0.5168" style="stop-color:#CCCCCC"/>
	<stop  offset="0.662" style="stop-color:#F1F2F2"/>
	<stop  offset="0.8519" style="stop-color:#CCCCCC"/>
	<stop  offset="0.919" style="stop-color:#E6E7E8"/>
	<stop  offset="1" style="stop-color:#919396"/>
</linearGradient>
<polygon style="fill:url(#SVGID_00000008130845543985453100000001744614082297906357_);" points="137.6,34.8 141.1,40.4 145,116.9 
	142.1,123.1 "/>
<linearGradient id="SVGID_00000126316390146175094620000002128164229761260435_" gradientUnits="userSpaceOnUse" x1="-6375.9253" y1="1079.71" x2="-6375.9253" y2="996.4426" gradientTransform="matrix(-1 0 0 -1.06 -6237.6299 1190.65)">
	<stop  offset="0" style="stop-color:#939598"/>
	<stop  offset="0.1927" style="stop-color:#6D6E71"/>
	<stop  offset="0.39" style="stop-color:#808080"/>
	<stop  offset="0.6606" style="stop-color:#CCCCCC"/>
	<stop  offset="0.8658" style="stop-color:#808285"/>
	<stop  offset="0.9715" style="stop-color:#B3B3B3"/>
</linearGradient>
<path style="fill:url(#SVGID_00000126316390146175094620000002128164229761260435_);" d="M137.6,34.8l4.4,88.3
	c-1.2-2-2.4-4.2-3.6-6.2c-1.3-25.5-2.5-51-3.9-76.3C135.6,38.6,136.6,36.7,137.6,34.8z"/>
<linearGradient id="SVGID_00000111187999866382805410000017025885466603216271_" gradientUnits="userSpaceOnUse" x1="147.8864" y1="303.9325" x2="147.8864" y2="392.1958" gradientTransform="matrix(1 0 0 -1 0 427)">
	<stop  offset="0" style="stop-color:#B3B3B3"/>
	<stop  offset="0.25" style="stop-color:#666666"/>
	<stop  offset="0.4162" style="stop-color:#D1D3D4"/>
	<stop  offset="0.5168" style="stop-color:#CCCCCC"/>
	<stop  offset="0.662" style="stop-color:#F1F2F2"/>
	<stop  offset="0.8519" style="stop-color:#CCCCCC"/>
	<stop  offset="0.919" style="stop-color:#E6E7E8"/>
	<stop  offset="1" style="stop-color:#919396"/>
</linearGradient>
<polygon style="fill:url(#SVGID_00000111187999866382805410000017025885466603216271_);" points="144.2,34.8 147.7,40.4 
	151.6,116.9 148.6,123.1 "/>
<linearGradient id="SVGID_00000147936400073760038700000016582861289413121677_" gradientUnits="userSpaceOnUse" x1="-6382.498" y1="1079.71" x2="-6382.498" y2="996.4426" gradientTransform="matrix(-1 0 0 -1.06 -6237.6299 1190.65)">
	<stop  offset="0" style="stop-color:#939598"/>
	<stop  offset="0.1927" style="stop-color:#6D6E71"/>
	<stop  offset="0.39" style="stop-color:#808080"/>
	<stop  offset="0.6606" style="stop-color:#CCCCCC"/>
	<stop  offset="0.8658" style="stop-color:#808285"/>
	<stop  offset="0.9715" style="stop-color:#B3B3B3"/>
</linearGradient>
<path style="fill:url(#SVGID_00000147936400073760038700000016582861289413121677_);" d="M144.2,34.8l4.4,88.3
	c-1.2-2-2.4-4.2-3.6-6.2c-1.3-25.5-2.5-51-3.9-76.3C142.2,38.6,143.1,36.7,144.2,34.8z"/>
<linearGradient id="SVGID_00000014597358206605715020000008638569533195854992_" gradientUnits="userSpaceOnUse" x1="154.3921" y1="303.9325" x2="154.3921" y2="392.1958" gradientTransform="matrix(1 0 0 -1 0 427)">
	<stop  offset="0" style="stop-color:#B3B3B3"/>
	<stop  offset="0.25" style="stop-color:#666666"/>
	<stop  offset="0.4162" style="stop-color:#D1D3D4"/>
	<stop  offset="0.5168" style="stop-color:#CCCCCC"/>
	<stop  offset="0.662" style="stop-color:#F1F2F2"/>
	<stop  offset="0.8519" style="stop-color:#CCCCCC"/>
	<stop  offset="0.919" style="stop-color:#E6E7E8"/>
	<stop  offset="1" style="stop-color:#919396"/>
</linearGradient>
<polygon style="fill:url(#SVGID_00000014597358206605715020000008638569533195854992_);" points="150.6,34.8 154.3,40.4 
	158.1,116.9 155.2,123.1 "/>
<linearGradient id="SVGID_00000024684736924315930850000001239464769173487281_" gradientUnits="userSpaceOnUse" x1="-6388.937" y1="1079.71" x2="-6388.937" y2="996.4426" gradientTransform="matrix(-1 0 0 -1.06 -6237.6299 1190.65)">
	<stop  offset="0" style="stop-color:#939598"/>
	<stop  offset="0.1927" style="stop-color:#6D6E71"/>
	<stop  offset="0.39" style="stop-color:#808080"/>
	<stop  offset="0.6606" style="stop-color:#CCCCCC"/>
	<stop  offset="0.8658" style="stop-color:#808285"/>
	<stop  offset="0.9715" style="stop-color:#B3B3B3"/>
</linearGradient>
<path style="fill:url(#SVGID_00000024684736924315930850000001239464769173487281_);" d="M150.6,34.8l4.4,88.3
	c-1.2-2-2.4-4.2-3.6-6.2c-1.3-25.5-2.5-51-3.9-76.3C148.8,38.6,149.7,36.7,150.6,34.8z"/>
<linearGradient id="SVGID_00000176035181383406687290000016818324629382512313_" gradientUnits="userSpaceOnUse" x1="160.9649" y1="303.9325" x2="160.9649" y2="392.1958" gradientTransform="matrix(1 0 0 -1 0 427)">
	<stop  offset="0" style="stop-color:#B3B3B3"/>
	<stop  offset="0.25" style="stop-color:#666666"/>
	<stop  offset="0.4162" style="stop-color:#D1D3D4"/>
	<stop  offset="0.5168" style="stop-color:#CCCCCC"/>
	<stop  offset="0.662" style="stop-color:#F1F2F2"/>
	<stop  offset="0.8519" style="stop-color:#CCCCCC"/>
	<stop  offset="0.919" style="stop-color:#E6E7E8"/>
	<stop  offset="1" style="stop-color:#919396"/>
</linearGradient>
<polygon style="fill:url(#SVGID_00000176035181383406687290000016818324629382512313_);" points="157.2,34.8 160.8,40.4 
	164.7,116.9 161.8,123.1 "/>
<linearGradient id="SVGID_00000011725385752889006420000006183413598749554843_" gradientUnits="userSpaceOnUse" x1="-6395.5098" y1="1079.71" x2="-6395.5098" y2="996.4426" gradientTransform="matrix(-1 0 0 -1.06 -6237.6299 1190.65)">
	<stop  offset="0" style="stop-color:#939598"/>
	<stop  offset="0.1927" style="stop-color:#6D6E71"/>
	<stop  offset="0.39" style="stop-color:#808080"/>
	<stop  offset="0.6606" style="stop-color:#CCCCCC"/>
	<stop  offset="0.8658" style="stop-color:#808285"/>
	<stop  offset="0.9715" style="stop-color:#B3B3B3"/>
</linearGradient>
<path style="fill:url(#SVGID_00000011725385752889006420000006183413598749554843_);" d="M157.2,34.8l4.4,88.3
	c-1.2-2-2.4-4.2-3.6-6.2c-1.3-25.5-2.5-51-3.9-76.3C155.2,38.6,156.3,36.7,157.2,34.8z"/>
<linearGradient id="SVGID_00000016784237790923430980000006386061543519937154_" gradientUnits="userSpaceOnUse" x1="-434.9447" y1="-2843.9038" x2="-417.3286" y2="-2843.9038" gradientTransform="matrix(1 0 0 -1 543.2952 -2764.9009)">
	<stop  offset="0" style="stop-color:#3F3B3C"/>
	<stop  offset="1" style="stop-color:#3F3B3C;stop-opacity:0"/>
</linearGradient>
<polygon style="opacity:0.5;fill:url(#SVGID_00000016784237790923430980000006386061543519937154_);enable-background:new    ;" points="
	125.7,41.1 108.1,41.1 108.1,116.9 126,116.9 "/>
<linearGradient id="SVGID_00000150070628937350128110000015902010207893949577_" gradientUnits="userSpaceOnUse" x1="-612.4359" y1="-2504.6221" x2="-594.8198" y2="-2504.6221" gradientTransform="matrix(-1 0 0 1 -521.2305 2583.625)">
	<stop  offset="0" style="stop-color:#3F3B3C"/>
	<stop  offset="1" style="stop-color:#3F3B3C;stop-opacity:0"/>
</linearGradient>
<polygon style="opacity:0.5;fill:url(#SVGID_00000150070628937350128110000015902010207893949577_);enable-background:new    ;" points="
	73.8,116.9 91.5,116.9 91.5,41.1 73.6,41.1 "/>
<linearGradient id="SVGID_00000129190243147401039550000010835408817986936766_" gradientUnits="userSpaceOnUse" x1="167.5377" y1="303.9325" x2="167.5377" y2="392.1958" gradientTransform="matrix(1 0 0 -1 0 427)">
	<stop  offset="0" style="stop-color:#B3B3B3"/>
	<stop  offset="0.25" style="stop-color:#666666"/>
	<stop  offset="0.4162" style="stop-color:#D1D3D4"/>
	<stop  offset="0.5168" style="stop-color:#CCCCCC"/>
	<stop  offset="0.662" style="stop-color:#F1F2F2"/>
	<stop  offset="0.8519" style="stop-color:#CCCCCC"/>
	<stop  offset="0.919" style="stop-color:#E6E7E8"/>
	<stop  offset="1" style="stop-color:#919396"/>
</linearGradient>
<polygon style="fill:url(#SVGID_00000129190243147401039550000010835408817986936766_);" points="163.8,34.8 167.4,40.4 
	171.3,116.9 168.3,123.1 "/>
<linearGradient id="SVGID_00000049209529840509713510000017404349326406832046_" gradientUnits="userSpaceOnUse" x1="10.2599" y1="205.5784" x2="10.2599" y2="278.8182" gradientTransform="matrix(1 0 0 -1 0 321)">
	<stop  offset="0" style="stop-color:#9F9D9D"/>
	<stop  offset="0.1816" style="stop-color:#808080"/>
	<stop  offset="0.2933" style="stop-color:#9F9D9D"/>
	<stop  offset="0.5447" style="stop-color:#CCCCCC"/>
	<stop  offset="0.6732" style="stop-color:#FFFFFF"/>
	<stop  offset="0.8687" style="stop-color:#E4E3E3"/>
	<stop  offset="1" style="stop-color:#B3B3B3"/>
</linearGradient>
<rect x="6.4" y="42.2" style="fill:url(#SVGID_00000049209529840509713510000017404349326406832046_);" width="7.6" height="73.2"/>
<linearGradient id="SVGID_00000117648284289746811980000001464069532128769442_" gradientUnits="userSpaceOnUse" x1="-6402.0825" y1="1079.71" x2="-6402.0825" y2="996.4426" gradientTransform="matrix(-1 0 0 -1.06 -6237.6299 1190.65)">
	<stop  offset="0" style="stop-color:#939598"/>
	<stop  offset="0.1927" style="stop-color:#6D6E71"/>
	<stop  offset="0.39" style="stop-color:#808080"/>
	<stop  offset="0.6606" style="stop-color:#CCCCCC"/>
	<stop  offset="0.8658" style="stop-color:#808285"/>
	<stop  offset="0.9715" style="stop-color:#B3B3B3"/>
</linearGradient>
<path style="fill:url(#SVGID_00000117648284289746811980000001464069532128769442_);" d="M163.8,34.8l4.4,88.3
	c-1.2-2-2.4-4.2-3.6-6.2c-1.3-25.5-2.5-51-3.9-76.3C161.8,38.6,162.8,36.7,163.8,34.8z"/>
<linearGradient id="SVGID_00000023243427284701046690000006657559648990710715_" gradientUnits="userSpaceOnUse" x1="174.1105" y1="303.9325" x2="174.1105" y2="392.1958" gradientTransform="matrix(1 0 0 -1 0 427)">
	<stop  offset="0" style="stop-color:#B3B3B3"/>
	<stop  offset="0.25" style="stop-color:#666666"/>
	<stop  offset="0.4162" style="stop-color:#D1D3D4"/>
	<stop  offset="0.5168" style="stop-color:#CCCCCC"/>
	<stop  offset="0.662" style="stop-color:#F1F2F2"/>
	<stop  offset="0.8519" style="stop-color:#CCCCCC"/>
	<stop  offset="0.919" style="stop-color:#E6E7E8"/>
	<stop  offset="1" style="stop-color:#919396"/>
</linearGradient>
<polygon style="fill:url(#SVGID_00000023243427284701046690000006657559648990710715_);" points="170.4,34.8 174,40.4 177.9,116.9 
	174.9,123.1 "/>
<linearGradient id="SVGID_00000065070098862824811830000017476561829641509546_" gradientUnits="userSpaceOnUse" x1="-6408.6553" y1="1079.71" x2="-6408.6553" y2="996.4426" gradientTransform="matrix(-1 0 0 -1.06 -6237.6299 1190.65)">
	<stop  offset="0" style="stop-color:#939598"/>
	<stop  offset="0.1927" style="stop-color:#6D6E71"/>
	<stop  offset="0.39" style="stop-color:#808080"/>
	<stop  offset="0.6606" style="stop-color:#CCCCCC"/>
	<stop  offset="0.8658" style="stop-color:#808285"/>
	<stop  offset="0.9715" style="stop-color:#B3B3B3"/>
</linearGradient>
<path style="fill:url(#SVGID_00000065070098862824811830000017476561829641509546_);" d="M170.4,34.8l4.4,88.3
	c-1.2-2-2.4-4.2-3.6-6.2c-1.3-25.5-2.5-51-3.9-76.3C168.3,38.6,169.4,36.7,170.4,34.8z"/>
<g>
	<rect x="116.8" y="37.5" class="st27" width="3.2" height="28.2"/>
	<rect x="116.8" y="91.4" class="st28" width="3.2" height="28.2"/>
	<rect x="79.8" y="91.4" class="st28" width="3.2" height="28.2"/>
	<rect x="79.8" y="37.5" class="st27" width="3.2" height="28.2"/>
	
		<linearGradient id="SVGID_00000056418906096478851750000010928270758851602075_" gradientUnits="userSpaceOnUse" x1="99.9317" y1="-331.8732" x2="99.9317" y2="-362.9558" gradientTransform="matrix(1 0 0 -1 0 -224.3858)">
		<stop  offset="6.983240e-02" style="stop-color:#58595B"/>
		<stop  offset="0.3715" style="stop-color:#808285"/>
		<stop  offset="0.4888" style="stop-color:#6D6E71"/>
		<stop  offset="0.6397" style="stop-color:#838587"/>
		<stop  offset="0.824" style="stop-color:#BCBEC0"/>
		<stop  offset="1" style="stop-color:#BAB9B9"/>
	</linearGradient>
	<path style="fill:url(#SVGID_00000056418906096478851750000010928270758851602075_);" d="M82.4,107.5l-2.5,8.6v14.2l4.7,8.2h31.3
		l4.3-8.2V116c-0.8-3-1.5-5.6-2.3-8.6C106,107.5,94.2,107.5,82.4,107.5z"/>
	
		<linearGradient id="SVGID_00000160869813546437097230000012053811520118931885_" gradientUnits="userSpaceOnUse" x1="99.9988" y1="3224.5527" x2="99.9988" y2="3193.4326" gradientTransform="matrix(1 0 0 1 0 -3174.1885)">
		<stop  offset="0" style="stop-color:#F2F2F2"/>
		<stop  offset="1" style="stop-color:#CCCCCC"/>
	</linearGradient>
	<path style="fill:url(#SVGID_00000160869813546437097230000012053811520118931885_);" d="M82.4,50.2l-2.5-8.6V27.4l4.7-8.2h31.3
		l4.3,8.2c0,4.7,0,9.4,0.1,14.2c-0.4,1.5-0.8,3-1.2,4.4c-0.4,1.5-0.8,2.8-1.1,4.3C106,50.2,94.2,50.2,82.4,50.2z"/>
	
		<linearGradient id="SVGID_00000081620917885171759940000009728282294099749798_" gradientUnits="userSpaceOnUse" x1="99.9317" y1="-331.8932" x2="99.9317" y2="-274.7501" gradientTransform="matrix(1 0 0 -1 0 -224.3858)">
		<stop  offset="0" style="stop-color:#E6E6E6"/>
		<stop  offset="0.263" style="stop-color:#E1E1E1"/>
		<stop  offset="0.5724" style="stop-color:#D3D3D3"/>
		<stop  offset="0.904" style="stop-color:#BBBBBB"/>
		<stop  offset="1" style="stop-color:#B3B3B3"/>
	</linearGradient>
	<path style="fill:url(#SVGID_00000081620917885171759940000009728282294099749798_);" d="M117.8,107.5c0.8-5.1,1.5-10.2,2.3-15.3
		c0-8.9,0-17.7,0-26.6c-0.4-2.5-0.8-5.1-1.1-7.6c-0.4-2.5-0.8-5.1-1.2-7.6c-11.8,0-23.6,0-35.4,0c-0.8,5-1.6,10.1-2.5,15.2
		c0,8.9,0,17.7,0,26.6l2.5,15.3L117.8,107.5L117.8,107.5z"/>
	
		<linearGradient id="SVGID_00000000193273088395619690000000456995662926532276_" gradientUnits="userSpaceOnUse" x1="99.9317" y1="511.3266" x2="99.9317" y2="542.6376" gradientTransform="matrix(1 0 0 1 0 -404)">
		<stop  offset="0" style="stop-color:#808080"/>
		<stop  offset="1" style="stop-color:#ABABAB"/>
	</linearGradient>
	<path style="fill:url(#SVGID_00000000193273088395619690000000456995662926532276_);" d="M82.4,107.4c-0.8,2.8-1.7,5.8-2.5,8.6
		c0,4.8,0,9.5,0,14.4c1.6,2.7,3.1,5.5,4.7,8.2h31.3l4.3-8.3V116c-0.8-3-1.5-5.8-2.3-8.6c-5.8,0-11.7,0-17.6,0
		C94.2,107.4,88.3,107.4,82.4,107.4z"/>
</g>
<linearGradient id="SVGID_00000067229084274752616640000016063245231734774678_" gradientUnits="userSpaceOnUse" x1="196.7129" y1="215.4766" x2="196.7129" y2="287.375" gradientTransform="matrix(1 0 0 -1 0 321)">
	<stop  offset="0" style="stop-color:#9F9D9D"/>
	<stop  offset="0.1816" style="stop-color:#808080"/>
	<stop  offset="0.2933" style="stop-color:#9F9D9D"/>
	<stop  offset="0.5447" style="stop-color:#CCCCCC"/>
	<stop  offset="0.6732" style="stop-color:#FFFFFF"/>
	<stop  offset="0.8687" style="stop-color:#E4E3E3"/>
	<stop  offset="1" style="stop-color:#B3B3B3"/>
</linearGradient>
<path style="fill:url(#SVGID_00000067229084274752616640000016063245231734774678_);" d="M199.5,106c-1.9,3-3.6,5.9-5.5,8.9
	c0-24,0-48,0-71.9c1.9,3,3.6,5.9,5.5,8.9V106z"/>
<linearGradient id="SVGID_00000117673209782874686840000000896132445742814597_" gradientUnits="userSpaceOnUse" x1="-549.1403" y1="-2504.7561" x2="-531.5242" y2="-2504.7561" gradientTransform="matrix(-1 0 0 1 -521.2305 2583.625)">
	<stop  offset="0" style="stop-color:#3F3B3C"/>
	<stop  offset="1" style="stop-color:#3F3B3C;stop-opacity:0"/>
</linearGradient>
<polygon style="opacity:0.5;fill:url(#SVGID_00000117673209782874686840000000896132445742814597_);enable-background:new    ;" points="
	10.6,115.6 28.2,115.6 28.2,42.2 10.3,42.2 "/>
<linearGradient id="SVGID_00000127744502538954450780000005973327812865754507_" gradientUnits="userSpaceOnUse" x1="5760.3569" y1="215.4384" x2="5760.3569" y2="287.4709" gradientTransform="matrix(-1 0 0 -1 5764.0439 321)">
	<stop  offset="0" style="stop-color:#9F9D9D"/>
	<stop  offset="0.1816" style="stop-color:#808080"/>
	<stop  offset="0.2933" style="stop-color:#9F9D9D"/>
	<stop  offset="0.5447" style="stop-color:#CCCCCC"/>
	<stop  offset="0.6732" style="stop-color:#FFFFFF"/>
	<stop  offset="0.8687" style="stop-color:#E4E3E3"/>
	<stop  offset="1" style="stop-color:#B3B3B3"/>
</linearGradient>
<path style="fill:url(#SVGID_00000127744502538954450780000005973327812865754507_);" d="M0.9,106c1.9,3,3.6,5.9,5.5,8.9
	c0-24,0-48,0-72c-1.9,3-3.6,5.9-5.5,8.9L0.9,106z"/>
<linearGradient id="SVGID_00000122692142435009242360000014363531940098917286_" gradientUnits="userSpaceOnUse" x1="5743.1201" y1="204.1028" x2="5743.1201" y2="280.1595" gradientTransform="matrix(-1 0 0 -1 5764.0439 321)">
	<stop  offset="0" style="stop-color:#9F9D9D"/>
	<stop  offset="0.1816" style="stop-color:#808080"/>
	<stop  offset="0.2933" style="stop-color:#9F9D9D"/>
	<stop  offset="0.5447" style="stop-color:#CCCCCC"/>
	<stop  offset="0.6732" style="stop-color:#FFFFFF"/>
	<stop  offset="0.8687" style="stop-color:#E4E3E3"/>
	<stop  offset="1" style="stop-color:#B3B3B3"/>
</linearGradient>
<polygon style="fill:url(#SVGID_00000122692142435009242360000014363531940098917286_);" points="14.1,116.9 27.8,116.9 27.8,40.8 
	14.1,40.8 "/>
<linearGradient id="SVGID_00000066487003901884828440000009157573191862524330_" gradientUnits="userSpaceOnUse" x1="5758.2715" y1="242.1312" x2="5763.771" y2="242.1312" gradientTransform="matrix(-1 0 0 -1 5764.0439 321)">
	<stop  offset="0" style="stop-color:#B3B3B3;stop-opacity:0.5"/>
	<stop  offset="1" style="stop-color:#B3B3B3;stop-opacity:0"/>
</linearGradient>
<path style="opacity:0.53;fill:url(#SVGID_00000066487003901884828440000009157573191862524330_);enable-background:new    ;" d="
	M0.9,106c1.9,3,3.6,5.9,5.5,8.9c0-24,0-48,0-72c-1.9,3-3.6,5.9-5.5,8.9L0.9,106z"/>
<linearGradient id="SVGID_00000137824818202929636080000018093164701171338896_" gradientUnits="userSpaceOnUse" x1="29.2406" y1="303.9325" x2="29.2406" y2="392.1958" gradientTransform="matrix(1 0 0 -1 0 427)">
	<stop  offset="0" style="stop-color:#B3B3B3"/>
	<stop  offset="0.25" style="stop-color:#666666"/>
	<stop  offset="0.4162" style="stop-color:#D1D3D4"/>
	<stop  offset="0.5168" style="stop-color:#CCCCCC"/>
	<stop  offset="0.662" style="stop-color:#F1F2F2"/>
	<stop  offset="0.8519" style="stop-color:#CCCCCC"/>
	<stop  offset="0.919" style="stop-color:#E6E7E8"/>
	<stop  offset="1" style="stop-color:#919396"/>
</linearGradient>
<polygon style="fill:url(#SVGID_00000137824818202929636080000018093164701171338896_);" points="25.5,34.8 29.1,40.4 33,116.9 
	29.9,123.1 "/>
<linearGradient id="SVGID_00000015322404973001726570000002927680257539581580_" gradientUnits="userSpaceOnUse" x1="-6263.6509" y1="1079.71" x2="-6263.6509" y2="996.4426" gradientTransform="matrix(-1 0 0 -1.06 -6237.6299 1190.65)">
	<stop  offset="0" style="stop-color:#939598"/>
	<stop  offset="0.1927" style="stop-color:#6D6E71"/>
	<stop  offset="0.39" style="stop-color:#808080"/>
	<stop  offset="0.6606" style="stop-color:#CCCCCC"/>
	<stop  offset="0.8658" style="stop-color:#808285"/>
	<stop  offset="0.9715" style="stop-color:#B3B3B3"/>
</linearGradient>
<polygon style="fill:url(#SVGID_00000015322404973001726570000002927680257539581580_);" points="25.5,34.8 29.9,123.1 26.4,117.3 
	22.1,40.4 "/>
<linearGradient id="SVGID_00000154417252085830830310000016620596351544987303_" gradientUnits="userSpaceOnUse" x1="35.8134" y1="303.9325" x2="35.8134" y2="392.1958" gradientTransform="matrix(1 0 0 -1 0 427)">
	<stop  offset="0" style="stop-color:#B3B3B3"/>
	<stop  offset="0.25" style="stop-color:#666666"/>
	<stop  offset="0.4162" style="stop-color:#D1D3D4"/>
	<stop  offset="0.5168" style="stop-color:#CCCCCC"/>
	<stop  offset="0.662" style="stop-color:#F1F2F2"/>
	<stop  offset="0.8519" style="stop-color:#CCCCCC"/>
	<stop  offset="0.919" style="stop-color:#E6E7E8"/>
	<stop  offset="1" style="stop-color:#919396"/>
</linearGradient>
<polygon style="fill:url(#SVGID_00000154417252085830830310000016620596351544987303_);" points="32.1,34.8 35.7,40.4 39.6,116.9 
	36.5,123.1 "/>
<linearGradient id="SVGID_00000166641450751921089840000011659039974662493860_" gradientUnits="userSpaceOnUse" x1="-6270.3579" y1="1079.71" x2="-6270.3579" y2="996.4426" gradientTransform="matrix(-1 0 0 -1.06 -6237.6299 1190.65)">
	<stop  offset="0" style="stop-color:#939598"/>
	<stop  offset="0.1927" style="stop-color:#6D6E71"/>
	<stop  offset="0.39" style="stop-color:#808080"/>
	<stop  offset="0.6606" style="stop-color:#CCCCCC"/>
	<stop  offset="0.8658" style="stop-color:#808285"/>
	<stop  offset="0.9715" style="stop-color:#B3B3B3"/>
</linearGradient>
<path style="fill:url(#SVGID_00000166641450751921089840000011659039974662493860_);" d="M32.1,34.8l4.4,88.3
	c-1.2-2-2.4-4.2-3.6-6.2c-1.3-25.5-2.5-51-3.9-76.3C30,38.6,31,36.7,32.1,34.8z"/>
<linearGradient id="SVGID_00000146486468839879886950000012920879312575365001_" gradientUnits="userSpaceOnUse" x1="42.3862" y1="303.9325" x2="42.3862" y2="392.1958" gradientTransform="matrix(1 0 0 -1 0 427)">
	<stop  offset="0" style="stop-color:#B3B3B3"/>
	<stop  offset="0.25" style="stop-color:#666666"/>
	<stop  offset="0.4162" style="stop-color:#D1D3D4"/>
	<stop  offset="0.5168" style="stop-color:#CCCCCC"/>
	<stop  offset="0.662" style="stop-color:#F1F2F2"/>
	<stop  offset="0.8519" style="stop-color:#CCCCCC"/>
	<stop  offset="0.919" style="stop-color:#E6E7E8"/>
	<stop  offset="1" style="stop-color:#919396"/>
</linearGradient>
<polygon style="fill:url(#SVGID_00000146486468839879886950000012920879312575365001_);" points="38.6,34.8 42.3,40.4 46.1,116.9 
	43.1,123.1 "/>
<linearGradient id="SVGID_00000043440716005007989590000010168714304630188435_" gradientUnits="userSpaceOnUse" x1="-6276.9307" y1="1079.71" x2="-6276.9307" y2="996.4426" gradientTransform="matrix(-1 0 0 -1.06 -6237.6299 1190.65)">
	<stop  offset="0" style="stop-color:#939598"/>
	<stop  offset="0.1927" style="stop-color:#6D6E71"/>
	<stop  offset="0.39" style="stop-color:#808080"/>
	<stop  offset="0.6606" style="stop-color:#CCCCCC"/>
	<stop  offset="0.8658" style="stop-color:#808285"/>
	<stop  offset="0.9715" style="stop-color:#B3B3B3"/>
</linearGradient>
<path style="fill:url(#SVGID_00000043440716005007989590000010168714304630188435_);" d="M38.6,34.8l4.4,88.3
	c-1.2-2-2.4-4.2-3.6-6.2c-1.3-25.5-2.5-51-3.9-76.3C36.6,38.6,37.6,36.7,38.6,34.8z"/>
<linearGradient id="SVGID_00000111871286959957462970000018295197964317302973_" gradientUnits="userSpaceOnUse" x1="48.8919" y1="303.9325" x2="48.8919" y2="392.1958" gradientTransform="matrix(1 0 0 -1 0 427)">
	<stop  offset="0" style="stop-color:#B3B3B3"/>
	<stop  offset="0.25" style="stop-color:#666666"/>
	<stop  offset="0.4162" style="stop-color:#D1D3D4"/>
	<stop  offset="0.5168" style="stop-color:#CCCCCC"/>
	<stop  offset="0.662" style="stop-color:#F1F2F2"/>
	<stop  offset="0.8519" style="stop-color:#CCCCCC"/>
	<stop  offset="0.919" style="stop-color:#E6E7E8"/>
	<stop  offset="1" style="stop-color:#919396"/>
</linearGradient>
<polygon style="fill:url(#SVGID_00000111871286959957462970000018295197964317302973_);" points="45.2,34.8 48.7,40.4 52.6,116.9 
	49.6,123.1 "/>
<linearGradient id="SVGID_00000047773701842231660930000000247333376094673848_" gradientUnits="userSpaceOnUse" x1="-6283.5034" y1="1079.71" x2="-6283.5034" y2="996.4426" gradientTransform="matrix(-1 0 0 -1.06 -6237.6299 1190.65)">
	<stop  offset="0" style="stop-color:#939598"/>
	<stop  offset="0.1927" style="stop-color:#6D6E71"/>
	<stop  offset="0.39" style="stop-color:#808080"/>
	<stop  offset="0.6606" style="stop-color:#CCCCCC"/>
	<stop  offset="0.8658" style="stop-color:#808285"/>
	<stop  offset="0.9715" style="stop-color:#B3B3B3"/>
</linearGradient>
<path style="fill:url(#SVGID_00000047773701842231660930000000247333376094673848_);" d="M45.2,34.8l4.4,88.3
	c-1.2-2-2.4-4.2-3.6-6.2c-1.3-25.5-2.5-51-3.9-76.3C43.2,38.6,44.1,36.7,45.2,34.8z"/>
<linearGradient id="SVGID_00000129176897357571987340000006528438852217495993_" gradientUnits="userSpaceOnUse" x1="55.4647" y1="303.9325" x2="55.4647" y2="392.1958" gradientTransform="matrix(1 0 0 -1 0 427)">
	<stop  offset="0" style="stop-color:#B3B3B3"/>
	<stop  offset="0.25" style="stop-color:#666666"/>
	<stop  offset="0.4162" style="stop-color:#D1D3D4"/>
	<stop  offset="0.5168" style="stop-color:#CCCCCC"/>
	<stop  offset="0.662" style="stop-color:#F1F2F2"/>
	<stop  offset="0.8519" style="stop-color:#CCCCCC"/>
	<stop  offset="0.919" style="stop-color:#E6E7E8"/>
	<stop  offset="1" style="stop-color:#919396"/>
</linearGradient>
<polygon style="fill:url(#SVGID_00000129176897357571987340000006528438852217495993_);" points="51.8,34.8 55.3,40.4 59.2,116.9 
	56.2,123.1 "/>
<linearGradient id="SVGID_00000046330001858829590450000011873562250719244729_" gradientUnits="userSpaceOnUse" x1="-6290.0767" y1="1079.71" x2="-6290.0767" y2="996.4426" gradientTransform="matrix(-1 0 0 -1.06 -6237.6299 1190.65)">
	<stop  offset="0" style="stop-color:#939598"/>
	<stop  offset="0.1927" style="stop-color:#6D6E71"/>
	<stop  offset="0.39" style="stop-color:#808080"/>
	<stop  offset="0.6606" style="stop-color:#CCCCCC"/>
	<stop  offset="0.8658" style="stop-color:#808285"/>
	<stop  offset="0.9715" style="stop-color:#B3B3B3"/>
</linearGradient>
<path style="fill:url(#SVGID_00000046330001858829590450000011873562250719244729_);" d="M51.8,34.8l4.4,88.3
	c-1.2-2-2.4-4.2-3.6-6.2c-1.3-25.5-2.5-51-3.9-76.3C49.8,38.6,50.7,36.7,51.8,34.8z"/>
<linearGradient id="SVGID_00000074401459479200504050000001986152447326441121_" gradientUnits="userSpaceOnUse" x1="62.0375" y1="303.9325" x2="62.0375" y2="392.1958" gradientTransform="matrix(1 0 0 -1 0 427)">
	<stop  offset="0" style="stop-color:#B3B3B3"/>
	<stop  offset="0.25" style="stop-color:#666666"/>
	<stop  offset="0.4162" style="stop-color:#D1D3D4"/>
	<stop  offset="0.5168" style="stop-color:#CCCCCC"/>
	<stop  offset="0.662" style="stop-color:#F1F2F2"/>
	<stop  offset="0.8519" style="stop-color:#CCCCCC"/>
	<stop  offset="0.919" style="stop-color:#E6E7E8"/>
	<stop  offset="1" style="stop-color:#919396"/>
</linearGradient>
<polygon style="fill:url(#SVGID_00000074401459479200504050000001986152447326441121_);" points="58.3,34.8 61.8,40.4 65.7,116.9 
	62.8,123.1 "/>
<linearGradient id="SVGID_00000061439513384132736050000008760926283235828625_" gradientUnits="userSpaceOnUse" x1="-6296.6494" y1="1079.71" x2="-6296.6494" y2="996.4426" gradientTransform="matrix(-1 0 0 -1.06 -6237.6299 1190.65)">
	<stop  offset="0" style="stop-color:#939598"/>
	<stop  offset="0.1927" style="stop-color:#6D6E71"/>
	<stop  offset="0.39" style="stop-color:#808080"/>
	<stop  offset="0.6606" style="stop-color:#CCCCCC"/>
	<stop  offset="0.8658" style="stop-color:#808285"/>
	<stop  offset="0.9715" style="stop-color:#B3B3B3"/>
</linearGradient>
<path style="fill:url(#SVGID_00000061439513384132736050000008760926283235828625_);" d="M58.3,34.8l4.4,88.3
	c-1.2-2-2.4-4.2-3.6-6.2c-1.3-25.5-2.5-51-3.9-76.3C56.3,38.6,57.3,36.7,58.3,34.8z"/>
<linearGradient id="SVGID_00000054951148675434111080000003228016406147267213_" gradientUnits="userSpaceOnUse" x1="68.6103" y1="303.9325" x2="68.6103" y2="392.1958" gradientTransform="matrix(1 0 0 -1 0 427)">
	<stop  offset="0" style="stop-color:#B3B3B3"/>
	<stop  offset="0.25" style="stop-color:#666666"/>
	<stop  offset="0.4162" style="stop-color:#D1D3D4"/>
	<stop  offset="0.5168" style="stop-color:#CCCCCC"/>
	<stop  offset="0.662" style="stop-color:#F1F2F2"/>
	<stop  offset="0.8519" style="stop-color:#CCCCCC"/>
	<stop  offset="0.919" style="stop-color:#E6E7E8"/>
	<stop  offset="1" style="stop-color:#919396"/>
</linearGradient>
<polygon style="fill:url(#SVGID_00000054951148675434111080000003228016406147267213_);" points="64.9,34.8 68.4,40.4 72.3,116.9 
	69.3,123.1 "/>
<linearGradient id="SVGID_00000131343472369138916450000000265385147386239627_" gradientUnits="userSpaceOnUse" x1="-6303.2222" y1="1079.71" x2="-6303.2222" y2="996.4426" gradientTransform="matrix(-1 0 0 -1.06 -6237.6299 1190.65)">
	<stop  offset="0" style="stop-color:#939598"/>
	<stop  offset="0.1927" style="stop-color:#6D6E71"/>
	<stop  offset="0.39" style="stop-color:#808080"/>
	<stop  offset="0.6606" style="stop-color:#CCCCCC"/>
	<stop  offset="0.8658" style="stop-color:#808285"/>
	<stop  offset="0.9715" style="stop-color:#B3B3B3"/>
</linearGradient>
<path style="fill:url(#SVGID_00000131343472369138916450000000265385147386239627_);" d="M64.9,34.8l4.4,88.3
	c-1.2-2-2.4-4.2-3.6-6.2c-1.3-25.5-2.5-51-3.9-76.3C62.9,38.6,63.8,36.7,64.9,34.8z"/>
<linearGradient id="SVGID_00000103238900592349851270000011323630643597091237_" gradientUnits="userSpaceOnUse" x1="129.7776" y1="203.7004" x2="129.7776" y2="280.4647" gradientTransform="matrix(1 0 0 -1 0 321)">
	<stop  offset="0" style="stop-color:#B3B3B3"/>
	<stop  offset="0.2263" style="stop-color:#666666"/>
	<stop  offset="0.4162" style="stop-color:#D1D3D4"/>
	<stop  offset="0.5168" style="stop-color:#CCCCCC"/>
	<stop  offset="0.662" style="stop-color:#F1F2F2"/>
	<stop  offset="0.8519" style="stop-color:#CCCCCC"/>
	<stop  offset="0.919" style="stop-color:#E6E7E8"/>
	<stop  offset="1" style="stop-color:#919396"/>
</linearGradient>
<path style="fill:url(#SVGID_00000103238900592349851270000011323630643597091237_);" d="M127.7,40.4v76.5c1.3,0.1,2.8,0.3,4.2,0.4
	C130.5,91.7,129,66.1,127.7,40.4z"/>
<linearGradient id="SVGID_00000101073942259552690570000005052087340482494608_" gradientUnits="userSpaceOnUse" x1="175.9214" y1="270.6291" x2="175.9214" y2="194.3041" gradientTransform="matrix(1 0 0 -1 0 321)">
	<stop  offset="0" style="stop-color:#939598"/>
	<stop  offset="0.1927" style="stop-color:#6D6E71"/>
	<stop  offset="0.3045" style="stop-color:#808080"/>
	<stop  offset="0.8966" style="stop-color:#808285"/>
	<stop  offset="1" style="stop-color:#B3B3B3"/>
</linearGradient>
<path style="fill:url(#SVGID_00000101073942259552690570000005052087340482494608_);" d="M174,40.4l3.9,76.3c0-25.4,0-50.7,0-76.1
	C176.5,40.7,175.3,40.6,174,40.4z"/>
<linearGradient id="SVGID_00000013903462337120242160000010717203805249373571_" gradientUnits="userSpaceOnUse" x1="70.3541" y1="204.1028" x2="70.3541" y2="280.4705" gradientTransform="matrix(1 0 0 -1 0 321)">
	<stop  offset="0" style="stop-color:#939598"/>
	<stop  offset="0.1927" style="stop-color:#6D6E71"/>
	<stop  offset="0.39" style="stop-color:#808080"/>
	<stop  offset="0.7842" style="stop-color:#CCCCCC"/>
	<stop  offset="0.8966" style="stop-color:#808285"/>
	<stop  offset="1" style="stop-color:#B3B3B3"/>
</linearGradient>
<path style="fill:url(#SVGID_00000013903462337120242160000010717203805249373571_);" d="M68.4,40.4c1.3,0.1,2.5,0.3,3.9,0.4
	c0,25.4,0,50.7,0,76.1L68.4,40.4z"/>
<linearGradient id="SVGID_00000152227534128341571870000013856354951297049507_" gradientUnits="userSpaceOnUse" x1="24.2104" y1="203.7393" x2="24.2104" y2="280.4667" gradientTransform="matrix(1 0 0 -1 0 321)">
	<stop  offset="0" style="stop-color:#B3B3B3"/>
	<stop  offset="0.25" style="stop-color:#666666"/>
	<stop  offset="0.4162" style="stop-color:#D1D3D4"/>
	<stop  offset="0.5168" style="stop-color:#CCCCCC"/>
	<stop  offset="0.662" style="stop-color:#F1F2F2"/>
	<stop  offset="0.8519" style="stop-color:#CCCCCC"/>
	<stop  offset="0.919" style="stop-color:#E6E7E8"/>
	<stop  offset="1" style="stop-color:#919396"/>
</linearGradient>
<path style="fill:url(#SVGID_00000152227534128341571870000013856354951297049507_);" d="M22.1,40.4v76.3c1.3,0.1,2.8,0.3,4.2,0.4
	C24.9,91.7,23.6,66.1,22.1,40.4z"/>
<image style="overflow:visible;" width="200" height="200" xlink:href="../../pepsi.png"  transform="matrix(0.1096 0 0 0.1096 89.3761 68.0449)">
</image>
</svg>
