<?xml version="1.0" encoding="utf-8"?>
<!-- Generator: Adobe Illustrator 25.4.1, SVG Export Plug-In . SVG Version: 6.00 Build 0)  -->
<svg version="1.1" id="Слой_1" xmlns="http://www.w3.org/2000/svg" xmlns:xlink="http://www.w3.org/1999/xlink" x="0px" y="0px"
	 viewBox="0 0 100 160" style="enable-background:new 0 0 100 160;" xml:space="preserve">
<style type="text/css">
	.st0{fill:#666666;}
	.st1{fill:url(#SVGID_1_);}
	.st2{fill:url(#SVGID_00000013895302936778377100000006703827816696950179_);}
	.st3{fill:url(#SVGID_00000098900188523251538840000014093055435548032140_);}
</style>
<rect x="3.2" y="47.1" class="st0" width="9.3" height="65.9"/>
<linearGradient id="SVGID_1_" gradientUnits="userSpaceOnUse" x1="3.2013" y1="80.934" x2="12.5501" y2="80.934" gradientTransform="matrix(1 0 0 -1 0 161)">
	<stop  offset="0" style="stop-color:#333333"/>
	<stop  offset="0.1345" style="stop-color:#373737;stop-opacity:0.7564"/>
	<stop  offset="0.2567" style="stop-color:#424242;stop-opacity:0.5351"/>
	<stop  offset="0.3741" style="stop-color:#545454;stop-opacity:0.3223"/>
	<stop  offset="0.4879" style="stop-color:#6E6E6E;stop-opacity:0.1162"/>
	<stop  offset="0.5521" style="stop-color:#808080;stop-opacity:0"/>
	<stop  offset="0.5997" style="stop-color:#707070;stop-opacity:0.1063"/>
	<stop  offset="0.6956" style="stop-color:#555555;stop-opacity:0.3204"/>
	<stop  offset="0.7935" style="stop-color:#424242;stop-opacity:0.539"/>
	<stop  offset="0.8938" style="stop-color:#373737;stop-opacity:0.7629"/>
	<stop  offset="1" style="stop-color:#333333"/>
</linearGradient>
<rect x="3.2" y="47.1" class="st1" width="9.3" height="65.9"/>
<linearGradient id="SVGID_00000015351244784628695010000016012844615619284621_" gradientUnits="userSpaceOnUse" x1="7.89" y1="47.9723" x2="7.89" y2="113.8957" gradientTransform="matrix(1 0 0 -1 0 161)">
	<stop  offset="0" style="stop-color:#333333"/>
	<stop  offset="0.5514" style="stop-color:#333333;stop-opacity:1.293242e-03"/>
	<stop  offset="0.5521" style="stop-color:#333333;stop-opacity:0"/>
	<stop  offset="1" style="stop-color:#333333"/>
</linearGradient>
<rect x="3.2" y="47.1" style="fill:url(#SVGID_00000015351244784628695010000016012844615619284621_);" width="9.3" height="65.9"/>
<circle cx="7.9" cy="47.2" r="4.7"/>
<circle cx="7.9" cy="113" r="4.7"/>
<path class="st0" d="M58.9,42.5c-20.7,0-37.6,16.8-37.6,37.6s16.8,37.6,37.6,37.6s37.6-16.8,37.6-37.6S79.7,42.5,58.9,42.5z
	 M58.9,110.7C42,110.7,28.3,97,28.3,80.1s13.7-30.6,30.6-30.6c16.9,0,30.6,13.7,30.6,30.6S75.9,110.7,58.9,110.7z"/>
<radialGradient id="SVGID_00000116922935225268987660000007457609422722147990_" cx="59.0163" cy="80.9" r="37.5823" gradientTransform="matrix(1 0 0 -1 0 161)" gradientUnits="userSpaceOnUse">
	<stop  offset="0.7737" style="stop-color:#333333"/>
	<stop  offset="0.9122" style="stop-color:#333333;stop-opacity:1.293242e-03"/>
	<stop  offset="0.9123" style="stop-color:#333333;stop-opacity:0"/>
	<stop  offset="1" style="stop-color:#333333"/>
</radialGradient>
<path style="fill:url(#SVGID_00000116922935225268987660000007457609422722147990_);" d="M58.9,42.5c-20.7,0-37.6,16.8-37.6,37.6
	s16.8,37.6,37.6,37.6s37.6-16.8,37.6-37.6S79.7,42.5,58.9,42.5z M58.9,110.7C42,110.7,28.3,97,28.3,80.1s13.7-30.6,30.6-30.6
	c16.9,0,30.6,13.7,30.6,30.6S75.9,110.7,58.9,110.7z"/>
<image style="overflow:visible;" width="200" height="200" xlink:href="../../pepsi.png"  transform="matrix(2.766353e-02 0 0 2.766353e-02 22.1368 76.9528)">
</image>
</svg>
