<?xml version="1.0" encoding="utf-8"?>
<!-- Generator: Adobe Illustrator 25.4.1, SVG Export Plug-In . SVG Version: 6.00 Build 0)  -->
<svg version="1.1" id="Слой_1" xmlns="http://www.w3.org/2000/svg" xmlns:xlink="http://www.w3.org/1999/xlink" x="0px" y="0px"
	 viewBox="0 0 100 160" style="enable-background:new 0 0 100 160;" xml:space="preserve">
<style type="text/css">
	.st0{fill:#666666;}
	.st1{fill:url(#SVGID_1_);}
	.st2{fill:#4D4D4D;}
	.st3{fill:url(#SVGID_00000032639354102952567250000013682553554635059093_);}
	.st4{fill:#333333;}
	.st5{fill:url(#SVGID_00000093868803914899905440000001096690933657308042_);}
</style>
<polygon points="17.7,44 17.7,59 14.2,59 10.5,49.2 10.5,44 "/>
<polygon points="17.7,116.3 17.7,101.3 14.2,101.3 10.5,111.1 10.5,116.3 "/>
<rect x="14.2" y="59" class="st0" width="3.6" height="42.2"/>
<linearGradient id="SVGID_1_" gradientUnits="userSpaceOnUse" x1="15.9556" y1="59.7211" x2="15.9556" y2="101.9451" gradientTransform="matrix(1 0 0 -1 0 161)">
	<stop  offset="0" style="stop-color:#333333"/>
	<stop  offset="0.1095" style="stop-color:#393939;stop-opacity:0.8017"/>
	<stop  offset="0.2583" style="stop-color:#4B4B4B;stop-opacity:0.5321"/>
	<stop  offset="0.429" style="stop-color:#676767;stop-opacity:0.223"/>
	<stop  offset="0.5521" style="stop-color:#808080;stop-opacity:0"/>
	<stop  offset="0.6122" style="stop-color:#6A6A6A;stop-opacity:0.1343"/>
	<stop  offset="0.697" style="stop-color:#525252;stop-opacity:0.3235"/>
	<stop  offset="0.7865" style="stop-color:#414141;stop-opacity:0.5234"/>
	<stop  offset="0.8832" style="stop-color:#363636;stop-opacity:0.7393"/>
	<stop  offset="1" style="stop-color:#333333"/>
</linearGradient>
<rect x="14.2" y="59" class="st1" width="3.6" height="42.2"/>
<polygon class="st2" points="10.5,49.2 10.5,111.1 14.2,101.3 14.2,59 "/>
<linearGradient id="SVGID_00000017480260988687145460000006560358401555680946_" gradientUnits="userSpaceOnUse" x1="10.489" y1="80.9468" x2="14.1936" y2="80.9468" gradientTransform="matrix(1 0 0 -1 0 161)">
	<stop  offset="0" style="stop-color:#333333"/>
	<stop  offset="1" style="stop-color:#333333;stop-opacity:0"/>
</linearGradient>
<polygon style="fill:url(#SVGID_00000017480260988687145460000006560358401555680946_);" points="10.5,49.1 10.5,111 14.2,101.2 
	14.2,58.9 "/>
<path class="st4" d="M59.3,44c-19.9,0-36.1,16.1-36.1,36.1s16.1,36.1,36.1,36.1s36.1-16.1,36.1-36.1S79.2,44,59.3,44z M59.3,101.3
	c-11.7,0-21.2-9.5-21.2-21.1s9.4-21.1,21.1-21.1s21.1,9.4,21.1,21.1S70.9,101.3,59.3,101.3z"/>
<path class="st2" d="M59.3,49.2c-17.1,0-31,13.9-31,31s13.9,31,31,31s31-13.9,31-31C90.2,63.1,76.4,49.2,59.3,49.2z M59.3,101.3
	c-11.7,0-21.2-9.5-21.2-21.1s9.4-21.1,21.1-21.1s21.1,9.4,21.1,21.1S70.9,101.3,59.3,101.3z"/>
<radialGradient id="SVGID_00000003098332797852407160000009969037653674806951_" cx="59.3094" cy="80.9468" r="30.9901" gradientTransform="matrix(1 0 0 -1 0 161)" gradientUnits="userSpaceOnUse">
	<stop  offset="0.7188" style="stop-color:#333333;stop-opacity:0"/>
	<stop  offset="0.7913" style="stop-color:#393939;stop-opacity:0.2581"/>
	<stop  offset="0.8873" style="stop-color:#4A4A4A;stop-opacity:0.5991"/>
	<stop  offset="0.9958" style="stop-color:#656565;stop-opacity:0.9852"/>
	<stop  offset="1" style="stop-color:#666666"/>
</radialGradient>
<path style="fill:url(#SVGID_00000003098332797852407160000009969037653674806951_);" d="M59.3,49.1c-17.1,0-31,13.9-31,31
	s13.9,31,31,31s31-13.9,31-31C90.2,62.9,76.4,49.1,59.3,49.1z M59.3,101.2c-11.7,0-21.2-9.4-21.2-21.1s9.4-21.1,21.1-21.1
	s21.1,9.4,21.1,21.1S70.9,101.2,59.3,101.2z"/>
<image style="overflow:visible;" width="200" height="200" xlink:href="../../pepsi.png"  transform="matrix(2.942325e-02 0 0 2.942325e-02 30.458 77.1108)">
</image>
</svg>
