<?xml version="1.0" encoding="utf-8"?>
<!-- Generator: Adobe Illustrator 25.4.1, SVG Export Plug-In . SVG Version: 6.00 Build 0)  -->
<svg version="1.1" id="Слой_1" xmlns="http://www.w3.org/2000/svg" xmlns:xlink="http://www.w3.org/1999/xlink" x="0px" y="0px"
	 viewBox="0 0 200 320" style="enable-background:new 0 0 200 320;" xml:space="preserve">
<style type="text/css">
	.st0{fill:none;stroke:#29ABE2;stroke-width:0.25;stroke-miterlimit:10;}
	.st1{fill:#FFFFFF;stroke:#29ABE2;stroke-width:0.25;stroke-miterlimit:10;}
	.st2{fill:url(#SVGID_1_);}
	.st3{fill:url(#SVGID_00000103952312893103529040000017102641997646048910_);}
	.st4{fill:url(#SVGID_00000134229670996682917820000011054910757684744351_);}
	.st5{fill:url(#SVGID_00000170236778154776854970000000827800306110102668_);}
	.st6{fill:url(#SVGID_00000069382871085658407520000006315459800140358018_);}
	.st7{opacity:0.18;fill:url(#SVGID_00000070079656525646172120000006003590534288239757_);enable-background:new    ;}
	.st8{opacity:0.18;fill:url(#SVGID_00000023999585389982586740000011740264058290023866_);enable-background:new    ;}
	.st9{fill:url(#SVGID_00000139255577211982817510000014446058127906957445_);}
	.st10{fill:url(#SVGID_00000177482113535538319250000005742066009564324524_);}
	.st11{fill:url(#SVGID_00000117659310717471301940000006267563144379606198_);}
	.st12{fill:url(#SVGID_00000152967421461062521770000016638257710299496347_);}
	.st13{opacity:0.14;fill:url(#SVGID_00000158012485555401153900000006002015656669994682_);enable-background:new    ;}
	.st14{opacity:0.14;fill:url(#SVGID_00000003804344161678611290000007739697454885218208_);enable-background:new    ;}
	.st15{opacity:0.14;fill:url(#SVGID_00000125577156034435736470000010657026349239765902_);enable-background:new    ;}
	.st16{opacity:0.14;fill:url(#SVGID_00000036949545389530989680000000951432605020867457_);enable-background:new    ;}
	.st17{fill:url(#SVGID_00000103243830725951431490000009253609903467102592_);}
	.st18{fill:url(#SVGID_00000063608473537079228740000004926377377709052559_);}
	.st19{fill:url(#SVGID_00000042004347667568323270000014428926113826841988_);}
	.st20{opacity:0.14;fill:url(#SVGID_00000177461367909535936880000015075002521018181277_);enable-background:new    ;}
	.st21{opacity:0.14;fill:url(#SVGID_00000051355116240231546900000013222040463053024928_);enable-background:new    ;}
	.st22{fill:url(#SVGID_00000065049179200892775660000009293921839215479703_);}
	.st23{opacity:0.44;}
	.st24{clip-path:url(#SVGID_00000139255367724430917530000005188638197511191730_);}
	.st25{fill:none;stroke:#000000;stroke-width:0.25;stroke-miterlimit:10;}
	.st26{fill:none;}
	.st27{fill:none;stroke:#686868;stroke-width:0.25;stroke-miterlimit:10;}
</style>
<path class="st0" d="M135.9,94.8c-0.3-3.2,0.3-6.6,1.6-9.6c0.7-1.7,1.9-3.9,4.4-5.1c1.9-1,3.8-0.8,7.7-0.4c3.3,0.3,6.1,1.1,8.3,1.8
	c3.2,1.1,5.1,1.7,7,3.3c1.1,0.9,2.7,2.5,4.2,5.9c1.9,4.2,2.7,8.9,3.1,13.5c1.4,16.1-1.8,27.8-2.4,30.4c-1.4,5.9-2.6,8.5-3.1,9.5
	c-3,6.3-7.3,10.4-10.2,12.8"/>
<path class="st0" d="M134.4,95.1c-0.6-3.9,0.1-8.1,2.1-11.6c0.7-1.3,2.6-4.1,5.9-5.3c1.6-0.6,3.4-0.4,6.8,0c3,0.3,6.8,0.8,11.6,2.7
	c2.7,1.1,4.1,1.6,5.6,2.9c0.8,0.7,2.5,2.4,4.3,7c1.1,2.7,2.4,6.7,2.8,12.1c0.4,3.3,0.6,7.8,0.4,13c-0.3,9-1.9,15.7-2.6,18.3
	c-1.6,6.2-2.6,10.1-5.5,14.6c-3.4,5.2-7.6,8.4-10.4,10.2"/>
<path class="st0" d="M136.9,132c0,2.9-0.2,5.2-0.3,6.8c-0.3,3.2-0.6,5.6-0.2,8.9c0.1,1,0.3,1.9,0.6,3c0.2,0.8,0.7,2.4,1.8,4.2
	c0.8,1.3,2.3,3.7,5.3,4.9c1.4,0.6,2.7,0.7,3.5,0.7"/>
<path class="st0" d="M135.1,131.8c0.2,2.3,0.2,4.2,0.2,5.5c-0.1,2.7-0.4,3.1-0.3,5.6c0,1.1-0.1,2.2,0,3.6c0,1.1,0.1,1.9,0.3,2.9
	c0.1,0.3,0.3,1.5,0.8,3c0,0,0.3,0.9,0.7,1.8c1.6,3.6,4.1,5.5,4.1,5.5c2.8,2.2,5.9,2.4,7.2,2.4"/>
<path class="st0" d="M156.4,159.7c5.2-1.6,15.6-4,26.8,0.1c4.6,1.7,11.9,4.4,14.1,11c1.9,5.6-0.6,11.7-0.7,12.1
	c-0.9,2.2-2.2,4-2.6,4.6c-1.7,2.4-3.5,3.9-4.8,5c-6.5,5.2-14.5,9.1-17.5,10.5c-1.8,0.9-5.7,2.7-10,4.3c-14.4,5.4-29.5,7-37.3,7.6"/>
<path class="st0" d="M156.7,161.1c3.2-1,8.3-2.2,14.5-2c5.8,0.2,10,1.5,11.4,2c3.8,1.3,10.6,3.6,13,9.1c0.8,1.9,1,3.9,1.1,4.1
	c0.3,2.9-0.4,5.2-0.8,6.5c-1,3-2.4,5-3.6,6.5c-0.7,0.9-2,2.6-4,4.3c-1.3,1.1-2.7,2.2-7.9,5.1c-2.9,1.6-4.5,2.6-7.1,3.9
	c-3,1.6-6.9,3.5-11.9,5.4c-1.5,0.6-8.6,3.3-18.3,5.1c-3.4,0.6-6.6,1.1-9.8,1.5c-3.9,0.5-7.3,0.9-9.7,1.1"/>
<path class="st1" d="M156.8,165.6h-9.4c-0.4,0-0.8-0.3-0.8-0.8v-8c0-0.4,0.3-0.8,0.8-0.8h9.4c0.4,0,0.8,0.3,0.8,0.8v8
	C157.6,165.3,157.2,165.6,156.8,165.6z"/>
<circle class="st0" cx="88.6" cy="215.5" r="26.2"/>
<path class="st0" d="M113.6,215.8"/>
<path class="st0" d="M119.6,216.8c-3-1.3-5.4-1.6-6.1-0.7c-0.1,0.2-0.2,0.4-0.2,0.7s0,0.7-0.1,1c-1.1,12.7-11.8,22.6-24.8,22.6
	c-13.7,0-24.8-11.1-24.8-24.9c0-13.7,11.1-24.8,24.9-24.8c13.2,0,24,10.3,24.8,23.4c0,0.2,0.1,0.6,0.4,0.9c0.9,0.8,3.1,0.2,4.3-1.1
	c0.7-0.8,1.5-0.6,1.7,0.2"/>
<path class="st1" d="M124.5,219.7h-9.4c-0.4,0-0.8-0.3-0.8-0.8v-8c0-0.4,0.3-0.8,0.8-0.8h9.4c0.4,0,0.8,0.3,0.8,0.8v8
	C125.3,219.4,124.9,219.7,124.5,219.7z"/>
<linearGradient id="SVGID_1_" gradientUnits="userSpaceOnUse" x1="11.85" y1="195.9815" x2="11.85" y2="223.1281" gradientTransform="matrix(1 0 0 -1 0 321.2284)">
	<stop  offset="0.1983" style="stop-color:#757575"/>
	<stop  offset="0.2933" style="stop-color:#6D6C6C"/>
	<stop  offset="0.433" style="stop-color:#878787"/>
	<stop  offset="0.6732" style="stop-color:#FFFFFF"/>
	<stop  offset="0.9078" style="stop-color:#A8A8A8"/>
	<stop  offset="1" style="stop-color:#BCBBBB"/>
</linearGradient>
<rect x="2.6" y="98.1" class="st2" width="18.5" height="27.1"/>
<linearGradient id="SVGID_00000163751777696470499510000013173204648506860466_" gradientUnits="userSpaceOnUse" x1="31.8" y1="195.9815" x2="31.8" y2="223.1281" gradientTransform="matrix(1 0 0 -1 0 321.2284)">
	<stop  offset="0" style="stop-color:#7F7F7F"/>
	<stop  offset="0.1983" style="stop-color:#606060"/>
	<stop  offset="0.2933" style="stop-color:#545454"/>
	<stop  offset="0.433" style="stop-color:#757575"/>
	<stop  offset="0.6732" style="stop-color:#FFFFFF"/>
	<stop  offset="0.9078" style="stop-color:#9B9B9B"/>
	<stop  offset="1" style="stop-color:#B2B2B2"/>
</linearGradient>
<rect x="27.6" y="98.1" style="fill:url(#SVGID_00000163751777696470499510000013173204648506860466_);" width="8.4" height="27.1"/>
<linearGradient id="SVGID_00000163057078996596503460000009342105901172057738_" gradientUnits="userSpaceOnUse" x1="24.25" y1="198.4283" x2="24.25" y2="221.1579" gradientTransform="matrix(1 0 0 -1 0 321.2284)">
	<stop  offset="0" style="stop-color:#707070"/>
	<stop  offset="0.1983" style="stop-color:#515151"/>
	<stop  offset="0.2933" style="stop-color:#474747"/>
	<stop  offset="0.433" style="stop-color:#686868"/>
	<stop  offset="0.6732" style="stop-color:#DDDDDD"/>
	<stop  offset="0.9078" style="stop-color:#8E8E8E"/>
	<stop  offset="1" style="stop-color:#A5A5A5"/>
</linearGradient>
<rect x="23" y="100.1" style="fill:url(#SVGID_00000163057078996596503460000009342105901172057738_);" width="2.5" height="22.7"/>
<linearGradient id="SVGID_00000120544954451410243510000016599529753421277604_" gradientUnits="userSpaceOnUse" x1="22.15" y1="195.9815" x2="22.15" y2="223.1281" gradientTransform="matrix(1 0 0 -1 0 321.2284)">
	<stop  offset="0" style="stop-color:#707070"/>
	<stop  offset="0.1983" style="stop-color:#515151"/>
	<stop  offset="0.2933" style="stop-color:#474747"/>
	<stop  offset="0.433" style="stop-color:#686868"/>
	<stop  offset="0.6732" style="stop-color:#DDDDDD"/>
	<stop  offset="0.9078" style="stop-color:#8E8E8E"/>
	<stop  offset="1" style="stop-color:#A5A5A5"/>
</linearGradient>
<path style="fill:url(#SVGID_00000120544954451410243510000016599529753421277604_);" d="M21.1,125.2c0.7-0.8,1.4-1.6,2.1-2.4
	c0-7.6,0-15.2-0.1-22.7l-2-2V125.2z"/>
<linearGradient id="SVGID_00000053506786392572333100000003481217505615117707_" gradientUnits="userSpaceOnUse" x1="-2053.2466" y1="195.9815" x2="-2053.2466" y2="223.1281" gradientTransform="matrix(-1 0 0 -1 -2026.6965 321.2284)">
	<stop  offset="0" style="stop-color:#707070"/>
	<stop  offset="0.1983" style="stop-color:#515151"/>
	<stop  offset="0.2933" style="stop-color:#474747"/>
	<stop  offset="0.433" style="stop-color:#686868"/>
	<stop  offset="0.6732" style="stop-color:#DDDDDD"/>
	<stop  offset="0.9078" style="stop-color:#8E8E8E"/>
	<stop  offset="1" style="stop-color:#A5A5A5"/>
</linearGradient>
<path style="fill:url(#SVGID_00000053506786392572333100000003481217505615117707_);" d="M27.6,125.2c-0.7-0.8-1.4-1.6-2.1-2.4
	c0-7.6,0-15.2,0-22.7c0.7-0.7,1.4-1.3,2.1-2V125.2z"/>
<linearGradient id="SVGID_00000163046185955247729870000006503358072559395238_" gradientUnits="userSpaceOnUse" x1="-38.7458" y1="3228.4312" x2="-36.315" y2="3228.4312" gradientTransform="matrix(1 0 0 1 61.8569 -3116.981)">
	<stop  offset="0" style="stop-color:#1A1A1A"/>
	<stop  offset="0" style="stop-color:#000000;stop-opacity:0"/>
	<stop  offset="0.3516" style="stop-color:#161616;stop-opacity:0.3426"/>
	<stop  offset="0.7021" style="stop-color:#242424;stop-opacity:0.6841"/>
	<stop  offset="1" style="stop-color:#292929;stop-opacity:0.9744"/>
</linearGradient>
<rect x="23.1" y="100.1" style="opacity:0.18;fill:url(#SVGID_00000163046185955247729870000006503358072559395238_);enable-background:new    ;" width="2.4" height="22.7"/>
<linearGradient id="SVGID_00000095303739288442376270000013626555824013805741_" gradientUnits="userSpaceOnUse" x1="-2125.8896" y1="3228.4312" x2="-2124.2041" y2="3228.4312" gradientTransform="matrix(-1 0 0 1 -2101.093 -3116.981)">
	<stop  offset="0" style="stop-color:#1A1A1A"/>
	<stop  offset="0" style="stop-color:#000000;stop-opacity:0"/>
	<stop  offset="0.3516" style="stop-color:#161616;stop-opacity:0.3426"/>
	<stop  offset="0.7021" style="stop-color:#242424;stop-opacity:0.6841"/>
	<stop  offset="1" style="stop-color:#292929;stop-opacity:0.9744"/>
</linearGradient>
<polygon style="opacity:0.18;fill:url(#SVGID_00000095303739288442376270000013626555824013805741_);enable-background:new    ;" points="
	23.1,100.1 24.8,100.1 24.8,122.8 23.1,122.8 "/>
<linearGradient id="SVGID_00000165193176819309621760000012311769733966913936_" gradientUnits="userSpaceOnUse" x1="135.15" y1="189.2283" x2="135.15" y2="229.5284" gradientTransform="matrix(1 0 0 -1 0 321.2284)">
	<stop  offset="0" style="stop-color:#7F7F7F"/>
	<stop  offset="0.1983" style="stop-color:#606060"/>
	<stop  offset="0.2933" style="stop-color:#545454"/>
	<stop  offset="0.433" style="stop-color:#757575"/>
	<stop  offset="0.6732" style="stop-color:#FFFFFF"/>
	<stop  offset="0.9078" style="stop-color:#9B9B9B"/>
	<stop  offset="1" style="stop-color:#B2B2B2"/>
</linearGradient>
<rect x="127.6" y="91.7" style="fill:url(#SVGID_00000165193176819309621760000012311769733966913936_);" width="15.1" height="40.3"/>
<linearGradient id="SVGID_00000079479286054450613700000004773875310094823612_" gradientUnits="userSpaceOnUse" x1="144.05" y1="189.2283" x2="144.05" y2="229.5284" gradientTransform="matrix(1 0 0 -1 0 321.2284)">
	<stop  offset="0" style="stop-color:#707070"/>
	<stop  offset="0.1983" style="stop-color:#515151"/>
	<stop  offset="0.2933" style="stop-color:#474747"/>
	<stop  offset="0.433" style="stop-color:#686868"/>
	<stop  offset="0.6732" style="stop-color:#DDDDDD"/>
	<stop  offset="0.9078" style="stop-color:#8E8E8E"/>
	<stop  offset="1" style="stop-color:#A5A5A5"/>
</linearGradient>
<path style="fill:url(#SVGID_00000079479286054450613700000004773875310094823612_);" d="M142.7,132c0.9-1.2,1.8-2.4,2.7-3.6
	c0-11.2-0.1-22.5-0.1-33.7l-2.6-3L142.7,132L142.7,132z"/>
<linearGradient id="SVGID_00000118375792640526392640000002712426740252872858_" gradientUnits="userSpaceOnUse" x1="71.1" y1="189.4284" x2="71.1" y2="229.5284" gradientTransform="matrix(1 0 0 -1 0 321.2284)">
	<stop  offset="0" style="stop-color:#7F7F7F"/>
	<stop  offset="0.1983" style="stop-color:#606060"/>
	<stop  offset="0.2933" style="stop-color:#545454"/>
	<stop  offset="0.433" style="stop-color:#757575"/>
	<stop  offset="0.6732" style="stop-color:#FFFFFF"/>
	<stop  offset="0.9078" style="stop-color:#9B9B9B"/>
	<stop  offset="1" style="stop-color:#B2B2B2"/>
</linearGradient>
<rect x="66" y="91.7" style="fill:url(#SVGID_00000118375792640526392640000002712426740252872858_);" width="10.2" height="40.1"/>
<linearGradient id="SVGID_00000127010899720805325240000016078163088079849388_" gradientUnits="userSpaceOnUse" x1="101.9" y1="187.8284" x2="101.9" y2="230.8945" gradientTransform="matrix(1 0 0 -1 0 321.2284)">
	<stop  offset="0.1983" style="stop-color:#757575"/>
	<stop  offset="0.2933" style="stop-color:#6D6C6C"/>
	<stop  offset="0.433" style="stop-color:#878787"/>
	<stop  offset="0.6732" style="stop-color:#FFFFFF"/>
	<stop  offset="0.9078" style="stop-color:#A8A8A8"/>
	<stop  offset="1" style="stop-color:#BCBBBB"/>
</linearGradient>
<path style="fill:url(#SVGID_00000127010899720805325240000016078163088079849388_);" d="M77.2,133.4h49.4c0.5,0,0.9-0.4,0.9-0.9
	V91.3c0-0.5-0.4-0.9-0.9-0.9H77.2c-0.5,0-0.9,0.4-0.9,0.9v41.2C76.3,133,76.7,133.4,77.2,133.4z"/>
<linearGradient id="SVGID_00000026877210279251771590000003635991719926106008_" gradientUnits="userSpaceOnUse" x1="-2241.9722" y1="3228.7312" x2="-2232.1436" y2="3228.7312" gradientTransform="matrix(-1 0 0 1 -2104.5618 -3116.981)">
	<stop  offset="0" style="stop-color:#000000;stop-opacity:0"/>
	<stop  offset="2.492934e-02" style="stop-color:#020202;stop-opacity:2.429058e-02"/>
	<stop  offset="0.3664" style="stop-color:#181818;stop-opacity:0.357"/>
	<stop  offset="0.6964" style="stop-color:#252525;stop-opacity:0.6786"/>
	<stop  offset="1" style="stop-color:#292929;stop-opacity:0.9744"/>
</linearGradient>
<polygon style="opacity:0.14;fill:url(#SVGID_00000026877210279251771590000003635991719926106008_);enable-background:new    ;" points="
	127.6,91.7 137.4,91.7 137.4,131.8 127.6,131.8 "/>
<linearGradient id="SVGID_00000098908134727466367660000015148888389226661563_" gradientUnits="userSpaceOnUse" x1="-327.4881" y1="235.0784" x2="-319.7386" y2="235.0784" gradientTransform="matrix(1 0 0 -1 395.7978 346.7284)">
	<stop  offset="0" style="stop-color:#000000;stop-opacity:0"/>
	<stop  offset="2.492934e-02" style="stop-color:#020202;stop-opacity:2.429058e-02"/>
	<stop  offset="0.3664" style="stop-color:#181818;stop-opacity:0.357"/>
	<stop  offset="0.6964" style="stop-color:#252525;stop-opacity:0.6786"/>
	<stop  offset="1" style="stop-color:#292929;stop-opacity:0.9744"/>
</linearGradient>
<rect x="68.3" y="91.6" style="opacity:0.14;fill:url(#SVGID_00000098908134727466367660000015148888389226661563_);enable-background:new    ;" width="7.7" height="40.1"/>
<linearGradient id="SVGID_00000123418589319881350060000015324880943936698011_" gradientUnits="userSpaceOnUse" x1="-2178.0483" y1="3228.8811" x2="-2170.7922" y2="3228.8811" gradientTransform="matrix(-1 0 0 1 -2104.5618 -3116.981)">
	<stop  offset="0" style="stop-color:#000000;stop-opacity:0"/>
	<stop  offset="2.492934e-02" style="stop-color:#020202;stop-opacity:2.429058e-02"/>
	<stop  offset="0.3664" style="stop-color:#181818;stop-opacity:0.357"/>
	<stop  offset="0.6964" style="stop-color:#252525;stop-opacity:0.6786"/>
	<stop  offset="1" style="stop-color:#292929;stop-opacity:0.9744"/>
</linearGradient>
<polygon style="opacity:0.14;fill:url(#SVGID_00000123418589319881350060000015324880943936698011_);enable-background:new    ;" points="
	66.2,91.9 73.5,91.9 73.5,131.9 66.2,131.9 "/>
<linearGradient id="SVGID_00000092430830949616596270000017730947637579267247_" gradientUnits="userSpaceOnUse" x1="-367.4978" y1="235.0784" x2="-359.7483" y2="235.0784" gradientTransform="matrix(1 0 0 -1 395.7978 346.7284)">
	<stop  offset="0" style="stop-color:#1A1A1A"/>
	<stop  offset="0" style="stop-color:#353535;stop-opacity:0.8537"/>
	<stop  offset="0" style="stop-color:#7C7C7C;stop-opacity:0.5379"/>
	<stop  offset="0" style="stop-color:#EBEBEB;stop-opacity:8.011568e-02"/>
	<stop  offset="0" style="stop-color:#FFFFFF;stop-opacity:0"/>
	<stop  offset="2.899647e-03" style="stop-color:#FEFEFE;stop-opacity:2.825349e-03"/>
	<stop  offset="0.1526" style="stop-color:#C6C6C6;stop-opacity:0.1487"/>
	<stop  offset="0.3031" style="stop-color:#969696;stop-opacity:0.2954"/>
	<stop  offset="0.4512" style="stop-color:#6F6F6F;stop-opacity:0.4397"/>
	<stop  offset="0.5965" style="stop-color:#505050;stop-opacity:0.5812"/>
	<stop  offset="0.7382" style="stop-color:#3B3B3B;stop-opacity:0.7193"/>
	<stop  offset="0.8746" style="stop-color:#2D2D2D;stop-opacity:0.8522"/>
	<stop  offset="1" style="stop-color:#292929;stop-opacity:0.9744"/>
</linearGradient>
<rect x="28.3" y="98.1" style="opacity:0.14;fill:url(#SVGID_00000092430830949616596270000017730947637579267247_);enable-background:new    ;" width="7.7" height="27.1"/>
<linearGradient id="SVGID_00000126315699458693987810000013819635521039774393_" gradientUnits="userSpaceOnUse" x1="50.35" y1="185.6283" x2="50.35" y2="233.4283" gradientTransform="matrix(1 0 0 -1 0 321.2284)">
	<stop  offset="0.1983" style="stop-color:#757575"/>
	<stop  offset="0.2933" style="stop-color:#6D6C6C"/>
	<stop  offset="0.433" style="stop-color:#878787"/>
	<stop  offset="0.6732" style="stop-color:#FFFFFF"/>
	<stop  offset="0.9078" style="stop-color:#A8A8A8"/>
	<stop  offset="1" style="stop-color:#BCBBBB"/>
</linearGradient>
<rect x="43.4" y="87.8" style="fill:url(#SVGID_00000126315699458693987810000013819635521039774393_);" width="13.9" height="47.8"/>
<linearGradient id="SVGID_00000044894564491941371180000017587912614138264459_" gradientUnits="userSpaceOnUse" x1="61.05" y1="186.7283" x2="61.05" y2="232.4283" gradientTransform="matrix(1 0 0 -1 0 321.2284)">
	<stop  offset="0" style="stop-color:#7F7F7F"/>
	<stop  offset="0.1983" style="stop-color:#606060"/>
	<stop  offset="0.2933" style="stop-color:#545454"/>
	<stop  offset="0.433" style="stop-color:#757575"/>
	<stop  offset="0.6732" style="stop-color:#FFFFFF"/>
	<stop  offset="0.9078" style="stop-color:#9B9B9B"/>
	<stop  offset="1" style="stop-color:#B2B2B2"/>
</linearGradient>
<rect x="57.3" y="88.8" style="fill:url(#SVGID_00000044894564491941371180000017587912614138264459_);" width="7.5" height="45.7"/>
<linearGradient id="SVGID_00000028306452627030079070000008494866700247151517_" gradientUnits="userSpaceOnUse" x1="39.75" y1="186.9283" x2="39.75" y2="232.6283" gradientTransform="matrix(1 0 0 -1 0 321.2284)">
	<stop  offset="0" style="stop-color:#7F7F7F"/>
	<stop  offset="0.1983" style="stop-color:#606060"/>
	<stop  offset="0.2933" style="stop-color:#545454"/>
	<stop  offset="0.433" style="stop-color:#757575"/>
	<stop  offset="0.6732" style="stop-color:#FFFFFF"/>
	<stop  offset="0.9078" style="stop-color:#9B9B9B"/>
	<stop  offset="1" style="stop-color:#B2B2B2"/>
</linearGradient>
<rect x="36" y="88.6" style="fill:url(#SVGID_00000028306452627030079070000008494866700247151517_);" width="7.5" height="45.7"/>
<linearGradient id="SVGID_00000033354949274076613000000009487339648764002944_" gradientUnits="userSpaceOnUse" x1="-2169.1226" y1="3228.7312" x2="-2161.8665" y2="3228.7312" gradientTransform="matrix(-1 0 0 1 -2104.5618 -3116.981)">
	<stop  offset="0" style="stop-color:#1A1A1A"/>
	<stop  offset="0" style="stop-color:#353535;stop-opacity:0.8537"/>
	<stop  offset="0" style="stop-color:#7C7C7C;stop-opacity:0.5379"/>
	<stop  offset="0" style="stop-color:#EBEBEB;stop-opacity:8.011568e-02"/>
	<stop  offset="0" style="stop-color:#FFFFFF;stop-opacity:0"/>
	<stop  offset="2.899647e-03" style="stop-color:#FEFEFE;stop-opacity:2.825349e-03"/>
	<stop  offset="0.1526" style="stop-color:#C6C6C6;stop-opacity:0.1487"/>
	<stop  offset="0.3031" style="stop-color:#969696;stop-opacity:0.2954"/>
	<stop  offset="0.4512" style="stop-color:#6F6F6F;stop-opacity:0.4397"/>
	<stop  offset="0.5965" style="stop-color:#505050;stop-opacity:0.5812"/>
	<stop  offset="0.7382" style="stop-color:#3B3B3B;stop-opacity:0.7193"/>
	<stop  offset="0.8746" style="stop-color:#2D2D2D;stop-opacity:0.8522"/>
	<stop  offset="1" style="stop-color:#292929;stop-opacity:0.9744"/>
</linearGradient>
<polygon style="opacity:0.14;fill:url(#SVGID_00000033354949274076613000000009487339648764002944_);enable-background:new    ;" points="
	57.3,88.8 64.6,88.8 64.6,134.7 57.3,134.7 "/>
<linearGradient id="SVGID_00000056399800673428011140000007454184495459892397_" gradientUnits="userSpaceOnUse" x1="-331.9899" y1="224.0575" x2="-324.7338" y2="224.0575" gradientTransform="matrix(1 0 0 -1 368.0899 335.8576)">
	<stop  offset="0" style="stop-color:#1A1A1A"/>
	<stop  offset="0" style="stop-color:#353535;stop-opacity:0.8537"/>
	<stop  offset="0" style="stop-color:#7C7C7C;stop-opacity:0.5379"/>
	<stop  offset="0" style="stop-color:#EBEBEB;stop-opacity:8.011568e-02"/>
	<stop  offset="0" style="stop-color:#FFFFFF;stop-opacity:0"/>
	<stop  offset="2.899647e-03" style="stop-color:#FEFEFE;stop-opacity:2.825349e-03"/>
	<stop  offset="0.1526" style="stop-color:#C6C6C6;stop-opacity:0.1487"/>
	<stop  offset="0.3031" style="stop-color:#969696;stop-opacity:0.2954"/>
	<stop  offset="0.4512" style="stop-color:#6F6F6F;stop-opacity:0.4397"/>
	<stop  offset="0.5965" style="stop-color:#505050;stop-opacity:0.5812"/>
	<stop  offset="0.7382" style="stop-color:#3B3B3B;stop-opacity:0.7193"/>
	<stop  offset="0.8746" style="stop-color:#2D2D2D;stop-opacity:0.8522"/>
	<stop  offset="1" style="stop-color:#292929;stop-opacity:0.9744"/>
</linearGradient>
<rect x="36.1" y="89.1" style="opacity:0.14;fill:url(#SVGID_00000056399800673428011140000007454184495459892397_);enable-background:new    ;" width="7.3" height="45.4"/>
<linearGradient id="SVGID_00000034806542272014302660000008245570564507722160_" gradientUnits="userSpaceOnUse" x1="65.45" y1="186.7283" x2="65.45" y2="232.4283" gradientTransform="matrix(1 0 0 -1 0 321.2284)">
	<stop  offset="0" style="stop-color:#5E5E5E"/>
	<stop  offset="0.1983" style="stop-color:#474646"/>
	<stop  offset="0.2933" style="stop-color:#3D3D3D"/>
	<stop  offset="0.433" style="stop-color:#595959"/>
	<stop  offset="0.6732" style="stop-color:#C6C6C6"/>
	<stop  offset="0.9078" style="stop-color:#7C7C7C"/>
	<stop  offset="1" style="stop-color:#999999"/>
</linearGradient>
<polygon style="fill:url(#SVGID_00000034806542272014302660000008245570564507722160_);" points="64.7,88.8 66.2,91.9 66.2,131.9 
	64.7,134.5 "/>
<g class="st23">
	<g>
		<defs>
			<path id="SVGID_00000160187934436226006990000014479470205301070770_" d="M77.2,133.4h49.4c0.5,0,0.9-0.4,0.9-0.9V91.3
				c0-0.5-0.4-0.9-0.9-0.9H77.2c-0.5,0-0.9,0.4-0.9,0.9v41.2C76.3,133,76.7,133.4,77.2,133.4z"/>
		</defs>
		<clipPath id="SVGID_00000153701703249662013920000016542260991311946939_">
			<use xlink:href="#SVGID_00000160187934436226006990000014479470205301070770_"  style="overflow:visible;"/>
		</clipPath>
		<g style="clip-path:url(#SVGID_00000153701703249662013920000016542260991311946939_);">
			<line class="st25" x1="146.5" y1="84.2" x2="72.5" y2="128.6"/>
			<path class="st26" d="M72.5,132.3"/>
			<polyline class="st25" points="72.5,132.3 146.5,88 152.9,84.2 			"/>
			<line class="st25" x1="152.9" y1="88" x2="72.5" y2="135.9"/>
			<line class="st25" x1="72.5" y1="139.6" x2="152.9" y2="91.6"/>
			<line class="st25" x1="152.9" y1="95.3" x2="78.6" y2="139.6"/>
			<line class="st25" x1="85" y1="139.6" x2="152.9" y2="98.9"/>
			<line class="st25" x1="152.9" y1="102.7" x2="91.1" y2="139.6"/>
			<line class="st25" x1="97" y1="139.6" x2="152.9" y2="106.4"/>
			<line class="st25" x1="152.9" y1="110.1" x2="103.2" y2="139.6"/>
			<line class="st25" x1="109.5" y1="139.6" x2="152.9" y2="113.8"/>
			<line class="st25" x1="152.9" y1="117.4" x2="115.7" y2="139.6"/>
			<line class="st25" x1="122" y1="139.6" x2="152.9" y2="121.2"/>
			<line class="st25" x1="152.9" y1="124.9" x2="128.3" y2="139.6"/>
			<line class="st25" x1="134.3" y1="139.6" x2="152.9" y2="128.5"/>
			<line class="st25" x1="152.9" y1="132.3" x2="140.6" y2="139.6"/>
			<line class="st25" x1="146.7" y1="139.6" x2="152.9" y2="135.9"/>
			<line class="st25" x1="140.3" y1="84.2" x2="72.5" y2="124.9"/>
			<line class="st25" x1="72.5" y1="121.2" x2="134.4" y2="84.2"/>
			<line class="st25" x1="128.3" y1="84.2" x2="72.5" y2="117.4"/>
			<line class="st25" x1="72.5" y1="113.8" x2="121.9" y2="84.2"/>
			<line class="st25" x1="115.7" y1="84.2" x2="72.5" y2="110.1"/>
			<line class="st25" x1="72.5" y1="106.4" x2="109.5" y2="84.2"/>
			<line class="st25" x1="103.2" y1="84.2" x2="72.5" y2="102.7"/>
			<line class="st25" x1="72.5" y1="98.9" x2="97.2" y2="84.2"/>
			<line class="st25" x1="91.1" y1="84.2" x2="72.5" y2="95.3"/>
			<line class="st25" x1="72.5" y1="91.6" x2="84.8" y2="84.2"/>
			<line class="st25" x1="78.6" y1="84.2" x2="72.5" y2="88"/>
			<line class="st25" x1="78.5" y1="84.2" x2="152.6" y2="128.6"/>
			<path class="st26" d="M152.6,132.3"/>
			<polyline class="st25" points="152.6,132.3 78.5,88 72.1,84.2 			"/>
			<line class="st25" x1="72.1" y1="88" x2="152.6" y2="135.9"/>
			<line class="st25" x1="152.6" y1="139.6" x2="72.1" y2="91.6"/>
			<line class="st25" x1="72.1" y1="95.3" x2="146.4" y2="139.6"/>
			<line class="st25" x1="140" y1="139.6" x2="72.1" y2="98.9"/>
			<line class="st25" x1="72.1" y1="102.7" x2="133.9" y2="139.6"/>
			<line class="st25" x1="128" y1="139.6" x2="72.1" y2="106.4"/>
			<line class="st25" x1="72.1" y1="110.1" x2="121.8" y2="139.6"/>
			<line class="st25" x1="115.5" y1="139.6" x2="72.1" y2="113.8"/>
			<line class="st25" x1="72.1" y1="117.4" x2="109.3" y2="139.6"/>
			<line class="st25" x1="103" y1="139.6" x2="72.1" y2="121.2"/>
			<line class="st25" x1="72.1" y1="124.9" x2="96.7" y2="139.6"/>
			<line class="st25" x1="90.7" y1="139.6" x2="72.1" y2="128.5"/>
			<line class="st25" x1="72.1" y1="132.3" x2="84.4" y2="139.6"/>
			<line class="st25" x1="78.3" y1="139.6" x2="72.1" y2="135.9"/>
			<line class="st25" x1="84.7" y1="84.2" x2="152.6" y2="124.9"/>
			<line class="st25" x1="152.6" y1="121.2" x2="90.6" y2="84.2"/>
			<line class="st25" x1="96.7" y1="84.2" x2="152.6" y2="117.4"/>
			<line class="st25" x1="152.6" y1="113.8" x2="103.1" y2="84.2"/>
			<line class="st25" x1="109.3" y1="84.2" x2="152.6" y2="110.1"/>
			<line class="st25" x1="152.6" y1="106.4" x2="115.5" y2="84.2"/>
			<line class="st25" x1="121.8" y1="84.2" x2="152.6" y2="102.7"/>
			<line class="st25" x1="152.6" y1="98.9" x2="127.8" y2="84.2"/>
			<line class="st25" x1="133.9" y1="84.2" x2="152.6" y2="95.3"/>
			<line class="st25" x1="152.6" y1="91.6" x2="140.2" y2="84.2"/>
			<line class="st25" x1="146.4" y1="84.2" x2="152.6" y2="88"/>
		</g>
	</g>
</g>
<path class="st27" d="M77.2,133.3h49.4c0.5,0,0.9-0.4,0.9-0.9V91.2c0-0.5-0.4-0.9-0.9-0.9H77.2c-0.5,0-0.9,0.4-0.9,0.9v41.2
	C76.3,132.9,76.7,133.3,77.2,133.3z"/>
<image style="overflow:visible;" width="200" height="200" xlink:href="../../pepsi.png"  transform="matrix(4.641938e-02 0 0 4.641938e-02 45.7081 107.2581)">
</image>
</svg>
