<?xml version="1.0" encoding="utf-8"?>
<!-- Generator: Adobe Illustrator 25.4.1, SVG Export Plug-In . SVG Version: 6.00 Build 0)  -->
<svg version="1.1" id="Слой_1" xmlns="http://www.w3.org/2000/svg" xmlns:xlink="http://www.w3.org/1999/xlink" x="0px" y="0px"
	 viewBox="0 0 200 320" style="enable-background:new 0 0 200 320;" xml:space="preserve">
<style type="text/css">
	.st0{fill:none;stroke:#29ABE2;stroke-width:0.25;stroke-miterlimit:10;}
	.st1{fill:#FFFFFF;stroke:#29ABE2;stroke-width:0.25;stroke-miterlimit:10;}
	.st2{fill:url(#SVGID_1_);}
	.st3{fill:url(#SVGID_00000019671054503824816390000002455429623745008009_);}
	.st4{opacity:0.18;fill:url(#SVGID_00000138540838431606965170000004818907932020778390_);enable-background:new    ;}
	.st5{opacity:8.000000e-02;fill:url(#SVGID_00000144306903620765380680000012416135427118335412_);enable-background:new    ;}
	.st6{fill:url(#SVGID_00000125583116241022409650000003131919391155263887_);}
	.st7{fill:url(#SVGID_00000099627337374173517420000007644552992955988107_);}
	.st8{fill:url(#SVGID_00000108996626611380351390000004354524859026487701_);}
	.st9{fill:url(#SVGID_00000181807958981769471530000004432064840206178464_);}
	.st10{fill:url(#SVGID_00000028287370230773183630000007995804037475472042_);}
	.st11{opacity:0.3;fill:url(#SVGID_00000132778782493211920030000004964042758890881177_);enable-background:new    ;}
	.st12{opacity:0.38;fill:url(#SVGID_00000141427527520169608880000009436180685851400582_);enable-background:new    ;}
	.st13{opacity:0.38;fill:url(#SVGID_00000099642447193508548530000010816351709073286315_);enable-background:new    ;}
	.st14{opacity:0.38;fill:url(#SVGID_00000112605043531957197160000001687508481235750809_);enable-background:new    ;}
	.st15{opacity:0.38;fill:url(#SVGID_00000162337219099869027190000003155670342446914237_);enable-background:new    ;}
	.st16{opacity:8.000000e-02;fill:url(#SVGID_00000142889662370244480300000011640180048572911006_);enable-background:new    ;}
	.st17{fill:url(#SVGID_00000132077783837932737450000012255460330437439901_);}
	.st18{opacity:0.18;fill:url(#SVGID_00000115473034076316125680000015954098510297156511_);enable-background:new    ;}
	.st19{opacity:8.000000e-02;fill:url(#SVGID_00000064347147270000910780000010218291970837326740_);enable-background:new    ;}
	.st20{fill:url(#SVGID_00000179613755165800107380000008001461732305651094_);}
	.st21{fill:url(#SVGID_00000152234704524662026340000010644690807228722609_);}
	.st22{fill:url(#SVGID_00000080199794117250721800000001342205802849516678_);}
</style>
<path class="st0" d="M124.5,81.9c-0.3-3.9,0.3-7.9,1.9-11.5c0.9-2,2.3-4.7,5.2-6.2c2.3-1.2,4.6-0.9,9.2-0.5c3.9,0.4,7.3,1.3,9.9,2.2
	c3.8,1.3,6.1,2.1,8.4,4c1.3,1.1,3.2,3,5,7.1c2.3,5.1,3.2,10.7,3.7,16.3c1.7,19.4-2.1,33.5-2.8,36.5c-1.7,7.2-3.1,10.2-3.7,11.5
	c-3.6,7.5-8.7,12.5-12.2,15.4"/>
<path class="st0" d="M122.7,82.3c-0.7-4.7,0.1-9.7,2.5-13.9c0.9-1.6,3-5,7.1-6.3c1.9-0.7,4-0.4,8.1,0c3.6,0.4,8.2,1,13.8,3.3
	c3.3,1.3,4.9,2,6.7,3.5c1,0.9,3,2.8,5.2,8.4c1.3,3.2,2.8,8.1,3.4,14.5c0.4,4,0.8,9.3,0.5,15.6c-0.4,10.8-2.3,18.9-3.1,22.1
	c-1.9,7.5-3.1,12.2-6.6,17.6c-4,6.3-9,10.2-12.3,12.3"/>
<path class="st0" d="M125.7,126.8c0,3.5-0.2,6.3-0.4,8.2c-0.3,3.9-0.7,6.7-0.3,10.7c0.1,1.2,0.3,2.3,0.7,3.6c0.3,0.9,0.8,2.9,2.1,5
	c1,1.6,2.7,4.5,6.3,6c1.7,0.7,3.3,0.9,4.2,0.9"/>
<path class="st0" d="M123.5,126.5c0.3,2.8,0.3,5.1,0.2,6.6c-0.1,3.3-0.4,3.8-0.4,6.8c0,1.3-0.1,2.6,0,4.3c0.1,1.3,0.1,2.2,0.3,3.5
	c0.1,0.3,0.3,1.8,0.9,3.6c0,0,0.4,1.1,0.8,2.1c1.9,4.3,4.9,6.6,4.9,6.6c3.3,2.6,7,2.9,8.6,2.9"/>
<path class="st0" d="M148.9,160.1c6.2-1.9,18.6-4.8,31.9,0.2c5.5,2,14.2,5.3,16.8,13.3c2.2,6.7-0.7,14.1-0.9,14.6
	c-1.1,2.7-2.6,4.8-3.1,5.6c-2,2.8-4.1,4.7-5.7,6c-7.7,6.3-17.2,10.9-20.8,12.6c-2.2,1-6.8,3.2-11.9,5.2c-17.1,6.5-35.1,8.4-44.4,9.1
	"/>
<path class="st0" d="M149.2,161.8c3.9-1.2,9.9-2.7,17.2-2.4c7,0.2,11.9,1.8,13.6,2.3c4.5,1.5,12.6,4.3,15.5,10.9
	c1,2.2,1.2,4.7,1.3,4.9c0.4,3.5-0.5,6.2-1,7.9c-1.1,3.6-2.9,6-4.3,7.9c-0.8,1.1-2.4,3.1-4.8,5.2c-1.5,1.3-3.2,2.6-9.4,6.2
	c-3.4,2-5.4,3.1-8.5,4.7c-3.6,1.9-8.2,4.2-14.2,6.6c-1.8,0.7-10.3,3.9-21.8,6.1c-4.1,0.8-7.8,1.3-11.7,1.8
	c-4.7,0.6-8.6,1.1-11.5,1.4"/>
<path class="st1" d="M149.5,167.2H138c-0.4,0-0.8-0.3-0.8-0.8v-9.9c0-0.4,0.3-0.8,0.8-0.8h11.5c0.4,0,0.8,0.3,0.8,0.8v9.9
	C150.3,166.9,149.9,167.2,149.5,167.2z"/>
<ellipse class="st0" cx="68.1" cy="227.3" rx="31.2" ry="31.6"/>
<path class="st0" d="M97.9,227.6"/>
<path class="st0" d="M105.1,228.9c-3.6-1.5-6.4-1.9-7.2-0.8c-0.1,0.2-0.2,0.4-0.2,0.8c0,0.4,0,0.8-0.1,1.2
	c-1.4,15.2-14,27.2-29.5,27.2c-16.3,0-29.6-13.4-29.6-29.9s13.3-29.9,29.6-29.9c15.8,0,28.6,12.5,29.5,28.2c0,0.3,0.1,0.8,0.5,1.1
	c1,1,3.7,0.3,5.1-1.3c0.9-0.9,1.7-0.8,2,0.2"/>
<path class="st1" d="M111.1,232.4H99.5c-0.4,0-0.8-0.3-0.8-0.8v-9.9c0-0.4,0.3-0.8,0.8-0.8H111c0.4,0,0.8,0.3,0.8,0.8v9.9
	C111.8,232,111.5,232.4,111.1,232.4z"/>
<linearGradient id="SVGID_1_" gradientUnits="userSpaceOnUse" x1="38.95" y1="183.9" x2="38.95" y2="249.2" gradientTransform="matrix(1 0 0 -1 0 320)">
	<stop  offset="0" style="stop-color:#848383"/>
	<stop  offset="0.1424" style="stop-color:#707070"/>
	<stop  offset="0.2023" style="stop-color:#646464"/>
	<stop  offset="0.269" style="stop-color:#5B5B5B"/>
	<stop  offset="0.3079" style="stop-color:#676767"/>
	<stop  offset="0.3704" style="stop-color:#848484"/>
	<stop  offset="0.433" style="stop-color:#878787"/>
	<stop  offset="0.5974" style="stop-color:#D9D9D9"/>
	<stop  offset="0.6843" style="stop-color:#FFFFFF"/>
	<stop  offset="0.9078" style="stop-color:#B7B7B7"/>
	<stop  offset="1" style="stop-color:#C6C6C6"/>
</linearGradient>
<rect x="28.7" y="70.8" class="st2" width="20.5" height="65.3"/>
<linearGradient id="SVGID_00000029767150371193896040000018243891332529477019_" gradientUnits="userSpaceOnUse" x1="53.05" y1="192.4" x2="53.05" y2="241" gradientTransform="matrix(1 0 0 -1 0 320)">
	<stop  offset="0" style="stop-color:#707070"/>
	<stop  offset="0.1983" style="stop-color:#515151"/>
	<stop  offset="0.2933" style="stop-color:#474747"/>
	<stop  offset="0.433" style="stop-color:#686868"/>
	<stop  offset="0.6732" style="stop-color:#DDDDDD"/>
	<stop  offset="0.9078" style="stop-color:#8E8E8E"/>
	<stop  offset="1" style="stop-color:#A5A5A5"/>
</linearGradient>
<rect x="49.2" y="79" style="fill:url(#SVGID_00000029767150371193896040000018243891332529477019_);" width="7.7" height="48.6"/>
<linearGradient id="SVGID_00000177465244056817008750000017492781344404191141_" gradientUnits="userSpaceOnUse" x1="-12.6941" y1="7.0528" x2="-4.9732" y2="7.0528" gradientTransform="matrix(1 0 0 1 61.8569 96.2472)">
	<stop  offset="0" style="stop-color:#1A1A1A"/>
	<stop  offset="0" style="stop-color:#000000;stop-opacity:0"/>
	<stop  offset="0.3516" style="stop-color:#161616;stop-opacity:0.3426"/>
	<stop  offset="0.7021" style="stop-color:#242424;stop-opacity:0.6841"/>
	<stop  offset="1" style="stop-color:#292929;stop-opacity:0.9744"/>
</linearGradient>
<rect x="49.2" y="79" style="opacity:0.18;fill:url(#SVGID_00000177465244056817008750000017492781344404191141_);enable-background:new    ;" width="7.7" height="48.6"/>
<linearGradient id="SVGID_00000020364679932182982020000002797162601751273905_" gradientUnits="userSpaceOnUse" x1="121.5692" y1="305.9247" x2="125.4297" y2="305.9247" gradientTransform="matrix(-1 0 0 -1 174.5925 409.2247)">
	<stop  offset="0" style="stop-color:#000000;stop-opacity:0"/>
	<stop  offset="0.3516" style="stop-color:#161616;stop-opacity:0.3426"/>
	<stop  offset="0.7021" style="stop-color:#242424;stop-opacity:0.6841"/>
	<stop  offset="1" style="stop-color:#292929;stop-opacity:0.9744"/>
</linearGradient>
<polygon style="opacity:8.000000e-02;fill:url(#SVGID_00000020364679932182982020000002797162601751273905_);enable-background:new    ;" points="
	49.2,127.6 53,127.6 53,79 49.2,79 "/>
<linearGradient id="SVGID_00000183960001988491152190000013031250836165988542_" gradientUnits="userSpaceOnUse" x1="10.35" y1="177.7" x2="10.35" y2="255.7" gradientTransform="matrix(1 0 0 -1 0 320)">
	<stop  offset="0" style="stop-color:#8C8C8C"/>
	<stop  offset="0.114" style="stop-color:#777777"/>
	<stop  offset="0.1621" style="stop-color:#6F6F6F"/>
	<stop  offset="0.2391" style="stop-color:#666666"/>
	<stop  offset="0.2754" style="stop-color:#6C6C6C"/>
	<stop  offset="0.3235" style="stop-color:#7D7D7D"/>
	<stop  offset="0.3597" style="stop-color:#8E8E8E"/>
	<stop  offset="0.433" style="stop-color:#8E8E8E"/>
	<stop  offset="0.609" style="stop-color:#D9D9D9"/>
	<stop  offset="0.7106" style="stop-color:#FFFFFF"/>
	<stop  offset="0.7637" style="stop-color:#F5F5F5"/>
	<stop  offset="0.8543" style="stop-color:#DADADA"/>
	<stop  offset="0.9228" style="stop-color:#C1C1C1"/>
	<stop  offset="1" style="stop-color:#CECECE"/>
</linearGradient>
<rect x="2.3" y="64.3" style="fill:url(#SVGID_00000183960001988491152190000013031250836165988542_);" width="16.1" height="78"/>
<linearGradient id="SVGID_00000070835615767383156380000009187847522194922655_" gradientUnits="userSpaceOnUse" x1="27.4" y1="182.9" x2="27.4" y2="250.6" gradientTransform="matrix(1 0 0 -1 0 320)">
	<stop  offset="0" style="stop-color:#7F7F7F"/>
	<stop  offset="0.1983" style="stop-color:#606060"/>
	<stop  offset="0.2933" style="stop-color:#545454"/>
	<stop  offset="0.433" style="stop-color:#757575"/>
	<stop  offset="0.6732" style="stop-color:#FFFFFF"/>
	<stop  offset="0.9078" style="stop-color:#9B9B9B"/>
	<stop  offset="1" style="stop-color:#B2B2B2"/>
</linearGradient>
<rect x="26.1" y="69.4" style="fill:url(#SVGID_00000070835615767383156380000009187847522194922655_);" width="2.6" height="67.7"/>
<linearGradient id="SVGID_00000116916220408548710470000016891872892039894182_" gradientUnits="userSpaceOnUse" x1="24.9" y1="181.8" x2="24.9" y2="252.1" gradientTransform="matrix(1 0 0 -1 0 320)">
	<stop  offset="0" style="stop-color:#7F7F7F"/>
	<stop  offset="0.1983" style="stop-color:#606060"/>
	<stop  offset="0.2933" style="stop-color:#545454"/>
	<stop  offset="0.433" style="stop-color:#757575"/>
	<stop  offset="0.6732" style="stop-color:#FFFFFF"/>
	<stop  offset="0.9078" style="stop-color:#9B9B9B"/>
	<stop  offset="1" style="stop-color:#B2B2B2"/>
</linearGradient>
<rect x="23.6" y="67.9" style="fill:url(#SVGID_00000116916220408548710470000016891872892039894182_);" width="2.6" height="70.3"/>
<linearGradient id="SVGID_00000015354089665444489030000015308669342425234852_" gradientUnits="userSpaceOnUse" x1="22.3" y1="180.3" x2="22.3" y2="253.3" gradientTransform="matrix(1 0 0 -1 0 320)">
	<stop  offset="0" style="stop-color:#7F7F7F"/>
	<stop  offset="0.1983" style="stop-color:#606060"/>
	<stop  offset="0.2933" style="stop-color:#545454"/>
	<stop  offset="0.433" style="stop-color:#757575"/>
	<stop  offset="0.6732" style="stop-color:#FFFFFF"/>
	<stop  offset="0.9078" style="stop-color:#9B9B9B"/>
	<stop  offset="1" style="stop-color:#B2B2B2"/>
</linearGradient>
<rect x="21" y="66.7" style="fill:url(#SVGID_00000015354089665444489030000015308669342425234852_);" width="2.6" height="73"/>
<linearGradient id="SVGID_00000135675882857297226090000008395520355905756566_" gradientUnits="userSpaceOnUse" x1="19.7" y1="178.7" x2="19.7" y2="255.1" gradientTransform="matrix(1 0 0 -1 0 320)">
	<stop  offset="0" style="stop-color:#7F7F7F"/>
	<stop  offset="0.1983" style="stop-color:#606060"/>
	<stop  offset="0.2933" style="stop-color:#545454"/>
	<stop  offset="0.433" style="stop-color:#757575"/>
	<stop  offset="0.6732" style="stop-color:#FFFFFF"/>
	<stop  offset="0.9078" style="stop-color:#9B9B9B"/>
	<stop  offset="1" style="stop-color:#B2B2B2"/>
</linearGradient>
<rect x="18.4" y="64.9" style="fill:url(#SVGID_00000135675882857297226090000008395520355905756566_);" width="2.6" height="76.4"/>
<linearGradient id="SVGID_00000175282409853131573880000017419885893448694974_" gradientUnits="userSpaceOnUse" x1="148.2836" y1="299.7062" x2="168.7567" y2="299.7062" gradientTransform="matrix(-1 0 0 -1 197.4464 403.0562)">
	<stop  offset="0" style="stop-color:#1A1A1A"/>
	<stop  offset="0" style="stop-color:#000000;stop-opacity:0"/>
	<stop  offset="0.178" style="stop-color:#0A0A0A;stop-opacity:0.1734"/>
	<stop  offset="0.6818" style="stop-color:#212121;stop-opacity:0.6643"/>
	<stop  offset="1" style="stop-color:#292929;stop-opacity:0.9744"/>
</linearGradient>
<polygon style="opacity:0.3;fill:url(#SVGID_00000175282409853131573880000017419885893448694974_);enable-background:new    ;" points="
	28.7,136 49.2,136 49.2,70.7 28.7,70.7 "/>
<linearGradient id="SVGID_00000065063611844579499240000005151203220397101964_" gradientUnits="userSpaceOnUse" x1="177.3488" y1="299.9062" x2="179.0048" y2="299.9062" gradientTransform="matrix(-1 0 0 -1 197.4464 403.0562)">
	<stop  offset="0" style="stop-color:#000000;stop-opacity:0"/>
	<stop  offset="1" style="stop-color:#292929;stop-opacity:0.9744"/>
</linearGradient>
<polygon style="opacity:0.38;fill:url(#SVGID_00000065063611844579499240000005151203220397101964_);enable-background:new    ;" points="
	18.4,141.4 20.1,141.4 20.1,64.9 18.4,64.9 "/>
<linearGradient id="SVGID_00000009579479512293116320000010393478472867600257_" gradientUnits="userSpaceOnUse" x1="174.7868" y1="299.8562" x2="176.4428" y2="299.8562" gradientTransform="matrix(-1 0 0 -1 197.4464 403.0562)">
	<stop  offset="0" style="stop-color:#000000;stop-opacity:0"/>
	<stop  offset="1" style="stop-color:#292929;stop-opacity:0.9744"/>
</linearGradient>
<polygon style="opacity:0.38;fill:url(#SVGID_00000009579479512293116320000010393478472867600257_);enable-background:new    ;" points="
	21,139.7 22.7,139.7 22.7,66.7 21,66.7 "/>
<linearGradient id="SVGID_00000025413096149025305840000000386234218848619676_" gradientUnits="userSpaceOnUse" x1="172.2248" y1="300.0562" x2="173.8807" y2="300.0562" gradientTransform="matrix(-1 0 0 -1 197.4464 403.0562)">
	<stop  offset="0" style="stop-color:#000000;stop-opacity:0"/>
	<stop  offset="1" style="stop-color:#292929;stop-opacity:0.9744"/>
</linearGradient>
<polygon style="opacity:0.38;fill:url(#SVGID_00000025413096149025305840000000386234218848619676_);enable-background:new    ;" points="
	23.6,138.1 25.2,138.1 25.2,67.9 23.6,67.9 "/>
<linearGradient id="SVGID_00000052819052690203801410000013340091334844110211_" gradientUnits="userSpaceOnUse" x1="169.6627" y1="299.8062" x2="171.3187" y2="299.8062" gradientTransform="matrix(-1 0 0 -1 197.4464 403.0562)">
	<stop  offset="0" style="stop-color:#000000;stop-opacity:0"/>
	<stop  offset="1" style="stop-color:#292929;stop-opacity:0.9744"/>
</linearGradient>
<polygon style="opacity:0.38;fill:url(#SVGID_00000052819052690203801410000013340091334844110211_);enable-background:new    ;" points="
	26.1,137.1 27.8,137.1 27.8,69.4 26.1,69.4 "/>
<linearGradient id="SVGID_00000177445644363475087360000013062227087397609645_" gradientUnits="userSpaceOnUse" x1="194.1787" y1="294.8348" x2="207.9511" y2="294.8348" gradientTransform="matrix(-1 0 0 -1 210.2554 398.1348)">
	<stop  offset="0" style="stop-color:#000000;stop-opacity:0"/>
	<stop  offset="1" style="stop-color:#292929;stop-opacity:0.9744"/>
</linearGradient>
<polygon style="opacity:8.000000e-02;fill:url(#SVGID_00000177445644363475087360000013062227087397609645_);enable-background:new    ;" points="
	2.3,142.3 16.1,142.3 16.1,64.3 2.3,64.3 "/>
<linearGradient id="SVGID_00000014632613730702722850000004679475675704951439_" gradientUnits="userSpaceOnUse" x1="82.2" y1="185.4" x2="82.2" y2="248.3" gradientTransform="matrix(1 0 0 -1 0 320)">
	<stop  offset="0" style="stop-color:#848383"/>
	<stop  offset="0.1424" style="stop-color:#707070"/>
	<stop  offset="0.2023" style="stop-color:#646464"/>
	<stop  offset="0.269" style="stop-color:#5B5B5B"/>
	<stop  offset="0.3079" style="stop-color:#676767"/>
	<stop  offset="0.3704" style="stop-color:#848484"/>
	<stop  offset="0.433" style="stop-color:#878787"/>
	<stop  offset="0.5974" style="stop-color:#D9D9D9"/>
	<stop  offset="0.6843" style="stop-color:#FFFFFF"/>
	<stop  offset="0.9078" style="stop-color:#B7B7B7"/>
	<stop  offset="1" style="stop-color:#C6C6C6"/>
</linearGradient>
<path style="fill:url(#SVGID_00000014632613730702722850000004679475675704951439_);" d="M106.2,134.6h-48c-0.7,0-1.3-0.6-1.3-1.3
	V73c0-0.7,0.6-1.3,1.3-1.3h48c0.7,0,1.3,0.6,1.3,1.3v60.4C107.5,134.1,106.9,134.6,106.2,134.6z"/>
<linearGradient id="SVGID_00000133489698219699252160000011760591234308109957_" gradientUnits="userSpaceOnUse" x1="25.3163" y1="6.9028" x2="44.3749" y2="6.9028" gradientTransform="matrix(1 0 0 1 61.8569 96.2472)">
	<stop  offset="0" style="stop-color:#1A1A1A"/>
	<stop  offset="0" style="stop-color:#000000;stop-opacity:0"/>
	<stop  offset="1" style="stop-color:#292929;stop-opacity:0.9744"/>
</linearGradient>
<rect x="87.2" y="71.7" style="opacity:0.18;fill:url(#SVGID_00000133489698219699252160000011760591234308109957_);enable-background:new    ;" width="19.1" height="62.9"/>
<linearGradient id="SVGID_00000053538979732092190530000016569160542015853966_" gradientUnits="userSpaceOnUse" x1="134.3131" y1="295.0348" x2="153.3717" y2="295.0348" gradientTransform="matrix(-1 0 0 -1 210.2554 398.1348)">
	<stop  offset="0" style="stop-color:#1A1A1A"/>
	<stop  offset="0" style="stop-color:#000000;stop-opacity:0"/>
	<stop  offset="1" style="stop-color:#292929;stop-opacity:0.9744"/>
</linearGradient>
<path style="opacity:8.000000e-02;fill:url(#SVGID_00000053538979732092190530000016569160542015853966_);enable-background:new    ;" d="
	M58,134.6h16.8c0.6,0,1.2-0.5,1.2-1.2V72.8c0-0.6-0.5-1.2-1.2-1.2H58c-0.6,0-1.2,0.5-1.2,1.2v60.6C56.9,134.1,57.4,134.6,58,134.6z"
	/>
<linearGradient id="SVGID_00000127739161740528065280000012131458444312981376_" gradientUnits="userSpaceOnUse" x1="158.3528" y1="204.8" x2="158.3528" y2="229.4" gradientTransform="matrix(-1 0 0 -1 277.5028 320)">
	<stop  offset="2.234637e-02" style="stop-color:#1A1A1A"/>
	<stop  offset="0.9832" style="stop-color:#CCCCCC"/>
</linearGradient>
<polygon style="fill:url(#SVGID_00000127739161740528065280000012131458444312981376_);" points="104.4,115.2 133.9,115.2 
	133.9,90.6 104.4,90.6 "/>
<linearGradient id="SVGID_00000062180496128481968580000010158734664555497911_" gradientUnits="userSpaceOnUse" x1="158.3528" y1="186.3" x2="158.3528" y2="217" gradientTransform="matrix(-1 0 0 -1 277.5028 320)">
	<stop  offset="0" style="stop-color:#727272"/>
	<stop  offset="1" style="stop-color:#4C4C4C"/>
</linearGradient>
<path style="fill:url(#SVGID_00000062180496128481968580000010158734664555497911_);" d="M105.3,103H133c0,0,2.2,13.1,0,30.7h-27.7
	C105.3,133.7,103.1,117.9,105.3,103z"/>
<linearGradient id="SVGID_00000165209437918926598670000016950472468408348861_" gradientUnits="userSpaceOnUse" x1="158.3528" y1="217.0347" x2="158.3528" y2="247.1671" gradientTransform="matrix(-1 0 0 -1 277.5028 320)">
	<stop  offset="0" style="stop-color:#F4F4F4"/>
	<stop  offset="1" style="stop-color:#BABABA"/>
</linearGradient>
<path style="fill:url(#SVGID_00000165209437918926598670000016950472468408348861_);" d="M105.3,72.8H133c0,0,2.2,12.9,0,30.1h-27.7
	C105.3,103,103.1,87.5,105.3,72.8z"/>
<image style="overflow:visible;" width="200" height="200" xlink:href="../../pepsi.png"  transform="matrix(0.1557 0 0 0.1557 65.0421 87.0197)">
</image>
</svg>
