<?xml version="1.0" encoding="utf-8"?>
<!-- Generator: Adobe Illustrator 25.4.1, SVG Export Plug-In . SVG Version: 6.00 Build 0)  -->
<svg version="1.1" id="Слой_1" xmlns="http://www.w3.org/2000/svg" xmlns:xlink="http://www.w3.org/1999/xlink" x="0px" y="0px"
	 viewBox="0 0 100 160" style="enable-background:new 0 0 100 160;" xml:space="preserve">
<style type="text/css">
	.st0{fill:url(#SVGID_1_);}
	.st1{opacity:0.38;fill:url(#SVGID_00000145770431141957822400000012839244456116098466_);enable-background:new    ;}
	.st2{fill:url(#SVGID_00000131339708486028521900000012654161979472809861_);}
	.st3{opacity:0.28;fill:url(#SVGID_00000124157859523876280820000015539268143483440274_);enable-background:new    ;}
	.st4{fill:url(#SVGID_00000052092333503976579250000000940031823064272309_);}
	.st5{opacity:0.28;fill:url(#SVGID_00000080187844977106620510000003105649018919180722_);enable-background:new    ;}
	.st6{fill:url(#SVGID_00000036962280622298986550000000347859259328683696_);}
	.st7{fill:url(#SVGID_00000011017800942207271590000000850240005975485326_);}
	.st8{fill:url(#SVGID_00000051359262892226875820000001220316883941503394_);}
	.st9{fill:url(#SVGID_00000003069789021352985150000013552966379361546627_);}
	.st10{opacity:0.18;fill:url(#SVGID_00000005251139705212850460000000025032390326222484_);enable-background:new    ;}
	.st11{fill:url(#SVGID_00000025408104641637240720000007715466454722620072_);}
	.st12{fill:none;}
	.st13{opacity:0.28;fill:url(#SVGID_00000170993003975105424750000002127287895827868306_);enable-background:new    ;}
	.st14{fill:none;stroke:#4F4F4F;stroke-width:0.25;stroke-miterlimit:10;}
	.st15{opacity:0.49;}
	.st16{clip-path:url(#SVGID_00000125575601692980294940000002586847119443486611_);}
	.st17{fill:none;stroke:#000000;stroke-width:0.25;stroke-miterlimit:10;}
	.st18{fill:url(#SVGID_00000168822240175867339610000017395192580088896178_);}
	.st19{fill:url(#SVGID_00000109729235229815737090000001153725921381898902_);}
	.st20{fill:url(#SVGID_00000019680605917183312460000007685931293524732552_);}
	.st21{opacity:0.28;fill:url(#SVGID_00000074433281478635575820000006093048618621461934_);enable-background:new    ;}
	.st22{fill:url(#SVGID_00000155133922030643706760000008787085296208432529_);}
	.st23{fill:url(#SVGID_00000138552524774352103070000000213079906735983020_);}
	.st24{fill:url(#SVGID_00000003079636466361278950000004076140569157742238_);}
	.st25{fill:url(#SVGID_00000074431804814477132840000012553313254791039878_);}
	.st26{fill:url(#SVGID_00000029742630670866488900000013007362276661747872_);}
	.st27{opacity:0.28;fill:url(#SVGID_00000039108770916527574700000005948697016874497920_);enable-background:new    ;}
	.st28{fill:url(#SVGID_00000079462381402311670690000008876541628234465174_);}
	.st29{fill:url(#SVGID_00000044172668971512699900000016652836041149242296_);}
</style>
<linearGradient id="SVGID_1_" gradientUnits="userSpaceOnUse" x1="-1283.9509" y1="-383.3" x2="-1283.9509" y2="-329.2" gradientTransform="matrix(-1 0 0 -1 -1243.6509 -276)">
	<stop  offset="0" style="stop-color:#828282"/>
	<stop  offset="0.1424" style="stop-color:#666666"/>
	<stop  offset="0.269" style="stop-color:#636363"/>
	<stop  offset="0.3218" style="stop-color:#6F6F6F"/>
	<stop  offset="0.4182" style="stop-color:#8F8F90"/>
	<stop  offset="0.433" style="stop-color:#959596"/>
	<stop  offset="0.5684" style="stop-color:#C7C7C7"/>
	<stop  offset="0.6843" style="stop-color:#EDEDED"/>
	<stop  offset="0.9078" style="stop-color:#9F9F9F"/>
	<stop  offset="0.9977" style="stop-color:#C1BFBF"/>
</linearGradient>
<polygon class="st0" points="45.2,107.3 35.4,107.3 35.4,53.2 45.2,53.2 "/>
<linearGradient id="SVGID_00000127002165710565157280000017455817173481368744_" gradientUnits="userSpaceOnUse" x1="-49.0054" y1="1082.0529" x2="-39.2682" y2="1082.0529" gradientTransform="matrix(1 0 0 1 84.4308 -1001.7528)">
	<stop  offset="0" style="stop-color:#000000;stop-opacity:0"/>
	<stop  offset="0.4055" style="stop-color:#0E0E0E;stop-opacity:0.3952"/>
	<stop  offset="1" style="stop-color:#292929;stop-opacity:0.9744"/>
</linearGradient>
<rect x="35.4" y="53.2" style="opacity:0.38;fill:url(#SVGID_00000127002165710565157280000017455817173481368744_);enable-background:new    ;" width="9.8" height="54.2"/>
<linearGradient id="SVGID_00000007397152748840785810000016972086115720509854_" gradientUnits="userSpaceOnUse" x1="-1266.0509" y1="-385.4" x2="-1266.0509" y2="-327.5" gradientTransform="matrix(-1 0 0 -1 -1243.6509 -276)">
	<stop  offset="0" style="stop-color:#848383"/>
	<stop  offset="0.1424" style="stop-color:#707070"/>
	<stop  offset="0.2023" style="stop-color:#646464"/>
	<stop  offset="0.269" style="stop-color:#5B5B5B"/>
	<stop  offset="0.3079" style="stop-color:#676767"/>
	<stop  offset="0.3704" style="stop-color:#848484"/>
	<stop  offset="0.433" style="stop-color:#878787"/>
	<stop  offset="0.5974" style="stop-color:#D9D9D9"/>
	<stop  offset="0.6843" style="stop-color:#FFFFFF"/>
	<stop  offset="0.9078" style="stop-color:#B7B7B7"/>
	<stop  offset="1" style="stop-color:#C6C6C6"/>
</linearGradient>
<polygon style="fill:url(#SVGID_00000007397152748840785810000016972086115720509854_);" points="25.6,109.4 19.2,109.4 19.2,51.5 
	25.6,51.5 "/>
<linearGradient id="SVGID_00000026873201088864258120000009013208908215946392_" gradientUnits="userSpaceOnUse" x1="-66.3211" y1="1082.1528" x2="-58.7722" y2="1082.1528" gradientTransform="matrix(1 0 0 1 84.4308 -1001.7528)">
	<stop  offset="0" style="stop-color:#1A1A1A"/>
	<stop  offset="0" style="stop-color:#000000;stop-opacity:0"/>
	<stop  offset="0.3516" style="stop-color:#161616;stop-opacity:0.3426"/>
	<stop  offset="0.7021" style="stop-color:#242424;stop-opacity:0.6841"/>
	<stop  offset="1" style="stop-color:#292929;stop-opacity:0.9744"/>
</linearGradient>
<rect x="18.1" y="51.5" style="opacity:0.28;fill:url(#SVGID_00000026873201088864258120000009013208908215946392_);enable-background:new    ;" width="7.5" height="57.8"/>
<linearGradient id="SVGID_00000179639779449017034150000014765632142034565023_" gradientUnits="userSpaceOnUse" x1="30.2" y1="-386.7" x2="30.2" y2="-326.5" gradientTransform="matrix(1 0 0 -1 0 -276)">
	<stop  offset="0" style="stop-color:#848383"/>
	<stop  offset="0.2187" style="stop-color:#4C4C4C"/>
	<stop  offset="0.264" style="stop-color:#585858"/>
	<stop  offset="0.3467" style="stop-color:#797979"/>
	<stop  offset="0.3704" style="stop-color:#848484"/>
	<stop  offset="0.433" style="stop-color:#878787"/>
	<stop  offset="0.5974" style="stop-color:#D9D9D9"/>
	<stop  offset="0.6843" style="stop-color:#FFFFFF"/>
	<stop  offset="0.9078" style="stop-color:#C6C6C6"/>
	<stop  offset="1" style="stop-color:#D6D6D6"/>
</linearGradient>
<rect x="25" y="50.5" style="fill:url(#SVGID_00000179639779449017034150000014765632142034565023_);" width="10.4" height="60.2"/>
<linearGradient id="SVGID_00000093145378979028110110000014808299732216261262_" gradientUnits="userSpaceOnUse" x1="-1781.3246" y1="-620.1652" x2="-1775.8113" y2="-620.1652" gradientTransform="matrix(-1 0 0 -1 -1740.3857 -539.8652)">
	<stop  offset="0" style="stop-color:#1A1A1A"/>
	<stop  offset="0" style="stop-color:#000000;stop-opacity:0"/>
	<stop  offset="0.2979" style="stop-color:#050505;stop-opacity:0.2903"/>
	<stop  offset="0.6484" style="stop-color:#131313;stop-opacity:0.6318"/>
	<stop  offset="1" style="stop-color:#292929;stop-opacity:0.9744"/>
</linearGradient>
<polygon style="opacity:0.28;fill:url(#SVGID_00000093145378979028110110000014808299732216261262_);enable-background:new    ;" points="
	35.4,107.5 40.9,107.5 40.9,53.1 35.4,53.1 "/>
<g>
	
		<linearGradient id="SVGID_00000113324612873712563120000015132665671708907149_" gradientUnits="userSpaceOnUse" x1="-1409.6472" y1="-381.4" x2="-1409.6472" y2="-331.2" gradientTransform="matrix(-1 0 0 -1 -1356.4972 -276)">
		<stop  offset="2.234637e-02" style="stop-color:#1A1A1A"/>
		<stop  offset="0.9832" style="stop-color:#CCCCCC"/>
	</linearGradient>
	<polygon style="fill:url(#SVGID_00000113324612873712563120000015132665671708907149_);" points="44.2,105.4 62.1,105.4 62.1,55.2 
		44.2,55.2 	"/>
	
		<linearGradient id="SVGID_00000032628556469768508060000007575157685807579834_" gradientUnits="userSpaceOnUse" x1="-1409.625" y1="-388.1385" x2="-1409.625" y2="-372.5672" gradientTransform="matrix(-1 0 0 -1 -1356.4972 -276)">
		<stop  offset="0" style="stop-color:#727272"/>
		<stop  offset="1" style="stop-color:#4C4C4C"/>
	</linearGradient>
	<path style="fill:url(#SVGID_00000032628556469768508060000007575157685807579834_);" d="M44.8,96.6h16.7c0,0,1.3,6.7,0,15.6H44.8
		C44.8,112.2,43.4,104.1,44.8,96.6z"/>
	
		<linearGradient id="SVGID_00000002382948151081819740000000688996376777352603_" gradientUnits="userSpaceOnUse" x1="-1409.6472" y1="-372.6" x2="-1409.6472" y2="-340.3" gradientTransform="matrix(-1 0 0 -1 -1356.4972 -276)">
		<stop  offset="0" style="stop-color:#A0A0A0"/>
		<stop  offset="1" style="stop-color:#777777"/>
	</linearGradient>
	<path style="fill:url(#SVGID_00000002382948151081819740000000688996376777352603_);" d="M44.8,64.3h16.7c0,0,1.3,13.8,0,32.3H44.8
		C44.8,96.6,43.5,79.9,44.8,64.3z"/>
	
		<linearGradient id="SVGID_00000085965720974223211490000010720040690689605255_" gradientUnits="userSpaceOnUse" x1="-1409.625" y1="-340.2816" x2="-1409.625" y2="-324.2045" gradientTransform="matrix(-1 0 0 -1 -1356.4972 -276)">
		<stop  offset="0" style="stop-color:#F4F4F4"/>
		<stop  offset="1" style="stop-color:#BABABA"/>
	</linearGradient>
	<path style="fill:url(#SVGID_00000085965720974223211490000010720040690689605255_);" d="M44.8,48.2h16.7c0,0,1.3,6.9,0,16H44.8
		C44.8,64.3,43.4,56,44.8,48.2z"/>
</g>
<linearGradient id="SVGID_00000143595186271336297500000003378669331983540365_" gradientUnits="userSpaceOnUse" x1="-33.8109" y1="1082.3528" x2="-26.4533" y2="1082.3528" gradientTransform="matrix(1 0 0 1 61.8569 -1001.7528)">
	<stop  offset="0" style="stop-color:#000000;stop-opacity:0"/>
	<stop  offset="0.3516" style="stop-color:#161616;stop-opacity:0.3426"/>
	<stop  offset="0.7021" style="stop-color:#242424;stop-opacity:0.6841"/>
	<stop  offset="1" style="stop-color:#292929;stop-opacity:0.9744"/>
</linearGradient>
<rect x="28.1" y="50.5" style="opacity:0.18;fill:url(#SVGID_00000143595186271336297500000003378669331983540365_);enable-background:new    ;" width="7.3" height="60.2"/>
<linearGradient id="SVGID_00000119117879028107170540000011772237787036453554_" gradientUnits="userSpaceOnUse" x1="-1254.2009" y1="-386" x2="-1254.2009" y2="-326.3" gradientTransform="matrix(-1 0 0 -1 -1243.6509 -276)">
	<stop  offset="0" style="stop-color:#848383"/>
	<stop  offset="0.1424" style="stop-color:#707070"/>
	<stop  offset="0.2023" style="stop-color:#646464"/>
	<stop  offset="0.269" style="stop-color:#5B5B5B"/>
	<stop  offset="0.3079" style="stop-color:#676767"/>
	<stop  offset="0.3704" style="stop-color:#848484"/>
	<stop  offset="0.433" style="stop-color:#878787"/>
	<stop  offset="0.5974" style="stop-color:#D9D9D9"/>
	<stop  offset="0.6843" style="stop-color:#FFFFFF"/>
	<stop  offset="0.9078" style="stop-color:#B7B7B7"/>
	<stop  offset="1" style="stop-color:#C6C6C6"/>
</linearGradient>
<polygon style="fill:url(#SVGID_00000119117879028107170540000011772237787036453554_);" points="19.4,110 1.7,110 1.7,50.3 
	19.4,50.3 "/>
<rect x="1.7" y="50.4" class="st12" width="17.7" height="59.6"/>
<linearGradient id="SVGID_00000091015324239234589390000015296000386877393838_" gradientUnits="userSpaceOnUse" x1="-79.01" y1="1081.8528" x2="-65.0568" y2="1081.8528" gradientTransform="matrix(1 0 0 1 84.4308 -1001.7528)">
	<stop  offset="0" style="stop-color:#020202;stop-opacity:4.283046e-02"/>
	<stop  offset="0.3336" style="stop-color:#161616;stop-opacity:0.3536"/>
	<stop  offset="0.6935" style="stop-color:#242424;stop-opacity:0.6888"/>
	<stop  offset="1" style="stop-color:#292929;stop-opacity:0.9744"/>
</linearGradient>
<rect x="5.4" y="50.3" style="opacity:0.28;fill:url(#SVGID_00000091015324239234589390000015296000386877393838_);enable-background:new    ;" width="14" height="59.6"/>
<rect x="1.7" y="50.4" class="st14" width="17.7" height="59.6"/>
<g class="st15">
	<g>
		<g>
			<g>
				<defs>
					<rect id="SVGID_00000093155658178639225780000005016855681392843176_" x="1.7" y="50.4" width="17.7" height="59.6"/>
				</defs>
				<clipPath id="SVGID_00000008132423785981811060000002911757802394689727_">
					<use xlink:href="#SVGID_00000093155658178639225780000005016855681392843176_"  style="overflow:visible;"/>
				</clipPath>
				<g style="clip-path:url(#SVGID_00000008132423785981811060000002911757802394689727_);">
					<g>
						<line class="st17" x1="20.3" y1="46.7" x2="0.9" y2="65.9"/>
						<path class="st12" d="M0.9,67.4"/>
						<polyline class="st17" points="0.9,67.4 20.3,48.4 22,46.7 						"/>
						<line class="st17" x1="22" y1="48.4" x2="0.9" y2="69"/>
						<line class="st17" x1="0.9" y1="70.6" x2="22" y2="49.9"/>
						<line class="st17" x1="22" y1="51.5" x2="2.6" y2="70.6"/>
						<line class="st17" x1="4.3" y1="70.6" x2="22" y2="53.1"/>
						<line class="st17" x1="22" y1="54.7" x2="5.9" y2="70.6"/>
						<line class="st17" x1="7.4" y1="70.6" x2="22" y2="56.3"/>
						<line class="st17" x1="22" y1="57.9" x2="9" y2="70.6"/>
						<line class="st17" x1="10.6" y1="70.6" x2="22" y2="59.5"/>
						<line class="st17" x1="22" y1="61" x2="12.3" y2="70.6"/>
						<line class="st17" x1="13.9" y1="70.6" x2="22" y2="62.6"/>
						<line class="st17" x1="22" y1="64.3" x2="15.6" y2="70.6"/>
						<line class="st17" x1="17.1" y1="70.6" x2="22" y2="65.8"/>
						<line class="st17" x1="22" y1="67.4" x2="18.8" y2="70.6"/>
						<line class="st17" x1="20.4" y1="70.6" x2="22" y2="69"/>
						<line class="st17" x1="18.7" y1="46.7" x2="0.9" y2="64.3"/>
						<line class="st17" x1="0.9" y1="62.6" x2="17.2" y2="46.7"/>
						<line class="st17" x1="15.6" y1="46.7" x2="0.9" y2="61"/>
						<line class="st17" x1="0.9" y1="59.5" x2="13.9" y2="46.7"/>
						<line class="st17" x1="12.3" y1="46.7" x2="0.9" y2="57.9"/>
						<line class="st17" x1="0.9" y1="56.3" x2="10.6" y2="46.7"/>
						<line class="st17" x1="9" y1="46.7" x2="0.9" y2="54.7"/>
						<line class="st17" x1="0.9" y1="53.1" x2="7.4" y2="46.7"/>
						<line class="st17" x1="5.9" y1="46.7" x2="0.9" y2="51.5"/>
						<line class="st17" x1="0.9" y1="49.9" x2="4.2" y2="46.7"/>
						<line class="st17" x1="2.6" y1="46.7" x2="0.9" y2="48.4"/>
						<line class="st17" x1="2.6" y1="46.7" x2="21.9" y2="65.9"/>
						<path class="st12" d="M21.9,67.4"/>
						<polyline class="st17" points="21.9,67.4 2.6,48.4 0.9,46.7 						"/>
						<line class="st17" x1="0.9" y1="48.4" x2="21.9" y2="69"/>
						<line class="st17" x1="21.9" y1="70.6" x2="0.9" y2="49.9"/>
						<line class="st17" x1="0.9" y1="51.5" x2="20.3" y2="70.6"/>
						<line class="st17" x1="18.6" y1="70.6" x2="0.9" y2="53.1"/>
						<line class="st17" x1="0.9" y1="54.7" x2="17" y2="70.6"/>
						<line class="st17" x1="15.5" y1="70.6" x2="0.9" y2="56.3"/>
						<line class="st17" x1="0.9" y1="57.9" x2="13.9" y2="70.6"/>
						<line class="st17" x1="12.2" y1="70.6" x2="0.9" y2="59.5"/>
						<line class="st17" x1="0.9" y1="61" x2="10.6" y2="70.6"/>
						<line class="st17" x1="8.9" y1="70.6" x2="0.9" y2="62.6"/>
						<line class="st17" x1="0.9" y1="64.3" x2="7.3" y2="70.6"/>
						<line class="st17" x1="5.7" y1="70.6" x2="0.9" y2="65.8"/>
						<line class="st17" x1="0.9" y1="67.4" x2="4.1" y2="70.6"/>
						<line class="st17" x1="2.5" y1="70.6" x2="0.9" y2="69"/>
						<line class="st17" x1="4.2" y1="46.7" x2="21.9" y2="64.3"/>
						<line class="st17" x1="21.9" y1="62.6" x2="5.7" y2="46.7"/>
						<line class="st17" x1="7.3" y1="46.7" x2="21.9" y2="61"/>
						<line class="st17" x1="21.9" y1="59.5" x2="9" y2="46.7"/>
						<line class="st17" x1="10.6" y1="46.7" x2="21.9" y2="57.9"/>
						<line class="st17" x1="21.9" y1="56.3" x2="12.2" y2="46.7"/>
						<line class="st17" x1="13.9" y1="46.7" x2="21.9" y2="54.7"/>
						<line class="st17" x1="21.9" y1="53.1" x2="15.4" y2="46.7"/>
						<line class="st17" x1="17" y1="46.7" x2="21.9" y2="51.5"/>
						<line class="st17" x1="21.9" y1="49.9" x2="18.7" y2="46.7"/>
						<line class="st17" x1="20.3" y1="46.7" x2="21.9" y2="48.4"/>
					</g>
					<g>
						<line class="st17" x1="20.3" y1="70.6" x2="0.9" y2="89.7"/>
						<path class="st12" d="M0.9,91.3"/>
						<polyline class="st17" points="0.9,91.3 20.3,72.2 22,70.6 						"/>
						<line class="st17" x1="22" y1="72.2" x2="0.9" y2="92.8"/>
						<line class="st17" x1="0.9" y1="94.5" x2="22" y2="73.8"/>
						<line class="st17" x1="22" y1="75.4" x2="2.5" y2="94.5"/>
						<line class="st17" x1="4.2" y1="94.5" x2="22" y2="76.9"/>
						<line class="st17" x1="22" y1="78.6" x2="5.8" y2="94.5"/>
						<line class="st17" x1="7.4" y1="94.5" x2="22" y2="80.2"/>
						<line class="st17" x1="22" y1="81.8" x2="8.9" y2="94.5"/>
						<line class="st17" x1="10.6" y1="94.5" x2="22" y2="83.3"/>
						<line class="st17" x1="22" y1="84.9" x2="12.3" y2="94.5"/>
						<line class="st17" x1="13.9" y1="94.5" x2="22" y2="86.5"/>
						<line class="st17" x1="22" y1="88.1" x2="15.6" y2="94.5"/>
						<line class="st17" x1="17.1" y1="94.5" x2="22" y2="89.7"/>
						<line class="st17" x1="22" y1="91.3" x2="18.8" y2="94.5"/>
						<line class="st17" x1="20.3" y1="94.5" x2="22" y2="92.8"/>
						<line class="st17" x1="18.7" y1="70.6" x2="0.9" y2="88.1"/>
						<line class="st17" x1="0.9" y1="86.5" x2="17.1" y2="70.6"/>
						<line class="st17" x1="15.6" y1="70.6" x2="0.9" y2="84.9"/>
						<line class="st17" x1="0.9" y1="83.3" x2="13.9" y2="70.6"/>
						<line class="st17" x1="12.3" y1="70.6" x2="0.9" y2="81.8"/>
						<line class="st17" x1="0.9" y1="80.1" x2="10.6" y2="70.6"/>
						<line class="st17" x1="8.9" y1="70.6" x2="0.9" y2="78.6"/>
						<line class="st17" x1="0.9" y1="76.9" x2="7.4" y2="70.6"/>
						<line class="st17" x1="5.8" y1="70.6" x2="0.9" y2="75.4"/>
						<line class="st17" x1="0.9" y1="73.8" x2="4.2" y2="70.6"/>
						<line class="st17" x1="2.5" y1="70.6" x2="0.9" y2="72.2"/>
						<line class="st17" x1="2.5" y1="70.6" x2="21.8" y2="89.7"/>
						<path class="st12" d="M21.8,91.3"/>
						<polyline class="st17" points="21.8,91.3 2.5,72.2 0.9,70.6 						"/>
						<line class="st17" x1="0.9" y1="72.2" x2="21.8" y2="92.8"/>
						<line class="st17" x1="21.8" y1="94.5" x2="0.9" y2="73.8"/>
						<line class="st17" x1="0.9" y1="75.4" x2="20.3" y2="94.5"/>
						<line class="st17" x1="18.6" y1="94.5" x2="0.9" y2="76.9"/>
						<line class="st17" x1="0.9" y1="78.6" x2="17" y2="94.5"/>
						<line class="st17" x1="15.4" y1="94.5" x2="0.9" y2="80.2"/>
						<line class="st17" x1="0.9" y1="81.8" x2="13.9" y2="94.5"/>
						<line class="st17" x1="12.2" y1="94.5" x2="0.9" y2="83.3"/>
						<line class="st17" x1="0.9" y1="84.9" x2="10.6" y2="94.5"/>
						<line class="st17" x1="8.9" y1="94.5" x2="0.9" y2="86.5"/>
						<line class="st17" x1="0.9" y1="88.1" x2="7.3" y2="94.5"/>
						<line class="st17" x1="5.7" y1="94.5" x2="0.9" y2="89.7"/>
						<line class="st17" x1="0.9" y1="91.3" x2="4.1" y2="94.5"/>
						<line class="st17" x1="2.5" y1="94.5" x2="0.9" y2="92.8"/>
						<line class="st17" x1="4.2" y1="70.6" x2="21.8" y2="88.1"/>
						<line class="st17" x1="21.8" y1="86.5" x2="5.7" y2="70.6"/>
						<line class="st17" x1="7.3" y1="70.6" x2="21.8" y2="84.9"/>
						<line class="st17" x1="21.8" y1="83.3" x2="8.9" y2="70.6"/>
						<line class="st17" x1="10.6" y1="70.6" x2="21.8" y2="81.8"/>
						<line class="st17" x1="21.8" y1="80.1" x2="12.2" y2="70.6"/>
						<line class="st17" x1="13.9" y1="70.6" x2="21.8" y2="78.6"/>
						<line class="st17" x1="21.8" y1="76.9" x2="15.4" y2="70.6"/>
						<line class="st17" x1="17" y1="70.6" x2="21.8" y2="75.4"/>
						<line class="st17" x1="21.8" y1="73.8" x2="18.6" y2="70.6"/>
						<line class="st17" x1="20.3" y1="70.6" x2="21.8" y2="72.2"/>
					</g>
					<g>
						<line class="st17" x1="20.3" y1="94.5" x2="1" y2="113.6"/>
						<path class="st12" d="M1,115.2"/>
						<polyline class="st17" points="1,115.2 20.3,96.1 22,94.5 						"/>
						<line class="st17" x1="22" y1="96.1" x2="1" y2="116.7"/>
						<line class="st17" x1="1" y1="118.3" x2="22" y2="97.7"/>
						<line class="st17" x1="22" y1="99.3" x2="2.6" y2="118.3"/>
						<line class="st17" x1="4.3" y1="118.3" x2="22" y2="100.8"/>
						<line class="st17" x1="22" y1="102.4" x2="5.9" y2="118.3"/>
						<line class="st17" x1="7.4" y1="118.3" x2="22" y2="104"/>
						<line class="st17" x1="22" y1="105.6" x2="9.1" y2="118.3"/>
						<line class="st17" x1="10.7" y1="118.3" x2="22" y2="107.2"/>
						<line class="st17" x1="22" y1="108.8" x2="12.3" y2="118.3"/>
						<line class="st17" x1="14" y1="118.3" x2="22" y2="110.4"/>
						<line class="st17" x1="22" y1="112" x2="15.6" y2="118.3"/>
						<line class="st17" x1="17.2" y1="118.3" x2="22" y2="113.5"/>
						<line class="st17" x1="22" y1="115.2" x2="18.8" y2="118.3"/>
						<line class="st17" x1="20.4" y1="118.3" x2="22" y2="116.7"/>
						<line class="st17" x1="18.8" y1="94.5" x2="1" y2="112"/>
						<line class="st17" x1="1" y1="110.4" x2="17.2" y2="94.5"/>
						<line class="st17" x1="15.6" y1="94.5" x2="1" y2="108.8"/>
						<line class="st17" x1="1" y1="107.2" x2="13.9" y2="94.5"/>
						<line class="st17" x1="12.3" y1="94.5" x2="1" y2="105.6"/>
						<line class="st17" x1="1" y1="104" x2="10.7" y2="94.5"/>
						<line class="st17" x1="9.1" y1="94.5" x2="1" y2="102.4"/>
						<line class="st17" x1="1" y1="100.8" x2="7.5" y2="94.5"/>
						<line class="st17" x1="5.9" y1="94.5" x2="1" y2="99.3"/>
						<line class="st17" x1="1" y1="97.7" x2="4.2" y2="94.5"/>
						<line class="st17" x1="2.6" y1="94.5" x2="1" y2="96.1"/>
						<line class="st17" x1="2.6" y1="94.5" x2="22" y2="113.6"/>
						<path class="st12" d="M22,115.2"/>
						<polyline class="st17" points="22,115.2 2.6,96.1 0.9,94.5 						"/>
						<line class="st17" x1="0.9" y1="96.1" x2="22" y2="116.7"/>
						<line class="st17" x1="22" y1="118.3" x2="0.9" y2="97.7"/>
						<line class="st17" x1="0.9" y1="99.3" x2="20.3" y2="118.3"/>
						<line class="st17" x1="18.7" y1="118.3" x2="0.9" y2="100.8"/>
						<line class="st17" x1="0.9" y1="102.4" x2="17.1" y2="118.3"/>
						<line class="st17" x1="15.6" y1="118.3" x2="0.9" y2="104"/>
						<line class="st17" x1="0.9" y1="105.6" x2="13.9" y2="118.3"/>
						<line class="st17" x1="12.3" y1="118.3" x2="0.9" y2="107.2"/>
						<line class="st17" x1="0.9" y1="108.8" x2="10.6" y2="118.3"/>
						<line class="st17" x1="9" y1="118.3" x2="0.9" y2="110.4"/>
						<line class="st17" x1="0.9" y1="112" x2="7.4" y2="118.3"/>
						<line class="st17" x1="5.8" y1="118.3" x2="0.9" y2="113.5"/>
						<line class="st17" x1="0.9" y1="115.2" x2="4.2" y2="118.3"/>
						<line class="st17" x1="2.5" y1="118.3" x2="0.9" y2="116.7"/>
						<line class="st17" x1="4.2" y1="94.5" x2="22" y2="112"/>
						<line class="st17" x1="22" y1="110.4" x2="5.7" y2="94.5"/>
						<line class="st17" x1="7.4" y1="94.5" x2="22" y2="108.8"/>
						<line class="st17" x1="22" y1="107.2" x2="9" y2="94.5"/>
						<line class="st17" x1="10.6" y1="94.5" x2="22" y2="105.6"/>
						<line class="st17" x1="22" y1="104" x2="12.3" y2="94.5"/>
						<line class="st17" x1="13.9" y1="94.5" x2="22" y2="102.4"/>
						<line class="st17" x1="22" y1="100.8" x2="15.5" y2="94.5"/>
						<line class="st17" x1="17.1" y1="94.5" x2="22" y2="99.3"/>
						<line class="st17" x1="22" y1="97.7" x2="18.7" y2="94.5"/>
						<line class="st17" x1="20.3" y1="94.5" x2="22" y2="96.1"/>
					</g>
				</g>
			</g>
		</g>
	</g>
</g>
<linearGradient id="SVGID_00000131364407802916900490000014395797133507785642_" gradientUnits="userSpaceOnUse" x1="-1447.4465" y1="-377.7521" x2="-1447.4465" y2="-335.1064" gradientTransform="matrix(-1 0 0 -1 -1380.6965 -276)">
	<stop  offset="0" style="stop-color:#636363"/>
	<stop  offset="0.1983" style="stop-color:#444444"/>
	<stop  offset="0.2933" style="stop-color:#383838"/>
	<stop  offset="0.433" style="stop-color:#565656"/>
	<stop  offset="0.6732" style="stop-color:#E5E5E5"/>
	<stop  offset="0.9078" style="stop-color:#7F7E7E"/>
	<stop  offset="1" style="stop-color:#939292"/>
</linearGradient>
<path style="fill:url(#SVGID_00000131364407802916900490000014395797133507785642_);" d="M67.2,101.8c-0.3-0.5-0.5-1.1-0.9-1.6
	c0-13.2,0-26.3,0-39.5c0.3-0.5,0.5-1,0.9-1.5V101.8z"/>
<linearGradient id="SVGID_00000038377012295963514210000003493271054156828545_" gradientUnits="userSpaceOnUse" x1="-55.0466" y1="-377.7521" x2="-55.0466" y2="-335.1064" gradientTransform="matrix(1 0 0 -1 122.6966 -276)">
	<stop  offset="0" style="stop-color:#7F7F7F"/>
	<stop  offset="0.1983" style="stop-color:#606060"/>
	<stop  offset="0.2933" style="stop-color:#545454"/>
	<stop  offset="0.433" style="stop-color:#757575"/>
	<stop  offset="0.6732" style="stop-color:#FFFFFF"/>
	<stop  offset="0.9078" style="stop-color:#9B9B9B"/>
	<stop  offset="1" style="stop-color:#B2B2B2"/>
</linearGradient>
<path style="fill:url(#SVGID_00000038377012295963514210000003493271054156828545_);" d="M67.2,101.8c0.3-0.5,0.5-1.1,0.9-1.6
	c0-13.2,0-26.3,0-39.5c-0.3-0.5-0.5-1-0.9-1.5V101.8z"/>
<linearGradient id="SVGID_00000033329249860338808450000003422310617201264806_" gradientUnits="userSpaceOnUse" x1="298.0171" y1="-380.7655" x2="298.0171" y2="-332.9655" gradientTransform="matrix(1 0 0 -1 -201.9671 -276)">
	<stop  offset="0" style="stop-color:#999898"/>
	<stop  offset="0.1963" style="stop-color:#4F4F4F"/>
	<stop  offset="0.2507" style="stop-color:#5B5B5B"/>
	<stop  offset="0.3499" style="stop-color:#7C7C7C"/>
	<stop  offset="0.3704" style="stop-color:#848484"/>
	<stop  offset="0.433" style="stop-color:#878787"/>
	<stop  offset="0.5974" style="stop-color:#D9D9D9"/>
	<stop  offset="0.6843" style="stop-color:#FFFFFF"/>
	<stop  offset="0.9078" style="stop-color:#B7B7B7"/>
	<stop  offset="1" style="stop-color:#C6C6C6"/>
</linearGradient>
<rect x="93.4" y="56.9" style="fill:url(#SVGID_00000033329249860338808450000003422310617201264806_);" width="5.3" height="47.8"/>
<linearGradient id="SVGID_00000114073293559506773040000012746548885032098475_" gradientUnits="userSpaceOnUse" x1="-1626.9125" y1="1082.5529" x2="-1623.4766" y2="1082.5529" gradientTransform="matrix(-1 0 0 1 -1530.0488 -1001.7528)">
	<stop  offset="0" style="stop-color:#000000;stop-opacity:0"/>
	<stop  offset="0.3516" style="stop-color:#161616;stop-opacity:0.3426"/>
	<stop  offset="0.7021" style="stop-color:#242424;stop-opacity:0.6841"/>
	<stop  offset="1" style="stop-color:#292929;stop-opacity:0.9744"/>
</linearGradient>
<polygon style="opacity:0.28;fill:url(#SVGID_00000114073293559506773040000012746548885032098475_);enable-background:new    ;" points="
	93.4,56.9 96.9,56.9 96.9,104.7 93.4,104.7 "/>
<g>
	
		<linearGradient id="SVGID_00000170253661876815284510000014750629540159926153_" gradientUnits="userSpaceOnUse" x1="-30.8464" y1="-378.1" x2="-30.8464" y2="-334.5" gradientTransform="matrix(1 0 0 -1 112.8464 -276)">
		<stop  offset="2.234637e-02" style="stop-color:#1A1A1A"/>
		<stop  offset="0.9832" style="stop-color:#CCCCCC"/>
	</linearGradient>
	
		<rect x="69.7" y="58.5" style="fill:url(#SVGID_00000170253661876815284510000014750629540159926153_);" width="24.6" height="43.6"/>
	
		<linearGradient id="SVGID_00000065052472567863749930000017165859318940763825_" gradientUnits="userSpaceOnUse" x1="-30.8242" y1="-383.9502" x2="-30.8242" y2="-370.39" gradientTransform="matrix(1 0 0 -1 112.8464 -276)">
		<stop  offset="0" style="stop-color:#727272"/>
		<stop  offset="1" style="stop-color:#4C4C4C"/>
	</linearGradient>
	<path style="fill:url(#SVGID_00000065052472567863749930000017165859318940763825_);" d="M93.5,94.4h-23c0,0-1.8,5.8,0,13.6h23
		C93.5,108,95.4,101,93.5,94.4z"/>
	
		<linearGradient id="SVGID_00000013890716689947092460000016901459450688371891_" gradientUnits="userSpaceOnUse" x1="-30.8464" y1="-370.4" x2="-30.8464" y2="-342.3" gradientTransform="matrix(1 0 0 -1 112.8464 -276)">
		<stop  offset="0" style="stop-color:#A0A0A0"/>
		<stop  offset="1" style="stop-color:#777777"/>
	</linearGradient>
	<path style="fill:url(#SVGID_00000013890716689947092460000016901459450688371891_);" d="M93.5,66.3h-23c0,0-1.8,12,0,28.1h23
		C93.5,94.4,95.3,79.9,93.5,66.3z"/>
	
		<linearGradient id="SVGID_00000041286207909208503190000005368048290298451381_" gradientUnits="userSpaceOnUse" x1="-30.8464" y1="-342.3123" x2="-30.8464" y2="-328.7522" gradientTransform="matrix(1 0 0 -1 112.8464 -276)">
		<stop  offset="0" style="stop-color:#F4F4F4"/>
		<stop  offset="1" style="stop-color:#BABABA"/>
	</linearGradient>
	<path style="fill:url(#SVGID_00000041286207909208503190000005368048290298451381_);" d="M93.5,52.8h-23c0,0-1.8,5.8,0,13.6h23
		C93.5,66.3,95.3,59.3,93.5,52.8z"/>
</g>
<linearGradient id="SVGID_00000002348235657248906810000013367490872561926789_" gradientUnits="userSpaceOnUse" x1="266.2171" y1="-376.1799" x2="266.2171" y2="-336.5799" gradientTransform="matrix(1 0 0 -1 -201.9671 -276)">
	<stop  offset="0" style="stop-color:#999898"/>
	<stop  offset="0.1963" style="stop-color:#4F4F4F"/>
	<stop  offset="0.2507" style="stop-color:#5B5B5B"/>
	<stop  offset="0.3499" style="stop-color:#7C7C7C"/>
	<stop  offset="0.3704" style="stop-color:#848484"/>
	<stop  offset="0.433" style="stop-color:#878787"/>
	<stop  offset="0.5974" style="stop-color:#D9D9D9"/>
	<stop  offset="0.6843" style="stop-color:#FFFFFF"/>
	<stop  offset="0.9078" style="stop-color:#B7B7B7"/>
	<stop  offset="1" style="stop-color:#C6C6C6"/>
</linearGradient>
<rect x="62.1" y="60.5" style="fill:url(#SVGID_00000002348235657248906810000013367490872561926789_);" width="4.3" height="39.6"/>
<linearGradient id="SVGID_00000016762486347947626210000009779336734333196956_" gradientUnits="userSpaceOnUse" x1="-1594.905" y1="1082.1028" x2="-1592.0973" y2="1082.1028" gradientTransform="matrix(-1 0 0 1 -1530.0488 -1001.7528)">
	<stop  offset="0" style="stop-color:#000000;stop-opacity:0"/>
	<stop  offset="0.3516" style="stop-color:#161616;stop-opacity:0.3426"/>
	<stop  offset="0.7021" style="stop-color:#242424;stop-opacity:0.6841"/>
	<stop  offset="1" style="stop-color:#292929;stop-opacity:0.9744"/>
</linearGradient>
<polygon style="opacity:0.28;fill:url(#SVGID_00000016762486347947626210000009779336734333196956_);enable-background:new    ;" points="
	62.1,60.5 64.9,60.5 64.9,100.2 62.1,100.2 "/>
<linearGradient id="SVGID_00000033371601144263371200000014712864982204648074_" gradientUnits="userSpaceOnUse" x1="-1449.1466" y1="-377.7521" x2="-1449.1466" y2="-335.1064" gradientTransform="matrix(-1 0 0 -1 -1380.6965 -276)">
	<stop  offset="0" style="stop-color:#636363"/>
	<stop  offset="0.1983" style="stop-color:#444444"/>
	<stop  offset="0.2933" style="stop-color:#383838"/>
	<stop  offset="0.433" style="stop-color:#565656"/>
	<stop  offset="0.6732" style="stop-color:#E5E5E5"/>
	<stop  offset="0.9078" style="stop-color:#7F7E7E"/>
	<stop  offset="1" style="stop-color:#939292"/>
</linearGradient>
<path style="fill:url(#SVGID_00000033371601144263371200000014712864982204648074_);" d="M68.9,101.8c-0.3-0.5-0.5-1.1-0.9-1.6
	c0-13.2,0-26.3,0-39.5c0.3-0.5,0.5-1,0.9-1.5V101.8z"/>
<linearGradient id="SVGID_00000000907216681328467140000001887003603969794950_" gradientUnits="userSpaceOnUse" x1="-53.3466" y1="-377.7521" x2="-53.3466" y2="-335.1064" gradientTransform="matrix(1 0 0 -1 122.6966 -276)">
	<stop  offset="0" style="stop-color:#7F7F7F"/>
	<stop  offset="0.1983" style="stop-color:#606060"/>
	<stop  offset="0.2933" style="stop-color:#545454"/>
	<stop  offset="0.433" style="stop-color:#757575"/>
	<stop  offset="0.6732" style="stop-color:#FFFFFF"/>
	<stop  offset="0.9078" style="stop-color:#9B9B9B"/>
	<stop  offset="1" style="stop-color:#B2B2B2"/>
</linearGradient>
<path style="fill:url(#SVGID_00000000907216681328467140000001887003603969794950_);" d="M68.9,101.8c0.3-0.5,0.5-1.1,0.9-1.6
	c0-13.2,0-26.3,0-39.5c-0.3-0.5-0.5-1-0.9-1.5V101.8z"/>
<image style="overflow:visible;" width="200" height="200" xlink:href="../../pepsi.png"  transform="matrix(5.831461e-02 0 0 5.831461e-02 47.2963 74.1685)">
</image>
</svg>
