<?xml version="1.0" encoding="utf-8"?>
<!-- Generator: Adobe Illustrator 25.4.1, SVG Export Plug-In . SVG Version: 6.00 Build 0)  -->
<svg version="1.1" id="Слой_1" xmlns="http://www.w3.org/2000/svg" xmlns:xlink="http://www.w3.org/1999/xlink" x="0px" y="0px"
	 viewBox="0 0 100 160" style="enable-background:new 0 0 100 160;" xml:space="preserve">
<style type="text/css">
	.st0{fill:url(#SVGID_1_);}
	.st1{opacity:0.38;fill:url(#SVGID_00000012449368429476735260000006591354408311290760_);enable-background:new    ;}
	.st2{fill:url(#SVGID_00000034073579789298647860000009518910465150891688_);}
	.st3{opacity:0.28;fill:url(#SVGID_00000181792199649356568540000014012663820271235233_);enable-background:new    ;}
	.st4{fill:url(#SVGID_00000119112560577532680420000003030784318047796353_);}
	.st5{fill:url(#SVGID_00000178904040005105353990000005346595889647965856_);}
	.st6{fill:url(#SVGID_00000154396902242925524520000006940550999238845314_);}
	.st7{fill:url(#SVGID_00000040535105094515742750000000165990507923821478_);}
	.st8{fill:url(#SVGID_00000092455892123471193310000017775614188159037837_);}
	.st9{fill:url(#SVGID_00000139975592051889746010000011722023216349942973_);}
	.st10{fill:url(#SVGID_00000143618625628685063070000001471777493384290955_);}
	.st11{fill:url(#SVGID_00000002350781651532154910000018334919997230266537_);}
	.st12{opacity:0.32;fill:url(#SVGID_00000095308924901242240610000001084048361178338220_);enable-background:new    ;}
	.st13{fill:url(#SVGID_00000140002304579278849560000010588609102438787742_);}
	.st14{fill:url(#SVGID_00000008844283488089602250000012911581786087868552_);}
	.st15{fill:url(#SVGID_00000054953755919031399180000012182939684986010274_);}
	.st16{fill:url(#SVGID_00000013900275176925022220000007009453789778925954_);}
	.st17{fill:url(#SVGID_00000157292082761036950210000014319215604682471599_);}
	.st18{fill:url(#SVGID_00000070099514829041783660000007212463686780095630_);}
	.st19{opacity:0.32;fill:url(#SVGID_00000154412946909948421470000017585224345812370582_);enable-background:new    ;}
	.st20{fill:url(#SVGID_00000054228758354470676360000002715344700607354254_);}
	.st21{opacity:0.28;fill:url(#SVGID_00000005224182929469242410000000115508741349057440_);enable-background:new    ;}
	.st22{fill:url(#SVGID_00000014600437495781035260000005504194762992819886_);}
	.st23{fill:url(#SVGID_00000001646986719549849690000003923525700441037443_);}
	.st24{opacity:0.28;fill:url(#SVGID_00000056400459684945785160000001409607888991928726_);enable-background:new    ;}
	.st25{fill:url(#SVGID_00000123441570661563534720000006165425746079341448_);}
	.st26{opacity:0.28;fill:url(#SVGID_00000047761635970601282340000005663901787135463856_);enable-background:new    ;}
	.st27{fill:url(#SVGID_00000149373943941678905070000004501560282689919889_);}
	.st28{fill:url(#SVGID_00000130630915019968678450000002029992660243442051_);}
	.st29{fill:url(#SVGID_00000137106905840403430650000009416450468412619690_);}
	.st30{fill:url(#SVGID_00000182504298228452562070000013113158418143593149_);}
	.st31{opacity:0.18;fill:url(#SVGID_00000008136474165670717230000004565274978112018560_);enable-background:new    ;}
	.st32{fill:url(#SVGID_00000054259234428666624270000010576152325886123921_);}
	.st33{fill:none;}
	.st34{opacity:0.28;fill:url(#SVGID_00000158017052614048269510000015651754105477811100_);enable-background:new    ;}
	.st35{fill:none;stroke:#4C4C4C;stroke-width:0.25;stroke-miterlimit:10;}
	.st36{opacity:0.44;}
	.st37{clip-path:url(#SVGID_00000145768964770225923700000017308558225311473058_);}
	.st38{fill:none;stroke:#000000;stroke-width:0.25;stroke-miterlimit:10;}
</style>
<linearGradient id="SVGID_1_" gradientUnits="userSpaceOnUse" x1="-1295.7509" y1="-384.6" x2="-1295.7509" y2="-327.8" gradientTransform="matrix(-1 0 0 -1 -1253.6509 -276)">
	<stop  offset="0" style="stop-color:#828282"/>
	<stop  offset="0.1424" style="stop-color:#666666"/>
	<stop  offset="0.269" style="stop-color:#636363"/>
	<stop  offset="0.3218" style="stop-color:#6F6F6F"/>
	<stop  offset="0.4182" style="stop-color:#8F8F90"/>
	<stop  offset="0.433" style="stop-color:#959596"/>
	<stop  offset="0.5684" style="stop-color:#C7C7C7"/>
	<stop  offset="0.6843" style="stop-color:#EDEDED"/>
	<stop  offset="0.9078" style="stop-color:#9F9F9F"/>
	<stop  offset="0.9977" style="stop-color:#C1BFBF"/>
</linearGradient>
<polygon class="st0" points="47.2,108.6 37,108.6 37,51.8 47.2,51.8 "/>
<linearGradient id="SVGID_00000026142474345574784860000014761228506012647593_" gradientUnits="userSpaceOnUse" x1="-47.4552" y1="1081.9528" x2="-37.2439" y2="1081.9528" gradientTransform="matrix(1 0 0 1 84.4308 -1001.7528)">
	<stop  offset="0" style="stop-color:#000000;stop-opacity:0"/>
	<stop  offset="0.4055" style="stop-color:#0E0E0E;stop-opacity:0.3952"/>
	<stop  offset="1" style="stop-color:#292929;stop-opacity:0.9744"/>
</linearGradient>
<rect x="37" y="51.8" style="opacity:0.38;fill:url(#SVGID_00000026142474345574784860000014761228506012647593_);enable-background:new    ;" width="10.2" height="56.8"/>
<linearGradient id="SVGID_00000134972343391296456600000006107989133421321659_" gradientUnits="userSpaceOnUse" x1="-1277.0009" y1="-386.7" x2="-1277.0009" y2="-326.1" gradientTransform="matrix(-1 0 0 -1 -1253.6509 -276)">
	<stop  offset="0" style="stop-color:#848383"/>
	<stop  offset="0.1424" style="stop-color:#707070"/>
	<stop  offset="0.2023" style="stop-color:#646464"/>
	<stop  offset="0.269" style="stop-color:#5B5B5B"/>
	<stop  offset="0.3079" style="stop-color:#676767"/>
	<stop  offset="0.3704" style="stop-color:#848484"/>
	<stop  offset="0.433" style="stop-color:#878787"/>
	<stop  offset="0.5974" style="stop-color:#D9D9D9"/>
	<stop  offset="0.6843" style="stop-color:#FFFFFF"/>
	<stop  offset="0.9078" style="stop-color:#B7B7B7"/>
	<stop  offset="1" style="stop-color:#C6C6C6"/>
</linearGradient>
<polygon style="fill:url(#SVGID_00000134972343391296456600000006107989133421321659_);" points="26.8,110.7 19.9,110.7 19.9,50.1 
	26.8,50.1 "/>
<linearGradient id="SVGID_00000048464394563877004490000002301594894293002911_" gradientUnits="userSpaceOnUse" x1="-65.5993" y1="1082.1528" x2="-57.6829" y2="1082.1528" gradientTransform="matrix(1 0 0 1 84.4308 -1001.7528)">
	<stop  offset="0" style="stop-color:#1A1A1A"/>
	<stop  offset="0" style="stop-color:#000000;stop-opacity:0"/>
	<stop  offset="0.3516" style="stop-color:#161616;stop-opacity:0.3426"/>
	<stop  offset="0.7021" style="stop-color:#242424;stop-opacity:0.6841"/>
	<stop  offset="1" style="stop-color:#292929;stop-opacity:0.9744"/>
</linearGradient>
<rect x="18.8" y="50.1" style="opacity:0.28;fill:url(#SVGID_00000048464394563877004490000002301594894293002911_);enable-background:new    ;" width="7.9" height="60.6"/>
<linearGradient id="SVGID_00000135651144515568946260000012743924356725169826_" gradientUnits="userSpaceOnUse" x1="68.6848" y1="-340.2577" x2="67.0432" y2="-385.2321" gradientTransform="matrix(1 0 0 -1 0 -276)">
	<stop  offset="6.980000e-02" style="stop-color:#6D6E71"/>
	<stop  offset="0.1536" style="stop-color:#939598"/>
	<stop  offset="0.2151" style="stop-color:#6D6E71"/>
	<stop  offset="0.3883" style="stop-color:#6D6E71"/>
	<stop  offset="0.4832" style="stop-color:#939598"/>
	<stop  offset="0.6844" style="stop-color:#BCBEC0"/>
	<stop  offset="0.7458" style="stop-color:#808285"/>
	<stop  offset="0.8073" style="stop-color:#B4B4B4"/>
	<stop  offset="0.9134" style="stop-color:#6D6E71"/>
	<stop  offset="1" style="stop-color:#939598"/>
</linearGradient>
<path style="fill:url(#SVGID_00000135651144515568946260000012743924356725169826_);" d="M69.7,102.6c-0.6-15.1-1.2-30-1.8-45.1
	c-0.1,0.5-0.3,1-0.5,1.6c-0.3,0.7-0.6,1.2-1,1.6v38.9h1.5C68.4,100.6,69.1,101.6,69.7,102.6z"/>
<linearGradient id="SVGID_00000137118018843656980820000017662371172885230233_" gradientUnits="userSpaceOnUse" x1="92.7697" y1="-378.8139" x2="94.412" y2="-333.825" gradientTransform="matrix(1 0 0 -1 0 -276)">
	<stop  offset="0" style="stop-color:#808285"/>
	<stop  offset="0.1313" style="stop-color:#4D4E50"/>
	<stop  offset="0.2039" style="stop-color:#424244"/>
	<stop  offset="0.338" style="stop-color:#808285"/>
	<stop  offset="0.4162" style="stop-color:#D1D3D4"/>
	<stop  offset="0.5168" style="stop-color:#A7A9AC"/>
	<stop  offset="0.662" style="stop-color:#F1F2F2"/>
	<stop  offset="0.8519" style="stop-color:#838587"/>
	<stop  offset="0.919" style="stop-color:#E6E7E8"/>
	<stop  offset="1" style="stop-color:#919396"/>
</linearGradient>
<path style="fill:url(#SVGID_00000137118018843656980820000017662371172885230233_);" d="M95.6,58.5c-0.5,0.8-1.2,1.6-1.7,2.5
	c0-0.1-0.1-0.1-0.1-0.1c-0.7-1-1.3-2.1-2-3.1c0.5,15.1,0.9,30,1.4,45.1c0.4-0.7,0.8-1.4,1.2-2.1c0.2-0.3,0.4-0.8,0.7-1.1v-0.1h0.4
	C95.5,85.8,95.5,72.2,95.6,58.5z"/>
<linearGradient id="SVGID_00000062162141879519650900000003917489055368046526_" gradientUnits="userSpaceOnUse" x1="99.0768" y1="1473.2456" x2="99.0768" y2="1429.3047" gradientTransform="matrix(0.9993 3.650000e-02 -3.740000e-02 1.0236 29.1621 -1409.1498)">
	<stop  offset="0" style="stop-color:#808285"/>
	<stop  offset="0.1313" style="stop-color:#4D4E50"/>
	<stop  offset="0.2039" style="stop-color:#424244"/>
	<stop  offset="0.338" style="stop-color:#808285"/>
	<stop  offset="0.4162" style="stop-color:#D1D3D4"/>
	<stop  offset="0.5168" style="stop-color:#A7A9AC"/>
	<stop  offset="0.662" style="stop-color:#F1F2F2"/>
	<stop  offset="0.8519" style="stop-color:#838587"/>
	<stop  offset="0.919" style="stop-color:#E6E7E8"/>
	<stop  offset="1" style="stop-color:#919396"/>
</linearGradient>
<polygon style="fill:url(#SVGID_00000062162141879519650900000003917489055368046526_);" points="72.3,57.5 74.2,60.7 75.6,99.3 
	73.6,102.5 "/>
<linearGradient id="SVGID_00000138566361897854415610000014761777012182154402_" gradientUnits="userSpaceOnUse" x1="94.8415" y1="1478.2161" x2="94.8415" y2="1433.8649" gradientTransform="matrix(0.9993 3.650000e-02 -3.710000e-02 1.0163 28.9358 -1403.1924)">
	<stop  offset="0" style="stop-color:#808285"/>
	<stop  offset="0.1313" style="stop-color:#4D4E50"/>
	<stop  offset="0.2039" style="stop-color:#424244"/>
	<stop  offset="0.338" style="stop-color:#808285"/>
	<stop  offset="0.4162" style="stop-color:#D1D3D4"/>
	<stop  offset="0.5168" style="stop-color:#A7A9AC"/>
	<stop  offset="0.662" style="stop-color:#F1F2F2"/>
	<stop  offset="0.8519" style="stop-color:#838587"/>
	<stop  offset="0.919" style="stop-color:#E6E7E8"/>
	<stop  offset="1" style="stop-color:#919396"/>
</linearGradient>
<path style="fill:url(#SVGID_00000138566361897854415610000014761777012182154402_);" d="M67.9,57.5c0.8,1.1,1.6,2.2,2.5,3.3
	l1.2,38.6l-1.9,3.3C69.1,87.6,68.4,72.5,67.9,57.5z"/>
<linearGradient id="SVGID_00000023257227704455292110000015653169093398825630_" gradientUnits="userSpaceOnUse" x1="-11682.6924" y1="642.8082" x2="-11682.6924" y2="683.9465" gradientTransform="matrix(-0.9993 -3.650000e-02 -3.990000e-02 1.0936 -11560.6758 -1065.0099)">
	<stop  offset="6.980000e-02" style="stop-color:#6D6E71"/>
	<stop  offset="0.1536" style="stop-color:#939598"/>
	<stop  offset="0.2151" style="stop-color:#6D6E71"/>
	<stop  offset="0.3883" style="stop-color:#6D6E71"/>
	<stop  offset="0.4832" style="stop-color:#939598"/>
	<stop  offset="0.6844" style="stop-color:#BCBEC0"/>
	<stop  offset="0.7458" style="stop-color:#808285"/>
	<stop  offset="0.8073" style="stop-color:#B4B4B4"/>
	<stop  offset="0.9134" style="stop-color:#6D6E71"/>
	<stop  offset="1" style="stop-color:#939598"/>
</linearGradient>
<path style="fill:url(#SVGID_00000023257227704455292110000015653169093398825630_);" d="M87.9,57.8l1.4,45.1l-2.1-3.4
	c-0.5-12.8-0.9-25.7-1.4-38.5C86.5,59.9,87.2,58.8,87.9,57.8z"/>
<linearGradient id="SVGID_00000052092175063722375740000015373720481623842456_" gradientUnits="userSpaceOnUse" x1="-11667.1963" y1="647.548" x2="-11667.1963" y2="689.0086" gradientTransform="matrix(-0.9993 -3.650000e-02 -3.960000e-02 1.0851 -11560.6934 -1064.4734)">
	<stop  offset="6.980000e-02" style="stop-color:#6D6E71"/>
	<stop  offset="0.1536" style="stop-color:#939598"/>
	<stop  offset="0.2151" style="stop-color:#6D6E71"/>
	<stop  offset="0.3883" style="stop-color:#6D6E71"/>
	<stop  offset="0.4832" style="stop-color:#939598"/>
	<stop  offset="0.6844" style="stop-color:#BCBEC0"/>
	<stop  offset="0.7458" style="stop-color:#808285"/>
	<stop  offset="0.8073" style="stop-color:#B4B4B4"/>
	<stop  offset="0.9134" style="stop-color:#6D6E71"/>
	<stop  offset="1" style="stop-color:#939598"/>
</linearGradient>
<path style="fill:url(#SVGID_00000052092175063722375740000015373720481623842456_);" d="M72.3,57.5l1.4,45.1l-2.1-3.3
	c-0.4-12.9-0.8-25.7-1.2-38.6C71,59.6,71.6,58.5,72.3,57.5z"/>
<linearGradient id="SVGID_00000169525288575614259860000001860273607663801251_" gradientUnits="userSpaceOnUse" x1="114.6811" y1="1467.907" x2="114.6811" y2="1424.297" gradientTransform="matrix(0.9993 3.650000e-02 -3.770000e-02 1.0317 29.4039 -1415.7451)">
	<stop  offset="0" style="stop-color:#808285"/>
	<stop  offset="0.1313" style="stop-color:#4D4E50"/>
	<stop  offset="0.2039" style="stop-color:#424244"/>
	<stop  offset="0.338" style="stop-color:#808285"/>
	<stop  offset="0.4162" style="stop-color:#D1D3D4"/>
	<stop  offset="0.5168" style="stop-color:#A7A9AC"/>
	<stop  offset="0.662" style="stop-color:#F1F2F2"/>
	<stop  offset="0.8519" style="stop-color:#838587"/>
	<stop  offset="0.919" style="stop-color:#E6E7E8"/>
	<stop  offset="1" style="stop-color:#919396"/>
</linearGradient>
<polygon style="fill:url(#SVGID_00000169525288575614259860000001860273607663801251_);" points="87.9,57.8 89.9,61.1 91.2,99.5 
	89.2,102.9 "/>
<linearGradient id="SVGID_00000132086746990748319860000008851881897970443148_" gradientUnits="userSpaceOnUse" x1="-11686.6973" y1="638.7229" x2="-11686.6973" y2="679.5736" gradientTransform="matrix(-0.9993 -3.650000e-02 -4.020000e-02 1.1013 -11560.6533 -1065.4896)">
	<stop  offset="6.980000e-02" style="stop-color:#6D6E71"/>
	<stop  offset="0.1536" style="stop-color:#939598"/>
	<stop  offset="0.2151" style="stop-color:#6D6E71"/>
	<stop  offset="0.3883" style="stop-color:#6D6E71"/>
	<stop  offset="0.4832" style="stop-color:#939598"/>
	<stop  offset="0.6844" style="stop-color:#BCBEC0"/>
	<stop  offset="0.7458" style="stop-color:#808285"/>
	<stop  offset="0.8073" style="stop-color:#B4B4B4"/>
	<stop  offset="0.9134" style="stop-color:#6D6E71"/>
	<stop  offset="1" style="stop-color:#939598"/>
</linearGradient>
<path style="fill:url(#SVGID_00000132086746990748319860000008851881897970443148_);" d="M91.8,57.8l1.4,45.1l-2.1-3.4
	c-0.4-12.8-0.8-25.7-1.2-38.5C90.5,60,91.2,58.9,91.8,57.8z"/>
<linearGradient id="SVGID_00000109021658872088825780000001484778101567432078_" gradientUnits="userSpaceOnUse" x1="-1544.6449" y1="1093.5861" x2="-1542.3823" y2="1093.5861" gradientTransform="matrix(-0.9997 2.467572e-02 2.487484e-02 1.0078 -1474.6957 -984.9326)">
	<stop  offset="0" style="stop-color:#1A1A1A"/>
	<stop  offset="0" style="stop-color:#000000;stop-opacity:0"/>
	<stop  offset="0.3516" style="stop-color:#161616;stop-opacity:0.3426"/>
	<stop  offset="0.7021" style="stop-color:#242424;stop-opacity:0.6841"/>
	<stop  offset="1" style="stop-color:#292929;stop-opacity:0.9744"/>
</linearGradient>
<path style="opacity:0.32;fill:url(#SVGID_00000109021658872088825780000001484778101567432078_);enable-background:new    ;" d="
	M94,61c0.5-0.8,1.2-1.6,1.7-2.5c0.5,13.7,1,27.4,1.5,41.1l-2.1,0.1L94,61z"/>
<g>
	
		<linearGradient id="SVGID_00000083801386617730422800000013716916343438526091_" gradientUnits="userSpaceOnUse" x1="102.9743" y1="1473.103" x2="102.9743" y2="1429.1646" gradientTransform="matrix(0.9993 3.650000e-02 -3.740000e-02 1.0236 29.1621 -1409.1498)">
		<stop  offset="0" style="stop-color:#808285"/>
		<stop  offset="0.1313" style="stop-color:#4D4E50"/>
		<stop  offset="0.2039" style="stop-color:#424244"/>
		<stop  offset="0.338" style="stop-color:#808285"/>
		<stop  offset="0.4162" style="stop-color:#D1D3D4"/>
		<stop  offset="0.5168" style="stop-color:#A7A9AC"/>
		<stop  offset="0.662" style="stop-color:#F1F2F2"/>
		<stop  offset="0.8519" style="stop-color:#838587"/>
		<stop  offset="0.919" style="stop-color:#E6E7E8"/>
		<stop  offset="1" style="stop-color:#919396"/>
	</linearGradient>
	<polygon style="fill:url(#SVGID_00000083801386617730422800000013716916343438526091_);" points="76.2,57.5 78.2,60.7 79.5,99.3 
		77.6,102.5 	"/>
	
		<linearGradient id="SVGID_00000059988526086095712710000007371163803726084780_" gradientUnits="userSpaceOnUse" x1="-11674.8867" y1="642.8292" x2="-11674.8867" y2="683.9675" gradientTransform="matrix(-0.9993 -3.650000e-02 -3.990000e-02 1.0936 -11560.6758 -1065.0099)">
		<stop  offset="6.980000e-02" style="stop-color:#6D6E71"/>
		<stop  offset="0.1536" style="stop-color:#939598"/>
		<stop  offset="0.2151" style="stop-color:#6D6E71"/>
		<stop  offset="0.3883" style="stop-color:#6D6E71"/>
		<stop  offset="0.4832" style="stop-color:#939598"/>
		<stop  offset="0.6844" style="stop-color:#BCBEC0"/>
		<stop  offset="0.7458" style="stop-color:#808285"/>
		<stop  offset="0.8073" style="stop-color:#B4B4B4"/>
		<stop  offset="0.9134" style="stop-color:#6D6E71"/>
		<stop  offset="1" style="stop-color:#939598"/>
	</linearGradient>
	<path style="fill:url(#SVGID_00000059988526086095712710000007371163803726084780_);" d="M80.1,57.5l1.4,45.1l-2.1-3.4
		c-0.5-12.8-0.9-25.7-1.4-38.5C78.8,59.6,79.5,58.6,80.1,57.5z"/>
	
		<linearGradient id="SVGID_00000075882051979292465390000015981673325715014550_" gradientUnits="userSpaceOnUse" x1="-11671.0938" y1="647.431" x2="-11671.0938" y2="688.8916" gradientTransform="matrix(-0.9993 -3.650000e-02 -3.960000e-02 1.0851 -11560.6934 -1064.4734)">
		<stop  offset="6.980000e-02" style="stop-color:#6D6E71"/>
		<stop  offset="0.1536" style="stop-color:#939598"/>
		<stop  offset="0.2151" style="stop-color:#6D6E71"/>
		<stop  offset="0.3883" style="stop-color:#6D6E71"/>
		<stop  offset="0.4832" style="stop-color:#939598"/>
		<stop  offset="0.6844" style="stop-color:#BCBEC0"/>
		<stop  offset="0.7458" style="stop-color:#808285"/>
		<stop  offset="0.8073" style="stop-color:#B4B4B4"/>
		<stop  offset="0.9134" style="stop-color:#6D6E71"/>
		<stop  offset="1" style="stop-color:#939598"/>
	</linearGradient>
	<path style="fill:url(#SVGID_00000075882051979292465390000015981673325715014550_);" d="M76.2,57.5l1.4,45.1l-2.1-3.3
		c-0.4-12.9-0.8-25.7-1.2-38.6C74.9,59.6,75.6,58.5,76.2,57.5z"/>
	
		<linearGradient id="SVGID_00000117665376326983491960000008461958416370370950_" gradientUnits="userSpaceOnUse" x1="106.8769" y1="1467.8854" x2="106.8769" y2="1424.2823" gradientTransform="matrix(0.9993 3.650000e-02 -3.770000e-02 1.0317 29.4039 -1415.7451)">
		<stop  offset="0" style="stop-color:#808285"/>
		<stop  offset="0.1313" style="stop-color:#4D4E50"/>
		<stop  offset="0.2039" style="stop-color:#424244"/>
		<stop  offset="0.338" style="stop-color:#808285"/>
		<stop  offset="0.4162" style="stop-color:#D1D3D4"/>
		<stop  offset="0.5168" style="stop-color:#A7A9AC"/>
		<stop  offset="0.662" style="stop-color:#F1F2F2"/>
		<stop  offset="0.8519" style="stop-color:#838587"/>
		<stop  offset="0.919" style="stop-color:#E6E7E8"/>
		<stop  offset="1" style="stop-color:#919396"/>
	</linearGradient>
	<polygon style="fill:url(#SVGID_00000117665376326983491960000008461958416370370950_);" points="80.1,57.5 82.2,60.8 83.4,99.3 
		81.6,102.6 	"/>
</g>
<linearGradient id="SVGID_00000147221751307568020020000003022177090342993793_" gradientUnits="userSpaceOnUse" x1="110.7785" y1="1473.2189" x2="110.7785" y2="1429.2638" gradientTransform="matrix(0.9993 3.650000e-02 -3.740000e-02 1.0236 29.1621 -1409.1498)">
	<stop  offset="0" style="stop-color:#808285"/>
	<stop  offset="0.1313" style="stop-color:#4D4E50"/>
	<stop  offset="0.2039" style="stop-color:#424244"/>
	<stop  offset="0.338" style="stop-color:#808285"/>
	<stop  offset="0.4162" style="stop-color:#D1D3D4"/>
	<stop  offset="0.5168" style="stop-color:#A7A9AC"/>
	<stop  offset="0.662" style="stop-color:#F1F2F2"/>
	<stop  offset="0.8519" style="stop-color:#838587"/>
	<stop  offset="0.919" style="stop-color:#E6E7E8"/>
	<stop  offset="1" style="stop-color:#919396"/>
</linearGradient>
<polygon style="fill:url(#SVGID_00000147221751307568020020000003022177090342993793_);" points="84,57.8 86,61 87.3,99.5 
	85.3,102.9 "/>
<linearGradient id="SVGID_00000031925202629848383760000005080100877987164568_" gradientUnits="userSpaceOnUse" x1="-11678.8994" y1="647.4394" x2="-11678.8994" y2="688.9" gradientTransform="matrix(-0.9993 -3.650000e-02 -3.960000e-02 1.0851 -11560.6934 -1064.4734)">
	<stop  offset="6.980000e-02" style="stop-color:#6D6E71"/>
	<stop  offset="0.1536" style="stop-color:#939598"/>
	<stop  offset="0.2151" style="stop-color:#6D6E71"/>
	<stop  offset="0.3883" style="stop-color:#6D6E71"/>
	<stop  offset="0.4832" style="stop-color:#939598"/>
	<stop  offset="0.6844" style="stop-color:#BCBEC0"/>
	<stop  offset="0.7458" style="stop-color:#808285"/>
	<stop  offset="0.8073" style="stop-color:#B4B4B4"/>
	<stop  offset="0.9134" style="stop-color:#6D6E71"/>
	<stop  offset="1" style="stop-color:#939598"/>
</linearGradient>
<path style="fill:url(#SVGID_00000031925202629848383760000005080100877987164568_);" d="M84,57.8l1.4,45.1l-2.1-3.3
	c-0.4-12.9-0.8-25.7-1.2-38.6C82.7,59.9,83.4,58.9,84,57.8z"/>
<linearGradient id="SVGID_00000096056387554441565570000004586835693880952486_" gradientUnits="userSpaceOnUse" x1="-100.9296" y1="-52.3493" x2="-94.6334" y2="-52.3493" gradientTransform="matrix(0.9997 -2.467573e-02 -3.839586e-02 -1.5555 159.887 -5.5933)">
	<stop  offset="0" style="stop-color:#1A1A1A"/>
	<stop  offset="0" style="stop-color:#000000;stop-opacity:0"/>
	<stop  offset="0.3516" style="stop-color:#161616;stop-opacity:0.3426"/>
	<stop  offset="0.7021" style="stop-color:#242424;stop-opacity:0.6841"/>
	<stop  offset="1" style="stop-color:#292929;stop-opacity:0.9744"/>
</linearGradient>
<polygon style="opacity:0.32;fill:url(#SVGID_00000096056387554441565570000004586835693880952486_);enable-background:new    ;" points="
	67.8,99.7 63,99.7 60.4,56.8 65.3,56.8 "/>
<linearGradient id="SVGID_00000101073612643323943350000017523712474642545312_" gradientUnits="userSpaceOnUse" x1="-109.5717" y1="-378.5414" x2="-109.5717" y2="-332.7414" gradientTransform="matrix(1 0 0 -1 175.0217 -276)">
	<stop  offset="0" style="stop-color:#828282"/>
	<stop  offset="0.1424" style="stop-color:#666666"/>
	<stop  offset="0.269" style="stop-color:#636363"/>
	<stop  offset="0.3218" style="stop-color:#6F6F6F"/>
	<stop  offset="0.4182" style="stop-color:#8F8F90"/>
	<stop  offset="0.433" style="stop-color:#959596"/>
	<stop  offset="0.5868" style="stop-color:#D9D9D9"/>
	<stop  offset="0.6843" style="stop-color:#FFFFFF"/>
	<stop  offset="0.9078" style="stop-color:#9F9F9F"/>
	<stop  offset="0.9977" style="stop-color:#C1BFBF"/>
</linearGradient>
<rect x="63" y="56.8" style="fill:url(#SVGID_00000101073612643323943350000017523712474642545312_);" width="4.9" height="45.8"/>
<linearGradient id="SVGID_00000099658753275087786480000001279186034853395124_" gradientUnits="userSpaceOnUse" x1="-1229.9116" y1="1081.4028" x2="-1226.0873" y2="1081.4028" gradientTransform="matrix(-1 0 0 1 -1163.0601 -1001.7528)">
	<stop  offset="0" style="stop-color:#000000;stop-opacity:0"/>
	<stop  offset="0.3516" style="stop-color:#161616;stop-opacity:0.3426"/>
	<stop  offset="0.7021" style="stop-color:#242424;stop-opacity:0.6841"/>
	<stop  offset="1" style="stop-color:#292929;stop-opacity:0.9744"/>
</linearGradient>
<polygon style="opacity:0.28;fill:url(#SVGID_00000099658753275087786480000001279186034853395124_);enable-background:new    ;" points="
	63,56.8 66.9,56.8 66.9,102.5 63,102.5 "/>
<linearGradient id="SVGID_00000111889548967633502970000007780262675752375428_" gradientUnits="userSpaceOnUse" x1="95.4" y1="-337.3" x2="95.4" y2="-337.3" gradientTransform="matrix(1 0 0 -1 0 -276)">
	<stop  offset="0" style="stop-color:#1A1A1A"/>
	<stop  offset="0" style="stop-color:#000000;stop-opacity:0"/>
	<stop  offset="0.3516" style="stop-color:#161616;stop-opacity:0.3426"/>
	<stop  offset="0.7021" style="stop-color:#242424;stop-opacity:0.6841"/>
	<stop  offset="1" style="stop-color:#292929;stop-opacity:0.9744"/>
</linearGradient>
<path style="fill:url(#SVGID_00000111889548967633502970000007780262675752375428_);" d="M95.4,61.3"/>
<linearGradient id="SVGID_00000152224600977606551790000000127440845895380098_" gradientUnits="userSpaceOnUse" x1="-77.9217" y1="-375.6" x2="-77.9217" y2="-334.4802" gradientTransform="matrix(1 0 0 -1 175.0217 -276)">
	<stop  offset="0" style="stop-color:#848383"/>
	<stop  offset="0.1424" style="stop-color:#707070"/>
	<stop  offset="0.2023" style="stop-color:#646464"/>
	<stop  offset="0.269" style="stop-color:#5B5B5B"/>
	<stop  offset="0.3079" style="stop-color:#676767"/>
	<stop  offset="0.3704" style="stop-color:#848484"/>
	<stop  offset="0.433" style="stop-color:#878787"/>
	<stop  offset="0.5974" style="stop-color:#D9D9D9"/>
	<stop  offset="0.6843" style="stop-color:#FFFFFF"/>
	<stop  offset="0.9078" style="stop-color:#B7B7B7"/>
	<stop  offset="1" style="stop-color:#C6C6C6"/>
</linearGradient>
<path style="fill:url(#SVGID_00000152224600977606551790000000127440845895380098_);" d="M95.1,99.6h4V60.9
	c-1.1-0.8-2.3-1.6-3.4-2.5C95.5,72.2,95.3,85.8,95.1,99.6z"/>
<linearGradient id="SVGID_00000069389525335166782880000007089136555642642316_" gradientUnits="userSpaceOnUse" x1="-1261.2904" y1="1080.7528" x2="-1258.1711" y2="1080.7528" gradientTransform="matrix(-1 0 0 1 -1163.0601 -1001.7528)">
	<stop  offset="0" style="stop-color:#1A1A1A"/>
	<stop  offset="0" style="stop-color:#000000;stop-opacity:0"/>
	<stop  offset="0.3516" style="stop-color:#161616;stop-opacity:0.3426"/>
	<stop  offset="0.7021" style="stop-color:#242424;stop-opacity:0.6841"/>
	<stop  offset="1" style="stop-color:#292929;stop-opacity:0.9744"/>
</linearGradient>
<path style="opacity:0.28;fill:url(#SVGID_00000069389525335166782880000007089136555642642316_);enable-background:new    ;" d="
	M95.6,58.5c0.8,0.5,1.6,1.2,2.5,1.7c0.1,13.1,0.1,26.2,0.2,39.3h-3.1C95.3,85.9,95.4,72.2,95.6,58.5z"/>
<linearGradient id="SVGID_00000016049213988878889470000009991803174325904016_" gradientUnits="userSpaceOnUse" x1="31.55" y1="-388.1201" x2="31.55" y2="-324.9201" gradientTransform="matrix(1 0 0 -1 0 -276)">
	<stop  offset="0" style="stop-color:#848383"/>
	<stop  offset="0.2187" style="stop-color:#4C4C4C"/>
	<stop  offset="0.264" style="stop-color:#585858"/>
	<stop  offset="0.3467" style="stop-color:#797979"/>
	<stop  offset="0.3704" style="stop-color:#848484"/>
	<stop  offset="0.433" style="stop-color:#878787"/>
	<stop  offset="0.5974" style="stop-color:#D9D9D9"/>
	<stop  offset="0.6843" style="stop-color:#FFFFFF"/>
	<stop  offset="0.9078" style="stop-color:#C6C6C6"/>
	<stop  offset="1" style="stop-color:#D6D6D6"/>
</linearGradient>
<rect x="26.1" y="49" style="fill:url(#SVGID_00000016049213988878889470000009991803174325904016_);" width="10.9" height="63.2"/>
<linearGradient id="SVGID_00000107584377922862307950000002082549156698611347_" gradientUnits="userSpaceOnUse" x1="-1793.1553" y1="-620.0652" x2="-1787.3733" y2="-620.0652" gradientTransform="matrix(-1 0 0 -1 -1750.3857 -539.8652)">
	<stop  offset="0" style="stop-color:#000000;stop-opacity:0"/>
	<stop  offset="0.2979" style="stop-color:#050505;stop-opacity:0.2903"/>
	<stop  offset="0.6484" style="stop-color:#131313;stop-opacity:0.6318"/>
	<stop  offset="1" style="stop-color:#292929;stop-opacity:0.9744"/>
</linearGradient>
<polygon style="opacity:0.28;fill:url(#SVGID_00000107584377922862307950000002082549156698611347_);enable-background:new    ;" points="
	37,108.7 42.8,108.7 42.8,51.7 37,51.7 "/>
<linearGradient id="SVGID_00000058565121494251784620000003866004033584689069_" gradientUnits="userSpaceOnUse" x1="-1421.4471" y1="-382.6" x2="-1421.4471" y2="-330" gradientTransform="matrix(-1 0 0 -1 -1366.4972 -276)">
	<stop  offset="2.234637e-02" style="stop-color:#1A1A1A"/>
	<stop  offset="0.9832" style="stop-color:#CCCCCC"/>
</linearGradient>
<polygon style="fill:url(#SVGID_00000058565121494251784620000003866004033584689069_);" points="46.2,106.6 63.7,106.6 63.7,54 
	46.2,54 "/>
<linearGradient id="SVGID_00000016754126510691535340000007301248585495934386_" gradientUnits="userSpaceOnUse" x1="-1421.475" y1="-389.6253" x2="-1421.475" y2="-373.2959" gradientTransform="matrix(-1 0 0 -1 -1366.4972 -276)">
	<stop  offset="0" style="stop-color:#727272"/>
	<stop  offset="1" style="stop-color:#4C4C4C"/>
</linearGradient>
<path style="fill:url(#SVGID_00000016754126510691535340000007301248585495934386_);" d="M46.8,97.3h16.4c0,0,1.3,7,0,16.4H46.8
	C46.8,113.6,45.4,105.2,46.8,97.3z"/>
<linearGradient id="SVGID_00000071543835267056074110000013748761845382383034_" gradientUnits="userSpaceOnUse" x1="-1421.4972" y1="-373.3035" x2="-1421.4972" y2="-339.4035" gradientTransform="matrix(-1 0 0 -1 -1366.4972 -276)">
	<stop  offset="0" style="stop-color:#A0A0A0"/>
	<stop  offset="1" style="stop-color:#777777"/>
</linearGradient>
<path style="fill:url(#SVGID_00000071543835267056074110000013748761845382383034_);" d="M46.8,63.5h16.4c0,0,1.3,14.5,0,33.9H46.8
	C46.8,97.3,45.5,79.9,46.8,63.5z"/>
<linearGradient id="SVGID_00000088110832053360482550000005877128327755957134_" gradientUnits="userSpaceOnUse" x1="-1421.475" y1="-339.4422" x2="-1421.475" y2="-322.5823" gradientTransform="matrix(-1 0 0 -1 -1366.4972 -276)">
	<stop  offset="0" style="stop-color:#F4F4F4"/>
	<stop  offset="1" style="stop-color:#BABABA"/>
</linearGradient>
<path style="fill:url(#SVGID_00000088110832053360482550000005877128327755957134_);" d="M46.8,46.6h16.4c0,0,1.3,7.2,0,16.8H46.8
	C46.8,63.5,45.4,54.8,46.8,46.6z"/>
<linearGradient id="SVGID_00000128460099918483879130000017581259188516534704_" gradientUnits="userSpaceOnUse" x1="-32.6126" y1="1082.3528" x2="-24.8967" y2="1082.3528" gradientTransform="matrix(1 0 0 1 61.8569 -1001.7528)">
	<stop  offset="6.418919e-02" style="stop-color:#000000;stop-opacity:0"/>
	<stop  offset="0.3932" style="stop-color:#161616;stop-opacity:0.3426"/>
	<stop  offset="0.7212" style="stop-color:#242424;stop-opacity:0.6841"/>
	<stop  offset="1" style="stop-color:#292929;stop-opacity:0.9744"/>
</linearGradient>
<rect x="29.2" y="49" style="opacity:0.18;fill:url(#SVGID_00000128460099918483879130000017581259188516534704_);enable-background:new    ;" width="7.7" height="63.2"/>
<linearGradient id="SVGID_00000052070788054269941680000008063868762155138992_" gradientUnits="userSpaceOnUse" x1="-1264.5509" y1="-387.4" x2="-1264.5509" y2="-324.8652" gradientTransform="matrix(-1 0 0 -1 -1253.6509 -276)">
	<stop  offset="0" style="stop-color:#848383"/>
	<stop  offset="0.1424" style="stop-color:#707070"/>
	<stop  offset="0.2023" style="stop-color:#646464"/>
	<stop  offset="0.269" style="stop-color:#5B5B5B"/>
	<stop  offset="0.3079" style="stop-color:#676767"/>
	<stop  offset="0.3704" style="stop-color:#848484"/>
	<stop  offset="0.433" style="stop-color:#878787"/>
	<stop  offset="0.5974" style="stop-color:#D9D9D9"/>
	<stop  offset="0.6843" style="stop-color:#FFFFFF"/>
	<stop  offset="0.9078" style="stop-color:#B7B7B7"/>
	<stop  offset="1" style="stop-color:#C6C6C6"/>
</linearGradient>
<polygon style="fill:url(#SVGID_00000052070788054269941680000008063868762155138992_);" points="20.1,111.4 1.7,111.4 1.7,48.8 
	20.1,48.8 "/>
<rect x="1.6" y="48.8" class="st33" width="18.5" height="62.5"/>
<linearGradient id="SVGID_00000104678411413361770410000002112133840926314163_" gradientUnits="userSpaceOnUse" x1="-78.9087" y1="1081.8029" x2="-64.2671" y2="1081.8029" gradientTransform="matrix(1 0 0 1 84.4308 -1001.7528)">
	<stop  offset="0" style="stop-color:#000000;stop-opacity:0"/>
	<stop  offset="0.3516" style="stop-color:#161616;stop-opacity:0.3426"/>
	<stop  offset="0.7021" style="stop-color:#242424;stop-opacity:0.6841"/>
	<stop  offset="1" style="stop-color:#292929;stop-opacity:0.9744"/>
</linearGradient>
<rect x="5.5" y="48.8" style="opacity:0.28;fill:url(#SVGID_00000104678411413361770410000002112133840926314163_);enable-background:new    ;" width="14.6" height="62.5"/>
<rect x="1.6" y="48.8" class="st35" width="18.5" height="62.5"/>
<g class="st36">
	<g>
		<g>
			<g>
				<defs>
					<rect id="SVGID_00000100379522614085929400000003928695922333078927_" x="1.6" y="48.8" width="18.5" height="62.5"/>
				</defs>
				<clipPath id="SVGID_00000049184886118151071460000014632875418847402911_">
					<use xlink:href="#SVGID_00000100379522614085929400000003928695922333078927_"  style="overflow:visible;"/>
				</clipPath>
				<g style="clip-path:url(#SVGID_00000049184886118151071460000014632875418847402911_);">
					<g>
						<line class="st38" x1="21.2" y1="45.1" x2="0.9" y2="65.1"/>
						<path class="st33" d="M0.9,66.8"/>
						<polyline class="st38" points="0.9,66.8 21.2,46.8 22.9,45.1 						"/>
						<line class="st38" x1="22.9" y1="46.8" x2="0.9" y2="68.4"/>
						<line class="st38" x1="0.9" y1="70.1" x2="22.9" y2="48.4"/>
						<line class="st38" x1="22.9" y1="50.1" x2="2.6" y2="70.1"/>
						<line class="st38" x1="4.3" y1="70.1" x2="22.9" y2="51.7"/>
						<line class="st38" x1="22.9" y1="53.4" x2="6" y2="70.1"/>
						<line class="st38" x1="7.6" y1="70.1" x2="22.9" y2="55.1"/>
						<line class="st38" x1="22.9" y1="56.8" x2="9.3" y2="70.1"/>
						<line class="st38" x1="11" y1="70.1" x2="22.9" y2="58.4"/>
						<line class="st38" x1="22.9" y1="60.1" x2="12.8" y2="70.1"/>
						<line class="st38" x1="14.5" y1="70.1" x2="22.9" y2="61.8"/>
						<line class="st38" x1="22.9" y1="63.4" x2="16.2" y2="70.1"/>
						<line class="st38" x1="17.8" y1="70.1" x2="22.9" y2="65"/>
						<line class="st38" x1="22.9" y1="66.8" x2="19.5" y2="70.1"/>
						<line class="st38" x1="21.2" y1="70.1" x2="22.9" y2="68.4"/>
						<line class="st38" x1="19.5" y1="45.1" x2="0.9" y2="63.4"/>
						<line class="st38" x1="0.9" y1="61.8" x2="17.8" y2="45.1"/>
						<line class="st38" x1="16.2" y1="45.1" x2="0.9" y2="60.1"/>
						<line class="st38" x1="0.9" y1="58.4" x2="14.4" y2="45.1"/>
						<line class="st38" x1="12.8" y1="45.1" x2="0.9" y2="56.8"/>
						<line class="st38" x1="0.9" y1="55.1" x2="11" y2="45.1"/>
						<line class="st38" x1="9.3" y1="45.1" x2="0.9" y2="53.4"/>
						<line class="st38" x1="0.9" y1="51.7" x2="7.6" y2="45.1"/>
						<line class="st38" x1="6" y1="45.1" x2="0.9" y2="50.1"/>
						<line class="st38" x1="0.9" y1="48.4" x2="4.3" y2="45.1"/>
						<line class="st38" x1="2.6" y1="45.1" x2="0.9" y2="46.8"/>
						<line class="st38" x1="2.6" y1="45.1" x2="22.8" y2="65.1"/>
						<path class="st33" d="M22.8,66.8"/>
						<polyline class="st38" points="22.8,66.8 2.6,46.8 0.8,45.1 						"/>
						<line class="st38" x1="0.8" y1="46.8" x2="22.8" y2="68.4"/>
						<line class="st38" x1="22.8" y1="70.1" x2="0.8" y2="48.4"/>
						<line class="st38" x1="0.8" y1="50.1" x2="21.1" y2="70.1"/>
						<line class="st38" x1="19.4" y1="70.1" x2="0.8" y2="51.7"/>
						<line class="st38" x1="0.8" y1="53.4" x2="17.7" y2="70.1"/>
						<line class="st38" x1="16.1" y1="70.1" x2="0.8" y2="55.1"/>
						<line class="st38" x1="0.8" y1="56.8" x2="14.4" y2="70.1"/>
						<line class="st38" x1="12.7" y1="70.1" x2="0.8" y2="58.4"/>
						<line class="st38" x1="0.8" y1="60.1" x2="11" y2="70.1"/>
						<line class="st38" x1="9.3" y1="70.1" x2="0.8" y2="61.8"/>
						<line class="st38" x1="0.8" y1="63.4" x2="7.5" y2="70.1"/>
						<line class="st38" x1="5.8" y1="70.1" x2="0.8" y2="65"/>
						<line class="st38" x1="0.8" y1="66.8" x2="4.1" y2="70.1"/>
						<line class="st38" x1="2.5" y1="70.1" x2="0.8" y2="68.4"/>
						<line class="st38" x1="4.2" y1="45.1" x2="22.8" y2="63.4"/>
						<line class="st38" x1="22.8" y1="61.8" x2="5.8" y2="45.1"/>
						<line class="st38" x1="7.5" y1="45.1" x2="22.8" y2="60.1"/>
						<line class="st38" x1="22.8" y1="58.4" x2="9.3" y2="45.1"/>
						<line class="st38" x1="11" y1="45.1" x2="22.8" y2="56.8"/>
						<line class="st38" x1="22.8" y1="55.1" x2="12.7" y2="45.1"/>
						<line class="st38" x1="14.4" y1="45.1" x2="22.8" y2="53.4"/>
						<line class="st38" x1="22.8" y1="51.7" x2="16" y2="45.1"/>
						<line class="st38" x1="17.7" y1="45.1" x2="22.8" y2="50.1"/>
						<line class="st38" x1="22.8" y1="48.4" x2="19.5" y2="45.1"/>
						<line class="st38" x1="21.1" y1="45.1" x2="22.8" y2="46.8"/>
					</g>
					<g>
						<line class="st38" x1="21.1" y1="70.1" x2="0.9" y2="90.2"/>
						<path class="st33" d="M0.9,91.8"/>
						<polyline class="st38" points="0.9,91.8 21.1,71.8 22.9,70.1 						"/>
						<line class="st38" x1="22.9" y1="71.8" x2="0.9" y2="93.4"/>
						<line class="st38" x1="0.9" y1="95.1" x2="22.9" y2="73.5"/>
						<line class="st38" x1="22.9" y1="75.1" x2="2.5" y2="95.1"/>
						<line class="st38" x1="4.3" y1="95.1" x2="22.9" y2="76.7"/>
						<line class="st38" x1="22.9" y1="78.4" x2="5.9" y2="95.1"/>
						<line class="st38" x1="7.6" y1="95.1" x2="22.9" y2="80.1"/>
						<line class="st38" x1="22.9" y1="81.8" x2="9.3" y2="95.1"/>
						<line class="st38" x1="11" y1="95.1" x2="22.9" y2="83.5"/>
						<line class="st38" x1="22.9" y1="85" x2="12.7" y2="95.1"/>
						<line class="st38" x1="14.4" y1="95.1" x2="22.9" y2="86.7"/>
						<line class="st38" x1="22.9" y1="88.4" x2="16.1" y2="95.1"/>
						<line class="st38" x1="17.7" y1="95.1" x2="22.9" y2="90.1"/>
						<line class="st38" x1="22.9" y1="91.8" x2="19.5" y2="95.1"/>
						<line class="st38" x1="21.2" y1="95.1" x2="22.9" y2="93.4"/>
						<line class="st38" x1="19.4" y1="70.1" x2="0.9" y2="88.4"/>
						<line class="st38" x1="0.9" y1="86.7" x2="17.8" y2="70.1"/>
						<line class="st38" x1="16.1" y1="70.1" x2="0.9" y2="85"/>
						<line class="st38" x1="0.9" y1="83.5" x2="14.4" y2="70.1"/>
						<line class="st38" x1="12.7" y1="70.1" x2="0.9" y2="81.8"/>
						<line class="st38" x1="0.9" y1="80.1" x2="11" y2="70.1"/>
						<line class="st38" x1="9.3" y1="70.1" x2="0.9" y2="78.4"/>
						<line class="st38" x1="0.9" y1="76.7" x2="7.6" y2="70.1"/>
						<line class="st38" x1="5.9" y1="70.1" x2="0.9" y2="75.1"/>
						<line class="st38" x1="0.9" y1="73.5" x2="4.2" y2="70.1"/>
						<line class="st38" x1="2.5" y1="70.1" x2="0.9" y2="71.8"/>
						<line class="st38" x1="2.5" y1="70.1" x2="22.7" y2="90.2"/>
						<path class="st33" d="M22.7,91.8"/>
						<polyline class="st38" points="22.7,91.8 2.5,71.8 0.7,70.1 						"/>
						<line class="st38" x1="0.7" y1="71.8" x2="22.7" y2="93.4"/>
						<line class="st38" x1="22.7" y1="95.1" x2="0.7" y2="73.5"/>
						<line class="st38" x1="0.7" y1="75.1" x2="21.1" y2="95.1"/>
						<line class="st38" x1="19.3" y1="95.1" x2="0.7" y2="76.7"/>
						<line class="st38" x1="0.7" y1="78.4" x2="17.7" y2="95.1"/>
						<line class="st38" x1="16" y1="95.1" x2="0.7" y2="80.1"/>
						<line class="st38" x1="0.7" y1="81.8" x2="14.3" y2="95.1"/>
						<line class="st38" x1="12.6" y1="95.1" x2="0.7" y2="83.5"/>
						<line class="st38" x1="0.7" y1="85" x2="10.9" y2="95.1"/>
						<line class="st38" x1="9.2" y1="95.1" x2="0.7" y2="86.7"/>
						<line class="st38" x1="0.7" y1="88.4" x2="7.5" y2="95.1"/>
						<line class="st38" x1="5.8" y1="95.1" x2="0.7" y2="90.1"/>
						<line class="st38" x1="0.7" y1="91.8" x2="4.1" y2="95.1"/>
						<line class="st38" x1="2.4" y1="95.1" x2="0.7" y2="93.4"/>
						<line class="st38" x1="4.2" y1="70.1" x2="22.7" y2="88.4"/>
						<line class="st38" x1="22.7" y1="86.7" x2="5.8" y2="70.1"/>
						<line class="st38" x1="7.5" y1="70.1" x2="22.7" y2="85"/>
						<line class="st38" x1="22.7" y1="83.5" x2="9.2" y2="70.1"/>
						<line class="st38" x1="10.9" y1="70.1" x2="22.7" y2="81.8"/>
						<line class="st38" x1="22.7" y1="80.1" x2="12.6" y2="70.1"/>
						<line class="st38" x1="14.3" y1="70.1" x2="22.7" y2="78.4"/>
						<line class="st38" x1="22.7" y1="76.7" x2="16" y2="70.1"/>
						<line class="st38" x1="17.7" y1="70.1" x2="22.7" y2="75.1"/>
						<line class="st38" x1="22.7" y1="73.5" x2="19.4" y2="70.1"/>
						<line class="st38" x1="21.1" y1="70.1" x2="22.7" y2="71.8"/>
					</g>
					<g>
						<line class="st38" x1="21.2" y1="95.1" x2="0.9" y2="115.1"/>
						<path class="st33" d="M0.9,116.8"/>
						<polyline class="st38" points="0.9,116.8 21.2,96.8 22.9,95.1 						"/>
						<line class="st38" x1="22.9" y1="96.8" x2="0.9" y2="118.4"/>
						<line class="st38" x1="0.9" y1="120.1" x2="22.9" y2="98.4"/>
						<line class="st38" x1="22.9" y1="100.1" x2="2.6" y2="120.1"/>
						<line class="st38" x1="4.3" y1="120.1" x2="22.9" y2="101.7"/>
						<line class="st38" x1="22.9" y1="103.4" x2="6.1" y2="120.1"/>
						<line class="st38" x1="7.6" y1="120.1" x2="22.9" y2="105.1"/>
						<line class="st38" x1="22.9" y1="106.8" x2="9.3" y2="120.1"/>
						<line class="st38" x1="11" y1="120.1" x2="22.9" y2="108.5"/>
						<line class="st38" x1="22.9" y1="110.1" x2="12.8" y2="120.1"/>
						<line class="st38" x1="14.5" y1="120.1" x2="22.9" y2="111.8"/>
						<line class="st38" x1="22.9" y1="113.5" x2="16.2" y2="120.1"/>
						<line class="st38" x1="17.9" y1="120.1" x2="22.9" y2="115.1"/>
						<line class="st38" x1="22.9" y1="116.8" x2="19.6" y2="120.1"/>
						<line class="st38" x1="21.2" y1="120.1" x2="22.9" y2="118.4"/>
						<line class="st38" x1="19.5" y1="95.1" x2="0.9" y2="113.5"/>
						<line class="st38" x1="0.9" y1="111.8" x2="17.9" y2="95.1"/>
						<line class="st38" x1="16.2" y1="95.1" x2="0.9" y2="110.1"/>
						<line class="st38" x1="0.9" y1="108.5" x2="14.5" y2="95.1"/>
						<line class="st38" x1="12.8" y1="95.1" x2="0.9" y2="106.8"/>
						<line class="st38" x1="0.9" y1="105.1" x2="11" y2="95.1"/>
						<line class="st38" x1="9.3" y1="95.1" x2="0.9" y2="103.4"/>
						<line class="st38" x1="0.9" y1="101.7" x2="7.7" y2="95.1"/>
						<line class="st38" x1="6.1" y1="95.1" x2="0.9" y2="100.1"/>
						<line class="st38" x1="0.9" y1="98.4" x2="4.3" y2="95.1"/>
						<line class="st38" x1="2.6" y1="95.1" x2="0.9" y2="96.8"/>
						<line class="st38" x1="2.6" y1="95.1" x2="22.9" y2="115.1"/>
						<path class="st33" d="M22.9,116.8"/>
						<polyline class="st38" points="22.9,116.8 2.6,96.8 0.9,95.1 						"/>
						<line class="st38" x1="0.9" y1="96.8" x2="22.9" y2="118.4"/>
						<line class="st38" x1="22.9" y1="120.1" x2="0.9" y2="98.4"/>
						<line class="st38" x1="0.9" y1="100.1" x2="21.2" y2="120.1"/>
						<line class="st38" x1="19.4" y1="120.1" x2="0.9" y2="101.7"/>
						<line class="st38" x1="0.9" y1="103.4" x2="17.7" y2="120.1"/>
						<line class="st38" x1="16.1" y1="120.1" x2="0.9" y2="105.1"/>
						<line class="st38" x1="0.9" y1="106.8" x2="14.5" y2="120.1"/>
						<line class="st38" x1="12.7" y1="120.1" x2="0.9" y2="108.5"/>
						<line class="st38" x1="0.9" y1="110.1" x2="11" y2="120.1"/>
						<line class="st38" x1="9.3" y1="120.1" x2="0.9" y2="111.8"/>
						<line class="st38" x1="0.9" y1="113.5" x2="7.6" y2="120.1"/>
						<line class="st38" x1="5.9" y1="120.1" x2="0.9" y2="115.1"/>
						<line class="st38" x1="0.9" y1="116.8" x2="4.2" y2="120.1"/>
						<line class="st38" x1="2.5" y1="120.1" x2="0.9" y2="118.4"/>
						<line class="st38" x1="4.3" y1="95.1" x2="22.9" y2="113.5"/>
						<line class="st38" x1="22.9" y1="111.8" x2="5.8" y2="95.1"/>
						<line class="st38" x1="7.6" y1="95.1" x2="22.9" y2="110.1"/>
						<line class="st38" x1="22.9" y1="108.5" x2="9.3" y2="95.1"/>
						<line class="st38" x1="11" y1="95.1" x2="22.9" y2="106.8"/>
						<line class="st38" x1="22.9" y1="105.1" x2="12.7" y2="95.1"/>
						<line class="st38" x1="14.5" y1="95.1" x2="22.9" y2="103.4"/>
						<line class="st38" x1="22.9" y1="101.7" x2="16.1" y2="95.1"/>
						<line class="st38" x1="17.7" y1="95.1" x2="22.9" y2="100.1"/>
						<line class="st38" x1="22.9" y1="98.4" x2="19.5" y2="95.1"/>
						<line class="st38" x1="21.2" y1="95.1" x2="22.9" y2="96.8"/>
					</g>
				</g>
			</g>
		</g>
	</g>
</g>
<image style="overflow:visible;" width="200" height="200" xlink:href="../../pepsi.png"  transform="matrix(5.831461e-02 0 0 5.831461e-02 49.1185 74.5185)">
</image>
</svg>
