<?xml version="1.0" encoding="utf-8"?>
<!-- Generator: Adobe Illustrator 25.4.1, SVG Export Plug-In . SVG Version: 6.00 Build 0)  -->
<svg version="1.1" id="Слой_1" xmlns="http://www.w3.org/2000/svg" xmlns:xlink="http://www.w3.org/1999/xlink" x="0px" y="0px"
	 viewBox="0 0 200 320" style="enable-background:new 0 0 200 320;" xml:space="preserve">
<style type="text/css">
	.st0{fill:url(#SVGID_1_);}
	.st1{fill:url(#SVGID_00000172442811970030979930000009288042951835604364_);}
	.st2{fill:url(#SVGID_00000135662976370521459570000005104407829070030524_);}
	.st3{fill:url(#SVGID_00000079471478462837849870000010530430735392090500_);}
	.st4{clip-path:url(#SVGID_00000034782917827148097960000017262830931675014566_);}
	.st5{clip-path:url(#SVGID_00000120525880474927683520000001000466484916291716_);}
	.st6{clip-path:url(#SVGID_00000144323568979293958270000015938206629158809244_);}
	.st7{fill:#6D6E71;}
	.st8{clip-path:url(#SVGID_00000145039698849199635210000003997448546993256363_);}
	.st9{fill:none;stroke:#414042;stroke-width:0.5;stroke-miterlimit:10;}
	.st10{fill:none;stroke:#B3B3B3;stroke-width:2;stroke-miterlimit:10;}
	.st11{fill:#D6D7D7;}
	.st12{fill:#515051;}
	.st13{fill:#D2D3D4;}
	.st14{fill:url(#SVGID_00000102527074587646616700000004164641755445163454_);}
	.st15{fill:url(#SVGID_00000035528338710602122040000018408022116253955490_);}
	.st16{fill:#AAAAAA;}
	.st17{fill:url(#SVGID_00000068650384748118538890000005480197848101819821_);}
	.st18{fill:url(#SVGID_00000124848483929124004310000001372577013321144754_);}
</style>
<linearGradient id="SVGID_1_" gradientUnits="userSpaceOnUse" x1="47.7055" y1="-181.6778" x2="47.7055" y2="-290.1061" gradientTransform="matrix(1 0 0 -1 0 3.1653)">
	<stop  offset="0" style="stop-color:#414042"/>
	<stop  offset="0.3352" style="stop-color:#4D4E50"/>
	<stop  offset="0.5447" style="stop-color:#808285"/>
	<stop  offset="0.8631" style="stop-color:#414042"/>
</linearGradient>
<rect x="18" y="184.8" class="st0" width="59.4" height="108.4"/>
<linearGradient id="SVGID_00000129179126323729232260000014036620352185020317_" gradientUnits="userSpaceOnUse" x1="44.3166" y1="-235.892" x2="76.6995" y2="-235.892" gradientTransform="matrix(1 0 0 -1 0 3.1653)">
	<stop  offset="0" style="stop-color:#58595B;stop-opacity:0"/>
	<stop  offset="1" style="stop-color:#414042"/>
</linearGradient>
<rect x="44.4" y="184.8" style="fill:url(#SVGID_00000129179126323729232260000014036620352185020317_);" width="32.3" height="108.4"/>
<linearGradient id="SVGID_00000119087502280810055040000003875752836959333559_" gradientUnits="userSpaceOnUse" x1="98.109" y1="-221.1693" x2="98.109" y2="-249.8901" gradientTransform="matrix(1 0 0 -1 0 3.1653)">
	<stop  offset="0" style="stop-color:#4D4E50"/>
	<stop  offset="0" style="stop-color:#414042"/>
	<stop  offset="0.6676" style="stop-color:#808285"/>
	<stop  offset="0.9078" style="stop-color:#414042"/>
</linearGradient>
<rect x="72.2" y="224.3" style="fill:url(#SVGID_00000119087502280810055040000003875752836959333559_);" width="51.8" height="28.8"/>
<linearGradient id="SVGID_00000146498457981572667430000015627041173337479595_" gradientUnits="userSpaceOnUse" x1="154.5749" y1="-216.3868" x2="154.5749" y2="-255.3427" gradientTransform="matrix(1 0 0 -1 0 3.1653)">
	<stop  offset="0" style="stop-color:#4D4E50"/>
	<stop  offset="0" style="stop-color:#414042"/>
	<stop  offset="0.6676" style="stop-color:#808285"/>
	<stop  offset="0.9078" style="stop-color:#414042"/>
</linearGradient>
<rect x="124.1" y="219.6" style="fill:url(#SVGID_00000146498457981572667430000015627041173337479595_);" width="60.9" height="38.9"/>
<g>
	<g>
		<g>
			<g>
				<defs>
					<path id="SVGID_00000142137852778956838030000015120782467569667208_" d="M71,198.1c0.8,0,4.8-6.5,5.1-6.4
						c0.2,0.1,0.1,17.9,0.1,17.9h6.9V181L78,168.4H22.6L18,181c0,4.7,0,9.6,0,14.3c0.7-1,1.4-3,2.2-3c0.8,0,2.4,4.5,3.1,4.5
						s2.2-4.7,3.7-4.5c1.5,0.2,1.5,5.4,2.5,5.5c1,0.1,2.1-5.5,3.6-5.5c1.5,0,2.8,5.7,3.5,5.5c0.6-0.1,2.7-5.5,3.5-5.5
						c0.8,0,2.1,5.4,3.1,5.5c1,0.1,2.4-5.4,3.1-5.5c0.7-0.1,3,5.7,3.6,5.5c0.6-0.1,2.5-5.4,3.3-5.5c0.7-0.1,2.2,5.4,3.1,5.5
						c0.9,0.1,2.9-5.4,3.9-5.4c1,0,2.9,5.8,3.7,5.7c0.9,0,2.3-6,3.5-6.1C68.8,192.1,70.2,198.1,71,198.1z"/>
				</defs>
				<clipPath id="SVGID_00000054977622493070407660000005508360067425744047_">
					<use xlink:href="#SVGID_00000142137852778956838030000015120782467569667208_"  style="overflow:visible;"/>
				</clipPath>
				<g style="clip-path:url(#SVGID_00000054977622493070407660000005508360067425744047_);">
					
						<image style="overflow:visible;enable-background:new    ;" width="1200" height="900" xlink:href="../../Фитинги/Резьбовые/Металл.jpg"  transform="matrix(0.1882 0 0 0.1882 -21.4131 148.0938)">
					</image>
				</g>
			</g>
		</g>
	</g>
</g>
<g>
	<g>
		<g>
			<g>
				<defs>
					<path id="SVGID_00000021801793469142353430000000673762028990340273_" d="M71,279.1c1.3,0,5.1,6.4,5.1,6.4l0.1-17.9h6.9v28.6
						L78,308.7H22.5l-4.6-12.6c0-4.7,0-9.6,0-14.3c1,1.3,2.3,4,3.1,3.9c0.8-0.1,1-5.2,2.2-5.4c1.2-0.2,2.7,4.6,3.7,4.5
						c1-0.1,1.2-5.3,2.5-5.5c1.4-0.2,2.4,5.7,3.6,5.5c1.2-0.1,2.3-5.5,3.5-5.5s2.2,5.5,3.5,5.5c1.2,0,2.1-5.5,3.1-5.5
						c1,0,1.7,5.4,3.1,5.5s2.5-5.5,3.6-5.5s1.8,5.5,3.3,5.5c1.4,0,2-5.5,3.1-5.5c1.2,0,2.3,5.4,3.9,5.4s3.1-5.2,4-5.4
						c0.9-0.2,2.4,5.9,3.2,5.8C68.5,285,69.8,279.1,71,279.1z"/>
				</defs>
				<clipPath id="SVGID_00000046306133711816922150000014481257113427594407_">
					<use xlink:href="#SVGID_00000021801793469142353430000000673762028990340273_"  style="overflow:visible;"/>
				</clipPath>
				<g style="clip-path:url(#SVGID_00000046306133711816922150000014481257113427594407_);">
					
						<image style="overflow:visible;enable-background:new    ;" width="1200" height="900" xlink:href="../../Фитинги/Резьбовые/Металл.jpg"  transform="matrix(0.1882 0 0 0.1882 -19.9391 152.4592)">
					</image>
				</g>
			</g>
		</g>
	</g>
</g>
<g>
	<g>
		<g>
			<g>
				<defs>
					<path id="SVGID_00000178901605997589716880000017796528641228540559_" d="M69.9,224.3c0-8.2,0-16.3,0-24.5c2.1,0,4.2,0,6.2,0
						c0,3.3,0,6.7,0,9.9c36.3,0,72.5,0,108.7,0c0,3.2,0,6.5,0,9.8h-60.6v4.7L69.9,224.3L69.9,224.3z"/>
				</defs>
				<clipPath id="SVGID_00000159467580754067292180000001975177237635454387_">
					<use xlink:href="#SVGID_00000178901605997589716880000017796528641228540559_"  style="overflow:visible;"/>
				</clipPath>
				<g style="clip-path:url(#SVGID_00000159467580754067292180000001975177237635454387_);">
					
						<image style="overflow:visible;enable-background:new    ;" width="1200" height="900" xlink:href="../../Фитинги/Резьбовые/Металл.jpg"  transform="matrix(0.1882 0 0 0.1882 4.907591e-02 154.3054)">
					</image>
				</g>
			</g>
		</g>
	</g>
</g>
<rect x="64.8" y="202.7" class="st7" width="5.2" height="18.5"/>
<g>
	<g>
		<g>
			<g>
				<defs>
					<path id="SVGID_00000083089507760419999220000015283602376302955431_" d="M69.9,253.1c0,8.2,0,16.3,0,24.5c2.1,0,4.2,0,6.2,0
						c0-3.3,0-6.7,0-9.9c36.3,0,72.5,0,108.7,0c0-3.2,0-6.5,0-9.8h-60.6v-4.7L69.9,253.1L69.9,253.1z"/>
				</defs>
				<clipPath id="SVGID_00000113347266177642991200000008088983879197407893_">
					<use xlink:href="#SVGID_00000083089507760419999220000015283602376302955431_"  style="overflow:visible;"/>
				</clipPath>
				<g style="clip-path:url(#SVGID_00000113347266177642991200000008088983879197407893_);">
					
						<image style="overflow:visible;enable-background:new    ;" width="1200" height="900" xlink:href="../../Фитинги/Резьбовые/Металл.jpg"  transform="matrix(0.1882 0 0 0.1882 -16.1064 156.5869)">
					</image>
				</g>
			</g>
		</g>
	</g>
</g>
<rect x="64.8" y="256.1" class="st7" width="5.2" height="18.5"/>
<polyline class="st9" points="76.2,199.7 76.2,209.8 83.2,209.8 "/>
<path class="st9" d="M76.2,277.6v-9.9c2.3,0,4.6,0,6.8,0"/>
<path class="st10" d="M185,219.6c0-3.2,0-6.5,0-9.8c-33.9,0-67.9,0-101.7,0v-28.5l-5.2-12.6H22.6L18,181.3c0,1.3,0,2.4,0,3.7v10.7
	v86.1c0,4.7,0,9.6,0,14.3l4.6,12.6H78l5.2-12.6v-28.5c33.9,0,67.9,0,101.8,0c0-3.2,0-6.5,0-9.8l0,0V219.6L185,219.6z"/>
<rect x="77.7" y="31.5" class="st11" width="5.3" height="33.1"/>
<rect x="77.7" y="95" class="st12" width="5.3" height="33.1"/>
<rect x="17.8" y="95" class="st12" width="5.3" height="33.1"/>
<rect x="17.8" y="31.5" class="st13" width="5.2" height="33.1"/>
<linearGradient id="SVGID_00000160189765011770804620000008991001095865368965_" gradientUnits="userSpaceOnUse" x1="50.4191" y1="-70.8096" x2="50.4191" y2="-107.0143" gradientTransform="matrix(1 0 0 -1 0 43.0551)">
	<stop  offset="6.983240e-02" style="stop-color:#58595B"/>
	<stop  offset="0.3715" style="stop-color:#808285"/>
	<stop  offset="0.4888" style="stop-color:#6D6E71"/>
	<stop  offset="0.6397" style="stop-color:#838587"/>
	<stop  offset="0.824" style="stop-color:#BCBEC0"/>
	<stop  offset="1" style="stop-color:#BAB9B9"/>
</linearGradient>
<path style="fill:url(#SVGID_00000160189765011770804620000008991001095865368965_);" d="M22,113.9l-4.2,10c0,4.5,0.1,9.1,0.1,13.6
	c1.5,4.2,3.1,8.4,4.6,12.6c18.5,0,37,0,55.3,0c1.7-4.2,3.5-8.4,5.2-12.6c0-4.5,0-9.1,0-13.6c-1.3-3.3-2.4-6.7-3.6-10
	C60.3,113.9,41.1,113.9,22,113.9z"/>
<linearGradient id="SVGID_00000106859918643145709580000007762754319080941199_" gradientUnits="userSpaceOnUse" x1="50.4768" y1="1681.2896" x2="50.4768" y2="1644.7317" gradientTransform="matrix(1 0 0 1 0 -1634.6296)">
	<stop  offset="0" style="stop-color:#F4F4F4"/>
	<stop  offset="1" style="stop-color:#BABABA"/>
</linearGradient>
<path style="fill:url(#SVGID_00000106859918643145709580000007762754319080941199_);" d="M22,46.7l-4.2-10c0-4.6,0-9.1,0-13.7
	c1.6-4.3,3.2-8.5,4.8-12.8c18.5,0,37,0,55.3,0c1.7,4.2,3.5,8.4,5.2,12.6c0,4.6-0.1,9.4-0.1,14c-1.3,3.3-2.4,6.7-3.6,10
	C60.3,46.7,41.1,46.7,22,46.7z"/>
<path class="st16" d="M79.5,113.9l3.6-18c0-10.4,0-20.8,0-31.3c-1.3-6-2.4-12-3.6-18H22c-1.4,6-2.8,12-4.2,18c0,10.4,0,20.8,0,31.3
	l4.2,18H79.5z"/>
<linearGradient id="SVGID_00000169558976161291805570000017203701520731392701_" gradientUnits="userSpaceOnUse" x1="133.9631" y1="-65.4979" x2="133.9631" y2="-8.1083" gradientTransform="matrix(1 0 0 -1 0 43.0551)">
	<stop  offset="0" style="stop-color:#999898"/>
	<stop  offset="0.1963" style="stop-color:#4F4F4F"/>
	<stop  offset="0.2507" style="stop-color:#5B5B5B"/>
	<stop  offset="0.3499" style="stop-color:#7C7C7C"/>
	<stop  offset="0.3704" style="stop-color:#848484"/>
	<stop  offset="0.433" style="stop-color:#878787"/>
	<stop  offset="0.5974" style="stop-color:#D9D9D9"/>
	<stop  offset="0.6843" style="stop-color:#FFFFFF"/>
	<stop  offset="0.9078" style="stop-color:#B7B7B7"/>
	<stop  offset="1" style="stop-color:#C6C6C6"/>
</linearGradient>
<rect x="83" y="51.2" style="fill:url(#SVGID_00000169558976161291805570000017203701520731392701_);" width="101.8" height="57.4"/>
<linearGradient id="SVGID_00000063624556738041551750000010415238940907978141_" gradientUnits="userSpaceOnUse" x1="17.7982" y1="189.9484" x2="83.0399" y2="189.9484" gradientTransform="matrix(1 0 0 -1 0 322)">
	<stop  offset="0" style="stop-color:#5A5758"/>
	<stop  offset="1" style="stop-color:#838587"/>
</linearGradient>
<path style="fill:url(#SVGID_00000063624556738041551750000010415238940907978141_);" d="M22,114l-4.2,10c0,4.5,0.1,9,0.1,13.5
	c1.5,4.2,3.1,8.4,4.6,12.6c18.5,0,37,0,55.3,0c1.7-4.2,3.5-8.4,5.2-12.6c0-4.5,0-9,0-13.5c-1.3-3.3-2.4-6.7-3.6-10
	C60.3,114,41.1,114,22,114z"/>
<image style="overflow:visible;" width="200" height="200" xlink:href="../../pepsi.png"  transform="matrix(0.168 0 0 0.168 33.7911 63.057)">
</image>
</svg>
