<svg width="37" height="35" viewBox="0 0 37 35" fill="none" xmlns="http://www.w3.org/2000/svg">
<path d="M31.7895 17.8672C31.7313 17.8672 31.6828 17.9239 31.6246 17.9522C31.5664 17.9805 31.731 18.0656 31.7795 18.0656C32.1191 18.0656 32.459 18.0656 32.7986 18.0656V18.1129H33.2838C33.3323 18.1129 33.371 18.0467 33.4098 18.0184C33.4486 17.99 33.3321 17.9333 33.2933 17.9333L31.7895 17.8672Z" fill="white" fill-opacity="0.47"/>
<path d="M30.5181 12.2831L31.8476 11.6973C31.9148 11.6747 31.9794 11.6463 32.0413 11.6123C32.0716 11.5723 32.0949 11.5275 32.1096 11.48C32.0514 11.48 31.993 11.4327 31.9542 11.48C31.9154 11.5272 31.5951 11.6312 31.4107 11.7068L30.4404 12.1414L30.5181 12.2831Z" fill="white" fill-opacity="0.47"/>
<path d="M30.9065 22.0996C30.858 22.0996 30.7996 22.0996 30.7511 22.0996C30.7026 22.0996 30.7514 22.2413 30.8387 22.2602C31.0011 22.337 31.1699 22.4003 31.3433 22.4492C31.4015 22.4492 31.4692 22.4492 31.5371 22.3925V22.3169L30.9065 22.0996Z" fill="white" fill-opacity="0.47"/>
<path d="M32.4007 22.7432C32.4007 22.7432 32.4007 22.6581 32.3424 22.6487C32.1719 22.5727 31.9969 22.5065 31.8184 22.4502C31.8002 22.4418 31.7803 22.4375 31.7602 22.4375C31.74 22.4375 31.7201 22.4418 31.7019 22.4502C31.6886 22.4869 31.6886 22.5269 31.7019 22.5636L32.2453 22.7904C32.2997 22.7847 32.3527 22.7687 32.4007 22.7432Z" fill="white" fill-opacity="0.47"/>
<path d="M9.20996 6.05469C9.45913 6.57617 9.83545 7.03031 10.3063 7.37755C10.0592 6.85482 9.68249 6.40023 9.20996 6.05469Z" fill="white" fill-opacity="0.47"/>
<path d="M4.7559 22.742C5.17313 22.5908 5.60035 22.4302 6.01759 22.2601C6.08506 22.2245 6.14705 22.18 6.20189 22.1278V22.0617C6.1343 22.0524 6.06575 22.0524 5.99816 22.0617C5.57122 22.2129 5.14398 22.3829 4.71705 22.553C4.65883 22.553 4.63006 22.6475 4.58154 22.7042C4.63716 22.7263 4.69591 22.739 4.7559 22.742Z" fill="white" fill-opacity="0.47"/>
<path d="M32.4875 13.0474C32.0509 13.1702 31.6239 13.3025 31.1969 13.4443C31.1387 13.4443 31.1002 13.5387 31.042 13.5954C31.1124 13.6094 31.1848 13.6094 31.2552 13.5954L32.5169 13.208C32.59 13.1739 32.661 13.1361 32.7301 13.0947V13.0191C32.6481 13.0098 32.5649 13.0194 32.4875 13.0474Z" fill="white" fill-opacity="0.47"/>
<path d="M33.0896 16.1953L31.799 16.2992C31.731 16.2992 31.6632 16.3749 31.5952 16.4032C31.5273 16.4316 31.7505 16.5071 31.8184 16.4977C32.2647 16.4977 32.7012 16.4316 33.1379 16.3938C33.2123 16.3785 33.2844 16.353 33.3516 16.3182V16.2331C33.2642 16.2236 33.1769 16.1953 33.0896 16.1953Z" fill="white" fill-opacity="0.47"/>
<path d="M15.624 4.93065C15.6457 4.35283 15.512 3.77951 15.236 3.26758C15.2178 3.84508 15.3513 4.41753 15.624 4.93065Z" fill="white" fill-opacity="0.47"/>
<path d="M17.6898 30.3125C17.6246 30.4367 17.5908 30.5744 17.5908 30.7141C17.5908 30.8538 17.6246 30.9914 17.6898 31.1157C17.7691 30.9961 17.8114 30.8566 17.8114 30.7141C17.8114 30.5715 17.7691 30.432 17.6898 30.3125Z" fill="white" fill-opacity="0.47"/>
<path d="M31.6532 24.1705C31.3815 24.0099 31.1097 23.8587 30.8478 23.6791C30.5858 23.4996 30.6248 23.6791 30.5957 23.8114L31.566 24.2461L31.6532 24.1705Z" fill="white" fill-opacity="0.47"/>
<path d="M10.501 5.15777L11.0345 5.98931C11.1994 5.92316 11.1607 5.83811 11.1122 5.74362C10.7726 5.17666 10.7144 5.09163 10.501 5.15777Z" fill="white" fill-opacity="0.47"/>
<path d="M5.99824 23.707C5.74596 23.8204 5.51309 23.9527 5.27051 24.0755C5.27051 24.0755 5.27051 24.1605 5.27051 24.2078C5.27051 24.255 5.36743 24.255 5.39653 24.2078C5.66822 24.085 5.93004 23.9432 6.19202 23.8109V23.7353C6.11439 23.7448 6.03705 23.6881 5.99824 23.707Z" fill="white" fill-opacity="0.47"/>
<path d="M19.5726 3.76794C19.5862 3.82943 19.6056 3.88955 19.6306 3.94748C19.6306 3.89078 19.7463 3.84354 19.756 3.7774C19.7933 3.55543 19.8161 3.33136 19.8238 3.10654C19.8238 3.05929 19.7562 3.00256 19.7272 2.95532C19.6983 2.90807 19.6308 3.04038 19.6212 3.09708C19.6115 3.15378 19.6209 3.49395 19.5726 3.69239C19.5726 3.69239 19.563 3.74904 19.5726 3.76794Z" fill="white" fill-opacity="0.47"/>
<path d="M27.8204 7.35943C28.0338 7.1421 28.2377 6.91529 28.4415 6.67905C28.4415 6.67905 28.4415 6.60349 28.4415 6.59404C28.4415 6.58459 28.3638 6.59404 28.3444 6.59404L27.6943 7.28382C27.7331 7.33107 27.8107 7.37833 27.8204 7.35943Z" fill="white" fill-opacity="0.47"/>
<path d="M36.3013 17.8473C36.377 17.7194 36.4169 17.5744 36.4169 17.4268C36.4169 17.2792 36.377 17.1341 36.3013 17.0063C36.2418 16.8988 36.2108 16.7787 36.2108 16.6567C36.2108 16.5346 36.2418 16.4145 36.3013 16.307C36.3681 16.1528 36.3916 15.984 36.3695 15.818C36.3473 15.6519 36.2803 15.4946 36.1752 15.3621C36.1163 15.3074 36.0755 15.2367 36.0582 15.1593C36.0409 15.0818 36.0478 15.001 36.0781 14.9274C36.1031 14.8469 36.1226 14.7649 36.1364 14.6818C36.1802 14.535 36.1823 14.3794 36.143 14.2314C36.1037 14.0834 36.0246 13.9485 35.9132 13.8408C35.8551 13.7815 35.8138 13.7085 35.7934 13.629C35.7729 13.5495 35.774 13.4662 35.7967 13.3873C35.8441 13.2248 35.8496 13.0535 35.8123 12.8886C35.7751 12.7236 35.6961 12.5703 35.583 12.4423C35.5043 12.377 35.4413 12.2959 35.3977 12.2046C35.3542 12.1133 35.3314 12.0139 35.3309 11.9132C35.3777 11.7457 35.3758 11.5689 35.3262 11.4022C35.2766 11.2355 35.181 11.0854 35.0495 10.9683C34.9497 10.8886 34.8705 10.7872 34.8183 10.6723C34.7661 10.5575 34.7422 10.4323 34.7487 10.3068C34.7649 10.1529 34.7361 9.99758 34.6657 9.85884C34.5954 9.7201 34.4861 9.6035 34.3507 9.52249C34.2563 9.47282 34.178 9.39909 34.1233 9.30921C34.0686 9.21934 34.0398 9.11672 34.0404 9.01225C34.0451 8.84937 34.0063 8.68804 33.9281 8.544C33.8499 8.39995 33.7349 8.2781 33.594 8.19017C33.4916 8.14227 33.4025 8.07071 33.3349 7.9818C33.2673 7.89288 33.2232 7.78925 33.206 7.67988C33.1955 7.52353 33.1425 7.37276 33.052 7.24317C32.9616 7.11358 32.8369 7.00992 32.6915 6.94286C32.5637 6.90139 32.4504 6.82659 32.3632 6.72665C32.2759 6.6267 32.2183 6.50538 32.1969 6.37587C32.1714 6.29015 32.1357 6.20766 32.0903 6.13019C32.0379 6.01892 31.9595 5.92099 31.8619 5.84395C31.7643 5.76691 31.65 5.71287 31.5274 5.6861C31.4519 5.67589 31.3812 5.64314 31.3256 5.59238C31.27 5.54161 31.2319 5.47534 31.2166 5.40263C31.1879 5.31055 31.1492 5.2218 31.1005 5.13803C31.0358 4.99928 30.9372 4.87787 30.8139 4.78408C30.6905 4.6903 30.5461 4.62691 30.3922 4.59941C30.3208 4.5958 30.2516 4.57259 30.1932 4.53245C30.1348 4.49232 30.0894 4.43692 30.062 4.37264C30.062 4.27815 29.965 4.19313 29.9165 4.09863C29.8516 3.97269 29.7556 3.86444 29.637 3.78362C29.5184 3.7028 29.3809 3.65196 29.2371 3.63563C29.125 3.63076 29.0165 3.59539 28.9239 3.5336C28.8314 3.47182 28.7587 3.38609 28.7136 3.28601C28.6491 3.16835 28.5598 3.06529 28.4516 2.98363C28.2979 2.8704 28.1179 2.79573 27.9276 2.76626C27.8212 2.77349 27.7149 2.75169 27.6206 2.70328C27.5263 2.65486 27.4476 2.58178 27.3936 2.49225C27.3536 2.42629 27.3048 2.3659 27.2482 2.31271C27.1604 2.2064 27.0474 2.12244 26.9189 2.06812C26.7904 2.01379 26.6506 1.99071 26.511 2.00087C26.4123 2.01053 26.3127 1.99467 26.2224 1.95485C26.1321 1.91502 26.054 1.85266 25.9964 1.7741C25.8685 1.61144 25.6957 1.48774 25.498 1.41744C25.3004 1.34715 25.0862 1.33319 24.8807 1.37725C24.7992 1.37975 24.7198 1.3528 24.6575 1.30164C24.5411 1.22604 24.4442 1.11268 24.3278 1.03709C24.2323 0.955059 24.1189 0.89538 23.9961 0.862624C23.8733 0.829868 23.7445 0.824891 23.6194 0.84809C23.5038 0.8803 23.3817 0.883307 23.2646 0.856857C23.1475 0.830407 23.0388 0.775338 22.9495 0.69687C22.821 0.58189 22.6631 0.50277 22.4923 0.467848C22.3216 0.432927 22.1443 0.443533 21.9792 0.498473C21.9005 0.534715 21.8129 0.547771 21.7267 0.536019C21.6405 0.524266 21.5595 0.488213 21.494 0.432321C21.3692 0.311645 21.2114 0.228703 21.0392 0.193495C20.8671 0.158287 20.6879 0.172296 20.5237 0.233866C20.4063 0.287564 20.2769 0.310593 20.1476 0.300653C20.0183 0.290712 19.8938 0.248145 19.7865 0.177173C19.6615 0.0962821 19.517 0.0485256 19.3672 0.0385836C19.2175 0.0286417 19.0679 0.0568599 18.9328 0.12048C18.8215 0.180888 18.6963 0.212585 18.5689 0.212585C18.4415 0.212585 18.3163 0.180888 18.205 0.12048C18.0667 0.041585 17.9091 0 17.7488 0C17.5885 0 17.4313 0.041585 17.293 0.12048C17.2063 0.182897 17.105 0.223347 16.9983 0.238192C16.8916 0.253037 16.7825 0.241837 16.6813 0.205549C16.5074 0.129582 16.3146 0.105169 16.1265 0.135418C15.9384 0.165667 15.7635 0.249231 15.6239 0.375628C15.5731 0.422588 15.5102 0.455298 15.4419 0.470271C15.3736 0.485243 15.3024 0.481886 15.2358 0.460639C15.0354 0.389697 14.8184 0.374244 14.6095 0.415942C14.4005 0.45764 14.2075 0.55486 14.0518 0.69687C14.0026 0.749552 13.9396 0.788061 13.8694 0.808065C13.7992 0.828069 13.7249 0.828846 13.6543 0.810314C13.4488 0.764947 13.2343 0.773358 13.0332 0.834768C12.8321 0.896178 12.6513 1.00839 12.5092 1.15993C12.4023 1.24311 12.2755 1.29838 12.1406 1.32055C12.0276 1.33022 11.9139 1.33022 11.8009 1.32055C11.6635 1.31591 11.5271 1.34557 11.4048 1.40677C11.2825 1.46797 11.1782 1.55866 11.102 1.67017C11.0491 1.75945 10.9701 1.83138 10.8751 1.87681C10.7801 1.92224 10.6735 1.93913 10.5686 1.92532C10.3839 1.91782 10.2006 1.96186 10.0408 2.05226C9.8809 2.14265 9.75088 2.27563 9.666 2.43556C9.63307 2.4989 9.58341 2.55247 9.52197 2.5907C9.46053 2.62892 9.38969 2.65039 9.31682 2.65287C9.08552 2.65469 8.85994 2.72414 8.66963 2.85219C8.47933 2.98024 8.33296 3.16098 8.24939 3.37102C8.2258 3.40601 8.19448 3.43532 8.15747 3.45661C8.12047 3.4779 8.07904 3.49063 8.03618 3.49387C7.81881 3.51289 7.6113 3.59252 7.43921 3.72324C7.26712 3.85395 7.13775 4.03025 7.06587 4.23094C7.0424 4.30121 7.00026 4.36428 6.94411 4.41399C6.88796 4.4637 6.81966 4.49832 6.74559 4.5144C6.5326 4.55408 6.33458 4.64994 6.17373 4.79158C6.01289 4.93322 5.89546 5.11517 5.83356 5.31756C5.8179 5.40731 5.77679 5.4911 5.71511 5.55951C5.65343 5.62791 5.57327 5.67829 5.4839 5.70502L5.32898 5.78057C5.14594 5.86054 4.98698 5.98525 4.86798 6.14253C4.74898 6.2998 4.67378 6.48432 4.64957 6.67826C4.62156 6.76955 4.55901 6.84716 4.47474 6.89557C4.11573 7.10346 3.75694 7.33024 3.73753 7.7838C3.73638 7.88667 3.70685 7.98739 3.65225 8.07546C3.59765 8.16352 3.52014 8.23574 3.4272 8.28464C3.31429 8.34677 3.21502 8.43032 3.13582 8.53033C3.01275 8.68427 2.93278 8.86653 2.9032 9.05949C2.91134 9.17572 2.88779 9.292 2.83497 9.39653C2.78215 9.50107 2.70187 9.59015 2.60234 9.65479C2.44651 9.75622 2.32389 9.89941 2.24985 10.0671C2.1758 10.2348 2.15333 10.4198 2.18494 10.5997C2.20728 10.681 2.20549 10.7667 2.17973 10.847C2.15396 10.9273 2.10537 10.9988 2.03949 11.0533C1.98362 11.0964 1.93468 11.1474 1.89403 11.2045C1.76594 11.3237 1.67348 11.4747 1.62729 11.6413C1.58111 11.8079 1.58295 11.9836 1.63203 12.1494C1.63636 12.28 1.59921 12.4087 1.52543 12.5179C1.45751 12.6313 1.35077 12.7258 1.28285 12.8392C1.20984 12.9592 1.16503 13.0934 1.15161 13.2323C1.13819 13.3712 1.15641 13.5112 1.20515 13.6423C1.23589 13.7014 1.24744 13.7682 1.23879 13.8339C1.23014 13.8996 1.20141 13.9613 1.15635 14.0109C1.06738 14.118 0.992432 14.2354 0.933198 14.3605C0.871095 14.4773 0.838914 14.607 0.838914 14.7385C0.838914 14.87 0.871095 14.9996 0.933198 15.1164C0.977094 15.199 0.995197 15.2924 0.98484 15.3848C0.974484 15.4773 0.936072 15.5647 0.874922 15.6361C0.759229 15.781 0.689545 15.9556 0.674037 16.1385C0.658529 16.3214 0.69802 16.5047 0.787746 16.6661C0.837901 16.7422 0.864499 16.8308 0.864499 16.9213C0.864499 17.0117 0.837901 17.1002 0.787746 17.1764C0.666313 17.3382 0.601074 17.5335 0.601074 17.7339C0.601074 17.9343 0.666313 18.1296 0.787746 18.2914C0.820295 18.3372 0.837967 18.3916 0.837967 18.4473C0.837967 18.503 0.820295 18.5574 0.787746 18.6032C0.689643 18.7868 0.645193 18.9931 0.658876 19.1996C0.672559 19.4061 0.743931 19.6051 0.865446 19.7749C0.920586 19.832 0.958018 19.9031 0.973469 19.98C0.98892 20.0569 0.981609 20.1365 0.952623 20.2096C0.924326 20.2729 0.904693 20.3397 0.894347 20.408C0.854766 20.5596 0.854449 20.7183 0.8934 20.8701C0.93235 21.0218 1.00933 21.1618 1.1175 21.2774C1.18149 21.3391 1.22774 21.416 1.25158 21.5006C1.27542 21.5852 1.27615 21.6744 1.25348 21.7593C1.20405 21.9362 1.20296 22.1227 1.25063 22.3001C1.29831 22.4775 1.39333 22.6397 1.52543 22.7703C1.60559 22.83 1.66711 22.9102 1.7031 23.002C1.73909 23.0938 1.74809 23.1935 1.72916 23.29C1.69137 23.4645 1.70495 23.6458 1.76848 23.813C1.83201 23.9802 1.94253 24.1265 2.08781 24.235C2.16065 24.2735 2.22103 24.3311 2.26216 24.4012C2.3033 24.4713 2.32377 24.5511 2.32091 24.6318C2.31608 24.7073 2.31608 24.7831 2.32091 24.8586C2.31781 25.0052 2.35374 25.1502 2.42515 25.2793C2.49656 25.4085 2.60094 25.5175 2.72837 25.5957C2.82026 25.6473 2.89633 25.7217 2.94915 25.8114C3.00198 25.901 3.02975 26.0026 3.02922 26.1059C3.02875 26.2759 3.07545 26.4429 3.16425 26.5892C3.25305 26.7355 3.38067 26.8558 3.5338 26.9374C3.63527 26.9831 3.72219 27.0547 3.78538 27.1445C3.84857 27.2343 3.88579 27.339 3.89293 27.4477C3.91257 27.6151 3.97743 27.7743 4.0815 27.9089C4.18557 28.0435 4.32493 28.1485 4.48469 28.2131C4.57954 28.2455 4.66385 28.302 4.72869 28.3767C4.79353 28.4515 4.83642 28.5418 4.8533 28.6383C4.87485 28.793 4.93821 28.9394 5.03712 29.0623C5.13604 29.1852 5.26701 29.2802 5.41615 29.3375C5.55369 29.3749 5.67915 29.4457 5.78097 29.5432C5.88279 29.6407 5.95773 29.7618 5.99843 29.8951C6.04 30.0368 6.12076 30.1647 6.23201 30.2647C6.34326 30.3647 6.48061 30.433 6.62904 30.462C6.7347 30.473 6.83503 30.5124 6.919 30.5758C7.00297 30.6393 7.0675 30.7241 7.10472 30.8211C7.16395 30.9855 7.26829 31.1308 7.407 31.2408C7.5457 31.3509 7.71294 31.4215 7.89026 31.4447C7.99825 31.4511 8.10263 31.4862 8.19159 31.5462C8.28054 31.6062 8.3507 31.6887 8.39484 31.7849C8.44335 31.8605 8.51145 31.9361 8.56967 32.0117C8.6575 32.116 8.76896 32.1993 8.89516 32.2551C9.02136 32.3108 9.15891 32.3374 9.2974 32.333C9.37753 32.3243 9.45851 32.3395 9.52955 32.3766C9.6006 32.4138 9.65851 32.471 9.69538 32.5408C9.7614 32.6354 9.83607 32.724 9.91853 32.8054C10.0043 32.8935 10.1082 32.9627 10.2236 33.0083C10.3391 33.054 10.4635 33.075 10.588 33.07C10.7002 33.0554 10.8145 33.0706 10.9187 33.1138C11.0228 33.1571 11.1128 33.2268 11.1797 33.3157C11.29 33.4589 11.4396 33.5686 11.6114 33.6322C11.7831 33.6958 11.97 33.7105 12.1501 33.6748C12.2406 33.6572 12.3345 33.6638 12.4215 33.6937C12.5086 33.7237 12.586 33.7758 12.6452 33.8448C12.7536 33.9766 12.8962 34.0776 13.0583 34.1374C13.2204 34.1972 13.3958 34.2137 13.5667 34.185C13.6908 34.1559 13.8207 34.1571 13.9443 34.1884C14.0678 34.2197 14.1812 34.2802 14.275 34.3645C14.4019 34.482 14.5611 34.5614 14.7331 34.5933C14.9052 34.6251 15.0829 34.608 15.2453 34.5441C15.3257 34.5037 15.4165 34.4876 15.5064 34.4977C15.5962 34.5078 15.681 34.5437 15.7499 34.6008C15.8613 34.6668 15.9784 34.7237 16.0995 34.7708C16.2081 34.8174 16.3254 34.8415 16.444 34.8415C16.5626 34.8415 16.6799 34.8174 16.7884 34.7708C16.8721 34.7176 16.9699 34.6892 17.0698 34.6892C17.1698 34.6892 17.2671 34.7176 17.3508 34.7708C17.5161 34.8684 17.7061 34.92 17.8994 34.92C18.0927 34.92 18.2823 34.8684 18.4476 34.7708C18.5151 34.7317 18.5922 34.7112 18.6708 34.7112C18.7493 34.7112 18.8264 34.7317 18.8939 34.7708C19.0559 34.8678 19.242 34.9191 19.4321 34.9191C19.6223 34.9191 19.8088 34.8678 19.9708 34.7708C20.0591 34.707 20.1636 34.668 20.2731 34.658C20.3826 34.648 20.493 34.6674 20.592 34.7141C20.7529 34.7753 20.9274 34.7936 21.098 34.767C21.2685 34.7405 21.429 34.67 21.5623 34.563C21.6316 34.5007 21.716 34.4567 21.8077 34.4352C21.8994 34.4137 21.9954 34.4154 22.0863 34.4401C22.2592 34.5065 22.4479 34.5231 22.6302 34.4879C22.8125 34.4527 22.981 34.3672 23.1149 34.2417C23.1846 34.1704 23.2724 34.1188 23.3698 34.0922C23.4671 34.0656 23.5701 34.065 23.6678 34.0905C23.8424 34.1327 24.0256 34.1267 24.197 34.0733C24.3683 34.0199 24.521 33.9212 24.6381 33.7881C24.7036 33.7044 24.7921 33.6404 24.8935 33.6036C24.9948 33.5668 25.1046 33.5588 25.2104 33.5803C25.3981 33.6082 25.5904 33.5819 25.7629 33.5046C25.9353 33.4274 26.0804 33.3025 26.1807 33.1456C26.2121 33.0845 26.2608 33.0333 26.321 32.9982C26.3811 32.963 26.4503 32.9453 26.5204 32.9471C26.5913 32.9565 26.6633 32.9565 26.7341 32.9471C26.8864 32.945 27.0356 32.9079 27.1705 32.839C27.3053 32.77 27.4218 32.6711 27.5102 32.5503C27.5637 32.4443 27.6448 32.3537 27.7452 32.2875C27.8455 32.2212 27.9616 32.1815 28.0825 32.1723C28.2341 32.1756 28.3839 32.1387 28.5155 32.0655C28.6472 31.9922 28.7557 31.8854 28.8297 31.7566C28.8815 31.6273 28.9684 31.5141 29.0812 31.4292C29.1941 31.3443 29.3286 31.2909 29.4702 31.2747C29.6254 31.245 29.7698 31.176 29.889 31.0749C30.0083 30.9737 30.0982 30.8438 30.1496 30.6982C30.1786 30.6023 30.2332 30.5157 30.3083 30.4476C30.3835 30.3794 30.4762 30.3322 30.5765 30.3108C30.7562 30.275 30.9214 30.1902 31.0536 30.0665C31.1858 29.9427 31.2797 29.785 31.3237 29.6116C31.3455 29.5225 31.3911 29.4407 31.4559 29.3743C31.5206 29.308 31.6021 29.2594 31.6923 29.2336C31.8706 29.1856 32.0309 29.0889 32.1547 28.955C32.2785 28.821 32.3603 28.6554 32.3906 28.4777C32.4015 28.3796 32.4399 28.2863 32.5015 28.208C32.5631 28.1297 32.6459 28.0694 32.7403 28.0336C32.9148 27.9661 33.0653 27.8506 33.1738 27.7013C33.2823 27.552 33.3441 27.3753 33.3515 27.1926C33.353 27.0972 33.3822 27.0041 33.4353 26.9239C33.4885 26.8437 33.5636 26.7796 33.6523 26.739C33.7973 26.6699 33.9203 26.5642 34.0091 26.4329C34.0978 26.3016 34.149 26.1495 34.1569 25.9925C34.1524 25.8708 34.1791 25.7499 34.2351 25.6409C34.291 25.532 34.3745 25.4384 34.4772 25.3689C34.6312 25.2662 34.7512 25.1225 34.8235 24.9549C34.8958 24.7873 34.9172 24.603 34.8846 24.424C34.8683 24.3572 34.8714 24.2873 34.8936 24.2222C34.9159 24.1571 34.9565 24.0993 35.0107 24.0554C35.0769 24.0004 35.1385 23.9404 35.195 23.8759C35.3041 23.7698 35.3856 23.6398 35.4328 23.4969C35.4801 23.3539 35.492 23.202 35.4669 23.0538C35.4333 22.9564 35.4298 22.8514 35.4574 22.7521C35.4851 22.6529 35.5422 22.5638 35.6218 22.4963C35.6718 22.4433 35.7173 22.3864 35.7578 22.3262C35.8477 22.2122 35.9071 22.0784 35.9308 21.9366C35.9545 21.7947 35.9419 21.6494 35.8938 21.5136C35.8591 21.4298 35.8496 21.3381 35.8668 21.2493C35.884 21.1606 35.9273 21.0785 35.9909 21.0127C36.1258 20.8643 36.2146 20.6816 36.2472 20.486C36.2799 20.2903 36.2549 20.0896 36.1752 19.9072C36.1418 19.8188 36.1418 19.7216 36.1752 19.6332C36.2173 19.534 36.269 19.439 36.3302 19.3497C36.4025 19.2346 36.4463 19.1046 36.4581 18.9701C36.4699 18.8356 36.4496 18.7003 36.3984 18.5749C36.3165 18.4733 36.2643 18.3521 36.2472 18.2241C36.2302 18.096 36.2488 17.9658 36.3013 17.8473ZM36.0099 16.137C35.994 16.2756 35.9442 16.4085 35.8644 16.5244C35.5733 16.8929 35.2631 17.2425 34.9429 17.63C34.8567 17.4445 34.8192 17.241 34.8344 17.038C34.8497 16.835 34.917 16.6389 35.0301 16.4677C35.2727 16.1086 35.5442 15.7684 35.8061 15.4094C35.9083 15.4986 35.9815 15.6153 36.016 15.7447C36.0505 15.8741 36.045 16.0105 36.0004 16.137H36.0099ZM35.8061 14.6534C35.7141 14.9412 35.5874 15.2171 35.4281 15.4755C35.2728 15.7117 35.0688 15.9196 34.8747 16.1747C34.796 16.0308 34.7487 15.8727 34.7354 15.7101C34.722 15.5476 34.7428 15.3841 34.797 15.2298C35.0105 14.7951 35.2824 14.3794 35.5347 13.9542C35.6565 14.0217 35.7504 14.1284 35.8 14.2561C35.8496 14.3838 35.8516 14.5243 35.8061 14.6534ZM35.1661 12.4423C35.2537 12.4888 35.3283 12.5551 35.384 12.6357C35.4397 12.7163 35.4751 12.8088 35.4863 12.9053C35.5269 13.1905 35.4757 13.4809 35.3404 13.7369C35.1464 14.0676 34.933 14.3889 34.7098 14.7479C34.6239 14.6424 34.5608 14.521 34.5241 14.3911C34.4874 14.2612 34.4782 14.1255 34.4966 13.992C34.6296 13.4427 34.8558 12.919 35.1661 12.4423ZM34.6226 10.9871C34.7306 11.0353 34.8235 11.1106 34.8917 11.2052C34.9599 11.2999 35.0008 11.4105 35.0107 11.5257C35.0524 11.8884 34.9777 12.2548 34.797 12.5746L34.3895 13.3306C34.2625 13.1894 34.1744 13.0189 34.1337 12.8354C34.0929 12.6519 34.1011 12.4614 34.1569 12.2817C34.283 11.8848 34.4577 11.4407 34.6226 10.9871ZM33.9627 9.61696C34.0934 9.66264 34.2068 9.74577 34.2881 9.85538C34.3695 9.96499 34.4153 10.096 34.4189 10.2312C34.461 10.5523 34.414 10.8786 34.2829 11.1761L33.9532 11.951C33.8076 11.8104 33.7018 11.6357 33.6457 11.4437C33.5896 11.2517 33.5851 11.0489 33.6329 10.8548C33.7105 10.4579 33.8462 10.0516 33.9627 9.61696ZM32.9923 9.54141C33.0409 9.13509 33.1284 8.71928 33.206 8.31296C33.3616 8.34609 33.5003 8.43146 33.5978 8.55409C33.6954 8.67673 33.7454 8.82886 33.7395 8.98388C33.7479 9.26621 33.7217 9.54852 33.6618 9.82487C33.5975 10.1074 33.5134 10.3852 33.4097 10.6564C33.2424 10.5242 33.1132 10.3519 33.035 10.1564C32.9567 9.96095 32.9321 9.749 32.9634 9.54141H32.9923ZM32.5754 21.3718L31.1294 20.9844C31.0779 20.9739 31.0288 20.9547 30.984 20.9277L31.0811 20.5876L32.9341 21.0694C33.0602 21.0694 33.002 20.7671 33.2349 20.8994C33.167 21.1356 33.1088 21.3813 33.0312 21.6175C33.0312 21.6648 32.9245 21.7025 32.8469 21.7214C32.8663 21.4758 32.7401 21.4096 32.546 21.334L32.5754 21.3718ZM20.8345 31.1801C20.8345 31.1801 20.7374 31.0951 20.6791 31.0573C20.6383 31.0401 20.6019 31.0143 20.5725 30.9817C20.5725 30.9817 20.5726 30.9061 20.6308 30.8778C20.686 30.7758 20.7147 30.6623 20.7147 30.5471C20.7147 30.4318 20.686 30.3183 20.6308 30.2164C20.6308 30.2164 20.5628 30.2164 20.5531 30.2164C20.5329 30.2242 20.5151 30.2371 20.5015 30.2536C20.4879 30.2702 20.4789 30.2899 20.4754 30.3108C20.4754 30.3959 20.4754 30.4809 20.4754 30.5943C20.4754 30.7077 20.1357 30.5943 20.1163 30.5943C20.0777 30.4486 20.0777 30.2959 20.1163 30.1502C20.1163 29.9801 20.8441 29.9045 20.9606 30.0368C21.0579 30.179 21.1047 30.3482 21.0942 30.5188C21.0837 30.6894 21.0164 30.8519 20.9023 30.9817C21.1546 30.9817 21.2129 31.1707 21.2226 31.3786C21.2323 31.5865 21.2226 31.6243 21.2808 31.7471C21.2927 31.784 21.2957 31.823 21.2898 31.8612C21.284 31.8993 21.2692 31.9357 21.2467 31.9676C21.2243 31.9994 21.195 32.0259 21.1605 32.045C21.1261 32.0641 21.0873 32.0753 21.0477 32.0778L20.8052 32.1251C20.4267 32.1251 20.2717 32.0306 20.2911 31.6621C20.3089 31.6144 20.3433 31.5743 20.3882 31.5487C20.4755 31.5429 20.563 31.5429 20.6502 31.5487C20.6641 31.6512 20.6866 31.7523 20.718 31.8511C20.718 31.8511 20.786 31.9077 20.8151 31.9361C20.8442 31.9644 20.8829 31.8605 20.8829 31.8321C20.8774 31.613 20.8513 31.3947 20.8052 31.1801H20.8345ZM18.7679 29.0068C15.6175 29.0626 12.5725 27.9009 10.2995 25.7758C8.0264 23.6508 6.71032 20.7355 6.63899 17.6677C6.62363 16.1388 6.9189 14.622 7.50791 13.2047C8.09692 11.7874 8.96765 10.4976 10.0706 9.40939C11.1736 8.32123 12.4867 7.45628 13.9343 6.86431C15.382 6.27234 16.9358 5.96502 18.5059 5.96011C21.644 5.96758 24.6511 7.18423 26.871 9.34428C29.0909 11.5043 30.3431 14.4322 30.3534 17.4882C30.3514 20.5067 29.1337 23.4041 26.962 25.5578C24.7903 27.7116 21.8376 28.9499 18.7385 29.0068H18.7679ZM19.5534 32.2007H19.1654L19.0782 30.6227H18.8745C18.8648 30.5569 18.8648 30.49 18.8745 30.4242C18.9245 30.3205 19.0063 30.2346 19.109 30.1787C19.2117 30.1228 19.3299 30.0995 19.4468 30.1124L19.5534 32.2007ZM17.4868 31.3124C17.3121 31.3124 17.1956 31.3125 17.2053 31.1046C17.215 30.8967 17.2054 30.5754 17.2636 30.3108C17.3218 30.0462 17.3803 30.0935 17.5356 30.0935C18.1663 30.0935 18.2145 30.0935 18.1951 30.7077C18.1951 31.1234 18.1465 31.5298 18.1174 31.9455C18.1174 32.144 18.0205 32.2101 17.8071 32.2101H17.3607C17.3331 32.209 17.3061 32.2023 17.2812 32.1906C17.2562 32.1789 17.2339 32.1624 17.2158 32.1421C17.1976 32.1217 17.1839 32.098 17.1755 32.0724C17.1671 32.0467 17.1638 32.0196 17.1665 31.9928C17.1665 31.8605 17.1665 31.7282 17.1665 31.5676H17.5356C17.5256 31.6682 17.5256 31.7694 17.5356 31.87C17.5356 31.9172 17.5936 31.9456 17.6228 31.9834C17.6519 32.0212 17.7199 31.9172 17.7199 31.8794C17.7199 31.6715 17.7199 31.4636 17.7199 31.2368L17.4868 31.3124ZM15.9925 30.3675C15.9925 30.3675 15.9925 30.3675 15.9925 30.3108C16.0051 30.2503 16.0301 30.1928 16.0659 30.1417C16.1017 30.0907 16.1476 30.0472 16.2009 30.0138C16.2543 29.9803 16.3142 29.9576 16.3767 29.9469C16.4392 29.9363 16.5034 29.9379 16.5653 29.9518C16.5653 29.9518 16.6328 30.0368 16.6231 30.0841C16.526 30.6888 16.4197 31.2935 16.3227 31.8983C16.3227 32.0022 16.2546 32.04 16.1479 32.0117L15.9148 31.9644L16.1768 30.377L15.9925 30.3675ZM6.03728 11.8848C6.17013 11.9848 6.3092 12.0764 6.45422 12.1588C6.61917 12.2439 6.6389 12.3478 6.54187 12.4801C6.5102 12.5275 6.48408 12.5782 6.46416 12.6313L4.52354 11.743L4.67894 11.4123L5.44505 11.7336C5.44505 11.7336 5.44547 11.658 5.38725 11.6391L5.0087 11.3651C4.72731 11.1856 4.72748 11.1855 4.94095 10.8737L6.88157 11.743L6.72617 12.0738L5.87241 11.7242V11.7809C5.92581 11.8179 5.98077 11.8525 6.03728 11.8848ZM4.22269 17.8945L3.46605 17.7906C3.2914 17.7906 3.34948 17.6394 3.33008 17.5449C3.31067 17.4504 3.38845 17.3937 3.48548 17.3937C4.11618 17.3937 4.73688 17.3937 5.35788 17.3937C5.59075 17.3937 5.48394 17.5922 5.52275 17.7528H4.43636V17.8473L5.50333 17.9984V18.367H5.32898C4.72738 18.367 4.1354 18.367 3.5338 18.367C3.37855 18.367 3.34926 18.3103 3.33955 18.178C3.32985 18.0457 3.3395 17.9796 3.52385 17.9796H4.39751V17.8945H4.22269ZM4.16441 16.2503L3.49495 16.0897C3.49495 16.0897 3.42696 16.0047 3.41725 15.9574C3.40755 15.9102 3.41725 15.7968 3.41725 15.674L5.59098 15.8535L5.54218 16.222L4.64957 16.1747V16.2314L4.81445 16.2976L5.21242 16.3921C5.56174 16.4772 5.56155 16.4771 5.50333 16.8551L3.3495 16.6756L3.39783 16.307L4.36814 16.3827V16.3165L4.16441 16.2503ZM4.78554 13.1226L4.36814 12.9148C4.06734 12.7731 4.06748 12.773 4.26154 12.4234C4.53913 12.6478 4.85926 12.8166 5.2039 12.9204C5.54853 13.0242 5.91074 13.0608 6.26991 13.0282C6.26991 13.3967 6.21204 13.4061 5.89183 13.3683C5.57163 13.3305 5.44507 13.3116 5.2219 13.2927V13.3589L6.11498 13.6518L5.99843 14.0014L3.94126 13.3494L4.05781 12.9998L4.9021 13.255V13.2077L4.78554 13.1226ZM4.35866 14.1904L4.30039 14.5117H3.81523C4.35966 14.7938 4.97678 14.9153 5.59098 14.8613C5.50872 14.8108 5.42081 14.7696 5.32898 14.7385C5.07669 14.6723 5.07651 14.6723 5.13472 14.4267C5.13815 14.3889 5.13815 14.351 5.13472 14.3133C5.30085 14.3448 5.46337 14.3922 5.61988 14.455C5.65989 14.4799 5.69373 14.5132 5.7189 14.5524C5.74407 14.5917 5.75986 14.6359 5.76533 14.6818C5.75178 14.8486 5.71961 15.0133 5.66868 15.1731C5.66868 15.3054 5.52285 15.3527 5.3773 15.3338L3.79581 15.022C3.76089 15.0189 3.72718 15.0085 3.69679 14.9914C3.66639 14.9744 3.63985 14.9512 3.61956 14.9234C3.59927 14.8956 3.58575 14.8637 3.57929 14.8302C3.57283 14.7966 3.57358 14.7621 3.58213 14.729C3.57204 14.6601 3.57204 14.5901 3.58213 14.5211C3.72768 14.0676 3.88321 14.0014 4.35866 14.1999V14.1904ZM4.05781 19.019C4.05781 19.0851 4.05781 19.1513 4.05781 19.2174C4.05781 19.2836 4.05766 19.4064 3.90241 19.4158C3.80396 19.4393 3.70699 19.4678 3.6115 19.5009C4.21043 19.6097 4.8292 19.5405 5.38725 19.3024C5.2417 19.1418 5.05708 19.3024 4.87272 19.2457L4.81445 18.9056C4.95029 18.9056 5.06709 18.9056 5.18352 18.9056C5.48432 18.9056 5.53251 18.9056 5.58103 19.208C5.68776 19.7277 5.65892 19.7655 5.12525 19.841L3.83466 20.03C3.58238 20.03 3.50487 19.9734 3.46605 19.7466C3.41754 19.1229 3.43681 19.1135 4.05781 19.0284V19.019ZM4.32929 20.597C4.34751 20.6676 4.3705 20.737 4.39751 20.8049C4.39751 20.9088 4.39742 20.9561 4.30039 20.9844C4.19257 21.0182 4.08824 21.0625 3.98959 21.1167C4.61555 21.1494 5.23643 20.9908 5.76533 20.6631L5.20248 20.7293L5.10582 20.3797C5.27779 20.3354 5.45298 20.3038 5.62983 20.2852C5.67399 20.2919 5.71609 20.3081 5.75301 20.3326C5.78994 20.3571 5.8205 20.3893 5.84303 20.4269C5.90762 20.572 5.95339 20.7244 5.97901 20.8805C5.98921 20.9116 5.9925 20.9444 5.98848 20.9768C5.98447 21.0091 5.97329 21.0403 5.95579 21.0681C5.93829 21.0959 5.9149 21.1197 5.88709 21.1378C5.85929 21.156 5.82776 21.1682 5.79471 21.1734L4.21321 21.5892C4.17741 21.6007 4.13926 21.6042 4.10187 21.5995C4.06449 21.5948 4.02881 21.582 3.99717 21.5621C3.96552 21.5421 3.9387 21.5156 3.91899 21.4843C3.89929 21.453 3.88689 21.4178 3.88298 21.3813C3.87737 21.35 3.87737 21.3181 3.88298 21.2868C3.70833 20.7671 3.7471 20.7104 4.32929 20.6064V20.597ZM4.74669 22.1278L5.93021 21.6837C5.96308 21.6649 6.00022 21.654 6.03823 21.6518C6.07625 21.6495 6.11414 21.656 6.1491 21.6707C6.18406 21.6854 6.21524 21.708 6.23959 21.7365C6.26395 21.765 6.28084 21.7987 6.28934 21.8349C6.35726 21.9861 6.41544 22.1467 6.49307 22.3451C6.57069 22.5436 6.37667 22.5058 6.28934 22.5436C5.80418 22.742 5.31925 22.9215 4.82439 23.101C4.61093 23.1861 4.50427 23.1011 4.41694 22.931C4.16466 22.4113 4.19362 22.3451 4.74669 22.1372V22.1278ZM5.61988 9.66425L5.82361 9.34295L7.66711 10.439L7.47333 10.7509L6.59019 10.2406V10.2973L7.38568 10.9777L7.18195 11.2895L5.32898 10.1934L5.5327 9.88157L6.42531 10.3918L5.61988 9.66425ZM7.75476 7.04679L8.11341 6.6688L9.68543 8.13348L9.39453 8.36971L8.42421 7.51925L9.2197 8.57757L9.01597 8.78542L7.86136 8.1051L8.83167 9.05003L8.54076 9.35241L6.96875 7.89725L7.38568 7.55703L8.60852 8.32242L8.65684 8.26572L7.75476 7.04679ZM11.2863 6.38533L11.5289 6.77279H11.4517L11.1992 6.93341L10.9177 6.48926L10.064 5.13803L10.2194 5.04356C10.3617 4.94906 10.507 4.864 10.6557 4.78841C10.6971 4.76161 10.7433 4.74239 10.7917 4.73172C10.8385 4.73374 10.8837 4.74796 10.923 4.77289C10.9622 4.79782 10.9941 4.83257 11.0149 4.87348L11.1215 5.04356L11.4418 5.53494C11.4834 5.60109 11.51 5.67521 11.5195 5.75225C11.5059 5.77862 11.4859 5.80134 11.4612 5.8184C11.4366 5.8482 11.4073 5.87371 11.374 5.89395H11.3157H11.2285L11.2863 6.38533ZM10.5686 6.95232C10.7626 7.20745 10.7531 7.29245 10.5008 7.49088C10.2485 7.68931 10.2481 7.661 10.0929 7.76494C10.0051 7.71086 9.92375 7.64747 9.85031 7.57595C9.5301 7.19798 9.2196 6.81053 8.88 6.42311C8.72474 6.23413 8.74421 6.1302 8.93827 5.96956C9.39432 5.59159 9.44274 5.59162 9.81146 6.05463C10.0831 6.36646 10.3357 6.65935 10.5686 6.96172V6.95232ZM5.51328 9.50357C5.44536 9.61696 5.37723 9.7304 5.2996 9.84379C5.22198 9.95718 5.1156 9.99498 4.94095 9.84379L5.26075 9.57918L5.3484 9.19179C5.54246 9.27683 5.5909 9.37129 5.51328 9.51303V9.50357ZM12.0629 4.55218C12.2375 4.93015 12.4217 5.30813 12.6158 5.6861L12.7906 5.80894C12.8003 5.73997 12.8003 5.67 12.7906 5.60103C12.7607 5.50937 12.7216 5.42079 12.6741 5.33648L13.0138 5.17586C13.0325 5.22177 13.055 5.26599 13.0815 5.30811C13.3047 5.79947 13.1982 5.98849 12.6452 6.11133C12.5846 6.13015 12.5189 6.12601 12.4613 6.09973C12.4038 6.07345 12.3583 6.02695 12.3344 5.96956C12.1015 5.4971 11.8687 5.02465 11.6455 4.56164C11.5582 4.3632 11.6456 4.27818 11.8009 4.17424H11.8686C12.3635 3.92856 12.4703 3.97579 12.6546 4.5144L12.3443 4.65611L12.0918 4.29703H12.0046C12.0089 4.38775 12.0286 4.47718 12.0629 4.56164V4.55218ZM13.6638 3.47495L14.0324 3.35211C14.0074 4.07728 14.2757 4.78307 14.7796 5.31756L14.5469 5.40263C14.4402 5.44988 14.3721 5.40261 14.3138 5.31756C14.2556 5.23252 14.0422 4.85457 13.9064 4.62779H13.8481L14.1395 5.52548L13.7804 5.63886L13.0815 3.65449L13.4406 3.52224L13.7027 4.2498H13.7704L13.6638 3.47495ZM15.0321 3.09702C15.6143 2.93638 15.6529 2.96474 15.7887 3.52224C15.8664 3.88131 15.9537 4.24034 16.0313 4.59941C16.1089 4.95848 16.0312 5.04356 15.6916 5.10971L15.4007 5.1664C15.3378 5.17453 15.2738 5.15829 15.223 5.12119C15.1722 5.08409 15.1388 5.02907 15.1292 4.96795C15.0128 4.46714 14.8963 3.96636 14.7895 3.46555C14.7313 3.24822 14.7992 3.17262 15.0321 3.10647V3.09702ZM16.6136 2.81355C16.73 2.81355 16.7785 2.81351 16.7979 2.9458C16.8161 3.23838 16.8581 3.52913 16.9239 3.81517C16.9317 3.78413 16.9317 3.75168 16.9239 3.72064C16.9542 3.49186 16.9707 3.26153 16.9727 3.03086C16.9727 2.83243 16.9727 2.73796 17.2347 2.75686H17.3802L17.6033 4.83564L17.2248 4.88294L17.0987 3.89072H17.0405C17.0405 4.0797 17.0407 4.25927 16.9921 4.44825C16.9873 4.49854 16.9873 4.54913 16.9921 4.59941C16.9921 4.93959 16.9922 4.93961 16.5847 4.92071C16.5847 4.75063 16.5264 4.57109 16.507 4.39156C16.4585 3.91909 16.4193 3.44665 16.3611 2.99309C16.3708 2.8041 16.5262 2.8513 16.5942 2.82295L16.6136 2.81355ZM16.4582 2.43556C16.5487 2.43098 16.6396 2.43098 16.7301 2.43556C16.7301 2.43556 16.8173 2.50173 16.8367 2.52063C16.9264 2.46599 17.0206 2.41856 17.1182 2.37886C17.1182 2.37886 17.2251 2.37885 17.2736 2.4261C17.3221 2.47334 17.2247 2.58673 17.1859 2.59618C16.9841 2.63271 16.7799 2.65482 16.5747 2.66233C16.5747 2.66233 16.497 2.51115 16.4582 2.43556ZM19.0976 4.62779C19.1559 4.07973 19.2043 3.52222 19.2431 2.96471C19.2431 2.72848 19.2431 2.70959 19.5051 2.73794L20.0097 2.80409C20.1552 2.80409 20.2136 2.89858 20.2039 3.04032C20.2039 3.33325 20.1553 3.62618 20.1262 3.92855C20.125 3.9571 20.1178 3.98512 20.1054 4.01103C20.093 4.03693 20.0754 4.06018 20.0537 4.07948C20.0321 4.09879 20.0069 4.11378 19.9794 4.12355C19.9518 4.13331 19.9224 4.13768 19.8931 4.13641H19.5439C19.5439 4.32539 19.4956 4.49549 19.4956 4.67502C19.4956 4.85456 19.3598 4.8451 19.2336 4.8451C19.1075 4.8451 19.0879 4.75064 19.0976 4.63725V4.62779ZM21.4362 3.91909C21.543 3.91909 21.6205 3.97581 21.5428 4.11755L21.116 4.0514L20.9511 4.85456L21.3874 4.95849C21.3874 5.06243 21.3873 5.12861 21.2515 5.10971C21.1156 5.09081 20.8441 5.04356 20.6403 4.98686C20.6403 4.98686 20.5434 4.90182 20.5531 4.86402C20.6566 4.23407 20.7729 3.62933 20.9023 3.04978C20.9023 2.99308 20.9992 2.91749 21.0477 2.92694C21.2806 2.92694 21.5135 3.01198 21.7561 3.04978C21.7561 3.23877 21.6494 3.21984 21.5523 3.20094C21.2709 3.12535 21.2806 3.20093 21.232 3.42772C21.2266 3.47165 21.2266 3.51608 21.232 3.56002C21.135 3.92854 21.1352 3.87186 21.4457 3.92855L21.4362 3.91909ZM23.881 4.76949L24.4438 3.92855H24.5121C24.8905 4.07974 24.8223 4.02305 24.6864 4.34432L24.0463 5.83726C24.0463 5.93175 23.9782 6.0357 23.8327 5.96011C23.6871 5.88451 23.5899 5.88454 23.6773 5.69556C23.7646 5.50657 23.9105 5.16637 24.0269 4.9018H23.9686L23.3863 5.78057L23.0272 5.63886L23.862 3.74902L24.2112 3.88132L23.8327 4.82624L23.881 4.76949ZM26.7919 5.33648L26.889 5.20418L27.6168 5.71442V5.78057C27.5586 5.78057 27.481 5.78057 27.4325 5.78057C27.384 5.78057 27.2581 5.78058 27.1998 5.84672L26.2295 7.1318L26.113 7.25465L25.8027 7.03733L26.9473 5.48764L26.7919 5.33648ZM28.1796 6.13964L28.7136 6.63102C28.7361 6.64965 28.7538 6.6728 28.7662 6.6989C28.7786 6.72501 28.7851 6.75342 28.7851 6.78219C28.7851 6.81095 28.7786 6.83936 28.7662 6.86547C28.7538 6.89157 28.7361 6.91478 28.7136 6.93341L28.0825 7.61372C28.0616 7.63607 28.0361 7.65393 28.0076 7.66615C27.9792 7.67837 27.9487 7.68466 27.9176 7.68466C27.8866 7.68466 27.856 7.67837 27.8276 7.66615C27.7992 7.65393 27.7737 7.63607 27.7528 7.61372L27.5007 7.40587L26.9961 7.94448L26.7047 7.69879L28.1796 6.13964ZM26.1324 5.12857L25.987 5.38372L25.6472 5.20418C25.6915 5.13788 25.7305 5.06841 25.7638 4.99632C25.7638 4.93018 25.7636 4.86399 25.8121 4.77895C25.3689 5.19398 25.0673 5.73169 24.9484 6.31918L25.2687 5.89395L25.589 6.06409C25.5187 6.20423 25.4339 6.33716 25.3364 6.46094C25.2652 6.5139 25.1821 6.54952 25.0939 6.56487C25.0939 6.56487 25.0166 6.56487 24.9778 6.56487C24.415 6.30974 24.3956 6.25303 24.6964 5.72388L25.2687 4.73172C25.4239 4.47659 25.521 4.44822 25.7927 4.59941L25.987 4.7034C26.2295 4.79789 26.2974 4.91124 26.1518 5.13803L26.1324 5.12857ZM23.0272 3.57894C22.931 3.56344 22.8366 3.53809 22.7458 3.50333L22.1735 5.39317L21.8143 5.28925L22.4355 3.26709C22.6586 3.33324 22.8723 3.38996 23.076 3.46555C23.076 3.46555 23.1341 3.53168 23.1632 3.56948C23.1923 3.60727 23.0855 3.58834 23.0466 3.58834L23.0272 3.57894ZM29.8194 23.5168C29.9485 23.5784 30.0815 23.632 30.2174 23.6774C30.2853 23.6774 30.3627 23.6774 30.4306 23.6774C30.4985 23.6774 30.4307 23.5263 30.3434 23.4885C30.2357 23.4054 30.1221 23.3295 30.0037 23.2617L30.1691 22.9404L31.9543 24.1121C31.7214 24.6696 31.7213 24.6696 31.1488 24.4428L29.8488 23.9326L29.6645 23.8475L29.8194 23.5168ZM31.7117 23.0066C31.605 22.9499 31.537 22.827 31.4497 22.7325C31.3624 22.638 31.2653 22.827 31.1877 22.7987C30.951 22.7295 30.7229 22.6345 30.5083 22.5152C30.4812 22.4825 30.462 22.4443 30.4519 22.4035C30.4418 22.3626 30.4411 22.3201 30.45 22.279C30.5179 22.0616 30.6152 21.8443 30.7025 21.6175L32.7209 22.3829C32.6238 22.6191 32.5462 22.8176 32.4589 23.016C32.4493 23.0483 32.4329 23.0782 32.4105 23.1038C32.3881 23.1294 32.3603 23.15 32.329 23.1643C32.2978 23.1786 32.2636 23.1863 32.2291 23.1868C32.1946 23.1873 32.1603 23.1806 32.1286 23.1672C31.9946 23.129 31.8647 23.0784 31.7406 23.016L31.7117 23.0066ZM32.5849 14.7763H33.3226L33.3903 15.1637C33.0257 15.1301 32.6586 15.1301 32.294 15.1637C31.9586 15.2544 31.6335 15.3779 31.3237 15.5322C31.1878 15.2109 31.1975 15.1826 31.508 15.0786L31.896 14.9463L31.9737 14.8519C31.7796 14.8519 31.6341 14.8519 31.4885 14.8519C31.1489 14.8519 31.1294 14.8519 31.11 14.4928C31.837 14.597 32.5788 14.4499 33.206 14.077C33.2136 14.1418 33.2298 14.2054 33.2543 14.266C33.3126 14.4267 33.2542 14.5022 33.0989 14.54C32.9274 14.5868 32.7594 14.6436 32.5948 14.7101L32.5849 14.7763ZM33.1283 16.7512L31.7505 16.8646C31.4789 16.8646 31.4208 16.8646 31.3819 16.5527C31.314 16.0519 31.3815 15.9007 31.9055 15.9007C32.313 15.9007 32.7108 15.844 33.1184 15.8157C33.5259 15.7873 33.5166 15.8724 33.5263 16.1937C33.5312 16.2313 33.5312 16.2694 33.5263 16.307C33.5845 16.685 33.5259 16.7322 33.1572 16.7606L33.1283 16.7512ZM32.4394 13.6235L31.3431 13.9636H31.1877H31.1199C30.7609 13.8975 30.8382 13.5762 30.7509 13.3589C30.6635 13.1415 30.8093 13.1132 30.9451 13.066C31.44 12.9148 31.9154 12.7541 32.42 12.6124C32.6529 12.5463 32.7501 12.6124 32.8374 12.8297C33.0897 13.4345 33.0893 13.4439 32.4683 13.6329L32.4394 13.6235ZM32.8952 20.1434C32.7206 20.1434 32.6527 20.0867 32.7109 19.9167C32.714 19.86 32.714 19.8032 32.7109 19.7466H33.1766C32.634 19.4817 32.0176 19.3955 31.4203 19.5009L31.8861 19.6427C31.8861 19.6427 31.9444 19.9734 31.7406 19.945C31.2749 19.8789 31.1586 19.8789 31.1877 19.5576C31.1877 19.019 31.3041 18.9623 31.8572 19.0473L33.1283 19.2552C33.3418 19.2552 33.3903 19.3686 33.3709 19.586C33.3805 19.6423 33.3805 19.6997 33.3709 19.756C33.3515 20.1813 33.3515 20.1718 32.9246 20.1529L32.8952 20.1434ZM32.8952 18.4898L31.76 18.4331C31.7067 18.4144 31.6484 18.4144 31.5951 18.4331C31.4302 18.5749 31.246 18.4331 31.0811 18.4331C30.9161 18.4331 31.0031 18.263 30.9546 18.1497H31.372V17.6583H31.0617C30.9646 17.3748 31.0034 17.3276 31.2848 17.337C31.3586 17.3246 31.4344 17.3283 31.5065 17.3479C31.5787 17.3675 31.6452 17.4025 31.7017 17.4504C31.7017 17.4504 31.8473 17.4504 31.9249 17.4504L33.3709 17.5166H33.5552V18.4615L32.8952 18.4898ZM32.2357 7.05625C32.3515 7.06656 32.4619 7.10835 32.5546 7.17685C32.6472 7.24534 32.7184 7.33776 32.7597 7.44364C32.9044 7.73769 32.9419 8.07093 32.8663 8.38857C32.7887 8.70039 32.7206 9.01222 32.6526 9.33349C32.4925 9.23057 32.3616 9.0901 32.2717 8.92499C32.1819 8.75988 32.1361 8.57542 32.1386 8.38857C32.1871 7.9539 32.2357 7.51927 32.2746 7.06571L32.2357 7.05625ZM32.1192 10.9399L32.5171 11.7903L32.3328 11.8848C31.8477 12.1021 31.3625 12.31 30.8774 12.5368C30.726 12.6225 30.58 12.7171 30.4405 12.8203L30.2269 12.9053L30.0914 12.6313C30.2078 12.5557 30.3922 12.499 30.3922 12.4329C30.3702 12.2838 30.3206 12.1397 30.2463 12.0076C30.1225 12.0563 29.9915 12.085 29.8583 12.0927C29.8097 12.0927 29.7708 11.9415 29.7223 11.8376C29.9552 11.7714 30.1302 11.573 30.3922 11.6675C30.4504 11.6675 30.5377 11.6675 30.6154 11.6013L32.1192 10.9399ZM31.3237 5.8751C31.4325 5.87837 31.5381 5.90985 31.6302 5.96633C31.7223 6.02282 31.7976 6.10221 31.8477 6.19634C32.0629 6.59009 32.1282 7.04535 32.032 7.48148C32.032 7.69881 31.9737 7.90665 31.9349 8.14288C31.7661 8.05831 31.6222 7.93325 31.517 7.77948C31.4117 7.62571 31.3484 7.44832 31.3331 7.26411C31.2458 6.83889 31.2749 6.37587 31.2749 5.90341L31.3237 5.8751ZM31.1972 9.37133L31.4108 9.69257L30.6054 10.3351V10.3918L31.5757 9.95718L31.7794 10.2784L30.2269 10.8548L30.0426 10.921C29.9844 10.9464 29.9214 10.9585 29.8578 10.9564C29.7941 10.9543 29.7316 10.938 29.6754 10.9088C29.6192 10.8797 29.5705 10.8383 29.5332 10.788C29.496 10.7377 29.471 10.6797 29.4603 10.6186C29.4533 10.6038 29.4498 10.5876 29.4498 10.5713C29.4498 10.555 29.4533 10.5389 29.4603 10.5241C29.4603 10.5241 29.5479 10.5241 29.5673 10.5241C29.7808 10.7225 29.9264 10.5241 30.0719 10.4296L31.0422 9.48471L31.1972 9.37133ZM30.7509 5.04356C30.9389 5.26823 31.0448 5.54748 31.0517 5.83726C31.0517 6.22468 31.0517 6.6121 31.0517 7.01842C31.0037 7.00214 30.9579 6.97996 30.9157 6.95232C30.7597 6.85956 30.6269 6.73433 30.5263 6.58569C30.4257 6.43705 30.36 6.26863 30.3339 6.09241C30.3339 5.67664 30.2559 5.25145 30.2074 4.81678C30.3056 4.81355 30.403 4.83541 30.4898 4.88017C30.5766 4.92493 30.6501 4.99099 30.7025 5.07188L30.7509 5.04356ZM30.3823 8.27518C30.4176 8.31379 30.4501 8.35485 30.4794 8.39803C30.7996 8.7949 30.7703 8.9083 30.2851 9.18233L30.1302 8.99333C30.1302 8.99333 30.1301 8.93666 30.0719 8.89886C30.154 8.8378 30.2315 8.77149 30.3046 8.70041C30.3046 8.70041 30.3046 8.61536 30.3046 8.57757C30.2538 8.56388 30.2004 8.56388 30.1496 8.57757C30.0332 8.65316 29.9264 8.74767 29.8099 8.83271C29.6935 8.91776 29.2857 9.21067 29.0334 9.4091C28.9741 9.46838 28.919 9.53153 28.8685 9.5981C29.1305 9.67369 29.2179 9.45634 29.3925 9.39964L29.6256 9.68311C29.4898 9.7776 29.3635 9.88158 29.2276 9.95718C29.0918 10.0328 29.0336 10.0139 29.0045 9.95718C28.8483 9.7785 28.7056 9.58899 28.5776 9.39019C28.5776 9.39019 28.5777 9.23899 28.6747 9.20119L29.9649 8.25627C29.9916 8.23438 30.0232 8.21821 30.0568 8.20868C30.0903 8.19916 30.1254 8.19651 30.1601 8.20096C30.1947 8.2054 30.2282 8.2168 30.2581 8.23446C30.288 8.25213 30.3139 8.27567 30.3339 8.30356L30.3823 8.27518ZM29.4991 3.98525C29.7768 4.22766 29.9443 4.56753 29.9649 4.93017C29.9649 5.25145 29.9649 5.58218 30.0231 5.94125C29.8353 5.87978 29.6668 5.77299 29.5328 5.63091C29.3987 5.48882 29.3035 5.316 29.2565 5.12857C29.1401 4.6939 29.0821 4.24981 29.0045 3.79625C29.091 3.79661 29.1763 3.8164 29.2537 3.8541C29.3311 3.89179 29.3986 3.94635 29.4508 4.01356L29.4991 3.98525ZM28.2768 3.12533C28.5981 3.42806 28.7946 3.83468 28.8297 4.26871C28.8297 4.50494 28.888 4.7506 28.9268 5.01518C28.7694 4.99053 28.6207 4.92849 28.4937 4.83455C28.3668 4.74061 28.2656 4.61766 28.1991 4.47657C28.005 3.99466 27.8597 3.53165 27.685 3.00249C27.7827 2.97896 27.8851 2.98055 27.9821 3.00704C28.079 3.03354 28.167 3.08408 28.2379 3.15371L28.2768 3.12533ZM27.0056 2.39778C27.1861 2.58735 27.3338 2.80439 27.4424 3.04032C27.5688 3.40559 27.6723 3.77792 27.7528 4.15533C27.6252 4.14386 27.5012 4.10788 27.3879 4.04949C27.2747 3.99111 27.1742 3.91149 27.0928 3.81517C26.8193 3.45871 26.6185 3.05456 26.501 2.62455C26.4525 2.50171 26.4135 2.37884 26.365 2.2371C26.4729 2.2141 26.5852 2.22044 26.6896 2.25544C26.794 2.29044 26.8868 2.35277 26.9573 2.43556L27.0056 2.39778ZM25.453 1.65125C25.674 1.79513 25.8625 1.98168 26.0064 2.19933C26.1996 2.59982 26.371 3.00983 26.5204 3.42772C26.2986 3.40128 26.0868 3.32306 25.9026 3.19967C25.7185 3.07628 25.5676 2.91138 25.4629 2.71902C25.2786 2.35995 25.1036 1.99145 24.929 1.61348C25.0069 1.5814 25.0925 1.57062 25.1763 1.58228C25.2601 1.59393 25.3391 1.62758 25.4047 1.67963L25.453 1.65125ZM23.9686 1.10324C24.2612 1.20681 24.5012 1.4168 24.6381 1.68909L25.191 2.76626C25.0571 2.78104 24.9216 2.76856 24.793 2.72952C24.6644 2.69047 24.5454 2.62573 24.4438 2.53948C24.0434 2.12157 23.7156 1.64282 23.4735 1.1221C23.5446 1.09394 23.6209 1.08027 23.6976 1.0819C23.7744 1.08352 23.85 1.10041 23.9198 1.13156L23.9686 1.10324ZM22.5326 0.725246C22.7441 0.817774 22.9353 0.949313 23.0954 1.11264C23.3574 1.46226 23.5707 1.85916 23.8327 2.26548C23.6298 2.28465 23.4253 2.25603 23.2362 2.18202C23.047 2.10802 22.8787 1.99079 22.7458 1.84025C22.4547 1.50008 22.2028 1.13155 21.9214 0.77248C22.0041 0.71855 22.1005 0.688214 22.2 0.684874C22.2994 0.681535 22.3975 0.705307 22.4838 0.753563L22.5326 0.725246ZM20.9606 0.432321C21.239 0.492038 21.4868 0.646097 21.6594 0.867007C21.902 1.17883 22.1346 1.50011 22.3966 1.81193C22.215 1.86104 22.0232 1.86238 21.8409 1.81591C21.6585 1.76944 21.4922 1.67678 21.3585 1.54733C21.0189 1.22605 20.7084 0.866954 20.3882 0.517332C20.4638 0.466162 20.5512 0.434205 20.6427 0.424305C20.7342 0.414404 20.827 0.426876 20.9122 0.460639L20.9606 0.432321ZM19.3791 0.281101C19.7628 0.342065 20.109 0.541036 20.3494 0.838632C20.5434 1.08431 20.7665 1.32052 20.9994 1.5851C20.8518 1.62929 20.6967 1.64374 20.5432 1.62749C20.3897 1.61124 20.2412 1.56467 20.1068 1.49063C19.6468 1.19996 19.2343 0.843151 18.884 0.432321C18.9454 0.382654 19.017 0.346089 19.0939 0.324933C19.1707 0.303777 19.2512 0.298493 19.3303 0.309477L19.3791 0.281101ZM17.8748 0.281101C18.0766 0.312018 18.2689 0.386293 18.4377 0.498473C18.7967 0.772501 19.1364 1.09378 19.5051 1.4434C19.2189 1.55684 18.8986 1.55684 18.6125 1.4434C18.1148 1.20864 17.6644 0.888564 17.283 0.498473C17.3512 0.426505 17.4362 0.371692 17.5308 0.338775C17.6255 0.305857 17.727 0.295808 17.8265 0.309477L17.8748 0.281101ZM16.507 0.44178C16.795 0.539531 17.0688 0.672896 17.3219 0.838632C17.565 1.01499 17.7951 1.20757 18.0108 1.41502C17.8775 1.48815 17.7293 1.53198 17.5768 1.5434C17.4243 1.55483 17.2709 1.53359 17.1276 1.48117C16.6183 1.28039 16.1463 0.999469 15.7305 0.649636C15.8209 0.554381 15.9382 0.486737 16.0673 0.454872C16.1965 0.423006 16.3321 0.428283 16.4582 0.470098L16.507 0.44178ZM14.5664 0.69687C14.8629 0.627679 15.1753 0.671637 15.4395 0.819715C15.8083 1.03705 16.1672 1.26388 16.5553 1.51901C16.3795 1.62518 16.1795 1.68755 15.973 1.70074C15.7666 1.71392 15.5604 1.67746 15.3718 1.59456C14.974 1.40558 14.5955 1.17879 14.1395 0.94256C14.2556 0.854724 14.3824 0.781708 14.5176 0.725246L14.5664 0.69687ZM13.1497 1.08432C13.4079 1.05695 13.6691 1.08272 13.9163 1.15993C14.3235 1.33723 14.7186 1.53917 15.0998 1.76464C14.9918 1.85289 14.8664 1.9186 14.7312 1.95762C14.596 1.99663 14.4538 2.00816 14.3138 1.99147C13.751 1.86049 13.2047 1.67036 12.684 1.42448C12.7229 1.34381 12.781 1.27342 12.8536 1.21916C12.9262 1.16491 13.0109 1.12836 13.1009 1.11264L13.1497 1.08432ZM11.9369 1.5757C12.1201 1.55601 12.3051 1.57535 12.4798 1.63239C12.8679 1.76468 13.2466 1.94417 13.6638 2.11426C13.5323 2.24196 13.3705 2.33635 13.1929 2.38907C13.0152 2.44179 12.8274 2.45123 12.6452 2.41664C12.1722 2.29471 11.7059 2.14968 11.248 1.98201C11.3049 1.86482 11.3956 1.76649 11.5095 1.6993C11.6234 1.6321 11.755 1.59896 11.8881 1.60402L11.9369 1.5757ZM10.2966 2.26548C10.5503 2.22335 10.8095 2.22335 11.0632 2.26548C11.4779 2.36833 11.8864 2.4945 12.286 2.64341C12.137 2.79787 11.9504 2.91344 11.7436 2.97948C11.5367 3.04551 11.3161 3.05993 11.102 3.0214C10.6945 2.95526 10.2872 2.82296 9.86026 2.71902C9.87979 2.62074 9.92604 2.52941 9.99434 2.45459C10.0626 2.37977 10.1503 2.32421 10.2483 2.29379L10.2966 2.26548ZM9.3263 2.93639C9.73036 2.92801 10.1337 2.98222 10.5202 3.09702L10.9177 3.2104C10.8297 3.3311 10.7173 3.43285 10.587 3.50927C10.4568 3.58568 10.3118 3.63509 10.1611 3.65449C9.61193 3.68176 9.0616 3.62436 8.53082 3.48441C8.58673 3.33247 8.68959 3.20104 8.82504 3.10803C8.96048 3.01502 9.12219 2.96497 9.28792 2.96471L9.3263 2.93639ZM7.55103 3.98525C7.80792 3.81742 8.11614 3.74065 8.42421 3.76787L9.65653 3.91909C9.58362 4.05852 9.4764 4.17809 9.3443 4.26716C9.21221 4.35622 9.05909 4.41195 8.89942 4.42933C8.40456 4.42933 7.92907 4.42933 7.4051 4.42933H7.28902C7.2909 4.34799 7.31191 4.26815 7.35062 4.19604C7.38932 4.12393 7.44466 4.06149 7.51218 4.01356L7.55103 3.98525ZM6.22159 5.14748C6.37244 4.98376 6.56079 4.85729 6.77165 4.77843C6.98252 4.69958 7.20987 4.67062 7.43448 4.69394L8.40479 4.76949L8.33704 4.91125C8.20448 5.08127 8.03427 5.22036 7.83956 5.31843C7.64486 5.4165 7.43041 5.47108 7.21132 5.47819H6.00791C6.05447 5.37141 6.11322 5.27005 6.18274 5.17586L6.22159 5.14748ZM5.15415 6.23417C5.46537 5.94706 5.88016 5.79088 6.30876 5.79949H7.27908C7.19726 5.98112 7.07447 6.1425 6.91995 6.27172C6.76542 6.40093 6.58321 6.49466 6.38646 6.54595C5.94012 6.6499 5.47443 6.69718 4.98927 6.76333C4.96815 6.67608 4.96829 6.5852 4.99022 6.49814C5.01215 6.41109 5.05512 6.33031 5.1153 6.26249L5.15415 6.23417ZM4.18384 7.47202C4.39982 7.22822 4.70034 7.07014 5.02812 7.02788C5.39684 6.97118 5.75578 6.93342 6.16331 6.88617C6.1303 7.04098 6.05805 7.18523 5.95295 7.30575C5.84785 7.42626 5.71314 7.51917 5.5616 7.57595C5.06675 7.74603 4.59146 7.86885 4.03839 8.02003C4.00965 7.93339 4.00171 7.84149 4.01517 7.75139C4.02863 7.66129 4.0632 7.57542 4.11609 7.50034L4.18384 7.47202ZM3.35898 8.71933C3.54811 8.48872 3.80584 8.32045 4.09666 8.23741C4.46538 8.14291 4.83379 8.07676 5.24133 7.99172C5.20512 8.18442 5.12068 8.36545 4.99543 8.51874C4.87018 8.67203 4.70823 8.79284 4.52354 8.87049C4.10631 9.04058 3.66982 9.16345 3.22347 9.31463C3.18128 9.22294 3.16509 9.1218 3.17704 9.022C3.189 8.9222 3.22849 8.82742 3.29123 8.74764L3.35898 8.71933ZM2.57297 10.1461C2.71662 9.94441 2.90169 9.77392 3.1164 9.64533C3.52433 9.47352 3.94232 9.3252 4.36814 9.20119L4.41694 9.26734C4.38971 9.47005 4.31046 9.66286 4.18668 9.82799C4.0629 9.99311 3.89859 10.1252 3.70863 10.2123C3.33021 10.3918 2.93195 10.5336 2.53412 10.7036C2.47004 10.6309 2.43278 10.5396 2.42752 10.4439C2.42225 10.3482 2.44949 10.2535 2.50522 10.1745L2.57297 10.1461ZM1.97173 11.573C2.07615 11.3159 2.27246 11.1045 2.52464 10.9777C2.90306 10.7981 3.28145 10.6469 3.69868 10.4674C3.7079 10.6144 3.68387 10.7617 3.62856 10.8988C3.57325 11.0359 3.48793 11.1596 3.3784 11.2612C2.96166 11.6171 2.48157 11.8957 1.96179 12.0833C1.91008 12.0147 1.87771 11.9343 1.8675 11.8498C1.8573 11.7653 1.86955 11.6797 1.90351 11.6013L1.97173 11.573ZM3.01927 15.7306C3.23274 15.7306 3.3007 15.7968 3.3007 15.948C3.30987 16.0864 3.30987 16.2253 3.3007 16.3637C3.3007 16.5055 3.17496 16.5433 2.9809 16.496L3.13582 16.1559L3.01927 15.7306ZM1.506 12.9903C1.64604 12.7571 1.82643 12.5493 2.03949 12.3762C2.39531 12.153 2.76484 11.951 3.14577 11.7714C3.15393 11.9067 3.15393 12.0424 3.14577 12.1777C3.07738 12.4331 2.9236 12.6591 2.70894 12.8203C2.34993 13.0754 1.98131 13.3211 1.59318 13.5762C1.51561 13.5072 1.45959 13.4182 1.43209 13.3194C1.4046 13.2207 1.40662 13.1164 1.43778 13.0187L1.506 12.9903ZM1.1663 14.5211C1.25999 14.2898 1.39825 14.0781 1.57376 13.8975C1.90366 13.6235 2.28197 13.4061 2.67009 13.1416C2.70674 13.3271 2.69695 13.5186 2.64119 13.6996C2.58544 13.8805 2.4853 14.0457 2.34982 14.181C2.0005 14.4928 1.62242 14.7668 1.244 15.0597C1.16807 14.9997 1.11101 14.9198 1.08007 14.8294C1.04913 14.739 1.04543 14.6419 1.06917 14.5495L1.1663 14.5211ZM0.981997 16.0047C1.02146 15.8261 1.10074 15.6584 1.21463 15.5133C1.55424 15.1732 1.94251 14.8708 2.34034 14.5684C2.38684 14.716 2.40069 14.8716 2.38061 15.0247C2.36053 15.1779 2.30688 15.3251 2.22379 15.4566C2.02012 15.7217 1.79958 15.9741 1.56381 16.2126C1.42796 16.3543 1.26303 16.4772 1.09807 16.6283C1.01011 16.5582 0.945659 16.464 0.912825 16.358C0.879991 16.252 0.880315 16.1389 0.913772 16.033L0.981997 16.0047ZM0.923722 17.4693C1.00213 17.1014 1.20329 16.7691 1.49605 16.5244L2.15604 15.9385C2.22722 16.1617 2.23573 16.3993 2.18115 16.6269C2.12657 16.8545 2.01057 17.0637 1.84523 17.233C1.59295 17.4976 1.35036 17.7812 1.09807 18.0552C1.01089 17.9912 0.94262 17.906 0.900033 17.8081C0.857445 17.7102 0.842049 17.6031 0.855497 17.4977L0.923722 17.4693ZM0.991473 19.0473C1.03279 18.8046 1.11847 18.571 1.244 18.3575C1.50593 18.0293 1.78429 17.7139 2.07834 17.4126C2.1507 17.5601 2.18825 17.7215 2.18825 17.885C2.18825 18.0485 2.1507 18.21 2.07834 18.3575C1.83576 18.7922 1.54457 19.1891 1.25348 19.6332C1.15301 19.5767 1.06977 19.4954 1.01185 19.3975C0.953926 19.2997 0.923534 19.1886 0.923722 19.0757L0.991473 19.0473ZM1.48658 21.1073C1.36007 21.0165 1.26673 20.8883 1.22126 20.7418C1.17579 20.5953 1.18037 20.4385 1.23405 20.2947C1.31541 20.0422 1.42963 19.8008 1.57376 19.5765C1.74815 19.3276 1.93609 19.0878 2.13661 18.8583C2.21749 18.9872 2.27032 19.1308 2.29201 19.2803C2.31371 19.4298 2.30369 19.5821 2.26264 19.7277C2.21584 19.8975 2.14373 20.0599 2.04896 20.2096C1.80638 20.5403 1.61242 20.8238 1.41835 21.1356L1.48658 21.1073ZM1.90351 22.5814C1.81744 22.5416 1.74253 22.4821 1.68509 22.4081C1.62766 22.3341 1.58954 22.2476 1.57376 22.1561C1.51799 21.8914 1.55214 21.6161 1.67088 21.3718L2.33039 20.2474C2.42524 20.3536 2.49456 20.4792 2.53317 20.6149C2.57178 20.7506 2.5787 20.893 2.55354 21.0317C2.38976 21.5873 2.14839 22.1183 1.83576 22.6097L1.90351 22.5814ZM2.43747 24.0082C2.31937 23.9632 2.21847 23.8835 2.14893 23.7803C2.07939 23.677 2.04427 23.5552 2.04896 23.4317C2.04654 23.1623 2.0895 22.8942 2.17546 22.638C2.3016 22.3073 2.49544 22.0049 2.67009 21.6931C2.80648 21.8651 2.89651 22.0676 2.9321 22.2821C2.96768 22.4967 2.94765 22.7164 2.87382 22.9215C2.67976 23.29 2.51479 23.6585 2.36924 24.0365L2.43747 24.0082ZM3.10692 25.3689C2.95478 25.315 2.82538 25.2133 2.73927 25.0798C2.65316 24.9463 2.61503 24.7887 2.63124 24.6318C2.62615 24.43 2.65598 24.2288 2.71889 24.0365C2.82563 23.7058 2.97108 23.394 3.10692 23.0916C3.22219 23.1755 3.31414 23.2858 3.37509 23.4127C3.43603 23.5397 3.46394 23.6793 3.4561 23.8192C3.41586 24.1883 3.35084 24.5544 3.26185 24.9153C3.19059 25.082 3.10648 25.2431 3.0098 25.3972L3.10692 25.3689ZM4.07724 25.5767C4.07724 25.898 3.96063 26.2098 3.90241 26.5217C3.90241 26.6918 3.80538 26.7296 3.65983 26.6067C3.52115 26.4929 3.41527 26.346 3.35234 26.1804C3.28942 26.0148 3.27147 25.8361 3.3007 25.6618C3.37833 25.2271 3.52397 24.8019 3.64041 24.3484C3.82026 24.5012 3.95371 24.6993 4.02559 24.921C4.09748 25.1427 4.10495 25.3794 4.04786 25.6051L4.07724 25.5767ZM4.79502 27.7879C4.79502 27.7879 4.79521 27.8824 4.74669 27.9485C4.58696 27.9055 4.44503 27.815 4.34066 27.6897C4.23629 27.5643 4.17459 27.4104 4.16441 27.2493C4.14195 26.9053 4.15851 26.5599 4.21321 26.2193C4.25003 26.0152 4.29853 25.8133 4.35866 25.6146C4.51946 25.7169 4.65107 25.8572 4.74101 26.0224C4.83095 26.1877 4.87608 26.3725 4.87272 26.5595C4.83391 27.0036 4.79523 27.4099 4.76612 27.8162L4.79502 27.7879ZM5.76533 29.0919C5.6567 29.0875 5.55108 29.0567 5.45785 29.0022C5.36461 28.9477 5.28693 28.8713 5.23185 28.7801C5.04819 28.4992 4.966 28.1666 4.99875 27.8351C4.99875 27.5139 5.07649 27.1831 5.1153 26.8335C5.22053 26.875 5.31576 26.9378 5.39436 27.0175C5.47295 27.0973 5.53335 27.1924 5.57155 27.2965C5.66267 27.5731 5.72439 27.8581 5.75586 28.147C5.80437 28.4682 5.78476 28.78 5.78476 29.1202L5.76533 29.0919ZM6.85219 30.1502C6.7536 30.1543 6.65571 30.1338 6.56745 30.0909C6.47919 30.0479 6.40344 29.9838 6.34761 29.9045C6.14847 29.6518 6.03633 29.3442 6.02734 29.0257C6.02734 28.6667 6.02734 28.317 6.02734 27.9296C6.17571 27.9866 6.3087 28.0758 6.41631 28.1904C6.52393 28.305 6.60347 28.4421 6.64847 28.5911C6.7455 29.0824 6.79422 29.536 6.86214 30.0651C6.89125 30.1218 6.89105 30.1502 6.89105 30.1785L6.85219 30.1502ZM5.25128 24.6791C5.13484 24.4428 5.0086 24.2255 4.91157 23.9987C4.90927 23.9517 4.91878 23.9048 4.93905 23.862C4.95932 23.8192 4.98986 23.7819 5.02812 23.753C5.29011 23.5924 5.57135 23.4696 5.84303 23.3373C5.87071 23.321 5.90144 23.3104 5.93353 23.3064C5.96561 23.3023 5.99819 23.3048 6.02923 23.3137C6.06027 23.3226 6.08932 23.3377 6.11404 23.358C6.13876 23.3783 6.15859 23.4034 6.17279 23.4317L6.32819 23.7058L6.99765 23.3751L7.17247 23.7058L5.25128 24.6791ZM7.57045 30.9345C7.39713 30.7378 7.26487 30.5099 7.18195 30.2636C7.10685 29.8385 7.05834 29.4093 7.0365 28.9785C7.19227 29.0167 7.33583 29.0919 7.45438 29.1974C7.57292 29.303 7.66294 29.4355 7.71591 29.5832C7.85175 30.0084 7.93915 30.4526 8.03618 30.8872C8.03618 30.9534 8.03618 31.0195 8.03618 31.0951C7.95635 31.1105 7.87383 31.1065 7.79597 31.0834C7.71812 31.0603 7.64737 31.0189 7.58988 30.9628L7.57045 30.9345ZM8.77339 31.7754C8.50184 31.5082 8.33407 31.1576 8.29819 30.7833C8.29819 30.5093 8.201 30.2353 8.14279 29.9234C8.30415 29.9575 8.45584 30.026 8.58672 30.1241C8.7176 30.2221 8.8242 30.3472 8.89942 30.4904C9.03601 30.7979 9.15302 31.1135 9.24907 31.4353C9.30241 31.6121 9.34443 31.792 9.3751 31.9739C9.27737 31.9838 9.17869 31.9738 9.08514 31.9445C8.9916 31.9152 8.90517 31.8673 8.83167 31.8038L8.77339 31.7754ZM10.0446 32.4841C9.91623 32.3842 9.81625 32.2542 9.75365 32.1062C9.5984 31.681 9.47185 31.2463 9.3263 30.7927H9.4817C9.75481 30.869 9.9917 31.0362 10.1512 31.2652C10.4144 31.7078 10.6106 32.1853 10.7334 32.6826C10.6164 32.7153 10.4926 32.7167 10.3748 32.6868C10.257 32.6569 10.1497 32.5967 10.064 32.5125L10.0446 32.4841ZM11.636 33.2495C11.4196 33.1035 11.2349 32.9173 11.0926 32.7015C10.9018 32.3108 10.7334 31.9102 10.588 31.5014C10.7681 31.5069 10.9441 31.5533 11.1025 31.637C11.2609 31.7207 11.3972 31.8393 11.5 31.9834C11.7523 32.3897 11.9658 32.8338 12.2083 33.2779C12.1246 33.3261 12.0289 33.3516 11.9316 33.3516C11.8344 33.3516 11.7392 33.3261 11.6554 33.2779L11.636 33.2495ZM13.1204 33.7881C12.859 33.6882 12.64 33.5051 12.4992 33.2684C12.3052 32.8999 12.1212 32.5219 11.9174 32.1251C12.104 32.1236 12.2884 32.1637 12.4566 32.2423C12.6248 32.3209 12.7723 32.436 12.8877 32.5787C13.1594 32.9566 13.3921 33.363 13.6444 33.7598C13.5721 33.8102 13.4877 33.8417 13.3994 33.8516C13.3112 33.8616 13.2219 33.8495 13.1398 33.8165L13.1204 33.7881ZM14.6052 34.1756C14.3787 34.0815 14.1761 33.9395 14.013 33.7598C13.757 33.407 13.5205 33.0411 13.3047 32.6637C13.4784 32.6204 13.6612 32.6249 13.8325 32.6766C14.0038 32.7283 14.1568 32.8252 14.275 32.9566C14.6146 33.3157 14.9154 33.7126 15.2453 34.1094C15.1671 34.18 15.0691 34.2266 14.9639 34.2434C14.8586 34.2602 14.7508 34.2465 14.6535 34.2039L14.6052 34.1756ZM16.1573 34.4401C15.9319 34.3686 15.7239 34.2528 15.5462 34.1C15.2454 33.7787 14.9932 33.4102 14.7118 33.0511C14.8685 33.0025 15.0353 32.9935 15.1965 33.0249C15.3577 33.0563 15.5079 33.1271 15.6333 33.2307C16.0215 33.5708 16.3906 33.9393 16.769 34.3078C16.6985 34.3897 16.6041 34.4488 16.4985 34.4775C16.3928 34.5061 16.2805 34.503 16.1768 34.4685L16.1573 34.4401ZM17.6422 34.563C17.4114 34.4949 17.197 34.3825 17.0116 34.2323C16.7108 33.9583 16.4581 33.637 16.1573 33.2874C16.3187 33.2393 16.4889 33.2254 16.6562 33.2466C16.8236 33.2678 16.9842 33.3236 17.1276 33.4102C17.2762 33.5057 17.4192 33.6098 17.555 33.722C17.8073 33.9299 18.0594 34.1567 18.3116 34.3834C18.235 34.4744 18.1317 34.5404 18.0155 34.5724C17.8993 34.6045 17.7758 34.6012 17.6616 34.563H17.6422ZM19.2431 34.563C18.9952 34.5125 18.7608 34.4127 18.5542 34.2701C18.2581 33.9975 17.9763 33.7105 17.7099 33.4102C17.9713 33.3072 18.2639 33.3072 18.5253 33.4102C19.0156 33.6477 19.4587 33.9676 19.8349 34.3551C19.7718 34.4417 19.6835 34.5077 19.5814 34.5448C19.4793 34.5819 19.3683 34.5882 19.2625 34.563H19.2431ZM20.9606 34.4212C20.6671 34.453 20.3716 34.3828 20.1262 34.2228C19.7672 33.9866 19.4467 33.7126 19.0877 33.4385C19.2715 33.3384 19.4788 33.2858 19.6894 33.2858C19.9 33.2858 20.1073 33.3384 20.2911 33.4385C20.6598 33.6559 21.019 33.9015 21.3974 34.1378C21.3645 34.2233 21.308 34.2984 21.2344 34.355C21.1609 34.4116 21.073 34.4476 20.98 34.4591L20.9606 34.4212ZM22.1152 34.1378C21.887 34.0882 21.6679 34.0054 21.4651 33.8921C21.1741 33.722 20.8928 33.5236 20.592 33.3251C20.7083 33.2328 20.846 33.1699 20.9933 33.1418C21.1405 33.1138 21.2928 33.1216 21.4362 33.1645C21.9505 33.3441 22.4064 33.5897 22.9595 33.8165C22.8811 33.9558 22.7578 34.0663 22.6089 34.1312C22.4599 34.196 22.2935 34.2116 22.1346 34.1756L22.1152 34.1378ZM23.755 33.7598C23.5735 33.7739 23.3913 33.7481 23.2215 33.6842C22.8139 33.5047 22.4159 33.2873 21.9986 33.0794C22.1463 32.9603 22.3216 32.8783 22.5094 32.8404C22.6971 32.8025 22.8919 32.81 23.076 32.8621C23.5321 33.0039 23.9684 33.2118 24.4244 33.4007C24.3698 33.523 24.2784 33.6263 24.1624 33.6971C24.0464 33.768 23.9112 33.803 23.7744 33.7976L23.755 33.7598ZM25.2398 33.2307C25.0635 33.2638 24.8821 33.2638 24.7058 33.2307C24.2789 33.0889 23.8713 32.9188 23.4347 32.7487C23.5414 32.6413 23.6699 32.5566 23.8118 32.4997C23.9537 32.4427 24.1061 32.4149 24.2595 32.418C24.8173 32.4813 25.3613 32.6313 25.8704 32.8621C25.8198 32.9802 25.7349 33.0814 25.6264 33.1535C25.5179 33.2256 25.3905 33.2655 25.2592 33.2684L25.2398 33.2307ZM26.5981 32.5881C26.2326 32.6264 25.8632 32.5778 25.5212 32.4464L24.8418 32.1912C24.9521 32.0672 25.0896 31.9688 25.2441 31.9034C25.3986 31.838 25.5661 31.8072 25.7344 31.8133C26.2516 31.8469 26.7613 31.9518 27.2482 32.1251C27.2147 32.269 27.1362 32.3992 27.0231 32.4974C26.9101 32.5957 26.7682 32.6571 26.6176 32.6731L26.5981 32.5881ZM28.3545 31.6431C28.2199 31.7485 28.0634 31.8242 27.8958 31.865C27.7283 31.9058 27.5538 31.9107 27.3841 31.8794C26.996 31.8038 26.6176 31.6999 26.1907 31.5959C26.3132 31.446 26.4698 31.326 26.6484 31.2456C26.8269 31.1652 27.0226 31.1266 27.2193 31.1329C27.6753 31.1329 28.1311 31.2369 28.6648 31.3124C28.5774 31.4363 28.4803 31.5532 28.3739 31.6621L28.3545 31.6431ZM29.4702 30.8589C29.111 31.037 28.6989 31.0871 28.3057 31.0006L27.4325 30.8778C27.4886 30.7664 27.5691 30.6683 27.6679 30.59C27.7668 30.5117 27.8814 30.4551 28.0048 30.4242C28.2408 30.3536 28.4857 30.3154 28.7325 30.3108C29.0819 30.3108 29.441 30.3108 29.8 30.3581C29.7965 30.463 29.7665 30.5654 29.7123 30.6561C29.6581 30.7468 29.5816 30.823 29.4896 30.8778L29.4702 30.8589ZM30.5571 29.914C30.3593 30.0094 30.1459 30.0701 29.9265 30.0935C29.5092 30.0935 29.0822 30.0935 28.6165 30.0935C28.6921 29.9351 28.8038 29.7956 28.9434 29.6859C29.083 29.5761 29.2469 29.499 29.4219 29.4604C29.9168 29.3942 30.3921 29.3848 30.984 29.347C30.916 29.6305 30.8094 29.8384 30.5765 29.9234L30.5571 29.914ZM31.8671 28.61C31.7321 28.7623 31.5651 28.8848 31.3777 28.9696C31.1903 29.0543 30.9868 29.0992 30.7802 29.1013C30.4503 29.1013 30.1201 29.1013 29.7417 29.1013C29.8053 28.9455 29.9035 28.8054 30.0293 28.6911C30.1551 28.5767 30.3055 28.4909 30.4694 28.4399C30.7405 28.3713 31.0162 28.3208 31.2943 28.2887L31.9832 28.2037L32.032 28.2509C31.9956 28.378 31.9465 28.5014 31.8861 28.6194L31.8671 28.61ZM32.7109 27.5611C32.4752 27.7706 32.1821 27.9085 31.8671 27.958C31.5081 28.0147 31.1584 28.0336 30.7703 28.0808C30.825 27.8972 30.9255 27.7296 31.0626 27.5928C31.1997 27.456 31.3692 27.3542 31.5563 27.2965C31.9929 27.1642 32.4586 27.0886 32.9341 26.9752C32.9582 27.0831 32.9519 27.1954 32.9161 27.3001C32.8802 27.4049 32.8161 27.4983 32.7303 27.5705L32.7109 27.5611ZM33.6329 26.191C33.4648 26.3815 33.2604 26.5387 33.0312 26.654C32.614 26.7957 32.1675 26.8618 31.7017 26.9752C31.7316 26.8052 31.803 26.6445 31.9093 26.5064C32.0156 26.3684 32.1541 26.2571 32.3134 26.1815C32.7598 25.9831 33.2351 25.8319 33.7106 25.6524C33.757 25.7392 33.7759 25.8375 33.7656 25.9349C33.7552 26.0323 33.716 26.1246 33.6523 26.2004L33.6329 26.191ZM34.3507 24.8681C34.1858 25.0779 33.9777 25.2517 33.7395 25.3783C33.3483 25.5375 32.9465 25.6701 32.5366 25.7752C32.5518 25.5752 32.6207 25.3825 32.7365 25.2167C32.8523 25.0508 33.0106 24.9176 33.1961 24.8303C33.5939 24.6413 34.0014 24.4712 34.409 24.2917C34.473 24.3786 34.5042 24.4845 34.4971 24.5913C34.49 24.6981 34.4451 24.7993 34.3701 24.8775L34.3507 24.8681ZM35.0107 23.394C34.8854 23.6155 34.7134 23.8087 34.5061 23.961C34.0989 24.1823 33.6778 24.378 33.2449 24.5468C33.2373 24.4067 33.2592 24.2664 33.3093 24.1348C33.3594 24.0032 33.4363 23.883 33.5358 23.7814C33.7089 23.6184 33.9009 23.4757 34.1081 23.3562C34.3895 23.1956 34.6807 23.0632 34.9912 22.9215C35.0485 22.9879 35.0828 23.07 35.0898 23.1564C35.0967 23.2428 35.076 23.3292 35.0301 23.4034L35.0107 23.394ZM35.457 21.986C35.3273 22.2182 35.1565 22.4261 34.9524 22.6003C34.597 22.8214 34.2274 23.0201 33.8461 23.1955C33.821 23.0473 33.833 22.8955 33.8802 22.7525C33.9275 22.6096 34.0089 22.4796 34.1181 22.3734C34.5027 21.987 34.9524 21.6675 35.4475 21.4285C35.5095 21.5096 35.5451 21.6068 35.5503 21.7077C35.5555 21.8086 35.5297 21.9088 35.4764 21.9955L35.457 21.986ZM35.7867 20.512C35.685 20.7487 35.537 20.9638 35.3504 21.145C35.0232 21.3964 34.6796 21.6268 34.3218 21.8349H34.2635C34.2685 21.6791 34.2881 21.5241 34.3218 21.3718C34.3604 21.2129 34.4403 21.0664 34.5544 20.9467C34.9231 20.6065 35.3114 20.2852 35.6995 20.0017C35.7675 20.0687 35.8142 20.1536 35.8332 20.246C35.8521 20.3383 35.8425 20.4341 35.8061 20.5214L35.7867 20.512ZM35.9909 19.0568C35.9409 19.2466 35.8443 19.4217 35.7095 19.567C35.3796 19.8789 35.0108 20.1529 34.6421 20.4553C34.5907 20.3294 34.5708 20.1935 34.5843 20.0587C34.5978 19.9239 34.6444 19.7942 34.7198 19.6804C34.9332 19.3969 35.1755 19.1324 35.4181 18.8678C35.6607 18.6032 35.7189 18.5938 35.8839 18.4426C35.9637 18.5241 36.0176 18.6266 36.0383 18.7374C36.059 18.8482 36.0457 18.9625 36.0004 19.0662L35.9909 19.0568ZM36.0587 17.5638C35.9422 17.8453 35.7855 18.1094 35.5929 18.3481C35.3595 18.5969 35.1062 18.8275 34.8358 19.0379C34.767 18.8431 34.7495 18.6345 34.7851 18.4314C34.8208 18.2283 34.9082 18.0372 35.0396 17.8756L35.9033 16.9307C35.9942 17.005 36.0597 17.1045 36.0909 17.2159C36.1221 17.3274 36.1177 17.4454 36.0781 17.5543L36.0587 17.5638Z" fill="white" fill-opacity="0.47"/>
<path d="M23.2798 20.3892C23.2467 20.328 23.2291 20.2599 23.2291 20.1907C23.2291 20.1216 23.2467 20.0535 23.2798 19.9923C23.6719 19.3768 23.9265 18.6878 24.027 17.9702C24.0329 17.8939 24.0567 17.8199 24.0971 17.7543C24.1376 17.6887 24.1933 17.6332 24.2596 17.5922L28.8203 14.3322L29.2372 14.0298H29.0629H26.792H23.3864C23.3157 14.0328 23.2457 14.0178 23.1827 13.9864C23.1198 13.9549 23.066 13.908 23.0273 13.8503C22.4456 13.0695 21.653 12.4611 20.7375 12.0927C20.6531 12.0615 20.577 12.0121 20.5148 11.9483C20.4527 11.8846 20.406 11.808 20.3784 11.7242C19.8835 10.2974 19.408 8.88943 18.8841 7.45315C18.7676 7.12243 18.6418 6.79172 18.506 6.4043L18.3989 6.65939C17.7779 8.36025 17.1475 10.0706 16.5265 11.7809C16.5052 11.8472 16.4686 11.9079 16.4199 11.9586C16.3712 12.0093 16.3115 12.0487 16.2451 12.0738C15.3074 12.4503 14.497 13.0756 13.9065 13.8786C13.8735 13.9287 13.827 13.9692 13.7724 13.9958C13.7178 14.0224 13.6571 14.0342 13.5962 14.0298H7.93916H7.70605L7.93916 14.2094L12.6353 17.5639C12.7288 17.6363 12.7968 17.7354 12.8296 17.8473C12.9302 18.6062 13.1912 19.3366 13.5962 19.9923C13.6274 20.0574 13.6435 20.1283 13.6435 20.2002C13.6435 20.272 13.6274 20.343 13.5962 20.4081L11.8493 26.1626C11.8493 26.2193 11.8492 26.2855 11.791 26.3989C11.8711 26.3555 11.9491 26.3083 12.0241 26.2572L17.2249 22.7326C17.283 22.688 17.3508 22.6564 17.4229 22.6401C17.495 22.6237 17.5699 22.6231 17.6423 22.6381C18.1854 22.7232 18.7389 22.7232 19.282 22.6381C19.3545 22.6231 19.4293 22.6237 19.5014 22.6401C19.5735 22.6564 19.6413 22.688 19.6995 22.7326L24.8514 26.2193L25.1428 26.4083C25.1428 26.2666 25.0942 26.1721 25.0651 26.0871C24.4732 24.1689 23.8717 22.279 23.2798 20.3892ZM18.3795 22.279C16.9878 22.2493 15.664 21.6894 14.6915 20.7195C13.7191 19.7495 13.1759 18.4469 13.1787 17.0914C13.18 16.4163 13.3179 15.7481 13.5843 15.1249C13.8508 14.5018 14.2408 13.9358 14.7318 13.4593C15.2229 12.9829 15.8055 12.6053 16.4464 12.3481C17.0873 12.091 17.774 11.9592 18.4671 11.9605C19.1669 11.9579 19.8598 12.0909 20.5063 12.3516C21.1528 12.6123 21.7398 12.9957 22.2328 13.4793C22.7258 13.9629 23.1149 14.5371 23.3779 15.1686C23.6409 15.8 23.7727 16.4761 23.765 17.1575C23.7613 17.8395 23.6183 18.5139 23.3448 19.1416C23.0712 19.7694 22.6726 20.338 22.1717 20.8145C21.6707 21.2909 21.0772 21.6657 20.4262 21.9171C19.7753 22.1685 19.0796 22.2915 18.3795 22.279Z" fill="white" fill-opacity="0.47"/>
<path d="M22.4162 18.707L21.1256 18.9244C20.883 18.9244 20.8733 18.9244 20.9413 19.1889C21.0092 19.4535 20.9412 19.3969 20.8441 19.4535C20.4948 19.6142 20.1651 19.8032 19.8061 19.9355C19.7244 19.9721 19.6359 19.9918 19.546 19.9934C19.4561 19.9949 19.3665 19.9783 19.2835 19.9446C19.2005 19.9108 19.1257 19.8607 19.0637 19.7973C19.0016 19.7339 18.9536 19.6587 18.9229 19.5764C18.8359 19.3855 18.7866 19.1803 18.7775 18.9716C18.7775 17.8944 18.7775 16.8172 18.7775 15.7305C18.7775 15.5983 18.8262 15.5605 18.9523 15.5605H19.9226C20.0876 15.5605 20.1552 15.5037 20.1358 15.3431C20.1261 15.2995 20.1261 15.2544 20.1358 15.2108C20.1358 15.0408 20.0873 14.9652 19.8933 14.9746H18.8163C18.7964 14.843 18.7964 14.7093 18.8163 14.5777C18.8163 14.5777 18.9908 14.5777 19.0878 14.521C19.2351 14.4777 19.3648 14.3908 19.4588 14.2721C19.5528 14.1535 19.6062 14.0093 19.6118 13.8596C19.6544 13.6773 19.6352 13.4864 19.5564 13.3159C19.4776 13.1454 19.3439 13.0045 19.1755 12.9147C18.7757 12.7253 18.3147 12.6981 17.8944 12.8391C17.6837 12.9064 17.5056 13.0462 17.3931 13.2323C17.2806 13.4184 17.2414 13.6381 17.2832 13.8502C17.2832 14.247 17.5648 14.4738 18.0403 14.5399H18.1275V14.9652H17.2348C16.7982 14.9652 16.8271 14.8801 16.8174 15.3809C16.8174 15.5227 16.8756 15.5605 17.0212 15.5605H18.1469C18.1469 15.6455 18.1469 15.7211 18.1469 15.7967V17.1952C18.1469 17.8377 18.1469 18.4897 18.1469 19.085C18.1697 19.2292 18.1486 19.3767 18.0862 19.5093C18.0239 19.6419 17.9228 19.7539 17.7958 19.8313C17.6689 19.9086 17.5215 19.9481 17.3718 19.9448C17.222 19.9415 17.0766 19.8956 16.9534 19.8126C16.6914 19.6992 16.4488 19.5575 16.1868 19.4441C15.9249 19.3307 15.9441 19.2551 16.0314 19.0756C16.1188 18.896 16.0313 18.8961 15.8955 18.8772L14.5471 18.6598H14.314L15.6628 20.4741L15.7694 19.8032C15.8575 19.8541 15.942 19.9109 16.022 19.9732L17.9626 21.3812C18.016 21.4352 18.0798 21.4782 18.1507 21.5075C18.2215 21.5369 18.2978 21.552 18.3748 21.552C18.4518 21.552 18.528 21.5369 18.5989 21.5075C18.6697 21.4782 18.7336 21.4352 18.787 21.3812C19.243 21.0599 19.6897 20.7197 20.1458 20.389L20.9995 19.7748L21.1355 20.5496L22.5228 18.6598L22.4162 18.707ZM18.1857 13.9824C18.0402 14.0769 17.9428 13.9824 17.8555 13.9068C17.8175 13.8562 17.7916 13.7982 17.7788 13.7367C17.766 13.6752 17.7668 13.6118 17.7816 13.5508C17.7963 13.4897 17.8244 13.4325 17.864 13.3831C17.9036 13.3336 17.9537 13.2931 18.0109 13.2643C18.1709 13.1997 18.3368 13.149 18.506 13.1131C18.9135 13.1131 19.1947 13.3115 19.2238 13.595C19.2176 13.7373 19.1628 13.8736 19.0684 13.9824C18.9908 14.0958 18.8745 13.9824 18.7775 13.9824C18.6834 13.9233 18.5723 13.895 18.4605 13.9018C18.3488 13.9086 18.2421 13.9501 18.1564 14.0202L18.1857 13.9824Z" fill="white" fill-opacity="0.47"/>
<path d="M14.9347 17.9707C14.9347 17.7534 14.9347 17.536 14.9347 17.3092H15.1096C15.4395 17.3092 15.6042 17.2147 15.6042 16.8935V15.9485C15.6042 15.7029 15.5071 15.5801 15.2645 15.5706C15.0219 15.5612 14.6826 15.5706 14.3818 15.5706V18.1597H14.7116C14.8765 18.1975 14.9444 18.1408 14.9347 17.9707ZM14.9347 15.958C15.0325 16.3076 15.0325 16.6762 14.9347 17.0258V15.958Z" fill="white" fill-opacity="0.47"/>
<path d="M22.0179 18.1796C22.5516 18.1796 22.6101 18.1796 22.6101 17.6127C22.6101 17.2347 22.6098 17.2441 22.2216 17.2536C22.0955 17.2536 22.0376 17.3008 22.0473 17.4237V17.8017H21.9696V16.0063H22.0279V16.4693H22.5808C22.5955 16.2837 22.5955 16.0974 22.5808 15.9118C22.5783 15.8712 22.5676 15.8315 22.549 15.7951C22.5305 15.7586 22.5044 15.7262 22.4727 15.6997C22.441 15.6733 22.4045 15.6533 22.3647 15.641C22.3249 15.6288 22.2826 15.6245 22.2411 15.6283H21.7753C21.4745 15.6283 21.3584 15.7417 21.3584 16.0252C21.3584 16.5449 21.3584 17.0552 21.3584 17.5654C21.3584 18.0757 21.4454 18.1796 22.0179 18.1796Z" fill="white" fill-opacity="0.47"/>
</svg>
