<svg width="36" height="35" viewBox="0 0 36 35" fill="none" xmlns="http://www.w3.org/2000/svg">
<path d="M30.7297 17.4604C30.7452 20.6225 29.5078 23.6685 27.2753 25.9647C25.0832 28.2993 22.0387 29.7038 18.7951 29.8767C15.8015 30.1086 12.8247 29.2611 10.4309 27.4955C8.80066 26.3516 7.47474 24.845 6.56334 23.1011C5.65195 21.3572 5.18155 19.4265 5.19126 17.4698H0V18.3581C0.02348 18.4004 0.0430232 18.4446 0.0582756 18.4903C0.116494 19.0667 0.155496 19.6526 0.252527 20.229C0.52288 21.9538 1.06592 23.6273 1.86292 25.1898C2.47241 26.4116 3.23162 27.557 4.12383 28.601C4.78985 29.385 5.52374 30.1121 6.31698 30.7743C7.7021 31.9267 9.25933 32.8667 10.9354 33.5619C12.1297 34.0732 13.3846 34.4382 14.6712 34.6486C15.4184 34.7714 16.175 34.8375 16.9222 34.9226H17.0293H18.8922C18.9313 34.8981 18.9737 34.879 19.0182 34.8659C19.5519 34.8092 20.1049 34.7903 20.6386 34.7052C21.3566 34.5824 22.0748 34.4407 22.7734 34.2517C24.6222 33.7699 26.3739 32.9872 27.9547 31.9366C29.3169 31.0456 30.5477 29.9774 31.6128 28.7617C32.7984 27.4109 33.764 25.8907 34.4754 24.2544C35.0004 23.0979 35.3751 21.8821 35.5912 20.6353C35.7076 19.9077 35.7756 19.1707 35.8726 18.4431C35.868 18.4054 35.868 18.3673 35.8726 18.3297V17.3848L30.7297 17.4604ZM3.02749 22.9504L4.40525 22.5157H4.24038C3.82314 22.5157 3.39592 22.5157 2.97869 22.5157C2.79433 22.5157 2.83342 22.374 2.78491 22.2889C2.77491 22.273 2.76842 22.2553 2.76596 22.2368C2.76349 22.2184 2.7652 22.1996 2.7707 22.1818C2.77619 22.1639 2.7852 22.1474 2.7977 22.1333C2.8102 22.1192 2.82586 22.1078 2.84318 22.0999L3.8135 21.3535L3.93005 21.259L2.55181 21.6936L2.4163 21.2778L4.48295 20.6258C4.55088 20.8243 4.61874 21.0039 4.66726 21.1928C4.66726 21.1928 4.66743 21.2873 4.59951 21.3157L3.57092 22.0622L3.42547 22.1755H4.88093C4.91815 22.17 4.95583 22.1787 4.98659 22.1999C5.01735 22.221 5.03871 22.2529 5.04581 22.2889C5.09433 22.459 5.15247 22.6196 5.21069 22.8086L3.13409 23.4606L3.02749 22.9504ZM4.29865 25.5017C4.28992 25.4644 4.28992 25.4256 4.29865 25.3883C4.38598 25.2844 4.53153 25.1899 4.54123 25.0765C4.55093 24.9631 4.43457 24.8497 4.37635 24.7363C4.31813 24.6229 4.26941 24.4623 4.16268 24.415C4.05594 24.3678 3.91026 24.415 3.78412 24.415H3.66804C3.59042 24.2827 3.52227 24.1504 3.43494 24.0087L5.22016 23.763H5.38552C5.74453 23.763 5.74434 23.763 5.919 24.0276L5.97727 24.141L4.46353 25.8513C4.4018 25.7379 4.3468 25.6212 4.29865 25.5017ZM6.05497 27.8545C5.96765 27.7412 5.8706 27.6372 5.79297 27.5238C5.71535 27.4105 5.79297 27.4199 5.79297 27.3726C5.94822 26.938 6.11293 26.5127 6.26818 26.0781C6.27285 26.0341 6.27285 25.9898 6.26818 25.9458L5.29786 26.6734L5.15241 26.7868L4.87098 26.4466L6.57898 25.1332C6.67205 25.2324 6.75953 25.3365 6.84098 25.445C6.85554 25.4944 6.85554 25.5468 6.84098 25.5962L6.3653 26.8812C6.3653 26.8812 6.36547 26.9852 6.29755 27.0797L7.45217 26.1915L7.72364 26.5316L6.05497 27.8545ZM8.85883 27.9679C8.63566 28.516 8.41279 29.064 8.19932 29.6121L8.1311 29.7633L7.7625 29.442C7.82071 29.3192 7.87886 29.1963 7.92737 29.0735C7.94292 29.0274 7.94292 28.9778 7.92737 28.9318L7.37446 28.4499L6.99591 28.6482C6.97623 28.6575 6.95473 28.6623 6.9329 28.6623C6.91106 28.6623 6.88956 28.6575 6.86988 28.6482L6.56903 28.3932L6.70501 28.3175L8.50965 27.3726C8.52422 27.3565 8.54217 27.3437 8.56224 27.3348C8.58232 27.326 8.60418 27.3215 8.62621 27.3215C8.64823 27.3215 8.67009 27.326 8.69017 27.3348C8.71024 27.3437 8.72819 27.3565 8.74276 27.3726C8.98533 27.6561 8.98497 27.6561 8.85883 27.9679ZM9.92627 30.4814C10.0207 30.5057 10.1208 30.4984 10.2105 30.4607C10.3003 30.423 10.3747 30.3571 10.4214 30.2735L10.0234 30.0279L10.2077 29.7349L10.9838 30.2074L10.3631 31.1523L10.1106 31.0012L10.1788 30.7932C10.0336 30.8075 9.88715 30.8075 9.74197 30.7932C9.55759 30.7404 9.3924 30.6378 9.26534 30.4973C9.13829 30.3569 9.0548 30.1843 9.02419 29.9995C9.00077 29.7032 9.0851 29.4082 9.2625 29.1664C9.4399 28.9245 9.69905 28.7512 9.9945 28.6766C10.1341 28.6525 10.2769 28.6568 10.4147 28.6891C10.5526 28.7215 10.6822 28.7812 10.7952 28.8646C10.9082 28.948 11.0022 29.0533 11.0714 29.1738C11.1406 29.2943 11.1836 29.4274 11.1974 29.5649C11.1912 29.6924 11.1716 29.8191 11.1392 29.9428C11.0033 29.8578 10.8868 29.8011 10.78 29.7255C10.7731 29.7107 10.7696 29.6945 10.7696 29.6782C10.7696 29.6619 10.7731 29.6458 10.78 29.631C10.8771 29.2625 10.4116 28.9601 10.0622 29.1113C9.89285 29.1919 9.75129 29.3189 9.65479 29.4766C9.55829 29.6344 9.51098 29.8161 9.51882 29.9995C9.52961 30.1103 9.57411 30.2154 9.64674 30.3012C9.71936 30.3871 9.81672 30.4498 9.92627 30.4814ZM13.3712 30.5759L12.3037 30.1602L12.1289 30.5759L13.0992 30.9728C13.0992 31.0862 13.0117 31.1901 12.9632 31.3035L11.9929 30.9161C11.925 31.0767 11.8668 31.2279 11.7892 31.398L12.8761 31.8327L12.7306 32.1917L11.1974 31.5775C11.4788 30.9256 11.7504 30.2735 12.0318 29.6121L13.536 30.2169C13.4778 30.3397 13.4294 30.4531 13.3712 30.5759ZM15.8647 32.9477L15.4279 32.8532C15.5249 32.3807 15.622 31.9083 15.7287 31.4452L15.4861 31.8327L15.0109 32.6169C15.0027 32.642 14.989 32.665 14.9707 32.6842C14.9523 32.7035 14.9298 32.7186 14.9048 32.7285C14.8798 32.7385 14.8526 32.7429 14.8257 32.7416C14.7987 32.7403 14.7728 32.7332 14.7489 32.7209H14.5646L14.3609 31.2374L14.0695 32.6075L13.6332 32.5225C13.7787 31.8232 13.9242 31.1429 14.0795 30.4436C14.2832 30.4436 14.4866 30.5192 14.6807 30.5759C14.6807 30.5759 14.7392 30.6515 14.7489 30.6988C14.8071 31.124 14.8556 31.5586 14.9138 31.9839C14.9077 32.0246 14.9077 32.066 14.9138 32.1067C15.1273 31.7287 15.3406 31.3791 15.5444 31.0295C15.7482 30.6799 15.6902 30.7743 15.9812 30.8405L16.3498 30.9161C16.1558 31.5586 16.0102 32.2485 15.8647 32.9477ZM18.5136 31.3035H17.3685V31.7476H18.3971V32.1067H17.3491V32.6926H18.4942V33.0705H16.8445C16.8445 32.343 16.8448 31.6437 16.8933 30.9539H18.5136V31.3035ZM20.7551 32.8154C20.7037 32.8033 20.6588 32.7729 20.6291 32.7303L19.7265 31.7004C19.6957 31.6487 19.6477 31.6088 19.5905 31.587C19.6585 32.0406 19.7169 32.4847 19.7848 32.9477L19.348 33.0139C19.2412 32.3052 19.1444 31.6153 19.0376 30.9066C19.1724 30.8832 19.3084 30.8675 19.4451 30.8594C19.4744 30.8619 19.5028 30.8708 19.528 30.8856C19.5532 30.9003 19.5745 30.9205 19.5905 30.9445L20.4931 31.9839L20.6291 32.1256C20.5515 31.6343 20.4933 31.1806 20.4254 30.7176L20.8617 30.6515C20.9684 31.3508 21.0653 32.05 21.172 32.7587L20.7551 32.8154ZM23.0061 32.2579L22.5503 32.3996C22.3756 31.8421 22.2007 31.2941 22.0163 30.746L21.3957 30.935C21.3957 30.8122 21.3177 30.6988 21.2692 30.5665L22.9772 30.0373C22.9772 30.1791 23.0549 30.283 23.0937 30.4153L22.4726 30.6042C22.6472 31.1618 22.8217 31.7476 23.0061 32.2579ZM26.5187 30.5665C26.4131 30.7254 26.2697 30.8572 26.1008 30.951C25.932 31.0447 25.7426 31.0976 25.5484 31.1051C25.4181 31.1151 25.2876 31.0873 25.1736 31.025C25.0596 30.9628 24.967 30.869 24.9078 30.7555L25.2769 30.5381C25.3312 30.5942 25.3974 30.6379 25.4712 30.666C25.5449 30.694 25.6239 30.7058 25.7028 30.7003C25.7818 30.6949 25.8585 30.6724 25.9274 30.6346C25.9964 30.5967 26.0557 30.5444 26.1013 30.4814C26.1344 30.4412 26.1525 30.3912 26.1525 30.3397C26.1525 30.2882 26.1344 30.2382 26.1013 30.1979C26.0801 30.1528 26.0433 30.1166 25.9971 30.0958C25.9508 30.075 25.8983 30.071 25.8492 30.0846L25.267 30.2169C25.2026 30.2258 25.1371 30.2258 25.0727 30.2169C24.9697 30.2393 24.8622 30.2316 24.7638 30.1946C24.6654 30.1576 24.5806 30.093 24.5198 30.0089C24.4541 29.9249 24.414 29.8246 24.4037 29.7194C24.3934 29.6142 24.4133 29.5083 24.4615 29.4137C24.5592 29.2296 24.7112 29.0782 24.8979 28.9788C25.0846 28.8795 25.2977 28.8368 25.5095 28.8562C25.6037 28.8673 25.6932 28.9018 25.7696 28.9565C25.8461 29.0111 25.9071 29.0839 25.9464 29.168L25.5773 29.3853C25.5363 29.3393 25.4859 29.3024 25.429 29.2771C25.3721 29.2518 25.3101 29.2387 25.2475 29.2387C25.185 29.2387 25.123 29.2518 25.0661 29.2771C25.0092 29.3024 24.9588 29.3393 24.9178 29.3853C24.8757 29.4186 24.8469 29.4651 24.8363 29.5169C24.8257 29.5686 24.8338 29.6223 24.8595 29.6688C24.884 29.7101 24.9231 29.7415 24.9694 29.7571C25.0158 29.7728 25.066 29.7716 25.1116 29.7539L25.6455 29.6121C25.7293 29.603 25.8137 29.603 25.8976 29.6121C26.0129 29.5933 26.1317 29.6107 26.2363 29.6616C26.3409 29.7126 26.426 29.7944 26.4798 29.8956C26.5562 29.99 26.6008 30.105 26.6078 30.225C26.6147 30.3451 26.5837 30.4643 26.5187 30.5665ZM27.9453 29.6215C27.79 29.442 27.6443 29.2625 27.489 29.0924C27.4279 29.0256 27.3515 28.9738 27.2659 28.9412L26.1013 28.5349L25.9464 28.4782C26.062 28.3721 26.1851 28.2742 26.315 28.1852C26.3624 28.1713 26.413 28.1713 26.4604 28.1852L27.2948 28.4782C27.2948 28.223 27.2369 27.9869 27.1787 27.7601C27.1483 27.6871 27.147 27.6055 27.1758 27.5319C27.2046 27.4583 27.261 27.398 27.3336 27.3632L27.5473 27.1931C27.6055 27.5427 27.6539 27.8829 27.7122 28.2231V28.4593C27.7238 28.6142 27.7887 28.7606 27.8965 28.8751C28.0323 29.0074 28.1487 29.168 28.2845 29.3286L27.9453 29.6215ZM29.8859 27.864C29.7877 27.9793 29.6586 28.0658 29.513 28.1142C29.3675 28.1625 29.2111 28.1708 29.061 28.138C28.952 28.0991 28.8476 28.0485 28.7502 27.9868L29.0511 27.6561C29.1244 27.6968 29.207 27.7196 29.2913 27.7227C29.3756 27.7258 29.4591 27.709 29.5353 27.6737C29.6115 27.6385 29.6782 27.5858 29.7291 27.5202C29.7799 27.4546 29.8137 27.3781 29.8276 27.297C29.8357 27.2574 29.8344 27.2165 29.8243 27.1773C29.8142 27.1381 29.7956 27.1015 29.7693 27.0702C29.6912 27.0412 29.6049 27.0412 29.5268 27.0702C29.4196 27.1106 29.3184 27.1646 29.2259 27.2309L28.8474 27.4577C28.7535 27.5259 28.6395 27.5628 28.5223 27.5628C28.4052 27.5628 28.2912 27.5259 28.1973 27.4577C28.0983 27.383 28.0261 27.2796 27.9912 27.1625C27.9564 27.0453 27.9604 26.9204 28.0031 26.8057C28.0498 26.6458 28.1349 26.499 28.2513 26.3775C28.3677 26.2559 28.5125 26.163 28.673 26.1065C28.7818 26.0632 28.9015 26.0536 29.016 26.079C29.1306 26.1044 29.2342 26.1634 29.3131 26.2482L29.0317 26.5505C28.7309 26.4655 28.5566 26.5506 28.4304 26.749C28.3908 26.7936 28.3688 26.8506 28.3688 26.9096C28.3688 26.9686 28.3908 27.0256 28.4304 27.0702C28.5275 27.1647 28.6243 27.0702 28.7213 27.0702C28.8184 27.0702 29.129 26.8056 29.3425 26.7017C29.4228 26.6544 29.5136 26.6267 29.6073 26.6209C29.701 26.6151 29.7944 26.6315 29.8802 26.6686C29.966 26.7057 30.0412 26.7625 30.0996 26.8341C30.1579 26.9056 30.1979 26.9899 30.2156 27.0797C30.2426 27.2289 30.2291 27.3825 30.1763 27.525C30.1236 27.6675 30.0333 27.7941 29.9148 27.8923L29.8859 27.864ZM31.2442 26.097L29.7499 25.1521L29.3908 25.6812L29.0511 25.4733L30.0214 24.0087L30.3611 24.2166L30.0119 24.7552L31.4963 25.7001L31.2442 26.097ZM32.2145 24.5284L30.2251 23.6591L30.8946 22.2039L31.2537 22.3645L30.788 23.3945L31.2149 23.574C31.3604 23.2622 31.5061 22.9598 31.6517 22.6291L31.9914 22.7803L31.5546 23.7252L32.0497 23.9425C32.2049 23.5929 32.3699 23.2528 32.5348 22.8937L32.8935 23.0543L32.2145 24.5284ZM33.6601 20.4369L32.224 20.1062L33.5246 20.9188C33.4469 21.24 33.4465 21.24 33.0972 21.2684C32.7479 21.2967 32.2921 21.344 31.8748 21.4102L33.3109 21.7503C33.3109 21.8921 33.2526 22.0244 33.2138 22.1755L31.0888 21.6748C31.1373 21.4763 31.186 21.2873 31.2442 21.0983C31.2442 21.0983 31.3312 21.0322 31.3797 21.0322L32.7869 20.8999L31.4769 20.1156C31.5254 19.9077 31.574 19.6999 31.6323 19.4825L33.7477 19.9738C33.7477 20.1817 33.7086 20.314 33.6795 20.4652L33.6601 20.4369Z" fill="white" fill-opacity="0.47"/>
<path d="M5.28817 15.3644C5.3755 15.3644 5.40449 15.3644 5.4142 15.251C5.60145 14.2742 5.90759 13.3225 6.32623 12.4163C7.35307 10.1809 9.04256 8.29539 11.1778 7.00186C12.9259 5.90832 14.9274 5.2586 16.9997 5.11202C18.1211 5.01947 19.2502 5.07348 20.3569 5.27264C21.6061 5.49791 22.8132 5.90571 23.9373 6.48217C25.9283 7.5116 27.6026 9.03775 28.7889 10.9044C29.6447 12.2299 30.2341 13.7018 30.5258 15.2416C30.5258 15.3739 30.6033 15.3833 30.7101 15.3833H35.7848C35.7848 15.1566 35.7364 14.9392 35.6976 14.7219C35.5096 13.6176 35.2173 12.5327 34.8244 11.4808C33.693 8.47897 31.736 5.83775 29.1674 3.84579C27.9179 2.86745 26.537 2.05996 25.063 1.4457C23.8506 0.922551 22.5761 0.548023 21.2689 0.3307C20.5218 0.20786 19.7649 0.151186 19.008 0.0566932C18.9595 0.0566932 18.9208 0.0566955 18.882 0H17.0774H16.9608C16.0773 0.0490921 15.1986 0.159592 14.3313 0.3307C12.815 0.630679 11.3465 1.12641 9.9649 1.80478C7.71686 2.89889 5.7326 4.44475 4.14303 6.34041C2.81014 7.91004 1.76926 9.69446 1.06722 11.6131C0.632808 12.8121 0.336508 14.0544 0.184082 15.3172H0.271732L5.28817 15.3644ZM29.0897 6.14201C29.1852 6.2254 29.2629 6.32641 29.3181 6.4392C29.3733 6.55199 29.4051 6.6743 29.4114 6.79908C29.4177 6.92387 29.3986 7.04865 29.355 7.16618C29.3115 7.2837 29.2446 7.39165 29.1579 7.48379C29.0399 7.66144 28.8685 7.79939 28.6671 7.87885C28.4657 7.95831 28.244 7.97541 28.0322 7.92787C27.9408 7.91326 27.8541 7.87764 27.7797 7.82394L26.9165 7.06802L28.4203 5.51833L29.0897 6.14201ZM25.6259 3.66631L27.0231 4.48839L26.8193 4.81909L25.849 4.2427L25.6064 4.63955L26.5185 5.16871L26.3242 5.48055L25.4122 4.95139L25.1407 5.39548L26.111 5.99079L25.8973 6.32155L24.4807 5.49001C24.8786 4.87581 25.2863 4.28051 25.6259 3.66631ZM23.627 2.8064L24.0733 2.97648C23.8113 3.63792 23.5495 4.28995 23.2778 4.95139L22.8315 4.78132C23.1032 4.11987 23.3456 3.46784 23.627 2.8064ZM20.6483 2.01269L22.1421 2.32448C22.1421 2.45677 22.094 2.57018 22.0649 2.70247L21.0363 2.49456C21.0363 2.65519 20.968 2.80639 20.9292 2.97648L21.8223 3.16547C21.8223 3.27886 21.7737 3.39225 21.7446 3.51509L20.852 3.33555C20.7938 3.61903 20.7259 3.89308 20.6677 4.18601L20.2015 4.09148C20.347 3.40169 20.493 2.72139 20.6483 2.01269ZM18.4845 1.8237H18.9597C18.9597 2.52294 18.8917 3.22218 18.8626 3.94032H18.3874C18.4165 3.23163 18.494 2.54184 18.494 1.8237H18.4845ZM16.9513 1.8237C16.9513 1.95599 16.9511 2.06935 16.9997 2.21109L16.3496 2.29616L16.5534 4.00647L16.0876 4.06316C16.0197 3.49621 15.9419 2.92926 15.8739 2.35285L15.2239 2.419C15.2239 2.29616 15.2241 2.17329 15.1756 2.03155L16.9513 1.8237ZM13.1667 2.54185C13.285 2.51187 13.4105 2.5195 13.524 2.56371C13.6375 2.60791 13.7334 2.68633 13.7978 2.78748C13.8688 2.9013 13.9005 3.03429 13.8883 3.16692C13.8761 3.29954 13.8202 3.42485 13.7296 3.52455C14.011 3.52455 14.1082 3.76075 14.2053 3.96864C14.3023 4.17652 14.3311 4.22381 14.3991 4.36555L13.9722 4.50725L13.7978 4.18601C13.7637 4.10349 13.7211 4.02438 13.6713 3.94978C13.6408 3.9039 13.5965 3.86835 13.5443 3.84804C13.4922 3.82774 13.435 3.82369 13.3804 3.83639L12.8275 4.00647C12.9245 4.27105 13.0117 4.52614 13.099 4.79072L12.6527 4.94194L11.9444 2.92924C12.3616 2.79695 12.7592 2.65524 13.1667 2.54185ZM10.3724 3.65685L10.5761 3.98755L9.60577 4.5734L9.84835 4.97025L10.7509 4.4317L10.9452 4.74348L10.0426 5.27264L10.3141 5.72624L11.2844 5.13093L11.4981 5.46163L10.0815 6.30263C9.70303 5.68843 9.32469 5.09314 8.94626 4.48839L10.3724 3.65685ZM7.18994 5.88686C7.33373 5.82274 7.49344 5.80026 7.64999 5.82204C7.80654 5.84381 7.95301 5.90895 8.0726 6.00971L7.76227 6.31209C7.6514 6.25186 7.52195 6.23207 7.39746 6.25632C7.27297 6.28056 7.1619 6.34721 7.08334 6.44433C6.99864 6.54031 6.95163 6.66272 6.95163 6.78928C6.95163 6.91583 6.99864 7.03819 7.08334 7.13417C7.1873 7.27154 7.31508 7.38991 7.46142 7.48379C7.56564 7.55888 7.69483 7.5937 7.82387 7.58148C7.95291 7.56927 8.07284 7.51088 8.16025 7.41763C8.24694 7.33841 8.30004 7.23046 8.30902 7.11502C8.318 6.99958 8.28202 6.88505 8.20858 6.79401C8.20491 6.77528 8.20491 6.75604 8.20858 6.73732L8.52886 6.44433C8.68095 6.60346 8.76575 6.81284 8.76575 7.03024C8.76575 7.24764 8.68095 7.45696 8.52886 7.61609C8.38045 7.80434 8.1676 7.93452 7.92905 7.98307C7.69049 8.03161 7.44219 7.99527 7.22879 7.88064C7.00502 7.7726 6.81993 7.6009 6.69863 7.38828C6.57733 7.17565 6.52536 6.93213 6.54938 6.69002C6.57471 6.51331 6.64738 6.34615 6.75975 6.20522C6.87211 6.06429 7.02041 5.95454 7.18994 5.88686Z" fill="white" fill-opacity="0.47"/>
<path d="M29.6918 12.9629H6.35596V14.0401H29.6918V12.9629Z" fill="white" fill-opacity="0.47"/>
<path d="M18.8531 17.7633L16.8442 14.9286C16.814 14.8764 16.7663 14.8363 16.7087 14.8152H15.583V20.0123H16.7765V16.8656C16.8208 16.9286 16.8693 16.9886 16.9219 17.0452L19.2023 19.88C19.2023 19.88 19.2798 19.9744 19.3283 19.9744H20.066V14.7773H18.9597V17.8295L18.8531 17.7633Z" fill="white" fill-opacity="0.47"/>
<path d="M6.3457 21.9774H29.6915V21.4199H6.3457V21.9774Z" fill="white" fill-opacity="0.47"/>
<path d="M24.3162 16.6302C24.0105 16.3308 23.6192 16.1282 23.1934 16.049C22.7675 15.9697 22.3269 16.0176 21.9293 16.1861C21.4947 16.3748 21.1354 16.6966 20.9059 17.1026C20.6765 17.5086 20.5894 17.9764 20.6581 18.4349C20.692 18.7604 20.8232 19.069 21.0353 19.3226C21.2474 19.5762 21.5312 19.7637 21.8516 19.8618C22.4445 20.0564 23.0762 20.1115 23.6951 20.0225C24.0402 19.9738 24.3709 19.8546 24.6654 19.6728C24.7236 19.6728 24.8111 19.5783 24.8208 19.5216C24.8208 19.257 24.8208 18.983 24.8208 18.709C24.552 18.9658 24.2244 19.157 23.8652 19.267C23.506 19.3771 23.1255 19.4028 22.7542 19.3421C22.4994 19.307 22.2692 19.1748 22.1146 18.9745C21.9599 18.7743 21.8933 18.5224 21.9293 18.2743H24.8402C24.8706 17.6832 24.6849 17.1007 24.3162 16.6302ZM22.0359 17.5751C22.0548 17.3702 22.1503 17.1791 22.3041 17.0381C22.4579 16.897 22.6591 16.8158 22.8703 16.8097C23.0834 16.8093 23.2888 16.8884 23.444 17.0308C23.5992 17.1731 23.6927 17.3678 23.7051 17.5751H22.0359Z" fill="white" fill-opacity="0.47"/>
<path d="M28.2843 16.9226V16.0628H26.79V14.9477C26.7947 14.8943 26.7947 14.8406 26.79 14.7871C26.7352 14.8098 26.6835 14.8383 26.6351 14.8722C26.1305 15.4202 25.6647 15.9683 25.1019 16.5069C25.0512 16.5665 25.0167 16.6375 25.0015 16.7134C24.9862 16.7893 24.9909 16.8678 25.0148 16.9416H25.5677V18.8314C25.5533 18.884 25.5533 18.9394 25.5677 18.992C25.6609 19.2399 25.8135 19.4626 26.0125 19.6417C26.2116 19.8208 26.4517 19.9511 26.7128 20.022C27.2282 20.0929 27.753 20.0443 28.2455 19.8803C28.2602 19.8725 28.2734 19.8617 28.2834 19.8487C28.2934 19.8356 28.3002 19.8206 28.3038 19.8047V18.9448C28.2123 19.0038 28.1102 19.0455 28.0029 19.0676C27.6798 19.0881 27.3557 19.0881 27.0326 19.0676C26.8191 19.0676 26.79 18.9921 26.79 18.7842C26.79 18.1889 26.79 17.5841 26.79 16.9888C26.7856 16.948 26.7856 16.9068 26.79 16.866L28.2843 16.9226Z" fill="white" fill-opacity="0.47"/>
<path d="M8.72327 20.0411V14.8535H7.35498V20.0411H8.72327Z" fill="white" fill-opacity="0.47"/>
<path d="M5.33654 16.0625H0.0581055V16.7617H5.30764L5.33654 16.0625Z" fill="white" fill-opacity="0.47"/>
<path d="M30.6812 16.7617H35.843V16.0625H30.6812V16.7617Z" fill="white" fill-opacity="0.47"/>
<path d="M9.49006 17.9434L9.83924 17.7072L10.1884 17.9528C10.1635 17.8561 10.131 17.7613 10.0913 17.6693C10.0815 17.6521 10.0756 17.6331 10.0738 17.6135C10.0719 17.594 10.074 17.5742 10.0804 17.5555C10.0868 17.5369 10.0971 17.5197 10.1107 17.5051C10.1243 17.4905 10.1411 17.4789 10.1595 17.4709L10.4116 17.2914H10.1012C10.0819 17.2955 10.0618 17.2955 10.0425 17.2913C10.0232 17.2872 10.0051 17.279 9.98943 17.2673C9.97372 17.2556 9.96071 17.2407 9.95152 17.2236C9.94234 17.2066 9.93731 17.1878 9.93636 17.1685C9.93636 17.0835 9.86835 16.9985 9.83924 16.8945C9.78102 17.0363 9.77141 17.1874 9.69379 17.2535C9.61616 17.3197 9.45085 17.2535 9.32471 17.2535C9.3916 17.3123 9.46317 17.366 9.53838 17.4142C9.55653 17.4212 9.57271 17.4319 9.58624 17.4456C9.59976 17.4593 9.61011 17.4757 9.61656 17.4936C9.623 17.5115 9.62547 17.5306 9.62367 17.5495C9.62186 17.5684 9.61586 17.5868 9.60614 17.6032C9.55756 17.7132 9.51896 17.827 9.49006 17.9434Z" fill="white" fill-opacity="0.47"/>
<path d="M11.5565 19.3614H11.2945C11.2745 19.3672 11.2534 19.3685 11.2329 19.3651C11.2124 19.3617 11.1929 19.3537 11.176 19.3418C11.1592 19.33 11.1451 19.3145 11.1353 19.2966C11.1255 19.2786 11.1203 19.2588 11.1197 19.2385C11.1197 19.1535 11.0614 19.0685 11.0225 18.9551C11.0225 19.0685 10.9548 19.1535 10.9354 19.2291C10.9333 19.2509 10.9263 19.2721 10.915 19.2911C10.9037 19.3101 10.8885 19.3264 10.87 19.339C10.8515 19.3516 10.8301 19.3601 10.8079 19.364C10.7857 19.3678 10.7629 19.367 10.7411 19.3614H10.4985C10.5457 19.4346 10.6131 19.4935 10.6928 19.5315C10.7116 19.5405 10.7284 19.5531 10.7421 19.5685C10.7557 19.5839 10.766 19.6019 10.7724 19.6213C10.7787 19.6407 10.781 19.6612 10.779 19.6815C10.777 19.7018 10.7705 19.7214 10.7605 19.7393C10.7319 19.8253 10.7128 19.914 10.7027 20.0039C10.9938 19.7677 11.0032 19.7677 11.304 20.0039H11.3722C11.3237 19.8622 11.2363 19.7299 11.2751 19.6354C11.3139 19.5409 11.4595 19.4653 11.5565 19.3614Z" fill="white" fill-opacity="0.47"/>
<path d="M14.9816 18.4525C14.8166 18.4525 14.6517 18.4525 14.5741 18.4525C14.4965 18.4525 14.4675 18.2257 14.4092 18.084C14.371 18.1797 14.3385 18.2775 14.3121 18.3769C14.3098 18.3931 14.3042 18.4087 14.2955 18.4228C14.2869 18.4368 14.2755 18.4491 14.2619 18.4587C14.2483 18.4684 14.2328 18.4754 14.2164 18.4792C14.2001 18.483 14.1833 18.4836 14.1667 18.4809H13.8852L13.8369 18.5281C14.1959 18.6321 14.2151 18.8399 14.0695 19.0951L14.3993 18.8777L14.7295 19.0573C14.716 18.9763 14.6929 18.8971 14.6613 18.8211C14.6516 18.8046 14.6456 18.7863 14.6438 18.7674C14.642 18.7484 14.6444 18.7293 14.6509 18.7114C14.6573 18.6935 14.6677 18.6771 14.6812 18.6634C14.6947 18.6497 14.7114 18.639 14.7295 18.6321C14.8171 18.577 14.9011 18.5171 14.9816 18.4525Z" fill="white" fill-opacity="0.47"/>
<path d="M15.2435 17.3193C15.1571 17.3018 15.0679 17.3018 14.9815 17.3193C14.9603 17.3251 14.9378 17.3261 14.9161 17.3222C14.8944 17.3183 14.8742 17.3096 14.8564 17.2969C14.8387 17.2842 14.824 17.2677 14.8138 17.2486C14.8036 17.2296 14.7979 17.2086 14.7972 17.1871C14.7725 17.1038 14.7435 17.0218 14.71 16.9414C14.7142 17.0044 14.7018 17.0675 14.6745 17.1248C14.6472 17.182 14.6058 17.2317 14.5537 17.2693C14.5016 17.3069 14.4407 17.3312 14.3765 17.3399C14.3123 17.3487 14.2467 17.3416 14.186 17.3193C14.2928 17.3949 14.4381 17.4516 14.4769 17.5461C14.5158 17.6406 14.4283 17.7918 14.3992 17.9146L14.7389 17.7257L15.0886 17.9619L14.9915 17.669C14.9817 17.6525 14.9757 17.6342 14.9739 17.6153C14.9721 17.5963 14.9746 17.5773 14.981 17.5594C14.9875 17.5414 14.9978 17.525 15.0114 17.5113C15.0249 17.4976 15.0411 17.487 15.0592 17.48L15.2435 17.3193Z" fill="white" fill-opacity="0.47"/>
<path d="M12.8084 14.9379H12.5365C12.4297 14.9379 12.3912 14.9379 12.3621 14.8151C12.333 14.6922 12.3038 14.6544 12.265 14.541C12.265 14.6544 12.1873 14.7489 12.1679 14.8339C12.1485 14.919 12.0998 14.9474 12.0125 14.9379H11.7021C11.7305 14.9606 11.7566 14.9858 11.7798 15.0135C12.0321 15.2025 12.0321 15.2025 11.9447 15.4954C11.9483 15.5268 11.9483 15.5585 11.9447 15.5899L12.2745 15.3631L12.5948 15.5616C12.5456 15.5131 12.5111 15.4524 12.4953 15.3861C12.4794 15.3198 12.4826 15.2505 12.5047 15.1859C12.5269 15.1213 12.5673 15.0639 12.6208 15.0202C12.6744 14.9764 12.7393 14.9479 12.8084 14.9379Z" fill="white" fill-opacity="0.47"/>
<path d="M10.6736 18.5192C10.5807 18.5012 10.485 18.5012 10.3922 18.5192C10.3723 18.5233 10.3518 18.5233 10.332 18.5192C10.3121 18.5151 10.2935 18.507 10.277 18.4955C10.2606 18.4839 10.247 18.4691 10.2368 18.452C10.2265 18.435 10.2201 18.416 10.2178 18.3964C10.1978 18.3159 10.1718 18.237 10.1401 18.1602C10.0869 18.2302 10.0501 18.3109 10.033 18.3964C10.033 18.4909 9.95571 18.5287 9.85868 18.5192H9.59668C9.64589 18.5932 9.71211 18.6547 9.79046 18.6988C9.87779 18.7555 9.9072 18.8121 9.85868 18.9066C9.81017 19.0011 9.80985 19.0673 9.77103 19.1901L10.033 19.0012C10.0448 18.9888 10.0593 18.979 10.0752 18.9723C10.0911 18.9656 10.1081 18.9622 10.1254 18.9622C10.1427 18.9622 10.1598 18.9656 10.1756 18.9723C10.1915 18.979 10.206 18.9888 10.2178 19.0012L10.4798 19.1901C10.4798 19.0673 10.4213 18.9822 10.3922 18.9066C10.3631 18.831 10.3925 18.7555 10.4604 18.6988C10.5372 18.6457 10.6084 18.5855 10.6736 18.5192Z" fill="white" fill-opacity="0.47"/>
<path d="M10.7316 16.0915H10.6056C10.3048 16.0915 10.3049 16.0915 10.1981 15.808C10.1981 15.808 10.1981 15.808 10.1981 15.7324C10.1981 16.0537 9.97469 16.1387 9.68359 16.0915H9.74187C10.0136 16.3088 10.0135 16.3088 9.88732 16.6301L10.2559 16.4506L10.4113 16.5545L10.5956 16.6773C10.5471 16.564 10.5276 16.4789 10.4985 16.3939C10.4883 16.3773 10.4821 16.3588 10.4796 16.3397C10.477 16.3205 10.4784 16.301 10.4838 16.2824C10.4893 16.2638 10.4987 16.2465 10.5113 16.2316C10.5239 16.2166 10.5391 16.2043 10.5568 16.1954L10.7316 16.0915Z" fill="white" fill-opacity="0.47"/>
<path d="M14.8166 20.3252H14.7C14.3895 20.3252 14.3898 20.3252 14.2831 20.0417C14.2854 20.0103 14.2854 19.9787 14.2831 19.9473C14.2346 20.0796 14.2245 20.2307 14.1372 20.2969C14.0498 20.363 13.8947 20.2969 13.7686 20.2969L13.8268 20.3441C14.0985 20.552 14.0987 20.552 13.9628 20.8827L14.3314 20.7032L14.6711 20.9394L14.574 20.656C14.5625 20.6392 14.555 20.62 14.5522 20.6C14.5494 20.58 14.5513 20.5596 14.5579 20.5405C14.5644 20.5213 14.5756 20.5039 14.5901 20.4895C14.6046 20.4751 14.6222 20.4642 14.6417 20.4575L14.8166 20.3252Z" fill="white" fill-opacity="0.47"/>
<path d="M14.9136 16.1293H14.6417C14.5446 16.1293 14.4962 16.1293 14.4768 16.0065C14.4574 15.8836 14.4185 15.8458 14.3797 15.7324C14.3494 15.8065 14.3239 15.8822 14.3024 15.9592C14.3024 16.0915 14.2149 16.1576 14.0693 16.1293H13.8462C14.1858 16.2427 14.2149 16.4506 14.0888 16.7152L14.409 16.5167L14.7293 16.7152C14.69 16.6682 14.6631 16.6125 14.6512 16.5531C14.6392 16.4936 14.6424 16.4322 14.6606 16.3743C14.6789 16.3163 14.7113 16.2636 14.7554 16.2209C14.7995 16.1782 14.854 16.1467 14.9136 16.1293Z" fill="white" fill-opacity="0.47"/>
<path d="M11.0326 14.7871C10.9916 14.8786 10.959 14.9734 10.9355 15.0706C10.9355 15.1462 10.8674 15.184 10.7801 15.1746H10.4697L10.5958 15.269C10.8092 15.4202 10.8094 15.4202 10.7317 15.6659C10.7317 15.6659 10.7319 15.7604 10.6834 15.8266L11.0326 15.5809L11.3917 15.8266C11.3668 15.7298 11.3343 15.635 11.2946 15.543C11.2831 15.5263 11.2756 15.5072 11.2728 15.4872C11.27 15.4671 11.2719 15.4468 11.2785 15.4276C11.285 15.4085 11.2961 15.391 11.3107 15.3766C11.3252 15.3623 11.3428 15.3513 11.3623 15.3446C11.4395 15.3029 11.5114 15.2521 11.576 15.1934V15.1462C11.1976 15.2785 11.0908 15.0611 11.0326 14.7871Z" fill="white" fill-opacity="0.47"/>
<path d="M13.7784 15.1654C13.7591 15.1696 13.739 15.1695 13.7197 15.1654C13.7004 15.1612 13.6823 15.153 13.6666 15.1413C13.6509 15.1296 13.6379 15.1147 13.6287 15.0976C13.6195 15.0806 13.6145 15.0618 13.6135 15.0426L13.5259 14.7969C13.5259 15.1465 13.3223 15.2315 13.0312 15.1843C13.3417 15.2882 13.39 15.4961 13.2056 15.7702H13.2544C13.3065 15.7443 13.3553 15.7125 13.3999 15.6756C13.4184 15.6484 13.4437 15.626 13.4733 15.6105C13.5029 15.595 13.5358 15.5869 13.5695 15.5869C13.6031 15.5869 13.6365 15.595 13.6661 15.6105C13.6958 15.626 13.721 15.6484 13.7396 15.6756L13.9239 15.789C13.9239 15.6756 13.8655 15.5906 13.8267 15.5056C13.817 15.4898 13.811 15.4722 13.8092 15.4539C13.8074 15.4356 13.8103 15.4172 13.8168 15.4C13.8233 15.3827 13.8336 15.3671 13.8471 15.3543C13.8606 15.3416 13.8766 15.3319 13.8945 15.326C13.9788 15.2707 14.0598 15.2108 14.1371 15.1465L13.7784 15.1654Z" fill="white" fill-opacity="0.47"/>
<path d="M13.0795 18.9632C13.0658 18.8708 13.0463 18.7793 13.0213 18.6892C13.0038 18.6565 13.0004 18.6185 13.0113 18.5833C13.0222 18.548 13.0465 18.5182 13.0795 18.5002L13.3415 18.3207H13.0795C12.9437 18.3207 12.8663 18.3207 12.8469 18.1601C12.8271 18.0796 12.801 18.0006 12.7692 17.9238C12.711 18.0656 12.7011 18.2262 12.6138 18.2924C12.5265 18.3585 12.3614 18.2924 12.2158 18.2924L12.5361 18.5286L12.4101 18.9254C12.5033 18.857 12.6003 18.7939 12.701 18.7364C12.7207 18.7272 12.7426 18.7225 12.7645 18.7225C12.7863 18.7225 12.8078 18.7272 12.8275 18.7364L13.0795 18.9632Z" fill="white" fill-opacity="0.47"/>
<path d="M14.3701 17.9069L14.3803 17.8965L14.3701 17.9069Z" fill="white" fill-opacity="0.47"/>
<path d="M13.1961 19.9463C13.2931 19.8802 13.3999 19.7668 13.497 19.7573C13.594 19.7479 13.7008 19.8802 13.7978 19.9369H13.8561C13.8561 19.8424 13.7975 19.7573 13.7684 19.6817C13.7393 19.6061 13.7685 19.5306 13.8267 19.4833C13.9039 19.4415 13.9758 19.3907 14.0404 19.3321C13.9605 19.3146 13.8777 19.3146 13.7978 19.3321C13.7746 19.3395 13.7499 19.3416 13.7258 19.338C13.7017 19.3344 13.6788 19.3253 13.659 19.3115C13.6391 19.2977 13.6229 19.2795 13.6116 19.2585C13.6003 19.2375 13.5944 19.2141 13.5941 19.1904C13.5941 19.1148 13.5355 19.0392 13.5064 18.9258C13.5064 19.0486 13.4287 19.1242 13.4093 19.2187C13.3899 19.3132 13.332 19.3415 13.2349 19.3321H12.9824C13.3123 19.436 13.3417 19.6345 13.2155 19.8896L13.1961 19.9463Z" fill="white" fill-opacity="0.47"/>
<path d="M14.7495 19.069L14.7393 19.0586V19.069H14.7495Z" fill="white" fill-opacity="0.47"/>
<path d="M6.30758 25.9479L6.29736 25.9375V25.9479H6.30758Z" fill="white" fill-opacity="0.47"/>
<path d="M4.58936 24.3129L4.86131 24.8043L5.41422 24.209L4.58936 24.3129Z" fill="white" fill-opacity="0.47"/>
<path d="M8.11145 28.6498C8.22789 28.3852 8.32501 28.149 8.45115 27.875L7.68457 28.2719L8.11145 28.6498Z" fill="white" fill-opacity="0.47"/>
<path d="M28.3235 7.51206C28.4798 7.47302 28.6219 7.39216 28.7333 7.2786C28.8448 7.16503 28.9211 7.0233 28.9541 6.86952C29.0317 6.501 28.7115 6.34038 28.4884 6.12305L27.5181 7.06797C27.7801 7.2853 27.9451 7.60655 28.3235 7.51206Z" fill="white" fill-opacity="0.47"/>
<path d="M13.3031 3.4867C13.3363 3.4748 13.3667 3.45594 13.3917 3.4315C13.4166 3.40706 13.4356 3.37758 13.4476 3.34517C13.4596 3.31275 13.464 3.27821 13.4609 3.24389C13.4577 3.20957 13.4469 3.1763 13.4291 3.14648C13.3806 3.00474 13.2743 2.91028 13.1482 2.93862C13.022 2.96697 12.7306 3.05202 12.5171 3.11816C12.585 3.32605 12.6529 3.49613 12.7208 3.70401L13.3031 3.4867Z" fill="white" fill-opacity="0.47"/>
</svg>
