<svg width="37" height="35" viewBox="0 0 37 35" fill="none" xmlns="http://www.w3.org/2000/svg">
<path d="M18.7028 0.000125786C16.3454 -0.00859918 14.0094 0.436655 11.8293 1.3103C9.64929 2.18394 7.66816 3.46874 5.99988 5.09074C4.33159 6.71275 3.00909 8.63999 2.10844 10.7616C1.20779 12.8831 0.746862 15.1572 0.751996 17.4529C0.746889 19.7451 1.2062 22.0157 2.1037 24.1347C3.00121 26.2538 4.3191 28.1794 5.98211 29.8016C7.64512 31.4237 9.6205 32.7104 11.795 33.5879C13.9695 34.4653 16.3004 34.9163 18.6542 34.9151C21.0114 34.9188 23.3461 34.4699 25.525 33.594C27.7039 32.7181 29.6842 31.4325 31.3524 29.8106C33.0205 28.1887 34.3439 26.2624 35.2469 24.142C36.1498 22.0215 36.6147 19.7485 36.6147 17.4529C36.6121 12.8266 34.7244 8.39024 31.3661 5.11802C28.0078 1.84581 23.4534 0.00513199 18.7028 0.000125786ZM18.7028 34.1025C16.4543 34.1025 14.2279 33.6705 12.151 32.8315C10.0742 31.9924 8.18779 30.7626 6.59969 29.2126C5.01159 27.6625 3.75302 25.8226 2.89611 23.7982C2.0392 21.7738 1.60065 19.6047 1.60576 17.4151C1.61859 13.0067 3.42515 8.78296 6.62977 5.66927C9.83439 2.55558 14.1759 0.805829 18.7028 0.803346C23.2371 0.803346 27.5856 2.55748 30.7919 5.67988C33.9982 8.80228 35.7995 13.0372 35.7995 17.4529C35.8008 19.6421 35.3586 21.81 34.498 23.8324C33.6375 25.8549 32.3755 27.6921 30.7845 29.2387C29.1936 30.7854 27.305 32.0112 25.2268 32.8458C23.1486 33.6804 20.9216 34.1074 18.6736 34.1025H18.7028Z" fill="white" fill-opacity="0.47"/>
<path d="M7.02979 17.4817C7.02979 20.489 8.25646 23.3731 10.4401 25.4996C12.6237 27.6261 15.5854 28.8208 18.6735 28.8208C21.7616 28.8208 24.7231 27.6261 26.9067 25.4996C29.0904 23.3731 30.3173 20.489 30.3173 17.4817C30.3173 14.4744 29.0904 11.5902 26.9067 9.46371C24.7231 7.33722 21.7616 6.14258 18.6735 6.14258C15.5854 6.14258 12.6237 7.33722 10.4401 9.46371C8.25646 11.5902 7.02979 14.4744 7.02979 17.4817ZM18.6735 6.48279C20.1529 6.48279 21.6177 6.76653 22.9845 7.31785C24.3513 7.86917 25.5932 8.67725 26.6393 9.69596C27.6854 10.7147 28.515 11.924 29.0812 13.2551C29.6473 14.5861 29.9387 16.0127 29.9387 17.4534C29.9387 18.894 29.6473 20.3206 29.0812 21.6516C28.515 22.9826 27.6854 24.192 26.6393 25.2107C25.5932 26.2294 24.3513 27.0375 22.9845 27.5888C21.6177 28.1401 20.1529 28.4239 18.6735 28.4239C15.6858 28.4239 12.8202 27.2681 10.7075 25.2107C8.59488 23.1533 7.4081 20.3629 7.4081 17.4534C7.41067 14.5445 8.59828 11.7556 10.7104 9.69873C12.8225 7.64189 15.6866 6.4853 18.6735 6.48279Z" fill="white" fill-opacity="0.47"/>
<path d="M15.1708 31.5133C15.1708 30.7479 15.1707 29.9636 15.1125 29.1793L14.1422 28.9336C13.7929 30.0108 13.4534 31.0597 13.1235 32.1274L13.8124 32.2881C14.0647 31.4566 14.3073 30.6345 14.5596 29.8218C14.5596 30.6912 14.5594 31.551 14.6176 32.4204L15.1999 32.5621L16.5388 30.3794L16.015 32.8267L16.7428 33.0062C16.8204 32.6188 16.898 32.2597 16.9659 31.9007L17.1697 30.8046C17.2376 30.4455 17.3249 30.0864 17.3637 29.7179L16.3934 29.4911L15.1708 31.5133Z" fill="white" fill-opacity="0.47"/>
<path d="M25.9507 27.4404C25.9529 27.4624 25.9529 27.4846 25.9507 27.5066L27.0665 29.1696C27.0665 29.2169 27.1636 29.2641 27.115 29.3397L26.9307 29.2169C26.6494 29.0468 26.3581 28.8672 26.067 28.7066C25.7759 28.546 25.3589 28.3287 24.9998 28.1397C24.9998 28.1397 24.8929 28.0641 24.825 28.1397L24.1167 28.5838L25.9216 31.4185L26.5328 31.0501C26.0864 30.3697 25.6499 29.7083 25.2133 29.0279L27.6293 30.3791L28.3279 29.9539L26.5133 27.1191L25.9507 27.4404Z" fill="white" fill-opacity="0.47"/>
<path d="M27.057 8.58087C27.3198 8.86866 27.6276 9.11423 27.9691 9.30848C28.2004 9.43426 28.461 9.5003 28.7259 9.5003C28.9909 9.5003 29.2515 9.43426 29.4828 9.30848C29.8174 9.13838 30.099 8.88379 30.298 8.57141C30.3775 8.45239 30.4364 8.32155 30.4726 8.18401C30.5284 7.97723 30.5374 7.76107 30.4989 7.55059C30.4603 7.3401 30.3752 7.14029 30.2494 6.96503C29.9364 6.5359 29.5606 6.15391 29.1336 5.83116L29.0074 5.74609L26.5913 8.03279L27.057 8.58087ZM29.1528 6.69102C29.4055 6.84608 29.6023 7.07399 29.7157 7.34302C29.7686 7.44565 29.7962 7.55888 29.7962 7.67372C29.7962 7.78856 29.7686 7.90185 29.7157 8.00448C29.5589 8.32482 29.2857 8.57728 28.9491 8.71317C28.7755 8.7859 28.5838 8.80764 28.3976 8.77575C28.2114 8.74385 28.0391 8.65971 27.9013 8.53363L27.5616 8.23125C28.0759 7.70209 28.6192 7.21073 29.1528 6.69102Z" fill="white" fill-opacity="0.47"/>
<path d="M10.1445 27.9521C9.80062 28.2382 9.55654 28.6212 9.44586 29.0482C9.36434 29.3449 9.38114 29.6592 9.49419 29.9459C9.5973 30.1787 9.75442 30.3852 9.95305 30.5491C10.1517 30.713 10.3866 30.83 10.6393 30.8908C10.9055 30.9664 11.1881 30.9664 11.4542 30.8908C11.8572 30.7522 12.207 30.4968 12.4568 30.159C12.7065 29.8212 12.8444 29.4172 12.8517 29.001C12.8482 28.7931 12.7985 28.5885 12.7064 28.401C12.6144 28.2134 12.4819 28.0475 12.3179 27.9144C12.0153 27.6572 11.6253 27.5187 11.2237 27.5256C10.8221 27.5326 10.4375 27.6846 10.1445 27.9521ZM11.2602 30.2388C11.1369 30.3131 10.9929 30.3476 10.8483 30.3375C10.7037 30.3273 10.5661 30.2729 10.455 30.1821C10.3431 30.0988 10.258 29.986 10.2098 29.8571C10.1617 29.7282 10.1525 29.5885 10.1833 29.4546C10.2495 29.0473 10.4712 28.6794 10.8042 28.4246C10.8976 28.3362 11.0122 28.2717 11.1375 28.2371C11.2628 28.2025 11.395 28.1987 11.5222 28.2261C11.8618 28.3112 12.0948 28.5852 12.0657 29.1049C12.0248 29.3337 11.9311 29.5504 11.7916 29.7386C11.652 29.9269 11.4703 30.0818 11.2602 30.1916V30.2388Z" fill="white" fill-opacity="0.47"/>
<path d="M13.9675 6.29286C13.8122 5.86764 13.657 5.47078 13.5017 5.05501L13.8317 4.96048C13.9 4.93487 13.9745 4.93021 14.0456 4.9471C14.1167 4.96399 14.181 5.00165 14.2295 5.05501C14.2928 5.11672 14.3511 5.18302 14.4041 5.25341C14.5108 5.39515 14.6079 5.54636 14.7146 5.69755L14.9281 5.94324L15.6558 5.67863L15.1027 4.92271C15.0312 4.80276 14.9347 4.69876 14.8193 4.61738C14.704 4.536 14.5725 4.47905 14.4332 4.45024L14.5497 4.30848C14.6431 4.19014 14.7042 4.05081 14.7277 3.90333C14.7511 3.75585 14.736 3.60497 14.6838 3.46466C14.6316 3.32435 14.544 3.19916 14.4289 3.10057C14.3139 3.00197 14.1753 2.93316 14.0257 2.90055C13.8747 2.8769 13.7208 2.8769 13.5697 2.90055C13.0586 3.0143 12.568 3.20226 12.1143 3.45809C12.5024 4.46915 12.8905 5.48965 13.2883 6.51017L13.9675 6.29286ZM13.5406 3.45809C13.626 3.44678 13.7127 3.46275 13.7879 3.50365C13.8631 3.54454 13.9228 3.60815 13.9578 3.68486C14.0136 3.75699 14.044 3.84491 14.044 3.93528C14.044 4.02564 14.0136 4.1135 13.9578 4.18564C13.891 4.25773 13.8123 4.31841 13.7249 4.36518C13.6005 4.42689 13.4707 4.47753 13.3369 4.5164L12.9972 3.66594C13.163 3.57046 13.3487 3.51235 13.5406 3.49586V3.45809Z" fill="white" fill-opacity="0.47"/>
<path d="M21.6523 29.3313C21.6523 30.4936 21.6523 31.6464 21.6523 32.8181L22.4092 32.6007V31.7314L23.3795 31.4668C23.5542 31.7219 23.7095 31.9676 23.8841 32.2133L24.6798 31.996C24.0103 31.0511 23.3602 30.04 22.7392 29.0762L21.6523 29.3313ZM22.3123 31.1456C22.3123 30.6825 22.3123 30.2007 22.3123 29.7471L23.0692 30.9376L22.3123 31.1456Z" fill="white" fill-opacity="0.47"/>
<path d="M12.7642 6.82264L12.4051 6.31235L11.2408 7.07773C11.0855 6.85095 10.94 6.64311 10.7945 6.41633L11.8328 5.73596C11.7163 5.55642 11.5998 5.3958 11.4833 5.22572L10.4356 5.90604L10.0473 5.32965C10.416 5.08397 10.7752 4.84772 11.1536 4.61149C11.0274 4.43196 10.9206 4.26188 10.7945 4.0918L9.04785 5.24458L10.9885 8.01326L12.7642 6.82264Z" fill="white" fill-opacity="0.47"/>
<path d="M26.1451 7.76783L26.4749 7.23867L25.2717 6.52052C25.427 6.28429 25.563 6.07639 25.6988 5.84961L26.7758 6.48275L27.096 5.96299L26.5623 5.64175L26.0286 5.32045L26.3974 4.7346L27.5423 5.41498C27.6491 5.22599 27.7559 5.06536 27.8723 4.88582L26.0674 3.80859C25.4756 4.75352 24.8838 5.69844 24.2822 6.64337L26.1451 7.76783Z" fill="white" fill-opacity="0.47"/>
<path d="M20.0806 29.7377C19.9647 29.6979 19.8439 29.6724 19.7215 29.6621H19.5469H19.1006C18.8796 29.6663 18.6592 29.6853 18.4408 29.7188H18.2466L18.4214 32.9977H18.8094H19.188V32.9504C19.188 32.5725 19.1879 32.1945 19.12 31.826C19.3458 31.8331 19.5713 31.8076 19.7895 31.7504C20.0784 31.695 20.3409 31.549 20.5366 31.3346C20.6377 31.1962 20.7071 31.0384 20.7404 30.8716C20.7895 30.6369 20.7498 30.3928 20.6285 30.1843C20.5073 29.9759 20.3126 29.8173 20.0806 29.7377ZM19.7118 31.1362C19.5101 31.2421 19.2777 31.2787 19.052 31.2401C19.052 30.8999 19.052 30.5881 18.9937 30.2952C19.1694 30.2273 19.3617 30.2109 19.5469 30.248C19.6461 30.261 19.7384 30.3047 19.8101 30.3728C19.8817 30.4409 19.9288 30.5297 19.9446 30.626C19.9597 30.7238 19.9458 30.8237 19.9046 30.9141C19.8633 31.0045 19.7964 31.0815 19.7118 31.1362Z" fill="white" fill-opacity="0.47"/>
<path d="M7.91251 9.38438C8.13145 9.5053 8.37884 9.56888 8.63054 9.56888C8.88223 9.56888 9.12962 9.5053 9.34856 9.38438C9.81295 9.14809 10.1847 8.7696 10.4063 8.30721C10.4117 8.27277 10.4117 8.23767 10.4063 8.20323L9.88228 7.88198C9.78014 8.11297 9.63174 8.32175 9.44568 8.49615C9.28674 8.66197 9.07178 8.76663 8.84018 8.79092C8.60859 8.81521 8.37578 8.75752 8.18423 8.62845C7.99687 8.51215 7.83793 8.35736 7.7185 8.17491C7.6272 8.03336 7.57873 7.8696 7.57873 7.70245C7.57873 7.53529 7.6272 7.37153 7.7185 7.22998C7.85523 6.98994 8.05635 6.7907 8.30054 6.65359L8.44623 6.55907C8.3298 6.38898 8.22298 6.21891 8.11624 6.04883C7.57182 6.30295 7.15066 6.75382 6.9422 7.30559C6.81093 7.65654 6.81093 8.04128 6.9422 8.39222C7.12681 8.8295 7.47302 9.1835 7.91251 9.38438Z" fill="white" fill-opacity="0.47"/>
<path d="M9.85345 27.0072C9.85345 27.0072 9.90205 27.1017 9.94086 27.1583L10.5035 26.856C10.3788 26.5705 10.1959 26.3127 9.96574 26.0983C9.73554 25.8839 9.46297 25.7173 9.16457 25.6087C8.96586 25.5415 8.75526 25.5136 8.54533 25.5265C8.3354 25.5395 8.13035 25.5931 7.94196 25.6843C7.59225 25.8475 7.29633 26.1028 7.08797 26.4213C6.93953 26.631 6.85067 26.8751 6.83023 27.1289C6.80978 27.3828 6.8586 27.6374 6.97165 27.867C7.13465 28.2095 7.38114 28.508 7.68967 28.7364C7.81171 28.8407 7.94899 28.9267 8.09713 28.9915L8.45626 28.5096L8.28143 28.3962C8.081 28.2671 7.90961 28.1001 7.77709 27.9049C7.66357 27.7541 7.60226 27.5721 7.60226 27.3852C7.60226 27.1983 7.66357 27.0162 7.77709 26.8654C7.92332 26.6381 8.1315 26.4549 8.37856 26.3363C8.52367 26.272 8.68284 26.2436 8.84192 26.2535C9.001 26.2634 9.15504 26.3113 9.29059 26.393C9.5357 26.5398 9.73141 26.7534 9.85345 27.0072Z" fill="white" fill-opacity="0.47"/>
<path d="M21.3713 4.32787C21.7788 4.40346 22.1669 4.5074 22.5744 4.5641C22.5744 4.35621 22.6616 4.17668 22.7005 3.97825L21.4973 3.7231L21.6719 2.97663L22.9527 3.25064C23.0013 3.04276 23.04 2.84431 23.0885 2.64587L21.0413 2.2207C20.8084 3.31682 20.5561 4.39398 20.3232 5.48065L21.0801 5.63187L21.3713 4.32787Z" fill="white" fill-opacity="0.47"/>
<path d="M29.473 26.7614C29.308 26.2133 29.1236 25.6653 28.949 25.1172C28.949 25.0133 28.8812 24.8999 28.8327 24.7676L28.231 25.3912C28.4541 25.8542 28.6678 26.3362 28.8812 26.7897L27.3966 26.2511L26.7949 26.8747H26.8629L28.8035 27.3944C28.9155 27.4168 29.0174 27.4731 29.0947 27.5551L29.541 27.9614L29.997 28.3772C30.1911 28.1882 30.3561 28.0087 30.5307 27.8291L29.5604 26.9787C29.5166 26.9127 29.4868 26.8388 29.473 26.7614Z" fill="white" fill-opacity="0.47"/>
<path d="M16.4421 2.87225C16.5585 3.81717 16.6748 4.66756 16.7913 5.54634L17.5579 5.45187C17.4414 4.50695 17.3348 3.6754 17.2184 2.77772L18.1887 2.65487L18.1013 2.03125L15.4912 2.35249C15.4912 2.56982 15.5493 2.76828 15.5784 2.96672L16.4421 2.87225Z" fill="white" fill-opacity="0.47"/>
<path d="M19.8089 2.08008H19.0326C18.9841 3.17619 18.9357 4.2723 18.8774 5.38731H19.6537C19.712 4.329 19.7604 3.20454 19.8089 2.08008Z" fill="white" fill-opacity="0.47"/>
<path d="M23.6512 6.39682C24.0781 5.35741 24.5051 4.33687 24.9223 3.3069L24.2043 3.02344C23.7774 4.06285 23.3504 5.0834 22.9429 6.12282C23.1854 6.21731 23.4377 6.31178 23.6512 6.39682Z" fill="white" fill-opacity="0.47"/>
<path d="M18.6832 28.0168C20.1052 28.018 21.5136 27.7465 22.8279 27.2177C24.1421 26.6889 25.3364 25.9132 26.3429 24.9348C27.3493 23.9565 28.1482 22.7947 28.6936 21.5157C29.2389 20.2368 29.5202 18.8657 29.5215 17.4809C29.5241 14.6882 28.388 12.0088 26.363 10.0315C24.338 8.0541 21.5895 6.94056 18.7218 6.93555C15.8567 6.93555 13.1089 8.04327 11.082 10.0153C9.05517 11.9874 7.91521 14.6624 7.91264 17.4526C7.9049 20.2436 9.03477 22.9236 11.0541 24.9042C13.0734 26.8849 15.8172 28.0043 18.6832 28.0168ZM18.5472 21.9882C18.5015 22.1396 18.4071 22.2728 18.2779 22.3681C18.1486 22.4633 17.9913 22.5157 17.8292 22.5173C17.6487 22.5476 17.463 22.5186 17.3014 22.4348C17.1398 22.3509 17.0115 22.2171 16.9366 22.0543C16.8086 21.7554 16.7491 21.433 16.762 21.1094C16.7529 20.7861 16.8123 20.4644 16.9366 20.1645C17.0015 20.0257 17.1069 19.9086 17.2398 19.8279C17.3727 19.7472 17.5272 19.7065 17.6837 19.7109C17.8433 19.6986 18.0032 19.7312 18.1443 19.805C18.2853 19.8787 18.4015 19.9903 18.4792 20.1267C18.5908 20.3483 18.6569 20.589 18.6735 20.8353C18.733 21.2212 18.703 21.6151 18.5861 21.9882H18.5472ZM22.5547 22.4796H21.9822V20.4574L21.4873 20.8448C21.3903 20.7409 21.3029 20.6275 21.2059 20.5141C21.4193 20.344 21.6329 20.1928 21.827 20.0133C21.9193 19.9297 22.0313 19.8697 22.1532 19.8383C22.2751 19.807 22.403 19.8054 22.5256 19.8337L22.5547 22.4796ZM20.7401 14.9202C20.7651 14.6257 20.8203 14.3345 20.905 14.0508C21.0097 13.6535 21.2273 13.2929 21.5328 13.0105C21.8383 12.728 22.2193 12.5351 22.6322 12.4539C23.3265 12.2839 24.0534 12.2839 24.7476 12.4539C25.155 12.5474 25.526 12.7531 25.8167 13.0462C26.1075 13.3394 26.3056 13.7078 26.3874 14.1075C26.4815 14.4557 26.5238 14.8153 26.5134 15.1753C26.5327 15.6497 26.4501 16.1228 26.2709 16.5643C26.1477 16.8936 25.945 17.1891 25.6798 17.4259C25.4147 17.6628 25.0951 17.8339 24.7476 17.925C23.958 18.166 23.1115 18.166 22.3219 17.925C21.9459 17.8174 21.608 17.6103 21.3459 17.3267C21.0837 17.043 20.9076 16.694 20.8373 16.3186C20.7244 15.8515 20.6915 15.3694 20.7401 14.8918V14.9202ZM20.6624 20.1928C20.7947 20.4177 20.8682 20.6709 20.8761 20.9299C20.9204 21.2991 20.8805 21.6733 20.7596 22.026C20.7083 22.1734 20.6121 22.3022 20.4838 22.395C20.3555 22.4879 20.2013 22.5405 20.0415 22.5457C19.8659 22.576 19.6848 22.55 19.5256 22.4716C19.3664 22.3932 19.2378 22.2667 19.1586 22.111C19.0474 21.8735 18.9878 21.6161 18.9838 21.3551C18.9791 21.3017 18.9791 21.2479 18.9838 21.1944C18.9684 20.8716 19.0249 20.5493 19.1489 20.2495C19.2146 20.114 19.3191 19.9999 19.45 19.921C19.5809 19.8422 19.7325 19.8021 19.8864 19.8054C20.0374 19.7878 20.1903 19.8122 20.3277 19.8757C20.4651 19.9393 20.5811 20.0394 20.6624 20.1645V20.1928ZM15.1317 16.0352L15.8109 15.9785C15.8054 16.0477 15.8054 16.1171 15.8109 16.1863C15.8491 16.3971 15.9425 16.5947 16.0819 16.7602C16.2212 16.9257 16.4019 17.0535 16.6066 17.1313C17.0419 17.3072 17.5161 17.3722 17.9844 17.3203C18.1422 17.3024 18.2983 17.2708 18.4503 17.2258C18.6086 17.1757 18.7409 17.0683 18.8204 16.9259C18.8998 16.7836 18.9201 16.617 18.8772 16.4604C18.8657 16.3955 18.8372 16.3345 18.7948 16.2833C18.7523 16.232 18.6973 16.1922 18.6346 16.1675C18.3903 16.0393 18.1239 15.956 17.8486 15.9218C17.3896 15.8673 16.9355 15.7789 16.4903 15.6572C16.2025 15.5791 15.9302 15.4545 15.6848 15.2886C15.5185 15.1683 15.3816 15.0135 15.2843 14.8354C15.1869 14.6573 15.1315 14.4603 15.122 14.2587C15.0831 14.0208 15.0831 13.7784 15.122 13.5406C15.1591 13.3412 15.2421 13.1526 15.3648 12.989C15.4875 12.8253 15.6466 12.6908 15.8303 12.5956C16.1265 12.4323 16.4603 12.3445 16.8006 12.3405C17.3222 12.2888 17.8489 12.3635 18.3338 12.5579L18.5861 12.6712C18.6334 12.704 18.6876 12.726 18.7448 12.7356C18.802 12.7452 18.8609 12.7422 18.9168 12.7268C18.9726 12.7114 19.0241 12.6839 19.0677 12.6465C19.1112 12.6091 19.1457 12.5626 19.1683 12.5106V12.4445H19.7504V14.3343L19.0809 14.4004C19.0809 14.3343 19.0809 14.2682 19.0324 14.2115C18.966 13.9694 18.8289 13.7511 18.6377 13.5834C18.4465 13.4157 18.2096 13.3056 17.9555 13.2666C17.5946 13.1867 17.2198 13.1867 16.8589 13.2666C16.7223 13.2971 16.5914 13.3481 16.4709 13.4177C16.4028 13.4605 16.3466 13.5193 16.3079 13.5887C16.2691 13.658 16.2489 13.7356 16.2489 13.8146C16.2489 13.8935 16.2691 13.9712 16.3079 14.0405C16.3466 14.1099 16.4028 14.1686 16.4709 14.2115C16.6742 14.3357 16.9024 14.4162 17.1403 14.4477C17.5964 14.5422 18.0523 14.6178 18.4987 14.7217C18.8691 14.7851 19.2186 14.9341 19.5175 15.1564C19.6681 15.2708 19.7938 15.4133 19.8871 15.5755C19.9804 15.7378 20.0394 15.9166 20.061 16.1013C20.0949 16.3269 20.0949 16.5561 20.061 16.7816C20.0027 17.0654 19.8675 17.3289 19.6696 17.5449C19.4717 17.7609 19.2184 17.9214 18.9355 18.01C18.654 18.1036 18.3594 18.1546 18.0621 18.1613C17.5664 18.194 17.0694 18.1197 16.6066 17.9439C16.4993 17.891 16.3893 17.8437 16.2768 17.8022C16.239 17.7778 16.1959 17.7619 16.151 17.7554C16.1062 17.7489 16.0604 17.7521 16.017 17.7647C15.9735 17.7774 15.9334 17.799 15.8995 17.8284C15.8655 17.8577 15.8386 17.8939 15.8206 17.9345L15.7528 18.0479H15.0639L15.1317 16.0352ZM14.5788 20.4574C14.6297 20.2527 14.7575 20.0741 14.9372 19.9569C15.1169 19.8396 15.3353 19.7924 15.5491 19.8243C15.7616 19.8287 15.9657 19.9059 16.1255 20.0425C16.2852 20.179 16.3903 20.3661 16.4223 20.5708C16.5324 20.9873 16.5052 21.4269 16.3446 21.8276C16.2735 22.0262 16.1434 22.1997 15.9705 22.326C15.7977 22.4522 15.59 22.5254 15.3743 22.5363C15.1708 22.5506 14.9666 22.5506 14.7631 22.5363V22.0827C14.915 22.092 15.0672 22.092 15.2191 22.0827C15.3203 22.0862 15.4212 22.0683 15.5145 22.0301C15.6079 21.992 15.6914 21.9345 15.7597 21.8616C15.828 21.7888 15.8793 21.7025 15.9099 21.6085C15.9405 21.5145 15.9499 21.4151 15.9371 21.3173H15.8886C15.7989 21.4254 15.6774 21.5043 15.5403 21.5431C15.4033 21.582 15.2573 21.579 15.122 21.5346C14.9991 21.5115 14.8854 21.4548 14.7944 21.3711C14.7033 21.2875 14.6386 21.1803 14.6077 21.0622C14.5293 20.8464 14.5193 20.6127 14.5788 20.3913V20.4574ZM11.5804 17.4053H11.9007L12.0947 17.3392C12.1457 17.321 12.1892 17.2872 12.2189 17.2429C12.2486 17.1987 12.2629 17.1463 12.2596 17.0935V13.5878C12.2596 13.3043 12.1821 13.2098 11.891 13.1626H11.5804V12.5862H14.4914V13.1626C14.3784 13.1529 14.2647 13.1529 14.1517 13.1626C14.104 13.1649 14.0573 13.1767 14.0145 13.1972C13.9717 13.2178 13.9336 13.2466 13.9027 13.2821C13.8718 13.3175 13.8486 13.3587 13.8347 13.4031C13.8208 13.4476 13.8166 13.4944 13.8219 13.5406C13.8219 14.7028 13.8219 15.8556 13.8219 17.0179C13.8151 17.0623 13.8177 17.1076 13.83 17.1509C13.8422 17.1942 13.8637 17.2345 13.893 17.2693C13.9222 17.304 13.9586 17.3324 13.9998 17.3526C14.041 17.3727 14.0862 17.3843 14.1323 17.3864C14.2487 17.3864 14.3652 17.3864 14.4914 17.4431V18.0195H11.5804V17.4053Z" fill="white" fill-opacity="0.47"/>
<path d="M22.5841 16.7442C22.6438 16.8611 22.7296 16.9634 22.8355 17.0436C22.9413 17.1237 23.0642 17.1797 23.1953 17.2072C23.3694 17.2263 23.5452 17.2263 23.7193 17.2072C23.9972 17.2187 24.2692 17.1279 24.4814 16.9527C24.6936 16.7776 24.8303 16.5311 24.8642 16.2623C24.9268 15.9792 24.9659 15.6916 24.9808 15.4024C24.9808 15.1283 24.9808 14.8449 24.9808 14.5709C24.9605 14.3067 24.9049 14.0463 24.8156 13.796C24.7631 13.5976 24.6459 13.4211 24.4814 13.2932C24.3169 13.1654 24.114 13.0932 23.9036 13.0873C23.5771 13.0227 23.2374 13.0854 22.9579 13.2622C22.6784 13.4389 22.4815 13.7155 22.4093 14.0323C22.339 14.3428 22.3001 14.6593 22.293 14.9772C22.293 15.2418 22.2928 15.5158 22.351 15.7709C22.3596 16.1074 22.4391 16.4386 22.5841 16.7442Z" fill="white" fill-opacity="0.47"/>
<path d="M15.413 21.1291C15.5002 21.1455 15.5906 21.133 15.6697 21.0936C15.7489 21.0543 15.8122 20.9902 15.8495 20.9117C15.8926 20.8029 15.8968 20.6833 15.8616 20.5719C15.8264 20.4605 15.7539 20.3639 15.6555 20.2975C15.6132 20.272 15.5657 20.2559 15.5162 20.2503C15.4668 20.2447 15.4168 20.2497 15.3696 20.265C15.3224 20.2803 15.2792 20.3056 15.2431 20.3389C15.207 20.3723 15.1788 20.413 15.1607 20.4581C15.1345 20.5287 15.115 20.6014 15.1024 20.6754C15.1057 20.71 15.1057 20.7448 15.1024 20.7794C15.0984 20.8223 15.1035 20.8657 15.1171 20.9067C15.1307 20.9478 15.1525 20.9857 15.1815 21.0184C15.2105 21.051 15.246 21.0776 15.2857 21.0966C15.3255 21.1156 15.3687 21.1267 15.413 21.1291Z" fill="white" fill-opacity="0.47"/>
<path d="M19.5566 21.1578C19.5566 21.6586 19.6342 22.1027 19.935 22.1027C20.2358 22.1027 20.3135 21.6964 20.3135 21.1578C20.3135 20.6192 20.2261 20.2129 19.935 20.2129C19.6439 20.2129 19.5566 20.657 19.5566 21.1578Z" fill="white" fill-opacity="0.47"/>
<path d="M17.7228 20.25C17.422 20.25 17.354 20.6563 17.354 21.1949C17.354 21.7335 17.422 22.1398 17.7228 22.1398C18.0236 22.1398 18.1012 21.7335 18.1012 21.1949C18.1012 20.6563 18.0139 20.25 17.7228 20.25Z" fill="white" fill-opacity="0.47"/>
</svg>
