<svg width="37" height="35" viewBox="0 0 37 35" fill="none" xmlns="http://www.w3.org/2000/svg">
<path d="M33.4789 14.9959C33.4738 11.0219 31.8507 7.212 28.9661 4.40107C26.0815 1.59014 22.1702 0.00749971 18.0894 0C14.0077 0.00749271 10.0956 1.58983 7.20941 4.4005C4.32323 7.21116 2.69861 11.0211 2.69092 14.9959C2.69862 18.9699 4.32343 22.7789 7.20988 25.588C10.0963 28.3972 14.0086 29.9774 18.0894 29.9824C22.1693 29.9774 26.0807 28.3969 28.9656 25.5875C31.8505 22.778 33.4738 18.9691 33.4789 14.9959ZM8.06648 20.1647H6.37791V9.71385H8.06648V20.1647ZM14.8587 20.2214C13.4269 20.2189 12.0547 19.6633 11.0433 18.6765C10.0318 17.6897 9.46367 16.3524 9.46368 14.9582C9.46368 13.5648 10.032 12.2285 11.0437 11.2432C12.0555 10.2579 13.4278 9.70439 14.8587 9.70439C15.8675 9.70305 16.8563 9.97667 17.7137 10.4943C18.5711 11.012 19.2629 11.7531 19.7102 12.6336H17.7696C17.4161 12.214 16.9717 11.8754 16.4686 11.6419C15.9655 11.4083 15.416 11.2856 14.8587 11.2824C13.8576 11.2824 12.8972 11.6697 12.1894 12.359C11.4815 13.0483 11.084 13.9833 11.084 14.9582C11.084 15.933 11.4815 16.8679 12.1894 17.5573C12.8972 18.2466 13.8576 18.6339 14.8587 18.6339C15.7089 18.6342 16.5341 18.3541 17.2001 17.8394C17.8661 17.3246 18.3334 16.6056 18.5262 15.7992H14.645V14.1361H20.2342C20.2732 14.4021 20.2922 14.6705 20.292 14.9393C20.2946 15.6344 20.1559 16.3232 19.8836 16.9658C19.6114 17.6084 19.211 18.1921 18.7058 18.6832C18.2006 19.1744 17.6004 19.5631 16.94 19.8271C16.2796 20.0912 15.5725 20.2252 14.8587 20.2214ZM21.0586 14.9582C21.0612 13.5639 21.632 12.2276 22.6453 11.2426C23.6586 10.2576 25.0318 9.70439 26.4636 9.70439C27.4708 9.69911 28.4591 9.96904 29.3167 10.4835C30.1743 10.998 30.8669 11.7363 31.3151 12.6147H29.3745C29.0205 12.197 28.5758 11.861 28.0725 11.6306C27.5692 11.4003 27.0197 11.2813 26.4636 11.2824C25.4625 11.2824 24.5021 11.6697 23.7943 12.359C23.0864 13.0483 22.6889 13.9833 22.6889 14.9582C22.6889 15.933 23.0864 16.8679 23.7943 17.5573C24.5021 18.2466 25.4625 18.6339 26.4636 18.6339C27.0081 18.6365 27.5467 18.5227 28.0413 18.3006C28.5358 18.0786 28.974 17.7537 29.3257 17.3488H31.2663C30.8047 18.211 30.1075 18.9321 29.2513 19.4324C28.3951 19.9327 27.4132 20.1927 26.4148 20.1836C24.9973 20.1688 23.6425 19.6132 22.6411 18.6362C21.6396 17.6592 21.0712 16.3386 21.0586 14.9582Z" fill="white" fill-opacity="0.47"/>
<path d="M0.953795 31.977C1.07183 31.9014 1.21005 31.862 1.3513 31.8636C1.43142 31.8486 1.51376 31.8486 1.59388 31.8636C1.66899 31.8829 1.73909 31.9184 1.79808 31.9676C1.85859 32.0095 1.90829 32.0645 1.94353 32.1282C1.9784 32.1973 2.00455 32.2702 2.02123 32.3455H2.57414C2.55695 32.1966 2.51072 32.0524 2.43816 31.9203C2.37206 31.7983 2.27953 31.6919 2.16668 31.6085C2.05816 31.5219 1.93284 31.4576 1.79808 31.4195C1.65162 31.3691 1.49716 31.3435 1.34182 31.3439C1.10697 31.3406 0.875667 31.3994 0.672367 31.514C0.469537 31.6309 0.304504 31.8012 0.196686 32.0053C0.0743994 32.2459 0.0147386 32.5119 0.0223335 32.7802C0.0135318 33.0486 0.0732563 33.3149 0.196686 33.555C0.301435 33.7582 0.462836 33.9285 0.662417 34.0464C0.869286 34.1609 1.10392 34.2196 1.34182 34.2165C1.50705 34.2223 1.67185 34.1966 1.82698 34.1409C1.9611 34.0924 2.08567 34.0222 2.19559 33.933C2.29587 33.8425 2.38124 33.7373 2.44811 33.6212C2.51326 33.5036 2.55588 33.3756 2.57414 33.2432H2.02123C2.00398 33.3167 1.97416 33.3869 1.93358 33.4511C1.89834 33.5148 1.84864 33.5697 1.78813 33.6117C1.72865 33.6525 1.66305 33.6843 1.59388 33.7062C1.51369 33.7206 1.43149 33.7206 1.3513 33.7062C1.21005 33.7079 1.07183 33.6684 0.953795 33.5928C0.831426 33.5155 0.736278 33.4033 0.681842 33.2716C0.607365 33.1048 0.571082 32.9242 0.575241 32.7424C0.571872 32.5637 0.608152 32.3863 0.681842 32.2226C0.7484 32.1187 0.84244 32.034 0.953795 31.977Z" fill="white" fill-opacity="0.47"/>
<path d="M2.91406 31.8715H3.79705V34.2149H4.35012V31.8715H5.23311V31.418H2.91406V31.8715Z" fill="white" fill-opacity="0.47"/>
<path d="M7.46459 31.5512C7.25826 31.4354 7.02325 31.3766 6.78518 31.3811C6.54728 31.378 6.31311 31.4367 6.10624 31.5512C5.90633 31.6687 5.74482 31.8391 5.64051 32.0426C5.51823 32.2831 5.45809 32.5491 5.46569 32.8173C5.45689 33.0857 5.51708 33.3521 5.64051 33.5922C5.74201 33.7975 5.90418 33.9686 6.10624 34.0836C6.31311 34.198 6.54728 34.2567 6.78518 34.2536C7.02325 34.2581 7.25826 34.1993 7.46459 34.0836C7.6695 33.9692 7.83472 33.7982 7.93979 33.5922C8.06322 33.3521 8.12342 33.0857 8.11462 32.8173C8.12221 32.5491 8.06208 32.2831 7.93979 32.0426C7.83198 31.8384 7.66742 31.6681 7.46459 31.5512ZM7.46459 33.3465C7.40713 33.4765 7.31264 33.588 7.19263 33.6678C7.0716 33.7447 6.92964 33.7842 6.78518 33.7812C6.64393 33.7829 6.5057 33.7434 6.38767 33.6678C6.26767 33.588 6.17318 33.4765 6.11572 33.3465C6.04486 33.1789 6.01168 32.9985 6.01859 32.8173C6.01154 32.6393 6.04476 32.4619 6.11572 32.2976C6.1707 32.1662 6.26572 32.0542 6.38767 31.9764C6.5057 31.9008 6.64393 31.8613 6.78518 31.863C6.92964 31.86 7.0716 31.8995 7.19263 31.9764C7.31458 32.0542 7.40961 32.1662 7.46459 32.2976C7.53555 32.4619 7.56876 32.6393 7.56171 32.8173C7.56863 32.9985 7.53545 33.1789 7.46459 33.3465Z" fill="white" fill-opacity="0.47"/>
<path d="M9.55078 34.2149H10.1039V31.8715H11.4235V31.418H9.55078V34.2149Z" fill="white" fill-opacity="0.47"/>
<path d="M13.0343 32.2508C12.9463 32.1938 12.8474 32.1552 12.7434 32.1374C12.6371 32.1235 12.5294 32.1235 12.4231 32.1374C12.2778 32.1339 12.1332 32.1564 11.9962 32.2035C11.8762 32.2468 11.767 32.3144 11.6759 32.4019C11.5913 32.4969 11.5317 32.6104 11.5016 32.7327L12.0057 32.7894C12.029 32.7138 12.0768 32.6476 12.1417 32.6004C12.2253 32.5476 12.3236 32.5212 12.4231 32.5248C12.5184 32.519 12.6124 32.5495 12.6851 32.6098C12.7152 32.6376 12.7387 32.6714 12.7538 32.709C12.7689 32.7465 12.7751 32.7869 12.7723 32.8271C12.7726 32.8466 12.7674 32.8658 12.7571 32.8825C12.7468 32.8992 12.7323 32.9128 12.7145 32.9217C12.6668 32.9566 12.6088 32.9764 12.5491 32.9784H12.2388C12.1368 32.9872 12.036 33.0062 11.9379 33.0351C11.8449 33.054 11.7561 33.0892 11.6759 33.139C11.6005 33.1874 11.5375 33.2521 11.4916 33.328C11.4466 33.4194 11.4235 33.5195 11.4239 33.6209C11.4222 33.744 11.4554 33.865 11.5205 33.9705C11.5844 34.0639 11.6757 34.1363 11.7825 34.1784C11.8982 34.2297 12.0245 34.2555 12.1516 34.254C12.2447 34.2699 12.34 34.2699 12.4331 34.254C12.5133 34.2303 12.5862 34.1881 12.6463 34.1311C12.6994 34.0844 12.7453 34.0303 12.7822 33.9705V34.254H13.2963V32.8461C13.3021 32.732 13.2789 32.6184 13.2285 32.5154C13.1835 32.4149 13.1172 32.3248 13.0343 32.2508ZM12.7723 33.4697C12.7724 33.5428 12.7527 33.6147 12.7145 33.6776C12.6745 33.7415 12.6171 33.7938 12.5491 33.8288C12.4707 33.8665 12.3846 33.8859 12.2971 33.8855C12.2084 33.8863 12.1208 33.8634 12.0445 33.8193C12.0124 33.797 11.9867 33.767 11.9697 33.7323C11.9527 33.6976 11.9455 33.6593 11.9479 33.6209C11.9457 33.5666 11.9627 33.5131 11.9962 33.4697C12.0337 33.4287 12.0803 33.3965 12.1322 33.3752L12.326 33.328H12.4425H12.5785H12.6951H12.7723V33.4697Z" fill="white" fill-opacity="0.47"/>
<path d="M15.2365 33.2146C15.1662 33.1729 15.0861 33.1501 15.0038 33.1485C15.1164 33.1257 15.2205 33.0734 15.3047 32.9973C15.3428 32.9601 15.3728 32.9159 15.3928 32.8672C15.4128 32.8185 15.4221 32.7663 15.4208 32.7138C15.423 32.601 15.3855 32.4909 15.3142 32.4019C15.2402 32.3103 15.1433 32.2388 15.0328 32.1941C14.8894 32.1455 14.7381 32.123 14.5864 32.1279C14.4401 32.1214 14.2942 32.1473 14.1596 32.2035C14.0415 32.2445 13.9374 32.3164 13.8587 32.4114C13.7802 32.5007 13.7386 32.6152 13.7422 32.7327H14.2761C14.2759 32.6986 14.2847 32.6651 14.3017 32.6353C14.3187 32.6055 14.3434 32.5805 14.3732 32.5626C14.4469 32.5217 14.5311 32.502 14.6158 32.5059C14.6961 32.4999 14.7758 32.5235 14.839 32.5721C14.8671 32.5931 14.8896 32.6203 14.9048 32.6516C14.92 32.6828 14.9273 32.7171 14.9261 32.7516C14.9283 32.785 14.9216 32.8182 14.9062 32.8481C14.8909 32.878 14.8677 32.9034 14.839 32.9217C14.7777 32.9746 14.6975 33.0017 14.6158 32.9973H14.2856V33.3563H14.6158C14.673 33.341 14.733 33.341 14.7902 33.3563C14.8391 33.3736 14.8804 33.4071 14.9067 33.4509C14.9223 33.4969 14.9223 33.5465 14.9067 33.5926C14.9098 33.6334 14.9014 33.6742 14.8826 33.7108C14.8638 33.7474 14.8355 33.7784 14.8001 33.8005C14.7202 33.8445 14.6299 33.8673 14.5381 33.8666C14.4487 33.8736 14.3593 33.8502 14.2856 33.8005C14.2546 33.7831 14.2289 33.7584 14.2103 33.7287C14.1916 33.6989 14.1807 33.6652 14.179 33.6304H13.6455C13.6482 33.7513 13.6926 33.8678 13.7715 33.9611C13.8553 34.0613 13.9663 34.1366 14.0918 34.1784C14.2347 34.2296 14.3859 34.2553 14.5381 34.254C14.6936 34.256 14.8479 34.2304 14.9939 34.1784C15.1177 34.1333 15.2279 34.0586 15.3142 33.9611C15.391 33.8673 15.4323 33.7504 15.4307 33.6304C15.432 33.5421 15.412 33.4547 15.3725 33.3752C15.3374 33.3142 15.2912 33.2598 15.2365 33.2146Z" fill="white" fill-opacity="0.47"/>
<path d="M15.8579 34.2149H16.3722V32.5424H17.1775V34.2149H17.7015V32.1172H15.8579V34.2149Z" fill="white" fill-opacity="0.47"/>
<path d="M19.8168 32.2116C19.6846 32.1358 19.5334 32.0966 19.38 32.0982C19.2735 32.0941 19.1675 32.1135 19.0697 32.1549C18.9952 32.192 18.929 32.2434 18.8754 32.3061C18.8325 32.3566 18.7939 32.4103 18.7594 32.4667V32.1171H18.2354V34.9518H18.7688V33.8368C18.8008 33.8977 18.84 33.9548 18.8854 34.0069C18.9395 34.0665 19.0053 34.1147 19.0792 34.1487C19.1772 34.1892 19.2835 34.2085 19.39 34.2054C19.548 34.2085 19.7033 34.1657 19.8363 34.0825C19.977 33.992 20.0881 33.8641 20.1566 33.714C20.2388 33.5293 20.2782 33.3293 20.2726 33.1281C20.2808 32.9227 20.2377 32.7183 20.1466 32.5328C20.0682 32.3989 19.9544 32.2879 19.8168 32.2116ZM19.652 33.5061C19.6228 33.5993 19.5653 33.6817 19.4871 33.7424C19.4096 33.8009 19.3132 33.831 19.2151 33.8274C19.1205 33.8281 19.0284 33.7982 18.9531 33.7424C18.878 33.6827 18.8211 33.6044 18.7883 33.5156C18.7477 33.4033 18.7279 33.2849 18.73 33.1659C18.7278 33.05 18.7476 32.9347 18.7883 32.8257C18.8234 32.7382 18.88 32.6603 18.9531 32.599C19.0286 32.5444 19.1214 32.5177 19.2151 32.5234C19.3115 32.5212 19.4065 32.5475 19.4871 32.599C19.5653 32.6597 19.6228 32.742 19.652 32.8352C19.6915 32.9412 19.7113 33.0532 19.7102 33.1659C19.7124 33.2818 19.6926 33.3972 19.652 33.5061Z" fill="white" fill-opacity="0.47"/>
<path d="M22.1844 32.2314C22.0178 32.1345 21.8253 32.0884 21.6315 32.0992C21.4377 32.0884 21.2447 32.1345 21.0781 32.2314C20.9248 32.3226 20.8009 32.4535 20.7194 32.6094C20.63 32.7854 20.5863 32.9801 20.5929 33.1764C20.5863 33.3726 20.63 33.5674 20.7194 33.7434C20.8009 33.8993 20.9248 34.0301 21.0781 34.1213C21.2448 34.219 21.437 34.2682 21.6315 34.263C21.8259 34.2682 22.0177 34.219 22.1844 34.1213C22.3377 34.0301 22.4621 33.8993 22.5435 33.7434C22.6329 33.5674 22.6761 33.3726 22.6695 33.1764C22.6761 32.9801 22.6329 32.7854 22.5435 32.6094C22.4621 32.4535 22.3377 32.3226 22.1844 32.2314ZM22.0678 33.5166C22.0386 33.6097 21.9812 33.6921 21.903 33.7528C21.8288 33.818 21.7313 33.852 21.6315 33.8473C21.5317 33.852 21.4337 33.818 21.3595 33.7528C21.2782 33.6949 21.22 33.6115 21.1946 33.5166C21.154 33.4076 21.1342 33.2923 21.1364 33.1764C21.1342 33.0605 21.154 32.9452 21.1946 32.8362C21.2226 32.7399 21.2801 32.6541 21.3595 32.5905C21.437 32.5319 21.5335 32.5019 21.6315 32.5055C21.7295 32.5019 21.8255 32.5319 21.903 32.5905C21.9795 32.6566 22.0364 32.7414 22.0678 32.8362C22.1085 32.9452 22.1283 33.0605 22.1261 33.1764C22.1283 33.2923 22.1085 33.4076 22.0678 33.5166Z" fill="white" fill-opacity="0.47"/>
<path d="M25.0955 32.1172H24.9596L24.3386 33.6196L23.737 32.1172H23.6109H23.3198H23.0869V34.2149H23.6109V32.8448L24.1542 34.2149H24.523L25.0955 32.8164V34.2149H25.6097V32.1172H25.3865H25.0955Z" fill="white" fill-opacity="0.47"/>
<path d="M28.831 31.6833C28.7302 31.5826 28.6074 31.5051 28.4719 31.4565C28.3421 31.4069 28.2039 31.3813 28.0645 31.3809C27.8728 31.3791 27.6835 31.4212 27.5116 31.5038C27.3586 31.5859 27.2308 31.7066 27.1425 31.8534C27.0553 32.0029 27.0118 32.1728 27.0165 32.3447C27.0123 32.5094 27.0526 32.6723 27.133 32.8172C27.2118 32.9477 27.3217 33.0579 27.4533 33.1385C27.5886 33.2154 27.7429 33.2546 27.8996 33.2518C27.9993 33.2662 28.1007 33.2662 28.2004 33.2518C28.2891 33.2229 28.3714 33.178 28.443 33.1195C28.5171 33.062 28.5796 32.9915 28.6273 32.9117C28.6401 33.1491 28.5829 33.3852 28.4624 33.592C28.4199 33.6702 28.3549 33.7349 28.2758 33.7785C28.1967 33.822 28.1064 33.8426 28.0157 33.8377C27.9117 33.8411 27.8096 33.8113 27.7248 33.7527C27.6445 33.6875 27.5896 33.5974 27.5694 33.4975H27.0264C27.0436 33.6461 27.0965 33.7886 27.1813 33.9133C27.2693 34.0368 27.3899 34.1348 27.5305 34.1968C27.6802 34.2718 27.8474 34.3076 28.0157 34.3007C28.1795 34.3052 28.3424 34.2729 28.4913 34.2062C28.6323 34.1322 28.7549 34.029 28.8505 33.9038C28.9528 33.7591 29.0312 33.5997 29.0831 33.4314C29.1357 33.2211 29.1618 33.0053 29.1608 32.7888C29.1686 32.5707 29.1357 32.353 29.0637 32.1463C29.0264 31.9756 28.9467 31.8166 28.831 31.6833ZM28.5496 32.5337C28.5198 32.5929 28.4804 32.6471 28.4331 32.6943C28.3846 32.7404 28.329 32.7787 28.2682 32.8078C28.2009 32.8207 28.1317 32.8207 28.0645 32.8078C27.9715 32.8075 27.8805 32.7813 27.8025 32.7322C27.7274 32.6872 27.6643 32.6257 27.6182 32.5526C27.5717 32.4719 27.548 32.3805 27.5499 32.288C27.547 32.1954 27.5708 32.1038 27.6182 32.0235C27.664 31.9476 27.727 31.8829 27.8025 31.8345C27.8816 31.7887 27.9725 31.7657 28.0645 31.7683C28.1597 31.7644 28.2538 31.7874 28.3359 31.8345C28.4114 31.8829 28.4744 31.9476 28.5202 32.0235C28.5579 32.1035 28.5778 32.1905 28.5785 32.2786C28.5917 32.3647 28.5819 32.4526 28.5496 32.5337Z" fill="white" fill-opacity="0.47"/>
<path d="M31.3153 31.5514C31.1381 31.4346 30.9275 31.3751 30.7136 31.3813C30.4997 31.3751 30.2891 31.4346 30.1119 31.5514C29.9346 31.6733 29.7994 31.8446 29.7239 32.0428C29.6283 32.2935 29.5821 32.5596 29.5879 32.827C29.5829 33.0913 29.6291 33.3542 29.7239 33.6019C29.7966 33.804 29.9322 33.9791 30.1119 34.1027C30.2891 34.2195 30.4997 34.279 30.7136 34.2728C30.9275 34.279 31.1381 34.2195 31.3153 34.1027C31.4898 33.9779 31.6243 33.8075 31.7033 33.6113C31.798 33.3603 31.8442 33.0944 31.8393 32.827C31.8442 32.5597 31.798 32.2938 31.7033 32.0428C31.6243 31.8465 31.4898 31.6762 31.3153 31.5514ZM31.131 33.5735C31.092 33.6491 31.0321 33.7128 30.9585 33.7578C30.885 33.8028 30.8004 33.8273 30.7136 33.8286C30.6021 33.8296 30.4945 33.789 30.4127 33.7152C30.3145 33.6234 30.2467 33.5049 30.2185 33.3751C30.1624 33.1978 30.1395 33.0122 30.1507 32.827C30.1353 32.5703 30.1852 32.3139 30.2962 32.0805C30.3356 32.006 30.3955 31.9436 30.4691 31.9003C30.5428 31.8569 30.6275 31.8343 30.7136 31.8348C30.8239 31.8303 30.9318 31.8676 31.0145 31.9388C31.1097 32.0329 31.1765 32.1505 31.2082 32.279C31.2594 32.4572 31.2827 32.642 31.2765 32.827C31.301 33.0814 31.2609 33.3378 31.1599 33.5735H31.131Z" fill="white" fill-opacity="0.47"/>
<path d="M33.9735 31.5514C33.7963 31.4346 33.5857 31.3751 33.3718 31.3813C33.1582 31.3769 32.9486 31.4363 32.7706 31.5514C32.5986 31.6786 32.4642 31.8482 32.3821 32.0428C32.2865 32.2935 32.2408 32.5596 32.2466 32.827C32.2416 33.0913 32.2873 33.3542 32.3821 33.6019C32.4581 33.8023 32.5935 33.9765 32.7706 34.1027C32.9478 34.2195 33.1579 34.279 33.3718 34.2728C33.5857 34.279 33.7963 34.2195 33.9735 34.1027C34.1508 33.9807 34.286 33.8094 34.3616 33.6113C34.461 33.3616 34.5073 33.0947 34.4975 32.827C34.5073 32.5593 34.461 32.2925 34.3616 32.0428C34.286 31.8446 34.1508 31.6733 33.9735 31.5514ZM33.7892 33.5735C33.7502 33.6491 33.6908 33.7128 33.6172 33.7578C33.5437 33.8028 33.4587 33.8273 33.3718 33.8286C33.2604 33.8296 33.1532 33.789 33.0714 33.7152C32.9797 33.6186 32.913 33.502 32.8772 33.3751C32.826 33.1968 32.8032 33.012 32.8094 32.827C32.7917 32.5691 32.845 32.3114 32.9644 32.0805C33.0003 32.0053 33.0583 31.942 33.1307 31.8983C33.2031 31.8547 33.2867 31.8326 33.3718 31.8348C33.4821 31.8303 33.59 31.8676 33.6727 31.9388C33.771 32.0321 33.8414 32.1497 33.8764 32.279C33.9229 32.4581 33.946 32.6423 33.9446 32.827C33.9575 33.0845 33.9039 33.3412 33.7892 33.5735Z" fill="white" fill-opacity="0.47"/>
<path d="M35.6326 31.418L34.9146 31.8621V32.3534L35.5841 31.9377H35.6035V34.2149H36.1469V31.418H35.6326Z" fill="white" fill-opacity="0.47"/>
</svg>
