<svg width="28" height="27" viewBox="0 0 28 27" fill="none" xmlns="http://www.w3.org/2000/svg">
<path d="M9.23888 0.160621V25.9854C9.23417 26.0136 9.23417 26.0423 9.23888 26.0704C9.42324 26.0704 12.1499 26.0704 12.2081 26.0704V14.5046H15.1771V26.0799H18.156V0H9.23888C9.24859 0.0566955 9.23888 0.113375 9.23888 0.160621ZM12.2275 2.91033H15.1385V11.5847H12.2275V2.91033Z" fill="white" fill-opacity="0.47"/>
<path d="M0.209961 26.0799H6.17728V23.1695H3.26635V14.4951H6.17728V11.5847H3.26635V2.90087H6.23556V0H0.258524L0.209961 26.0799Z" fill="white" fill-opacity="0.47"/>
<path d="M27.0874 2.90087V0H21.1589C21.1547 0.053467 21.1547 0.107154 21.1589 0.160621V25.9854C21.1589 25.9854 21.1589 26.0421 21.1589 26.0704H27.0874V23.179H24.1765C24.1765 22.9144 24.1765 2.99536 24.1765 2.90087H27.0874Z" fill="white" fill-opacity="0.47"/>
</svg>
