<svg width="33" height="26" viewBox="0 0 33 26" fill="none" xmlns="http://www.w3.org/2000/svg">
<path d="M16.794 2.13896C18.6699 0.69026 20.7909 -0.0245896 23.1641 0.0152496C25.3262 0.0519384 27.4181 0.78821 29.1262 2.11367C30.8343 3.43913 32.0665 5.28235 32.6381 7.36695C34.0326 12.4578 31.2857 17.765 26.3001 19.4799C22.9938 20.6167 19.8828 20.1173 17.0222 18.0995C16.9421 18.0434 16.8614 17.9886 16.7808 17.9329C16.7788 17.9232 16.7788 17.9132 16.7808 17.9035C17.1356 17.6239 17.4718 17.3214 17.7872 16.9981C18.6607 16.0889 19.3585 15.0262 19.8457 13.8635C20.2686 12.8562 20.5182 11.7848 20.5839 10.6944C20.6591 9.4001 20.5142 8.12932 20.1016 6.89159C19.6702 5.58722 18.9755 4.38531 18.0603 3.36039C17.6703 2.91854 17.2269 2.53463 16.794 2.13896Z" fill="#CBCBCB"/>
<path d="M16.7811 17.9038C16.7791 17.9135 16.7791 17.9236 16.7811 17.9333C15.9958 18.5109 15.166 19.0062 14.2543 19.3657C9.9458 21.0647 4.96969 19.5554 2.34779 15.7439C1.01895 13.8117 0.423817 11.6694 0.585506 9.33433C0.892127 4.92078 3.98007 1.42807 7.9068 0.379571C11.0473 -0.45841 13.9518 0.0948157 16.5909 2.00257C16.6516 2.04784 16.7082 2.09628 16.7671 2.14336C16.3196 2.54673 15.859 2.93561 15.4663 3.39603C13.354 5.87149 12.5573 8.72135 13.1406 11.9157C13.5868 14.3586 14.8422 16.3478 16.7811 17.9038Z" fill="#868686"/>
<path d="M16.7816 17.9023C14.8427 16.3463 13.5872 14.357 13.1406 11.9142C12.5573 8.71979 13.354 5.86993 15.4663 3.39447C15.859 2.93406 16.3196 2.54517 16.7671 2.1418C16.7684 2.13946 16.7702 2.13745 16.7723 2.13592C16.7745 2.13439 16.777 2.1334 16.7797 2.133C16.7823 2.13261 16.785 2.13282 16.7875 2.13365C16.7901 2.13447 16.7924 2.13587 16.7943 2.13773C17.2273 2.53341 17.6707 2.9173 18.0624 3.35689C18.9776 4.38181 19.6724 5.58372 20.1037 6.88809C20.5163 8.12718 20.6612 9.39796 20.586 10.6909C20.5203 11.7813 20.2707 12.8527 19.8478 13.86C19.3607 15.0227 18.6628 16.0854 17.7893 16.9946C17.4736 17.3188 17.1369 17.622 16.7816 17.9023Z" fill="#9D9D9D"/>
<path d="M6.43384 22.7321C6.84598 22.3165 7.26357 22.2994 7.7124 22.4805C7.87862 22.5475 7.96874 22.7887 8.10733 22.781C8.2269 22.7747 8.33107 22.5615 8.48279 22.4845C9.25546 22.0934 10.068 22.58 10.0784 23.4438C10.0838 23.9337 10.0734 24.424 10.0829 24.9138C10.0861 25.0655 10.0376 25.1021 9.89179 25.1003C9.49549 25.0962 9.4955 25.103 9.49505 24.7182C9.49505 24.3262 9.50682 23.9337 9.48961 23.5412C9.46606 23.0011 9.00499 22.7417 8.55842 23.0056C8.33197 23.1414 8.26448 23.3592 8.26222 23.6036C8.25814 24.0333 8.25407 24.4638 8.26222 24.8925C8.26539 25.0433 8.23461 25.1035 8.06703 25.1003C7.67663 25.0926 7.67662 25.1003 7.67662 24.7105C7.67662 24.3334 7.68749 23.9559 7.67209 23.5787C7.64944 23.0201 7.22914 22.7507 6.76899 22.987C6.5226 23.1133 6.45194 23.3374 6.44832 23.591C6.44334 24.0133 6.437 24.4357 6.44832 24.8586C6.45421 25.0397 6.4148 25.1094 6.21824 25.1008C5.85953 25.0858 5.8591 25.0976 5.8591 24.7476C5.8591 24.0391 5.86407 23.3302 5.85547 22.6199C5.85547 22.4596 5.90076 22.4008 6.05656 22.4257C6.0866 22.43 6.1171 22.43 6.14714 22.4257C6.3351 22.4021 6.48003 22.4275 6.43384 22.7321Z" fill="white"/>
<path d="M12.7326 22.6951C12.8014 22.6046 12.6909 22.4556 12.8263 22.4366C12.9904 22.4205 13.1557 22.4234 13.3191 22.4452C13.3644 22.4493 13.3476 22.5231 13.3476 22.5666C13.3476 23.3651 13.3476 24.1642 13.3508 24.9632C13.3508 25.08 13.3055 25.1049 13.2027 25.0963C13.1352 25.088 13.0669 25.088 12.9993 25.0963C12.8014 25.1294 12.7163 25.0556 12.7729 24.803C12.4559 25.0895 12.1261 25.2104 11.7398 25.152C11.3616 25.0936 11.0604 24.9161 10.8417 24.6024C10.4413 24.0257 10.5274 23.1872 11.0228 22.715C11.3956 22.3569 12.1827 22.174 12.7326 22.6951ZM12.7964 23.7644C12.7964 23.2665 12.4622 22.9174 11.9921 22.9174C11.5219 22.9174 11.1877 23.2696 11.1877 23.7649C11.1877 24.2602 11.5197 24.6115 11.9921 24.6133C12.4644 24.6151 12.7973 24.2597 12.7964 23.7644Z" fill="white"/>
<path d="M15.5604 23.9903C15.2964 23.9903 15.0319 24.0007 14.7688 23.9867C14.5591 23.9753 14.5649 24.0632 14.6329 24.2099C14.7805 24.5326 15.156 24.7079 15.5455 24.6273C15.7081 24.5933 15.8734 24.5517 16.0057 24.4489C16.1135 24.3651 16.1619 24.3923 16.2321 24.4942C16.4477 24.8133 16.4468 24.8414 16.0985 25.0017C15.7003 25.1952 15.2417 25.2237 14.8227 25.0809C14.1093 24.8414 13.7678 23.9686 14.0704 23.1768C14.3299 22.4977 15.1302 22.1762 15.8168 22.4755C16.3014 22.6869 16.6574 23.3701 16.5614 23.8848C16.5405 23.9944 16.4758 23.9903 16.3992 23.9903H15.5604ZM15.2697 23.5285C15.4427 23.5285 15.6162 23.5235 15.7887 23.5285C15.9083 23.533 15.9522 23.5022 15.9191 23.3746C15.8827 23.2313 15.7985 23.1047 15.6805 23.0155C15.5624 22.9264 15.4175 22.8802 15.2697 22.8843C14.9454 22.8879 14.6727 23.0989 14.6035 23.39C14.5804 23.4882 14.5998 23.5299 14.7058 23.5258C14.8951 23.5258 15.0817 23.5285 15.2697 23.5285Z" fill="white"/>
<path d="M26.2451 25.1814C25.4186 25.1814 24.7958 24.5716 24.8008 23.7648C24.804 22.9685 25.4195 22.3759 26.2429 22.375C27.0785 22.375 27.6922 22.9748 27.6854 23.7852C27.6781 24.5856 27.0626 25.1818 26.2451 25.1814ZM26.2402 22.9201C25.7641 22.9201 25.4077 23.2822 25.4027 23.7666C25.3977 24.2511 25.7687 24.6372 26.2469 24.6354C26.7252 24.6336 27.0722 24.2755 27.0749 23.7829C27.078 23.2759 26.7329 22.9192 26.2402 22.9201Z" fill="white"/>
<path d="M18.3141 22.3834C18.6008 22.3707 18.8867 22.4227 19.1506 22.5355C19.3069 22.5984 19.3771 22.6713 19.2566 22.8275C19.2468 22.839 19.2389 22.852 19.233 22.866C19.1665 23.0684 19.0673 23.1155 18.8571 23.01C18.6052 22.8829 18.3163 22.8493 18.0419 22.9153C17.8884 22.9516 17.7701 23.0272 17.7742 23.2001C17.7778 23.3635 17.9101 23.3993 18.0401 23.4265C18.3195 23.4862 18.6089 23.4921 18.8802 23.5949C19.1873 23.7103 19.3974 23.9009 19.4137 24.2495C19.4305 24.6067 19.2657 24.8652 18.9473 25.006C18.339 25.2745 17.7434 25.2043 17.1655 24.8978C17.0772 24.8525 17.0414 24.7968 17.1143 24.7063C17.1478 24.665 17.1756 24.6193 17.1968 24.5705C17.2647 24.4147 17.3326 24.3717 17.5102 24.4727C17.6674 24.5635 17.8416 24.6213 18.0219 24.6425C18.2023 24.6637 18.3851 24.6478 18.5591 24.5958C18.7022 24.556 18.8141 24.4768 18.8123 24.3188C18.8123 24.1734 18.6895 24.1187 18.5673 24.0924C18.324 24.0422 18.0768 24.0105 17.8354 23.9566C17.2647 23.8244 17.0011 23.3509 17.2312 22.8746C17.3883 22.5482 17.6841 22.4296 18.0202 22.3843C18.118 22.3774 18.2162 22.3771 18.3141 22.3834Z" fill="white"/>
<path d="M20.4516 23.7141C20.4516 23.5257 20.4412 23.3365 20.4552 23.1486C20.4665 22.9924 20.404 22.9462 20.2627 22.9675C20.2552 22.9684 20.2476 22.9684 20.2401 22.9675C20.1327 22.9485 19.9715 23.0295 19.9276 22.9222C19.8764 22.8 19.9067 22.6402 19.914 22.4976C19.9194 22.3903 20.0132 22.4297 20.0725 22.427C20.4516 22.4116 20.4516 22.4129 20.4516 22.029C20.4559 21.9839 20.4559 21.9384 20.4516 21.8932C20.4063 21.6596 20.5064 21.5985 20.7324 21.6134C21.0911 21.6374 21.0381 21.5709 21.0404 21.9303C21.0435 22.4238 21.0404 22.4238 21.5263 22.4238C21.594 22.4297 21.662 22.4297 21.7297 22.4238C21.9561 22.3844 21.9951 22.4818 22.0014 22.6932C22.0091 22.9318 21.9326 22.9929 21.7116 22.9693C21.5399 22.9508 21.3646 22.973 21.1916 22.9634C21.0707 22.9571 21.0367 22.9992 21.039 23.1169C21.0462 23.4637 21.039 23.8109 21.0426 24.1582C21.0462 24.5054 21.188 24.6372 21.5368 24.5955C21.6197 24.5916 21.701 24.5711 21.7759 24.5353C21.9213 24.4479 21.9598 24.5063 22.0023 24.6435C22.1142 25.0084 22.1206 25.0057 21.7474 25.1107C21.6097 25.1512 21.4664 25.1697 21.323 25.1655C20.7663 25.1415 20.4846 24.8626 20.457 24.3003C20.4475 24.1048 20.457 23.9083 20.457 23.7118L20.4516 23.7141Z" fill="white"/>
<path d="M23.4487 22.6917C23.7123 22.3666 24.0402 22.3413 24.3922 22.3952C24.5027 22.4119 24.5579 22.4572 24.4972 22.5762C24.4755 22.616 24.4603 22.6589 24.4519 22.7035C24.422 22.9008 24.3577 22.9814 24.1177 22.9362C23.701 22.8578 23.4551 23.0828 23.4424 23.512C23.4293 23.9788 23.4311 24.4464 23.4397 24.9132C23.4424 25.0639 23.3944 25.1029 23.2486 25.101C22.8532 25.097 22.8532 25.1042 22.8532 24.7167C22.8532 24.0236 22.859 23.33 22.8486 22.6369C22.8486 22.4685 22.8894 22.3983 23.0597 22.4287C23.0897 22.4334 23.1203 22.4334 23.1503 22.4287C23.341 22.3992 23.4804 22.4314 23.4487 22.6917Z" fill="white"/>
<path d="M28.6326 24.9756C28.6299 25.1458 28.5261 25.2354 28.3789 25.239C28.3446 25.2422 28.3099 25.238 28.2773 25.2265C28.2447 25.2151 28.215 25.1967 28.1902 25.1727C28.1654 25.1488 28.1461 25.1197 28.1335 25.0875C28.121 25.0554 28.1156 25.0209 28.1176 24.9864C28.1176 24.8257 28.2127 24.7257 28.3699 24.7266C28.527 24.7275 28.6226 24.813 28.6326 24.9756Z" fill="white"/>
</svg>
