<svg width="33" height="26" viewBox="0 0 33 26" fill="none" xmlns="http://www.w3.org/2000/svg">
<path d="M16.208 2.65044C17.5813 1.57763 19.1245 0.888705 20.8552 0.660149C24.2827 0.207703 27.2015 1.239 29.5762 3.74471C30.8372 5.05992 31.6769 6.72138 31.9878 8.5164C32.6121 12.0399 31.6387 15.0736 29.0802 17.5718C27.7502 18.8709 26.1445 19.6979 24.3167 20.0556C21.4024 20.6256 18.7449 20.0312 16.3442 18.2724C16.2948 18.2365 16.2392 18.2095 16.186 18.1791C16.1837 18.1749 16.1823 18.1702 16.1818 18.1654C16.1813 18.1606 16.1818 18.1558 16.1832 18.1512C16.4167 17.9853 16.637 17.8016 16.8421 17.6017C17.8223 16.6919 18.6052 15.5906 19.1422 14.366C19.6143 13.3116 19.8884 12.1794 19.9509 11.0258C19.9944 10.3374 19.9664 9.64635 19.8673 8.9637C19.7054 7.90647 19.3771 6.88149 18.8949 5.92672C18.3386 4.82826 17.5804 3.88277 16.6737 3.05578C16.5337 2.92937 16.4114 2.76987 16.215 2.71483L16.208 2.65044Z" fill="#CBCBCB"/>
<path d="M16.2075 2.65021C16.2099 2.67166 16.2122 2.69267 16.215 2.71366C16.005 2.7603 15.873 2.92447 15.7279 3.05647C14.7096 3.97216 13.8894 5.08629 13.3177 6.33041C12.8209 7.40003 12.5282 8.5529 12.4544 9.72984C12.3769 11.0228 12.5225 12.2929 12.9453 13.5295C13.4076 14.9002 14.1634 16.1537 15.16 17.2027C15.4805 17.5408 15.8314 17.8454 16.1828 18.15C16.1814 18.1546 16.1809 18.1595 16.1814 18.1643C16.1819 18.1691 16.1833 18.1737 16.1856 18.178C14.7764 19.2704 13.1889 19.9504 11.4213 20.1837C6.87247 20.7774 2.64147 18.2582 0.947109 14.113C0.331148 12.6054 0.0805617 11.0312 0.280283 9.41873C0.74972 5.63497 2.74273 2.93894 6.21032 1.34698C7.4483 0.778855 8.76889 0.532576 10.1231 0.543304C12.2957 0.560096 14.2724 1.20613 16.0195 2.51542C16.0816 2.5602 16.145 2.60496 16.2075 2.65021Z" fill="#868686"/>
<path d="M2.44852 22.8658C2.95202 22.4786 3.46812 22.4115 3.83023 22.7315C4.04255 22.918 4.13542 22.9227 4.35474 22.7352C4.68792 22.4511 5.10928 22.4693 5.49939 22.6387C5.88157 22.8042 6.03556 23.1429 6.04582 23.5398C6.05889 24.0529 6.04582 24.566 6.05188 25.0791C6.05188 25.1971 6.02622 25.2377 5.89929 25.2409C5.45645 25.2521 5.45646 25.2582 5.4546 24.816C5.4546 24.4274 5.45459 24.0389 5.44993 23.6499C5.44433 23.3234 5.2572 23.1088 4.97768 23.0902C4.58384 23.0654 4.32439 23.2343 4.27773 23.5753C4.21053 24.0538 4.25301 24.537 4.25301 25.0179C4.25301 25.1798 4.23154 25.2512 4.04302 25.2414C3.66971 25.226 3.66971 25.239 3.66971 24.8598C3.66971 24.4806 3.67998 24.0981 3.66645 23.718C3.65105 23.2889 3.46766 23.093 3.11161 23.0897C2.71637 23.0864 2.47277 23.3168 2.46577 23.7185C2.4583 24.1611 2.4569 24.6047 2.46577 25.0464C2.46904 25.1961 2.43218 25.2428 2.27679 25.2404C1.87222 25.2334 1.87314 25.2404 1.87454 24.8379C1.87454 24.17 1.88435 23.5016 1.87129 22.8322C1.86709 22.6303 1.93102 22.5663 2.11907 22.599C2.14221 22.6009 2.16545 22.6009 2.18859 22.599C2.35098 22.6041 2.55118 22.5556 2.44852 22.8658Z" fill="white"/>
<path d="M30.0764 24.9575C29.3764 25.4239 28.7175 25.3773 28.2565 24.8534C27.8267 24.3651 27.8141 23.5008 28.2289 23.0063C28.6993 22.4466 29.3302 22.3897 30.0651 22.8557C30.0651 22.4718 30.0707 22.1024 30.0623 21.7335C30.0591 21.5986 30.0843 21.5469 30.2359 21.5469C30.6442 21.5511 30.6433 21.5422 30.6433 21.9587C30.6433 22.9751 30.64 23.9915 30.648 25.0078C30.648 25.179 30.6195 25.2723 30.4268 25.2359C30.3884 25.229 30.349 25.229 30.3106 25.2359C30.1099 25.2747 30.0194 25.2014 30.0764 24.9575ZM30.0903 23.9313C30.0931 23.4345 29.787 23.0968 29.3274 23.0917C28.8491 23.0861 28.5168 23.4182 28.5108 23.9098C28.5047 24.3763 28.8472 24.742 29.2947 24.7494C29.7525 24.7541 30.0871 24.4094 30.0903 23.9304V23.9313Z" fill="white"/>
<path d="M24.7676 22.8635C24.7084 22.4586 24.9921 22.6396 25.1437 22.6056C25.3649 22.5561 25.3523 22.704 25.3514 22.8528C25.3477 23.5757 25.3435 24.2987 25.3514 25.0208C25.3514 25.1878 25.322 25.2731 25.1386 25.2386C25.1002 25.2321 25.0609 25.2321 25.0224 25.2386C24.8288 25.2675 24.7093 25.2176 24.7751 24.9335C24.4601 25.2531 24.1148 25.331 23.7396 25.2782C23.4279 25.2382 23.1436 25.0793 22.9464 24.8347C22.4942 24.2847 22.5264 23.4171 23.0159 22.9171C23.4844 22.44 24.1689 22.411 24.7676 22.8635ZM23.2277 23.912C23.2305 24.4013 23.567 24.754 24.0266 24.7488C24.4709 24.7442 24.8082 24.386 24.8115 23.9158C24.8148 23.4288 24.4821 23.0874 24.007 23.0902C23.5441 23.093 23.2235 23.4311 23.2259 23.912H23.2277Z" fill="white"/>
<path d="M8.68234 24.9578C8.06265 25.4266 7.3501 25.3809 6.89326 24.8748C6.41496 24.3458 6.43361 23.4363 6.92218 22.9218C7.28195 22.543 8.07524 22.3187 8.64174 22.8462C8.72667 22.7884 8.60956 22.6354 8.72575 22.6182C8.88757 22.6003 9.05075 22.5986 9.21291 22.613C9.28944 22.6167 9.26751 22.6937 9.26751 22.7441C9.26751 23.5282 9.2675 24.3123 9.2717 25.0963C9.2717 25.2097 9.2367 25.2503 9.1261 25.2363C9.06408 25.2292 9.00147 25.2292 8.93945 25.2363C8.75139 25.2615 8.61655 25.2297 8.68234 24.9578ZM7.92173 23.092C7.46209 23.092 7.13685 23.4246 7.12845 23.906C7.12052 24.378 7.47561 24.7526 7.92638 24.7484C8.37715 24.7442 8.71407 24.3981 8.71454 23.9246C8.71454 23.426 8.39769 23.0934 7.92125 23.092H7.92173Z" fill="white"/>
<path d="M16.6215 24.1322C16.3494 24.1322 16.0769 24.1411 15.8053 24.1289C15.6266 24.121 15.6346 24.2031 15.6817 24.3234C15.8109 24.6569 16.2025 24.8402 16.615 24.7512C16.727 24.7269 16.8315 24.6691 16.9416 24.636C17.0293 24.6094 17.1171 24.4792 17.1782 24.531C17.2864 24.6243 17.3532 24.7642 17.4325 24.8878C17.4591 24.9303 17.4204 24.9564 17.3858 24.9811C16.8907 25.3244 16.3499 25.4009 15.7993 25.1761C15.2556 24.9568 15.0321 24.4927 15.0293 23.9312C15.0265 23.3696 15.2328 22.8896 15.7825 22.6503C16.2291 22.4553 16.6859 22.4754 17.083 22.7781C17.4801 23.0808 17.5963 23.5319 17.5856 24.0202C17.5823 24.1383 17.5184 24.1355 17.4353 24.135C17.1651 24.1308 16.8959 24.1322 16.6215 24.1322ZM16.3014 23.6816C16.4796 23.6816 16.6584 23.6769 16.8366 23.6816C16.9766 23.6867 16.992 23.6312 16.9528 23.5128C16.8595 23.2362 16.6383 23.0575 16.3546 23.0435C16.2103 23.0374 16.0678 23.0769 15.9473 23.1565C15.8268 23.236 15.7345 23.3516 15.6836 23.4866C15.6369 23.6131 15.6369 23.6942 15.8128 23.6825C15.9747 23.6732 16.1385 23.6811 16.3014 23.6811V23.6816Z" fill="white"/>
<path d="M10.9535 25.2875C10.6092 25.2978 10.2681 25.2184 9.96377 25.0571C9.83171 24.9872 9.79158 24.9172 9.89284 24.795C9.92636 24.7523 9.95384 24.7052 9.9745 24.655C10.0338 24.5151 10.1038 24.5188 10.2293 24.5939C10.5419 24.7805 10.8877 24.8113 11.2405 24.7432C11.3917 24.7138 11.541 24.6415 11.5387 24.4671C11.5363 24.2833 11.3646 24.2432 11.2218 24.2152C10.9722 24.1657 10.7155 24.1541 10.471 24.0715C10.1108 23.9502 9.91105 23.7133 9.90592 23.3882C9.8998 23.224 9.94679 23.0621 10.0399 22.9267C10.1331 22.7913 10.2674 22.6894 10.4229 22.6363C10.9451 22.4558 11.4593 22.5127 11.9596 22.7394C12.065 22.786 12.0753 22.8448 12.0184 22.9348C11.9791 22.9918 11.9458 23.0525 11.919 23.1163C11.8653 23.2595 11.7981 23.2562 11.6614 23.1993C11.3758 23.085 11.08 22.981 10.7603 23.0883C10.6241 23.1349 10.5172 23.1998 10.5214 23.3588C10.5256 23.5179 10.6614 23.5528 10.7804 23.5776C11.0072 23.6242 11.24 23.6429 11.464 23.6993C11.9418 23.8206 12.1388 24.0538 12.1322 24.4582C12.1266 24.836 11.8602 25.1359 11.4299 25.2376C11.2747 25.279 11.114 25.2959 10.9535 25.2875Z" fill="white"/>
<path d="M13.053 23.8612C13.053 23.6905 13.0381 23.5184 13.0572 23.3482C13.0796 23.1527 12.9961 23.1149 12.8239 23.128C12.7283 23.1359 12.5743 23.1807 12.5439 23.0958C12.4973 22.9648 12.5094 22.8038 12.5299 22.6602C12.5444 22.5557 12.6582 22.6047 12.7273 22.6033C13.0539 22.5972 13.0539 22.5995 13.0511 22.2693C13.0561 22.1996 13.0561 22.1296 13.0511 22.0599C13.0208 21.8551 13.088 21.7763 13.3092 21.7907C13.6825 21.815 13.6321 21.7403 13.6359 22.135C13.6359 22.6014 13.6358 22.6014 14.1109 22.6014C14.173 22.6056 14.2354 22.6056 14.2975 22.6014C14.4987 22.5743 14.5663 22.6382 14.5747 22.8589C14.5845 23.1145 14.4879 23.149 14.2719 23.1387C14.067 23.1294 13.7996 23.0454 13.6694 23.176C13.55 23.2973 13.6428 23.5604 13.6382 23.761C13.633 23.9545 13.6288 24.1495 13.6382 24.3426C13.6573 24.6551 13.7973 24.7624 14.1118 24.7302C14.1501 24.726 14.1879 24.7153 14.2266 24.712C14.3316 24.7027 14.4487 24.5651 14.5183 24.6421C14.6041 24.7354 14.6167 24.8963 14.6667 25.0255C14.6979 25.1071 14.6321 25.1188 14.5892 25.1402C14.2313 25.31 13.864 25.3534 13.4903 25.2009C13.1524 25.0609 13.0773 24.7619 13.0549 24.4429C13.0414 24.2503 13.0525 24.0543 13.053 23.8612Z" fill="white"/>
<path d="M21.439 25.2867C20.6924 25.2918 20.1712 24.8967 20.0335 24.2348C19.8889 23.5398 20.1819 22.9055 20.7876 22.6578C21.2631 22.4633 21.7386 22.4773 22.1959 22.7385C22.3228 22.8103 22.3611 22.8835 22.258 23.0057C22.2102 23.067 22.1704 23.1341 22.1395 23.2054C22.0928 23.2987 22.0461 23.3024 21.9598 23.2474C21.8309 23.1601 21.6822 23.1067 21.5272 23.092C21.1147 23.0575 20.8226 23.2054 20.6756 23.5212C20.524 23.8477 20.5996 24.3048 20.8427 24.5366C21.0858 24.7684 21.482 24.8071 21.8436 24.642C21.9225 24.6061 22.0144 24.4848 22.0839 24.5543C22.1899 24.6602 22.2575 24.8081 22.3252 24.9461C22.3546 25.0063 22.2753 25.032 22.2319 25.0609C21.9989 25.2197 21.7207 25.2989 21.439 25.2867Z" fill="white"/>
<path d="M26.6699 22.8553C26.9499 22.5479 27.2658 22.4864 27.627 22.568C27.7431 22.5946 27.7697 22.6417 27.7203 22.7438C27.7109 22.7651 27.7039 22.7873 27.6993 22.8101C27.6484 23.0148 27.6144 23.166 27.305 23.1081C26.8971 23.0321 26.6914 23.2536 26.6797 23.6837C26.6669 24.134 26.666 24.5849 26.6769 25.0364C26.6806 25.1978 26.641 25.2472 26.4739 25.243C26.095 25.2328 26.094 25.243 26.0931 24.8699C26.0931 24.1865 26.0982 23.5032 26.0871 22.8199C26.0838 22.6412 26.1388 22.5792 26.3096 22.6048C26.3561 22.6104 26.4031 22.6104 26.4496 22.6048C26.6162 22.5857 26.7422 22.6095 26.6699 22.8553Z" fill="white"/>
<path d="M18.7438 22.8604C19.0238 22.5437 19.3392 22.4872 19.6994 22.5684C19.8082 22.5922 19.8534 22.6309 19.796 22.7391C19.7836 22.7586 19.7746 22.7801 19.7694 22.8026C19.733 23.0358 19.6621 23.1547 19.3644 23.1067C18.958 23.0414 18.7526 23.2751 18.7456 23.7182C18.7386 24.1613 18.7391 24.6021 18.7456 25.0438C18.748 25.1809 18.7321 25.2476 18.5646 25.243C18.1665 25.2322 18.1675 25.243 18.1684 24.839C18.1684 24.1646 18.1763 23.4901 18.1652 22.8161C18.1624 22.6393 18.2118 22.574 18.3831 22.6025C18.4217 22.6071 18.4607 22.6071 18.4992 22.6025C18.6649 22.5922 18.8082 22.6015 18.7438 22.8604Z" fill="white"/>
<path d="M31.8523 25.0964C31.8495 25.2718 31.7421 25.3641 31.5905 25.3679C31.5551 25.3711 31.5195 25.3666 31.486 25.3548C31.4525 25.343 31.4219 25.3241 31.3964 25.2994C31.3709 25.2747 31.351 25.2447 31.3381 25.2116C31.3252 25.1785 31.3196 25.143 31.3217 25.1076C31.3194 24.9415 31.4192 24.8389 31.5812 24.8399C31.7431 24.8408 31.8415 24.9289 31.8523 25.0964Z" fill="white"/>
<path d="M16.1819 18.1512C15.8305 17.8466 15.482 17.542 15.1591 17.2038C14.1625 16.1549 13.4067 14.9014 12.9444 13.5306C12.5216 12.2941 12.376 11.024 12.4535 9.73102C12.5273 8.55408 12.82 7.40121 13.3168 6.33159C13.8885 5.08747 14.7087 3.97335 15.727 3.05766C15.8721 2.92566 16.0041 2.76102 16.2141 2.71484C16.4101 2.76988 16.5338 2.92939 16.6724 3.05579C17.579 3.88279 18.3373 4.82827 18.8935 5.92674C19.3758 6.8815 19.704 7.90648 19.866 8.96372C19.9651 9.64636 19.9931 10.3374 19.9496 11.0258C19.8871 12.1794 19.613 13.3116 19.1409 14.366C18.6039 15.5906 17.821 16.6919 16.8408 17.6017C16.6357 17.8016 16.4154 17.9853 16.1819 18.1512Z" fill="#9D9D9D"/>
</svg>
