<svg width="37" height="11" viewBox="0 0 37 11" fill="none" xmlns="http://www.w3.org/2000/svg">
<path d="M0.0103399 5.73946C0.0103399 4.10067 0.0128279 2.46188 0.00662399 0.823079C0.00662399 0.657712 0.0417852 0.601897 0.219218 0.603551C1.2044 0.612646 2.19 0.605623 3.1756 0.608517C4.11239 0.611411 4.68481 0.9996 4.97805 1.88804C5.26756 2.76201 5.51573 3.64963 5.77753 4.53187C5.98819 5.23633 6.19733 5.94121 6.40495 6.6465C6.42439 6.71224 6.44093 6.79038 6.52572 6.79534C6.62333 6.80071 6.64607 6.71266 6.66716 6.64362C7.06091 5.31282 7.45053 3.98036 7.84716 2.64998C7.98613 2.18405 8.09243 1.70531 8.38484 1.29809C8.70248 0.857383 9.14006 0.627947 9.66698 0.618025C10.7485 0.598181 11.8309 0.613061 12.9125 0.604379C13.0878 0.604379 13.0556 0.706498 13.0556 0.804891C13.0556 2.80171 13.0556 4.79852 13.0556 6.79534C13.0556 8.08314 13.051 9.37053 13.0605 10.6583C13.0605 10.8468 13.0051 10.8828 12.8297 10.8812C11.9273 10.8721 11.0245 10.8721 10.1215 10.8812C9.92754 10.8836 9.86673 10.8423 9.86756 10.6364C9.87625 8.78431 9.87295 6.93218 9.87295 5.07965C9.87295 5.03169 9.87047 4.98333 9.87295 4.93537C9.87916 4.8283 9.85474 4.73403 9.73231 4.72204C9.61651 4.71088 9.56688 4.79272 9.53668 4.89484C9.36794 5.43931 9.19464 5.98256 9.023 6.52621C8.58418 7.9153 8.1433 9.30356 7.71026 10.6943C7.66518 10.8382 7.59982 10.8824 7.45134 10.8803C6.84501 10.8717 6.23826 10.8688 5.63152 10.8803C5.46071 10.8841 5.39163 10.827 5.342 10.6736C4.95281 9.42056 4.55618 8.16955 4.16202 6.91813C3.95316 6.25666 3.74139 5.59519 3.53501 4.93372C3.49985 4.82168 3.46388 4.70964 3.32449 4.7237C3.17188 4.73899 3.18635 4.86714 3.18676 4.97835C3.18676 6.85817 3.18386 8.738 3.19131 10.6178C3.19131 10.8171 3.15697 10.887 2.93653 10.8837C2.02662 10.8688 1.11671 10.8733 0.206798 10.8812C0.0454955 10.8812 0 10.8398 0 10.6765C0.0128215 9.03069 0.0103399 7.38487 0.0103399 5.73946Z" fill="#ADADAD"/>
<path d="M14.5213 5.73493C14.5213 4.09613 14.5242 2.45776 14.5176 0.819373C14.5176 0.646564 14.5631 0.601906 14.7347 0.603559C15.6579 0.612103 16.5816 0.612103 17.5058 0.603559C17.6828 0.603559 17.7184 0.658952 17.718 0.825147C17.7122 2.71117 17.7112 4.59748 17.7151 6.48405C17.7151 6.58906 17.677 6.7234 17.8284 6.75689C17.9798 6.79038 18.0224 6.66058 18.0724 6.55557C18.863 4.89941 19.6536 3.24337 20.4444 1.58749C20.5504 1.36323 20.6878 1.15525 20.8526 0.969844C20.9527 0.851362 21.0782 0.757037 21.2199 0.693894C21.3616 0.630751 21.5157 0.600431 21.6707 0.605215C22.6352 0.61307 23.6001 0.610589 24.5659 0.605215C24.7069 0.605215 24.7528 0.638707 24.7524 0.786712C24.7483 4.09131 24.7483 7.39578 24.7524 10.7001C24.7524 10.8502 24.7028 10.8812 24.5642 10.8803C23.627 10.875 22.6902 10.8729 21.7518 10.8803C21.5843 10.8803 21.5657 10.8192 21.5661 10.6778C21.5699 8.76364 21.5706 6.84977 21.5681 4.93619C21.5681 4.84234 21.5942 4.73155 21.4767 4.68608C21.3324 4.63027 21.2699 4.71626 21.2133 4.83822C20.6826 6.01564 20.1528 7.19471 19.6118 8.36717C19.3223 8.99681 19.0659 9.64256 18.7044 10.2391C18.4339 10.686 18.0733 10.9006 17.5319 10.8841C16.6025 10.8551 15.6707 10.87 14.7418 10.8812C14.5515 10.8832 14.518 10.8233 14.5188 10.6493C14.5242 9.0117 14.5213 7.37331 14.5213 5.73493Z" fill="#ADADAD"/>
<path d="M31.3125 5.2896C32.8968 5.2896 34.4813 5.2896 36.0659 5.2896C36.3178 5.2896 36.3306 5.29621 36.2128 5.52814C35.5535 6.83041 34.5071 7.55389 33.031 7.58365C31.9225 7.60556 30.8129 7.59316 29.704 7.58365C29.5158 7.58365 29.4774 7.63783 29.479 7.81477C29.4877 8.77142 29.479 9.72807 29.4865 10.6847C29.4865 10.8389 29.4451 10.8815 29.2912 10.8803C28.3538 10.8731 27.4163 10.8731 26.4788 10.8803C26.3373 10.8803 26.2906 10.8447 26.291 10.6975C26.2957 8.95622 26.2957 7.21475 26.291 5.47315C26.291 5.30572 26.3543 5.2867 26.4978 5.28712C28.1023 5.29097 29.7072 5.2918 31.3125 5.2896Z" fill="#ADADAD"/>
<path d="M32.7319 0.618332C31.8496 0.60152 30.9673 0.60152 30.0849 0.618332H28.0997C27.9876 0.657193 27.878 0.609662 27.7688 0.609248C27.198 0.609248 26.6265 0.614216 26.0557 0.605534C25.8981 0.603053 25.8832 0.67167 25.9126 0.791149C25.9672 1.01109 26.0106 1.23434 26.0817 1.44891C26.4064 2.4316 26.9751 3.23446 27.8503 3.8054C27.9678 3.8054 28.043 3.87277 28.1005 3.96703C28.1274 3.98191 28.1543 3.99681 28.1807 4.01211C28.822 4.40179 29.5445 4.63859 30.2922 4.70416C30.5953 4.7794 30.9059 4.7761 31.2145 4.77651C32.892 4.78037 34.5697 4.78037 36.2475 4.77651C36.312 4.77651 36.3848 4.80629 36.4423 4.74841C36.4614 4.6901 36.4766 4.63057 36.4878 4.57022C36.7678 2.34189 34.9703 0.450484 32.7319 0.618332Z" fill="url(#paint0_linear_1_270)"/>
<path d="M27.8496 3.80528C28.0345 3.70234 28.0622 3.84208 28.0998 3.96693C28.0066 3.92999 27.9216 3.87506 27.8496 3.80528Z" fill="#0195D8"/>
<defs>
<linearGradient id="paint0_linear_1_270" x1="25.8998" y1="2.69578" x2="36.5159" y2="2.69578" gradientUnits="userSpaceOnUse">
<stop stop-color="#FEFEFE"/>
<stop offset="1" stop-color="#B4B4B4"/>
</linearGradient>
</defs>
</svg>
