<svg width="35" height="12" viewBox="0 0 35 12" fill="none" xmlns="http://www.w3.org/2000/svg">
<path d="M34.9263 10.7941V10.9426H32.441C32.3717 10.9426 32.3707 10.9589 32.3519 10.8733L32.1043 9.75194C32.0835 9.65837 32.0597 9.56581 32.0414 9.47174C32.0334 9.43214 32.0151 9.41679 31.9765 9.42224C31.9695 9.42224 31.9626 9.42224 31.9562 9.42224L28.5536 9.4153C28.4704 9.4153 28.4813 9.41084 28.4546 9.48659C28.2759 9.95228 28.0976 10.4183 27.9196 10.8847C27.8973 10.9431 27.8969 10.9436 27.8379 10.9436H25.0584C25.0389 10.9466 25.019 10.9441 25.001 10.9362C25.0018 10.9077 25.0104 10.88 25.0257 10.856L26.9662 6.46619C27.5936 5.04468 28.2219 3.62317 28.8513 2.20167C28.9503 1.98235 29.0424 1.76253 29.145 1.54618C29.2499 1.31356 29.4239 1.11881 29.6432 0.988266C29.8625 0.863313 30.1104 0.797126 30.3628 0.796161C31.1226 0.782794 31.8829 0.792691 32.6411 0.791205C32.6951 0.791205 32.6956 0.791218 32.709 0.853596C32.8222 1.36484 32.9355 1.87641 33.0487 2.38831L33.9165 6.31914C34.2034 7.61589 34.49 8.91264 34.7763 10.2094C34.8164 10.3896 34.856 10.5698 34.8971 10.7495C34.9016 10.7673 34.8937 10.7951 34.9263 10.7941ZM29.2836 7.32562C29.3075 7.33632 29.3339 7.34026 29.3599 7.33701H31.496C31.5773 7.33701 31.5778 7.337 31.5609 7.25878C31.4322 6.66866 31.3034 6.07888 31.1746 5.48942C31.0379 4.86233 30.9015 4.23441 30.7655 3.60567C30.762 3.58884 30.7655 3.56805 30.7403 3.55617C30.2643 4.81562 29.771 6.06765 29.2836 7.32562Z" fill="#8C8C8C"/>
<path d="M23.6163 0.603516C23.6263 0.6352 23.654 0.622808 23.6738 0.624788C23.7801 0.634689 23.8866 0.645258 23.9932 0.656479C24.1062 0.668856 24.2186 0.684707 24.3305 0.702529C24.5641 0.73966 24.7956 0.789238 25.0239 0.85105C25.1968 0.897586 25.3706 0.950063 25.5371 1.01195C25.5891 1.03125 25.589 1.03175 25.5801 1.08422L25.3424 2.48427C25.3028 2.71744 25.2622 2.95013 25.222 3.18331C25.222 3.19618 25.222 3.21103 25.2082 3.22242C25.1838 3.21993 25.1604 3.21123 25.1403 3.19716C25.0028 3.12527 24.8589 3.06627 24.7104 3.02091C24.6044 2.99121 24.5009 2.95358 24.3954 2.9219C24.1748 2.85842 23.9501 2.8103 23.7228 2.77785C23.3377 2.71882 22.9469 2.70669 22.5589 2.74171C22.3159 2.75869 22.0777 2.81747 21.8547 2.91547C21.6397 3.01448 21.4525 3.14914 21.3529 3.3744C21.3144 3.4573 21.2973 3.54854 21.3031 3.63977C21.3088 3.731 21.3374 3.81934 21.3861 3.89671C21.4713 4.02922 21.5827 4.14294 21.7135 4.23088C21.8518 4.33063 21.9967 4.42076 22.1474 4.50068C22.4005 4.6393 22.6595 4.76652 22.9195 4.89079C23.0706 4.96307 23.2211 5.03932 23.3692 5.11606C23.6113 5.2445 23.8432 5.39147 24.0626 5.55567C24.2199 5.67147 24.3671 5.8005 24.5024 5.94133C24.7666 6.21123 24.9648 6.53859 25.0814 6.89779C25.1227 7.03849 25.1522 7.18239 25.1695 7.328C25.1897 7.4906 25.1929 7.65489 25.179 7.81814C25.1536 8.17043 25.07 8.51605 24.9313 8.84093C24.8325 9.0706 24.705 9.28685 24.5519 9.48452C24.4675 9.59133 24.3763 9.69271 24.279 9.78802C24.0649 10.0004 23.8248 10.1849 23.5644 10.337C23.2342 10.5301 22.8826 10.6841 22.5168 10.796C22.3187 10.8583 22.1206 10.9049 21.9195 10.9485C21.8071 10.9732 21.6937 10.9925 21.5803 11.0098C21.5005 11.0222 21.4193 11.0326 21.3386 11.043C21.19 11.0618 21.036 11.0663 20.8849 11.0791C20.8685 11.0791 20.8468 11.0747 20.8354 11.0975H19.8225C19.8225 11.0682 19.8012 11.0732 19.7849 11.0717C19.7254 11.0663 19.6665 11.0613 19.6076 11.0579C19.3991 11.0465 19.193 11.0178 18.9865 10.99C18.7666 10.9608 18.5477 10.9222 18.3308 10.8757C18.0072 10.809 17.6893 10.7175 17.3798 10.6019C17.363 10.5955 17.3471 10.5861 17.3303 10.5781C17.2689 10.5494 17.2664 10.5474 17.2778 10.4836C17.312 10.2856 17.3486 10.0875 17.3828 9.8895C17.4125 9.71573 17.4397 9.54295 17.4695 9.36769C17.4992 9.19244 17.5299 9.02511 17.5596 8.85382C17.5844 8.71322 17.6091 8.5731 17.6309 8.4325C17.6349 8.40775 17.6403 8.383 17.6443 8.35923C17.6577 8.28002 17.6582 8.27804 17.7339 8.30973C17.8394 8.35626 17.942 8.40875 18.0489 8.45281C18.3297 8.57203 18.6165 8.67631 18.9082 8.7652C19.0996 8.8191 19.2939 8.86191 19.4902 8.89342C19.7432 8.932 19.9982 8.9558 20.2539 8.9647C20.4203 8.97312 20.5862 8.97363 20.7517 8.97116C20.8785 8.96737 21.0049 8.95345 21.1296 8.92955C21.3305 8.89425 21.5259 8.83302 21.711 8.74739C21.8251 8.69641 21.9293 8.62585 22.0191 8.53894C22.095 8.47056 22.1582 8.38929 22.2058 8.29885C22.2659 8.17371 22.2902 8.03442 22.2761 7.89634C22.2562 7.7237 22.1756 7.56374 22.0488 7.44486C21.9012 7.3006 21.7346 7.17717 21.5535 7.078C21.3911 6.98246 21.2242 6.89385 21.0528 6.81464C20.8245 6.70919 20.5956 6.60471 20.3733 6.48639C19.961 6.27629 19.578 6.01318 19.2341 5.70371C19.0211 5.51012 18.8396 5.28444 18.6963 5.03486C18.5065 4.70232 18.4108 4.32447 18.4194 3.94174C18.4323 3.16548 18.721 2.50606 19.2589 1.95158C19.6218 1.58656 20.0527 1.2961 20.5273 1.0966C20.9968 0.894272 21.4914 0.755726 21.9978 0.684689C22.1583 0.660431 22.3187 0.641142 22.4802 0.62926C22.499 0.62926 22.5297 0.641624 22.5327 0.603999L23.6163 0.603516Z" fill="#8C8C8C"/>
<path d="M0.693359 0.932284C0.715152 0.947136 0.714655 0.925844 0.717132 0.915943C0.724066 0.882278 0.729506 0.848614 0.733963 0.816929C0.73644 0.794651 0.746839 0.784248 0.769126 0.785238C0.791414 0.786228 0.801319 0.785238 0.818654 0.785238H5.16472C5.35889 0.783452 5.55222 0.810828 5.73826 0.866436C6.1429 0.989708 6.38511 1.26596 6.47128 1.6729C6.71892 2.85117 6.96408 4.03043 7.20924 5.20918C7.28354 5.56613 7.35781 5.92256 7.42864 6.2795C7.41229 6.24237 7.39496 6.20525 7.37911 6.16763C7.10483 5.51041 6.73956 4.89496 6.29397 4.33933C5.64555 3.53452 4.8598 2.8507 3.97308 2.31947C3.85998 2.24754 3.74329 2.18144 3.62343 2.12144C3.53068 2.06367 3.43476 2.0111 3.33616 1.964C2.5754 1.57545 1.77394 1.27228 0.94644 1.06002C0.864623 1.03251 0.780126 1.01374 0.694351 1.00405L0.693359 0.932284Z" fill="#D8D8D8"/>
<path d="M3.62207 2.11822C3.74193 2.17822 3.85862 2.24432 3.97172 2.31624C4.85844 2.84748 5.64418 3.5313 6.29261 4.33611C6.73819 4.89174 7.10347 5.50719 7.37774 6.16441C7.3931 6.20203 7.41043 6.23915 7.42727 6.27628C7.46491 6.45203 7.50306 6.62829 7.53922 6.80454C7.59618 7.07881 7.65164 7.35356 7.70761 7.62783C7.71207 7.64763 7.7175 7.66744 7.72345 7.69071C7.75168 7.67387 7.75367 7.64416 7.76308 7.62089C7.99058 7.04166 8.21759 6.46243 8.44409 5.8832C9.09687 4.21515 9.74998 2.54743 10.4034 0.880038C10.446 0.772114 10.4203 0.785992 10.5446 0.785497H13.2686C13.3756 0.785497 13.3756 0.785482 13.3345 0.882021L9.75658 9.1967C9.51786 9.75117 9.27962 10.306 9.04188 10.8611C9.035 10.8831 9.02066 10.9021 9.0013 10.9146C8.98195 10.9272 8.95881 10.9326 8.93589 10.9299C8.01137 10.9299 7.08685 10.9299 6.16233 10.9299C6.07268 10.9299 6.08259 10.9468 6.05486 10.8463C5.3126 8.18675 4.56968 5.52726 3.82611 2.86776C3.76007 2.63672 3.69536 2.40404 3.63196 2.16971C3.62849 2.15386 3.62554 2.13604 3.62207 2.11822Z" fill="#8C8C8C"/>
<path d="M15.8831 0.779813H17.1912C17.2704 0.779813 17.2694 0.779832 17.2556 0.861518C17.1615 1.41401 17.0672 1.96651 16.9728 2.51901C16.8737 3.09361 16.7746 3.66837 16.6756 4.24331C16.5729 4.84531 16.4705 5.44716 16.3685 6.04883C16.2665 6.6505 16.1635 7.25235 16.0595 7.85435C15.9475 8.51048 15.8359 9.16627 15.7246 9.82174C15.6652 10.1722 15.6055 10.5226 15.5454 10.8728C15.5335 10.9406 15.533 10.9411 15.4626 10.9411H12.8402C12.8357 10.9413 12.8312 10.9413 12.8268 10.9411C12.7664 10.9411 12.7629 10.9366 12.7728 10.8787C12.8415 10.4741 12.9105 10.0698 12.9798 9.6658L13.2339 8.17714C13.3376 7.57085 13.4413 6.96454 13.5449 6.35825C13.6519 5.73116 13.7589 5.10227 13.8659 4.47155C13.9682 3.86955 14.0711 3.2677 14.1744 2.66603C14.2735 2.08944 14.3716 1.51186 14.4686 0.933289C14.4751 0.895169 14.484 0.857045 14.4889 0.818925C14.4888 0.812754 14.49 0.806649 14.4926 0.801037C14.4952 0.795425 14.499 0.790471 14.5038 0.786557C14.5086 0.782643 14.5142 0.779858 14.5202 0.778435C14.5262 0.777012 14.5324 0.776981 14.5385 0.778338C14.5568 0.778338 14.5751 0.778338 14.5934 0.778338L15.8831 0.779813Z" fill="#8C8C8C"/>
</svg>
