<svg width="70" height="70" viewBox="0 0 70 70" fill="none" xmlns="http://www.w3.org/2000/svg">
<path d="M38.4131 8.14505H30.7928V31.1443H38.4131V8.14505ZM46.2154 0.331055V69.6933H38.4131V38.8801H30.7668V69.6933C30.5327 69.6933 23.5628 69.6933 22.9646 69.6933C22.952 69.6156 22.952 69.5364 22.9646 69.4588C22.9646 69.4588 22.9646 69.4589 22.9646 69.2505V0.852019C22.9646 0.695739 22.9646 0.565551 22.9646 0.409271L46.2154 0.331055Z" fill="#12110C"/>
<path d="M15.4222 0.408936V8.22293H7.77618V31.2741H15.3962V38.9579H7.77618V61.8789H15.3962V69.6929H0V0.408936H15.4222Z" fill="#12110C"/>
<path d="M69.1276 0.408936V8.22293H61.5333C61.5333 8.45735 61.5333 61.3059 61.5333 62.0092H69.1276V69.8231H53.8352C53.8352 69.8231 53.8352 69.667 53.8352 69.5888V1.08601C53.8227 0.938685 53.8227 0.790596 53.8352 0.643266L69.1276 0.408936Z" fill="#12110C"/>
</svg>
