<svg width="82" height="81" viewBox="0 0 82 81" fill="none" xmlns="http://www.w3.org/2000/svg">
<path d="M75.7131 40.0232C75.7155 46.8533 73.6819 53.5308 69.8694 59.2111C66.057 64.8915 60.637 69.3196 54.2948 71.9355C47.9526 74.5515 40.9731 75.2378 34.2388 73.9076C27.5045 72.5774 21.318 69.2905 16.4615 64.4626C11.605 59.6346 8.29675 53.4824 6.95499 46.784C5.61323 40.0856 6.29825 33.1418 8.92346 26.8307C11.5487 20.5196 15.9962 15.1246 21.7035 11.3281C27.4108 7.5315 34.1216 5.50382 40.9874 5.50146C50.1908 5.50882 59.0155 9.14753 65.5255 15.6193C72.0356 22.0911 75.6994 30.8676 75.7131 40.0232ZM40.9594 73.4045C47.5943 73.4131 54.0829 71.4647 59.6049 67.8057C65.127 64.1467 69.4348 58.9412 71.9837 52.8472C74.5326 46.7532 75.2082 40.0443 73.9252 33.5683C72.6422 27.0924 69.4582 21.1403 64.7756 16.4641C60.0929 11.788 54.1219 8.59785 47.6171 7.29687C41.1124 5.99589 34.3659 6.6425 28.2305 9.15496C22.0951 11.6674 16.8461 15.933 13.147 21.4124C9.44787 26.8919 7.46467 33.3393 7.44808 39.9398C7.436 44.3281 8.29385 48.6758 9.9725 52.734C11.6512 56.7923 14.1177 60.4814 17.2309 63.5903C20.3442 66.6993 24.0432 69.167 28.1161 70.8524C32.1891 72.5378 36.5562 73.4077 40.9674 73.4124L40.9594 73.4045Z" fill="#2860AA"/>
<path d="M70.6996 15.8545C71.4546 15.7671 72.2096 15.6836 72.9606 15.5922C73.1594 15.5463 73.3683 15.5749 73.5473 15.6723C73.7263 15.7698 73.863 15.9294 73.9313 16.1208C74.0072 16.2757 73.9313 16.3433 73.8315 16.4188C72.8528 17.1858 71.874 17.9567 70.8914 18.7197C70.5518 18.986 70.4919 18.6085 70.3441 18.4654C70.1963 18.3223 70.0445 18.1634 70.3201 17.9567C70.8554 17.5593 71.3707 17.1381 71.9539 16.6811C71.7488 16.6355 71.536 16.6355 71.3308 16.6811L69.4253 16.8957C69.3444 16.9137 69.2602 16.9103 69.181 16.8859C69.1018 16.8615 69.0305 16.8169 68.9739 16.7566C68.4986 16.2519 68.4946 16.24 69.0538 15.8028C69.8927 15.1511 70.7396 14.5073 71.5585 13.8159C71.8621 13.5655 72.0059 13.6609 72.2136 13.9232C72.4213 14.1854 72.4932 14.3206 72.1657 14.5669C71.6464 14.9286 71.163 15.3419 70.6637 15.7313L70.6996 15.8545Z" fill="#2860AA"/>
<path d="M2.30714 34.0899L4.04881 35.5325C4.17749 35.6846 4.2601 35.8699 4.28697 36.0669C4.31385 36.2639 4.28389 36.4645 4.20061 36.6452C4.11672 36.7565 4.00888 36.7128 3.91301 36.7008C2.73857 36.5379 1.56811 36.3551 0.393673 36.212C0.0261623 36.1644 0.0861175 35.9657 0.130059 35.7352C0.174 35.5047 0.130059 35.1947 0.529527 35.2742C1.1886 35.3944 1.85683 35.4582 2.52687 35.4649L0.809135 34.078C0.634683 33.9599 0.508273 33.7838 0.452627 33.5813C0.396981 33.3788 0.415743 33.1632 0.505535 32.9733C0.573445 32.7905 0.693308 32.8024 0.829127 32.8223C2.00356 32.9812 3.17797 33.1481 4.34841 33.3111C4.86772 33.3826 4.56011 33.7402 4.58009 33.9787C4.60006 34.2171 4.42429 34.2767 4.18062 34.241C3.56544 34.1456 2.95026 34.0661 2.33508 33.9826L2.30714 34.0899Z" fill="#2860AA"/>
<path d="M53.6625 75.5185C53.6625 74.4018 54.5733 73.5792 55.8037 73.5752C56.9462 73.5752 57.8849 74.6601 57.8969 75.9993C57.8969 77.1478 56.9941 77.9863 55.7398 77.9863C54.5493 77.9744 53.6585 76.9213 53.6625 75.5185ZM56.9262 76.0708C56.8898 75.5644 56.6647 75.0896 56.295 74.7396C56.1568 74.5958 55.9737 74.503 55.7756 74.4763C55.5775 74.4496 55.3761 74.4906 55.2045 74.5925C55.0136 74.6738 54.8546 74.8148 54.7515 74.9941C54.6484 75.1733 54.6069 75.3812 54.6332 75.586C54.6759 76.0415 54.8732 76.4689 55.1925 76.7981C55.3177 76.9424 55.4866 77.0425 55.6739 77.0834C55.8611 77.1242 56.0566 77.1036 56.2311 77.0246C56.4324 76.9575 56.6076 76.8295 56.7322 76.6585C56.8568 76.4875 56.9247 76.282 56.9262 76.0708Z" fill="#2860AA"/>
<path d="M3.37724 55.7887C3.37724 54.6402 4.45982 53.7143 5.79803 53.7183C6.07513 53.7273 6.34759 53.7916 6.59921 53.9074C6.85083 54.0232 7.07648 54.1881 7.26278 54.3924C7.44909 54.5966 7.59221 54.836 7.68371 55.0964C7.7752 55.3567 7.81318 55.6327 7.79537 55.9079C7.79537 57.0405 6.6409 57.9903 5.33864 57.9664C5.065 57.9549 4.79646 57.8889 4.54882 57.7725C4.30118 57.6562 4.07943 57.4917 3.89666 57.2887C3.71389 57.0858 3.57382 56.8485 3.48461 56.5909C3.39541 56.3333 3.35887 56.0606 3.37724 55.7887ZM5.22282 56.9809C5.77686 56.9482 6.29657 56.7032 6.67285 56.2974C6.79824 56.1525 6.87462 55.9721 6.89111 55.7816C6.9076 55.5912 6.86341 55.4004 6.76476 55.2363C6.68466 55.0546 6.54868 54.9029 6.37641 54.8029C6.20414 54.7029 6.00445 54.6599 5.80603 54.68C5.31492 54.718 4.85599 54.9378 4.51976 55.2959C4.38475 55.4315 4.29708 55.6067 4.26975 55.7956C4.24242 55.9845 4.27687 56.1771 4.36796 56.3451C4.43419 56.5228 4.54956 56.6783 4.70082 56.7936C4.85207 56.909 5.03306 56.9794 5.22282 56.9968V56.9809Z" fill="#2860AA"/>
<path d="M76.3484 22.1689C77.5468 22.1689 78.3737 23.0472 78.3737 24.3069C78.3737 25.4673 77.3071 26.3813 75.9769 26.3813C75.7005 26.3733 75.4286 26.3101 75.1773 26.1954C74.926 26.0807 74.7005 25.9169 74.5141 25.7138C74.3278 25.5106 74.1844 25.2722 74.0926 25.0127C74.0007 24.7533 73.9623 24.4781 73.9796 24.2036C73.9516 23.075 75.0182 22.1729 76.3484 22.1689ZM77.4829 24.1917C77.4782 23.9178 77.3721 23.6552 77.1848 23.4543C76.9976 23.2534 76.7425 23.1282 76.4683 23.1028C75.7252 23.1028 74.8704 23.7625 74.8704 24.3745C74.8771 24.648 74.9874 24.9089 75.1792 25.1049C75.3711 25.3009 75.6303 25.4176 75.905 25.4316C76.628 25.4276 77.4709 24.7719 77.4829 24.1917Z" fill="#2860AA"/>
<path d="M53.8065 1.53932C55.0688 1.53932 55.9995 2.37782 55.9915 3.49053C55.9915 4.82976 55.0848 5.83119 53.8983 5.82722C52.636 5.82722 51.7052 4.99666 51.7132 3.87998C51.7252 2.54473 52.628 1.53534 53.8065 1.53932ZM52.7479 3.95151C52.7444 4.18364 52.8153 4.41085 52.9503 4.6002C53.0853 4.78954 53.2775 4.93119 53.4989 5.00461C53.7052 5.06426 53.9259 5.05139 54.1238 4.96815C54.3217 4.88492 54.4847 4.73641 54.5854 4.54761C54.8196 4.2102 54.9513 3.81291 54.9649 3.4031C54.9759 3.16734 54.9049 2.93501 54.7637 2.74532C54.6225 2.55564 54.4198 2.42022 54.1899 2.36193C53.992 2.30068 53.7788 2.31003 53.587 2.38837C53.3952 2.46671 53.2369 2.60914 53.1393 2.79112C52.9024 3.13391 52.7668 3.53592 52.7479 3.95151Z" fill="#2860AA"/>
<path d="M6.89703 25.6734C6.89703 26.8973 6.09809 27.8392 4.99156 27.8511C3.68131 27.8709 2.59476 26.9132 2.59476 25.7568C2.59476 24.5368 3.42966 23.5791 4.50422 23.5632C5.78252 23.5473 6.89703 24.509 6.89703 25.6734ZM4.85576 26.8139C5.11175 26.8524 5.37315 26.7986 5.59286 26.6624C5.81257 26.5261 5.97616 26.3163 6.05416 26.0707C6.10976 25.8578 6.08962 25.6322 5.99716 25.4323C5.9047 25.2324 5.7456 25.0705 5.54683 24.9739C5.2332 24.755 4.86908 24.6183 4.48823 24.5765C4.25962 24.5586 4.03159 24.6174 3.84046 24.7434C3.64933 24.8695 3.50609 25.0555 3.43363 25.272C3.35624 25.4626 3.34823 25.6742 3.41095 25.8701C3.47368 26.066 3.60319 26.234 3.77717 26.345C4.08434 26.5955 4.45458 26.7577 4.84776 26.8139H4.85576Z" fill="#2860AA"/>
<path d="M59.7427 71.5499C59.9942 71.5298 60.2468 71.571 60.4786 71.67C60.7104 71.7691 60.9144 71.9229 61.0729 72.1182C61.1728 72.2374 61.2167 72.3566 61.0729 72.4599C60.7773 72.6507 60.5456 72.9964 60.1142 72.599C59.7786 72.293 59.0556 72.599 58.9158 73.0401C58.8239 73.3382 59.0356 73.5726 59.3752 73.513C59.7147 73.4534 60.0822 73.3223 60.4418 73.2666C61.4005 73.1156 62.0396 73.5766 62.0396 74.3952C62.0396 75.1026 61.5523 75.4722 60.981 75.7424C60.736 75.8991 60.4484 75.9767 60.1574 75.9646C59.8664 75.9525 59.5862 75.8513 59.3552 75.6749C59.2114 75.5556 58.9118 75.3887 59.1355 75.1861C59.3592 74.9834 59.6148 74.6297 59.9344 74.8681C60.3818 75.194 60.6654 74.9516 60.977 74.7012C61.0298 74.6693 61.0701 74.6203 61.0911 74.5625C61.1122 74.5047 61.1128 74.4415 61.0929 74.3833C61.064 74.3205 61.0136 74.2699 60.9506 74.2408C60.8876 74.2116 60.8163 74.2058 60.7494 74.2244C60.5257 74.2641 60.3059 74.3197 60.0822 74.3674C59.8585 74.4151 59.5789 74.4787 59.3232 74.5065C59.0655 74.5525 58.7998 74.5094 58.5701 74.3843C58.3405 74.2593 58.1608 74.0598 58.0609 73.819C57.9344 73.5824 57.8853 73.3124 57.9204 73.0467C57.9554 72.781 58.073 72.5328 58.2566 72.3367C58.636 71.8993 59.1661 71.6187 59.7427 71.5499Z" fill="#2860AA"/>
<path d="M3.70119 53.3085C2.81837 53.3085 2.21115 52.9986 1.87959 52.2793C1.69855 51.975 1.61118 51.6247 1.62822 51.2715C1.64526 50.9184 1.766 50.5779 1.97551 50.2923C2.10734 50.1214 2.26712 49.7876 2.57471 50.0141C2.64971 50.0643 2.71341 50.1293 2.76192 50.2052C2.81042 50.281 2.84263 50.3661 2.85652 50.4549C2.8704 50.5437 2.86568 50.6344 2.84262 50.7214C2.81955 50.8083 2.77866 50.8895 2.72251 50.9599C2.61503 51.0689 2.5463 51.2098 2.52683 51.3612C2.50735 51.5125 2.5382 51.6661 2.61465 51.7985C2.68195 51.9613 2.79751 52.0998 2.94595 52.1957C3.09439 52.2915 3.26864 52.3401 3.44553 52.3349C3.95218 52.3289 4.44304 52.1587 4.84366 51.8501C4.97136 51.7655 5.06977 51.6438 5.12551 51.5016C5.18126 51.3594 5.19166 51.2036 5.15526 51.0553C5.11935 50.8924 5.03628 50.7435 4.91632 50.627C4.79636 50.5105 4.64471 50.4314 4.48013 50.3996C4.33233 50.3559 4.08069 50.4592 4.05672 50.2367C4.01886 49.9971 4.01886 49.753 4.05672 49.5134C4.08069 49.3584 4.24448 49.4021 4.36432 49.4061C5.46685 49.4459 6.21785 50.499 5.96219 51.6753C5.78243 52.6648 4.83967 53.3046 3.70119 53.3085Z" fill="#2860AA"/>
<path d="M67.5761 12.4528C67.3503 12.4486 67.1285 12.3931 66.9277 12.2905C66.7269 12.1878 66.5524 12.0408 66.4176 11.8606C66.078 11.499 65.8384 11.5308 65.5827 11.9202C65.5187 12.004 65.4479 12.0824 65.371 12.1547C64.9156 12.6475 64.9076 12.6435 64.4323 12.1547C64.2884 12.0077 64.2525 11.9004 64.4043 11.7573C65.2272 10.8645 66.0448 9.96903 66.857 9.07092C67.0208 8.88812 67.1526 8.90799 67.3124 9.07092C67.7119 9.46832 68.1673 9.86571 68.5787 10.2631C68.7776 10.4309 68.916 10.6587 68.9729 10.9119C69.0299 11.165 69.0023 11.4298 68.8943 11.6659C68.7854 11.9181 68.5995 12.1299 68.3629 12.2711C68.1263 12.4123 67.851 12.4759 67.5761 12.4528ZM67.2325 10.1836C66.9791 10.3633 66.769 10.5968 66.6173 10.8671C66.8432 11.1859 67.1692 11.4207 67.5441 11.5348C67.6655 11.5189 67.7765 11.4582 67.8549 11.3647C67.9334 11.2712 67.9736 11.1517 67.9675 11.0301C67.9635 10.8115 67.4163 10.1836 67.2165 10.1955L67.2325 10.1836Z" fill="#2860AA"/>
<path d="M73.4961 22.1093C73.1411 22.1241 72.7913 22.0208 72.5019 21.8157C72.2125 21.6106 72.0001 21.3153 71.8983 20.9767C71.7352 20.6382 71.6833 20.2572 71.75 19.8878C71.8166 19.5183 71.9985 19.1791 72.2698 18.9182C72.5283 18.6378 72.8452 18.4171 73.1986 18.2716C73.5519 18.126 73.933 18.0592 74.3151 18.0757C75.6213 18.1313 76.5561 19.713 75.9129 20.7939C75.8171 20.9449 75.7452 21.1913 75.4695 21.0562C75.1939 20.9211 74.9183 20.48 75.0701 20.2614C75.1677 20.1239 75.2147 19.9571 75.203 19.7891C75.1914 19.6211 75.1219 19.4623 75.0061 19.3394C74.9132 19.1984 74.7776 19.0904 74.6189 19.0311C74.4601 18.9718 74.2866 18.9643 74.1233 19.0096C73.6187 19.1383 73.1699 19.4271 72.845 19.8322C72.7323 19.959 72.6665 20.1204 72.6585 20.2895C72.6505 20.4586 72.7008 20.6253 72.8011 20.7621C72.8793 20.9 72.9971 21.0115 73.1395 21.0823C73.2818 21.1531 73.4422 21.18 73.6 21.1595C73.9995 21.1078 74.1393 21.2668 74.1793 21.7953C74.2072 22.1927 73.8836 22.0417 73.6999 22.1013C73.6327 22.1139 73.5641 22.1165 73.4961 22.1093Z" fill="#2860AA"/>
<path d="M2.10341 42.8402C1.52418 42.8402 0.948968 42.8402 0.373734 42.8402C0.110085 42.8402 0.0142033 42.7607 0.0142033 42.5103C0.0142033 41.8745 -0.0177541 41.2387 0.0142033 40.6068C0.0162943 40.3229 0.130613 40.0512 0.332432 39.8504C0.53425 39.6496 0.80734 39.5359 1.09275 39.5338C1.89168 39.4782 2.43498 39.7961 2.56281 40.4359C2.62329 40.7784 2.65402 41.1254 2.65468 41.4731C2.65468 41.7076 2.73059 41.8069 2.97027 41.7871C3.21329 41.7652 3.45735 41.7573 3.70128 41.7632C3.86506 41.7632 4.10074 41.6519 4.18862 41.8586C4.26054 42.1079 4.26054 42.3723 4.18862 42.6216C4.15666 42.7766 3.98888 42.7249 3.87703 42.7289C3.28182 42.7289 2.67864 42.7289 2.09941 42.7289L2.10341 42.8402ZM1.2286 41.8308C1.56415 41.8308 1.88769 41.9142 1.84775 41.4334C1.8038 40.8532 1.63206 40.5353 1.27254 40.5551C0.913015 40.575 0.777189 40.8651 0.765205 41.3499C0.753221 41.7155 0.881064 41.9142 1.2286 41.8308Z" fill="#2860AA"/>
<path d="M1.14058 30.2202C1.14058 29.1949 1.61995 28.4875 2.39891 28.3087C2.68653 28.2451 2.8503 28.261 2.83832 28.6345C2.82633 29.0081 2.83831 29.2585 2.38292 29.4095C2.25477 29.4609 2.14308 29.546 2.05976 29.6557C1.97645 29.7654 1.92468 29.8955 1.90991 30.0322C1.89515 30.1689 1.91795 30.307 1.97594 30.4318C2.03392 30.5566 2.12488 30.6634 2.23911 30.7407C2.47451 30.9226 2.74471 31.0547 3.03317 31.1292C3.32164 31.2037 3.62234 31.2189 3.91691 31.1739C4.08476 31.1533 4.24171 31.0803 4.36519 30.9653C4.48866 30.8503 4.57227 30.6994 4.60398 30.5341C4.63486 30.3932 4.622 30.2463 4.56707 30.1129C4.51214 29.9795 4.41772 29.8658 4.29638 29.787C4.23078 29.7146 4.18169 29.629 4.15248 29.536C4.12327 29.443 4.11465 29.3448 4.12717 29.2482C4.1397 29.1515 4.17308 29.0587 4.22504 28.9761C4.27701 28.8935 4.34629 28.8231 4.42819 28.7697C4.59197 28.6822 4.68385 28.8213 4.78372 28.8968C5.83033 29.6916 5.58267 31.5355 4.35231 32.076C3.85473 32.2437 3.31864 32.2627 2.81033 32.1306C2.30201 31.9985 1.84372 31.7212 1.49211 31.3329C1.24859 31.0138 1.1243 30.6204 1.14058 30.2202Z" fill="#2860AA"/>
<path d="M30.3418 3.66556C30.3418 4.79416 30.0822 5.1995 29.463 5.36641C29.1566 5.46109 28.8262 5.44245 28.5326 5.31393C28.239 5.1854 28.0019 4.95565 27.8651 4.667C27.5194 4.0564 27.3109 3.3785 27.2539 2.68002C27.1888 2.37931 27.2403 2.06524 27.3981 1.80069C27.5559 1.53615 27.8083 1.34066 28.1048 1.25337C28.4 1.13976 28.7271 1.13949 29.0225 1.25262C29.3178 1.36574 29.5603 1.58416 29.7027 1.86536C30.0524 2.40835 30.2712 3.02448 30.3418 3.66556ZM29.459 4.12654C29.3451 3.45759 29.1182 2.81265 28.7879 2.21904C28.7 2.07995 28.5722 1.94086 28.3884 2.02829C28.3122 2.06026 28.249 2.11688 28.2091 2.189C28.1693 2.26112 28.155 2.34451 28.1687 2.42569C28.2583 3.11572 28.4836 3.78145 28.8318 4.38484C28.9157 4.52393 29.0356 4.65904 29.2313 4.57559C29.4271 4.49214 29.439 4.34908 29.459 4.12654Z" fill="#2860AA"/>
<path d="M58.3602 7.75093C58.0379 7.77699 57.7143 7.72085 57.4199 7.58784C57.1255 7.45482 56.8701 7.24932 56.6777 6.99075C56.4854 6.73218 56.3625 6.42909 56.3207 6.11012C56.2789 5.79115 56.3195 5.46685 56.4388 5.16786C56.994 3.57827 58.552 3.01795 59.7943 3.97567C60.0043 4.12433 60.1725 4.32398 60.283 4.55562C60.3935 4.78726 60.4425 5.04317 60.4255 5.299C60.4255 5.53744 60.3256 5.62884 60.0819 5.56525C59.7464 5.47385 59.4188 5.4818 59.3589 4.96121C59.3309 4.81807 59.264 4.68534 59.1653 4.57753C59.0666 4.46972 58.9401 4.39099 58.7994 4.34996C58.6588 4.30893 58.5095 4.30718 58.3679 4.3449C58.2263 4.38262 58.0979 4.45835 57.9967 4.56381C57.6391 4.92031 57.4018 5.3786 57.3176 5.87522C57.277 6.06155 57.2988 6.25598 57.3795 6.42888C57.4603 6.60178 57.5956 6.74368 57.765 6.83295C57.9075 6.92499 58.0793 6.96093 58.247 6.93374C58.4146 6.90656 58.5661 6.8182 58.6718 6.68591C59.1312 6.25672 59.267 6.81705 59.4707 6.98793C59.6745 7.15881 59.4068 7.30982 59.287 7.41315C59.031 7.63636 58.7006 7.75677 58.3602 7.75093Z" fill="#2860AA"/>
<path d="M79.2526 38.7558C78.9969 38.732 78.7373 38.732 78.4856 38.6843C77.7426 38.5452 77.3831 38.1558 77.3511 37.4921C77.2979 37.1729 77.3739 36.8457 77.5626 36.582C77.7512 36.3184 78.0371 36.1398 78.3578 36.0853C79.1024 35.8625 79.8923 35.8351 80.6507 36.0059C80.9168 36.049 81.159 36.1843 81.3344 36.388C81.5099 36.5916 81.6073 36.8504 81.6095 37.1186C81.6655 37.3963 81.6202 37.6848 81.4819 37.9324C81.3436 38.1799 81.1211 38.3704 80.8545 38.4697C80.7038 38.5391 80.5456 38.5911 80.3831 38.6247C80.0113 38.7042 79.6328 38.7481 79.2526 38.7558ZM79.712 36.8841C79.2728 36.8745 78.8352 36.939 78.4177 37.0748C78.2619 37.1384 78.0981 37.2259 78.1221 37.4246C78.136 37.4997 78.1745 37.5681 78.2316 37.6191C78.2887 37.6702 78.3611 37.7009 78.4377 37.7067C79.1551 37.8274 79.8913 37.7729 80.5828 37.5478C80.6591 37.535 80.7277 37.4938 80.7744 37.4325C80.8212 37.3712 80.8427 37.2944 80.8345 37.2179C80.8105 37.0431 80.6707 36.9676 80.5189 36.9278C80.2547 36.8658 79.9814 36.851 79.712 36.8841Z" fill="#2860AA"/>
<path d="M13.716 14.9085C13.7263 15.1055 13.6883 15.302 13.6053 15.481C13.5223 15.6601 13.3968 15.8164 13.2395 15.9365C13.0822 16.0566 12.898 16.1368 12.7027 16.1703C12.5073 16.2037 12.3067 16.1894 12.1181 16.1285C11.6498 15.9679 11.2192 15.7141 10.8525 15.3828C10.4858 15.0515 10.1907 14.6495 9.98495 14.2012C9.87715 13.9615 9.84683 13.6943 9.8982 13.4367C9.94958 13.1792 10.0801 12.9438 10.2718 12.7632C10.4634 12.5826 10.7067 12.4656 10.968 12.4285C11.2294 12.3914 11.4958 12.4359 11.7306 12.556C12.4303 12.8942 13.0273 13.4112 13.4604 14.0541C13.6491 14.2976 13.7402 14.6021 13.716 14.9085ZM11.0995 13.319C11.0332 13.3103 10.9659 13.3198 10.9046 13.3464C10.8434 13.373 10.7906 13.4157 10.752 13.47C10.7105 13.5259 10.6916 13.5953 10.6989 13.6645C10.7063 13.7336 10.7395 13.7975 10.7919 13.8435C11.2149 14.3999 11.741 14.8707 12.3418 15.2304C12.4148 15.2883 12.5073 15.316 12.6003 15.3079C12.6932 15.2997 12.7795 15.2564 12.8412 15.1867C13.0009 15.0079 12.8971 14.841 12.7812 14.6979C12.3837 14.2187 11.9181 13.7997 11.3991 13.4541C11.3042 13.3955 11.2039 13.3463 11.0995 13.307V13.319Z" fill="#2860AA"/>
<path d="M15.3454 8.60568C15.3321 8.3956 15.3749 8.18574 15.4695 7.99745C15.5641 7.80917 15.7072 7.64917 15.8841 7.53371C16.061 7.41825 16.2656 7.35145 16.4769 7.34011C16.6881 7.32877 16.8987 7.37328 17.0871 7.46913C17.5751 7.70455 17.9975 8.05561 18.3172 8.49145C18.6369 8.9273 18.8441 9.43459 18.9206 9.96875C18.9494 10.1835 18.921 10.402 18.8382 10.6024C18.7553 10.8028 18.621 10.978 18.4486 11.1104C18.2762 11.2428 18.0718 11.3279 17.856 11.357C17.6402 11.3861 17.4205 11.3582 17.2189 11.2762C16.4 10.9821 15.3414 9.47598 15.3454 8.60568ZM18.0897 10.1277C18.0897 9.7621 16.9473 8.3434 16.5997 8.24802C16.3561 8.18047 16.0964 8.38711 16.2003 8.61363C16.4958 9.32633 16.9788 9.94677 17.5984 10.4099C17.6467 10.4438 17.7038 10.4632 17.7629 10.4657C17.822 10.4681 17.8805 10.4536 17.9316 10.4239C17.9826 10.3941 18.0238 10.3503 18.0505 10.2978C18.0771 10.2453 18.088 10.1862 18.0817 10.1277H18.0897Z" fill="#2860AA"/>
<path d="M79.6599 42.3567C79.1892 42.3902 78.7167 42.3238 78.2738 42.162C78.0068 42.0718 77.7803 41.8909 77.6342 41.651C77.4881 41.4111 77.4317 41.1277 77.4748 40.8506C77.4609 40.583 77.5427 40.3192 77.7058 40.1061C77.8689 39.8929 78.1027 39.7441 78.3656 39.6862C79.1917 39.4612 80.0665 39.4861 80.8783 39.7577C81.1375 39.8579 81.3586 40.0366 81.5102 40.2686C81.6617 40.5006 81.7362 40.7741 81.7229 41.0505C81.7097 41.3268 81.6094 41.5921 81.4363 41.8086C81.2632 42.0252 81.0261 42.1822 80.7584 42.2573C80.4004 42.3515 80.0291 42.3851 79.6599 42.3567ZM79.7837 41.3831C80.0781 41.4004 80.3735 41.3709 80.6586 41.2956C80.8064 41.24 80.9422 41.1685 80.9462 40.9857C80.9423 40.9083 80.9115 40.8346 80.859 40.7773C80.8066 40.72 80.7357 40.6827 80.6586 40.6717C79.9655 40.4977 79.2422 40.4801 78.5414 40.6201C78.3736 40.6519 78.2018 40.7393 78.2058 40.938C78.2098 41.1367 78.3696 41.2122 78.5374 41.2678C78.9455 41.3634 79.3649 41.4022 79.7837 41.3831Z" fill="#2860AA"/>
<path d="M44.0472 78.6701C44.0661 79.0629 44.0284 79.4563 43.9354 79.8385C43.8578 80.101 43.6997 80.3328 43.4831 80.5014C43.2666 80.6701 43.0024 80.7671 42.7276 80.7789C42.4528 80.7907 42.1812 80.7168 41.9508 80.5674C41.7204 80.418 41.5428 80.2006 41.4427 79.9458C41.1526 79.1443 41.1136 78.2741 41.3308 77.4501C41.371 77.1841 41.5088 76.9424 41.7175 76.7714C41.9263 76.6004 42.1912 76.5124 42.4614 76.5242C43.1964 76.5004 43.6198 76.7587 43.8475 77.3786C43.9796 77.7965 44.0469 78.232 44.0472 78.6701ZM42.1857 78.388C42.1803 78.8339 42.2395 79.2782 42.3615 79.7073C42.4174 79.8544 42.4973 79.9935 42.6731 79.9935C42.7503 79.9912 42.8242 79.9615 42.8814 79.9098C42.9385 79.858 42.9751 79.7876 42.9846 79.7113C43.1405 78.9887 43.1047 78.2382 42.8808 77.5336C42.8668 77.4657 42.8306 77.4043 42.7778 77.359C42.7251 77.3137 42.6587 77.2871 42.5892 77.2832C42.4174 77.2832 42.3295 77.4183 42.2776 77.5694C42.2041 77.8357 42.1784 78.1128 42.2017 78.388H42.1857Z" fill="#2860AA"/>
<path d="M27.0541 5.06034C27.0541 5.95051 26.8344 6.30419 26.3311 6.51084C26.0884 6.62368 25.816 6.65754 25.5529 6.6076C25.2897 6.55767 25.049 6.42647 24.8651 6.23266C24.2347 5.52553 23.8717 4.62198 23.8384 3.67741C23.8186 3.43397 23.8798 3.19081 24.0126 2.98541C24.1455 2.78001 24.3425 2.62379 24.5734 2.54085C24.8065 2.42259 25.072 2.38343 25.3295 2.42935C25.587 2.47528 25.8223 2.60376 25.9995 2.79519C26.5899 3.41567 26.9602 4.21111 27.0541 5.06034ZM26.1913 5.36634C26.0208 4.66602 25.7214 4.00314 25.3085 3.41115C25.1886 3.29988 25.0688 3.2204 24.909 3.30385C24.8337 3.33488 24.7729 3.39305 24.7389 3.46673C24.7048 3.54041 24.6999 3.62416 24.7252 3.70125C24.8724 4.40932 25.1737 5.07671 25.6081 5.65643C25.7079 5.77565 25.8358 5.86308 26.0075 5.76373C26.0767 5.72558 26.1318 5.66646 26.1649 5.59498C26.1979 5.52351 26.2072 5.44341 26.1913 5.36634Z" fill="#2860AA"/>
<path d="M16.2723 12.1778C16.2723 13.3183 15.3815 13.9542 14.5387 13.5647C13.6604 13.1551 12.9789 12.4187 12.6412 11.5142C12.5343 11.2591 12.5155 10.976 12.5878 10.7091C12.6601 10.4423 12.8194 10.2069 13.0407 10.0398C13.2471 9.86564 13.5068 9.76611 13.7773 9.75745C14.0479 9.74879 14.3134 9.83151 14.5307 9.99215C15.3975 10.5723 16.1325 11.2598 16.2723 12.1778ZM15.4734 12.4878C15.4734 12.0904 14.1312 10.6717 13.7557 10.6598C13.516 10.6598 13.2883 10.8028 13.4161 11.0572C13.7676 11.7802 14.3356 12.3772 15.042 12.766C15.2857 12.8772 15.4215 12.6984 15.4614 12.4878H15.4734Z" fill="#2860AA"/>
<path d="M76.4483 52.1912C77.2861 52.2874 78.0788 52.6197 78.7332 53.1489C78.9558 53.3416 79.1068 53.6031 79.1619 53.8914C79.2169 54.1797 79.1729 54.4781 79.0368 54.7385C78.9374 54.9886 78.7532 55.1962 78.5161 55.3254C78.279 55.4546 78.0039 55.4972 77.7385 55.4459C76.9148 55.3707 76.1321 55.054 75.4895 54.5359C75.2673 54.3479 75.1125 54.0931 75.0484 53.81C74.9842 53.5269 75.0143 53.2308 75.134 52.9662C75.2373 52.7114 75.4219 52.4976 75.6594 52.3576C75.8969 52.2175 76.1741 52.1591 76.4483 52.1912ZM76.3684 53.1609C76.0888 53.1609 75.921 53.1609 75.8131 53.3198C75.7945 53.3439 75.781 53.3715 75.7737 53.401C75.7664 53.4305 75.7653 53.4611 75.7706 53.4911C75.7759 53.521 75.7873 53.5495 75.8043 53.5747C75.8212 53.6 75.8433 53.6214 75.8691 53.6377C76.5197 54.132 77.3015 54.4262 78.1181 54.4842C78.1887 54.4854 78.2575 54.4618 78.3123 54.4174C78.3672 54.3731 78.4045 54.3109 78.4177 54.2418C78.4296 54.1824 78.4211 54.1207 78.3936 54.0666C78.3661 54.0126 78.3211 53.9693 78.2659 53.9437C77.6877 53.5671 77.0443 53.3003 76.3684 53.1569V53.1609Z" fill="#2860AA"/>
<path d="M78.9367 43.1632C79.514 43.1575 80.0872 43.26 80.6265 43.4652C80.9262 43.5641 81.1779 43.7711 81.3317 44.0455C81.4855 44.32 81.5304 44.6418 81.4574 44.9475C81.4239 45.2397 81.283 45.5093 81.0618 45.7044C80.8405 45.8995 80.5546 46.0064 80.259 46.0045C79.5787 46.0882 78.8883 46.0204 78.2376 45.8058C78.0633 45.7728 77.8977 45.7046 77.7508 45.6055C77.6039 45.5064 77.4789 45.3785 77.3836 45.2297C77.2882 45.0808 77.2244 44.9142 77.1961 44.7399C77.1678 44.5656 77.1756 44.3874 77.219 44.2163C77.3109 43.5764 77.7982 43.1989 78.5972 43.1592C78.721 43.1592 78.8289 43.1632 78.9367 43.1632ZM79.8795 45.1025V45.0826H80.0592C80.3229 45.0826 80.6464 45.0269 80.6864 44.7527C80.7263 44.4785 80.4028 44.4308 80.1831 44.3553C79.6483 44.2083 79.0961 44.1334 78.5412 44.1328C78.3375 44.1328 77.998 44.1328 77.986 44.4706C77.974 44.8084 78.2616 44.8481 78.4893 44.8958C78.9527 44.9832 79.4161 45.0389 79.8795 45.1025Z" fill="#2860AA"/>
<path d="M40.4523 78.2609C40.4831 78.8301 40.396 79.3995 40.1966 79.9339C40.1019 80.1927 39.9201 80.411 39.6819 80.5515C39.4438 80.692 39.1641 80.7462 38.8904 80.7048C38.62 80.7093 38.3566 80.6196 38.1458 80.4512C37.935 80.2829 37.7899 80.0464 37.7359 79.7829C37.5133 78.9429 37.5551 78.0551 37.8558 77.2395C37.9417 76.9759 38.119 76.7512 38.3561 76.6056C38.5932 76.46 38.8746 76.403 39.15 76.4448C39.4269 76.4459 39.6953 76.5393 39.9125 76.71C40.1298 76.8807 40.2832 77.1189 40.3484 77.3866C40.4308 77.6704 40.4659 77.9657 40.4523 78.2609ZM39.4576 78.4119C39.4923 78.1263 39.4747 77.8368 39.4057 77.5575C39.3618 77.3985 39.2978 77.2276 39.0981 77.2117C38.8984 77.1958 38.7945 77.3588 38.7586 77.5177C38.5713 78.1877 38.5344 78.8905 38.6507 79.5762C38.6826 79.7511 38.7625 79.9498 38.9822 79.9458C39.2019 79.9418 39.2779 79.7511 39.3258 79.5762C39.4247 79.1989 39.4691 78.8096 39.4576 78.4198V78.4119Z" fill="#2860AA"/>
<path d="M75.0458 55.5064C75.9308 55.6442 76.7476 56.0623 77.3747 56.6986C77.5693 56.9123 77.6876 57.1838 77.7114 57.4712C77.7353 57.7585 77.6633 58.0457 77.5065 58.2882C77.3749 58.5217 77.1663 58.703 76.916 58.8014C76.6657 58.8999 76.3889 58.9095 76.1323 58.8287C75.2898 58.6778 74.5189 58.2595 73.9353 57.6365C73.7579 57.4349 73.6487 57.183 73.6229 56.9164C73.5971 56.6497 73.656 56.3817 73.7915 56.1502C73.9052 55.9247 74.0879 55.7408 74.3133 55.6251C74.5387 55.5094 74.7951 55.4679 75.0458 55.5064ZM74.9499 56.4562C74.6583 56.4324 74.5185 56.4562 74.4227 56.6112C74.4045 56.6358 74.3915 56.6637 74.3844 56.6934C74.3774 56.7231 74.3765 56.7539 74.3817 56.784C74.3869 56.814 74.3982 56.8427 74.4149 56.8684C74.4315 56.894 74.4532 56.916 74.4786 56.9331C75.0754 57.447 75.7947 57.8 76.5678 57.9584C76.6449 57.9685 76.7231 57.9529 76.7903 57.9141C76.8575 57.8753 76.9099 57.8154 76.9393 57.7438C76.9636 57.6963 76.9693 57.6415 76.9553 57.5901C76.9412 57.5387 76.9085 57.4943 76.8634 57.4656C76.2996 57.0056 75.649 56.6624 74.9499 56.4562Z" fill="#2860AA"/>
<path d="M21.1581 74.8797C21.2526 73.892 21.7367 72.9818 22.5043 72.3483C22.7185 72.1848 22.9795 72.0932 23.2494 72.0868C23.5194 72.0804 23.7844 72.1594 24.0063 72.3125C24.2376 72.4373 24.4191 72.6369 24.5208 72.8782C24.6225 73.1196 24.6383 73.3883 24.5655 73.6398C24.4025 74.4779 23.9725 75.2415 23.3392 75.8176C23.1432 75.9899 22.8992 76.0989 22.6395 76.1301C22.3798 76.1614 22.1167 76.1133 21.8851 75.9924C21.6584 75.9115 21.4645 75.7588 21.3332 75.5579C21.2019 75.3569 21.1404 75.1187 21.1581 74.8797ZM22.0849 74.9552C22.0742 75.0333 22.0871 75.1128 22.122 75.1835C22.1568 75.2543 22.212 75.3131 22.2806 75.3526C22.4524 75.444 22.5722 75.3327 22.6801 75.2135C23.0438 74.7486 23.3396 74.2348 23.5589 73.6875C23.6438 73.525 23.6785 73.3411 23.6587 73.159C23.6108 72.8808 23.3591 72.7616 23.1714 72.9523C22.65 73.5228 22.2746 74.2098 22.0769 74.9552H22.0849Z" fill="#2860AA"/>
<path d="M36.8091 77.7437C36.8191 78.321 36.716 78.8946 36.5055 79.4327C36.4202 79.7202 36.2334 79.9674 35.9794 80.1287C35.7255 80.2901 35.4215 80.3548 35.1234 80.3109C34.811 80.311 34.5109 80.1898 34.2871 79.9731C34.0632 79.7563 33.9333 79.4612 33.925 79.1505C33.8277 78.4114 33.9297 77.6598 34.2206 76.9728C34.3281 76.6765 34.5386 76.4283 34.8141 76.273C35.0896 76.1177 35.4119 76.0656 35.7226 76.1261C36.0334 76.1866 36.3121 76.3557 36.5085 76.6028C36.7048 76.8499 36.8058 77.1588 36.7931 77.4735C36.8131 77.561 36.8091 77.6523 36.8091 77.7437ZM34.8797 78.6975C34.8797 78.9121 34.8797 79.0035 34.8797 79.0949C34.8797 79.2976 34.9236 79.5161 35.1553 79.5638C35.387 79.6115 35.5189 79.3731 35.5828 79.1664C35.7718 78.5742 35.8648 77.9558 35.8584 77.3344C35.8584 77.1318 35.8144 76.8735 35.5508 76.8377C35.2871 76.8019 35.2033 77.0443 35.1513 77.2351C34.9975 77.7088 34.9062 78.2004 34.8797 78.6975Z" fill="#2860AA"/>
<path d="M25.8797 77.6257C25.6829 77.6452 25.4842 77.6181 25.2999 77.5466C25.1156 77.4752 24.9509 77.3614 24.8192 77.2145C24.6876 77.0677 24.5927 76.8919 24.5424 76.7016C24.492 76.5113 24.4876 76.3118 24.5295 76.1195C24.6319 75.4141 24.9062 74.7442 25.3285 74.1683C25.5062 73.881 25.787 73.6716 26.114 73.5824C26.441 73.4931 26.7899 73.5307 27.0901 73.6875C27.6654 73.9498 27.889 74.4823 27.7532 75.2135C27.6257 75.8855 27.3441 76.5192 26.9303 77.0653C26.8162 77.2386 26.6603 77.3807 26.4767 77.4786C26.2932 77.5764 26.088 77.627 25.8797 77.6257ZM25.4803 76.2984C25.4803 76.5845 25.4802 76.7673 25.652 76.8746C25.6965 76.9052 25.7511 76.9178 25.8046 76.9097C25.8581 76.9015 25.9064 76.8733 25.9397 76.8309C26.4547 76.197 26.7739 75.4281 26.8584 74.6174C26.8655 74.5409 26.8448 74.4643 26.8001 74.4017C26.7554 74.339 26.6897 74.2943 26.6147 74.2756C26.4589 74.2279 26.3551 74.3432 26.2792 74.4544C25.9012 75.0193 25.6266 75.6463 25.4683 76.3063L25.4803 76.2984Z" fill="#2860AA"/>
<path d="M20.0318 70.1492C20.2372 70.1365 20.443 70.168 20.6351 70.2415C20.8272 70.3149 21.0012 70.4286 21.1452 70.5749C21.2892 70.7212 21.3998 70.8966 21.4696 71.0892C21.5394 71.2818 21.5668 71.4871 21.5498 71.6911C21.5498 71.8699 21.5497 72.168 21.2541 72.0885C20.9585 72.009 20.5831 71.9971 20.5991 71.6077C20.615 71.2182 20.5471 70.9679 20.1556 70.9082C19.8999 70.8685 19.4845 71.3891 19.4645 71.703C19.4635 71.8636 19.5263 72.0181 19.6393 72.1327C19.7523 72.2474 19.9063 72.3129 20.0677 72.315C20.1568 72.3072 20.2464 72.3072 20.3354 72.315C20.4233 72.3164 20.5085 72.3449 20.5794 72.3966C20.6502 72.4483 20.7031 72.5207 20.7308 72.6036C20.7584 72.6866 20.7594 72.7761 20.7337 72.8597C20.7079 72.9432 20.6567 73.0168 20.5871 73.0701C20.2515 73.4238 19.908 73.7655 19.5804 74.1232C19.5486 74.1694 19.5073 74.2083 19.4593 74.2375C19.4113 74.2667 19.3576 74.2855 19.3018 74.2926C19.2459 74.2998 19.1893 74.2951 19.1354 74.2789C19.0815 74.2627 19.0317 74.2354 18.9892 74.1987C18.5724 73.8938 18.1404 73.6099 17.6949 73.3483C17.4193 73.1893 17.4832 73.0423 17.627 72.8475C17.7708 72.6528 17.8587 72.3866 18.1823 72.6131C18.4299 72.7879 18.6936 72.9429 18.9373 73.1217C18.9708 73.1536 19.0119 73.1764 19.0567 73.1882C19.1015 73.2001 19.1487 73.2004 19.1937 73.1893C19.2387 73.1783 19.2801 73.156 19.3142 73.1248C19.3483 73.0935 19.3739 73.0542 19.3887 73.0105C19.5205 72.7959 19.2888 72.8197 19.1929 72.7681C18.9272 72.6308 18.7176 72.4059 18.6003 72.1318C18.483 71.8578 18.4651 71.5516 18.5498 71.2659C18.6349 70.9413 18.8274 70.6546 19.0962 70.452C19.3651 70.2495 19.6946 70.1428 20.0318 70.1492Z" fill="#2860AA"/>
<path d="M77.0594 30.3903C77.1753 30.8314 77.2552 31.1851 77.359 31.4951C77.4629 31.8051 77.359 31.8925 77.0754 31.9203C76.7918 31.9481 76.608 32.1548 76.5082 31.7455C76.3324 31.0262 76.1087 30.3109 75.929 29.5995C75.8451 29.2896 75.9529 29.1743 76.2645 29.2021C76.6455 29.2249 77.016 29.335 77.347 29.524C77.7465 29.7505 78.146 29.989 78.5454 30.2115C78.6683 30.2889 78.8033 30.3454 78.9449 30.3784C79.2445 30.4301 79.5281 30.3546 79.576 30.0208C79.5892 29.9523 79.5863 29.8817 79.5675 29.8145C79.5487 29.7474 79.5146 29.6854 79.4678 29.6335C79.4211 29.5816 79.3629 29.5411 79.2979 29.5152C79.2328 29.4894 79.1626 29.4788 79.0927 29.4843C78.5814 29.4604 78.7811 29.0471 78.7332 28.8087C78.6733 28.4789 78.9769 28.5663 79.1326 28.5703C79.8996 28.5703 80.4029 29.2379 80.379 30.1598C80.3859 30.324 80.3564 30.4876 80.2926 30.6392C80.2289 30.7907 80.1324 30.9265 80.0101 31.0368C79.8877 31.1471 79.7425 31.2294 79.5847 31.2777C79.4268 31.3259 79.2602 31.3391 79.0967 31.3163C78.6825 31.2917 78.2831 31.1542 77.9422 30.9189L77.0594 30.3903Z" fill="#2860AA"/>
<path d="M49.6003 76.4331C49.2008 76.5205 48.8573 76.5881 48.5137 76.6835C48.1702 76.7788 48.1582 76.5205 48.1143 76.3059C48.0703 76.0913 47.9745 75.9085 48.306 75.8251C49.065 75.6701 49.824 75.4952 50.575 75.3124C50.8106 75.2568 50.8826 75.3403 50.8826 75.5509C50.8875 75.9323 50.7866 76.3077 50.591 76.6358C50.3633 77.0332 50.1076 77.4028 49.8719 77.7922C49.7274 77.9698 49.6373 78.185 49.6123 78.4121C49.6123 78.6784 49.7121 78.9168 50.0117 78.9526C50.0762 78.9666 50.1431 78.9658 50.2071 78.9501C50.2712 78.9344 50.3309 78.9042 50.3814 78.862C50.432 78.8198 50.4721 78.7666 50.4987 78.7065C50.5254 78.6464 50.5378 78.5811 50.535 78.5154C50.575 77.9551 51.0344 78.1737 51.294 78.1538C51.5537 78.1339 51.4578 78.4519 51.4538 78.6148C51.4533 78.8371 51.3819 79.0535 51.2497 79.2327C51.1176 79.412 50.9317 79.5449 50.7188 79.6123C50.1555 79.8269 49.5883 79.9063 49.085 79.4692C48.904 79.2925 48.7769 79.0686 48.7183 78.8233C48.6596 78.5779 48.6718 78.3211 48.7534 78.0823C48.8412 77.7606 48.9874 77.4575 49.1848 77.1881C49.3625 76.9599 49.5027 76.705 49.6003 76.4331Z" fill="#2860AA"/>
<path d="M22.6362 7.12329C22.9881 7.02166 23.3203 6.86179 23.6189 6.65039C23.9225 6.45964 24.0184 6.65039 24.1262 6.86101C24.2341 7.07163 24.4458 7.25841 24.0783 7.44916C23.4032 7.79092 22.7361 8.15652 22.0809 8.5261C21.8173 8.67314 21.7294 8.55789 21.6815 8.32343C21.598 7.7361 21.6653 7.13729 21.8772 6.58283C21.9771 6.253 22.0969 5.92316 22.1728 5.58537C22.2015 5.45824 22.1905 5.32543 22.1412 5.20471C22.092 5.08398 22.0068 4.9811 21.8972 4.9098C21.7094 4.77071 21.5497 4.86211 21.3979 4.97338C21.3185 5.02075 21.2597 5.09591 21.2331 5.18412C21.2065 5.27232 21.214 5.36724 21.254 5.45026C21.3419 5.64896 21.254 5.74433 21.0743 5.84766C20.4791 6.13776 20.3353 6.0543 20.3313 5.38668C20.3428 5.01212 20.5024 4.65721 20.7754 4.39901C21.0484 4.14082 21.4127 4.00021 21.7893 4.00771C22.5403 3.98784 22.9877 4.4369 23.0477 5.24759C23.0698 5.62571 23.014 6.00435 22.8839 6.36029C22.796 6.58681 22.7281 6.82922 22.6362 7.12329Z" fill="#2860AA"/>
<path d="M46.1565 77.1599C45.7988 77.1346 45.4393 77.1628 45.0899 77.2434C44.7703 77.303 44.6904 77.1321 44.6904 76.8738C44.6904 76.6155 44.6145 76.4366 44.9821 76.4009C45.7211 76.3333 46.4601 76.2181 47.1951 76.1068C47.4707 76.0671 47.5506 76.1585 47.5267 76.4207C47.4802 76.8132 47.3269 77.1856 47.0833 77.4977C46.8276 77.8514 46.548 78.1931 46.2843 78.5389C46.143 78.6983 46.049 78.8937 46.0127 79.1032C45.9824 79.2233 46.0011 79.3505 46.0647 79.4569C46.1283 79.5634 46.2317 79.6405 46.3522 79.6714C46.4118 79.6915 46.4752 79.6972 46.5374 79.6882C46.5996 79.6793 46.6588 79.6558 46.7102 79.6198C46.7616 79.5838 46.8037 79.5362 46.8331 79.481C46.8625 79.4257 46.8784 79.3644 46.8795 79.3019C46.9674 78.7256 47.4068 78.9919 47.6785 79.0038C47.9501 79.0157 47.8342 79.3257 47.8183 79.5085C47.8 79.643 47.7523 79.7719 47.6785 79.886C47.3389 80.4146 46.3163 80.6371 45.6811 80.3271C45.4017 80.1657 45.1931 79.9062 45.0963 79.5996C44.9995 79.2929 45.0214 78.9614 45.1578 78.67C45.3606 78.2339 45.6301 77.8317 45.9568 77.4778C46.0007 77.3904 46.0447 77.303 46.1565 77.1599Z" fill="#2860AA"/>
<path d="M77.8344 33.912C77.8323 34.2528 77.8767 34.5924 77.9662 34.9214C78.0102 35.1638 78.0261 35.3426 77.7026 35.3545C77.4709 35.3545 77.1952 35.5572 77.1313 35.1082C77.0274 34.361 76.8836 33.6179 76.7318 32.8708C76.6919 32.6483 76.7638 32.5608 76.9875 32.5767C77.3395 32.5937 77.6804 32.7049 77.9742 32.8986C78.3737 33.1609 78.7451 33.4391 79.1286 33.6934C79.2923 33.8302 79.4828 33.9316 79.6879 33.9915C79.9875 34.059 80.2591 33.9915 80.339 33.6696C80.358 33.6066 80.3622 33.5401 80.3513 33.4752C80.3404 33.4104 80.3146 33.3489 80.276 33.2955C80.2374 33.2421 80.187 33.1983 80.1287 33.1674C80.0703 33.1365 80.0056 33.1193 79.9396 33.1172C79.3763 33.0417 79.616 32.5887 79.62 32.3224C79.62 31.9926 79.9555 32.1793 80.1273 32.2072C80.8623 32.3343 81.2818 33.141 81.102 34.0392C81.0679 34.1955 81.0018 34.3432 80.9078 34.473C80.8138 34.6029 80.6939 34.712 80.5555 34.7937C80.4172 34.8753 80.2635 34.9278 80.1039 34.9477C79.9443 34.9676 79.7823 34.9546 79.628 34.9095C79.2138 34.8059 78.8287 34.6102 78.5015 34.3372C78.3073 34.1559 78.0811 34.0117 77.8344 33.912Z" fill="#2860AA"/>
<path d="M10.4679 17.888C10.7515 17.5144 10.9832 17.2203 11.1989 16.9143C11.3188 16.7395 11.4426 16.6878 11.5984 16.8468C11.7542 17.0057 12.1297 17.0812 11.9179 17.3872C11.4506 18.0787 10.9393 18.7384 10.4399 19.406C10.2961 19.5928 10.2082 19.406 10.1283 19.3226C9.80688 18.8592 9.6228 18.3153 9.59705 17.7528C9.55311 17.4548 9.52113 17.1528 9.47319 16.8547C9.45711 16.7268 9.41565 16.6033 9.35119 16.4914C9.28673 16.3795 9.20057 16.2815 9.09772 16.203C9.05421 16.1656 9.00359 16.1372 8.94889 16.1195C8.89419 16.1018 8.83651 16.0951 8.77919 16.0999C8.72188 16.1048 8.6661 16.1209 8.61516 16.1475C8.56421 16.1741 8.5191 16.2105 8.48252 16.2547C8.43965 16.2867 8.40428 16.3276 8.3788 16.3745C8.35332 16.4215 8.33833 16.4734 8.33491 16.5266C8.3315 16.5798 8.33973 16.6332 8.359 16.683C8.37827 16.7327 8.40815 16.7778 8.44658 16.815C8.62235 17.0336 8.34669 17.6654 8.07505 17.6972C7.97119 17.6972 7.9153 17.6177 7.85938 17.5502C7.6841 17.3569 7.57102 17.1158 7.53471 16.858C7.4984 16.6002 7.54051 16.3374 7.65564 16.1037C7.73647 15.8316 7.9025 15.5924 8.12957 15.4208C8.35664 15.2493 8.63288 15.1544 8.91797 15.1499C9.18154 15.1555 9.43665 15.2432 9.64737 15.4008C9.8581 15.5584 10.0138 15.7778 10.0924 16.0281C10.3401 16.5766 10.2681 17.2203 10.4679 17.888Z" fill="#2860AA"/>
<path d="M30.0661 75.7374C29.6666 75.6063 29.2672 75.4712 28.9076 75.3758C28.648 75.3082 28.644 75.1652 28.7239 74.9784C28.8038 74.7916 28.7838 74.5095 29.1234 74.6049C29.9223 74.8433 30.6893 75.0937 31.4722 75.3321C31.668 75.3917 31.644 75.499 31.5641 75.6421C31.4264 75.8968 31.2203 76.1087 30.9689 76.254C30.5095 76.5123 30.0342 76.7548 29.5668 77.0051C29.4261 77.0618 29.2982 77.1459 29.1905 77.2523C29.0828 77.3587 28.9975 77.4855 28.9396 77.6251C28.8968 77.7325 28.8965 77.8521 28.9387 77.9597C28.981 78.0674 29.0626 78.1551 29.1673 78.2053C29.395 78.3404 29.5668 78.241 29.7106 78.0503C29.8551 77.9482 30.0317 77.9009 30.2082 77.9169C30.3848 77.933 30.5497 78.0113 30.6733 78.1377C30.7332 78.2371 30.6733 78.3126 30.6214 78.3881C30.5055 78.6029 30.3249 78.7762 30.105 78.8838C29.8851 78.9914 29.6368 79.0279 29.395 78.9881C28.8038 78.9404 28.2725 78.7696 28.0248 78.1933C27.9337 77.9746 27.9101 77.7338 27.9571 77.5017C28.004 77.2695 28.1194 77.0565 28.2885 76.8899C28.5164 76.65 28.7874 76.4546 29.0874 76.3137C29.44 76.1697 29.7696 75.9756 30.0661 75.7374Z" fill="#2860AA"/>
<path d="M77.0436 49.911C76.9038 50.4038 76.7919 50.7654 76.708 51.131C76.6481 51.4052 76.5003 51.4132 76.2806 51.3416C76.0609 51.2701 75.8212 51.2542 75.9211 50.9085C76.1408 50.1693 76.3445 49.4262 76.5402 48.6791C76.6082 48.4128 76.728 48.4208 76.9397 48.54C77.3049 48.7907 77.6015 49.1281 77.8026 49.5216C78.0023 49.8593 78.2021 50.2091 78.3738 50.5508C78.4747 50.7578 78.6419 50.9256 78.8492 51.0277C78.8999 51.062 78.957 51.086 79.0172 51.0981C79.0773 51.1103 79.1393 51.1105 79.1995 51.0987C79.2597 51.0869 79.3169 51.0632 79.3679 51.0292C79.4188 50.9952 79.4625 50.9515 79.4963 50.9005C79.6721 50.6462 79.5802 50.4554 79.3445 50.2846C79.1088 50.1137 79.1967 49.4103 79.4284 49.3149C79.5362 49.2752 79.6282 49.3626 79.716 49.4103C79.9482 49.5463 80.1299 49.7532 80.2343 50.0002C80.3387 50.2472 80.36 50.5212 80.2953 50.7813C80.2972 51.0491 80.2168 51.3111 80.0647 51.532C79.9125 51.7529 79.6961 51.9223 79.4444 52.0172C79.204 52.0936 78.9461 52.0966 78.704 52.0258C78.4619 51.9549 78.2467 51.8135 78.0862 51.6198C77.8418 51.3495 77.6397 51.044 77.487 50.7137C77.3552 50.4713 77.2313 50.2528 77.0436 49.911Z" fill="#2860AA"/>
<path d="M8.495 20.901C8.73868 20.5036 8.94239 20.1936 9.12614 19.8717C9.234 19.681 9.34585 19.5896 9.52561 19.7485C9.70537 19.9075 10.0369 19.9472 9.8452 20.2771C9.44574 20.9725 9.02231 21.656 8.60686 22.3395C8.47504 22.5581 8.36319 22.4349 8.25533 22.3395C7.97935 22.0352 7.78917 21.6637 7.70406 21.2626C7.58822 20.8215 7.49232 20.3804 7.38047 19.9393C7.35504 19.8126 7.30222 19.693 7.22565 19.5887C7.14908 19.4844 7.0506 19.3979 6.93707 19.3352C6.84025 19.2724 6.7229 19.2489 6.60918 19.2696C6.49547 19.2903 6.39405 19.3536 6.32587 19.4465C6.28805 19.484 6.25874 19.5292 6.23985 19.5789C6.22096 19.6286 6.21295 19.6817 6.21635 19.7348C6.21975 19.7878 6.23451 19.8395 6.2596 19.8864C6.28469 19.9333 6.31955 19.9744 6.36186 20.0068C6.40426 20.0782 6.43152 20.1575 6.44198 20.2398C6.45243 20.3221 6.44586 20.4056 6.42267 20.4853C6.39947 20.5649 6.36015 20.639 6.3071 20.703C6.25405 20.767 6.18839 20.8195 6.11419 20.8573C5.85054 20.9884 5.75466 20.7063 5.65079 20.5552C5.22336 19.9472 5.52697 18.8504 6.21006 18.453C6.89315 18.0556 7.58423 18.3855 7.96373 19.1524C8.21939 19.6571 8.22336 20.2492 8.495 20.901Z" fill="#2860AA"/>
<path d="M4.93138 47.1247C4.9913 47.387 4.7876 47.3989 4.60784 47.4346C3.75697 47.6015 2.9101 47.7804 2.05523 47.9274C1.72368 47.983 1.60386 48.1023 1.72769 48.4281C1.75722 48.5298 1.77988 48.6334 1.79557 48.7381C1.88345 49.1633 1.63579 49.4137 1.20037 49.3421C1.0286 49.3143 1.0366 49.1832 1.01263 49.0759C0.82488 48.1738 0.653092 47.2638 0.445368 46.3696C0.36148 45.9722 0.601161 45.9722 0.844836 45.9285C1.08851 45.8848 1.2443 45.9285 1.28824 46.1987C1.47599 47.0571 1.48798 47.0531 2.34684 46.8783L4.18038 46.5127C4.81154 46.3855 4.89943 46.465 4.93138 47.1247Z" fill="#2860AA"/>
<path d="M62.1909 6.45974C62.1909 6.32463 62.107 6.28489 62.0351 6.23323C61.8953 6.14183 61.7554 6.05042 61.6116 5.96697C61.3719 5.82391 61.2122 5.70867 61.4359 5.3828C61.6596 5.05694 61.7954 5.0927 62.063 5.2755C62.79 5.76828 63.5251 6.2531 64.2681 6.72202C64.5158 6.87701 64.5117 7.00815 64.352 7.22274C64.1922 7.43733 64.1083 7.58438 63.8167 7.4135C63.0617 6.97636 63.0537 6.98431 62.5783 7.70359C62.2028 8.27187 61.8153 8.8322 61.4638 9.41637C61.2281 9.81376 61.0124 9.60711 60.7527 9.46405C60.4931 9.32099 60.4012 9.16203 60.6089 8.86796C61.0963 8.17649 61.5477 7.4572 62.0111 6.74984C62.079 6.65049 62.1389 6.5432 62.1909 6.45974Z" fill="#2860AA"/>
<path d="M10.0249 59.5869C10.0488 59.726 9.93701 59.7657 9.84912 59.8174C8.79053 60.4413 7.73192 61.0612 6.67732 61.6891C6.49756 61.7964 6.38172 61.7805 6.27785 61.5897C5.87839 60.8983 5.47894 60.2108 5.04751 59.5273C4.87574 59.2451 5.10745 59.1815 5.26724 59.0981C5.42703 59.0146 5.60676 58.7722 5.79451 59.0981C6.02221 59.4955 6.26988 59.869 6.48958 60.2664C6.61342 60.4969 6.73327 60.5168 6.94898 60.3817C7.66003 59.9485 8.38308 59.5312 9.10212 59.11C9.19031 59.0505 9.29303 59.0159 9.39938 59.0097C9.50573 59.0036 9.61176 59.0261 9.7063 59.075C9.80083 59.1238 9.88033 59.1972 9.93641 59.2873C9.99249 59.3774 10.023 59.4809 10.0249 59.5869Z" fill="#2860AA"/>
<path d="M51.7051 1.04725C51.7051 1.44464 51.5413 1.57976 51.1338 1.44464C50.7903 1.33337 50.4188 1.29363 50.0752 1.17441C49.7317 1.05519 49.6758 1.17441 49.5999 1.48041C49.4201 2.32686 49.2004 3.15742 49.0246 4.00387C48.9208 4.52843 48.6252 4.28999 48.3376 4.25423C48.0499 4.21846 47.9381 4.12309 48.014 3.78133C48.2976 2.69643 48.5413 1.6036 48.785 0.51076C48.8489 0.216688 48.9607 0.113368 49.2763 0.184899C49.9953 0.375649 50.7224 0.542554 51.4454 0.717408C51.6132 0.765095 51.801 0.780992 51.7051 1.04725Z" fill="#2860AA"/>
<path d="M31.8197 3.38006C31.8332 2.71265 31.9574 2.05203 32.1873 1.42487C32.2951 1.14669 32.2351 1.06324 31.9395 1.13874C31.6439 1.21425 31.4323 1.25002 31.1806 1.30168C30.6813 1.40897 30.5175 1.25796 30.5135 0.737377C30.5135 0.526757 30.6613 0.530726 30.7811 0.502908C31.5082 0.338652 32.2352 0.179695 32.9622 0.0260349C33.074 0.00219112 33.2219 -0.0454937 33.2778 0.109491C33.3336 0.216937 33.365 0.335259 33.3699 0.456108C33.3747 0.576958 33.3528 0.697388 33.3057 0.808905C33.0462 1.30719 32.8695 1.844 32.7825 2.39849C32.6786 2.93401 32.6786 3.48434 32.7825 4.01986C32.8863 4.48879 32.5028 4.38547 32.2791 4.46097C32.0554 4.53648 31.8797 4.42521 31.8797 4.151C31.8797 3.8768 31.8357 3.63439 31.8197 3.38006Z" fill="#2860AA"/>
<path d="M74.7705 61.3311C75.0542 60.8701 75.3098 60.4926 75.5295 60.0991C75.6774 59.8329 75.8331 59.9163 76.0049 60.0435C76.1767 60.1707 76.4643 60.2223 76.2566 60.5482C75.897 61.1085 75.5615 61.6847 75.198 62.2451C75.1021 62.3961 75.0781 62.6862 74.8305 62.6425C74.712 62.6169 74.603 62.5592 74.5155 62.4757C74.4281 62.3922 74.3656 62.2863 74.3351 62.1696C74.0765 61.4227 73.6519 60.7435 73.0928 60.1826C72.8737 59.9518 72.6315 59.7441 72.3697 59.5626C71.9144 59.2567 72.3418 59.046 72.4376 58.8156C72.5694 58.4976 72.7532 58.7003 72.897 58.8156C73.7298 59.4787 74.3754 60.3454 74.7705 61.3311Z" fill="#2860AA"/>
<path d="M61.7316 70.2458C61.8914 70.2458 61.9433 70.3333 61.9992 70.4167C62.6783 71.4182 63.3535 72.4037 64.0366 73.4171C64.2922 73.7946 63.9486 73.8741 63.7489 74.033C63.5492 74.192 63.3814 74.2476 63.1976 73.9655C62.5705 73.0078 61.9194 72.062 61.2762 71.1082C61.1883 70.9771 61.0126 70.834 61.1324 70.6711C61.2932 70.4816 61.4992 70.3354 61.7316 70.2458Z" fill="#2860AA"/>
<path d="M19.5362 8.8033C19.3476 8.63607 19.2001 8.42807 19.1048 8.19528C19.0129 8.01645 19.1647 7.92505 19.2926 7.8416L19.9796 7.40049C20.0594 7.3386 20.1551 7.30029 20.2558 7.28995C20.3564 7.27961 20.458 7.29764 20.5488 7.34199C20.6396 7.38635 20.7161 7.45523 20.7695 7.54077C20.8228 7.6263 20.8509 7.72504 20.8505 7.8257C20.8609 7.8697 20.8568 7.91585 20.8388 7.95736C20.8209 7.99887 20.7899 8.03352 20.7506 8.05619L19.684 8.73971C19.6367 8.76508 19.5872 8.78635 19.5362 8.8033Z" fill="#2860AA"/>
<path d="M77.8223 48.0549C77.8862 47.733 77.9621 47.3158 78.046 46.8985C78.0979 46.6442 78.2896 46.7157 78.4454 46.7674C78.6012 46.819 78.9408 46.7316 78.8928 47.0773C78.8329 47.5105 78.7291 47.9357 78.6452 48.3689C78.6012 48.6073 78.4215 48.5358 78.2896 48.492C78.0939 48.4324 77.7783 48.5199 77.8223 48.0549Z" fill="#2860AA"/>
<path d="M32.8619 78.0656C32.6943 78.292 32.8619 78.7447 32.4388 78.6573C32.2113 78.6136 31.7403 78.7526 31.8001 78.2602C31.8241 78.0577 31.7283 77.6209 32.1993 77.7281C32.4388 77.7916 32.7821 77.7202 32.8619 78.0656Z" fill="#2860AA"/>
<path d="M32.8819 76.5478C32.7062 76.3969 32.2471 76.6312 32.295 76.1507C32.315 75.9402 32.2392 75.5074 32.6942 75.6106C32.9178 75.6623 33.3609 75.5233 33.313 75.9799C33.281 76.2023 33.3649 76.6034 32.8819 76.5478Z" fill="#2860AA"/>
<path d="M33.4972 51.9494C33.8327 51.107 34.1843 50.2724 34.5039 49.426C35.4455 47.0407 36.0504 44.5372 36.3015 41.9867C36.3688 41.2307 36.2984 40.4687 36.0937 39.7375C35.9467 39.1753 35.6138 38.6787 35.1486 38.3276C34.6834 37.9766 34.113 37.7915 33.5292 37.8022C32.5055 37.8342 31.4998 38.0793 30.5771 38.5214C27.9566 39.662 25.6916 41.343 23.4546 43.0796C19.9512 45.7898 16.7555 48.8418 13.5119 51.8421C13.376 51.9693 13.2761 52.168 12.9645 52.1601C13.5637 51.3891 14.1031 50.6341 14.7063 49.9346C19.6612 44.1049 24.9383 38.554 30.5132 33.3076C33.5722 30.4187 36.829 27.7444 40.2602 25.3041C41.9428 24.0952 43.8057 23.1565 45.7808 22.5223C46.5199 22.2702 47.3092 22.1993 48.0818 22.3156C49.4799 22.562 50.3787 24.088 50.0791 25.6498C49.9518 26.2274 49.7276 26.7796 49.416 27.2831C48.8887 28.1892 48.3095 29.0634 47.7063 29.9178C46.6836 31.3683 45.7089 32.8586 44.7981 34.3766C44.7749 34.4382 44.7393 34.4945 44.6936 34.5421C44.6478 34.5897 44.593 34.6277 44.5321 34.6537C44.4713 34.6796 44.4059 34.6931 44.3397 34.6933C44.2735 34.6935 44.208 34.6804 44.147 34.6548C43.2926 34.4222 42.3994 34.3668 41.5225 34.4918C38.3867 34.9528 36.4453 37.8618 37.1284 41.0211C37.3212 41.9757 37.7572 42.8652 38.3947 43.6041C38.5385 43.771 38.6344 43.9141 38.4786 44.1565C36.8621 46.7025 35.2522 49.2551 33.649 51.8143C33.617 51.866 33.5731 51.9097 33.5371 51.9574L33.4972 51.9494Z" fill="#2860AA"/>
<path d="M68.9223 29.9977C69.0261 30.1924 68.8823 30.3235 68.8024 30.4547C67.8176 32.0586 66.672 33.5592 65.383 34.9333C60.4056 40.3816 55.2685 45.663 49.5601 50.3841C47.3231 52.228 45.09 54.0878 42.5374 55.5065C41.2481 56.2852 39.8434 56.8565 38.375 57.1994C37.7611 57.3266 37.1274 57.3266 36.5135 57.1994C35.4669 56.9769 34.7358 56.0271 34.616 54.8468C34.5504 54.1509 34.6892 53.451 35.0155 52.832C35.5881 51.7616 36.2355 50.7325 36.9529 49.7522C37.9755 48.2871 38.9529 46.7903 39.8849 45.2616C39.911 45.1937 39.9504 45.1316 40.0008 45.079C40.0511 45.0264 40.1115 44.9842 40.1784 44.955C40.2454 44.9258 40.3174 44.9101 40.3905 44.9088C40.4635 44.9076 40.5361 44.9208 40.604 44.9477C42.8131 45.4603 44.8064 45.1106 46.4003 43.3581C47.2087 42.4113 47.6776 41.2239 47.7333 39.9829C47.789 38.7419 47.4283 37.5177 46.7079 36.503C46.0887 35.6764 46.0887 35.6765 46.644 34.7982L50.6386 28.4399C50.7185 28.3167 50.8064 28.2014 50.9023 28.0425C51.0221 28.2849 50.9023 28.4399 50.8224 28.5949C49.7097 31.1538 48.9349 33.8454 48.5174 36.6024C48.3529 37.5904 48.3665 38.5996 48.5574 39.5828C48.6852 40.2768 49.0814 40.8931 49.661 41.2996C50.2406 41.706 50.9574 41.8701 51.6573 41.7566C52.7125 41.6013 53.7361 41.2793 54.6892 40.8029C57.4056 39.5153 59.7585 37.6913 62.0914 35.8394C64.2805 34.0988 66.3657 32.239 68.4069 30.3275C68.5707 30.2242 68.6906 30.0334 68.9223 29.9977Z" fill="#F2A71C"/>
<path d="M35.0432 43.3893C35.1631 43.9456 35.275 44.4424 35.3788 44.9431C35.4507 45.3007 35.1391 45.3405 34.9354 45.408C33.6131 45.9525 32.2829 46.477 30.9407 46.9976C30.4637 47.2188 29.9726 47.4086 29.4707 47.5659C29.4707 47.5063 29.4707 47.4824 29.4707 47.4745C30.2696 46.8705 30.2696 46.8744 29.8701 45.9525L28.6118 42.8846C28.3402 42.2209 28.2643 42.1812 27.5532 42.2964C27.4973 42.2964 27.4414 42.2964 27.3295 42.2964C27.4521 42.1289 27.633 42.0128 27.8369 41.9706C29.4347 41.3188 31.0326 40.683 32.6065 40.0233C32.9301 39.8882 33.0739 39.9597 33.1817 40.2657C33.2896 40.5717 33.4454 40.9135 33.5812 41.2354C33.6092 41.3029 33.6571 41.3824 33.5812 41.446C33.5053 41.5096 33.4054 41.4698 33.3455 41.4023C32.3109 40.23 31.2643 41.0367 30.2217 41.3824C30.0339 41.446 30.0299 41.5891 30.0978 41.756C30.3215 42.2845 30.5412 42.817 30.7609 43.3455C30.8608 43.588 31.0126 43.6039 31.2323 43.4886C31.4749 43.3748 31.672 43.1833 31.7922 42.9448C31.9125 42.7064 31.9488 42.4347 31.8954 42.1732C31.8954 42.058 31.7995 41.899 31.9394 41.8513C32.0792 41.8037 32.1391 41.9904 32.1871 42.1017C32.4827 42.7985 32.7716 43.4979 33.0539 44.2C33.0978 44.3033 33.1897 44.4463 33.0299 44.5139C32.8702 44.5814 32.8621 44.4185 32.8022 44.339C32.6703 44.1227 32.4727 43.9538 32.2378 43.8566C32.003 43.7594 31.7432 43.7391 31.4959 43.7986C31.1844 43.8661 31.0366 44.0132 31.1764 44.343C31.3602 44.7881 31.5399 45.2411 31.7197 45.6902C31.738 45.7571 31.7701 45.8194 31.8141 45.8731C31.858 45.9269 31.9128 45.9709 31.9749 46.0023C32.037 46.0338 32.105 46.0519 32.1745 46.0557C32.2441 46.0594 32.3137 46.0486 32.3788 46.024C33.0101 45.8441 33.5974 45.537 34.1045 45.1219C34.4905 44.794 34.7327 44.3292 34.7796 43.8264C34.7833 43.7374 34.8094 43.6508 34.8554 43.5744C34.9015 43.498 34.966 43.4344 35.0432 43.3893Z" fill="#221E1F"/>
<path d="M53.1193 37.8142C51.4056 37.8142 50.2232 36.9677 50.0075 35.6762C49.9377 35.2096 49.976 34.7333 50.1193 34.2836C50.2626 33.8339 50.5071 33.4226 50.8344 33.0812C51.3185 32.5435 51.9057 32.1072 52.5614 31.7981C53.2172 31.489 53.9284 31.3132 54.6533 31.281C54.9809 31.2532 55.2445 31.1856 55.3603 30.8359C55.4322 30.5975 55.576 30.6253 55.6639 30.8121C55.8677 31.2532 56.0634 31.7023 56.2312 32.1513C56.2554 32.191 56.2639 32.2382 56.255 32.2837C56.2462 32.3292 56.2206 32.3699 56.1833 32.3977C56.0674 32.4653 55.9875 32.3699 55.9036 32.3063C55.61 32.0714 55.2689 31.9022 54.9036 31.8101C54.5383 31.7181 54.1573 31.7054 53.7866 31.7729C53.416 31.8404 53.0642 31.9865 52.7554 32.2013C52.4466 32.4161 52.1879 32.6945 51.9968 33.0176C51.4496 33.88 51.6972 34.7304 52.0887 35.5689C52.1767 35.7455 52.2796 35.9143 52.3963 36.0736C52.6455 36.4972 53.0413 36.816 53.5096 36.9703C53.978 37.1246 54.4868 37.104 54.9409 36.9121C55.7962 36.6587 56.522 36.0902 56.9702 35.3225C57.0341 35.2113 57.0541 34.949 57.2419 35.0404C57.4296 35.1318 57.3657 35.3583 57.2818 35.5292C57.0179 36.0091 56.641 36.4182 56.1833 36.7214C55.289 37.3715 54.2251 37.751 53.1193 37.8142Z" fill="#221E1F"/>
<path d="M47.1552 40.4168L43.9274 41.7361C43.9274 41.458 44.1312 41.454 44.247 41.3904C44.5826 41.2116 44.5866 41.0328 44.3149 40.7665C43.6518 40.1108 43.6119 40.0909 42.7171 40.4406C42.403 40.5949 42.0786 40.7277 41.7463 40.838C41.5302 40.8776 41.3364 40.9953 41.2022 41.1684C41.068 41.3415 41.0029 41.5579 41.0193 41.7759C40.9834 42.2806 41.227 42.519 41.7303 42.4077C41.8502 42.3799 41.97 42.2726 42.1937 42.4356L40.0247 43.3337C39.9248 43.2383 39.9487 43.1747 39.9967 43.1389C40.186 42.9624 40.3373 42.7496 40.4417 42.5133C40.546 42.2769 40.6012 42.0221 40.6039 41.764C40.8316 40.1148 41.0433 38.4656 41.259 36.8164C41.259 36.6852 41.259 36.5223 41.3828 36.4508C41.5066 36.3793 41.6505 36.5422 41.7623 36.6296C42.9607 37.5675 44.1352 38.5172 45.3575 39.4432C45.8848 39.8406 46.3642 40.381 47.1552 40.2936V40.4168ZM41.6505 38.6086C41.4547 38.6086 41.4707 38.7636 41.4547 38.8669C41.3788 39.3716 41.3149 39.8803 41.255 40.385C41.223 40.6354 41.3748 40.6274 41.5386 40.5638C42.018 40.377 42.4894 40.1664 42.9647 39.9836C43.1765 39.8962 43.1605 39.7929 42.9927 39.6617C42.5932 39.3478 42.1937 39.0259 41.7943 38.708L41.6505 38.6086Z" fill="#221E1F"/>
<path d="M60.6052 60.0053C60.7051 59.9179 60.789 59.8543 60.8609 59.7828C61.1565 59.4768 61.4601 59.1787 61.7397 58.8608C61.9475 58.6303 62.0753 58.7615 62.2151 58.9164C62.3549 59.0714 62.5786 59.1827 62.327 59.4291C62.0753 59.6755 61.7837 60.049 61.4681 60.3073C61.1525 60.5656 61.3802 60.7365 61.552 60.9432C61.7677 61.2094 61.9275 61.1458 62.1232 60.9432C62.4388 60.5934 62.7824 60.2716 63.0939 59.9179C63.2777 59.7112 63.4095 59.751 63.5653 59.9377C63.7211 60.1245 63.9648 60.208 63.6891 60.4822C63.1019 61.0743 62.5307 61.6744 61.9554 62.2864C61.8196 62.4334 61.7078 62.4095 61.5759 62.2864C60.761 61.4916 59.9421 60.6968 59.1192 59.902C59.0821 59.8759 59.0518 59.8414 59.031 59.8013C59.0101 59.7612 58.9992 59.7167 58.9992 59.6715C58.9992 59.6263 59.0101 59.5818 59.031 59.5417C59.0518 59.5016 59.0821 59.4671 59.1192 59.441C59.6785 58.8608 60.2377 58.2846 60.789 57.7004C60.9927 57.4818 61.1046 57.6527 61.2284 57.7799C61.3522 57.9071 61.6279 58.0302 61.3682 58.2846C61.0207 58.6422 60.6732 59.0039 60.3296 59.3695C60.2497 59.4529 60.1219 59.5404 60.2457 59.6715C60.3696 59.8026 60.4734 59.8861 60.6052 60.0053Z" fill="#2860AA"/>
<path d="M65.0554 20.0469C64.965 20.2241 64.8266 20.3727 64.656 20.4761C64.5042 20.5913 64.4043 20.4761 64.3084 20.3688C63.9889 20.027 63.6613 19.6853 63.3537 19.3316C63.1739 19.1249 63.0461 19.1726 62.8704 19.3316C62.6946 19.4905 62.6467 19.6137 62.8464 19.8045C63.154 20.0946 63.4216 20.4284 63.7252 20.7264C63.917 20.9212 63.873 21.0602 63.6853 21.2073C63.4975 21.3543 63.3617 21.5649 63.122 21.2868C62.8823 21.0086 62.5348 20.6708 62.2632 20.3489C62.0594 20.1105 61.9116 20.186 61.7518 20.3767C61.592 20.5675 61.2924 20.639 61.6 20.945C61.9076 21.251 62.2712 21.6842 62.6267 22.0378C62.8184 22.2286 62.7865 22.3637 62.5948 22.5147C62.403 22.6657 62.2672 22.8565 62.0275 22.5942C61.4642 21.9782 60.897 21.3662 60.3218 20.7662C60.166 20.6032 60.2419 20.5039 60.3657 20.3926L62.8624 18.0679C62.9822 17.9566 63.098 17.8652 63.2618 18.0241L64.9955 19.8919C65.0202 19.9416 65.0403 19.9935 65.0554 20.0469Z" fill="#2860AA"/>
<path d="M26.7263 16.0289C26.7726 16.1575 26.8315 16.2812 26.902 16.3984C27.0898 16.6647 27.0658 16.8276 26.7502 16.9945C26.4347 17.1614 26.3268 17.0184 26.199 16.776C25.8834 16.1719 25.5479 15.5838 25.2283 14.9797C25.1484 14.8208 24.9367 14.5824 25.2283 14.479C25.5199 14.3757 25.7636 13.8949 26.179 14.2724C26.5945 14.6499 26.894 14.9082 27.3494 15.3096C27.2616 14.7095 27.2017 14.2366 27.1258 13.7637C27.0339 13.2193 27.5252 13.2431 27.8088 13.0762C28.0925 12.9093 28.1164 13.2352 28.2083 13.3782C28.5598 13.9982 28.8794 14.634 29.235 15.25C29.4067 15.5401 29.2549 15.6474 29.0312 15.7586C28.8075 15.8699 28.6557 15.9096 28.5319 15.6354C28.4231 15.3797 28.2579 15.1515 28.0485 14.9678C28.0885 15.2857 28.1084 15.6076 28.1724 15.9216C28.2363 16.2355 28.0565 16.2832 27.8648 16.3945C27.673 16.5057 27.5172 16.5336 27.3454 16.3508C27.1821 16.1942 27.0101 16.0469 26.8302 15.9096L26.7143 15.8739L26.7263 16.0289ZM26.6504 15.7745L26.6264 15.7467C26.6264 15.7467 26.6024 15.7666 26.6024 15.7745C26.6024 15.7825 26.6025 15.7944 26.6224 15.8024L26.6504 15.7745Z" fill="#2860AA"/>
<path d="M28.0688 66.5334C27.911 66.6559 27.7615 66.7887 27.6214 66.9308C27.5503 67.0368 27.441 67.1115 27.3161 67.1396C27.1912 67.1678 27.0603 67.147 26.9503 67.0818C26.8303 67.0356 26.7336 66.944 26.6812 66.8272C26.6289 66.7103 26.6251 66.5776 26.6707 66.4579C26.719 66.1951 26.719 65.9259 26.6707 65.6631C26.5428 65.8976 26.407 66.1281 26.2952 66.3705C26.1833 66.6129 25.9716 66.5374 25.7719 66.446C25.5721 66.3546 25.4363 66.2791 25.5801 66.0168C25.9356 65.3651 26.2712 64.7054 26.6027 64.0298C26.7146 63.8112 26.8264 63.7556 27.0661 63.8709C27.7253 64.1888 27.7293 64.1769 27.6214 64.8882C27.5695 65.2299 27.5295 65.5757 27.4656 66.0605C27.8651 65.6631 28.2006 65.373 28.5322 65.0789C28.7166 64.9755 28.9305 64.9365 29.1397 64.9682C29.349 64.9999 29.5416 65.1004 29.6867 65.2538C29.7466 65.3531 29.6866 65.4286 29.6467 65.5002C29.2991 66.1757 28.9356 66.8394 28.6001 67.515C28.4443 67.8329 28.2605 67.7176 28.0448 67.6183C27.8291 67.5189 27.7532 67.3958 27.897 67.1732C28.0408 66.9507 28.0688 66.8195 28.1567 66.6407C28.1966 66.5811 28.2606 66.5096 28.1847 66.45C28.1088 66.3903 28.0968 66.4738 28.0688 66.5334Z" fill="#2860AA"/>
<path d="M63.8091 23.694L63.5495 23.7576C63.4556 23.7923 63.3553 23.8067 63.2553 23.7998C63.1554 23.7928 63.0581 23.7647 62.9699 23.7173C62.8818 23.6698 62.8049 23.6042 62.7443 23.5248C62.6837 23.4454 62.6409 23.3541 62.6187 23.2568C62.5588 23.0899 62.6587 23.0701 62.7585 23.0462C64.0129 22.7402 65.2672 22.4342 66.5255 22.1402C66.8132 22.0726 66.8491 22.3707 66.9729 22.5376C67.0968 22.7045 67.2166 22.8475 67.0688 23.0661C66.3658 24.1113 65.6747 25.1604 64.9796 26.2095C64.8598 26.3883 64.7759 26.3724 64.6361 26.2095C64.3365 25.8479 64.1687 25.5061 64.5841 25.1167C64.7719 24.9339 64.7319 24.759 64.5841 24.5643C64.4363 24.3696 64.2725 24.1152 64.1167 23.8927C64.0209 23.7576 63.945 23.6344 63.8091 23.694ZM65.8544 23.1813C65.4909 23.241 65.0994 23.233 64.9077 23.4794C64.7918 23.6264 65.1034 23.8768 65.2552 24.0755C65.495 23.806 65.6966 23.5052 65.8544 23.1813Z" fill="#2860AA"/>
<path d="M64.3367 59.6947C64.2449 59.5715 64.1849 59.5079 64.137 59.4324C63.4899 58.427 62.8507 57.4176 62.1876 56.4202C62.0038 56.146 62.1317 55.9751 62.2835 55.7764C62.4353 55.5777 62.5271 55.379 62.8587 55.4704C64.0012 55.7804 65.1516 56.0665 66.3021 56.3486C66.5857 56.4202 66.6497 56.5116 66.4739 56.7778C66.2502 57.1315 66.0185 57.37 65.5711 57.1434C65.5199 57.1098 65.4616 57.0884 65.4008 57.0808C65.34 57.0732 65.2782 57.0797 65.2202 57.0996C65.1623 57.1196 65.1097 57.1526 65.0667 57.196C65.0236 57.2395 64.9912 57.2922 64.9719 57.3501C64.9086 57.4711 64.8278 57.5822 64.7322 57.6799C64.6503 57.7344 64.5827 57.8074 64.5349 57.8931C64.4871 57.9788 64.4606 58.0745 64.4574 58.1725C64.4543 58.2704 64.4747 58.3676 64.5169 58.4561C64.5592 58.5447 64.622 58.6219 64.7002 58.6814C64.7376 58.7142 64.7676 58.7545 64.7881 58.7998C64.8087 58.845 64.8193 58.894 64.8193 58.9436C64.8193 58.9933 64.8087 59.0423 64.7881 59.0875C64.7676 59.1327 64.7376 59.1731 64.7002 59.2059C64.5844 59.345 64.4766 59.5119 64.3367 59.6947ZM63.8693 57.4494C64.0811 57.3223 64.149 57.1315 64.2688 56.9845C64.3887 56.8374 64.3208 56.8017 64.1889 56.7659L63.2302 56.4997L63.8693 57.4494Z" fill="#2860AA"/>
<path d="M16.1443 51.7112C16.4884 51.6921 16.8304 51.7762 17.126 51.9526C17.4215 52.129 17.657 52.3896 17.8021 52.7007C17.9552 52.9558 18.0334 53.2486 18.0277 53.5457C18.0221 53.8428 17.9328 54.1324 17.7701 54.3817C17.6782 54.5207 17.5464 54.779 17.3706 54.5724C17.1948 54.3658 16.7594 54.2386 16.9711 53.865C17.0881 53.7139 17.1436 53.5245 17.1266 53.3345C17.1096 53.1446 17.0213 52.9679 16.8793 52.8398C16.7454 52.7017 16.5676 52.614 16.3761 52.5915C16.1846 52.569 15.9911 52.6132 15.8287 52.7166C15.5025 52.8461 15.2082 53.044 14.9658 53.2968C14.8548 53.4135 14.7866 53.564 14.7721 53.7241C14.7576 53.8841 14.7977 54.0444 14.8859 54.179C14.9496 54.3291 15.0651 54.4516 15.2116 54.5245C15.3581 54.5973 15.5259 54.6157 15.6849 54.5764C16.2321 54.4492 16.0244 54.9022 16.1123 55.1129C16.2281 55.4109 16.0284 55.4665 15.7807 55.4864C15.4454 55.5331 15.1038 55.469 14.8087 55.3038C14.5135 55.1387 14.281 54.8817 14.1469 54.5724C13.9822 54.2634 13.9122 53.913 13.9455 53.5648C13.9789 53.2166 14.1142 52.8857 14.3347 52.6132C14.5596 52.3493 14.8359 52.1334 15.1469 51.9783C15.4578 51.8233 15.7971 51.7324 16.1443 51.7112Z" fill="#2860AA"/>
<path d="M69.6132 27.4425C69.6312 27.6468 69.591 27.852 69.4973 28.0347C69.3895 28.2334 69.2856 28.5115 69.0579 28.5155C68.8302 28.5195 68.6865 28.1976 68.5267 28.0068C68.3669 27.8161 68.5267 27.7565 68.6225 27.6492C68.7126 27.5361 68.7616 27.3961 68.7616 27.2518C68.7616 27.1075 68.7126 26.9675 68.6225 26.8544C68.5528 26.7182 68.4424 26.6069 68.3065 26.5357C68.1706 26.4646 68.0158 26.4371 67.8635 26.457C67.3607 26.5243 66.8979 26.7664 66.5573 27.1405C66.4475 27.2487 66.3764 27.3896 66.3548 27.5417C66.3332 27.6938 66.3622 27.8488 66.4375 27.983C66.498 28.1147 66.5962 28.2256 66.7198 28.302C66.8435 28.3783 66.9871 28.4167 67.1325 28.4122C67.2181 28.4245 67.3001 28.4547 67.3731 28.5006C67.4462 28.5466 67.5087 28.6074 67.5566 28.679C67.6044 28.7506 67.6366 28.8315 67.6509 28.9163C67.6653 29.0011 67.6615 29.088 67.6399 29.1712C67.5839 29.3262 67.4441 29.2944 67.3323 29.3063C67.0207 29.3572 66.701 29.3074 66.42 29.1644C66.1389 29.0214 65.9112 28.7926 65.7703 28.5115C65.5745 28.2011 65.4805 27.8378 65.5012 27.4719C65.522 27.1059 65.6565 26.7555 65.8862 26.4689C66.1467 26.1493 66.4835 25.8996 66.8658 25.7427C67.2482 25.5859 67.664 25.5267 68.0753 25.5708C68.525 25.6248 68.9363 25.8498 69.223 26.1987C69.5096 26.5476 69.6495 26.9933 69.6132 27.4425Z" fill="#2860AA"/>
<path d="M64.0766 53.3283C64.1046 52.3865 64.7317 51.6275 65.5387 51.5798C65.7144 51.5798 65.9621 51.4804 66.026 51.7546C66.0899 52.0289 65.8262 52.5097 65.6025 52.5177C65.4341 52.5142 65.2692 52.5665 65.1339 52.6666C64.9987 52.7666 64.9007 52.9085 64.8555 53.07C64.8015 53.2214 64.7996 53.3864 64.8503 53.5389C64.9009 53.6915 65.0012 53.8229 65.1352 53.9125C65.4615 54.211 65.8657 54.4121 66.3016 54.4927C66.475 54.5312 66.6564 54.511 66.817 54.4354C66.9776 54.3599 67.1083 54.2332 67.1885 54.0754C67.2727 53.9467 67.3062 53.7916 67.2826 53.6398C67.259 53.488 67.18 53.3503 67.0606 53.2528C66.6372 52.8157 67.1525 52.6806 67.3323 52.4859C67.572 52.2315 67.6598 52.5653 67.7317 52.6885C67.8711 52.9002 67.9638 53.1389 68.0035 53.3888C68.0433 53.6387 68.0293 53.8942 67.9625 54.1384C67.8957 54.3825 67.7775 54.6098 67.6159 54.8051C67.4542 55.0005 67.2527 55.1595 67.0247 55.2716C65.7663 55.8478 64.0207 54.7113 64.0766 53.3283Z" fill="#2860AA"/>
<path d="M12.5575 27.5134C12.5575 26.5438 13.2086 25.749 14.0196 25.7212C14.1754 25.7212 14.451 25.6298 14.419 25.9159C14.3871 26.202 14.4909 26.5716 14.1194 26.6312C13.9119 26.6334 13.7122 26.7103 13.5573 26.8476C13.4023 26.985 13.3026 27.1735 13.2766 27.3783C13.2206 27.8353 13.5602 28.0817 13.9118 28.2883C14.1817 28.4601 14.4854 28.5725 14.8026 28.6182C14.9704 28.6417 15.1414 28.6131 15.2922 28.5363C15.4431 28.4594 15.5665 28.3382 15.6454 28.189C15.7256 28.0593 15.7579 27.9058 15.7368 27.755C15.7156 27.6042 15.6424 27.4654 15.5296 27.3624C15.2939 27.0683 15.3658 26.8021 15.7772 26.5676C16.0649 26.3928 16.1368 26.7027 16.2366 26.8418C16.8238 27.6644 16.4004 28.9719 15.4656 29.4249C14.4869 29.8938 12.4257 28.9798 12.5575 27.5134Z" fill="#2860AA"/>
<path d="M54.8328 64.0344C55.3881 64.0344 55.6837 64.2609 55.6997 64.6742C55.6997 64.9524 55.7476 65.1114 56.0472 65.2385C56.166 65.3004 56.2666 65.392 56.3389 65.5043C56.4113 65.6166 56.4529 65.7457 56.4598 65.8789C56.4667 66.0121 56.4385 66.1448 56.378 66.2639C56.3176 66.383 56.2269 66.4843 56.1151 66.5579C55.5918 66.9155 55.0165 67.1897 54.4613 67.4997C54.3015 67.5871 54.2136 67.4997 54.1337 67.3726C53.7343 66.6692 53.3628 65.9658 52.9793 65.2664C52.9313 65.175 52.8594 65.0478 52.9793 64.9802C53.5522 64.5845 54.1755 64.2665 54.8328 64.0344ZM55.2323 65.7989C55.0086 65.9181 54.6411 65.9022 54.5692 66.2559C54.5647 66.293 54.5677 66.3306 54.578 66.3665C54.5883 66.4024 54.6056 66.436 54.629 66.4652C54.6524 66.4944 54.6814 66.5187 54.7144 66.5366C54.7473 66.5546 54.7835 66.5659 54.8208 66.5698C55.0046 66.5698 55.5599 66.1486 55.5479 66.0174C55.5359 65.8863 55.4041 65.7909 55.2323 65.7989ZM54.9287 65.0557C54.9287 64.9007 54.8448 64.7855 54.709 64.8173C54.4333 64.8769 54.1257 64.9405 54.0179 65.2385C53.9819 65.3299 54.0898 65.5803 54.2696 65.5366C54.4066 65.5108 54.5359 65.454 54.6474 65.3706C54.7589 65.2873 54.8497 65.1795 54.9127 65.0557H54.9287Z" fill="#2860AA"/>
<path d="M56.8504 14.8008C56.8514 14.9204 56.819 15.0379 56.7569 15.1403C56.6949 15.2427 56.6056 15.326 56.4989 15.381C56.2512 15.4804 56.1713 15.5599 56.2472 15.8579C56.2784 15.9732 56.2788 16.0946 56.2485 16.2101C56.2182 16.3256 56.1581 16.4313 56.0743 16.5167C55.9904 16.6021 55.8856 16.6644 55.7703 16.6973C55.6549 16.7302 55.5329 16.7326 55.4163 16.7044C54.6693 16.5693 54.0861 16.0685 53.419 15.7228C53.2831 15.6513 53.371 15.54 53.419 15.4526C53.7945 14.777 54.174 14.1054 54.5455 13.4298C54.6453 13.251 54.7732 13.1954 54.9449 13.2947C55.4563 13.5888 55.9716 13.8789 56.4749 14.1849C56.588 14.2437 56.6829 14.3321 56.7491 14.4407C56.8153 14.5493 56.8503 14.6739 56.8504 14.8008ZM55.4363 15.7506C55.3762 15.6039 55.2836 15.4727 55.1653 15.3667C55.047 15.2607 54.9061 15.1827 54.7532 15.1386C54.7085 15.1425 54.6649 15.1554 54.6254 15.1765C54.5858 15.1977 54.5509 15.2266 54.5229 15.2615C54.4949 15.2964 54.4742 15.3367 54.4623 15.3798C54.4504 15.4229 54.4475 15.4679 54.4536 15.5122C54.5215 15.85 54.881 15.8857 55.1447 15.9891C55.3204 16.0606 55.4003 15.8897 55.4363 15.7506ZM55.2286 14.1412C55.1628 14.175 55.1078 14.2264 55.0697 14.2896C55.0316 14.3527 55.0119 14.4252 55.0128 14.4988C55.0807 14.8207 55.4123 14.8724 55.668 14.9479C55.8277 14.9916 55.9196 14.8644 55.9356 14.7094C55.9516 14.5545 55.4842 14.1451 55.2326 14.1412H55.2286Z" fill="#2860AA"/>
<path d="M17.215 56.6982C17.7783 56.6982 18.2297 56.734 18.6731 56.6982C19.1165 56.6624 19.2403 56.9764 19.4161 57.2426C19.496 57.3658 19.3682 57.4294 19.2843 57.489C18.6491 57.9579 18.01 58.4149 17.3788 58.8918C17.1152 59.0865 17.0073 58.9157 16.8795 58.7289C16.7517 58.5421 16.5679 58.3752 16.8795 58.1725C17.2037 57.9671 17.4958 57.7154 17.7464 57.4254L16.3842 57.489C16.1924 57.489 16.0087 57.5248 15.8529 57.3301C15.5173 56.9327 15.5053 56.881 15.9368 56.5671C16.5 56.1697 17.0752 55.7723 17.6265 55.3272C17.9181 55.1007 18.026 55.3073 18.1538 55.4901C18.2816 55.6729 18.4694 55.8359 18.1538 56.0306C17.8382 56.2253 17.5825 56.428 17.215 56.6982Z" fill="#2860AA"/>
<path d="M16.6597 24.6045C16.5309 24.2342 16.3829 23.8707 16.2163 23.5156C16.0246 23.1182 16.2163 22.8838 16.432 22.6175C16.5359 22.4745 16.6398 22.5539 16.7436 22.6175L18.6651 23.917C18.9687 24.1237 18.749 24.2945 18.6411 24.4853C18.5333 24.676 18.3855 24.7873 18.1458 24.6045C17.8473 24.3679 17.5129 24.1801 17.1551 24.0481L17.6864 25.2999C17.7384 25.3834 17.7679 25.4789 17.7721 25.577C17.7763 25.6751 17.755 25.7727 17.7103 25.8603C17.4507 26.3173 17.4147 26.3332 16.9753 26.0351C16.4081 25.6377 15.8528 25.2403 15.2776 24.8946C14.93 24.676 15.1617 24.4972 15.2776 24.3065C15.3934 24.1157 15.5332 23.9965 15.7729 24.1872C16.0126 24.378 16.3042 24.537 16.5718 24.7118C16.6158 24.7396 16.6558 24.8112 16.7037 24.7476C16.7516 24.684 16.6757 24.6522 16.6597 24.6045Z" fill="#2860AA"/>
<path d="M57.8009 65.4559C57.6367 65.4748 57.4705 65.447 57.3215 65.3758C57.1725 65.3046 57.0469 65.1929 56.9591 65.0536C56.8713 64.9143 56.825 64.7531 56.8255 64.5887C56.826 64.4243 56.8733 64.2634 56.9619 64.1246C57.139 63.8799 57.3312 63.6463 57.5372 63.4252C57.6051 63.3377 57.7489 63.2503 57.6331 63.1192C57.5172 62.988 57.3814 63.0556 57.2615 63.1192C57.1417 63.1828 56.9859 63.3139 56.9939 63.5166C56.9939 63.608 56.9939 63.7113 56.91 63.759C56.7223 63.8464 56.5345 64.0491 56.3348 63.9656C56.1351 63.8822 56.2189 63.6437 56.2229 63.4689C56.2726 63.1775 56.4062 62.9067 56.6076 62.6894C56.809 62.4721 57.0695 62.3177 57.3574 62.2449C57.8448 62.1058 58.0965 62.2449 58.4959 62.7536C58.7676 63.2258 59.1143 63.6513 59.5225 64.0133C59.6943 64.1286 59.6464 64.2359 59.5225 64.3193C59.3987 64.4028 59.191 64.6452 58.9273 64.6094C58.7276 64.5816 58.7316 64.7644 58.6677 64.8717C58.5823 65.0322 58.4587 65.1695 58.3075 65.2713C58.1564 65.3732 57.9824 65.4366 57.8009 65.4559ZM58.3361 64.1405C58.2882 64.0133 58.2323 63.7868 58.1005 63.8226C57.979 63.8623 57.8708 63.9345 57.7876 64.0312C57.7045 64.1279 57.6497 64.2454 57.6291 64.371C57.5931 64.5419 57.7449 64.6412 57.9207 64.6213C58.1803 64.5856 58.2802 64.3869 58.3361 64.1405Z" fill="#2860AA"/>
<path d="M30.8651 11.8686C31.0498 11.8473 31.236 11.8931 31.3894 11.9975C31.5428 12.1019 31.6531 12.258 31.7 12.4369C31.9437 13.0012 32.0396 13.6291 32.459 14.1259C32.5549 14.2411 32.5109 14.3245 32.3831 14.3603C32.1674 14.4239 31.9836 14.6146 31.7399 14.5272C31.4963 14.4398 31.5202 14.555 31.4443 14.6425C31.3205 14.7761 31.1693 14.8818 31.0009 14.9524C30.7971 15.0594 30.5614 15.0898 30.3369 15.0379C30.1124 14.9861 29.9142 14.8556 29.7786 14.6703C29.7154 14.5659 29.6737 14.4501 29.656 14.3295C29.6383 14.209 29.6449 14.0861 29.6753 13.9682C29.7058 13.8502 29.7596 13.7394 29.8336 13.6423C29.9075 13.5452 30.0002 13.4637 30.1061 13.4026C30.3019 13.2595 30.5056 13.1363 30.7133 13.0052C30.7972 12.9456 30.913 12.8899 30.8531 12.7588C30.7932 12.6277 30.6654 12.6197 30.5376 12.6475C30.4464 12.659 30.3603 12.6962 30.2895 12.7546C30.2188 12.813 30.1663 12.8903 30.1381 12.9774C30.1022 13.1006 30.0542 13.1999 29.9024 13.2079C29.7506 13.2158 29.503 13.3787 29.3831 13.2357C29.2633 13.0926 29.3112 12.8383 29.4071 12.6396C29.6987 12.0554 30.2739 11.9561 30.8651 11.8686ZM31.1168 13.4582C30.953 13.5695 30.7892 13.6728 30.6334 13.792C30.4777 13.9113 30.4377 13.9907 30.5376 14.1417C30.5568 14.1748 30.5827 14.2036 30.6135 14.2265C30.6443 14.2493 30.6794 14.2657 30.7167 14.2746C30.7541 14.2835 30.7929 14.2848 30.8307 14.2784C30.8686 14.2719 30.9048 14.2579 30.937 14.2371C31.0078 14.2072 31.0703 14.1607 31.1192 14.1017C31.1681 14.0426 31.202 13.9727 31.2181 13.8979C31.2341 13.8231 31.2318 13.7455 31.2114 13.6718C31.191 13.598 31.1531 13.5302 31.1008 13.4741L31.1168 13.4582Z" fill="#2860AA"/>
<path d="M24.6491 17.1806C24.7084 17.1792 24.7673 17.1712 24.8249 17.1568C25.3322 16.9581 25.436 17.0376 25.3721 17.5899C25.3198 17.8998 25.1668 18.1842 24.9367 18.3994C24.7066 18.6147 24.412 18.7491 24.0979 18.7821C23.823 18.8024 23.5481 18.7425 23.3069 18.6098C23.0657 18.4771 22.8686 18.2774 22.7397 18.035C22.5674 17.8101 22.4637 17.5407 22.441 17.2589C22.4184 16.9771 22.4776 16.6947 22.6118 16.4454C22.7242 16.2355 22.8933 16.0609 23.1002 15.9416C23.307 15.8222 23.5433 15.7627 23.7823 15.7699C24.0344 15.7822 24.2794 15.8565 24.4955 15.9862C24.7116 16.1159 24.8921 16.2969 25.0206 16.513C25.1285 16.6521 25.0805 16.7514 24.9567 16.8587C24.8328 16.966 24.677 16.9779 24.6491 17.1806ZM24.0059 16.7832C24.0084 16.7383 23.9961 16.6939 23.9709 16.6566C23.9456 16.6193 23.9089 16.5912 23.8661 16.5766C23.7778 16.5318 23.6764 16.5196 23.5798 16.5421C23.4833 16.5647 23.3979 16.6205 23.3389 16.6998C23.2832 16.7478 23.2442 16.8121 23.2277 16.8836C23.2112 16.955 23.218 17.0298 23.247 17.0972C23.2829 17.1647 23.3268 17.2482 23.4147 17.1925C23.6225 17.0534 23.8262 16.9024 24.0059 16.7713V16.7832ZM24.5492 17.1806C24.3335 17.3356 24.1498 17.4469 23.994 17.578C23.9061 17.6535 23.6864 17.6933 23.7983 17.8681C23.8466 17.9375 23.9173 17.9884 23.9987 18.0122C24.0801 18.0361 24.1672 18.0315 24.2457 17.9993C24.6331 17.8443 24.5852 17.5303 24.5492 17.1568V17.1806Z" fill="#2860AA"/>
<path d="M38.9101 10.1472C39.7091 10.1472 39.9487 10.3698 40.0047 11.1447C39.9884 11.6827 40.0613 12.2198 40.2204 12.7343C40.3083 12.9409 40.2004 12.9767 40.0406 12.9767C39.5421 12.969 39.0446 13.021 38.5586 13.1317C38.4487 13.169 38.3319 13.182 38.2164 13.1699C38.1009 13.1577 37.9894 13.1207 37.8898 13.0613C37.7902 13.0019 37.7047 12.9216 37.6395 12.826C37.5743 12.7304 37.5307 12.6218 37.512 12.5078C37.4081 11.9753 37.6118 11.6414 38.1831 11.4427C38.3948 11.3672 38.6185 11.3195 38.8342 11.2401C38.95 11.2003 39.1338 11.1884 39.0819 10.9857C39.0299 10.7831 38.8742 10.791 38.7144 10.8029C38.6454 10.8025 38.5776 10.8199 38.5174 10.8533C38.4572 10.8867 38.4067 10.9351 38.3709 10.9937C38.3109 11.0851 38.255 11.1844 38.1272 11.1646C37.9115 11.1328 37.6039 11.2361 37.512 11.0056C37.4201 10.7751 37.6158 10.5804 37.7876 10.4214C38.1163 10.1984 38.515 10.101 38.9101 10.1472ZM39.1817 12.0706C39.1817 11.9117 39.1818 11.7845 39.018 11.8282C38.7663 11.8997 38.4307 11.8958 38.3908 12.2256C38.3886 12.2683 38.3967 12.311 38.4143 12.35C38.4319 12.389 38.4586 12.4233 38.4921 12.4501C38.5257 12.4769 38.5651 12.4953 38.6072 12.504C38.6493 12.5126 38.6929 12.5112 38.7343 12.4998C38.8505 12.4923 38.96 12.443 39.0424 12.3611C39.1247 12.2792 39.1742 12.1703 39.1817 12.0547V12.0706Z" fill="#2860AA"/>
<path d="M58.0286 16.2161C57.8994 16.2132 57.7752 16.1656 57.6775 16.0815C57.5798 15.9973 57.5147 15.8819 57.4934 15.7551C57.4414 15.5087 57.765 15.4889 57.9607 15.4571C58.285 15.4475 58.6057 15.527 58.8876 15.6868C59.1695 15.8466 59.4016 16.0806 59.5586 16.3631C59.614 16.5044 59.6302 16.6578 59.6056 16.8074C59.581 16.957 59.5165 17.0973 59.4188 17.2136C59.0872 17.7342 58.6198 18.1514 58.4161 18.7674C58.3762 18.9065 58.2603 18.9184 58.1684 18.827C58.0007 18.6561 57.6691 18.6283 57.6771 18.2985C57.6771 18.1554 57.5692 18.1832 57.4854 18.1753C57.3039 18.1546 57.1278 18.1007 56.966 18.0163C56.7553 17.9234 56.5879 17.7544 56.4974 17.5435C56.407 17.3326 56.4003 17.0954 56.4787 16.8798C56.5633 16.6734 56.725 16.5076 56.9298 16.4172C57.1346 16.3268 57.3666 16.3188 57.5772 16.3949C57.7929 16.4506 57.9767 16.5698 58.2124 16.6413C58.3562 16.693 58.496 16.8559 58.6678 16.7128C58.6995 16.6796 58.7172 16.6355 58.7172 16.5897C58.7172 16.5438 58.6995 16.4997 58.6678 16.4665C58.5519 16.3035 58.4241 16.1485 58.1964 16.1605C58.1388 16.1735 58.0826 16.1921 58.0286 16.2161ZM57.6532 17.0109C57.4414 17.0109 57.3416 17.1142 57.3416 17.2811C57.3416 17.3865 57.3836 17.4876 57.4585 17.5621C57.5335 17.6366 57.6351 17.6785 57.741 17.6785C57.9887 17.7063 58.2124 17.5076 58.1964 17.3368C58.1725 17.0983 57.8289 17.1301 57.6571 17.0149L57.6532 17.0109Z" fill="#2860AA"/>
<path d="M40.2684 68.5211C40.2684 69.2125 40.1086 69.7649 40.2684 70.3252C40.3283 70.5518 40.1126 70.5279 40.0007 70.5041C39.4899 70.4208 38.9706 70.4008 38.4548 70.4445C38.2393 70.4501 38.0298 70.3734 37.8694 70.23C37.709 70.0867 37.6099 69.8877 37.5925 69.6739C37.5751 69.4601 37.6407 69.2478 37.7759 69.0807C37.911 68.9136 38.1053 68.8043 38.319 68.7754C38.5427 68.7237 38.7704 68.7078 38.9941 68.6602C39.1299 68.6284 39.3216 68.68 39.3935 68.4813C39.4019 68.428 39.3919 68.3734 39.365 68.3265C39.3382 68.2795 39.2961 68.2431 39.2457 68.223C39.0899 68.1435 38.8902 68.0998 38.7823 68.2429C38.5586 68.533 38.311 68.4178 38.0433 68.3661C37.7757 68.3144 37.7837 68.1714 37.8995 67.9687C37.974 67.8168 38.0999 67.6957 38.255 67.6269C38.5311 67.5189 38.8272 67.4708 39.1234 67.4859C39.4197 67.5009 39.7093 67.5788 39.9728 67.7144C40.0999 67.8019 40.1966 67.9265 40.2495 68.0709C40.3025 68.2154 40.3091 68.3727 40.2684 68.5211ZM39.1019 69.1887C38.9182 69.2841 38.5706 69.1887 38.5227 69.5305C38.5144 69.5763 38.5172 69.6234 38.531 69.6679C38.5449 69.7124 38.5693 69.753 38.6022 69.7861C38.6351 69.8192 38.6756 69.844 38.7201 69.8583C38.7647 69.8726 38.8121 69.876 38.8582 69.8682C38.9886 69.8582 39.1102 69.7992 39.1984 69.7033C39.2867 69.6074 39.335 69.4817 39.3336 69.3516C39.3536 69.1927 39.2537 69.1807 39.1019 69.1887Z" fill="#2860AA"/>
<path d="M45.6449 70.1825C45.3979 70.2117 45.1482 70.1569 44.9364 70.027C44.7246 69.8972 44.5632 69.6999 44.4784 69.4672C44.2148 68.8393 44.1269 68.1916 44.6023 67.6193C44.7802 67.4184 45.0148 67.2753 45.2755 67.2087C45.5362 67.1421 45.8111 67.155 46.0644 67.2458C46.3357 67.3475 46.5713 67.5257 46.7423 67.7587C46.9133 67.9916 47.0122 68.2691 47.027 68.5572C47.027 68.7599 46.8873 68.7678 46.7594 68.7877C46.4119 68.8513 46.0643 68.891 45.7248 68.9665C45.581 68.9943 45.3253 68.9069 45.3253 69.1493C45.3253 69.3043 45.4691 69.4076 45.609 69.4791C45.6474 69.5052 45.6911 69.5224 45.7371 69.5297C45.783 69.537 45.83 69.534 45.8746 69.5211C45.9193 69.5082 45.9605 69.4856 45.9954 69.455C46.0303 69.4244 46.0579 69.3865 46.0763 69.344C46.2201 68.9943 46.4758 69.0698 46.7554 69.0619C47.099 69.0619 47.087 69.2208 46.9951 69.4593C46.8193 69.9242 46.3599 70.1786 45.6449 70.1825ZM45.4172 68.434C45.585 68.3187 45.9445 68.5254 46.0164 68.1995C46.0524 68.0366 45.8406 67.8856 45.6409 67.8816C45.5271 67.874 45.4148 67.9115 45.3287 67.986C45.2426 68.0604 45.1897 68.1658 45.1815 68.279C45.1615 68.4499 45.2854 68.4419 45.4292 68.434H45.4172Z" fill="#2860AA"/>
<path d="M24.3338 65.3059C24.0206 65.3053 23.7155 65.2062 23.4623 65.0227C23.209 64.8393 23.0205 64.581 22.9237 64.2846C22.8698 63.9315 22.926 63.5705 23.0845 63.2501C23.2431 62.9297 23.4964 62.6653 23.8105 62.4924C24.092 62.3541 24.4111 62.3108 24.7195 62.3688C25.0279 62.4269 25.309 62.5833 25.5202 62.8142C25.7251 63.0729 25.8331 63.3943 25.8258 63.7235C25.8185 64.0526 25.6964 64.369 25.4803 64.6184C25.3205 64.7893 25.1887 64.7138 25.0409 64.6184C24.7053 64.3879 24.3658 64.1574 24.0302 63.919C23.8345 63.7799 23.7626 63.8634 23.7426 64.0621C23.7302 64.1386 23.7379 64.217 23.7649 64.2897C23.792 64.3623 23.8374 64.4268 23.897 64.4768C23.9565 64.5268 24.028 64.5607 24.1045 64.575C24.1811 64.5894 24.2601 64.5838 24.3338 64.5588C24.4851 64.5653 24.6323 64.6099 24.7616 64.6885C24.8908 64.767 24.9979 64.8769 25.0728 65.0079C25.0728 65.1112 25.0089 65.135 24.949 65.1708C24.7601 65.2707 24.5474 65.3175 24.3338 65.3059ZM24.8771 63.7839C24.9269 63.7645 24.9684 63.7286 24.9946 63.6822C25.0208 63.6359 25.0301 63.5819 25.0209 63.5296C25.0247 63.4688 25.0161 63.4078 24.9956 63.3504C24.9752 63.293 24.9434 63.2402 24.902 63.1954C24.8606 63.1505 24.8105 63.1143 24.7548 63.0891C24.699 63.0639 24.6387 63.0502 24.5775 63.0487C24.4217 63.0487 24.178 63.152 24.2499 63.2792C24.3458 63.5335 24.6534 63.609 24.8731 63.7799L24.8771 63.7839Z" fill="#2860AA"/>
<path d="M30.6094 66.8955C30.7572 66.8955 31.0089 66.9511 31.2685 66.9749C31.3964 66.9749 31.5601 67.0425 31.5961 66.8359C31.6077 66.7678 31.5948 66.6978 31.5598 66.6383C31.5247 66.5787 31.4697 66.5333 31.4043 66.51C31.2525 66.4345 31.1008 66.363 30.937 66.4901C30.8531 66.5577 30.7532 66.6213 30.6453 66.5617C30.4656 66.4623 30.17 66.4226 30.158 66.208C30.146 65.9934 30.4097 65.89 30.6094 65.8106C30.9154 65.7525 31.2309 65.7665 31.5305 65.8513C31.8302 65.9362 32.1057 66.0896 32.3351 66.2994C32.4165 66.3896 32.4732 66.4991 32.4998 66.6174C32.5263 66.7357 32.5219 66.8588 32.4869 66.9749C32.3232 67.6187 31.9636 68.2029 31.9157 68.8785C31.9176 68.9018 31.9131 68.9252 31.9029 68.9462C31.8927 68.9673 31.877 68.9852 31.8574 68.9982C31.8378 69.0111 31.8151 69.0187 31.7917 69.02C31.7682 69.0213 31.7448 69.0163 31.7239 69.0056C31.5122 68.9301 31.2366 68.9222 31.1127 68.7354C30.9889 68.5486 30.8771 68.5963 30.7133 68.5923C30.5616 68.5905 30.4105 68.5745 30.2619 68.5447C30.0335 68.5092 29.8278 68.3872 29.6878 68.2043C29.5478 68.0213 29.4844 67.7915 29.5109 67.5631C29.6028 67.1299 29.9303 66.8955 30.6094 66.8955ZM31.3325 67.6068C31.2406 67.3843 31.0129 67.4558 30.8411 67.432C30.6693 67.4081 30.4416 67.4995 30.4416 67.7499C30.4406 67.8004 30.4505 67.8506 30.4709 67.897C30.4912 67.9433 30.5214 67.9847 30.5594 68.0183C30.5974 68.052 30.6422 68.077 30.6908 68.0917C30.7395 68.1064 30.7907 68.1105 30.8411 68.1036C31.1207 68.1075 31.2646 67.8969 31.3325 67.6227V67.6068Z" fill="#2860AA"/>
<path d="M45.893 13.3698C45.146 13.3698 44.6946 13.1115 44.4829 12.6028C44.3746 12.2786 44.3572 11.9312 44.4326 11.598C44.5079 11.2647 44.673 10.9581 44.9103 10.7112C45.1365 10.5409 45.4061 10.4371 45.6886 10.4118C45.9712 10.3865 46.2551 10.4407 46.5082 10.5682C46.7769 10.7307 46.9841 10.977 47.0976 11.2688C47.211 11.5606 47.2243 11.8815 47.1353 12.1816C47.0714 12.3405 46.9556 12.3207 46.8357 12.3048C46.4762 12.2531 46.1167 12.1895 45.7532 12.1379C45.6134 12.118 45.4256 12.0107 45.3537 12.1657C45.2818 12.3207 45.3537 12.4916 45.4935 12.6108C45.6334 12.73 45.8451 12.8333 45.9769 12.6704C46.2485 12.3286 46.5162 12.5313 46.7758 12.6147C46.9915 12.6783 46.9916 12.7896 46.8677 12.9446C46.7569 13.0942 46.6085 13.2122 46.4375 13.2868C46.2664 13.3614 46.0787 13.39 45.893 13.3698ZM46.0169 11.6531C46.1447 11.6531 46.3085 11.7325 46.2965 11.5259C46.3012 11.4129 46.2625 11.3025 46.1883 11.2169C46.1141 11.1312 46.01 11.0769 45.897 11.0649C45.6533 11.0411 45.4336 11.2318 45.4616 11.4226C45.4936 11.7206 45.8411 11.5616 46.0169 11.657V11.6531Z" fill="#2860AA"/>
<path d="M35.5824 12.5C35.5938 12.681 35.6219 12.8606 35.6663 13.0365C35.8221 13.4657 35.6024 13.5889 35.2309 13.6366C34.9992 13.6684 34.8554 13.6366 34.8314 13.3703C34.7076 12.6272 34.5878 11.8801 34.432 11.1409C34.3561 10.7912 34.5798 10.7992 34.7795 10.7714C34.9792 10.7436 35.2349 10.5886 35.3068 10.9701C35.3148 11.2207 35.3789 11.4665 35.4945 11.6894C35.6783 11.5026 35.6503 11.2641 35.6942 11.0615C35.7173 10.895 35.7998 10.7423 35.9267 10.6314C36.0536 10.5205 36.2164 10.4587 36.3853 10.4574C36.5331 10.4574 36.7049 10.3899 36.7449 10.6164C36.7848 10.8429 36.8287 10.9343 36.597 11.0654C36.5117 11.128 36.4411 11.2083 36.3902 11.3009C36.3393 11.3934 36.3094 11.4959 36.3026 11.6012C36.2957 11.7064 36.3121 11.8119 36.3506 11.9102C36.389 12.0085 36.4486 12.0972 36.5252 12.1702C36.7768 12.4285 36.9926 12.7226 37.2242 13.0047C37.3321 13.1398 37.352 13.2193 37.1363 13.2789C36.6889 13.4021 36.3135 13.422 36.0818 12.9133C36.0075 12.7136 35.8664 12.5452 35.6823 12.4365L35.6184 12.4007L35.5824 12.5Z" fill="#2860AA"/>
<path d="M35.6584 68.9346C35.6105 69.193 35.5585 69.4354 35.5186 69.6817C35.4507 70.103 35.1551 69.8844 34.9473 69.8804C34.7396 69.8765 34.5479 69.8129 34.6238 69.5228C34.7636 68.7955 34.8994 68.0643 35.0233 67.3331C35.0792 66.9357 35.3388 67.0629 35.5585 67.0907C35.7782 67.1185 36.0259 67.1424 35.9181 67.4881C35.8664 67.7132 35.8303 67.9416 35.8102 68.1716C36.0579 68.12 36.0938 67.9173 36.1697 67.7742C36.251 67.6001 36.3928 67.4612 36.569 67.383C36.7453 67.3049 36.944 67.2928 37.1285 67.349C37.2683 67.349 37.416 67.3967 37.3921 67.5875C37.3681 67.7782 37.3921 67.9412 37.1404 67.9253C36.8128 67.9054 36.8088 68.2432 36.6331 68.3783C36.3375 68.6088 36.5572 68.7757 36.6331 68.9863C36.7729 69.3042 36.8728 69.638 36.9807 69.9679C37.0046 70.0474 37.0565 70.1467 36.9487 70.2103C36.7759 70.2279 36.6015 70.2005 36.4425 70.1308C36.2835 70.0611 36.1455 69.9516 36.0419 69.8129C35.954 69.5387 35.8741 69.2645 35.7862 68.9903C35.7862 68.9784 35.7463 68.9704 35.6584 68.9346Z" fill="#2860AA"/>
<path d="M49.0285 66.4975C49.2112 66.4778 49.3956 66.5153 49.5559 66.6048C49.7716 66.7479 50.0951 66.8592 49.9913 67.197C49.9234 67.4275 49.3521 67.4791 49.1085 67.3202C49.0381 67.2753 48.9569 67.2504 48.8734 67.2481C48.7899 67.2458 48.7073 67.2662 48.6346 67.3071C48.5619 67.3479 48.5018 67.4077 48.4607 67.4801C48.4196 67.5524 48.3991 67.6345 48.4014 67.7176C48.3958 68.0224 48.4928 68.3203 48.677 68.564C48.7183 68.6474 48.7877 68.7137 48.8731 68.7515C48.9585 68.7892 49.0545 68.796 49.1444 68.7707C49.2355 68.7542 49.3189 68.709 49.3822 68.6417C49.4455 68.5744 49.4854 68.4887 49.4959 68.3971C49.5519 67.8606 49.9953 68.0792 50.2349 68.0871C50.4746 68.0951 50.3708 68.4011 50.3388 68.5759C50.183 69.4105 48.9527 69.8397 48.1937 69.335C47.9182 69.108 47.7134 68.8077 47.603 68.4692C47.4927 68.1308 47.4814 67.7681 47.5705 67.4235C47.7422 66.8194 48.2815 66.4975 49.0285 66.4975Z" fill="#2860AA"/>
<path d="M18.2654 59.7897C18.3065 59.4435 18.4528 59.118 18.6848 58.8566C18.9168 58.5953 19.2234 58.4106 19.5637 58.3273C19.9018 58.2574 20.2538 58.3069 20.5593 58.4671C20.8647 58.6274 21.1045 58.8885 21.2375 59.2055C21.3161 59.3714 21.3452 59.5562 21.3213 59.7381C21.2814 59.9606 21.3213 60.2626 21.0058 60.3103C20.7741 60.3421 20.4305 59.8891 20.4745 59.6347C20.4899 59.5365 20.4748 59.436 20.4312 59.3465C20.3877 59.2571 20.3178 59.1829 20.2308 59.134C20.1556 59.0815 20.0644 59.0563 19.9728 59.0628C19.8811 59.0693 19.7944 59.1071 19.7275 59.1698C19.4816 59.3251 19.2838 59.5452 19.1562 59.8056C19.1181 59.8887 19.107 59.9815 19.1241 60.0711C19.1413 60.1608 19.186 60.243 19.2521 60.3063C19.3019 60.3742 19.3721 60.4245 19.4525 60.4502C19.5328 60.4759 19.6193 60.4756 19.6995 60.4494C19.8555 60.4386 20.01 60.4848 20.1342 60.5791C20.2585 60.6734 20.3439 60.8096 20.3746 60.962C20.3746 61.121 20.2348 61.1369 20.1229 61.1806C19.906 61.2511 19.6752 61.2685 19.4501 61.2312C19.2249 61.194 19.0122 61.1032 18.8298 60.9667C18.6475 60.8302 18.501 60.6519 18.4027 60.447C18.3045 60.2421 18.2573 60.0166 18.2654 59.7897Z" fill="#2860AA"/>
<path d="M19.0324 20.8808C18.9259 20.855 18.8137 20.8677 18.7157 20.9164C18.6177 20.9651 18.5403 21.0468 18.4971 21.147C18.4517 21.2271 18.4356 21.3205 18.4516 21.411C18.4677 21.5016 18.5148 21.5839 18.585 21.6438C18.7451 21.8459 18.9484 22.0102 19.1802 22.1246C19.2738 22.1777 19.3824 22.1987 19.4893 22.1843C19.5961 22.17 19.6952 22.1211 19.7714 22.0451C19.8486 21.9839 19.9003 21.8965 19.9165 21.7996C19.9328 21.7028 19.9123 21.6034 19.8592 21.5206C19.6435 21.0874 20.083 20.9801 20.2947 20.8688C20.5064 20.7576 20.5743 21.0795 20.6222 21.2344C20.7021 21.4974 20.7014 21.7781 20.6203 22.0406C20.5392 22.3032 20.3814 22.5358 20.1668 22.7088C19.9939 22.8833 19.7712 23.0006 19.5289 23.0447C19.2866 23.0888 19.0365 23.0575 18.8126 22.9552C18.5208 22.859 18.2631 22.6811 18.0704 22.4428C17.8777 22.2046 17.7581 21.9161 17.7261 21.612C17.6422 20.7576 18.3692 19.927 19.1282 20.0224C19.308 20.0423 19.6515 20.0224 19.5716 20.3085C19.5117 20.547 19.4278 20.9046 19.0324 20.8808Z" fill="#2860AA"/>
<path d="M47.6627 12.7782C47.6627 11.5185 48.6853 10.8191 49.8478 11.3397C50.0466 11.4187 50.2156 11.5577 50.3311 11.7371C50.4629 11.9556 50.6307 12.202 50.435 12.4365C50.3032 12.5954 49.728 12.3689 49.6081 12.1384C49.4004 11.741 49.0329 11.741 48.8092 12.0868C48.6764 12.3092 48.5984 12.5598 48.5815 12.818C48.5572 12.938 48.5734 13.0626 48.6276 13.1725C48.6817 13.2825 48.7708 13.3715 48.8811 13.426C49.1207 13.5492 49.2565 13.3902 49.4203 13.2313C49.7199 12.9332 49.9636 13.2591 50.1634 13.3902C50.3631 13.5214 50.1314 13.7081 50.0195 13.8115C49.5482 14.2605 48.9889 14.2089 48.4217 13.9943C48.1746 13.9082 47.9646 13.7407 47.8265 13.5194C47.6885 13.2982 47.6307 13.0367 47.6627 12.7782Z" fill="#2860AA"/>
<path d="M43.6479 11.5656C43.6479 11.963 43.5919 12.3604 43.5959 12.7578C43.5959 13.0876 43.3762 13.0399 43.1965 13.0161C43.0167 12.9922 42.7051 13.1273 42.6931 12.7379C42.6931 12.4875 42.8569 12.1656 42.6412 12.0067C42.4255 11.8477 42.1778 11.9868 41.9381 11.955C41.255 11.8596 40.9994 11.4662 41.0673 10.6198C41.0913 10.3654 41.0034 10.0634 41.4668 10.0873C41.8662 10.1071 42.0579 10.1588 41.9781 10.6198C41.9221 10.9417 41.9101 11.3192 42.3775 11.3868C42.5972 11.4185 42.777 11.3868 42.777 11.0887C42.777 10.9536 42.777 10.8145 42.777 10.6913C42.777 10.1946 43.0766 10.0277 43.552 10.2065C43.7158 10.2701 43.6838 10.3933 43.6838 10.5045C43.6838 10.8662 43.6838 11.2278 43.6838 11.5934L43.6479 11.5656Z" fill="#2860AA"/>
<path d="M43.6479 69.0055C43.6479 69.2797 43.6479 69.5499 43.6878 69.8202C43.7278 70.4123 43.7158 70.4163 43.1126 70.4163C42.9249 70.4163 42.821 70.3726 42.829 70.1659C42.829 70.0308 42.829 69.8957 42.829 69.7685C42.829 69.5023 42.7451 69.4069 42.4295 69.4307C41.295 69.5261 40.8316 69.0333 40.9794 67.8769C41.0234 67.5232 41.2871 67.6703 41.4628 67.6424C41.6386 67.6146 41.8623 67.5669 41.8623 67.857C41.8623 68.0518 41.8863 68.2544 41.9102 68.4452C41.9127 68.5054 41.9281 68.5645 41.9554 68.6183C41.9828 68.6721 42.0215 68.7195 42.0688 68.7572C42.1161 68.7948 42.171 68.822 42.2298 68.8367C42.2886 68.8514 42.3499 68.8534 42.4096 68.8426C42.7331 68.8426 42.7611 68.628 42.7371 68.3776C42.7371 68.2743 42.7371 68.167 42.7371 68.0637C42.7371 67.6107 43.0167 67.404 43.4522 67.5391C43.6 67.5828 43.584 67.6862 43.588 67.7855C43.6159 68.1829 43.6399 68.6002 43.6679 69.0055H43.6479Z" fill="#2860AA"/>
<path d="M20.6146 19.0771C20.473 19.2009 20.3396 19.3337 20.2151 19.4745C20.0433 19.6573 19.9195 19.6255 19.7797 19.4387C19.6399 19.2519 19.4402 19.1446 19.6958 18.9141C20.2284 18.4479 20.7424 17.975 21.2378 17.4954C21.4655 17.2808 21.5773 17.4398 21.7171 17.5868C21.8569 17.7339 21.9807 17.9048 21.7171 18.0677C21.2577 18.3618 21.3775 18.624 21.7171 18.934C22.0566 19.244 22.2444 19.5182 22.516 19.7964C22.7877 20.0745 22.544 20.2335 22.3762 20.4203C22.2085 20.607 22.0207 20.619 21.833 20.3925C21.5214 20.0229 21.1818 19.6732 20.8503 19.3195C20.7864 19.2082 20.7024 19.1605 20.6146 19.0771Z" fill="#2860AA"/>
<path d="M23.9061 61.6811C23.835 61.8515 23.7191 61.9998 23.5706 62.1103C23.4548 62.2176 23.3549 62.1302 23.251 62.0547C22.7637 61.701 22.7637 61.701 22.3483 62.1819C22.0926 62.4799 21.8249 62.77 21.5773 63.076C21.3296 63.382 21.1778 63.1118 20.9901 62.9806C20.8023 62.8495 20.6625 62.7263 20.8942 62.4839C21.2178 62.1501 21.4934 61.7606 21.8249 61.4308C22.1565 61.1009 22.0926 60.9618 21.773 60.7671C21.4534 60.5724 21.5253 60.3697 21.773 60.1313C21.7949 60.0985 21.8246 60.0716 21.8594 60.053C21.8943 60.0344 21.9332 60.0247 21.9727 60.0247C22.0123 60.0247 22.0512 60.0344 22.0861 60.053C22.1209 60.0716 22.1506 60.0985 22.1725 60.1313L23.8183 61.5579C23.8501 61.5972 23.8794 61.6383 23.9061 61.6811Z" fill="#2860AA"/>
<path d="M52.6998 65.7743C52.6639 65.9531 52.4442 65.9611 52.3003 66.0127C52.0127 66.1041 51.9568 66.2313 52.0886 66.5055C52.2844 66.9029 52.4281 67.348 52.6159 67.7573C52.7397 68.0355 52.7557 68.2223 52.4042 68.3454C52.0527 68.4686 51.9049 68.4925 51.789 68.111C51.6732 67.7295 51.4574 67.3162 51.3216 66.9188C51.2098 66.581 51.062 66.43 50.7144 66.6486C50.3669 66.8671 50.2151 66.6486 50.1152 66.3426C50.0633 66.1717 50.0953 66.0962 50.2591 66.0326C50.9222 65.7703 51.5773 65.4921 52.2564 65.2378C52.4362 65.1583 52.7198 65.4365 52.6998 65.7743Z" fill="#2860AA"/>
<path d="M53.7865 12.9449C53.7865 13.2548 53.5388 13.4138 53.2153 13.2429C52.8917 13.072 52.688 13.1595 52.5681 13.5251C52.4483 13.8907 52.2246 14.296 52.0968 14.7173C51.9689 15.1385 51.7532 15.0272 51.4696 14.9239C51.186 14.8206 51.1061 14.6855 51.2459 14.3914C51.4456 13.994 51.5894 13.5529 51.7812 13.1436C51.917 12.8495 51.897 12.6747 51.5495 12.5793C51.3258 12.5197 51.0741 12.4759 51.2299 12.1024C51.3857 11.7288 51.5775 11.864 51.8052 11.9554C52.3804 12.1938 52.9556 12.4243 53.5269 12.6667C53.6347 12.6985 53.8105 12.7064 53.7865 12.9449Z" fill="#2860AA"/>
</svg>
