<svg width="87" height="96" viewBox="0 0 87 96" fill="none" xmlns="http://www.w3.org/2000/svg">
<path d="M83.1199 42.6965C83.1199 50.5537 80.7931 58.2345 76.4339 64.7671C72.0747 71.2998 65.879 76.391 58.6304 79.3966C51.3817 82.4022 43.4056 83.1872 35.7114 81.6525C28.0171 80.1177 20.9502 76.3321 15.4046 70.7744C9.85887 65.2167 6.0836 58.1366 4.5562 50.4297C3.0288 42.7229 3.81806 34.7355 6.82391 27.4779C9.82976 20.2202 14.9172 14.0184 21.4429 9.65696C27.9686 5.29548 35.6393 2.9702 43.4847 2.97535C48.6919 2.97535 53.8478 4.0029 58.6583 5.99939C63.4688 7.99589 67.8393 10.9222 71.5201 14.611C75.2009 18.2998 78.1199 22.6789 80.1103 27.4979C82.1006 32.3169 83.1233 37.4815 83.1199 42.6965Z" fill="white"/>
<path d="M65.8509 56.4497C63.2788 56.4404 60.756 55.743 58.5433 54.4295C56.3307 53.116 54.5085 51.2341 53.2657 48.9788C52.0229 46.7235 51.4043 44.1764 51.4742 41.6014C51.544 39.0263 52.2999 36.5168 53.6632 34.3323C55.0264 32.1479 56.9476 30.3678 59.2281 29.1766C61.5087 27.9853 64.0656 27.4261 66.6345 27.5566C69.2033 27.6871 71.6907 28.5027 73.8392 29.919C75.9876 31.3353 77.7191 33.301 78.8546 35.6124H73.6531C72.3212 34.0361 70.538 32.9075 68.5447 32.3793C66.5514 31.8511 64.444 31.9488 62.5079 32.6591C60.5719 33.3695 58.9004 34.6582 57.7195 36.351C56.5386 38.0438 55.9055 40.0591 55.9055 42.1241C55.9055 44.1891 56.5386 46.2042 57.7195 47.897C58.9004 49.5898 60.5719 50.8785 62.5079 51.5889C64.444 52.2992 66.5514 52.397 68.5447 51.8688C70.538 51.3406 72.3212 50.2121 73.6531 48.6357H78.8546C77.6363 50.9944 75.7928 52.9712 73.5265 54.3497C71.2601 55.7281 68.6587 56.4548 66.0071 56.4497M35.0323 56.4497C32.4602 56.4404 29.9373 55.743 27.7247 54.4295C25.512 53.116 23.6898 51.2341 22.447 48.9788C21.2042 46.7235 20.5857 44.1764 20.6555 41.6014C20.7254 39.0263 21.4809 36.5168 22.8442 34.3323C24.2074 32.1479 26.1289 30.3678 28.4095 29.1766C30.69 27.9853 33.247 27.4261 35.8158 27.5566C38.3846 27.6871 40.872 28.5027 43.0205 29.919C45.169 31.3353 46.9005 33.301 48.0359 35.6124H42.8345C41.3988 33.8432 39.4082 32.6121 37.1857 32.1191C34.9632 31.6261 32.6394 31.9002 30.5921 32.8968C28.5448 33.8934 26.894 35.554 25.9081 37.6088C24.9222 39.6637 24.6589 41.992 25.1611 44.2156C25.6633 46.4392 26.9016 48.4274 28.6746 49.8573C30.4475 51.2872 32.6512 52.0747 34.9275 52.0919C37.2038 52.1091 39.4189 51.355 41.2131 49.9521C43.0074 48.5491 44.2754 46.5798 44.8111 44.364H34.4081V39.8059H49.3363C49.4539 40.529 49.5059 41.2612 49.4922 41.9937C49.4956 43.8909 49.1255 45.7701 48.403 47.5239C47.6804 49.2776 46.6198 50.8714 45.2816 52.2141C43.9433 53.5568 42.3537 54.622 40.6039 55.3488C38.8541 56.0756 36.9786 56.4497 35.0843 56.4497M16.8792 56.2935H12.3796V27.6421H16.8792V56.2935ZM43.6405 0.918265C35.5072 0.887392 27.5476 3.273 20.7682 7.77331C13.9888 12.2736 8.69442 18.6865 5.55461 26.2007C2.41481 33.7149 1.57045 41.9929 3.1288 49.9877C4.68716 57.9824 8.57812 65.3348 14.3092 71.1146C20.0404 76.8945 27.3543 80.8422 35.3259 82.4585C43.2976 84.0749 51.5689 83.2872 59.0935 80.195C66.6181 77.1029 73.0578 71.8452 77.5984 65.0871C82.139 58.3289 84.5764 50.3738 84.6021 42.2282C84.5815 31.313 80.2429 20.8508 72.5363 13.1326C64.8297 5.41433 54.3834 1.06912 43.4847 1.04847" fill="#1275BB"/>
<path d="M3.25124 94.0873C2.81899 94.1022 2.38833 94.024 1.98897 93.8577C1.5896 93.6915 1.23084 93.441 0.936544 93.1236C0.334967 92.4814 0 91.634 0 90.7534C0 89.8729 0.334967 89.0253 0.936544 88.3831C1.23557 88.0629 1.59841 87.8094 2.00167 87.6389C2.40492 87.4684 2.83931 87.3848 3.27695 87.3935C3.75006 87.3762 4.22111 87.4651 4.65542 87.6539C5.06673 87.8541 5.44423 88.1178 5.77387 88.4352L5.27957 88.9562C5.01801 88.6799 4.70359 88.4591 4.35509 88.3069C4.00659 88.1548 3.63138 88.0744 3.25124 88.0705C2.91739 88.0637 2.58592 88.1301 2.28041 88.2651C1.9749 88.4001 1.70261 88.6005 1.4826 88.8521C1.23992 89.1038 1.05023 89.4018 0.925115 89.7285C0.800001 90.0552 0.741956 90.4038 0.754315 90.7534C0.741956 91.1031 0.800001 91.4517 0.925115 91.7783C1.05023 92.105 1.23992 92.4031 1.4826 92.6548C1.7082 92.8976 1.98212 93.0903 2.28676 93.2204C2.59139 93.3505 2.92009 93.4153 3.25124 93.4102C3.63675 93.4161 4.01856 93.3359 4.36938 93.1757C4.73548 92.9979 5.06948 92.7601 5.35767 92.4724L5.82594 92.9934C5.49515 93.335 5.10787 93.617 4.68145 93.8269C4.22869 94.015 3.74114 94.1038 3.25124 94.0873Z" fill="#1275BB"/>
<path d="M8.81661 93.9827V88.1743H6.63208V87.4971H11.8336V88.1743H9.64902V93.9827H8.81661Z" fill="#1275BB"/>
<path d="M18.4654 93.0971C18.1666 93.4247 17.7999 93.6829 17.3911 93.8539C16.9823 94.0248 16.5413 94.1043 16.0986 94.0868C15.6582 94.1058 15.2187 94.0297 14.8103 93.8634C14.4019 93.6971 14.0341 93.4445 13.7319 93.123C13.1211 92.4868 12.7848 91.6354 12.7957 90.7529C12.786 90.3152 12.8638 89.88 13.0246 89.473C13.1854 89.0659 13.4259 88.6951 13.7319 88.3825C14.0349 88.0604 14.4023 87.8059 14.81 87.6354C15.2178 87.4648 15.6569 87.3822 16.0986 87.3929C16.5409 87.3789 16.9809 87.4598 17.3892 87.6306C17.7974 87.8013 18.1645 88.0577 18.4654 88.3825C19.0652 89.0204 19.3991 89.8636 19.3991 90.7398C19.3991 91.616 19.0652 92.4593 18.4654 93.0971ZM14.2783 92.6542C14.7627 93.1354 15.4164 93.4068 16.0986 93.4097C16.4383 93.4205 16.7762 93.3585 17.0901 93.2283C17.404 93.098 17.6865 92.9024 17.919 92.6542C18.3887 92.1326 18.6489 91.4552 18.6489 90.7529C18.6489 90.0505 18.3887 89.3731 17.919 88.8515C17.6889 88.5987 17.4073 88.3981 17.0933 88.2633C16.7793 88.1285 16.4402 88.0625 16.0986 88.07C15.7564 88.0572 15.4156 88.1207 15.1008 88.2558C14.786 88.391 14.5051 88.5945 14.2783 88.8515C14.0356 89.1032 13.8459 89.4013 13.7208 89.728C13.5957 90.0546 13.5376 90.4032 13.55 90.7529C13.5445 91.456 13.8047 92.1351 14.2783 92.6542Z" fill="#1275BB"/>
<path d="M23.7191 93.9827V87.4971H27.8282V88.1743H24.4471V93.9827H23.7191Z" fill="#1275BB"/>
<path d="M30.4548 94.0864C30.0065 94.1018 29.5663 93.9641 29.2065 93.6958C29.0326 93.5666 28.892 93.3974 28.797 93.2025C28.702 93.0076 28.655 92.7927 28.6602 92.5758C28.6488 92.3516 28.6958 92.1282 28.796 91.9274C28.8963 91.7266 29.0467 91.5552 29.2326 91.4298C29.6656 91.1274 30.1879 90.9804 30.7149 91.0129C31.2075 91.0163 31.6976 91.0864 32.1714 91.2213V91.0651C32.1794 90.8881 32.1512 90.7112 32.0886 90.5455C32.026 90.3798 31.9302 90.2287 31.8073 90.1014C31.5105 89.8705 31.1425 89.7508 30.7669 89.7627C30.2605 89.7752 29.763 89.8998 29.3104 90.1274L29.1024 89.5282C29.649 89.2756 30.2431 89.1425 30.845 89.1376C31.1226 89.1173 31.4012 89.1529 31.6647 89.2424C31.9283 89.3319 32.1714 89.4734 32.3794 89.6586C32.5521 89.8476 32.6849 90.0695 32.7699 90.3112C32.8548 90.5529 32.8899 90.8094 32.8734 91.0651V93.9823H32.1714V93.279C31.9682 93.5386 31.7069 93.747 31.4088 93.8872C31.1107 94.0274 30.7841 94.0956 30.4548 94.0864ZM30.4548 93.5135C30.8659 93.521 31.2679 93.3928 31.599 93.1488C31.7376 93.0409 31.8497 92.9027 31.9263 92.7447C32.003 92.5866 32.0423 92.4129 32.0413 92.2372V91.7162C31.592 91.594 31.1283 91.5326 30.6628 91.5339C30.2975 91.5108 29.9339 91.6019 29.6224 91.7945C29.5099 91.8738 29.4182 91.979 29.3548 92.1014C29.2914 92.2238 29.2585 92.3597 29.2586 92.4976C29.2595 92.6326 29.29 92.7658 29.3485 92.8874C29.4069 93.009 29.4919 93.1161 29.5967 93.2009C29.7328 93.3155 29.89 93.4021 30.0596 93.4558C30.2292 93.5094 30.4075 93.529 30.5847 93.5135H30.4548Z" fill="#1275BB"/>
<path d="M35.9425 94.0865C35.2223 94.0875 34.524 93.8391 33.9659 93.3833L34.33 92.8624C34.7668 93.2514 35.3319 93.4648 35.9164 93.4614C36.2169 93.4792 36.5156 93.4068 36.7746 93.2531C36.8778 93.1847 36.9629 93.0919 37.0219 92.9829C37.0808 92.8739 37.1119 92.7519 37.1127 92.6279C37.1184 92.5128 37.0925 92.3985 37.0374 92.2974C36.9824 92.1962 36.9003 92.1124 36.8006 92.0549C36.5349 91.8945 36.2257 91.8216 35.9164 91.8465H35.2662V91.2475H35.9164C36.1909 91.2531 36.4615 91.1808 36.6968 91.0391C36.7855 90.9664 36.8569 90.8751 36.9063 90.7715C36.9558 90.668 36.982 90.5548 36.9828 90.44C36.9845 90.3358 36.959 90.2329 36.9089 90.1415C36.8587 90.0501 36.7856 89.9735 36.6968 89.9191C36.4714 89.7767 36.2089 89.7042 35.9425 89.7107C35.4135 89.6957 34.8966 89.8713 34.4859 90.2056L34.1481 89.7107C34.6705 89.2903 35.3246 89.0688 35.9945 89.0856C36.4393 89.0666 36.8779 89.1948 37.2428 89.4503C37.3913 89.5565 37.5117 89.6975 37.5933 89.8609C37.6749 90.0243 37.7154 90.2052 37.7111 90.3879C37.7228 90.6279 37.655 90.865 37.5187 91.0628C37.3824 91.2605 37.185 91.4077 36.9568 91.4818C37.2155 91.547 37.4443 91.6988 37.6051 91.912C37.7659 92.1252 37.849 92.3869 37.841 92.654C37.837 92.8517 37.7882 93.046 37.6981 93.222C37.608 93.398 37.479 93.5512 37.3209 93.6698C36.9256 93.9686 36.4368 94.1163 35.9425 94.0865Z" fill="#1275BB"/>
<path d="M39.1152 93.9823V89.1116H43.2506V93.9042H42.5484V89.7627H39.9476V93.9042L39.1152 93.9823Z" fill="#1275BB"/>
<path d="M44.837 95.4674V89.112H45.5389V90.0757C45.7069 89.7834 45.9418 89.535 46.224 89.351C46.5063 89.1669 46.8279 89.0524 47.1628 89.0168C47.4977 88.9812 47.8363 89.0257 48.1508 89.1463C48.4653 89.267 48.7467 89.4604 48.9721 89.711C49.2051 89.9458 49.3857 90.2275 49.5023 90.5372C49.6188 90.847 49.6687 91.1779 49.6483 91.5083C49.6659 91.8423 49.6151 92.1765 49.4988 92.4901C49.3825 92.8037 49.2032 93.09 48.9721 93.3316C48.5533 93.7582 47.983 94.0017 47.3857 94.0088C47.0169 94.0116 46.6533 93.9197 46.3301 93.7419C46.0068 93.564 45.7344 93.3061 45.5389 92.9929V95.3892L44.837 95.4674ZM47.2555 93.4357C47.4782 93.4404 47.6995 93.3989 47.9054 93.3137C48.1113 93.2286 48.2976 93.1016 48.4521 92.9408C48.7785 92.5678 48.9464 92.0818 48.92 91.5865C48.9319 91.3431 48.8942 91.0998 48.8092 90.8714C48.7243 90.643 48.594 90.4344 48.426 90.2581C48.2799 90.0919 48.0998 89.9594 47.8978 89.8695C47.6958 89.7796 47.4765 89.7344 47.2555 89.7371C47.0272 89.7368 46.8011 89.7827 46.591 89.8722C46.381 89.9618 46.1913 90.0931 46.0332 90.2581C45.6943 90.6164 45.5078 91.0928 45.5132 91.5865C45.5048 91.8317 45.5463 92.0761 45.6358 92.3046C45.7252 92.533 45.8606 92.7408 46.0332 92.9149C46.1873 93.085 46.3762 93.2197 46.5872 93.3096C46.7983 93.3995 47.0263 93.4425 47.2555 93.4357Z" fill="#1275BB"/>
<path d="M54.9279 93.358C54.701 93.5974 54.426 93.7862 54.1212 93.9118C53.8165 94.0375 53.4887 94.0972 53.1593 94.0872C52.8294 94.1006 52.5007 94.0423 52.1955 93.9165C51.8902 93.7906 51.6155 93.6001 51.3907 93.358C51.1516 93.1307 50.9634 92.8554 50.8379 92.5502C50.7124 92.245 50.6527 91.9168 50.6627 91.5868C50.6785 90.9343 50.9382 90.3115 51.3907 89.8417C51.6189 89.6022 51.8934 89.4115 52.1974 89.2812C52.5013 89.1509 52.8287 89.0837 53.1593 89.0837C53.4899 89.0837 53.8173 89.1509 54.1212 89.2812C54.4252 89.4115 54.6997 89.6022 54.9279 89.8417C55.165 90.065 55.3523 90.3358 55.4778 90.6365C55.6033 90.9372 55.6638 91.261 55.6559 91.5868C55.6642 91.9165 55.6038 92.2443 55.4784 92.5493C55.353 92.8542 55.1657 93.1297 54.9279 93.358ZM53.1593 93.358C53.3985 93.3639 53.6362 93.318 53.8562 93.2236C54.0761 93.1292 54.273 92.9885 54.4336 92.8109C54.7586 92.4457 54.9351 91.9717 54.9279 91.4825C54.9314 91.2418 54.887 91.0029 54.7978 90.7794C54.7085 90.5559 54.5759 90.3521 54.4076 90.1802C54.2509 90.0047 54.0582 89.8651 53.8428 89.7707C53.6274 89.6763 53.3944 89.6295 53.1593 89.6333C52.9225 89.6274 52.6872 89.6705 52.4678 89.7602C52.2485 89.8498 52.05 89.9841 51.885 90.1543C51.5622 90.5208 51.386 90.9938 51.3907 91.4825C51.3853 91.9762 51.572 92.4526 51.911 92.8109C52.0577 93.0055 52.2459 93.165 52.4618 93.2777C52.6778 93.3903 52.916 93.4533 53.1593 93.4621V93.358Z" fill="#1275BB"/>
<path d="M56.9302 93.9823V89.1116H57.6064L59.4011 91.7162L61.1694 89.1116H61.8456V93.9042H61.1434V90.2576L59.3751 92.6799L57.6325 90.2576V93.9042L56.9302 93.9823Z" fill="#1275BB"/>
<path d="M68.1396 94.087C67.4088 94.0706 66.7079 93.7935 66.163 93.3056L66.5792 92.7327C67 93.1598 67.567 93.411 68.1656 93.4358C68.4436 93.438 68.717 93.3669 68.959 93.2298C69.2009 93.0927 69.4028 92.8942 69.5441 92.6545C69.9279 92.0679 70.1188 91.3757 70.0901 90.6749C69.9047 90.9914 69.6381 91.2525 69.318 91.4311C68.9979 91.6098 68.636 91.6994 68.2697 91.6908C67.6746 91.7191 67.0904 91.5241 66.6312 91.1439C66.4298 90.9591 66.27 90.7332 66.1623 90.4817C66.0547 90.2302 66.0018 89.9587 66.0071 89.6851C65.9998 89.3896 66.0536 89.096 66.1655 88.8225C66.2774 88.549 66.445 88.3017 66.6573 88.0963C67.156 87.6778 67.7931 87.4617 68.4431 87.4906C69.093 87.5195 69.7086 87.7914 70.1682 88.2526C70.6775 88.9521 70.9177 89.8122 70.8444 90.6749C70.89 91.6031 70.6244 92.5198 70.0901 93.2796C69.8522 93.5594 69.5511 93.7786 69.212 93.919C68.8728 94.0594 68.5053 94.1169 68.1396 94.087ZM68.3475 90.9874C68.5587 90.9997 68.7701 90.9667 68.9675 90.8903C69.1649 90.8139 69.3439 90.696 69.492 90.5447C69.6408 90.4151 69.7601 90.2551 69.8418 90.0754C69.9236 89.8957 69.966 89.7004 69.966 89.5029C69.966 89.3054 69.9236 89.1102 69.8418 88.9305C69.7601 88.7507 69.6408 88.5906 69.492 88.461C69.1622 88.1721 68.7331 88.0227 68.2954 88.0443C68.0887 88.0374 67.8827 88.0731 67.6903 88.1492C67.4979 88.2254 67.3234 88.3404 67.1773 88.4871C66.9023 88.784 66.753 89.1761 66.7611 89.581C66.7519 89.7729 66.787 89.9644 66.8636 90.1406C66.9403 90.3168 67.0566 90.4729 67.2033 90.5968C67.5211 90.8684 67.9303 91.0081 68.3475 90.9874Z" fill="#1275BB"/>
<path d="M76.6702 93.1232C76.4432 93.432 76.1446 93.6811 75.8004 93.8489C75.4561 94.0168 75.0764 94.0984 74.6937 94.0869C74.3113 94.0962 73.9321 94.0136 73.5882 93.8459C73.2443 93.6782 72.9456 93.4304 72.7171 93.1232C72.2074 92.4401 71.9417 91.6054 71.9628 90.753C71.9364 89.8956 72.2128 89.0563 72.7431 88.3827C72.9873 88.0967 73.2902 87.8673 73.6314 87.7099C73.9726 87.5525 74.344 87.4709 74.7197 87.4709C75.0954 87.4709 75.4665 87.5525 75.8077 87.7099C76.1489 87.8673 76.4521 88.0967 76.6963 88.3827C77.2022 89.0762 77.4587 89.9209 77.4242 90.7791C77.4476 91.6238 77.1817 92.451 76.6702 93.1232ZM73.2892 92.6283C73.4382 92.8707 73.6468 93.0708 73.8949 93.2097C74.143 93.3485 74.4225 93.4214 74.7067 93.4214C74.9909 93.4214 75.2703 93.3485 75.5185 93.2097C75.7666 93.0708 75.9749 92.8707 76.1239 92.6283C76.4819 92.0589 76.6718 91.3998 76.6718 90.7269C76.6718 90.0541 76.4819 89.395 76.1239 88.8256C75.9723 88.5835 75.7613 88.3844 75.5108 88.2475C75.2603 88.1107 74.979 88.0408 74.6937 88.0442C74.4088 88.0432 74.1281 88.1143 73.8781 88.2509C73.628 88.3875 73.4165 88.5852 73.2631 88.8256C72.8982 89.3876 72.7041 90.0435 72.7041 90.7139C72.7041 91.3843 72.8982 92.0404 73.2631 92.6024L73.2892 92.6283Z" fill="#1275BB"/>
<path d="M83.2758 93.1232C83.0487 93.432 82.7505 93.6811 82.4062 93.8489C82.062 94.0168 81.6819 94.0984 81.2992 94.0869C80.9168 94.0962 80.538 94.0136 80.1941 93.8459C79.8502 93.6782 79.5515 93.4304 79.3229 93.1232C78.8133 92.4401 78.5476 91.6054 78.5686 90.753C78.5422 89.8956 78.8183 89.0563 79.3487 88.3827C79.5928 88.0967 79.8961 87.8673 80.2373 87.7099C80.5785 87.5525 80.9496 87.4709 81.3252 87.4709C81.7009 87.4709 82.0723 87.5525 82.4135 87.7099C82.7547 87.8673 83.0577 88.0967 83.3018 88.3827C83.8078 89.0762 84.0645 89.9209 84.0301 90.7791C84.0535 91.6238 83.7872 92.451 83.2758 93.1232ZM79.895 92.6283C80.0414 92.877 80.2509 93.0827 80.502 93.2245C80.7532 93.3662 81.037 93.4391 81.3252 93.4357C81.6066 93.4372 81.8837 93.3662 82.1297 93.2294C82.3757 93.0925 82.5823 92.8944 82.7297 92.6544C83.0877 92.085 83.2777 91.4259 83.2777 90.753C83.2777 90.0801 83.0877 89.421 82.7297 88.8517C82.5782 88.6095 82.3672 88.4105 82.1167 88.2736C81.8662 88.1368 81.5845 88.0667 81.2992 88.0701C81.0144 88.0691 80.734 88.1403 80.4839 88.277C80.2339 88.4136 80.0224 88.6113 79.869 88.8517C79.5041 89.4137 79.3099 90.0696 79.3099 90.74C79.3099 91.4104 79.5041 92.0663 79.869 92.6283H79.895Z" fill="#1275BB"/>
<path d="M86.2665 93.9826V88.2262L85.0443 88.5909L84.8624 88.018L86.4488 87.4709H86.9688V93.9826H86.2665Z" fill="#1275BB"/>
</svg>
