<svg width="83" height="84" viewBox="0 0 83 84" fill="none" xmlns="http://www.w3.org/2000/svg">
<path d="M6.10352e-05 42.0198H11.8596C11.8401 46.6182 12.9151 51.1552 14.9956 55.2545C17.0761 59.3539 20.1021 62.8975 23.8229 65.592C29.2945 69.741 36.0966 71.7338 42.9382 71.192C50.3594 70.7953 57.3278 67.4931 62.3399 61.9977C67.4025 56.5868 70.1957 49.4347 70.1422 42.0198H82.0274V44.1817C82.0128 44.2679 82.0128 44.3559 82.0274 44.4421C81.8193 46.1612 81.6633 47.8803 81.3772 49.6514C80.8657 52.5874 79.9921 55.4484 78.7765 58.1687C75.6422 65.5012 70.458 71.7696 63.8483 76.219C60.2379 78.6878 56.2371 80.5283 52.0148 81.6628C50.4023 82.1056 48.7638 82.4442 47.1254 82.7307C45.903 82.9391 44.6549 82.9912 43.4325 83.1215C43.3269 83.1373 43.2279 83.1824 43.1465 83.2517H38.8813H38.6473C36.9308 83.0433 35.2143 82.9131 33.4458 82.6266C30.5069 82.1099 27.6421 81.2352 24.9153 80.0219C21.0813 78.3875 17.5201 76.1738 14.3562 73.4581C12.5375 71.8685 10.8584 70.1257 9.33693 68.2488C7.30253 65.7826 5.5573 63.0909 4.13546 60.2264C2.31214 56.5503 1.06633 52.6143 0.4423 48.5575C0.234242 47.2031 0.156105 45.9528 6.10352e-05 44.4682C6.10352e-05 44.4682 6.10352e-05 44.2859 6.10352e-05 44.1817V42.0198ZM14.3822 61.9716C14.395 62.0754 14.395 62.1803 14.3822 62.2841L13.2901 65.3316C13.2642 65.3888 13.2507 65.451 13.2507 65.5139C13.2507 65.5768 13.2642 65.6389 13.2901 65.6962C13.4722 65.9567 13.6802 66.1911 13.8882 66.4515L17.7893 63.352L17.1652 62.5706L14.5644 64.6282C14.5644 64.4199 14.5643 64.2897 14.7203 64.1855C15.0584 63.1697 15.4226 62.1539 15.7867 61.1381C15.8265 61.0287 15.8265 60.9088 15.7867 60.7995C15.6047 60.539 15.3966 60.3046 15.1886 60.0442L11.2875 63.1696L11.9377 63.9512L12.2758 63.6906L14.3822 61.9716ZM9.02486 50.7455L8.76453 50.9798L6.45015 52.7251C6.41748 52.7519 6.39108 52.7857 6.37301 52.8239C6.35494 52.8622 6.34539 52.904 6.34539 52.9464C6.34539 52.9887 6.35494 53.0305 6.37301 53.0688C6.39108 53.1071 6.41748 53.1409 6.45015 53.1678C6.45015 53.3762 6.44992 53.6888 6.86604 53.6888H9.77885H10.143L6.99621 54.7305L7.30828 55.6943L12.0415 54.1576C12.0415 53.7148 11.7817 53.3501 11.6516 52.9594C11.6486 52.9158 11.6365 52.8734 11.6161 52.8348C11.5957 52.7961 11.5672 52.7622 11.5329 52.7352C11.4986 52.7082 11.459 52.6887 11.4167 52.678C11.3744 52.6673 11.3305 52.6655 11.2875 52.6729H7.95847L8.29657 52.3864L10.6633 50.6412C10.6633 50.6412 10.8452 50.4068 10.8192 50.3287C10.7932 50.2505 10.533 49.4691 10.403 49.0263L5.64377 50.5371L5.95585 51.5269L9.02486 50.7455ZM75.0055 50.2767L71.7806 50.5892C71.7806 50.5892 71.4946 50.5892 71.4686 50.7455C71.4425 50.9018 71.2345 51.631 71.1304 52.0998L75.9678 53.2719L76.2018 52.2822L72.9248 51.4747L75.7078 51.1622C76.514 51.1622 76.514 51.1622 76.67 50.3287L73.7051 48.4273L76.9821 49.2087L77.19 48.2189L72.3527 47.0728L71.9886 48.5575L75.0055 50.2767ZM36.2545 78.4331L37.2688 73.5363L36.4104 73.354C35.7602 73.2237 35.7602 73.2237 35.4221 73.8228L33.9919 76.4274C33.9802 76.3323 33.9802 76.2361 33.9919 76.141C33.9919 75.1252 33.7578 74.1092 33.6277 73.1195C33.6277 73.1195 33.6276 72.833 33.4715 72.8069L32.0934 72.5204L31.079 77.3912L32.0673 77.5996L32.7436 74.3698L33.2115 77.8339H33.6277C33.6856 77.8593 33.748 77.8726 33.8112 77.8732C33.8744 77.8737 33.937 77.8614 33.9953 77.8371C34.0537 77.8127 34.1065 77.7768 34.1506 77.7315C34.1947 77.6862 34.2291 77.6325 34.2519 77.5735C34.59 76.9484 34.9542 76.3493 35.3183 75.7502L35.8643 74.8386L35.1621 78.1205L36.2545 78.4331ZM46.6574 73.2238L47.1254 76.5316L46.8393 76.193L44.785 73.7446C44.6992 73.6386 44.58 73.5652 44.4469 73.5363H43.5106L44.2126 78.4851L45.2269 78.3288L44.785 75.1251C44.8994 75.1986 45.0042 75.2861 45.097 75.3855L47.1254 77.8339C47.2057 77.9284 47.3158 77.9927 47.4375 78.0163H48.374L47.6718 73.0675L46.6574 73.2238ZM25.0972 72.0256L23.3289 70.9056L22.8867 71.6089L23.7969 72.1818C23.6924 72.3766 23.5243 72.5295 23.3206 72.6149C23.117 72.7002 22.8905 72.7128 22.6787 72.6507C22.4201 72.5995 22.1835 72.4694 22.0019 72.2782C21.8202 72.0869 21.7024 71.844 21.6644 71.5828C21.6484 71.1483 21.7577 70.7182 21.979 70.3441C22.2004 69.97 22.5244 69.6677 22.9127 69.473C23.6929 69.1344 24.7592 69.8376 24.5251 70.6972C24.5251 70.6972 24.5251 70.9056 24.5251 70.9316L25.3572 71.4524C25.377 71.1576 25.377 70.8618 25.3572 70.567C25.33 70.2408 25.2348 69.9239 25.0779 69.6368C24.9209 69.3497 24.7058 69.0987 24.4461 68.8999C24.1864 68.7012 23.888 68.559 23.5702 68.4828C23.2523 68.4065 22.922 68.3978 22.6006 68.4572C21.9305 68.6427 21.3459 69.0562 20.9472 69.6266C20.5485 70.197 20.3607 70.8887 20.4161 71.5828C20.481 72.0169 20.6703 72.4227 20.9612 72.751C21.2521 73.0793 21.632 73.3158 22.0546 73.432C22.3828 73.4713 22.7146 73.4713 23.0429 73.432L22.8867 73.9269L23.4587 74.2916L25.0972 72.0256ZM38.6212 73.6926V78.6413H42.3922V77.7558H39.7914V76.5316H42.2103V75.6721H39.8435V74.6041H42.4442V73.6926H38.6212ZM74.3814 54.9129L73.2889 57.3613L72.1705 56.8403L73.1588 54.6525L72.3787 54.2878L71.3904 56.5017L70.4022 56.059L71.4943 53.6627L70.6622 53.2719L69.1278 56.684L73.6791 58.7418L75.2135 55.2776L74.3814 54.9129ZM27.5681 70.5409L25.6693 75.1773L29.1545 76.6098L29.5187 75.7763L26.9179 74.7343L27.3859 73.5883L29.6225 74.5261L29.9346 73.7446L27.724 72.8069L28.1142 71.8171L30.5587 72.8069L30.8968 71.9734L27.5681 70.5409ZM67.1512 62.5445C66.9728 62.3449 66.7369 62.2053 66.4763 62.1447C66.2157 62.0841 65.9427 62.1054 65.6947 62.2059C65.33 62.35 65.0026 62.5748 64.7369 62.8634C64.4711 63.1521 64.2741 63.4972 64.1603 63.8729C64.0636 64.1391 64.0544 64.4291 64.134 64.7009C64.2135 64.9727 64.3777 65.212 64.6026 65.3837C64.8228 65.5407 65.0862 65.625 65.3566 65.625C65.6269 65.625 65.8906 65.5407 66.1109 65.3837C66.397 65.2274 66.6569 65.019 66.969 64.8627C67.1735 64.6992 67.4015 64.5674 67.6452 64.472C67.7308 64.4323 67.8239 64.4119 67.9183 64.4119C68.0126 64.4119 68.106 64.4323 68.1916 64.472C68.2572 64.5454 68.3052 64.6329 68.3322 64.7276C68.3593 64.8223 68.3645 64.9219 68.3475 65.019C68.3141 65.2079 68.2362 65.386 68.1199 65.5384C68.0035 65.6907 67.8522 65.8128 67.6789 65.8945C67.5056 65.9762 67.3153 66.015 67.1239 66.0077C66.9325 66.0004 66.7457 65.9472 66.5792 65.8525L65.8769 66.6339C66.103 66.7862 66.3478 66.9088 66.6052 66.9986C66.9469 67.0733 67.3024 67.0521 67.6328 66.9372C67.9633 66.8223 68.2557 66.6182 68.4776 66.3474C68.7776 66.1099 69.0083 65.796 69.1456 65.4385C69.2829 65.0811 69.3214 64.6933 69.2577 64.3157C69.2127 64.1066 69.1192 63.9111 68.9843 63.7453C68.8495 63.5795 68.6774 63.4481 68.4821 63.3617C68.2867 63.2753 68.0737 63.2364 67.8605 63.2483C67.6473 63.2602 67.4399 63.3226 67.2554 63.4302C66.7612 63.6646 66.319 64.0031 65.8248 64.2896C65.3307 64.5761 65.3827 64.5501 65.1747 64.2896C65.0851 64.1893 65.0356 64.0596 65.0356 63.9251C65.0356 63.7905 65.0851 63.6607 65.1747 63.5604C65.4867 63.0134 65.877 62.8832 66.5792 63.0655L67.1512 62.5445ZM59.5309 69.5772C59.4389 69.3835 59.3008 69.2155 59.1284 69.0883C58.956 68.9611 58.7546 68.8784 58.5427 68.8478C58.0626 68.8222 57.585 68.9304 57.1626 69.1603C56.7402 69.3902 56.3899 69.7328 56.1502 70.1501C56.0165 70.365 55.9454 70.6132 55.9454 70.8665C55.9454 71.1197 56.0165 71.3679 56.1502 71.5828C56.2859 71.7789 56.4779 71.9289 56.701 72.0127C56.9241 72.0965 57.1675 72.11 57.3985 72.0516C57.5455 72.0663 57.6934 72.0663 57.8404 72.0516L59.1668 71.7391C59.2811 71.7023 59.405 71.7085 59.5151 71.7564C59.6251 71.8043 59.7141 71.8907 59.7652 71.9995C59.8371 72.0977 59.8757 72.2163 59.8757 72.3381C59.8757 72.4599 59.8371 72.5785 59.7652 72.6767C59.6532 72.8178 59.5108 72.9318 59.3487 73.0101C59.1866 73.0884 59.0087 73.129 58.8287 73.129C58.6487 73.129 58.4711 73.0884 58.309 73.0101C58.1469 72.9318 58.0045 72.8178 57.8925 72.6767L57.0343 73.1977C57.177 73.4632 57.3922 73.6825 57.6547 73.8301C57.9172 73.9777 58.216 74.0474 58.5166 74.0312C58.956 74.0085 59.3839 73.8808 59.764 73.6587C60.144 73.4367 60.4655 73.1267 60.7015 72.7548C60.8547 72.5328 60.9367 72.2694 60.9367 71.9995C60.9367 71.7296 60.8547 71.4662 60.7015 71.2442C60.5792 71.0063 60.3852 70.813 60.1472 70.6914C59.9091 70.5699 59.6391 70.5263 59.3751 70.567H58.803C58.3869 70.567 57.9965 70.8014 57.5804 70.8795C57.1643 70.9576 57.1383 70.8795 57.0083 70.6972C56.9491 70.5865 56.9297 70.4588 56.9534 70.3355C56.9771 70.2122 57.0425 70.1007 57.1385 70.0199C57.2336 69.914 57.3498 69.8293 57.4798 69.7713C57.6097 69.7133 57.7502 69.6834 57.8925 69.6834C58.0347 69.6834 58.1756 69.7133 58.3055 69.7713C58.4354 69.8293 58.5517 69.914 58.6468 70.0199L59.5309 69.5772ZM10.377 61.7632L13.8622 57.726V57.4654C13.4461 56.7361 13.4461 56.7361 12.6139 56.8403H12.2497L8.16641 57.3874L8.71278 58.3771H8.97279C9.25887 58.3771 9.62286 58.1688 9.83092 58.3771C10.039 58.5855 10.1692 58.8459 10.2992 59.1064C10.4292 59.3668 10.7154 59.6794 10.6894 59.9138C10.6634 60.1482 10.325 60.4088 10.143 60.6432C10.143 60.6432 10.143 60.8255 10.143 60.9036C10.143 60.9817 10.1171 61.4767 10.2732 61.7892L10.377 61.7632ZM18.6735 70.9056L18.8294 70.567C19.3235 69.2646 19.8439 67.9623 20.338 66.7121C20.6241 65.9567 20.6241 65.9567 20.0259 65.4098C19.8439 65.2274 19.7136 65.2535 19.5056 65.4098L15.3705 67.5455L15.0584 67.7278L15.7607 68.327C15.8059 68.3463 15.8544 68.3562 15.9035 68.3562C15.9527 68.3562 16.0015 68.3463 16.0467 68.327C16.3328 68.327 16.6188 68.0144 16.9048 67.8582C17.347 68.2489 17.7634 68.6135 18.1535 69.0042C18.5436 69.3949 18.1535 69.2126 18.1535 69.3168C18.1535 69.4209 17.9194 69.8897 17.7893 70.2023L18.6735 70.9056ZM59.4011 67.9623L59.7392 68.0925L62.3399 69.0562C62.5398 69.1347 62.7179 69.2597 62.86 69.4209C63.2241 69.8116 63.5362 70.2283 63.9003 70.645L64.7324 69.9679C64.4571 69.5963 64.162 69.2397 63.8483 68.8999C63.5905 68.6445 63.4413 68.2992 63.432 67.9362V67.3633C63.432 66.5819 63.1979 65.7743 63.0679 64.9408L62.5739 65.3316C62.4046 65.4111 62.2725 65.5528 62.2047 65.7274C62.1369 65.902 62.1386 66.096 62.2098 66.2692C62.3257 66.8286 62.4125 67.3938 62.4698 67.9623L60.5713 67.285C60.4621 67.2452 60.3424 67.2452 60.2332 67.285C59.9001 67.4901 59.5868 67.7256 59.297 67.9884L59.4011 67.9623ZM52.6132 71.5828L48.7121 72.8069L48.9982 73.6665L50.4284 73.2238L51.651 77.1047L52.665 76.7921L51.4687 72.9112L52.8732 72.4422L52.6132 71.5828ZM68.2176 60.1744L71.6244 62.3622L72.1965 61.4506L68.7897 59.2367L69.5958 57.9864L68.8418 57.4915L66.6309 60.9297L67.3852 61.4246L68.2176 60.1744Z" fill="#0A55A1"/>
<path d="M43.1203 0.917969C43.1203 0.917969 43.3023 1.04817 43.4064 1.04817C45.1489 1.25654 46.8654 1.41282 48.6078 1.69934C51.5977 2.21301 54.5144 3.0876 57.2942 4.304C63.6373 7.05304 69.1875 11.3571 73.4326 16.8196C77.6778 22.282 80.4812 28.7268 81.585 35.56C81.585 36.0549 81.5852 36.5759 81.7933 37.0968H70.1938C69.9337 37.0968 69.8299 37.0968 69.7518 36.7582C69.0987 33.1409 67.7565 29.6832 65.7987 26.5738C63.0607 22.1682 59.2006 18.5721 54.6154 16.1552C52.051 14.7825 49.2864 13.8244 46.4233 13.3162C43.8519 12.836 41.2276 12.7045 38.6211 12.9254C33.4101 13.3402 28.4068 15.153 24.1371 18.1734C19.8673 21.1938 16.4885 25.3103 14.356 30.0902C13.386 32.2257 12.6872 34.4745 12.2756 36.7841C12.2756 36.9925 12.2757 37.0707 11.9636 37.0707H0.260254C0.621413 34.0976 1.30129 31.1721 2.28859 28.345C5.8591 18.3298 13.142 10.0754 22.6265 5.29379C25.7964 3.70042 29.1633 2.53547 32.6393 1.82954C34.6206 1.42521 36.6285 1.1641 38.6471 1.04817H38.9072L43.1203 0.917969ZM64.9666 13.9413L61.5074 17.5877L63.484 19.3589C63.6531 19.4871 63.8484 19.5762 64.0561 19.6194C64.5439 19.7336 65.0551 19.6948 65.5203 19.5085C65.9854 19.3221 66.3821 18.9971 66.6568 18.5775C66.8752 18.3774 67.0496 18.1341 67.1689 17.8628C67.2882 17.5915 67.3498 17.2982 67.3498 17.0017C67.3498 16.7053 67.2882 16.412 67.1689 16.1407C67.0496 15.8694 66.8752 15.6261 66.6568 15.426L64.9666 13.9413ZM27.3077 7.87238L28.9201 12.6129L29.9344 12.2482L29.3103 10.399L30.5586 10.0082C30.684 9.96682 30.8201 9.97013 30.9434 10.0176C31.0666 10.0651 31.1694 10.1537 31.2348 10.2686C31.3555 10.4365 31.4518 10.6207 31.5208 10.8157L31.937 11.571L32.8993 11.2323L32.4574 10.3208C32.2493 9.82588 32.0151 9.33093 31.365 9.27884C31.5801 9.04626 31.7123 8.74889 31.7405 8.43309C31.7688 8.11728 31.6913 7.80093 31.5208 7.53376C31.3745 7.29806 31.1569 7.1154 30.8995 7.01232C30.6422 6.90924 30.3589 6.8912 30.0906 6.96081C29.1544 7.22127 28.2439 7.55982 27.3077 7.87238ZM24.551 11.4147L22.4703 12.665L21.9243 11.7272L24.1609 10.3729L23.6929 9.59139L20.5198 11.519L23.1205 15.7905L26.3454 13.8111L25.8774 13.0296L23.5888 14.4362L22.9386 13.3943L24.9933 12.118L24.551 11.4147ZM55.9939 14.0193L59.2448 15.9728L59.713 15.1915L57.3983 13.785L58.0485 12.7431L60.1032 13.9933L60.5451 13.2641L58.4905 12.0139L59.0368 11.1021L61.2995 12.4566L61.7674 11.6752L58.5686 9.74782L55.9939 14.0193ZM18.6994 16.9626C18.8785 17.1632 18.9775 17.4229 18.9775 17.692C18.9775 17.9611 18.8785 18.2207 18.6994 18.4212C18.496 18.6399 18.2195 18.7765 17.9225 18.8053C17.6255 18.8341 17.3284 18.7531 17.0869 18.5775C16.7579 18.3478 16.4678 18.0664 16.2285 17.744C16.0378 17.5183 15.9332 17.2322 15.9332 16.9366C15.9332 16.6409 16.0378 16.3548 16.2285 16.1291C16.4085 15.899 16.6649 15.741 16.9511 15.6837C17.2373 15.6263 17.5347 15.6735 17.7892 15.8166L18.4914 15.1134C18.2217 14.8757 17.8884 14.7219 17.5327 14.671C17.177 14.6201 16.8143 14.6742 16.4888 14.8268C16.093 14.9759 15.7442 15.2286 15.4789 15.5584C15.2137 15.8882 15.0414 16.2832 14.9802 16.7022C14.931 17.27 15.0536 17.8393 15.332 18.3363C15.6103 18.8334 16.0315 19.2352 16.5409 19.4892C17.0299 19.7586 17.5981 19.8462 18.1454 19.7366C18.6927 19.627 19.1835 19.3271 19.5315 18.8901C19.8627 18.5066 20.0452 18.0167 20.0452 17.5097C20.0452 17.0027 19.8627 16.5125 19.5315 16.1291L18.6994 16.9626ZM50.6105 6.54397L47.1773 5.81475L46.163 10.7115L47.2294 10.9198L47.6456 8.91431L49.7003 9.33098L49.8562 8.52354L47.8275 8.08079L48.0618 6.96081L50.4282 7.42963L50.6105 6.54397ZM37.8408 10.5031L37.3725 6.46592L38.8551 6.28357L38.7249 5.37184L34.6679 5.86673V6.77846L36.1502 6.59612L36.6445 10.6333L37.8408 10.5031ZM42.2359 5.29379L42.0019 10.2686H43.0943L43.3283 5.26771L42.2359 5.29379ZM53.9912 7.61197L52.1969 12.2482L53.2112 12.639L55.0056 8.00258L53.9912 7.61197Z" fill="#0855A1"/>
<path d="M14.5123 33.997V31.3923H67.8534V33.997H14.5123Z" fill="#08549F"/>
<path d="M38.3349 40.6914V48.0887H35.7342V35.8728H38.3349C38.4615 35.9282 38.5701 36.0185 38.6473 36.1332L43.2243 42.7231L43.4846 43.0617V35.8989H46.0854V48.1148H44.3948C44.3948 48.1148 44.1868 48.1147 44.1348 47.8803L38.9333 41.1603L38.3349 40.6914Z" fill="#A6A8AA"/>
<path d="M14.5123 52.6468V51.3445H67.8795V52.6468H14.5123Z" fill="#A7A9AB"/>
<path d="M56.9299 43.9211H50.2722C50.2041 44.2191 50.2006 44.5283 50.2621 44.8277C50.3235 45.1272 50.4484 45.4099 50.6284 45.6568C50.8084 45.9037 51.0392 46.1091 51.3053 46.259C51.5713 46.4089 51.8665 46.4999 52.1707 46.5258C53.0167 46.6721 53.8853 46.6136 54.7041 46.3553C55.523 46.0971 56.2683 45.6465 56.8779 45.0411C56.8779 45.6922 56.8779 46.3173 56.8779 46.9424C56.8779 47.0727 56.6701 47.2029 56.514 47.3071C55.8177 47.7571 55.0241 48.0339 54.1994 48.1146C52.7946 48.3318 51.3584 48.2067 50.0122 47.7499C49.3031 47.5057 48.6798 47.0608 48.2182 46.469C47.7565 45.8772 47.4764 45.1641 47.4115 44.416C47.2753 43.3529 47.4817 42.2739 48.001 41.3368C48.5204 40.3996 49.3254 39.6533 50.2983 39.2067C51.2136 38.809 52.2278 38.6981 53.2073 38.8887C54.1867 39.0793 55.0857 39.5624 55.7858 40.2745C56.558 41.3305 56.9602 42.6125 56.9299 43.9211ZM50.4281 42.228H54.2254C54.1988 41.742 53.9868 41.2847 53.6336 40.9503C53.2804 40.616 52.8126 40.43 52.3266 40.4308C51.846 40.4478 51.3881 40.6397 51.0386 40.9705C50.6891 41.3013 50.4721 41.7484 50.4281 42.228Z" fill="#A6A8AA"/>
<path d="M58.3346 40.8211H57.0863C57.0207 40.6495 57.0053 40.4626 57.0422 40.2826C57.0791 40.1026 57.1665 39.9371 57.2943 39.8052L60.7792 35.9504C60.8795 35.8625 60.9938 35.7921 61.1173 35.7419C61.1407 35.8711 61.1407 36.0034 61.1173 36.1325V38.7372H64.5504V40.7429H61.1693C61.1575 40.8467 61.1575 40.9516 61.1693 41.0554V45.2749C61.1693 45.7698 61.1693 45.9001 61.7414 45.9261C62.4518 45.9652 63.1639 45.9652 63.8742 45.9261C64.1108 45.8596 64.338 45.7633 64.5504 45.6396C64.5504 46.3168 64.5504 46.9941 64.5504 47.6453C64.5626 47.6741 64.5688 47.7051 64.5688 47.7364C64.5688 47.7677 64.5626 47.7988 64.5504 47.8276C63.4231 48.2171 62.2178 48.3244 61.0395 48.1402C60.4436 47.9753 59.8959 47.669 59.4432 47.2474C58.9905 46.8257 58.6462 46.3011 58.4388 45.7179C58.4119 45.5978 58.4119 45.4732 58.4388 45.3532V40.8211H58.3346Z" fill="#A6A8AA"/>
<path d="M19.9217 48.0887H16.8009V35.8989H19.9217V48.0887Z" fill="#A6A8AB"/>
<path d="M0.182266 40.3787V38.7378H12.1977V40.3787H0.182266Z" fill="#A7A9AB"/>
<path d="M81.8971 38.7378V40.3787H70.116V38.7378H81.8971Z" fill="#A7A9AB"/>
<path d="M22.4705 42.5924L21.6904 43.1654C21.7338 42.9439 21.7946 42.7261 21.8723 42.5142C21.8723 42.2798 21.8725 42.1756 21.7165 42.0454L21.2222 41.6807C21.5082 41.6807 21.8725 41.6807 22.0546 41.6807C22.2366 41.6807 22.2626 41.1599 22.3927 40.8213C22.4817 41.0315 22.5512 41.2495 22.6006 41.4725C22.6006 41.7069 22.7827 41.7589 22.9908 41.7589H23.693L23.1467 42.1756C22.9386 42.3058 22.8868 42.4361 22.9908 42.6444C23.0748 42.8654 23.1442 43.0916 23.1987 43.3217L22.4705 42.5924Z" fill="#0B529B"/>
<path d="M24.4731 47.9322C24.5039 47.7128 24.5474 47.4954 24.6033 47.281C24.6298 47.2414 24.6467 47.1962 24.6531 47.1489C24.6595 47.1016 24.6548 47.0535 24.6398 47.0082C24.6247 46.963 24.5995 46.9219 24.5661 46.8879C24.5327 46.8539 24.492 46.828 24.4471 46.8122C24.2695 46.7094 24.1184 46.5666 24.0051 46.3954H24.5512C24.601 46.4067 24.6526 46.4074 24.7026 46.3974C24.7527 46.3875 24.8 46.3671 24.8417 46.3376C24.8834 46.3082 24.9184 46.2703 24.9446 46.2264C24.9707 46.1825 24.9874 46.1336 24.9934 46.0828C24.9934 45.8744 24.9933 45.6921 25.2014 45.4316C25.2014 45.6921 25.3833 45.8744 25.4354 46.0828C25.4874 46.2912 25.5915 46.4214 25.8255 46.3954H26.4237C26.2156 46.5777 25.8775 46.734 25.7995 46.9685C25.7215 47.2029 25.9295 47.5155 26.0335 47.828H25.8776C25.1754 47.3592 25.1753 47.3592 24.4731 47.828V47.9322Z" fill="#09539E"/>
<path d="M33.6798 45.796L32.9255 45.3532L32.1712 45.8742C32.4833 45.2491 32.4313 44.7541 31.6251 44.5197H32.2753C32.4574 44.5197 32.5614 44.5197 32.5874 44.3113L32.8214 43.6082C32.9514 43.9468 32.9774 44.3113 33.1855 44.4676C33.3936 44.6239 33.7576 44.4676 34.1217 44.4676C33.9476 44.6166 33.7654 44.7559 33.5757 44.8844C33.5336 44.9038 33.4961 44.9315 33.4652 44.966C33.4343 45.0005 33.4109 45.0409 33.3963 45.0849C33.3817 45.1288 33.3761 45.1753 33.3801 45.2214C33.3841 45.2676 33.3978 45.3125 33.4198 45.3532C33.4871 45.5308 33.5392 45.7137 33.5757 45.9001L33.6798 45.796Z" fill="#0B529B"/>
<path d="M32.8472 43.0612C32.8472 42.7747 33.0815 42.4621 33.0034 42.2016C32.9254 41.9412 32.5873 41.863 32.3532 41.6807C32.4902 41.7278 32.6366 41.7405 32.7796 41.7177C32.9227 41.6949 33.058 41.6373 33.1736 41.5498C33.2892 41.4624 33.3815 41.3477 33.4425 41.2161C33.5035 41.0845 33.5313 40.94 33.5235 40.7952C33.5235 41.0035 33.6797 41.1858 33.7317 41.3681C33.7342 41.4178 33.7475 41.4663 33.7708 41.5102C33.7941 41.5542 33.8266 41.5923 33.8663 41.6222C33.906 41.652 33.952 41.6728 34.0006 41.6829C34.0492 41.693 34.0993 41.6922 34.1476 41.6807C34.3439 41.631 34.5497 41.631 34.746 41.6807L34.2517 42.0193C34.209 42.0378 34.1709 42.0657 34.1403 42.1008C34.1097 42.136 34.0874 42.1776 34.0749 42.2226C34.0624 42.2676 34.0601 42.3148 34.0682 42.3608C34.0764 42.4067 34.0945 42.4502 34.1216 42.4881C34.2023 42.7014 34.2719 42.9187 34.3298 43.1393L33.5495 42.5924L32.7695 43.0351L32.8472 43.0612Z" fill="#0B529B"/>
<path d="M28.7903 37.4874L28.0881 37.0185L27.3598 37.5656C27.3598 37.5656 27.3598 37.3832 27.3598 37.3572C27.5418 36.6539 27.5418 36.6539 26.9696 36.2111L26.7877 36.0288H27.516C27.698 36.0288 27.8021 36.0288 27.8541 35.7944C27.9165 35.5636 27.9946 35.3373 28.0881 35.1172C28.173 35.32 28.2425 35.529 28.296 35.7423C28.296 35.9767 28.4521 36.0548 28.6862 36.0288H29.3103C29.1757 36.0635 29.052 36.1314 28.9503 36.2264C28.8486 36.3213 28.7721 36.4403 28.7281 36.5725C28.6841 36.7046 28.6741 36.8455 28.6986 36.9826C28.723 37.1197 28.7815 37.2485 28.8684 37.3572L28.7903 37.4874Z" fill="#0A529C"/>
<path d="M22.3145 45.9006C22.3145 45.6401 22.3143 45.4318 22.5224 45.2494C22.5489 45.2077 22.5661 45.1608 22.5726 45.1118C22.579 45.0627 22.5744 45.0128 22.5595 44.9657C22.5447 44.9185 22.5199 44.8751 22.4865 44.8386C22.4531 44.8022 22.4122 44.7734 22.3665 44.7545C22.1828 44.6603 22.0294 44.5158 21.9243 44.3379H22.5224C22.7565 44.3379 22.8606 44.3379 22.9126 44.0514C22.9664 43.8471 23.0543 43.6532 23.1726 43.4783C23.1726 43.6606 23.3028 43.843 23.3548 44.0514C23.4068 44.2598 23.5106 44.3379 23.7447 44.3379C23.9498 44.2881 24.1637 44.2881 24.3688 44.3379C24.2192 44.4593 24.0631 44.5724 23.9009 44.6765C23.8517 44.6909 23.807 44.7172 23.7704 44.7531C23.7338 44.789 23.7064 44.8333 23.691 44.8822C23.6756 44.9311 23.6725 44.9831 23.6818 45.0335C23.6912 45.084 23.7127 45.1313 23.7447 45.1714C23.819 45.3844 23.88 45.6019 23.9269 45.8225L23.3548 45.4057C23.1988 45.4057 23.0686 45.2494 22.9126 45.4057L22.3145 45.9006Z" fill="#0A529C"/>
<path d="M30.1168 47.8276C30.4029 47.2285 30.3247 46.7597 29.5705 46.5252H30.1689C30.377 46.5252 30.5068 46.5251 30.5588 46.2386C30.6108 45.9521 30.559 45.822 30.767 45.5615C30.8671 45.7583 30.9371 45.969 30.975 46.1866C30.9811 46.2407 30.9983 46.2928 31.0258 46.3399C31.0532 46.3869 31.0903 46.4277 31.1343 46.4596C31.1784 46.4915 31.2285 46.5138 31.2817 46.5251C31.3348 46.5364 31.39 46.5365 31.4432 46.5252C31.6219 46.4752 31.8107 46.4752 31.9893 46.5252C31.8463 46.6552 31.6891 46.7687 31.521 46.8639C31.479 46.8832 31.4414 46.9109 31.4105 46.9454C31.3797 46.9799 31.3563 47.0204 31.3417 47.0643C31.327 47.1083 31.3217 47.1547 31.3258 47.2009C31.3298 47.247 31.3431 47.2919 31.3651 47.3327C31.3651 47.515 31.365 47.7234 31.5731 47.9578C31.339 47.8015 31.1049 47.5409 30.8708 47.5409C30.6368 47.5409 30.403 47.8276 30.1689 47.9838L30.1168 47.8276Z" fill="#09539D"/>
<path d="M22.3926 40.248C22.6787 39.4926 22.6787 39.4927 22.0545 38.9978C22.7307 38.9978 23.1727 38.9977 23.2507 38.1382V38.3205C23.4848 38.9717 23.4848 38.9717 24.187 38.9978H24.473C24.2919 39.1495 24.1009 39.2887 23.9009 39.4144C23.8589 39.4338 23.8213 39.4617 23.7904 39.4962C23.7596 39.5307 23.7362 39.5711 23.7215 39.6151C23.7069 39.659 23.7013 39.7055 23.7054 39.7516C23.7094 39.7978 23.7227 39.8425 23.7447 39.8833C23.7447 40.0656 23.875 40.274 23.979 40.5605L23.5628 40.248L23.1987 40.0136L22.3666 40.4303L22.3926 40.248Z" fill="#09529C"/>
<path d="M31.7552 50.1987C32.0673 49.4173 32.0673 49.4173 31.4431 48.9225V48.7923C31.7292 48.7923 32.0932 48.7923 32.3013 48.7923C32.5093 48.7923 32.5093 48.2713 32.6133 47.9587V48.1931C32.8474 48.8442 32.8474 48.8442 33.5496 48.8442H33.8356C33.6543 49.0037 33.4633 49.1517 33.2635 49.2871C33.2215 49.3065 33.1839 49.3342 33.153 49.3687C33.1222 49.4032 33.0988 49.4437 33.0842 49.4876C33.0695 49.5316 33.0639 49.578 33.068 49.6242C33.072 49.6703 33.0856 49.7152 33.1076 49.756C33.1076 49.9383 33.1076 50.1467 33.3416 50.4071L32.5613 49.8601L31.7292 50.3028L31.7552 50.1987Z" fill="#09529C"/>
<path d="M33.6017 40.2742L32.8735 39.8054L32.1455 40.2742C32.4316 39.6491 32.3793 39.1542 31.5991 38.8937C31.7723 38.8807 31.9463 38.8807 32.1195 38.8937C32.4576 38.8937 32.5875 38.8938 32.6655 38.477C32.7006 38.2987 32.7527 38.1242 32.8214 37.9561C32.9137 38.1677 32.9922 38.3852 33.0557 38.6072C33.0557 38.8416 33.2118 38.9197 33.4459 38.8937C33.6537 38.8806 33.8622 38.8806 34.07 38.8937C33.9349 38.9323 33.8112 39.0034 33.71 39.101C33.6088 39.1986 33.533 39.3196 33.4894 39.4533C33.4457 39.587 33.4354 39.7295 33.4595 39.8681C33.4836 40.0067 33.5415 40.1371 33.6278 40.2482L33.6017 40.2742Z" fill="#09529C"/>
<path d="M25.1752 35.7161C25.3312 36.3672 25.5653 36.8621 26.4235 36.5235C26.2699 36.6595 26.1047 36.7815 25.9295 36.8882C25.7475 36.8882 25.6693 37.1226 25.7733 37.3309C25.8675 37.5508 25.9456 37.7771 26.0073 38.0082L25.2012 37.4351L24.3948 38.0082C24.3948 37.8519 24.3948 37.7216 24.3948 37.6174C24.5769 37.0704 24.5769 37.0705 24.0828 36.7058L23.7967 36.4714H24.499C24.707 36.4714 24.8111 36.4714 24.8371 36.211L25.1752 35.7161Z" fill="#09539E"/>
<path d="M28.7642 49.0001C28.6905 48.876 28.5858 48.7733 28.4604 48.7019C28.335 48.6305 28.1932 48.5928 28.049 48.5928C27.9048 48.5928 27.7629 48.6305 27.6375 48.7019C27.5122 48.7733 27.4075 48.876 27.3337 49.0001C27.3337 49.0001 27.3337 49.0001 27.3337 48.8699C27.6458 48.2969 27.5939 47.802 26.8137 47.5676H27.3858C27.6198 47.5676 27.75 47.5676 27.802 47.3072C27.8514 47.0842 27.9209 46.8663 28.0099 46.656C28.0099 46.9686 28.166 47.3332 28.348 47.4895C28.5301 47.6458 28.9204 47.4895 29.2065 47.4895C28.6863 47.75 28.4001 48.1146 28.7642 48.7136C28.7642 48.7136 28.7642 48.8439 28.7642 48.896V49.0001Z" fill="#09539D"/>
<path d="M30.0386 38.113C30.4548 37.4618 30.3507 36.967 29.6485 36.7065C30.2987 36.7065 30.7669 36.7066 30.7669 35.7949C30.7669 35.9772 30.8968 36.1595 30.9488 36.3679C30.9512 36.4142 30.964 36.4595 30.986 36.5003C31.008 36.5411 31.0388 36.5765 31.0761 36.604C31.1135 36.6314 31.1564 36.6501 31.2019 36.6588C31.2473 36.6675 31.2942 36.666 31.339 36.6543H32.0152C31.8342 36.8061 31.6431 36.9454 31.4431 37.0712C31.2611 37.0712 31.2351 37.3056 31.4431 37.5139C31.5238 37.7272 31.5932 37.9445 31.6511 38.1651C31.5004 38.0883 31.3604 37.992 31.2349 37.8786C30.9748 37.5921 30.7149 37.6182 30.4548 37.8786L30.1167 38.113H30.0386Z" fill="#09539D"/>
<path d="M29.8825 45.5615C29.7032 45.3997 29.512 45.2516 29.3104 45.1186C29.2652 45.0993 29.2167 45.0894 29.1676 45.0894C29.1184 45.0894 29.0696 45.0993 29.0244 45.1186L28.3482 45.5875L28.6602 44.6498L27.9062 44.0769C28.2443 44.0769 28.6344 44.0769 28.8164 44.0769C28.9985 44.0769 29.0505 43.5559 29.1806 43.2173L29.3625 43.7902C29.3625 44.1028 29.5704 44.207 29.8825 44.1549H30.4809L29.8825 44.5718C29.8294 44.6333 29.8003 44.7118 29.8003 44.7931C29.8003 44.8744 29.8294 44.953 29.8825 45.0145C29.8948 45.2314 29.8948 45.4488 29.8825 45.6657V45.5615Z" fill="#09539E"/>
<path d="M24.4471 47.9311L24.4723 47.9058V47.9311H24.4471Z" fill="#09539E"/>
<path d="M9.02479 50.7449L5.87769 51.7606L5.56561 50.771L10.3252 49.2603C10.3252 49.703 10.611 50.1458 10.7411 50.5626C10.8711 50.9793 10.7412 50.797 10.5852 50.8751L8.21841 52.6202L7.88031 52.9067H11.2093C11.2523 52.8993 11.2962 52.901 11.3385 52.9118C11.3808 52.9225 11.4204 52.942 11.4547 52.969C11.489 52.996 11.5175 53.0299 11.5379 53.0685C11.5583 53.1071 11.5705 53.1497 11.5735 53.1933C11.5735 53.584 11.8336 53.9486 11.9636 54.3914L7.23012 55.9282L6.91805 54.9645L10.0648 53.9225H9.70101H6.7882C6.37208 53.9225 6.47602 53.61 6.37199 53.4016C6.33932 53.3747 6.31292 53.341 6.29485 53.3027C6.27678 53.2644 6.26754 53.2226 6.26754 53.1803C6.26754 53.1379 6.27678 53.0962 6.29485 53.0579C6.31292 53.0196 6.33932 52.9857 6.37199 52.9588L8.68669 51.2138L8.9467 50.9793L9.02479 50.7449Z" fill="#FBFCFE"/>
<path d="M74.9014 50.2762L71.8845 48.4268L72.2486 46.9421L77.0859 48.0882L76.878 49.078L73.601 48.2966L76.5659 50.198C76.4099 50.9533 76.4099 50.9533 75.6037 51.0315L72.8207 51.344L76.0976 52.1515L75.8637 53.1413L71.0263 51.9691C71.0263 51.5003 71.2344 51.0574 71.3644 50.6146C71.4945 50.1719 71.5725 50.4584 71.6765 50.4584L74.9014 50.1458V50.2762Z" fill="#FCFCFE"/>
<path d="M36.2545 78.4327L35.2402 78.1982L35.9424 74.9163L35.3964 75.8281C35.0323 76.4271 34.6681 77.0261 34.33 77.6512C34.3072 77.7102 34.2728 77.7641 34.2287 77.8094C34.1846 77.8547 34.1318 77.8906 34.0735 77.9149C34.0152 77.9393 33.9525 77.9516 33.8893 77.951C33.8262 77.9505 33.7637 77.9371 33.7058 77.9118H33.2896L32.8214 74.4475L32.1455 77.6773L31.1572 77.469L32.1712 72.5981L33.5496 72.8848C33.5496 72.8848 33.5498 73.0931 33.7058 73.1973C33.8359 74.1871 33.9399 75.2028 34.07 76.2187C34.0583 76.3138 34.0583 76.41 34.07 76.5051L35.5002 73.9005C35.8383 73.3014 35.8383 73.3014 36.4885 73.4317L37.3469 73.614L36.2545 78.4327Z" fill="#FCFCFE"/>
<path d="M46.6573 73.1973L47.6717 73.041L48.3739 77.9898H47.4374C47.3157 77.9662 47.2057 77.9019 47.1253 77.8074L45.097 75.359C45.0041 75.2596 44.8993 75.1722 44.7849 75.0986L45.2268 78.3023L44.2125 78.4586L43.5106 73.5098H44.4468C44.5799 73.5387 44.6992 73.6123 44.7849 73.7183L46.8393 76.1666L47.1253 76.5051L46.6573 73.1973Z" fill="#FCFCFE"/>
<path d="M14.3822 61.9709L12.1977 63.6899L11.8595 63.9505L11.2094 63.1689L15.1105 60.0435C15.3185 60.3039 15.5265 60.5383 15.7086 60.7988C15.7483 60.9081 15.7483 61.028 15.7086 61.1374C15.3445 62.1532 14.9803 63.169 14.6422 64.1848C14.6422 64.1848 14.6424 64.4192 14.4863 64.6275L17.0871 62.5699L17.7112 63.3513L13.8101 66.4508C13.602 66.1904 13.394 65.956 13.212 65.6955C13.1861 65.6382 13.1726 65.5761 13.1726 65.5132C13.1726 65.4503 13.1861 65.3881 13.212 65.3308L14.3041 62.2834C14.3169 62.1796 14.3169 62.0747 14.3041 61.9709H14.3822Z" fill="#FCFCFE"/>
<path d="M25.0971 71.9994L23.6668 74.2915L23.0944 73.9268L23.2506 73.4319C22.9224 73.4712 22.5906 73.4712 22.2623 73.4319C21.8397 73.3157 21.4598 73.0791 21.169 72.7509C20.8781 72.4226 20.6888 72.0168 20.6239 71.5827C20.5685 70.8886 20.7563 70.1969 21.155 69.6265C21.5537 69.0561 22.1383 68.6426 22.8084 68.4571C23.1298 68.3977 23.4601 68.4064 23.778 68.4827C24.0958 68.5589 24.3942 68.7011 24.6539 68.8998C24.9136 69.0986 25.129 69.3496 25.2859 69.6367C25.4429 69.9238 25.5381 70.2407 25.5653 70.5668C25.5851 70.8617 25.5851 71.1575 25.5653 71.4523L24.7329 70.9315C24.7329 70.9315 24.7329 70.7752 24.7329 70.697C24.967 69.8375 23.9007 69.1343 23.1205 69.4729C22.7322 69.6676 22.4081 69.9699 22.1868 70.344C21.9654 70.7181 21.8562 71.1481 21.8722 71.5827C21.9102 71.8439 22.0283 72.0868 22.21 72.2781C22.3916 72.4693 22.6279 72.5994 22.8865 72.6505C23.0983 72.7127 23.3251 72.7001 23.5287 72.6148C23.7323 72.5294 23.9005 72.3765 24.0049 72.1817L23.0944 71.6088L23.5367 70.9055L25.0971 71.9994Z" fill="#FCFCFE"/>
<path d="M38.6211 73.6658H42.314V74.5773H39.7132V75.6453H42.08V76.5048H39.6612V77.729H42.2619V78.6928H38.491L38.6211 73.6658Z" fill="#FBFBFE"/>
<path d="M74.3812 54.8868L75.2133 55.2515L73.679 58.7157L69.1277 56.658L70.662 53.2458L71.4941 53.6366L70.402 56.0329L71.3903 56.4756L72.3786 54.2617L73.1586 54.6264L72.1703 56.8142L73.2888 57.3352L74.3812 54.8868Z" fill="#FCFCFE"/>
<path d="M27.4638 70.5928L30.8967 72.0253L30.5586 72.8588L28.114 71.869L27.7238 72.8588L29.9344 73.7965L29.6223 74.5778L27.3857 73.6402L26.9178 74.7862L29.5185 75.8282L29.1544 76.6615L25.6692 75.229L27.4638 70.5928Z" fill="#FCFCFE"/>
<path d="M67.099 62.5966L66.4748 63.2999C65.7726 63.1176 65.3824 63.2999 65.0703 63.7948C64.9808 63.8951 64.9313 64.0248 64.9313 64.1593C64.9313 64.2939 64.9808 64.4237 65.0703 64.524C65.2784 64.7584 65.5125 64.6543 65.7205 64.524C65.9286 64.3938 66.6569 63.8989 67.151 63.6644C67.3356 63.5568 67.5429 63.4946 67.7561 63.4827C67.9694 63.4708 68.1824 63.5095 68.3778 63.5959C68.5731 63.6823 68.7451 63.8139 68.88 63.9797C69.0149 64.1455 69.1087 64.341 69.1537 64.5501C69.2174 64.9277 69.1785 65.3155 69.0413 65.6729C68.904 66.0304 68.6733 66.3442 68.3733 66.5817C68.1514 66.8524 67.8589 67.0566 67.5285 67.1715C67.1981 67.2864 66.8426 67.3076 66.5009 67.2328C66.2435 67.1431 65.9987 67.0207 65.7726 66.8683L66.4748 66.0868C66.6414 66.1814 66.8282 66.2348 67.0196 66.2421C67.211 66.2494 67.4013 66.2106 67.5746 66.1289C67.7478 66.0472 67.8992 65.925 68.0155 65.7726C68.1319 65.6203 68.2098 65.4423 68.2432 65.2534C68.2602 65.1564 68.2553 65.0566 68.2282 64.9618C68.2012 64.8671 68.1529 64.7798 68.0873 64.7064C68.0017 64.6667 67.9086 64.6461 67.8142 64.6461C67.7199 64.6461 67.6268 64.6667 67.5412 64.7064C67.2975 64.8018 67.0695 64.9336 66.865 65.0971C66.5529 65.2534 66.2926 65.4617 66.0066 65.6179C65.7863 65.775 65.5229 65.8594 65.2526 65.8594C64.9822 65.8594 64.7185 65.775 64.4982 65.6179C64.2734 65.4462 64.1092 65.2071 64.0297 64.9353C63.9501 64.6635 63.9593 64.3735 64.056 64.1074C64.1698 63.7316 64.3671 63.3865 64.6329 63.0979C64.8986 62.8092 65.226 62.5844 65.5907 62.4403C65.8268 62.3051 66.0991 62.2474 66.3697 62.2755C66.6403 62.3035 66.8955 62.4158 67.099 62.5966Z" fill="#FCFCFE"/>
<path d="M59.4271 69.6287L58.5947 70.1495C58.4996 70.0436 58.3833 69.9589 58.2534 69.9009C58.1235 69.8429 57.9826 69.813 57.8404 69.813C57.6981 69.813 57.5576 69.8429 57.4277 69.9009C57.2977 69.9589 57.1815 70.0436 57.0864 70.1495C56.9904 70.2303 56.925 70.3418 56.9013 70.4651C56.8776 70.5884 56.897 70.7161 56.9562 70.8268C57.0862 71.0872 57.2942 71.0612 57.5283 71.0091C57.7624 70.957 58.3348 70.8008 58.7509 70.6966H59.323C59.587 70.656 59.857 70.6995 60.0951 70.821C60.3331 70.9426 60.5271 71.1359 60.6494 71.3738C60.8026 71.5958 60.8846 71.8592 60.8846 72.1291C60.8846 72.399 60.8026 72.6626 60.6494 72.8846C60.4134 73.2565 60.0919 73.5663 59.7119 73.7883C59.3318 74.0104 58.9042 74.1381 58.4648 74.1608C58.1642 74.1771 57.8651 74.1073 57.6026 73.9597C57.3401 73.8121 57.1249 73.5928 56.9822 73.3273L57.8404 72.8063C57.9524 72.9474 58.0948 73.0614 58.2569 73.1397C58.419 73.218 58.5969 73.2586 58.7769 73.2586C58.9569 73.2586 59.1345 73.218 59.2966 73.1397C59.4587 73.0614 59.6011 72.9474 59.7131 72.8063C59.785 72.7081 59.8236 72.5895 59.8236 72.4677C59.8236 72.346 59.785 72.2273 59.7131 72.1291C59.662 72.0203 59.573 71.934 59.463 71.886C59.3529 71.8381 59.2293 71.832 59.115 71.8687L57.7886 72.1812C57.6416 72.1959 57.4934 72.1959 57.3464 72.1812C57.1154 72.2396 56.872 72.2261 56.6489 72.1423C56.4258 72.0585 56.2338 71.9085 56.0981 71.7124C55.9644 71.4975 55.8933 71.2493 55.8933 70.9961C55.8933 70.7429 55.9644 70.4948 56.0981 70.2799C56.3378 69.8626 56.6881 69.5198 57.1105 69.29C57.5329 69.0601 58.0105 68.952 58.4906 68.9776C58.6857 69.0078 58.8715 69.0821 59.0338 69.1949C59.196 69.3077 59.3307 69.4561 59.4271 69.6287Z" fill="#FCFCFE"/>
<path d="M10.273 61.7893C10.117 61.4767 9.96084 61.2162 9.8308 60.9297C9.70077 60.6432 9.8308 60.7475 9.8308 60.6693C10.0129 60.4349 10.3508 60.2004 10.3769 59.9399C10.4029 59.6795 10.143 59.419 9.987 59.1325C9.83095 58.846 9.75279 58.5075 9.51873 58.4033C9.28466 58.2991 8.94668 58.4033 8.6606 58.4033H8.40059L7.85422 57.4135L11.9376 56.8665H12.3017C13.1339 56.8665 13.1339 56.8664 13.55 57.4915V57.7521L10.273 61.7893ZM11.1051 59.1846L12.3534 57.8041L10.507 58.1166L11.1051 59.1846Z" fill="#FCFCFE"/>
<path d="M18.5692 70.8795L17.7371 70.1502C17.7371 69.8376 17.9973 69.5512 18.1013 69.2647C18.2053 68.9781 18.1013 69.0042 18.1013 68.9521C18.1013 68.9 17.2951 68.1968 16.853 67.8061C16.5669 67.9623 16.2806 68.1446 15.9945 68.2749C15.9493 68.2942 15.9008 68.3041 15.8517 68.3041C15.8025 68.3041 15.7537 68.2942 15.7085 68.2749L15.0062 67.6759L15.3183 67.4935L19.4537 65.3577C19.6618 65.3577 19.7917 65.3577 19.9737 65.3577C20.5719 65.9046 20.5719 65.9046 20.2858 66.66C19.7917 67.9363 19.2716 69.2646 18.7775 70.5149L18.5692 70.8795ZM19.2975 66.4516L17.5549 67.3892L18.5432 68.2749L19.2975 66.4516Z" fill="#FCFCFE"/>
<path d="M59.2969 67.9883C59.5547 67.7394 59.833 67.5129 60.129 67.3111C60.2382 67.2712 60.3579 67.2712 60.4671 67.3111L62.3659 67.9883C62.3086 67.4198 62.2215 66.8546 62.1056 66.2952C62.0344 66.122 62.0327 65.928 62.1005 65.7534C62.1683 65.5788 62.3004 65.4371 62.4697 65.3576L62.964 64.9668C62.964 65.8003 63.1981 66.6077 63.3281 67.3891V67.9622C63.3374 68.3252 63.4863 68.6705 63.744 68.9259C64.0577 69.2657 64.3532 69.6221 64.6285 69.9938L63.7961 70.671C63.432 70.2543 63.1198 69.8376 62.7557 69.4469C62.6137 69.2857 62.4355 69.1607 62.2357 69.0822L59.635 68.1185L59.2969 67.9883Z" fill="#FCFCFE"/>
<path d="M52.509 71.6086L52.7691 72.4681L51.3646 72.9369L52.5611 76.818L51.5468 77.1305L50.3245 73.2494L48.894 73.6923L48.6079 72.8328L52.509 71.6086Z" fill="#FCFCFE"/>
<path d="M68.0613 60.2002L67.2292 61.4504L66.4749 60.9555L68.6854 57.5173L69.4398 58.0122L68.6334 59.2624L72.0405 61.4765L71.4684 62.388L68.0613 60.2002Z" fill="#FCFCFE"/>
<path d="M64.9666 13.9414L66.5009 15.4261C66.7193 15.6262 66.8937 15.8695 67.013 16.1408C67.1323 16.4121 67.194 16.7054 67.194 17.0019C67.194 17.2983 67.1323 17.5916 67.013 17.8629C66.8937 18.1342 66.7193 18.3775 66.5009 18.5776C66.2262 18.9973 65.8295 19.3222 65.3644 19.5086C64.8992 19.6949 64.388 19.7337 63.9002 19.6196C63.6925 19.5763 63.4972 19.4872 63.3281 19.359L61.3515 17.5878L64.9666 13.9414ZM65.1224 15.3739L62.9379 17.6661C63.5101 18.1088 63.848 18.8642 64.7323 18.6298C65.0916 18.5445 65.4183 18.3563 65.6723 18.088C65.9264 17.8197 66.0969 17.4829 66.1628 17.119C66.3449 16.1813 65.6166 15.8949 65.1224 15.3739Z" fill="#FCFCFE"/>
<path d="M27.3076 7.87287C28.2439 7.56031 29.1543 7.22177 30.0906 6.9613C30.3589 6.8917 30.6422 6.90973 30.8995 7.01281C31.1568 7.11589 31.3745 7.29855 31.5208 7.53425C31.6913 7.80142 31.7687 8.11777 31.7405 8.43358C31.7123 8.74939 31.5801 9.04676 31.3649 9.27933C32.0151 9.27933 32.2493 9.82638 32.4574 10.3213L32.8993 11.2328L31.937 11.5715L31.5208 10.8162C31.4517 10.6212 31.3555 10.437 31.2348 10.2691C31.1694 10.1542 31.0666 10.0656 30.9433 10.0181C30.8201 9.97062 30.684 9.96732 30.5586 10.0087L29.3103 10.3995L29.9344 12.2487L28.9201 12.6134L27.3076 7.87287ZM29.0763 9.6701C29.5444 9.51382 29.9866 9.35753 30.4027 9.1752C30.4741 9.1444 30.5384 9.09935 30.5919 9.04278C30.6453 8.9862 30.6867 8.91926 30.7135 8.84612C30.7403 8.77299 30.752 8.69513 30.7478 8.61736C30.7435 8.53958 30.7233 8.46359 30.6887 8.39384C30.6887 8.02918 30.3246 7.82078 30.0385 7.87287L28.608 8.31562L29.0763 9.6701Z" fill="#FCFCFE"/>
<path d="M24.5511 11.4144L24.9673 12.1177L22.9126 13.3939L23.5628 14.4359L25.8515 13.0292L26.3194 13.8108L23.0945 15.7902L20.4938 11.5186L23.6669 9.59106L24.1349 10.3726L21.8983 11.7269L22.4443 12.6647L24.5511 11.4144Z" fill="#FCFCFE"/>
<path d="M55.9939 13.8896L58.5947 9.61792L61.7935 11.5453L61.3256 12.3269L59.063 10.9724L58.5166 11.884L60.5713 13.1343L60.129 13.8635L58.0747 12.6133L57.4245 13.6553L59.7392 15.0617L59.2709 15.8431L55.9939 13.8896Z" fill="#FCFCFE"/>
<path d="M18.6993 16.8324L19.4537 16.1291C19.7849 16.5125 19.967 17.0026 19.967 17.5096C19.967 18.0166 19.7849 18.5066 19.4537 18.89C19.1057 19.327 18.6145 19.6269 18.0672 19.7365C17.52 19.8462 16.9518 19.7585 16.4627 19.4892C15.9534 19.2351 15.5321 18.8333 15.2538 18.3363C14.9755 17.8392 14.8531 17.2699 14.9024 16.7022C14.9636 16.2831 15.1355 15.8881 15.4008 15.5583C15.6661 15.2285 16.0149 14.9759 16.4107 14.8267C16.7361 14.6742 17.0988 14.62 17.4545 14.6709C17.8102 14.7218 18.1435 14.8757 18.4133 15.1134L17.711 15.8165C17.4565 15.6735 17.1591 15.6263 16.8729 15.6836C16.5867 15.7409 16.3307 15.899 16.1507 16.1291C15.96 16.3548 15.8554 16.6409 15.8554 16.9365C15.8554 17.2321 15.96 17.5182 16.1507 17.7439C16.39 18.0663 16.6797 18.3478 17.0088 18.5775C17.2503 18.753 17.5477 18.8341 17.8447 18.8053C18.1417 18.7765 18.4178 18.6399 18.6212 18.4212C18.8004 18.2206 18.8993 17.961 18.8993 17.692C18.8993 17.4229 18.8004 17.1631 18.6212 16.9626L18.6993 16.8324Z" fill="#FCFCFE"/>
<path d="M50.6106 6.43983L50.4284 7.32533L48.0619 6.85651L47.8276 7.97649L49.8563 8.4194L49.7004 9.22684L47.6457 8.81001L47.2295 10.8156L46.1631 10.6072L47.1775 5.71045L50.6106 6.43983Z" fill="#FCFCFE"/>
<path d="M37.8408 10.3988L36.7744 10.5291L36.2804 6.49185L34.7978 6.67404V5.76247L38.8551 5.26758L38.985 6.17915L37.5027 6.36149L37.8408 10.3988Z" fill="#FCFCFE"/>
<path d="M42.2358 5.26758H43.3283L43.0943 10.2685H42.0019L42.2358 5.26758Z" fill="#FBFCFE"/>
<path d="M54.0954 7.58569L55.1097 7.9763L53.3151 12.6127L52.3011 12.2219L54.0954 7.58569Z" fill="#FCFCFE"/>
<path d="M11.1052 59.2889L10.481 58.1429L12.3274 57.8303L11.1052 59.2889Z" fill="#1C5AA4"/>
<path d="M19.2976 66.5034L18.5433 68.3267L17.555 67.4411L19.2976 66.5034Z" fill="#1B59A4"/>
<path d="M65.1225 15.374C65.6167 15.895 66.3449 16.2596 66.1629 17.1191C66.097 17.4829 65.9264 17.8197 65.6724 18.0881C65.4183 18.3564 65.0916 18.5446 64.7323 18.6299C63.8481 18.8643 63.5102 18.1089 62.938 17.6661L65.1225 15.374Z" fill="#1056A2"/>
<path d="M29.0764 9.66978L28.6081 8.31531L30.0387 7.87256C30.3248 7.87256 30.5848 8.02887 30.6889 8.39352C30.7235 8.46327 30.7436 8.53927 30.7479 8.61704C30.7522 8.69482 30.7404 8.77268 30.7136 8.84581C30.6869 8.91894 30.6455 8.98589 30.592 9.04246C30.5386 9.09904 30.4743 9.14409 30.4028 9.17489C29.9867 9.35722 29.5446 9.5135 29.0764 9.66978Z" fill="#1457A3"/>
</svg>
