<svg width="83" height="84" viewBox="0 0 83 84" fill="none" xmlns="http://www.w3.org/2000/svg">
<path d="M81.637 41.9932C81.637 50.0141 79.2624 57.8551 74.8129 64.5242C70.3635 71.1934 64.0391 76.3914 56.6398 79.4608C49.2406 82.5303 41.0987 83.3335 33.2437 81.7687C25.3887 80.2039 18.1736 76.3414 12.5105 70.6698C6.8474 64.9981 2.99063 57.7719 1.42818 49.9051C-0.134272 42.0383 0.667857 33.884 3.73271 26.4736C6.79757 19.0632 11.9875 12.7295 18.6466 8.27326C25.3057 3.81706 33.1348 1.43872 41.1437 1.43872C51.8811 1.44562 62.1767 5.72044 69.7692 13.3244C77.3617 20.9284 81.6301 31.2396 81.637 41.9932Z" fill="white"/>
<path d="M41.0656 2.81936C33.318 2.8142 25.7428 5.1104 19.2984 9.4175C12.854 13.7246 7.82977 19.8491 4.86131 27.0163C1.89286 34.1835 1.11353 42.0715 2.62186 49.6823C4.13019 57.2932 7.85872 64.2851 13.3353 69.7736C18.8119 75.2621 25.7907 79.0005 33.3891 80.5162C40.9875 82.0319 48.864 81.2567 56.0224 78.2885C63.1807 75.3203 69.2991 70.2925 73.604 63.8412C77.9089 57.3899 80.2068 49.8049 80.2068 42.0456C80.2068 31.6467 76.0837 21.6732 68.7441 14.3176C61.4045 6.96202 51.4488 2.82626 41.0656 2.81936ZM82.1313 42.0456C82.1313 50.1821 79.7216 58.1358 75.2069 64.9003C70.6923 71.6648 64.2755 76.9362 56.7687 80.0476C49.2619 83.1589 41.0025 83.9702 33.0351 82.3791C25.0677 80.7879 17.7506 76.8658 12.0095 71.1088C6.26847 65.3518 2.36139 58.0186 0.782742 50.0372C-0.795905 42.0558 0.0247917 33.7847 3.14093 26.2706C6.25707 18.7564 11.5288 12.3368 18.2888 7.82392C25.0489 3.31103 32.9934 0.907696 41.1176 0.918002C51.9978 0.938689 62.4258 5.28007 70.1143 12.99C77.8029 20.7 82.1244 31.149 82.1313 42.0456Z" fill="#0F4881"/>
<path d="M41.0656 67.8838C46.1682 67.8838 51.1562 66.3685 55.3988 63.5293C59.6415 60.6902 62.9484 56.6548 64.9011 51.9334C66.8538 47.2121 67.3646 42.0169 66.3691 37.0048C65.3736 31.9927 62.9166 27.3888 59.3085 23.7753C55.7004 20.1617 51.1034 17.7008 46.0988 16.7039C41.0942 15.7069 35.907 16.2186 31.1928 18.1742C26.4786 20.1299 22.4491 23.4416 19.6143 27.6907C16.7794 31.9398 15.2665 36.9353 15.2665 42.0456C15.2665 45.4387 15.9338 48.7986 17.2304 51.9334C18.5269 55.0683 20.4273 57.9168 22.823 60.3161C25.2187 62.7154 28.0627 64.6186 31.1928 65.9171C34.3229 67.2156 37.6776 67.8838 41.0656 67.8838ZM41.0656 68.8475C35.7825 68.8527 30.6168 67.2871 26.2231 64.3492C21.8294 61.4112 18.4055 57.2332 16.3849 52.3444C14.3644 47.4556 13.8383 42.0763 14.8734 36.8878C15.9086 31.6993 18.4583 26.9353 22.1994 23.1995C25.9406 19.4637 30.7049 16.9241 35.8886 15.9026C41.0722 14.8812 46.442 15.4238 51.3174 17.4617C56.1929 19.4996 60.3544 22.9411 63.275 27.35C66.1956 31.759 67.7437 36.937 67.7231 42.228C67.7094 49.3044 64.8966 56.0871 59.9003 61.091C54.904 66.0948 48.1314 68.912 41.0656 68.9258" fill="#0F4881"/>
<path d="M36.0724 72.4682L33.0034 77.6775L31.677 77.3389C31.677 75.2812 31.6771 73.2496 31.5211 71.218C30.9749 73.1454 30.4027 75.0728 29.8306 77.0263L28.2441 76.6357C28.9984 74.0311 29.8046 71.6608 30.5849 69.1343L32.8992 69.7072C32.8992 71.5565 32.8992 73.3798 32.8992 75.203L35.6562 70.4105L37.9188 70.9315C37.9188 71.8171 37.6326 72.6506 37.4766 73.5362L37.0086 76.1408C36.8526 76.9743 36.6703 77.8339 36.5143 78.7455L34.8238 78.3287C35.2399 76.4012 35.6302 74.4739 36.0203 72.5725" fill="#0F4881"/>
<path d="M53.5753 68.274L55.2138 67.2582C55.3698 67.2582 55.4999 67.2582 55.6039 67.2582C56.4362 67.701 57.2422 68.1178 58.0485 68.5866L60.0251 69.7848C60.1738 69.8748 60.3133 69.9795 60.4413 70.0973C60.4413 69.915 60.4413 69.8107 60.4413 69.6805C59.583 68.3782 58.7248 67.0758 57.8405 65.7735V65.6172L59.193 64.7578L63.3541 71.3997L61.7677 72.4155L56.2281 69.2378L59.2447 73.9783L57.8666 74.8639C56.4622 72.65 55.0835 70.4358 53.7051 68.1958" fill="#0F4881"/>
<path d="M65.0703 16.6761C63.822 17.9003 62.4697 19.0724 61.3514 20.3227C61.6375 20.5831 61.8714 20.8174 62.1315 21.0258C62.4403 21.3224 62.8304 21.5203 63.2518 21.5945C63.6732 21.6687 64.1069 21.6159 64.4982 21.4427C65.2806 21.1367 65.9145 20.5392 66.2669 19.7756C66.3821 19.5359 66.4418 19.2733 66.4418 19.0073C66.4418 18.7413 66.3821 18.4785 66.2669 18.2388C66.0023 17.6052 65.5596 17.0623 64.9925 16.6761M59.1148 19.8798L64.6284 14.5142L64.9405 14.7226C65.9325 15.4557 66.8092 16.3337 67.5412 17.3272C67.8292 17.7389 68.0228 18.2092 68.1082 18.7045C68.1936 19.1997 68.1686 19.7078 68.0352 20.1923C67.9647 20.5184 67.8325 20.828 67.6453 21.104C67.1956 21.8425 66.5462 22.4384 65.7726 22.823C65.2459 23.1246 64.6499 23.2831 64.0433 23.2831C63.4366 23.2831 62.8404 23.1246 62.3137 22.823C61.5306 22.3683 60.8276 21.7876 60.233 21.104C59.8689 20.7133 59.531 20.2965 59.1669 19.8537" fill="#0F4881"/>
<path d="M25.9295 69.3424C25.9295 68.1442 25.4614 67.4931 24.6812 67.3108C24.3886 67.2458 24.0847 67.2522 23.7951 67.3293C23.5055 67.4063 23.2385 67.5518 23.0167 67.7536C22.2676 68.361 21.7676 69.2232 21.6122 70.1759C21.5304 70.492 21.5464 70.8255 21.6579 71.1324C21.7693 71.4393 21.9709 71.7053 22.2363 71.8951C22.4858 72.1091 22.7975 72.2373 23.1252 72.2607C23.453 72.2841 23.7796 72.2016 24.057 72.0253C24.5481 71.7645 24.9723 71.3939 25.2971 70.9421C25.6218 70.4904 25.8383 69.9697 25.9295 69.4206M27.7238 69.4206C27.6889 70.3899 27.3658 71.3267 26.7958 72.1109C26.2259 72.8952 25.4352 73.4911 24.525 73.8225C23.9141 74.0049 23.2634 74.0049 22.6525 73.8225C22.0694 73.6642 21.5308 73.3723 21.0794 72.97C20.6281 72.5678 20.2764 72.066 20.0518 71.5043C19.8313 70.8273 19.8313 70.0976 20.0518 69.4206C20.2919 68.3998 20.858 67.4853 21.6642 66.8159C22.3412 66.1917 23.2276 65.8452 24.1478 65.8452C25.068 65.8452 25.9547 66.1917 26.6317 66.8159C27.014 67.1335 27.3214 67.5315 27.5327 67.9817C27.744 68.4319 27.8538 68.9232 27.854 69.4206" fill="#0F4881"/>
<path d="M28.764 11.6749L29.6482 11.3102C29.858 11.2007 30.0439 11.0501 30.1946 10.8675C30.3155 10.696 30.3803 10.4912 30.3803 10.2813C30.3803 10.0714 30.3155 9.86675 30.1946 9.69532C30.1076 9.51369 29.9643 9.365 29.7863 9.27117C29.6083 9.17735 29.405 9.14334 29.2063 9.17436C28.7406 9.21973 28.2936 9.38087 27.9059 9.64318C28.166 10.3204 28.4259 10.9716 28.6859 11.6749M31.2867 11.4143C31.6064 11.4833 31.9081 11.6187 32.1724 11.8116C32.4367 12.0045 32.6579 12.2506 32.8213 12.5343L34.0957 14.3056L32.4312 14.9307L31.9369 14.3315L31.2089 13.3158C31.1083 13.1372 30.976 12.9782 30.8187 12.8469C30.7105 12.7174 30.5645 12.6252 30.4012 12.5831C30.238 12.5411 30.0657 12.5514 29.9085 12.6125L29.1542 12.8469C29.4923 13.8106 29.8565 14.7484 30.2206 15.7382L28.5821 16.3633C27.6979 13.967 26.7876 11.5707 25.9814 9.20043C25.9714 9.15759 25.9714 9.11306 25.9814 9.07023C27.0166 8.46534 28.1396 8.02595 29.3101 7.76789C29.6538 7.70302 30.0067 7.70302 30.3505 7.76789C30.6947 7.82083 31.0197 7.96043 31.2953 8.17376C31.5708 8.38709 31.7876 8.66709 31.9254 8.9874C32.0632 9.30771 32.1176 9.65793 32.0832 10.005C32.0488 10.3521 31.9269 10.6847 31.7289 10.9716L31.4689 11.3102" fill="#0F4881"/>
<path d="M49.284 70.8793C49.284 72.0253 49.284 73.0933 49.284 74.1612L50.9225 73.6924L49.1799 70.8793M47.7757 69.9156L50.0123 69.2644L54.5116 76.1408L52.6912 76.6616L51.5467 74.8904L49.4142 75.5157V77.5994L47.6456 78.1203C47.6456 75.3594 47.6456 72.6505 47.6456 69.9156" fill="#0F4881"/>
<path d="M24.0832 17.588L26.6839 15.8169L27.49 17.0151L23.3288 19.8021L18.9595 13.2643L22.9907 10.6597L23.7968 11.8579L21.1961 13.5769C21.5082 14.0197 21.7945 14.4365 22.1066 14.9314L24.4991 13.3165L25.3054 14.5145L22.9126 16.1294L23.953 17.6662" fill="#0F4881"/>
<path d="M57.8927 13.577L59.115 14.3323C59.5051 14.5667 59.9212 14.8012 60.3373 15.0877L59.609 16.3118L57.0083 14.8011C56.6962 15.3481 56.3841 15.8431 56.046 16.3901L58.6467 18.083L57.8927 19.3333L53.6275 16.7287L57.7366 10.0347C59.0889 10.8942 60.4672 11.7017 61.8456 12.6393L61.0916 13.8895L58.4909 12.2746L57.6324 13.6811" fill="#0F4881"/>
<path d="M43.4324 74.2655C42.9643 74.493 42.439 74.5747 41.9241 74.5C41.9241 73.6926 41.9239 72.9633 41.7939 72.2079C42.209 72.0795 42.6531 72.0795 43.0682 72.2079C43.2947 72.2384 43.5053 72.3408 43.6692 72.5003C43.8331 72.6597 43.9415 72.8676 43.9784 73.0934C44.0201 73.3362 43.9909 73.586 43.894 73.8124C43.7971 74.0389 43.6367 74.2326 43.4324 74.3698M44.2905 71.0879C44.0197 71.0053 43.7407 70.9529 43.4584 70.9316H43.0682H42.0539C41.1177 70.9316 40.9877 70.9316 40.5456 70.9316H40.1034L40.4935 78.7456H42.2361C42.2361 77.86 42.2361 76.9745 42.2361 76.141C42.7443 76.1387 43.2504 76.0775 43.7445 75.9586C44.4017 75.8211 45.001 75.4847 45.461 74.9949C45.703 74.6637 45.8632 74.28 45.929 73.8749C46.0401 73.3446 45.96 72.7919 45.7029 72.3151C45.4458 71.8382 45.0286 71.4681 44.5248 71.2703" fill="#0F4881"/>
<path d="M16.9051 15.1392L17.6851 16.3634L17.3209 16.5719C16.768 16.8992 16.3106 17.3661 15.9945 17.9262C15.7793 18.2648 15.665 18.6578 15.665 19.0592C15.665 19.4606 15.7793 19.8536 15.9945 20.1922C16.2607 20.6276 16.6262 20.9936 17.0609 21.2602C17.4994 21.5588 18.0286 21.6936 18.5562 21.6413C19.0838 21.5889 19.5763 21.3527 19.9477 20.9737C20.3723 20.554 20.7161 20.0595 20.962 19.5151L22.1583 20.2704V20.5048C21.637 21.6088 20.7818 22.5202 19.7137 23.1094C19.2131 23.39 18.649 23.5374 18.0753 23.5374C17.5015 23.5374 16.9374 23.39 16.4368 23.1094C15.4498 22.6133 14.681 21.7691 14.2783 20.7393C13.9531 19.9016 13.9531 18.9723 14.2783 18.1346C14.7224 16.8413 15.6565 15.7747 16.879 15.1652" fill="#0F4881"/>
<path d="M17.5813 68.04C17.2952 68.4307 17.0089 68.7954 16.7489 69.1861C16.4095 69.0328 16.0942 68.8311 15.8126 68.5871C15.1081 68.0442 14.5459 67.3381 14.1742 66.5294C13.9137 65.9881 13.8006 65.3875 13.8462 64.7883C13.8919 64.1892 14.0947 63.6128 14.4342 63.1173C14.9164 62.3677 15.6021 61.7713 16.4108 61.3982C16.8385 61.1819 17.3054 61.0543 17.7835 61.023C18.2617 60.9917 18.7415 61.0573 19.1937 61.2158C19.8738 61.4739 20.4942 61.868 21.0173 62.374C21.5404 62.88 21.9552 63.4874 22.2364 64.1591L20.962 64.8624C20.962 64.7322 20.9622 64.6019 20.7541 64.4977C20.4761 63.9071 20.0336 63.4097 19.4798 63.0652C19.1618 62.8873 18.8036 62.7938 18.4394 62.7938C18.0752 62.7938 17.717 62.8873 17.3991 63.0652C16.8309 63.3414 16.3461 63.7638 15.9946 64.2893C15.7119 64.6645 15.559 65.1217 15.559 65.5916C15.559 66.0616 15.7119 66.5188 15.9946 66.894C16.3105 67.3452 16.7075 67.7338 17.1651 68.04L17.5813 68.3006" fill="#0F4881"/>
<path d="M46.553 14.2019L44.8368 13.8372C45.3569 11.2325 45.9291 8.62786 46.4753 6.02319L51.1564 7.03905L50.8443 8.44567L47.9055 7.82042C47.9055 8.41949 47.6714 8.96658 47.5153 9.56566L50.2722 10.1647C50.2722 10.6335 50.0902 11.0762 49.9862 11.5451C49.0499 11.5451 48.1655 11.1545 47.2293 10.9982C46.9952 12.014 46.7871 13.0298 46.553 14.0717" fill="#0F4881"/>
<path d="M59.661 64.2377L61.0134 62.753L64.4462 64.0293L62.9379 60.7213C63.4061 60.2525 63.8223 59.7836 64.3164 59.2627C64.3164 59.5753 64.4984 59.8357 64.6024 60.0962C64.9926 61.3725 65.4086 62.701 65.7987 63.9512C65.8527 64.1776 65.9809 64.3793 66.1628 64.5242L68.2696 66.5298L67.073 67.8321L66.0069 66.8424C65.6688 66.5298 65.3047 66.2173 64.9926 65.8786C64.8011 65.7026 64.5686 65.5772 64.3164 65.514L59.7911 64.2897" fill="#0F4881"/>
<path d="M38.491 13.7848L36.7487 13.9931C36.4886 11.9093 36.2284 9.82565 35.9423 7.68983L33.8616 7.92432C33.8616 7.45548 33.8617 6.98664 33.6797 6.46571L39.6615 5.73633C39.6615 6.20517 39.6614 6.674 39.8434 7.19493L37.711 7.48141C37.971 9.59119 38.2309 11.649 38.491 13.7848Z" fill="#0F4881"/>
<path d="M41.5079 13.5764C41.5079 10.9718 41.768 8.36712 41.872 5.76245H43.6664C43.6664 8.36712 43.4323 10.9718 43.3022 13.5764H41.5079Z" fill="#0F4881"/>
<path d="M55.3696 8.73168L52.4568 15.9986L50.8183 15.3475C51.7546 12.8991 52.7428 10.5028 53.7051 8.05444L55.3696 8.73168Z" fill="#0F4881"/>
<path d="M49.9341 53.8709V47.6719C49.6559 47.6033 49.3651 47.6053 49.088 47.6781C48.8109 47.7509 48.5564 47.8921 48.3477 48.0886C47.8944 48.5073 47.4167 48.8987 46.9172 49.2607C47.1512 49.5473 47.3593 49.7817 47.5673 50.0682L48.7118 49.1565V53.897L49.9341 53.8709ZM32.041 53.8709C32.5175 53.8972 32.9951 53.8972 33.4715 53.8709C33.9623 53.8274 34.4304 53.6452 34.8218 53.3455C35.2131 53.0457 35.5116 52.6409 35.6821 52.178C36.0487 51.2409 36.1211 50.2141 35.8901 49.2347C35.8163 48.7536 35.5748 48.3142 35.2081 47.9947C34.8415 47.6751 34.3734 47.4963 33.8874 47.4896C33.3997 47.4107 32.9006 47.5201 32.4902 47.7956C32.0799 48.0712 31.7891 48.4924 31.6769 48.9743C31.5279 49.4668 31.5279 49.9923 31.6769 50.4849C31.751 50.7609 31.8994 51.0114 32.1058 51.2088C32.3121 51.4063 32.5687 51.5432 32.8474 51.6048C33.1603 51.7057 33.4962 51.71 33.8116 51.6171C34.127 51.5242 34.4071 51.3385 34.6157 51.084C34.65 51.3137 34.6337 51.548 34.5678 51.7707C34.5019 51.9933 34.3881 52.1986 34.2344 52.3724C34.0807 52.5462 33.8909 52.6843 33.6782 52.7767C33.4655 52.8691 33.235 52.9135 33.0033 52.9072H31.9369L32.041 53.8709ZM36.6704 50.6672C36.6649 51.3999 36.8065 52.1262 37.0866 52.803C37.2546 53.1858 37.5455 53.5013 37.913 53.6995C38.2805 53.8977 38.7034 53.9672 39.1149 53.897C39.4889 53.8783 39.8485 53.7462 40.1458 53.5183C40.443 53.2903 40.6639 52.9773 40.7795 52.6207C41.0594 51.7828 41.1482 50.8928 41.0395 50.016C41.0098 49.4356 40.8594 48.8677 40.5975 48.349C40.4213 48.0278 40.155 47.7653 39.8315 47.594C39.5079 47.4228 39.1411 47.3502 38.7768 47.3853C38.4211 47.3754 38.0705 47.4716 37.7695 47.6618C37.4685 47.8519 37.2309 48.1275 37.0866 48.4533C36.8065 49.1301 36.6649 49.8565 36.6704 50.5891M41.8719 50.5891C41.8588 50.7191 41.8588 50.8498 41.8719 50.9797C41.8835 51.5902 42.0162 52.1922 42.262 52.7509C42.442 53.1211 42.7369 53.4229 43.1027 53.6108C43.4685 53.7987 43.8852 53.8625 44.2904 53.7928C44.6576 53.7745 45.0107 53.6453 45.3031 53.4221C45.5956 53.1989 45.8138 52.8924 45.9289 52.5426C46.2247 51.7084 46.3226 50.8167 46.2149 49.938C46.1863 49.326 46.0174 48.7287 45.7209 48.1927C45.5384 47.8881 45.2721 47.6425 44.9539 47.4855C44.6357 47.3284 44.2787 47.2666 43.9262 47.3072C43.5777 47.3002 43.2348 47.395 42.9392 47.58C42.6436 47.7651 42.4085 48.0322 42.262 48.349C41.9636 49.0379 41.8299 49.7872 41.8719 50.537M31.4689 31.4187V30.0644H24.8109V31.4187H25.5392C26.1634 31.4187 26.3713 31.7313 26.3713 32.4085V39.4932C26.3713 39.8839 26.3713 40.2747 26.3713 40.6654C26.3774 40.7903 26.346 40.9141 26.2811 41.0209C26.2162 41.1276 26.121 41.2125 26.0074 41.2644H25.5392H24.8109V42.6448H31.4689V41.2644H30.6625C30.5552 41.2582 30.4502 41.2299 30.3543 41.1811C30.2584 41.1323 30.1738 41.0641 30.1054 40.9809C30.037 40.8978 29.9865 40.8014 29.9571 40.6978C29.9277 40.5942 29.9201 40.4855 29.9346 40.3787V32.2002C29.9238 32.0941 29.9339 31.9868 29.9647 31.8847C29.9956 31.7826 30.0466 31.6877 30.1143 31.6053C30.182 31.523 30.2652 31.4549 30.3594 31.405C30.4535 31.3551 30.5565 31.3243 30.6625 31.3146C30.9311 31.3 31.2004 31.3 31.4689 31.3146M42.3659 29.856V30.0122C41.9758 30.5853 41.6636 30.6895 41.0395 30.403L40.4413 30.1164C39.3265 29.6749 38.1252 29.4968 36.9304 29.5956C36.184 29.6346 35.4557 29.8392 34.7979 30.1946C34.3867 30.4171 34.0275 30.725 33.7449 31.0979C33.4623 31.4708 33.2628 31.9 33.1595 32.3565C33.0686 32.9259 33.0686 33.5061 33.1595 34.0755C33.1868 34.5461 33.3176 35.005 33.5423 35.4192C33.7671 35.8334 34.0804 36.1928 34.4598 36.4718C35.0113 36.8697 35.627 37.1694 36.2802 37.3574C37.3036 37.6432 38.3466 37.8521 39.401 37.9825C40.0356 38.0701 40.6512 38.2639 41.2217 38.5556C41.3571 38.6209 41.4765 38.7154 41.5709 38.8325C41.6654 38.9497 41.7325 39.0863 41.7677 39.2327C41.8666 39.6055 41.8194 40.0021 41.6357 40.3411C41.4519 40.6801 41.1455 40.9359 40.7795 41.056C40.4299 41.1529 40.0733 41.2226 39.7131 41.2644C38.6434 41.4037 37.5562 41.2507 36.5663 40.8217C36.1053 40.6369 35.6977 40.3402 35.3799 39.9583C35.0621 39.5763 34.8442 39.121 34.7459 38.6337C34.7459 38.4774 34.7459 38.3472 34.7459 38.1648H33.1855V42.7491H34.7719C34.8174 42.6525 34.8788 42.5643 34.9538 42.4885C34.9948 42.3933 35.0554 42.308 35.1319 42.2381C35.2084 42.1683 35.2992 42.1157 35.3977 42.0836C35.4961 42.0516 35.6002 42.0408 35.7031 42.0523C35.8059 42.0637 35.9052 42.097 35.9942 42.1499L36.7485 42.4885C37.8052 42.9096 38.9426 43.0877 40.0772 43.0095C40.7607 43.0044 41.4383 42.881 42.0798 42.6448C42.7373 42.4498 43.3282 42.0767 43.7872 41.5665C44.2462 41.0562 44.5553 40.4288 44.6806 39.7537C44.7713 39.2279 44.7713 38.6906 44.6806 38.1648C44.6468 37.7123 44.5182 37.272 44.3031 36.8725C44.088 36.4731 43.7913 36.1235 43.4323 35.8467C42.7526 35.323 41.9598 34.9663 41.1176 34.8049L37.9968 34.1796C37.4564 34.0923 36.9361 33.9071 36.4621 33.6328C36.3065 33.531 36.1789 33.3919 36.0904 33.2282C36.0019 33.0644 35.9555 32.8813 35.9555 32.6951C35.9555 32.509 36.0019 32.3256 36.0904 32.1619C36.1789 31.9982 36.3065 31.8591 36.4621 31.7573C36.7309 31.5984 37.0197 31.4759 37.3206 31.3928C38.1782 31.213 39.0637 31.213 39.9213 31.3928C40.5391 31.4785 41.1169 31.7476 41.5804 32.1654C42.044 32.5832 42.3721 33.1306 42.5221 33.7369C42.5221 33.8932 42.5221 34.0234 42.5221 34.1796L44.0564 34.0234V29.6475L42.3659 29.856ZM58.9846 36.2894C59.0354 35.4129 58.9477 34.5338 58.7246 33.6847C58.5344 32.7435 58.0777 31.8772 57.409 31.189C56.7403 30.5008 55.8879 30.0198 54.9537 29.8038C53.3664 29.4003 51.7033 29.4003 50.116 29.8038C49.1754 30.0021 48.308 30.4577 47.6102 31.1198C46.9124 31.7819 46.4117 32.6246 46.1632 33.5545C45.9643 34.2244 45.8421 34.9148 45.799 35.6123C45.6847 36.7102 45.7549 37.8195 46.007 38.8941C46.1647 39.7829 46.5672 40.61 47.1692 41.2819C47.7712 41.9538 48.5488 42.4439 49.4141 42.6969C51.2183 43.2565 53.1494 43.2565 54.9537 42.6969C55.7508 42.4805 56.4848 42.077 57.0953 41.5199C57.7059 40.9628 58.1754 40.2681 58.4646 39.4932C58.8709 38.4493 59.0482 37.33 58.9846 36.2113M65.9026 41.6811C65.9026 46.599 64.4456 51.4064 61.7158 55.4944C58.9861 59.5823 55.1066 62.7671 50.5684 64.6455C46.0302 66.5239 41.0374 67.0114 36.2224 66.0462C31.4075 65.0811 26.9868 62.7069 23.52 59.2239C20.0533 55.741 17.6962 51.306 16.7477 46.4807C15.7992 41.6555 16.3017 36.6568 18.1916 32.1177C20.0814 27.5786 23.2736 23.7034 27.364 20.9824C31.4544 18.2614 36.2592 16.8172 41.1696 16.8326C47.7364 16.8533 54.0272 19.4805 58.6633 24.1382C63.2994 28.796 65.9027 35.1044 65.9026 41.6811Z" fill="#0F4881"/>
<path d="M49.2841 36.3149C49.2806 35.5433 49.3678 34.7739 49.5441 34.0228C49.7065 33.2719 50.1583 32.6156 50.801 32.1962C51.4438 31.7768 52.2258 31.6282 52.9773 31.7828C53.452 31.8191 53.9039 32.0011 54.2716 32.3041C54.6393 32.6071 54.9046 33.0164 55.0317 33.4759C55.2654 34.0567 55.3975 34.6735 55.4218 35.2992C55.4218 35.9504 55.4218 36.6016 55.4218 37.2527C55.3865 37.9355 55.2996 38.6146 55.1618 39.2843C55.0735 39.9101 54.7609 40.4824 54.2824 40.8945C53.8039 41.3067 53.1922 41.5305 52.5611 41.5242C52.1562 41.589 51.7437 41.589 51.3388 41.5242C51.0411 41.459 50.7621 41.3266 50.5232 41.137C50.2844 40.9474 50.0918 40.7057 49.9603 40.4303C49.62 39.7565 49.4168 39.0216 49.3622 38.2684C49.3622 37.6433 49.3622 37.0183 49.3622 36.3931" fill="#0F4881"/>
<path d="M32.8732 49.625C32.8558 49.4518 32.8558 49.2772 32.8732 49.104C32.9142 48.9991 32.9776 48.9043 33.0586 48.8261C33.1396 48.748 33.2365 48.6884 33.3427 48.6513C33.449 48.6142 33.5622 48.6005 33.6742 48.6112C33.7862 48.6219 33.8944 48.6567 33.9916 48.7133C34.2237 48.8668 34.3967 49.095 34.4818 49.3601C34.5669 49.6253 34.5592 49.9117 34.4599 50.1719C34.3683 50.3556 34.2204 50.5053 34.038 50.599C33.8555 50.6928 33.648 50.7256 33.4456 50.6928C33.2526 50.667 33.0761 50.5699 32.951 50.4205C32.8259 50.2711 32.7612 50.0802 32.7694 49.8854C32.78 49.7989 32.78 49.7115 32.7694 49.625" fill="#0F4881"/>
<path d="M43.0943 50.7713C43.0943 51.9434 43.2503 52.907 43.9525 52.907C44.6547 52.907 44.8109 51.9434 44.8109 50.7713C44.8109 49.5992 44.6026 48.6094 43.9525 48.6094C43.3023 48.6094 43.0943 49.5731 43.0943 50.7713Z" fill="#0F4881"/>
<path d="M38.0229 50.7713C38.0229 51.9434 38.1789 52.907 38.8811 52.907C39.5833 52.907 39.7392 51.9434 39.7392 50.7713C39.7392 49.5992 39.5573 48.6094 38.8811 48.6094C38.2049 48.6094 38.0229 49.5731 38.0229 50.7713Z" fill="#0F4881"/>
</svg>
