<svg width="28" height="29" viewBox="0 0 28 29" fill="none" xmlns="http://www.w3.org/2000/svg">
<g clip-path="url(#clip0_1_66)">
<path d="M9.00109 10.0413C9.22086 11.2204 9.4431 12.4019 9.65547 13.581C9.68757 13.7574 9.7814 13.7574 9.9024 13.7574C13.3463 13.7574 16.7927 13.7626 20.2416 13.7728C20.2737 13.7787 20.3066 13.7779 20.3385 13.7705C20.3703 13.7631 20.4004 13.7493 20.427 13.7298C20.4536 13.7103 20.4763 13.6855 20.4936 13.6569C20.511 13.6283 20.5227 13.5964 20.528 13.5631C20.854 12.65 21.1898 11.7421 21.5158 10.8342C21.6195 10.5426 21.7207 10.2536 21.8417 9.91602H8.99121C8.99195 9.95796 8.99525 9.99982 9.00109 10.0413Z" fill="white"/>
<path d="M21.7896 0H6.21042C4.56332 0 2.98367 0.677679 1.81899 1.88396C0.654311 3.09023 0 4.72629 0 6.43222V22.5678C0 24.2737 0.654311 25.9098 1.81899 27.116C2.98367 28.3223 4.56332 29 6.21042 29H21.7896C23.4367 29 25.0163 28.3223 26.181 27.116C27.3457 25.9098 28 24.2737 28 22.5678V6.43222C28 4.72629 27.3457 3.09023 26.181 1.88396C25.0163 0.677679 23.4367 0 21.7896 0ZM10.5911 24.0205C10.0856 24.0171 9.60168 23.8078 9.24402 23.4379C8.88635 23.0679 8.68366 22.567 8.67978 22.0435C8.67978 21.5178 8.8814 21.0136 9.2403 20.6419C9.5992 20.2702 10.086 20.0614 10.5935 20.0614C11.1011 20.0614 11.5879 20.2702 11.9468 20.6419C12.3056 21.0136 12.5073 21.5178 12.5073 22.0435C12.5021 22.5675 12.2983 23.0684 11.9399 23.4382C11.5814 23.808 11.097 24.0171 10.5911 24.0205ZM19.0856 24.0614C18.5895 24.0402 18.1206 23.8209 17.7771 23.4495C17.4337 23.0781 17.2424 22.5833 17.2435 22.0691C17.2655 21.5551 17.4793 21.07 17.8399 20.7162C18.2005 20.3623 18.6797 20.1673 19.1764 20.1723C19.6731 20.1772 20.1485 20.3818 20.5025 20.7428C20.8564 21.1038 21.0611 21.5931 21.0735 22.1074C21.068 22.3713 21.0122 22.6314 20.9091 22.8728C20.806 23.1142 20.6578 23.332 20.4729 23.5137C20.2881 23.6954 20.0703 23.8374 19.8322 23.9314C19.5941 24.0254 19.3403 24.0696 19.0856 24.0614ZM23.9824 9.60358C23.4885 11.0486 23.0094 12.4885 22.518 13.9284C22.4225 14.2306 22.3104 14.5269 22.1822 14.8159C22.0632 15.0839 21.8691 15.3088 21.6252 15.4611C21.3812 15.6135 21.0986 15.6863 20.8142 15.6701H15.0803C13.4341 15.6701 11.7945 15.6701 10.1614 15.6701C10.1095 15.6701 10.0577 15.6701 9.9836 15.6701C10.0503 16.1356 10.1145 16.5882 10.1836 17.0384C10.2108 17.2148 10.1836 17.4629 10.2972 17.5499C10.4108 17.6368 10.6404 17.6036 10.8232 17.6036C14.0942 17.6036 17.3653 17.6036 20.6364 17.6036C21.6241 17.6036 21.7501 18.2506 21.5747 18.9182C21.4612 19.3427 21.2192 19.5115 20.7623 19.5115H17.4904C15.0507 19.5115 12.6135 19.5115 10.1737 19.5115C9.37613 19.5115 8.87239 19.2864 8.55384 18.3734C8.36215 17.7749 8.21601 17.1618 8.11677 16.5396C7.56198 13.549 7.01379 10.5541 6.47218 7.55499C6.44254 7.3913 6.37587 7.36061 6.22524 7.36317C5.77335 7.36317 5.32393 7.36317 4.8745 7.36317C4.6212 7.35983 4.37926 7.25378 4.20059 7.06778C4.02193 6.88178 3.92078 6.63065 3.91886 6.36829C3.91886 6.15345 3.91886 5.93862 3.91886 5.72123C3.90894 5.62013 3.92044 5.51801 3.95256 5.42199C3.98468 5.32597 4.03665 5.23838 4.10484 5.16532C4.17304 5.09225 4.2558 5.03549 4.34737 4.99898C4.43893 4.96248 4.53709 4.94711 4.63498 4.95396C4.88191 4.95396 5.12885 4.95396 5.36097 4.95396C5.91657 4.95396 6.47465 4.95396 7.03272 4.95396C7.28482 4.93951 7.53384 5.01708 7.73642 5.17316C7.93901 5.32924 8.08233 5.55395 8.14146 5.80818C8.26987 6.30179 8.33407 6.8133 8.42297 7.31713C8.4581 7.48594 8.48366 7.65674 8.49951 7.82864C8.49951 7.99488 8.56619 8.04859 8.74645 8.04859C11.117 8.04859 13.4884 8.04859 15.8607 8.04859H22.6514C22.8169 8.04825 22.9822 8.0628 23.1453 8.09207C23.9108 8.22506 24.2491 8.80307 23.9824 9.60358Z" fill="white"/>
</g>
<defs>
<clipPath id="clip0_1_66">
<rect width="28" height="29" fill="white"/>
</clipPath>
</defs>
</svg>
