<svg width="20" height="20" viewBox="0 0 20 20" fill="none" xmlns="http://www.w3.org/2000/svg">
<path d="M15.7702 8.29198C15.8207 7.49781 15.741 6.70075 15.5343 5.93222C15.2455 4.77686 14.6957 3.7028 13.9271 2.79232C13.1565 1.88138 12.1873 1.15872 11.0937 0.679734C10.3062 0.318143 9.46094 0.0984801 8.59685 0.0308977L8.29127 0H7.4751L7.16952 0.0308977C5.86327 0.138584 4.60661 0.579432 3.51997 1.31119C1.88484 2.39118 0.716089 4.04545 0.245624 5.94574C0.11855 6.42304 0.0420571 6.91236 0.0174065 7.40562C0.0136645 7.42989 0.00784095 7.45379 0 7.47707V8.31322C0.00784095 8.33649 0.0136645 8.3604 0.0174065 8.38467C0.0356248 8.80316 0.0939122 9.21894 0.191471 9.62634C0.437285 10.7323 0.920283 11.7719 1.60719 12.6736C2.29281 13.5744 3.16575 14.3162 4.16594 14.8479C5.14909 15.3842 6.23882 15.6967 7.35712 15.7633C8.02217 15.8101 8.6905 15.7705 9.34532 15.6455C10.0673 15.5041 10.7659 15.2623 11.4206 14.9271C11.614 14.8286 11.8074 14.7224 12.0008 14.6143L12.0723 14.6934L17.066 19.691C17.1541 19.7881 17.2615 19.8657 17.3813 19.9189C17.5029 19.9735 17.6348 20.0011 17.7681 20C17.9014 20.0011 18.0333 19.9735 18.1549 19.9189C18.275 19.8662 18.3825 19.7885 18.4702 19.691C18.8821 19.2797 19.2863 18.8626 19.706 18.4609C19.8016 18.3698 19.8785 18.2609 19.9323 18.1404C19.9851 18.0185 20.0121 17.887 20.0116 17.7542C20.0134 17.6214 19.987 17.4898 19.9342 17.368C19.8824 17.2463 19.806 17.1365 19.7099 17.0455C18.3251 15.6744 16.95 14.2937 15.573 12.9188L14.6098 11.9803C14.6311 11.9436 14.6504 11.9089 14.6717 11.876C15.3262 10.7891 15.7034 9.55843 15.7702 8.29198ZM12.2522 10.8236C11.6692 11.6884 10.8418 12.3605 9.87525 12.7547C8.9091 13.1485 7.84766 13.2473 6.82526 13.0385C5.80304 12.8284 4.86616 12.3203 4.13306 11.5786C3.4015 10.8377 2.90618 9.89694 2.7096 8.87516C2.51595 7.85118 2.63036 6.79287 3.03839 5.83374C3.44776 4.87491 4.13299 4.05901 5.00725 3.48943C5.88169 2.9207 6.90541 2.62367 7.94894 2.6359C9.33618 2.65353 10.6606 3.21619 11.6352 4.20199C12.6079 5.18914 13.1519 6.51908 13.1496 7.90383C13.146 8.94425 12.8337 9.96028 12.2522 10.8236Z" fill="#1D1D1B"/>
</svg>
